<?xml version="1.0" encoding="utf-8"?>
<!-- Generator: Adobe Illustrator 21.1.0, SVG Export Plug-In . SVG Version: 6.00 Build 0)  -->
<svg version="1.1" id="Capa_1" xmlns="http://www.w3.org/2000/svg" xmlns:xlink="http://www.w3.org/1999/xlink" x="0px" y="0px"
	 viewBox="0 0 495 512.9" style="enable-background:new 0 0 495 512.9;" xml:space="preserve">
<style type="text/css">
	.st0{clip-path:url(#SVGID_2_);fill:none;stroke:#F0F4D9;stroke-width:2;stroke-linecap:round;stroke-dasharray:5.931,3.931;}
	.st1{clip-path:url(#SVGID_2_);fill:none;stroke:#F0F4D9;stroke-width:2;stroke-linecap:round;stroke-dasharray:5.949,3.949;}
	.st2{clip-path:url(#SVGID_2_);fill:none;stroke:#F0F4D9;stroke-width:2;stroke-linecap:round;stroke-dasharray:5.996,3.996;}
	.st3{clip-path:url(#SVGID_2_);fill:none;stroke:#F0F4D9;stroke-width:2;stroke-linecap:round;stroke-dasharray:6.051,4.051;}
	.st4{clip-path:url(#SVGID_2_);fill:none;stroke:#F0F4D9;stroke-width:2;stroke-linecap:round;stroke-dasharray:6.031,4.031;}
	.st5{clip-path:url(#SVGID_2_);fill:none;stroke:#F0F4D9;stroke-width:2;stroke-linecap:round;}
	.st6{fill:none;stroke:#F0F4D9;stroke-width:2;stroke-linecap:round;}
</style>
<g>
	<defs>
		<rect id="SVGID_1_" width="495" height="512.9"/>
	</defs>
	<clipPath id="SVGID_2_">
		<use xlink:href="#SVGID_1_"  style="overflow:visible;"/>
	</clipPath>
	<path class="st0" d="M145,380.8c0,0-152.2,117.8,61.3,131"/>
	<path class="st1" d="M182.8,367.1c45.4,6.3,301.5,37.7,310.9-48.2"/>
	<path class="st2" d="M493.1,307c-25.1-88.2-543.3,5.4-487.9-149.7"/>
	<path class="st3" d="M10.6,146.6c50.2-63.2,436.5-23.1,457.7-78.7"/>
	<path class="st4" d="M468,56C449.5,3,218.2,1,181,1"/>
	<path class="st5" d="M179,1c-2,0-3,0-3,0 M468.8,65.9c0.2-1,0.3-2,0.3-3c0-1-0.1-2-0.2-3 M5.8,155.4c0.4-0.9,0.7-1.8,1.1-2.8
		c0.4-0.9,0.8-1.8,1.3-2.7 M493.9,316.9c0.1-1,0.1-2,0.1-3c0-1-0.1-2-0.2-3 M176,366.1c0,0,1,0.2,2.9,0.4"/>
</g>
<polyline class="st6" points="101.9,457 92.9,464.6 84.1,455.5 "/>
<polyline class="st6" points="162.5,247.1 169.3,256.7 159.4,264.7 "/>
<polyline class="st6" points="269.3,95.3 263,104.2 272.1,111.7 "/>
</svg>
