<?xml version="1.0" encoding="utf-8"?>
<!-- Generator: Adobe Illustrator 25.4.1, SVG Export Plug-In . SVG Version: 6.00 Build 0)  -->
<svg version="1.1" id="Layer_1" xmlns="http://www.w3.org/2000/svg" xmlns:xlink="http://www.w3.org/1999/xlink" x="0px" y="0px"
	 viewBox="0 0 204 106" style="enable-background:new 0 0 204 106;" xml:space="preserve">
<style type="text/css">
	.st0{fill:#FFFFFF;}
	.st1{fill:#00ABCC;}
</style>
<g>
	<g>
		<rect x="102" y="4.3" class="st0" width="97.5" height="97.4"/>
	</g>
	<g>
		<path class="st1" d="M202,104.3H99.4V1.7H202V104.3L202,104.3z M104.5,99.1h92.3V6.9h-92.3V99.1L104.5,99.1z"/>
	</g>
	<g>
		<polygon class="st0" points="4.6,4.3 4.6,101.7 102.1,101.7 114.7,57.1 102.1,4.3 		"/>
	</g>
	<g>
		<path class="st1" d="M104,104.3H2V1.7h102.1l13.3,55.5L104,104.3L104,104.3z M7.2,99.1h92.9L112,57.1L100,6.9H7.2V99.1L7.2,99.1z"
			/>
	</g>
	<path class="st1" d="M170.9,73.5c-0.7,0.2-1.9,0.5-3.5,0.7c-1.6,0.2-3.6,0.4-5.9,0.4c-3.2,0-6.1-0.6-8.5-1.7
		c-2.4-1.1-4.4-2.7-6-4.7c-1.6-2-2.8-4.4-3.6-7.2c-0.8-2.8-1.2-5.9-1.2-9.3c0-3.5,0.5-6.7,1.4-9.5c0.9-2.8,2.2-5.2,3.9-7.2
		c1.7-2,3.7-3.5,6.1-4.5c2.4-1,5-1.6,8-1.6c2.8,0,5.4,0.3,8.1,1c2.6,0.7,4.8,1.5,6.4,2.6l2.6-6.7c-0.3-0.2-0.9-0.6-1.8-1
		c-0.9-0.4-2.1-0.9-3.5-1.3c-1.4-0.4-3.2-0.8-5.2-1.2c-2-0.3-4.3-0.5-6.9-0.5c-3.8,0-7.4,0.7-10.7,2c-3.3,1.3-6.2,3.2-8.7,5.8
		c-2.5,2.5-4.4,5.7-5.9,9.4c-1.5,3.7-2.2,8-2.2,12.8c0,4.8,0.6,9,1.9,12.7c1.3,3.7,3.1,6.8,5.5,9.3c2.4,2.5,5.2,4.4,8.5,5.8
		c3.3,1.3,7,2,11,2c2,0,3.9-0.1,5.9-0.3c1.9-0.2,3.7-0.4,5.3-0.7c1.6-0.3,3.1-0.6,4.3-0.8c1.2-0.3,2.2-0.5,2.9-0.7V52.2h-8V73.5z"/>
	<rect x="53" y="23.2" class="st1" width="8" height="57.2"/>
</g>
</svg>
