<?xml version="1.0" encoding="utf-8"?>
<!-- Generator: Adobe Illustrator 14.0.0, SVG Export Plug-In . SVG Version: 6.00 Build 43363)  -->
<!DOCTYPE svg PUBLIC "-//W3C//DTD SVG 1.1//EN" "http://www.w3.org/Graphics/SVG/1.1/DTD/svg11.dtd">
<svg version="1.1" id="Layer_1" xmlns="http://www.w3.org/2000/svg" xmlns:xlink="http://www.w3.org/1999/xlink" x="0px" y="0px"
	 width="438.751px" height="212.133px" viewBox="0 0 438.751 212.133" enable-background="new 0 0 438.751 212.133"
	 xml:space="preserve">
<g>
	<path fill="#FFFFFF" d="M16.788,34.202c0,0-11.377,39.107-11.73,85.507c-0.352,46.399,11.178,86.025,11.178,86.025
		s166.713,7.625,208.68,6.227s204.445-6.982,204.445-6.982s5.762-41.596,6.578-85.553c0.938-50.586-6.023-85.981-6.023-85.981
		s-154.99-6.046-212.555-6.219C159.797,27.055,16.788,34.202,16.788,34.202"/>
	<path fill="none" stroke="#231F20" d="M9.926,14.847c0,0-9.055,46.674-9.416,93.778c-0.361,47.104,8.842,80.361,8.842,80.361
		s76.313,7.518,161.311,7.734c150.387,0.385,261.869-4.435,261.869-4.435s4.82-59.629,5.652-104.252
		c0.955-51.356-8.576-73.951-8.576-73.951s-136.16-4.015-194.635-4.189C176.497,9.719,9.926,14.847,9.926,14.847z"/>
	<g opacity="0.57">
		<g>
			<path fill="#D0B8D8" d="M412.165,36.272c-2.045,1.067-2.922,2.429-2.49,3.52c-0.189,0.212-0.467,0.45-0.889,0.732
				c-1.699,1.116-3.736,1.585-3.736,1.585l0.02,0.005c-1.135,0.284-2.316,0.636-3.451,1.248c-0.014,0.005-0.023,0.01-0.035,0.015
				c-2.418,1.262-2.893,3.021-1.064,3.929c1.809,0.898,5.199,0.626,7.611-0.603l0.006,0.001c0,0,2.582-1.267,3.58-3.275l0.023,0.005
				c0.598-1.048,1.813-1.557,2.842-1.84c1.844-0.06,3.869-0.54,5.502-1.393c2.891-1.509,3.459-3.61,1.271-4.695
				c-0.037-0.02-0.082-0.035-0.121-0.054c2.086-1.44,4.906-3.41,5.342-3.85c0,0-1.813,0.708-6.053,3.356
				c-0.09,0.056-0.164,0.107-0.252,0.164C417.979,34.552,414.627,34.987,412.165,36.272"/>
		</g>
	</g>
	<path fill="#37383F" d="M424.018,21.315c0,0,1.871,9.023,2.531,10.216c0,0,0.572-1.736-0.105-6.977
		C425.768,19.315,423.532,20.164,424.018,21.315"/>
	<path fill="#E32A33" d="M430.331,5.191c0.119-2.692-2.914-5.014-6.768-5.181c-3.854-0.169-7.074,1.877-7.191,4.573
		c-0.119,2.692,2.91,5.014,6.766,5.181C426.993,9.932,430.211,7.886,430.331,5.191"/>
	<path fill="#E32A33" d="M430.807,15.443c-0.707-0.873-2.283-1.208-2.654-3.3c-0.385-2.164,0.914-3.732,0.914-3.732l-0.029,0.003
		c0.752-0.996,1.402-2.121,1.279-3.619C430.12,2.356,416.375,4.5,416.375,4.5s-0.293,2.781,2.666,5.653l-0.037,0.006
		c1.588,1.673,1.082,2.958,0.434,3.806c-0.219,0.238-0.451,0.488-0.686,0.765c-0.027,0.029-0.053,0.059-0.078,0.084
		c-0.123,0.139-0.242,0.304-0.355,0.478c-0.281,0.405-0.539,0.864-0.727,1.4c-0.016,0.035-0.023,0.055-0.023,0.055h0.006
		c-0.02,0.051-0.035,0.104-0.053,0.158c-0.123,0.346-0.195,0.706-0.213,1.078c-0.125,2.866,3.098,5.335,7.201,5.514
		c4.102,0.179,7.529-1.998,7.654-4.865C432.217,17.458,431.708,16.354,430.807,15.443"/>
	<path fill="#E74057" d="M429.799,4.407c0.094-2.15-2.715-4.018-6.271-4.174c-3.559-0.155-6.518,1.461-6.613,3.613
		c-0.096,2.15,2.715,4.018,6.273,4.174C426.745,8.175,429.708,6.56,429.799,4.407"/>
	<path fill="#E32A33" d="M433.018,18.855c0.139-3.222-3.482-5.994-8.088-6.194c-4.607-0.201-8.457,2.245-8.598,5.465
		c-0.141,3.22,3.48,5.993,8.088,6.194S432.877,22.074,433.018,18.855"/>
	<path fill="#E74057" d="M418.323,17.197c0,0-1.375,1.857-0.65,3.433c0.723,1.574,4.238,3.144,7.369,3.072
		c3.131-0.07,7.719-1.996,7.313-5.141c-0.404-3.145-2.25-3.85-3.604-4.369c-1.354-0.518-1.418-3.772-0.648-5.199
		c0.77-1.425,0.752-1.926,0.752-1.926s-3.289,2.773-9.367,0.632c0,0-0.422,1.066-0.037,1.792c0.385,0.724,4.998,1.093,7.453,0.283
		c0,0-0.906,3.546,1.129,4.636c2.037,1.089,1.545,3.796-0.242,4.576C424.03,20.625,419.262,19.49,418.323,17.197"/>
	
		<line fill="none" stroke="#929497" stroke-width="1.5" stroke-linecap="round" stroke-linejoin="round" stroke-miterlimit="10" stroke-dasharray="0,4.532" x1="26.577" y1="76.019" x2="412.352" y2="76.019"/>
	<path fill="none" stroke="#929497" stroke-width="1.5" stroke-linecap="round" stroke-linejoin="round" stroke-miterlimit="10" d="
		M415.252,76.019L415.252,76.019 M20.778,76.019L20.778,76.019"/>
	
		<line fill="none" stroke="#929497" stroke-width="1.5" stroke-linecap="round" stroke-linejoin="round" stroke-miterlimit="10" stroke-dasharray="0,4.532" x1="26.577" y1="105.335" x2="412.352" y2="105.335"/>
	<path fill="none" stroke="#929497" stroke-width="1.5" stroke-linecap="round" stroke-linejoin="round" stroke-miterlimit="10" d="
		M415.252,105.335L415.252,105.335 M20.778,105.335L20.778,105.335"/>
</g>
</svg>
