<?xml version="1.0" encoding="utf-8"?>
<!-- Generator: Adobe Illustrator 21.1.0, SVG Export Plug-In . SVG Version: 6.00 Build 0)  -->
<svg version="1.1" id="Capa_1" xmlns="http://www.w3.org/2000/svg" xmlns:xlink="http://www.w3.org/1999/xlink" x="0px" y="0px"
	 viewBox="0 0 65.131 44.051" style="enable-background:new 0 0 65.131 44.051;" xml:space="preserve">
<style type="text/css">
	.st0{clip-path:url(#SVGID_2_);}
	.st1{clip-path:url(#SVGID_4_);fill:#005CA8;}
	.st2{filter:url(#Adobe_OpacityMaskFilter);}
	.st3{clip-path:url(#SVGID_4_);}
	.st4{clip-path:url(#SVGID_4_);mask:url(#SVGID_5_);}
	.st5{opacity:0.2;clip-path:url(#SVGID_9_);fill:#1D1D1B;}
	.st6{clip-path:url(#SVGID_2_);fill:#FFFFFF;}
	.st7{clip-path:url(#SVGID_11_);fill:none;stroke:#005CA8;stroke-width:2.151;stroke-linecap:round;}
	.st8{clip-path:url(#SVGID_2_);fill:none;stroke:#005CA8;stroke-width:1.434;stroke-linecap:round;}
	.st9{clip-path:url(#SVGID_13_);fill:#005CA8;}
	.st10{clip-path:url(#SVGID_15_);fill:#FFFFFF;}
</style>
<g>
	<defs>
		<rect id="SVGID_1_" x="-11.667" y="-7.616" width="93" height="62"/>
	</defs>
	<clipPath id="SVGID_2_">
		<use xlink:href="#SVGID_1_"  style="overflow:visible;"/>
	</clipPath>
	<g class="st0">
		<defs>
			<rect id="SVGID_3_" x="-11.667" y="-7.616" width="93" height="62"/>
		</defs>
		<clipPath id="SVGID_4_">
			<use xlink:href="#SVGID_3_"  style="overflow:visible;"/>
		</clipPath>
		<path class="st1" d="M31.034,15.718c0,0-2.184,0-2.184,2.184v17.771c0,0,0,2.184,2.184,2.184h31.913c0,0,2.184,0,2.184-2.184
			V17.902c0,0,0-2.184-2.184-2.184H31.034z"/>
		<defs>
			<filter id="Adobe_OpacityMaskFilter" filterUnits="userSpaceOnUse" x="4.188" y="0" width="31.68" height="40.8">
				<feColorMatrix  type="matrix" values="1 0 0 0 0  0 1 0 0 0  0 0 1 0 0  0 0 0 1 0"/>
			</filter>
		</defs>
		<mask maskUnits="userSpaceOnUse" x="4.188" y="0" width="31.68" height="40.8" id="SVGID_5_">
			<g class="st2">
				<g>
					<defs>
						<rect id="SVGID_6_" x="-4.692" y="-6.96" width="49.92" height="48.96"/>
					</defs>
					<clipPath id="SVGID_7_" class="st3">
						<use xlink:href="#SVGID_6_"  style="overflow:visible;"/>
					</clipPath>
					<g transform="matrix(1 0 0 1 0 0)" style="clip-path:url(#SVGID_7_);">
						
							<image style="overflow:visible;" width="208" height="204" xlink:href="F54689241CF03EF6.jpg"  transform="matrix(0.24 0 0 0.24 -4.6919 -6.9599)">
						</image>
					</g>
				</g>
			</g>
		</mask>
		<g class="st4">
			<g>
				<defs>
					<rect id="SVGID_8_" x="4.188" y="0" width="31.68" height="40.8"/>
				</defs>
				<clipPath id="SVGID_9_">
					<use xlink:href="#SVGID_8_"  style="overflow:visible;"/>
				</clipPath>
				<rect x="4.188" class="st5" width="31.68" height="40.8"/>
			</g>
		</g>
	</g>
	<rect x="1.873" y="2.475" class="st6" width="31.473" height="40.724"/>
	<g class="st0">
		<defs>
			<rect id="SVGID_10_" x="-11.667" y="-7.616" width="93" height="62"/>
		</defs>
		<clipPath id="SVGID_11_">
			<use xlink:href="#SVGID_10_"  style="overflow:visible;"/>
		</clipPath>
		<path class="st7" d="M1.188,2.712v36.633c0,0,0.554,3.761,1.98,3.761h31.277c-1.505,0-1.98-3.761-1.98-3.761V2.712H1.188z"/>
	</g>
	<rect x="5.744" y="14.693" class="st8" width="9.581" height="9.482"/>
	<g class="st0">
		<defs>
			<rect id="SVGID_12_" x="-11.667" y="-7.616" width="93" height="62"/>
		</defs>
		<clipPath id="SVGID_13_">
			<use xlink:href="#SVGID_12_"  style="overflow:visible;"/>
		</clipPath>
		<path class="st9" d="M26.567,8.995l0.569-1.908l0.577,1.908H26.567z M28.288,10.944h1.028L27.702,6.08h-1.085l-1.592,4.864H26
			L26.338,9.8h1.607L28.288,10.944z M25.247,6.08h-3.545v0.847h1.295v4.017h0.953V6.927h1.297V6.08z M18.418,9.67l-0.419,0.674
			c0.461,0.399,1.038,0.669,1.712,0.669c0.915,0,1.651-0.491,1.651-1.494c0-1.765-2.293-1.129-2.293-2.101
			c0-0.356,0.306-0.562,0.722-0.562c0.35,0,0.761,0.145,1.095,0.38l0.411-0.655c-0.421-0.352-0.996-0.57-1.569-0.57
			c-0.88,0-1.597,0.509-1.597,1.479c0,1.717,2.272,1.127,2.272,2.101c0,0.367-0.319,0.556-0.745,0.556
			C19.236,10.147,18.8,9.962,18.418,9.67 M16.36,10.944h0.955V6.08H16.36V10.944z M12.878,6.08h-1.02l1.555,4.864h0.821l1.561-4.864
			h-0.97l-0.977,3.368L12.878,6.08z M8.578,10.944h2.967v-0.843H9.522V8.913h1.715V8.071H9.522V6.923h1.975V6.08H8.578V10.944z
			 M5.401,8.336V6.915h0.608c0.475,0,0.781,0.241,0.781,0.713c0,0.454-0.279,0.708-0.781,0.708H5.401z M4.463,10.944h0.938V9.173
			h0.522l0.924,1.771h1.106L6.87,9.024c0.548-0.239,0.873-0.753,0.873-1.408c0-0.896-0.611-1.536-1.639-1.536H4.463V10.944z"/>
	</g>
	<line class="st8" x1="18.136" y1="16.279" x2="28.015" y2="16.279"/>
	<line class="st8" x1="18.136" y1="20.139" x2="28.015" y2="20.139"/>
	<line class="st8" x1="18.136" y1="24.175" x2="28.015" y2="24.175"/>
	<line class="st8" x1="5.337" y1="29.574" x2="29.094" y2="29.574"/>
	<line class="st8" x1="5.337" y1="33.434" x2="29.094" y2="33.434"/>
	<line class="st8" x1="5.337" y1="37.47" x2="29.094" y2="37.47"/>
	<g class="st0">
		<defs>
			<rect id="SVGID_14_" x="-11.667" y="-7.616" width="93" height="62"/>
		</defs>
		<clipPath id="SVGID_15_">
			<use xlink:href="#SVGID_14_"  style="overflow:visible;"/>
		</clipPath>
		<path class="st10" d="M51.593,25.824c0.475-0.163,0.964-0.356,1.467-0.58c0.502-0.224,0.957-0.472,1.365-0.744v10.168h3.036
			V20.547h-2.119c-0.299,0.313-0.635,0.608-1.009,0.886c-0.373,0.279-0.764,0.544-1.171,0.795c-0.408,0.252-0.826,0.482-1.253,0.693
			c-0.428,0.211-0.839,0.397-1.233,0.56L51.593,25.824z M44.268,30.552c-0.333,0.394-0.737,0.71-1.213,0.947
			c-0.476,0.238-1.026,0.408-1.65,0.51c-0.625,0.102-1.325,0.16-2.099,0.173c0.027,0.435,0.054,0.856,0.081,1.263
			c0.027,0.408,0.048,0.829,0.062,1.264c1.548-0.014,2.886-0.201,4.014-0.561c1.127-0.36,2.054-0.886,2.781-1.579
			c0.727-0.693,1.263-1.549,1.61-2.567c0.346-1.019,0.519-2.194,0.519-3.526c0-2.023-0.445-3.576-1.334-4.656
			c-0.89-1.079-2.211-1.619-3.963-1.619c-0.856,0-1.587,0.152-2.191,0.458c-0.605,0.306-1.104,0.693-1.498,1.161
			c-0.394,0.469-0.682,0.989-0.866,1.559c-0.183,0.571-0.275,1.128-0.275,1.671c0,0.652,0.095,1.25,0.286,1.793
			c0.19,0.544,0.485,1.009,0.886,1.396c0.4,0.387,0.913,0.686,1.538,0.897c0.625,0.21,1.379,0.315,2.262,0.315
			c0.245,0,0.54-0.03,0.887-0.091c0.346-0.061,0.662-0.16,0.947-0.296C44.862,29.662,44.6,30.158,44.268,30.552 M41.802,26.558
			c-0.36-0.353-0.54-0.897-0.54-1.63c0-0.245,0.037-0.496,0.112-0.754s0.187-0.496,0.336-0.713c0.15-0.217,0.347-0.394,0.591-0.53
			c0.245-0.136,0.53-0.204,0.856-0.204c0.408,0,0.75,0.092,1.029,0.275c0.278,0.184,0.499,0.435,0.662,0.754
			c0.163,0.32,0.279,0.693,0.347,1.121c0.067,0.428,0.108,0.886,0.122,1.375c0,0.041-0.004,0.089-0.01,0.143
			c-0.007,0.054-0.01,0.109-0.01,0.163v0.183c-0.163,0.109-0.415,0.194-0.754,0.255c-0.34,0.061-0.666,0.092-0.978,0.092
			C42.75,27.088,42.162,26.911,41.802,26.558"/>
	</g>
</g>
</svg>
