<?xml version="1.0" encoding="utf-8"?>
<!-- Generator: Adobe Illustrator 21.1.0, SVG Export Plug-In . SVG Version: 6.00 Build 0)  -->
<svg version="1.1" id="Capa_1" xmlns="http://www.w3.org/2000/svg" xmlns:xlink="http://www.w3.org/1999/xlink" x="0px" y="0px"
	 viewBox="0 0 31.991 48.588" style="enable-background:new 0 0 31.991 48.588;" xml:space="preserve">
<style type="text/css">
	.st0{clip-path:url(#SVGID_2_);}
	.st1{opacity:0.57;clip-path:url(#SVGID_4_);}
	.st2{clip-path:url(#SVGID_6_);fill:#D9C2DF;}
	.st3{clip-path:url(#SVGID_4_);fill:#3C383D;}
	.st4{clip-path:url(#SVGID_4_);fill:#DD1C25;}
	.st5{clip-path:url(#SVGID_4_);fill:#E2344D;}
</style>
<g>
	<defs>
		<rect id="SVGID_1_" width="31.991" height="48.588"/>
	</defs>
	<clipPath id="SVGID_2_">
		<use xlink:href="#SVGID_1_"  style="overflow:visible;"/>
	</clipPath>
	<g class="st0">
		<defs>
			<rect id="SVGID_3_" y="0" width="31.991" height="48.588"/>
		</defs>
		<clipPath id="SVGID_4_">
			<use xlink:href="#SVGID_3_"  style="overflow:visible;"/>
		</clipPath>
		<g class="st1">
			<g>
				<defs>
					<rect id="SVGID_5_" x="-11.274" y="22.531" width="48.754" height="27.414"/>
				</defs>
				<clipPath id="SVGID_6_">
					<use xlink:href="#SVGID_5_"  style="overflow:visible;"/>
				</clipPath>
				<path class="st2" d="M12.179,36.623c-1.976,1.167-2.775,2.566-2.291,3.627c-0.175,0.221-0.438,0.472-0.845,0.773
					c-1.627,1.198-3.629,1.771-3.629,1.771l0.02,0.004c-1.112,0.341-2.268,0.753-3.365,1.418c-0.011,0.006-0.022,0.012-0.033,0.018
					c-2.337,1.379-2.718,3.151-0.853,3.958c1.845,0.798,5.198,0.352,7.532-0.995H8.72c0,0,2.499-1.392,3.387-3.44l0.025,0.004
					c0.538-1.073,1.718-1.641,2.725-1.976c1.831-0.156,3.816-0.738,5.394-1.67c2.793-1.649,3.249-3.767,1.02-4.731
					c-0.039-0.017-0.084-0.031-0.125-0.047c2-1.539,4.697-3.643,5.108-4.103c0,0-1.764,0.797-5.837,3.65
					c-0.089,0.061-0.16,0.115-0.244,0.176C17.869,34.611,14.561,35.218,12.179,36.623"/>
			</g>
		</g>
		<path class="st3" d="M23.177,21.145c0,0,2.332,8.868,3.05,10.019c0,0,0.476-1.755-0.468-6.926
			C24.812,19.067,22.634,20.027,23.177,21.145"/>
		<path class="st4" d="M28.611,4.797c-0.023-2.682-3.155-4.83-6.993-4.796c-3.839,0.033-6.932,2.235-6.909,4.917
			c0.024,2.683,3.155,4.83,6.994,4.797C25.54,9.681,28.633,7.48,28.611,4.797"/>
		<path class="st4" d="M29.618,14.958c-0.749-0.831-2.331-1.082-2.81-3.141c-0.494-2.129,0.714-3.756,0.714-3.756l-0.029,0.006
			c0.696-1.03,1.283-2.181,1.085-3.662c-0.324-2.415-13.87,0.432-13.87,0.432s-0.144,2.778,2.944,5.478l-0.036,0.008
			c1.665,1.58,1.231,2.883,0.63,3.76c-0.205,0.246-0.424,0.508-0.642,0.794c-0.026,0.031-0.05,0.061-0.072,0.088
			c-0.116,0.144-0.226,0.315-0.329,0.494c-0.26,0.416-0.491,0.885-0.649,1.428c-0.014,0.036-0.02,0.056-0.02,0.056l0.004-0.001
			c-0.016,0.053-0.03,0.106-0.044,0.16c-0.103,0.349-0.156,0.711-0.153,1.081c0.025,2.855,3.356,5.139,7.441,5.104
			c4.085-0.036,7.376-2.378,7.351-5.233C31.122,16.887,30.559,15.815,29.618,14.958"/>
		<path class="st5" d="M28.042,4.046c-0.019-2.142-2.906-3.851-6.449-3.82c-3.543,0.031-6.401,1.79-6.382,3.932
			c0.019,2.142,2.906,3.852,6.45,3.821C25.203,7.948,28.061,6.188,28.042,4.046"/>
		<path class="st4" d="M31.991,18.232c-0.028-3.207-3.771-5.773-8.358-5.733c-4.59,0.04-8.286,2.671-8.258,5.878
			c0.028,3.206,3.77,5.773,8.359,5.733C28.322,24.07,32.019,21.438,31.991,18.232"/>
		<path class="st5" d="M17.304,17.351c0,0-1.268,1.917-0.468,3.444c0.801,1.526,4.377,2.904,7.485,2.67
			c3.104-0.234,7.563-2.387,6.996-5.49c-0.565-3.104-2.436-3.709-3.807-4.153s-1.607-3.674-0.916-5.131
			c0.692-1.456,0.647-1.953,0.647-1.953s-3.125,2.927-9.274,1.116c0,0-0.363,1.081,0.056,1.782c0.421,0.7,5.023,0.826,7.419-0.106
			c0,0-0.715,3.57,1.366,4.547c2.08,0.976,1.733,3.692-0.002,4.559C23.155,20.46,18.359,19.579,17.304,17.351"/>
	</g>
</g>
</svg>
