<?xml version="1.0" encoding="utf-8"?>
<!-- Generator: Adobe Illustrator 16.2.1, SVG Export Plug-In . SVG Version: 6.00 Build 0)  -->
<!DOCTYPE svg PUBLIC "-//W3C//DTD SVG 1.1//EN" "http://www.w3.org/Graphics/SVG/1.1/DTD/svg11.dtd">
<svg version="1.1" id="Capa_1" xmlns="http://www.w3.org/2000/svg" xmlns:xlink="http://www.w3.org/1999/xlink" x="0px" y="0px"
	 width="23.825px" height="41.952px" viewBox="0 0 23.825 41.952" enable-background="new 0 0 23.825 41.952" xml:space="preserve">
<g>
	<defs>
		<polygon id="SVGID_1_" points="1.228,20.662 1.786,20.676 2.259,20.688 2.731,20.7 5.586,13.26 5.586,13.259 5.12,13.085 
			4.65,12.91 4.184,12.736 4.182,12.736 		"/>
	</defs>
	<clipPath id="SVGID_2_">
		<use xlink:href="#SVGID_1_"  overflow="visible"/>
	</clipPath>
	<g clip-path="url(#SVGID_2_)">
		<g>
			<defs>
				
					<rect id="SVGID_3_" x="1.124" y="12.681" transform="matrix(-0.9997 -0.0262 0.0262 -0.9997 6.3748 33.52)" width="4.566" height="8.076"/>
			</defs>
			<clipPath id="SVGID_4_">
				<use xlink:href="#SVGID_3_"  overflow="visible"/>
			</clipPath>
			<g clip-path="url(#SVGID_4_)">
				
					<image overflow="visible" width="10" height="18" xlink:href="7DB32C36E6400F48.jpg"  transform="matrix(0.48 0 0 0.48 1.019 12.6221)">
				</image>
			</g>
		</g>
	</g>
</g>
<g>
	<defs>
		<path id="SVGID_5_" d="M12.861,0.09C12.47,0.189,12.1,0.445,11.853,0.72c-0.251,0.278-0.412,0.563-0.547,0.837
			c-0.268,0.567-0.407,1.039-0.602,1.532C9.975,5.053,9.244,7.018,8.511,8.982c-1.463,3.931-2.927,7.86-4.39,11.791
			c-0.73,1.965-1.463,3.93-2.194,5.896c-0.366,0.982-0.731,1.965-1.098,2.948c-0.183,0.489-0.366,0.981-0.549,1.474
			c-0.263,0.721-0.214,1.229-0.262,1.781c-0.062,2.163,0.012,4.275,0.447,6.452c0.125,0.547,0.265,1.094,0.556,1.674
			c0.073,0.146,0.16,0.293,0.275,0.445c0.095,0.129,0.312,0.356,0.516,0.475l1.305,0.034c0.039-0.016,0.072-0.03,0.099-0.042
			c1.133-0.554,1.891-1.242,2.727-1.937c0.805-0.701,1.573-1.433,2.313-2.197c0.371-0.383,0.734-0.774,1.087-1.188
			c0.178-0.203,0.352-0.419,0.523-0.644c0.17-0.242,0.341-0.442,0.512-0.854c0.729-1.953,1.457-3.908,2.187-5.863
			c1.459-3.91,2.917-7.823,4.377-11.74c-0.156-0.057-0.312-0.116-0.469-0.174s-0.312-0.116-0.469-0.174s-0.312-0.117-0.469-0.174
			c-1.459,3.916-2.917,7.827-4.37,11.733c-0.727,1.952-1.454,3.904-2.179,5.854c-0.027,0.074-0.17,0.297-0.305,0.476
			c-0.146,0.188-0.301,0.38-0.463,0.569c-0.324,0.379-0.668,0.752-1.023,1.115c-0.706,0.734-1.451,1.439-2.216,2.105
			c-0.752,0.643-1.59,1.335-2.34,1.693c-0.031,0.014-0.063,0.024-0.095,0.036c-0.001-0.001-0.002-0.002-0.003-0.002
			c-0.004-0.005-0.013-0.016-0.027-0.036c-0.043-0.057-0.093-0.134-0.137-0.223c-0.182-0.355-0.315-0.831-0.42-1.307
			c-0.391-1.936-0.472-4.045-0.407-6.067c0.03-0.487,0.041-1.058,0.171-1.319c0.184-0.49,0.366-0.981,0.551-1.474
			c0.367-0.981,0.732-1.965,1.1-2.946c0.733-1.965,1.466-3.928,2.197-5.888c1.465-3.922,2.926-7.841,4.382-11.749
			c0.729-1.953,1.455-3.906,2.18-5.854c0.186-0.479,0.357-1.007,0.538-1.385c0.201-0.412,0.396-0.623,0.602-0.667
			c0.232-0.076,0.699-0.005,1.152,0.119c0.463,0.126,0.943,0.295,1.426,0.472c1.91,0.747,3.988,1.422,5.703,2.294
			c0.408,0.221,0.77,0.491,0.889,0.721c0.129,0.201,0.127,0.517,0.006,0.956c-0.117,0.404-0.342,0.949-0.514,1.43
			c-0.188,0.497-0.371,0.992-0.559,1.488c-1.482,3.972-2.979,7.956-4.48,11.961c0.217,0.019,0.217,0.019,0.514,0.014
			c0.236,0.006,0.412,0.011,0.578,0.015c0.242,0.006,0.484,0.013,0.484,0.013c1.459-3.917,2.916-7.83,4.373-11.741
			c0.182-0.489,0.365-0.979,0.547-1.468c0.117-0.337,0.242-0.64,0.367-0.985l0.066-2.551c-0.016-0.03-0.033-0.06-0.051-0.09
			c-0.418-0.683-0.986-0.993-1.48-1.273c-1.016-0.527-2.002-0.87-2.986-1.241c-0.984-0.36-1.971-0.719-2.953-1.078
			c-0.502-0.177-1.008-0.351-1.557-0.495C14.429,0.107,14.036,0,13.579,0C13.356,0,13.119,0.026,12.861,0.09"/>
	</defs>
	<clipPath id="SVGID_6_">
		<use xlink:href="#SVGID_5_"  overflow="visible"/>
	</clipPath>
	<g clip-path="url(#SVGID_6_)">
		<g>
			<defs>
				
					<rect id="SVGID_7_" x="-0.587" y="-0.305" transform="matrix(-0.9997 -0.0262 0.0262 -0.9997 23.2295 42.2567)" width="24.957" height="42.563"/>
			</defs>
			<clipPath id="SVGID_8_">
				<use xlink:href="#SVGID_7_"  overflow="visible"/>
			</clipPath>
			<g clip-path="url(#SVGID_8_)">
				
					<image overflow="visible" width="55" height="91" xlink:href="7DB32C36E6400F49.jpg"  transform="matrix(0.48 0 0 0.48 -1.1401 -0.6245)">
				</image>
			</g>
		</g>
	</g>
</g>
</svg>
