<?xml version="1.0" encoding="utf-8"?>
<!-- Generator: Adobe Illustrator 21.1.0, SVG Export Plug-In . SVG Version: 6.00 Build 0)  -->
<svg version="1.1" id="Capa_1" xmlns="http://www.w3.org/2000/svg" xmlns:xlink="http://www.w3.org/1999/xlink" x="0px" y="0px"
	 viewBox="0 0 28.836 14.902" style="enable-background:new 0 0 28.836 14.902;" xml:space="preserve">
<style type="text/css">
	.st0{fill:#FFFFFF;}
	.st1{clip-path:url(#SVGID_2_);fill:none;stroke:#7C6EAF;stroke-width:0.955;stroke-linecap:round;}
	.st2{clip-path:url(#SVGID_4_);fill:none;stroke:#7C6EAF;stroke-width:0.955;stroke-linecap:round;}
	.st3{clip-path:url(#SVGID_4_);fill:#7C6EAF;}
	.st4{fill:#7C6EAF;}
</style>
<rect x="14.412" y="0.477" class="st0" width="13.947" height="13.947"/>
<g>
	<defs>
		<rect id="SVGID_1_" width="28.836" height="14.902"/>
	</defs>
	<clipPath id="SVGID_2_">
		<use xlink:href="#SVGID_1_"  style="overflow:visible;"/>
	</clipPath>
	<rect x="14.411" y="0.477" class="st1" width="13.947" height="13.947"/>
</g>
<polygon class="st0" points="0.478,0.477 0.478,14.424 14.425,14.424 16.23,8.041 14.425,0.477 "/>
<g>
	<defs>
		<rect id="SVGID_3_" width="28.836" height="14.902"/>
	</defs>
	<clipPath id="SVGID_4_">
		<use xlink:href="#SVGID_3_"  style="overflow:visible;"/>
	</clipPath>
	<polygon class="st2" points="0.477,0.477 0.477,14.424 14.424,14.424 16.229,8.041 14.424,0.477 	"/>
	<path class="st3" d="M9.532,10.384c-0.102,0.032-0.27,0.065-0.502,0.1c-0.232,0.036-0.513,0.053-0.844,0.053
		c-0.464,0-0.868-0.078-1.21-0.236c-0.342-0.157-0.63-0.379-0.862-0.667C5.882,9.347,5.709,9.003,5.595,8.601
		C5.481,8.2,5.424,7.755,5.424,7.267c0-0.503,0.066-0.958,0.2-1.363c0.134-0.405,0.321-0.75,0.561-1.033
		c0.24-0.284,0.531-0.5,0.874-0.65c0.342-0.149,0.722-0.224,1.139-0.224c0.393,0,0.779,0.049,1.157,0.148
		c0.378,0.098,0.681,0.222,0.909,0.372L10.63,3.56c-0.047-0.031-0.136-0.078-0.266-0.141S10.067,3.293,9.863,3.23
		C9.658,3.167,9.412,3.112,9.125,3.065C8.837,3.017,8.509,2.994,8.139,2.994c-0.543,0-1.053,0.094-1.529,0.283
		C6.134,3.466,5.719,3.741,5.365,4.103C5.01,4.465,4.729,4.912,4.521,5.443c-0.209,0.532-0.313,1.14-0.313,1.824
		c0,0.685,0.092,1.291,0.277,1.818c0.185,0.528,0.447,0.973,0.785,1.334c0.338,0.363,0.744,0.638,1.216,0.827
		s0.996,0.283,1.57,0.283c0.284,0,0.563-0.014,0.839-0.041c0.275-0.028,0.529-0.061,0.761-0.101
		c0.232-0.039,0.437-0.078,0.614-0.118c0.177-0.039,0.313-0.074,0.407-0.106V7.338H9.532V10.384z"/>
</g>
<rect x="20.851" y="3.182" class="st4" width="1.145" height="8.181"/>
</svg>
