<svg id="Capa_1" data-name="Capa 1" xmlns="http://www.w3.org/2000/svg" viewBox="0 0 295.5 53.8"><defs><style>.cls-1{fill:#d8e5ae;}.cls-2{fill:#b3b3a9;}</style></defs><path class="cls-1" d="M0,49.8c3.1.1,3.3,2.2,6.4,1.8,4.9-.6,5.5.8,10.4.7s13,.7,13,.7a41,41,0,0,0,7.8-.4,21.1,21.1,0,0,1,2.6-.2c2.7-.3,5.4.4,8-.1s4.7.3,7.1.3,4-1.3,6.1-.8a43.4,43.4,0,0,0,6.3.9c1.3.1,5.9-1,7.1-1.1a48.6,48.6,0,0,1,5.4,0,56.2,56.2,0,0,1,6.7,1.1A12.6,12.6,0,0,1,91,51.6a53.4,53.4,0,0,1,6.3.8,15.9,15.9,0,0,1,3.7-1.2l10.9.4,3.5-.7c2.5-.6,4.9,2,7.5,1.8,6.9-.5,20.5-.5,20.5-.5s3.3-.7,4.8,0,13.6.1,13.6.1,9.8.7,15.1.9a41.6,41.6,0,0,0,6.3-.3c2.4-.5,4.4-1.4,7-1.5s3.6,1.4,5.4,1.4h0c3,0,8.9-.1,10.9.3s5.2-.9,9.7-.7,11.9.6,11.9.6l8.5-.8H247a13.7,13.7,0,0,0,2,1.6c.7.2,6.1-1.6,7.9-.5a22.7,22.7,0,0,0,4.3-1.6,12.3,12.3,0,0,0,3.7,1.6l16.3.5c1.8,0,9.8-1.1,13.3-.6.5-3.7-1.2-12.6-1.3-16.4a8,8,0,0,1-.8-6.7,47.1,47.1,0,0,0,3-10.8,22.5,22.5,0,0,0-.4-5.1,32.6,32.6,0,0,1-3.3,0L1.6,13.9C2.6,29.9,0,49.8,0,49.8"/><path class="cls-2" d="M167.5,7.9l-15.3-.8L137.7,5.8,122.9,4c0,.2-.9.3-1,.5s.4.6-.1,1.1.6,2.2-.7,2.6-.7.3-.6.4H122c.1.1.2.2.1.4s-.9.8-2,1.1-.3,1,1.7,2.2-3.4.8-2.3,1.2,1.2.4.8,1.5.7.5.8.8-1.8,1.2-1.2,2.3,2.8,1.4.1.5.5,1,1.1,1.3l5.4.6,17.4,2L159.3,24l7.5.4a13.3,13.3,0,0,0,2.1-.3c.1-.1.4,0,.3-.1s-1.1-.4-.6-.8-.7-1.6-.1-1.7c3.8-.7-2.1-.9.5-2.4.6-.3-1-2.4-1.2-3.2s-.5-3.7-1-4.3.7-1.5.6-1.5c-2-.7-.2-1.2,0-2.1Z"/></svg>