<?xml version="1.0" encoding="utf-8"?>
<!-- Generator: Adobe Illustrator 21.1.0, SVG Export Plug-In . SVG Version: 6.00 Build 0)  -->
<svg version="1.1" id="Capa_1" xmlns="http://www.w3.org/2000/svg" xmlns:xlink="http://www.w3.org/1999/xlink" x="0px" y="0px"
	 viewBox="0 0 342.451 448.025" style="enable-background:new 0 0 342.451 448.025;" xml:space="preserve">
<style type="text/css">
	.st0{clip-path:url(#SVGID_2_);fill:#FFE772;}
	.st1{clip-path:url(#SVGID_2_);fill:none;stroke:#1D1D1B;stroke-width:1.274;}
	.st2{fill:none;stroke:#1D1D1B;stroke-width:1.274;}
	.st3{clip-path:url(#SVGID_4_);fill:none;stroke:#1D1D1B;stroke-width:1.274;}
</style>
<g>
	<defs>
		<rect id="SVGID_1_" width="342.451" height="448.025"/>
	</defs>
	<clipPath id="SVGID_2_">
		<use xlink:href="#SVGID_1_"  style="overflow:visible;"/>
	</clipPath>
	<path class="st0" d="M215.127,74.372c0.223,0.025,0.451,0.009,0.677-0.057l19.262-1.356c0.112,1.431,0.216,5.576,0.306,7.019
		c-17.99,1.147-38.43,3.278-56.474,4.461c-18.08,1.186-38.561,2.41-56.587,3.559l-0.396-6.513L215.127,74.372z M319.42,55.039
		l-83.514,10.19l-2.587,0.35c0.194,1.885,1.282,4.693,1.452,6.603l-20.262,1.293c-0.906-1.705-1.863-4.312-2.847-6.018l-1.118,0.382
		c0.98,1.679,2.835,4.256,3.751,5.934l-75.124,5.562l1.535-4.841l-1.211,0.393l-1.511,4.753l-16.541,1.077l-0.464-4.265l-1.685,0.35
		L14.711,84.49l-0.197,1.728l26.514,340.611l227.246-10.359l4.024-5.659l2.68-3.766l51.175-71.98l4.999-7.03l4.689-6.593
		L319.42,55.039z"/>
	<path class="st1" d="M233.141,61.536l90.611-14.44l18.05,276.525L276.1,421.814c0,0-58.326,7.655-107.939,10.83
		c-45.125,2.888-135.735,0-135.735,0s-6.859-210.823-14.44-267.861s-10.83-90.25-10.83-90.25l112.27-1.444"/>
	<path class="st1" d="M7.517,74.533c0,0-7.328,187.677-6.859,259.919C1.019,390.046,3.185,435.17,3.185,435.17l8.303,1.445"/>
	<path class="st1" d="M322.308,352.862l11.191,58.843c0,0-60.287,30.324-155.951,33.934c-91.632,3.457-165.338,0.722-165.338,0.722
		L7.156,75.254"/>
	<path class="st1" d="M275.739,421.452l-14.44-64.619c0,0,25.992-6.498,47.291-15.162s32.851-18.411,32.851-18.411"/>
	<path class="st1" d="M117.261,54.316c0,0,31.768-6.498,62.814-8.664c31.046-2.166,50.54-2.166,50.54-2.166l5.415,36.822
		l-113.715,8.303L117.261,54.316z"/>
	<path class="st1" d="M138.56,79.587l15.523-41.154c0,0-9.386-4.332-8.303-17.328c1.083-12.996,12.635-20.938,26.353-20.216
		c13.718,0.722,21.66,8.664,22.382,19.494c0.722,10.83-6.498,14.079-6.498,14.079l27.075,38.988"/>
</g>
<line class="st2" x1="121.593" y1="81.392" x2="234.947" y2="72.367"/>
<g>
	<defs>
		<rect id="SVGID_3_" width="342.451" height="448.025"/>
	</defs>
	<clipPath id="SVGID_4_">
		<use xlink:href="#SVGID_3_"  style="overflow:visible;"/>
	</clipPath>
	<path class="st3" d="M204.622,44.209l-6.498-10.83c0,0,6.498-4.693,3.61-16.967c-2.888-12.274-11.552-16.967-28.158-15.523
		s-20.577,15.162-19.855,22.382s9.025,15.162,9.025,15.162l-3.61,9.386"/>
</g>
</svg>
