<svg id="Capa_1" data-name="Capa 1" xmlns="http://www.w3.org/2000/svg" viewBox="0 0 98.69 58.18"><defs><style>.cls-1{fill:#504f4e;}.cls-2{fill:#fc0;}</style></defs><path class="cls-1" d="M8.74,37a8.47,8.47,0,0,0,8.5-8.5A8.55,8.55,0,0,0,7.08,21.38,8.52,8.52,0,0,0,0,28.46,8.83,8.83,0,0,0,8.74,37"/><path class="cls-1" d="M90.19,37a8.47,8.47,0,0,0,8.5-8.5,8.76,8.76,0,0,0-17.24,0A8.83,8.83,0,0,0,90.19,37"/><path class="cls-2" d="M88.3,32H12a3.54,3.54,0,0,1,0-7.08H88.3a3.54,3.54,0,1,1,0,7.08Z"/></svg>