<?xml version="1.0" encoding="utf-8"?>
<!-- Generator: Adobe Illustrator 24.2.3, SVG Export Plug-In . SVG Version: 6.00 Build 0)  -->
<svg version="1.1" id="Layer_1" xmlns="http://www.w3.org/2000/svg" xmlns:xlink="http://www.w3.org/1999/xlink" x="0px" y="0px"
	 viewBox="0 0 820 1060" style="enable-background:new 0 0 820 1060;" xml:space="preserve">
<style type="text/css">
	.st0{fill:none;}
	.st1{clip-path:url(#SVGID_2_);fill:#009DC5;}
	.st2{clip-path:url(#SVGID_4_);fill:#EAF6FB;}
	.st3{fill:#EAF6FB;}
</style>
<rect x="-1.5" y="-0.2" class="st0" width="822.8" height="1060.4"/>
<g>
	<defs>
		<rect id="SVGID_1_" x="-1.5" y="-0.2" width="822.8" height="1060.4"/>
	</defs>
	<clipPath id="SVGID_2_">
		<use xlink:href="#SVGID_1_"  style="overflow:visible;"/>
	</clipPath>
	<rect x="-1.5" y="-0.2" class="st1" width="822.8" height="1060.4"/>
</g>
<g>
	<defs>
		<rect id="SVGID_3_" x="-1.5" y="-0.2" width="822.8" height="1060.4"/>
	</defs>
	<clipPath id="SVGID_4_">
		<use xlink:href="#SVGID_3_"  style="overflow:visible;"/>
	</clipPath>
	<path class="st2" d="M50.5,58.1c20.2-1.9,403.6,0,444,0c40.4,0,286.6-12.3,289.7,9.3c6.7,46.9,6.7,758.9,6.7,837.3
		c0,56.5-2.7,127.5-6.7,127.5c-4,0-655.6,25.2-739,6.4c-6.7-90.1-4-424.9-4-599.5C41.1,384.1,39.8,111.2,50.5,58.1"/>
</g>
<path class="st0" d="M494.5,58.1c-40.4,0-423.8-1.9-444,0c-10.8,53.1-9.4,326.1-9.4,381c0,174.6-2.7,509.4,4,599.5
	c83.4,18.8,738-6.4,742-6.4c4,0,6.7-71.1,6.7-127.5c0-78.4,0-790.4-6.7-837.3c-1.4-10.1-49-12.8-114-12.8
	C599.3,54.6,515.9,58.1,494.5,58.1"/>
<rect x="-1.5" y="-0.2" class="st0" width="822.8" height="1060.4"/>
<path class="st3" d="M50.4,58.1c19.8-1.9,396.9,0,436.6,0c39.7,0,294.6-12.3,297.7,9.3c6.6,46.9,6.6,758.9,6.6,837.3
	c0,56.5-2.6,127.5-6.6,127.5c-4,0-657.6,25.2-739.6,6.4c-6.6-90.1-4-424.9-4-599.5C41.1,384.1,39.8,111.2,50.4,58.1"/>
<rect x="-1.5" y="-0.2" class="st0" width="822.8" height="1060.4"/>
<rect x="-1.5" y="-0.2" class="st0" width="822.8" height="1060.4"/>
<rect x="-1.5" y="-0.2" class="st0" width="822.8" height="1060.4"/>
<rect x="-1.5" y="-0.2" class="st0" width="822.8" height="1060.4"/>
<rect x="-1.5" y="-0.2" class="st0" width="822.8" height="1060.4"/>
</svg>
