<?xml version="1.0" encoding="utf-8"?>
<!-- Generator: Adobe Illustrator 21.1.0, SVG Export Plug-In . SVG Version: 6.00 Build 0)  -->
<svg version="1.1" id="Capa_1" xmlns="http://www.w3.org/2000/svg" xmlns:xlink="http://www.w3.org/1999/xlink" x="0px" y="0px"
	 viewBox="0 0 143.296 62.593" style="enable-background:new 0 0 143.296 62.593;" xml:space="preserve">
<style type="text/css">
	.st0{clip-path:url(#SVGID_2_);}
	.st1{filter:url(#Adobe_OpacityMaskFilter);}
	.st2{clip-path:url(#SVGID_4_);}
	.st3{clip-path:url(#SVGID_4_);mask:url(#SVGID_5_);}
	.st4{opacity:0.3;clip-path:url(#SVGID_9_);fill:#1D1D1B;}
	.st5{clip-path:url(#SVGID_4_);fill:#D8E5B0;}
	.st6{opacity:0.46;clip-path:url(#SVGID_4_);}
	.st7{clip-path:url(#SVGID_11_);fill:#BFBEB3;}
</style>
<g>
	<defs>
		<rect id="SVGID_1_" width="143.296" height="62.593"/>
	</defs>
	<clipPath id="SVGID_2_">
		<use xlink:href="#SVGID_1_"  style="overflow:visible;"/>
	</clipPath>
	<g class="st0">
		<defs>
			<rect id="SVGID_3_" y="0" width="143.296" height="62.593"/>
		</defs>
		<clipPath id="SVGID_4_">
			<use xlink:href="#SVGID_3_"  style="overflow:visible;"/>
		</clipPath>
		<defs>
			<filter id="Adobe_OpacityMaskFilter" filterUnits="userSpaceOnUse" x="9.6" y="11.52" width="124.32" height="45.12">
				<feColorMatrix  type="matrix" values="1 0 0 0 0  0 1 0 0 0  0 0 1 0 0  0 0 0 1 0"/>
			</filter>
		</defs>
		<mask maskUnits="userSpaceOnUse" x="9.6" y="11.52" width="124.32" height="45.12" id="SVGID_5_">
			<g class="st1">
				<g>
					<defs>
						<rect id="SVGID_6_" x="0" y="0" width="144" height="63.36"/>
					</defs>
					<clipPath id="SVGID_7_" class="st2">
						<use xlink:href="#SVGID_6_"  style="overflow:visible;"/>
					</clipPath>
					<g style="clip-path:url(#SVGID_7_);">
						
							<image style="overflow:visible;" width="300" height="132" xlink:href="463048DEDA9505FA.jpg"  transform="matrix(0.48 0 0 0.48 6.300000e-06 -8.392334e-05)">
						</image>
					</g>
				</g>
			</g>
		</mask>
		<g class="st3">
			<g>
				<defs>
					<rect id="SVGID_8_" x="9.6" y="11.52" width="124.32" height="45.12"/>
				</defs>
				<clipPath id="SVGID_9_">
					<use xlink:href="#SVGID_8_"  style="overflow:visible;"/>
				</clipPath>
				<rect x="9.6" y="11.52" class="st4" width="124.32" height="45.12"/>
			</g>
		</g>
		<path class="st5" d="M14.227,51.619c1.247,0.031,1.491,2.103,2.682,1.702c1.923-0.648,2.25,0.718,4.223,0.66
			c1.72-0.05,5.201,0.523,5.201,0.523s2.086,0.116,3.088-0.452c0.296-0.168,0.64-0.148,1.003-0.25
			c1.042-0.293,2.162,0.341,3.171-0.121c0.866-0.396,1.91,0.243,2.831,0.216c0.88-0.026,1.479-1.377,2.359-0.874
			c0.843,0.482,1.725,0.642,2.58,0.816c0.521,0.107,2.285-1.046,2.734-1.12c0.679-0.11,1.439-0.147,2.132-0.069
			c0.913,0.104,2.796,1.051,2.796,1.051s0.836-1.145,1.508-1.14c0.765,0.005,2.569,0.711,2.569,0.711s0.993-1.158,1.382-1.162
			c1.471-0.013,4.357,0.271,4.357,0.271s0.822-0.439,1.329-0.768c0.946-0.612,2.134,1.955,3.148,1.748
			c2.691-0.549,8.106-0.736,8.106-0.736s1.255-0.693,1.887-0.044c0.811,0.835,5.432,0.054,5.432,0.054s3.935,0.529,6.048,0.739
			c0.523,0.052,2.157-0.172,2.477-0.355c0.918-0.523,1.655-1.495,2.671-1.555c0.722-0.043,1.546,1.328,2.27,1.311c0,0,0,0,0.001,0
			c1.193-0.028,3.521-0.194,4.341,0.207c0.361,0.177,1.988-0.949,3.807-0.741c2.317,0.266,4.787,0.489,4.787,0.489l3.313-0.874
			l4.116-0.134c0,0,0.719,1.373,0.915,1.538c0.311,0.262,2.321-1.613,3.115-0.521c0.981-0.716,1.571-1.65,1.571-1.65
			s0.986,1.409,1.593,1.505c0.42,0.067,5.866,0.413,6.552,0.386c0.686-0.026,3.781-1.131,5.225-0.668
			c-0.117-3.681-1.577-12.546-1.977-16.329c0,0-1.082-3.057-0.883-6.712c0,0,0.461-6.015,0.245-10.721
			c-0.095-2.07-0.634-5.078-0.634-5.078s-0.731,0.076-1.284,0.024c-1.443-0.057-62.546,1.189-115.29,2.39
			C13.516,31.74,14.227,51.619,14.227,51.619"/>
		<g class="st6">
			<g>
				<defs>
					<rect id="SVGID_10_" x="37.205" y="-16.25" width="72.232" height="51.425"/>
				</defs>
				<clipPath id="SVGID_11_">
					<use xlink:href="#SVGID_10_"  style="overflow:visible;"/>
				</clipPath>
				<path class="st7" d="M92.111,2.523L78.668,4.762L65.86,6.479L52.833,7.626c-0.044,0.257-0.862,0.488-0.932,0.756
					c-0.041,0.156,0.378,0.472-0.037,1.08c-0.585,0.857,0.568,1.937-0.568,2.644c-0.506,0.315-0.623,0.421-0.539,0.431
					c0.074,0.009,0.307-0.058,0.565-0.123c0.258-0.064,0.541-0.125,0.715-0.105c0.161,0.02,0.229,0.109,0.099,0.331
					c-0.515,0.878-0.764,0.966-1.718,1.421c-0.919,0.741-0.274,1.04,1.487,1.806c1.417,0.617-2.989,1.485-2.009,1.603
					c1.569,0.188,1.064,0.142,0.766,1.285c-0.094,0.359,0.651,0.371,0.693,0.625c0.195,1.185-1.593,1.502-1.015,2.482
					c0.235,0.397,2.506,0.735,0.128,0.449c-1.159-0.139,0.412,0.887,0.966,0.984l4.784-0.51l15.327-1.523l13.52-1.631l6.661-1.101
					c0.622-0.212,1.191-0.486,1.789-0.761c0.105-0.049,0.34-0.096,0.293-0.182c-0.035-0.064-1.025-0.149-0.575-0.611
					c0.718-0.738-0.608-1.402-0.063-1.635c3.299-1.411-1.858-0.416,0.367-2.342c0.573-0.496-0.87-2.124-1.094-2.843
					c-0.284-0.916-0.444-3.533-0.909-4.014c-0.69-0.714,0.625-1.553,0.53-1.564c-1.755-0.211-0.206-1.061-0.099-1.964L92.111,2.523z
					"/>
			</g>
		</g>
	</g>
</g>
</svg>
