<?xml version="1.0" encoding="utf-8"?>
<!-- Generator: Adobe Illustrator 21.1.0, SVG Export Plug-In . SVG Version: 6.00 Build 0)  -->
<svg version="1.1" id="Capa_1" xmlns="http://www.w3.org/2000/svg" xmlns:xlink="http://www.w3.org/1999/xlink" x="0px" y="0px"
	 viewBox="0 0 53.089 35.672" style="enable-background:new 0 0 53.089 35.672;" xml:space="preserve">
<style type="text/css">
	.st0{clip-path:url(#SVGID_2_);}
	.st1{clip-path:url(#SVGID_4_);fill:#005CA8;}
	.st2{filter:url(#Adobe_OpacityMaskFilter);}
	.st3{clip-path:url(#SVGID_4_);}
	.st4{clip-path:url(#SVGID_4_);mask:url(#SVGID_5_);}
	.st5{opacity:0.2;clip-path:url(#SVGID_9_);fill:#1D1D1B;}
	.st6{clip-path:url(#SVGID_2_);fill:#FFFFFF;}
	.st7{clip-path:url(#SVGID_11_);fill:none;stroke:#005CA8;stroke-width:1.777;stroke-linecap:round;}
	.st8{clip-path:url(#SVGID_2_);fill:none;stroke:#005CA8;stroke-width:1.185;stroke-linecap:round;}
	.st9{clip-path:url(#SVGID_13_);fill:#005CA8;}
	.st10{clip-path:url(#SVGID_15_);fill:#FFFFFF;}
</style>
<g>
	<defs>
		<rect id="SVGID_1_" x="-18.375" y="-8.173" width="91" height="60"/>
	</defs>
	<clipPath id="SVGID_2_">
		<use xlink:href="#SVGID_1_"  style="overflow:visible;"/>
	</clipPath>
	<g class="st0">
		<defs>
			<rect id="SVGID_3_" x="-18.375" y="-8.173" width="91" height="60"/>
		</defs>
		<clipPath id="SVGID_4_">
			<use xlink:href="#SVGID_3_"  style="overflow:visible;"/>
		</clipPath>
		<path class="st1" d="M25.377,12.449c0,0-1.805,0-1.805,1.805v14.401c0,0,0,1.805,1.805,1.805h25.907c0,0,1.805,0,1.805-1.805
			V14.254c0,0,0-1.805-1.805-1.805H25.377z"/>
		<defs>
			<filter id="Adobe_OpacityMaskFilter" filterUnits="userSpaceOnUse" x="3.14" y="0" width="25.92" height="33.36">
				<feColorMatrix  type="matrix" values="1 0 0 0 0  0 1 0 0 0  0 0 1 0 0  0 0 0 1 0"/>
			</filter>
		</defs>
		<mask maskUnits="userSpaceOnUse" x="3.14" y="0" width="25.92" height="33.36" id="SVGID_5_">
			<g class="st2">
				<g>
					<defs>
						<rect id="SVGID_6_" x="-5.74" y="-6.96" width="44.16" height="41.28"/>
					</defs>
					<clipPath id="SVGID_7_" class="st3">
						<use xlink:href="#SVGID_6_"  style="overflow:visible;"/>
					</clipPath>
					<g transform="matrix(1 0 0 1 0 0)" style="clip-path:url(#SVGID_7_);">
						
							<image style="overflow:visible;" width="184" height="172" xlink:href="95AB80358759BA88.jpg"  transform="matrix(0.24 0 0 0.24 -5.7404 -6.96)">
						</image>
					</g>
				</g>
			</g>
		</mask>
		<g class="st4">
			<g>
				<defs>
					<rect id="SVGID_8_" x="3.14" width="25.92" height="33.36"/>
				</defs>
				<clipPath id="SVGID_9_">
					<use xlink:href="#SVGID_8_"  style="overflow:visible;"/>
				</clipPath>
				<rect x="3.14" y="0" class="st5" width="25.92" height="33.36"/>
			</g>
		</g>
	</g>
	<rect x="1.625" y="1.674" class="st6" width="25.605" height="33.132"/>
	<g class="st0">
		<defs>
			<rect id="SVGID_10_" x="-18.375" y="-8.173" width="91" height="60"/>
		</defs>
		<clipPath id="SVGID_11_">
			<use xlink:href="#SVGID_10_"  style="overflow:visible;"/>
		</clipPath>
		<path class="st7" d="M1.081,1.882V31.66c0,0,0.45,3.058,1.609,3.058h25.42c-1.223,0-1.609-3.058-1.609-3.058V1.882H1.081z"/>
	</g>
	<rect x="4.784" y="11.624" class="st8" width="7.776" height="7.696"/>
	<g class="st0">
		<defs>
			<rect id="SVGID_12_" x="-18.375" y="-8.173" width="91" height="60"/>
		</defs>
		<clipPath id="SVGID_13_">
			<use xlink:href="#SVGID_12_"  style="overflow:visible;"/>
		</clipPath>
		<path class="st9" d="M21.715,6.979l0.462-1.552l0.47,1.552H21.715z M23.115,8.565h0.836l-1.313-3.957h-0.882L20.46,8.565h0.794
			l0.275-0.93h1.307L23.115,8.565z M20.641,4.608h-2.884v0.689h1.054v3.268h0.775V5.297h1.055V4.608z M15.085,7.529l-0.341,0.548
			c0.376,0.324,0.845,0.544,1.393,0.544c0.744,0,1.344-0.399,1.344-1.215c0-1.436-1.867-0.919-1.867-1.709
			c0-0.29,0.25-0.458,0.588-0.458c0.285,0,0.62,0.118,0.891,0.309l0.335-0.532c-0.343-0.287-0.811-0.465-1.277-0.465
			c-0.716,0-1.299,0.415-1.299,1.204c0,1.397,1.849,0.917,1.849,1.709c0,0.299-0.26,0.452-0.607,0.452
			C15.751,7.916,15.396,7.766,15.085,7.529 M13.411,8.565h0.777V4.608h-0.777V8.565z M10.578,4.608H9.749l1.265,3.957h0.667
			l1.27-3.957h-0.788l-0.796,2.74L10.578,4.608z M7.08,8.565h2.414V7.879H7.848V6.912h1.395V6.228H7.848V5.294h1.607V4.608H7.08
			V8.565z M4.495,6.443V5.287H4.99c0.386,0,0.635,0.196,0.635,0.581c0,0.368-0.227,0.575-0.635,0.575H4.495z M3.732,8.565h0.763
			V7.124H4.92l0.751,1.441h0.9L5.69,7.003C6.136,6.808,6.4,6.39,6.4,5.857c0-0.729-0.496-1.249-1.333-1.249H3.732V8.565z"/>
	</g>
	<line class="st8" x1="14.865" y1="12.915" x2="22.883" y2="12.915"/>
	<line class="st8" x1="14.865" y1="16.046" x2="22.883" y2="16.046"/>
	<line class="st8" x1="14.865" y1="19.32" x2="22.883" y2="19.32"/>
	<line class="st8" x1="4.452" y1="23.731" x2="23.762" y2="23.731"/>
	<line class="st8" x1="4.452" y1="26.862" x2="23.762" y2="26.862"/>
	<line class="st8" x1="4.452" y1="30.136" x2="23.762" y2="30.136"/>
	<g class="st0">
		<defs>
			<rect id="SVGID_14_" x="-18.375" y="-8.173" width="91" height="60"/>
		</defs>
		<clipPath id="SVGID_15_">
			<use xlink:href="#SVGID_14_"  style="overflow:visible;"/>
		</clipPath>
		<path class="st10" d="M48.69,16.977c-0.161-0.434-0.41-0.802-0.749-1.105c-0.339-0.303-0.77-0.538-1.293-0.704
			c-0.523-0.167-1.147-0.25-1.872-0.25c-0.796,0-1.542,0.158-2.237,0.472c-0.696,0.315-1.305,0.717-1.828,1.204l1.32,1.854
			c0.083-0.083,0.207-0.193,0.374-0.33c0.166-0.136,0.366-0.273,0.597-0.41c0.232-0.136,0.488-0.255,0.767-0.356
			c0.279-0.101,0.579-0.152,0.9-0.152c0.44,0,0.809,0.107,1.106,0.321c0.297,0.214,0.445,0.583,0.445,1.105
			c0,0.238-0.053,0.473-0.16,0.705c-0.107,0.231-0.256,0.463-0.446,0.695c-0.19,0.232-0.41,0.47-0.659,0.713
			c-0.25,0.244-0.517,0.502-0.803,0.776c-0.368,0.356-0.74,0.713-1.114,1.07c-0.374,0.356-0.71,0.739-1.007,1.15
			c-0.298,0.41-0.538,0.853-0.722,1.328c-0.185,0.475-0.277,0.998-0.277,1.569v0.428c0,0.202,0.012,0.368,0.036,0.499h8.237V25.33
			h-5.313c0.035-0.118,0.127-0.27,0.276-0.454c0.149-0.185,0.318-0.384,0.508-0.598c0.19-0.214,0.389-0.425,0.598-0.633
			c0.207-0.207,0.401-0.395,0.579-0.561c0.345-0.321,0.695-0.66,1.052-1.017c0.357-0.356,0.677-0.727,0.963-1.114
			c0.285-0.386,0.517-0.787,0.695-1.203c0.178-0.416,0.268-0.85,0.268-1.302C48.931,17.902,48.85,17.411,48.69,16.977
			 M36.236,19.493c-0.202,0.308-0.493,0.581-0.873,0.818c-0.678-0.237-1.157-0.521-1.436-0.853
			c-0.279-0.332-0.419-0.688-0.419-1.067c0-0.142,0.03-0.29,0.089-0.444c0.06-0.154,0.152-0.3,0.277-0.436
			c0.125-0.136,0.282-0.246,0.472-0.329c0.19-0.083,0.416-0.125,0.678-0.125c0.273,0,0.505,0.045,0.695,0.134
			s0.348,0.199,0.473,0.329c0.124,0.13,0.214,0.27,0.267,0.418c0.054,0.148,0.08,0.287,0.08,0.417
			C36.539,18.806,36.438,19.185,36.236,19.493 M33.58,23.024c0.225-0.334,0.505-0.626,0.838-0.876
			c0.332,0.107,0.644,0.223,0.936,0.348c0.291,0.126,0.543,0.268,0.757,0.429c0.214,0.161,0.384,0.349,0.509,0.563
			c0.124,0.215,0.187,0.459,0.187,0.733c0,0.37-0.143,0.703-0.428,1.001s-0.737,0.447-1.355,0.447c-0.321,0-0.595-0.048-0.82-0.143
			c-0.226-0.095-0.41-0.214-0.553-0.357c-0.143-0.143-0.247-0.301-0.312-0.474c-0.066-0.173-0.098-0.331-0.098-0.474
			C33.241,23.757,33.354,23.357,33.58,23.024 M38.973,22.426c-0.291-0.482-0.776-0.943-1.453-1.384
			c0.451-0.284,0.829-0.673,1.132-1.166c0.303-0.492,0.455-1.023,0.455-1.593c0-0.392-0.075-0.787-0.223-1.184
			c-0.149-0.398-0.39-0.757-0.722-1.077c-0.333-0.32-0.758-0.585-1.275-0.792c-0.517-0.208-1.138-0.312-1.863-0.312
			c-0.618,0-1.18,0.098-1.685,0.294c-0.505,0.196-0.936,0.457-1.293,0.783c-0.356,0.327-0.633,0.709-0.829,1.149
			c-0.196,0.439-0.294,0.896-0.294,1.37c0,0.629,0.122,1.146,0.366,1.549c0.243,0.404,0.621,0.814,1.132,1.229
			c-0.238,0.178-0.461,0.369-0.669,0.571c-0.208,0.203-0.395,0.426-0.562,0.67c-0.166,0.244-0.297,0.515-0.392,0.812
			c-0.095,0.298-0.142,0.625-0.142,0.982c0,0.345,0.071,0.723,0.214,1.134c0.142,0.41,0.383,0.788,0.722,1.133
			c0.338,0.346,0.784,0.635,1.337,0.867c0.553,0.231,1.245,0.348,2.077,0.348c0.725,0,1.364-0.093,1.917-0.277
			c0.552-0.185,1.013-0.444,1.381-0.777c0.369-0.333,0.645-0.723,0.829-1.169c0.185-0.446,0.277-0.937,0.277-1.473
			C39.41,23.47,39.264,22.908,38.973,22.426"/>
	</g>
</g>
</svg>
