<?xml version="1.0" encoding="utf-8"?>
<!-- Generator: Adobe Illustrator 21.1.0, SVG Export Plug-In . SVG Version: 6.00 Build 0)  -->
<svg version="1.1" id="Capa_1" xmlns="http://www.w3.org/2000/svg" xmlns:xlink="http://www.w3.org/1999/xlink" x="0px" y="0px"
	 viewBox="0 0 53 35.732" style="enable-background:new 0 0 53 35.732;" xml:space="preserve">
<style type="text/css">
	.st0{clip-path:url(#SVGID_2_);}
	.st1{clip-path:url(#SVGID_4_);fill:#005CA8;}
	.st2{filter:url(#Adobe_OpacityMaskFilter);}
	.st3{clip-path:url(#SVGID_4_);}
	.st4{clip-path:url(#SVGID_4_);mask:url(#SVGID_5_);}
	.st5{opacity:0.2;clip-path:url(#SVGID_9_);fill:#1D1D1B;}
	.st6{clip-path:url(#SVGID_2_);fill:#FFFFFF;}
	.st7{clip-path:url(#SVGID_11_);fill:none;stroke:#005CA8;stroke-width:1.777;stroke-linecap:round;}
	.st8{clip-path:url(#SVGID_2_);fill:none;stroke:#005CA8;stroke-width:1.185;stroke-linecap:round;}
	.st9{clip-path:url(#SVGID_13_);fill:#005CA8;}
	.st10{clip-path:url(#SVGID_15_);fill:#FFFFFF;}
</style>
<g>
	<defs>
		<rect id="SVGID_1_" width="53" height="35.732"/>
	</defs>
	<clipPath id="SVGID_2_">
		<use xlink:href="#SVGID_1_"  style="overflow:visible;"/>
	</clipPath>
	<g class="st0">
		<defs>
			<rect id="SVGID_3_" y="0" width="53" height="35.732"/>
		</defs>
		<clipPath id="SVGID_4_">
			<use xlink:href="#SVGID_3_"  style="overflow:visible;"/>
		</clipPath>
		<path class="st1" d="M25.289,12.456c0,0-1.805,0-1.805,1.805v14.401c0,0,0,1.805,1.805,1.805h25.906c0,0,1.805,0,1.805-1.805
			V14.261c0,0,0-1.805-1.805-1.805H25.289z"/>
		<defs>
			<filter id="Adobe_OpacityMaskFilter" filterUnits="userSpaceOnUse" x="3.054" y="0.005" width="25.92" height="33.36">
				<feColorMatrix  type="matrix" values="1 0 0 0 0  0 1 0 0 0  0 0 1 0 0  0 0 0 1 0"/>
			</filter>
		</defs>
		<mask maskUnits="userSpaceOnUse" x="3.054" y="0.005" width="25.92" height="33.36" id="SVGID_5_">
			<g class="st2">
				<g>
					<defs>
						<rect id="SVGID_6_" x="-5.826" y="-6.955" width="44.16" height="41.28"/>
					</defs>
					<clipPath id="SVGID_7_" class="st3">
						<use xlink:href="#SVGID_6_"  style="overflow:visible;"/>
					</clipPath>
					<g transform="matrix(1 0 0 1 0 0)" style="clip-path:url(#SVGID_7_);">
						
							<image style="overflow:visible;" width="184" height="172" xlink:href="A18957C2DCE3B3A0.jpg"  transform="matrix(0.24 0 0 0.24 -5.8265 -6.9546)">
						</image>
					</g>
				</g>
			</g>
		</mask>
		<g class="st4">
			<g>
				<defs>
					<rect id="SVGID_8_" x="3.054" y="0.005" width="25.92" height="33.36"/>
				</defs>
				<clipPath id="SVGID_9_">
					<use xlink:href="#SVGID_8_"  style="overflow:visible;"/>
				</clipPath>
				<rect x="3.054" y="0.005" class="st5" width="25.92" height="33.36"/>
			</g>
		</g>
	</g>
	<rect x="1.537" y="1.681" class="st6" width="25.604" height="33.131"/>
	<g class="st0">
		<defs>
			<rect id="SVGID_10_" y="0" width="53" height="35.732"/>
		</defs>
		<clipPath id="SVGID_11_">
			<use xlink:href="#SVGID_10_"  style="overflow:visible;"/>
		</clipPath>
		<path class="st7" d="M0.993,1.889v29.777c0,0,0.45,3.058,1.609,3.058h25.419c-1.222,0-1.609-3.057-1.609-3.057V1.889H0.993z"/>
	</g>
	<rect x="4.696" y="11.63" class="st8" width="7.776" height="7.696"/>
	<g class="st0">
		<defs>
			<rect id="SVGID_12_" y="0" width="53" height="35.732"/>
		</defs>
		<clipPath id="SVGID_13_">
			<use xlink:href="#SVGID_12_"  style="overflow:visible;"/>
		</clipPath>
		<path class="st9" d="M21.626,6.986l0.463-1.552l0.47,1.552H21.626z M23.026,8.572h0.837L22.55,4.615h-0.883l-1.295,3.957h0.794
			l0.274-0.93h1.308L23.026,8.572z M20.552,4.615h-2.883v0.689h1.053v3.268h0.775V5.304h1.055V4.615z M14.997,7.536l-0.341,0.548
			c0.375,0.324,0.845,0.544,1.393,0.544c0.744,0,1.343-0.399,1.343-1.215c0-1.436-1.866-0.919-1.866-1.709
			c0-0.29,0.25-0.458,0.588-0.458c0.285,0,0.619,0.118,0.891,0.309l0.334-0.532c-0.343-0.287-0.81-0.465-1.277-0.465
			c-0.715,0-1.299,0.415-1.299,1.204c0,1.397,1.849,0.917,1.849,1.709c0,0.299-0.259,0.452-0.606,0.452
			C15.663,7.923,15.308,7.773,14.997,7.536 M13.322,8.572h0.777V4.615h-0.777V8.572z M10.49,4.615H9.66l1.265,3.957h0.668
			l1.27-3.957h-0.789l-0.795,2.74L10.49,4.615z M6.992,8.572h2.414V7.886H7.76V6.919h1.395V6.235H7.76V5.301h1.607V4.615H6.992
			V8.572z M4.407,6.45V5.294h0.495c0.386,0,0.635,0.196,0.635,0.581c0,0.368-0.227,0.575-0.635,0.575H4.407z M3.644,8.572h0.763
			V7.131h0.425l0.751,1.441h0.9L5.602,7.01c0.446-0.195,0.71-0.613,0.71-1.146c0-0.729-0.496-1.249-1.333-1.249H3.644V8.572z"/>
	</g>
	<line class="st8" x1="14.777" y1="12.922" x2="22.795" y2="12.922"/>
	<line class="st8" x1="14.777" y1="16.053" x2="22.795" y2="16.053"/>
	<line class="st8" x1="14.777" y1="19.327" x2="22.795" y2="19.327"/>
	<line class="st8" x1="4.364" y1="23.738" x2="23.673" y2="23.738"/>
	<line class="st8" x1="4.364" y1="26.869" x2="23.673" y2="26.869"/>
	<line class="st8" x1="4.364" y1="30.143" x2="23.673" y2="30.143"/>
	<g class="st0">
		<defs>
			<rect id="SVGID_14_" y="0" width="53" height="35.732"/>
		</defs>
		<clipPath id="SVGID_15_">
			<use xlink:href="#SVGID_14_"  style="overflow:visible;"/>
		</clipPath>
		<path class="st10" d="M45.774,15.211c-0.534,0.534-1.069,1.135-1.604,1.8c-0.535,0.666-1.043,1.346-1.525,2.042
			c-0.481,0.695-0.918,1.372-1.31,2.032c-0.392,0.66-0.719,1.251-0.981,1.774v1.944h5.331v2.763h2.603v-2.763h1.32v-2.176h-1.32
			v-7.416H45.774z M45.685,22.627h-2.799c0.357-0.748,0.796-1.479,1.319-2.193c0.523-0.713,1.017-1.372,1.48-1.979V22.627z
			 M35.095,27.566c0.071-1.07,0.259-2.139,0.562-3.209c0.303-1.07,0.659-2.071,1.069-3.004s0.844-1.768,1.302-2.505
			c0.457-0.737,0.876-1.314,1.257-1.73v-1.925h-8.647v2.264h5.366c-0.416,0.582-0.826,1.275-1.23,2.077
			c-0.404,0.802-0.77,1.655-1.096,2.559c-0.327,0.903-0.604,1.824-0.829,2.763c-0.226,0.939-0.375,1.843-0.446,2.71H35.095z"/>
	</g>
</g>
</svg>
