<?xml version="1.0" encoding="utf-8"?>
<!-- Generator: Adobe Illustrator 23.0.3, SVG Export Plug-In . SVG Version: 6.00 Build 0)  -->
<svg version="1.1" id="Capa_1" xmlns="http://www.w3.org/2000/svg" xmlns:xlink="http://www.w3.org/1999/xlink" x="0px" y="0px"
	 viewBox="0 0 820 1060" style="enable-background:new 0 0 820 1060;" xml:space="preserve">
<style type="text/css">
	.st0{fill:#E95153;}
	.st1{clip-path:url(#SVGID_2_);}
	.st2{fill:#FCDBD2;}
	.st3{fill:none;}
	.st4{fill:#8DC6D3;}
	.st5{fill:#B3E0EF;}
</style>
<title>fondo_008</title>
<rect class="st0" width="820" height="1060"/>
<g>
	<defs>
		<rect id="SVGID_1_" width="820" height="1060"/>
	</defs>
	<clipPath id="SVGID_2_">
		<use xlink:href="#SVGID_1_"  style="overflow:visible;"/>
	</clipPath>
	<g class="st1">
		<path class="st2" d="M-5.9,47.1c21.8-1.9,447.5-0.2,491.2-0.2S820,47.2,820,47.2v953.3c0,0-735.6,25-825.9,6.7
			C-5.9,918-5.3,591-5.3,420C-5.2,366.2-6.3,100.6-5.9,47.1"/>
	</g>
</g>
<rect class="st3" width="820" height="1060"/>
<rect class="st3" width="820" height="1060"/>
<path class="st4" d="M790.8,612.7c0,0-276,29.1-368.7,29.3c-95.6,0.2-368.9-6.3-415.5-8.4c-3.9-0.2-6.9-2.7-6.9-5.8L1,46.9h826
	l-5.5,543.7C821.5,606.3,810.8,612.7,790.8,612.7z"/>
<path class="st5" d="M784.3,621.3c0,0-277.7,13.6-370.6,13.7c-99.9,0.2-389.5-12.4-417.1-13.7c-1.1,0-2-0.7-2.1-1.8V46.9h826v545.8
	C820.5,608.5,804.3,621.3,784.3,621.3z"/>
</svg>
