<svg id="Capa_1" data-name="Capa 1" xmlns="http://www.w3.org/2000/svg" xmlns:xlink="http://www.w3.org/1999/xlink" viewBox="0 0 820 1060"><defs><style>.cls-1,.cls-5{fill:none;}.cls-2{fill:#e95153;}.cls-3{clip-path:url(#clip-path);}.cls-4{fill:#eae966;}.cls-5{stroke:#fff;stroke-width:1.28px;stroke-dasharray:3.83 2.55;}.cls-6{fill:#fff;}</style><clipPath id="clip-path"><rect class="cls-1" width="820" height="1060"/></clipPath></defs><title>fondo_004</title><rect class="cls-2" width="820" height="1060"/><g class="cls-3"><path class="cls-4" d="M0,68.59c21.63-1.8,444.29-.16,487.67-.16S820,68.71,820,68.71v910S89.63,1002.6,0,985.1c0-85.22.57-397.37.57-560.57C.69,373.13-.36,119.64,0,68.59"/></g><rect class="cls-1" width="820" height="1060"/><rect class="cls-1" width="820" height="1060"/><g class="cls-3"><line class="cls-5" y1="43.5" x2="820" y2="43.5"/></g><g class="cls-3"><path class="cls-6" d="M32.4,37.2l1.4,2.3,7.8-1.4c.1,0,.1-.1.2-.1v-.2a5.55,5.55,0,0,0-.6-.8,2.93,2.93,0,0,0-2.7-.9Z"/></g><g class="cls-3"><path class="cls-6" d="M23.9,43.2A1.74,1.74,0,0,1,22.2,42v-.2a.75.75,0,0,1,.1-.5,1.61,1.61,0,0,1,1.5-.9,1.74,1.74,0,0,1,1.7,1.2v.2a.75.75,0,0,1-.1.5,1.72,1.72,0,0,1-1.5.9m3-1.4v-.4c0-.1-.1-.2-.1-.4s-.1-.3-.2-.5-.1-.1-.1-.2h2.8l-.6-1a3,3,0,0,1-.4-1c-.3.1-.6.3-.9.4a4.18,4.18,0,0,1-1.8.3,10.33,10.33,0,0,1-1.4-.1h-.5A2.85,2.85,0,0,0,21,40.6a1.72,1.72,0,0,0-.2,1.2v.4a3.13,3.13,0,0,0,3.1,2.5A2.85,2.85,0,0,0,26.6,43a2.66,2.66,0,0,0,.3-1.2"/></g><g class="cls-3"><path class="cls-6" d="M27.6,32.3a1.79,1.79,0,0,1-.3-1.7,1.38,1.38,0,0,1,.3-.4l.1-.1a1.61,1.61,0,0,1,2,.5,1.79,1.79,0,0,1,.3,1.7,1.38,1.38,0,0,1-.3.4l-.1.1a1.74,1.74,0,0,1-2-.5m2.7,6.2a.69.69,0,0,1,.9-.3.67.67,0,1,1-.6,1.2.69.69,0,0,1-.3-.9m-1.6-2.4a12.44,12.44,0,0,1,.4,1.6,4.23,4.23,0,0,0,.4,1.2L31.9,43h2.9l-3.3-5.6-.5-1c-.1-.1-.4-.5-1.1-1.3l-.6-.6h0c.1,0,.1,0,.2-.1s.3-.1.5-.2.2-.1.3-.2.2-.1.3-.2a3.92,3.92,0,0,0,.8-1,2.77,2.77,0,0,0-.5-3.1,3.12,3.12,0,0,0-3.8-.8c-.1.1-.2.1-.3.2a3.92,3.92,0,0,0-.8,1,2.77,2.77,0,0,0,.5,3.1l.3.3h0l1,1a14.56,14.56,0,0,1,.9,1.6"/></g></svg>