<?xml version="1.0" encoding="utf-8"?>
<!-- Generator: Adobe Illustrator 14.0.0, SVG Export Plug-In . SVG Version: 6.00 Build 43363)  -->
<!DOCTYPE svg PUBLIC "-//W3C//DTD SVG 1.1//EN" "http://www.w3.org/Graphics/SVG/1.1/DTD/svg11.dtd">
<svg version="1.1" id="Layer_1" xmlns="http://www.w3.org/2000/svg" xmlns:xlink="http://www.w3.org/1999/xlink" x="0px" y="0px"
	 width="478.476px" height="514.474px" viewBox="0 0 478.476 514.474" enable-background="new 0 0 478.476 514.474"
	 xml:space="preserve">
<g>
	<path fill="#FDDAB4" d="M205.862,506.007c-0.552,0-1-0.447-1-0.999c0-0.553,0.447-1.001,1-1.001
		c1.893-0.001,3.908-0.009,6.036-0.024c0.002,0,0.005,0,0.007,0c0.549,0,0.996,0.443,1,0.992c0.004,0.553-0.44,1.004-0.993,1.008
		C209.778,505.999,207.759,506.006,205.862,506.007L205.862,506.007z M201.837,506c-0.001,0-0.003,0-0.004,0
		c-2.237-0.01-4.255-0.028-6.032-0.051c-0.552-0.007-0.994-0.46-0.987-1.013c0.007-0.548,0.454-0.987,1-0.987
		c0.004,0,0.008,0,0.013,0c1.772,0.022,3.784,0.041,6.016,0.051c0.552,0.002,0.998,0.452,0.996,1.004
		C202.835,505.554,202.388,506,201.837,506L201.837,506z M215.936,505.943c-0.547,0-0.993-0.439-1-0.988
		c-0.007-0.552,0.436-1.005,0.988-1.012c1.934-0.023,3.946-0.054,6.031-0.093c0.006,0,0.013,0,0.019,0c0.543,0,0.989,0.436,1,0.981
		c0.01,0.552-0.429,1.008-0.981,1.019c-2.089,0.039-4.106,0.069-6.044,0.093C215.944,505.943,215.94,505.943,215.936,505.943
		L215.936,505.943z M226.002,505.766c-0.542,0-0.987-0.433-0.999-0.977c-0.013-0.553,0.424-1.011,0.977-1.023
		c1.955-0.045,3.965-0.098,6.027-0.158c0.553-0.003,1.013,0.419,1.029,0.971c0.016,0.552-0.418,1.013-0.97,1.029
		c-2.066,0.061-4.082,0.113-6.04,0.158C226.018,505.766,226.01,505.766,226.002,505.766L226.002,505.766z M236.064,505.479
		c-0.537,0-0.98-0.426-0.999-0.966c-0.019-0.553,0.414-1.015,0.966-1.033c1.966-0.066,3.976-0.141,6.023-0.224
		c0.571-0.017,1.018,0.408,1.04,0.959c0.022,0.552-0.406,1.017-0.958,1.039c-2.053,0.083-4.066,0.157-6.037,0.224
		C236.087,505.479,236.075,505.479,236.064,505.479L236.064,505.479z M246.118,505.084c-0.531,0-0.974-0.419-0.998-0.955
		c-0.024-0.552,0.402-1.02,0.954-1.044c1.975-0.089,3.982-0.186,6.021-0.29c0.502-0.032,1.021,0.396,1.05,0.948
		c0.028,0.551-0.396,1.021-0.948,1.05c-2.042,0.104-4.054,0.201-6.032,0.29C246.148,505.084,246.134,505.084,246.118,505.084
		L246.118,505.084z M256.168,504.578c-0.526,0-0.968-0.411-0.997-0.944c-0.031-0.551,0.391-1.023,0.942-1.054
		c1.979-0.111,3.985-0.23,6.015-0.357c0.539-0.026,1.025,0.383,1.061,0.936c0.034,0.552-0.385,1.026-0.936,1.061
		c-2.033,0.127-4.043,0.246-6.028,0.357C256.206,504.577,256.187,504.578,256.168,504.578L256.168,504.578z M266.209,503.958
		c-0.521,0-0.961-0.404-0.997-0.933c-0.037-0.551,0.38-1.028,0.931-1.065c1.984-0.134,3.987-0.275,6.009-0.428
		c0.544-0.038,1.032,0.371,1.072,0.922c0.042,0.551-0.371,1.031-0.922,1.072c-2.027,0.152-4.036,0.296-6.024,0.43
		C266.254,503.957,266.231,503.958,266.209,503.958L266.209,503.958z M276.241,503.219c-0.517,0-0.954-0.397-0.996-0.921
		c-0.044-0.551,0.367-1.032,0.918-1.076c1.985-0.158,3.986-0.324,6.003-0.501c0.542-0.054,1.035,0.359,1.083,0.909
		s-0.358,1.035-0.909,1.083c-2.021,0.177-4.027,0.345-6.019,0.503C276.295,503.218,276.268,503.219,276.241,503.219L276.241,503.219
		z M286.263,502.357c-0.511,0-0.947-0.39-0.995-0.908c-0.051-0.55,0.354-1.037,0.904-1.088c1.986-0.183,3.985-0.376,5.995-0.578
		c0.548-0.043,1.04,0.347,1.095,0.896s-0.346,1.039-0.896,1.095c-2.014,0.202-4.019,0.396-6.011,0.58
		C286.324,502.356,286.293,502.357,286.263,502.357L286.263,502.357z M296.272,501.364c-0.505,0-0.939-0.381-0.993-0.895
		c-0.059-0.549,0.34-1.042,0.889-1.1c1.987-0.211,3.983-0.432,5.985-0.661c0.552-0.064,1.045,0.33,1.107,0.879
		c0.063,0.549-0.33,1.045-0.879,1.107c-2.008,0.231-4.01,0.452-6.003,0.663C296.343,501.362,296.308,501.364,296.272,501.364
		L296.272,501.364z M306.266,500.232c-0.499,0-0.931-0.372-0.992-0.88c-0.065-0.549,0.325-1.047,0.873-1.113
		c1.986-0.239,3.979-0.489,5.976-0.748c0.536-0.061,1.049,0.315,1.12,0.864c0.07,0.547-0.316,1.049-0.864,1.12
		c-2.001,0.259-3.999,0.509-5.991,0.75C306.346,500.23,306.306,500.232,306.266,500.232L306.266,500.232z M316.241,498.951
		c-0.492,0-0.922-0.363-0.99-0.865c-0.074-0.547,0.309-1.051,0.856-1.126c1.979-0.27,3.963-0.55,5.947-0.84
		c0.55-0.088,1.055,0.298,1.134,0.845c0.08,0.546-0.298,1.054-0.845,1.134c-1.99,0.292-3.979,0.572-5.967,0.844
		C316.331,498.948,316.286,498.951,316.241,498.951L316.241,498.951z M326.179,497.512c-0.485,0-0.911-0.354-0.987-0.849
		c-0.084-0.546,0.291-1.056,0.837-1.14c1.982-0.305,3.967-0.619,5.948-0.944c0.548-0.097,1.06,0.279,1.148,0.824
		c0.09,0.545-0.279,1.06-0.824,1.148c-1.989,0.327-3.979,0.644-5.97,0.948C326.28,497.508,326.229,497.512,326.179,497.512
		L326.179,497.512z M336.12,495.897c-0.479,0-0.901-0.344-0.984-0.831c-0.094-0.544,0.271-1.061,0.816-1.154
		c1.985-0.342,3.968-0.694,5.945-1.059c0.552-0.105,1.065,0.261,1.165,0.802c0.101,0.544-0.259,1.065-0.802,1.165
		c-1.987,0.366-3.978,0.721-5.971,1.063C336.233,495.892,336.176,495.897,336.12,495.897L336.12,495.897z M346.035,494.091
		c-0.47,0-0.889-0.332-0.981-0.811c-0.104-0.543,0.251-1.066,0.793-1.172c1.973-0.38,3.94-0.771,5.9-1.176
		c0.549-0.107,1.07,0.237,1.182,0.777c0.111,0.541-0.236,1.07-0.777,1.182c-1.97,0.406-3.945,0.8-5.926,1.182
		C346.161,494.085,346.098,494.091,346.035,494.091L346.035,494.091z M355.889,492.083c-0.461,0-0.875-0.32-0.977-0.789
		c-0.116-0.54,0.227-1.072,0.767-1.188c1.965-0.424,3.923-0.86,5.871-1.31c0.536-0.126,1.076,0.212,1.199,0.75
		c0.124,0.538-0.212,1.075-0.75,1.199c-1.958,0.451-3.924,0.89-5.898,1.315C356.029,492.076,355.959,492.083,355.889,492.083
		L355.889,492.083z M365.692,489.845c-0.451,0-0.86-0.308-0.971-0.766c-0.13-0.536,0.2-1.077,0.737-1.206
		c1.955-0.473,3.9-0.959,5.834-1.458c0.534-0.136,1.08,0.184,1.219,0.719c0.138,0.535-0.185,1.08-0.719,1.219
		c-1.943,0.501-3.898,0.989-5.865,1.464C365.85,489.836,365.771,489.845,365.692,489.845L365.692,489.845z M375.435,487.355
		c-0.44,0-0.844-0.293-0.964-0.739c-0.145-0.532,0.171-1.082,0.704-1.226c1.943-0.526,3.873-1.066,5.788-1.622
		c0.526-0.153,1.084,0.15,1.238,0.682c0.154,0.53-0.15,1.085-0.682,1.238c-1.926,0.56-3.868,1.104-5.823,1.632
		C375.609,487.344,375.521,487.355,375.435,487.355L375.435,487.355z M385.101,484.581c-0.429,0-0.825-0.277-0.957-0.709
		c-0.16-0.528,0.138-1.087,0.666-1.248c1.928-0.587,3.838-1.188,5.729-1.808c0.526-0.176,1.09,0.115,1.262,0.639
		c0.172,0.525-0.114,1.09-0.639,1.262c-1.904,0.623-3.828,1.23-5.77,1.821C385.295,484.567,385.196,484.581,385.101,484.581
		L385.101,484.581z M394.667,481.485c-0.415,0-0.803-0.26-0.945-0.675c-0.18-0.522,0.098-1.091,0.62-1.271
		c1.914-0.658,3.816-1.338,5.654-2.021c0.518-0.194,1.094,0.072,1.285,0.59c0.192,0.518-0.071,1.093-0.59,1.285
		c-1.853,0.688-3.771,1.373-5.699,2.036C394.885,481.467,394.774,481.485,394.667,481.485L394.667,481.485z M404.105,478.023
		c-0.399,0-0.777-0.241-0.932-0.636c-0.201-0.515,0.053-1.095,0.567-1.296c1.869-0.73,3.738-1.491,5.557-2.262
		c0.505-0.213,1.095,0.021,1.311,0.531c0.215,0.508-0.022,1.095-0.531,1.311c-1.835,0.777-3.722,1.545-5.607,2.283
		C404.35,478.001,404.227,478.023,404.105,478.023L404.105,478.023z M413.378,474.142c-0.383,0-0.747-0.22-0.913-0.591
		c-0.227-0.504-0.001-1.096,0.503-1.321c1.855-0.832,3.682-1.688,5.427-2.542c0.497-0.243,1.096-0.037,1.338,0.459
		s0.037,1.095-0.459,1.338c-1.765,0.864-3.611,1.729-5.487,2.569C413.653,474.114,413.515,474.142,413.378,474.142L413.378,474.142z
		 M422.429,469.774c-0.361,0-0.71-0.196-0.888-0.539c-0.255-0.489-0.064-1.094,0.426-1.348c1.796-0.935,3.563-1.898,5.254-2.865
		c0.479-0.276,1.09-0.107,1.364,0.372c0.274,0.479,0.107,1.09-0.372,1.364c-1.713,0.979-3.504,1.957-5.324,2.902
		C422.742,469.738,422.584,469.774,422.429,469.774L422.429,469.774z M431.181,464.84c-0.337,0-0.665-0.17-0.854-0.478
		c-0.289-0.472-0.141-1.087,0.33-1.375c1.725-1.057,3.413-2.146,5.018-3.24c0.458-0.31,1.079-0.193,1.39,0.263
		c0.312,0.457,0.193,1.079-0.263,1.39c-1.632,1.112-3.348,2.221-5.1,3.293C431.539,464.792,431.358,464.84,431.181,464.84
		L431.181,464.84z M439.521,459.25c-0.308,0-0.61-0.141-0.807-0.407c-0.327-0.444-0.232-1.07,0.213-1.398
		c1.618-1.191,3.197-2.427,4.691-3.672c0.424-0.353,1.054-0.297,1.408,0.129c0.354,0.424,0.296,1.055-0.129,1.408
		c-1.524,1.271-3.135,2.53-4.785,3.746C439.934,459.186,439.727,459.25,439.521,459.25L439.521,459.25z M447.287,452.901
		c-0.271,0-0.542-0.109-0.739-0.326c-0.372-0.408-0.343-1.04,0.065-1.413c1.485-1.354,2.911-2.753,4.238-4.156
		c0.38-0.401,1.015-0.417,1.414-0.039c0.4,0.38,0.419,1.013,0.039,1.414c-1.36,1.438-2.822,2.871-4.344,4.26
		C447.77,452.815,447.528,452.901,447.287,452.901L447.287,452.901z M454.258,445.703c-0.228,0-0.458-0.078-0.646-0.237
		c-0.421-0.356-0.474-0.988-0.116-1.409c1.291-1.523,2.51-3.097,3.623-4.674c0.319-0.45,0.941-0.557,1.395-0.24
		c0.451,0.319,0.559,0.942,0.24,1.394c-1.147,1.626-2.403,3.245-3.732,4.813C454.824,445.583,454.542,445.703,454.258,445.703
		L454.258,445.703z M460.143,437.61c-0.179,0-0.359-0.048-0.522-0.147c-0.471-0.289-0.618-0.905-0.329-1.376
		c1.036-1.688,1.984-3.425,2.82-5.165c0.238-0.498,0.833-0.711,1.334-0.469c0.498,0.239,0.708,0.836,0.469,1.334
		c-0.865,1.802-1.847,3.601-2.918,5.347C460.807,437.441,460.479,437.61,460.143,437.61L460.143,437.61z M464.62,428.684
		c-0.123,0-0.247-0.022-0.368-0.07c-0.514-0.203-0.765-0.784-0.562-1.298c0.722-1.824,1.35-3.7,1.863-5.578
		c0.146-0.532,0.694-0.843,1.229-0.7c0.532,0.146,0.846,0.696,0.7,1.229c-0.534,1.947-1.185,3.894-1.934,5.785
		C465.395,428.445,465.018,428.684,464.62,428.684L464.62,428.684z M467.441,419.094c-0.064,0-0.129-0.006-0.194-0.019
		c-0.542-0.107-0.895-0.634-0.788-1.176c0.285-1.442,0.517-2.922,0.687-4.396c0.063-0.549,0.554-0.943,1.107-0.879
		c0.549,0.063,0.942,0.559,0.879,1.107c-0.176,1.528-0.415,3.062-0.71,4.556C468.327,418.764,467.909,419.094,467.441,419.094
		L467.441,419.094z"/>
</g>
<g>
	<path fill="#FDDAB4" d="M468.25,399.3c-0.521,0-0.96-0.402-0.996-0.93c-0.142-2.004-0.34-3.981-0.591-5.876
		c-0.072-0.547,0.313-1.05,0.86-1.122c0.55-0.077,1.05,0.313,1.122,0.86c0.256,1.935,0.459,3.952,0.603,5.997
		c0.039,0.551-0.376,1.029-0.927,1.067C468.297,399.299,468.273,399.3,468.25,399.3L468.25,399.3z M467.044,389.442
		c-0.476,0-0.896-0.34-0.983-0.823c-0.353-1.964-0.775-3.899-1.258-5.751c-0.139-0.534,0.182-1.081,0.716-1.22
		c0.532-0.136,1.08,0.181,1.22,0.716c0.495,1.901,0.93,3.887,1.291,5.901c0.098,0.544-0.264,1.063-0.808,1.161
		C467.162,389.437,467.103,389.442,467.044,389.442L467.044,389.442z M464.66,379.806c-0.422,0-0.814-0.269-0.951-0.692
		c-0.611-1.89-1.307-3.736-2.067-5.49c-0.219-0.507,0.014-1.096,0.521-1.315c0.502-0.218,1.095,0.014,1.315,0.521
		c0.785,1.812,1.503,3.72,2.134,5.67c0.17,0.525-0.118,1.089-0.644,1.259C464.865,379.791,464.762,379.806,464.66,379.806
		L464.66,379.806z M117.068,376.977c-0.001,0-0.002,0-0.004,0c-2.008-0.008-4.026-0.039-5.997-0.094
		c-0.552-0.016-0.987-0.476-0.972-1.027s0.449-0.956,1.027-0.973c1.955,0.055,3.957,0.086,5.949,0.094
		c0.552,0.002,0.998,0.451,0.996,1.004C118.066,376.532,117.619,376.977,117.068,376.977L117.068,376.977z M121.041,376.962
		c-0.547,0-0.994-0.44-1-0.989c-0.006-0.552,0.437-1.005,0.989-1.011c1.968-0.021,3.952-0.064,5.951-0.127
		c0.537-0.04,1.014,0.415,1.031,0.968c0.018,0.552-0.416,1.014-0.968,1.031c-2.014,0.063-4.012,0.106-5.993,0.128
		C121.048,376.962,121.044,376.962,121.041,376.962L121.041,376.962z M107.126,376.737c-0.016,0-0.031,0-0.047-0.001
		c-2.009-0.092-4.025-0.213-5.991-0.359c-0.551-0.041-0.964-0.521-0.923-1.071c0.041-0.551,0.514-0.97,1.071-0.923
		c1.947,0.145,3.944,0.265,5.934,0.355c0.551,0.025,0.979,0.493,0.953,1.045C108.1,376.319,107.657,376.737,107.126,376.737
		L107.126,376.737z M130.983,376.683c-0.532,0-0.975-0.419-0.999-0.956c-0.024-0.552,0.403-1.019,0.955-1.043
		c1.97-0.087,3.953-0.191,5.948-0.315c0.556-0.022,1.026,0.385,1.06,0.937c0.034,0.551-0.385,1.025-0.936,1.06
		c-2.008,0.124-4.003,0.23-5.984,0.317C131.013,376.683,130.998,376.683,130.983,376.683L130.983,376.683z M140.914,376.1
		c-0.52,0-0.958-0.401-0.997-0.928c-0.04-0.551,0.375-1.03,0.925-1.069c1.969-0.143,3.949-0.302,5.94-0.476
		c0.551-0.059,1.035,0.358,1.083,0.909c0.048,0.55-0.359,1.035-0.909,1.083c-2.002,0.176-3.992,0.335-5.971,0.478
		C140.962,376.099,140.938,376.1,140.914,376.1L140.914,376.1z M97.205,376.042c-0.032,0-0.064-0.001-0.096-0.005
		c-2.024-0.193-4.033-0.42-5.969-0.674c-0.548-0.071-0.934-0.573-0.862-1.121c0.071-0.548,0.575-0.938,1.122-0.861
		c1.913,0.25,3.898,0.475,5.9,0.666c0.55,0.052,0.953,0.54,0.9,1.09C98.15,375.655,97.715,376.042,97.205,376.042L97.205,376.042z
		 M150.827,375.259c-0.509,0-0.944-0.387-0.994-0.904c-0.053-0.549,0.349-1.038,0.899-1.091c1.967-0.19,3.944-0.395,5.931-0.612
		c0.542-0.063,1.042,0.335,1.103,0.886c0.06,0.549-0.336,1.042-0.885,1.103c-1.996,0.218-3.981,0.424-5.956,0.614
		C150.892,375.257,150.859,375.259,150.827,375.259L150.827,375.259z M87.338,374.81c-0.051,0-0.103-0.004-0.155-0.012
		c-2.018-0.315-4.01-0.668-5.92-1.048c-0.542-0.107-0.894-0.634-0.786-1.176c0.108-0.541,0.631-0.897,1.176-0.785
		c1.884,0.374,3.849,0.722,5.839,1.032c0.546,0.086,0.919,0.597,0.833,1.143C88.249,374.458,87.823,374.81,87.338,374.81
		L87.338,374.81z M160.719,374.198c-0.5,0-0.932-0.374-0.992-0.883c-0.064-0.549,0.328-1.046,0.876-1.11
		c1.964-0.231,3.938-0.474,5.919-0.729c0.549-0.063,1.049,0.317,1.119,0.865c0.07,0.548-0.316,1.049-0.864,1.119
		c-1.989,0.255-3.97,0.499-5.941,0.73C160.797,374.196,160.758,374.198,160.719,374.198L160.719,374.198z M170.589,372.948
		c-0.493,0-0.922-0.364-0.99-0.866c-0.074-0.547,0.31-1.051,0.857-1.125c1.962-0.265,3.932-0.541,5.908-0.826
		c0.55-0.086,1.054,0.3,1.133,0.847c0.079,0.546-0.3,1.054-0.847,1.132c-1.982,0.287-3.958,0.563-5.927,0.83
		C170.679,372.945,170.634,372.948,170.589,372.948L170.589,372.948z M77.574,372.939c-0.074,0-0.15-0.008-0.225-0.025
		c-1.978-0.455-3.939-0.956-5.832-1.489c-0.531-0.15-0.841-0.703-0.691-1.234s0.703-0.838,1.234-0.691
		c1.861,0.525,3.791,1.019,5.737,1.466c0.538,0.124,0.874,0.66,0.75,1.199C78.441,372.625,78.03,372.939,77.574,372.939
		L77.574,372.939z M180.438,371.54c-0.487,0-0.914-0.355-0.988-0.852c-0.082-0.546,0.294-1.056,0.84-1.138
		c1.959-0.294,3.926-0.599,5.897-0.91c0.545-0.086,1.058,0.286,1.144,0.831s-0.286,1.058-0.832,1.144
		c-1.977,0.313-3.948,0.618-5.913,0.914C180.537,371.536,180.487,371.54,180.438,371.54L180.438,371.54z M460.857,370.645
		c-0.361,0-0.71-0.196-0.889-0.539c-0.908-1.748-1.911-3.44-2.981-5.029c-0.309-0.458-0.188-1.079,0.271-1.388
		c0.457-0.308,1.08-0.188,1.388,0.271c1.112,1.651,2.155,3.409,3.099,5.225c0.254,0.49,0.063,1.094-0.427,1.349
		C461.17,370.609,461.013,370.645,460.857,370.645L460.857,370.645z M67.987,370.315c-0.101,0-0.204-0.016-0.306-0.048
		c-1.942-0.625-3.854-1.301-5.682-2.009c-0.515-0.2-0.771-0.779-0.571-1.294c0.2-0.517,0.78-0.77,1.294-0.571
		c1.792,0.694,3.666,1.357,5.572,1.97c0.526,0.169,0.815,0.732,0.646,1.258C68.803,370.045,68.41,370.315,67.987,370.315
		L67.987,370.315z M190.267,369.997c-0.482,0-0.906-0.349-0.986-0.839c-0.089-0.546,0.281-1.06,0.826-1.148
		c1.958-0.318,3.92-0.646,5.887-0.98c0.545-0.092,1.061,0.273,1.153,0.817c0.093,0.545-0.274,1.062-0.818,1.153
		c-1.971,0.336-3.938,0.664-5.901,0.984C190.375,369.993,190.32,369.997,190.267,369.997L190.267,369.997z M200.077,368.339
		c-0.477,0-0.899-0.343-0.984-0.828c-0.095-0.544,0.27-1.063,0.814-1.157c1.956-0.341,3.916-0.688,5.878-1.04
		c0.546-0.101,1.063,0.265,1.161,0.808c0.098,0.544-0.264,1.063-0.808,1.161c-1.967,0.353-3.93,0.701-5.889,1.042
		C200.192,368.334,200.134,368.339,200.077,368.339L200.077,368.339z M58.688,366.814c-0.134,0-0.27-0.026-0.4-0.084
		c-1.861-0.813-3.693-1.688-5.445-2.601c-0.49-0.255-0.68-0.859-0.425-1.349c0.255-0.49,0.859-0.681,1.349-0.425
		c1.712,0.892,3.502,1.747,5.322,2.542c0.506,0.221,0.737,0.811,0.516,1.316C59.441,366.59,59.073,366.814,58.688,366.814
		L58.688,366.814z M209.872,366.589c-0.474,0-0.894-0.338-0.982-0.819c-0.1-0.544,0.26-1.064,0.803-1.164
		c1.955-0.358,3.912-0.722,5.872-1.089c0.54-0.092,1.065,0.256,1.167,0.8c0.102,0.542-0.256,1.064-0.799,1.167
		c-1.962,0.367-3.922,0.73-5.879,1.089C209.992,366.584,209.932,366.589,209.872,366.589L209.872,366.589z M219.652,364.763
		c-0.471,0-0.89-0.334-0.981-0.813c-0.103-0.542,0.253-1.065,0.795-1.169c1.959-0.373,3.921-0.75,5.884-1.129
		c0.54-0.107,1.066,0.249,1.172,0.792c0.105,0.542-0.25,1.066-0.792,1.171c-1.965,0.381-3.928,0.758-5.89,1.131
		C219.777,364.757,219.714,364.763,219.652,364.763L219.652,364.763z M229.452,362.873c-0.469,0-0.887-0.331-0.98-0.808
		c-0.106-0.542,0.247-1.067,0.789-1.174c1.957-0.384,3.915-0.77,5.872-1.157c0.542-0.106,1.068,0.246,1.175,0.787
		c0.107,0.542-0.245,1.068-0.787,1.175c-1.959,0.389-3.918,0.774-5.876,1.158C229.581,362.867,229.516,362.873,229.452,362.873
		L229.452,362.873z M49.83,362.324c-0.171,0-0.345-0.044-0.504-0.137c-1.745-1.021-3.458-2.113-5.094-3.248
		c-0.454-0.314-0.566-0.938-0.252-1.392s0.937-0.567,1.392-0.251c1.593,1.104,3.263,2.17,4.964,3.164
		c0.477,0.279,0.637,0.892,0.358,1.368C50.508,362.147,50.174,362.324,49.83,362.324L49.83,362.324z M455.477,362.316
		c-0.295,0-0.587-0.13-0.784-0.378c-1.204-1.517-2.516-2.98-3.897-4.352c-0.393-0.389-0.395-1.021-0.006-1.414
		s1.021-0.395,1.414-0.006c1.438,1.426,2.803,2.949,4.056,4.527c0.344,0.433,0.271,1.062-0.161,1.405
		C455.913,362.245,455.694,362.316,455.477,362.316L455.477,362.316z M239.231,360.939c-0.467,0-0.885-0.329-0.979-0.804
		c-0.108-0.542,0.243-1.068,0.785-1.177l5.862-1.175c0.541-0.112,1.068,0.242,1.178,0.783c0.108,0.542-0.242,1.069-0.783,1.178
		l-5.865,1.175C239.362,360.933,239.296,360.939,239.231,360.939L239.231,360.939z M248.991,358.979
		c-0.466,0-0.883-0.327-0.979-0.802c-0.109-0.541,0.241-1.069,0.782-1.179l5.854-1.184c0.541-0.11,1.068,0.241,1.179,0.782
		c0.109,0.541-0.241,1.069-0.782,1.179l-5.854,1.184C249.123,358.973,249.057,358.979,248.991,358.979L248.991,358.979z
		 M258.737,357.007c-0.466,0-0.883-0.327-0.979-0.802c-0.109-0.541,0.24-1.068,0.782-1.179l5.848-1.184
		c0.55-0.108,1.069,0.241,1.179,0.782s-0.241,1.069-0.782,1.179l-5.848,1.184C258.87,357.001,258.803,357.007,258.737,357.007
		L258.737,357.007z M41.604,356.767c-0.215,0-0.431-0.068-0.613-0.211c-1.591-1.237-3.142-2.551-4.608-3.902
		c-0.406-0.374-0.432-1.007-0.058-1.413c0.375-0.406,1.007-0.431,1.413-0.058c1.426,1.314,2.933,2.591,4.48,3.795
		c0.436,0.339,0.515,0.967,0.176,1.403C42.197,356.634,41.902,356.767,41.604,356.767L41.604,356.767z M448.575,355.199
		c-0.229,0-0.458-0.078-0.646-0.237c-1.465-1.24-3.037-2.426-4.672-3.521c-0.459-0.309-0.581-0.93-0.274-1.388
		c0.309-0.459,0.929-0.583,1.388-0.273c1.697,1.138,3.329,2.368,4.852,3.657c0.421,0.356,0.474,0.987,0.116,1.409
		C449.141,355.079,448.858,355.199,448.575,355.199L448.575,355.199z M268.471,355.039c-0.466,0-0.884-0.327-0.979-0.802
		c-0.109-0.542,0.241-1.069,0.782-1.179l5.844-1.175c0.539-0.11,1.068,0.242,1.177,0.784c0.108,0.541-0.242,1.068-0.784,1.177
		l-5.84,1.175C268.603,355.033,268.536,355.039,268.471,355.039L268.471,355.039z M278.195,353.088
		c-0.467,0-0.885-0.329-0.979-0.805c-0.108-0.541,0.243-1.068,0.785-1.176c1.959-0.391,3.913-0.779,5.863-1.163
		c0.549-0.104,1.068,0.247,1.175,0.788c0.106,0.542-0.246,1.067-0.788,1.175c-1.948,0.384-3.901,0.771-5.859,1.161
		C278.326,353.083,278.26,353.088,278.195,353.088L278.195,353.088z M287.957,351.162c-0.469,0-0.888-0.331-0.98-0.809
		c-0.105-0.542,0.248-1.067,0.79-1.173c1.961-0.383,3.918-0.762,5.869-1.137c0.54-0.101,1.067,0.252,1.171,0.794
		c0.104,0.543-0.252,1.066-0.794,1.171c-1.949,0.373-3.904,0.752-5.863,1.135C288.085,351.156,288.021,351.162,287.957,351.162
		L287.957,351.162z M34.221,350.147c-0.261,0-0.522-0.102-0.719-0.305c-1.396-1.441-2.747-2.963-4.016-4.52
		c-0.349-0.429-0.285-1.059,0.144-1.407c0.427-0.35,1.058-0.284,1.407,0.144c1.233,1.514,2.545,2.991,3.902,4.393
		c0.384,0.396,0.374,1.029-0.023,1.414C34.722,350.053,34.471,350.147,34.221,350.147L34.221,350.147z M440.442,349.515
		c-0.169,0-0.34-0.043-0.497-0.133c-1.655-0.951-3.413-1.852-5.226-2.677c-0.503-0.229-0.725-0.822-0.496-1.324
		c0.229-0.503,0.823-0.728,1.324-0.496c1.87,0.852,3.685,1.781,5.394,2.763c0.479,0.275,0.645,0.887,0.369,1.365
		C441.126,349.335,440.789,349.515,440.442,349.515L440.442,349.515z M297.727,349.281c-0.471,0-0.891-0.334-0.981-0.813
		c-0.103-0.543,0.254-1.066,0.796-1.169c1.967-0.372,3.927-0.739,5.879-1.1c0.54-0.103,1.064,0.259,1.165,0.802
		s-0.259,1.064-0.802,1.165c-1.95,0.36-3.906,0.726-5.869,1.098C297.851,349.275,297.788,349.281,297.727,349.281L297.727,349.281z
		 M307.51,347.467c-0.475,0-0.896-0.338-0.983-0.821c-0.099-0.544,0.263-1.063,0.806-1.163c1.971-0.357,3.934-0.708,5.889-1.052
		c0.543-0.09,1.062,0.269,1.158,0.813c0.095,0.544-0.269,1.063-0.813,1.158c-1.951,0.342-3.91,0.692-5.877,1.05
		C307.629,347.462,307.569,347.467,307.51,347.467L307.51,347.467z M317.308,345.737c-0.479,0-0.901-0.344-0.984-0.831
		c-0.094-0.545,0.272-1.062,0.816-1.154c1.976-0.339,3.943-0.669,5.9-0.99c0.547-0.098,1.06,0.279,1.148,0.824
		c0.09,0.545-0.279,1.06-0.824,1.148c-1.953,0.321-3.915,0.651-5.887,0.988C317.42,345.732,317.363,345.737,317.308,345.737
		L317.308,345.737z M431.475,345.255c-0.121,0-0.243-0.021-0.362-0.067c-1.778-0.691-3.652-1.338-5.571-1.921
		c-0.528-0.161-0.826-0.72-0.666-1.248c0.161-0.527,0.721-0.825,1.248-0.666c1.967,0.599,3.889,1.262,5.714,1.97
		c0.515,0.2,0.77,0.78,0.569,1.295C432.253,345.013,431.875,345.255,431.475,345.255L431.475,345.255z M327.124,344.114
		c-0.483,0-0.908-0.351-0.986-0.843c-0.087-0.546,0.285-1.059,0.83-1.145c1.981-0.315,3.953-0.62,5.914-0.915
		c0.548-0.072,1.056,0.295,1.138,0.841s-0.295,1.056-0.841,1.138c-1.955,0.293-3.921,0.598-5.896,0.911
		C327.229,344.11,327.176,344.114,327.124,344.114L327.124,344.114z M336.962,342.623c-0.489,0-0.917-0.359-0.989-0.857
		c-0.078-0.547,0.302-1.054,0.848-1.133c1.988-0.285,3.965-0.56,5.93-0.82c0.551-0.069,1.051,0.312,1.123,0.859
		c0.073,0.548-0.312,1.051-0.859,1.123c-1.958,0.261-3.928,0.533-5.908,0.818C337.057,342.62,337.009,342.623,336.962,342.623
		L336.962,342.623z M27.844,342.547c-0.31,0-0.615-0.143-0.81-0.412c-1.167-1.608-2.293-3.301-3.346-5.032
		c-0.287-0.472-0.137-1.087,0.335-1.374c0.47-0.287,1.086-0.138,1.374,0.335c1.025,1.685,2.12,3.332,3.255,4.896
		c0.325,0.447,0.225,1.072-0.222,1.397C28.253,342.486,28.047,342.547,27.844,342.547L27.844,342.547z M422.008,342.241
		c-0.082,0-0.166-0.01-0.249-0.031c-1.851-0.474-3.792-0.909-5.77-1.294c-0.542-0.105-0.896-0.63-0.79-1.172
		c0.105-0.544,0.621-0.899,1.173-0.791c2.015,0.392,3.994,0.836,5.883,1.319c0.535,0.137,0.857,0.682,0.721,1.217
		C422.86,341.941,422.453,342.241,422.008,342.241L422.008,342.241z M346.822,341.294c-0.497,0-0.928-0.37-0.991-0.876
		c-0.068-0.548,0.32-1.048,0.868-1.116c1.996-0.25,3.979-0.485,5.946-0.707c0.54-0.052,1.044,0.334,1.105,0.883
		s-0.334,1.043-0.883,1.105c-1.958,0.22-3.933,0.455-5.921,0.703C346.905,341.292,346.863,341.294,346.822,341.294L346.822,341.294z
		 M412.271,340.246c-0.052,0-0.104-0.004-0.157-0.013c-1.889-0.299-3.864-0.565-5.874-0.79c-0.549-0.062-0.944-0.557-0.883-1.105
		c0.063-0.548,0.554-0.938,1.105-0.883c2.04,0.229,4.046,0.499,5.964,0.804c0.546,0.086,0.918,0.599,0.831,1.144
		C413.179,339.895,412.754,340.246,412.271,340.246L412.271,340.246z M356.707,340.164c-0.507,0-0.941-0.383-0.994-0.897
		c-0.056-0.55,0.344-1.041,0.894-1.098c2.004-0.205,3.992-0.396,5.963-0.566c0.559-0.063,1.035,0.359,1.083,0.909
		c0.048,0.551-0.359,1.035-0.909,1.083c-1.961,0.171-3.939,0.359-5.933,0.564C356.775,340.162,356.741,340.164,356.707,340.164
		L356.707,340.164z M366.617,339.275c-0.519,0-0.957-0.399-0.996-0.925c-0.042-0.551,0.371-1.031,0.922-1.072
		c2.013-0.152,4.007-0.285,5.98-0.396c0.546-0.027,1.024,0.39,1.055,0.941c0.031,0.552-0.391,1.023-0.941,1.055
		c-1.962,0.111-3.942,0.244-5.943,0.395C366.668,339.274,366.643,339.275,366.617,339.275L366.617,339.275z M402.397,339.062
		c-0.028,0-0.057-0.001-0.085-0.004c-1.905-0.16-3.898-0.292-5.924-0.39c-0.552-0.027-0.978-0.496-0.951-1.047
		c0.027-0.553,0.53-0.985,1.047-0.951c2.05,0.1,4.067,0.232,5.996,0.396c0.551,0.046,0.959,0.53,0.912,1.08
		C403.349,338.667,402.912,339.062,402.397,339.062L402.397,339.062z M376.548,338.682c-0.532,0-0.975-0.42-0.998-0.957
		c-0.023-0.552,0.404-1.019,0.956-1.042c2.011-0.087,4.027-0.15,5.995-0.188c0.007,0,0.014,0,0.02,0c0.544,0,0.989,0.435,1,0.98
		c0.011,0.553-0.429,1.009-0.98,1.02c-1.952,0.037-3.953,0.101-5.948,0.187C376.577,338.682,376.563,338.682,376.548,338.682
		L376.548,338.682z M392.467,338.522c-0.009,0-0.018,0-0.026,0c-1.773-0.048-3.607-0.071-5.451-0.071l-0.489,0.001
		c-0.002,0-0.004,0-0.006,0c-0.55,0-0.997-0.443-1-0.994c-0.003-0.552,0.441-1.003,0.994-1.006l0.501-0.001
		c1.861,0,3.713,0.024,5.504,0.071c0.553,0.015,0.988,0.475,0.974,1.026C393.452,338.091,393.007,338.522,392.467,338.522
		L392.467,338.522z M22.571,334.141c-0.356,0-0.701-0.19-0.881-0.525c-0.941-1.746-1.838-3.568-2.664-5.416
		c-0.226-0.504,0-1.096,0.504-1.321c0.502-0.223,1.095,0,1.321,0.505c0.807,1.803,1.681,3.58,2.6,5.283
		c0.262,0.486,0.081,1.093-0.406,1.354C22.894,334.103,22.731,334.141,22.571,334.141L22.571,334.141z M18.402,325.133
		c-0.399,0-0.776-0.24-0.931-0.634c-0.72-1.83-1.401-3.74-2.023-5.678c-0.169-0.525,0.121-1.089,0.646-1.258
		c0.53-0.166,1.089,0.12,1.258,0.646c0.609,1.896,1.275,3.766,1.98,5.557c0.202,0.514-0.051,1.095-0.564,1.297
		C18.647,325.111,18.523,325.133,18.402,325.133L18.402,325.133z M15.261,315.713c-0.438,0-0.84-0.29-0.963-0.732
		c-0.525-1.888-1.014-3.854-1.451-5.842c-0.119-0.539,0.222-1.072,0.762-1.191c0.537-0.119,1.072,0.222,1.191,0.762
		c0.43,1.952,0.909,3.883,1.425,5.736c0.148,0.531-0.164,1.083-0.695,1.231C15.44,315.702,15.35,315.713,15.261,315.713
		L15.261,315.713z M13.036,306.034c-0.473,0-0.893-0.336-0.982-0.817c-0.357-1.928-0.679-3.925-0.956-5.937
		c-0.075-0.547,0.307-1.052,0.854-1.127c0.544-0.083,1.052,0.306,1.127,0.854c0.273,1.981,0.59,3.948,0.941,5.845
		c0.101,0.544-0.258,1.065-0.801,1.166C13.157,306.029,13.096,306.034,13.036,306.034L13.036,306.034z M11.601,296.203
		c-0.503,0-0.937-0.379-0.993-0.892c-0.212-1.946-0.392-3.959-0.533-5.983c-0.039-0.551,0.377-1.028,0.928-1.066
		c0.556-0.049,1.029,0.377,1.067,0.928c0.14,1.997,0.317,3.984,0.526,5.905c0.06,0.549-0.337,1.043-0.886,1.103
		C11.674,296.201,11.637,296.203,11.601,296.203L11.601,296.203z M10.843,286.294c-0.532,0-0.974-0.418-0.999-0.954
		c-0.09-1.963-0.148-3.982-0.174-6.002c-0.007-0.552,0.435-1.006,0.987-1.013c0.549-0.012,1.005,0.436,1.013,0.987
		c0.025,1.998,0.083,3.995,0.172,5.936c0.025,0.552-0.401,1.02-0.953,1.045C10.874,286.294,10.858,286.294,10.843,286.294
		L10.843,286.294z M10.66,276.353c-0.002,0-0.005,0-0.008,0c-0.552-0.004-0.997-0.455-0.992-1.008l0.007-0.771
		c0.006-0.552,0.415-0.988,1.011-0.988c0.552,0.007,0.995,0.459,0.989,1.012l-0.007,0.763
		C11.655,275.911,11.208,276.353,10.66,276.353L10.66,276.353z"/>
</g>
<g>
	<path fill="#FDDAB4" d="M11.979,260.323c-0.072,0-0.146-0.008-0.219-0.024c-0.539-0.121-0.878-0.655-0.758-1.194
		c0.445-1.988,1.021-3.945,1.711-5.814c0.191-0.518,0.767-0.783,1.284-0.592c0.518,0.191,0.783,0.766,0.592,1.284
		c-0.659,1.787-1.209,3.657-1.635,5.559C12.85,260.007,12.438,260.323,11.979,260.323L11.979,260.323z M15.2,250.977
		c-0.145,0-0.292-0.031-0.432-0.098c-0.498-0.239-0.708-0.836-0.47-1.334c0.869-1.813,1.879-3.59,3.001-5.282
		c0.305-0.461,0.927-0.587,1.386-0.281c0.46,0.306,0.586,0.926,0.28,1.386c-1.071,1.615-2.035,3.311-2.864,5.041
		C15.93,250.768,15.572,250.977,15.2,250.977L15.2,250.977z M20.48,242.599c-0.219,0-0.439-0.072-0.624-0.219
		c-0.431-0.345-0.501-0.974-0.156-1.405c1.238-1.549,2.614-3.064,4.088-4.504c0.395-0.386,1.029-0.378,1.414,0.017
		c0.386,0.395,0.378,1.028-0.017,1.414c-1.416,1.383-2.736,2.838-3.924,4.323C21.064,242.471,20.773,242.599,20.48,242.599
		L20.48,242.599z M27.447,235.502c-0.285,0-0.567-0.121-0.765-0.355c-0.356-0.422-0.302-1.053,0.12-1.409
		c1.503-1.267,3.131-2.505,4.839-3.683c0.455-0.313,1.077-0.199,1.391,0.256c0.313,0.455,0.198,1.078-0.256,1.391
		c-1.655,1.14-3.231,2.339-4.685,3.564C27.903,235.425,27.674,235.502,27.447,235.502L27.447,235.502z M35.57,229.703
		c-0.337,0-0.667-0.17-0.855-0.48c-0.287-0.472-0.138-1.087,0.334-1.374c1.674-1.019,3.458-2.016,5.302-2.961
		c0.49-0.255,1.095-0.058,1.346,0.433c0.252,0.492,0.058,1.094-0.433,1.346c-1.801,0.924-3.542,1.896-5.175,2.89
		C35.927,229.656,35.748,229.703,35.57,229.703L35.57,229.703z M44.415,225.024c-0.378,0-0.74-0.215-0.909-0.582
		c-0.231-0.502-0.012-1.096,0.49-1.327c1.779-0.819,3.655-1.62,5.578-2.38c0.514-0.205,1.095,0.048,1.297,0.562
		c0.203,0.514-0.048,1.094-0.562,1.297c-1.889,0.747-3.731,1.534-5.477,2.337C44.697,224.995,44.555,225.024,44.415,225.024
		L44.415,225.024z M53.697,221.252c-0.41,0-0.794-0.254-0.941-0.663c-0.187-0.52,0.083-1.092,0.604-1.279
		c1.844-0.663,3.776-1.31,5.743-1.923c0.527-0.163,1.087,0.129,1.252,0.657c0.165,0.527-0.129,1.088-0.657,1.252
		c-1.94,0.605-3.845,1.244-5.663,1.896C53.923,221.233,53.809,221.252,53.697,221.252L53.697,221.252z M63.246,218.193
		c-0.435,0-0.835-0.286-0.961-0.725c-0.152-0.531,0.156-1.085,0.687-1.236c1.88-0.537,3.846-1.063,5.844-1.564
		c0.534-0.131,1.079,0.191,1.213,0.727c0.134,0.536-0.191,1.079-0.727,1.213c-1.977,0.495-3.921,1.016-5.78,1.547
		C63.429,218.181,63.336,218.193,63.246,218.193L63.246,218.193z M72.961,215.699c-0.455,0-0.867-0.313-0.974-0.775
		c-0.124-0.538,0.212-1.075,0.75-1.199c1.912-0.44,3.899-0.871,5.907-1.279c0.54-0.11,1.069,0.24,1.179,0.781
		c0.11,0.541-0.239,1.069-0.781,1.179c-1.991,0.405-3.961,0.832-5.856,1.269C73.111,215.69,73.036,215.699,72.961,215.699
		L72.961,215.699z M82.785,213.655c-0.472,0-0.892-0.335-0.982-0.815c-0.102-0.543,0.256-1.065,0.798-1.167
		c1.954-0.366,3.937-0.717,5.948-1.051c0.548-0.094,1.06,0.278,1.15,0.822c0.091,0.545-0.277,1.06-0.822,1.15
		c-1.997,0.332-3.966,0.68-5.907,1.044C82.908,213.649,82.846,213.655,82.785,213.655L82.785,213.655z M92.677,211.973
		c-0.485,0-0.911-0.354-0.987-0.848c-0.084-0.546,0.291-1.057,0.836-1.14c1.967-0.302,3.958-0.591,5.973-0.866
		c0.545-0.075,1.051,0.308,1.126,0.855c0.075,0.547-0.308,1.052-0.855,1.126c-2.004,0.274-3.985,0.561-5.941,0.861
		C92.779,211.969,92.728,211.973,92.677,211.973L92.677,211.973z M102.615,210.586c-0.496,0-0.927-0.369-0.991-0.875
		c-0.069-0.548,0.319-1.048,0.867-1.118c1.976-0.25,3.973-0.487,5.991-0.714c0.547-0.063,1.043,0.333,1.105,0.882
		c0.062,0.549-0.333,1.044-0.882,1.105c-2.009,0.226-3.997,0.463-5.963,0.711C102.7,210.583,102.657,210.586,102.615,210.586
		L102.615,210.586z M112.585,209.44c-0.505,0-0.939-0.382-0.993-0.896c-0.057-0.549,0.342-1.041,0.891-1.098
		c1.983-0.207,3.983-0.403,6.002-0.59c0.553-0.055,1.037,0.354,1.088,0.903c0.051,0.55-0.354,1.037-0.903,1.088
		c-2.011,0.187-4.004,0.382-5.979,0.588C112.655,209.438,112.62,209.44,112.585,209.44L112.585,209.44z M122.576,208.495
		c-0.514,0-0.951-0.393-0.995-0.915c-0.047-0.55,0.36-1.035,0.911-1.082c1.987-0.171,3.991-0.333,6.009-0.487
		c0.552-0.04,1.031,0.37,1.073,0.921s-0.37,1.031-0.921,1.073c-2.013,0.154-4.009,0.315-5.991,0.486
		C122.634,208.494,122.604,208.495,122.576,208.495L122.576,208.495z M132.581,207.713c-0.521,0-0.959-0.402-0.997-0.93
		c-0.039-0.551,0.376-1.029,0.927-1.068c1.991-0.141,3.996-0.275,6.013-0.402c0.561-0.036,1.026,0.384,1.061,0.935
		s-0.384,1.026-0.935,1.061c-2.013,0.127-4.013,0.261-5.998,0.401C132.628,207.712,132.604,207.713,132.581,207.713L132.581,207.713
		z M142.596,207.068c-0.525,0-0.966-0.41-0.998-0.942c-0.032-0.551,0.389-1.024,0.94-1.057c1.994-0.116,3.999-0.227,6.016-0.332
		c0.534-0.035,1.022,0.395,1.051,0.946s-0.395,1.022-0.946,1.051c-2.013,0.105-4.015,0.216-6.004,0.332
		C142.635,207.068,142.615,207.068,142.596,207.068L142.596,207.068z M152.617,206.535c-0.53,0-0.972-0.417-0.998-0.952
		c-0.026-0.552,0.399-1.021,0.951-1.047c1.996-0.097,4.002-0.188,6.019-0.275c0.544-0.015,1.019,0.404,1.042,0.956
		c0.024,0.552-0.404,1.018-0.956,1.042c-2.012,0.087-4.015,0.179-6.008,0.275C152.649,206.534,152.633,206.535,152.617,206.535
		L152.617,206.535z M162.643,206.091c-0.534,0-0.977-0.421-0.999-0.959c-0.022-0.552,0.407-1.018,0.958-1.04
		c1.998-0.081,4.005-0.158,6.019-0.23c0.542-0.018,1.016,0.412,1.036,0.963c0.02,0.552-0.412,1.016-0.963,1.036
		c-2.011,0.073-4.015,0.149-6.01,0.229C162.669,206.091,162.656,206.091,162.643,206.091L162.643,206.091z M172.671,205.721
		c-0.537,0-0.98-0.426-0.999-0.966c-0.019-0.552,0.414-1.015,0.965-1.034c2-0.068,4.006-0.132,6.02-0.194
		c0.54-0.033,1.013,0.417,1.03,0.969s-0.417,1.013-0.969,1.03c-2.012,0.062-4.016,0.126-6.013,0.194
		C172.694,205.721,172.682,205.721,172.671,205.721L172.671,205.721z M182.701,205.406c-0.539,0-0.983-0.429-0.999-0.971
		c-0.016-0.552,0.418-1.012,0.971-1.028c2-0.058,4.007-0.114,6.019-0.168c0.552-0.004,1.012,0.42,1.026,0.973
		c0.015,0.552-0.42,1.012-0.973,1.026c-2.01,0.054-4.015,0.11-6.015,0.168C182.72,205.406,182.71,205.406,182.701,205.406
		L182.701,205.406z M192.732,205.133c-0.541,0-0.985-0.431-0.999-0.975c-0.014-0.552,0.422-1.011,0.974-1.025l6.018-0.15
		c0.523-0.048,1.01,0.422,1.024,0.975c0.014,0.552-0.423,1.011-0.975,1.024l-6.016,0.15
		C192.75,205.133,192.741,205.133,192.732,205.133L192.732,205.133z M202.764,204.887c-0.542,0-0.986-0.432-0.999-0.977
		c-0.013-0.552,0.424-1.01,0.976-1.023l5.993-0.139c0.008,0,0.016,0,0.023,0c0.542,0,0.987,0.433,0.999,0.977
		c0.013,0.552-0.424,1.01-0.977,1.023l-5.992,0.139C202.78,204.887,202.771,204.887,202.764,204.887L202.764,204.887z
		 M212.761,204.656c-0.542,0-0.987-0.433-0.999-0.978c-0.013-0.552,0.425-1.01,0.977-1.022l6.011-0.137
		c0.532-0.037,1.01,0.424,1.023,0.977c0.012,0.552-0.425,1.01-0.977,1.022l-6.012,0.137
		C212.777,204.656,212.769,204.656,212.761,204.656L212.761,204.656z M222.79,204.427c-0.542,0-0.987-0.433-1-0.977
		c-0.013-0.552,0.425-1.01,0.977-1.022l6.028-0.142c0.536-0.029,1.01,0.423,1.023,0.976c0.014,0.552-0.423,1.01-0.976,1.023
		l-6.03,0.142C222.806,204.427,222.798,204.427,222.79,204.427L222.79,204.427z M232.85,204.188c-0.541,0-0.986-0.432-0.999-0.976
		c-0.014-0.552,0.423-1.011,0.975-1.024c2.005-0.049,4.01-0.1,6.015-0.153c0.561-0.038,1.012,0.421,1.026,0.973
		c0.015,0.552-0.421,1.012-0.973,1.026c-2.006,0.053-4.013,0.104-6.019,0.153C232.866,204.188,232.858,204.188,232.85,204.188
		L232.85,204.188z M242.881,203.927c-0.54,0-0.985-0.43-1-0.973c-0.015-0.552,0.42-1.012,0.972-1.027
		c2.005-0.055,4.011-0.112,6.015-0.171c0.555-0.021,1.013,0.418,1.029,0.97c0.016,0.552-0.419,1.013-0.971,1.029
		c-2.006,0.059-4.012,0.116-6.019,0.171C242.899,203.927,242.89,203.927,242.881,203.927L242.881,203.927z M252.91,203.633
		c-0.537,0-0.981-0.427-0.999-0.969c-0.017-0.552,0.417-1.014,0.969-1.031c2.006-0.063,4.01-0.129,6.013-0.197
		c0.559-0.012,1.016,0.414,1.033,0.965c0.02,0.552-0.413,1.015-0.965,1.034c-2.005,0.068-4.011,0.134-6.019,0.197
		C252.932,203.633,252.921,203.633,252.91,203.633L252.91,203.633z M262.938,203.293c-0.535,0-0.979-0.424-0.998-0.963
		c-0.021-0.552,0.411-1.016,0.963-1.036c2.006-0.073,4.01-0.149,6.01-0.23c0.547-0.031,1.017,0.406,1.039,0.958
		c0.022,0.552-0.406,1.018-0.959,1.04c-2.002,0.081-4.008,0.158-6.018,0.231C262.964,203.293,262.951,203.293,262.938,203.293
		L262.938,203.293z M272.965,202.896c-0.532,0-0.975-0.42-0.998-0.957c-0.023-0.552,0.404-1.018,0.956-1.042
		c2.006-0.086,4.009-0.177,6.008-0.272c0.536-0.015,1.021,0.399,1.047,0.952c0.026,0.551-0.399,1.02-0.951,1.046
		c-2.003,0.095-4.008,0.186-6.018,0.272C272.994,202.895,272.979,202.896,272.965,202.896L272.965,202.896z M282.987,202.425
		c-0.528,0-0.971-0.415-0.998-0.949c-0.027-0.551,0.396-1.021,0.948-1.049c2.007-0.103,4.009-0.21,6.004-0.323
		c0.575-0.024,1.024,0.392,1.055,0.942c0.031,0.551-0.391,1.023-0.941,1.055c-1.999,0.113-4.005,0.22-6.016,0.323
		C283.021,202.424,283.005,202.425,282.987,202.425L282.987,202.425z M293.006,201.868c-0.524,0-0.965-0.409-0.997-0.939
		c-0.033-0.551,0.387-1.025,0.938-1.059c2.007-0.122,4.007-0.249,6-0.382c0.55-0.039,1.027,0.379,1.064,0.931
		c0.036,0.551-0.38,1.027-0.932,1.064c-1.997,0.134-4.001,0.261-6.012,0.383C293.047,201.867,293.026,201.868,293.006,201.868
		L293.006,201.868z M303.018,201.208c-0.52,0-0.959-0.402-0.996-0.928c-0.04-0.551,0.375-1.03,0.926-1.069
		c2.006-0.144,4.005-0.294,5.993-0.452c0.564-0.041,1.032,0.368,1.076,0.918c0.043,0.551-0.367,1.032-0.918,1.076
		c-1.994,0.158-3.997,0.308-6.009,0.453C303.065,201.207,303.042,201.208,303.018,201.208L303.018,201.208z M313.021,200.428
		c-0.515,0-0.951-0.394-0.995-0.916c-0.047-0.55,0.361-1.034,0.912-1.081c2.005-0.169,4-0.347,5.985-0.533
		c0.538-0.055,1.037,0.353,1.089,0.902c0.051,0.55-0.354,1.038-0.903,1.089c-1.991,0.187-3.992,0.364-6.003,0.535
		C313.078,200.427,313.05,200.428,313.021,200.428L313.021,200.428z M323.013,199.508c-0.508,0-0.942-0.385-0.994-0.901
		c-0.055-0.549,0.347-1.04,0.896-1.094c2.003-0.2,3.994-0.408,5.976-0.627c0.555-0.058,1.043,0.336,1.104,0.885
		s-0.336,1.043-0.885,1.104c-1.987,0.219-3.986,0.428-5.995,0.629C323.079,199.507,323.046,199.508,323.013,199.508L323.013,199.508
		z M332.987,198.427c-0.5,0-0.933-0.375-0.992-0.883c-0.064-0.548,0.328-1.045,0.877-1.11c2-0.235,3.987-0.48,5.961-0.735
		c0.549-0.076,1.049,0.317,1.12,0.863c0.07,0.548-0.316,1.049-0.864,1.12c-1.981,0.256-3.977,0.502-5.984,0.738
		C333.065,198.425,333.026,198.427,332.987,198.427L332.987,198.427z M342.938,197.158c-0.492,0-0.921-0.363-0.989-0.863
		c-0.076-0.547,0.307-1.052,0.854-1.127c1.995-0.275,3.977-0.562,5.941-0.861c0.548-0.088,1.056,0.292,1.139,0.838
		c0.083,0.546-0.292,1.056-0.838,1.139c-1.975,0.3-3.964,0.588-5.969,0.865C343.029,197.155,342.983,197.158,342.938,197.158
		L342.938,197.158z M352.86,195.672c-0.482,0-0.906-0.349-0.986-0.84c-0.088-0.545,0.282-1.059,0.827-1.147
		c1.989-0.322,3.961-0.657,5.916-1.006c0.545-0.095,1.063,0.265,1.16,0.809c0.097,0.543-0.265,1.063-0.809,1.16
		c-1.965,0.351-3.948,0.688-5.947,1.012C352.967,195.668,352.913,195.672,352.86,195.672L352.86,195.672z M362.74,193.935
		c-0.471,0-0.891-0.333-0.981-0.813c-0.104-0.542,0.253-1.066,0.796-1.169c1.979-0.376,3.94-0.768,5.881-1.175
		c0.54-0.114,1.07,0.232,1.184,0.773c0.113,0.541-0.232,1.07-0.773,1.184c-1.952,0.41-3.925,0.803-5.918,1.183
		C362.865,193.929,362.802,193.935,362.74,193.935L362.74,193.935z M372.563,191.907c-0.458,0-0.871-0.316-0.975-0.782
		c-0.121-0.539,0.219-1.074,0.757-1.194c1.968-0.44,3.913-0.897,5.835-1.371c0.535-0.132,1.078,0.195,1.21,0.731
		c0.133,0.536-0.195,1.078-0.731,1.21c-1.936,0.478-3.895,0.938-5.876,1.382C372.708,191.899,372.635,191.907,372.563,191.907
		L372.563,191.907z M382.307,189.538c-0.442,0-0.848-0.296-0.966-0.745c-0.141-0.534,0.178-1.081,0.712-1.222
		c1.94-0.512,3.882-1.05,5.771-1.6c0.531-0.157,1.085,0.15,1.239,0.68c0.154,0.53-0.15,1.085-0.681,1.24
		c-1.904,0.555-3.862,1.098-5.819,1.614C382.478,189.527,382.392,189.538,382.307,189.538L382.307,189.538z M391.944,186.772
		c-0.426,0-0.821-0.274-0.954-0.703c-0.165-0.527,0.129-1.088,0.656-1.252c1.934-0.604,3.845-1.232,5.681-1.868
		c0.523-0.183,1.092,0.096,1.272,0.618c0.181,0.521-0.096,1.091-0.618,1.272c-1.854,0.643-3.785,1.277-5.739,1.887
		C392.144,186.757,392.043,186.772,391.944,186.772L391.944,186.772z M401.431,183.541c-0.406,0-0.788-0.25-0.938-0.652
		c-0.192-0.518,0.071-1.093,0.589-1.286c1.9-0.706,3.77-1.439,5.559-2.181c0.508-0.209,1.096,0.03,1.307,0.541
		c0.212,0.51-0.03,1.095-0.541,1.307c-1.812,0.751-3.705,1.494-5.627,2.208C401.664,183.521,401.547,183.541,401.431,183.541
		L401.431,183.541z M410.708,179.763c-0.383,0-0.748-0.221-0.914-0.593c-0.226-0.504,0.001-1.095,0.506-1.32
		c1.839-0.821,3.651-1.677,5.388-2.546c0.493-0.249,1.094-0.047,1.342,0.446c0.247,0.494,0.047,1.095-0.447,1.342
		c-1.762,0.882-3.602,1.751-5.468,2.584C410.982,179.735,410.844,179.763,410.708,179.763L410.708,179.763z M419.688,175.347
		c-0.355,0-0.699-0.189-0.88-0.523c-0.264-0.486-0.083-1.093,0.402-1.356c1.764-0.956,3.496-1.954,5.149-2.968
		c0.471-0.29,1.087-0.142,1.375,0.33c0.289,0.471,0.141,1.086-0.33,1.375c-1.684,1.032-3.447,2.049-5.241,3.021
		C420.013,175.309,419.85,175.347,419.688,175.347L419.688,175.347z M428.256,170.193c-0.323,0-0.64-0.156-0.832-0.444
		c-0.308-0.459-0.184-1.08,0.275-1.387c1.659-1.109,3.28-2.268,4.819-3.445c0.438-0.336,1.066-0.251,1.401,0.186
		c0.336,0.439,0.252,1.066-0.187,1.402c-1.572,1.204-3.229,2.388-4.923,3.521C428.64,170.139,428.447,170.193,428.256,170.193
		L428.256,170.193z M436.245,164.208c-0.284,0-0.567-0.121-0.765-0.356c-0.356-0.423-0.302-1.054,0.121-1.409
		c1.523-1.282,2.994-2.616,4.373-3.965c0.396-0.387,1.027-0.378,1.414,0.015c0.386,0.395,0.379,1.028-0.016,1.414
		c-1.414,1.384-2.923,2.752-4.484,4.067C436.701,164.131,436.473,164.208,436.245,164.208L436.245,164.208z M443.452,157.326
		c-0.242,0-0.484-0.087-0.676-0.263c-0.407-0.374-0.435-1.006-0.061-1.413c1.333-1.452,2.61-2.965,3.796-4.498
		c0.339-0.437,0.965-0.516,1.403-0.178c0.437,0.338,0.517,0.966,0.179,1.403c-1.221,1.576-2.534,3.133-3.905,4.625
		C443.991,157.217,443.722,157.326,443.452,157.326L443.452,157.326z M449.651,149.539c-0.194,0-0.391-0.057-0.563-0.174
		c-0.456-0.312-0.572-0.934-0.261-1.39c1.106-1.619,2.147-3.298,3.095-4.992c0.271-0.481,0.88-0.653,1.361-0.385
		c0.481,0.27,0.654,0.879,0.385,1.361c-0.977,1.746-2.05,3.477-3.19,5.145C450.284,149.386,449.971,149.539,449.651,149.539
		L449.651,149.539z M454.636,140.931c-0.146,0-0.294-0.032-0.434-0.099c-0.497-0.24-0.706-0.838-0.466-1.335
		c0.842-1.745,1.62-3.562,2.313-5.4c0.195-0.516,0.771-0.778,1.288-0.583c0.518,0.195,0.778,0.772,0.583,1.289
		c-0.714,1.893-1.516,3.765-2.384,5.563C455.365,140.723,455.008,140.931,454.636,140.931L454.636,140.931z M458.283,131.676
		c-0.099,0-0.198-0.015-0.298-0.046c-0.527-0.165-0.821-0.725-0.657-1.252c0.578-1.851,1.088-3.767,1.517-5.693
		c0.121-0.539,0.665-0.875,1.193-0.759c0.539,0.12,0.879,0.654,0.76,1.193c-0.441,1.981-0.966,3.951-1.56,5.854
		C459.104,131.402,458.709,131.676,458.283,131.676L458.283,131.676z M460.588,121.975c-0.055,0-0.11-0.004-0.167-0.014
		c-0.544-0.092-0.912-0.607-0.82-1.152c0.322-1.916,0.579-3.892,0.764-5.873c0.052-0.55,0.549-0.958,1.089-0.903
		c0.55,0.051,0.954,0.539,0.903,1.088c-0.19,2.03-0.453,4.055-0.783,6.019C461.491,121.629,461.067,121.975,460.588,121.975
		L460.588,121.975z M461.644,112.03c-0.017,0-0.032,0-0.049-0.001c-0.551-0.026-0.978-0.495-0.951-1.046
		c0.07-1.473,0.105-2.977,0.105-4.47c0-0.49-0.004-0.982-0.012-1.477c-0.009-0.552,0.433-1.007,0.984-1.016
		c0.578-0.041,1.007,0.432,1.016,0.984c0.008,0.505,0.012,1.008,0.012,1.508c0,1.525-0.036,3.061-0.107,4.565
		C462.616,111.613,462.174,112.03,461.644,112.03L461.644,112.03z M461.599,102.01c-0.527,0-0.969-0.413-0.998-0.947
		c-0.047-0.886-0.106-1.78-0.176-2.683c-0.042-0.551,0.369-1.032,0.92-1.074c0.568-0.039,1.031,0.37,1.074,0.92
		c0.071,0.918,0.131,1.829,0.18,2.73c0.029,0.551-0.395,1.022-0.945,1.052C461.635,102.009,461.616,102.01,461.599,102.01
		L461.599,102.01z"/>
</g>
<g>
	<path fill="#FDDAB4" d="M458.413,84.284c-0.392,0-0.764-0.232-0.924-0.617c-0.725-1.744-1.617-3.488-2.653-5.183
		c-0.288-0.471-0.14-1.087,0.332-1.375c0.472-0.287,1.087-0.14,1.375,0.332c1.089,1.782,2.029,3.619,2.794,5.458
		c0.212,0.51-0.03,1.095-0.54,1.307C458.672,84.259,458.541,84.284,458.413,84.284L458.413,84.284z M453.451,75.652
		c-0.306,0-0.607-0.14-0.804-0.404c-1.124-1.514-2.396-3.028-3.778-4.5c-0.379-0.402-0.358-1.035,0.044-1.414
		c0.403-0.377,1.036-0.358,1.413,0.044c1.436,1.528,2.757,3.102,3.927,4.677c0.329,0.443,0.237,1.07-0.206,1.399
		C453.867,75.588,453.658,75.652,453.451,75.652L453.451,75.652z M446.762,68.238c-0.245,0-0.49-0.089-0.683-0.27
		c-1.387-1.296-2.897-2.593-4.492-3.855c-0.433-0.343-0.506-0.972-0.163-1.405c0.343-0.432,0.97-0.507,1.405-0.164
		c1.637,1.296,3.189,2.629,4.615,3.962c0.403,0.377,0.425,1.01,0.048,1.414C447.295,68.132,447.028,68.238,446.762,68.238
		L446.762,68.238z M439.007,61.918c-0.202,0-0.406-0.061-0.582-0.188c-1.557-1.118-3.217-2.235-4.935-3.319
		c-0.467-0.295-0.606-0.913-0.312-1.38c0.296-0.466,0.912-0.605,1.38-0.312c1.751,1.106,3.444,2.245,5.032,3.387
		c0.449,0.322,0.552,0.947,0.229,1.396C439.625,61.774,439.318,61.918,439.007,61.918L439.007,61.918z M430.599,56.485
		c-0.171,0-0.345-0.044-0.504-0.137c-1.666-0.974-3.422-1.946-5.216-2.89c-0.489-0.257-0.678-0.862-0.42-1.351
		c0.256-0.488,0.859-0.678,1.35-0.42c1.821,0.958,3.604,1.944,5.296,2.934c0.477,0.279,0.637,0.891,0.358,1.368
		C431.277,56.308,430.942,56.485,430.599,56.485L430.599,56.485z M421.77,51.755c-0.148,0-0.299-0.033-0.441-0.103
		c-1.731-0.854-3.551-1.709-5.405-2.544c-0.504-0.227-0.729-0.819-0.502-1.323c0.227-0.503,0.817-0.728,1.322-0.501
		c1.877,0.845,3.717,1.711,5.47,2.575c0.495,0.244,0.699,0.844,0.455,1.339C422.493,51.551,422.139,51.755,421.77,51.755
		L421.77,51.755z M412.66,47.59c-0.131,0-0.264-0.026-0.392-0.08c-1.786-0.76-3.649-1.521-5.537-2.263
		c-0.515-0.202-0.768-0.782-0.565-1.296c0.201-0.515,0.782-0.769,1.296-0.565c1.905,0.749,3.786,1.517,5.59,2.284
		c0.508,0.216,0.745,0.804,0.528,1.312C413.419,47.361,413.049,47.59,412.66,47.59L412.66,47.59z M403.352,43.883
		c-0.116,0-0.234-0.021-0.35-0.063c-1.821-0.68-3.718-1.363-5.634-2.029c-0.521-0.181-0.798-0.751-0.616-1.273
		s0.754-0.798,1.272-0.616c1.932,0.671,3.841,1.359,5.677,2.044c0.518,0.193,0.78,0.769,0.587,1.287
		C404.139,43.634,403.757,43.883,403.352,43.883L403.352,43.883z M393.899,40.558c-0.104,0-0.21-0.017-0.314-0.051
		c-1.874-0.622-3.776-1.232-5.706-1.831c-0.527-0.164-0.822-0.724-0.658-1.251c0.163-0.527,0.724-0.823,1.252-0.659
		c1.941,0.603,3.855,1.217,5.741,1.843c0.524,0.174,0.809,0.74,0.635,1.264C394.709,40.292,394.318,40.558,393.899,40.558
		L393.899,40.558z M384.34,37.555c-0.094,0-0.19-0.014-0.285-0.042c-1.896-0.564-3.816-1.118-5.76-1.661
		c-0.531-0.148-0.842-0.7-0.693-1.232c0.148-0.532,0.703-0.842,1.232-0.694c1.953,0.546,3.885,1.103,5.791,1.67
		c0.529,0.158,0.831,0.714,0.673,1.244C385.169,37.274,384.771,37.555,384.34,37.555L384.34,37.555z M374.699,34.83
		c-0.086,0-0.174-0.011-0.261-0.035c-1.914-0.515-3.849-1.019-5.802-1.514c-0.536-0.135-0.859-0.679-0.725-1.215
		c0.137-0.535,0.682-0.859,1.215-0.724c1.963,0.497,3.907,1.004,5.831,1.521c0.533,0.144,0.85,0.692,0.706,1.225
		C375.544,34.535,375.14,34.83,374.699,34.83L374.699,34.83z M364.991,32.345c-0.078,0-0.158-0.009-0.238-0.028
		c-1.928-0.47-3.874-0.931-5.836-1.383c-0.538-0.124-0.874-0.661-0.75-1.199c0.124-0.538,0.663-0.871,1.199-0.75
		c1.97,0.454,3.924,0.917,5.861,1.389c0.536,0.131,0.865,0.672,0.734,1.208C365.851,32.039,365.441,32.345,364.991,32.345
		L364.991,32.345z M355.231,30.074c-0.072,0-0.145-0.007-0.218-0.024c-1.94-0.431-3.896-0.853-5.864-1.267
		c-0.54-0.114-0.886-0.644-0.772-1.184c0.113-0.541,0.646-0.887,1.185-0.773c1.975,0.415,3.938,0.839,5.886,1.272
		c0.539,0.12,0.879,0.654,0.76,1.193C356.104,29.757,355.689,30.074,355.231,30.074L355.231,30.074z M345.43,27.993
		c-0.065,0-0.133-0.006-0.2-0.02c-1.949-0.396-3.912-0.783-5.886-1.163c-0.543-0.104-0.897-0.628-0.794-1.171
		c0.104-0.542,0.628-0.898,1.171-0.793c1.981,0.381,3.95,0.77,5.907,1.167c0.541,0.11,0.891,0.638,0.781,1.179
		C346.313,27.666,345.896,27.993,345.43,27.993L345.43,27.993z M335.593,26.084c-0.061,0-0.122-0.005-0.184-0.017
		c-1.958-0.364-3.927-0.72-5.906-1.068c-0.544-0.096-0.907-0.614-0.811-1.158c0.095-0.544,0.612-0.908,1.158-0.812
		c1.985,0.35,3.96,0.707,5.924,1.071c0.543,0.101,0.901,0.623,0.801,1.166C336.485,25.748,336.065,26.084,335.593,26.084
		L335.593,26.084z M325.728,24.33c-0.056,0-0.112-0.004-0.169-0.014c-1.965-0.334-3.938-0.662-5.921-0.981
		c-0.545-0.088-0.916-0.601-0.828-1.146c0.088-0.545,0.599-0.917,1.146-0.828c1.988,0.32,3.968,0.648,5.938,0.984
		c0.544,0.093,0.91,0.609,0.817,1.154C326.629,23.985,326.206,24.33,325.728,24.33L325.728,24.33z M315.838,22.719
		c-0.051,0-0.103-0.004-0.155-0.012c-1.972-0.308-3.95-0.608-5.935-0.901c-0.546-0.081-0.924-0.589-0.843-1.136
		s0.591-0.921,1.136-0.843c1.988,0.294,3.973,0.596,5.95,0.903c0.545,0.085,0.919,0.597,0.834,1.142
		C316.748,22.367,316.322,22.719,315.838,22.719L315.838,22.719z M305.927,21.241c-0.047,0-0.095-0.003-0.143-0.01
		c-1.97-0.281-3.946-0.556-5.927-0.823c-0.548-0.074-0.932-0.578-0.857-1.125c0.074-0.547,0.574-0.929,1.125-0.857
		c1.986,0.269,3.967,0.544,5.942,0.826c0.547,0.078,0.927,0.584,0.849,1.131C306.845,20.881,306.417,21.241,305.927,21.241
		L305.927,21.241z M296.029,19.889c-0.043,0-0.086-0.002-0.13-0.008c-1.979-0.258-3.961-0.51-5.946-0.756
		c-0.548-0.068-0.938-0.567-0.869-1.115c0.067-0.548,0.563-0.94,1.115-0.869c1.989,0.246,3.976,0.499,5.958,0.757
		c0.548,0.071,0.935,0.573,0.862,1.121C296.954,19.522,296.524,19.889,296.029,19.889L296.029,19.889z M286.103,18.65
		c-0.039,0-0.079-0.002-0.119-0.007c-1.985-0.237-3.973-0.467-5.962-0.691c-0.549-0.062-0.943-0.557-0.882-1.105
		s0.551-0.951,1.106-0.882c1.993,0.224,3.984,0.455,5.974,0.692c0.549,0.065,0.94,0.563,0.875,1.111
		C287.034,18.277,286.603,18.65,286.103,18.65L286.103,18.65z M276.147,17.519c-0.036,0-0.072-0.002-0.108-0.006
		c-1.992-0.215-3.985-0.425-5.978-0.629c-0.55-0.056-0.949-0.547-0.894-1.096c0.057-0.55,0.556-0.958,1.097-0.893
		c1.996,0.204,3.993,0.414,5.989,0.63c0.549,0.06,0.946,0.553,0.887,1.102C277.085,17.139,276.651,17.519,276.147,17.519
		L276.147,17.519z M266.166,16.489c-0.032,0-0.065-0.001-0.099-0.005c-1.998-0.196-3.996-0.386-5.992-0.57
		c-0.55-0.05-0.955-0.538-0.904-1.087c0.05-0.55,0.527-0.958,1.088-0.904c2,0.184,4.002,0.374,6.004,0.571
		c0.55,0.054,0.951,0.543,0.897,1.093C267.109,16.103,266.675,16.489,266.166,16.489L266.166,16.489z M256.16,15.557
		c-0.029,0-0.059-0.001-0.089-0.004c-1.997-0.176-3.992-0.346-5.983-0.511c-0.551-0.045-0.96-0.528-0.915-1.079
		c0.046-0.55,0.54-0.96,1.079-0.915c1.995,0.165,3.994,0.335,5.995,0.512c0.55,0.048,0.957,0.534,0.908,1.084
		C257.109,15.165,256.673,15.557,256.16,15.557L256.16,15.557z M246.175,14.724c-0.026,0-0.053-0.001-0.079-0.003
		c-2.004-0.158-4.003-0.31-5.998-0.456c-0.551-0.041-0.964-0.52-0.924-1.071c0.04-0.551,0.513-0.956,1.07-0.924
		c1.998,0.147,4.002,0.299,6.008,0.457c0.551,0.043,0.962,0.525,0.919,1.076C247.13,14.326,246.691,14.724,246.175,14.724
		L246.175,14.724z M236.173,13.982c-0.023,0-0.046-0.001-0.07-0.002l-0.634-0.044c-0.551-0.038-0.966-0.516-0.928-1.067
		c0.038-0.551,0.523-0.969,1.067-0.928l0.634,0.044c0.551,0.038,0.966,0.516,0.928,1.067
		C237.133,13.579,236.694,13.982,236.173,13.982L236.173,13.982z"/>
</g>
<g>
	<path fill="#FDDAB4" d="M468.377,412.056c-0.023,0-0.048-0.001-0.071-0.003c-0.552-0.039-0.966-0.517-0.927-1.067
		c0.088-1.251,0.137-2.525,0.145-3.789c0.009-1.287-0.003-2.55-0.034-3.791c-0.014-0.553,0.423-1.012,0.975-1.025
		c0.009,0,0.018,0,0.025,0c0.541,0,0.986,0.432,1,0.975c0.031,1.263,0.043,2.547,0.034,3.854c-0.008,1.306-0.059,2.624-0.15,3.917
		C469.336,411.654,468.897,412.056,468.377,412.056L468.377,412.056z"/>
</g>
<g>
	<path fill="#FFE5CA" d="M331.042,33.016c-0.323,0-0.641-0.157-0.834-0.446c-0.306-0.459-0.181-1.081,0.279-1.386l8.173-5.437
		l-4.813-9.324c-0.253-0.491-0.061-1.094,0.43-1.347c0.492-0.254,1.094-0.061,1.348,0.43l5.634,10.915l-9.663,6.428
		C331.425,32.962,331.232,33.016,331.042,33.016L331.042,33.016z"/>
</g>
<g>
	<path fill="#FFE5CA" d="M318.872,208.584c-0.234,0-0.47-0.082-0.659-0.249l-9.232-8.1l6.642-9.515
		c0.316-0.453,0.941-0.564,1.393-0.248c0.453,0.316,0.563,0.939,0.248,1.392l-5.618,8.047l7.887,6.92
		c0.415,0.364,0.457,0.996,0.093,1.411C319.426,208.469,319.149,208.584,318.872,208.584L318.872,208.584z"/>
</g>
<g>
	<path fill="#FFE5CA" d="M91.94,383.851c-0.273,0-0.545-0.111-0.743-0.33c-0.37-0.409-0.338-1.042,0.072-1.412l7.285-6.578
		l-6.128-8.516c-0.323-0.448-0.221-1.073,0.228-1.396c0.449-0.322,1.073-0.22,1.396,0.228l7.174,9.969l-8.613,7.777
		C92.418,383.766,92.179,383.851,91.94,383.851L91.94,383.851z"/>
</g>
</svg>
