<?xml version="1.0" encoding="utf-8"?>
<!-- Generator: Adobe Illustrator 25.4.3, SVG Export Plug-In . SVG Version: 6.00 Build 0)  -->
<svg version="1.1" id="Layer_1" xmlns="http://www.w3.org/2000/svg" xmlns:xlink="http://www.w3.org/1999/xlink" x="0px" y="0px"
	 viewBox="0 0 478.5 514.5" style="enable-background:new 0 0 478.5 514.5;" xml:space="preserve">
<style type="text/css">
	.st0{fill:#FDDAB4;}
	.st1{fill:#FFE5CA;}
</style>
<g>
	<path class="st0" d="M205.9,506c-0.6,0-1-0.4-1-1c0-0.6,0.4-1,1-1c1.9,0,3.9,0,6,0c0,0,0,0,0,0c0.5,0,1,0.4,1,1c0,0.6-0.4,1-1,1
		C209.8,506,207.8,506,205.9,506L205.9,506z M201.8,506C201.8,506,201.8,506,201.8,506c-2.2,0-4.3,0-6-0.1c-0.6,0-1-0.5-1-1
		c0-0.5,0.5-1,1-1c0,0,0,0,0,0c1.8,0,3.8,0,6,0.1c0.6,0,1,0.5,1,1C202.8,505.6,202.4,506,201.8,506L201.8,506z M215.9,505.9
		c-0.5,0-1-0.4-1-1c0-0.6,0.4-1,1-1c1.9,0,3.9-0.1,6-0.1c0,0,0,0,0,0c0.5,0,1,0.4,1,1c0,0.6-0.4,1-1,1
		C219.9,505.9,217.9,505.9,215.9,505.9C215.9,505.9,215.9,505.9,215.9,505.9L215.9,505.9z M226,505.8c-0.5,0-1-0.4-1-1
		c0-0.6,0.4-1,1-1c2,0,4-0.1,6-0.2c0.6,0,1,0.4,1,1s-0.4,1-1,1C230,505.7,228,505.7,226,505.8C226,505.8,226,505.8,226,505.8
		L226,505.8z M236.1,505.5c-0.5,0-1-0.4-1-1c0-0.6,0.4-1,1-1c2-0.1,4-0.1,6-0.2c0.6,0,1,0.4,1,1c0,0.6-0.4,1-1,1
		C240.1,505.3,238.1,505.4,236.1,505.5C236.1,505.5,236.1,505.5,236.1,505.5L236.1,505.5z M246.1,505.1c-0.5,0-1-0.4-1-1
		c0-0.6,0.4-1,1-1c2-0.1,4-0.2,6-0.3c0.5,0,1,0.4,1.1,0.9c0,0.6-0.4,1-0.9,1C250.2,504.9,248.1,505,246.1,505.1
		C246.1,505.1,246.1,505.1,246.1,505.1L246.1,505.1z M256.2,504.6c-0.5,0-1-0.4-1-0.9c0-0.6,0.4-1,0.9-1.1c2-0.1,4-0.2,6-0.4
		c0.5,0,1,0.4,1.1,0.9c0,0.6-0.4,1-0.9,1.1C260.2,504.3,258.2,504.5,256.2,504.6C256.2,504.6,256.2,504.6,256.2,504.6L256.2,504.6z
		 M266.2,504c-0.5,0-1-0.4-1-0.9c0-0.6,0.4-1,0.9-1.1c2-0.1,4-0.3,6-0.4c0.5,0,1,0.4,1.1,0.9c0,0.6-0.4,1-0.9,1.1
		C270.3,503.7,268.3,503.8,266.2,504C266.3,504,266.2,504,266.2,504L266.2,504z M276.2,503.2c-0.5,0-1-0.4-1-0.9
		c0-0.6,0.4-1,0.9-1.1c2-0.2,4-0.3,6-0.5c0.5-0.1,1,0.4,1.1,0.9s-0.4,1-0.9,1.1C280.3,502.9,278.3,503.1,276.2,503.2
		C276.3,503.2,276.3,503.2,276.2,503.2L276.2,503.2z M286.3,502.4c-0.5,0-0.9-0.4-1-0.9c-0.1-0.5,0.4-1,0.9-1.1c2-0.2,4-0.4,6-0.6
		c0.5,0,1,0.3,1.1,0.9s-0.3,1-0.9,1.1C290.4,502,288.3,502.2,286.3,502.4C286.3,502.4,286.3,502.4,286.3,502.4L286.3,502.4z
		 M296.3,501.4c-0.5,0-0.9-0.4-1-0.9c-0.1-0.5,0.3-1,0.9-1.1c2-0.2,4-0.4,6-0.7c0.6-0.1,1,0.3,1.1,0.9c0.1,0.5-0.3,1-0.9,1.1
		c-2,0.2-4,0.5-6,0.7C296.3,501.4,296.3,501.4,296.3,501.4L296.3,501.4z M306.3,500.2c-0.5,0-0.9-0.4-1-0.9c-0.1-0.5,0.3-1,0.9-1.1
		c2-0.2,4-0.5,6-0.7c0.5-0.1,1,0.3,1.1,0.9c0.1,0.5-0.3,1-0.9,1.1c-2,0.3-4,0.5-6,0.8C306.3,500.2,306.3,500.2,306.3,500.2
		L306.3,500.2z M316.2,499c-0.5,0-0.9-0.4-1-0.9c-0.1-0.5,0.3-1.1,0.9-1.1c2-0.3,4-0.5,5.9-0.8c0.5-0.1,1.1,0.3,1.1,0.8
		c0.1,0.5-0.3,1.1-0.8,1.1c-2,0.3-4,0.6-6,0.8C316.3,498.9,316.3,499,316.2,499L316.2,499z M326.2,497.5c-0.5,0-0.9-0.4-1-0.8
		c-0.1-0.5,0.3-1.1,0.8-1.1c2-0.3,4-0.6,5.9-0.9c0.5-0.1,1.1,0.3,1.1,0.8c0.1,0.5-0.3,1.1-0.8,1.1c-2,0.3-4,0.6-6,0.9
		C326.3,497.5,326.2,497.5,326.2,497.5L326.2,497.5z M336.1,495.9c-0.5,0-0.9-0.3-1-0.8c-0.1-0.5,0.3-1.1,0.8-1.2
		c2-0.3,4-0.7,5.9-1.1c0.6-0.1,1.1,0.3,1.2,0.8c0.1,0.5-0.3,1.1-0.8,1.2c-2,0.4-4,0.7-6,1.1C336.2,495.9,336.2,495.9,336.1,495.9
		L336.1,495.9z M346,494.1c-0.5,0-0.9-0.3-1-0.8c-0.1-0.5,0.3-1.1,0.8-1.2c2-0.4,3.9-0.8,5.9-1.2c0.5-0.1,1.1,0.2,1.2,0.8
		c0.1,0.5-0.2,1.1-0.8,1.2c-2,0.4-3.9,0.8-5.9,1.2C346.2,494.1,346.1,494.1,346,494.1L346,494.1z M355.9,492.1c-0.5,0-0.9-0.3-1-0.8
		c-0.1-0.5,0.2-1.1,0.8-1.2c2-0.4,3.9-0.9,5.9-1.3c0.5-0.1,1.1,0.2,1.2,0.8c0.1,0.5-0.2,1.1-0.8,1.2c-2,0.5-3.9,0.9-5.9,1.3
		C356,492.1,356,492.1,355.9,492.1L355.9,492.1z M365.7,489.8c-0.5,0-0.9-0.3-1-0.8c-0.1-0.5,0.2-1.1,0.7-1.2c2-0.5,3.9-1,5.8-1.5
		c0.5-0.1,1.1,0.2,1.2,0.7c0.1,0.5-0.2,1.1-0.7,1.2c-1.9,0.5-3.9,1-5.9,1.5C365.9,489.8,365.8,489.8,365.7,489.8L365.7,489.8z
		 M375.4,487.4c-0.4,0-0.8-0.3-1-0.7c-0.1-0.5,0.2-1.1,0.7-1.2c1.9-0.5,3.9-1.1,5.8-1.6c0.5-0.2,1.1,0.1,1.2,0.7
		c0.2,0.5-0.1,1.1-0.7,1.2c-1.9,0.6-3.9,1.1-5.8,1.6C375.6,487.3,375.5,487.4,375.4,487.4L375.4,487.4z M385.1,484.6
		c-0.4,0-0.8-0.3-1-0.7c-0.2-0.5,0.1-1.1,0.7-1.2c1.9-0.6,3.8-1.2,5.7-1.8c0.5-0.2,1.1,0.1,1.3,0.6c0.2,0.5-0.1,1.1-0.6,1.3
		c-1.9,0.6-3.8,1.2-5.8,1.8C385.3,484.6,385.2,484.6,385.1,484.6L385.1,484.6z M394.7,481.5c-0.4,0-0.8-0.3-0.9-0.7
		c-0.2-0.5,0.1-1.1,0.6-1.3c1.9-0.7,3.8-1.3,5.7-2c0.5-0.2,1.1,0.1,1.3,0.6c0.2,0.5-0.1,1.1-0.6,1.3c-1.9,0.7-3.8,1.4-5.7,2
		C394.9,481.5,394.8,481.5,394.7,481.5L394.7,481.5z M404.1,478c-0.4,0-0.8-0.2-0.9-0.6c-0.2-0.5,0.1-1.1,0.6-1.3
		c1.9-0.7,3.7-1.5,5.6-2.3c0.5-0.2,1.1,0,1.3,0.5c0.2,0.5,0,1.1-0.5,1.3c-1.8,0.8-3.7,1.5-5.6,2.3C404.4,478,404.2,478,404.1,478
		L404.1,478z M413.4,474.1c-0.4,0-0.7-0.2-0.9-0.6c-0.2-0.5,0-1.1,0.5-1.3c1.9-0.8,3.7-1.7,5.4-2.5c0.5-0.2,1.1,0,1.3,0.5
		s0,1.1-0.5,1.3c-1.8,0.9-3.6,1.7-5.5,2.6C413.7,474.1,413.5,474.1,413.4,474.1L413.4,474.1z M422.4,469.8c-0.4,0-0.7-0.2-0.9-0.5
		c-0.3-0.5-0.1-1.1,0.4-1.3c1.8-0.9,3.6-1.9,5.3-2.9c0.5-0.3,1.1-0.1,1.4,0.4c0.3,0.5,0.1,1.1-0.4,1.4c-1.7,1-3.5,2-5.3,2.9
		C422.7,469.7,422.6,469.8,422.4,469.8L422.4,469.8z M431.2,464.8c-0.3,0-0.7-0.2-0.9-0.5c-0.3-0.5-0.1-1.1,0.3-1.4
		c1.7-1.1,3.4-2.1,5-3.2c0.5-0.3,1.1-0.2,1.4,0.3c0.3,0.5,0.2,1.1-0.3,1.4c-1.6,1.1-3.3,2.2-5.1,3.3
		C431.5,464.8,431.4,464.8,431.2,464.8L431.2,464.8z M439.5,459.2c-0.3,0-0.6-0.1-0.8-0.4c-0.3-0.4-0.2-1.1,0.2-1.4
		c1.6-1.2,3.2-2.4,4.7-3.7c0.4-0.4,1.1-0.3,1.4,0.1c0.4,0.4,0.3,1.1-0.1,1.4c-1.5,1.3-3.1,2.5-4.8,3.7
		C439.9,459.2,439.7,459.2,439.5,459.2L439.5,459.2z M447.3,452.9c-0.3,0-0.5-0.1-0.7-0.3c-0.4-0.4-0.3-1,0.1-1.4
		c1.5-1.4,2.9-2.8,4.2-4.2c0.4-0.4,1-0.4,1.4,0c0.4,0.4,0.4,1,0,1.4c-1.4,1.4-2.8,2.9-4.3,4.3C447.8,452.8,447.5,452.9,447.3,452.9
		L447.3,452.9z M454.3,445.7c-0.2,0-0.5-0.1-0.6-0.2c-0.4-0.4-0.5-1-0.1-1.4c1.3-1.5,2.5-3.1,3.6-4.7c0.3-0.5,0.9-0.6,1.4-0.2
		c0.5,0.3,0.6,0.9,0.2,1.4c-1.1,1.6-2.4,3.2-3.7,4.8C454.8,445.6,454.5,445.7,454.3,445.7L454.3,445.7z M460.1,437.6
		c-0.2,0-0.4,0-0.5-0.1c-0.5-0.3-0.6-0.9-0.3-1.4c1-1.7,2-3.4,2.8-5.2c0.2-0.5,0.8-0.7,1.3-0.5c0.5,0.2,0.7,0.8,0.5,1.3
		c-0.9,1.8-1.8,3.6-2.9,5.3C460.8,437.4,460.5,437.6,460.1,437.6L460.1,437.6z M464.6,428.7c-0.1,0-0.2,0-0.4-0.1
		c-0.5-0.2-0.8-0.8-0.6-1.3c0.7-1.8,1.4-3.7,1.9-5.6c0.1-0.5,0.7-0.8,1.2-0.7c0.5,0.1,0.8,0.7,0.7,1.2c-0.5,1.9-1.2,3.9-1.9,5.8
		C465.4,428.4,465,428.7,464.6,428.7L464.6,428.7z M467.4,419.1c-0.1,0-0.1,0-0.2,0c-0.5-0.1-0.9-0.6-0.8-1.2
		c0.3-1.4,0.5-2.9,0.7-4.4c0.1-0.5,0.6-0.9,1.1-0.9c0.5,0.1,0.9,0.6,0.9,1.1c-0.2,1.5-0.4,3.1-0.7,4.6
		C468.3,418.8,467.9,419.1,467.4,419.1L467.4,419.1z"/>
</g>
<g>
	<path class="st0" d="M468.2,399.3c-0.5,0-1-0.4-1-0.9c-0.1-2-0.3-4-0.6-5.9c-0.1-0.5,0.3-1,0.9-1.1c0.5-0.1,1,0.3,1.1,0.9
		c0.3,1.9,0.5,4,0.6,6C469.3,398.8,468.9,399.3,468.2,399.3C468.3,399.3,468.3,399.3,468.2,399.3L468.2,399.3z M467,389.4
		c-0.5,0-0.9-0.3-1-0.8c-0.4-2-0.8-3.9-1.3-5.8c-0.1-0.5,0.2-1.1,0.7-1.2c0.5-0.1,1.1,0.2,1.2,0.7c0.5,1.9,0.9,3.9,1.3,5.9
		c0.1,0.5-0.3,1.1-0.8,1.2C467.2,389.4,467.1,389.4,467,389.4L467,389.4z M464.7,379.8c-0.4,0-0.8-0.3-1-0.7
		c-0.6-1.9-1.3-3.7-2.1-5.5c-0.2-0.5,0-1.1,0.5-1.3c0.5-0.2,1.1,0,1.3,0.5c0.8,1.8,1.5,3.7,2.1,5.7c0.2,0.5-0.1,1.1-0.6,1.3
		C464.9,379.8,464.8,379.8,464.7,379.8L464.7,379.8z M117.1,377C117.1,377,117.1,377,117.1,377c-2,0-4,0-6-0.1c-0.6,0-1-0.5-1-1
		s0.4-1,1-1c2,0.1,4,0.1,5.9,0.1c0.6,0,1,0.5,1,1C118.1,376.5,117.6,377,117.1,377L117.1,377z M121,377c-0.5,0-1-0.4-1-1
		c0-0.6,0.4-1,1-1c2,0,4-0.1,6-0.1c0.5,0,1,0.4,1,1c0,0.6-0.4,1-1,1C125,376.9,123,376.9,121,377C121,377,121,377,121,377L121,377z
		 M107.1,376.7C107.1,376.7,107.1,376.7,107.1,376.7c-2.1-0.1-4.1-0.2-6-0.4c-0.6,0-1-0.5-0.9-1.1c0-0.6,0.5-1,1.1-0.9
		c1.9,0.1,3.9,0.3,5.9,0.4c0.6,0,1,0.5,1,1C108.1,376.3,107.7,376.7,107.1,376.7L107.1,376.7z M131,376.7c-0.5,0-1-0.4-1-1
		c0-0.6,0.4-1,1-1c2-0.1,4-0.2,5.9-0.3c0.6,0,1,0.4,1.1,0.9c0,0.6-0.4,1-0.9,1.1C135,376.5,133,376.6,131,376.7
		C131,376.7,131,376.7,131,376.7L131,376.7z M140.9,376.1c-0.5,0-1-0.4-1-0.9c0-0.6,0.4-1,0.9-1.1c2-0.1,3.9-0.3,5.9-0.5
		c0.6-0.1,1,0.4,1.1,0.9c0,0.5-0.4,1-0.9,1.1C145,375.8,143,376,140.9,376.1C141,376.1,140.9,376.1,140.9,376.1L140.9,376.1z
		 M97.2,376C97.2,376,97.1,376,97.2,376c-2.1-0.2-4.1-0.4-6.1-0.7c-0.5-0.1-0.9-0.6-0.9-1.1c0.1-0.5,0.6-0.9,1.1-0.9
		c1.9,0.2,3.9,0.5,5.9,0.7c0.6,0.1,1,0.5,0.9,1.1C98.2,375.7,97.7,376,97.2,376L97.2,376z M150.8,375.3c-0.5,0-0.9-0.4-1-0.9
		c-0.1-0.5,0.3-1,0.9-1.1c2-0.2,3.9-0.4,5.9-0.6c0.5-0.1,1,0.3,1.1,0.9c0.1,0.5-0.3,1-0.9,1.1C154.9,374.9,152.9,375.1,150.8,375.3
		C150.9,375.3,150.9,375.3,150.8,375.3L150.8,375.3z M87.3,374.8c-0.1,0-0.1,0-0.2,0c-2-0.3-4-0.7-5.9-1c-0.5-0.1-0.9-0.6-0.8-1.2
		c0.1-0.5,0.6-0.9,1.2-0.8c1.9,0.4,3.8,0.7,5.8,1c0.5,0.1,0.9,0.6,0.8,1.1C88.2,374.5,87.8,374.8,87.3,374.8L87.3,374.8z
		 M160.7,374.2c-0.5,0-0.9-0.4-1-0.9c-0.1-0.5,0.3-1,0.9-1.1c2-0.2,3.9-0.5,5.9-0.7c0.5-0.1,1,0.3,1.1,0.9s-0.3,1-0.9,1.1
		c-2,0.3-4,0.5-5.9,0.7C160.8,374.2,160.8,374.2,160.7,374.2L160.7,374.2z M170.6,372.9c-0.5,0-0.9-0.4-1-0.9
		c-0.1-0.5,0.3-1.1,0.9-1.1c2-0.3,3.9-0.5,5.9-0.8c0.6-0.1,1.1,0.3,1.1,0.8c0.1,0.5-0.3,1.1-0.8,1.1c-2,0.3-4,0.6-5.9,0.8
		C170.7,372.9,170.6,372.9,170.6,372.9L170.6,372.9z M77.6,372.9c-0.1,0-0.2,0-0.2,0c-2-0.5-3.9-1-5.8-1.5c-0.5-0.1-0.8-0.7-0.7-1.2
		s0.7-0.8,1.2-0.7c1.9,0.5,3.8,1,5.7,1.5c0.5,0.1,0.9,0.7,0.8,1.2C78.4,372.6,78,372.9,77.6,372.9L77.6,372.9z M180.4,371.5
		c-0.5,0-0.9-0.4-1-0.9c-0.1-0.5,0.3-1.1,0.8-1.1c2-0.3,3.9-0.6,5.9-0.9c0.5-0.1,1.1,0.3,1.1,0.8s-0.3,1.1-0.8,1.1
		c-2,0.3-3.9,0.6-5.9,0.9C180.5,371.5,180.5,371.5,180.4,371.5L180.4,371.5z M460.9,370.6c-0.4,0-0.7-0.2-0.9-0.5
		c-0.9-1.7-1.9-3.4-3-5c-0.3-0.5-0.2-1.1,0.3-1.4c0.5-0.3,1.1-0.2,1.4,0.3c1.1,1.7,2.2,3.4,3.1,5.2c0.3,0.5,0.1,1.1-0.4,1.3
		C461.2,370.6,461,370.6,460.9,370.6L460.9,370.6z M68,370.3c-0.1,0-0.2,0-0.3,0c-1.9-0.6-3.9-1.3-5.7-2c-0.5-0.2-0.8-0.8-0.6-1.3
		c0.2-0.5,0.8-0.8,1.3-0.6c1.8,0.7,3.7,1.4,5.6,2c0.5,0.2,0.8,0.7,0.6,1.3C68.8,370,68.4,370.3,68,370.3L68,370.3z M190.3,370
		c-0.5,0-0.9-0.3-1-0.8c-0.1-0.5,0.3-1.1,0.8-1.1c2-0.3,3.9-0.6,5.9-1c0.5-0.1,1.1,0.3,1.2,0.8c0.1,0.5-0.3,1.1-0.8,1.2
		c-2,0.3-3.9,0.7-5.9,1C190.4,370,190.3,370,190.3,370L190.3,370z M200.1,368.3c-0.5,0-0.9-0.3-1-0.8c-0.1-0.5,0.3-1.1,0.8-1.2
		c2-0.3,3.9-0.7,5.9-1c0.5-0.1,1.1,0.3,1.2,0.8c0.1,0.5-0.3,1.1-0.8,1.2c-2,0.4-3.9,0.7-5.9,1C200.2,368.3,200.1,368.3,200.1,368.3
		L200.1,368.3z M58.7,366.8c-0.1,0-0.3,0-0.4-0.1c-1.9-0.8-3.7-1.7-5.4-2.6c-0.5-0.3-0.7-0.9-0.4-1.3s0.9-0.7,1.3-0.4
		c1.7,0.9,3.5,1.7,5.3,2.5c0.5,0.2,0.7,0.8,0.5,1.3C59.4,366.6,59.1,366.8,58.7,366.8L58.7,366.8z M209.9,366.6
		c-0.5,0-0.9-0.3-1-0.8c-0.1-0.5,0.3-1.1,0.8-1.2c2-0.4,3.9-0.7,5.9-1.1c0.5-0.1,1.1,0.3,1.2,0.8c0.1,0.5-0.3,1.1-0.8,1.2
		c-2,0.4-3.9,0.7-5.9,1.1C210,366.6,209.9,366.6,209.9,366.6L209.9,366.6z M219.7,364.8c-0.5,0-0.9-0.3-1-0.8
		c-0.1-0.5,0.3-1.1,0.8-1.2c2-0.4,3.9-0.8,5.9-1.1c0.5-0.1,1.1,0.2,1.2,0.8c0.1,0.5-0.2,1.1-0.8,1.2c-2,0.4-3.9,0.8-5.9,1.1
		C219.8,364.8,219.7,364.8,219.7,364.8L219.7,364.8z M229.5,362.9c-0.5,0-0.9-0.3-1-0.8c-0.1-0.5,0.2-1.1,0.8-1.2
		c2-0.4,3.9-0.8,5.9-1.2c0.5-0.1,1.1,0.2,1.2,0.8c0.1,0.5-0.2,1.1-0.8,1.2c-2,0.4-3.9,0.8-5.9,1.2
		C229.6,362.9,229.5,362.9,229.5,362.9L229.5,362.9z M49.8,362.3c-0.2,0-0.3,0-0.5-0.1c-1.7-1-3.5-2.1-5.1-3.2
		c-0.5-0.3-0.6-0.9-0.3-1.4s0.9-0.6,1.4-0.3c1.6,1.1,3.3,2.2,5,3.2c0.5,0.3,0.6,0.9,0.4,1.4C50.5,362.1,50.2,362.3,49.8,362.3
		L49.8,362.3z M455.5,362.3c-0.3,0-0.6-0.1-0.8-0.4c-1.2-1.5-2.5-3-3.9-4.4c-0.4-0.4-0.4-1,0-1.4s1-0.4,1.4,0
		c1.4,1.4,2.8,2.9,4.1,4.5c0.3,0.4,0.3,1.1-0.2,1.4C455.9,362.2,455.7,362.3,455.5,362.3L455.5,362.3z M239.2,360.9
		c-0.5,0-0.9-0.3-1-0.8c-0.1-0.5,0.2-1.1,0.8-1.2l5.9-1.2c0.5-0.1,1.1,0.2,1.2,0.8c0.1,0.5-0.2,1.1-0.8,1.2l-5.9,1.2
		C239.4,360.9,239.3,360.9,239.2,360.9L239.2,360.9z M249,359c-0.5,0-0.9-0.3-1-0.8c-0.1-0.5,0.2-1.1,0.8-1.2l5.9-1.2
		c0.5-0.1,1.1,0.2,1.2,0.8c0.1,0.5-0.2,1.1-0.8,1.2l-5.9,1.2C249.1,359,249.1,359,249,359L249,359z M258.7,357c-0.5,0-0.9-0.3-1-0.8
		c-0.1-0.5,0.2-1.1,0.8-1.2l5.8-1.2c0.5-0.1,1.1,0.2,1.2,0.8s-0.2,1.1-0.8,1.2l-5.8,1.2C258.9,357,258.8,357,258.7,357L258.7,357z
		 M41.6,356.8c-0.2,0-0.4-0.1-0.6-0.2c-1.6-1.2-3.1-2.6-4.6-3.9c-0.4-0.4-0.4-1-0.1-1.4c0.4-0.4,1-0.4,1.4-0.1
		c1.4,1.3,2.9,2.6,4.5,3.8c0.4,0.3,0.5,1,0.2,1.4C42.2,356.6,41.9,356.8,41.6,356.8L41.6,356.8z M448.6,355.2
		c-0.2,0-0.5-0.1-0.6-0.2c-1.5-1.2-3-2.4-4.7-3.5c-0.5-0.3-0.6-0.9-0.3-1.4c0.3-0.5,0.9-0.6,1.4-0.3c1.7,1.1,3.3,2.4,4.9,3.7
		c0.4,0.4,0.5,1,0.1,1.4C449.1,355.1,448.9,355.2,448.6,355.2L448.6,355.2z M268.5,355c-0.5,0-0.9-0.3-1-0.8
		c-0.1-0.5,0.2-1.1,0.8-1.2l5.8-1.2c0.5-0.1,1.1,0.2,1.2,0.8c0.1,0.5-0.2,1.1-0.8,1.2l-5.8,1.2C268.6,355,268.5,355,268.5,355
		L268.5,355z M278.2,353.1c-0.5,0-0.9-0.3-1-0.8c-0.1-0.5,0.2-1.1,0.8-1.2c2-0.4,3.9-0.8,5.9-1.2c0.5-0.1,1.1,0.2,1.2,0.8
		c0.1,0.5-0.2,1.1-0.8,1.2c-1.9,0.4-3.9,0.8-5.9,1.2C278.3,353.1,278.3,353.1,278.2,353.1L278.2,353.1z M288,351.2
		c-0.5,0-0.9-0.3-1-0.8c-0.1-0.5,0.2-1.1,0.8-1.2c2-0.4,3.9-0.8,5.9-1.1c0.5-0.1,1.1,0.3,1.2,0.8c0.1,0.5-0.3,1.1-0.8,1.2
		c-1.9,0.4-3.9,0.8-5.9,1.1C288.1,351.2,288,351.2,288,351.2L288,351.2z M34.2,350.1c-0.3,0-0.5-0.1-0.7-0.3c-1.4-1.4-2.7-3-4-4.5
		c-0.3-0.4-0.3-1.1,0.1-1.4c0.4-0.4,1.1-0.3,1.4,0.1c1.2,1.5,2.5,3,3.9,4.4c0.4,0.4,0.4,1,0,1.4C34.7,350.1,34.5,350.1,34.2,350.1
		L34.2,350.1z M440.4,349.5c-0.2,0-0.3,0-0.5-0.1c-1.7-1-3.4-1.9-5.2-2.7c-0.5-0.2-0.7-0.8-0.5-1.3c0.2-0.5,0.8-0.7,1.3-0.5
		c1.9,0.9,3.7,1.8,5.4,2.8c0.5,0.3,0.6,0.9,0.4,1.4C441.1,349.3,440.8,349.5,440.4,349.5L440.4,349.5z M297.7,349.3
		c-0.5,0-0.9-0.3-1-0.8c-0.1-0.5,0.3-1.1,0.8-1.2c2-0.4,3.9-0.7,5.9-1.1c0.5-0.1,1.1,0.3,1.2,0.8s-0.3,1.1-0.8,1.2
		c-2,0.4-3.9,0.7-5.9,1.1C297.9,349.3,297.8,349.3,297.7,349.3L297.7,349.3z M307.5,347.5c-0.5,0-0.9-0.3-1-0.8
		c-0.1-0.5,0.3-1.1,0.8-1.2c2-0.4,3.9-0.7,5.9-1.1c0.5-0.1,1.1,0.3,1.2,0.8c0.1,0.5-0.3,1.1-0.8,1.2c-2,0.3-3.9,0.7-5.9,1
		C307.6,347.5,307.6,347.5,307.5,347.5L307.5,347.5z M317.3,345.7c-0.5,0-0.9-0.3-1-0.8c-0.1-0.5,0.3-1.1,0.8-1.2
		c2-0.3,3.9-0.7,5.9-1c0.5-0.1,1.1,0.3,1.1,0.8c0.1,0.5-0.3,1.1-0.8,1.1c-2,0.3-3.9,0.7-5.9,1C317.4,345.7,317.4,345.7,317.3,345.7
		L317.3,345.7z M431.5,345.3c-0.1,0-0.2,0-0.4-0.1c-1.8-0.7-3.7-1.3-5.6-1.9c-0.5-0.2-0.8-0.7-0.7-1.2c0.2-0.5,0.7-0.8,1.2-0.7
		c2,0.6,3.9,1.3,5.7,2c0.5,0.2,0.8,0.8,0.6,1.3C432.3,345,431.9,345.3,431.5,345.3L431.5,345.3z M327.1,344.1c-0.5,0-0.9-0.4-1-0.8
		c-0.1-0.5,0.3-1.1,0.8-1.1c2-0.3,4-0.6,5.9-0.9c0.5-0.1,1.1,0.3,1.1,0.8s-0.3,1.1-0.8,1.1c-2,0.3-3.9,0.6-5.9,0.9
		C327.2,344.1,327.2,344.1,327.1,344.1L327.1,344.1z M337,342.6c-0.5,0-0.9-0.4-1-0.9c-0.1-0.5,0.3-1.1,0.8-1.1c2-0.3,4-0.6,5.9-0.8
		c0.6-0.1,1.1,0.3,1.1,0.9c0.1,0.5-0.3,1.1-0.9,1.1c-2,0.3-3.9,0.5-5.9,0.8C337.1,342.6,337,342.6,337,342.6L337,342.6z M27.8,342.5
		c-0.3,0-0.6-0.1-0.8-0.4c-1.2-1.6-2.3-3.3-3.3-5c-0.3-0.5-0.1-1.1,0.3-1.4c0.5-0.3,1.1-0.1,1.4,0.3c1,1.7,2.1,3.3,3.3,4.9
		c0.3,0.4,0.2,1.1-0.2,1.4C28.3,342.5,28,342.5,27.8,342.5L27.8,342.5z M422,342.2c-0.1,0-0.2,0-0.2,0c-1.9-0.5-3.8-0.9-5.8-1.3
		c-0.5-0.1-0.9-0.6-0.8-1.2c0.1-0.5,0.6-0.9,1.2-0.8c2,0.4,4,0.8,5.9,1.3c0.5,0.1,0.9,0.7,0.7,1.2
		C422.9,341.9,422.5,342.2,422,342.2L422,342.2z M346.8,341.3c-0.5,0-0.9-0.4-1-0.9c-0.1-0.5,0.3-1,0.9-1.1c2-0.2,4-0.5,5.9-0.7
		c0.5-0.1,1,0.3,1.1,0.9s-0.3,1-0.9,1.1c-2,0.2-3.9,0.5-5.9,0.7C346.9,341.3,346.9,341.3,346.8,341.3L346.8,341.3z M412.3,340.2
		c-0.1,0-0.1,0-0.2,0c-1.9-0.3-3.9-0.6-5.9-0.8c-0.5-0.1-0.9-0.6-0.9-1.1c0.1-0.5,0.6-0.9,1.1-0.9c2,0.2,4,0.5,6,0.8
		c0.5,0.1,0.9,0.6,0.8,1.1C413.2,339.9,412.8,340.2,412.3,340.2L412.3,340.2z M356.7,340.2c-0.5,0-0.9-0.4-1-0.9
		c-0.1-0.5,0.3-1,0.9-1.1c2-0.2,4-0.4,6-0.6c0.6-0.1,1,0.4,1.1,0.9c0,0.6-0.4,1-0.9,1.1c-2,0.2-3.9,0.4-5.9,0.6
		C356.8,340.2,356.7,340.2,356.7,340.2L356.7,340.2z M366.6,339.3c-0.5,0-1-0.4-1-0.9c0-0.6,0.4-1,0.9-1.1c2-0.2,4-0.3,6-0.4
		c0.5,0,1,0.4,1.1,0.9c0,0.6-0.4,1-0.9,1.1C370.7,339,368.7,339.1,366.6,339.3C366.7,339.3,366.6,339.3,366.6,339.3L366.6,339.3z
		 M402.4,339.1C402.4,339.1,402.3,339.1,402.4,339.1c-2-0.2-4-0.3-6-0.4c-0.6,0-1-0.5-1-1c0-0.6,0.5-1,1-1c2,0.1,4.1,0.2,6,0.4
		c0.6,0,1,0.5,0.9,1.1C403.3,338.7,402.9,339.1,402.4,339.1L402.4,339.1z M376.5,338.7c-0.5,0-1-0.4-1-1c0-0.6,0.4-1,1-1
		c2-0.1,4-0.1,6-0.2c0,0,0,0,0,0c0.5,0,1,0.4,1,1c0,0.6-0.4,1-1,1C380.6,338.5,378.6,338.6,376.5,338.7
		C376.6,338.7,376.6,338.7,376.5,338.7L376.5,338.7z M392.5,338.5C392.5,338.5,392.4,338.5,392.5,338.5c-1.8,0-3.6-0.1-5.5-0.1
		l-0.5,0c0,0,0,0,0,0c-0.5,0-1-0.4-1-1c0-0.6,0.4-1,1-1l0.5,0c1.9,0,3.7,0,5.5,0.1c0.6,0,1,0.5,1,1
		C393.5,338.1,393,338.5,392.5,338.5L392.5,338.5z M22.6,334.1c-0.4,0-0.7-0.2-0.9-0.5c-0.9-1.7-1.8-3.6-2.7-5.4
		c-0.2-0.5,0-1.1,0.5-1.3c0.5-0.2,1.1,0,1.3,0.5c0.8,1.8,1.7,3.6,2.6,5.3c0.3,0.5,0.1,1.1-0.4,1.4C22.9,334.1,22.7,334.1,22.6,334.1
		L22.6,334.1z M18.4,325.1c-0.4,0-0.8-0.2-0.9-0.6c-0.7-1.8-1.4-3.7-2-5.7c-0.2-0.5,0.1-1.1,0.6-1.3c0.5-0.2,1.1,0.1,1.3,0.6
		c0.6,1.9,1.3,3.8,2,5.6c0.2,0.5-0.1,1.1-0.6,1.3C18.6,325.1,18.5,325.1,18.4,325.1L18.4,325.1z M15.3,315.7c-0.4,0-0.8-0.3-1-0.7
		c-0.5-1.9-1-3.9-1.5-5.8c-0.1-0.5,0.2-1.1,0.8-1.2c0.5-0.1,1.1,0.2,1.2,0.8c0.4,2,0.9,3.9,1.4,5.7c0.1,0.5-0.2,1.1-0.7,1.2
		C15.4,315.7,15.4,315.7,15.3,315.7L15.3,315.7z M13,306c-0.5,0-0.9-0.3-1-0.8c-0.4-1.9-0.7-3.9-1-5.9c-0.1-0.5,0.3-1.1,0.9-1.1
		c0.5-0.1,1.1,0.3,1.1,0.9c0.3,2,0.6,3.9,0.9,5.8c0.1,0.5-0.3,1.1-0.8,1.2C13.2,306,13.1,306,13,306L13,306z M11.6,296.2
		c-0.5,0-0.9-0.4-1-0.9c-0.2-1.9-0.4-4-0.5-6c0-0.6,0.4-1,0.9-1.1c0.6,0,1,0.4,1.1,0.9c0.1,2,0.3,4,0.5,5.9c0.1,0.5-0.3,1-0.9,1.1
		C11.7,296.2,11.6,296.2,11.6,296.2L11.6,296.2z M10.8,286.3c-0.5,0-1-0.4-1-1c-0.1-2-0.1-4-0.2-6c0-0.6,0.4-1,1-1c0.5,0,1,0.4,1,1
		c0,2,0.1,4,0.2,5.9C11.9,285.8,11.4,286.3,10.8,286.3C10.9,286.3,10.9,286.3,10.8,286.3L10.8,286.3z M10.7,276.4
		C10.7,276.4,10.7,276.4,10.7,276.4c-0.6,0-1-0.5-1-1l0-0.8c0-0.6,0.4-1,1-1c0.6,0,1,0.5,1,1l0,0.8
		C11.7,275.9,11.2,276.4,10.7,276.4L10.7,276.4z"/>
</g>
<g>
	<path class="st0" d="M12,260.3c-0.1,0-0.1,0-0.2,0c-0.5-0.1-0.9-0.7-0.8-1.2c0.4-2,1-3.9,1.7-5.8c0.2-0.5,0.8-0.8,1.3-0.6
		c0.5,0.2,0.8,0.8,0.6,1.3c-0.7,1.8-1.2,3.7-1.6,5.6C12.9,260,12.4,260.3,12,260.3L12,260.3z M15.2,251c-0.1,0-0.3,0-0.4-0.1
		c-0.5-0.2-0.7-0.8-0.5-1.3c0.9-1.8,1.9-3.6,3-5.3c0.3-0.5,0.9-0.6,1.4-0.3c0.5,0.3,0.6,0.9,0.3,1.4c-1.1,1.6-2,3.3-2.9,5
		C15.9,250.8,15.6,251,15.2,251L15.2,251z M20.5,242.6c-0.2,0-0.4-0.1-0.6-0.2c-0.4-0.3-0.5-1-0.2-1.4c1.2-1.5,2.6-3.1,4.1-4.5
		c0.4-0.4,1-0.4,1.4,0c0.4,0.4,0.4,1,0,1.4c-1.4,1.4-2.7,2.8-3.9,4.3C21.1,242.5,20.8,242.6,20.5,242.6L20.5,242.6z M27.4,235.5
		c-0.3,0-0.6-0.1-0.8-0.4c-0.4-0.4-0.3-1.1,0.1-1.4c1.5-1.3,3.1-2.5,4.8-3.7c0.5-0.3,1.1-0.2,1.4,0.3c0.3,0.5,0.2,1.1-0.3,1.4
		c-1.7,1.1-3.2,2.3-4.7,3.6C27.9,235.4,27.7,235.5,27.4,235.5L27.4,235.5z M35.6,229.7c-0.3,0-0.7-0.2-0.9-0.5
		c-0.3-0.5-0.1-1.1,0.3-1.4c1.7-1,3.5-2,5.3-3c0.5-0.3,1.1-0.1,1.3,0.4c0.3,0.5,0.1,1.1-0.4,1.3c-1.8,0.9-3.5,1.9-5.2,2.9
		C35.9,229.7,35.7,229.7,35.6,229.7L35.6,229.7z M44.4,225c-0.4,0-0.7-0.2-0.9-0.6c-0.2-0.5,0-1.1,0.5-1.3c1.8-0.8,3.7-1.6,5.6-2.4
		c0.5-0.2,1.1,0,1.3,0.6c0.2,0.5,0,1.1-0.6,1.3c-1.9,0.7-3.7,1.5-5.5,2.3C44.7,225,44.6,225,44.4,225L44.4,225z M53.7,221.3
		c-0.4,0-0.8-0.3-0.9-0.7c-0.2-0.5,0.1-1.1,0.6-1.3c1.8-0.7,3.8-1.3,5.7-1.9c0.5-0.2,1.1,0.1,1.3,0.7c0.2,0.5-0.1,1.1-0.7,1.3
		c-1.9,0.6-3.8,1.2-5.7,1.9C53.9,221.2,53.8,221.3,53.7,221.3L53.7,221.3z M63.2,218.2c-0.4,0-0.8-0.3-1-0.7
		c-0.2-0.5,0.2-1.1,0.7-1.2c1.9-0.5,3.8-1.1,5.8-1.6c0.5-0.1,1.1,0.2,1.2,0.7c0.1,0.5-0.2,1.1-0.7,1.2c-2,0.5-3.9,1-5.8,1.5
		C63.4,218.2,63.3,218.2,63.2,218.2L63.2,218.2z M73,215.7c-0.5,0-0.9-0.3-1-0.8c-0.1-0.5,0.2-1.1,0.8-1.2c1.9-0.4,3.9-0.9,5.9-1.3
		c0.5-0.1,1.1,0.2,1.2,0.8s-0.2,1.1-0.8,1.2c-2,0.4-4,0.8-5.9,1.3C73.1,215.7,73,215.7,73,215.7L73,215.7z M82.8,213.7
		c-0.5,0-0.9-0.3-1-0.8c-0.1-0.5,0.3-1.1,0.8-1.2c2-0.4,3.9-0.7,5.9-1.1c0.5-0.1,1.1,0.3,1.2,0.8c0.1,0.5-0.3,1.1-0.8,1.1
		c-2,0.3-4,0.7-5.9,1C82.9,213.6,82.8,213.7,82.8,213.7L82.8,213.7z M92.7,212c-0.5,0-0.9-0.4-1-0.8c-0.1-0.5,0.3-1.1,0.8-1.1
		c2-0.3,4-0.6,6-0.9c0.5-0.1,1.1,0.3,1.1,0.9s-0.3,1.1-0.9,1.1c-2,0.3-4,0.6-5.9,0.9C92.8,212,92.7,212,92.7,212L92.7,212z
		 M102.6,210.6c-0.5,0-0.9-0.4-1-0.9c-0.1-0.5,0.3-1,0.9-1.1c2-0.2,4-0.5,6-0.7c0.5-0.1,1,0.3,1.1,0.9c0.1,0.5-0.3,1-0.9,1.1
		c-2,0.2-4,0.5-6,0.7C102.7,210.6,102.7,210.6,102.6,210.6L102.6,210.6z M112.6,209.4c-0.5,0-0.9-0.4-1-0.9c-0.1-0.5,0.3-1,0.9-1.1
		c2-0.2,4-0.4,6-0.6c0.6-0.1,1,0.4,1.1,0.9c0.1,0.6-0.4,1-0.9,1.1c-2,0.2-4,0.4-6,0.6C112.7,209.4,112.6,209.4,112.6,209.4
		L112.6,209.4z M122.6,208.5c-0.5,0-1-0.4-1-0.9c0-0.6,0.4-1,0.9-1.1c2-0.2,4-0.3,6-0.5c0.6,0,1,0.4,1.1,0.9s-0.4,1-0.9,1.1
		C126.6,208.2,124.6,208.3,122.6,208.5C122.6,208.5,122.6,208.5,122.6,208.5L122.6,208.5z M132.6,207.7c-0.5,0-1-0.4-1-0.9
		c0-0.6,0.4-1,0.9-1.1c2-0.1,4-0.3,6-0.4c0.6,0,1,0.4,1.1,0.9s-0.4,1-0.9,1.1C136.6,207.4,134.6,207.6,132.6,207.7
		C132.6,207.7,132.6,207.7,132.6,207.7L132.6,207.7z M142.6,207.1c-0.5,0-1-0.4-1-0.9c0-0.6,0.4-1,0.9-1.1c2-0.1,4-0.2,6-0.3
		c0.5,0,1,0.4,1.1,0.9s-0.4,1-0.9,1.1C146.6,206.8,144.6,206.9,142.6,207.1C142.6,207.1,142.6,207.1,142.6,207.1L142.6,207.1z
		 M152.6,206.5c-0.5,0-1-0.4-1-1c0-0.6,0.4-1,1-1c2-0.1,4-0.2,6-0.3c0.5,0,1,0.4,1,1c0,0.6-0.4,1-1,1
		C156.7,206.3,154.7,206.4,152.6,206.5C152.6,206.5,152.6,206.5,152.6,206.5L152.6,206.5z M162.6,206.1c-0.5,0-1-0.4-1-1
		c0-0.6,0.4-1,1-1c2-0.1,4-0.2,6-0.2c0.5,0,1,0.4,1,1c0,0.6-0.4,1-1,1C166.7,205.9,164.7,206,162.6,206.1
		C162.7,206.1,162.7,206.1,162.6,206.1L162.6,206.1z M172.7,205.7c-0.5,0-1-0.4-1-1c0-0.6,0.4-1,1-1c2-0.1,4-0.1,6-0.2
		c0.5,0,1,0.4,1,1s-0.4,1-1,1C176.7,205.6,174.7,205.7,172.7,205.7C172.7,205.7,172.7,205.7,172.7,205.7L172.7,205.7z M182.7,205.4
		c-0.5,0-1-0.4-1-1c0-0.6,0.4-1,1-1c2-0.1,4-0.1,6-0.2c0.6,0,1,0.4,1,1c0,0.6-0.4,1-1,1C186.7,205.3,184.7,205.3,182.7,205.4
		C182.7,205.4,182.7,205.4,182.7,205.4L182.7,205.4z M192.7,205.1c-0.5,0-1-0.4-1-1c0-0.6,0.4-1,1-1l6-0.1c0.5,0,1,0.4,1,1
		c0,0.6-0.4,1-1,1L192.7,205.1C192.8,205.1,192.7,205.1,192.7,205.1L192.7,205.1z M202.8,204.9c-0.5,0-1-0.4-1-1c0-0.6,0.4-1,1-1
		l6-0.1c0,0,0,0,0,0c0.5,0,1,0.4,1,1c0,0.6-0.4,1-1,1L202.8,204.9C202.8,204.9,202.8,204.9,202.8,204.9L202.8,204.9z M212.8,204.7
		c-0.5,0-1-0.4-1-1c0-0.6,0.4-1,1-1l6-0.1c0.5,0,1,0.4,1,1c0,0.6-0.4,1-1,1L212.8,204.7C212.8,204.7,212.8,204.7,212.8,204.7
		L212.8,204.7z M222.8,204.4c-0.5,0-1-0.4-1-1c0-0.6,0.4-1,1-1l6-0.1c0.5,0,1,0.4,1,1c0,0.6-0.4,1-1,1L222.8,204.4
		C222.8,204.4,222.8,204.4,222.8,204.4L222.8,204.4z M232.9,204.2c-0.5,0-1-0.4-1-1c0-0.6,0.4-1,1-1c2,0,4-0.1,6-0.2
		c0.6,0,1,0.4,1,1c0,0.6-0.4,1-1,1C236.9,204.1,234.9,204.1,232.9,204.2C232.9,204.2,232.9,204.2,232.9,204.2L232.9,204.2z
		 M242.9,203.9c-0.5,0-1-0.4-1-1c0-0.6,0.4-1,1-1c2-0.1,4-0.1,6-0.2c0.6,0,1,0.4,1,1s-0.4,1-1,1
		C246.9,203.8,244.9,203.9,242.9,203.9C242.9,203.9,242.9,203.9,242.9,203.9L242.9,203.9z M252.9,203.6c-0.5,0-1-0.4-1-1
		c0-0.6,0.4-1,1-1c2-0.1,4-0.1,6-0.2c0.6,0,1,0.4,1,1c0,0.6-0.4,1-1,1C257,203.5,254.9,203.6,252.9,203.6
		C252.9,203.6,252.9,203.6,252.9,203.6L252.9,203.6z M262.9,203.3c-0.5,0-1-0.4-1-1c0-0.6,0.4-1,1-1c2-0.1,4-0.1,6-0.2
		c0.5,0,1,0.4,1,1c0,0.6-0.4,1-1,1C267,203.1,265,203.2,262.9,203.3C263,203.3,263,203.3,262.9,203.3L262.9,203.3z M273,202.9
		c-0.5,0-1-0.4-1-1c0-0.6,0.4-1,1-1c2-0.1,4-0.2,6-0.3c0.5,0,1,0.4,1,1c0,0.6-0.4,1-1,1C277,202.7,275,202.8,273,202.9
		C273,202.9,273,202.9,273,202.9L273,202.9z M283,202.4c-0.5,0-1-0.4-1-0.9c0-0.6,0.4-1,0.9-1c2-0.1,4-0.2,6-0.3
		c0.6,0,1,0.4,1.1,0.9c0,0.6-0.4,1-0.9,1.1C287.1,202.2,285,202.3,283,202.4C283,202.4,283,202.4,283,202.4L283,202.4z M293,201.9
		c-0.5,0-1-0.4-1-0.9c0-0.6,0.4-1,0.9-1.1c2-0.1,4-0.2,6-0.4c0.5,0,1,0.4,1.1,0.9c0,0.6-0.4,1-0.9,1.1
		C297.1,201.6,295.1,201.7,293,201.9C293,201.9,293,201.9,293,201.9L293,201.9z M303,201.2c-0.5,0-1-0.4-1-0.9c0-0.6,0.4-1,0.9-1.1
		c2-0.1,4-0.3,6-0.5c0.6,0,1,0.4,1.1,0.9c0,0.6-0.4,1-0.9,1.1C307.1,200.9,305.1,201.1,303,201.2C303.1,201.2,303,201.2,303,201.2
		L303,201.2z M313,200.4c-0.5,0-1-0.4-1-0.9c0-0.6,0.4-1,0.9-1.1c2-0.2,4-0.3,6-0.5c0.5-0.1,1,0.4,1.1,0.9c0.1,0.6-0.4,1-0.9,1.1
		C317.1,200.1,315.1,200.3,313,200.4C313.1,200.4,313,200.4,313,200.4L313,200.4z M323,199.5c-0.5,0-0.9-0.4-1-0.9
		c-0.1-0.5,0.3-1,0.9-1.1c2-0.2,4-0.4,6-0.6c0.6-0.1,1,0.3,1.1,0.9s-0.3,1-0.9,1.1c-2,0.2-4,0.4-6,0.6
		C323.1,199.5,323,199.5,323,199.5L323,199.5z M333,198.4c-0.5,0-0.9-0.4-1-0.9c-0.1-0.5,0.3-1,0.9-1.1c2-0.2,4-0.5,6-0.7
		c0.5-0.1,1,0.3,1.1,0.9c0.1,0.5-0.3,1-0.9,1.1c-2,0.3-4,0.5-6,0.7C333.1,198.4,333,198.4,333,198.4L333,198.4z M342.9,197.2
		c-0.5,0-0.9-0.4-1-0.9c-0.1-0.5,0.3-1.1,0.9-1.1c2-0.3,4-0.6,5.9-0.9c0.5-0.1,1.1,0.3,1.1,0.8c0.1,0.5-0.3,1.1-0.8,1.1
		c-2,0.3-4,0.6-6,0.9C343,197.2,343,197.2,342.9,197.2L342.9,197.2z M352.9,195.7c-0.5,0-0.9-0.3-1-0.8c-0.1-0.5,0.3-1.1,0.8-1.1
		c2-0.3,4-0.7,5.9-1c0.5-0.1,1.1,0.3,1.2,0.8c0.1,0.5-0.3,1.1-0.8,1.2c-2,0.4-3.9,0.7-5.9,1C353,195.7,352.9,195.7,352.9,195.7
		L352.9,195.7z M362.7,193.9c-0.5,0-0.9-0.3-1-0.8c-0.1-0.5,0.3-1.1,0.8-1.2c2-0.4,3.9-0.8,5.9-1.2c0.5-0.1,1.1,0.2,1.2,0.8
		c0.1,0.5-0.2,1.1-0.8,1.2c-2,0.4-3.9,0.8-5.9,1.2C362.9,193.9,362.8,193.9,362.7,193.9L362.7,193.9z M372.6,191.9
		c-0.5,0-0.9-0.3-1-0.8c-0.1-0.5,0.2-1.1,0.8-1.2c2-0.4,3.9-0.9,5.8-1.4c0.5-0.1,1.1,0.2,1.2,0.7c0.1,0.5-0.2,1.1-0.7,1.2
		c-1.9,0.5-3.9,0.9-5.9,1.4C372.7,191.9,372.6,191.9,372.6,191.9L372.6,191.9z M382.3,189.5c-0.4,0-0.8-0.3-1-0.7
		c-0.1-0.5,0.2-1.1,0.7-1.2c1.9-0.5,3.9-1.1,5.8-1.6c0.5-0.2,1.1,0.1,1.2,0.7c0.2,0.5-0.1,1.1-0.7,1.2c-1.9,0.6-3.9,1.1-5.8,1.6
		C382.5,189.5,382.4,189.5,382.3,189.5L382.3,189.5z M391.9,186.8c-0.4,0-0.8-0.3-1-0.7c-0.2-0.5,0.1-1.1,0.7-1.3
		c1.9-0.6,3.8-1.2,5.7-1.9c0.5-0.2,1.1,0.1,1.3,0.6c0.2,0.5-0.1,1.1-0.6,1.3c-1.9,0.6-3.8,1.3-5.7,1.9
		C392.1,186.8,392,186.8,391.9,186.8L391.9,186.8z M401.4,183.5c-0.4,0-0.8-0.2-0.9-0.7c-0.2-0.5,0.1-1.1,0.6-1.3
		c1.9-0.7,3.8-1.4,5.6-2.2c0.5-0.2,1.1,0,1.3,0.5c0.2,0.5,0,1.1-0.5,1.3c-1.8,0.8-3.7,1.5-5.6,2.2
		C401.7,183.5,401.5,183.5,401.4,183.5L401.4,183.5z M410.7,179.8c-0.4,0-0.7-0.2-0.9-0.6c-0.2-0.5,0-1.1,0.5-1.3
		c1.8-0.8,3.7-1.7,5.4-2.5c0.5-0.2,1.1,0,1.3,0.4c0.2,0.5,0,1.1-0.4,1.3c-1.8,0.9-3.6,1.8-5.5,2.6
		C411,179.7,410.8,179.8,410.7,179.8L410.7,179.8z M419.7,175.3c-0.4,0-0.7-0.2-0.9-0.5c-0.3-0.5-0.1-1.1,0.4-1.4c1.8-1,3.5-2,5.1-3
		c0.5-0.3,1.1-0.1,1.4,0.3c0.3,0.5,0.1,1.1-0.3,1.4c-1.7,1-3.4,2-5.2,3C420,175.3,419.9,175.3,419.7,175.3L419.7,175.3z
		 M428.3,170.2c-0.3,0-0.6-0.2-0.8-0.4c-0.3-0.5-0.2-1.1,0.3-1.4c1.7-1.1,3.3-2.3,4.8-3.4c0.4-0.3,1.1-0.3,1.4,0.2
		c0.3,0.4,0.3,1.1-0.2,1.4c-1.6,1.2-3.2,2.4-4.9,3.5C428.6,170.1,428.4,170.2,428.3,170.2L428.3,170.2z M436.2,164.2
		c-0.3,0-0.6-0.1-0.8-0.4c-0.4-0.4-0.3-1.1,0.1-1.4c1.5-1.3,3-2.6,4.4-4c0.4-0.4,1-0.4,1.4,0c0.4,0.4,0.4,1,0,1.4
		c-1.4,1.4-2.9,2.8-4.5,4.1C436.7,164.1,436.5,164.2,436.2,164.2L436.2,164.2z M443.5,157.3c-0.2,0-0.5-0.1-0.7-0.3
		c-0.4-0.4-0.4-1-0.1-1.4c1.3-1.5,2.6-3,3.8-4.5c0.3-0.4,1-0.5,1.4-0.2c0.4,0.3,0.5,1,0.2,1.4c-1.2,1.6-2.5,3.1-3.9,4.6
		C444,157.2,443.7,157.3,443.5,157.3L443.5,157.3z M449.7,149.5c-0.2,0-0.4-0.1-0.6-0.2c-0.5-0.3-0.6-0.9-0.3-1.4
		c1.1-1.6,2.1-3.3,3.1-5c0.3-0.5,0.9-0.7,1.4-0.4c0.5,0.3,0.7,0.9,0.4,1.4c-1,1.7-2,3.5-3.2,5.1C450.3,149.4,450,149.5,449.7,149.5
		L449.7,149.5z M454.6,140.9c-0.1,0-0.3,0-0.4-0.1c-0.5-0.2-0.7-0.8-0.5-1.3c0.8-1.7,1.6-3.6,2.3-5.4c0.2-0.5,0.8-0.8,1.3-0.6
		c0.5,0.2,0.8,0.8,0.6,1.3c-0.7,1.9-1.5,3.8-2.4,5.6C455.4,140.7,455,140.9,454.6,140.9L454.6,140.9z M458.3,131.7
		c-0.1,0-0.2,0-0.3,0c-0.5-0.2-0.8-0.7-0.7-1.3c0.6-1.9,1.1-3.8,1.5-5.7c0.1-0.5,0.7-0.9,1.2-0.8c0.5,0.1,0.9,0.7,0.8,1.2
		c-0.4,2-1,4-1.6,5.9C459.1,131.4,458.7,131.7,458.3,131.7L458.3,131.7z M460.6,122c-0.1,0-0.1,0-0.2,0c-0.5-0.1-0.9-0.6-0.8-1.2
		c0.3-1.9,0.6-3.9,0.8-5.9c0.1-0.6,0.5-1,1.1-0.9c0.5,0.1,1,0.5,0.9,1.1c-0.2,2-0.5,4.1-0.8,6C461.5,121.6,461.1,122,460.6,122
		L460.6,122z M461.6,112C461.6,112,461.6,112,461.6,112c-0.6,0-1-0.5-1-1c0.1-1.5,0.1-3,0.1-4.5c0-0.5,0-1,0-1.5c0-0.6,0.4-1,1-1
		c0.6,0,1,0.4,1,1c0,0.5,0,1,0,1.5c0,1.5,0,3.1-0.1,4.6C462.6,111.6,462.2,112,461.6,112L461.6,112z M461.6,102c-0.5,0-1-0.4-1-0.9
		c0-0.9-0.1-1.8-0.2-2.7c0-0.6,0.4-1,0.9-1.1c0.6,0,1,0.4,1.1,0.9c0.1,0.9,0.1,1.8,0.2,2.7C462.6,101.5,462.2,102,461.6,102
		C461.6,102,461.6,102,461.6,102L461.6,102z"/>
</g>
<g>
	<path class="st0" d="M458.4,84.3c-0.4,0-0.8-0.2-0.9-0.6c-0.7-1.7-1.6-3.5-2.7-5.2c-0.3-0.5-0.1-1.1,0.3-1.4
		c0.5-0.3,1.1-0.1,1.4,0.3c1.1,1.8,2,3.6,2.8,5.5c0.2,0.5,0,1.1-0.5,1.3C458.7,84.3,458.5,84.3,458.4,84.3L458.4,84.3z M453.5,75.7
		c-0.3,0-0.6-0.1-0.8-0.4c-1.1-1.5-2.4-3-3.8-4.5c-0.4-0.4-0.4-1,0-1.4c0.4-0.4,1-0.4,1.4,0c1.4,1.5,2.8,3.1,3.9,4.7
		c0.3,0.4,0.2,1.1-0.2,1.4C453.9,75.6,453.7,75.7,453.5,75.7L453.5,75.7z M446.8,68.2c-0.2,0-0.5-0.1-0.7-0.3
		c-1.4-1.3-2.9-2.6-4.5-3.9c-0.4-0.3-0.5-1-0.2-1.4c0.3-0.4,1-0.5,1.4-0.2c1.6,1.3,3.2,2.6,4.6,4c0.4,0.4,0.4,1,0,1.4
		C447.3,68.1,447,68.2,446.8,68.2L446.8,68.2z M439,61.9c-0.2,0-0.4-0.1-0.6-0.2c-1.6-1.1-3.2-2.2-4.9-3.3c-0.5-0.3-0.6-0.9-0.3-1.4
		c0.3-0.5,0.9-0.6,1.4-0.3c1.8,1.1,3.4,2.2,5,3.4c0.4,0.3,0.6,0.9,0.2,1.4C439.6,61.8,439.3,61.9,439,61.9L439,61.9z M430.6,56.5
		c-0.2,0-0.3,0-0.5-0.1c-1.7-1-3.4-1.9-5.2-2.9c-0.5-0.3-0.7-0.9-0.4-1.4c0.3-0.5,0.9-0.7,1.4-0.4c1.8,1,3.6,1.9,5.3,2.9
		c0.5,0.3,0.6,0.9,0.4,1.4C431.3,56.3,430.9,56.5,430.6,56.5L430.6,56.5z M421.8,51.8c-0.1,0-0.3,0-0.4-0.1
		c-1.7-0.9-3.6-1.7-5.4-2.5c-0.5-0.2-0.7-0.8-0.5-1.3c0.2-0.5,0.8-0.7,1.3-0.5c1.9,0.8,3.7,1.7,5.5,2.6c0.5,0.2,0.7,0.8,0.5,1.3
		C422.5,51.6,422.1,51.8,421.8,51.8L421.8,51.8z M412.7,47.6c-0.1,0-0.3,0-0.4-0.1c-1.8-0.8-3.6-1.5-5.5-2.3
		c-0.5-0.2-0.8-0.8-0.6-1.3c0.2-0.5,0.8-0.8,1.3-0.6c1.9,0.7,3.8,1.5,5.6,2.3c0.5,0.2,0.7,0.8,0.5,1.3
		C413.4,47.4,413,47.6,412.7,47.6L412.7,47.6z M403.4,43.9c-0.1,0-0.2,0-0.4-0.1c-1.8-0.7-3.7-1.4-5.6-2c-0.5-0.2-0.8-0.8-0.6-1.3
		s0.8-0.8,1.3-0.6c1.9,0.7,3.8,1.4,5.7,2c0.5,0.2,0.8,0.8,0.6,1.3C404.1,43.6,403.8,43.9,403.4,43.9L403.4,43.9z M393.9,40.6
		c-0.1,0-0.2,0-0.3-0.1c-1.9-0.6-3.8-1.2-5.7-1.8c-0.5-0.2-0.8-0.7-0.7-1.3c0.2-0.5,0.7-0.8,1.3-0.7c1.9,0.6,3.9,1.2,5.7,1.8
		c0.5,0.2,0.8,0.7,0.6,1.3C394.7,40.3,394.3,40.6,393.9,40.6L393.9,40.6z M384.3,37.6c-0.1,0-0.2,0-0.3,0c-1.9-0.6-3.8-1.1-5.8-1.7
		c-0.5-0.1-0.8-0.7-0.7-1.2c0.1-0.5,0.7-0.8,1.2-0.7c2,0.5,3.9,1.1,5.8,1.7c0.5,0.2,0.8,0.7,0.7,1.2
		C385.2,37.3,384.8,37.6,384.3,37.6L384.3,37.6z M374.7,34.8c-0.1,0-0.2,0-0.3,0c-1.9-0.5-3.8-1-5.8-1.5c-0.5-0.1-0.9-0.7-0.7-1.2
		c0.1-0.5,0.7-0.9,1.2-0.7c2,0.5,3.9,1,5.8,1.5c0.5,0.1,0.9,0.7,0.7,1.2C375.5,34.5,375.1,34.8,374.7,34.8L374.7,34.8z M365,32.3
		c-0.1,0-0.2,0-0.2,0c-1.9-0.5-3.9-0.9-5.8-1.4c-0.5-0.1-0.9-0.7-0.8-1.2s0.7-0.9,1.2-0.8c2,0.5,3.9,0.9,5.9,1.4
		c0.5,0.1,0.9,0.7,0.7,1.2C365.9,32,365.4,32.3,365,32.3L365,32.3z M355.2,30.1c-0.1,0-0.1,0-0.2,0c-1.9-0.4-3.9-0.9-5.9-1.3
		c-0.5-0.1-0.9-0.6-0.8-1.2c0.1-0.5,0.6-0.9,1.2-0.8c2,0.4,3.9,0.8,5.9,1.3c0.5,0.1,0.9,0.7,0.8,1.2
		C356.1,29.8,355.7,30.1,355.2,30.1L355.2,30.1z M345.4,28c-0.1,0-0.1,0-0.2,0c-1.9-0.4-3.9-0.8-5.9-1.2c-0.5-0.1-0.9-0.6-0.8-1.2
		c0.1-0.5,0.6-0.9,1.2-0.8c2,0.4,4,0.8,5.9,1.2c0.5,0.1,0.9,0.6,0.8,1.2C346.3,27.7,345.9,28,345.4,28L345.4,28z M335.6,26.1
		c-0.1,0-0.1,0-0.2,0c-2-0.4-3.9-0.7-5.9-1.1c-0.5-0.1-0.9-0.6-0.8-1.2c0.1-0.5,0.6-0.9,1.2-0.8c2,0.4,4,0.7,5.9,1.1
		c0.5,0.1,0.9,0.6,0.8,1.2C336.5,25.7,336.1,26.1,335.6,26.1L335.6,26.1z M325.7,24.3c-0.1,0-0.1,0-0.2,0c-2-0.3-3.9-0.7-5.9-1
		c-0.5-0.1-0.9-0.6-0.8-1.1c0.1-0.5,0.6-0.9,1.1-0.8c2,0.3,4,0.6,5.9,1c0.5,0.1,0.9,0.6,0.8,1.2C326.6,24,326.2,24.3,325.7,24.3
		L325.7,24.3z M315.8,22.7c-0.1,0-0.1,0-0.2,0c-2-0.3-4-0.6-5.9-0.9c-0.5-0.1-0.9-0.6-0.8-1.1s0.6-0.9,1.1-0.8c2,0.3,4,0.6,6,0.9
		c0.5,0.1,0.9,0.6,0.8,1.1C316.7,22.4,316.3,22.7,315.8,22.7L315.8,22.7z M305.9,21.2c0,0-0.1,0-0.1,0c-2-0.3-3.9-0.6-5.9-0.8
		c-0.5-0.1-0.9-0.6-0.9-1.1c0.1-0.5,0.6-0.9,1.1-0.9c2,0.3,4,0.5,5.9,0.8c0.5,0.1,0.9,0.6,0.8,1.1C306.8,20.9,306.4,21.2,305.9,21.2
		L305.9,21.2z M296,19.9c0,0-0.1,0-0.1,0c-2-0.3-4-0.5-5.9-0.8c-0.5-0.1-0.9-0.6-0.9-1.1c0.1-0.5,0.6-0.9,1.1-0.9c2,0.2,4,0.5,6,0.8
		c0.5,0.1,0.9,0.6,0.9,1.1C297,19.5,296.5,19.9,296,19.9L296,19.9z M286.1,18.6c0,0-0.1,0-0.1,0c-2-0.2-4-0.5-6-0.7
		c-0.5-0.1-0.9-0.6-0.9-1.1s0.6-1,1.1-0.9c2,0.2,4,0.5,6,0.7c0.5,0.1,0.9,0.6,0.9,1.1C287,18.3,286.6,18.6,286.1,18.6L286.1,18.6z
		 M276.1,17.5c0,0-0.1,0-0.1,0c-2-0.2-4-0.4-6-0.6c-0.5-0.1-0.9-0.5-0.9-1.1c0.1-0.6,0.6-1,1.1-0.9c2,0.2,4,0.4,6,0.6
		c0.5,0.1,0.9,0.6,0.9,1.1C277.1,17.1,276.7,17.5,276.1,17.5L276.1,17.5z M266.2,16.5C266.1,16.5,266.1,16.5,266.2,16.5
		c-2.1-0.2-4.1-0.4-6.1-0.6c-0.5-0.1-1-0.5-0.9-1.1c0-0.6,0.5-1,1.1-0.9c2,0.2,4,0.4,6,0.6c0.5,0.1,1,0.5,0.9,1.1
		C267.1,16.1,266.7,16.5,266.2,16.5L266.2,16.5z M256.2,15.6C256.1,15.6,256.1,15.6,256.2,15.6c-2.1-0.2-4.1-0.3-6.1-0.5
		c-0.6,0-1-0.5-0.9-1.1c0-0.6,0.5-1,1.1-0.9c2,0.2,4,0.3,6,0.5c0.5,0,1,0.5,0.9,1.1C257.1,15.2,256.7,15.6,256.2,15.6L256.2,15.6z
		 M246.2,14.7C246.1,14.7,246.1,14.7,246.2,14.7c-2.1-0.2-4.1-0.3-6.1-0.5c-0.6,0-1-0.5-0.9-1.1c0-0.6,0.5-1,1.1-0.9
		c2,0.1,4,0.3,6,0.5c0.6,0,1,0.5,0.9,1.1C247.1,14.3,246.7,14.7,246.2,14.7L246.2,14.7z M236.2,14C236.2,14,236.1,14,236.2,14
		l-0.7,0c-0.6,0-1-0.5-0.9-1.1c0-0.6,0.5-1,1.1-0.9l0.6,0c0.6,0,1,0.5,0.9,1.1C237.1,13.6,236.7,14,236.2,14L236.2,14z"/>
</g>
<g>
	<path class="st0" d="M468.4,412.1C468.4,412.1,468.3,412.1,468.4,412.1c-0.6,0-1-0.5-1-1.1c0.1-1.3,0.1-2.5,0.1-3.8
		c0-1.3,0-2.5,0-3.8c0-0.6,0.4-1,1-1c0,0,0,0,0,0c0.5,0,1,0.4,1,1c0,1.3,0,2.5,0,3.9c0,1.3-0.1,2.6-0.1,3.9
		C469.3,411.7,468.9,412.1,468.4,412.1L468.4,412.1z"/>
</g>
<g>
	<path class="st1" d="M331,33c-0.3,0-0.6-0.2-0.8-0.4c-0.3-0.5-0.2-1.1,0.3-1.4l8.2-5.4l-4.8-9.3c-0.3-0.5-0.1-1.1,0.4-1.3
		c0.5-0.3,1.1-0.1,1.3,0.4l5.6,10.9l-9.7,6.4C331.4,33,331.2,33,331,33L331,33z"/>
</g>
<g>
	<path class="st1" d="M318.9,208.6c-0.2,0-0.5-0.1-0.7-0.2l-9.2-8.1l6.6-9.5c0.3-0.5,0.9-0.6,1.4-0.2c0.5,0.3,0.6,0.9,0.2,1.4
		l-5.6,8l7.9,6.9c0.4,0.4,0.5,1,0.1,1.4C319.4,208.5,319.1,208.6,318.9,208.6L318.9,208.6z"/>
</g>
<g>
	<path class="st1" d="M91.9,383.9c-0.3,0-0.5-0.1-0.7-0.3c-0.4-0.4-0.3-1,0.1-1.4l7.3-6.6l-6.1-8.5c-0.3-0.4-0.2-1.1,0.2-1.4
		c0.4-0.3,1.1-0.2,1.4,0.2l7.2,10l-8.6,7.8C92.4,383.8,92.2,383.9,91.9,383.9L91.9,383.9z"/>
</g>
</svg>
