<?xml version="1.0" encoding="utf-8"?>
<!-- Generator: Adobe Illustrator 21.1.0, SVG Export Plug-In . SVG Version: 6.00 Build 0)  -->
<svg version="1.1" id="Capa_1" xmlns="http://www.w3.org/2000/svg" xmlns:xlink="http://www.w3.org/1999/xlink" x="0px" y="0px"
	 viewBox="0 0 26.365 30.464" style="enable-background:new 0 0 26.365 30.464;" xml:space="preserve">
<style type="text/css">
	.st0{fill:#84CDE4;}
	.st1{clip-path:url(#SVGID_2_);fill:#FFFFFF;}
</style>
<polygon class="st0" points="12.47,11.714 0.577,1.624 0.216,19.282 4.541,21.806 12.83,29.736 19.678,22.887 25.444,16.76 
	25.805,0.541 "/>
<g>
	<defs>
		<rect id="SVGID_1_" width="26.365" height="30.464"/>
	</defs>
	<clipPath id="SVGID_2_">
		<use xlink:href="#SVGID_1_"  style="overflow:visible;"/>
	</clipPath>
	<path class="st1" d="M23.081,17.535c0.53-0.513,0.958-0.961,0.96-1.772c0.005-3.772,0.062-7.545,0.093-11.317
		c0.003-0.359-0.043-0.719-0.078-1.259c-1.401,0.899-2.514,1.893-3.543,2.957c-1.608,1.662-3.162,3.368-5.128,4.64
		c-0.424,0.274-0.729,0.73-1.096,1.096c-0.49,0.488-1.076,0.618-1.681,0.292c-0.532-0.287-1.053-0.624-1.514-1.015
		c-2.799-2.374-5.58-4.771-8.623-7.38C2.24,6.329,2.413,8.6,2.406,10.86c-0.008,2.262,0.069,4.525,0.113,7.006
		c3.612,2.954,6.874,6.477,10.179,10.225c1.877-1.925,3.638-3.738,5.409-5.543C19.755,20.867,21.391,19.173,23.081,17.535
		 M14.477,29.593c-1.207,1.09-1.994,1.192-3.175,0.107c-0.832-0.764-1.59-1.609-2.383-2.415c-2.183-2.218-4.355-4.445-6.559-6.641
		c-0.393-0.392-0.894-0.698-1.389-0.962c-0.776-0.414-0.986-1.038-0.97-1.872c0.07-3.583,0.095-7.167,0.147-10.75
		c0.024-1.698,0.014-3.4,0.126-5.092c0.079-1.199,0.87-1.549,1.85-0.879c0.62,0.423,1.173,0.945,1.751,1.427
		c2.966,2.471,5.931,4.943,8.953,7.461c1.359-1.108,2.893-2.095,4.09-3.393c2.227-2.416,4.788-4.393,7.435-6.288
		c0.677-0.485,1.296-0.383,1.586,0.378c0.231,0.606,0.385,1.281,0.39,1.927c0.039,4.667,0.035,9.335,0.036,14.002
		c0.001,0.816-0.317,1.437-1.096,1.825c-0.365,0.182-0.663,0.514-0.961,0.809C20.922,22.585,18.021,26.391,14.477,29.593"/>
</g>
</svg>
