<?xml version="1.0" encoding="utf-8"?>
<!-- Generator: Adobe Illustrator 21.1.0, SVG Export Plug-In . SVG Version: 6.00 Build 0)  -->
<svg version="1.1" id="Capa_1" xmlns="http://www.w3.org/2000/svg" xmlns:xlink="http://www.w3.org/1999/xlink" x="0px" y="0px"
	 viewBox="0 0 52.922 35.663" style="enable-background:new 0 0 52.922 35.663;" xml:space="preserve">
<style type="text/css">
	.st0{clip-path:url(#SVGID_2_);}
	.st1{clip-path:url(#SVGID_4_);fill:#005CA8;}
	.st2{filter:url(#Adobe_OpacityMaskFilter);}
	.st3{clip-path:url(#SVGID_4_);}
	.st4{clip-path:url(#SVGID_4_);mask:url(#SVGID_5_);}
	.st5{opacity:0.2;clip-path:url(#SVGID_9_);fill:#1D1D1B;}
	.st6{clip-path:url(#SVGID_2_);fill:#FFFFFF;}
	.st7{clip-path:url(#SVGID_11_);fill:none;stroke:#005CA8;stroke-width:1.777;stroke-linecap:round;}
	.st8{clip-path:url(#SVGID_2_);fill:none;stroke:#005CA8;stroke-width:1.185;stroke-linecap:round;}
	.st9{clip-path:url(#SVGID_13_);fill:#005CA8;}
	.st10{clip-path:url(#SVGID_15_);fill:#FFFFFF;}
</style>
<g>
	<defs>
		<rect id="SVGID_1_" y="-0.337" width="53" height="36"/>
	</defs>
	<clipPath id="SVGID_2_">
		<use xlink:href="#SVGID_1_"  style="overflow:visible;"/>
	</clipPath>
	<g class="st0">
		<defs>
			<rect id="SVGID_3_" y="-0.337" width="53" height="36"/>
		</defs>
		<clipPath id="SVGID_4_">
			<use xlink:href="#SVGID_3_"  style="overflow:visible;"/>
		</clipPath>
		<path class="st1" d="M25.211,12.448c0,0-1.805,0-1.805,1.805v14.4c0,0,0,1.805,1.805,1.805h25.906c0,0,1.805,0,1.805-1.805v-14.4
			c0,0,0-1.805-1.805-1.805H25.211z"/>
		<defs>
			<filter id="Adobe_OpacityMaskFilter" filterUnits="userSpaceOnUse" x="2.975" y="0" width="25.92" height="33.36">
				<feColorMatrix  type="matrix" values="1 0 0 0 0  0 1 0 0 0  0 0 1 0 0  0 0 0 1 0"/>
			</filter>
		</defs>
		<mask maskUnits="userSpaceOnUse" x="2.975" y="0" width="25.92" height="33.36" id="SVGID_5_">
			<g class="st2">
				<g>
					<defs>
						<rect id="SVGID_6_" x="-5.905" y="-6.96" width="44.16" height="41.28"/>
					</defs>
					<clipPath id="SVGID_7_" class="st3">
						<use xlink:href="#SVGID_6_"  style="overflow:visible;"/>
					</clipPath>
					<g transform="matrix(1 0 0 1 0 0)" style="clip-path:url(#SVGID_7_);">
						
							<image style="overflow:visible;" width="184" height="172" xlink:href="3CECEA96654FA81D.jpg"  transform="matrix(0.24 0 0 0.24 -5.905 -6.96)">
						</image>
					</g>
				</g>
			</g>
		</mask>
		<g class="st4">
			<g>
				<defs>
					<rect id="SVGID_8_" x="2.975" width="25.92" height="33.36"/>
				</defs>
				<clipPath id="SVGID_9_">
					<use xlink:href="#SVGID_8_"  style="overflow:visible;"/>
				</clipPath>
				<rect x="2.975" class="st5" width="25.92" height="33.36"/>
			</g>
		</g>
	</g>
	<rect x="1.461" y="1.674" class="st6" width="25.603" height="33.13"/>
	<g class="st0">
		<defs>
			<rect id="SVGID_10_" y="-0.337" width="53" height="36"/>
		</defs>
		<clipPath id="SVGID_11_">
			<use xlink:href="#SVGID_10_"  style="overflow:visible;"/>
		</clipPath>
		<path class="st7" d="M0.916,1.881v29.776c0,0,0.45,3.058,1.609,3.058h25.419c-1.223,0-1.609-3.057-1.609-3.057V1.881H0.916z"/>
	</g>
	<rect x="4.619" y="11.624" class="st8" width="7.776" height="7.695"/>
	<g class="st0">
		<defs>
			<rect id="SVGID_12_" y="-0.337" width="53" height="36"/>
		</defs>
		<clipPath id="SVGID_13_">
			<use xlink:href="#SVGID_12_"  style="overflow:visible;"/>
		</clipPath>
		<path class="st9" d="M21.549,6.978l0.463-1.552l0.469,1.552H21.549z M22.949,8.564h0.836l-1.312-3.957H21.59l-1.296,3.957h0.794
			l0.275-0.93h1.308L22.949,8.564z M20.475,4.607h-2.883v0.689h1.053v3.268h0.775V5.296h1.055V4.607z M14.92,7.528l-0.342,0.548
			C14.954,8.4,15.423,8.62,15.971,8.62c0.745,0,1.344-0.399,1.344-1.215c0-1.436-1.866-0.919-1.866-1.709
			c0-0.29,0.249-0.458,0.587-0.458c0.285,0,0.62,0.118,0.891,0.309l0.335-0.532c-0.343-0.287-0.811-0.464-1.277-0.464
			c-0.715,0-1.299,0.414-1.299,1.203c0,1.397,1.849,0.917,1.849,1.709c0,0.299-0.26,0.452-0.606,0.452
			C15.586,7.915,15.23,7.765,14.92,7.528 M13.245,8.564h0.777V4.607h-0.777V8.564z M10.413,4.607h-0.83l1.265,3.957h0.668
			l1.27-3.957h-0.789l-0.795,2.74L10.413,4.607z M6.915,8.564h2.414V7.878H7.683V6.911h1.395V6.227H7.683V5.293h1.606V4.607H6.915
			V8.564z M4.33,6.442V5.286h0.495c0.386,0,0.635,0.197,0.635,0.581c0,0.369-0.227,0.575-0.635,0.575H4.33z M3.567,8.564H4.33V7.123
			h0.425l0.751,1.441h0.9L5.525,7.002c0.446-0.195,0.71-0.613,0.71-1.146c0-0.729-0.497-1.249-1.333-1.249H3.567V8.564z"/>
	</g>
	<line class="st8" x1="14.7" y1="12.914" x2="22.718" y2="12.914"/>
	<line class="st8" x1="14.7" y1="16.045" x2="22.718" y2="16.045"/>
	<line class="st8" x1="14.7" y1="19.319" x2="22.718" y2="19.319"/>
	<line class="st8" x1="4.287" y1="23.73" x2="23.596" y2="23.73"/>
	<line class="st8" x1="4.287" y1="26.861" x2="23.596" y2="26.861"/>
	<line class="st8" x1="4.287" y1="30.135" x2="23.596" y2="30.135"/>
	<g class="st0">
		<defs>
			<rect id="SVGID_14_" y="-0.337" width="53" height="36"/>
		</defs>
		<clipPath id="SVGID_15_">
			<use xlink:href="#SVGID_14_"  style="overflow:visible;"/>
		</clipPath>
		<path class="st10" d="M41.97,19.82c0.416-0.142,0.844-0.312,1.284-0.508c0.44-0.196,0.838-0.413,1.195-0.651v8.897h2.656V15.203
			h-1.854c-0.262,0.273-0.556,0.532-0.883,0.775c-0.327,0.244-0.668,0.476-1.025,0.695c-0.356,0.221-0.722,0.422-1.096,0.607
			c-0.375,0.184-0.734,0.347-1.079,0.49L41.97,19.82z M35.561,23.956c-0.291,0.345-0.645,0.622-1.061,0.829
			c-0.416,0.208-0.897,0.357-1.444,0.446c-0.546,0.089-1.159,0.14-1.836,0.152c0.024,0.38,0.047,0.748,0.071,1.105
			c0.024,0.357,0.042,0.725,0.054,1.105c1.355-0.012,2.525-0.175,3.512-0.49c0.986-0.315,1.798-0.775,2.434-1.382
			c0.635-0.606,1.105-1.355,1.408-2.246c0.303-0.891,0.455-1.919,0.455-3.084c0-1.771-0.39-3.129-1.168-4.074
			c-0.779-0.945-1.934-1.417-3.468-1.417c-0.749,0-1.388,0.133-1.916,0.401c-0.529,0.267-0.966,0.606-1.311,1.016
			s-0.597,0.865-0.757,1.364c-0.161,0.499-0.241,0.986-0.241,1.462c0,0.57,0.083,1.093,0.25,1.569
			c0.166,0.475,0.424,0.882,0.775,1.221c0.351,0.339,0.799,0.6,1.346,0.784c0.547,0.185,1.206,0.277,1.979,0.277
			c0.214,0,0.473-0.027,0.776-0.081c0.303-0.053,0.579-0.139,0.829-0.258C36.081,23.178,35.852,23.612,35.561,23.956 M33.404,20.462
			c-0.315-0.309-0.472-0.784-0.472-1.426c0-0.214,0.032-0.434,0.098-0.66c0.065-0.226,0.163-0.434,0.294-0.624
			c0.13-0.19,0.303-0.345,0.517-0.463c0.214-0.119,0.463-0.179,0.749-0.179c0.356,0,0.656,0.08,0.9,0.241
			c0.243,0.16,0.437,0.38,0.579,0.66c0.143,0.279,0.244,0.606,0.303,0.98c0.06,0.375,0.095,0.776,0.107,1.204
			c0,0.035-0.003,0.077-0.009,0.124c-0.006,0.048-0.008,0.096-0.008,0.143v0.16c-0.143,0.096-0.363,0.17-0.66,0.223
			c-0.297,0.054-0.583,0.081-0.856,0.081C34.233,20.926,33.719,20.771,33.404,20.462"/>
	</g>
</g>
</svg>
