<?xml version="1.0" encoding="utf-8"?>
<!-- Generator: Adobe Illustrator 21.1.0, SVG Export Plug-In . SVG Version: 6.00 Build 0)  -->
<svg version="1.1" id="Capa_1" xmlns="http://www.w3.org/2000/svg" xmlns:xlink="http://www.w3.org/1999/xlink" x="0px" y="0px"
	 viewBox="0 0 53 35.695" style="enable-background:new 0 0 53 35.695;" xml:space="preserve">
<style type="text/css">
	.st0{clip-path:url(#SVGID_2_);}
	.st1{clip-path:url(#SVGID_4_);fill:#005CA8;}
	.st2{filter:url(#Adobe_OpacityMaskFilter);}
	.st3{clip-path:url(#SVGID_4_);}
	.st4{clip-path:url(#SVGID_4_);mask:url(#SVGID_5_);}
	.st5{opacity:0.2;clip-path:url(#SVGID_9_);fill:#1D1D1B;}
	.st6{clip-path:url(#SVGID_2_);fill:#FFFFFF;}
	.st7{clip-path:url(#SVGID_11_);fill:none;stroke:#005CA8;stroke-width:1.777;stroke-linecap:round;}
	.st8{clip-path:url(#SVGID_2_);fill:none;stroke:#005CA8;stroke-width:1.185;stroke-linecap:round;}
	.st9{clip-path:url(#SVGID_13_);fill:#005CA8;}
	.st10{clip-path:url(#SVGID_15_);fill:#FFFFFF;}
</style>
<g>
	<defs>
		<rect id="SVGID_1_" y="-0.305" width="53" height="36"/>
	</defs>
	<clipPath id="SVGID_2_">
		<use xlink:href="#SVGID_1_"  style="overflow:visible;"/>
	</clipPath>
	<g class="st0">
		<defs>
			<rect id="SVGID_3_" y="-0.305" width="53" height="36"/>
		</defs>
		<clipPath id="SVGID_4_">
			<use xlink:href="#SVGID_3_"  style="overflow:visible;"/>
		</clipPath>
		<path class="st1" d="M25.265,12.448c0,0-1.805,0-1.805,1.805v14.4c0,0,0,1.805,1.805,1.805h25.906c0,0,1.805,0,1.805-1.805v-14.4
			c0,0,0-1.805-1.805-1.805H25.265z"/>
		<defs>
			<filter id="Adobe_OpacityMaskFilter" filterUnits="userSpaceOnUse" x="3.029" y="0" width="25.92" height="33.36">
				<feColorMatrix  type="matrix" values="1 0 0 0 0  0 1 0 0 0  0 0 1 0 0  0 0 0 1 0"/>
			</filter>
		</defs>
		<mask maskUnits="userSpaceOnUse" x="3.029" y="0" width="25.92" height="33.36" id="SVGID_5_">
			<g class="st2">
				<g>
					<defs>
						<rect id="SVGID_6_" x="-5.851" y="-6.96" width="44.16" height="41.28"/>
					</defs>
					<clipPath id="SVGID_7_" class="st3">
						<use xlink:href="#SVGID_6_"  style="overflow:visible;"/>
					</clipPath>
					<g transform="matrix(1 0 0 1 0 0)" style="clip-path:url(#SVGID_7_);">
						
							<image style="overflow:visible;" width="184" height="172" xlink:href="CCC142A559BB1C31.jpg"  transform="matrix(0.24 0 0 0.24 -5.8514 -6.96)">
						</image>
					</g>
				</g>
			</g>
		</mask>
		<g class="st4">
			<g>
				<defs>
					<rect id="SVGID_8_" x="3.029" width="25.92" height="33.36"/>
				</defs>
				<clipPath id="SVGID_9_">
					<use xlink:href="#SVGID_8_"  style="overflow:visible;"/>
				</clipPath>
				<rect x="3.029" y="0" class="st5" width="25.92" height="33.36"/>
			</g>
		</g>
	</g>
	<rect x="1.514" y="1.675" class="st6" width="25.604" height="33.13"/>
	<g class="st0">
		<defs>
			<rect id="SVGID_10_" y="-0.305" width="53" height="36"/>
		</defs>
		<clipPath id="SVGID_11_">
			<use xlink:href="#SVGID_10_"  style="overflow:visible;"/>
		</clipPath>
		<path class="st7" d="M0.97,1.881v29.776c0,0,0.45,3.058,1.609,3.058h25.419c-1.223,0-1.609-3.057-1.609-3.057V1.881H0.97z"/>
	</g>
	<rect x="4.673" y="11.624" class="st8" width="7.776" height="7.695"/>
	<g class="st0">
		<defs>
			<rect id="SVGID_12_" y="-0.305" width="53" height="36"/>
		</defs>
		<clipPath id="SVGID_13_">
			<use xlink:href="#SVGID_12_"  style="overflow:visible;"/>
		</clipPath>
		<path class="st9" d="M21.603,6.978l0.463-1.552l0.469,1.552H21.603z M23.003,8.564h0.836l-1.312-3.957h-0.883l-1.296,3.957h0.794
			l0.275-0.93h1.308L23.003,8.564z M20.529,4.607h-2.883v0.689h1.053v3.268h0.775V5.296h1.055V4.607z M14.974,7.528l-0.342,0.548
			C15.008,8.4,15.477,8.62,16.025,8.62c0.745,0,1.344-0.399,1.344-1.215c0-1.436-1.866-0.919-1.866-1.709
			c0-0.29,0.249-0.458,0.587-0.458c0.285,0,0.62,0.118,0.891,0.309l0.335-0.532c-0.343-0.287-0.811-0.464-1.277-0.464
			c-0.715,0-1.299,0.414-1.299,1.203c0,1.397,1.849,0.917,1.849,1.709c0,0.299-0.26,0.452-0.606,0.452
			C15.64,7.915,15.284,7.765,14.974,7.528 M13.299,8.564h0.777V4.607h-0.777V8.564z M10.467,4.607h-0.83l1.265,3.957h0.668
			l1.27-3.957h-0.789l-0.795,2.74L10.467,4.607z M6.969,8.564h2.414V7.878H7.737V6.911h1.395V6.227H7.737V5.293h1.606V4.607H6.969
			V8.564z M4.384,6.442V5.286h0.495c0.386,0,0.635,0.197,0.635,0.581c0,0.369-0.227,0.575-0.635,0.575H4.384z M3.621,8.564h0.763
			V7.123h0.425L5.56,8.564h0.9L5.579,7.002c0.446-0.195,0.71-0.613,0.71-1.146c0-0.729-0.497-1.249-1.333-1.249H3.621V8.564z"/>
	</g>
	<line class="st8" x1="14.754" y1="12.914" x2="22.772" y2="12.914"/>
	<line class="st8" x1="14.754" y1="16.045" x2="22.772" y2="16.045"/>
	<line class="st8" x1="14.754" y1="19.319" x2="22.772" y2="19.319"/>
	<line class="st8" x1="4.341" y1="23.73" x2="23.65" y2="23.73"/>
	<line class="st8" x1="4.341" y1="26.861" x2="23.65" y2="26.861"/>
	<line class="st8" x1="4.341" y1="30.135" x2="23.65" y2="30.135"/>
	<g class="st0">
		<defs>
			<rect id="SVGID_14_" y="-0.305" width="53" height="36"/>
		</defs>
		<clipPath id="SVGID_15_">
			<use xlink:href="#SVGID_14_"  style="overflow:visible;"/>
		</clipPath>
		<path class="st10" d="M46.696,23.047c-0.06,0.511-0.155,0.951-0.286,1.319c-0.131,0.369-0.309,0.654-0.535,0.856
			c-0.226,0.202-0.505,0.303-0.838,0.303c-0.332,0-0.609-0.101-0.829-0.303c-0.22-0.202-0.398-0.487-0.534-0.856
			c-0.137-0.368-0.235-0.808-0.295-1.319c-0.059-0.511-0.089-1.075-0.089-1.694c0-0.617,0.03-1.179,0.089-1.684
			c0.06-0.505,0.158-0.942,0.295-1.311c0.136-0.368,0.314-0.653,0.534-0.856c0.22-0.201,0.497-0.303,0.829-0.303
			c0.333,0,0.612,0.102,0.838,0.303c0.226,0.203,0.404,0.488,0.535,0.856c0.131,0.369,0.226,0.806,0.286,1.311
			c0.059,0.505,0.089,1.067,0.089,1.684C46.785,21.972,46.755,22.536,46.696,23.047 M48.309,16.584
			c-0.791-1.111-1.881-1.667-3.272-1.667c-0.677,0-1.289,0.143-1.836,0.428c-0.547,0.285-1.016,0.702-1.408,1.248
			c-0.393,0.547-0.693,1.219-0.901,2.015c-0.208,0.796-0.312,1.711-0.312,2.745c0,2.08,0.395,3.676,1.186,4.787
			c0.79,1.112,1.881,1.667,3.271,1.667c1.391,0,2.481-0.555,3.272-1.667c0.79-1.111,1.186-2.707,1.186-4.787
			C49.495,19.285,49.099,17.696,48.309,16.584 M35.615,23.956c-0.291,0.345-0.645,0.622-1.061,0.829
			c-0.416,0.208-0.897,0.357-1.444,0.446c-0.546,0.089-1.159,0.14-1.836,0.152c0.024,0.38,0.047,0.748,0.071,1.105
			c0.024,0.357,0.042,0.725,0.054,1.105c1.355-0.012,2.525-0.175,3.512-0.49c0.986-0.315,1.798-0.775,2.434-1.382
			c0.635-0.606,1.105-1.355,1.408-2.246c0.303-0.891,0.455-1.919,0.455-3.084c0-1.771-0.39-3.129-1.168-4.074
			c-0.779-0.945-1.934-1.417-3.468-1.417c-0.749,0-1.388,0.133-1.916,0.401c-0.529,0.267-0.966,0.606-1.311,1.016
			s-0.597,0.865-0.757,1.364c-0.161,0.499-0.241,0.986-0.241,1.462c0,0.57,0.083,1.093,0.25,1.569
			c0.166,0.475,0.424,0.882,0.775,1.221c0.351,0.339,0.799,0.6,1.346,0.784c0.547,0.185,1.206,0.277,1.979,0.277
			c0.214,0,0.473-0.027,0.776-0.081c0.303-0.053,0.579-0.139,0.829-0.258C36.135,23.178,35.906,23.612,35.615,23.956 M33.458,20.462
			c-0.315-0.309-0.472-0.784-0.472-1.426c0-0.214,0.032-0.434,0.098-0.66c0.065-0.226,0.163-0.434,0.294-0.624
			c0.13-0.19,0.303-0.345,0.517-0.463c0.214-0.119,0.463-0.179,0.749-0.179c0.356,0,0.656,0.08,0.9,0.241
			c0.243,0.16,0.437,0.38,0.579,0.66c0.143,0.279,0.244,0.606,0.303,0.98c0.06,0.375,0.095,0.776,0.107,1.204
			c0,0.035-0.003,0.077-0.009,0.124c-0.006,0.048-0.008,0.096-0.008,0.143v0.16c-0.143,0.096-0.363,0.17-0.66,0.223
			c-0.297,0.054-0.583,0.081-0.856,0.081C34.287,20.926,33.773,20.771,33.458,20.462"/>
	</g>
</g>
</svg>
