<?xml version="1.0" encoding="utf-8"?>
<!-- Generator: Adobe Illustrator 26.0.2, SVG Export Plug-In . SVG Version: 6.00 Build 0)  -->
<svg version="1.1" id="Layer_1" xmlns="http://www.w3.org/2000/svg" xmlns:xlink="http://www.w3.org/1999/xlink" x="0px" y="0px"
	 viewBox="0 0 67.8 41.7" style="enable-background:new 0 0 67.8 41.7;" xml:space="preserve">
<style type="text/css">
	.st0{fill:#D0D0D0;}
	.st1{filter:url(#Adobe_OpacityMaskFilter);}
	.st2{mask:url(#SVGID_1_);}
	.st3{fill:#005DA9;}
	.st4{fill:#FFFFFF;}
	.st5{filter:url(#Adobe_OpacityMaskFilter_00000047039649156883793660000013144921845385349820_);}
	.st6{mask:url(#SVGID_00000088098890412398011060000012570008592400598680_);}
</style>
<g>
	<g>
		<path class="st0" d="M14.7,4.5c0,0-11,0-11,11V25c0,0,0,11,11,11h39.5c0,0,11,0,11-11v-9.5c0,0,0-11-11-11H14.7z"/>
	</g>
	<defs>
		<filter id="Adobe_OpacityMaskFilter" filterUnits="userSpaceOnUse" x="0" y="0" width="67.8" height="38.1">
			<feColorMatrix  type="matrix" values="1 0 0 0 0  0 1 0 0 0  0 0 1 0 0  0 0 0 1 0"/>
		</filter>
	</defs>
	<mask maskUnits="userSpaceOnUse" x="0" y="0" width="67.8" height="38.1" id="SVGID_1_">
		<g class="st1">
			<g>
				<defs>
					<rect id="SVGID_00000006696779998330837610000012085078260613730475_" x="-2.3" y="-2.3" width="72.9" height="43.2"/>
				</defs>
				<clipPath id="SVGID_00000078040871776488393590000015364777564748431800_">
					<use xlink:href="#SVGID_00000006696779998330837610000012085078260613730475_"  style="overflow:visible;"/>
				</clipPath>
				<g style="clip-path:url(#SVGID_00000078040871776488393590000015364777564748431800_);">
					
						<image style="overflow:visible;" width="118" height="70" xlink:href="56DF84ED88BB9CAF.jpg"  transform="matrix(0.6179 0 0 0.617 -2.3213 -2.3227)">
					</image>
				</g>
			</g>
		</g>
	</mask>
	<g class="st2">
		<g>
			<defs>
				<rect id="SVGID_00000067236267524249424470000012442575221609115274_" width="67.8" height="38.1"/>
			</defs>
			<clipPath id="SVGID_00000028321853941451698480000002562155175403396511_">
				<use xlink:href="#SVGID_00000067236267524249424470000012442575221609115274_"  style="overflow:visible;"/>
			</clipPath>
		</g>
	</g>
	<g>
		<path class="st3" d="M12.5,1.5c0,0-11,0-11,11v9.5c0,0,0,11,11,11h39.5c0,0,11,0,11-11v-9.5c0,0,0-11-11-11H12.5z"/>
	</g>
	<g>
		<path class="st4" d="M51.9,33.4H12.5C1.1,33.4,1,22.1,1,21.9v-9.5C1,1.1,12.3,1,12.5,1h39.5c11.3,0,11.5,11.4,11.5,11.5v9.5
			C63.4,33.3,52.1,33.4,51.9,33.4L51.9,33.4z M12.5,2C12,2,2,2.1,2,12.5v9.5c0,0.4,0.1,10.5,10.5,10.5h39.5
			c0.4,0,10.5-0.1,10.5-10.5v-9.5C62.4,12,62.3,2,51.9,2H12.5L12.5,2z"/>
	</g>
	<g>
		<path class="st4" d="M5.3,10.6l-0.7-0.1c0.1-0.3,0.2-0.7,0.3-1l0.7,0.2C5.5,10,5.4,10.3,5.3,10.6L5.3,10.6z M6,8.7L5.4,8.4
			c0.3-0.6,0.7-1.1,1.2-1.5l0.5,0.5C6.7,7.8,6.3,8.2,6,8.7L6,8.7z M8,6.7L7.6,6.1c0.5-0.3,1.1-0.6,1.7-0.8L9.6,6
			C9,6.2,8.5,6.4,8,6.7L8,6.7z"/>
	</g>
	<g>
		<path class="st4" d="M5.1,19.7H4.4v-0.1h0.7V19.7L5.1,19.7z M5.1,18.1H4.4v-2.2h0.7V18.1L5.1,18.1z"/>
	</g>
	<g>
		<path class="st4" d="M10.1,29.6c-0.3-0.1-0.7-0.2-1-0.3l0.2-0.7c0.3,0.1,0.6,0.2,0.9,0.3L10.1,29.6L10.1,29.6z M8,28.8
			c-0.6-0.3-1.1-0.7-1.5-1.2L7,27.1c0.4,0.4,0.8,0.8,1.3,1.1L8,28.8L8,28.8z M5.7,26.6c-0.3-0.5-0.6-1.1-0.8-1.7l0.7-0.2
			c0.2,0.6,0.5,1.1,0.8,1.6L5.7,26.6L5.7,26.6z"/>
	</g>
	<g>
		<path class="st4" d="M49.9,29.8h-0.2v-0.7h0.2V29.8L49.9,29.8z M48.3,29.8h-2.1v-0.7h2.1V29.8L48.3,29.8z M44.9,29.8h-2.1v-0.7
			h2.1V29.8L44.9,29.8z M41.4,29.8h-2.1v-0.7h2.1V29.8L41.4,29.8z M38,29.8h-2.1v-0.7H38V29.8L38,29.8z M34.5,29.8h-2.1v-0.7h2.1
			V29.8L34.5,29.8z M31.1,29.8H29v-0.7h2.1V29.8L31.1,29.8z M27.6,29.8h-2.1v-0.7h2.1V29.8L27.6,29.8z M24.2,29.8h-2.1v-0.7h2.1
			V29.8L24.2,29.8z M20.7,29.8h-2.1v-0.7h2.1V29.8L20.7,29.8z M17.3,29.8h-2.1v-0.7h2.1V29.8L17.3,29.8z"/>
	</g>
	<g>
		<path class="st4" d="M54.9,29.3l-0.2-0.7c0.6-0.2,1.1-0.5,1.6-0.8l0.4,0.6C56.1,28.8,55.5,29.1,54.9,29.3L54.9,29.3z M57.6,27.8
			l-0.5-0.5c0.4-0.4,0.8-0.8,1.1-1.3l0.6,0.4C58.5,26.8,58.1,27.3,57.6,27.8L57.6,27.8z M59.3,25.2l-0.7-0.2
			c0.1-0.3,0.2-0.6,0.3-0.9l0.7,0.1C59.5,24.5,59.4,24.8,59.3,25.2L59.3,25.2z"/>
	</g>
	<g>
		<path class="st4" d="M59.8,18.7h-0.7v-2.2h0.7V18.7L59.8,18.7z M59.8,15h-0.7v-0.1h0.7V15L59.8,15z"/>
	</g>
	<g>
		<path class="st4" d="M58.6,9.9c-0.2-0.6-0.5-1.1-0.8-1.6L58.5,8c0.3,0.5,0.6,1.1,0.8,1.7L58.6,9.9L58.6,9.9z M57.2,7.5
			c-0.4-0.4-0.8-0.8-1.3-1.1l0.4-0.6c0.6,0.3,1.1,0.7,1.5,1.2L57.2,7.5L57.2,7.5z M54.9,5.9c-0.3-0.1-0.6-0.2-0.9-0.3L54.1,5
			c0.3,0.1,0.7,0.2,1,0.3L54.9,5.9L54.9,5.9z"/>
	</g>
	<g>
		<path class="st4" d="M49,5.5H47V4.8H49V5.5L49,5.5z M45.6,5.5h-2.1V4.8h2.1V5.5L45.6,5.5z M42.1,5.5h-2.1V4.8h2.1V5.5L42.1,5.5z
			 M38.7,5.5h-2.1V4.8h2.1V5.5L38.7,5.5z M35.2,5.5h-2.1V4.8h2.1V5.5L35.2,5.5z M31.8,5.5h-2.1V4.8h2.1V5.5L31.8,5.5z M28.3,5.5
			h-2.1V4.8h2.1V5.5L28.3,5.5z M24.9,5.5h-2.1V4.8h2.1V5.5L24.9,5.5z M21.4,5.5h-2.1V4.8h2.1V5.5L21.4,5.5z M18,5.5h-2.1V4.8H18V5.5
			L18,5.5z M14.5,5.5h-0.2V4.8h0.2V5.5L14.5,5.5z"/>
	</g>
	<g>
		<path class="st4" d="M52.1,29.8h-1.3v-0.7h1.3c0,0,0.5,0,1.1-0.1l0.1,0.7C52.7,29.8,52.2,29.8,52.1,29.8L52.1,29.8z M13.4,29.8
			h-1.3c-0.4,0-0.8,0-1.2-0.1l0.1-0.7c0.4,0,0.7,0.1,1.1,0.1h1.3V29.8L13.4,29.8z M4.5,23.4c-0.1-0.7-0.1-1.2-0.1-1.2v-1.4h0.7v1.4
			c0,0,0,0.5,0.1,1.1L4.5,23.4L4.5,23.4z M59.7,23.4L59,23.3c0-0.4,0.1-0.7,0.1-1.1v-1.4h0.7v1.4C59.8,22.6,59.8,23,59.7,23.4
			L59.7,23.4z M59.8,13.9h-0.7v-1.4c0,0,0-0.5-0.1-1.1l0.7-0.1c0.1,0.7,0.1,1.2,0.1,1.2V13.9L59.8,13.9z M5.1,13.9H4.4v-1.4
			c0-0.4,0-0.8,0.1-1.2l0.7,0.1c0,0.4-0.1,0.7-0.1,1.1V13.9L5.1,13.9z M11,5.6l-0.1-0.7c0.7-0.1,1.2-0.1,1.2-0.1h1.3v0.7h-1.3
			C12.1,5.5,11.6,5.5,11,5.6L11,5.6z M53.3,5.6c-0.4,0-0.8-0.1-1.1-0.1h-1.3V4.8h1.3c0.4,0,0.8,0,1.2,0.1L53.3,5.6L53.3,5.6z"/>
	</g>
	<g>
		<g>
			<path class="st4" d="M14.8,18.1c-0.3,0.1-0.5,0.2-0.8,0.3c-0.3,0.1-0.6,0.1-0.8,0.1c-0.8,0-1.5-0.1-2-0.3c-0.6-0.2-1-0.5-1.4-0.8
				c-0.4-0.3-0.6-0.8-0.8-1.2c-0.2-0.5-0.3-1-0.3-1.6c0-0.5,0.1-1,0.2-1.5c0.2-0.5,0.4-1,0.8-1.4c0.3-0.4,0.8-0.8,1.3-1
				c0.5-0.3,1.2-0.4,1.9-0.4c1.6,0,2.7,0.5,3.5,1.4c0.8,1,1.2,2.3,1.2,4.1c0,1.2-0.2,2.2-0.5,3.1c-0.3,0.9-0.8,1.7-1.4,2.3
				c-0.6,0.6-1.5,1.1-2.5,1.4c-1,0.3-2.2,0.5-3.6,0.5c0-0.4,0-0.8-0.1-1.1c0-0.4,0-0.7-0.1-1.1c0.7,0,1.3-0.1,1.9-0.2
				c0.6-0.1,1-0.2,1.5-0.5c0.4-0.2,0.8-0.5,1.1-0.8C14.4,19.1,14.6,18.7,14.8,18.1z M13.5,16.4c0.3,0,0.6,0,0.9-0.1
				c0.3-0.1,0.5-0.1,0.7-0.2v-0.2c0,0,0-0.1,0-0.1c0,0,0-0.1,0-0.1c0-0.4,0-0.8-0.1-1.2c-0.1-0.4-0.2-0.7-0.3-1
				c-0.1-0.3-0.3-0.5-0.6-0.7c-0.2-0.2-0.6-0.2-0.9-0.2c-0.3,0-0.5,0.1-0.8,0.2c-0.2,0.1-0.4,0.3-0.5,0.5c-0.1,0.2-0.2,0.4-0.3,0.6
				c-0.1,0.2-0.1,0.5-0.1,0.7c0,0.7,0.2,1.1,0.5,1.4C12.2,16.2,12.8,16.4,13.5,16.4z"/>
		</g>
		<g>
			<path class="st4" d="M22.6,23.4c-0.3,0-0.7,0-1-0.1c-0.4,0-0.7-0.1-1-0.2c-0.3-0.1-0.6-0.2-0.9-0.2c-0.3-0.1-0.5-0.2-0.7-0.2
				l0.5-2.2c0.3,0.1,0.7,0.3,1.2,0.4c0.5,0.2,1.1,0.2,1.8,0.2c0.8,0,1.4-0.2,1.8-0.5c0.4-0.3,0.6-0.7,0.6-1.3c0-0.3-0.1-0.6-0.2-0.8
				c-0.1-0.2-0.3-0.4-0.6-0.5c-0.2-0.1-0.5-0.2-0.9-0.3c-0.3-0.1-0.7-0.1-1.1-0.1h-1v-2.2h1.2c0.3,0,0.5,0,0.8-0.1
				c0.2,0,0.5-0.1,0.7-0.2c0.2-0.1,0.3-0.3,0.5-0.5c0.1-0.2,0.2-0.4,0.2-0.7c0-0.2,0-0.4-0.1-0.6c-0.1-0.2-0.2-0.3-0.4-0.4
				c-0.2-0.1-0.3-0.2-0.5-0.2c-0.2-0.1-0.4-0.1-0.6-0.1c-0.5,0-1,0.1-1.4,0.2c-0.4,0.2-0.8,0.3-1.2,0.6l-1-2
				c0.2-0.1,0.4-0.2,0.7-0.4c0.3-0.1,0.5-0.3,0.9-0.4c0.3-0.1,0.6-0.2,1-0.3c0.4-0.1,0.7-0.1,1.1-0.1c0.7,0,1.4,0.1,1.9,0.3
				c0.5,0.2,1,0.4,1.3,0.7c0.3,0.3,0.6,0.7,0.8,1.1c0.2,0.4,0.3,0.9,0.3,1.4c0,0.5-0.1,1-0.4,1.4c-0.3,0.5-0.7,0.8-1.1,1.1
				c0.7,0.3,1.2,0.7,1.5,1.2c0.4,0.5,0.5,1.2,0.5,1.9c0,0.6-0.1,1.1-0.3,1.6c-0.2,0.5-0.5,0.9-0.9,1.3c-0.4,0.4-0.9,0.6-1.6,0.8
				C24.2,23.3,23.5,23.4,22.6,23.4z"/>
		</g>
		<g>
			<path class="st4" d="M29.2,16.5h5.2v2.4h-5.2V16.5z"/>
		</g>
		<g>
			<path class="st4" d="M41.4,18.1c-0.3,0.1-0.5,0.2-0.8,0.3c-0.3,0.1-0.6,0.1-0.8,0.1c-0.8,0-1.5-0.1-2-0.3c-0.6-0.2-1-0.5-1.4-0.8
				c-0.4-0.3-0.6-0.8-0.8-1.2c-0.2-0.5-0.3-1-0.3-1.6c0-0.5,0.1-1,0.2-1.5c0.2-0.5,0.4-1,0.8-1.4c0.3-0.4,0.8-0.8,1.3-1
				c0.5-0.3,1.2-0.4,1.9-0.4c1.6,0,2.7,0.5,3.5,1.4c0.8,1,1.2,2.3,1.2,4.1c0,1.2-0.2,2.2-0.5,3.1c-0.3,0.9-0.8,1.7-1.4,2.3
				c-0.6,0.6-1.5,1.1-2.5,1.4c-1,0.3-2.2,0.5-3.6,0.5c0-0.4,0-0.8-0.1-1.1c0-0.4,0-0.7-0.1-1.1c0.7,0,1.3-0.1,1.9-0.2
				c0.6-0.1,1-0.2,1.5-0.5c0.4-0.2,0.8-0.5,1.1-0.8C41,19.1,41.3,18.7,41.4,18.1z M40.1,16.4c0.3,0,0.6,0,0.9-0.1
				c0.3-0.1,0.5-0.1,0.7-0.2v-0.2c0,0,0-0.1,0-0.1c0,0,0-0.1,0-0.1c0-0.4,0-0.8-0.1-1.2c-0.1-0.4-0.2-0.7-0.3-1
				c-0.1-0.3-0.3-0.5-0.6-0.7c-0.2-0.2-0.6-0.2-0.9-0.2c-0.3,0-0.5,0.1-0.8,0.2c-0.2,0.1-0.4,0.3-0.5,0.5c-0.1,0.2-0.2,0.4-0.3,0.6
				c-0.1,0.2-0.1,0.5-0.1,0.7c0,0.7,0.2,1.1,0.5,1.4C38.9,16.2,39.4,16.4,40.1,16.4z"/>
		</g>
		<g>
			<path class="st4" d="M51.7,19.4c0-0.3-0.1-0.7-0.2-0.9c-0.2-0.3-0.4-0.5-0.8-0.7c-0.4-0.2-0.9-0.3-1.6-0.4
				c-0.7-0.1-1.5-0.1-2.5-0.1c0.1-1.1,0.2-2.3,0.3-3.4c0.1-1.2,0.2-2.2,0.2-3.3h6.8v2.3h-4.5c0,0.4-0.1,0.9-0.1,1.3
				c0,0.4-0.1,0.8-0.1,1.1c1.8,0.1,3.1,0.5,3.9,1.2c0.8,0.7,1.3,1.7,1.3,2.9c0,0.6-0.1,1.1-0.3,1.6c-0.2,0.5-0.5,0.9-0.9,1.3
				c-0.4,0.4-0.9,0.6-1.5,0.8c-0.6,0.2-1.3,0.3-2.2,0.3c-0.3,0-0.7,0-1-0.1c-0.4,0-0.7-0.1-1-0.2C47,23.1,46.7,23,46.5,23
				c-0.3-0.1-0.5-0.1-0.6-0.2l0.5-2.2c0.3,0.1,0.7,0.3,1.2,0.4c0.5,0.1,1.1,0.2,1.8,0.2c0.8,0,1.4-0.2,1.8-0.5
				C51.5,20.3,51.7,19.9,51.7,19.4z"/>
		</g>
	</g>
	<defs>
		
			<filter id="Adobe_OpacityMaskFilter_00000031924031700528066430000007115230596018787474_" filterUnits="userSpaceOnUse" x="43.6" y="19.4" width="23.5" height="22.3">
			<feColorMatrix  type="matrix" values="1 0 0 0 0  0 1 0 0 0  0 0 1 0 0  0 0 0 1 0"/>
		</filter>
	</defs>
	
		<mask maskUnits="userSpaceOnUse" x="43.6" y="19.4" width="23.5" height="22.3" id="SVGID_00000106848394804543392680000003094192375732591751_">
		<g style="filter:url(#Adobe_OpacityMaskFilter_00000031924031700528066430000007115230596018787474_);">
			<g>
				<defs>
					<rect id="SVGID_00000046323057726335940490000000340615054980456871_" x="27.3" y="3.1" width="56.2" height="55"/>
				</defs>
				<clipPath id="SVGID_00000054258578047699634850000014332937978383922878_">
					<use xlink:href="#SVGID_00000046323057726335940490000000340615054980456871_"  style="overflow:visible;"/>
				</clipPath>
				<g transform="matrix(1 0 0 1 0 0)" style="clip-path:url(#SVGID_00000054258578047699634850000014332937978383922878_);">
					
						<image style="overflow:visible;" width="91" height="89" xlink:href="56DF84ED88BB9CAD.jpg"  transform="matrix(0.6175 0 0 0.6175 27.3398 3.1407)">
					</image>
				</g>
			</g>
		</g>
	</mask>
	<g style="mask:url(#SVGID_00000106848394804543392680000003094192375732591751_);">
		<g>
			<defs>
				<rect id="SVGID_00000101067310572685049310000003430402618950778755_" x="43.6" y="19.4" width="23.5" height="22.3"/>
			</defs>
			<clipPath id="SVGID_00000096779220861949888280000001680012896097988997_">
				<use xlink:href="#SVGID_00000101067310572685049310000003430402618950778755_"  style="overflow:visible;"/>
			</clipPath>
		</g>
	</g>
	<g>
		<g>
			<path class="st4" d="M60.8,21.1c0-0.1,0-0.1,0-0.2c0-0.1-0.1-0.1-0.2-0.1c-0.3,0-0.7,0-1,0c-1.1,0.1-1.9,0.9-2.3,1.6l-2.7,5.5
				l2.7,0.3L60.8,21.1z"/>
			<path class="st4" d="M57.4,29.2c0,0-0.1,0-0.1,0l-2.7-0.3c-0.3,0-0.6-0.2-0.8-0.5c-0.2-0.3-0.2-0.6,0-0.9l2.7-5.5
				c0.4-0.9,1.5-2,3.1-2.1c0.4,0,0.8,0,1.2,0c0.4,0,0.8,0.3,1,0.6c0.2,0.3,0.2,0.8,0,1.1l-3.4,7.1C58.1,28.9,57.8,29.2,57.4,29.2
				L57.4,29.2z M56.3,27l0.5,0.1l2.5-5.2c-0.5,0.2-0.9,0.6-1,0.9L56.3,27L56.3,27z"/>
		</g>
		<g>
			<path class="st4" d="M55.2,35c-0.1-0.1-0.2-0.1-0.4-0.2c-0.1-0.1-0.2-0.1-0.3-0.1c-0.1-0.1-0.3-0.1-0.5-0.1c-0.1,0-0.1,0-0.2,0
				c0,0,0,0,0,0c0.2-0.2,0.3-0.4,0.5-0.7c0.7-0.9,1-1.3,1-1.4l0.1-0.2l-1.1-0.1c-0.4,0-0.7-0.1-1-0.3c-0.1,0.3-0.1,0.6-0.2,1
				c-0.1,0.4-0.4,1-0.8,1.6c0,0.1-0.4,0.5-0.9,1c0,0,0,0,0,0c0,0,0,0,0,0c-0.1,0.1-0.2,0.2-0.3,0.4c-0.7,0.9-0.8,2.2-0.2,3.1
				c0.2,0.4,0.5,0.7,0.8,0.9c0.1,0.1,0.2,0.1,0.3,0.2c1.3,0.6,2.9,0.2,3.8-1c0.7-0.9,0.8-2.2,0.2-3.1C55.8,35.5,55.5,35.2,55.2,35z
				 M54.6,38.2c-0.5,0.7-1.3,0.9-2,0.6c-0.1,0-0.1-0.1-0.2-0.1c-0.2-0.1-0.3-0.2-0.4-0.4c-0.3-0.5-0.2-1.2,0.2-1.7
				c0.5-0.7,1.3-0.9,2-0.6c0.1,0,0.1,0.1,0.2,0.1c0.2,0.1,0.3,0.2,0.4,0.4C55,37,54.9,37.7,54.6,38.2z"/>
			<path class="st4" d="M53.2,41.3L53.2,41.3c-0.6,0-1.1-0.1-1.7-0.4c-0.2-0.1-0.3-0.2-0.5-0.3c-0.5-0.3-0.9-0.7-1.1-1.2
				c-0.7-1.3-0.6-3,0.3-4.2c0.1-0.2,0.2-0.3,0.4-0.5c0,0,0,0,0,0c0,0,0,0,0,0c0.4-0.4,0.7-0.9,0.8-0.9c0.4-0.7,0.6-1.1,0.7-1.4
				c0.1-0.3,0.2-0.6,0.2-0.9c0.1-0.3,0.2-0.5,0.5-0.7c0.3-0.1,0.6-0.2,0.9-0.1c0.3,0.1,0.5,0.2,0.7,0.2l1.1,0.1
				c0.3,0,0.6,0.2,0.8,0.5c0.2,0.3,0.2,0.6,0,0.9l-0.1,0.2C56.2,33,56,33.1,55.4,34c0.1,0.1,0.2,0.1,0.3,0.2
				c0.5,0.3,0.9,0.8,1.1,1.2c0.7,1.3,0.6,3-0.3,4.2C55.8,40.7,54.5,41.3,53.2,41.3L53.2,41.3z M53.7,36.9c-0.2,0-0.4,0.1-0.6,0.3
				c-0.2,0.2-0.2,0.5-0.1,0.6c0,0,0.1,0.1,0.1,0.1c0.2,0.1,0.5,0,0.7-0.3c0.2-0.2,0.2-0.5,0.1-0.6c0,0-0.1-0.1-0.1-0.1
				C53.8,36.9,53.7,36.9,53.7,36.9L53.7,36.9z"/>
		</g>
		<g>
			<path class="st4" d="M65.9,30c0-0.1-0.1-0.1-0.2-0.1l-11.4-1.2l-1.1-0.1c-0.1,0-0.6,0-1.7,0.1c-0.3,0-0.6,0-0.8,0.1
				c0,0,0,0-0.1,0c0-0.1,0-0.1,0.1-0.2c0.1-0.1,0.1-0.3,0.1-0.5c0-0.1,0.1-0.2,0.1-0.4c0-0.1,0-0.3,0-0.4c0-0.4-0.1-0.8-0.3-1.2
				c-0.5-1-1.6-1.5-2.8-1.4c-1.5,0.1-2.7,1.2-2.8,2.6c0,0.1,0,0.3,0,0.4c0,0.4,0.1,0.8,0.3,1.2c0.5,1,1.6,1.5,2.8,1.4
				c0.2,0,0.3,0,0.5-0.1c0,0,0,0,0,0c0.7-0.2,1.3-0.2,1.3-0.2c0.8,0,1.4,0,1.8,0.2c0.7,0.2,1.1,0.4,1.5,0.6c0.4,0.2,0.8,0.3,1.2,0.4
				l8.4,0.9c0.8,0.1,1.9-0.2,2.6-1.1c0.2-0.2,0.4-0.5,0.5-0.8C65.9,30.1,65.9,30,65.9,30z M49.5,27.6c-0.1,0.7-0.7,1.3-1.6,1.3
				c-0.7,0-1.3-0.2-1.5-0.7c-0.1-0.2-0.1-0.3-0.1-0.5c0-0.1,0-0.1,0-0.2c0.1-0.7,0.7-1.3,1.6-1.3c0.7,0,1.3,0.2,1.5,0.7
				c0.1,0.2,0.1,0.3,0.1,0.5C49.6,27.4,49.6,27.5,49.5,27.6z M55.5,30.6c-0.3,0.2-0.8,0.1-0.9-0.3c-0.2-0.3-0.1-0.8,0.3-0.9
				c0.3-0.2,0.8-0.1,0.9,0.3C55.9,30,55.8,30.4,55.5,30.6z M64.7,30.9c-0.6,0.5-1.3,0.7-1.8,0.6l-0.1,0c-0.1,0-0.2-0.1-0.3-0.2
				c0-0.1,0-0.1,0-0.2c0-0.2,0.2-0.3,0.4-0.3l0.1,0c0.4,0,0.9-0.1,1.3-0.4c0.1-0.1,0.4-0.1,0.5,0c0,0,0,0,0,0.1
				C64.8,30.7,64.8,30.8,64.7,30.9z"/>
			<path class="st4" d="M63,33.1L63,33.1c-0.1,0-0.2,0-0.4,0l-8.4-0.9c-0.6-0.1-1-0.3-1.5-0.5c-0.4-0.2-0.8-0.3-1.4-0.5
				c-0.2-0.1-0.6-0.1-1.3-0.1l-0.2,0c-0.1,0-0.6,0-1.1,0.2c-0.2,0-0.4,0.1-0.6,0.1c-0.1,0-0.2,0-0.3,0c-1.4,0-2.8-0.8-3.4-2
				c-0.3-0.5-0.4-1.1-0.5-1.6c0-0.2,0-0.4,0-0.5c0.2-1.9,1.8-3.4,3.8-3.5c1.6-0.1,3,0.7,3.7,2c0.3,0.5,0.4,1,0.5,1.6
				c0,0.1,0,0.2,0,0.4c0.7-0.1,1.1-0.1,1.2-0.1c0,0,0.1,0,0.2,0l12.5,1.3c0.4,0,0.7,0.3,0.9,0.6c0.2,0.3,0.2,0.8,0,1.1
				c-0.2,0.4-0.4,0.7-0.6,1C65.3,32.7,64,33.1,63,33.1L63,33.1z M56.8,30.4l4.7,0.5c0-0.2,0.1-0.3,0.2-0.5l-4.8-0.5
				C56.8,30.1,56.8,30.3,56.8,30.4L56.8,30.4z M55,30.3l0.1,0c0,0,0.1,0,0.1,0c0.1-0.1,0.2-0.3,0.1-0.4c0,0,0,0,0,0l-0.4,0
				c-0.1,0.1-0.1,0.3-0.1,0.4C54.9,30.2,55,30.2,55,30.3L55,30.3z M52.8,29.6c0.3,0.1,0.5,0.2,0.7,0.3c0-0.1,0-0.2,0-0.3l-0.4,0
				C53.1,29.5,52.9,29.5,52.8,29.6L52.8,29.6z M48,27.1L48,27.1c-0.4,0-0.7,0.3-0.7,0.4l-0.9,0.6l0.9-0.5c0.1,0.1,0.3,0.2,0.5,0.2
				c0.4,0,0.7-0.3,0.7-0.4c0,0,0-0.1,0-0.1C48.5,27.2,48.3,27.1,48,27.1L48,27.1z"/>
		</g>
	</g>
	<g>
		<g>
			<path class="st3" d="M54.7,27.9l2.7,0.3l3.4-7c0-0.1,0-0.1,0-0.2c0-0.1-0.1-0.1-0.2-0.1c-0.3,0-0.7,0-1,0
				c-1.1,0.1-1.9,0.9-2.3,1.6L54.7,27.9z"/>
		</g>
		<g>
			<path class="st3" d="M54.5,38.2c-0.5,0.7-1.3,0.9-2,0.6c-0.1,0-0.1-0.1-0.2-0.1c-0.2-0.1-0.3-0.2-0.4-0.4
				c-0.3-0.5-0.2-1.2,0.2-1.7c0.5-0.7,1.3-0.9,2-0.6c0.1,0,0.1,0.1,0.2,0.1c0.2,0.1,0.3,0.2,0.4,0.4C55,37,54.9,37.6,54.5,38.2
				 M55.1,35c-0.1-0.1-0.2-0.1-0.4-0.2c-0.1-0.1-0.2-0.1-0.3-0.1c-0.1-0.1-0.3-0.1-0.5-0.1c-0.1,0-0.1,0-0.2,0c0,0,0,0,0,0
				c0.2-0.2,0.3-0.4,0.5-0.7c0.7-0.9,1-1.3,1-1.4l0.1-0.2l-1.1-0.1c-0.4,0-0.7-0.1-1-0.3c-0.1,0.3-0.1,0.6-0.2,1
				c-0.1,0.4-0.4,1-0.8,1.6c0,0.1-0.4,0.5-0.9,1c0,0,0,0,0,0c0,0,0,0,0,0c-0.1,0.1-0.2,0.2-0.3,0.4c-0.7,0.9-0.8,2.2-0.2,3.1
				c0.2,0.4,0.5,0.7,0.8,0.9c0.1,0.1,0.2,0.1,0.3,0.2c1.3,0.6,2.9,0.2,3.8-1c0.7-0.9,0.8-2.2,0.2-3.1C55.8,35.5,55.5,35.2,55.1,35"
				/>
		</g>
		<g>
			<path class="st3" d="M47.8,26.1c0.7,0,1.3,0.2,1.5,0.7c0.1,0.2,0.1,0.3,0.1,0.5c0,0.1,0,0.1,0,0.2c-0.1,0.7-0.7,1.3-1.6,1.3
				c-0.7,0-1.3-0.2-1.5-0.7c-0.1-0.2-0.1-0.3-0.1-0.5c0-0.1,0-0.1,0-0.2C46.4,26.8,47,26.2,47.8,26.1 M55.7,29.6
				c0.2,0.3,0.1,0.8-0.3,0.9c-0.3,0.2-0.8,0.1-0.9-0.3c-0.2-0.3-0.1-0.8,0.3-0.9C55.1,29.2,55.5,29.3,55.7,29.6 M62.8,30.9l0.1,0
				c0.4,0,0.9-0.1,1.3-0.4c0.1-0.1,0.4-0.1,0.5,0c0,0,0,0,0,0.1c0.1,0.1,0,0.3-0.1,0.4c-0.6,0.5-1.3,0.7-1.8,0.6l-0.1,0
				c-0.1,0-0.2-0.1-0.3-0.2c0-0.1,0-0.1,0-0.2C62.4,31,62.6,30.8,62.8,30.9 M44.9,27.3c0,0.1,0,0.3,0,0.4c0,0.4,0.1,0.8,0.3,1.2
				c0.5,1,1.6,1.5,2.8,1.4c0.2,0,0.3,0,0.5-0.1c0,0,0,0,0,0c0.7-0.2,1.3-0.2,1.3-0.2c0.8,0,1.4,0,1.8,0.2c0.7,0.2,1.1,0.4,1.5,0.6
				c0.4,0.2,0.8,0.3,1.2,0.4l8.4,0.9c0.8,0.1,1.9-0.2,2.6-1.1c0.2-0.2,0.4-0.5,0.5-0.8c0-0.1,0-0.1,0-0.2c0-0.1-0.1-0.1-0.2-0.1
				l-11.4-1.2l-1.1-0.1c-0.1,0-0.6,0-1.7,0.1c-0.3,0-0.6,0-0.8,0.1c0,0,0,0-0.1,0c0-0.1,0-0.1,0.1-0.2c0.1-0.1,0.1-0.3,0.1-0.5
				c0-0.1,0.1-0.2,0.1-0.4c0-0.1,0-0.3,0-0.4c0-0.4-0.1-0.8-0.3-1.2c-0.5-1-1.6-1.5-2.8-1.4C46.3,24.8,45.1,25.9,44.9,27.3"/>
		</g>
	</g>
</g>
</svg>
