<?xml version="1.0" encoding="utf-8"?>
<!-- Generator: Adobe Illustrator 24.2.3, SVG Export Plug-In . SVG Version: 6.00 Build 0)  -->
<svg version="1.1" id="Capa_1" xmlns="http://www.w3.org/2000/svg" xmlns:xlink="http://www.w3.org/1999/xlink" x="0px" y="0px"
	 viewBox="0 0 504.6 627" style="enable-background:new 0 0 504.6 627;" xml:space="preserve">
<style type="text/css">
	.st0{clip-path:url(#SVGID_2_);fill:none;stroke:#D5D1E9;stroke-width:2.548;stroke-linecap:round;}
	.st1{clip-path:url(#SVGID_4_);fill:none;stroke:#D5D1E9;stroke-width:2.548;stroke-linecap:round;stroke-dasharray:7.695,5.147;}
	.st2{clip-path:url(#SVGID_6_);fill:none;stroke:#D5D1E9;stroke-width:2.548;stroke-linecap:round;stroke-dasharray:7.708,5.16;}
	.st3{clip-path:url(#SVGID_8_);fill:none;stroke:#D5D1E9;stroke-width:2.548;stroke-linecap:round;stroke-dasharray:7.556,5.008;}
	.st4{clip-path:url(#SVGID_10_);fill:none;stroke:#D5D1E9;stroke-width:2.548;stroke-linecap:round;stroke-dasharray:7.705,5.157;}
	.st5{clip-path:url(#SVGID_12_);fill:none;stroke:#D5D1E9;stroke-width:2.548;stroke-linecap:round;}
	.st6{clip-path:url(#SVGID_14_);fill:none;stroke:#D5D1E9;stroke-width:2.548;stroke-linecap:round;}
	.st7{fill:none;stroke:#D5D1E9;stroke-width:2.548;stroke-linecap:round;}
</style>
<g>
	<g>
		<defs>
			<rect id="SVGID_1_" x="68" y="30.1" width="397.5" height="364.9"/>
		</defs>
		<clipPath id="SVGID_2_">
			<use xlink:href="#SVGID_1_"  style="overflow:visible;"/>
		</clipPath>
		<polyline class="st0" points="293.9,40.3 301.8,36.6 296.7,30.9 		"/>
	</g>
	<g>
		<defs>
			<rect id="SVGID_3_" x="68" y="30.1" width="397.5" height="364.9"/>
		</defs>
		<clipPath id="SVGID_4_">
			<use xlink:href="#SVGID_3_"  style="overflow:visible;"/>
		</clipPath>
		<path class="st1" d="M177.6,34c103.7-1.3,277.5-1.4,286.3,70.6"/>
	</g>
	<g>
		<defs>
			<rect id="SVGID_5_" x="68" y="30.1" width="397.5" height="364.9"/>
		</defs>
		<clipPath id="SVGID_6_">
			<use xlink:href="#SVGID_5_"  style="overflow:visible;"/>
		</clipPath>
		<path class="st2" d="M464.3,113.6c-3.9,52.5-95.1,102.3-226.2,56.6"/>
	</g>
	<g>
		<defs>
			<rect id="SVGID_7_" x="68" y="30.1" width="397.5" height="364.9"/>
		</defs>
		<clipPath id="SVGID_8_">
			<use xlink:href="#SVGID_7_"  style="overflow:visible;"/>
		</clipPath>
		<path class="st3" d="M227.3,166.5c-74.8-24.2-154.6,1.1-158.1,53.8"/>
	</g>
	<g>
		<defs>
			<rect id="SVGID_9_" x="68" y="30.1" width="397.5" height="364.9"/>
		</defs>
		<clipPath id="SVGID_10_">
			<use xlink:href="#SVGID_9_"  style="overflow:visible;"/>
		</clipPath>
		<path class="st4" d="M69.1,229.2c1.8,37.8,27.1,167.5,338.6,165"/>
	</g>
	<g>
		<defs>
			<rect id="SVGID_11_" x="68" y="30.1" width="397.5" height="364.9"/>
		</defs>
		<clipPath id="SVGID_12_">
			<use xlink:href="#SVGID_11_"  style="overflow:visible;"/>
		</clipPath>
		<path class="st5" d="M409.7,394.2c1,0,2,0,3,0 M69,221.8c0,0.7,0,1.5,0,2.2c0,0.7,0,1.4,0,2.2 M236.3,169.6
			c-0.9-0.3-1.8-0.6-2.7-1c-0.9-0.3-1.8-0.6-2.7-1 M464.1,106.1c0.1,0.7,0.1,1.5,0.1,2.2c0,0.7,0,1.5,0,2.2 M169.5,34.1
			c1.2,0,2.3,0,3.5,0"/>
	</g>
	<g>
		<defs>
			<rect id="SVGID_13_" x="68" y="30.1" width="397.5" height="364.9"/>
		</defs>
		<clipPath id="SVGID_14_">
			<use xlink:href="#SVGID_13_"  style="overflow:visible;"/>
		</clipPath>
		<polyline class="st6" points="448.8,138.4 451.8,144.2 460.4,142.5 		"/>
	</g>
</g>
<polyline class="st7" points="215.6,156.9 207,161.1 214.7,168.8 "/>
</svg>
