<?xml version="1.0" encoding="utf-8"?>
<!-- Generator: Adobe Illustrator 21.1.0, SVG Export Plug-In . SVG Version: 6.00 Build 0)  -->
<svg version="1.1" id="Capa_1" xmlns="http://www.w3.org/2000/svg" xmlns:xlink="http://www.w3.org/1999/xlink" x="0px" y="0px"
	 viewBox="0 0 258.218 66.616" style="enable-background:new 0 0 258.218 66.616;" xml:space="preserve">
<style type="text/css">
	.st0{clip-path:url(#SVGID_2_);}
	.st1{filter:url(#Adobe_OpacityMaskFilter);}
	.st2{clip-path:url(#SVGID_4_);}
	.st3{clip-path:url(#SVGID_4_);mask:url(#SVGID_5_);}
	.st4{opacity:0.3;clip-path:url(#SVGID_9_);fill:#1D1D1B;}
	.st5{clip-path:url(#SVGID_4_);fill:#F4B4D2;}
	.st6{opacity:0.46;clip-path:url(#SVGID_4_);}
	.st7{clip-path:url(#SVGID_11_);fill:#BFBEB3;}
</style>
<g>
	<defs>
		<rect id="SVGID_1_" width="258.218" height="66.616"/>
	</defs>
	<clipPath id="SVGID_2_">
		<use xlink:href="#SVGID_1_"  style="overflow:visible;"/>
	</clipPath>
	<g class="st0">
		<defs>
			<rect id="SVGID_3_" y="0" width="258.218" height="66.616"/>
		</defs>
		<clipPath id="SVGID_4_">
			<use xlink:href="#SVGID_3_"  style="overflow:visible;"/>
		</clipPath>
		<defs>
			<filter id="Adobe_OpacityMaskFilter" filterUnits="userSpaceOnUse" x="9.6" y="11.52" width="239.04" height="48.96">
				<feColorMatrix  type="matrix" values="1 0 0 0 0  0 1 0 0 0  0 0 1 0 0  0 0 0 1 0"/>
			</filter>
		</defs>
		<mask maskUnits="userSpaceOnUse" x="9.6" y="11.52" width="239.04" height="48.96" id="SVGID_5_">
			<g class="st1">
				<g>
					<defs>
						<rect id="SVGID_6_" x="0" width="259.2" height="67.2"/>
					</defs>
					<clipPath id="SVGID_7_" class="st2">
						<use xlink:href="#SVGID_6_"  style="overflow:visible;"/>
					</clipPath>
					<g style="clip-path:url(#SVGID_7_);">
						
							<image style="overflow:visible;" width="540" height="140" xlink:href="970BC8E7DC15CD23.jpg"  transform="matrix(0.48 0 0 0.48 2.230000e-05 0)">
						</image>
					</g>
				</g>
			</g>
		</mask>
		<g class="st3">
			<g>
				<defs>
					<rect id="SVGID_8_" x="9.6" y="11.52" width="239.04" height="48.96"/>
				</defs>
				<clipPath id="SVGID_9_">
					<use xlink:href="#SVGID_8_"  style="overflow:visible;"/>
				</clipPath>
				<rect x="9.6" y="11.52" class="st4" width="239.04" height="48.96"/>
			</g>
		</g>
		<path class="st5" d="M14.532,55.619c2.464-0.011,2.822,2.057,5.201,1.615c3.842-0.715,4.406,0.643,8.31,0.518
			c3.406-0.109,10.254,0.347,10.254,0.347s4.118,0.046,6.133-0.558c0.594-0.178,1.274-0.17,1.997-0.284
			c2.078-0.329,4.255,0.269,6.277-0.229c1.737-0.426,3.763,0.179,5.585,0.12c1.744-0.056,3.008-1.43,4.719-0.956
			c1.637,0.455,3.37,0.585,5.051,0.731c1.024,0.089,4.581-1.127,5.474-1.215c1.348-0.134,2.854-0.197,4.219-0.142
			c1.8,0.073,5.466,0.958,5.466,0.958s1.721-1.176,3.05-1.194c1.512-0.02,5.037,0.626,5.037,0.626s2.034-1.195,2.802-1.211
			c2.91-0.063,8.599,0.123,8.599,0.123s1.652-0.468,2.674-0.814c1.908-0.646,4.102,1.886,6.121,1.644
			c5.353-0.641,16.071-1.012,16.071-1.012s2.524-0.738,3.734-0.108c1.554,0.808,10.738-0.131,10.738-0.131s7.749,0.396,11.914,0.536
			c1.031,0.034,4.276-0.246,4.919-0.44c1.847-0.556,3.363-1.555,5.376-1.65c1.428-0.067,2.977,1.279,4.408,1.238
			c0.001,0,0.002,0,0.003,0c2.361-0.069,6.973-0.315,8.571,0.06c0.703,0.165,3.988-1.02,7.573-0.872
			c4.566,0.188,9.436,0.327,9.436,0.327l6.602-0.988l8.146-0.274c0,0,1.341,1.351,1.718,1.51c0.599,0.252,4.687-1.695,6.192-0.627
			c1.982-0.752,3.204-1.708,3.204-1.708s1.864,1.379,3.059,1.455c0.827,0.052,11.574,0.214,12.933,0.164
			c1.358-0.05,7.545-1.262,10.371-0.847c-0.011-3.686-2.366-12.52-2.929-16.298c0,0-1.956-3.026-1.344-6.697
			c0,0,1.272-6.044,1.127-10.752c-0.063-2.072-0.949-5.068-0.949-5.068s-1.45,0.101-2.541,0.067
			c-2.85-0.008-123.744,3.316-228.109,6.31C14.319,35.721,14.532,55.619,14.532,55.619"/>
		<g class="st6">
			<g>
				<defs>
					<rect id="SVGID_10_" x="80.965" y="-17.121" width="99.674" height="57.951"/>
				</defs>
				<clipPath id="SVGID_11_">
					<use xlink:href="#SVGID_10_"  style="overflow:visible;"/>
				</clipPath>
				<path class="st7" d="M160.261,7.43l-21.407,0.361l-20.447-0.086L97.539,7.002c-0.038,0.258-1.33,0.377-1.41,0.643
					C96.082,7.8,96.795,8.185,96.2,8.751c-0.839,0.798,1.152,2.075-0.594,2.638c-0.779,0.251-0.954,0.344-0.818,0.366
					c0.121,0.02,0.489-0.016,0.897-0.045c0.408-0.029,0.857-0.051,1.141-0.004c0.261,0.043,0.381,0.145,0.198,0.354
					c-0.723,0.829-1.113,0.884-2.596,1.214c-1.392,0.629-0.316,1.03,2.616,2.073c2.361,0.839-4.64,1.095-3.045,1.358
					c2.553,0.421,1.733,0.3,1.391,1.433c-0.107,0.356,1.096,0.477,1.194,0.744c0.458,1.246-2.386,1.314-1.335,2.406
					c0.427,0.443,4.131,1.118,0.26,0.481c-1.886-0.311,0.773,0.972,1.679,1.151l7.652,0.167l24.532,0.65l21.605,0.276l10.608-0.17
					c0.978-0.129,1.861-0.328,2.793-0.525c0.164-0.034,0.536-0.049,0.449-0.145c-0.063-0.07-1.67-0.301-1.001-0.712
					c1.069-0.655-1.151-1.529-0.299-1.69c5.148-0.975-3.047-0.696,0.306-2.357c0.864-0.428-1.661-2.311-2.108-3.083
					c-0.571-0.984-1.146-3.699-1.956-4.261c-1.198-0.834,0.821-1.507,0.666-1.533c-2.855-0.47-0.461-1.121-0.398-2.035L160.261,7.43
					z"/>
			</g>
		</g>
	</g>
</g>
</svg>
