<svg id="Capa_1" data-name="Capa 1" xmlns="http://www.w3.org/2000/svg" viewBox="0 0 467.65 367.27"><defs><style>.cls-1,.cls-2{fill:none;stroke:#fff;stroke-miterlimit:10;stroke-width:2px;}.cls-2{stroke-dasharray:6.02 6.02;}</style></defs><title>caminito-05</title><path class="cls-1" d="M134.46,21l3-.2"/><path class="cls-2" d="M143.45,20.46c48.31-2.69,274.8-11.12,274.28,67.26-.49,73.37-115.2,70-326.61,30.07C-4.62,99.71-7,256.45,106.65,233.19c112-22.92,122.15-16.14,211.17-14.69,122.73,2,65.28,88.43,10.87,120.15"/><path class="cls-1" d="M326.06,340.14c-.88.49-1.76,1-2.64,1.42"/><polyline class="cls-1" points="325.32 15.86 329.02 28.38 317.82 34.55"/><polyline class="cls-1" points="214.74 207.06 223.28 216.85 215.65 227.21"/><polyline class="cls-1" points="208.21 147.16 200.77 136.48 209.47 127.03"/></svg>