<svg id="Capa_1" data-name="Capa 1" xmlns="http://www.w3.org/2000/svg" viewBox="0 0 467.65 367.27"><defs><style>.cls-1,.cls-2{fill:none;stroke:#fff;stroke-miterlimit:10;stroke-width:2px;}.cls-2{stroke-dasharray:6 6;}</style></defs><title>caminito</title><path class="cls-1" d="M134.46,21l3-.2"/><path class="cls-2" d="M143.43,20.46c48.28-2.68,274.82-11.12,274.3,67.26-.49,73.37-273.56,39.52-365.67,49.84-49.51,5.54-50.72,71.63-6.59,78.59,73.81,11.64,193,20.69,287.49,18.28,148.34-3.79,94.16,98.43,15,92.05"/><path class="cls-1" d="M344.92,326.19c-1-.12-2-.25-3-.4"/><polyline class="cls-1" points="325.32 15.86 329.02 28.38 317.82 34.55"/><polyline class="cls-1" points="213.29 223.11 221.83 232.91 214.19 243.26"/><polyline class="cls-1" points="188.03 146.53 180.59 135.85 189.29 126.4"/></svg>