<svg id="Capa_1" data-name="Capa 1" xmlns="http://www.w3.org/2000/svg" viewBox="0 0 467.65 367.27"><defs><style>.cls-1,.cls-2{fill:none;stroke:#fff;stroke-miterlimit:10;stroke-width:2px;}.cls-2{stroke-dasharray:6.02 6.02;}.cls-3{fill:#fff;}</style></defs><title>fondo</title><path class="cls-1" d="M134.46,21l3-.2"/><path class="cls-2" d="M143.45,20.46c48.31-2.69,274.8-11.12,274.28,67.26-.49,73.37-115.2,70-326.61,30.07C-4.62,99.71-7,256.45,106.65,233.19c112-22.92,122.15-16.14,211.17-14.69,122.73,2,65.28,88.43,10.87,120.15"/><path class="cls-1" d="M326.06,340.14c-.88.49-1.76,1-2.64,1.42"/><path class="cls-3" d="M199.26,135.38s0,0,0,0l0,.05,0,0,0,0,0,0s0,0,0,0l0,.05,0,.05s0,0,0,0a.14.14,0,0,1,0,.06s0,0,0,0a.78.78,0,0,0,0,.22v.1s0,0,0,.06v0a.11.11,0,0,1,0,.05.13.13,0,0,1,0,.06s0,0,0,0a.14.14,0,0,0,0,.06l0,0a.14.14,0,0,0,0,.06.08.08,0,0,1,0,.05l0,0,.06.09,5.67,7.56a1.14,1.14,0,0,0,1.52.3,1.08,1.08,0,0,0,.27-1.56l-4.12-5.5.3-2.17,5.45-4.09a1.14,1.14,0,0,0,.32-1.5,1.11,1.11,0,0,0-.77-.49,1.09,1.09,0,0,0-.81.21l-7.61,5.71-.09.07Z"/><path class="cls-3" d="M214.45,216.33s0,0,0,0l0,0,0,0,0,0s0,0,0,.05,0,0,0,.05,0,0,0,0a.43.43,0,0,1,0,.05.08.08,0,0,1,0,0s0,0,0,.06,0,0,0,0a1.62,1.62,0,0,1,0,.22.06.06,0,0,1,0,0v.07a.07.07,0,0,0,0,.05.09.09,0,0,0,0,0s0,0,0,.05,0,0,0,0,0,0,0,.05a.08.08,0,0,1,0,.05l0,0,0,.05,0,0,0,0-.07.09-6.4,7a1.12,1.12,0,0,1-1.54.15,1.09,1.09,0,0,1-.11-1.58l4.65-5.06-.09-2.19-5-4.61a1.09,1.09,0,0,1,.65-1.94,1.1,1.1,0,0,1,.78.29l7,6.44.07.08Z"/><path class="cls-3" d="M344.71,31a.17.17,0,0,1,0,.05.14.14,0,0,1,0,.06l0,0s0,0,0,.06a3731640636971.95,3731640636971.95,0,0,1,0,.1.07.07,0,0,0,0,.05v.22a1.55,1.55,0,0,1,0,.21s0,0,0,0a.14.14,0,0,0,0,.06l0,.05s0,0,0,0a.08.08,0,0,0,0,.05l0,0,0,0,0,0,0,0,0,0,0,0,0,0-.09.07-7.77,5.37a1.14,1.14,0,0,1-1.54-.19,1.09,1.09,0,0,1,.24-1.57l5.65-3.91.4-2.15-3.88-5.61a1.14,1.14,0,0,1,.18-1.52,1.12,1.12,0,0,1,.89-.23,1.09,1.09,0,0,1,.7.46l5.41,7.83.06.09Z"/></svg>