<svg id="Capa_1" data-name="Capa 1" xmlns="http://www.w3.org/2000/svg" viewBox="0 0 467.65 367.27"><defs><style>.cls-1,.cls-2{fill:none;stroke:#fff;stroke-miterlimit:10;stroke-width:2px;}.cls-2{stroke-dasharray:5.98 5.98;}.cls-3{fill:#fff;}</style></defs><title>fondo</title><path class="cls-1" d="M134.46,21l3-.2"/><path class="cls-2" d="M143.41,20.47c48.22-2.69,274.84-11.15,274.32,67.25-.49,73.37-115.2,70-326.61,30.07C-4.62,99.71-8.19,249.43,106.65,233.19c112.36-15.9,160-19.4,211.17-14.69,132.93,12.23,65.89,89.1,10.87,120.2"/><path class="cls-1" d="M326.07,340.15l-2.65,1.41"/><path class="cls-3" d="M202.44,135.91l0,0,0,.05,0,0,0,0,0,0,0,0s0,0,0,.05l0,.05s0,0,0,0,0,0,0,.06v0a.78.78,0,0,0,0,.22v.16a.09.09,0,0,1,0,0,.43.43,0,0,0,0,.05s0,0,0,.06l0,0s0,0,0,.06l0,0a.14.14,0,0,1,0,.06l0,.05,0,0,.07.09L208,144.9a1.14,1.14,0,0,0,1.52.3,1.1,1.1,0,0,0,.27-1.57l-4.13-5.49L206,136l5.45-4.09a1.13,1.13,0,0,0,.31-1.5,1.07,1.07,0,0,0-.77-.49,1.06,1.06,0,0,0-.81.21l-7.61,5.71-.08.07Z"/><path class="cls-3" d="M221,218.44l0,.05,0,0,0,0s0,0,0,0l0,0a109894712553.66,109894712553.66,0,0,1,0,.1.43.43,0,0,0,0,0s0,0,0,.06,0,0,0,.06v0a1.62,1.62,0,0,1,0,.22s0,0,0,0v.06s0,0,0,.06a.11.11,0,0,1,0,0s0,0,0,.05l0,0s0,0,0,.05,0,0,0,.05a.08.08,0,0,0,0,0l0,0,0,.05,0,0-.07.09-6.4,7a1.13,1.13,0,0,1-1.54.15,1.09,1.09,0,0,1-.11-1.58l4.65-5.06-.09-2.19-5-4.61a1.14,1.14,0,0,1-.16-1.52,1.07,1.07,0,0,1,.82-.42,1.06,1.06,0,0,1,.78.29l7,6.44.07.08Z"/><path class="cls-3" d="M343.3,31s0,0,0,.05a.14.14,0,0,1,0,.06s0,0,0,0a.13.13,0,0,1,0,.06s0,0,0,0a.11.11,0,0,0,0,.05v.05a.13.13,0,0,1,0,.06v.16a1.55,1.55,0,0,1,0,.21.08.08,0,0,1,0,0,.14.14,0,0,1,0,.06s0,0,0,.05,0,0,0,0l0,.05s0,0,0,0l0,0,0,0,0,0s0,0,0,0l0,0,0,0-.09.07-7.78,5.37a1.15,1.15,0,0,1-1.54-.19,1.09,1.09,0,0,1,.25-1.57l5.65-3.91.4-2.15L336,24.31a1.14,1.14,0,0,1,.18-1.52,1.12,1.12,0,0,1,.89-.23,1.09,1.09,0,0,1,.7.46l5.41,7.83a.41.41,0,0,1,0,.09Z"/></svg>