<?xml version="1.0" encoding="utf-8"?>
<!-- Generator: Adobe Illustrator 24.2.3, SVG Export Plug-In . SVG Version: 6.00 Build 0)  -->
<svg version="1.1" id="Layer_1" xmlns="http://www.w3.org/2000/svg" xmlns:xlink="http://www.w3.org/1999/xlink" x="0px" y="0px"
	 viewBox="0 0 438 579" style="enable-background:new 0 0 438 579;" xml:space="preserve">
<style type="text/css">
	.st0{fill:#938BBD;}
</style>
<g>
	<path class="st0" d="M366,560.4c-0.1,0-0.2,0-0.4-0.1c-0.5-0.2-0.8-0.8-0.6-1.3c0.6-1.6,1.3-3.5,2-5.5c0.2-0.5,0.8-0.8,1.3-0.6
		s0.8,0.8,0.6,1.3c-0.7,2.1-1.4,3.9-2,5.6C366.8,560.2,366.4,560.4,366,560.4L366,560.4z M369.3,551.2c-0.1,0-0.2,0-0.3-0.1
		c-0.5-0.2-0.8-0.7-0.6-1.3c0.6-1.8,1.2-3.6,1.9-5.6c0.2-0.5,0.7-0.8,1.3-0.6c0.5,0.2,0.8,0.7,0.6,1.3c-0.6,2-1.3,3.9-1.9,5.6
		C370.1,550.9,369.7,551.2,369.3,551.2L369.3,551.2z M372.3,541.8c-0.1,0-0.2,0-0.3,0c-0.5-0.2-0.8-0.7-0.7-1.3
		c0.6-1.8,1.1-3.7,1.7-5.6c0.2-0.5,0.7-0.8,1.2-0.7c0.5,0.2,0.8,0.7,0.7,1.2c-0.6,2-1.2,3.8-1.7,5.7
		C373.2,541.6,372.8,541.8,372.3,541.8L372.3,541.8z M375.1,532.4c-0.1,0-0.2,0-0.3,0c-0.5-0.1-0.8-0.7-0.7-1.2
		c0.5-1.9,1-3.7,1.6-5.7c0.1-0.5,0.7-0.8,1.2-0.7s0.9,0.7,0.7,1.2c-0.5,1.9-1,3.9-1.6,5.7C376,532.1,375.6,532.4,375.1,532.4
		L375.1,532.4z M377.7,522.9c-0.1,0-0.2,0-0.2,0c-0.5-0.1-0.9-0.7-0.7-1.2c0.5-1.9,0.9-3.8,1.4-5.7c0.1-0.5,0.7-0.9,1.2-0.7
		c0.5,0.1,0.9,0.7,0.7,1.2c-0.5,2-0.9,3.9-1.4,5.8C378.5,522.6,378.1,522.9,377.7,522.9L377.7,522.9z M380,513.4c-0.1,0-0.1,0-0.2,0
		c-0.5-0.1-0.9-0.7-0.8-1.2c0.4-1.9,0.8-3.8,1.2-5.8c0.1-0.5,0.6-0.9,1.2-0.8c0.5,0.1,0.9,0.6,0.8,1.2c-0.4,2-0.8,3.9-1.2,5.8
		C380.8,513.1,380.4,513.4,380,513.4L380,513.4z M381.9,503.8c-0.1,0-0.1,0-0.2,0c-0.5-0.1-0.9-0.6-0.8-1.2c0.4-1.9,0.7-3.9,1-5.8
		c0.1-0.5,0.6-0.9,1.1-0.8s0.9,0.6,0.8,1.1c-0.3,1.9-0.6,3.9-1,5.8C382.8,503.4,382.4,503.8,381.9,503.8L381.9,503.8z M383.5,494.1
		h-0.1c-0.5-0.1-0.9-0.6-0.8-1.1c0.3-2,0.5-3.9,0.8-5.8c0.1-0.5,0.6-0.9,1.1-0.9c0.5,0.1,0.9,0.6,0.9,1.1c-0.2,1.9-0.5,3.9-0.8,5.9
		C384.4,493.7,384,494.1,383.5,494.1L383.5,494.1z M384.7,484.3C384.7,484.3,384.6,484.3,384.7,484.3c-0.6-0.1-1-0.5-1-1.1
		c0.2-2,0.4-3.9,0.5-5.9c0-0.6,0.5-1,1.1-0.9c0.6,0,1,0.5,0.9,1.1c-0.1,1.9-0.3,3.9-0.5,5.9C385.6,483.9,385.2,484.3,384.7,484.3
		L384.7,484.3z M385.4,474.5L385.4,474.5c-0.6,0-1-0.5-1-1c0.1-2,0.1-4,0.2-5.9c0-0.5,0.5-1,1-1l0,0c0.6,0,1,0.5,1,1
		c0,1.9-0.1,3.9-0.2,5.9C386.4,474.1,385.9,474.5,385.4,474.5L385.4,474.5z M385.5,464.7c-0.5,0-1-0.4-1-1c0-2-0.1-3.9-0.3-5.9
		c0-0.6,0.4-1,0.9-1.1c0.5,0,1,0.4,1.1,0.9c0.1,1.9,0.2,3.9,0.3,6C386.5,464.2,386.1,464.7,385.5,464.7L385.5,464.7L385.5,464.7z
		 M385,454.9c-0.5,0-0.9-0.4-1-0.9c-0.2-2-0.4-3.9-0.7-5.8c-0.1-0.5,0.3-1.1,0.8-1.1c0.5-0.1,1.1,0.3,1.1,0.8
		c0.3,1.9,0.6,3.9,0.8,5.9C386.1,454.3,385.7,454.8,385,454.9C385,454.9,385,454.9,385,454.9L385,454.9z M383.5,445.2
		c-0.5,0-0.9-0.3-1-0.8c-0.4-1.9-0.8-3.9-1.3-5.7c-0.1-0.5,0.2-1.1,0.7-1.2s1.1,0.2,1.2,0.7c0.5,1.9,1,3.8,1.4,5.8
		c0.1,0.5-0.2,1.1-0.8,1.2C383.6,445.2,383.6,445.2,383.5,445.2L383.5,445.2z M381,435.7c-0.4,0-0.8-0.3-0.9-0.7
		c-0.6-1.9-1.3-3.7-2.1-5.4c-0.2-0.5,0-1.1,0.5-1.3c0.5-0.2,1.1,0,1.3,0.5c0.8,1.8,1.5,3.7,2.1,5.6c0.2,0.5-0.1,1.1-0.6,1.3
		C381.2,435.7,381.1,435.7,381,435.7L381,435.7z M377.2,426.7c-0.4,0-0.7-0.2-0.9-0.5c-0.9-1.7-1.9-3.4-2.9-5
		c-0.3-0.5-0.2-1.1,0.3-1.4s1.1-0.2,1.4,0.3c1.1,1.6,2.1,3.4,3,5.2c0.3,0.5,0.1,1.1-0.4,1.3C377.5,426.6,377.4,426.7,377.2,426.7
		L377.2,426.7z M371.9,418.4c-0.3,0-0.6-0.1-0.8-0.4c-1.2-1.5-2.5-3-3.8-4.3c-0.4-0.4-0.4-1,0-1.4s1-0.4,1.4,0
		c1.4,1.4,2.7,2.9,4,4.5c0.3,0.4,0.3,1.1-0.2,1.4C372.4,418.3,372.2,418.4,371.9,418.4L371.9,418.4z M365.2,411.3
		c-0.2,0-0.5-0.1-0.6-0.2c-1.5-1.2-3-2.4-4.6-3.4c-0.5-0.3-0.6-0.9-0.3-1.4c0.3-0.5,0.9-0.6,1.4-0.3c1.7,1.1,3.3,2.3,4.8,3.6
		c0.4,0.4,0.5,1,0.1,1.4C365.7,411.2,365.4,411.3,365.2,411.3L365.2,411.3z M357.1,405.8c-0.2,0-0.3,0-0.5-0.1
		c-1.7-0.9-3.4-1.7-5.2-2.5c-0.5-0.2-0.8-0.8-0.5-1.3c0.2-0.5,0.8-0.8,1.3-0.5c1.9,0.8,3.7,1.6,5.4,2.6c0.5,0.3,0.7,0.9,0.4,1.4
		C357.8,405.6,357.4,405.8,357.1,405.8L357.1,405.8z M348.1,401.9c-0.1,0-0.2,0-0.3-0.1c-1.8-0.6-3.7-1.1-5.6-1.6
		c-0.5-0.1-0.9-0.7-0.7-1.2c0.1-0.5,0.7-0.9,1.2-0.7c2,0.5,3.9,1,5.8,1.6c0.5,0.2,0.8,0.7,0.6,1.3
		C348.9,401.6,348.5,401.9,348.1,401.9L348.1,401.9z M338.6,399.5c-0.1,0-0.1,0-0.2,0c-1.9-0.3-3.8-0.6-5.8-0.8
		c-0.5-0.1-0.9-0.6-0.9-1.1c0.1-0.5,0.5-0.9,1.1-0.9c2,0.2,4,0.5,5.9,0.8c0.5,0.1,0.9,0.6,0.8,1.2
		C339.5,399.2,339.1,399.5,338.6,399.5L338.6,399.5z M328.9,398.3C328.9,398.3,328.8,398.3,328.9,398.3c-2-0.1-3.9-0.2-5.9-0.2
		c-0.6,0-1-0.5-1-1c0-0.6,0.5-1,1-1l0,0c2,0,4,0.1,6,0.2c0.6,0,1,0.5,0.9,1.1C329.8,397.9,329.4,398.3,328.9,398.3L328.9,398.3z"/>
</g>
<g>
	<path class="st0" d="M173.2,404.9h-2.5c-0.6,0-1-0.5-1-1c0-0.6,0.4-1,1-1l0,0h2.5c1.2,0,2.3,0,3.5,0l0,0c0.6,0,1,0.4,1,1
		s-0.4,1-1,1C175.5,404.9,174.4,404.9,173.2,404.9L173.2,404.9z M166.7,404.9L166.7,404.9c-2,0-4,0-6-0.1c-0.6,0-1-0.5-1-1
		c0-0.6,0.5-1,1-1c2,0,4,0,6,0.1c0.6,0,1,0.5,1,1S167.3,404.9,166.7,404.9L166.7,404.9z M180.6,404.9c-0.5,0-1-0.4-1-1s0.4-1,1-1
		c2,0,4,0,6-0.1c0.6,0,1,0.4,1,1s-0.4,1-1,1C184.6,404.8,182.6,404.8,180.6,404.9C180.7,404.9,180.6,404.9,180.6,404.9L180.6,404.9z
		 M190.6,404.7c-0.5,0-1-0.4-1-1s0.4-1,1-1c2,0,4-0.1,6-0.1c0.6,0,1,0.4,1,1s-0.4,1-1,1C194.6,404.7,192.6,404.7,190.6,404.7
		L190.6,404.7L190.6,404.7z M156.8,404.7L156.8,404.7c-2,0-4-0.1-6-0.1c-0.6,0-1-0.5-1-1c0-0.6,0.5-1,1-1c2,0.1,4,0.1,6,0.1
		c0.6,0,1,0.5,1,1C157.8,404.3,157.3,404.7,156.8,404.7L156.8,404.7z M200.5,404.5c-0.5,0-1-0.4-1-1s0.4-1,1-1c2,0,4-0.1,6-0.2
		c0.6,0,1,0.4,1,1s-0.4,1-1,1C204.5,404.4,202.5,404.5,200.5,404.5L200.5,404.5L200.5,404.5z M146.9,404.5
		C146.9,404.5,146.8,404.5,146.9,404.5c-2-0.1-4-0.1-6-0.2c-0.6,0-1-0.5-1-1c0-0.6,0.5-1,1-1c2,0.1,4,0.2,6,0.2c0.6,0,1,0.5,1,1
		C147.8,404.1,147.4,404.5,146.9,404.5L146.9,404.5z M210.5,404.2c-0.5,0-1-0.4-1-1s0.4-1,1-1c2-0.1,4-0.1,6-0.2c0.6,0,1,0.4,1,1
		s-0.4,1-1,1C214.5,404.1,212.5,404.2,210.5,404.2L210.5,404.2L210.5,404.2z M136.9,404.1L136.9,404.1c-2-0.1-4-0.2-6-0.3
		c-0.6,0-1-0.5-0.9-1.1c0-0.6,0.5-1,1.1-0.9c2,0.1,4,0.2,6,0.3c0.6,0,1,0.5,1,1C137.9,403.7,137.5,404.1,136.9,404.1L136.9,404.1z
		 M220.4,403.9c-0.5,0-1-0.4-1-1s0.4-1,1-1c2-0.1,4-0.2,6-0.2c0.5,0,1,0.4,1,1s-0.4,1-1,1C224.4,403.7,222.4,403.8,220.4,403.9
		L220.4,403.9L220.4,403.9z M127,403.5L127,403.5c-2.1-0.1-4.1-0.3-6-0.4c-0.6,0-1-0.5-0.9-1.1c0-0.6,0.5-1,1.1-0.9
		c2,0.1,3.9,0.3,5.9,0.4c0.6,0,1,0.5,0.9,1.1C128,403.1,127.5,403.5,127,403.5L127,403.5z M230.3,403.5c-0.5,0-1-0.4-1-1s0.4-1,1-1
		c2-0.1,4-0.2,5.9-0.3c0.5,0,1,0.4,1,1s-0.4,1-0.9,1C234.3,403.3,232.3,403.4,230.3,403.5L230.3,403.5L230.3,403.5z M240.2,403
		c-0.5,0-1-0.4-1-0.9c0-0.6,0.4-1,0.9-1c2-0.1,4-0.2,6-0.3c0.5,0,1,0.4,1.1,0.9c0,0.6-0.4,1-0.9,1.1
		C244.2,402.8,242.2,402.9,240.2,403L240.2,403L240.2,403z M117.1,402.8C117.1,402.8,117,402.8,117.1,402.8c-2.1-0.2-4.1-0.4-6-0.5
		c-0.5-0.1-1-0.5-0.9-1.1s0.5-1,1.1-0.9c2,0.2,3.9,0.4,5.9,0.5c0.5,0,1,0.5,0.9,1.1C118.1,402.4,117.6,402.8,117.1,402.8
		L117.1,402.8z M250.1,402.5c-0.5,0-1-0.4-1-0.9c0-0.6,0.4-1,0.9-1.1c2-0.1,4-0.2,6-0.3c0.5,0,1,0.4,1.1,0.9c0,0.6-0.4,1-0.9,1.1
		C254.2,402.3,252.2,402.4,250.1,402.5C250.2,402.5,250.1,402.5,250.1,402.5L250.1,402.5z M260,401.9c-0.5,0-1-0.4-1-0.9
		c0-0.6,0.4-1,0.9-1.1l6-0.4c0.6,0,1,0.4,1.1,0.9c0,0.6-0.4,1-0.9,1.1L260,401.9C260.1,401.9,260.1,401.9,260,401.9L260,401.9z
		 M107.2,401.9L107.2,401.9c-2.1-0.2-4.1-0.4-6-0.7c-0.5-0.1-0.9-0.6-0.9-1.1c0.1-0.5,0.6-0.9,1.1-0.9c2,0.2,3.9,0.5,5.9,0.7
		c0.5,0.1,0.9,0.6,0.9,1.1C108.1,401.5,107.7,401.9,107.2,401.9L107.2,401.9z M270,401.3c-0.5,0-1-0.4-1-0.9c0-0.6,0.4-1,0.9-1.1
		l6-0.4c0.5,0,1,0.4,1.1,0.9c0,0.6-0.4,1-0.9,1.1L270,401.3L270,401.3L270,401.3z M279.9,400.7c-0.5,0-1-0.4-1-0.9
		c0-0.6,0.4-1,0.9-1.1l6-0.4c0.5,0,1,0.4,1.1,0.9c0,0.6-0.4,1-0.9,1.1L279.9,400.7L279.9,400.7L279.9,400.7z M97.3,400.7L97.3,400.7
		c-2.1-0.3-4.1-0.5-6-0.8c-0.5-0.1-0.9-0.6-0.8-1.1s0.6-0.9,1.1-0.8c1.9,0.3,3.9,0.6,5.9,0.8c0.5,0.1,0.9,0.6,0.9,1.1
		C98.3,400.3,97.8,400.7,97.3,400.7L97.3,400.7z M289.8,400.1c-0.5,0-1-0.4-1-0.9c0-0.6,0.4-1,0.9-1.1l6-0.4c0.6,0,1,0.4,1.1,0.9
		c0,0.6-0.4,1-0.9,1.1L289.8,400.1L289.8,400.1L289.8,400.1z M299.7,399.4c-0.5,0-1-0.4-1-0.9c0-0.6,0.4-1,0.9-1.1l6-0.4
		c0.6,0,1,0.4,1.1,0.9c0,0.6-0.4,1-0.9,1.1L299.7,399.4C299.8,399.4,299.7,399.4,299.7,399.4L299.7,399.4z M87.5,399.3
		c-0.1,0-0.1,0-0.2,0c-2-0.3-4-0.7-5.9-1c-0.5-0.1-0.9-0.6-0.8-1.2c0.1-0.5,0.6-0.9,1.2-0.8c1.9,0.4,3.9,0.7,5.9,1
		c0.5,0.1,0.9,0.6,0.8,1.1S88,399.3,87.5,399.3L87.5,399.3z M77.7,397.5c-0.1,0-0.1,0-0.2,0c-2-0.4-4-0.8-5.9-1.3
		c-0.5-0.1-0.9-0.7-0.7-1.2c0.1-0.5,0.7-0.9,1.2-0.7c1.9,0.4,3.8,0.9,5.8,1.3c0.5,0.1,0.9,0.6,0.8,1.2
		C78.6,397.1,78.2,397.5,77.7,397.5L77.7,397.5z M68.1,395.2c-0.1,0-0.2,0-0.2,0c-2-0.5-3.9-1-5.8-1.6c-0.5-0.2-0.8-0.7-0.7-1.2
		c0.2-0.5,0.7-0.8,1.2-0.7c1.8,0.5,3.8,1.1,5.7,1.6c0.5,0.1,0.9,0.7,0.7,1.2C68.9,394.9,68.5,395.2,68.1,395.2L68.1,395.2z
		 M58.5,392.5c-0.1,0-0.2,0-0.3,0c-2-0.6-3.9-1.3-5.7-2c-0.5-0.2-0.8-0.8-0.6-1.3s0.8-0.8,1.3-0.6c1.8,0.7,3.7,1.3,5.6,1.9
		c0.5,0.2,0.8,0.7,0.6,1.3C59.3,392.2,58.9,392.5,58.5,392.5L58.5,392.5z M49.2,389.1c-0.1,0-0.3,0-0.4-0.1
		c-1.9-0.8-3.8-1.6-5.5-2.5c-0.5-0.2-0.7-0.8-0.5-1.3s0.8-0.7,1.3-0.5c1.7,0.8,3.5,1.6,5.4,2.4c0.5,0.2,0.8,0.8,0.5,1.3
		C49.9,388.9,49.6,389.1,49.2,389.1L49.2,389.1z M40.2,384.9c-0.2,0-0.3,0-0.5-0.1c-1.8-1-3.6-2-5.2-3.1c-0.5-0.3-0.6-0.9-0.3-1.4
		s0.9-0.6,1.4-0.3c1.6,1,3.3,2.1,5,3c0.5,0.3,0.7,0.9,0.4,1.4C40.9,384.7,40.5,384.9,40.2,384.9L40.2,384.9z M31.9,379.5
		c-0.2,0-0.4-0.1-0.6-0.2c-1.7-1.3-3.2-2.6-4.6-4c-0.4-0.4-0.4-1,0-1.4s1-0.4,1.4,0c1.3,1.3,2.8,2.6,4.4,3.8c0.4,0.3,0.5,1,0.2,1.4
		C32.5,379.4,32.2,379.5,31.9,379.5L31.9,379.5z M24.7,372.7c-0.3,0-0.6-0.1-0.8-0.4c-1.3-1.6-2.5-3.3-3.5-5
		c-0.3-0.5-0.1-1.1,0.4-1.4s1.1-0.1,1.4,0.4c0.9,1.6,2.1,3.2,3.3,4.7c0.4,0.4,0.3,1.1-0.1,1.4C25.1,372.6,24.9,372.7,24.7,372.7
		L24.7,372.7z M19.5,364.4c-0.4,0-0.8-0.2-0.9-0.6c-0.8-1.9-1.4-3.8-1.9-5.8c-0.1-0.5,0.2-1.1,0.8-1.2c0.5-0.1,1.1,0.2,1.2,0.8
		c0.4,1.9,1,3.7,1.8,5.5c0.2,0.5,0,1.1-0.5,1.3C19.7,364.3,19.6,364.4,19.5,364.4L19.5,364.4z M17,354.8c-0.5,0-0.9-0.4-1-0.9
		c-0.1-1.2-0.2-2.5-0.2-3.8c0-0.8,0-1.5,0.1-2.3c0-0.6,0.5-1,1.1-0.9c0.6,0,1,0.5,0.9,1.1c0,0.7-0.1,1.5-0.1,2.2
		c0,1.2,0.1,2.4,0.2,3.6c0.1,0.6-0.3,1-0.9,1.1C17,354.8,17,354.8,17,354.8L17,354.8z M17.3,344.9c0,0-0.1,0-0.2,0
		c-0.5-0.1-0.9-0.6-0.8-1.1c0.3-1.9,0.7-3.9,1.3-5.9c0.1-0.5,0.7-0.9,1.2-0.7c0.5,0.1,0.8,0.7,0.7,1.2c-0.5,1.9-0.9,3.9-1.2,5.7
		C18.2,344.6,17.7,344.9,17.3,344.9L17.3,344.9z M19.7,335.3c-0.1,0-0.2,0-0.3-0.1c-0.5-0.2-0.8-0.7-0.6-1.3
		c0.6-1.8,1.4-3.7,2.2-5.6c0.2-0.5,0.8-0.7,1.3-0.5s0.7,0.8,0.5,1.3c-0.8,1.9-1.5,3.7-2.1,5.5C20.5,335,20.1,335.3,19.7,335.3
		L19.7,335.3z M23.5,326.2c-0.1,0-0.3,0-0.4-0.1c-0.5-0.2-0.7-0.8-0.5-1.3c0.9-1.7,1.8-3.5,2.8-5.3c0.3-0.5,0.9-0.6,1.4-0.4
		c0.5,0.3,0.6,0.9,0.4,1.4c-1,1.8-1.9,3.5-2.8,5.2C24.2,326,23.9,326.2,23.5,326.2L23.5,326.2z M28.3,317.5c-0.2,0-0.4,0-0.5-0.1
		c-0.5-0.3-0.6-0.9-0.3-1.4c1-1.7,2.1-3.4,3.3-5.1c0.3-0.5,0.9-0.6,1.4-0.3c0.5,0.3,0.6,0.9,0.3,1.4c-1.1,1.7-2.2,3.3-3.2,5
		C29,317.3,28.7,317.5,28.3,317.5L28.3,317.5z"/>
</g>
<g>
	<path class="st0" d="M362.9,568.4c-0.1,0-0.3,0-0.4-0.1c-0.5-0.2-0.7-0.8-0.5-1.3c0,0,0.5-1.2,1.4-3.4c0.2-0.5,0.8-0.8,1.3-0.6
		s0.8,0.8,0.6,1.3c-0.9,2.2-1.4,3.4-1.4,3.4C363.6,568.1,363.2,568.4,362.9,568.4L362.9,568.4z"/>
</g>
<g>
	<path class="st0" d="M204.7,317.5h-1.2c-0.6,0-1-0.7-1-1.6s0.4-1.6,1-1.6h1.2c1.6,0,3.2,0,4.8,0l0,0c0.6,0,1,0.7,1,1.6
		s-0.4,1.6-1,1.6C208,317.5,206.3,317.5,204.7,317.5L204.7,317.5z M199.5,317.5L199.5,317.5c-2.1,0-4.1,0-6.1,0c-0.6,0-1-0.8-1-1.6
		c0-1,0.5-1.6,1-1.6l0,0c2,0,4,0,6,0c0.6,0,1,0.7,1,1.6C200.5,316.7,200,317.5,199.5,317.5L199.5,317.5z M213.6,317.3
		c-0.5,0-1-0.7-1-1.6s0.4-1.6,1-1.6c2,0,4,0,6.1-0.2l0,0c0.5,0,1,0.7,1,1.6s-0.4,1.6-1,1.6C217.7,317.3,215.6,317.3,213.6,317.3
		L213.6,317.3L213.6,317.3z M189.4,317.3L189.4,317.3c-2.1,0-4.1-0.2-6.1-0.2c-0.6,0-1-0.8-1-1.6c0-1,0.5-1.6,1-1.6c2,0,4,0.2,6,0.2
		c0.6,0,1,0.8,1,1.6C190.4,316.5,189.9,317.3,189.4,317.3L189.4,317.3z M223.7,317.2c-0.5,0-1-0.7-1-1.6s0.4-1.6,1-1.6
		c2,0,4-0.2,6.1-0.2c0.6,0,1,0.7,1,1.6s-0.4,1.6-1,1.6C227.8,317.2,225.8,317.2,223.7,317.2C223.8,317.2,223.7,317.2,223.7,317.2
		L223.7,317.2z M179.3,317L179.3,317c-2.1,0-4.1-0.2-6.1-0.2c-0.6,0-1-0.8-1-1.6c0-1,0.5-1.6,1-1.6c2,0,4,0.2,6,0.2
		c0.6,0,1,0.8,1,1.6C180.3,316.4,179.8,317,179.3,317L179.3,317z M233.9,316.8c-0.5,0-1-0.7-1-1.6s0.4-1.6,1-1.6
		c2-0.2,4-0.2,6.1-0.3l0,0c0.5,0,1,0.7,1,1.6s-0.4,1.6-1,1.6C237.9,316.7,235.9,316.8,233.9,316.8L233.9,316.8L233.9,316.8z
		 M169.2,316.7C169.2,316.7,169.1,316.7,169.2,316.7c-2.1-0.2-4.1-0.2-6.1-0.3c-0.6,0-1-0.8-1-1.6c0-1,0.5-1.6,1-1.6
		c1.9,0.2,4,0.2,6,0.3c0.6,0,1,0.8,1,1.6C170.2,316,169.7,316.7,169.2,316.7L169.2,316.7z M244,316.4c-0.5,0-1-0.7-1-1.6
		s0.4-1.6,1-1.6c2-0.2,4-0.2,6-0.3c0.5,0,1,0.7,1,1.6c0,1-0.4,1.6-1,1.6C248,316.2,246,316.4,244,316.4L244,316.4L244,316.4z
		 M159.1,316.2C159.1,316.2,159,316.2,159.1,316.2c-2.2-0.2-4.2-0.2-6.1-0.3c-0.6,0-1-0.8-1-1.6c0-1,0.5-1.6,1-1.6
		c1.9,0.2,3.9,0.2,6,0.3c0.6,0,1,0.8,1,1.6C160,315.5,159.6,316.2,159.1,316.2L159.1,316.2z M254.1,315.7c-0.5,0-1-0.7-1-1.6
		s0.4-1.6,1-1.6c2-0.2,4-0.3,6-0.5c0.5,0,1,0.7,1,1.5c0,1-0.4,1.6-0.9,1.8C258.1,315.5,256.1,315.7,254.1,315.7L254.1,315.7
		L254.1,315.7z M149,315.5C149,315.5,148.9,315.5,149,315.5c-2.3-0.2-4.3-0.3-6.1-0.5c-0.6,0-1-0.8-1-1.6c0-1,0.5-1.6,1-1.6
		c1.8,0.2,3.8,0.3,6,0.5c0.6,0,1,0.8,1,1.6C149.9,314.9,149.5,315.5,149,315.5L149,315.5z M264.1,315c-0.5,0-1-0.7-1-1.5
		c0-1,0.4-1.6,0.9-1.8c2-0.2,4-0.3,6-0.7c0.6,0,1,0.7,1.1,1.5c0,1-0.4,1.6-0.9,1.8C268.2,314.6,266.2,314.7,264.1,315
		C264.2,315,264.2,315,264.1,315L264.1,315z M274.2,313.9c-0.5,0-1-0.7-1-1.5c0-1,0.4-1.6,0.9-1.8c2-0.2,4-0.5,6-0.7
		c0.5,0,1,0.7,1.1,1.5c0,1-0.4,1.6-0.9,1.8C278.3,313.6,276.3,313.7,274.2,313.9C274.3,313.9,274.3,313.9,274.2,313.9L274.2,313.9z
		 M284.3,312.8c-0.5,0-1-0.7-1-1.5c0-1,0.4-1.6,0.9-1.8c2-0.3,4-0.5,6-0.8c0.5-0.2,1,0.7,1.1,1.5c0,1-0.4,1.6-0.9,1.8
		C288.4,312.3,286.4,312.6,284.3,312.8C284.4,312.8,284.4,312.8,284.3,312.8L284.3,312.8z M294.4,311.4c-0.5,0-0.9-0.7-1-1.5
		c-0.1-0.8,0.4-1.6,0.9-1.8c2-0.3,4-0.7,6-1c0.5,0,1,0.5,1.1,1.5c0.1,0.8-0.3,1.6-0.9,1.8C298.5,310.8,296.5,311.1,294.4,311.4
		C294.5,311.4,294.4,311.4,294.4,311.4L294.4,311.4z M304.5,309.6c-0.5,0-0.9-0.7-1-1.5c-0.1-0.8,0.3-1.6,0.9-1.8c2-0.3,4-0.7,6-1.1
		c0.5-0.2,1,0.5,1.1,1.5c0.1,0.8-0.3,1.6-0.9,1.8c-2,0.3-4,0.8-6,1.1C304.5,309.6,304.5,309.6,304.5,309.6L304.5,309.6z
		 M314.5,307.8c-0.5,0-0.9-0.7-1-1.5c-0.1-0.8,0.3-1.6,0.9-1.8c2-0.5,4-0.8,6-1.3c0.5-0.2,1.1,0.5,1.1,1.5c0.1,0.8-0.3,1.8-0.9,1.8
		c-2,0.5-4,0.8-6,1.3H314.5L314.5,307.8z M324.5,305.6c-0.5,0-0.9-0.7-1-1.5c-0.1-0.8,0.3-1.8,0.8-1.8c2-0.5,4-1,6-1.5
		c0.5-0.2,1.1,0.5,1.1,1.3c0.1,0.8-0.3,1.8-0.8,1.8c-2,0.5-4,1-6,1.5C324.6,305.6,324.6,305.6,324.5,305.6L324.5,305.6z
		 M334.5,302.9c-0.5,0-0.9-0.5-1-1.3c-0.1-0.8,0.3-1.8,0.8-2c2-0.5,4-1.1,5.9-1.8c0.5-0.2,1.1,0.5,1.2,1.3c0.1,0.8-0.3,1.8-0.8,2
		c-2,0.7-4,1.1-6,1.8C334.6,302.9,334.6,302.9,334.5,302.9L334.5,302.9z M344.4,300c-0.5,0-0.9-0.5-1-1.3c-0.1-0.8,0.2-1.8,0.8-2
		c2-0.7,4-1.3,5.9-2c0.5-0.2,1.1,0.3,1.2,1.3c0.1,0.8-0.2,1.8-0.8,2c-2,0.7-3.9,1.3-5.9,2C344.6,300,344.5,300,344.4,300L344.4,300z
		 M354.3,296.6c-0.5,0-0.9-0.5-1-1.3c-0.1-0.8,0.2-1.8,0.7-2c2-0.8,4-1.5,5.9-2.3c0.5-0.2,1.1,0.3,1.2,1.1c0.1,0.8-0.2,1.8-0.7,2
		c-1.9,0.8-3.9,1.6-5.9,2.3C354.5,296.4,354.4,296.6,354.3,296.6L354.3,296.6z M364.1,292.5c-0.4,0-0.8-0.5-1-1.1
		c-0.1-0.8,0.2-1.8,0.7-2c2-0.8,3.9-1.8,5.8-2.8c0.5-0.3,1.1,0.2,1.2,1.1c0.2,0.8-0.1,1.8-0.7,2c-1.9,1-3.9,1.8-5.8,2.8
		C364.3,292.5,364.2,292.5,364.1,292.5L364.1,292.5z M373.8,287.7c-0.4,0-0.8-0.5-1-1.1c-0.2-0.8,0.1-1.8,0.6-2.1
		c2-1,3.9-2.1,5.7-3.3c0.5-0.3,1.1,0.2,1.3,1c0.2,0.8-0.1,1.8-0.6,2.1c-1.8,1.1-3.8,2.1-5.8,3.3C374,287.7,373.9,287.7,373.8,287.7
		L373.8,287.7z M383.3,282.2c-0.4,0-0.8-0.3-0.9-1c-0.2-0.8,0-1.8,0.6-2.1c1.9-1.3,3.8-2.5,5.5-3.8c0.5-0.3,1.1,0,1.3,0.8
		c0.2,0.8,0,1.8-0.5,2.1c-1.8,1.3-3.7,2.6-5.6,3.9C383.6,282,383.5,282.2,383.3,282.2L383.3,282.2z M392.6,275.5
		c-0.4,0-0.7-0.3-0.9-1c-0.2-0.8,0-1.8,0.4-2.1c1.8-1.5,3.6-3.1,5.3-4.6c0.5-0.5,1.1-0.2,1.4,0.7c0.3,0.8,0.1,1.8-0.4,2.3
		c-1.7,1.6-3.5,3.3-5.4,4.7C392.9,275.3,392.7,275.5,392.6,275.5L392.6,275.5z M401.3,267.3c-0.3,0-0.6-0.3-0.8-0.8
		c-0.3-0.8-0.2-1.8,0.3-2.3c1.7-1.8,3.3-3.8,4.8-5.7c0.4-0.5,1.1-0.5,1.4,0.3c0.3,0.7,0.3,1.8-0.2,2.3c-1.5,2-3.2,3.9-5,5.9
		C401.7,267.1,401.5,267.3,401.3,267.3L401.3,267.3z M409.2,257.1c-0.3,0-0.5-0.2-0.7-0.5c-0.4-0.7-0.4-1.6,0-2.3
		c1.5-2.3,2.8-4.7,4-7c0.3-0.7,1-0.8,1.4-0.3s0.5,1.6,0.2,2.3c-1.2,2.5-2.6,5.1-4.2,7.4C409.7,257,409.5,257.1,409.2,257.1
		L409.2,257.1z M415.6,244.4c-0.2,0-0.4,0-0.5-0.2c-0.5-0.5-0.6-1.5-0.3-2.3c1-2.8,1.9-5.6,2.5-8.5c0.2-0.8,0.8-1.3,1.3-1
		s0.8,1.3,0.6,2.1c-0.7,3.1-1.6,6.2-2.7,9.2C416.3,244.2,416,244.4,415.6,244.4L415.6,244.4z M419.4,229.3c-0.1,0-0.1,0-0.2,0
		c-0.5-0.2-0.9-1-0.8-2c0.4-2.8,0.6-5.9,0.6-8.8c0-0.8,0.5-1.6,1-1.6l0,0c0.6,0,1,0.8,1,1.6c0,3.3-0.2,6.4-0.6,9.5
		C420.3,228.8,419.8,229.3,419.4,229.3L419.4,229.3z"/>
</g>
<g>
	<path class="st0" d="M418.7,213.4c-0.4,0-0.7-0.2-0.9-0.5c-0.9-1.7-2-3.3-3.2-4.9c-0.4-0.4-0.3-1.1,0.1-1.4
		c0.4-0.4,1.1-0.3,1.4,0.1c1.3,1.6,2.5,3.4,3.4,5.2c0.3,0.5,0.1,1.1-0.4,1.3C419,213.3,418.9,213.4,418.7,213.4L418.7,213.4z
		 M412.6,205.4c-0.2,0-0.5-0.1-0.7-0.3c-1.4-1.3-2.9-2.5-4.6-3.6c-0.5-0.3-0.6-0.9-0.3-1.4c0.3-0.5,0.9-0.6,1.4-0.3
		c1.8,1.2,3.4,2.5,4.9,3.8c0.4,0.4,0.4,1,0,1.4C413.2,205.3,412.9,205.4,412.6,205.4L412.6,205.4z M130.6,202.6c-1.1,0-2.1,0-3.1,0
		c-0.6,0-1-0.5-1-1c0-0.6,0.5-1,1-1c2,0,4,0,6,0l0,0c0.5,0,1,0.4,1,1s-0.4,1-1,1C132.5,202.6,131.5,202.6,130.6,202.6L130.6,202.6z
		 M137.5,202.5c-0.5,0-1-0.4-1-1s0.4-1,1-1c2,0,4-0.1,6-0.1c0.5,0,1,0.4,1,1s-0.4,1-1,1C141.6,202.5,139.5,202.5,137.5,202.5
		L137.5,202.5L137.5,202.5z M123.4,202.5L123.4,202.5c-2.1,0-4.1-0.1-6.1-0.2c-0.6,0-1-0.5-1-1c0-0.6,0.5-1,1-1c2,0.1,4,0.1,6,0.2
		c0.6,0,1,0.5,1,1C124.4,202.1,123.9,202.5,123.4,202.5L123.4,202.5z M147.6,202.3c-0.5,0-1-0.4-1-1s0.4-1,1-1c2-0.1,4-0.2,6-0.2
		c0.6,0,1,0.4,1,1s-0.4,1-1,1C151.7,202.1,149.7,202.2,147.6,202.3C147.7,202.3,147.7,202.3,147.6,202.3L147.6,202.3z M113.3,202.2
		C113.2,202.2,113.2,202.2,113.3,202.2c-2.1-0.1-4.2-0.3-6.1-0.4c-0.5,0-1-0.5-0.9-1.1c0-0.6,0.5-1,1.1-0.9c1.9,0.2,4,0.3,6,0.4
		c0.6,0,1,0.5,0.9,1.1C114.2,201.8,113.8,202.2,113.3,202.2L113.3,202.2z M157.7,201.8c-0.5,0-1-0.4-1-0.9c0-0.6,0.4-1,0.9-1
		c2-0.1,4-0.2,6-0.3c0.5,0,1,0.4,1.1,0.9c0,0.6-0.4,1-0.9,1.1C161.8,201.6,159.8,201.7,157.7,201.8
		C157.8,201.8,157.8,201.8,157.7,201.8L157.7,201.8z M103.2,201.4L103.2,201.4c-2.2-0.2-4.2-0.5-6.1-0.7c-0.5-0.1-0.9-0.6-0.9-1.1
		c0.1-0.5,0.6-0.9,1.1-0.9c1.9,0.3,3.9,0.5,6,0.7c0.5,0.1,1,0.5,0.9,1.1C104.1,201,103.7,201.4,103.2,201.4L103.2,201.4z
		 M167.8,201.2c-0.5,0-1-0.4-1-0.9c0-0.6,0.4-1,0.9-1.1c2-0.1,4-0.3,6-0.4c0.6,0,1,0.4,1.1,0.9c0,0.6-0.4,1-0.9,1.1
		C171.9,201,169.9,201.1,167.8,201.2C167.9,201.2,167.9,201.2,167.8,201.2L167.8,201.2z M177.9,200.5c-0.5,0-1-0.4-1-0.9
		c0-0.6,0.4-1,0.9-1.1c2-0.1,4-0.3,6-0.5c0.6,0,1,0.4,1.1,0.9c0,0.5-0.4,1-0.9,1.1C182,200.2,180,200.4,177.9,200.5
		C178,200.5,178,200.5,177.9,200.5L177.9,200.5z M93.2,200.1c-0.1,0-0.1,0-0.2,0c-2.1-0.3-4.1-0.7-6-1.1c-0.5-0.1-0.9-0.7-0.8-1.2
		s0.7-0.9,1.2-0.8c1.9,0.4,3.9,0.8,5.9,1.1c0.5,0.1,0.9,0.6,0.8,1.1C94.1,199.7,93.6,200.1,93.2,200.1L93.2,200.1z M188,199.8
		c-0.5,0-1-0.4-1-0.9s0.4-1,0.9-1.1c2-0.2,4-0.3,6-0.5c0.5-0.1,1,0.4,1.1,0.9c0,0.5-0.4,1-0.9,1.1
		C192.1,199.4,190.1,199.6,188,199.8C188.1,199.7,188,199.8,188,199.8L188,199.8z M404.4,199.5c-0.2,0-0.3,0-0.5-0.1
		c-1.7-0.9-3.5-1.8-5.4-2.6c-0.5-0.2-0.8-0.8-0.5-1.3c0.2-0.5,0.8-0.8,1.3-0.5c2,0.8,3.8,1.7,5.6,2.7c0.5,0.3,0.7,0.9,0.4,1.4
		C405.1,199.3,404.8,199.5,404.4,199.5L404.4,199.5z M198.1,198.9c-0.5,0-0.9-0.4-1-0.9c0-0.6,0.4-1,0.9-1.1c2-0.2,4-0.4,6-0.5
		c0.6,0,1,0.4,1.1,0.9s-0.4,1-0.9,1.1C202.2,198.5,200.2,198.7,198.1,198.9C198.2,198.9,198.1,198.9,198.1,198.9L198.1,198.9z
		 M83.3,198c-0.1,0-0.2,0-0.3,0c-2.1-0.5-4-1.1-5.9-1.8c-0.5-0.2-0.8-0.7-0.6-1.3c0.2-0.5,0.7-0.8,1.3-0.6c1.8,0.6,3.7,1.2,5.7,1.7
		c0.5,0.1,0.9,0.7,0.7,1.2C84.1,197.7,83.7,198,83.3,198L83.3,198z M208.2,198c-0.5,0-0.9-0.4-1-0.9s0.4-1,0.9-1.1
		c2-0.2,4-0.4,6-0.6c0.5-0.1,1,0.4,1.1,0.9s-0.4,1-0.9,1.1C212.3,197.6,210.3,197.8,208.2,198L208.2,198L208.2,198z M218.2,197
		c-0.5,0-0.9-0.4-1-0.9s0.4-1,0.9-1.1l6-0.6c0.5-0.1,1,0.3,1.1,0.9c0.1,0.5-0.3,1-0.9,1.1L218.2,197C218.3,197,218.3,197,218.2,197
		L218.2,197z M228.3,196.1c-0.5,0-0.9-0.4-1-0.9s0.3-1,0.9-1.1l6-0.6c0.6-0.1,1,0.3,1.1,0.9c0.1,0.5-0.3,1-0.9,1.1L228.3,196.1
		C228.4,196.1,228.4,196.1,228.3,196.1L228.3,196.1z M395.2,195.5c-0.1,0-0.2,0-0.3-0.1c-1.8-0.6-3.7-1.2-5.7-1.8
		c-0.5-0.1-0.8-0.7-0.7-1.2c0.1-0.5,0.7-0.8,1.2-0.7c2,0.6,4,1.2,5.9,1.8c0.5,0.2,0.8,0.8,0.6,1.3
		C396,195.2,395.6,195.5,395.2,195.5L395.2,195.5z M238.4,195.1c-0.5,0-0.9-0.4-1-0.9s0.4-1,0.9-1.1l6-0.6c0.5-0.1,1,0.4,1.1,0.9
		s-0.3,1-0.9,1.1L238.4,195.1C238.5,195.1,238.4,195.1,238.4,195.1L238.4,195.1z M73.7,194.8c-0.1,0-0.3,0-0.4-0.1
		c-2-0.8-3.8-1.7-5.6-2.7c-0.5-0.3-0.7-0.9-0.4-1.4s0.9-0.7,1.4-0.4c1.6,0.9,3.4,1.8,5.3,2.6c0.5,0.2,0.8,0.8,0.5,1.3
		C74.4,194.6,74.1,194.8,73.7,194.8L73.7,194.8z M248.5,194.1c-0.5,0-0.9-0.4-1-0.9s0.4-1,0.9-1.1l6-0.6c0.6-0.1,1,0.4,1.1,0.9
		s-0.4,1-0.9,1.1L248.5,194.1L248.5,194.1L248.5,194.1z M258.5,193.2c-0.5,0-0.9-0.4-1-0.9s0.4-1,0.9-1.1c2-0.2,4-0.4,6-0.5
		c0.5,0,1,0.4,1.1,0.9c0,0.5-0.4,1-0.9,1.1C262.6,192.8,260.6,193,258.5,193.2C258.6,193.2,258.6,193.2,258.5,193.2L258.5,193.2z
		 M385.5,192.7c-0.1,0-0.1,0-0.2,0c-1.9-0.4-3.9-0.8-5.9-1.2c-0.5-0.1-0.9-0.6-0.8-1.2c0.1-0.5,0.6-0.9,1.2-0.8
		c2.1,0.4,4.1,0.8,6,1.2c0.5,0.1,0.9,0.7,0.8,1.2C386.3,192.4,385.9,192.7,385.5,192.7L385.5,192.7z M268.6,192.3
		c-0.5,0-0.9-0.4-1-0.9c0-0.5,0.4-1,0.9-1.1c2-0.2,4-0.4,6-0.5c0.5,0,1,0.4,1.1,0.9c0,0.5-0.4,1-0.9,1.1
		C272.7,191.9,270.7,192.1,268.6,192.3L268.6,192.3L268.6,192.3z M278.7,191.4c-0.5,0-1-0.4-1-0.9s0.4-1,0.9-1.1c2-0.2,4-0.3,6-0.5
		c0.5,0,1,0.4,1.1,0.9c0,0.5-0.4,1-0.9,1.1C282.8,191.1,280.8,191.2,278.7,191.4L278.7,191.4L278.7,191.4z M375.5,190.8h-0.1
		c-1.9-0.3-3.9-0.6-6-0.8c-0.5-0.1-0.9-0.6-0.9-1.1c0.1-0.5,0.6-0.9,1.1-0.9c2.1,0.2,4.1,0.5,6,0.8c0.5,0.1,0.9,0.6,0.8,1.1
		C376.4,190.5,376,190.8,375.5,190.8L375.5,190.8z M288.7,190.6c-0.5,0-1-0.4-1-0.9c0-0.6,0.4-1,0.9-1.1c2-0.2,4-0.3,6-0.4
		c0.5,0,1,0.4,1.1,0.9c0,0.6-0.4,1-0.9,1.1C292.8,190.3,290.8,190.5,288.7,190.6C288.8,190.6,288.8,190.6,288.7,190.6L288.7,190.6z
		 M64.8,190c-0.2,0-0.4-0.1-0.6-0.2c-1.8-1.2-3.4-2.6-4.7-4c-0.4-0.4-0.4-1,0-1.4s1-0.4,1.4,0c1.3,1.3,2.8,2.6,4.5,3.8
		c0.5,0.3,0.6,0.9,0.2,1.4C65.4,189.9,65.1,190,64.8,190L64.8,190z M298.8,189.9c-0.5,0-1-0.4-1-0.9c0-0.6,0.4-1,0.9-1.1
		c2-0.1,4-0.3,6.1-0.4c0.5,0,1,0.4,1.1,0.9c0,0.6-0.4,1-0.9,1.1C302.9,189.6,300.9,189.8,298.8,189.9
		C298.9,189.9,298.8,189.9,298.8,189.9L298.8,189.9z M365.5,189.6C365.5,189.6,365.4,189.6,365.5,189.6c-2-0.2-4.1-0.4-6.1-0.5
		c-0.6,0-1-0.5-0.9-1.1c0-0.6,0.5-1,1.1-0.9c2.1,0.1,4.1,0.3,6.1,0.5c0.5,0.1,1,0.5,0.9,1.1C366.4,189.2,366,189.6,365.5,189.6
		L365.5,189.6z M308.9,189.3c-0.5,0-1-0.4-1-0.9c0-0.6,0.4-1,0.9-1.1c2-0.1,4.1-0.2,6.1-0.3c0.5,0,1,0.4,1,1s-0.4,1-1,1
		C313,189.1,311,189.2,308.9,189.3C309,189.3,308.9,189.3,308.9,189.3L308.9,189.3z M355.4,188.9L355.4,188.9c-2-0.1-4-0.2-6.1-0.2
		c-0.6,0-1-0.5-1-1c0-0.6,0.5-1,1-1c2.1,0.1,4.1,0.1,6.1,0.3c0.6,0,1,0.5,0.9,1.1C356.4,188.5,355.9,188.9,355.4,188.9L355.4,188.9z
		 M319,188.9c-0.5,0-1-0.4-1-1s0.4-1,1-1c2-0.1,4.1-0.1,6.1-0.2c0.5,0,1,0.4,1,1s-0.4,1-1,1C323.1,188.7,321.1,188.8,319,188.9
		C319.1,188.9,319,188.9,319,188.9L319,188.9z M329.1,188.6c-0.5,0-1-0.4-1-1s0.4-1,1-1c2,0,4.1-0.1,6.1-0.1l0,0c0.5,0,1,0.4,1,1
		s-0.4,1-1,1C333.2,188.5,331.2,188.5,329.1,188.6L329.1,188.6L329.1,188.6z M345.3,188.5L345.3,188.5c-2,0-4-0.1-6.1-0.1
		c-0.6,0-1-0.5-1-1c0-0.6,0.4-1,1-1c2,0,4.1,0,6.1,0.1c0.6,0,1,0.5,1,1C346.3,188.1,345.8,188.5,345.3,188.5L345.3,188.5z M57.6,183
		c-0.3,0-0.6-0.1-0.8-0.4c-1.2-1.7-2.2-3.6-3-5.5c-0.2-0.5,0-1.1,0.6-1.3c0.5-0.2,1.1,0,1.3,0.6c0.7,1.8,1.6,3.5,2.8,5.1
		c0.3,0.5,0.2,1.1-0.2,1.4C58,183,57.8,183,57.6,183L57.6,183z M53.5,173.9c-0.5,0-0.9-0.3-1-0.8c-0.4-2-0.7-4-0.7-6.2
		c0-0.6,0.4-1,1-1c0.5,0,1,0.4,1,1c0,2,0.3,4,0.7,5.8c0.1,0.5-0.2,1.1-0.8,1.2C53.7,173.9,53.6,173.9,53.5,173.9L53.5,173.9z
		 M52.9,163.8L52.9,163.8c-0.6,0-1-0.5-1-1.1c0.2-2,0.5-4,0.9-6.1c0.1-0.5,0.7-0.9,1.2-0.8c0.5,0.1,0.9,0.6,0.8,1.2
		c-0.4,2-0.7,4-0.9,5.9C53.9,163.4,53.5,163.8,52.9,163.8L52.9,163.8z M54.8,153.9c-0.1,0-0.2,0-0.3,0c-0.5-0.2-0.8-0.7-0.7-1.2
		c0.5-1.9,1.2-3.8,1.9-5.8c0.2-0.5,0.8-0.8,1.3-0.6s0.8,0.8,0.6,1.3c-0.7,1.9-1.4,3.8-1.9,5.7C55.7,153.6,55.3,153.9,54.8,153.9
		L54.8,153.9z"/>
</g>
<g>
	<path class="st0" d="M58.8,144c-0.3,0-0.4-0.1-0.6-0.3c-0.4-0.4-0.4-1,0-1.4c1.2-1.4,2.6-2.7,4.2-4c0.4-0.3,1-0.2,1.2,0.2
		c0.3,0.4,0.2,1.1-0.2,1.4c-1.5,1.2-2.8,2.5-4,3.8C59.2,143.9,59,144,58.8,144L58.8,144z M65.8,137.8c-0.3,0-0.6-0.2-0.7-0.5
		c-0.3-0.5-0.2-1.1,0.3-1.4c1.4-1,3-2,4.7-3c0.4-0.3,1-0.1,1.2,0.4c0.3,0.5,0.1,1.1-0.4,1.3c-1.7,0.9-3.2,1.9-4.6,2.9
		C66.1,137.8,66,137.8,65.8,137.8L65.8,137.8z M73.7,133.1c-0.4,0-0.6-0.2-0.8-0.6c-0.2-0.5,0-1.1,0.4-1.3c1.6-0.8,3.3-1.6,5-2.4
		c0.4-0.2,1,0.1,1.2,0.6c0.2,0.5-0.1,1.1-0.5,1.3c-1.7,0.8-3.4,1.5-4.9,2.3C74,133.1,73.8,133.1,73.7,133.1L73.7,133.1z M82.1,129.3
		c-0.4,0-0.7-0.3-0.8-0.7c-0.2-0.5,0.1-1.1,0.5-1.3c1.6-0.7,3.4-1.3,5.2-1.9c0.4-0.2,1,0.1,1.2,0.7c0.2,0.5-0.1,1.1-0.6,1.3
		c-1.8,0.6-3.5,1.3-5.1,1.9C82.3,129.3,82.2,129.3,82.1,129.3L82.1,129.3z M90.6,126.2c-0.4,0-0.7-0.3-0.9-0.7
		c-0.2-0.5,0.1-1.1,0.6-1.2c1.7-0.5,3.4-1.1,5.2-1.6c0.4-0.1,1,0.2,1.1,0.7c0.1,0.5-0.2,1.1-0.6,1.2c-1.8,0.5-3.6,1.1-5.2,1.6
		C90.8,126.2,90.7,126.2,90.6,126.2L90.6,126.2z M99.4,123.6c-0.4,0-0.8-0.3-0.9-0.8c-0.1-0.5,0.2-1.1,0.6-1.2
		c1.7-0.5,3.5-0.9,5.2-1.4c0.4-0.1,1,0.2,1.1,0.8c0.1,0.5-0.2,1.1-0.7,1.2C102.9,122.6,101.1,123.1,99.4,123.6
		C99.5,123.6,99.4,123.6,99.4,123.6L99.4,123.6z M108.2,121.3c-0.4,0-0.8-0.3-0.9-0.8c-0.1-0.5,0.2-1.1,0.7-1.2
		c1.8-0.4,3.5-0.8,5.3-1.2c0.4-0.1,1,0.2,1.1,0.8c0.1,0.5-0.2,1.1-0.7,1.2c-1.8,0.4-3.6,0.8-5.2,1.2
		C108.3,121.3,108.2,121.3,108.2,121.3L108.2,121.3z M117,119.4c-0.4,0-0.8-0.3-0.9-0.8c-0.1-0.5,0.3-1.1,0.7-1.2
		c1.8-0.4,3.6-0.7,5.3-1.1c0.4-0.1,1,0.3,1.1,0.8c0.1,0.5-0.3,1.1-0.7,1.2c-1.8,0.3-3.6,0.7-5.3,1.1
		C117.1,119.4,117.1,119.4,117,119.4L117,119.4z M125.9,117.6c-0.4,0-0.8-0.3-0.9-0.8c-0.1-0.5,0.3-1.1,0.7-1.1
		c1.8-0.3,3.6-0.6,5.3-1c0.4-0.1,1,0.3,1,0.8c0.1,0.5-0.3,1.1-0.7,1.1C129.5,116.9,127.7,117.2,125.9,117.6
		C126,117.6,125.9,117.6,125.9,117.6L125.9,117.6z M134.8,116.1c-0.4,0-0.8-0.4-0.9-0.9c-0.1-0.5,0.3-1.1,0.7-1.1
		c1.8-0.3,3.6-0.6,5.3-0.9c0.4-0.1,1,0.3,1,0.9c0.1,0.5-0.3,1.1-0.8,1.1C138.3,115.5,136.5,115.8,134.8,116.1
		C134.9,116.1,134.8,116.1,134.8,116.1L134.8,116.1z M143.7,114.7c-0.4,0-0.8-0.4-0.9-0.9s0.3-1,0.8-1.1c1.8-0.3,3.6-0.5,5.3-0.8
		c0.4-0.1,0.9,0.3,1,0.9c0.1,0.5-0.3,1-0.8,1.1C147.3,114.2,145.5,114.4,143.7,114.7C143.8,114.7,143.7,114.7,143.7,114.7
		L143.7,114.7z M152.6,113.4c-0.4,0-0.8-0.4-0.9-0.9c-0.1-0.5,0.3-1,0.8-1.1c1.8-0.2,3.6-0.5,5.3-0.7c0.5-0.1,0.9,0.3,1,0.9
		c0.1,0.5-0.3,1-0.8,1.1C156.2,112.9,154.4,113.2,152.6,113.4C152.6,113.4,152.6,113.4,152.6,113.4L152.6,113.4z M161.5,112.2
		c-0.4,0-0.8-0.4-0.9-0.9c-0.1-0.5,0.3-1,0.8-1.1c1.8-0.2,3.6-0.4,5.3-0.7c0.5-0.1,0.9,0.3,1,0.9c0.1,0.5-0.3,1-0.8,1.1
		C165.2,111.7,163.4,111.9,161.5,112.2L161.5,112.2L161.5,112.2z M170.4,111.1c-0.4,0-0.8-0.4-0.9-0.9s0.3-1,0.8-1.1
		c1.8-0.2,3.6-0.4,5.3-0.6c0.5-0.1,0.9,0.3,1,0.9c0.1,0.5-0.3,1-0.8,1.1C174.1,110.7,172.3,110.9,170.4,111.1
		C170.5,111.1,170.5,111.1,170.4,111.1L170.4,111.1z M179.4,110.1c-0.4,0-0.8-0.4-0.9-0.9s0.3-1,0.8-1.1c1.8-0.2,3.6-0.4,5.3-0.6
		c0.4-0.1,0.9,0.4,1,0.9c0.1,0.5-0.4,1-0.8,1.1C183.1,109.7,181.3,109.9,179.4,110.1C179.5,110.1,179.4,110.1,179.4,110.1
		L179.4,110.1z M188.4,109.2c-0.4,0-0.8-0.4-0.9-0.9c-0.1-0.5,0.4-1,0.8-1.1c1.8-0.2,3.6-0.4,5.3-0.5c0.5,0,0.9,0.4,1,0.9
		c0,0.6-0.4,1-0.8,1.1C192.1,108.8,190.3,109,188.4,109.2L188.4,109.2L188.4,109.2z M197.4,108.3c-0.4,0-0.8-0.4-0.9-0.9
		c0-0.5,0.4-1,0.8-1.1c1.8-0.2,3.6-0.3,5.3-0.5c0.5,0,0.9,0.4,1,0.9c0,0.5-0.4,1-0.8,1.1C201,107.9,199.2,108.1,197.4,108.3
		L197.4,108.3L197.4,108.3z M206.3,107.4c-0.4,0-0.9-0.4-0.9-0.9s0.4-1,0.8-1.1c1.8-0.2,3.6-0.3,5.3-0.5c0.5,0,0.9,0.4,1,0.9
		c0,0.5-0.4,1-0.8,1.1C209.9,107.1,208.2,107.2,206.3,107.4C206.4,107.4,206.3,107.4,206.3,107.4L206.3,107.4z M215.3,106.6
		c-0.4,0-0.9-0.4-0.9-0.9c0-0.6,0.4-1,0.8-1.1l5.4-0.5c0.5,0,0.9,0.4,1,0.9c0,0.5-0.4,1-0.8,1.1L215.3,106.6
		C215.4,106.6,215.3,106.6,215.3,106.6L215.3,106.6z M224.3,105.8c-0.4,0-0.9-0.4-0.9-0.9s0.4-1,0.8-1.1l5.3-0.5
		c0.4,0,0.9,0.4,1,0.9c0,0.6-0.4,1-0.8,1.1L224.3,105.8C224.4,105.8,224.3,105.8,224.3,105.8L224.3,105.8z M233.2,105
		c-0.4,0-0.9-0.4-0.9-0.9s0.4-1,0.8-1.1l5.3-0.5c0.4,0,0.9,0.4,1,0.9c0,0.6-0.4,1-0.8,1.1L233.2,105L233.2,105L233.2,105z
		 M242.2,104.2c-0.4,0-0.9-0.4-0.9-0.9c0-0.6,0.4-1,0.8-1.1l5.3-0.5c0.4,0,0.9,0.4,1,0.9c0,0.5-0.4,1-0.8,1.1L242.2,104.2
		L242.2,104.2L242.2,104.2z M251.2,103.4c-0.4,0-0.9-0.4-0.9-0.9s0.4-1,0.8-1.1l5.3-0.5c0.4,0,0.9,0.4,1,0.9c0,0.6-0.4,1-0.8,1.1
		L251.2,103.4L251.2,103.4L251.2,103.4z M260.1,102.6c-0.4,0-0.9-0.4-0.9-0.9c0-0.6,0.4-1,0.8-1.1l5.3-0.5c0.5,0,0.9,0.4,1,0.9
		c0,0.6-0.4,1-0.8,1.1L260.1,102.6C260.2,102.6,260.2,102.6,260.1,102.6L260.1,102.6z M269.1,101.7c-0.4,0-0.9-0.4-0.9-0.9
		s0.4-1,0.8-1.1c1.8-0.2,3.6-0.3,5.3-0.5c0.4,0,0.9,0.4,1,0.9c0,0.5-0.4,1-0.8,1.1C272.8,101.4,271,101.6,269.1,101.7
		C269.2,101.7,269.2,101.7,269.1,101.7L269.1,101.7z M278.1,100.9c-0.4,0-0.8-0.4-0.9-0.9c0-0.6,0.4-1,0.8-1.1
		c1.8-0.2,3.6-0.4,5.3-0.5c0.5,0,0.9,0.4,1,0.9c0,0.5-0.4,1-0.8,1.1C281.7,100.5,280,100.7,278.1,100.9
		C278.2,100.9,278.1,100.9,278.1,100.9L278.1,100.9z M287.1,100c-0.4,0-0.8-0.4-0.9-0.9s0.4-1,0.8-1.1c1.8-0.2,3.6-0.4,5.3-0.6
		c0.5,0,0.9,0.4,1,0.9c0.1,0.5-0.4,1-0.8,1.1C290.7,99.6,288.9,99.8,287.1,100C287.2,100,287.1,100,287.1,100L287.1,100z M296.1,99
		c-0.4,0-0.8-0.4-0.9-0.9c-0.1-0.5,0.3-1,0.8-1.1c1.8-0.2,3.6-0.4,5.3-0.6c0.5-0.1,0.9,0.3,1,0.9c0.1,0.5-0.3,1-0.8,1.1
		C299.7,98.6,297.9,98.8,296.1,99L296.1,99L296.1,99z M305,98c-0.4,0-0.8-0.4-0.9-0.9c-0.1-0.5,0.3-1,0.8-1.1
		c1.8-0.2,3.6-0.4,5.3-0.7c0.5-0.1,0.9,0.3,1,0.9c0.1,0.5-0.3,1-0.8,1.1C308.6,97.5,306.8,97.7,305,98C305,98,305,98,305,98L305,98z
		 M313.9,96.9c-0.4,0-0.8-0.4-0.9-0.9c-0.1-0.5,0.3-1,0.8-1.1c1.8-0.2,3.6-0.5,5.3-0.7c0.4-0.1,0.9,0.3,1,0.9c0.1,0.5-0.3,1-0.8,1.1
		C317.6,96.4,315.8,96.7,313.9,96.9C314,96.9,313.9,96.9,313.9,96.9L313.9,96.9z M322.8,95.7c-0.4,0-0.8-0.4-0.9-0.9
		c-0.1-0.5,0.3-1,0.8-1.1c1.8-0.3,3.6-0.5,5.3-0.8c0.4-0.1,1,0.3,1,0.9c0.1,0.5-0.3,1.1-0.8,1.1C326.5,95.2,324.7,95.4,322.8,95.7
		C322.9,95.7,322.9,95.7,322.8,95.7L322.8,95.7z M331.8,94.3c-0.4,0-0.8-0.4-0.9-0.9s0.3-1.1,0.7-1.1c1.8-0.3,3.6-0.6,5.3-0.9
		c0.5-0.1,1,0.3,1,0.8c0.1,0.5-0.3,1.1-0.7,1.1C335.5,93.6,333.7,93.9,331.8,94.3C331.9,94.3,331.8,94.3,331.8,94.3L331.8,94.3z
		 M340.7,92.7c-0.4,0-0.8-0.3-0.9-0.8c-0.1-0.5,0.3-1.1,0.7-1.1c1.8-0.3,3.6-0.7,5.3-1c0.4-0.1,1,0.3,1.1,0.8s-0.3,1.1-0.7,1.2
		c-1.8,0.4-3.6,0.7-5.3,1C340.8,92.7,340.7,92.7,340.7,92.7L340.7,92.7z M349.5,91c-0.4,0-0.8-0.3-0.9-0.8s0.2-1.1,0.7-1.2
		c1.8-0.4,3.6-0.8,5.2-1.2c0.4-0.1,1,0.2,1.1,0.8c0.1,0.5-0.2,1.1-0.7,1.2C353.3,90.2,351.5,90.6,349.5,91
		C349.7,91,349.6,91,349.5,91L349.5,91z M358.3,88.9c-0.4,0-0.8-0.3-0.9-0.8s0.2-1.1,0.6-1.2c1.8-0.5,3.6-1,5.2-1.5
		c0.4-0.1,1,0.2,1.1,0.7s-0.2,1.1-0.6,1.2c-1.7,0.5-3.5,1-5.2,1.5C358.5,88.9,358.4,88.9,358.3,88.9L358.3,88.9z M367,86.3
		c-0.4,0-0.7-0.3-0.9-0.7c-0.2-0.5,0.1-1.1,0.6-1.2c1.8-0.6,3.5-1.2,5.1-1.8c0.4-0.2,1,0.1,1.2,0.6c0.2,0.5-0.1,1.1-0.5,1.3
		c-1.6,0.6-3.4,1.2-5.2,1.8C367.2,86.3,367.1,86.3,367,86.3L367,86.3z M375.6,83.1c-0.4,0-0.7-0.2-0.8-0.6c-0.2-0.5,0.1-1.1,0.5-1.3
		c1.8-0.8,3.4-1.6,4.9-2.4c0.4-0.2,1,0,1.2,0.5c0.2,0.5,0,1.1-0.4,1.3c-1.5,0.8-3.2,1.7-5,2.4C375.9,83.1,375.7,83.1,375.6,83.1
		L375.6,83.1z M383.7,78.8c-0.3,0-0.6-0.2-0.8-0.5c-0.3-0.5-0.1-1.1,0.4-1.4c1.6-1.1,3-2.2,4.2-3.3c0.4-0.4,0.9-0.3,1.2,0.1
		c0.4,0.4,0.3,1-0.1,1.4c-1.2,1.2-2.8,2.4-4.4,3.6C384,78.7,383.9,78.8,383.7,78.8L383.7,78.8z M390.5,72.4c-0.2,0-0.4-0.1-0.5-0.2
		c-0.4-0.3-0.4-1-0.2-1.4c0.4-0.6,0.8-1.2,1.1-1.8c0.3-0.5,0.8-0.7,1.2-0.4c0.4,0.3,0.6,0.9,0.4,1.4c-0.4,0.7-0.8,1.4-1.2,2.1
		C391.1,72.3,390.8,72.4,390.5,72.4L390.5,72.4z"/>
</g>
<g>
	<path class="st0" d="M391,56.1c-0.3,0-0.6-0.2-0.8-0.5c-0.8-1.5-1.9-3.1-3.2-4.5c-0.4-0.4-0.4-1,0-1.4c0.4-0.4,0.9-0.4,1.2,0
		c1.4,1.6,2.6,3.2,3.5,4.9c0.3,0.5,0.1,1.1-0.4,1.4C391.2,56,391.2,56.1,391,56.1L391,56.1z M384.9,48.7c-0.2,0-0.4-0.1-0.5-0.2
		c-1.2-1.1-2.8-2.3-4.4-3.4c-0.4-0.3-0.5-0.9-0.3-1.4c0.3-0.5,0.8-0.6,1.2-0.3c1.7,1.1,3.2,2.3,4.5,3.5c0.4,0.3,0.4,1,0.2,1.4
		C385.5,48.5,385.2,48.7,384.9,48.7L384.9,48.7z M377.4,43.2c-0.2,0-0.3,0-0.4-0.1c-1.5-0.9-3.1-1.8-4.8-2.6
		c-0.4-0.2-0.6-0.8-0.4-1.3c0.2-0.5,0.7-0.7,1.2-0.5c1.8,0.9,3.4,1.8,4.9,2.7c0.4,0.3,0.6,0.9,0.4,1.4C378,43,377.7,43.2,377.4,43.2
		L377.4,43.2z M369.2,39c-0.1,0-0.3,0-0.4-0.1c-1.6-0.7-3.3-1.4-5.1-2.1c-0.4-0.2-0.7-0.8-0.5-1.3c0.2-0.5,0.7-0.8,1.2-0.6
		c1.8,0.7,3.5,1.4,5.1,2.2c0.4,0.2,0.7,0.8,0.5,1.3C369.9,38.7,369.5,39,369.2,39L369.2,39z M360.6,35.5c-0.1,0-0.2,0-0.3,0
		c-1.7-0.6-3.4-1.2-5.2-1.8c-0.4-0.2-0.7-0.7-0.6-1.2c0.2-0.5,0.6-0.8,1.1-0.7c1.8,0.6,3.6,1.2,5.2,1.8c0.4,0.2,0.7,0.7,0.5,1.3
		C361.4,35.2,361.1,35.5,360.6,35.5L360.6,35.5z M352,32.6c-0.1,0-0.2,0-0.3,0c-1.7-0.5-3.5-1-5.2-1.5c-0.4-0.1-0.8-0.7-0.6-1.2
		c0.1-0.5,0.6-0.9,1.1-0.7c1.8,0.5,3.6,1,5.2,1.5c0.4,0.1,0.7,0.7,0.6,1.2C352.7,32.3,352.4,32.6,352,32.6L352,32.6z M343.2,30.2
		c-0.1,0-0.2,0-0.2,0c-1.7-0.5-3.5-0.9-5.2-1.3c-0.4-0.1-0.8-0.6-0.7-1.2c0.1-0.5,0.5-0.9,1.1-0.8c1.8,0.4,3.6,0.9,5.3,1.3
		c0.4,0.1,0.8,0.7,0.6,1.2C344,29.9,343.7,30.2,343.2,30.2L343.2,30.2z M334.4,28c-0.1,0-0.1,0-0.2,0c-1.8-0.4-3.5-0.8-5.3-1.2
		c-0.4-0.1-0.8-0.6-0.7-1.2c0.1-0.5,0.5-0.9,1.1-0.8c1.8,0.4,3.6,0.8,5.3,1.2c0.4,0.1,0.8,0.6,0.7,1.2C335.2,27.7,334.8,28,334.4,28
		L334.4,28z M325.5,26.1c-0.1,0-0.1,0-0.2,0c-1.8-0.4-3.6-0.7-5.3-1c-0.4-0.1-0.8-0.6-0.7-1.1c0.1-0.5,0.5-0.9,1-0.8
		c1.8,0.3,3.6,0.7,5.3,1c0.4,0.1,0.8,0.6,0.7,1.2C326.3,25.8,325.9,26.1,325.5,26.1L325.5,26.1z M316.6,24.5c-0.1,0-0.1,0-0.2,0
		c-1.8-0.3-3.6-0.6-5.3-0.9c-0.4-0.1-0.8-0.6-0.7-1.1s0.5-0.9,1-0.8c1.8,0.3,3.6,0.6,5.3,0.9c0.4,0.1,0.8,0.6,0.7,1.1
		C317.4,24.1,317.1,24.5,316.6,24.5L316.6,24.5z M307.7,23L307.7,23c-1.9-0.3-3.6-0.6-5.4-0.8c-0.4-0.1-0.8-0.6-0.8-1.1
		c0.1-0.5,0.5-0.9,1-0.9c1.8,0.3,3.6,0.5,5.3,0.8c0.4,0.1,0.8,0.6,0.8,1.1C308.5,22.6,308.2,23,307.7,23L307.7,23z M298.7,21.6
		L298.7,21.6c-1.9-0.2-3.6-0.5-5.4-0.7c-0.4-0.1-0.8-0.6-0.8-1.1c0.1-0.5,0.5-0.9,1-0.9c1.8,0.2,3.6,0.5,5.3,0.7
		c0.4,0.1,0.8,0.6,0.8,1.1C299.5,21.3,299.2,21.6,298.7,21.6L298.7,21.6z M289.7,20.4L289.7,20.4c-1.9-0.2-3.6-0.4-5.4-0.7
		c-0.4-0.1-0.8-0.6-0.8-1.1c0.1-0.5,0.5-0.9,1-0.9c1.8,0.2,3.6,0.4,5.3,0.7c0.4,0.1,0.8,0.6,0.8,1.1
		C290.6,20.1,290.2,20.4,289.7,20.4L289.7,20.4z M280.8,19.4L280.8,19.4c-1.9-0.2-3.6-0.4-5.5-0.6c-0.4-0.1-0.9-0.5-0.8-1.1
		c0.1-0.5,0.4-1,1-0.9c1.8,0.2,3.6,0.4,5.4,0.6c0.5,0.1,0.9,0.5,0.8,1.1C281.6,19,281.2,19.4,280.8,19.4L280.8,19.4z M271.8,18.4
		C271.8,18.4,271.7,18.4,271.8,18.4c-1.9-0.2-3.6-0.4-5.4-0.5c-0.5,0-0.9-0.5-0.8-1.1c0-0.6,0.4-1,1-0.9c1.8,0.2,3.6,0.3,5.4,0.5
		c0.5,0,0.9,0.5,0.8,1.1C272.7,18,272.2,18.4,271.8,18.4L271.8,18.4z M262.8,17.5C262.8,17.5,262.7,17.5,262.8,17.5
		c-1.9-0.2-3.6-0.3-5.4-0.5c-0.5,0-0.9-0.5-0.8-1.1c0-0.5,0.4-1,1-0.9c1.8,0.2,3.6,0.3,5.4,0.5c0.5,0,0.9,0.5,0.8,1.1
		C263.6,17.1,263.2,17.5,262.8,17.5L262.8,17.5z M253.8,16.7C253.7,16.7,253.7,16.7,253.8,16.7c-1.9-0.1-3.6-0.3-5.4-0.4
		c-0.5,0-0.9-0.5-0.8-1.1c0-0.5,0.4-1,1-0.9c1.8,0.1,3.6,0.3,5.4,0.4c0.5,0,0.9,0.5,0.8,1.1C254.6,16.3,254.2,16.7,253.8,16.7
		L253.8,16.7z M244.7,16L244.7,16c-1.9-0.1-3.6-0.3-5.4-0.4c-0.5,0-0.9-0.5-0.8-1.1c0-0.6,0.4-1,1-0.9c1.8,0.1,3.6,0.2,5.4,0.4
		c0.5,0,0.9,0.5,0.8,1.1C245.6,15.6,245.3,16,244.7,16L244.7,16z M235.7,15.4L235.7,15.4c-1.9-0.1-3.6-0.2-5.4-0.3
		c-0.5,0-0.9-0.5-0.8-1.1c0-0.6,0.4-1,1-0.9c1.8,0.1,3.6,0.2,5.4,0.3c0.5,0,0.9,0.5,0.8,1.1C236.6,15,236.2,15.4,235.7,15.4
		L235.7,15.4z M226.7,14.9L226.7,14.9c-1.9-0.1-3.6-0.2-5.4-0.3c-0.5,0-0.9-0.5-0.9-1c0-0.6,0.4-1,0.9-1c1.8,0.1,3.6,0.2,5.4,0.3
		c0.5,0,0.9,0.5,0.8,1C227.6,14.4,227.2,14.9,226.7,14.9L226.7,14.9z M217.7,14.4L217.7,14.4c-1.9-0.1-3.6-0.2-5.4-0.3
		c-0.5,0-0.9-0.5-0.9-1c0-0.6,0.4-1,0.9-1c1.8,0.1,3.6,0.2,5.4,0.3c0.5,0,0.9,0.5,0.9,1C218.6,14,218.1,14.4,217.7,14.4L217.7,14.4z
		 M208.6,14L208.6,14c-1.9-0.1-3.6-0.2-5.4-0.2c-0.5,0-0.9-0.5-0.9-1c0-0.6,0.4-1,0.9-1c1.8,0.1,3.6,0.1,5.4,0.2
		c0.5,0,0.9,0.5,0.9,1S209.1,14,208.6,14L208.6,14z M199.6,13.6L199.6,13.6c-1.9-0.1-3.6-0.1-5.4-0.2c-0.5,0-0.9-0.5-0.9-1
		c0-0.6,0.4-1,0.9-1c1.8,0.1,3.6,0.1,5.4,0.2c0.5,0,0.9,0.5,0.9,1C200.5,13.2,200.1,13.6,199.6,13.6L199.6,13.6z M190.5,13.3
		L190.5,13.3c-1.9-0.1-3.6-0.1-5.4-0.2c-0.5,0-0.9-0.5-0.9-1s0.4-1,0.9-1l0,0c1.8,0,3.6,0.1,5.4,0.2c0.5,0,0.9,0.5,0.9,1
		C191.4,12.9,191.1,13.3,190.5,13.3L190.5,13.3z M181.6,13.1L181.6,13.1c-1.9,0-3.6-0.1-5.4-0.1c-0.5,0-0.9-0.5-0.9-1
		c0-0.6,0.4-1,0.9-1c1.8,0,3.6,0.1,5.4,0.1c0.5,0,0.9,0.5,0.9,1S182,13.1,181.6,13.1L181.6,13.1z M172.5,12.9L172.5,12.9
		c-2,0-3.7-0.1-5.4-0.1c-0.5,0-0.9-0.5-0.9-1c0-0.6,0.4-1,0.9-1c1.7,0,3.6,0,5.4,0.1c0.5,0,0.9,0.5,0.9,1S173,12.9,172.5,12.9
		L172.5,12.9z M163.4,12.8L163.4,12.8c-2,0-3.8,0-5.4,0c-0.5,0-0.9-0.5-0.9-1c0-0.6,0.4-1,0.9-1c1.6,0,3.5,0,5.4,0
		c0.5,0,0.9,0.5,0.9,1S163.9,12.8,163.4,12.8L163.4,12.8z M154.4,12.7H154c-0.5,0-0.9-0.5-0.9-1c0-0.6,0.4-1,0.9-1l0,0h0.4
		c0.5,0,0.9,0.4,0.9,1S154.9,12.7,154.4,12.7L154.4,12.7z"/>
</g>
<g>
	<path class="st0" d="M125.4,411.6c-0.3,0-0.5-0.1-0.7-0.3c-0.4-0.4-0.4-1,0-1.4l7.1-7.3l-6-7.3c-0.4-0.4-0.3-1.1,0.1-1.4
		c0.4-0.4,1.1-0.3,1.4,0.1l7.2,8.7l-8.3,8.6C125.9,411.5,125.7,411.6,125.4,411.6L125.4,411.6z"/>
</g>
<g>
	<path class="st0" d="M374.7,295.1c-0.2,0-0.3,0-0.5-0.1l-9.8-5.7l4.8-10.9c0.2-0.5,0.8-0.7,1.3-0.5s0.7,0.8,0.5,1.3l-4.1,9.3
		l8.2,4.8c0.5,0.3,0.6,0.9,0.4,1.4C375.4,294.9,375.1,295.1,374.7,295.1L374.7,295.1z"/>
</g>
<g>
	<path class="st0" d="M384.9,453.8l-8.3-6.6c-0.4-0.3-0.5-1-0.2-1.4s1-0.5,1.4-0.2l7,5.5l6.9-6.6c0.4-0.4,1-0.4,1.4,0s0.4,1,0,1.4
		L384.9,453.8L384.9,453.8z"/>
</g>
<g>
	<path class="st0" d="M167,207.6c-0.3,0-0.6-0.1-0.8-0.4c-0.4-0.4-0.3-1.1,0.1-1.4l7.8-6.6l-5.3-7.9c-0.3-0.5-0.2-1.1,0.3-1.4
		c0.5-0.3,1.1-0.2,1.4,0.3l6.3,9.4l-9.1,7.7C167.4,207.6,167.2,207.6,167,207.6L167,207.6z"/>
</g>
<g>
	<path class="st0" d="M261.4,110.4c-0.2,0-0.4-0.1-0.5-0.2l-8.1-7.7l5.6-9.4c0.3-0.5,0.8-0.6,1.2-0.3s0.5,0.9,0.3,1.4l-4.7,7.9
		l6.9,6.6c0.4,0.4,0.4,1,0.1,1.4C262,110.3,261.7,110.4,261.4,110.4L261.4,110.4z"/>
</g>
</svg>
