<svg id="Layer_1" data-name="Layer 1" xmlns="http://www.w3.org/2000/svg" viewBox="0 0 438 579"><defs><style>.cls-1{fill:#938bbd;}</style></defs><path class="cls-1" d="M366,560.4a.76.76,0,0,1-.4-.1,1,1,0,0,1-.6-1.3c.6-1.6,1.3-3.5,2-5.5a1,1,0,1,1,1.9.7c-.7,2.1-1.4,3.9-2,5.6a.87.87,0,0,1-.9.6Zm3.3-9.2a.37.37,0,0,1-.3-.1,1,1,0,0,1-.6-1.3c.6-1.8,1.2-3.6,1.9-5.6a1,1,0,0,1,1.9.7c-.6,2-1.3,3.9-1.9,5.6a1.2,1.2,0,0,1-1,.7Zm3-9.4H372a1.15,1.15,0,0,1-.7-1.3c.6-1.8,1.1-3.7,1.7-5.6a1,1,0,1,1,1.9.5c-.6,2-1.2,3.8-1.7,5.7,0,.5-.4.7-.9.7Zm2.8-9.4h-.3a1,1,0,0,1-.7-1.2c.5-1.9,1-3.7,1.6-5.7a1,1,0,0,1,1.2-.7,1,1,0,0,1,.7,1.2c-.5,1.9-1,3.9-1.6,5.7a.81.81,0,0,1-.9.7Zm2.6-9.5h-.2a1,1,0,0,1-.7-1.2c.5-1.9.9-3.8,1.4-5.7a1,1,0,1,1,1.9.5c-.5,2-.9,3.9-1.4,5.8a1.33,1.33,0,0,1-1,.6Zm2.3-9.5h-.2a1.1,1.1,0,0,1-.8-1.2c.4-1.9.8-3.8,1.2-5.8a1,1,0,0,1,2,.4c-.4,2-.8,3.9-1.2,5.8a1.15,1.15,0,0,1-1,.8Zm1.9-9.6h-.2a1,1,0,0,1-.8-1.2c.4-1.9.7-3.9,1-5.8a1,1,0,1,1,1.9.3c-.3,1.9-.6,3.9-1,5.8a.9.9,0,0,1-.9.9Zm1.6-9.7h-.1a1,1,0,0,1-.8-1.1c.3-2,.5-3.9.8-5.8a1,1,0,1,1,2,.2c-.2,1.9-.5,3.9-.8,5.9a1.33,1.33,0,0,1-1.1.8Zm1.2-9.8h0a1.09,1.09,0,0,1-1-1.1c.2-2,.4-3.9.5-5.9a1,1,0,0,1,2,.2c-.1,1.9-.3,3.9-.5,5.9a1.06,1.06,0,0,1-1,.9Zm.7-9.8h0a1,1,0,0,1-1-1c.1-2,.1-4,.2-5.9a1.08,1.08,0,0,1,1-1h0a1,1,0,0,1,1,1c0,1.9-.1,3.9-.2,5.9a1,1,0,0,1-1,1Zm.1-9.8a1,1,0,0,1-1-1,58.28,58.28,0,0,0-.3-5.9,1.09,1.09,0,0,1,.9-1.1,1.17,1.17,0,0,1,1.1.9q.15,2.85.3,6a1,1,0,0,1-1,1.1Zm-.5-9.8a1.06,1.06,0,0,1-1-.9c-.2-2-.4-3.9-.7-5.8a1,1,0,0,1,1.9-.3c.3,1.9.6,3.9.8,5.9a1,1,0,0,1-.9,1.1Zm-1.5-9.7a1,1,0,0,1-1-.8c-.4-1.9-.8-3.9-1.3-5.7a1,1,0,0,1,1.9-.5c.5,1.9,1,3.8,1.4,5.8a1,1,0,0,1-.8,1.2Zm-2.5-9.5a1,1,0,0,1-.9-.7,43.26,43.26,0,0,0-2.1-5.4,1,1,0,1,1,1.8-.8,53.66,53.66,0,0,1,2.1,5.6,1,1,0,0,1-.6,1.3Zm-3.8-9a1.05,1.05,0,0,1-.9-.5c-.9-1.7-1.9-3.4-2.9-5a1,1,0,0,1,1.7-1.1,44,44,0,0,1,3,5.2.88.88,0,0,1-.4,1.3c-.2,0-.3.1-.5.1Zm-5.3-8.3a.91.91,0,0,1-.8-.4,53,53,0,0,0-3.8-4.3,1,1,0,0,1,1.4-1.4,58.23,58.23,0,0,1,4,4.5,1,1,0,0,1-.2,1.4.85.85,0,0,1-.6.2Zm-6.7-7.1a1.07,1.07,0,0,1-.6-.2,49.55,49.55,0,0,0-4.6-3.4,1,1,0,0,1,1.1-1.7,42.91,42.91,0,0,1,4.8,3.6,1,1,0,0,1,.1,1.4,1.6,1.6,0,0,1-.8.3Zm-8.1-5.5a.9.9,0,0,1-.5-.1c-1.7-.9-3.4-1.7-5.2-2.5a1,1,0,0,1,.8-1.8,44.89,44.89,0,0,1,5.4,2.6,1,1,0,0,1,.4,1.4,1.49,1.49,0,0,1-.9.4Zm-9-3.9a.37.37,0,0,1-.3-.1c-1.8-.6-3.7-1.1-5.6-1.6a1,1,0,1,1,.5-1.9c2,.5,3.9,1,5.8,1.6a1,1,0,0,1,.6,1.3,1.2,1.2,0,0,1-1,.7Zm-9.5-2.4h-.2c-1.9-.3-3.8-.6-5.8-.8a1.17,1.17,0,0,1-.9-1.1,1.09,1.09,0,0,1,1.1-.9c2,.2,4,.5,5.9.8a1,1,0,0,1,.8,1.2.82.82,0,0,1-.9.8Zm-9.7-1.2h0c-2-.1-3.9-.2-5.9-.2a1,1,0,0,1,0-2h0c2,0,4,.1,6,.2a.9.9,0,0,1,.9,1.1,1.06,1.06,0,0,1-1,.9Z"/><path class="cls-1" d="M173.2,404.9h-2.5a1,1,0,0,1-1-1,.94.94,0,0,1,1-1h6a1,1,0,0,1,0,2Zm-6.5,0h0c-2,0-4,0-6-.1a1,1,0,0,1,0-2c2,0,4,0,6,.1a1,1,0,0,1,0,2Zm13.9,0a1,1,0,0,1-1-1,.94.94,0,0,1,1-1c2,0,4,0,6-.1a1,1,0,0,1,0,2c-2,0-4,0-6,.1Zm10-.2a1,1,0,0,1-1-1,.94.94,0,0,1,1-1c2,0,4-.1,6-.1a1,1,0,1,1,0,2c-2,.1-4,.1-6,.1Zm-33.8,0h0c-2,0-4-.1-6-.1a1,1,0,0,1,0-2c2,.1,4,.1,6,.1a1,1,0,0,1,0,2Zm43.7-.2a1,1,0,0,1-1-1,.94.94,0,0,1,1-1c2,0,4-.1,6-.2a1,1,0,0,1,0,2c-2,.1-4,.2-6,.2Zm-53.6,0h0c-2-.1-4-.1-6-.2a1,1,0,0,1,0-2c2,.1,4,.2,6,.2a1,1,0,0,1,1,1,1.07,1.07,0,0,1-1,1Zm63.6-.3a1,1,0,0,1-1-1,.94.94,0,0,1,1-1c2-.1,4-.1,6-.2a1,1,0,0,1,0,2c-2,.1-4,.2-6,.2Zm-73.6-.1h0l-6-.3a1,1,0,1,1,.2-2l6,.3a1,1,0,0,1,1,1,1.27,1.27,0,0,1-1.2,1Zm83.5-.2a1,1,0,0,1-1-1,.94.94,0,0,1,1-1c2-.1,4-.2,6-.2a1,1,0,0,1,1,1,.94.94,0,0,1-1,1c-2,0-4,.1-6,.2Zm-93.4-.4h0c-2.1-.1-4.1-.3-6-.4a1,1,0,1,1,.2-2c2,.1,3.9.3,5.9.4a.9.9,0,0,1,.9,1.1,1,1,0,0,1-1,.9Zm103.3,0a1,1,0,0,1-1-1,.94.94,0,0,1,1-1l5.9-.3a1,1,0,0,1,1,1,.92.92,0,0,1-.9,1l-6,.3Zm9.9-.5a1,1,0,0,1-1-.9.92.92,0,0,1,.9-1l6-.3a1.17,1.17,0,0,1,1.1.9,1.09,1.09,0,0,1-.9,1.1c-2.1,0-4.1.1-6.1.2Zm-123.1-.2h0c-2.1-.2-4.1-.4-6-.5a1,1,0,0,1-.9-1.1.94.94,0,0,1,1.1-.9c2,.2,3.9.4,5.9.5a1,1,0,0,1,.9,1.1,1,1,0,0,1-1,.9Zm133-.3a1,1,0,0,1-1-.9,1.09,1.09,0,0,1,.9-1.1l6-.3a1.17,1.17,0,0,1,1.1.9,1.09,1.09,0,0,1-.9,1.1l-6.1.3Zm9.9-.6a1,1,0,0,1-1-.9,1.09,1.09,0,0,1,.9-1.1l6-.4a1,1,0,0,1,.2,2l-6.1.4Zm-152.8,0h-.1c-2-.2-4-.4-5.9-.7a1,1,0,1,1,.2-2c2,.2,3.9.5,5.9.7a1.17,1.17,0,0,1,.9,1.1,1.06,1.06,0,0,1-1,.9Zm162.8-.6a1,1,0,0,1-1-.9,1.09,1.09,0,0,1,.9-1.1l6-.4a1.17,1.17,0,0,1,1.1.9,1.09,1.09,0,0,1-.9,1.1l-6.1.4Zm9.9-.6a1,1,0,0,1-1-.9,1.09,1.09,0,0,1,.9-1.1l6-.4a1.17,1.17,0,0,1,1.1.9,1.09,1.09,0,0,1-.9,1.1l-6.1.4Zm-182.6,0h-.1c-2-.3-4-.5-5.9-.8a1,1,0,1,1,.3-1.9c1.9.3,3.9.6,5.9.8a1.17,1.17,0,0,1,.9,1.1,1.21,1.21,0,0,1-1.1.8Zm192.5-.6a1,1,0,0,1-1-.9,1.09,1.09,0,0,1,.9-1.1l6-.4a1,1,0,1,1,.2,2l-6.1.4Zm9.9-.7a1,1,0,0,1-1-.9,1.09,1.09,0,0,1,.9-1.1l6-.4a1,1,0,1,1,.2,2l-6.1.4Zm-212.2-.1h-.2c-2-.3-4-.7-5.9-1a1,1,0,1,1,.4-2c1.9.4,3.9.7,5.9,1a1,1,0,0,1,.8,1.1,1.06,1.06,0,0,1-1,.9Zm-9.8-1.8h-.2c-2-.4-4-.8-5.9-1.3a1,1,0,0,1,.5-1.9c1.9.4,3.8.9,5.8,1.3a1,1,0,0,1,.8,1.2,1.13,1.13,0,0,1-1,.7Zm-9.6-2.3h-.2c-2-.5-3.9-1-5.8-1.6a1,1,0,0,1,.5-1.9c1.8.5,3.8,1.1,5.7,1.6a1,1,0,0,1,.7,1.2,1,1,0,0,1-.9.7Zm-9.6-2.7h-.3c-2-.6-3.9-1.3-5.7-2a1,1,0,0,1,.7-1.9c1.8.7,3.7,1.3,5.6,1.9a1,1,0,0,1,.6,1.3,1,1,0,0,1-.9.7Zm-9.3-3.4a.6.6,0,0,1-.4-.1c-1.9-.8-3.8-1.6-5.5-2.5a1,1,0,0,1,.8-1.8q2.55,1.2,5.4,2.4a.92.92,0,0,1,.5,1.3.76.76,0,0,1-.8.7Zm-9-4.2a.9.9,0,0,1-.5-.1c-1.8-1-3.6-2-5.2-3.1a1,1,0,1,1,1.1-1.7c1.6,1,3.3,2.1,5,3a1,1,0,0,1,.4,1.4.89.89,0,0,1-.8.5Zm-8.3-5.4a1.42,1.42,0,0,1-.6-.2,45.52,45.52,0,0,1-4.6-4,1,1,0,0,1,1.4-1.4,41.49,41.49,0,0,0,4.4,3.8,1.08,1.08,0,0,1,.2,1.4.91.91,0,0,1-.8.4Zm-7.2-6.8a.91.91,0,0,1-.8-.4,41,41,0,0,1-3.5-5,1,1,0,1,1,1.8-1,36.33,36.33,0,0,0,3.3,4.7,1,1,0,0,1-.1,1.4,1.33,1.33,0,0,1-.7.3Zm-5.2-8.3a.87.87,0,0,1-.9-.6,39.32,39.32,0,0,1-1.9-5.8,1,1,0,1,1,2-.4,27.22,27.22,0,0,0,1.8,5.5,1,1,0,0,1-.5,1.3.78.78,0,0,0-.5,0ZM17,354.8a1.06,1.06,0,0,1-1-.9c-.1-1.2-.2-2.5-.2-3.8a17.7,17.7,0,0,1,.1-2.3.9.9,0,0,1,1.1-.9.9.9,0,0,1,.9,1.1c0,.7-.1,1.5-.1,2.2,0,1.2.1,2.4.2,3.6a.94.94,0,0,1-.9,1.1l-.1-.1Zm.3-9.9h-.2a1,1,0,0,1-.8-1.1,44.85,44.85,0,0,1,1.3-5.9,1,1,0,0,1,1.2-.7,1,1,0,0,1,.7,1.2c-.5,1.9-.9,3.9-1.2,5.7a1.05,1.05,0,0,1-1,.8Zm2.4-9.6a.37.37,0,0,1-.3-.1,1,1,0,0,1-.6-1.3c.6-1.8,1.4-3.7,2.2-5.6a1,1,0,0,1,1.8.8c-.8,1.9-1.5,3.7-2.1,5.5a1.2,1.2,0,0,1-1,.7Zm3.8-9.1a.6.6,0,0,1-.4-.1,1,1,0,0,1-.5-1.3c.9-1.7,1.8-3.5,2.8-5.3a1,1,0,0,1,1.8,1c-1,1.8-1.9,3.5-2.8,5.2a1.05,1.05,0,0,1-.9.5Zm4.8-8.7a.75.75,0,0,1-.5-.1,1,1,0,0,1-.3-1.4q1.5-2.55,3.3-5.1a1,1,0,1,1,1.7,1.1c-1.1,1.7-2.2,3.3-3.2,5a1.39,1.39,0,0,1-1,.5Z"/><path class="cls-1" d="M362.9,568.4a.6.6,0,0,1-.4-.1,1,1,0,0,1-.5-1.3s.5-1.2,1.4-3.4a1,1,0,0,1,1.9.7c-.9,2.2-1.4,3.4-1.4,3.4a1.55,1.55,0,0,1-1,.7Z"/><path class="cls-1" d="M204.7,317.5h-1.2c-.6,0-1-.65-1-1.64s.4-1.63,1-1.63h6c.6,0,1,.65,1,1.63s-.4,1.64-1,1.64Zm-5.2,0h-6.1c-.6,0-1-.82-1-1.64,0-1,.5-1.63,1-1.63h6c.6,0,1,.65,1,1.63.1.82-.4,1.64-.9,1.64Zm14.1-.16c-.5,0-1-.66-1-1.64s.4-1.64,1-1.64c2,0,4,0,6.1-.16h0c.5,0,1,.66,1,1.64s-.4,1.63-1,1.63c-2,.17-4.1.17-6.1.17Zm-24.2,0h0c-2.1,0-4.1-.17-6.1-.17-.6,0-1-.82-1-1.63,0-1,.5-1.64,1-1.64,2,0,4,.16,6,.16.6,0,1,.82,1,1.64s-.4,1.64-.9,1.64Zm34.3-.17c-.5,0-1-.65-1-1.63s.4-1.64,1-1.64c2,0,4-.16,6.1-.16.6,0,1,.65,1,1.63s-.4,1.64-1,1.64c-2,.16-4,.16-6.1.16ZM179.3,317h0c-2.1,0-4.1-.16-6.1-.16-.6,0-1-.82-1-1.64,0-1,.5-1.64,1-1.64,2,0,4,.17,6,.17.6,0,1,.82,1,1.63.1,1-.4,1.64-.9,1.64Zm54.6-.16c-.5,0-1-.66-1-1.64s.4-1.64,1-1.64c2-.16,4-.16,6.1-.32h0c.5,0,1,.65,1,1.63s-.4,1.64-1,1.64c-2.1.16-4.1.33-6.1.33Zm-64.7-.17h0c-2.1-.16-4.1-.16-6.1-.33-.6,0-1-.81-1-1.63,0-1,.5-1.64,1-1.64,1.9.17,4,.17,6,.33.6,0,1,.82,1,1.64.1,1-.4,1.63-.9,1.63Zm74.8-.33c-.5,0-1-.65-1-1.63s.4-1.64,1-1.64c2-.16,4-.16,6-.32.5,0,1,.65,1,1.63s-.4,1.64-1,1.64c-2,.16-4,.32-6,.32Zm-84.9-.16h0c-2.2-.16-4.2-.16-6.1-.33-.6,0-1-.81-1-1.63,0-1,.5-1.64,1-1.64,1.9.17,3.9.17,6,.33.6,0,1,.82,1,1.64,0,1-.4,1.63-.9,1.63Zm95-.49c-.5,0-1-.65-1-1.64s.4-1.63,1-1.63l6-.49c.5,0,1,.65,1,1.47,0,1-.4,1.64-.9,1.8a39,39,0,0,1-6.1.49ZM149,315.54h0c-2.3-.17-4.3-.33-6.1-.49-.6,0-1-.82-1-1.64,0-1,.5-1.64,1-1.64,1.8.17,3.8.33,6,.5.6,0,1,.81,1,1.63,0,1-.4,1.64-.9,1.64Zm115.1-.49c-.5,0-1-.66-1-1.48,0-1,.4-1.63.9-1.8,2-.16,4-.32,6-.65.6,0,1,.65,1.1,1.47,0,1-.4,1.64-.9,1.8-2,.17-4,.33-6.1.66Zm10.1-1.15c-.5,0-1-.65-1-1.47,0-1,.4-1.64.9-1.8,2-.16,4-.49,6-.65.5,0,1,.65,1.1,1.47,0,1-.4,1.63-.9,1.8-2,.32-4,.49-6.1.65Zm10.1-1.14c-.5,0-1-.66-1-1.48,0-1,.4-1.63.9-1.8,2-.32,4-.49,6-.81.5-.17,1,.65,1.1,1.47,0,1-.4,1.63-.9,1.8-2,.33-4,.65-6.1.82Zm10.1-1.31c-.5,0-.9-.66-1-1.47a1.76,1.76,0,0,1,.9-1.8l6-1c.5,0,1,.5,1.1,1.48a1.64,1.64,0,0,1-.9,1.8l-6.1,1Zm10.1-1.8c-.5,0-.9-.66-1-1.47a1.63,1.63,0,0,1,.9-1.8c2-.33,4-.66,6-1.15.5-.16,1,.49,1.1,1.47a1.63,1.63,0,0,1-.9,1.8c-2,.33-4,.82-6,1.15Zm10-1.8c-.5,0-.9-.66-1-1.47a1.63,1.63,0,0,1,.9-1.8c2-.49,4-.82,6-1.31.5-.16,1.1.49,1.1,1.47.1.82-.3,1.8-.9,1.8-2,.49-4,.82-6,1.31Zm10-2.29c-.5,0-.9-.66-1-1.47s.3-1.8.8-1.8l6-1.47c.5-.17,1.1.49,1.1,1.3s-.3,1.8-.8,1.8l-6,1.48c0,.16,0,.16-.1.16Zm10-2.62c-.5,0-.9-.49-1-1.31s.3-1.8.8-2c2-.49,4-1.14,5.9-1.8.5-.16,1.1.49,1.2,1.31s-.3,1.8-.8,2c-2,.66-4,1.15-6,1.8Zm9.9-2.94c-.5,0-.9-.49-1-1.31s.2-1.8.8-2c2-.66,4-1.31,5.9-2,.5-.16,1.1.33,1.2,1.31.1.82-.2,1.8-.8,2l-5.9,2Zm9.9-3.44c-.5,0-.9-.49-1-1.31s.2-1.8.7-2c2-.82,4-1.47,5.9-2.29.5-.16,1.1.33,1.2,1.15s-.2,1.79-.7,2c-1.9.82-3.9,1.63-5.9,2.29,0,0-.1.16-.2.16Zm9.8-4.09c-.4,0-.8-.49-1-1.14-.1-.82.2-1.8.7-2,2-.81,3.9-1.79,5.8-2.78.5-.32,1.1.17,1.2,1.15.2.82-.1,1.8-.7,2-1.9,1-3.9,1.8-5.8,2.78Zm9.7-4.74c-.4,0-.8-.49-1-1.15a2.14,2.14,0,0,1,.6-2.12,60.44,60.44,0,0,0,5.7-3.27c.5-.33,1.1.16,1.3,1a2.13,2.13,0,0,1-.6,2.12c-1.8,1.15-3.8,2.13-5.8,3.28,0,.16-.1.16-.2.16Zm9.5-5.56c-.4,0-.8-.33-.9-1a2,2,0,0,1,.6-2.13c1.9-1.31,3.8-2.45,5.5-3.76.5-.33,1.1,0,1.3.81a2.14,2.14,0,0,1-.5,2.13c-1.8,1.31-3.7,2.62-5.6,3.93-.1-.17-.2,0-.4,0Zm9.3-6.71c-.4,0-.7-.33-.9-1a2.4,2.4,0,0,1,.4-2.13c1.8-1.47,3.6-3.11,5.3-4.58.5-.49,1.1-.16,1.4.66a2.29,2.29,0,0,1-.4,2.29,68.29,68.29,0,0,1-5.4,4.74c-.1-.16-.3,0-.4,0Zm8.7-8.18c-.3,0-.6-.33-.8-.82a2.28,2.28,0,0,1,.3-2.29,72.63,72.63,0,0,0,4.8-5.72c.4-.49,1.1-.49,1.4.33a2.32,2.32,0,0,1-.2,2.29c-1.5,2-3.2,3.92-5,5.88a.64.64,0,0,1-.5.33Zm7.9-10.14c-.3,0-.5-.16-.7-.49a2.34,2.34,0,0,1,0-2.29c1.5-2.29,2.8-4.74,4-7,.3-.66,1-.82,1.4-.33a2.6,2.6,0,0,1,.2,2.29,56.17,56.17,0,0,1-4.2,7.36c-.2.33-.4.49-.7.49Zm6.4-12.76c-.2,0-.4,0-.5-.16a2.27,2.27,0,0,1-.3-2.29,60.82,60.82,0,0,0,2.5-8.51c.2-.82.8-1.31,1.3-1a2.16,2.16,0,0,1,.6,2.13,71.42,71.42,0,0,1-2.7,9.16.89.89,0,0,1-.9.65Zm3.8-15h-.2a1.84,1.84,0,0,1-.8-2,63.76,63.76,0,0,0,.6-8.83c0-.82.5-1.64,1-1.64h0c.6,0,1,.82,1,1.64a73.44,73.44,0,0,1-.6,9.48c-.1.82-.6,1.31-1,1.31Z"/><path class="cls-1" d="M418.7,213.4a1.05,1.05,0,0,1-.9-.5,37.38,37.38,0,0,0-3.2-4.9,1,1,0,0,1,1.5-1.3,29,29,0,0,1,3.4,5.2.88.88,0,0,1-.4,1.3.52.52,0,0,1-.4.2Zm-6.1-8a1.08,1.08,0,0,1-.7-.3,33.27,33.27,0,0,0-4.6-3.6,1,1,0,0,1,1.1-1.7,48.78,48.78,0,0,1,4.9,3.8,1,1,0,0,1,0,1.4.67.67,0,0,1-.7.4Zm-282-2.8h-3.1a1,1,0,0,1,0-2h6a1,1,0,0,1,1,1,.94.94,0,0,1-1,1Zm6.9-.1a1,1,0,0,1-1-1,.94.94,0,0,1,1-1c2,0,4-.1,6-.1a1,1,0,0,1,1,1,.94.94,0,0,1-1,1c-1.9.1-4,.1-6,.1Zm-14.1,0h0c-2.1,0-4.1-.1-6.1-.2a1,1,0,0,1,0-2c2,.1,4,.1,6,.2a1,1,0,0,1,1,1,.87.87,0,0,1-.9,1Zm24.2-.2a1,1,0,0,1-1-1,.94.94,0,0,1,1-1c2-.1,4-.2,6-.2a1,1,0,0,1,0,2c-1.9,0-3.9.1-6,.2Zm-34.3-.1h0c-2.1-.1-4.2-.3-6.1-.4a1,1,0,0,1-.9-1.1.9.9,0,0,1,1.1-.9c1.9.2,4,.3,6,.4a.9.9,0,0,1,.9,1.1,1.06,1.06,0,0,1-1,.9Zm44.4-.4a1,1,0,0,1-1-.9.92.92,0,0,1,.9-1l6-.3a1.17,1.17,0,0,1,1.1.9,1.09,1.09,0,0,1-.9,1.1c-2,0-4,.1-6.1.2Zm-54.5-.4h-.1c-2.1-.2-4.1-.5-6-.7a1,1,0,1,1,.2-2c1.9.3,3.9.5,6,.7a1,1,0,0,1,.9,1.1,1.06,1.06,0,0,1-1,.9Zm64.6-.2a1,1,0,0,1-1-.9,1.09,1.09,0,0,1,.9-1.1c2-.1,4-.3,6-.4a1,1,0,0,1,.2,2c-2,.2-4,.3-6.1.4Zm10.1-.7a1,1,0,0,1-1-.9,1.09,1.09,0,0,1,.9-1.1c2-.1,4-.3,6-.5a1.09,1.09,0,0,1,1.1.9,1.17,1.17,0,0,1-.9,1.1c-2,.2-4,.4-6.1.5Zm-84.7-.4H93c-2.1-.3-4.1-.7-6-1.1a1,1,0,0,1,.4-2c1.9.4,3.9.8,5.9,1.1a1,1,0,0,1,.8,1.1,1,1,0,0,1-.9.9Zm94.8-.3a1,1,0,0,1-1-.9,1.17,1.17,0,0,1,.9-1.1c2-.2,4-.3,6-.5.5-.1,1,.4,1.1.9a1.17,1.17,0,0,1-.9,1.1c-2,.1-4,.3-6.1.5Zm216.4-.3a.9.9,0,0,1-.5-.1c-1.7-.9-3.5-1.8-5.4-2.6a1,1,0,0,1,.8-1.8,48.29,48.29,0,0,1,5.6,2.7,1,1,0,0,1,.4,1.4,1.27,1.27,0,0,1-.9.4Zm-206.3-.6a1.06,1.06,0,0,1-1-.9,1.09,1.09,0,0,1,.9-1.1c2-.2,4-.4,6-.5a1.09,1.09,0,0,1,1.1.9c.1.5-.4,1-.9,1.1-2,.1-4,.3-6.1.5ZM83.3,198H83a50.84,50.84,0,0,1-5.9-1.8,1,1,0,0,1,.7-1.9c1.8.6,3.7,1.2,5.7,1.7a1,1,0,0,1-.2,2Zm124.9,0a1.06,1.06,0,0,1-1-.9c-.1-.5.4-1,.9-1.1l6-.6c.5-.1,1,.4,1.1.9s-.4,1-.9,1.1l-6.1.6Zm10-1a1.06,1.06,0,0,1-1-.9c-.1-.5.4-1,.9-1.1l6-.6a1,1,0,0,1,.2,2l-6.1.6Zm10.1-.9a1.06,1.06,0,0,1-1-.9,1,1,0,0,1,.9-1.1l6-.6a.94.94,0,0,1,1.1.9,1,1,0,0,1-.9,1.1l-6.1.6Zm166.9-.6a.37.37,0,0,1-.3-.1q-2.7-.9-5.7-1.8a1,1,0,0,1,.5-1.9c2,.6,4,1.2,5.9,1.8a1,1,0,0,1,.6,1.3,1.2,1.2,0,0,1-1,.7Zm-156.8-.4a1.06,1.06,0,0,1-1-.9c-.1-.5.4-1,.9-1.1l6-.6c.5-.1,1,.4,1.1.9a1,1,0,0,1-.9,1.1l-6.1.6Zm-164.7-.3a.6.6,0,0,1-.4-.1,48.29,48.29,0,0,1-5.6-2.7,1,1,0,0,1,1-1.8,52.35,52.35,0,0,0,5.3,2.6.92.92,0,0,1,.5,1.3.76.76,0,0,1-.8.7Zm174.8-.7a1.06,1.06,0,0,1-1-.9c-.1-.5.4-1,.9-1.1l6-.6a1,1,0,0,1,1.1.9c.1.5-.4,1-.9,1.1l-6.1.6Zm10-.9a1.06,1.06,0,0,1-1-.9c-.1-.5.4-1,.9-1.1,2-.2,4-.4,6-.5a1,1,0,0,1,.2,2c-2,.1-4,.3-6.1.5Zm127-.5h-.2c-1.9-.4-3.9-.8-5.9-1.2a1,1,0,0,1,.4-2q3.15.6,6,1.2a1.1,1.1,0,0,1,.8,1.2,1.4,1.4,0,0,1-1.1.8Zm-116.9-.4a1.06,1.06,0,0,1-1-.9,1.17,1.17,0,0,1,.9-1.1c2-.2,4-.4,6-.5a1,1,0,0,1,.2,2c-2,.1-4,.3-6.1.5Zm10.1-.9a1,1,0,0,1-1-.9,1.17,1.17,0,0,1,.9-1.1c2-.2,4-.3,6-.5a1,1,0,1,1,.2,2c-2,.2-4,.3-6.1.5Zm96.8-.6h-.1c-1.9-.3-3.9-.6-6-.8a1,1,0,1,1,.2-2c2.1.2,4.1.5,6,.8a1,1,0,0,1,.8,1.1.84.84,0,0,1-.9.9Zm-86.8-.2a1,1,0,0,1-1-.9,1.09,1.09,0,0,1,.9-1.1c2-.2,4-.3,6-.4a1.17,1.17,0,0,1,1.1.9,1.09,1.09,0,0,1-.9,1.1c-2,.1-4,.3-6.1.4ZM64.8,190a1.42,1.42,0,0,1-.6-.2,26.72,26.72,0,0,1-4.7-4,1,1,0,0,1,1.4-1.4,34.6,34.6,0,0,0,4.5,3.8.9.9,0,0,1,.2,1.4.91.91,0,0,1-.8.4Zm234-.1a1,1,0,0,1-1-.9,1.09,1.09,0,0,1,.9-1.1c2-.1,4-.3,6.1-.4a1.17,1.17,0,0,1,1.1.9,1.09,1.09,0,0,1-.9,1.1c-2.1.1-4.1.3-6.2.4Zm66.7-.3h0c-2-.2-4.1-.4-6.1-.5a1,1,0,1,1,.2-2c2.1.1,4.1.3,6.1.5a1,1,0,0,1,.9,1.1,1.27,1.27,0,0,1-1.1.9Zm-56.6-.3a1,1,0,0,1-1-.9,1.09,1.09,0,0,1,.9-1.1l6.1-.3a1,1,0,0,1,1,1,.94.94,0,0,1-1,1l-6,.3Zm46.5-.4h0c-2-.1-4-.2-6.1-.2a1,1,0,0,1,0-2c2.1.1,4.1.1,6.1.3a.9.9,0,0,1,.9,1.1c.1.4-.4.8-.9.8Zm-36.4,0a1,1,0,0,1-1-1,.94.94,0,0,1,1-1c2-.1,4.1-.1,6.1-.2a1,1,0,0,1,1,1,.94.94,0,0,1-1,1c-2,0-4,.1-6.1.2Zm10.1-.3a1,1,0,0,1-1-1,.94.94,0,0,1,1-1c2,0,4.1-.1,6.1-.1h0a1,1,0,0,1,1,1,.94.94,0,0,1-1,1c-2,0-4,0-6.1.1Zm16.2-.1h0c-2,0-4-.1-6.1-.1a1,1,0,0,1-1-1,.94.94,0,0,1,1-1c2,0,4.1,0,6.1.1a1,1,0,0,1,0,2ZM57.6,183a.91.91,0,0,1-.8-.4,29.36,29.36,0,0,1-3-5.5,1,1,0,0,1,1.9-.7,21.21,21.21,0,0,0,2.8,5.1,1.06,1.06,0,0,1-.2,1.4,2,2,0,0,1-.7.1Zm-4.1-9.1a1,1,0,0,1-1-.8,31,31,0,0,1-.7-6.2.94.94,0,0,1,1-1,1,1,0,0,1,1,1,27.09,27.09,0,0,0,.7,5.8,1,1,0,0,1-.8,1.2Zm-.6-10.1h0a1,1,0,0,1-1-1.1c.2-2,.5-4,.9-6.1a1.1,1.1,0,0,1,1.2-.8,1,1,0,0,1,.8,1.2c-.4,2-.7,4-.9,5.9a.92.92,0,0,1-1,.9Zm1.9-9.9h-.3a1.09,1.09,0,0,1-.7-1.2c.5-1.9,1.2-3.8,1.9-5.8a1,1,0,1,1,1.9.7c-.7,1.9-1.4,3.8-1.9,5.7,0,.3-.4.6-.9.6Z"/><path class="cls-1" d="M58.79,144a.75.75,0,0,1-.62-.3,1,1,0,0,1,0-1.4,34.78,34.78,0,0,1,4.18-4,.88.88,0,0,1,1.24.2,1.17,1.17,0,0,1-.17,1.4,31.81,31.81,0,0,0-4,3.8.9.9,0,0,1-.62.3Zm7-6.2a.79.79,0,0,1-.71-.5,1.06,1.06,0,0,1,.26-1.4c1.43-1,3-2,4.72-3a.74.74,0,0,1,1.15.4.93.93,0,0,1-.35,1.3,44.68,44.68,0,0,0-4.63,2.9c-.18.3-.26.3-.44.3Zm7.92-4.7a.87.87,0,0,1-.81-.6,1,1,0,0,1,.45-1.3c1.6-.8,3.29-1.6,5-2.4a.9.9,0,0,1,1.16.6,1.08,1.08,0,0,1-.54,1.3c-1.69.8-3.38,1.5-4.89,2.3a.49.49,0,0,1-.35.1Zm8.36-3.8a.88.88,0,0,1-.8-.7,1.08,1.08,0,0,1,.53-1.3c1.6-.7,3.38-1.3,5.16-1.9a.89.89,0,0,1,1.16.7,1,1,0,0,1-.62,1.3c-1.78.6-3.47,1.3-5.08,1.9Zm8.54-3.1a1.08,1.08,0,0,1-.89-.7.9.9,0,0,1,.62-1.2c1.69-.5,3.38-1.1,5.25-1.6a.91.91,0,0,1,1.07.7,1,1,0,0,1-.62,1.2c-1.78.5-3.56,1.1-5.16,1.6Zm8.72-2.6a1,1,0,0,1-.89-.8,1,1,0,0,1,.62-1.2c1.69-.5,3.47-.9,5.25-1.4a.91.91,0,0,1,1.07.8,1,1,0,0,1-.71,1.2c-1.78.4-3.56.9-5.25,1.4Zm8.8-2.3a.88.88,0,0,1-.88-.8,1,1,0,0,1,.71-1.2c1.78-.4,3.47-.8,5.33-1.2a.91.91,0,0,1,1.07.8,1,1,0,0,1-.71,1.2c-1.78.4-3.56.8-5.25,1.2Zm8.81-1.9a.9.9,0,0,1-.89-.8,1.1,1.1,0,0,1,.71-1.2c1.78-.4,3.56-.7,5.34-1.1a1,1,0,0,1,1.07.8,1.1,1.1,0,0,1-.71,1.2c-1.78.3-3.56.7-5.34,1.1Zm8.9-1.8a.89.89,0,0,1-.89-.8c-.09-.5.27-1.1.71-1.1,1.78-.3,3.56-.6,5.34-1a.86.86,0,0,1,1,.8c.09.5-.27,1.1-.71,1.1-1.78.3-3.56.6-5.34,1Zm8.89-1.5a1,1,0,0,1-.88-.9c-.09-.5.26-1.1.71-1.1l5.33-.9a.87.87,0,0,1,1,.9.92.92,0,0,1-.8,1.1l-5.34.9Zm8.9-1.4a1,1,0,0,1-.89-.9,1,1,0,0,1,.8-1.1c1.78-.3,3.56-.5,5.34-.8.44-.1.89.3,1,.9a1,1,0,0,1-.8,1.1c-1.78.3-3.56.5-5.34.8Zm8.9-1.3a1,1,0,0,1-.89-.9,1,1,0,0,1,.8-1.1c1.78-.2,3.56-.5,5.34-.7.53-.1.89.3,1,.9a1,1,0,0,1-.81,1.1c-1.77.2-3.55.5-5.33.7Zm9-1.2a1,1,0,0,1-.89-.9,1,1,0,0,1,.8-1.1c1.78-.2,3.56-.4,5.34-.7.54-.1.89.3,1,.9a1,1,0,0,1-.8,1.1c-1.78.2-3.56.4-5.34.7Zm8.9-1.1a1,1,0,0,1-.89-.9,1,1,0,0,1,.8-1.1l5.34-.6c.53-.1.89.3,1,.9a1,1,0,0,1-.8,1.1l-5.34.6Zm9-1a1,1,0,0,1-.88-.9,1,1,0,0,1,.8-1.1l5.33-.6c.45-.1.89.4,1,.9a1,1,0,0,1-.8,1.1l-5.43.6Zm9-.9a1,1,0,0,1-.89-.9,1.05,1.05,0,0,1,.8-1.1c1.78-.2,3.56-.4,5.34-.5a1,1,0,0,1,1,.9,1.07,1.07,0,0,1-.8,1.1c-1.78.1-3.56.3-5.43.5Zm9-.9a1,1,0,0,1-.89-.9,1.14,1.14,0,0,1,.8-1.1c1.78-.2,3.56-.3,5.33-.5a1,1,0,0,1,1,.9,1.14,1.14,0,0,1-.8,1.1c-1.78.1-3.65.3-5.42.5Zm8.89-.9a.93.93,0,0,1-.89-.9,1.15,1.15,0,0,1,.8-1.1c1.78-.2,3.56-.3,5.34-.5a1,1,0,0,1,1,.9,1.15,1.15,0,0,1-.8,1.1c-1.78.2-3.56.3-5.43.5Zm9-.8a.92.92,0,0,1-.89-.9,1.06,1.06,0,0,1,.8-1.1l5.43-.5a1,1,0,0,1,1,.9,1.14,1.14,0,0,1-.8,1.1l-5.51.5Zm9-.8a.93.93,0,0,1-.89-.9,1.15,1.15,0,0,1,.8-1.1l5.34-.5a1.08,1.08,0,0,1,1,.9,1.07,1.07,0,0,1-.8,1.1l-5.43.5Zm9-.8a.92.92,0,0,1-.89-.9,1.14,1.14,0,0,1,.8-1.1l5.34-.5a1.09,1.09,0,0,1,1,.9,1.06,1.06,0,0,1-.81,1.1l-5.42.5Zm9-.8a.93.93,0,0,1-.89-.9,1.07,1.07,0,0,1,.8-1.1l5.34-.5a1.08,1.08,0,0,1,1,.9,1.14,1.14,0,0,1-.8,1.1l-5.43.5Zm9-.8a.92.92,0,0,1-.89-.9,1.14,1.14,0,0,1,.8-1.1l5.34-.5a1.09,1.09,0,0,1,1,.9,1.07,1.07,0,0,1-.8,1.1l-5.43.5Zm8.9-.8a.92.92,0,0,1-.89-.9,1.06,1.06,0,0,1,.8-1.1l5.33-.5a1,1,0,0,1,1,.9,1.06,1.06,0,0,1-.8,1.1l-5.42.5Zm9-.9a.93.93,0,0,1-.89-.9,1.15,1.15,0,0,1,.8-1.1c1.78-.2,3.56-.3,5.34-.5a1.09,1.09,0,0,1,1,.9,1.15,1.15,0,0,1-.8,1.1c-1.69.2-3.56.4-5.43.5Zm9-.8a1,1,0,0,1-.89-.9,1.06,1.06,0,0,1,.8-1.1c1.78-.2,3.56-.4,5.33-.5a1,1,0,0,1,1,.9,1.14,1.14,0,0,1-.8,1.1c-1.78.1-3.56.3-5.42.5Zm9-.9a1,1,0,0,1-.89-.9A1.05,1.05,0,0,1,287,98l5.34-.6a1,1,0,0,1,1,.9,1.05,1.05,0,0,1-.8,1.1l-5.43.6Zm9-1a1,1,0,0,1-.89-.9A1,1,0,0,1,296,97l5.34-.6c.53-.1.89.3,1,.9a1,1,0,0,1-.8,1.1l-5.42.6ZM305,98a1,1,0,0,1-.89-.9,1,1,0,0,1,.8-1.1c1.78-.2,3.56-.4,5.34-.7.54-.1.89.3,1,.9a1,1,0,0,1-.8,1.1c-1.78.2-3.56.4-5.34.7Zm9-1.1a1,1,0,0,1-.89-.9,1,1,0,0,1,.8-1.1c1.78-.2,3.56-.5,5.34-.7.44-.1.89.3,1,.9a1,1,0,0,1-.8,1.1c-1.78.2-3.56.5-5.34.7Zm8.89-1.2a1,1,0,0,1-.88-.9,1,1,0,0,1,.8-1.1c1.78-.3,3.55-.5,5.33-.8a.87.87,0,0,1,1,.9.92.92,0,0,1-.8,1.1c-1.78.3-3.56.5-5.34.8Zm9-1.4a1,1,0,0,1-.89-.9c-.09-.5.27-1.1.71-1.1l5.34-.9a.82.82,0,0,1,1,.8c.09.5-.27,1.1-.71,1.1l-5.34.9a.09.09,0,0,1-.09.1Zm8.9-1.6a.89.89,0,0,1-.89-.8c-.09-.5.26-1.1.71-1.1,1.78-.3,3.56-.7,5.34-1a1,1,0,0,1,1.06.8,1.09,1.09,0,0,1-.71,1.2c-1.78.4-3.56.7-5.34,1a.24.24,0,0,0-.17-.1Zm8.8-1.7a.9.9,0,0,1-.89-.8,1,1,0,0,1,.72-1.2c1.78-.4,3.55-.8,5.24-1.2a.91.91,0,0,1,1.07.8,1,1,0,0,1-.71,1.2q-2.54.6-5.34,1.2Zm8.81-2.1a.9.9,0,0,1-.89-.8,1,1,0,0,1,.62-1.2c1.78-.5,3.56-1,5.25-1.5a.91.91,0,0,1,1.07.7,1,1,0,0,1-.62,1.2c-1.69.5-3.47,1-5.25,1.5,0,.1-.09.1-.18.1Zm8.72-2.6a1.08,1.08,0,0,1-.89-.7.9.9,0,0,1,.62-1.2q2.67-.9,5.07-1.8a.9.9,0,0,1,1.16.6,1.08,1.08,0,0,1-.53,1.3c-1.6.6-3.38,1.2-5.16,1.8Zm8.54-3.2a.78.78,0,0,1-.8-.6,1.08,1.08,0,0,1,.53-1.3c1.78-.8,3.38-1.6,4.9-2.4a.84.84,0,0,1,1.15.5,1,1,0,0,1-.44,1.3,49.14,49.14,0,0,1-5,2.4.5.5,0,0,1-.36.1Zm8.1-4.3a1,1,0,0,1-.8-.5,1.08,1.08,0,0,1,.35-1.4,33.87,33.87,0,0,0,4.18-3.3.81.81,0,0,1,1.25.1,1.06,1.06,0,0,1-.09,1.4,39.44,39.44,0,0,1-4.45,3.6,3.77,3.77,0,0,1-.44.1Zm6.85-6.4a1,1,0,0,1-.72-1.6,9,9,0,0,0,1.07-1.8.86.86,0,0,1,1.25-.4,1.08,1.08,0,0,1,.35,1.4c-.35.7-.8,1.4-1.24,2.1a1,1,0,0,1-.71.3Z"/><path class="cls-1" d="M391,56.1a1,1,0,0,1-.8-.5,20.82,20.82,0,0,0-3.2-4.5,1,1,0,0,1,0-1.4.79.79,0,0,1,1.24,0,24.18,24.18,0,0,1,3.47,4.9,1.08,1.08,0,0,1-.35,1.4c-.09,0-.18.1-.36.1Zm-6.05-7.4a1.16,1.16,0,0,1-.53-.2A47.32,47.32,0,0,0,380,45.1a1,1,0,0,1-.27-1.4.83.83,0,0,1,1.25-.3,36.53,36.53,0,0,1,4.53,3.5,1.16,1.16,0,0,1,.18,1.4,1.48,1.48,0,0,1-.8.4Zm-7.56-5.5a.74.74,0,0,1-.45-.1c-1.51-.9-3.11-1.8-4.8-2.6a1,1,0,0,1-.44-1.3.84.84,0,0,1,1.15-.5c1.78.9,3.38,1.8,4.9,2.7a1.08,1.08,0,0,1,.35,1.4.77.77,0,0,1-.71.4ZM369.19,39a.5.5,0,0,1-.36-.1q-2.4-1-5.07-2.1a1.09,1.09,0,0,1-.54-1.3.9.9,0,0,1,1.16-.6c1.78.7,3.47,1.4,5.07,2.2a1.09,1.09,0,0,1,.54,1.3.92.92,0,0,1-.8.6Zm-8.55-3.5h-.26c-1.69-.6-3.38-1.2-5.16-1.8a1.12,1.12,0,0,1-.63-1.2,1,1,0,0,1,1.07-.7c1.78.6,3.56,1.2,5.16,1.8a1,1,0,0,1,.54,1.3c.09.3-.27.6-.72.6ZM352,32.6h-.26c-1.69-.5-3.47-1-5.25-1.5a1,1,0,0,1-.62-1.2.84.84,0,0,1,1.06-.7c1.78.5,3.56,1,5.25,1.5a1.05,1.05,0,0,1,.63,1.2.89.89,0,0,1-.81.7Zm-8.8-2.4H343c-1.69-.5-3.47-.9-5.25-1.3a1,1,0,0,1-.71-1.2.93.93,0,0,1,1.07-.8c1.78.4,3.56.9,5.33,1.3a1,1,0,0,1,.63,1.2.9.9,0,0,1-.89.8ZM334.4,28h-.18c-1.78-.4-3.47-.8-5.34-1.2a1,1,0,0,1-.71-1.2.94.94,0,0,1,1.07-.8l5.34,1.2a1,1,0,0,1,.71,1.2.9.9,0,0,1-.89.8Zm-8.9-1.9h-.17c-1.78-.4-3.56-.7-5.34-1a1,1,0,0,1-.71-1.1.89.89,0,0,1,1-.8c1.78.3,3.56.7,5.34,1a1,1,0,0,1,.71,1.2.74.74,0,0,1-.8.7Zm-8.89-1.6h-.18l-5.34-.9a1,1,0,0,1-.71-1.1.9.9,0,0,1,1-.8l5.34.9a1,1,0,0,1,.71,1.1.83.83,0,0,1-.8.8Zm-8.9-1.5h-.09c-1.78-.3-3.56-.6-5.34-.8a1.15,1.15,0,0,1-.8-1.1,1.09,1.09,0,0,1,1-.9c1.78.3,3.56.5,5.34.8a1.15,1.15,0,0,1,.8,1.1,1,1,0,0,1-.89.9Zm-9-1.4h-.09c-1.78-.2-3.56-.5-5.34-.7a1.14,1.14,0,0,1-.8-1.1,1.08,1.08,0,0,1,1-.9c1.78.2,3.56.5,5.33.7a1.15,1.15,0,0,1,.81,1.1c-.09.6-.45.9-.89.9Zm-9-1.2h-.09c-1.78-.2-3.56-.4-5.34-.7a1.15,1.15,0,0,1-.8-1.1,1.09,1.09,0,0,1,1-.9c1.78.2,3.56.4,5.34.7a1.15,1.15,0,0,1,.8,1.1.86.86,0,0,1-.89.9Zm-9-1h-.08l-5.43-.6a1,1,0,0,1-.8-1.1c.09-.5.44-1,1-.9l5.42.6a1,1,0,0,1-.09,2Zm-9-1h0c-1.87-.2-3.65-.4-5.43-.5a.88.88,0,0,1-.8-1.1.84.84,0,0,1,1-.9c1.78.2,3.56.3,5.43.5a.88.88,0,0,1,.8,1.1,1.09,1.09,0,0,1-1,.9Zm-9-.9h0c-1.86-.2-3.64-.3-5.42-.5a.87.87,0,0,1-.8-1.1.88.88,0,0,1,1-.9c1.77.2,3.55.3,5.42.5a.87.87,0,0,1,.8,1.1c-.18.5-.53.9-1,.9Zm-9-.8h0c-1.87-.1-3.65-.3-5.43-.4a.88.88,0,0,1-.8-1.1.89.89,0,0,1,1-.9c1.78.1,3.56.3,5.43.4a.88.88,0,0,1,.8,1.1,1.18,1.18,0,0,1-1,.9Zm-9.08-.7h0c-1.86-.1-3.64-.3-5.42-.4a.87.87,0,0,1-.8-1.1.83.83,0,0,1,1-.9c1.77.1,3.55.2,5.42.4a.87.87,0,0,1,.8,1.1,1,1,0,0,1-1,.9Zm-9-.6h0l-5.43-.3a.88.88,0,0,1-.8-1.1.84.84,0,0,1,1-.9l5.43.3a.88.88,0,0,1,.8,1.1,1.09,1.09,0,0,1-1,.9Zm-9.08-.5h0l-5.42-.3a1,1,0,0,1,0-2l5.42.3a.84.84,0,0,1,.81,1,.84.84,0,0,1-.81,1Zm-9-.5h0l-5.43-.3a1,1,0,0,1,0-2l5.43.3a1,1,0,0,1,0,2Zm-9.07-.4h0c-1.87-.1-3.65-.2-5.43-.2a1,1,0,0,1-.89-1,.89.89,0,0,1,.89-1c1.78.1,3.56.1,5.43.2a1,1,0,0,1,0,2Zm-9-.4h0c-1.87-.1-3.65-.1-5.43-.2a1,1,0,0,1,0-2c1.78.1,3.56.1,5.43.2a1,1,0,0,1,0,2Zm-9.07-.3h0c-1.87-.1-3.65-.1-5.43-.2a1,1,0,0,1-.89-1,1,1,0,0,1,.89-1h0c1.78,0,3.56.1,5.43.2a1,1,0,0,1,.88,1,.89.89,0,0,1-.88,1Zm-9-.2h0c-1.87,0-3.65-.1-5.43-.1a1,1,0,0,1-.89-1,.9.9,0,0,1,.89-1c1.78,0,3.56.1,5.43.1a1,1,0,0,1,.89,1,1,1,0,0,1-.89,1Zm-9.07-.2h0c-2,0-3.74-.1-5.43-.1a1,1,0,0,1-.89-1,1,1,0,0,1,.89-1c1.69,0,3.56,0,5.43.1a1,1,0,0,1,0,2Zm-9.08-.1H158a1,1,0,0,1,0-2h5.43a1,1,0,0,1,0,2Zm-9-.1H154a1,1,0,0,1-.89-1,.9.9,0,0,1,.89-1h.45a.9.9,0,0,1,.89,1,1,1,0,0,1-.89,1Z"/><path class="cls-1" d="M125.4,411.6a.91.91,0,0,1-.7-.3,1,1,0,0,1,0-1.4l7.1-7.3-6-7.3a1,1,0,1,1,1.5-1.3l7.2,8.7-8.3,8.6a1.33,1.33,0,0,1-.8.3Z"/><path class="cls-1" d="M374.65,295.12a.9.9,0,0,1-.5-.1l-9.8-5.7,4.8-10.9a1,1,0,0,1,1.8.8l-4.1,9.3,8.2,4.8a1.11,1.11,0,0,1,.4,1.4.89.89,0,0,1-.8.4Z"/><path class="cls-1" d="M384.9,453.8l-8.3-6.6a1,1,0,0,1,1.2-1.6l7,5.5,6.9-6.6a1,1,0,0,1,1.4,1.4l-8.2,7.9Z"/><path class="cls-1" d="M167,207.6a.91.91,0,0,1-.8-.4,1,1,0,0,1,.1-1.4l7.8-6.6-5.3-7.9a1,1,0,1,1,1.7-1.1l6.3,9.4-9.1,7.7a.83.83,0,0,1-.7.3Z"/><path class="cls-1" d="M261.45,110.4a.85.85,0,0,1-.53-.2l-8.1-7.7,5.6-9.4a.83.83,0,0,1,1.25-.3,1.06,1.06,0,0,1,.27,1.4l-4.72,7.9,6.85,6.6a1,1,0,0,1,.09,1.4.94.94,0,0,1-.71.3Z"/></svg>