<svg id="Layer_1" data-name="Layer 1" xmlns="http://www.w3.org/2000/svg" viewBox="0 0 438 579"><defs><style>.cls-1{fill:#938bbd;}</style></defs><path class="cls-1" d="M286.56,444.42a.57.57,0,0,1-.27-.06.72.72,0,0,1-.41-.9c.41-1.09.89-2.4,1.37-3.77a.72.72,0,0,1,.89-.41.71.71,0,0,1,.41.89c-.48,1.44-1,2.68-1.37,3.84a.59.59,0,0,1-.62.41Zm2.27-6.3a.26.26,0,0,1-.21-.07.69.69,0,0,1-.41-.89c.41-1.24.82-2.47,1.3-3.84a.69.69,0,0,1,.89-.41.67.67,0,0,1,.41.89c-.41,1.37-.89,2.67-1.3,3.84a.84.84,0,0,1-.68.48Zm2.05-6.45h-.2a.77.77,0,0,1-.48-.89c.41-1.23.75-2.53,1.16-3.84a.67.67,0,1,1,1.3.35c-.41,1.37-.82,2.6-1.16,3.9,0,.35-.27.48-.62.48Zm1.92-6.44h-.2a.7.7,0,0,1-.48-.82c.34-1.31.68-2.54,1.09-3.91A.71.71,0,0,1,294,420a.66.66,0,0,1,.48.82c-.35,1.3-.69,2.68-1.1,3.91a.56.56,0,0,1-.62.48Zm1.78-6.51h-.13a.65.65,0,0,1-.48-.83c.34-1.3.61-2.6,1-3.9a.67.67,0,1,1,1.3.34c-.34,1.37-.62,2.67-1,4a.91.91,0,0,1-.69.42Zm1.58-6.52H296a.74.74,0,0,1-.54-.82c.27-1.3.54-2.6.82-4a.7.7,0,0,1,1.37.28c-.27,1.37-.55,2.67-.82,4a.78.78,0,0,1-.69.54Zm1.3-6.58h-.13a.7.7,0,0,1-.55-.82c.27-1.3.48-2.67.68-4a.66.66,0,0,1,1.31.21c-.21,1.3-.42,2.67-.69,4a.61.61,0,0,1-.62.61Zm1.1-6.65h-.07a.68.68,0,0,1-.55-.75c.21-1.37.35-2.68.55-4a.8.8,0,0,1,.76-.61.79.79,0,0,1,.61.75c-.13,1.3-.34,2.67-.55,4a.89.89,0,0,1-.75.55Zm.82-6.72h0a.73.73,0,0,1-.68-.75c.13-1.37.27-2.67.34-4a.69.69,0,1,1,1.37.13c-.07,1.31-.2,2.68-.34,4.05a.72.72,0,0,1-.69.61Zm.48-6.71h0a.69.69,0,0,1-.68-.69c.07-1.37.07-2.74.13-4a.74.74,0,0,1,.69-.69h0a.69.69,0,0,1,.69.69c0,1.3-.07,2.67-.14,4a.69.69,0,0,1-.69.69Zm.07-6.72a.69.69,0,0,1-.68-.69,39,39,0,0,0-.21-4,.75.75,0,0,1,.62-.76.81.81,0,0,1,.75.62q.1,1.95.21,4.11a.71.71,0,0,1-.69.76Zm-.34-6.72a.73.73,0,0,1-.69-.62c-.13-1.37-.27-2.67-.48-4a.66.66,0,1,1,1.31-.21c.2,1.3.41,2.67.54,4.05a.67.67,0,0,1-.61.75Zm-1-6.65a.68.68,0,0,1-.69-.55c-.27-1.3-.54-2.67-.89-3.91a.68.68,0,0,1,1.31-.34c.34,1.3.68,2.61,1,4a.7.7,0,0,1-.55.82Zm-1.71-6.51a.66.66,0,0,1-.62-.48,29.17,29.17,0,0,0-1.44-3.71.67.67,0,1,1,1.23-.54,35.25,35.25,0,0,1,1.44,3.84.7.7,0,0,1-.41.89Zm-2.61-6.17a.73.73,0,0,1-.62-.35c-.61-1.16-1.3-2.33-2-3.42a.69.69,0,1,1,1.16-.76,29.65,29.65,0,0,1,2.06,3.57.61.61,0,0,1-.28.89c-.13,0-.2.07-.34.07Zm-3.63-5.69a.62.62,0,0,1-.55-.28,35.43,35.43,0,0,0-2.61-2.95.68.68,0,0,1,1-1,37.38,37.38,0,0,1,2.75,3.08.68.68,0,0,1-.14,1,.58.58,0,0,1-.41.14ZM286,342.21a.75.75,0,0,1-.42-.14,33.67,33.67,0,0,0-3.15-2.33.68.68,0,0,1-.21-1,.67.67,0,0,1,1-.2,27.89,27.89,0,0,1,3.29,2.46.66.66,0,0,1,.07,1,1.06,1.06,0,0,1-.54.21Zm-5.56-3.77a.61.61,0,0,1-.34-.07c-1.17-.62-2.33-1.16-3.57-1.71a.68.68,0,0,1,.55-1.24,29.46,29.46,0,0,1,3.7,1.79.68.68,0,0,1,.28,1,1,1,0,0,1-.62.28Zm-6.17-2.67a.24.24,0,0,1-.2-.07c-1.24-.41-2.54-.76-3.84-1.1a.67.67,0,0,1,.34-1.3c1.37.34,2.67.68,4,1.09a.7.7,0,0,1,.41.9.84.84,0,0,1-.69.48Zm-6.51-1.65h-.14c-1.3-.21-2.6-.41-4-.55a.8.8,0,0,1-.62-.75.74.74,0,0,1,.75-.62c1.37.14,2.75.34,4.05.55a.71.71,0,0,1,.55.82.57.57,0,0,1-.62.55Zm-6.65-.82h0c-1.37-.07-2.67-.14-4-.14a.69.69,0,1,1,0-1.37h0c1.37,0,2.74.07,4.11.14a.62.62,0,0,1,.62.75.74.74,0,0,1-.69.62Z"/><path class="cls-1" d="M166.72,333.36l-1.64-.08a.73.73,0,0,1-.62-.81c0-.47.3-.77.69-.75h0l1.65.08,2.3.11h0a.69.69,0,0,1,.62.81c0,.47-.3.77-.7.75l-2.3-.11Zm-4.27-.2h0c-1.32-.07-2.63-.13-3.94-.27a.74.74,0,0,1-.62-.82.72.72,0,0,1,.69-.75c1.32.07,2.63.13,3.94.27a.8.8,0,0,1-.07,1.57Zm9.14.44a.73.73,0,0,1-.62-.82c0-.47.3-.77.69-.75,1.32.07,2.63.13,4,.11a.7.7,0,0,1,.62.82c0,.47-.3.77-.7.75-1.31-.06-2.63-.13-3.94-.11Zm6.58.16a.73.73,0,0,1-.62-.82c0-.47.3-.77.69-.75,1.32.07,2.63.05,3.95.12.39,0,.64.34.62.81s-.3.77-.7.75c-1.31,0-2.63-.05-3.94-.11ZM156,332.69h0c-1.32-.07-2.63-.21-3.94-.27a.8.8,0,0,1,.07-1.57c1.31.14,2.63.21,3.94.27a.73.73,0,0,1,.62.81.73.73,0,0,1-.69.76Zm28.73,1.23a.74.74,0,0,1-.62-.82c0-.47.3-.77.7-.75,1.31.06,2.63,0,4,0a.7.7,0,0,1,.62.82c0,.47-.3.77-.7.75-1.32,0-2.63,0-3.95,0Zm-35.23-1.7h0c-1.31-.15-2.63-.21-3.94-.35a.8.8,0,0,1,.08-1.57c1.31.14,2.62.29,3.93.35a.73.73,0,0,1,.62.81c-.08.47-.36.77-.69.76ZM191.27,334a.73.73,0,0,1-.62-.82c0-.47.3-.77.69-.75,1.32,0,2.63.05,3.95,0,.4,0,.64.34.62.81s-.3.77-.69.75c-1.32,0-2.64,0-3.95,0Zm-48.38-2.42h0l-3.93-.42c-.4,0-.64-.42-.55-.89s.36-.77.75-.67l3.94.43a.73.73,0,0,1,.62.81c-.16.46-.44.76-.83.74Zm54.89,2.5a.75.75,0,0,1-.62-.82c0-.47.31-.77.7-.75,1.32,0,2.64,0,3.95,0a.72.72,0,0,1,.62.81c0,.47-.3.77-.69.75-1.32-.06-2.64-.05-4,0Zm-61.37-3.28h0c-1.38-.14-2.69-.36-3.93-.5a.68.68,0,0,1-.55-.89c0-.47.36-.77.75-.67,1.31.14,2.56.36,3.87.5a.68.68,0,0,1,.55.89.71.71,0,0,1-.69.67Zm67.9,3.28a.73.73,0,0,1-.62-.82c0-.47.3-.77.69-.75l3.89,0a.72.72,0,0,1,.62.81c0,.47-.3.77-.63.75l-3.95.05Zm6.52-.08a.69.69,0,0,1-.62-.73c0-.47.3-.77.63-.76l3.95,0a.8.8,0,0,1,.69.74.82.82,0,0,1-.63.83c-1.38-.07-2.7-.05-4,0Zm-80.91-4.06h0c-1.37-.22-2.68-.44-3.92-.58a.77.77,0,0,1-.55-.89c.09-.47.37-.77.76-.67,1.3.22,2.54.43,3.86.58a.73.73,0,0,1,.55.89.72.72,0,0,1-.7.67Zm87.44,4a.69.69,0,0,1-.62-.73.82.82,0,0,1,.63-.83l3.95-.05a.8.8,0,0,1,.06,1.57l-4,0Zm6.53-.15a.71.71,0,0,1-.62-.74.82.82,0,0,1,.63-.83l4-.12a.77.77,0,0,1,.69.74.82.82,0,0,1-.64.83l-4,.12Zm-100.44-4.85h-.06c-1.31-.22-2.62-.44-3.86-.74a.9.9,0,0,1-.55-.89.83.83,0,0,1,.76-.67c1.31.22,2.55.52,3.85.74a.88.88,0,0,1,.55.89.74.74,0,0,1-.69.67Zm107,4.7a.72.72,0,0,1-.63-.74.83.83,0,0,1,.64-.83l3.95-.12a.8.8,0,0,1,.69.73.83.83,0,0,1-.63.84l-4,.12Zm6.53-.16a.7.7,0,0,1-.63-.73.85.85,0,0,1,.64-.84l3.95-.12a.8.8,0,0,1,.06,1.57l-4,.12Zm-120-5.79h-.07c-1.3-.3-2.61-.52-3.85-.81a.78.78,0,0,1-.48-.89c.09-.39.43-.68.75-.59,1.24.3,2.54.6,3.85.82a.87.87,0,0,1,.55.88.83.83,0,0,1-.75.6Zm126.56,5.64a.72.72,0,0,1-.63-.74.83.83,0,0,1,.64-.83l4-.13a.76.76,0,0,1,.68.74.84.84,0,0,1-.63.84l-4,.12Zm6.53-.24a.69.69,0,0,1-.62-.73.84.84,0,0,1,.63-.84l4-.12a.77.77,0,0,1,.69.74.82.82,0,0,1-.63.83l-4,.12ZM110.6,326.26h-.13c-1.3-.3-2.6-.67-3.84-1a.81.81,0,0,1-.48-1,.7.7,0,0,1,.82-.59c1.23.37,2.53.67,3.84,1a.77.77,0,0,1,.48.89.76.76,0,0,1-.69.67Zm-6.37-1.72h-.14c-1.29-.37-2.59-.75-3.82-1.2a.77.77,0,0,1-.42-1c.09-.39.49-.69.82-.51,1.23.37,2.46.82,3.76,1.2a.82.82,0,0,1,.48,1,.79.79,0,0,1-.68.52ZM98,322.43h-.13c-1.29-.46-2.52-.91-3.75-1.44a.89.89,0,0,1-.42-1,.7.7,0,0,1,.82-.51c1.16.45,2.46,1,3.69,1.43a.77.77,0,0,1,.41,1,.65.65,0,0,1-.62.52ZM91.79,320H91.6c-1.29-.54-2.52-1.15-3.67-1.75a.87.87,0,0,1-.35-1,.67.67,0,0,1,.88-.43c1.15.61,2.38,1.14,3.61,1.67a.82.82,0,0,1,.34,1,.66.66,0,0,1-.62.52Zm-6-3a.33.33,0,0,1-.26-.09c-1.22-.69-2.44-1.38-3.52-2.13a.85.85,0,0,1-.28-1,.62.62,0,0,1,.87-.35c1.09.68,2.24,1.37,3.46,2.05a.78.78,0,0,1,.28,1c-.08.38-.29.53-.55.52Zm-5.76-3.58a.44.44,0,0,1-.32-.09,41.48,41.48,0,0,1-3.3-2.59.87.87,0,0,1-.15-1.11.59.59,0,0,1,.93-.19c1,.84,2.09,1.75,3.18,2.51a.9.9,0,0,1,.21,1.11.59.59,0,0,1-.55.36ZM74.8,309a.83.83,0,0,1-.39-.17,33.52,33.52,0,0,1-2.87-3.28.87.87,0,0,1,0-1.1.57.57,0,0,1,.92.05,30.47,30.47,0,0,0,2.75,3.11,1,1,0,0,1,.08,1.11.57.57,0,0,1-.54.28Zm-4.47-5.55a.59.59,0,0,1-.52-.34,34.26,34.26,0,0,1-2.11-4A.89.89,0,0,1,68,298a.61.61,0,0,1,.9.36,29.91,29.91,0,0,0,2,3.79.87.87,0,0,1-.12,1.09c-.21.15-.34.22-.47.21Zm-3.11-6.66a.58.58,0,0,1-.57-.5,36.94,36.94,0,0,1-1-4.6.81.81,0,0,1,.57-.91.67.67,0,0,1,.76.66,23.93,23.93,0,0,0,1,4.36.86.86,0,0,1-.38,1,.42.42,0,0,0-.33,0Zm-1.28-7.6a.74.74,0,0,1-.62-.73c0-.94,0-2,0-3a18,18,0,0,1,.15-1.8.63.63,0,0,1,.76-.67.68.68,0,0,1,.55.89c0,.55-.12,1.17-.15,1.72,0,.94,0,1.88,0,2.82a.73.73,0,0,1-.64.84l-.06-.09Zm.57-7.74h-.13a.78.78,0,0,1-.48-.89A41.25,41.25,0,0,1,67,276c.09-.38.5-.68.82-.51a.84.84,0,0,1,.41,1c-.4,1.47-.74,3-1,4.42a.72.72,0,0,1-.69.59ZM68.45,274a.2.2,0,0,1-.19-.08.85.85,0,0,1-.35-1c.47-1.39,1.06-2.85,1.66-4.31a.61.61,0,0,1,.87-.35.82.82,0,0,1,.28,1c-.59,1.46-1.12,2.85-1.58,4.24a.79.79,0,0,1-.69.51Zm2.84-7a.33.33,0,0,1-.25-.09.83.83,0,0,1-.28-1c.65-1.31,1.31-2.69,2-4.06a.66.66,0,0,1,.93-.27,1,1,0,0,1,.21,1.11c-.72,1.37-1.38,2.68-2,4a.66.66,0,0,1-.61.36Zm3.08-6.88c-.12,0-.25-.06-.3-.15a.84.84,0,0,1,0-1.11q1.37-1.75,2.93-3.48a.59.59,0,0,1,1,0,.86.86,0,0,1,0,1.11c-1,1.16-1.94,2.24-2.85,3.42a.89.89,0,0,1-.73.25Z"/><path class="cls-1" d="M380.43,186.87a.89.89,0,0,1-.75-.37,28.16,28.16,0,0,0-2.68-3.62.66.66,0,0,1,.08-1,.88.88,0,0,1,1.17.07,22,22,0,0,1,2.85,3.85.62.62,0,0,1-.34,1,.41.41,0,0,1-.33.15Zm-5.1-5.92a1,1,0,0,1-.59-.22,27.84,27.84,0,0,0-3.85-2.67.68.68,0,0,1-.25-1,.88.88,0,0,1,1.17-.22,38.68,38.68,0,0,1,4.1,2.81.66.66,0,0,1,0,1,.56.56,0,0,1-.58.29Zm-235.85-2.07h-2.6a.74.74,0,1,1,0-1.48h5a.79.79,0,0,1,.84.74.75.75,0,0,1-.84.74Zm5.77-.08a.79.79,0,0,1-.84-.74.75.75,0,0,1,.84-.74c1.67,0,3.34-.07,5-.07a.8.8,0,0,1,.84.74.75.75,0,0,1-.84.74c-1.58.07-3.34.07-5,.07Zm-11.8,0h0c-1.75,0-3.43-.07-5.1-.14a.74.74,0,1,1,0-1.48c1.67.07,3.35.07,5,.14a.8.8,0,0,1,.84.74c.08.45-.34.74-.76.74Zm20.24-.14a.8.8,0,0,1-.83-.74.74.74,0,0,1,.83-.74c1.68-.08,3.35-.15,5-.15a.75.75,0,1,1,0,1.48c-1.59,0-3.26.07-5,.15ZM125,178.58h0c-1.76-.07-3.52-.22-5.11-.29a.74.74,0,0,1-.75-.82.73.73,0,0,1,.92-.66c1.59.14,3.35.22,5,.29a.69.69,0,0,1,.75.82.85.85,0,0,1-.83.66Zm37.13-.29a.8.8,0,0,1-.84-.67.73.73,0,0,1,.76-.74l5-.22a1,1,0,0,1,.92.66.84.84,0,0,1-.75.82c-1.67,0-3.34.07-5.1.15Zm-45.58-.3h-.08c-1.76-.15-3.43-.37-5-.52a.9.9,0,0,1-.76-.81,1,1,0,0,1,.92-.67c1.59.22,3.27.37,5,.52.42.07.84.37.76.81a.87.87,0,0,1-.84.67Zm54-.15c-.42,0-.84-.29-.84-.66a.85.85,0,0,1,.75-.82c1.68-.07,3.35-.22,5-.29a.88.88,0,0,1,.92.66.84.84,0,0,1-.75.82c-1.67.14-3.35.22-5.1.29Zm8.44-.52c-.41,0-.83-.29-.83-.66a.84.84,0,0,1,.75-.82c1.67-.07,3.35-.22,5-.37a.89.89,0,0,1,.92.67.9.9,0,0,1-.75.81c-1.68.15-3.35.3-5.11.37ZM108.2,177H108c-1.76-.22-3.43-.52-5-.82a.81.81,0,0,1-.67-.88.93.93,0,0,1,1-.6c1.59.3,3.27.6,4.94.82a.75.75,0,0,1,.67.81.77.77,0,0,1-.75.67Zm79.28-.22a.79.79,0,0,1-.83-.67.89.89,0,0,1,.75-.81c1.67-.15,3.34-.23,5-.37a.88.88,0,0,1,.92.66.92.92,0,0,1-.76.82c-1.67.07-3.34.22-5.1.37Zm181-.23a.89.89,0,0,1-.42-.07c-1.42-.67-2.93-1.33-4.52-1.92a.66.66,0,0,1-.41-1,.8.8,0,0,1,1.08-.37,44.36,44.36,0,0,1,4.69,2,.71.71,0,0,1,.33,1,1.12,1.12,0,0,1-.75.29Zm-172.54-.44a.87.87,0,0,1-.84-.67.84.84,0,0,1,.76-.81c1.67-.15,3.34-.3,5-.37a.88.88,0,0,1,.92.67c.09.37-.33.74-.75.81-1.67.07-3.34.22-5.1.37Zm-96-.67h-.26a46.62,46.62,0,0,1-4.93-1.33.72.72,0,0,1-.5-1,.87.87,0,0,1,1.09-.44c1.5.44,3.09.88,4.76,1.25.42.08.76.52.59.89a.77.77,0,0,1-.75.59Zm104.46,0a.85.85,0,0,1-.84-.66c-.08-.37.33-.74.75-.82l5-.44a.88.88,0,0,1,.92.67c.08.37-.33.74-.75.81-1.67.15-3.35.3-5.1.44Zm8.36-.74a.86.86,0,0,1-.84-.66c-.08-.37.34-.74.76-.82l5-.44a.81.81,0,0,1,.92.67c.09.37-.25.74-.75.81l-5.1.44Zm8.45-.66a.86.86,0,0,1-.84-.67c-.08-.37.25-.74.75-.81l5-.45a.78.78,0,0,1,.92.67c.09.37-.25.74-.75.81l-5.1.45Zm139.58-.45a.36.36,0,0,1-.25-.07c-1.5-.44-3.09-.89-4.76-1.33a.77.77,0,0,1-.59-.89.88.88,0,0,1,1-.52c1.68.45,3.35.89,4.94,1.33a.75.75,0,0,1,.5,1,1,1,0,0,1-.84.51Zm-131.14-.29a.86.86,0,0,1-.83-.67c-.09-.37.33-.74.75-.81l5-.45a.89.89,0,0,1,.92.67c.08.37-.25.74-.75.81l-5.11.45Zm-137.74-.22a.54.54,0,0,1-.34-.08,42.2,42.2,0,0,1-4.68-2,.7.7,0,0,1-.34-1,.91.91,0,0,1,1.17-.3,47.66,47.66,0,0,0,4.44,1.93.65.65,0,0,1,.42,1,.63.63,0,0,1-.67.52Zm146.19-.52a.87.87,0,0,1-.84-.67c-.08-.37.34-.74.76-.81l5-.45a.83.83,0,0,1,.92.67c.08.37-.34.74-.76.81l-5.1.45Zm8.36-.67a.85.85,0,0,1-.83-.66c-.09-.37.33-.74.75-.82,1.67-.15,3.35-.29,5-.37a1,1,0,0,1,.92.67.9.9,0,0,1-.75.81c-1.68.08-3.35.22-5.11.37Zm106.22-.37h-.17l-4.93-.89a.77.77,0,0,1-.67-.88.87.87,0,0,1,1-.6c1.76.3,3.43.6,5,.89a.82.82,0,0,1,.67.89,1.17,1.17,0,0,1-.92.59Zm-97.77-.29a.85.85,0,0,1-.83-.67.89.89,0,0,1,.75-.81c1.67-.15,3.34-.3,5-.37a1,1,0,0,1,.92.66.92.92,0,0,1-.76.82c-1.67.07-3.34.22-5.1.37Zm8.45-.67a.8.8,0,0,1-.84-.67.9.9,0,0,1,.76-.81c1.67-.15,3.34-.22,5-.37a1,1,0,0,1,.92.67.89.89,0,0,1-.75.81c-1.67.15-3.34.22-5.1.37Zm81-.44h-.09c-1.58-.23-3.26-.45-5-.6a.9.9,0,0,1-.76-.81,1,1,0,0,1,.92-.67c1.76.15,3.43.37,5,.6a.75.75,0,0,1,.67.81.67.67,0,0,1-.75.67ZM271.7,170a.79.79,0,0,1-.83-.67.83.83,0,0,1,.75-.81c1.67-.15,3.34-.22,5-.3a1,1,0,0,1,.92.67.84.84,0,0,1-.76.81c-1.67.08-3.34.22-5.1.3Zm-187.26-.45a1.4,1.4,0,0,1-.5-.14,22.54,22.54,0,0,1-3.93-3,.67.67,0,0,1,0-1,.87.87,0,0,1,1.17,0A28.43,28.43,0,0,0,85,168.22a.63.63,0,0,1,.16,1,.79.79,0,0,1-.67.29Zm195.71-.07a.8.8,0,0,1-.84-.67.84.84,0,0,1,.76-.81c1.67-.07,3.34-.22,5.1-.3a1,1,0,0,1,.92.67.84.84,0,0,1-.75.81c-1.76.08-3.43.23-5.19.3Zm55.78-.22h0c-1.67-.15-3.42-.3-5.1-.37a.7.7,0,0,1-.75-.82.73.73,0,0,1,.92-.66c1.76.07,3.43.22,5.1.37.42.07.84.37.75.81a1,1,0,0,1-.92.67ZM288.6,169a.8.8,0,0,1-.84-.67.84.84,0,0,1,.75-.81l5.11-.23a.8.8,0,0,1,.83.74.74.74,0,0,1-.83.74l-5,.23Zm38.89-.3h0c-1.68-.07-3.35-.15-5.1-.15a.79.79,0,0,1-.84-.74.8.8,0,0,1,.84-.74c1.75.08,3.42.08,5.1.22a.7.7,0,0,1,.75.82c.08.29-.33.59-.75.59Zm-30.45,0a.8.8,0,0,1-.83-.74.75.75,0,0,1,.83-.74c1.68-.07,3.43-.07,5.11-.15a.8.8,0,0,1,.83.74.74.74,0,0,1-.83.74c-1.68,0-3.35.08-5.11.15Zm8.45-.22a.8.8,0,0,1-.84-.74.75.75,0,0,1,.84-.74c1.67,0,3.43-.08,5.1-.08h0a.8.8,0,0,1,.84.74.75.75,0,0,1-.84.74c-1.67,0-3.34,0-5.1.08Zm13.55-.08h0c-1.67,0-3.35-.07-5.1-.07a.8.8,0,0,1-.84-.74.75.75,0,0,1,.84-.74c1.67,0,3.43,0,5.1.07a.75.75,0,1,1,0,1.48ZM78.42,164.37a.8.8,0,0,1-.67-.29A21.57,21.57,0,0,1,75.24,160a.69.69,0,0,1,.51-1,.83.83,0,0,1,1.08.44,15.43,15.43,0,0,0,2.34,3.77.72.72,0,0,1-.16,1,2,2,0,0,1-.59.07ZM75,157.64a.79.79,0,0,1-.83-.59,20.09,20.09,0,0,1-.59-4.59.75.75,0,0,1,.84-.74.79.79,0,0,1,.83.74,17.56,17.56,0,0,0,.59,4.29.77.77,0,0,1-.67.89Zm-.5-7.48h0a.81.81,0,0,1-.84-.81,44.71,44.71,0,0,1,.76-4.51.92.92,0,0,1,1-.6.79.79,0,0,1,.67.89,42.1,42.1,0,0,0-.75,4.37c0,.37-.34.66-.84.66Zm1.59-7.32h-.25a.8.8,0,0,1-.59-.89c.42-1.41,1-2.81,1.59-4.29a.92.92,0,0,1,1.09-.45.75.75,0,0,1,.5,1c-.58,1.4-1.17,2.81-1.59,4.21,0,.23-.33.45-.75.45Z"/><path class="cls-1" d="M79.57,134.81a.67.67,0,0,1-.56-.28,1,1,0,0,1,0-1.33,32.07,32.07,0,0,1,3.77-3.79.76.76,0,0,1,1.12.19,1.11,1.11,0,0,1-.16,1.32,30.75,30.75,0,0,0-3.61,3.61.79.79,0,0,1-.56.28Zm6.34-5.88a.72.72,0,0,1-.64-.47,1,1,0,0,1,.24-1.33c1.28-.95,2.73-1.9,4.25-2.85a.67.67,0,0,1,1,.38.9.9,0,0,1-.32,1.24,39.61,39.61,0,0,0-4.17,2.75c-.16.28-.24.28-.4.28Zm7.14-4.46a.78.78,0,0,1-.72-.57,1,1,0,0,1,.4-1.23c1.44-.76,3-1.52,4.49-2.28a.81.81,0,0,1,1,.57,1.06,1.06,0,0,1-.48,1.24c-1.53.75-3.05,1.42-4.42,2.18a.44.44,0,0,1-.32.09Zm7.54-3.6a.81.81,0,0,1-.72-.67,1,1,0,0,1,.48-1.23c1.45-.66,3.05-1.23,4.66-1.8.4-.19.88.09,1,.66a1,1,0,0,1-.56,1.24c-1.61.56-3.13,1.23-4.58,1.8Zm7.71-2.94a1,1,0,0,1-.81-.67.86.86,0,0,1,.57-1.14c1.52-.47,3-1,4.73-1.51a.82.82,0,0,1,1,.66,1,1,0,0,1-.56,1.14c-1.6.47-3.21,1-4.65,1.52Zm7.86-2.47a.88.88,0,0,1-.8-.76,1,1,0,0,1,.56-1.14c1.52-.47,3.13-.85,4.73-1.33a.83.83,0,0,1,1,.76,1,1,0,0,1-.64,1.14c-1.6.38-3.21.86-4.73,1.33Zm7.94-2.18a.83.83,0,0,1-.8-.76,1,1,0,0,1,.64-1.14c1.61-.38,3.13-.76,4.82-1.14a.83.83,0,0,1,1,.76,1,1,0,0,1-.64,1.14c-1.61.38-3.21.76-4.74,1.14Zm8-1.8a.83.83,0,0,1-.81-.76,1,1,0,0,1,.64-1.14c1.61-.38,3.21-.67,4.82-1a.9.9,0,0,1,1,.76,1,1,0,0,1-.64,1.14c-1.6.29-3.21.67-4.81,1Zm8-1.71a.83.83,0,0,1-.8-.76c-.08-.48.24-1,.64-1,1.6-.29,3.21-.57,4.81-1a.77.77,0,0,1,.88.76c.09.47-.24,1-.64,1-1.6.28-3.21.57-4.81,1Zm8-1.43a.91.91,0,0,1-.8-.85c-.08-.47.24-1,.64-1l4.82-.86a.81.81,0,0,1,.88.86.87.87,0,0,1-.72,1l-4.82.85Zm8-1.32a1,1,0,0,1-.08-1.9c1.6-.29,3.2-.48,4.81-.76.4-.09.8.28.88.85a.93.93,0,0,1-.72,1.05c-1.6.28-3.21.47-4.81.76Zm8-1.24a1,1,0,0,1-.08-1.89c1.6-.19,3.21-.48,4.81-.67.48-.09.81.29.89.86a.93.93,0,0,1-.73,1c-1.6.19-3.21.47-4.81.66Zm8.1-1.14a1,1,0,0,1-.08-1.89c1.61-.19,3.21-.38,4.82-.67.48-.09.8.29.88.86a.91.91,0,0,1-.72,1c-1.61.19-3.21.38-4.82.66Zm8-1a1,1,0,0,1-.08-1.9l4.81-.57c.48-.09.8.29.88.86a.91.91,0,0,1-.72,1l-4.81.57Zm8.1-.95a1,1,0,0,1-.08-1.89l4.81-.57c.4-.1.81.38.89.85a1,1,0,0,1-.73,1l-4.89.57Zm8.1-.85a.92.92,0,0,1-.8-.86,1,1,0,0,1,.72-1c1.61-.19,3.21-.38,4.82-.47a.93.93,0,0,1,.88.85,1,1,0,0,1-.72,1c-1.61.1-3.21.29-4.9.48Zm8.11-.86a.93.93,0,0,1-.81-.85,1.09,1.09,0,0,1,.73-1c1.6-.19,3.21-.29,4.81-.48a.93.93,0,0,1,.88.86,1.08,1.08,0,0,1-.72,1c-1.6.1-3.29.29-4.89.47Zm8-.85a.85.85,0,0,1-.8-.85,1.09,1.09,0,0,1,.72-1c1.61-.19,3.21-.28,4.81-.47a.93.93,0,0,1,.89.85,1.09,1.09,0,0,1-.73,1.05c-1.6.19-3.2.28-4.89.47Zm8.1-.76a.85.85,0,0,1-.8-.85,1,1,0,0,1,.72-1l4.9-.47a.93.93,0,0,1,.88.85,1.09,1.09,0,0,1-.72,1l-5,.47Zm8.11-.76a.85.85,0,0,1-.8-.85,1.08,1.08,0,0,1,.72-1l4.81-.48a1,1,0,0,1,.88.86,1,1,0,0,1-.72,1l-4.89.47Zm8.1-.76a.85.85,0,0,1-.8-.85,1.08,1.08,0,0,1,.72-1l4.82-.48a1,1,0,0,1,.16,1.9l-4.9.47Zm8.11-.75a.86.86,0,0,1-.81-.86,1,1,0,0,1,.73-1l4.81-.48a1,1,0,0,1,.88.86,1.08,1.08,0,0,1-.72,1l-4.89.48Zm8.1-.76a.86.86,0,0,1-.8-.86,1.08,1.08,0,0,1,.72-1l4.81-.48a1,1,0,0,1,.16,1.9l-4.89.48Zm8-.76a.86.86,0,0,1-.8-.86,1,1,0,0,1,.72-1l4.82-.47a.93.93,0,0,1,.88.85,1,1,0,0,1-.72,1l-4.9.48Zm8.11-.86a.86.86,0,0,1-.81-.85,1.07,1.07,0,0,1,.73-1c1.6-.19,3.21-.29,4.81-.48a1,1,0,0,1,.88.86,1.09,1.09,0,0,1-.72,1c-1.52.19-3.21.38-4.89.47Zm8.1-.76a.91.91,0,0,1-.8-.85,1,1,0,0,1,.72-1c1.6-.19,3.21-.38,4.81-.48a.93.93,0,0,1,.89.86,1.07,1.07,0,0,1-.73,1c-1.6.1-3.21.28-4.89.47Zm8.1-.85a.92.92,0,0,1-.8-.85,1,1,0,0,1,.72-1l4.82-.57a.93.93,0,0,1,.88.86,1,1,0,0,1-.72,1l-4.9.57Zm8.11-.95a1,1,0,0,1-.08-1.9l4.81-.56c.48-.1.8.28.88.85a.91.91,0,0,1-.72,1l-4.89.57Zm8-1a1,1,0,0,1-.08-1.89c1.61-.19,3.21-.38,4.81-.67.49-.09.81.29.89.86a.92.92,0,0,1-.73,1c-1.6.19-3.2.38-4.81.66Zm8.1-1a1,1,0,0,1-.08-1.9c1.61-.19,3.21-.47,4.82-.66.4-.1.8.28.88.85a.93.93,0,0,1-.72,1c-1.61.19-3.21.47-4.82.66Zm8-1.14a1,1,0,0,1-.08-1.9c1.6-.28,3.21-.47,4.81-.76a.81.81,0,0,1,.88.86.87.87,0,0,1-.72,1c-1.6.29-3.21.48-4.81.76Zm8.1-1.33a.92.92,0,0,1-.8-.85c-.08-.48.24-1,.64-1l4.81-.86a.75.75,0,0,1,.89.76c.08.48-.24,1-.64,1l-4.82.86a.08.08,0,0,1-.08.09Zm8-1.51a.83.83,0,0,1-.8-.76c-.08-.48.24-1,.64-1,1.61-.28,3.21-.66,4.82-1a.9.9,0,0,1,1,.76,1,1,0,0,1-.64,1.14c-1.61.38-3.21.67-4.81.95a.25.25,0,0,0-.17-.09Zm7.95-1.62a.82.82,0,0,1-.8-.76,1,1,0,0,1,.64-1.14c1.6-.37,3.21-.75,4.73-1.13a.82.82,0,0,1,1,.76,1,1,0,0,1-.64,1.13c-1.52.38-3.13.76-4.81,1.14Zm7.94-2a.82.82,0,0,1-.8-.76,1,1,0,0,1,.56-1.14c1.61-.47,3.21-1,4.73-1.42a.82.82,0,0,1,1,.66c.08.48-.16,1.05-.56,1.14-1.53.48-3.13,1-4.74,1.43,0,.09-.08.09-.16.09Zm7.86-2.47a1,1,0,0,1-.8-.66.87.87,0,0,1,.56-1.14c1.61-.57,3.13-1.14,4.58-1.71a.8.8,0,0,1,1,.57,1.06,1.06,0,0,1-.48,1.24c-1.45.57-3.05,1.13-4.66,1.7Zm7.71-3a.72.72,0,0,1-.73-.57,1,1,0,0,1,.49-1.23c1.6-.76,3-1.52,4.41-2.28a.75.75,0,0,1,1,.47,1,1,0,0,1-.4,1.24,44.74,44.74,0,0,1-4.49,2.27.41.41,0,0,1-.32.1Zm7.3-4.08a.92.92,0,0,1-.72-.48,1,1,0,0,1,.32-1.32A32.13,32.13,0,0,0,376,68a.7.7,0,0,1,1.12.1,1,1,0,0,1-.08,1.33,35.62,35.62,0,0,1-4,3.41,2.87,2.87,0,0,1-.4.1Zm6.18-6.07a.94.94,0,0,1-.65-1.52,8.73,8.73,0,0,0,1-1.71.75.75,0,0,1,1.12-.38,1.06,1.06,0,0,1,.32,1.33c-.32.66-.72,1.33-1.12,2a.84.84,0,0,1-.64.29Z"/><path class="cls-1" d="M376.94,50.4a1.07,1.07,0,0,1-.76-.37,15.51,15.51,0,0,0-3-3.37.68.68,0,0,1,0-1,.87.87,0,0,1,1.17,0,18.93,18.93,0,0,1,3.27,3.67.72.72,0,0,1-.34,1c-.08,0-.16.07-.33.07Zm-5.69-5.54a1.41,1.41,0,0,1-.51-.15,43.22,43.22,0,0,0-4.1-2.55.69.69,0,0,1-.25-1,.88.88,0,0,1,1.17-.22,34,34,0,0,1,4.27,2.62.75.75,0,0,1,.17,1.05,1.58,1.58,0,0,1-.75.3Zm-7.12-4.12a.79.79,0,0,1-.42-.08c-1.42-.67-2.93-1.34-4.52-1.94a.72.72,0,0,1-.42-1,.88.88,0,0,1,1.09-.37c1.67.67,3.18,1.35,4.6,2a.72.72,0,0,1,.34,1,.78.78,0,0,1-.67.3Zm-7.7-3.15a.6.6,0,0,1-.34-.07q-2.25-.8-4.77-1.57a.76.76,0,0,1-.5-1,.91.91,0,0,1,1.09-.45c1.67.53,3.26,1,4.77,1.65a.75.75,0,0,1,.5,1,.84.84,0,0,1-.75.45Zm-8-2.62h-.25c-1.59-.45-3.18-.9-4.85-1.35a.8.8,0,0,1-.59-.89.93.93,0,0,1,1-.53c1.68.45,3.35.9,4.86,1.35a.72.72,0,0,1,.5,1c.09.23-.25.45-.67.45Zm-8.12-2.17H340c-1.59-.37-3.26-.75-4.94-1.12a.71.71,0,0,1-.58-.9.8.8,0,0,1,1-.53c1.67.38,3.35.75,4.94,1.13a.77.77,0,0,1,.59.9.8.8,0,0,1-.76.52ZM332,31h-.16c-1.59-.37-3.27-.67-4.94-1a.78.78,0,0,1-.67-.9.87.87,0,0,1,1-.6c1.68.3,3.35.68,5,1a.7.7,0,0,1,.58.89.79.79,0,0,1-.84.6Zm-8.28-1.64h-.17c-1.67-.3-3.27-.6-5-.9a.78.78,0,0,1-.67-.9.85.85,0,0,1,1-.6l5,.9a.78.78,0,0,1,.67.9.79.79,0,0,1-.83.6Zm-8.37-1.43h-.17c-1.68-.3-3.35-.52-5-.75a.75.75,0,0,1-.67-.82.83.83,0,0,1,.92-.6c1.67.23,3.35.53,5,.75a.79.79,0,0,1,.67.9c0,.3-.34.52-.75.52ZM307,26.73h-.16l-5-.67a.76.76,0,0,1-.67-.82.83.83,0,0,1,.93-.6l5,.67a.76.76,0,0,1,.67.83.71.71,0,0,1-.76.59Zm-8.37-1.12h-.08c-1.67-.22-3.35-.45-5-.6a.91.91,0,0,1-.76-.82,1,1,0,0,1,.92-.68c1.68.23,3.35.38,5,.6a.91.91,0,0,1,.75.83.86.86,0,0,1-.84.67Zm-8.45-1.05H290c-1.67-.15-3.34-.37-5-.52a.91.91,0,0,1-.75-.83,1,1,0,0,1,.92-.67c1.67.15,3.35.38,5,.53a.9.9,0,0,1,.76.82.79.79,0,0,1-.84.67Zm-8.46-.9h-.08c-1.67-.15-3.35-.3-5-.52a.91.91,0,0,1-.76-.82,1,1,0,0,1,.92-.68c1.68.15,3.35.3,5,.53a.9.9,0,0,1,.75.82c0,.45-.42.67-.84.67Zm-8.45-.74h-.09l-5.1-.45c-.42-.08-.84-.38-.76-.83a.83.83,0,0,1,.93-.67l5.1.45c.5.07.84.37.76.82a.8.8,0,0,1-.84.68Zm-8.46-.75h0c-1.75-.15-3.43-.3-5.1-.38a.7.7,0,0,1-.76-.82.74.74,0,0,1,.92-.68c1.68.15,3.35.23,5.11.38a.69.69,0,0,1,.75.82,1,1,0,0,1-.92.68Zm-8.45-.68h0c-1.76-.15-3.43-.22-5.11-.37a.71.71,0,0,1-.75-.83.78.78,0,0,1,.92-.67c1.67.15,3.35.22,5.11.37a.71.71,0,0,1,.75.83,1.05,1.05,0,0,1-.92.67Zm-8.46-.6h0c-1.75-.07-3.43-.22-5.1-.3a.7.7,0,0,1-.76-.82.78.78,0,0,1,.92-.67c1.68.07,3.35.22,5.11.3a.69.69,0,0,1,.75.82,1,1,0,0,1-.92.67Zm-8.53-.52h0c-1.76-.08-3.44-.23-5.11-.3a.69.69,0,0,1-.75-.82.74.74,0,0,1,.92-.68c1.67.08,3.34.15,5.1.3a.71.71,0,0,1,.76.83.9.9,0,0,1-.92.67Zm-8.46-.45h0l-5.11-.22a.71.71,0,0,1-.75-.83.73.73,0,0,1,.92-.67l5.11.22a.71.71,0,0,1,.75.83,1,1,0,0,1-.92.67Zm-8.54-.37h0l-5.1-.23a.79.79,0,0,1-.84-.75.8.8,0,0,1,.84-.75l5.1.23c.5,0,.84.37.75.75.09.37-.25.75-.75.75Zm-8.45-.38h0L208.76,19a.75.75,0,1,1,0-1.5l5.11.22a.75.75,0,1,1,0,1.5Zm-8.54-.3h0c-1.76-.07-3.43-.15-5.11-.15a.8.8,0,0,1-.84-.75.76.76,0,0,1,.84-.75c1.68.08,3.35.08,5.11.15a.75.75,0,1,1,0,1.5Zm-8.46-.3h0c-1.76-.07-3.43-.07-5.1-.15a.79.79,0,0,1-.84-.75.8.8,0,0,1,.84-.75c1.67.08,3.34.08,5.1.15a.75.75,0,1,1,0,1.5Zm-8.54-.22h0c-1.75-.08-3.43-.08-5.1-.15a.8.8,0,0,1-.84-.75.86.86,0,0,1,.84-.75h0c1.67,0,3.35.07,5.1.15a.79.79,0,0,1,.84.75.75.75,0,0,1-.84.75Zm-8.45-.15h0c-1.76,0-3.43-.08-5.11-.08a.79.79,0,0,1-.83-.75.75.75,0,0,1,.83-.75c1.68,0,3.35.08,5.11.08a.8.8,0,0,1,.84.75.86.86,0,0,1-.84.75Zm-8.54-.15h0c-1.84,0-3.52-.08-5.11-.08a.79.79,0,0,1-.83-.75.8.8,0,0,1,.83-.75c1.59,0,3.35,0,5.11.08a.75.75,0,1,1,0,1.5ZM162.8,18h-5.1a.79.79,0,0,1-.84-.75.8.8,0,0,1,.84-.75h5.1a.75.75,0,1,1,0,1.5Zm-8.45-.07h-.42a.8.8,0,0,1-.84-.75.76.76,0,0,1,.84-.75h.42a.75.75,0,0,1,.83.75.79.79,0,0,1-.83.75Z"/><path class="cls-1" d="M72.8,319.78a.91.91,0,0,1-.58-.5,1,1,0,0,1,.43-1.33l9-4.76-3.46-8.8a1,1,0,1,1,1.82-.77l4.18,10.49-10.54,5.63a1.32,1.32,0,0,1-.85,0Z"/><path class="cls-1" d="M326.3,237.57a.9.9,0,0,1-.5-.1l-9.8-5.7,4.8-10.9a1,1,0,1,1,1.8.8l-4.1,9.3,8.2,4.8a1.11,1.11,0,0,1,.4,1.4.89.89,0,0,1-.8.4Z"/><path class="cls-1" d="M299,390.55l-8.3-6.6a1,1,0,0,1,1.2-1.6l7,5.5,6.9-6.6a1,1,0,0,1,1.4,1.4l-8.2,7.9Z"/><path class="cls-1" d="M170.34,185.13a.91.91,0,0,1-.8-.4,1,1,0,0,1,.1-1.4l7.8-6.6-5.3-7.9a1,1,0,1,1,1.7-1.1l6.3,9.4-9.1,7.7a.83.83,0,0,1-.7.3Z"/><path class="cls-1" d="M258.52,105.29a.9.9,0,0,1-.54-.2l-8.09-7.7,5.6-9.4a.83.83,0,0,1,1.25-.3,1.06,1.06,0,0,1,.26,1.4L252.29,97l6.85,6.6a1.07,1.07,0,0,1,.09,1.4,1,1,0,0,1-.71.3Z"/><path class="cls-1" d="M79.1,254a1.53,1.53,0,0,0,.87-.39c1.29-1.21,2.7-2.36,4.18-3.52.45-.3.62-.77.41-1s-.74-.15-1.11.14A45.63,45.63,0,0,0,79,253.05c-.41.36-.46.76-.15.87a.22.22,0,0,0,.24.12Zm7.5-5.8a1.49,1.49,0,0,0,.65-.24c1.53-1,3.11-1.86,4.8-2.7a1.06,1.06,0,0,0,.72-1c0-.33-.48-.36-1-.13-1.81.91-3.5,1.88-5.11,2.85-.45.3-.66.71-.49,1,0,.2.17.26.4.24ZM305,232.12l2.39-.16a1.52,1.52,0,0,0,1.13-.73c.2-.42,0-.67-.43-.64l-4.62.3h0a1.52,1.52,0,0,0-1.12.74c-.21.41,0,.66.42.63l2.23-.14Zm-5.28.28a1.54,1.54,0,0,0,1.12-.74c.21-.41,0-.67-.42-.64-1.54.11-3.05.14-4.59.24a1.48,1.48,0,0,0-1.12.73c-.21.42-.05.67.42.64,1.43,0,3.05-.13,4.59-.23Zm10.87-.71h0c1.62-.11,3.2-.28,4.77-.45a1.48,1.48,0,0,0,1.12-.73c.21-.42,0-.67-.42-.64-1.57.17-3.12.27-4.69.44a1.47,1.47,0,0,0-1.12.74c-.29.41,0,.66.34.64ZM292,232.77a1.52,1.52,0,0,0,1.12-.74c.21-.41,0-.66-.42-.63-1.51,0-3,.06-4.56.16a1.41,1.41,0,0,0-1.12.74c-.21.41,0,.66.42.63,1.47-.09,3-.12,4.56-.16ZM318.5,231h0c1.66-.17,3.35-.41,4.85-.58a1.4,1.4,0,0,0,1.08-.8c.21-.41,0-.66-.54-.56-1.53.23-3.19.41-4.76.57a1.31,1.31,0,0,0-1.08.81.4.4,0,0,0,.45.56Zm-34.09,2a1.47,1.47,0,0,0,1.08-.66c.21-.42,0-.67-.34-.65l-4.52.1a1.88,1.88,0,0,0-1.17.67c-.21.42,0,.67.31.71,1.55-.1,3.05-.13,4.64-.17Zm42.16-3h.08c1.69-.24,3.33-.55,4.87-.78a1.86,1.86,0,0,0,1.08-.8c.1-.34-.15-.59-.54-.57-1.57.31-3.18.54-4.87.79a1.5,1.5,0,0,0-1.08.8c-.09.34.08.59.46.56ZM276.83,233a1.47,1.47,0,0,0,1.09-.67c.2-.41,0-.66-.31-.71-1.51,0-3,0-4.49,0a1.67,1.67,0,0,0-1.16.67c-.21.42,0,.67.31.71,1.47,0,3,0,4.56,0Zm-7.54,0a1.51,1.51,0,0,0,1.08-.67c.21-.41,0-.67-.31-.71-1.5,0-3,0-4.45,0a1.67,1.67,0,0,0-1.16.67c-.18.35,0,.67.31.71,1.47,0,2.94.08,4.53,0Zm65.45-4.54h.15c1.72-.31,3.41-.69,5-1.06a1.6,1.6,0,0,0,1-.86c.1-.34-.23-.58-.65-.49-1.6.37-3.28.74-4.93,1.05a1.46,1.46,0,0,0-1,.8.37.37,0,0,0,.38.57Zm-73,4.57a1.53,1.53,0,0,0,1.09-.67c.17-.34,0-.67-.31-.71-1.47,0-3,0-4.45,0a1.61,1.61,0,0,0-1.16.67c-.18.34-.05.67.3.71,1.51,0,3,0,4.53,0ZM95,243.78a1.22,1.22,0,0,0,.42-.09c1.62-.71,3.33-1.42,5.07-2.06.46-.16.9-.59.84-.92s-.34-.51-.83-.28c-1.82.65-3.52,1.36-5.26,2.14-.49.23-.85.65-.8,1a.58.58,0,0,0,.56.23ZM254.27,233a1.66,1.66,0,0,0,1.09-.67c.21-.41,0-.67-.31-.71-1.48,0-3-.07-4.46,0a1.64,1.64,0,0,0-1.16.67.42.42,0,0,0,.31.71c1.51,0,3,0,4.53,0Zm88.83-6.4.24,0c1.79-.45,3.46-.95,5.17-1.53a1.31,1.31,0,0,0,.92-.92c0-.33-.26-.51-.79-.35-1.6.51-3.27,1-5,1.46-.42.09-.94.52-1,.86s.11.52.41.5Zm-96.3,6.29a1.64,1.64,0,0,0,1.08-.67.42.42,0,0,0-.31-.71l-4.41-.11a1.68,1.68,0,0,0-1.17.67.42.42,0,0,0,.31.71l4.5.11Zm-7.36-.18a1.64,1.64,0,0,0,1.08-.67.42.42,0,0,0-.31-.71l-4.41-.11a1.49,1.49,0,0,0-1.17.67c-.25.35-.12.67.31.71l4.5.11Zm-7.48-.11a1.64,1.64,0,0,0,1.09-.67c.25-.35.12-.67-.31-.71l-4.42-.11a1.38,1.38,0,0,0-1.16.67c-.25.35-.12.67.31.71l4.49.11Zm-128.48,8a.47.47,0,0,0,.27-.08c1.59-.51,3.27-1,5-1.53a1.47,1.47,0,0,0,1-.85c.1-.34-.26-.52-.68-.42-1.75.51-3.5,1-5.18,1.53-.45.16-.9.59-.92.92a.46.46,0,0,0,.53.43Zm121-8.17a1.64,1.64,0,0,0,1.09-.67.42.42,0,0,0-.31-.71l-4.42-.11a1.62,1.62,0,0,0-1.16.68c-.25.34-.12.67.31.71l4.49.1Zm127.1-8.5a.86.86,0,0,0,.35-.09c1.82-.65,3.52-1.36,5.26-2.13.49-.24.85-.66.8-1s-.45-.43-.94-.2c-1.55.7-3.25,1.41-5,2-.45.16-.89.59-.84.92s.07.46.37.44Zm-134.53,8.32a1.61,1.61,0,0,0,1.08-.67.43.43,0,0,0-.31-.71l-4.41-.11a1.53,1.53,0,0,0-1.17.68.42.42,0,0,0,.31.71l4.5.1Zm-7.4-.11a1.66,1.66,0,0,0,1.09-.67.42.42,0,0,0-.31-.71c-1.48,0-2.95-.07-4.46,0a1.77,1.77,0,0,0-1.16.67c-.17.35,0,.67.31.71,1.51,0,3,0,4.53,0Zm-97.75,6h.15l5-1.12a1.51,1.51,0,0,0,1-.86c.1-.34-.15-.59-.65-.49q-2.64.57-5,1.12a1.64,1.64,0,0,0-1,.87.52.52,0,0,0,.57.49ZM202.22,232a1.64,1.64,0,0,0,1.08-.67c.18-.34,0-.67-.31-.71-1.47,0-2.94-.07-4.45,0a1.86,1.86,0,0,0-1.16.67c-.18.35,0,.67.31.71,1.51,0,3,0,4.53,0Zm-7.48-.11a1.53,1.53,0,0,0,1.09-.67c.17-.34,0-.66-.31-.71-1.47,0-3,0-4.45,0a1.83,1.83,0,0,0-1.16.67c-.18.35,0,.67.3.71,1.48,0,3,0,4.53,0Zm-74.43,4.46h.08c1.57-.3,3.22-.61,4.91-.85a1.86,1.86,0,0,0,1.08-.8c.09-.34-.15-.59-.54-.57-1.69.25-3.33.55-4.9.86a1.44,1.44,0,0,0-1,.79c-.21.41,0,.6.38.57Zm67-4.51a1.49,1.49,0,0,0,1.09-.66c.21-.42,0-.67-.31-.71-1.47,0-3,0-4.49,0a1.83,1.83,0,0,0-1.16.68c-.21.41,0,.66.31.71,1.51,0,3,0,4.56,0Zm172.86-11.68a1.9,1.9,0,0,0,.53-.17,45.57,45.57,0,0,0,5-3c.45-.3.66-.71.49-1s-.63-.23-1.08.07c-1.46.95-3.07,1.92-4.8,2.83-.49.23-.78.65-.64,1s.24.25.48.24Zm-180.4,11.71a1.49,1.49,0,0,0,1.09-.67c.2-.41,0-.66-.31-.71-1.51,0-3,0-4.57,0a1.77,1.77,0,0,0-1.16.67c-.21.41,0,.67.31.71,1.58,0,3.05,0,4.64,0ZM128.44,235h0c1.62-.24,3.3-.49,4.88-.65a1.31,1.31,0,0,0,1.08-.8c.21-.42,0-.67-.53-.57-1.66.18-3.27.42-4.88.65a1.53,1.53,0,0,0-1.08.8c0,.34.15.59.53.57ZM172.19,232a1.53,1.53,0,0,0,1.09-.67c.21-.41,0-.66-.31-.71l-4.6.1a1.52,1.52,0,0,0-1.12.74c-.21.41,0,.67.42.64l4.52-.1ZM136.48,234h0c1.57-.17,3.15-.34,4.77-.45a1.5,1.5,0,0,0,1.12-.73c.21-.42,0-.67-.42-.64-1.66.17-3.2.27-4.81.51a1.31,1.31,0,0,0-1.08.8c-.22.28,0,.53.42.51Zm28.06-1.84a1.48,1.48,0,0,0,1.12-.73c.21-.41.05-.67-.42-.64-1.5,0-3.12.14-4.63.17a1.52,1.52,0,0,0-1.12.74c-.21.41,0,.66.42.63,1.54-.1,3.05-.13,4.63-.17Zm-7.68.31a1.52,1.52,0,0,0,1.12-.74c.21-.41,0-.67-.42-.64-1.54.1-3.13.14-4.67.24h0a1.54,1.54,0,0,0-1.12.74c-.21.41,0,.67.42.63,1.54-.1,3.09-.2,4.67-.23Zm-12.46.74h0c1.55-.1,3.12-.27,4.74-.37a1.51,1.51,0,0,0,1.12-.74c.21-.41,0-.67-.42-.63-1.54.1-3.16.2-4.74.37a1.5,1.5,0,0,0-1.12.74c-.21.41,0,.66.42.63ZM368.16,215a1.31,1.31,0,0,0,.76-.32,44.32,44.32,0,0,0,4.24-3.92c.33-.35.38-.76,0-.86a1.22,1.22,0,0,0-1.21.47A32.4,32.4,0,0,1,368,214c-.4.35-.53.76-.33,1a1.47,1.47,0,0,0,.5,0Zm6.35-6.45a1.49,1.49,0,0,0,1.05-.6,32.2,32.2,0,0,0,2.71-4.29c.21-.41,0-.67-.43-.64a1.54,1.54,0,0,0-1.12.74,29.24,29.24,0,0,1-2.56,4c-.26.35-.23.75.19.79Zm4-7h0a1.58,1.58,0,0,0,1.16-.81c.54-1.36,1-2.72,1.44-4.14.09-.34-.23-.58-.65-.49a1.53,1.53,0,0,0-1,.86c-.39,1.36-.86,2.71-1.37,4-.17.34,0,.6.46.57Zm2-6.7.23,0a1.57,1.57,0,0,0,1-.86c.28-1.28.4-2.55.56-3.88,0-.34-.34-.51-.79-.35s-.9.59-.92.92a31.58,31.58,0,0,1-.53,3.82c-.1.21.1.39.49.37Z"/></svg>