<?xml version="1.0" encoding="utf-8"?>
<!-- Generator: Adobe Illustrator 26.0.2, SVG Export Plug-In . SVG Version: 6.00 Build 0)  -->
<svg version="1.1" id="Capa_1" xmlns="http://www.w3.org/2000/svg" xmlns:xlink="http://www.w3.org/1999/xlink" x="0px" y="0px"
	 viewBox="0 0 41.7 159" style="enable-background:new 0 0 41.7 159;" xml:space="preserve">
<style type="text/css">
	.st0{fill:#504F4E;}
	.st1{fill:none;stroke:#FFCC00;stroke-width:3;stroke-linecap:round;}
</style>
<g>
	<path class="st0" d="M3.7,6.7c2,0,3.6-1.6,3.6-3.6C7,1.1,5.1-0.3,3,0.1c-1.5,0.2-2.7,1.4-3,3C0.1,5.1,1.7,6.7,3.7,6.7"/>
	<path class="st0" d="M38.2,6.7c2,0,3.6-1.6,3.6-3.6c-0.3-2-2.2-3.4-4.3-3c-1.6,0.3-2.8,1.5-3,3C34.5,5.1,36.2,6.7,38.2,6.7"/>
	<line class="st1" x1="5.1" y1="3.1" x2="37.4" y2="3.1"/>
	<path class="st0" d="M3.7,28.9c2-0.1,3.6-1.7,3.5-3.7c-0.1-2-1.7-3.6-3.7-3.5C1.6,21.8,0,23.4,0,25.3c0,2,1.6,3.6,3.6,3.6H3.7"/>
	<path class="st0" d="M38.2,28.9c2-0.1,3.6-1.7,3.5-3.7S40,21.6,38,21.7c-1.9,0.1-3.5,1.6-3.5,3.6s1.6,3.6,3.6,3.6H38.2"/>
	<line class="st1" x1="5.1" y1="25.3" x2="37.4" y2="25.3"/>
</g>
<g>
	<path class="st0" d="M3.7,136.8c2,0,3.6-1.6,3.6-3.6c-0.3-2-2.2-3.4-4.3-3c-1.6,0.3-2.8,1.5-3,3C0,135.2,1.6,136.8,3.7,136.8"/>
	<path class="st0" d="M38.2,136.8c2,0,3.6-1.6,3.6-3.6c-0.3-2-2.2-3.4-4.3-3c-1.6,0.3-2.8,1.5-3,3C34.5,135.2,36,136.8,38.2,136.8"
		/>
	<line class="st1" x1="5.1" y1="133.2" x2="37.4" y2="133.2"/>
	<path class="st0" d="M3.7,159c2-0.1,3.6-1.7,3.5-3.7c-0.1-2-1.7-3.6-3.7-3.5c-1.9,0.1-3.5,1.6-3.5,3.6s1.6,3.6,3.6,3.6
		C3.6,159,3.6,159,3.7,159"/>
	<path class="st0" d="M38.2,159c2-0.1,3.6-1.7,3.5-3.7s-1.7-3.6-3.7-3.5c-1.9,0.1-3.5,1.6-3.5,3.6S36,159,38,159
		C38,159,38,159,38.2,159"/>
	<line class="st1" x1="5.1" y1="155.4" x2="37.4" y2="155.4"/>
</g>
<g>
	<path class="st0" d="M3.7,50c2,0,3.6-1.6,3.6-3.6c-0.3-2-2.2-3.4-4.3-3c-1.5,0.2-2.7,1.4-3,3C0.1,48.4,1.7,50,3.7,50"/>
	<path class="st0" d="M38.2,50c2,0,3.6-1.6,3.6-3.6c-0.3-2-2.2-3.4-4.3-3c-1.6,0.3-2.8,1.5-3,3C34.5,48.4,36.2,50,38.2,50"/>
	<line class="st1" x1="5.1" y1="46.4" x2="37.4" y2="46.4"/>
	<path class="st0" d="M3.7,72.2c2-0.1,3.6-1.7,3.5-3.7c-0.1-2-1.7-3.6-3.7-3.5C1.6,65.1,0,66.7,0,68.6c0,2,1.6,3.6,3.6,3.6H3.7"/>
	<path class="st0" d="M38.2,72.2c2-0.1,3.6-1.7,3.5-3.7S40,64.9,38,65c-1.9,0.1-3.5,1.6-3.5,3.6s1.6,3.6,3.6,3.6H38.2"/>
	<line class="st1" x1="5.1" y1="68.6" x2="37.4" y2="68.6"/>
</g>
<g>
	<path class="st0" d="M3.7,93.4c2,0,3.6-1.6,3.6-3.6c-0.3-2-2.2-3.4-4.3-3c-1.5,0.2-2.7,1.4-3,3C0.1,91.8,1.7,93.4,3.7,93.4"/>
	<path class="st0" d="M38.2,93.4c2,0,3.6-1.6,3.6-3.6c-0.3-2-2.2-3.4-4.3-3c-1.6,0.3-2.8,1.5-3,3C34.5,91.8,36.2,93.4,38.2,93.4"/>
	<line class="st1" x1="5.1" y1="89.8" x2="37.4" y2="89.8"/>
	<path class="st0" d="M3.7,115.6c2-0.1,3.6-1.7,3.5-3.7c-0.1-2-1.7-3.6-3.7-3.5C1.6,108.5,0,110.1,0,112c0,2,1.6,3.6,3.6,3.6H3.7"/>
	<path class="st0" d="M38.2,115.6c2-0.1,3.6-1.7,3.5-3.7s-1.7-3.6-3.7-3.5c-1.9,0.1-3.5,1.6-3.5,3.6s1.6,3.6,3.6,3.6H38.2"/>
	<line class="st1" x1="5.1" y1="112" x2="37.4" y2="112"/>
</g>
</svg>
