<?xml version="1.0" encoding="utf-8"?>
<!-- Generator: Adobe Illustrator 14.0.0, SVG Export Plug-In . SVG Version: 6.00 Build 43363)  -->
<!DOCTYPE svg PUBLIC "-//W3C//DTD SVG 1.1//EN" "http://www.w3.org/Graphics/SVG/1.1/DTD/svg11.dtd">
<svg version="1.1" id="Layer_1" xmlns="http://www.w3.org/2000/svg" xmlns:xlink="http://www.w3.org/1999/xlink" x="0px" y="0px"
	 width="15.7px" height="18.806px" viewBox="0 0 15.7 18.806" enable-background="new 0 0 15.7 18.806" xml:space="preserve">
<polygon fill="#EC1C24" points="7.726,14.374 7.676,14.521 7.601,14.728 7.558,14.853 7.511,14.985 7.458,15.13 7.4,15.284 
	7.341,15.444 7.28,15.61 7.216,15.78 7.147,15.953 7.115,16.042 7.078,16.13 7.046,16.221 7.008,16.31 6.971,16.397 6.936,16.488 
	6.897,16.576 6.86,16.665 6.823,16.755 6.785,16.841 6.748,16.929 6.71,17.014 6.671,17.101 6.631,17.185 6.591,17.268 
	6.551,17.349 6.511,17.431 6.471,17.511 6.428,17.589 6.388,17.665 6.348,17.739 6.323,17.779 6.301,17.815 6.278,17.854 
	6.258,17.891 6.233,17.927 6.21,17.964 6.186,17.999 6.16,18.036 6.133,18.072 6.108,18.108 6.08,18.147 6.051,18.184 6.021,18.223 
	5.988,18.259 5.953,18.298 5.918,18.337 5.878,18.376 5.835,18.417 5.788,18.458 5.738,18.501 5.681,18.542 5.615,18.587 
	5.543,18.63 5.46,18.673 5.368,18.714 5.278,18.745 5.208,18.764 5.147,18.78 5.083,18.79 5.018,18.8 4.948,18.806 4.875,18.806 
	4.803,18.806 4.71,18.797 4.596,18.778 4.476,18.745 4.373,18.708 4.285,18.666 4.213,18.624 4.15,18.585 4.096,18.545 4.04,18.501 
	3.973,18.441 3.913,18.38 3.863,18.326 3.823,18.276 3.788,18.229 3.758,18.187 3.728,18.146 3.703,18.105 3.681,18.069 
	3.655,18.032 3.636,17.995 3.615,17.962 3.593,17.925 3.573,17.887 3.535,17.817 3.513,17.772 3.5,17.747 3.466,17.676 
	3.431,17.604 3.396,17.531 3.363,17.46 3.33,17.388 3.301,17.317 3.268,17.245 3.238,17.175 3.208,17.108 3.155,16.981 
	3.108,16.866 3.033,16.685 3.016,16.645 2.943,16.497 2.875,16.358 2.873,16.351 2.798,16.206 2.726,16.062 2.65,15.917 
	2.615,15.847 2.578,15.777 2.54,15.704 2.506,15.634 2.468,15.565 2.431,15.494 2.391,15.427 2.353,15.356 2.315,15.288 
	2.278,15.221 2.238,15.15 2.2,15.083 2.16,15.017 2.123,14.946 2.083,14.88 2.043,14.813 2,14.744 1.99,14.724 1.963,14.681 
	1.923,14.614 1.881,14.549 1.841,14.483 1.801,14.418 1.761,14.353 1.718,14.286 1.676,14.222 1.633,14.157 1.593,14.093 
	1.551,14.028 1.506,13.965 1.463,13.901 1.421,13.838 1.375,13.774 1.333,13.713 1.288,13.649 1.24,13.587 1.198,13.524 
	1.153,13.463 1.105,13.401 1.061,13.339 1.013,13.278 0.968,13.218 0.918,13.156 0.87,13.095 0.823,13.036 0.775,12.976 
	0.726,12.915 0.676,12.858 0.625,12.795 0.578,12.736 0.528,12.679 0.476,12.62 0.426,12.56 0.4,12.534 0.373,12.502 0.318,12.439 
	0.315,12.438 0,11.524 0.421,10.654 0.426,10.65 1.341,10.333 2.208,10.752 2.21,10.755 2.271,10.821 2.306,10.861 2.33,10.894 
	2.393,10.962 2.453,11.034 2.513,11.104 2.573,11.173 2.631,11.246 2.688,11.317 2.745,11.389 2.803,11.46 2.86,11.532 
	2.915,11.604 2.971,11.675 3.025,11.748 3.08,11.821 3.136,11.893 3.19,11.966 3.243,12.038 3.296,12.114 3.346,12.187 
	3.397,12.259 3.45,12.335 3.5,12.407 3.551,12.481 3.601,12.557 3.65,12.632 3.7,12.706 3.75,12.78 3.798,12.854 3.846,12.931 
	3.893,13.007 3.94,13.082 3.985,13.156 4.033,13.233 4.078,13.309 4.123,13.385 4.155,13.437 4.171,13.46 4.213,13.538 
	4.258,13.616 4.301,13.691 4.346,13.77 4.391,13.845 4.433,13.923 4.476,13.999 4.518,14.077 4.561,14.155 4.601,14.233 
	4.643,14.312 4.686,14.39 4.726,14.467 4.766,14.546 4.806,14.626 4.846,14.704 4.886,14.784 4.966,14.94 5.006,15.026 
	5.058,14.905 5.125,14.75 5.188,14.597 5.25,14.446 5.311,14.304 5.365,14.167 5.418,14.04 5.466,13.923 5.546,13.722 5.605,13.573 
	5.628,13.513 5.647,13.466 5.75,13.234 5.848,13.01 5.948,12.786 5.971,12.739 6.051,12.565 6.153,12.341 6.256,12.119 6.36,11.897 
	6.466,11.675 6.57,11.454 6.678,11.233 6.783,11.013 6.893,10.793 7,10.572 7.11,10.351 7.221,10.131 7.33,9.914 7.388,9.801 
	7.445,9.695 7.503,9.585 7.558,9.475 7.618,9.368 7.673,9.257 7.73,9.15 7.788,9.04 7.846,8.932 7.905,8.823 7.963,8.716 
	8.022,8.607 8.083,8.5 8.141,8.391 8.203,8.282 8.261,8.176 8.323,8.069 8.383,7.962 8.443,7.853 8.503,7.747 8.565,7.639 
	8.605,7.57 8.628,7.533 8.688,7.427 8.753,7.321 8.815,7.216 8.878,7.109 8.94,7.004 9.006,6.898 9.07,6.794 9.133,6.688 
	9.198,6.583 9.263,6.479 9.328,6.373 9.393,6.271 9.46,6.165 9.525,6.061 9.593,5.958 9.66,5.854 9.728,5.751 9.793,5.647 
	9.86,5.544 9.931,5.441 9.998,5.338 10.065,5.235 10.101,5.186 10.136,5.136 10.205,5.032 10.275,4.931 10.348,4.83 10.418,4.728 
	10.485,4.629 10.558,4.526 10.631,4.426 10.703,4.326 10.775,4.224 10.848,4.125 10.921,4.025 10.993,3.929 11.065,3.826 
	11.141,3.729 11.216,3.63 11.29,3.531 11.365,3.433 11.44,3.334 11.518,3.237 11.593,3.14 11.671,3.042 11.748,2.946 11.825,2.849 
	11.903,2.752 11.98,2.657 12.061,2.56 12.138,2.466 12.218,2.369 12.296,2.275 12.378,2.18 12.458,2.085 12.538,1.992 12.62,1.897 
	12.703,1.802 12.783,1.71 12.865,1.617 12.95,1.525 13.033,1.431 13.118,1.341 13.2,1.25 13.285,1.156 13.37,1.065 13.458,0.974 
	13.543,0.885 13.631,0.794 13.718,0.704 13.806,0.614 13.893,0.525 13.98,0.436 14.07,0.347 14.16,0.259 14.801,0 15.438,0.265 
	15.443,0.271 15.7,0.909 15.436,1.547 15.433,1.549 15.351,1.635 15.266,1.717 15.186,1.8 15.103,1.884 15.021,1.967 14.94,2.052 
	14.86,2.137 14.78,2.22 14.7,2.306 14.623,2.393 14.543,2.478 14.466,2.564 14.386,2.651 14.311,2.738 14.233,2.824 14.155,2.914 
	14.08,3.002 14.006,3.089 13.928,3.179 13.855,3.268 13.78,3.359 13.708,3.447 13.633,3.537 13.558,3.627 13.488,3.719 13.413,3.81 
	13.343,3.9 13.333,3.913 13.272,3.994 13.198,4.083 13.131,4.177 13.058,4.269 12.988,4.362 12.921,4.456 12.851,4.551 12.78,4.645 
	12.713,4.737 12.646,4.833 12.578,4.927 12.511,5.022 12.443,5.118 12.378,5.214 12.311,5.31 12.245,5.406 12.181,5.503 
	12.115,5.599 12.051,5.696 11.985,5.794 11.923,5.891 11.858,5.988 11.796,6.088 11.733,6.185 11.7,6.235 11.671,6.284 
	11.608,6.382 11.546,6.482 11.485,6.581 11.423,6.681 11.363,6.779 11.303,6.88 11.243,6.981 11.183,7.083 11.123,7.183 
	11.063,7.284 11.003,7.384 10.945,7.487 10.888,7.589 10.83,7.689 10.772,7.793 10.716,7.894 10.658,7.996 10.603,8.1 10.543,8.203 
	10.49,8.306 10.433,8.409 10.378,8.513 10.358,8.549 10.32,8.616 10.268,8.719 10.213,8.826 10.158,8.929 10.103,9.033 
	10.051,9.138 9.995,9.242 9.94,9.347 9.888,9.453 9.835,9.557 9.783,9.663 9.73,9.77 9.678,9.875 9.625,9.98 9.575,10.085 
	9.525,10.192 9.473,10.298 9.421,10.406 9.37,10.512 9.32,10.621 9.271,10.728 9.223,10.834 9.123,11.048 9.022,11.265 8.928,11.48 
	8.83,11.696 8.735,11.915 8.643,12.13 8.548,12.351 8.455,12.567 8.365,12.786 8.272,13.007 8.183,13.226 8.096,13.446 
	8.025,13.619 8.006,13.665 7.915,13.886 7.828,14.105 7.74,14.33 7.75,14.311 7.74,14.335 "/>
</svg>
