<?xml version="1.0" encoding="utf-8"?>
<!-- Generator: Adobe Illustrator 14.0.0, SVG Export Plug-In . SVG Version: 6.00 Build 43363)  -->
<!DOCTYPE svg PUBLIC "-//W3C//DTD SVG 1.1//EN" "http://www.w3.org/Graphics/SVG/1.1/DTD/svg11.dtd">
<svg version="1.1" id="Layer_1" xmlns="http://www.w3.org/2000/svg" xmlns:xlink="http://www.w3.org/1999/xlink" x="0px" y="0px"
	 width="29.919px" height="15.775px" viewBox="0 0 29.919 15.775" enable-background="new 0 0 29.919 15.775" xml:space="preserve">
<g>
	<rect x="15.111" y="1.035" fill="#FFFFFF" width="14.128" height="14.128"/>
	
		<rect x="15.111" y="1.035" fill="none" stroke="#F39200" stroke-width="0.75" stroke-linecap="round" width="14.128" height="14.128"/>
	<polygon fill="#FFFFFF" points="0.997,1.034 0.997,15.163 15.124,15.163 16.953,8.697 15.124,1.034 	"/>
	<polygon fill="none" stroke="#F39200" stroke-width="0.75" stroke-linecap="round" points="0.997,1.034 0.997,15.163 
		15.124,15.163 16.953,8.697 15.124,1.034 	"/>
	<g>
		<path fill="#F39200" d="M25.104,11.069c-0.104,0.033-0.274,0.066-0.509,0.102c-0.235,0.037-0.521,0.054-0.855,0.054
			c-0.472,0-0.878-0.08-1.226-0.24c-0.348-0.159-0.639-0.384-0.873-0.676c-0.234-0.29-0.41-0.64-0.527-1.046
			c-0.113-0.406-0.172-0.857-0.172-1.351c0-0.511,0.066-0.971,0.202-1.381c0.136-0.411,0.325-0.76,0.569-1.046
			c0.242-0.288,0.537-0.507,0.885-0.658C22.945,4.675,23.33,4.6,23.751,4.6c0.399,0,0.791,0.048,1.174,0.149
			c0.383,0.1,0.688,0.225,0.92,0.377l0.371-0.969c-0.048-0.032-0.137-0.08-0.269-0.145c-0.132-0.063-0.302-0.126-0.509-0.19
			s-0.456-0.121-0.748-0.168c-0.291-0.048-0.623-0.071-0.998-0.071c-0.549,0-1.066,0.095-1.549,0.287s-0.902,0.47-1.262,0.837
			c-0.359,0.366-0.645,0.819-0.854,1.357c-0.213,0.538-0.318,1.154-0.318,1.849c0,0.693,0.094,1.307,0.281,1.84
			c0.188,0.534,0.453,0.986,0.795,1.353c0.344,0.366,0.754,0.645,1.232,0.837c0.479,0.191,1.008,0.287,1.59,0.287
			c0.288,0,0.57-0.014,0.849-0.042c0.28-0.028,0.536-0.062,0.771-0.102c0.236-0.04,0.442-0.08,0.622-0.12
			c0.18-0.041,0.317-0.075,0.413-0.107V7.984h-1.159V11.069z"/>
	</g>
	<rect x="8.009" y="3.775" fill="#F39200" width="1.159" height="8.288"/>
</g>
</svg>
