<?xml version="1.0" encoding="utf-8"?>
<!-- Generator: Adobe Illustrator 14.0.0, SVG Export Plug-In . SVG Version: 6.00 Build 43363)  -->
<!DOCTYPE svg PUBLIC "-//W3C//DTD SVG 1.1//EN" "http://www.w3.org/Graphics/SVG/1.1/DTD/svg11.dtd">
<svg version="1.1" id="Layer_1" xmlns="http://www.w3.org/2000/svg" xmlns:xlink="http://www.w3.org/1999/xlink" x="0px" y="0px"
	 width="721.176px" height="144.386px" viewBox="0 0 721.176 144.386" enable-background="new 0 0 721.176 144.386"
	 xml:space="preserve">
<g>
	<path fill="#F2F0F9" d="M15.48,15.594c0,0-15.48,0-15.48,15.48v97.833c0,0,0,15.479,15.48,15.479h690.215c0,0,15.48,0,15.48-15.479
		V31.074c0,0,0-15.48-15.48-15.48H15.48z"/>
	<g>
		<path fill="#7C6EB0" d="M48.945,49.189v13.041h-1.703V49.189H48.945z"/>
		<path fill="#7C6EB0" d="M51.732,55.399c0-0.987-0.02-1.76-0.078-2.535h1.509l0.097,1.548h0.039
			c0.464-0.871,1.548-1.741,3.096-1.741c1.296,0,3.309,0.774,3.309,3.986v5.572H58v-5.398c0-1.509-0.561-2.767-2.167-2.767
			c-1.103,0-1.974,0.793-2.283,1.742c-0.077,0.212-0.116,0.503-0.116,0.793v5.63h-1.703V55.399z"/>
		<path fill="#7C6EB0" d="M63.419,57.857c0.039,2.302,1.49,3.25,3.212,3.25c1.219,0,1.974-0.213,2.593-0.484l0.31,1.219
			c-0.6,0.271-1.645,0.6-3.135,0.6c-2.883,0-4.604-1.916-4.604-4.74s1.664-5.031,4.392-5.031c3.076,0,3.87,2.67,3.87,4.392
			c0,0.348-0.02,0.6-0.058,0.793H63.419z M68.411,56.638c0.019-1.064-0.445-2.747-2.361-2.747c-1.741,0-2.477,1.567-2.612,2.747
			H68.411z"/>
		<path fill="#7C6EB0" d="M72.629,52.865l1.335,2.013c0.368,0.522,0.658,0.986,0.968,1.509h0.039
			c0.31-0.542,0.619-1.025,0.948-1.528l1.296-1.993h1.857l-3.192,4.528l3.27,4.837h-1.916l-1.393-2.109
			c-0.368-0.542-0.677-1.064-1.006-1.625h-0.039c-0.31,0.561-0.619,1.064-0.987,1.625l-1.354,2.109h-1.877l3.328-4.779l-3.173-4.586
			H72.629z"/>
		<path fill="#7C6EB0" d="M80.621,55.922c0-1.2-0.039-2.167-0.078-3.057h1.509l0.097,1.606h0.039
			c0.677-1.141,1.799-1.799,3.328-1.799c2.283,0,3.986,1.916,3.986,4.74c0,3.367-2.07,5.031-4.276,5.031
			c-1.238,0-2.322-0.542-2.883-1.471h-0.039v5.089h-1.683V55.922z M82.304,58.418c0,0.251,0.02,0.484,0.078,0.696
			c0.31,1.18,1.335,1.993,2.554,1.993c1.799,0,2.844-1.471,2.844-3.618c0-1.857-0.987-3.463-2.786-3.463
			c-1.161,0-2.264,0.813-2.573,2.09c-0.058,0.212-0.116,0.464-0.116,0.677V58.418z"/>
		<path fill="#7C6EB0" d="M92.598,57.857c0.039,2.302,1.49,3.25,3.212,3.25c1.219,0,1.974-0.213,2.593-0.484l0.31,1.219
			c-0.6,0.271-1.645,0.6-3.134,0.6c-2.883,0-4.605-1.916-4.605-4.74s1.664-5.031,4.392-5.031c3.076,0,3.87,2.67,3.87,4.392
			c0,0.348-0.02,0.6-0.058,0.793H92.598z M97.59,56.638c0.02-1.064-0.445-2.747-2.36-2.747c-1.741,0-2.477,1.567-2.612,2.747H97.59z
			"/>
		<path fill="#7C6EB0" d="M101.248,55.787c0-1.103-0.02-2.051-0.078-2.922h1.49l0.078,1.857h0.058
			c0.425-1.257,1.47-2.051,2.612-2.051c0.174,0,0.31,0.02,0.464,0.039v1.605c-0.174-0.039-0.348-0.039-0.581-0.039
			c-1.199,0-2.051,0.89-2.283,2.167c-0.039,0.232-0.058,0.522-0.058,0.793v4.992h-1.703V55.787z"/>
		<path fill="#7C6EB0" d="M109.568,50.621v2.244h2.438v1.296h-2.438v5.05c0,1.161,0.329,1.818,1.277,1.818
			c0.464,0,0.735-0.039,0.987-0.116l0.078,1.296c-0.329,0.116-0.852,0.232-1.509,0.232c-0.793,0-1.432-0.271-1.838-0.716
			c-0.464-0.522-0.658-1.354-0.658-2.458v-5.108h-1.451v-1.296h1.451v-1.741L109.568,50.621z"/>
		<path fill="#7C6EB0" d="M122.086,57.47c0,3.463-2.418,4.973-4.663,4.973c-2.516,0-4.489-1.857-4.489-4.818
			c0-3.115,2.07-4.953,4.644-4.953C120.268,52.671,122.086,54.625,122.086,57.47z M114.676,57.566c0,2.051,1.161,3.599,2.825,3.599
			c1.625,0,2.844-1.529,2.844-3.638c0-1.586-0.793-3.579-2.805-3.579C115.547,53.949,114.676,55.806,114.676,57.566z"/>
	</g>
	<g>
		<path fill="#7C6EB0" d="M638.674,56.116h-5.05v4.701h5.65v1.413h-7.353V49.189h7.063v1.412h-5.36v4.121h5.05V56.116z"/>
		<path fill="#7C6EB0" d="M642.196,52.865l1.335,2.013c0.367,0.522,0.657,0.986,0.967,1.509h0.039
			c0.31-0.542,0.619-1.025,0.948-1.528l1.296-1.993h1.857l-3.192,4.528l3.27,4.837h-1.915l-1.393-2.109
			c-0.368-0.542-0.678-1.064-1.007-1.625h-0.038c-0.31,0.561-0.619,1.064-0.987,1.625l-1.354,2.109h-1.877l3.328-4.779l-3.173-4.586
			H642.196z"/>
		<path fill="#7C6EB0" d="M650.188,55.922c0-1.2-0.038-2.167-0.077-3.057h1.509l0.098,1.606h0.038
			c0.678-1.141,1.8-1.799,3.328-1.799c2.283,0,3.985,1.916,3.985,4.74c0,3.367-2.07,5.031-4.275,5.031
			c-1.238,0-2.322-0.542-2.883-1.471h-0.039v5.089h-1.684V55.922z M651.871,58.418c0,0.251,0.02,0.484,0.077,0.696
			c0.31,1.18,1.335,1.993,2.554,1.993c1.8,0,2.845-1.471,2.845-3.618c0-1.857-0.987-3.463-2.786-3.463
			c-1.161,0-2.264,0.813-2.573,2.09c-0.059,0.212-0.116,0.464-0.116,0.677V58.418z"/>
		<path fill="#7C6EB0" d="M662.165,57.857c0.039,2.302,1.49,3.25,3.212,3.25c1.219,0,1.974-0.213,2.593-0.484l0.31,1.219
			c-0.6,0.271-1.645,0.6-3.135,0.6c-2.883,0-4.604-1.916-4.604-4.74s1.664-5.031,4.392-5.031c3.076,0,3.87,2.67,3.87,4.392
			c0,0.348-0.02,0.6-0.059,0.793H662.165z M667.157,56.638c0.02-1.064-0.445-2.747-2.36-2.747c-1.742,0-2.477,1.567-2.612,2.747
			H667.157z"/>
		<path fill="#7C6EB0" d="M670.795,55.787c0-1.103-0.02-2.051-0.077-2.922h1.49l0.077,1.857h0.058
			c0.426-1.257,1.471-2.051,2.612-2.051c0.174,0,0.31,0.02,0.465,0.039v1.605c-0.175-0.039-0.349-0.039-0.581-0.039
			c-1.199,0-2.051,0.89-2.283,2.167c-0.038,0.232-0.058,0.522-0.058,0.793v4.992h-1.703V55.787z"/>
		<path fill="#7C6EB0" d="M679.115,50.621v2.244h2.438v1.296h-2.438v5.05c0,1.161,0.329,1.818,1.277,1.818
			c0.465,0,0.735-0.039,0.986-0.116l0.078,1.296c-0.329,0.116-0.852,0.232-1.51,0.232c-0.793,0-1.432-0.271-1.838-0.716
			c-0.464-0.522-0.657-1.354-0.657-2.458v-5.108h-1.451v-1.296h1.451v-1.741L679.115,50.621z"/>
		<path fill="#7C6EB0" d="M691.634,57.47c0,3.463-2.418,4.973-4.663,4.973c-2.515,0-4.488-1.857-4.488-4.818
			c0-3.115,2.07-4.953,4.644-4.953C689.815,52.671,691.634,54.625,691.634,57.47z M684.224,57.566c0,2.051,1.161,3.599,2.825,3.599
			c1.625,0,2.844-1.529,2.844-3.638c0-1.586-0.793-3.579-2.806-3.579C685.095,53.949,684.224,55.806,684.224,57.566z"/>
	</g>
	<path fill="#7C6EB0" d="M682.988,90.235c-14.149-0.189-82.497-0.186-96.735-0.229c-14.025-0.045-68.301-0.082-82.33-0.109
		c-28.053-0.054-56.119-0.063-84.178-0.041c-56.615,0.046-113.224,0.23-169.757,0.562c-31.728,0.185-178.644,0.466-210.287,0.772
		c-7.273,0.068-7.446,1.286,0,1.233c56.208-0.397,227.759-0.687,284.064-0.856c56.593-0.17,113.221-0.191,169.822-0.068
		c15.752,0.033,71.751,0.074,87.497,0.127c15.941,0.053,85.957,0.194,101.903,0.131c3.822-0.016,7.086-0.339,7.086-0.762
		C690.074,90.542,686.803,90.285,682.988,90.235"/>
	<path fill="#7C6EB0" d="M692.02,91.686c0,0-11.203,15.436-12.871,12.769c-1.669-2.666,10.339-13.288,10.339-13.288
		s-12.447-12.119-10.4-15.656C681.135,71.972,692.02,91.686,692.02,91.686"/>
	<path fill="#7C6EB0" d="M31.73,92.602c0,0,11.202,15.433,12.87,12.767c1.669-2.667-10.338-13.288-10.338-13.288
		s12.447-12.118,10.4-15.658C42.614,72.885,31.73,92.602,31.73,92.602"/>
	<rect x="89.587" y="106.706" fill="#FFFFFF" width="22.384" height="22.385"/>
	<rect x="89.587" y="106.706" fill="none" stroke="#7C6EB0" width="22.384" height="22.385"/>
	<rect x="155.407" y="106.706" fill="#FFFFFF" width="22.384" height="22.385"/>
	<rect x="155.407" y="106.706" fill="none" stroke="#7C6EB0" width="22.384" height="22.385"/>
	<rect x="221.228" y="106.706" fill="#FFFFFF" width="22.385" height="22.385"/>
	<rect x="221.228" y="106.706" fill="none" stroke="#7C6EB0" width="22.385" height="22.385"/>
	<rect x="287.049" y="106.706" fill="#FFFFFF" width="22.385" height="22.385"/>
	<rect x="287.049" y="106.706" fill="none" stroke="#7C6EB0" width="22.385" height="22.385"/>
	<rect x="352.868" y="106.706" fill="#FFFFFF" width="22.385" height="22.385"/>
	<rect x="352.868" y="106.706" fill="none" stroke="#7C6EB0" width="22.385" height="22.385"/>
	<rect x="418.689" y="106.706" fill="#FFFFFF" width="22.384" height="22.385"/>
	<rect x="418.689" y="106.706" fill="none" stroke="#7C6EB0" width="22.384" height="22.385"/>
	<rect x="484.511" y="106.706" fill="#FFFFFF" width="22.384" height="22.385"/>
	<rect x="484.511" y="106.706" fill="none" stroke="#7C6EB0" width="22.384" height="22.385"/>
	<rect x="550.33" y="106.706" fill="#FFFFFF" width="22.385" height="22.385"/>
	<rect x="550.33" y="106.706" fill="none" stroke="#7C6EB0" width="22.385" height="22.385"/>
	<rect x="616.151" y="106.706" fill="#FFFFFF" width="22.384" height="22.385"/>
	<rect x="616.151" y="106.706" fill="none" stroke="#7C6EB0" width="22.384" height="22.385"/>
	<line fill="none" stroke="#7C6EB0" x1="100.742" y1="91.721" x2="100.742" y2="107.445"/>
	<line fill="none" stroke="#7C6EB0" x1="166.196" y1="91.721" x2="166.196" y2="107.445"/>
	<line fill="none" stroke="#7C6EB0" x1="231.65" y1="90.991" x2="231.65" y2="107.446"/>
	<line fill="none" stroke="#7C6EB0" x1="297.838" y1="90.991" x2="297.838" y2="107.446"/>
	<line fill="none" stroke="#7C6EB0" x1="364.39" y1="90.991" x2="364.39" y2="107.446"/>
	<line fill="none" stroke="#7C6EB0" x1="430.103" y1="90.991" x2="430.103" y2="107.446"/>
	<line fill="none" stroke="#7C6EB0" x1="496.396" y1="90.991" x2="496.396" y2="107.446"/>
	<line fill="none" stroke="#7C6EB0" x1="561.12" y1="90.991" x2="561.12" y2="107.446"/>
	<line fill="none" stroke="#7C6EB0" x1="627.671" y1="90.991" x2="627.671" y2="107.446"/>
	<path fill="#9589C1" d="M202.832,0c0,0-15.479,0-15.479,15.48v10.178c0,0,0,15.48,15.479,15.48h328.311c0,0,15.479,0,15.479-15.48
		V15.48c0,0,0-15.48-15.479-15.48H202.832z"/>
	<g>
		<path fill="#FFFFFF" d="M230.758,25.725V14.997h6.889v1.656h-4.938V19.3h4.396v1.625h-4.396v3.143h5.31v1.656H230.758z"/>
		<path fill="#FFFFFF" d="M239.813,17.892c0.36-0.103,0.83-0.201,1.408-0.294s1.218-0.139,1.92-0.139c0.66,0,1.212,0.09,1.656,0.271
			c0.443,0.181,0.797,0.434,1.061,0.759c0.263,0.325,0.448,0.717,0.557,1.176c0.108,0.459,0.163,0.962,0.163,1.509v4.551h-1.873
			v-4.257c0-0.434-0.029-0.802-0.086-1.107c-0.057-0.304-0.149-0.552-0.278-0.743s-0.305-0.33-0.526-0.418
			c-0.222-0.087-0.493-0.131-0.813-0.131c-0.237,0-0.485,0.015-0.743,0.046c-0.258,0.031-0.449,0.057-0.572,0.077v6.533h-1.873
			V17.892z"/>
	</g>
	<g>
		<path fill="#FFFFFF" d="M259.989,21.638c0,0.64-0.094,1.226-0.279,1.757c-0.186,0.531-0.454,0.985-0.805,1.362
			c-0.351,0.376-0.771,0.668-1.262,0.875c-0.49,0.206-1.04,0.31-1.648,0.31c-0.599,0-1.144-0.104-1.633-0.31
			c-0.491-0.207-0.911-0.498-1.262-0.875c-0.352-0.377-0.625-0.831-0.821-1.362c-0.195-0.532-0.294-1.117-0.294-1.757
			c0-0.64,0.101-1.223,0.302-1.749s0.48-0.975,0.836-1.347c0.356-0.372,0.779-0.661,1.27-0.867c0.49-0.206,1.024-0.31,1.603-0.31
			c0.588,0,1.127,0.104,1.617,0.31c0.49,0.207,0.911,0.496,1.262,0.867s0.625,0.82,0.82,1.347
			C259.891,20.415,259.989,20.998,259.989,21.638z M257.636,21.638c0-0.712-0.142-1.271-0.426-1.679s-0.688-0.612-1.215-0.612
			s-0.935,0.204-1.223,0.612c-0.289,0.408-0.434,0.967-0.434,1.679c0,0.712,0.145,1.277,0.434,1.695
			c0.288,0.418,0.696,0.627,1.223,0.627s0.931-0.209,1.215-0.627S257.636,22.35,257.636,21.638z"/>
		<path fill="#FFFFFF" d="M269.339,21.653c0,0.65-0.096,1.238-0.286,1.765c-0.191,0.526-0.468,0.976-0.828,1.347
			c-0.361,0.372-0.806,0.658-1.332,0.859c-0.525,0.201-1.125,0.302-1.795,0.302c-0.279,0-0.57-0.013-0.875-0.039
			c-0.305-0.026-0.604-0.06-0.897-0.101c-0.294-0.042-0.576-0.09-0.844-0.147c-0.269-0.057-0.506-0.116-0.712-0.178V14.083
			l2.306-0.372v4.056c0.259-0.114,0.526-0.202,0.806-0.263c0.278-0.062,0.577-0.093,0.897-0.093c0.578,0,1.089,0.101,1.532,0.302
			c0.444,0.201,0.815,0.487,1.115,0.859c0.299,0.372,0.526,0.818,0.681,1.339C269.262,20.433,269.339,21.014,269.339,21.653z
			 M266.986,21.591c0-1.486-0.548-2.229-1.642-2.229c-0.237,0-0.472,0.031-0.704,0.093s-0.421,0.14-0.565,0.232v4.195
			c0.114,0.021,0.259,0.039,0.434,0.054c0.176,0.016,0.366,0.023,0.573,0.023c0.629,0,1.104-0.217,1.424-0.65
			C266.826,22.876,266.986,22.304,266.986,21.591z"/>
		<path fill="#FFFFFF" d="M276.058,19.625c-0.207-0.052-0.449-0.105-0.728-0.163c-0.279-0.057-0.578-0.085-0.898-0.085
			c-0.145,0-0.317,0.013-0.519,0.039c-0.201,0.026-0.354,0.054-0.457,0.085v6.223h-2.306v-7.709c0.412-0.145,0.899-0.281,1.463-0.41
			c0.562-0.129,1.188-0.194,1.881-0.194c0.123,0,0.272,0.008,0.448,0.023s0.351,0.036,0.526,0.062s0.351,0.057,0.526,0.093
			s0.325,0.08,0.449,0.132L276.058,19.625z"/>
		<path fill="#FFFFFF" d="M280.593,17.365c0.681,0,1.248,0.078,1.702,0.232s0.818,0.377,1.092,0.666
			c0.273,0.289,0.467,0.64,0.58,1.053c0.113,0.413,0.171,0.872,0.171,1.378v4.798c-0.331,0.073-0.79,0.158-1.378,0.256
			c-0.589,0.098-1.301,0.147-2.137,0.147c-0.526,0-1.004-0.046-1.432-0.14c-0.429-0.093-0.797-0.245-1.106-0.457
			c-0.31-0.211-0.548-0.487-0.713-0.828c-0.165-0.34-0.247-0.758-0.247-1.254c0-0.475,0.095-0.877,0.286-1.208
			c0.19-0.33,0.446-0.593,0.767-0.79c0.319-0.196,0.686-0.338,1.099-0.425c0.413-0.088,0.841-0.132,1.285-0.132
			c0.299,0,0.564,0.013,0.797,0.039c0.232,0.026,0.421,0.06,0.565,0.101v-0.216c0-0.392-0.119-0.707-0.356-0.944
			s-0.65-0.356-1.238-0.356c-0.393,0-0.779,0.028-1.161,0.085s-0.712,0.137-0.99,0.24l-0.294-1.857
			c0.134-0.041,0.302-0.085,0.503-0.132c0.201-0.046,0.42-0.087,0.657-0.124s0.488-0.067,0.751-0.093
			C280.059,17.378,280.324,17.365,280.593,17.365z M280.778,24.115c0.227,0,0.443-0.005,0.65-0.016
			c0.206-0.01,0.371-0.025,0.495-0.046v-1.749c-0.093-0.021-0.232-0.042-0.418-0.062s-0.356-0.031-0.511-0.031
			c-0.217,0-0.421,0.013-0.611,0.039c-0.191,0.026-0.359,0.075-0.504,0.147s-0.258,0.17-0.34,0.294
			c-0.083,0.124-0.124,0.279-0.124,0.464c0,0.361,0.121,0.612,0.363,0.751C280.022,24.045,280.354,24.115,280.778,24.115z"/>
		<path fill="#FFFFFF" d="M288.61,24.068c0.423,0,0.723-0.041,0.898-0.124c0.175-0.083,0.263-0.242,0.263-0.48
			c0-0.186-0.113-0.348-0.341-0.487c-0.227-0.14-0.572-0.297-1.037-0.472c-0.361-0.134-0.688-0.273-0.982-0.418
			s-0.545-0.317-0.751-0.519c-0.207-0.201-0.366-0.441-0.48-0.72c-0.113-0.279-0.17-0.614-0.17-1.006
			c0-0.764,0.284-1.367,0.852-1.811s1.347-0.666,2.338-0.666c0.495,0,0.97,0.044,1.424,0.132c0.454,0.088,0.815,0.183,1.083,0.286
			l-0.402,1.796c-0.269-0.093-0.56-0.175-0.874-0.248c-0.315-0.072-0.669-0.108-1.061-0.108c-0.723,0-1.084,0.201-1.084,0.604
			c0,0.093,0.016,0.176,0.047,0.248c0.031,0.073,0.093,0.142,0.186,0.209c0.093,0.067,0.219,0.14,0.379,0.218
			c0.16,0.078,0.364,0.164,0.612,0.257c0.505,0.188,0.923,0.373,1.254,0.554c0.33,0.182,0.59,0.379,0.781,0.59
			c0.19,0.211,0.325,0.445,0.402,0.703s0.116,0.556,0.116,0.896c0,0.803-0.302,1.411-0.905,1.823
			c-0.604,0.412-1.458,0.618-2.563,0.618c-0.722,0-1.323-0.062-1.803-0.186c-0.48-0.124-0.813-0.227-0.999-0.31l0.387-1.873
			c0.393,0.155,0.795,0.276,1.208,0.364C287.8,24.024,288.208,24.068,288.61,24.068z"/>
		<path fill="#FFFFFF" d="M304.679,25.461c-0.207,0.062-0.444,0.122-0.712,0.178c-0.269,0.057-0.55,0.105-0.844,0.147
			c-0.295,0.041-0.594,0.075-0.898,0.101c-0.305,0.025-0.596,0.039-0.874,0.039c-0.671,0-1.27-0.098-1.796-0.294
			s-0.971-0.478-1.331-0.844c-0.361-0.366-0.638-0.81-0.828-1.331c-0.191-0.521-0.287-1.107-0.287-1.757
			c0-0.66,0.083-1.256,0.248-1.788c0.165-0.532,0.402-0.983,0.712-1.355c0.31-0.371,0.689-0.655,1.138-0.851
			c0.449-0.196,0.962-0.294,1.54-0.294c0.32,0,0.606,0.031,0.859,0.093c0.253,0.062,0.509,0.149,0.767,0.263v-3.685l2.307-0.372
			V25.461z M299.462,21.591c0,0.712,0.159,1.285,0.479,1.718c0.32,0.434,0.795,0.65,1.424,0.65c0.207,0,0.397-0.008,0.573-0.023
			c0.176-0.015,0.319-0.033,0.434-0.054v-4.195c-0.145-0.093-0.333-0.17-0.565-0.232s-0.467-0.093-0.704-0.093
			C300.009,19.362,299.462,20.105,299.462,21.591z"/>
		<path fill="#FFFFFF" d="M306.474,21.715c0-0.722,0.111-1.354,0.333-1.896c0.222-0.542,0.514-0.993,0.875-1.354
			c0.361-0.361,0.776-0.635,1.246-0.82s0.952-0.279,1.447-0.279c1.155,0,2.069,0.354,2.74,1.061c0.67,0.707,1.006,1.747,1.006,3.119
			c0,0.134-0.005,0.281-0.016,0.441s-0.021,0.302-0.031,0.426h-5.231c0.051,0.475,0.272,0.851,0.665,1.13s0.919,0.418,1.579,0.418
			c0.423,0,0.839-0.039,1.246-0.116c0.407-0.077,0.74-0.173,0.999-0.286l0.31,1.873c-0.124,0.062-0.289,0.124-0.496,0.186
			c-0.206,0.062-0.436,0.116-0.688,0.163s-0.524,0.085-0.813,0.116c-0.289,0.031-0.578,0.046-0.867,0.046
			c-0.732,0-1.37-0.108-1.912-0.325c-0.541-0.217-0.99-0.513-1.347-0.89c-0.355-0.376-0.619-0.823-0.789-1.339
			S306.474,22.314,306.474,21.715z M311.892,20.833c-0.01-0.196-0.044-0.387-0.101-0.573c-0.057-0.186-0.145-0.351-0.263-0.496
			c-0.119-0.144-0.269-0.263-0.449-0.356s-0.405-0.139-0.673-0.139c-0.259,0-0.48,0.044-0.666,0.131
			c-0.186,0.088-0.341,0.204-0.465,0.349c-0.123,0.145-0.219,0.312-0.286,0.503s-0.116,0.385-0.146,0.581H311.892z"/>
		<path fill="#FFFFFF" d="M322.543,17.365c0.681,0,1.248,0.078,1.702,0.232s0.818,0.377,1.092,0.666
			c0.273,0.289,0.467,0.64,0.58,1.053c0.113,0.413,0.171,0.872,0.171,1.378v4.798c-0.331,0.073-0.79,0.158-1.378,0.256
			c-0.589,0.098-1.301,0.147-2.137,0.147c-0.526,0-1.004-0.046-1.432-0.14c-0.429-0.093-0.797-0.245-1.106-0.457
			c-0.31-0.211-0.548-0.487-0.713-0.828c-0.165-0.34-0.247-0.758-0.247-1.254c0-0.475,0.095-0.877,0.286-1.208
			c0.19-0.33,0.446-0.593,0.767-0.79c0.319-0.196,0.686-0.338,1.099-0.425c0.413-0.088,0.841-0.132,1.285-0.132
			c0.299,0,0.564,0.013,0.797,0.039c0.232,0.026,0.421,0.06,0.565,0.101v-0.216c0-0.392-0.119-0.707-0.356-0.944
			s-0.65-0.356-1.238-0.356c-0.393,0-0.779,0.028-1.161,0.085s-0.712,0.137-0.99,0.24l-0.294-1.857
			c0.134-0.041,0.302-0.085,0.503-0.132c0.201-0.046,0.42-0.087,0.657-0.124s0.488-0.067,0.751-0.093
			C322.009,17.378,322.274,17.365,322.543,17.365z M322.729,24.115c0.227,0,0.443-0.005,0.65-0.016
			c0.206-0.01,0.371-0.025,0.495-0.046v-1.749c-0.093-0.021-0.232-0.042-0.418-0.062s-0.356-0.031-0.511-0.031
			c-0.217,0-0.421,0.013-0.611,0.039c-0.191,0.026-0.359,0.075-0.504,0.147s-0.258,0.17-0.34,0.294
			c-0.083,0.124-0.124,0.279-0.124,0.464c0,0.361,0.121,0.612,0.363,0.751C321.973,24.045,322.305,24.115,322.729,24.115z"/>
		<path fill="#FFFFFF" d="M333.115,19.625c-0.207-0.052-0.449-0.105-0.728-0.163c-0.279-0.057-0.578-0.085-0.898-0.085
			c-0.145,0-0.317,0.013-0.519,0.039c-0.201,0.026-0.354,0.054-0.457,0.085v6.223h-2.306v-7.709c0.412-0.145,0.899-0.281,1.463-0.41
			c0.562-0.129,1.188-0.194,1.881-0.194c0.123,0,0.272,0.008,0.448,0.023s0.351,0.036,0.526,0.062s0.351,0.057,0.526,0.093
			s0.325,0.08,0.449,0.132L333.115,19.625z"/>
		<path fill="#FFFFFF" d="M334.771,15.554l2.307-0.372v2.399h2.771v1.919h-2.771v2.864c0,0.485,0.085,0.873,0.256,1.161
			c0.17,0.289,0.513,0.434,1.029,0.434c0.248,0,0.503-0.023,0.767-0.07c0.263-0.046,0.503-0.111,0.72-0.193l0.325,1.795
			c-0.279,0.114-0.589,0.212-0.93,0.294c-0.34,0.083-0.758,0.124-1.254,0.124c-0.629,0-1.15-0.085-1.563-0.255
			c-0.412-0.17-0.742-0.407-0.99-0.712c-0.248-0.304-0.421-0.673-0.519-1.107c-0.099-0.433-0.147-0.913-0.147-1.439V15.554z"/>
		<path fill="#FFFFFF" d="M341.211,21.715c0-0.722,0.111-1.354,0.333-1.896c0.222-0.542,0.514-0.993,0.875-1.354
			c0.361-0.361,0.776-0.635,1.246-0.82s0.952-0.279,1.447-0.279c1.155,0,2.069,0.354,2.74,1.061c0.67,0.707,1.006,1.747,1.006,3.119
			c0,0.134-0.005,0.281-0.016,0.441s-0.021,0.302-0.031,0.426h-5.231c0.051,0.475,0.272,0.851,0.665,1.13s0.919,0.418,1.579,0.418
			c0.423,0,0.839-0.039,1.246-0.116c0.407-0.077,0.74-0.173,0.999-0.286l0.31,1.873c-0.124,0.062-0.289,0.124-0.496,0.186
			c-0.206,0.062-0.436,0.116-0.688,0.163s-0.524,0.085-0.813,0.116c-0.289,0.031-0.578,0.046-0.867,0.046
			c-0.732,0-1.37-0.108-1.912-0.325c-0.541-0.217-0.99-0.513-1.347-0.89c-0.355-0.376-0.619-0.823-0.789-1.339
			S341.211,22.314,341.211,21.715z M346.629,20.833c-0.01-0.196-0.044-0.387-0.101-0.573c-0.057-0.186-0.145-0.351-0.263-0.496
			c-0.119-0.144-0.269-0.263-0.449-0.356s-0.405-0.139-0.673-0.139c-0.259,0-0.48,0.044-0.666,0.131
			c-0.186,0.088-0.341,0.204-0.465,0.349c-0.123,0.145-0.219,0.312-0.286,0.503s-0.116,0.385-0.146,0.581H346.629z"/>
		<path fill="#FFFFFF" d="M356.578,25.725c-0.528-1.032-1.064-2.239-1.608-3.623c-0.543-1.382-1.059-2.889-1.545-4.52h2.445
			c0.104,0.402,0.226,0.839,0.365,1.308c0.14,0.47,0.285,0.944,0.436,1.424s0.301,0.947,0.451,1.401s0.298,0.867,0.443,1.238
			c0.135-0.372,0.279-0.784,0.435-1.238s0.309-0.921,0.458-1.401c0.15-0.48,0.296-0.955,0.436-1.424
			c0.14-0.469,0.262-0.906,0.365-1.308h2.386c-0.487,1.631-1.002,3.138-1.545,4.52c-0.544,1.383-1.079,2.591-1.607,3.623H356.578z"
			/>
		<path fill="#FFFFFF" d="M365.467,15.229c0,0.423-0.137,0.756-0.41,0.999c-0.273,0.243-0.596,0.364-0.967,0.364
			c-0.372,0-0.694-0.121-0.968-0.364c-0.273-0.242-0.41-0.575-0.41-0.999c0-0.423,0.137-0.756,0.41-0.999
			c0.273-0.242,0.596-0.364,0.968-0.364c0.371,0,0.693,0.122,0.967,0.364C365.33,14.473,365.467,14.806,365.467,15.229z
			 M365.25,25.725h-2.306v-8.143h2.306V25.725z"/>
		<path fill="#FFFFFF" d="M369.771,24.068c0.423,0,0.723-0.041,0.898-0.124c0.175-0.083,0.263-0.242,0.263-0.48
			c0-0.186-0.113-0.348-0.341-0.487c-0.227-0.14-0.572-0.297-1.037-0.472c-0.361-0.134-0.688-0.273-0.982-0.418
			s-0.545-0.317-0.751-0.519c-0.207-0.201-0.366-0.441-0.48-0.72c-0.113-0.279-0.17-0.614-0.17-1.006
			c0-0.764,0.284-1.367,0.852-1.811s1.347-0.666,2.338-0.666c0.495,0,0.97,0.044,1.424,0.132c0.454,0.088,0.815,0.183,1.083,0.286
			l-0.402,1.796c-0.269-0.093-0.56-0.175-0.874-0.248c-0.315-0.072-0.669-0.108-1.061-0.108c-0.723,0-1.084,0.201-1.084,0.604
			c0,0.093,0.016,0.176,0.047,0.248c0.031,0.073,0.093,0.142,0.186,0.209c0.093,0.067,0.219,0.14,0.379,0.218
			c0.16,0.078,0.364,0.164,0.612,0.257c0.505,0.188,0.923,0.373,1.254,0.554c0.33,0.182,0.59,0.379,0.781,0.59
			c0.19,0.211,0.325,0.445,0.402,0.703s0.116,0.556,0.116,0.896c0,0.803-0.302,1.411-0.905,1.823
			c-0.604,0.412-1.458,0.618-2.563,0.618c-0.722,0-1.323-0.062-1.803-0.186c-0.48-0.124-0.813-0.227-0.999-0.31l0.387-1.873
			c0.393,0.155,0.795,0.276,1.208,0.364C368.96,24.024,369.368,24.068,369.771,24.068z"/>
		<path fill="#FFFFFF" d="M381.876,25.446c-0.393,0.114-0.897,0.22-1.518,0.317c-0.619,0.098-1.269,0.147-1.95,0.147
			c-0.691,0-1.267-0.093-1.726-0.278c-0.46-0.186-0.823-0.446-1.092-0.782s-0.459-0.735-0.572-1.2
			c-0.114-0.464-0.171-0.975-0.171-1.533v-4.536h2.307v4.257c0,0.743,0.099,1.279,0.294,1.61c0.196,0.33,0.563,0.495,1.1,0.495
			c0.165,0,0.341-0.008,0.526-0.023c0.186-0.016,0.351-0.034,0.495-0.054v-6.285h2.307V25.446z"/>
		<path fill="#FFFFFF" d="M387,17.365c0.681,0,1.248,0.078,1.702,0.232s0.818,0.377,1.092,0.666c0.273,0.289,0.467,0.64,0.58,1.053
			c0.113,0.413,0.171,0.872,0.171,1.378v4.798c-0.331,0.073-0.79,0.158-1.378,0.256c-0.589,0.098-1.301,0.147-2.137,0.147
			c-0.526,0-1.004-0.046-1.432-0.14c-0.429-0.093-0.797-0.245-1.106-0.457c-0.31-0.211-0.548-0.487-0.713-0.828
			c-0.165-0.34-0.247-0.758-0.247-1.254c0-0.475,0.095-0.877,0.286-1.208c0.19-0.33,0.446-0.593,0.767-0.79
			c0.319-0.196,0.686-0.338,1.099-0.425c0.413-0.088,0.841-0.132,1.285-0.132c0.299,0,0.564,0.013,0.797,0.039
			c0.232,0.026,0.421,0.06,0.565,0.101v-0.216c0-0.392-0.119-0.707-0.356-0.944s-0.65-0.356-1.238-0.356
			c-0.393,0-0.779,0.028-1.161,0.085s-0.712,0.137-0.99,0.24l-0.294-1.857c0.134-0.041,0.302-0.085,0.503-0.132
			c0.201-0.046,0.42-0.087,0.657-0.124s0.488-0.067,0.751-0.093C386.466,17.378,386.731,17.365,387,17.365z M387.186,24.115
			c0.227,0,0.443-0.005,0.65-0.016c0.206-0.01,0.371-0.025,0.495-0.046v-1.749c-0.093-0.021-0.232-0.042-0.418-0.062
			s-0.356-0.031-0.511-0.031c-0.217,0-0.421,0.013-0.611,0.039c-0.191,0.026-0.359,0.075-0.504,0.147s-0.258,0.17-0.34,0.294
			c-0.083,0.124-0.124,0.279-0.124,0.464c0,0.361,0.121,0.612,0.363,0.751C386.43,24.045,386.762,24.115,387.186,24.115z"/>
		<path fill="#FFFFFF" d="M395.885,25.879c-0.671-0.01-1.215-0.083-1.633-0.217c-0.418-0.134-0.748-0.322-0.99-0.565
			c-0.243-0.242-0.408-0.537-0.496-0.882s-0.131-0.735-0.131-1.169v-8.963l2.306-0.372v8.87c0,0.207,0.016,0.393,0.047,0.558
			s0.09,0.304,0.178,0.418c0.088,0.113,0.215,0.207,0.38,0.278c0.165,0.072,0.387,0.119,0.665,0.14L395.885,25.879z"/>
	</g>
	<g>
		<path fill="#FFFFFF" d="M405.899,21.468c0-0.846-0.105-1.458-0.317-1.834c-0.211-0.376-0.606-0.565-1.184-0.565
			c-0.207,0-0.434,0.015-0.682,0.046c-0.247,0.031-0.434,0.057-0.557,0.077v6.533h-1.873v-7.833c0.36-0.103,0.833-0.201,1.416-0.294
			s1.199-0.139,1.85-0.139c0.558,0,1.015,0.072,1.37,0.216c0.356,0.145,0.652,0.335,0.891,0.573c0.113-0.082,0.258-0.17,0.433-0.263
			c0.176-0.093,0.372-0.178,0.589-0.255c0.217-0.077,0.446-0.142,0.688-0.193c0.242-0.051,0.487-0.077,0.735-0.077
			c0.63,0,1.148,0.09,1.556,0.271c0.408,0.181,0.728,0.434,0.96,0.759s0.392,0.717,0.479,1.176c0.088,0.459,0.132,0.962,0.132,1.509
			v4.551h-1.873v-4.257c0-0.846-0.104-1.458-0.31-1.834c-0.206-0.376-0.604-0.565-1.192-0.565c-0.299,0-0.583,0.049-0.851,0.147
			c-0.269,0.098-0.47,0.193-0.604,0.286c0.083,0.258,0.14,0.532,0.171,0.821s0.046,0.599,0.046,0.929v4.474h-1.873V21.468z"/>
		<path fill="#FFFFFF" d="M414.213,21.715c0-0.712,0.105-1.336,0.317-1.873c0.211-0.537,0.492-0.983,0.844-1.339
			c0.351-0.356,0.753-0.625,1.207-0.805s0.919-0.271,1.394-0.271c1.114,0,1.983,0.346,2.608,1.037
			c0.624,0.692,0.937,1.724,0.937,3.096c0,0.103-0.003,0.219-0.008,0.348c-0.006,0.129-0.014,0.245-0.023,0.349h-5.341
			c0.052,0.65,0.281,1.153,0.689,1.509c0.407,0.356,0.998,0.534,1.772,0.534c0.454,0,0.869-0.041,1.246-0.124
			c0.376-0.083,0.673-0.17,0.89-0.263l0.248,1.532c-0.104,0.052-0.245,0.106-0.426,0.163c-0.181,0.057-0.387,0.108-0.619,0.155
			s-0.482,0.085-0.751,0.116s-0.542,0.046-0.82,0.046c-0.712,0-1.331-0.106-1.857-0.317s-0.96-0.505-1.301-0.882
			c-0.341-0.376-0.594-0.82-0.759-1.331C414.295,22.884,414.213,22.324,414.213,21.715z M419.646,20.879
			c0-0.258-0.036-0.503-0.108-0.735c-0.072-0.232-0.178-0.434-0.317-0.604c-0.14-0.17-0.31-0.305-0.511-0.403
			c-0.201-0.098-0.441-0.147-0.72-0.147c-0.289,0-0.542,0.054-0.759,0.163s-0.4,0.25-0.55,0.426
			c-0.149,0.176-0.266,0.377-0.348,0.604c-0.083,0.227-0.14,0.459-0.171,0.697H419.646z"/>
		<path fill="#FFFFFF" d="M426.658,21.685c0-0.599,0.093-1.159,0.278-1.68s0.451-0.973,0.798-1.354
			c0.345-0.382,0.766-0.681,1.261-0.898c0.496-0.217,1.053-0.325,1.672-0.325c0.764,0,1.486,0.139,2.168,0.418l-0.403,1.533
			c-0.216-0.093-0.462-0.17-0.734-0.232c-0.274-0.062-0.565-0.093-0.875-0.093c-0.733,0-1.29,0.23-1.672,0.689
			s-0.573,1.107-0.573,1.943c0,0.805,0.181,1.442,0.542,1.912s0.97,0.704,1.827,0.704c0.319,0,0.635-0.031,0.944-0.093
			s0.577-0.139,0.805-0.232l0.263,1.548c-0.206,0.103-0.519,0.196-0.937,0.279c-0.418,0.082-0.849,0.124-1.292,0.124
			c-0.691,0-1.293-0.106-1.804-0.317s-0.934-0.505-1.27-0.882c-0.335-0.376-0.586-0.826-0.751-1.347S426.658,22.293,426.658,21.685z
			"/>
		<path fill="#FFFFFF" d="M441.658,21.669c0,0.64-0.093,1.223-0.278,1.749s-0.449,0.976-0.789,1.347
			c-0.341,0.372-0.751,0.661-1.231,0.867c-0.479,0.206-1.009,0.31-1.586,0.31c-0.578,0-1.104-0.104-1.579-0.31
			c-0.475-0.207-0.883-0.496-1.224-0.867c-0.34-0.371-0.605-0.82-0.797-1.347s-0.286-1.109-0.286-1.749
			c0-0.64,0.095-1.22,0.286-1.742c0.191-0.521,0.459-0.967,0.805-1.339s0.756-0.658,1.231-0.859
			c0.475-0.201,0.995-0.302,1.563-0.302c0.567,0,1.091,0.101,1.571,0.302c0.479,0.202,0.89,0.488,1.23,0.859
			c0.34,0.372,0.605,0.818,0.797,1.339C441.563,20.449,441.658,21.029,441.658,21.669z M439.739,21.669
			c0-0.805-0.173-1.442-0.519-1.912c-0.346-0.469-0.828-0.704-1.447-0.704s-1.103,0.235-1.448,0.704
			c-0.346,0.47-0.519,1.107-0.519,1.912c0,0.815,0.173,1.46,0.519,1.935s0.829,0.712,1.448,0.712s1.102-0.237,1.447-0.712
			S439.739,22.484,439.739,21.669z"/>
		<path fill="#FFFFFF" d="M443.578,17.892c0.36-0.103,0.83-0.201,1.408-0.294s1.218-0.139,1.92-0.139c0.66,0,1.212,0.09,1.656,0.271
			c0.443,0.181,0.797,0.434,1.061,0.759c0.263,0.325,0.448,0.717,0.557,1.176c0.108,0.459,0.163,0.962,0.163,1.509v4.551h-1.873
			v-4.257c0-0.434-0.029-0.802-0.086-1.107c-0.057-0.304-0.149-0.552-0.278-0.743s-0.305-0.33-0.526-0.418
			c-0.222-0.087-0.493-0.131-0.813-0.131c-0.237,0-0.485,0.015-0.743,0.046c-0.258,0.031-0.449,0.057-0.572,0.077v6.533h-1.873
			V17.892z"/>
		<path fill="#FFFFFF" d="M454.661,24.378c0.495,0,0.856-0.06,1.084-0.178c0.227-0.118,0.34-0.322,0.34-0.611
			c0-0.268-0.121-0.49-0.363-0.666s-0.643-0.366-1.2-0.573c-0.34-0.124-0.652-0.255-0.937-0.395
			c-0.283-0.139-0.528-0.302-0.735-0.487c-0.206-0.186-0.368-0.41-0.487-0.673c-0.118-0.263-0.178-0.586-0.178-0.968
			c0-0.743,0.273-1.329,0.82-1.757s1.29-0.643,2.229-0.643c0.475,0,0.929,0.044,1.362,0.132c0.433,0.087,0.758,0.173,0.975,0.255
			l-0.341,1.517c-0.206-0.093-0.47-0.178-0.789-0.255c-0.32-0.078-0.691-0.116-1.114-0.116c-0.382,0-0.691,0.064-0.929,0.193
			c-0.238,0.129-0.356,0.328-0.356,0.596c0,0.134,0.023,0.253,0.069,0.356c0.047,0.103,0.127,0.199,0.24,0.286
			c0.113,0.088,0.264,0.176,0.449,0.263c0.186,0.088,0.412,0.178,0.681,0.271c0.443,0.165,0.82,0.328,1.13,0.488
			s0.565,0.34,0.767,0.542s0.349,0.431,0.441,0.689c0.093,0.258,0.139,0.568,0.139,0.929c0,0.774-0.286,1.36-0.858,1.757
			c-0.573,0.397-1.391,0.596-2.454,0.596c-0.712,0-1.284-0.06-1.718-0.178c-0.434-0.119-0.738-0.214-0.913-0.287l0.324-1.563
			c0.279,0.114,0.612,0.222,0.999,0.325S454.166,24.378,454.661,24.378z"/>
		<path fill="#FFFFFF" d="M461.767,15.26c0,0.351-0.114,0.629-0.341,0.836c-0.228,0.207-0.495,0.31-0.805,0.31
			c-0.32,0-0.594-0.103-0.821-0.31c-0.227-0.207-0.34-0.485-0.34-0.836c0-0.361,0.113-0.645,0.34-0.852
			c0.228-0.206,0.501-0.31,0.821-0.31c0.31,0,0.577,0.104,0.805,0.31C461.652,14.615,461.767,14.899,461.767,15.26z M461.564,25.725
			h-1.873v-8.096h1.873V25.725z"/>
		<path fill="#FFFFFF" d="M470.76,25.477c-0.371,0.114-0.839,0.217-1.401,0.31s-1.153,0.139-1.772,0.139
			c-0.64,0-1.212-0.098-1.718-0.294s-0.937-0.478-1.293-0.844c-0.355-0.366-0.629-0.81-0.82-1.331
			c-0.191-0.521-0.286-1.107-0.286-1.757c0-0.64,0.08-1.22,0.24-1.741c0.159-0.521,0.395-0.968,0.704-1.339s0.686-0.658,1.13-0.859
			c0.443-0.201,0.954-0.302,1.532-0.302c0.393,0,0.738,0.046,1.037,0.139c0.3,0.093,0.558,0.196,0.774,0.31v-3.885l1.873-0.31
			V25.477z M465.388,21.653c0,0.826,0.196,1.473,0.589,1.943c0.392,0.47,0.934,0.704,1.625,0.704c0.3,0,0.555-0.013,0.767-0.039
			c0.211-0.025,0.384-0.054,0.519-0.085v-4.644c-0.165-0.114-0.385-0.219-0.658-0.317s-0.564-0.147-0.874-0.147
			c-0.682,0-1.18,0.232-1.494,0.696C465.545,20.229,465.388,20.859,465.388,21.653z"/>
		<path fill="#FFFFFF" d="M472.68,21.715c0-0.712,0.105-1.336,0.317-1.873c0.211-0.537,0.492-0.983,0.844-1.339
			c0.351-0.356,0.753-0.625,1.207-0.805s0.919-0.271,1.394-0.271c1.114,0,1.983,0.346,2.608,1.037
			c0.624,0.692,0.937,1.724,0.937,3.096c0,0.103-0.003,0.219-0.008,0.348c-0.006,0.129-0.014,0.245-0.023,0.349h-5.341
			c0.052,0.65,0.281,1.153,0.689,1.509c0.407,0.356,0.998,0.534,1.772,0.534c0.454,0,0.869-0.041,1.246-0.124
			c0.376-0.083,0.673-0.17,0.89-0.263l0.248,1.532c-0.104,0.052-0.245,0.106-0.426,0.163c-0.181,0.057-0.387,0.108-0.619,0.155
			s-0.482,0.085-0.751,0.116s-0.542,0.046-0.82,0.046c-0.712,0-1.331-0.106-1.857-0.317s-0.96-0.505-1.301-0.882
			c-0.341-0.376-0.594-0.82-0.759-1.331C472.762,22.884,472.68,22.324,472.68,21.715z M478.113,20.879
			c0-0.258-0.036-0.503-0.108-0.735c-0.072-0.232-0.178-0.434-0.317-0.604c-0.14-0.17-0.31-0.305-0.511-0.403
			c-0.201-0.098-0.441-0.147-0.72-0.147c-0.289,0-0.542,0.054-0.759,0.163s-0.4,0.25-0.55,0.426
			c-0.149,0.176-0.266,0.377-0.348,0.604c-0.083,0.227-0.14,0.459-0.171,0.697H478.113z"/>
		<path fill="#FFFFFF" d="M486.518,19.316c-0.154-0.052-0.369-0.106-0.643-0.163s-0.591-0.085-0.951-0.085
			c-0.207,0-0.426,0.021-0.658,0.062c-0.232,0.041-0.395,0.077-0.487,0.108v6.486h-1.873v-7.709c0.36-0.134,0.813-0.261,1.354-0.379
			c0.541-0.119,1.143-0.178,1.803-0.178c0.124,0,0.269,0.007,0.434,0.023s0.33,0.036,0.495,0.062s0.325,0.057,0.48,0.093
			c0.154,0.036,0.278,0.07,0.371,0.101L486.518,19.316z"/>
		<path fill="#FFFFFF" d="M495.419,21.669c0,0.64-0.093,1.223-0.278,1.749s-0.449,0.976-0.789,1.347
			c-0.341,0.372-0.751,0.661-1.231,0.867c-0.479,0.206-1.009,0.31-1.586,0.31c-0.578,0-1.104-0.104-1.579-0.31
			c-0.475-0.207-0.883-0.496-1.224-0.867c-0.34-0.371-0.605-0.82-0.797-1.347s-0.286-1.109-0.286-1.749
			c0-0.64,0.095-1.22,0.286-1.742c0.191-0.521,0.459-0.967,0.805-1.339s0.756-0.658,1.231-0.859
			c0.475-0.201,0.995-0.302,1.563-0.302c0.567,0,1.091,0.101,1.571,0.302c0.479,0.202,0.89,0.488,1.23,0.859
			c0.34,0.372,0.605,0.818,0.797,1.339C495.324,20.449,495.419,21.029,495.419,21.669z M493.5,21.669
			c0-0.805-0.173-1.442-0.519-1.912c-0.346-0.469-0.828-0.704-1.447-0.704s-1.103,0.235-1.448,0.704
			c-0.346,0.47-0.519,1.107-0.519,1.912c0,0.815,0.173,1.46,0.519,1.935s0.829,0.712,1.448,0.712s1.102-0.237,1.447-0.712
			S493.5,22.484,493.5,21.669z"/>
		<path fill="#FFFFFF" d="M499.335,24.703c0,0.361-0.121,0.655-0.363,0.882c-0.243,0.227-0.534,0.34-0.875,0.34
			c-0.351,0-0.645-0.114-0.882-0.34c-0.238-0.227-0.356-0.521-0.356-0.882s0.118-0.658,0.356-0.89
			c0.237-0.232,0.531-0.349,0.882-0.349c0.341,0,0.632,0.116,0.875,0.349C499.214,24.045,499.335,24.342,499.335,24.703z"/>
		<path fill="#FFFFFF" d="M503.685,24.703c0,0.361-0.121,0.655-0.363,0.882c-0.243,0.227-0.534,0.34-0.875,0.34
			c-0.351,0-0.645-0.114-0.882-0.34c-0.238-0.227-0.356-0.521-0.356-0.882s0.118-0.658,0.356-0.89
			c0.237-0.232,0.531-0.349,0.882-0.349c0.341,0,0.632,0.116,0.875,0.349C503.563,24.045,503.685,24.342,503.685,24.703z"/>
		<path fill="#FFFFFF" d="M508.034,24.703c0,0.361-0.121,0.655-0.363,0.882c-0.243,0.227-0.534,0.34-0.875,0.34
			c-0.351,0-0.645-0.114-0.882-0.34c-0.238-0.227-0.356-0.521-0.356-0.882s0.118-0.658,0.356-0.89
			c0.237-0.232,0.531-0.349,0.882-0.349c0.341,0,0.632,0.116,0.875,0.349C507.913,24.045,508.034,24.342,508.034,24.703z"/>
	</g>
</g>
</svg>
