<?xml version="1.0" encoding="utf-8"?>
<!-- Generator: Adobe Illustrator 15.1.0, SVG Export Plug-In . SVG Version: 6.00 Build 0)  -->
<!DOCTYPE svg PUBLIC "-//W3C//DTD SVG 1.1//EN" "http://www.w3.org/Graphics/SVG/1.1/DTD/svg11.dtd">
<svg version="1.1" id="Layer_1" xmlns="http://www.w3.org/2000/svg" xmlns:xlink="http://www.w3.org/1999/xlink" x="0px" y="0px"
	 width="54.384px" height="139.793px" viewBox="0 0 54.384 139.793" enable-background="new 0 0 54.384 139.793"
	 xml:space="preserve">
<g>
	<g>
		<path fill="#515254" d="M5.112,9.223c2.547,0,4.611-2.064,4.611-4.613C9.723,2.065,7.659,0,5.112,0s-4.61,2.065-4.61,4.61
			C0.501,7.159,2.565,9.223,5.112,9.223"/>
	</g>
	<g>
		<path fill="#515254" d="M49.272,9.223c2.549,0,4.611-2.064,4.611-4.613c0-2.545-2.062-4.61-4.611-4.61
			c-2.547,0-4.609,2.065-4.609,4.61C44.663,7.159,46.725,9.223,49.272,9.223"/>
	</g>
	<g>
		<path fill="#FFCA05" d="M48.313,6.111H7.032c-0.828,0-1.5-0.671-1.5-1.5s0.672-1.5,1.5-1.5h41.281c0.828,0,1.5,0.671,1.5,1.5
			S49.141,6.111,48.313,6.111L48.313,6.111z"/>
	</g>
</g>
<g>
	<g>
		<path fill="#515254" d="M5.112,52.747c2.547,0,4.611-2.063,4.611-4.612c0-2.546-2.064-4.61-4.611-4.61s-4.61,2.064-4.61,4.61
			C0.501,50.683,2.565,52.747,5.112,52.747"/>
	</g>
	<g>
		<path fill="#515254" d="M49.272,52.747c2.549,0,4.611-2.063,4.611-4.612c0-2.546-2.062-4.61-4.611-4.61
			c-2.547,0-4.609,2.064-4.609,4.61C44.663,50.683,46.725,52.747,49.272,52.747"/>
	</g>
	<g>
		<path fill="#FFCA05" d="M48.313,49.635H7.032c-0.828,0-1.5-0.672-1.5-1.5s0.672-1.5,1.5-1.5h41.281c0.828,0,1.5,0.672,1.5,1.5
			S49.141,49.635,48.313,49.635L48.313,49.635z"/>
	</g>
</g>
<g>
	<g>
		<path fill="#515254" d="M5.112,96.27c2.547,0,4.611-2.063,4.611-4.612c0-2.546-2.064-4.61-4.611-4.61s-4.61,2.064-4.61,4.61
			C0.501,94.207,2.565,96.27,5.112,96.27"/>
	</g>
	<g>
		<path fill="#515254" d="M49.272,96.27c2.549,0,4.611-2.063,4.611-4.612c0-2.546-2.062-4.61-4.611-4.61
			c-2.547,0-4.609,2.064-4.609,4.61C44.663,94.207,46.725,96.27,49.272,96.27"/>
	</g>
	<g>
		<path fill="#FFCA05" d="M48.313,93.159H7.032c-0.828,0-1.5-0.672-1.5-1.5s0.672-1.5,1.5-1.5h41.281c0.828,0,1.5,0.672,1.5,1.5
			S49.141,93.159,48.313,93.159L48.313,93.159z"/>
	</g>
</g>
<g>
	<g>
		<path fill="#515254" d="M5.112,139.793c2.547,0,4.611-2.063,4.611-4.612c0-2.546-2.064-4.61-4.611-4.61s-4.61,2.064-4.61,4.61
			C0.501,137.73,2.565,139.793,5.112,139.793"/>
	</g>
	<g>
		<path fill="#515254" d="M49.272,139.793c2.549,0,4.611-2.063,4.611-4.612c0-2.546-2.062-4.61-4.611-4.61
			c-2.547,0-4.609,2.064-4.609,4.61C44.663,137.73,46.725,139.793,49.272,139.793"/>
	</g>
	<g>
		<path fill="#FFCA05" d="M48.313,136.682H7.032c-0.828,0-1.5-0.672-1.5-1.5s0.672-1.5,1.5-1.5h41.281c0.828,0,1.5,0.672,1.5,1.5
			S49.141,136.682,48.313,136.682L48.313,136.682z"/>
	</g>
</g>
</svg>
