<?xml version="1.0" encoding="utf-8"?>
<!-- Generator: Adobe Illustrator 14.0.0, SVG Export Plug-In . SVG Version: 6.00 Build 43363)  -->
<!DOCTYPE svg PUBLIC "-//W3C//DTD SVG 1.1//EN" "http://www.w3.org/Graphics/SVG/1.1/DTD/svg11.dtd">
<svg version="1.1" id="Layer_1" xmlns="http://www.w3.org/2000/svg" xmlns:xlink="http://www.w3.org/1999/xlink" x="0px" y="0px"
	 width="190.587px" height="65.582px" viewBox="-15.883 0 190.587 65.582" enable-background="new -15.883 0 190.587 65.582"
	 xml:space="preserve">
<g>
	<path d="M170.871,3.161c-0.028-0.518-0.62-1.203-1.13-1.142c-7.312,0.881-14.737,1.258-21.933,0.22
		c-1.628-0.236-1.627,0.816,0.007,1.052c3.695,0.534,7.909-0.15,11.415,0.355c2.471,0.357,9.289-0.083,10.052,0.028
		c0.349,7.804,0.626,16.672,2.611,24.386c0.406,1.576,1.451,1.7,1.042,0.112C170.866,20.135,171.292,11.232,170.871,3.161z"/>
	<path fill="#FFFDFD" d="M165.418,7.815c0,0-0.407,24.924-0.271,25.801c0.14,0.875,2.505,26.003,2.505,26.003L20.109,55.491
		l-3.216-2.637l0.95-18.688L11.918,21.14l-1.172,0.531l-22.879-2.025l20.783-9.04c0,0,2.372-1.02,2.58-1.163
		C11.875,9,17.813,7.158,18.456,6.998c1.154-0.289,71.839,1.638,71.839,1.638S156.615,5.654,165.418,7.815z"/>
	<path d="M8.29,11.995C7.218,12.682-2.629,16.592-7.037,18.71c-1.386,0.664-3.399,1.469-4.355,1.783
		c5.265,1.473,17.114-0.001,22.374,1.47c1.891,0.528,1.999,1.731,0.123,1.206c-6.375-1.78-16.161,0.273-22.536-1.511
		c-1.398-0.391-2.268-1.362-1.306-1.766c4.592-1.926,15.478-7.044,20.166-8.593C8.555,11.054,9.363,11.303,8.29,11.995z"/>
	<path d="M169.555,59.629c-0.469-2.976-1.242-4.854-1.712-7.829c-0.639-4.038-1.604-9.512-2.238-13.549
		c-0.226-1.413-1.466-1.434-1.241-0.02c1.046,6.629,2.296,14.701,3.342,21.33c-8.297-0.324-12.845-0.468-21.142-0.792
		c-33.058-1.298-95.031-2.862-128.087-4.16c-0.544-6.666-1.463-19.565-1.463-19.565s-1.654-9.673-2.239-10.563
		c-0.585-0.89-1.811-1.002-1.54-0.068c0.272,0.935,2.005,8.183,2.324,9.641c-0.003,0.052-0.024,0.093-0.02,0.151
		c0.574,7.011,0.452,13.976,1.023,20.989c0.051,0.618,0.888,1.068,1.673,1.099c20.517,0.805,25.312,0.56,45.826,1.363
		c21.872,0.857,82.295,2.207,104.165,3.063C169.049,60.751,169.643,60.202,169.555,59.629z"/>
	<path d="M164.829,29.109c-0.808-6.919,0.03-20.498-0.859-21.186c-0.892-0.687-70.049,2.044-93.028,1.235
		C53.503,8.546,27.186,8.658,16.336,8.724c-2.945,0.019-6.046,1.453-6.226,1.448c-1.818-0.28-0.402-0.844,0.29-1.074
		c1.035-0.04,3.974-1.499,6.045-1.537c11.777-0.212,37.361-0.362,43.326-0.08c27.064,1.281,72.585-0.143,103.971-0.765
		c0.797-0.015,1.606,0.516,1.677,1.099c0.85,7.296-0.452,13.444,0.399,20.74C165.985,29.966,164.995,30.523,164.829,29.109z"/>
	<path d="M9.113,59.815c0.033,0.453,0.743,0.938,1.352,1.004c8.63,0.932,17.261,1.862,25.892,2.795
		c1.952,0.211,1.021-0.97-0.938-1.18c-4.434-0.48-8.665-0.831-12.871-1.283c-2.964-0.32-10.611-1.682-11.526-1.782
		c-0.387-6.839-0.685-14.61-3.035-21.376c-0.481-1.383-1.735-1.494-1.25-0.102C9.189,44.941,8.642,52.741,9.113,59.815z"/>
</g>
</svg>
