<?xml version="1.0" encoding="utf-8"?>
<!-- Generator: Adobe Illustrator 23.0.3, SVG Export Plug-In . SVG Version: 6.00 Build 0)  -->
<svg version="1.1" id="Layer_1" xmlns="http://www.w3.org/2000/svg" xmlns:xlink="http://www.w3.org/1999/xlink" x="0px" y="0px"
	 viewBox="0 0 70.6 76.4" style="enable-background:new 0 0 70.6 76.4;" xml:space="preserve">
<style type="text/css">
	.st0{fill:#FFFFFF;}
	.st1{fill:#FFFFFF;stroke:#000000;stroke-linecap:round;stroke-linejoin:round;}
	.st2{fill:none;stroke:#000000;stroke-linecap:round;stroke-linejoin:round;}
	.st3{fill:#343334;}
	.st4{fill:none;stroke:#343334;stroke-linecap:round;stroke-linejoin:round;}
	.st5{fill:#FFFFFF;stroke:#000000;stroke-linecap:round;stroke-miterlimit:10;}
</style>
<g>
	<path class="st0" d="M8.8,69.7c0,0,1.6-17.3,9-20.2s12-1.2,12-1.2s6.1,11.3,7.9,21.5C37.7,69.8,38.2,70.2,8.8,69.7z"/>
	<g>
		<path class="st1" d="M16,51C7.2,47.4,1,38.7,1,28.6C1,15.2,11.9,4.4,25.2,4.4c13.4,0,24.2,10.9,24.2,24.2
			c0,11.2-7.6,20.6-17.9,23.4"/>
		<path class="st2" d="M8.8,69.7c1.4-8.8,3.7-15.8,7.3-18.4"/>
		<path class="st1" d="M33.4,51.5c2.1,0.3,5.7,0.7,9.6,0.7c3.9,0,12.7,1.1,14-0.5c1.3-1.6,4.1-13.3,4.9-16s1.4-6.3,5-5.2
			c2.2,0.7,3.3,1.7,2,9.2c-1.2,6.7-1.5,15.5-6.4,18.7c-4.8,3.2-34.2,1.7-34.2,1.7"/>
		<path class="st1" d="M27,34.5l14.9-2.4c0,0,2,8.7-5.7,10.1C30.8,43.2,27.9,37.9,27,34.5z"/>
		<path class="st2" d="M29,38.5c0,0,4.9-2.4,7,3.4"/>
		<ellipse transform="matrix(0.9642 -0.2653 0.2653 0.9642 -5.0689 11.3756)" class="st3" cx="39.6" cy="24.5" rx="1.8" ry="2.5"/>
		<ellipse transform="matrix(0.9641 -0.2654 0.2654 0.9641 -5.8213 8.3833)" class="st3" cx="28.1" cy="25.7" rx="1.7" ry="2.5"/>
		<path class="st4" d="M21.4,20.1c0,0,2.6-4.1,5.6-3.9"/>
		<path class="st4" d="M36.1,17.2c0,0,3.3-0.9,5,1.3"/>
		<path class="st2" d="M35.1,60.4c0.7,2.3,1.5,4.9,2.1,7.9"/>
	</g>
</g>
<line class="st5" x1="2.2" y1="69.7" x2="65.9" y2="69.7"/>
</svg>
