<?xml version="1.0" encoding="utf-8"?>
<!-- Generator: Adobe Illustrator 21.1.0, SVG Export Plug-In . SVG Version: 6.00 Build 0)  -->
<svg version="1.1" id="Capa_1" xmlns="http://www.w3.org/2000/svg" xmlns:xlink="http://www.w3.org/1999/xlink" x="0px" y="0px"
	 viewBox="0 0 443.029 471.357" style="enable-background:new 0 0 443.029 471.357;" xml:space="preserve">
<style type="text/css">
	.st0{clip-path:url(#SVGID_2_);fill:none;stroke:#E3E0F1;stroke-width:2.547;stroke-linecap:round;stroke-dasharray:7.588,5.041;}
	.st1{clip-path:url(#SVGID_2_);fill:none;stroke:#E3E0F1;stroke-width:2.547;stroke-linecap:round;stroke-dasharray:7.348,4.801;}
	.st2{clip-path:url(#SVGID_2_);fill:none;stroke:#E3E0F1;stroke-width:2.547;stroke-linecap:round;}
	.st3{clip-path:url(#SVGID_2_);fill:none;stroke:#E3E0F1;stroke-width:2.547;stroke-linecap:round;stroke-dasharray:7.617,5.069;}
	.st4{clip-path:url(#SVGID_2_);fill:none;stroke:#E3E0F1;stroke-width:2.547;stroke-linecap:round;stroke-dasharray:7.57,5.023;}
	.st5{clip-path:url(#SVGID_2_);fill:none;stroke:#E3E0F1;stroke-width:2.547;stroke-linecap:round;stroke-dasharray:7.606,5.059;}
	.st6{clip-path:url(#SVGID_2_);fill:none;stroke:#E3E0F1;stroke-width:2.547;stroke-linecap:round;stroke-dasharray:7.618,5.071;}
	.st7{fill:none;stroke:#E3E0F1;stroke-width:2.547;stroke-linecap:round;}
</style>
<g>
	<defs>
		<rect id="SVGID_1_" width="443.029" height="471.357"/>
	</defs>
	<clipPath id="SVGID_2_">
		<use xlink:href="#SVGID_1_"  style="overflow:visible;"/>
	</clipPath>
	<path class="st0" d="M102.208,467.443c-23.209-7.776-86.725-32.657-92.727-73.758"/>
	<path class="st1" d="M9.607,378.945c5.306-37.068,45.456-44.308,60.939-45.723"/>
	<path class="st2" d="M72.94,333.033c2.319-0.154,3.67-0.154,3.67-0.154 M9.19,391.182c-0.109-1.249-0.165-2.512-0.165-3.79
		c0-1.252,0.036-2.476,0.106-3.671 M110.639,470.084c0,0-1.311-0.364-3.635-1.088"/>
	<path class="st3" d="M120.76,328.312c52.097,3.926,316.136,19.17,303.18-76.414"/>
	<path class="st4" d="M419.814,237.38c-42.803-91.129-377.231,33.727-402.976-87.486"/>
	<path class="st5" d="M16.432,134.902c19.701-69.369,399.935-0.504,424.118-58.838"/>
	<path class="st6" d="M440.284,61.175C420.435,4.208,205.84,1.318,166.001,1.273"/>
	<path class="st2" d="M163.465,1.277c-2.479,0.003-3.809,0.017-3.809,0.017 M441.326,73.659c0.284-1.203,0.429-2.461,0.429-3.769
		c0-1.289-0.091-2.553-0.27-3.795 M16.362,147.427c-0.212-1.225-0.394-2.471-0.545-3.746c-0.155-1.303-0.208-2.567-0.163-3.793
		 M423.542,249.396c-0.223-1.225-0.49-2.465-0.802-3.723c-0.309-1.244-0.662-2.453-1.059-3.633 M111.912,327.589
		c0,0,1.322,0.123,3.794,0.326"/>
	<polyline class="st2" points="17.611,384.381 9.322,391.075 1.275,383.1 	"/>
</g>
<polyline class="st7" points="160.478,213.611 168.003,206.066 161.267,197.904 "/>
<polyline class="st7" points="343.195,109.279 335.67,101.734 342.406,93.572 "/>
<polyline class="st7" points="356.392,324.836 347.363,319.176 352.09,309.706 "/>
</svg>
