<?xml version="1.0" encoding="utf-8"?>
<!-- Generator: Adobe Illustrator 21.1.0, SVG Export Plug-In . SVG Version: 6.00 Build 0)  -->
<svg version="1.1" id="Capa_1" xmlns="http://www.w3.org/2000/svg" xmlns:xlink="http://www.w3.org/1999/xlink" x="0px" y="0px"
	 viewBox="0 0 17.409 17.162" style="enable-background:new 0 0 17.409 17.162;" xml:space="preserve">
<style type="text/css">
	.st0{clip-path:url(#SVGID_2_);fill:#FFFFFF;}
	.st1{clip-path:url(#SVGID_2_);fill:none;stroke:#AEC90B;stroke-width:0.958;stroke-linecap:round;}
	.st2{clip-path:url(#SVGID_2_);fill:#AEC90B;}
</style>
<g>
	<defs>
		<rect id="SVGID_1_" width="17.409" height="17.162"/>
	</defs>
	<clipPath id="SVGID_2_">
		<use xlink:href="#SVGID_1_"  style="overflow:visible;"/>
	</clipPath>
	<path class="st0" d="M4.098,0.479c0,0-3.62,0-3.62,3.62v8.964c0,0,0,3.62,3.62,3.62l9.474-0.003l3.318-8.099l-3.354-8.099
		L4.098,0.479z"/>
	<path class="st1" d="M4.098,0.479c0,0-3.62,0-3.62,3.62v8.964c0,0,0,3.62,3.62,3.62l9.474-0.003l3.318-8.099l-3.354-8.099
		L4.098,0.479z"/>
	<path class="st2" d="M10.213,5.951c0.353,0.107,0.666,0.232,0.939,0.377l0.574-1.596c-0.068-0.043-0.181-0.103-0.338-0.179
		c-0.158-0.077-0.358-0.151-0.6-0.224c-0.243-0.072-0.532-0.136-0.869-0.191c-0.336-0.056-0.713-0.083-1.13-0.083
		c-0.613,0-1.19,0.102-1.73,0.306c-0.541,0.205-1.011,0.505-1.411,0.9c-0.4,0.396-0.715,0.88-0.945,1.45
		c-0.23,0.57-0.345,1.226-0.345,1.966c0,0.733,0.104,1.384,0.313,1.954c0.209,0.57,0.504,1.051,0.888,1.443
		c0.383,0.392,0.844,0.689,1.385,0.894c0.541,0.204,1.143,0.306,1.807,0.306c0.774,0,1.426-0.053,1.954-0.159
		c0.527-0.107,0.91-0.207,1.149-0.3v-4.38H9.862v3.077c-0.119,0.026-0.258,0.043-0.415,0.051c-0.158,0.009-0.347,0.013-0.568,0.013
		c-0.409,0-0.767-0.07-1.073-0.211c-0.306-0.14-0.562-0.338-0.766-0.594c-0.204-0.255-0.358-0.559-0.46-0.913
		C6.478,9.505,6.427,9.111,6.427,8.677c0-0.894,0.206-1.598,0.619-2.113c0.413-0.515,1.083-0.773,2.011-0.773
		C9.474,5.791,9.86,5.845,10.213,5.951"/>
</g>
</svg>
