<svg id="Capa_1" data-name="Capa 1" xmlns="http://www.w3.org/2000/svg" viewBox="0 0 213.26 219.34"><defs><style>.cls-1{isolation:isolate;font-size:14px;font-family:MyriadPro-Regular, Myriad Pro;}</style></defs><g id="Capa_1-2" data-name="Capa 1"><text class="cls-1" transform="translate(0.57 11.72)">R</text><text class="cls-1" transform="translate(21.56 11.72)">M</text><text class="cls-1" transform="translate(45.7 11.72)">A</text><text class="cls-1" transform="translate(68.03 11.72)">D</text><text class="cls-1" transform="translate(91.7 11.72)">E</text><text class="cls-1" transform="translate(113.97 11.72)">R</text><text class="cls-1" transform="translate(136.42 11.72)">A</text><text class="cls-1" transform="translate(159.33 11.72)">R</text><text class="cls-1" transform="translate(182.46 11.72)">T</text><text class="cls-1" transform="translate(204.75 11.72)">C</text><text class="cls-1" transform="translate(0.41 34.4)">V</text><text class="cls-1" transform="translate(25.79 34.4)">I</text><text class="cls-1" transform="translate(45.36 34.4)">D</text><text class="cls-1" transform="translate(68.63 34.4)">R</text><text class="cls-1" transform="translate(93.83 34.4)">I</text><text class="cls-1" transform="translate(112.94 34.4)">O</text><text class="cls-1" transform="translate(135.97 34.4)">N</text><text class="cls-1" transform="translate(159.74 34.4)">E</text><text class="cls-1" transform="translate(182.42 34.4)">E</text><text class="cls-1" transform="translate(204.46 34.4)">A</text><text class="cls-1" transform="translate(0.36 57.08)">A</text><text class="cls-1" transform="translate(23.95 57.08)">S</text><text class="cls-1" transform="translate(45.95 57.08)">R</text><text class="cls-1" transform="translate(68.21 57.08)">U</text><text class="cls-1" transform="translate(89.6 57.08)">M</text><text class="cls-1" transform="translate(116.49 57.08)">I</text><text class="cls-1" transform="translate(136.42 57.08)">A</text><text class="cls-1" transform="translate(160.01 57.08)">S</text><text class="cls-1" transform="translate(182.45 57.08)">T</text><text class="cls-1" transform="translate(204.68 57.08)">R</text><text class="cls-1" transform="translate(0 79.76)">D</text><text class="cls-1" transform="translate(22.22 79.76)">O</text><text class="cls-1" transform="translate(46.34 79.76)">E</text><text class="cls-1" transform="translate(68.52 79.76)">B</text><text class="cls-1" transform="translate(93.81 79.76)">I</text><text class="cls-1" transform="translate(113.78 79.76)">V</text><text class="cls-1" transform="translate(136.64 79.76)">R</text><text class="cls-1" transform="translate(161.84 79.76)">I</text><text class="cls-1" transform="translate(182 79.76)">R</text><text class="cls-1" transform="translate(205.13 79.76)">T</text><text class="cls-1" transform="translate(0.99 102.44)">E</text><text class="cls-1" transform="translate(23.91 102.44)">F</text><text class="cls-1" transform="translate(44.9 102.44)">O</text><text class="cls-1" transform="translate(69.06 102.44)">T</text><text class="cls-1" transform="translate(90.99 102.44)">G</text><text class="cls-1" transform="translate(113.72 102.44)">A</text><text class="cls-1" transform="translate(135.94 102.44)">N</text><text class="cls-1" transform="translate(157.61 102.44)">M</text><text class="cls-1" transform="translate(181.75 102.44)">A</text><text class="cls-1" transform="translate(203.62 102.44)">O</text><text class="cls-1" transform="translate(0.71 125.12)">P</text><text class="cls-1" transform="translate(23.24 125.12)">R</text><text class="cls-1" transform="translate(48.44 125.12)">I</text><text class="cls-1" transform="translate(66.91 125.12)">M</text><text class="cls-1" transform="translate(90.86 125.12)">U</text><text class="cls-1" transform="translate(114.02 125.12)">C</text><text class="cls-1" transform="translate(137.31 125.12)">S</text><text class="cls-1" transform="translate(161.83 125.12)">I</text><text class="cls-1" transform="translate(182.13 125.12)">P</text><text class="cls-1" transform="translate(203.97 125.12)">N</text><text class="cls-1" transform="translate(0.32 147.8)">A</text><text class="cls-1" transform="translate(22.82 147.8)">U</text><text class="cls-1" transform="translate(44.21 147.8)">M</text><text class="cls-1" transform="translate(69.03 147.8)">T</text><text class="cls-1" transform="translate(93.79 147.8)">I</text><text class="cls-1" transform="translate(114.72 147.8)">L</text><text class="cls-1" transform="translate(137.4 147.8)">L</text><text class="cls-1" transform="translate(159.07 147.8)">A</text><text class="cls-1" transform="translate(181.75 147.8)">A</text><text class="cls-1" transform="translate(205.34 147.8)">S</text><text class="cls-1" transform="translate(0.71 170.48)">P</text><text class="cls-1" transform="translate(23.69 170.48)">T</text><text class="cls-1" transform="translate(44.87 170.48)">O</text><text class="cls-1" transform="translate(68.99 170.48)">E</text><text class="cls-1" transform="translate(91.27 170.48)">R</text><text class="cls-1" transform="translate(114 170.48)">C</text><text class="cls-1" transform="translate(136.37 170.48)">A</text><text class="cls-1" transform="translate(158.7 170.48)">D</text><text class="cls-1" transform="translate(181.97 170.48)">K</text><text class="cls-1" transform="translate(204.65 170.48)">R</text><text class="cls-1" transform="translate(0.97 193.16)">E</text><text class="cls-1" transform="translate(23.65 193.16)">E</text><text class="cls-1" transform="translate(46.06 193.16)">P</text><text class="cls-1" transform="translate(69.36 193.16)">L</text><text class="cls-1" transform="translate(91.03 193.16)">A</text><text class="cls-1" transform="translate(114.62 193.16)">S</text><text class="cls-1" transform="translate(137.06 193.16)">T</text><text class="cls-1" transform="translate(161.81 193.16)">I</text><text class="cls-1" transform="translate(182.03 193.16)">C</text><text class="cls-1" transform="translate(203.6 193.16)">O</text><text class="cls-1" transform="translate(1.32 215.84)">L</text><text class="cls-1" transform="translate(22.99 215.84)">A</text><text class="cls-1" transform="translate(45.21 215.84)">N</text><text class="cls-1" transform="translate(68.33 215.84)">A</text><text class="cls-1" transform="translate(92.15 215.84)">J</text><text class="cls-1" transform="translate(113.51 215.84)">U</text><text class="cls-1" transform="translate(136.36 215.84)">A</text><text class="cls-1" transform="translate(159.18 215.84)">B</text><text class="cls-1" transform="translate(181.96 215.84)">K</text><text class="cls-1" transform="translate(207.16 215.84)">I</text></g></svg>