<?xml version="1.0" encoding="utf-8"?>
<!-- Generator: Adobe Illustrator 14.0.0, SVG Export Plug-In . SVG Version: 6.00 Build 43363)  -->
<!DOCTYPE svg PUBLIC "-//W3C//DTD SVG 1.1//EN" "http://www.w3.org/Graphics/SVG/1.1/DTD/svg11.dtd">
<svg version="1.1" id="Layer_1" xmlns="http://www.w3.org/2000/svg" xmlns:xlink="http://www.w3.org/1999/xlink" x="0px" y="0px"
	 width="15.699px" height="18.806px" viewBox="0 0 15.699 18.806" enable-background="new 0 0 15.699 18.806" xml:space="preserve">
<polygon fill="#EC1C24" points="7.722,14.375 7.672,14.52 7.6,14.728 7.557,14.852 7.507,14.986 7.455,15.129 7.399,15.283 
	7.34,15.443 7.279,15.609 7.213,15.781 7.146,15.953 7.113,16.042 7.077,16.13 7.043,16.22 7.006,16.31 6.97,16.397 6.934,16.488 
	6.896,16.576 6.859,16.666 6.822,16.753 6.783,16.841 6.747,16.928 6.707,17.013 6.668,17.099 6.628,17.184 6.59,17.267 
	6.55,17.349 6.51,17.429 6.469,17.51 6.427,17.588 6.387,17.664 6.346,17.74 6.322,17.779 6.3,17.815 6.277,17.853 6.256,17.89 
	6.232,17.926 6.208,17.963 6.185,18 6.159,18.035 6.132,18.073 6.107,18.109 6.08,18.148 6.05,18.184 6.02,18.222 5.987,18.257 
	5.952,18.298 5.917,18.335 5.876,18.376 5.833,18.417 5.787,18.458 5.737,18.501 5.68,18.542 5.614,18.587 5.542,18.63 
	5.458,18.673 5.367,18.714 5.274,18.746 5.207,18.763 5.147,18.781 5.082,18.789 5.018,18.799 4.947,18.804 4.875,18.806 
	4.801,18.804 4.708,18.796 4.594,18.778 4.475,18.746 4.372,18.708 4.284,18.667 4.211,18.625 4.149,18.584 4.095,18.544 
	4.04,18.501 3.971,18.441 3.911,18.379 3.862,18.326 3.822,18.276 3.786,18.23 3.756,18.187 3.728,18.145 3.702,18.106 3.679,18.07 
	3.654,18.031 3.635,17.996 3.612,17.96 3.592,17.923 3.572,17.886 3.534,17.818 3.51,17.773 3.5,17.748 3.462,17.675 3.429,17.604 
	3.395,17.531 3.361,17.458 3.328,17.388 3.297,17.317 3.268,17.246 3.237,17.175 3.207,17.109 3.153,16.982 3.105,16.865 
	3.029,16.685 3.015,16.644 2.94,16.497 2.875,16.359 2.869,16.351 2.797,16.207 2.725,16.062 2.649,15.917 2.614,15.846 
	2.577,15.777 2.54,15.705 2.502,15.634 2.466,15.565 2.43,15.495 2.39,15.426 2.353,15.357 2.313,15.289 2.277,15.22 2.237,15.15 
	2.198,15.082 2.159,15.015 2.119,14.947 2.081,14.88 2.042,14.812 2,14.745 1.988,14.724 1.96,14.68 1.921,14.614 1.88,14.548 
	1.84,14.484 1.8,14.417 1.759,14.351 1.716,14.287 1.675,14.22 1.632,14.158 1.592,14.093 1.549,14.029 1.503,13.965 1.461,13.901 
	1.42,13.838 1.375,13.774 1.331,13.712 1.286,13.65 1.239,13.587 1.196,13.525 1.152,13.463 1.104,13.402 1.057,13.339 
	1.012,13.279 0.966,13.216 0.917,13.156 0.869,13.095 0.821,13.036 0.774,12.975 0.725,12.916 0.675,12.857 0.625,12.794 
	0.574,12.736 0.524,12.678 0.475,12.62 0.422,12.56 0.399,12.534 0.372,12.501 0.317,12.439 0.313,12.437 0,11.524 0.417,10.654 
	0.422,10.65 1.338,10.333 2.207,10.751 2.21,10.754 2.27,10.822 2.304,10.861 2.33,10.892 2.393,10.962 2.452,11.034 2.512,11.104 
	2.571,11.173 2.628,11.247 2.688,11.316 2.744,11.388 2.802,11.46 2.859,11.531 2.915,11.603 2.97,11.675 3.024,11.748 3.08,11.821 
	3.135,11.892 3.188,11.965 3.242,12.039 3.295,12.114 3.345,12.187 3.397,12.259 3.449,12.333 3.5,12.408 3.55,12.482 3.6,12.557 
	3.648,12.63 3.699,12.705 3.748,12.779 3.796,12.855 3.844,12.931 3.893,13.006 3.939,13.082 3.984,13.156 4.032,13.232 
	4.077,13.308 4.122,13.385 4.154,13.437 4.168,13.46 4.212,13.537 4.257,13.615 4.3,13.691 4.345,13.769 4.389,13.845 4.432,13.923 
	4.475,14 4.518,14.078 4.56,14.156 4.599,14.234 4.643,14.312 4.682,14.39 4.725,14.466 4.764,14.546 4.805,14.625 4.845,14.703 
	4.885,14.784 4.963,14.94 5.005,15.026 5.055,14.906 5.125,14.75 5.188,14.595 5.25,14.447 5.31,14.302 5.364,14.167 5.417,14.039 
	5.465,13.923 5.542,13.721 5.604,13.574 5.627,13.513 5.647,13.466 5.747,13.234 5.847,13.01 5.947,12.786 5.97,12.739 
	6.049,12.564 6.152,12.34 6.253,12.119 6.359,11.896 6.463,11.675 6.569,11.453 6.676,11.234 6.782,11.013 6.891,10.792 
	6.998,10.571 7.109,10.35 7.219,10.131 7.33,9.914 7.387,9.801 7.444,9.694 7.502,9.584 7.557,9.475 7.614,9.367 7.672,9.257 
	7.729,9.149 7.787,9.04 7.845,8.932 7.904,8.823 7.962,8.716 8.021,8.606 8.082,8.499 8.14,8.39 8.199,8.281 8.26,8.175 
	8.321,8.069 8.382,7.961 8.442,7.853 8.502,7.747 8.564,7.639 8.604,7.57 8.627,7.533 8.688,7.426 8.751,7.32 8.813,7.215 
	8.876,7.109 8.939,7.004 9.005,6.897 9.068,6.794 9.132,6.688 9.197,6.583 9.262,6.479 9.328,6.373 9.392,6.271 9.46,6.165 
	9.525,6.061 9.591,5.958 9.658,5.853 9.726,5.751 9.792,5.647 9.859,5.544 9.929,5.441 9.996,5.337 10.064,5.235 10.099,5.185 
	10.134,5.135 10.203,5.031 10.275,4.931 10.345,4.83 10.416,4.727 10.484,4.628 10.556,4.526 10.628,4.426 10.703,4.325 
	10.773,4.224 10.845,4.124 10.919,4.026 10.992,3.928 11.064,3.826 11.14,3.729 11.212,3.63 11.291,3.53 11.365,3.433 11.439,3.334 
	11.515,3.237 11.591,3.14 11.667,3.042 11.746,2.945 11.824,2.85 11.9,2.752 11.98,2.657 12.058,2.56 12.136,2.465 12.216,2.37 
	12.294,2.274 12.376,2.18 12.457,2.085 12.537,1.991 12.619,1.897 12.701,1.802 12.783,1.71 12.865,1.616 12.949,1.524 
	13.033,1.431 13.115,1.34 13.199,1.25 13.285,1.156 13.369,1.065 13.457,0.974 13.542,0.884 13.63,0.794 13.716,0.704 13.802,0.615 
	13.89,0.525 13.98,0.435 14.07,0.347 14.16,0.259 14.8,0 15.435,0.265 15.443,0.27 15.699,0.909 15.435,1.548 15.431,1.549 
	15.347,1.634 15.265,1.716 15.185,1.799 15.101,1.884 15.019,1.968 14.939,2.052 14.859,2.136 14.779,2.22 14.699,2.305 
	14.621,2.393 14.542,2.478 14.462,2.564 14.384,2.651 14.308,2.738 14.232,2.824 14.154,2.913 14.08,3.001 14.005,3.089 
	13.927,3.178 13.853,3.268 13.779,3.359 13.707,3.447 13.632,3.537 13.556,3.627 13.484,3.718 13.412,3.81 13.341,3.9 13.332,3.913 
	13.269,3.994 13.197,4.083 13.128,4.176 13.056,4.269 12.988,4.362 12.917,4.456 12.847,4.55 12.779,4.644 12.71,4.737 
	12.644,4.833 12.574,4.926 12.509,5.021 12.443,5.118 12.376,5.213 12.31,5.31 12.244,5.405 12.179,5.502 12.115,5.599 12.05,5.696 
	11.984,5.793 11.921,5.891 11.857,5.988 11.794,6.087 11.732,6.185 11.699,6.235 11.669,6.283 11.607,6.382 11.544,6.482 
	11.484,6.58 11.421,6.68 11.361,6.779 11.302,6.88 11.24,6.981 11.181,7.082 11.123,7.182 11.062,7.283 11.001,7.384 10.945,7.486 
	10.886,7.589 10.83,7.689 10.773,7.792 10.714,7.894 10.658,7.997 10.599,8.1 10.542,8.202 10.49,8.306 10.431,8.408 10.376,8.512 
	10.357,8.549 10.32,8.616 10.267,8.72 10.21,8.826 10.158,8.93 10.103,9.033 10.048,9.138 9.994,9.241 9.939,9.346 9.886,9.453 
	9.835,9.556 9.783,9.663 9.73,9.769 9.675,9.874 9.625,9.98 9.574,10.085 9.525,10.191 9.472,10.298 9.419,10.405 9.369,10.511 
	9.32,10.621 9.27,10.728 9.22,10.833 9.121,11.048 9.022,11.263 8.926,11.48 8.83,11.697 8.734,11.914 8.641,12.13 8.547,12.349 
	8.455,12.567 8.362,12.786 8.272,13.006 8.181,13.225 8.092,13.447 8.023,13.619 8.005,13.664 7.915,13.885 7.827,14.106 
	7.739,14.33 7.748,14.31 7.738,14.334 "/>
</svg>
