<?xml version="1.0" encoding="utf-8"?>
<!-- Generator: Adobe Illustrator 21.1.0, SVG Export Plug-In . SVG Version: 6.00 Build 0)  -->
<svg version="1.1" id="Capa_1" xmlns="http://www.w3.org/2000/svg" xmlns:xlink="http://www.w3.org/1999/xlink" x="0px" y="0px"
	 viewBox="0 0 42.15 11.828" style="enable-background:new 0 0 42.15 11.828;" xml:space="preserve">
<style type="text/css">
	.st0{clip-path:url(#SVGID_2_);fill:#E9EEC6;}
</style>
<g>
	<defs>
		<rect id="SVGID_1_" width="42.15" height="11.828"/>
	</defs>
	<clipPath id="SVGID_2_">
		<use xlink:href="#SVGID_1_"  style="overflow:visible;"/>
	</clipPath>
	<path class="st0" d="M0.198,7.332C4.93,2.122,13.937,1.306,20.58,1.886c6.79,0.591,11.816,3.846,17.587,7.069
		c0.252,0.141,0.444-0.186,0.327-0.39c-3.848-6.653-13.085-8.637-20.19-8.563c-5.382,0.055-16.432,0.864-18.3,7.239
		C-0.027,7.353,0.131,7.403,0.198,7.332"/>
	<path class="st0" d="M30.351,9.942c1.879-0.07,3.572-0.178,5.424,0.316c1.751,0.47,3.463,1.07,5.211,1.544
		c0.663,0.181,1.412-0.646,1.084-1.284c-0.444-0.864-0.882-1.733-1.357-2.579c-0.682-1.216-1.711-2.382-1.856-3.823
		c-0.293-2.848-4.327-0.226-2.269,1.179c1.741,1.189,2.72,4.056,3.661,5.886c0.362-0.428,0.724-0.857,1.083-1.284
		c-2.799-0.75-8.971-3.277-11.072-0.136C30.207,9.841,30.252,9.946,30.351,9.942"/>
</g>
</svg>
