<?xml version="1.0" encoding="utf-8"?>
<!-- Generator: Adobe Illustrator 21.1.0, SVG Export Plug-In . SVG Version: 6.00 Build 0)  -->
<svg version="1.1" id="Capa_1" xmlns="http://www.w3.org/2000/svg" xmlns:xlink="http://www.w3.org/1999/xlink" x="0px" y="0px"
	 viewBox="0 0 30.908 17.116" style="enable-background:new 0 0 30.908 17.116;" xml:space="preserve">
<style type="text/css">
	.st0{clip-path:url(#SVGID_2_);fill:#FFFFFF;}
	.st1{clip-path:url(#SVGID_2_);fill:none;stroke:#AEC90B;stroke-width:0.955;stroke-linecap:round;}
	.st2{fill:#AEC90B;}
	.st3{clip-path:url(#SVGID_4_);fill:#AEC90B;}
</style>
<g>
	<defs>
		<rect id="SVGID_1_" width="30.908" height="17.116"/>
	</defs>
	<clipPath id="SVGID_2_">
		<use xlink:href="#SVGID_1_"  style="overflow:visible;"/>
	</clipPath>
	<path class="st0" d="M4.088,0.478c0,0-3.61,0-3.61,3.61v8.941c0,0,0,3.61,3.61,3.61h22.733c0,0,3.61,0,3.61-3.61V4.088
		c0,0,0-3.61-3.61-3.61H4.088z"/>
	<path class="st1" d="M4.088,0.478c0,0-3.61,0-3.61,3.61v8.941c0,0,0,3.61,3.61,3.61h22.733c0,0,3.61,0,3.61-3.61V4.088
		c0,0,0-3.61-3.61-3.61H4.088z"/>
	<polyline class="st1" points="13.571,16.633 16.846,8.558 13.571,0.484 	"/>
</g>
<rect x="7.091" y="4.325" class="st2" width="1.987" height="8.826"/>
<g>
	<defs>
		<rect id="SVGID_3_" width="30.908" height="17.116"/>
	</defs>
	<clipPath id="SVGID_4_">
		<use xlink:href="#SVGID_3_"  style="overflow:visible;"/>
	</clipPath>
	<path class="st3" d="M24.502,6.013c0.352,0.106,0.664,0.231,0.936,0.376l0.573-1.592c-0.068-0.043-0.18-0.102-0.337-0.179
		c-0.158-0.076-0.357-0.15-0.599-0.222c-0.242-0.072-0.531-0.136-0.866-0.191c-0.335-0.056-0.711-0.083-1.127-0.083
		c-0.611,0-1.187,0.102-1.726,0.305c-0.539,0.204-1.008,0.504-1.407,0.898c-0.399,0.395-0.713,0.877-0.942,1.446
		s-0.344,1.222-0.344,1.961c0,0.73,0.104,1.38,0.312,1.948c0.208,0.569,0.503,1.049,0.885,1.44c0.382,0.39,0.843,0.687,1.382,0.891
		c0.539,0.204,1.14,0.306,1.802,0.306c0.772,0,1.422-0.053,1.948-0.16c0.527-0.106,0.909-0.205,1.146-0.299V8.49h-1.986v3.069
		c-0.119,0.026-0.257,0.043-0.414,0.051c-0.157,0.009-0.346,0.013-0.567,0.013c-0.407,0-0.764-0.07-1.07-0.21
		c-0.305-0.14-0.56-0.338-0.764-0.592c-0.203-0.255-0.356-0.559-0.458-0.911c-0.102-0.352-0.153-0.745-0.153-1.178
		c0-0.892,0.206-1.594,0.618-2.108c0.411-0.513,1.08-0.77,2.005-0.77C23.765,5.854,24.15,5.907,24.502,6.013"/>
</g>
</svg>
