<?xml version="1.0" encoding="utf-8"?>
<!-- Generator: Adobe Illustrator 24.0.0, SVG Export Plug-In . SVG Version: 6.00 Build 0)  -->
<svg version="1.1" id="Capa_1" xmlns="http://www.w3.org/2000/svg" xmlns:xlink="http://www.w3.org/1999/xlink" x="0px" y="0px"
	 viewBox="0 0 820 1059.6" style="enable-background:new 0 0 820 1059.6;" xml:space="preserve">
<style type="text/css">
	.st0{clip-path:url(#SVGID_2_);fill:#7C6EAF;}
	.st1{clip-path:url(#SVGID_4_);}
	.st2{clip-path:url(#SVGID_6_);fill:#E3E0F1;}
	.st3{clip-path:url(#SVGID_8_);fill:#7C6EAF;}
	.st4{clip-path:url(#SVGID_10_);fill:#7C6EAF;}
	.st5{clip-path:url(#SVGID_12_);fill:#FFFFFF;}
	.st6{clip-path:url(#SVGID_14_);fill:#7C6EAF;}
	.st7{clip-path:url(#SVGID_16_);fill:#FFFFFF;}
	.st8{clip-path:url(#SVGID_18_);fill:#7C6EAF;}
	.st9{clip-path:url(#SVGID_20_);fill:#FFFFFF;}
	.st10{clip-path:url(#SVGID_22_);fill:#7C6EAF;}
	.st11{clip-path:url(#SVGID_24_);fill:#FFFFFF;}
	.st12{clip-path:url(#SVGID_26_);fill:#7C6EAF;}
	.st13{clip-path:url(#SVGID_28_);fill:#FFFFFF;}
	.st14{clip-path:url(#SVGID_30_);fill:#7C6EAF;}
	.st15{clip-path:url(#SVGID_32_);fill:#FFFFFF;}
	.st16{clip-path:url(#SVGID_34_);}
	.st17{clip-path:url(#SVGID_36_);}
	.st18{opacity:0.2;clip-path:url(#SVGID_38_);fill:#1D1D1B;enable-background:new    ;}
	.st19{clip-path:url(#SVGID_40_);fill:#7C6EAF;}
	.st20{clip-path:url(#SVGID_42_);fill:#FFFFFF;}
	.st21{clip-path:url(#SVGID_44_);fill:#FFFFFF;}
	.st22{clip-path:url(#SVGID_46_);fill:none;stroke:#FFFFFF;stroke-width:1.274;stroke-dasharray:5.093,5.093;}
	.st23{clip-path:url(#SVGID_48_);}
	.st24{clip-path:url(#SVGID_50_);fill:#FFFFFF;}
	.st25{clip-path:url(#SVGID_52_);fill:#FFFFFF;}
	.st26{clip-path:url(#SVGID_54_);fill:#FFFFFF;}
</style>
<g>
	<g>
		<defs>
			<rect id="SVGID_1_" x="-8.9" y="-7" width="847.7" height="1067"/>
		</defs>
		<clipPath id="SVGID_2_">
			<use xlink:href="#SVGID_1_"  style="overflow:visible;"/>
		</clipPath>
		<polygon class="st0" points="-0.1,-0.8 0.1,1059.2 820.1,1060 819.9,-0.8 		"/>
	</g>
	<g>
		<defs>
			<rect id="SVGID_3_" x="-8.9" y="-7" width="847.7" height="1067"/>
		</defs>
		<clipPath id="SVGID_4_">
			<use xlink:href="#SVGID_3_"  style="overflow:visible;"/>
		</clipPath>
		<g class="st1">
			<g>
				<defs>
					<rect id="SVGID_5_" x="-8.9" y="-7" width="847.7" height="1067"/>
				</defs>
				<clipPath id="SVGID_6_">
					<use xlink:href="#SVGID_5_"  style="overflow:visible;"/>
				</clipPath>
				<path class="st2" d="M55.4,65.7c19.9-1.9,398.6,0,438.4,0s295.9-12.1,298.9,9.2c6.6,46.3,6.6,749.4,6.6,826.8
					c0,55.8-2.7,125.9-6.6,125.9c-4,0-660.3,24.9-742.7,6.3c-6.6-89-4-419.6-4-592C46.1,387.7,44.8,118.1,55.4,65.7"/>
			</g>
		</g>
	</g>
	<g>
		<defs>
			<rect id="SVGID_7_" x="-8.9" y="-7" width="847.7" height="1067"/>
		</defs>
		<clipPath id="SVGID_8_">
			<use xlink:href="#SVGID_7_"  style="overflow:visible;"/>
		</clipPath>
		<rect x="307.1" y="112.1" class="st3" width="103.2" height="28.3"/>
	</g>
	<g>
		<defs>
			<rect id="SVGID_9_" x="-8.9" y="-7" width="847.7" height="1067"/>
		</defs>
		<clipPath id="SVGID_10_">
			<use xlink:href="#SVGID_9_"  style="overflow:visible;"/>
		</clipPath>
		<polygon class="st4" points="58.3,76 61.8,152.9 106.4,158.2 106.6,76 		"/>
	</g>
	<g>
		<defs>
			<rect id="SVGID_11_" x="-8.9" y="-7" width="847.7" height="1067"/>
		</defs>
		<clipPath id="SVGID_12_">
			<use xlink:href="#SVGID_11_"  style="overflow:visible;"/>
		</clipPath>
		<path class="st5" d="M69.6,147v-0.5l0.3-0.4l0.1,0.5L69.6,147z M68.3,146.1l0.1-0.5l0.3-0.8v0.5l0.1,0.5L68.3,146.1z M70,143.9
			l-0.1-0.5l0.5-0.2l0.1,0.7H70z M73,143.4l-0.3-0.1l-0.3-0.3l0.3,0.2L73,143.4l0.2,0.3L73,143.4z M93.7,141.6l0.5-0.8l0.1,1.6
			L93.7,141.6z M67.8,140.9v-0.5h0.6l0.1,0.4L67.8,140.9z M68.9,141.9l-0.3-0.5l0.7-0.5l0.3-0.5l0.3,0.6l-0.1,0.5l-0.2,0.5
			L68.9,141.9z M89.3,140.7l-0.7-0.3l0.5-0.2l0.3,0.3L89.3,140.7z M93.3,141.3l-0.3,0.5l-0.2-0.4l0.1-0.4l-0.2-0.8l-0.7-0.4
			l-0.3,0.1l0.1,0.5l0.6,0.6l-0.3,0.5l-0.5-0.1l-0.2-0.6l-0.4-0.5l0.2-0.3l0.4-0.1l0.3-0.3l-0.1-0.5l0.8-0.5l0.8,1.8l-0.5,0.4
			L93.3,141.3z M74.4,139.5H74l-0.6-0.6l0.2-0.3l0.5,0.4v0.4l0.3-0.1V139.5z M96.2,139.3l0.3-0.1l0.4,0.5l1-0.6l0.1-0.6l-1.5-0.5
			L96.2,139.3z M72.2,138.8h-0.5l-0.3-0.3l-0.3-0.5l-0.3-0.4h0.5l0.2,0.4l0.3-0.3l0.1-0.2l0.3,0.3C72.2,137.8,72.2,138.8,72.2,138.8
			z M95.6,136.8l-0.1,0.2l0.5,0.7l-0.1,0.5l0.6-0.7L95.6,136.8z M91.6,136.8l-0.5-0.2l0.1-0.5l0.1-0.2l0.3,0.3V136.8z M67.7,142.8
			l-0.3,0.5l-0.8-0.5l0.3-1.2l-0.2-0.5l-0.1-1.1l0.3-0.7l0.1-0.7l0.8,0.5l0.3-0.3l-0.7-1l0.5-0.7l-0.4-0.7l0.5-0.7l0.1,0.3l0.5-0.5
			l0.4,0.1l-0.2,0.4l0.3,0.1l-0.2,0.1l0.5,0.1l0.8,0.3l-0.3,0.2l-0.5-0.4l-0.6,0.1l0.4,1l0.7,0.3h0.5l-0.2,0.3l-1.6-0.3l-0.1,0.7h1
			l0.3,0.3l0.5-0.3l0.3,0.2v1.4l-0.8-0.3l-0.5,0.4l0.1-0.5l-0.3-0.5l-1.2,0.7l-0.5,0.9l0.7,0.4l-0.6,0.7L67.7,142.8z M66.3,136
			l0.2-1l0.7-0.1l0.1,0.5l-0.8,1.2L66.3,136z M93.5,134.9l0.5-0.8l0.8,0.3l-0.1,0.3l-0.5-0.1l-0.5,0.5L93.5,134.9z M101.2,132.9
			l-0.3,0.5l0.7,0.5l0.1-0.2L101.2,132.9z M72.6,133l0.2-0.8l0.7,0.5l-0.2,0.2L72.6,133z M74.9,132.7l-0.1-0.5l0.5-0.1l0.1,0.8
			L74.9,132.7z M70,134.5l0.3-0.1l0.3-0.5l-0.4-0.2l-0.1-0.5l-0.8-0.3l0.3-0.5l0.7-0.2l0.4-0.3l0.2,0.2l-0.3,0.7l0.3,0.6l0.2,0.8
			L70,134.5z M97,131.4h-0.5v-0.7L97,131V131.4z M98.4,130.9l0.4-0.3l-0.1,0.7l-0.6,0.1L98.4,130.9z M68.8,131.9l0.5,0.1l-0.5,0.5
			l-0.1,0.5l-0.3-0.1l-0.3-0.2l-0.5,0.3l-0.3-0.6l0.7-0.3l-1-0.4l-0.2-0.8l0.7,0.1l0.8-0.3l0.3,0.1l0.2,0.1l-0.5,0.8L68.8,131.9z
			 M102.5,132.1l-0.8,0.4l0.1,0.5h0.5l0.1,0.5l-0.4,0.3l-0.3,0.1h-0.3l-0.2,1.9l-0.8-0.2l-0.3,0.3l0.7,0.5l0.1,1.2l-0.7,0.1
			l-0.4,0.5l0.5,0.4l-0.1,0.3l-0.5-0.3l-1-0.3l0.4,0.6l0.1,1.1l-0.5-0.4l-0.4,0.5l-0.5-0.1l0.5,0.3l-0.3,0.5l-0.3,0.5l-0.3-0.3
			l-0.2-0.5l-1,0.5l-0.5-0.5l0.1-0.3l0.5,0.1l-0.4-0.5l-0.6-0.1l-0.4-0.3l-0.1,0.7l-0.4-0.2l-0.7-0.5l-0.8-0.5l0.3-0.7l0.9,0.5
			l0.5,0.4l0.3-0.3l-0.5-0.5l-1-0.5l-1,0.5l-0.6-0.5l0.3-0.9l-0.6-0.6l0.5-1.1l0.6,0.3l-0.1,0.5H92l0.8,0.9l1.6,0.6l0.1-0.7l-0.5-1
			l0.7-0.3l0.4-0.7V134l0.3-0.1l0.6,1.8l0.3,0.2l0.2-1l0.3-1L96,134l-0.5-0.6l-0.3-0.3h-1.4l-0.4-1.4l0.6-0.2l0.1,0.5l0.1-0.5
			l0.7-0.8l0.2,0.5L95,131l0.3,0.5l-0.8,0.5l0.1,0.4l0.9-0.2l0.7,0.5h0.3l-0.1,0.3l0.5,0.1l0.8-0.5l0.6-0.5l0.1-0.2l0.4,0.2l0.2-0.6
			l0.5,0.3l0.3-0.5l0.5,0.3l-0.2,0.5l-0.5-0.3l-0.2,0.2l0.4,0.6l-0.3-0.2l-0.3,0.3l-1,0.6l0.6,1l0.4-0.4l0.4,0.2l0.8-0.5l-0.1-0.9
			l0.5-0.3l0.3-0.1l-0.2,0.3l-0.1,0.3l0.7-0.7l0.7-1h0.7v0.9H102.5z M70,129.9l0.5,0.5l0.2,0.3l-0.5-0.1l-0.6-0.3l-0.3-0.3L70,129.9
			z M98,129.9l-0.2-0.8l0.3-0.5h0.3l0.2,0.8L98,129.9z M70.5,129.4l-0.2-0.3l0.7-0.5l0.3,0.2l-0.2-0.1l-0.1,0.4L70.5,129.4z
			 M68.3,129l-0.3-0.7h0.5l0.3,0.4L68.3,129z M95.6,129.6l0.6,0.2l0.1,0.6l-0.5-0.3l-0.3-0.1l-0.3-0.3l0.1-0.5l0.3-0.3l0.3-0.1
			l0.1-0.6l0.3-0.1v1l-0.3,0.1l-0.5-0.3l-0.1,0.3L95.6,129.6z M102.5,128.1l-0.2,0.3l-0.1-0.5l0.3-0.7l0.1,0.5L102.5,128.1z
			 M101.9,129.6l-0.3,0.3l0.5,0.4L102,131l-0.7-0.3L101,130v1.2l-0.8,0.2l-0.5-0.7l0.3-0.8l-0.3-1.4l0.7-1.3v1l0.2,0.7l-0.5,0.6
			l0.3,0.5l0.7-0.5l0.5-0.4l-0.5-0.5l0.5,0.1l0.7,0.5L101.9,129.6z M102.1,127.1l0.3-0.1l0.1,0.2l-0.3,0.1L102.1,127.1z M73.3,127.1
			l-0.1,0.4l-0.1,0.6l-0.1-0.6L73.3,127.1z M95.7,127.5l-0.5,0.3l-0.2-0.3l-0.2-0.2l-0.2-0.3l0.6-0.1L95.7,127.5z M71.8,126.6h0.4
			l0.5,0.2H72L71.8,126.6L71.8,126.6z M71.3,127.1v0.3l-0.2-0.1L71,128l-0.6,0.5v-0.7l0.5-0.7l-0.1-0.4l0.4-0.3l0.1,0.3l0.3-0.1
			L71.3,127.1z M98.5,127.7l-0.7,0.3l-0.8-0.3l-0.3-0.7l-0.4-0.1l0.7-0.3l0.7,0.8l0.1,0.4l0.7-0.5l0.4-1.2h0.4v1.5l0.3,0.7l-0.6-0.1
			l-0.2-0.3L98.5,127.7z M102.5,126.4l-0.2-0.6l-0.7-0.3l-0.5,0.4l0.5-0.6l0.8,0.5l0.3,0.5L102.5,126.4z M97.5,126l-0.3-0.5v-0.3
			l0.5,0.1l0.5,0.7l0.2,0.7l-0.5,0.2l-0.3-0.3l0.1-0.6L97.5,126z M73.1,125.8h-0.6l-0.3-0.7L73.1,125.8l0.4,0.3L73.1,125.8z
			 M95.5,125.2l0.3-0.5l0.3-0.3v0.6L95.5,125.2z M99.5,123.9l0.3,0.6l-0.4,0.3l-0.2-0.5L99.5,123.9z M100.4,124.8l0.3-0.7l0.3-0.2
			l1-0.1l-1,0.7v0.6l-0.5,0.6l-0.3-0.4l0.4-0.1L100.4,124.8z M96.5,122.6l0.3,0.1l0.1,0.6l0.3,0.2l0.8,0.2l0.5,0.5l0.2,0.2l-0.3,0.4
			l0.5,0.1h0.5l-0.6,0.5l-1.1-1.3l-0.7,0.1l0.1,0.5l-0.7-0.5l0.3-0.8L96.5,122.6z M94.1,122.9l0.4-0.4l0.7,0.1l-0.3,0.7l-0.8,0.1
			C94.1,123.4,94.1,122.9,94.1,122.9z M66.6,123.8l-0.3-0.1v-0.5l0.4-0.7l0.3,0.1l0.1,0.5l0.4-0.4l0.1,0.3l-0.5,0.6v1.1l0.5,1
			l-0.3,0.2l-0.5,0.2l-0.2,0.7l-0.1-0.3l-0.2-0.7l0.3-0.9L66.6,123.8z M99.3,121.5l0.3,0.2l0.2,0.3l0.3,0.4l-0.3,0.3l-0.5-0.4V121.5
			z M98.6,121.3l-0.3,0.1l0.2,0.4l0.5,0.7l-0.4,0.2l-0.5-0.4l-0.4-0.2l-0.3,0.4l0.1-0.3l0.2-0.3l-0.1-0.3l0.4-0.7L98.6,121.3z
			 M73.2,120.1l0.4-0.1l0.4,0.3l-0.5-0.1L73.2,120.1z M71.5,120.2l-0.3,0.3l-0.3,0.1l1.1-1l0,0.4L71.5,120.2z M69.2,119.8l0.3-0.3
			l0.5-0.3l0.3,0.1l-0.4,0.8L69.2,119.8z M92,118.5l-0.2-0.2h0.6l-0.8,1l-0.1-0.5L92,118.5z M70,117.6l-0.4,0.6l-0.7-0.2l0.5-0.1
			l0.2-0.5L70,117.6z M68.8,116.8l-0.1-0.3l0.5-0.3l0.2,0.5L68.8,116.8z M89.5,137.3l-0.8,1l-1,0.7l-1.3,0.7l-2.3,0.7l-5.4,0.3
			l-1.6-0.6l-0.6-1.4l0.1-1.3l-0.3-1.2l0.2-1.3V118l0.8-1.2l1.9-0.7l1.4,0.1l1.4-0.1l2,0.1l2.6,0.8l2.2,1.4l1.6,1.8l0.7,1.2l0.8,1
			l0.8,3.8l0.2,2l-0.3,3.2l-0.4,1.2l-1,2.3l-0.8,1.2L89.5,137.3z M72.6,116.1l0.2-0.5l0.3-0.1L73,116l-0.1,0.5l-0.2-0.1L72.6,116.1z
			 M66,116.1l0.2-0.7l1.8-0.1l-0.3,0.5l-1,0.2h0.6l0.8,0.1l-0.3,0.7l0.8,0.7l-0.7,0.4l-0.3,0.4l0.8,0.5l0.3,0.8l-0.5,0.9l0.2,1.6
			l-0.8,0.5l0.3-0.6l-0.5-1.4l-0.5,0.5v-0.8h0.8l-0.6-0.8l-0.1-0.8l-0.7,0.3l0.2-1l-0.3-0.1l0.3-0.4L67,117l-0.8-0.1L66,116.1z
			 M97.9,115.7l-0.7-0.1l-0.5-0.4l-0.3-0.1l0.3-0.1L97.9,115.7z M88.9,114.7l0.6,0.3l0.3,0.3l0.1,0.2l-0.9,0.8l-1.2-0.1v-0.5
			l0.5-0.2l0.8,0.5l0.5-0.5L88.9,114.7z M96.5,115.2l-0.3-0.1l-0.5,0.5l-0.1-0.8l0.6-0.1L96.5,115.2z M70.9,115.4l-0.9,0.5l0.4-0.8
			l0.8-0.5L70.9,115.4z M68.1,115.2l-0.1-0.7l0.2,0.2L68.1,115.2z M83.8,114.7l0.3-0.5l0.6,0.1l-0.5,0.5l-0.7-0.2l0.1-0.3
			L83.8,114.7z M93.3,113.4l0.5,0.3l-0.1,0.3l-0.6-0.1L93.3,113.4z M91.3,114.1l-0.1-0.7l0.7,0.1l-0.3,0.7L91.3,114.1z M95.4,113
			l0.5,0.4l-0.4,0.6l-0.3-0.2L95.4,113z M87.7,113.5l-0.3,0.3l-0.6-0.3l0.3-0.5L87.7,113.5z M75.3,113.9l-1-0.3l-0.2-0.5l0.3-0.3
			h0.5l0.8,0.5L75.3,113.9z M92.3,112.9l-0.3-0.3l0.3,0.1l0.3-0.1l0.3-0.1L92.3,112.9z M81.5,112.4l-0.1,1.4l-0.1-0.6L81.5,112.4z
			 M73.9,113.9l-0.4,0.5l-0.8,0.2L71,113l-0.4-0.6l1.2,0.6l0.5,0.1l0.2,0.8l0.3,0.3v-0.6l0.5,0.1L73.9,113.9z M76.1,112.5l0.5-0.3
			l-0.1,0.6l-0.5,0.1L76.1,112.5z M89.6,113.2v0.5l-0.8,0.2l-0.8-1l0.1-0.8l0.7,0.7L89.6,113.2z M85.8,112l1-0.3l0.8,0.5l-0.8,0.1
			l-0.8,0.9l-0.7,0.1l-0.3-0.5L85.8,112z M94.9,111.6l0.2,0.3l-0.3,0.1l-0.3-0.3L94.9,111.6z M66.4,113.3l-0.1-0.5l0.1-0.8l-0.1-0.2
			l0.6-0.4l0.7,0.4l0.9,0.8l0.1,1.2l0.2-0.5l0.5,0.1l-0.1,0.8l-0.2,0.4l-0.4,0.2v-0.5l-0.1-0.6l-0.5-0.1l-0.3,0.3l-0.4-0.3l-0.5-0.3
			H66.4l0.5,0.6l0.1,0.4l-0.3-0.3l-0.2-0.4l-0.4-0.1l-0.3-0.1L66.4,113.3z M83.2,110.9l-0.1,0.4l-0.3,0.4l-0.5-0.1l0.1-0.7
			C82.4,110.9,83.2,110.9,83.2,110.9z M87.9,110.3l0.7-0.3l-0.2,0.8l-0.8,0.1L87.9,110.3z M66.3,110.7l0.3-0.7l0.5-0.3l-0.2,0.5
			l0.5,0.3l0.7,0.2l-0.3,0.6l-0.7-0.4l-0.3-0.4L67,111l-0.8-0.1L66.3,110.7z M83.6,110.3l-0.5-0.2l-0.1-0.7l0.6,0.1V110.3z
			 M90.2,109.8l0.3-0.7l0.3-0.1l0.2,0.6l0.3,0.1l0.7-0.4l0.5,0.6l-0.6-0.3l-0.5,0.5l0.5,0.1l-0.1,0.5l0.3,0.5l1-0.2l-0.3,0.7
			l-1.3-0.5h-0.3v0.5l-0.3,0.2l-0.3-0.3l0.7-0.8l-0.7-0.4l-0.9-0.3l-0.1-0.3L90.2,109.8L90.2,109.8z M78.9,108.4l0.7,0.4l0.1,0.7
			l-0.8-0.4C78.9,109.1,78.9,108.4,78.9,108.4z M77.2,108.7h0.3l0.5-0.3l0.4-0.1l-0.2,0.4l-0.4,0.4l-0.7-0.1L77.2,108.7z
			 M82.5,107.8l-0.1,0.3l0.7,0.3l-0.2,0.3L82,108l-0.4-0.5L82.5,107.8z M68,107.3l0.7,1.3l0.3-0.1l-0.3-0.5l0.3-0.3l0.5,0.2v0.6
			l-0.2,1l0.7,0.3l0.5-0.4l0.6-0.2l-0.4-0.7H70l0.2-0.6h0.9l0.8-0.4l-0.3,0.5v1.2l-1.3,1l-0.5,0.3l0.3,0.4l-0.7,0.1l-0.3-1.6
			l-0.5-0.9l-0.5,0.2l-0.2,0.7v0.5l-0.4-0.3l-0.2-0.4l-0.2-1.2L68,107.3z M75.2,107.9l-0.6-0.5l0.2-0.5l0.6,0.1v0.7l0.5,0.2l0.1,0.4
			L75.2,107.9z M79.5,106.8l0.6,0.3l0.3,0.5l-0.4-0.1l-0.1,0.5l-0.5,0.1L79.5,106.8z M72.4,106.8l0.7,0.7l-0.5,0.7v-0.5l-0.3-0.6
			L72.4,106.8z M104.4,126.3l-1-3.7l-0.1-1.4L103,120l-1-2.6l-1.5-2.2l-0.5-1.1l-1.7-2l-1.1-0.8l-1.8-1.8L93,108l-1.3-0.7l-3.6-1.2
			l-2.7-0.5l-9.2-0.1l-1.3-0.1l-4.2,0.1l-1.3-0.1l-1.2,0.1l-1.4-0.1l-1.2,0.7l-1,1.2v2.7l0.1,1.3l-0.1,1.3l0.1,2.5l-0.2,1.4l0.2,1.3
			l-0.2,1.3l0.3,5.2l-0.2,2.5l0.2,2.8l-0.2,1.2l0.2,1.4l-0.2,2.5l0.1,5.2l-0.1,1.3l0.2,5.2l-0.1,2.5l0.8,1.4l1,0.6H68l1.4,0.2h1.3
			l1.4-0.2l11.7-0.1l4.2-0.6l3.8-1.2l5.5-3.7l2.6-3l2-3.3l0.3-1.2l0.7-1.2l0.3-1.3l0.5-1.2l0.2-1.4l0.3-1.4l-0.1-1.1L104.4,126.3z"
			/>
	</g>
	<g>
		<defs>
			<rect id="SVGID_13_" x="-8.9" y="-7" width="847.7" height="1067"/>
		</defs>
		<clipPath id="SVGID_14_">
			<use xlink:href="#SVGID_13_"  style="overflow:visible;"/>
		</clipPath>
		<polygon class="st6" points="106,74.7 112.4,158.2 159.9,154.5 159.9,74.7 		"/>
	</g>
	<g>
		<defs>
			<rect id="SVGID_15_" x="-8.9" y="-7" width="847.7" height="1067"/>
		</defs>
		<clipPath id="SVGID_16_">
			<use xlink:href="#SVGID_15_"  style="overflow:visible;"/>
		</clipPath>
		<path class="st7" d="M120.1,143.4l-0.1-0.1l0.3,0.2L120.1,143.4z M119.8,143.2l0.2-0.3L119.8,143.2L119.8,143.2z M118.9,143.2
			l-0.5,0.4l-0.1-0.6l0.7-0.6L118.9,143.2z M151.9,140.8v-0.5l0.3-0.1l0.1,0.4L151.9,140.8z M153.4,140.4l0.3-0.7v0.3l0.1,0.5
			L153.4,140.4z M123.5,139.9l-0.8-0.2l0.4,0.1l0.7-0.2l0.4,0.3L123.5,139.9L123.5,139.9z M116.2,139.6l-0.1-0.5h0.5l0.1,0.5H116.2z
			 M152.1,138.8l-0.2-0.3l0.5-0.1l0.1,0.3L152.1,138.8z M120.7,139.2l-0.8-0.5l0.1-0.3l1.2,0.2l0.1,0.7L120.7,139.2z M151.1,138.7
			l-0.4,0.1l-0.1-0.6l0.5-0.1V138.7z M145.3,138.6l0.1-0.7l0.3,0.3l0.1,0.4H145.3z M154.7,139l-0.5-0.3l-0.4,0.1l-0.2-0.2l0.5-0.4
			l0.7-0.4l0.1,0.8L154.7,139z M149.6,138.3l-0.4-0.3v-0.4l0.5,0.3L149.6,138.3z M147.9,137.7h-0.7l0.3-0.5l0.8,0.3L147.9,137.7z
			 M121,137.4l-0.1,0.4l-0.6,0.1l0.2-0.6L121,137.4z M118.8,137.6l-0.4,0.1l-0.4,0.7l-0.4-0.4l-0.3,0.1L117,138l-0.5,0.1l-0.4-0.7
			l0.3-0.3l0.4,0.5l0.4,0.3l0.7-0.2l0.8-0.3l0.3-0.1L118.8,137.6z M121.4,136.9l-0.1-0.3l0.7,0.3H121.4z M122.1,137.5l0.6-0.4
			l0.3-0.1l0.3-0.6l0.4,0.5l-0.5,0.2l-0.3,0.2l0.4,0.4l-0.1,0.3l-0.5,0.1L122.1,137.5z M114.6,137.4l-0.3,0.1l0.1-0.3l-0.4-0.7
			l1-0.1l0.3,0.5L114.6,137.4z M116.7,136.1l0.1,0.3l-0.6,0.3l-0.2-0.3L116.7,136.1z M123.1,135.5h0.7l-0.1,0.4l-0.7-0.1
			L123.1,135.5L123.1,135.5z M146.8,135.7l-0.4-0.3l0.4-0.4l0.3,0.4L146.8,135.7z M119.4,135.2l0.5-0.2l-0.1,0.6l-0.4,0.2V135.2z
			 M115.5,135.3l-0.5,0.1l0.1-0.3l0.4-0.4V135.3z M113.4,134.8l0.1-0.3l0.5,0.1l0.1,0.7l0.1,0.2l-0.3-0.1l-0.3-0.4L113.4,134.8z
			 M117.9,133.8l-0.2-0.3l-0.2-0.1l-0.1,0.5L117.9,133.8z M154.1,133.8l1.1,0.3l0.1-0.4l-0.9-0.4L154.1,133.8z M151.7,132.8l0.5,0.1
			l0.2-0.5l-0.6-0.2L151.7,132.8z M115.8,132.5l0.3-0.4l0.2,0.4l-0.5,0.4V132.5z M154.6,132.2l-0.2-0.4L154,132l0.1,0.5L154.6,132.2
			z M154.9,131.6l-0.5,0.2l0.7,0.2L154.9,131.6z M152.2,131.4l0.1,0.4l0.4-0.1l0.4-0.2L153,131L152.2,131.4z M118.3,134.4l-0.5-0.2
			l-0.7,0.4v0.7l-0.3,0.3l-0.3-1.2l0.3-0.8l-0.2-0.3l0.5,0.5l0.4-0.2h0.1l0.2,0.2l0.2-0.9l1.2-0.8l0.2-1l0.3,0.3l0.7-0.4l0.4,0.7
			l-1,0.8l-0.4,0.5l-0.5,0.3l-0.5,0.3l1.2,0.1l1.1,1.2l0.5-0.5l-0.5-0.4l0.4-0.4l0.3-0.4l-0.3-0.7l0.1-0.7l0.7,0.1l0.4,0.4l-0.7,0.4
			l0.4,0.5l0.7,0.6l-0.1,0.1l-0.7-0.1l-0.4,0.5l0.5,0.5l0.8-0.2v0.5l-0.6,0.3l-1.5,1.1l-0.5,0.1v0.5l-0.4-0.3l0.6-0.8l0.7-0.4
			l-0.7-0.4l-0.6-0.6l-0.9-0.3l0.1,1L118.3,134.4z M148.3,129.9l0.5,0.3v0.3l-0.3-0.2l-0.6,0.5l-0.1-0.4L148.3,129.9z M121.2,129.9
			v0.4l-0.5-0.3L121.2,129.9z M150.3,129.8l0.1,0.7l-0.7-0.2l-0.1-0.7L150.3,129.8z M148.8,129v0.5h-0.4l-0.1-0.4L148.8,129z
			 M155.8,129l-0.5-0.3l-0.2,0.2l-0.1,0.5l0.6-0.1L155.8,129z M119.3,129.9l-0.3,0.3l-0.3-0.5l0.6-0.5l0.1-0.4l0.7,0.1v0.7h-1
			L119.3,129.9z M121.4,127.7l0.7,0.3l-0.7,0.5l-0.1-0.5L121.4,127.7z M120,127.7l-0.6-0.1l0.3-0.2L120,127.7l0.3,0.3L120,127.7z
			 M113.9,127.7l-0.5,0.4v-0.8h0.4L113.9,127.7z M149,127.1l0.5,0.1l-0.2,0.4l-0.6,0.3l0.3,0.6l0.6-0.5l0.1,0.6l-1.4-0.1l-0.1-1.3
			L149,127.1L149,127.1z M115.4,133.7l-0.3-0.2l0.4-0.3l-0.3-0.1l-1.3,0.1l-0.5-1.4l0.4-0.7l0.3,0.1l0.3-0.4l-0.8-0.2l-0.7,0.1
			l-0.1-0.3l0.5-0.2l-0.3-0.5h-0.6l0.8-0.7h1.4l-0.1,0.5l-0.5-0.1v0.5l0.7,0.5l0.7-0.1l0.4-0.8l0.9,0.3l0.4-0.7l-0.2-0.7l-0.7,0.7
			l-0.8-1l0.4-0.8l0.3,0.1l0.7,0.3l0.4,0.5l0.3,1.2l0.7,0.7l0.1,0.7l-0.8,0.2l-0.4-0.6l-1-0.3l-0.6,0.8l-0.5,0.3l-0.5,0.5l0.1,0.4
			l-0.7,0.2v0.4h0.7l1-0.8l0.5-0.7l0.7,0.2l0.8,0.3l-0.3,0.4l-1.1-0.3l-0.8,0.5l-0.3,0.1l-0.1,0.7l0.7,0.3l-0.1,0.3L115.4,133.7z
			 M156.1,134.2l0.9,0.3l-0.8,0.7l-0.8,1.1l-0.1,0.5l0.6,0.6l-0.1,0.2l-0.2,0.3l-0.7-0.7l-0.5-0.3l-0.4,0.3l-0.5-0.4l0.5-0.4
			l0.5,0.1l0.3-0.3l0.1-0.3l0.3-0.7l-0.7,0.1l0.2-0.5l-1.2-0.9l-1,0.3l0.3,0.1l0.7,0.3l-0.7,1l-0.5,0.1l0.4,0.3l-1,0.1l-1.4,0.1
			l-0.5,0.1l-0.5-0.2h0.4l0.3-0.1h0.5l0.2-0.4v-0.4l0.7,0.3l1.2-0.5l-0.1-0.8L152,135l-0.5,0.4l0.2-0.7l-0.2-0.7l-1.5-0.2l0.2,0.9
			l-0.5,0.6l-0.6,0.1l-0.8-0.3l-0.7-0.7V134l0.7-0.1l0.5,1l0.3-0.4l0.1-0.6l-1-0.5l-0.9,0.1l-0.2-0.6l1,0.1h1.2l1,0.3l0.3-0.4
			l-0.1-0.6l-0.4-0.1l-0.6,0.2l-0.2-0.5l0.4-0.4l-0.1-0.3l-0.5,0.1l0.6-0.7l1.1,0.7l0.9-0.8l-0.3-0.8V129h-0.9l-0.3-0.1v0.1l1-0.1
			l0.7-0.8l0.3-0.3l0.5-0.1l-0.1-0.6l0.1-0.6l0.5-0.1l0.1,0.7l-0.1,0.3l0.5,1.1l-0.3-0.3l-0.6,0.6l-0.7,0.7l0.9,0.5l1.4-0.5l0.2-0.7
			l0.3-0.3l0.7-0.1l0.3-0.6l0.5-0.8l0.7-0.1l-0.2,0.8l-0.7,0.5l0.1,0.4l0.8,0.3l-0.4,0.8H156l-0.4,0.9l1,1.4l0.8,1l-0.7,0.5
			l-0.5-0.4l-0.3-0.5l-0.1-0.7l-0.5,0.7L156.1,134.2z M120.5,127.3l0.1-0.7l0.5,0.1l0.9-0.4v0.5l-0.8,0.4l0.1,0.3L120.5,127.3z
			 M119.4,126.5l-0.3,0.1v-0.4l0.3-0.2V126.5z M152.4,125.6l-0.1,0.1l-0.2-0.3L152.4,125.6z M150.4,126l-0.4,0.1l-0.5-0.4v-0.3
			l0.3,0.1l0.5,0.3L150.4,126z M116.5,124.8l0.3,0.4h-0.3V124.8z M118.8,125.8l-0.5,0.4l-0.3-0.1l0.3-0.7l0.5-0.7l0.7-0.1v0.6
			L118.8,125.8z M152.4,125.6l-0.3-0.6l0.5-0.5l0.4,0.8L152.4,125.6z M122,124.7l-0.4-0.4l0.5-0.3v0.4L122,124.7z M115.4,123H115
			l-0.3,0.4l0.5,0.3L115.4,123z M149.7,123.2l-0.5-0.2l-0.3-0.4l0.6,0.2L149.7,123.2z M113.2,124.9l0.1-0.5l0.5-0.2l0.6-0.1
			l-0.3-1.3l1.6-0.3l0.6,0.7l-0.4,0.7l1,0.3l0.5,0.5l0.5,0.3l-0.7,0.3l-0.7-0.5l0.1-0.4l-1.1,0.4l-0.5,0.6l0.7-0.1l-0.1,0.2l0.3,0.4
			l-0.9,0.3l-1.2,0.7l-0.2-0.8l-0.5-0.3l0.8-0.2l0.1-0.4L113.2,124.9z M156.6,124.7l0.3,0.3l-0.7,0.5l0.1,0.6l0.3,0.5l-0.6,0.3
			l-0.3-0.7l-0.5-0.3l0.3,0.8l-0.9,0.3l-0.5-0.5l0.3-0.4l-0.1-0.6l0.7,0.2l1-0.5l0.5-0.1l-0.7-0.3l-0.7-0.1l-0.4,0.1l-0.7-0.3
			l-0.5-0.2l-0.7-0.7l-0.5-0.3l-0.3,0.4l-1-0.3v-0.7l-0.5-0.2l0.5-0.2l0.6,0.7l0.3,0.5l0.4-0.2l0.3-0.5l0.2-0.8l0.5,0.3l-0.2,1
			l0.9,0.3l0.5-0.5l0.4,0.1l-0.3,0.9l0.3,0.3l0.8-0.1L156.6,124.7z M151.5,121.5v-0.7l0.5,0.1l0.5,0.7l-0.1,0.8l-0.1-0.5
			L151.5,121.5z M119.8,122l-0.5,0.2l-0.5-0.4l-0.1-0.8l0.7-0.2l0.6,0.8l0.7-0.1l0.1-0.2l0.2,0.2l-0.4,0.1v0.4H119.8z M122.9,120.6
			l-0.1,0.3l-0.5,0.2l0.2-0.1l0.2-0.2L122.9,120.6z M153.8,120.5l-0.3,0.6h-0.7l0.3-0.5L153.8,120.5z M120.7,120.5l-0.3,0.2
			l-0.1-0.5l0.1-0.3L120.7,120.5z M114.8,120.8l1.5,0.5l0.5-0.5l0.1-0.8h-0.4H116l0.1,0.4l-0.2,0.3l-0.4-0.6l-0.4-0.1L114.8,120.8z
			 M155.4,120.3v0.5l-0.3,0.3l-0.2-0.3l0.5-0.1l-0.8-0.5l-0.8-0.7h0.8L155.4,120.3z M115.5,119.8l-0.1-0.3l-0.9,0.3l0.2,0.3
			L115.5,119.8z M150.1,120l0.5-0.5l0.3-0.1l1.1-0.1l0.7,0.7l-0.3-0.3l-0.8-0.3l-0.8,0.6l-0.8,0.8L150.1,120z M150.9,118.1h0.7
			l-0.3,0.4l-0.5,0.1L150.9,118.1z M148.5,118.5l0.3-0.3l0.5,0.1l-0.3,0.5l-0.7,0.1L148.5,118.5z M116.9,119.4l0.8-0.8l-0.7-0.4
			l-0.6,0.1l-0.2,0.5l0.5,0.1l-0.5,0.5L116.9,119.4z M153.4,117.8l0.1-0.5l0.3,0.5l-0.5,0.3L153.4,117.8z M144.6,117.4l0.4-0.1
			l-0.1,0.4h-0.4L144.6,117.4z M121.9,117.1l0.1,0.3l-0.3,0.4l-0.1-0.4V117L121.9,117.1z M152.3,116.7l0.5,0.3l-0.5,0.2H152
			L152.3,116.7z M145.4,133.9l-0.7,1.2l-0.4,1l-0.9,1l-3.1,2.2l-1.2,0.3l-1,0.5l-1.3,0.3h-3.6l-1.4-0.2l-2.3-1l-1-0.6l-1.8-1.4
			l-0.8-0.9l-0.9-1.2l-0.3-1l-0.6-1.2l-0.5-2.4v-4l0.3-1.2l0.2-1.2l0.5-1.2l0.4-1.2l1.6-2.1l3.3-2.2l0.8-0.3l2.5-0.7l1.8-0.1
			l3.1,0.4l1.2,0.3l1.2,0.5l2,1.4l2.5,2.7l0.8,2.5l0.6,1.2l0.2,1.2l-0.1,4l-0.5,2.4L145.4,133.9z M149.7,116l0.3,0.2l-0.4,0.5
			L149.7,116z M121.7,116.3l-0.5,0.1l0.1-0.4l0.4-0.1V116.3z M118.9,116.9l1.4-0.7l0.3-0.5l0.3,0.1l-0.4,0.9l-0.5,0.5l-0.6,0.5
			l0.4,0.3l0.5,0.2l0.2,0.6l0.6-0.2l-0.2,0.6l-0.8,0.5l-0.3-0.4l-0.1-0.7l-1.4-0.8l-0.4-0.8v-0.4l0.3,0.3L118,117L118.9,116.9z
			 M114.3,118.9l0.6-0.6l0.6-0.5l0.1-0.8l0.6,0.1l0.3-0.4l-0.5-0.4l0.7-0.5l0.7-0.3l0.1,0.6l0.2,1.5l1.2,1.4l0.3,0.7l-0.7,1
			l-1.1,0.4l0.5,0.3l0.6,0.5l-0.4,0.4l-0.1,0.6h-0.7l-1.3-0.7l-1.2-0.1l-0.1-0.5l-0.5,0.1v-0.6l-0.1-1.4L114.3,118.9z M122.9,115.3
			l0.5-0.2l0.5-0.6l-0.1,0.8L122.9,115.3z M125.3,114l-0.2,0.3l-0.5-0.1l0.3-0.3L125.3,114z M143.1,114.2l-0.6-0.4l-0.1-0.5l0.6,0.3
			L143.1,114.2z M123.1,113.4l0.5-0.4l0.1,0.3l-0.3,0.3h-0.7L123.1,113.4z M118.9,113.1h0.6l0.3,0.1l0.7-0.5l0.7-0.1l-0.3-0.1
			l-0.7-0.1l-0.3-0.4l0.8-0.5l0.5,0.5l0.1,0.4l0.6,0.2l-0.3,0.4l-0.4-0.3l-0.2,0.7l0.4,0.5l1.1,0.5l-0.1,0.5l-1,0.4l-0.5-0.4
			l0.5,0.1v-0.6l-0.7-0.3l-0.7,0.3v-0.5l0.1-0.5h-1l0.1,1.5l-0.5,1l-0.7-0.1l-0.7-1.7L118.9,113.1z M126.8,111.2l-0.1,0.5l-0.4,0.3
			l0.1-0.5L126.8,111.2z M139.1,111l0.4,0.1l0.1,0.5l-0.5-0.1V111z M142.4,110.9l0.3,0.4l0.5,0.1l-0.1,0.5l-1,0.1l-0.3-0.7
			L142.4,110.9z M136,110.8l-0.2,0.3l-0.3-0.1l0.3-0.4L136,110.8z M145,110.5l0.1,0.3l-0.5-0.1l-0.1-0.3L145,110.5z M131.9,110.1
			h0.3l-0.3,0.3l-0.4-0.2L131.9,110.1z M123.9,110.9l0.3-0.3l0.5-0.5l0.2,0.3l-0.4,0.6l-0.7,0.2L123.9,110.9z M138.1,109.9v0.5
			l-0.4-0.1l-0.1-0.3L138.1,109.9z M126.4,109.2l0.8,0.1l-0.3,0.6l-0.7-0.1L126.4,109.2z M125.9,108.5l0.1,0.4l-0.4,0.1l-0.1-0.4
			L125.9,108.5z M128.8,108.4l0.8,0.4l-0.3,0.6l-0.9-0.4l-0.2-0.7L128.8,108.4z M142.2,108l0.8,0.4l0.7,0.4l-0.1,0.3l-0.6,0.1
			l-0.7-0.5L142.2,108L142.2,108z M131.9,107.9l0.4,0.3l-0.5,0.1l-0.2-0.2L131.9,107.9z M135.8,107.7l-0.4,0.2v0.3l-0.1-0.3
			L135.8,107.7z M139.7,107.6l0.8-0.2l-0.1,0.7l0.4,0.4l0.3,0.5l-0.5-0.3l-0.6-0.2l-0.6,0.2l-0.4-0.2L139.7,107.6z M158.4,125.1
			l-0.5-2.7l-1.6-4.9l-1.2-2.4l-1.4-2l-1.8-2l-1.9-1.6l-1.5-1l-2-0.8l-1-0.7l-5-1.6l-3.8-0.7l-1.8-0.1l-6.9,1l-4.9,1.8l-1,0.7
			l-1.2,0.6l-2.2,1.6l-3.2,3.7l-2,3.5l-1,2.5l-1.1,5l-0.2,5.3l0.2,1.4l0.3,1.2l0.1,1.2l0.6,2.5l3,5.9l0.8,0.8l0.8,1l1,0.9l0.7,0.8
			l2.1,1.7l5.1,2.6l1.9,0.7l1.4,0.1l2.3,0.5l1.4,0.1l3.6-0.1l3.9-0.5l4.9-1.6l2.1-1.2l1-0.8l1.2-0.6l1.8-1.6l0.8-1.2l0.9-0.9
			l2.9-4.4l1-2.5l0.5-2.5l0.1-1.2l0.3-1.3l0.1-1.4l0.3-1.9L158.4,125.1z"/>
	</g>
	<g>
		<defs>
			<rect id="SVGID_17_" x="-8.9" y="-7" width="847.7" height="1067"/>
		</defs>
		<clipPath id="SVGID_18_">
			<use xlink:href="#SVGID_17_"  style="overflow:visible;"/>
		</clipPath>
		<polygon class="st8" points="159.8,72.7 164,153.4 201.5,154.6 205.8,72.7 		"/>
	</g>
	<g>
		<defs>
			<rect id="SVGID_19_" x="-8.9" y="-7" width="847.7" height="1067"/>
		</defs>
		<clipPath id="SVGID_20_">
			<use xlink:href="#SVGID_19_"  style="overflow:visible;"/>
		</clipPath>
		<path class="st9" d="M183.7,148.4l-0.5-0.1l-0.7,0.1l-0.6-0.1l-0.6,0.6l0.7,0.4l0.5-0.1l-0.1-0.5l0.7,0.1l-0.3,0.3l1.2,0.2
			l-0.5-0.5v-0.4H183.7z M188.5,148.2l-0.3-0.3l-0.2,0.2l0.1,0.3l0.4,0.4l0.3,0.1l0.8-0.1l-0.3-0.3L188.5,148.2z M175.3,148
			l-0.2,0.3l-0.6,0.3h0.8l1-0.4l-0.2-0.4L175.3,148z M189.8,149l-0.9,0.3l-0.3-0.1l-0.2-0.3H188l-0.3-0.4l0.3-0.6l0.1-0.7l0.3,0.1
			l0.9,0.7l0.6,0.2L189.8,149z M191.3,147.2l-0.6,0.3l-0.1-0.4l0.1,0.3l0.3-0.4l0.4-0.3L191.3,147.2z M172.5,147.2l0.3,0.2v-0.7
			l-0.5-0.1L172.5,147.2z M182.3,147.7l0.4,0.3l0.5-0.3l0.3-0.3l-0.5-0.2l0.1-0.4l-0.4-0.6l-0.5,0.3l0.5,0.6L182.3,147.7z
			 M194,146.8l-0.5-0.2l-0.7,0.3l-0.7-0.5l0.5-0.1l-0.1-0.3l0.3,0.2l-0.3,0.3l0.4,0.1l0.8-0.2l0.8,0.3L194,146.8z M172.2,146.2
			l-0.3-0.1l-0.6-0.1l-0.3,0.4v0.1l0.5-0.2L172.2,146.2z M178.8,146l0.5,0.8l0.2-0.1v-0.3l-0.1-0.3L178.8,146z M189.6,147.3l0.1,0.3
			l-0.3-0.3l-0.3-0.8l-0.5,0.6l-0.4-0.7l0.2-0.5l0.9,0.5L189.6,147.3z M186,146.5l-0.3-0.3l-0.4,0.1l-0.4,0.3l-0.9-0.1l-0.3-0.7
			l-0.4,0.3l0.5,0.7l1.4,0.5l0.7-0.5L186,146.5z M176.3,146.9l0.3-0.3l-0.1-0.6l-0.3-0.3l-0.7,0.5l0.6,1l0.8,1h0.4l0.2-0.3v-0.3
			l-0.5-0.7L176.3,146.9z M179.8,145.6l0.7,0.3l0.6,0.1l0.2-0.2l-0.7-0.3L179.8,145.6z M190.2,146l-0.3,0.3l0.2,0.7l-0.5-0.7v-0.9
			l0.6,0.1V146z M188.1,144.9l0.1,0.3l-0.4-0.2v0.4l-0.3,0.1v-0.8l0.3-0.3L188.1,144.9z M186.9,144.3l0.3,0.1v0.7l-0.5-0.1
			L186.9,144.3z M196.1,145l-0.5-0.6l-0.6,0.1l0.2-0.1l0.5-0.1l0.6,0.3L196.1,145z M171.1,144.3l-0.3-0.1l-0.1,0.5l0.7,0.2l0.1-0.4
			h-0.4V144.3z M180.2,144.9h0.8l-0.5-0.7L180,144v0.5l0.6,0.2L180.2,144.9z M175.9,144.2l-0.7-0.1l0.4,0.5L175.9,144.2z
			 M193.7,144.1l0.2,0.3l-0.1,0.1l-0.4-0.1l-0.4-0.2l0.1-0.3L193.7,144.1z M173.4,146.2l0.3-0.5l0.6,0.3l-0.1-0.6l0.3-0.1l-0.6-0.1
			l-0.3-0.7h0.3l0.1-0.7l-1-0.1l0.3,0.8l-0.2,0.5l-0.3,0.2l-0.7-0.1l-0.2,0.3l0.3,0.4l-0.1,0.2l1.3,0.7l0.7,1.1l0.2-0.5l-0.3-0.6
			L173.4,146.2z M194.2,144.1l-0.3,0.2l0.1-0.2l-0.3-0.5l-0.3-0.1l0.1-0.3l0.4,0.3l0.6,0.1l0.1,0.4L194.2,144.1z M187.9,143.9
			l0.6-0.5l0.3-0.4l0.5,0.3l-0.1,0.3l-0.3,0.3l-0.2-0.3l-0.4,0.6L187.9,143.9z M184.9,143.7h0.5l-0.6-0.7h-0.7l0.3,0.3L184.9,143.7z
			 M174.2,142.8l0.3,0.4l0.1,0.6l0.7,0.2l-0.3-1.2H174.2z M170.8,142.5l-0.3,0.2l0.1,0.4h0.5L170.8,142.5z M184.4,143.5L184,143
			l-0.1-0.5l-0.3-0.4l-0.1,0.4l-0.1,0.9l0.8,0.8v-0.1l0.1,0.1l0.3-0.3L184.4,143.5z M175.8,143.8l0.8,0.1l0.3-0.5l-0.2-0.9l-0.5-0.5
			l-0.3,0.6l-0.1,0.5l0.1,0.3l-0.2,0.2L175.8,143.8z M180.8,142.2l0.5-0.1l0.6-0.1l-0.1,0.5l0.3,0.1h0.8l0.3,0.2l0.1-0.3l0.3-0.3
			l0.9,0.4l1.5-0.1l0,0.5l0.2,0.4h0.5v0.5l-0.6-0.1l-0.3-0.3l-0.4,0.7l0.4,0.5l0.5-0.3l-0.1,0.5l-0.7,0.3l0.1-0.4l-0.3-0.5l-0.4-0.2
			l-0.5,0.3l-0.1-0.1h-0.1l-0.1,0.4l-0.5,0.4l-0.1-0.5l-0.1-0.5l-0.5-1.2l-0.8-0.1l-0.7-0.4l-0.1,0.6l-0.7,0.3l-0.5-0.6L180.8,142.2
			z M190.3,141.9v0.8l0.6,0.8l0.3,0.3l-0.3,0.3l-0.2-0.5l-0.6-0.5l-0.6-0.7l0.3-0.3L190.3,141.9z M194.4,141.7l-0.3,0.8l-0.5-0.5
			L194.4,141.7z M178.2,142.1l-0.4-0.6l-0.7,0.3l-0.1,0.8l0.5-0.3L178.2,142.1z M192.6,141.4l0.3,0.4l0.3,0.3l-0.4,0.1l-0.2-0.2
			l-0.4-0.3l-0.1-0.4L192.6,141.4L192.6,141.4z M172.9,143.2l0.7-0.7l0.5-0.1v-0.3l1,0.1l-0.2-0.5l-0.7-0.1l-0.8-0.3l-0.7,0.6
			l0.1,0.6L172.9,143.2z M188,141.9l1.2-0.8l0.1,0.5l-0.3-0.2l-0.3,0.7l-0.5,0.4l-0.5,1.1l0.1,0.3l-0.5-0.6L188,141.9z M191.1,140.8
			l-0.3,0.6l-0.3,0.1L191.1,140.8z M191.5,141.2l0.6-0.3l-0.2-0.2l0.3,0.2l-0.6,0.6L191.5,141.2z M171.7,142.1l0.7-0.5l0.1-0.3
			l-0.5-0.1l-0.5-0.5l-0.1-0.3l-0.4-0.1l-0.3,0.4l-0.1,0.5l0.5-0.1l0.3,0.3v0.4l-0.5,0.2l0.1-0.3l-0.8,0.3l-0.3-0.2l0.1-0.8
			l-0.5,0.5l-0.6,0.2l0.4,0.2l0.7,0.5l0.3,0.2l0.3-0.2l0.3,0.2l0.3-0.3L171.7,142.1z M196.5,140l-0.2,0.3l-0.1,0.5l-0.3-0.1l0.3-0.3
			l-0.3-0.5l0.8,0.1H196.5z M172.6,140.3l-0.4-0.5l-0.3,0.3l0.6,0.5L172.6,140.3z M193,139.3h0.3l0.3,0.1l0.3,0.3l-0.4,0.5l-0.7,0.3
			l-0.6-0.2l0.1-0.4l0.4,0.3l0.1,0.1l0.3-0.3L193,139.3z M170,139.3l0.3-0.1l-0.4-0.3l-0.8,1l-1.2-0.1l-0.3,0.5l0.8-0.3l0.5,0.3
			l1.4-0.1l0.2-0.4l-0.5-0.1V139.3z M186,148.4l0.9,0.1l0.1,0.2l0.2,0.7l-0.4,0.5l-0.4,0.3l-0.3-0.2l0.5-0.5l0.4-0.6h-0.7l-0.1-0.3
			l-0.4,0.4l-0.2-0.4l-0.8-0.3l-0.3-0.7l-0.2,0.2l-0.3,0.1l-0.4-0.3l0.1,0.5l1.6,1.3l-0.1,0.1l-0.3,0.2l-0.3,0.7l-0.6,0.1l0.3-0.3
			l0.1-0.6l-0.4,0.3l-0.7-0.1l-0.3,0.5l-0.1,0.6l-0.7-0.3l-1.1,0.1l-0.2-0.2l0.5-0.3v-0.3h-0.9l-0.2,0.6l-0.5-0.1l0.1-0.7l-0.3-0.3
			l-0.2,0.5l-0.3,0.4l-0.8,0.1L178,150l0.1-0.8l0.7-0.3l-0.7-0.2l-0.8,1v-0.5l-1.2,0.2l0.1-0.5l-0.8-0.1l-0.1,0.5l0.3,0.1l-0.3,0.1
			l-0.9-0.8h-0.8l-0.7-1l-0.4,0.2l0.2,0.3l0.1,0.4l-0.3-0.3l-0.1-0.3l-0.2-0.2l-0.3-0.1l-0.7-0.3v-0.8h-0.1l0.1-0.1l-0.2-0.1
			l-0.2,0.2l-0.3,0.7l-0.5-0.6l-0.3-0.1l-0.7-0.7l0.7-1.2l0.3,0.5l0.3-0.5l-0.7-0.4l0.8-0.5l0.2-0.7l-0.3-0.3l-0.3-0.3l-0.1,0.5
			l-0.2,0.6l-0.5,0.3l-0.3,0.1l-0.5,0.3l-0.3,0.1l0.1-0.5l0.5-0.3l-0.2-0.2V143l0.2-0.3l-0.7,0.1l-0.5,0.3h0.5l0.1,0.3h-0.4
			l-0.1-0.3l-0.4,0.2l-0.3-0.6v-0.4l-0.5,0.2v-0.7l0.5-0.3l-0.4-0.5l0.5-0.5l0.1-0.3l-0.7-0.7l0.4-1l-0.3-0.5l0,0l1-0.1v0.5l0.4-0.1
			l0.5-0.6l0.7-0.1l0.1,0.6l0.7-0.5l0.6,0.7l-0.3,0.4l0.5,0.1l0.5,0.2l-0.2-0.6l-0.3-0.5l0.3-0.4l0.1,0.1l1.4,1.5V139l0.3-0.8
			l0.8,0.2l-0.6,0.2l0.1,0.6l0.6,0.1l0.2,0.6l-0.5,0.5l-0.5-0.1l0.6,0.6l0.7,0.1l0.2-0.4l-0.3-0.3l0.6-0.2l0.3-0.3l0.1-0.2l0.1,0.4
			l-0.2,0.3l0.3,0.4l-0.5,0.3l-0.5,0.3l-0.3,0.3l0.5,0.1l0.4,0.1l0.4-0.6l0.3-0.3l0.1-0.7l0.9,0.2l0.8,0.8l0.8,0.5l0.3,0.4v0.6
			l-0.5,0.4l-0.3-0.1l-0.3,0.7l-0.2,0.8l1-0.1l-0.4,0.4l0.4,0.4l0.6-0.4l0.2-0.4l-0.3-0.4l-0.4-0.1l0.1-0.4l0.7-0.3l-0.2-0.5
			l0.8,0.1l0.7,0.8l0.5,0.4l0.8,0.5l-0.3,0.2v0.1l0.2-0.1l-0.3,0.3l0.6,0.1l0.3-0.7l0.3-0.1l-0.1,0.3l0.5,0.7l0.1,0.8l0.5-0.3
			l0.8,0.4l0.3,0.5l0.7-0.8l0.1-0.3l0.3,0.5l0.4,0.2l1.1,0.3l0.3,0.5l0.3-0.1l0.1,0.5l-0.6,0.1l-1.2-0.7l-0.3,0.5l0.2,0.3l-0.3,0.3
			l0.6,0.1l0.7-0.5l0.6,0.6l-0.3-0.1l-0.4-0.1l-0.3,0.5h-0.9L186,148.4z M194.3,138.1l-0.4,0.7l-0.5-0.7l-0.7-0.1l-0.3-0.2l-0.1,0.3
			l-0.3,0.1l0.2-0.5l1-0.2l-0.1-0.7l-0.1-0.3l1.7,1.4L194.3,138.1z M191,136.1l-0.2,0.2l-0.1-0.2l-0.4-0.4h0.3l0.5,0.2l0.3,0.4
			L191,136.1z M190.1,134.6h0.6l-0.1,0.5l0.4-0.1l-0.2,0.3l-0.8-0.2L190.1,134.6z M193.1,132.8l0.5,0.1v0.3h-0.7L193.1,132.8z
			 M195.9,132.5l0.4,0.4l0.2-0.2l0.3-0.1l-0.2,0.2l-0.8,0.3l-0.1-0.4L195.9,132.5z M188.4,131.8l-0.1,0.2l-0.1,0.6l-0.3,0.3
			l-0.1,0.5l-0.3-0.3l0.4-0.3v-0.3l-0.2-0.1l0.1-0.5l0.6-0.4l0.3,0.3H188.4z M187.1,131.4l0.5-0.5l0.3,0.5l-0.3,0.3l-0.6,0.2
			L187.1,131.4z M189.2,131.3l-0.4-0.1l0.3-0.3l0.4-0.3L189.2,131.3z M177.4,130.4l-0.2,0.5l-0.3-0.7l0.7-0.3L177.4,130.4z
			 M176.7,130.4l-0.5,0.2l-0.3,0.1l-0.1,0.3l-0.3,0.3l1-0.1l0.2,0.4l-0.8,0.2l-0.6-0.6l1-1l0.5-0.1L176.7,130.4z M179.5,130
			l-0.2,0.4l0.1,0.6l-0.4-0.1l-0.2-0.5l0.3-0.6l0.4-0.2L179.5,130L179.5,130z M188.3,129.9l-0.5-0.3l0.5-0.3V129.9l0.2-0.3h0.3
			l0.1,0.3H188.3z M181,129.6v-0.3l0.3,0.4L181,129.6z M185.7,130.4l-0.3-0.1l0.1-0.7l0.4-0.5l-0.1,0.8l0.4,0.3h-0.5V130.4z
			 M184.2,129.8l-0.3,0.3l-0.2-0.3l-0.3-0.6v-0.7l0.5,0.4l-0.3,0.4l1.2-0.1l0.1,0.5L184.2,129.8z M182.8,128.4l-0.5,0.5l-0.7-0.5
			l0.4-0.5l0.8,0.1l0.2,0.3L182.8,128.4z M189,128.5l-0.3-0.3l0.1-0.3l0.1,0.3L189,128.5z M180.9,128.6l-0.2-0.3l0.2-0.4l0.5,0.4
			L180.9,128.6z M177.8,128.9l0.3,0.5l-0.3-0.1l-0.9-0.7l0.3-0.5l0.1-0.5l0.9,0.2l0.2,0.8l-0.3-0.4l-0.4,0.1L177.8,128.9z
			 M187,127.5l0.6,0.2l0.3,0.5l-0.1,0.2l-0.4,0.2l-0.1-0.7l-0.7-0.3l-0.1-0.4L187,127.5z M190.1,127.5l0.3-0.4l0.1,0.3l0.4,0.3
			l0.3,0.1l-0.2,0.3l-0.3-0.2l-0.1,0.3l-0.7,0.5l0.2-0.8l0.3-0.3L190.1,127.5z M188.7,126.9l0.7,0.3l-0.2,0.5l-0.7-0.5l-0.3-0.1
			L188.7,126.9z M185.5,128.4l-0.9-1.3l0.8-0.3l0.3,0.5l-0.3,0.1l0.5,0.5l0.6,0.7l0.5,0.5l-0.6-0.3L185.5,128.4z M177.7,126.4
			l-0.2,0.5l-1-0.4l-0.5-0.6l0.8,0.1L177.7,126.4z M184.7,125.5v0.3l0.3,0.3l0.4,0.3l-0.3,0.1l-0.2,0.2l-0.3-0.3l-0.3-0.5
			L184.7,125.5z M174.6,130.5l-0.1-0.8l-0.9-0.2l0.1,0.8l-0.4,0.1l-0.3,0.2v-0.7l0.3-0.2l-0.5-0.5l-0.1-0.6l-0.3-0.5l-0.1-0.3
			l-0.3-0.2l-0.2,0.2l-0.3,0.5l0.3,0.1l0.1,0.3l-0.6,0.1l0.1,0.3l0.1,0.5l-0.6-0.5v-0.5l0.5-0.1v-0.9l0.6-1l0.5,0.2l-0.2-0.7
			l-1.4-0.1v0.6l-0.1,0.8l-0.8,0.2l-0.4-0.5l0.4,0.3l0.3-0.4l0.5-0.8l0.1-0.9l0.6-0.4l-0.3,0.4l0.3,0.3l0.4-0.1l-0.2-0.2l0.4-0.4
			h0.4l-0.3,0.3l-0.3,0.1l1,0.5l1.2,0.5l0.2,1l0.3,0.3l-0.3,0.8l-0.4-0.4l0.3-0.4l-0.1-0.2l-0.3-0.4l-1,0.1l-0.5,0.4l0.1,0.1
			l0.8,0.1l-0.1,1l1.2,0.1l0.6-1.4l0.2,1.1l0.3,0.6l0.3-0.1l0.3,0.3l1,0.1l-0.5,0.3l-1.2,0.1l-0.2,0.5l-0.1,0.6L174.6,130.5z
			 M180.4,128l-0.5,0.3v0.4l0.5,0.1l0.5,0.5l-0.5-0.2l-1.2-0.1l0.2-0.3v-0.4l0.1-0.2l0.2,0.3l0.2-0.2v-0.3l-0.3-0.2l-0.3-0.7
			l0.9,0.6l0.6-0.3l0.6-0.7l-0.5-0.5l0.1-0.5l-0.2-0.5l0.7,0.1l0.8,0.7l-0.3,0.4l-0.3-0.1l-0.2,0.9L180.4,128z M173.8,125l0.2,0.7
			l-0.6-0.5L173.8,125z M169.7,126l-0.2-0.4l-0.1,0.5l-0.6,0.3l-0.4,0.1l0.1,0.3l0.5,0.5l-0.3,0.4l-0.4-0.5l-0.2-0.7l-0.7-0.3
			l0.3,0.1l0.6-0.5v-0.4l0.3-0.3l0.1,0.6l-0.3,0.3l0.5-0.1l1-0.1l0.1,0.3L169.7,126z M178.6,124.5l0.2,0.3l-0.5,0.4l-0.3-0.3
			L178.6,124.5z M172.8,124.2l-0.3,0.5l-0.7,0.3l0.1-0.1l0.3-0.7L172.8,124.2z M173.3,124.1l0.1-0.4h0.3l0.1,0.5l0.1,0.4l-0.4-0.1
			L173.3,124.1z M168.8,123.6l0.7,0.2l-0.1,0.3l0.1,0.7l0.5-0.3v0.5l-0.7,0.1l-0.2-0.8l-0.1-0.5l-0.5,0.5l-0.2-0.4L168.8,123.6z
			 M171.8,120.9l-0.2,0.3l-0.3,0.3l-0.3,0.7l0.4,0.1l0.6-0.3v-0.1h0.1l-0.1-0.5L171.8,120.9z M176.7,123.9l0.5-0.2l0.1,1l-1,0.9
			l-0.5-0.4l-0.4,0.3l-0.3,0.6l-0.5-0.3l-0.2-0.5l0.7-0.3h0.5l0.5-0.7l-0.9-0.4l-0.8,0.3l-0.3-0.3l0.7,0.1l0.5-0.1v-0.3h-0.8
			l-0.3-0.1l-0.7-0.4l-0.1-0.6l-0.2,0.9l-0.6,0.2l-0.5,0.1l0.1-0.8l0.9-0.8l1.1-0.3v-0.6l-0.3-0.2l0.3-0.2l0.8,0.8v0.7l0.3-0.1
			l0.2-0.9l0.3,0.3l0.7,0.5l-0.8-0.1l-0.1,0.3v0.4l-0.5,0.1l-0.3,0.5l-0.3,0.1l0.3,0.1l0.3-0.3l0.5,0.2l0.5,0.3L176.7,123.9z
			 M168.6,121.3l0.6-0.4l0.1-0.4l0.3,0.3l-0.4,0.6l-0.7,0.2L168.6,121.3z M166.6,121.1l0.1-0.8l0.2-0.1h0.3l-0.2,0.6l-0.1,0.3
			l0.4,0.1l0.3,0.5l-0.4,0.1L166.6,121.1z M167.6,119.1l0.4-0.3l0.3,0.3l-0.3,0.2l-0.3,0.2l-0.3-0.3L167.6,119.1z M171.1,118.7
			l-0.3-0.3l0.3-0.3l0.1,0.3L171.1,118.7z M170.6,118.3l-0.3-0.3L170.6,118.3L170.6,118.3z M171.8,118.2v-1l0.4-0.4l-0.3,0.4
			l0.4,0.4l0.5,0.1l-1.2,1.6l-0.2-0.2L171.8,118.2z M170.9,121.9l0.4-0.7l0.1-0.3l0.3-0.8l1.2-1.5l1.4-1.2v-0.7l0.7-0.2l-0.2,0.7
			l0.2,0.5l-0.4-0.1l-0.3,0.1l0.3,0.3l0.4,0.7l-0.3,0.5h0.4l-0.2,0.3l-0.6-1l-0.2,0.2l-0.6,0.1l1,0.7l-0.1,0.4l0.1-0.3l-0.3-0.1
			l-0.1,0.4L174,120l-0.7-0.6l-0.8,0.3l0.1,0.4l-0.5,0.9l0.1,0.5l-0.2,0.1v0.1l-0.1,0.1l-0.1,0.3l-0.1,0.4l-0.5-0.1l-0.5-0.3h-0.8
			l0.5-0.7l-0.5-0.7l0.3-0.3h0.8v-0.5l0.3,0.1l-0.2,0.5l-0.3,0.3L170.9,121.9z M173.4,116.4l0.5-0.1l-0.1,1l-0.6,0.5l0.1-0.6
			l0.1-0.7V116.4z M167.9,116.2l-0.2,0.2l-0.2-0.3l0.1-0.2v0.1L167.9,116.2z M172,115.8l0.7-0.3l0.5-0.1l0.3,0.5l-0.1,0.4l-0.1-0.3
			l-0.1-0.4l-0.3,0.5l-0.3,0.5l-0.6-0.3l0.6,0.1l0.1-0.3L172,115.8z M175,115.5l0.3-0.5v0.3l0.2,0.1l0.3,0.1H175z M167.5,114.9
			l0.2,0.2v0.4l-0.3-0.3L167.5,114.9z M176.1,114.5l0.8,0.2l0.3,0.6l-0.4-0.1l-0.5,0.1l-0.3-0.2L176.1,114.5z M174,115.8l-0.9-1
			l0.5-0.3l0.6,0.2l0.4-0.3l-0.1,0.6l-0.7,0.3L174,115.8z M193.7,113.9l0.3-0.2v0.5l-0.3,0.2V113.9z M173.9,113.6l-0.2-0.3l0.7-0.1
			L173.9,113.6z M171.1,113.2v1l-0.2-0.5l-0.1-0.3L171.1,113.2z M170.3,112.9L170,113l0.3-0.3V112.9z M176.6,112.7l-0.3,0.1
			l-0.1-0.4L176.6,112.7z M184.4,112.4l0.2,0.2l0.1,0.5l-0.5-0.5L184.4,112.4z M172.9,112.2l0.3,0.3l0.2,0.5l-0.2,0.1l-0.4,0.3
			l0.4,0.2l-0.1,0.3l-0.3-0.5l0.3-0.7h-0.4l-0.1-0.3L172.9,112.2z M179.2,112.5l0.5-0.5l0.1,0.3l-0.2-0.2l-0.2,0.4l0.4,0.1l0.5,0.5
			l-0.5-0.1l-0.5-0.3L179.2,112.5z M169.9,111.9l0.1,0.3l0.2,0.5l-0.3-0.1l-0.3-0.5L169.9,111.9z M175.3,111.8l0.3-0.3h0.1l-0.3,0.5
			l-0.6-0.2l-0.1-0.5l0.3,0.2L175.3,111.8z M191.8,111.6l0.3-0.7l0.5-0.1l-0.7,1.1l-0.2-0.5L191.8,111.6z M174.8,110.9l-0.3,0.3
			l-0.1-0.6L174.8,110.9z M177.1,110.3h0.5l0.3,0.3l-0.7,0.4l-0.1-0.6l-0.3,0.3l-0.2-0.2L177.1,110.3z M183.4,110l0.2,0.3l-0.2,0.5
			l0.2,0.1l-0.5-0.1l-0.3-0.5L183.4,110z M173.5,110l0.4,0.3l0.4-0.1l-0.4,0.3l-0.1,0.5l-0.2,0.4l-0.1-0.4l-0.3-0.5l-0.1-0.4h0.4
			V110z M178.1,109.2l0.1,0.5l-0.7,0.1l-0.2-0.3L178.1,109.2z M185.3,109.2l0.1,0.3l-0.3-0.1l-0.2-0.4L185.3,109.2z M188.6,109
			l0.8-0.1l-0.5,0.3l0.3,0.3l-0.3,0.2l-0.2-0.4l-0.5,0.1L188.6,109z M180.2,109.2l0.3-0.5l0.2,0.2l-0.7,0.5L180.2,109.2z M200.7,134
			l-0.3-1.2l-1.3-2.4l-1.6-2l-1.1-0.9l-3.5-1.6l-5.3-1.3l-6.6-0.8l-2.7-1l-1-0.5l-1-1l-0.1-1.8l0.2-1.7l0.7-0.9l1.1-0.8l0.9-0.4
			l1.2-0.3l4.2-0.1l1.4,0.5l1,0.8l2.2,2.3l2,0.7l4.3,0.1l1.2-0.1l1.2,0.1l1.2-0.8l0.6-1.2l-0.5-2.5l-1-2.3l-0.8-1l-0.7-1l-0.8-1
			l-4.2-2.9l-3.6-1.2l-1.4-0.3l-1.2-0.1l-1.4-0.3l-3.6,0.1l-5.1,1l-1.2,0.5l-1,0.7l-1,0.4l-1.3,0.8l-0.9,0.8l-1.2,0.8l-0.7,1.1
			l-0.8,0.8l-0.5,1.2l-0.7,1l-0.9,3.8l0.1,4.4l0.5,1.8l0.8,2.3l1.6,2.1l1.8,1.7l2.3,1.4l3.7,1.2l2.3,0.5l5.3,0.4l1.2,0.2l1.3,0.1
			l2.3,1l0.9,0.8l0.3,1.7l-0.4,1.7l-1,0.9l-1,0.6l-2.4,0.7l-1.8,0.1l-2-0.1l-1.5-0.4l-1-0.5l-1.2-0.7l-1-0.9l-1-1.3l-1.3-0.5l-5-0.1
			l-1.3,0.1l-1.3-0.1l-1.3,0.6l-0.5,1.4l0.1,1.4l0.3,1.2l1,2.6l1.6,2l1.9,1.9l1.1,0.7l4.7,2.2l1.4,0.2l1.2,0.5l2.7,0.2l1.9,0.2
			l2.1-0.1l6.4-1.2l3.4-1.8l2.1-1.4l1.8-2.1l1.3-2.1l0.5-1.2l0.4-1.3l0.2-1.2l0.1-4L200.7,134z"/>
	</g>
	<g>
		<defs>
			<rect id="SVGID_21_" x="-8.9" y="-7" width="847.7" height="1067"/>
		</defs>
		<clipPath id="SVGID_22_">
			<use xlink:href="#SVGID_21_"  style="overflow:visible;"/>
		</clipPath>
		<polygon class="st10" points="204.5,76 206.4,158.2 234,154.6 235.8,77.5 		"/>
	</g>
	<g>
		<defs>
			<rect id="SVGID_23_" x="-8.9" y="-7" width="847.7" height="1067"/>
		</defs>
		<clipPath id="SVGID_24_">
			<use xlink:href="#SVGID_23_"  style="overflow:visible;"/>
		</clipPath>
		<path class="st11" d="M212.3,149.7l-0.6,0.3l0.1-0.5l0.7-0.3L212.3,149.7z M215.7,149.5l-0.2-0.9l0.1,0.3h0.4l0.2,0.3L215.7,149.5
			z M212.5,148.1h-0.3l0.2-0.1l0.1-0.3l0.3-0.1l0.1,0.4L212.5,148.1z M211.2,149h-0.8l-0.2-0.9l0.6-0.9l1-0.3l0.5-0.4l0.4,0.2
			l-0.7,0.6l0.1,0.7l-0.5-0.5l-0.5-0.3L211,148L211.2,149z M212.8,145.3l-0.5,0.1h-0.4l-0.4-0.1l-0.3,0.5l-0.3,0.1l-0.3-0.7
			l-0.3-0.3l0.1-0.3l1,0.2l0.8,0.5l0.2-0.5l-0.3-0.5l0.7,0.5l0.8,0.1l0.1,0.3L212.8,145.3z M217.3,144.7l-0.1-0.4l-0.5-0.1l-0.3-0.5
			l0.6,0.1l0.3,0.7V144.7z M216.5,142.8l0.2-0.3l0.3,0.1l0.3,0.3l-0.3,0.2L216.5,142.8z M213.4,144.2l-0.1-0.5l-0.3-0.1l-0.5,0.1
			v-0.3l0.7-0.3l-0.1-0.5l0.3-0.1l0.1,0.5l0.1,0.8l0.5,0.5L213.4,144.2z M221.5,142.4l-0.4-0.3l0.3-0.1l0.5,0.2L221.5,142.4z
			 M214.8,143.9l0.1-0.3l0.3-0.7l-0.1-0.8l0.3-0.1l0.2,1l-0.5,0.7L214.8,143.9z M224,142l-0.1-0.4l0.4,0.2l0.3,0.2H224z
			 M219.2,140.8l-0.5,1.1l-0.9-0.2l0.8-0.2l0.5-1l0.6-0.4h0.3L219.2,140.8z M219.5,139.7l-0.1-0.5l0.6,0.1l0.4-0.7l0.4,0.2l0.1,0.6
			l-0.7,0.1L219.5,139.7z M223.1,139l-0.3-0.3l0.1-0.3l0.6,0.3l0.2,0.3H223.1z M224.6,136.5h-0.8l-0.5,0.4v0.5l-0.3-0.3l0.1-0.5
			l0.5-0.4l0.7-0.3l0.4,0.2L224.6,136.5z M221.6,135.7l-0.3-0.4l0.5-0.2l0.1,0.5L221.6,135.7z M224.1,134.6l-0.5-0.5l0.8,0.1
			l0.5,0.7L224.1,134.6z M216.9,133.8l0.6,0.4l0.3-0.5l-0.5-0.2L216.9,133.8z M222.3,133.5l-0.2,0.3l-0.5,0.5l-0.7,0.1l-0.2,1.1
			l-1,0.1l-0.3-0.5l-0.3-0.3l-0.7,0.5v0.4l0.3,0.6l-0.2,0.3l-0.6-0.3l0.2-0.5l-0.5,0.1l-0.3,0.7l0.5,0.5l-0.3,0.5l-0.7,0.2l0.1,0.3
			l0.5-0.2h0.7l1-1l1-0.8l0.1,0.5l-0.1,0.4l-0.2,0.7l-0.9,0.1l-1.4,0.5v0.8l-0.8-0.3l-0.9-0.5l0.1-0.7l0.8-0.3l-0.5-1l-0.5-1
			l0.4-0.7l0.3,0.2l-0.2,0.7l0.3,0.2l0.4-0.6l-0.2-0.8l-0.7-0.2l-0.6-0.8l0.5-0.3l0.4,0.6h0.5l0.6-0.5l0.5-0.1l-0.1-0.5l-0.3-0.3
			l0.3-0.7l0.9-0.5l0.5,0.2l-0.1,0.6l1.4-0.2h1l0.3,0.2l-0.5,0.3l-0.9-0.2l-0.7,0.1l0.2,0.5l-0.7-0.3l-0.1,0.9l1,0.2l-0.1,0.3
			l-0.8,0.1l-0.7-0.1l-0.5,0.3l0.4,0.5l0.7-0.2h1.4l0.8-0.1l-0.5-0.6l0.4,0.2l0.5-0.4L222.3,133.5L222.3,133.5z M220.8,131l-0.5,0.1
			l-0.3-0.3h0.4L220.8,131z M222.7,131.2h0.4l0.3-0.5l0.3-0.2l-0.3,0.5l-0.5,0.4l-0.5-0.1L222.7,131.2z M215.7,131.5l0.3-1l0.5,0.1
			l0.8-0.4l0.3,0.6l-1,1l-1,0.7l-0.4-0.1h0.3L215.7,131.5z M217.3,129.5l0.8-0.1l0.5,0.5l0.4,0.3l-0.3-0.2l-0.3-0.1h-0.7
			L217.3,129.5z M218.7,128.8l0.5-0.1l0.3,0.6l-0.5-0.1L218.7,128.8z M216.9,129h-1v-0.7l0.8-0.1L216.9,129z M223.3,128.2l-0.5-0.4
			l0.7-0.2l0.7,0.5l-0.1,0.3L223.3,128.2z M220.4,130l0.1-0.3l-0.1-0.3l0.1-0.5v-0.3l-0.3-0.3l-0.5-0.1V128l0.7-0.2l0.9-0.3
			l-0.1,0.8l0.4,1.2L220.4,130z M216.5,127.2l-0.3-0.3l0.5,0.1l0.3,0.2L216.5,127.2z M222.5,126.4l0.5,0.3l-0.7-0.1l-0.8-0.1v-0.3
			L222.5,126.4z M219.1,127.7l-0.9,0.3l-0.2-0.6l-0.2-0.4l-0.8-0.5l0.1-0.8l0.2,0.3l0.5,0.1l0.8-0.4l0.2,0.6l-0.5,0.4l0.1,0.3
			l0.4,0.1l0.7-0.1l0.1,0.3L219.1,127.7z M221.6,125.8l0.1-0.2l0.3-0.1l-0.1,0.3L221.6,125.8z M220.5,125.1l0.3,0.6l-0.7-0.1
			l-0.4-0.4L220.5,125.1z M216.2,124.7L216,125l-0.5-0.3l0.4-0.7l0.3,0.1l-0.3,0.1L216.2,124.7z M218.3,123.4l0.5-0.1l0.2,0.6
			l-0.6,0.2L218.3,123.4z M216.9,123.3l0.1-0.5l0.2-0.5h0.3l-0.1,0.5l-0.2,0.6L216.9,123.3z M223.4,121.5l-0.1,0.3l0.1,0.4l-0.7-0.3
			l-0.7-0.4l-0.4,0.3v0.6l-0.3-0.1v1.3l0.1,0.5l-0.5,0.4l-0.2-0.4l0.3-0.4l-0.2-0.3l-0.3-0.4l0.4-0.5l0.4-0.4l-0.1-0.5l0.8-0.1
			H223.4z M223.1,120.5l0.3,0.1l0.2,0.1H223l-0.2-0.2H223.1z M219.5,120.1l-0.2,0.5l-0.4,0.2l0.1-0.7l0.6-0.2L219.5,120.1z
			 M219.7,117.6l-0.1,0.5l-0.4-0.1l0.1-0.5L219.7,117.6z M219.8,115.5l-0.2,0.3l-0.5,0.1l0.1-0.4H219.8z M221.9,115.3l-0.3-0.3
			l0.6-0.2l0.1,0.3L221.9,115.3z M224.6,115.2l-0.6-0.1l-0.5-0.4l0.5,0.1L224.6,115.2z M223.3,114.4l0.1,0.3l-0.4-0.1L223.3,114.4z
			 M215.6,114.2l-0.5-0.3l-0.2,0.2l0.5,0.5L215.6,114.2z M219.8,114.8l-0.1-0.3l0.5-0.3l0.2-0.6l0.3,0.3l-0.1,0.9H219.8z
			 M224.1,113.4h0.4v0.6h-0.4V113.4z M217.6,115l0.1-0.7l0.7-0.1l-0.4-0.7l-0.4,0.3l-0.9-0.1l0.1-0.8l-0.3-0.3l-0.6,0.2l0.2,0.9
			l-0.1,1.2l0.3,0.3l0.4-0.2l0.3-0.2L217.6,115z M211.5,112.1l0.7,0.1l-1-0.5L211.5,112.1z M219.7,111.4l-0.5,0.1L219,111h0.5
			L219.7,111.4z M215.3,111.1l-0.1,0.3l0.9-0.4l-0.4-0.2L215.3,111.1z M223.6,111l-0.4,0.3v-0.5l0.3-0.5l0.2,0.3L223.6,111z
			 M225.7,110.3l0.5-0.1l0.1,0.3l-0.2,0.3l-0.3-0.1v-0.4H225.7z M215.4,110.1l-1.5,0.3l-0.3,0.7l-0.3,1.2l0.4,1l0.7-0.4V111l1.5-0.3
			L215.4,110.1z M222.9,110.5l-0.5,0.2l0.1-0.5l0.3-0.2L222.9,110.5L222.9,110.5z M220.9,109.7l1-0.3l-0.6,0.7l-0.9,0.4L220.9,109.7
			z M212,109.6v0.4l0.4-0.1l-0.1-0.6L212,109.6z M227.4,109.7l-0.8-0.4l0.1-0.5l0.6,0.4l0.6,0.2L227.4,109.7z M214.4,108.6l-0.3,0.4
			l0.3,0.1V108.6z M210.5,108.8l0.3-0.3v0.5l-0.3,0.3l-0.3-0.1L210.5,108.8z M213.7,114.3l-1.3,0.6l-1-0.5l-1-0.9l0.3-1.3l-0.4-1
			l-0.1-0.7l0.3-0.1l-0.1-0.5l1.4-0.8l1.6-0.5l0.3,0.7l0.5,0.2l-0.1-0.5l0.2-0.2l-0.1-0.3l0.4-0.2l0.8,0.6l1,0.3l1.4,0.7l0.8-0.7
			l-0.1,0.8l-0.9,0.6l0.8,0.1l0.5,1l0.6,0.8h0.7l0.5-0.6l0.3,0.3l-0.5,0.7l-1-0.2l-0.4-0.3l-0.8,0.3l-0.2,0.2l0.8,0.4l0.6,0.4
			l0.4,0.2l-0.3,0.1l-0.5,0.9l-0.3,1.3l0.5,0.7l-0.6,0.3l-0.3-0.7l-0.7,0.3l-0.1-0.4l0.3-0.5v-0.2l-1,0.8l-0.3,0.8l0.8,0.1v0.6
			l0.5-0.1l0.2,0.5l-0.7,1.1l0.5,1.5l-0.6,0.2v0.5l-0.3,0.1l-0.5-0.4l-0.4,0.3l-0.4-0.5l0.2-0.8l1.1-0.7l-0.6-0.7l-0.1-1l-0.6-0.5
			h-0.3l-0.3-0.8l1.6-0.7l0.1-0.8l-0.2,0.1l-0.3,0.3l-0.1-0.1l-0.3,0.2l-1-0.1L213.7,114.3z M224.9,108.2l-0.5,0.6l-0.3,0.4
			l-0.6,0.1l-0.8-0.5l-0.7-0.5l0.1-0.7l0.6-0.2l0.3,0.7l1.2,0.1H224.9l-0.1-0.5l0.2-0.3l0.4-0.2l0.5-0.1l-0.1,0.3l0.7,0.5l-0.3,0.5
			l-0.8-0.4L224.9,108.2z M229,107.2l-0.3,0.2l-0.3-0.3L229,107.2z M227,107.1l0.3-0.1l-0.2,0.5l-0.6-0.1l-0.3-0.1l0.3-0.1h0.5
			V107.1z M215.4,106.9l0.8,0.3l1.6-0.5l1.3,0.7l0.4-0.1l0.1,0.5v0.5l0.5,0.3l-0.5,0.3l-0.4,0.4l-0.1-0.8l0.5-0.6l-0.5-0.1l-0.5,0.2
			l-0.3,0.8l-0.7-0.6l0.1-0.5l-0.5,0.2l-0.3,0.8l-1.4-0.5l-0.3-0.7l-0.1,0.8l-0.5-0.1l-0.2-0.9L215.4,106.9z M212.4,106.6l0.5,0.5
			l0.3-0.2l0.3,0.7l-0.8,0.7l-0.5-0.6h-0.5l-0.1-0.7L212.4,106.6z M216.2,106.4l0.1,0.3l-0.4,0.2l-0.2-0.4L216.2,106.4z
			 M231.8,142.7l-0.9-1.1l-4.4-1.4l-0.7-1.3l0.1-5.3l-0.3-2.6l0.3-2.7l-0.1-2l0.1-2l-0.1-1.2l0.1-1.3l-0.1-1.4v-2.7l0.7-1.2l1.2-0.7
			l1.4-0.1l1.2-0.7l0.7-1.2V110l0.1-1.2l-0.1-1.3l-0.5-1.3l-2.1-0.6l-8.3-0.1l-1.4,0.1l-4-0.1l-1.2,0.1l-2.5-0.1l-1.4,0.7l-0.7,1.4
			v1.2l-0.1,1.1v1.4l0.1,1.3v1.2l0.7,1.2l4,1.4l0.8,1.2l-0.2,5.5l0.1,1.1l0.2,1.5l-0.1,2.7l-0.1,1.3l0.3,2.5l-0.3,1.3l0.3,2.8
			l-0.1,2.5l-0.7,1.4l-4.3,1.4l-0.8,1.2l-0.1,1.2v5l0.7,1.4l1.3,0.5l19.3,0.1l1.2-0.7l0.7-1.2v-1.4l-0.1-1.2L231.8,142.7z"/>
	</g>
	<g>
		<defs>
			<rect id="SVGID_25_" x="-8.9" y="-7" width="847.7" height="1067"/>
		</defs>
		<clipPath id="SVGID_26_">
			<use xlink:href="#SVGID_25_"  style="overflow:visible;"/>
		</clipPath>
		<polygon class="st12" points="234.6,72.7 237,155.8 275.5,158.2 276.3,74.7 		"/>
	</g>
	<g>
		<defs>
			<rect id="SVGID_27_" x="-8.9" y="-7" width="847.7" height="1067"/>
		</defs>
		<clipPath id="SVGID_28_">
			<use xlink:href="#SVGID_27_"  style="overflow:visible;"/>
		</clipPath>
		<path class="st13" d="M262.9,149.4h-0.4v-0.3l0.3-0.3l0.2,0.1L262.9,149.4z M245.6,149.4l-0.4-0.1V149l0.3-0.3l0.3,0.3
			L245.6,149.4z M248.3,149.2l-0.7,0.3l-0.5-0.6l0.7-0.5l0.5,0.5V149.2z M257.9,148.7l-0.1-0.5l0.3,0.3l0.1,0.3L257.9,148.7z
			 M256,148.3l-0.3-0.2l0.2-0.3l0.3,0.2L256,148.3z M264.9,147.9l-0.3,0.1L264.9,147.9l0.3-0.4l0.1,0.2L264.9,147.9z M249.5,148.4
			l0.1,0.3h-0.3l-0.3-0.8l0.6-0.4l0.1,0.5l-0.5,0.3L249.5,148.4z M243.8,148.6l-0.3-0.4l0.8-0.5L244,147l0.3-0.2l1.2,0.8v0.2
			l-0.8-0.1L243.8,148.6z M260.5,147.1l-0.1-0.3l0.3,0.1l0.1,0.2H260.5z M257,147.3h-0.6l0.2-0.3l0.6-0.2L257,147.3z M253.5,146.7
			l-0.4,0.3l-0.1-0.2l0.3-0.3l0.3-0.1L253.5,146.7z M254.5,147l-0.4,0.7l-0.4-0.3l0.6-0.7l0.7-0.3l0.1,0.3L254.5,147z M245.7,146.7
			h-0.6l0.1-0.2l0.5-0.2V146.7z M263.5,147.9l-0.8-0.6l-0.6-0.8l-0.4,0.2l-0.3-0.3l0.3-0.3l1.2,0.7l0.8,0.7L263.5,147.9z
			 M252.3,146.4l-0.1-0.5l0.4,0.2l0.1,0.3H252.3z M248.1,146.4L248,146l0.6,0.1l0.1,0.4L248.1,146.4z M268.2,146.7v-0.4l-0.5-0.2
			l-0.5,0.1l0.3,0.5l-0.5,0.1l-0.2-0.7l0.7-0.3l0.7-0.2l0.3,0.5l0.1,0.4h-0.4V146.7z M263.5,146l0.1,0.6l-0.3-0.3l-0.1-0.5
			L263.5,146z M250.1,146.4l-0.2-0.1L250.1,146.4V146l-0.2-0.3l0.5,0.2L250.1,146.4z M264.5,145.6l0.3-0.3h0.3l-0.1,0.3l-0.5,0.2
			L264.5,145.6z M252.7,145.1l-0.2-0.2l-0.2-0.3l-0.4,0.5l-0.8,0.3l-0.5-0.4l0.3-0.4l0.7,0.2l0.7-0.1l0.5,0.2L252.7,145.1z
			 M254.8,145.8l0.1-0.3l0.4-0.3l0.5-0.5l0.3-0.2l-0.2,0.4l-0.2,0.5l-0.6,0.3L254.8,145.8z M249.9,144.4l-0.3,0.5l-0.5,0.1l0.2-0.4
			L249.9,144.4z M253.7,144.9l-0.3-0.1l-0.1-0.5l0.4,0.1L253.7,144.9z M265.8,144.4l0.1-0.3l0.6,0.1l0.5,0.7l-0.2,0.2l-0.5-0.6
			L265.8,144.4z M257.7,145.1l0.1-0.5l-0.3-0.1l-0.3,0.1l0.3-0.7l0.7,0.7L257.7,145.1z M260.7,144l-0.6,0.2l0.2-0.1l0.1-0.3l0.4-0.1
			L260.7,144z M255.4,143.4l0.3,0.2l-0.3,0.3V143.4z M249.8,143.7l-0.1-0.5l0.4-0.3l0.1,0.5L249.8,143.7z M248.5,143h0.6v0.5
			l-0.5,0.3l-0.5,0.2l-0.1-0.5L248.5,143z M243.5,142.8h0.7l0.1,0.5l-0.7-0.1L243.5,142.8z M265.3,142.6h0.5l0.1,0.4l-0.4-0.1
			L265.3,142.6z M252.2,144.1l-0.7-0.3l-0.4-0.3l0.5-0.7l0.8-0.5l0.2,0.3l-0.7,0.6L252.2,144.1z M247.6,142.5l0.3-0.6l0.4,0.1
			l-0.3,0.4L247.6,142.5z M245.7,141l0.5-0.1l-0.5-0.3V141z M247.7,140.3l0.7-0.2l-0.1-0.7L247.7,140.3z M244.2,138.1l0.3,0.3
			l0.4-0.2l-0.3-0.1H244.2z M249.9,138.5l0.7-0.7l-0.6-0.3l-0.4,0.7l-0.6-0.3l-0.1,0.5l0.5,0.1H249.9z M247.8,138.5l-0.4-0.5
			l-0.3-0.8l-1,0.5l-0.2,0.7h-0.8l0.1,0.7l1.2-0.3l1,0.3L247.8,138.5z M246.6,136.9l0.1-0.3l-0.4,0.1l-0.1,0.3h0.4V136.9z
			 M247.6,136.1l-0.2,0.3l0.5-0.2L247.6,136.1z M252.3,136.1l-0.5,0.2l0.5,0.2V136.1z M247.4,134l-0.4,0.2l0.7,0.1L247.4,134z
			 M246.1,134l-0.5,0.1l-0.6-0.2l-0.6,0.3l0.5,0.3l1.1-0.1V134H246.1z M249.4,134.3l0.5,0.1l-0.1-0.5l-0.4-0.1V134.3z M247.9,134.2
			h0.6l-0.3-0.4L247.9,134.2z M247.4,132.8l0.5-0.5l0.2-0.5l-0.5-0.1l-0.4,0.2l0.1,0.3l-0.1,0.2l-0.1-0.6l0.3-0.3l-0.4-0.1l-1.5,0.5
			l0.3,0.7L247.4,132.8z M249.4,131.3l-0.1,0.3l0.3,0.2L249.4,131.3z M246.5,131.2l-0.5-0.1l0.1,0.5L246.5,131.2z M250.7,130.9
			l-0.1-0.3l-0.5,0.3l0.2,0.2L250.7,130.9z M262,131.3l-0.4-0.3l0.2-0.5l0.5,0.5L262,131.3z M260.7,130.6l-0.3,0.2l-0.5,0.5
			l-0.7-0.1l0.7-0.1l0.5-0.3l0.2-0.4l0.3,0.1L260.7,130.6z M263.5,130.7l-0.2-0.5l0.5,0.2l0.1,0.3H263.5z M261.1,130.1l-0.5-0.1
			v-0.3l0.5,0.1V130.1z M250.8,129.6l-0.7,0.1l-0.1,0.5l0.7-0.1L250.8,129.6z M258.7,130.1l0.7-0.6l0.3,0.6l-0.5,0.3L258.7,130.1z
			 M251.3,129.5h0.4l-0.1-0.3L251.3,129.5z M245.1,129l-0.4,0.1l-0.3-0.3l0.5-0.1L245.1,129z M261.5,128.8l0.6-0.1l0.1,0.7l-0.6,0.1
			L261.5,128.8z M251.7,128.4h-0.6l0.3,0.5L251.7,128.4z M254.1,129.3l-0.7-0.1l-0.3-0.8l-0.3-0.1l-0.4,0.8l1.2,0.3L254.1,129.3z
			 M262,128.1l-0.1-0.2l0.3-0.1l0.2,0.3H262z M258.2,127.8l-0.3-0.1l-0.3-0.1l0.3,0.1h0.4l0.1,0.1H258.2z M260.7,128.3l-0.3-0.5
			l-0.4-0.1l-0.1-0.2l0.3,0.1l0.5-0.1l0.5,0.4L260.7,128.3z M244,127.2l0.4,0.5l0.1,0.7l-0.7-0.5l-0.3-0.6L244,127.2z M251.9,126.8
			v0.4l0.4-0.3L251.9,126.8z M262.5,126.7l1.4,0.1l1.1-0.1l-0.9,0.5l-1.2-0.3l-0.5,0.5l-0.7-0.3l-0.1-0.7L262.5,126.7z M258.9,126.6
			v-0.4l0.3,0.1l0.1,0.4L258.9,126.6z M245.4,125.8l-0.1,0.3l0.5-0.1L245.4,125.8z M262.7,125.3l0.3,0.2l0.2,0.5l0.3,0.1l-0.5,0.2
			l-0.5-0.5L262.7,125.3z M267.3,125.8l-0.6-0.1v-0.5l0.5,0.1L267.3,125.8z M265.7,125.1l0.5,0.7l0.1,0.4l0.7-0.1l-0.3,1.4l0.9,1
			l-0.8,0.2l-0.9,0.4l-0.4,0.7h0.5l0.3,0.1L266,130l-0.3,0.1l0.1,0.2l-0.5-0.1l-0.3-0.5l-0.1-0.4l-0.4-0.3l-0.4,0.3l-0.1,0.3
			l0.1,0.5l-0.5-0.4l-0.8,0.2l-0.2-0.4l0.2-0.4l0.7,0.2l0.7-0.1l0.4-0.2l0.6-0.1l-0.2-0.7h-1l-0.1-0.4l1-0.3l0.5-0.1v0.5l0.4,0.7
			l0.5-1.1l-0.6-1.6l-0.3-0.5l-0.2-0.5L265.7,125.1z M261.2,125.2l0.4,0.1l0.1-0.3l0.3-0.1l-0.1,0.3l-0.4,0.1l-0.3,0.2l-0.3-0.2
			L261.2,125.2z M264.4,124.8l0.1,0.3l-0.4,0.2l-0.3-0.5H264.4z M244.4,126.2l-0.5-1l0.7-0.3v0.3l0.2,0.6l0.3-0.6h0.9l0.7,0.8
			l0.7-0.2h0.7v0.7l-1-0.1l-0.9,0.8l-1,0.1l0.1-0.7L244.4,126.2z M252,125.3l-0.5,0.3l-0.8-0.3v-0.5l0.8,0.1L252,125.3z
			 M260.2,125.2l-0.8,0.5l-0.6-0.5l0.8-0.7L260.2,125.2z M263,123.9v0.7l-0.3-0.4l-0.1-0.5L263,123.9z M265.9,123.6l0.9,0.5l0.7,0.5
			l0.3,0.3l-0.4-0.2l-0.8-0.1l-0.9-0.2L265.9,123.6z M260.6,123.8l0.2,0.3h-0.7l-0.1-0.5L260.6,123.8z M246.2,143l-0.8-0.8l0.7-0.3
			l-1.5-0.5l-0.3,0.5l-0.6,0.3l-0.3-0.5l0.7-0.9l0.5-0.2l-1-0.2l0.3-0.8l-0.9-0.8l0.5-0.8l-0.5-1v-1l0.6-0.2l0.2-1.3l0.3-0.8
			l-0.5,0.3l-0.1-0.8l0.3-0.7l-0.6-0.3l0.2-0.5l0.6-0.1h0.4l0.6-0.3l0.3,0.3l0.2-0.7l-0.7-0.5l0.2-0.5l0.6,0.3l0.8-0.1l1,0.6
			l0.3,1.1l0.6-0.5l1-0.7l-0.9-0.4l-0.7-0.8h-0.9l-0.8-0.1l0.2-0.4l0.1-0.5l-0.5-0.5l-0.3-0.1l0.2-0.1l0.3,0.2h0.6l0.7,0.7l0.7-0.7
			l0.5-0.3l-0.7-0.3l0.1-0.5l0.5,0.1l0.9,0.3l-0.1,0.8l-1,0.7l0.8,0.7l0.3-0.4l0.8-1.5l-0.5-1.3l-0.1,0.3l-0.2,0.1l-0.3-0.4l0.3-0.1
			l1.6,0.1l2.5-0.7l0.4,0.3l-0.3,0.1l-0.8,0.5l0.4,0.7l-0.5,0.1l-0.3,0.5l0.8,0.3l1.3-1l0.4-0.9l0.1-0.2l-0.1,0.2l0.3,0.4v0.9
			l1.3-0.7l1-1.1l0.4-0.3l-0.7-0.4l-0.1-0.5l0.3,0.2l0.5-0.2l0.6-0.8l0.7,0.6l-1,1.1l-1.1,1.1l-0.2,1l-0.5,0.6l-0.6,0.7l0.8,0.5
			l-0.1,0.3h-1l-0.1-1l-1.2-0.5l-0.3,1.4l0.3,0.1l0.8-0.1l-0.3,0.9l-0.6,0.4l-0.4,0.1l0.1-0.3l0.5-0.4l-0.2-0.4l-0.7,0.3l-1,0.1
			l-0.3,0.2l0.3,0.1h-1l0.5,0.9h0.3l-0.2,0.1v0.5l-0.6,0.3l-0.3-0.1l0.2-0.2l-0.5-0.2l-0.4,0.7l1,0.4l-0.1,0.5l-0.6-0.1l0.1,0.7
			l1.4-0.5l0.8-1l-0.4-0.7l0.7-0.3h1l0.7-0.5l0.7,0.1l0.8-0.7l0.7,0.6l0.5,0.2l-0.1,0.3l-0.8-0.2l-1.5,0.8l-0.9,0.7l-0.2-0.5
			l-0.5,0.1l-0.1,0.8l-0.3,1l-0.9,0.5l0.5,0.7l-0.5,0.7h-0.5v0.2l0.9,0.6l-0.3,1.2l0.3,0.1l-0.1,0.8l-0.9-0.1l-0.8,0.5l-0.9-0.1
			l-0.5,0.2v0.6l0.5,0.3l0.2-0.7l1.6,0.1l0.2,0.7l-0.6,0.1l0.1,0.6h-1l-0.9-0.1l-0.1,0.5l0.7,0.3l0.3,0.3l0.3,0.3l1-0.7l1-0.9h0.3
			l0.5,0.5l0.3,1.5l0.3,0.8l0.3,0.2l-0.3,0.2l-0.2-0.3l-0.5-0.3l0.1-1.1l-0.2-0.6l-1-0.1l-0.6,1l-1.5,0.5l-1.1-0.1l0.2-0.8l-1.4-0.4
			l-0.7,1l-0.1,1.4l0.5,0.8l-0.8-0.1L246.2,143z M247.3,124.9l-0.4-0.7l-0.5-0.3l-0.5-0.5l-0.1-0.1l0.1,0.1l0.6-0.1l0.7,0.2l0.1,0.8
			l0.5-0.1l0.1-0.4l0.2-0.3l0.5,0.4l-0.3,0.9L247.3,124.9z M244.9,124.3l0.1-0.7l0.5-0.3h0.1l-0.1,0.3v0.7l-0.8,0.3L244.9,124.3z
			 M245.1,122.3l-0.1,0.3l-0.1-0.2l-0.1-0.3L245.1,122.3z M248.2,121.9l-0.2,0.5l-0.7,0.3l0.2-0.5L248.2,121.9z M245.9,122.3v-0.8
			h0.5l0.1,0.8H245.9z M244.4,121.2l-0.1,0.2l-0.2,0.1l0.1,0.3l-0.1,0.3l-0.1-0.5l0.3-0.5L244.4,121.2L244.4,121.2z M252.2,121.6
			l0.4-0.6l0.4,0.4l-0.4,0.5L252.2,121.6z M249.6,121.9l-0.3,0.1l-0.3-0.1l-0.3-0.3l-0.2-0.3l0.3-0.1l0.1,0.5l0.3,0.2L249.6,121.9z
			 M255,123.1l0.9,0.6l-0.3,0.5l0.3,0.1l0.5-0.3l0.3,0.5h-0.5l-0.4,0.1l0.2,0.7l0.5,0.5h-1l-0.5-1.2l-0.9,0.4l-0.7,0.1h-0.6v-0.3
			h0.5l0.5-0.4l0.3-0.3l-0.8-0.3l-0.9-0.4L252,123h-0.7v0.6l0.3,0.2l0.1,0.3h0.5v0.3l-0.8,0.1l-0.7-0.6h-0.5l0.1-0.5l0.4-0.4
			l0.3,0.1l0.4-0.2l0.2-0.3l-0.6-1.1l-0.1-1l0.5-0.1h0.6v0.2l-0.5,0.3l0.3,1l0.3,0.8l0.7,0.3l0.2-0.5l0.5,0.1v0.8L255,123.1z
			 M247.2,118.7h0.5l-0.1,0.3h-0.4V118.7z M243.8,118.5l0.3,0.4l-0.1,0.3l-0.3-0.1L243.8,118.5z M247.8,118.3l0.2-0.8l0.6,0.7
			L247.8,118.3z M249.8,118.6l1.2,0.2l0.9-0.5l-0.3-0.5l-0.3,0.3l-0.2-0.3l0.4-0.5l0.6-0.3l0.3,1l-0.5,1.1l0.3,0.2l-0.8,0.6
			l-0.9-0.6h-0.7V118.6z M245.7,117l0.7-0.2l0.1-0.3l0.5-0.3l0.1,0.5l-0.7,0.3l-0.5,0.3h-0.4L245.7,117z M246.1,115.5l0.2,0.6
			l-0.8,0.1l-0.1-0.4L246.1,115.5z M251.3,115.7l-0.5-0.1l-0.1-0.4l0.3,0.1L251.3,115.7z M253.4,115.4l-0.1-0.3l0.3,0.1l0.1,0.3
			L253.4,115.4z M248.7,114.9v-0.4l0.3,0.1l0.1,0.4L248.7,114.9z M243.9,114.6l0.2-0.1l0.6,0.7l-0.7,0.5l0.3-0.5L243.9,114.6z
			 M259.3,113.8l-0.7,0.5l-0.5-0.5l0.7-0.1L259.3,113.8z M251.1,113.8l-0.3-0.1l0.3-0.1h0.3L251.1,113.8z M263.1,114.2l-0.5-0.2
			l-0.1-0.5l0.4,0.2L263.1,114.2z M261.6,112.9l0.2,0.3l-0.1,0.3l-0.4-0.4L261.6,112.9z M255.1,114.8h-1.3l-1-0.3l-0.2-0.2l-0.4,0.2
			V114l0.3,0.1l0.7-0.4v-0.5l0.2-0.9l0.7,0.5l-0.3,0.6l-0.3,0.5l0.7,0.4l0.9-0.2L255.1,114.8L255.1,114.8z M250.2,112.5l-0.3,0.4
			l-0.2-0.5L250.2,112.5z M256.1,111.9l-0.6,0.7l0.1,0.7l0.1,0.3l0.5-0.3l0.3-0.6l-0.1,0.2l0.1,0.4l-0.5,0.5l-0.3-0.1l-0.4-0.5
			l-0.6-0.5l-0.3-0.7l0.1-0.5l0.4,0.2l0.5,0.1L256.1,111.9z M262.2,111.5l0.6,0.1l-0.3,0.4l-0.5-0.1L262.2,111.5z M244.7,111.7
			l-0.1,0.3l-0.1-0.2l-0.1-0.3L244.7,111.7z M250.3,111.8l0.4-0.3l0.4-0.1l-0.3,0.4H250.3z M260.8,111.3l-0.4-0.1l0.3-0.5l0.5,0.2
			L260.8,111.3z M258.2,110.4l0.3,0.4H258l-0.3-0.4H258.2z M256.7,109.7l0.5-0.1l-0.3,0.3l-0.3,0.1L256.7,109.7z M252.6,109.7
			l0.4-0.3h0.3l-0.1,0.2L252.6,109.7v0.5l1.2-0.4l1.1-0.5l0.1,0.3l-1.2,0.7l-0.4,1.2h-0.2l-0.1-0.8h-0.9L252,110L252.6,109.7z
			 M246.1,108.7l0.1,0.3l-0.4,0.1l-0.1-0.5L246.1,108.7L246.1,108.7z M260.5,108.6l0.6-0.1l0.3,0.3L261,109L260.5,108.6l-0.5,0.2
			L260.5,108.6z M250.1,108.7l0.3,0.1l0.3,0.2l0.5,0.1l0.1-0.5l0.3-0.3l0.2,0.5l-0.3,0.7l-0.4-0.2l-0.5-0.4L250.1,108.7L250.1,108.7
			L250.1,108.7z M254.9,108.4l0.3,0.2v0.2l-0.4-0.1L254.9,108.4z M252.6,108.3h0.2l0.3-0.4l0.5,0.1l-0.4,0.5h-0.9L252.6,108.3z
			 M243.7,108l0.5-0.1l-0.1,0.5l-0.4,0.2V108z M247.2,108.2l0.3-0.3l0.3-0.1l0.3,0.1l0.2-0.2l0.6,0.3l0.3,0.6l-0.8-0.1l-0.6-0.5
			l-0.1,0.4l-0.3,0.2v-0.4H247.2z M256.1,106.4v0.4l0.1,0.3l-0.2,0.2l0.1-0.2l-0.3-0.7L256.1,106.4z M271.3,142.7l-0.8-1.3l-2-0.7
			l-8.6-0.1l-1.2,0.2l-1.4-0.1l-1.4,0.1l-1.4-0.8l-0.6-2l0.1-3.2l0.6-1.4l1.2-0.7h2.5l1.3-0.1l3.5,0.2l1.8-0.1l1.4,0.1l1.2-0.1
			l1.3-0.7l0.7-1.2l0.1-5.1l-0.1-1.3l-0.6-1.2l-1.1-0.7l-2.6-0.1l-1.3,0.1h-1.4l-1.5-0.1l-5.1,0.1l-1.1-0.7l-0.8-1.2l-0.1-2l0.7-1.9
			l2-0.6l12.5-0.1l1.4-0.7l0.7-1.2l-0.1-2.7l-0.2-1.2l0.1-1.4l0.2-1.2l-0.7-1.3l-1.4-0.6l-5.2-0.1l-1.2,0.1l-1.3-0.2l-2.9,0.1
			l-1.3-0.1l-2.5,0.1l-1.2-0.1l-8.5,0.2l-1.9,0.5l-0.7,1.4l0.1,2.6L242,112l0.3,3.3l-0.1,1.4l0.1,1.2v11.7l-0.2,1.4l0.2,2.5
			l-0.1,2.6l0.2,1.4l-0.1,1.4l0.1,1.2l-0.2,1.2l0.1,1.5v1.3l0.1,2.5l-0.1,1.3l-0.3,1.3l0.8,1.2l1.2,0.7l14.7-0.1l1.2,0.2l4-0.2
			l4,0.3l1.2-0.1l1.4-0.7l0.6-1.2l0.1-1.2l-0.1-4L271.3,142.7z"/>
	</g>
	<g>
		<defs>
			<rect id="SVGID_29_" x="-8.9" y="-7" width="847.7" height="1067"/>
		</defs>
		<clipPath id="SVGID_30_">
			<use xlink:href="#SVGID_29_"  style="overflow:visible;"/>
		</clipPath>
		<polygon class="st14" points="275.1,72.7 279.6,156.9 320,158.2 329,72.7 		"/>
	</g>
	<g>
		<defs>
			<rect id="SVGID_31_" x="-8.9" y="-7" width="847.7" height="1067"/>
		</defs>
		<clipPath id="SVGID_32_">
			<use xlink:href="#SVGID_31_"  style="overflow:visible;"/>
		</clipPath>
		<path class="st15" d="M310.2,149.6l0.3-0.5l0.1,0.6L310.2,149.6z M317.3,148.8h-0.5l-0.4,0.3l-0.1,0.3l-0.3-0.1l0.2-0.3l0.1-0.5
			l0.6-0.5l0.3,0.3L317.3,148.8L317.3,148.8z M307.5,148.3l-0.1-0.7l0.6,0.1L307.5,148.3z M308.9,149l-0.4-0.1l0.3-0.6l-0.3-0.6
			l0.4-0.1l0.3-0.4l0.1,0.8L308.9,149z M306.2,147.9l-0.3-0.4l0.1-0.4l0.3,0.5L306.2,147.9z M308.3,146.9l-0.3-0.1l0.4-0.1l0.1-0.5
			l0.6,0.3l-0.3,0.2l-0.3,0.2L308.3,146.9z M312.4,146.4l0.3,0.1l0.3-0.3l0.1-0.4l-0.7-0.1L312.4,146.4L312.4,146.4z M313.2,146
			l0.3,0.2l0.5-0.3l-0.3-0.3L313.2,146z M313,145.7l0.2-0.6h-0.4L313,145.7z M289,145.6l-0.8-0.3l-1,0.2l-0.5,0.1l0.3-0.4l-0.2-0.5
			l-0.3-0.5l0.5,0.2l0.7,0.5h0.9l0.4,0.5l0.3-0.2l0.2,0.1L289,145.6z M284.6,146l-0.5,0.5l-0.3-0.7l0.3-1l-0.5-0.7l0.3-0.1l0.7,0.2
			l0.1,0.8l-0.3,0.5L284.6,146z M307.5,143.3l-0.3,1.2l0.8-0.1l0.5-0.4l0.1,0.5h0.3l-0.3-0.8L307.5,143.3z M282.5,144l-0.4,0.2
			l-0.1-0.5l-0.3-0.1l0.3-0.3l0.4-0.2v0.9H282.5z M313.3,143.6l0.3-0.3l-0.4-0.3l-0.3,0.2L313.3,143.6z M305,143.3l0.4,0.7l0.5-0.4
			l-0.5-0.7L305,143.3z M286.2,143h0.5l0.3,0.7h-0.6L286.2,143z M310.7,143l0.8,0.7l0.3-0.3l-0.8-0.7L310.7,143z M306.9,141.9v1.2
			l0.2,0.3l0.3-1.2L306.9,141.9z M312.9,142.8l-0.4-0.7l-0.3-0.7v0.8l0.5,0.7L312.9,142.8z M285.1,142.6l-0.3-0.3l0.2-1v0.3l0.3,0.5
			L285.1,142.6z M289.8,141.5v-0.6l0.6,0.1l0.1,0.5H289.8z M309.2,140.9l0.6,0.5l0.1-0.6l-0.5-0.1L309.2,140.9z M283.1,140.9
			l0.1-0.4h0.5l-0.2,0.3L283.1,140.9z M285.9,140.3l-0.1,0.5l-0.4-0.1l0.2-0.2l0.1-0.3l0.3-0.2L285.9,140.3z M307.5,140.8l0.3-0.3
			l0.1-0.7l-0.3-0.8l-0.4,0.2l0.2,0.7L307.5,140.8z M309.7,139.2l-0.4-0.8l-0.4,0.5l0.4,0.5L309.7,139.2z M304.8,139.3l0.1-0.4
			l0.2-0.5l0.5,0.4l0.1,0.7l-0.1,0.5l-0.5-0.3l-0.3,0.6l-0.5-0.5L304.8,139.3z M287.7,137.6l0.1,0.3l0.3,0.1l-0.4-0.1l-0.3-0.3
			H287.7z M282.7,137.6l0.9,0.1l0.4,0.4l-0.5,0.1h-0.8V137.6z M285.5,137.1l0.3,0.6l-0.5,0.3l-0.3-0.6L285.5,137.1z M290.5,137
			l-0.3,0.1l0.1-0.5l0.3-0.1L290.5,137z M301,138l-0.3-0.3l0.3-0.3l-0.5,0.1l0.1-0.5l0.3-0.2l-0.1-0.5l0.5,0.1l-0.3,0.7l0.1,0.4
			L301,138z M282.5,136.8l-0.3-0.3l0.3-0.3h0.4l0.1,0.3L282.5,136.8z M298.5,136.5l0.2-0.4l0.3,0.5L298.5,136.5z M303,136l-0.1,0.3
			l-0.5,0.1l0.1-0.5L303,136z M308,136.3l-0.6,0.2l0.1-0.7L308,136.3z M294.5,135.5l0.3-0.1l0.3,0.4L294.5,135.5z M287.6,135.5
			l0.4-0.3l0.1,0.5v0.4l-0.3-0.1L287.6,135.5z M315.4,149.9h-1l-0.7-0.1l-0.2-1.2l-0.1-1.2h-0.5l-0.3,0.7l0.3,0.4l0.4,0.2l-0.3,0.4
			h-0.7l-0.3,0.3l-0.5,0.3l-0.3-0.2l0.6-0.2l0.3-0.5l0.1-1.4l-0.4-0.1v1.3l-1.2-0.6l0.7-0.8v-0.9l-0.7,0.4l-0.3-0.3l0.2-0.7l0.7,0.1
			l0.1-0.3l0.5,0.1l-0.1-0.7l-0.1-0.5l-0.5,0.4l-0.4-1.1l-0.9-0.8l-0.4,0.4l0.7,0.8l0.1,0.9l-0.6,0.2l-0.1,0.5l-0.3-0.1l-0.9-0.3
			l-0.1-0.7l-0.3,0.8l-1.2,0.1l-0.5-0.9l-0.5-0.1l0.2,0.5l-0.1,0.5l-0.1-0.3l0.2-0.3l-1.2-0.7l-0.8-1.2l-0.8-0.2l0.1-1.3l-0.6-0.7
			l0.3-1l-1-0.3l-0.3-0.1v0.7l0.7,0.9l0.3,0.7l-0.3,0.3l-0.5-0.8l-0.7-1l0.1-0.8l0.1,0.3l0.4-0.7l1.1-0.7l-0.6-0.7l-0.1-0.3
			l-0.3-0.1l-0.1-0.3h0.3l0.3,0.3l0.3,0.1l0.4,0.3l0.3,0.2v0.5l0.2,0.8l0.3-0.5l0.1,0.4l-0.3,0.5l-0.1,0.7l0.3,0.6l-0.3,0.7l0.5,0.3
			l0.7,0.4l1,0.2l0.1-0.6l0.5-0.5l-0.3-0.5l-0.5,0.1l0.1-0.4l1-0.5l-0.5-0.9l0.4-1l-1.7-0.3l-0.2-1.3h0.5l0.1,0.7l0.8,0.2l-0.6-0.7
			l0.5-1.2l0.6-0.5l-0.3-0.1l0.1-0.5l0.3,0.3h0.5l0.1,0.6l-0.5,0.2l-0.5,0.7l0.3,0.9l0.7,0.1l0.5,0.2l-0.2,0.3l0.4,0.5l1-0.7
			l0.2-0.6l-0.2-0.5v-0.3l0.3,0.4l0.3-0.4l0.3-0.5l0.3-0.1l0.1,1.1l0.5,1.1l-0.4,0.6l-0.2,0.6l0.4,0.2l0.8-0.3l0.5-0.1l-0.1,0.5
			l0.3,0.3l0.7,1l0.6,0.7l1,1.6v0.6l0.3,1l-0.2,0.7l-0.1,0.5l0.5-0.1l-0.1,0.7l0.4,0.3l0.2-0.7l0.7,0.1l0.1,1.8L315.4,149.9z
			 M301,134.5l-0.1-0.3l0.5,0.1l0.3,0.5l-0.1,0.3l-0.3,0.3l-0.3-0.1l0.4-0.3L301,134.5z M284.9,134.2l0.4-0.1l0.2,0.4l-0.5-0.1
			L284.9,134.2z M309.7,134l-0.2,0.9l-0.8,0.2l0.1-1L309.7,134z M305.4,134l0.5-0.2l-0.1,0.4l-0.1,0.7l-0.3,0.4l-0.3-0.4L305.4,134z
			 M295.9,134.6l-0.3-0.5l0.2-0.6v-0.4l-0.5-0.1l-0.1-0.3h0.3l0.3,0.3l0.2,0.5l-0.2,0.6L295.9,134.6z M282.9,133.1l-0.3,0.3
			l-0.1-0.3l0.2-0.3L282.9,133.1z M305.7,132l0.8,0.1l0.1,0.7l-0.6-0.3L305.7,132z M299.9,132.5l-0.1-0.3l0.4-0.3L299.9,132.5z
			 M304.2,133.8l-0.3-0.5l0.7-0.3l-0.1-1.2l0.5-0.1l-0.1,1.7l-0.2,0.7L304.2,133.8z M306.8,131.3l0.1-0.5l0.3-0.2l-0.1,0.3
			L306.8,131.3z M282.6,130.5l-0.1-0.5l0.3,0.1l0.3,0.4H282.6z M301.4,130.1l-0.4,0.1l-0.2-0.5l0.1-0.5l0.2-0.4l0.3,0.1l-0.2,0.5
			L301.4,130.1z M311.6,129.4l1.2-0.7l0.8-0.8l-0.5,0.9l-1,0.7l-0.2,0.8l-0.5-0.1L311.6,129.4z M310.2,130.3l-1.1,0.3l0.2,0.6
			l-0.6,0.5l-0.2,0.3l1,0.3l0.2-1.1l0.8,0.1l0.3,0.7l-0.1-0.3l-0.5,0.4l0.5,0.8l-0.4,0.5l-0.8-0.6l-0.6,0.4v-0.3l-0.6-0.1l-0.5,0.8
			l-0.6,0.6l-0.4-0.7l0.5-0.5l0.3,0.5l0.3-1.2l-0.5-0.8l0.5-0.1l0.8-0.3l0.1-0.5l-0.6-0.1l-0.1-0.7l0.4-0.2l0.3,0.4l0.4-0.1
			l-0.1-0.5l-0.5-0.6l-1.1,0.2l-0.3,0.3l-0.3,0.7l-0.4-0.2l0.3-0.7l0.7-0.7l0.1-0.5l-0.4-0.5l0.2-0.3l0.5,0.1l-0.1,0.7l1,0.3
			l0.6,0.7l0.3,0.2l-0.2,0.3l0.3,0.1h0.6l-0.1-0.7h0.6l0.3,0.3L310.2,130.3z M305.6,127.3l0.3,0.5l-0.8,0.5l-0.1-0.5L305.6,127.3z
			 M307.9,126.4l-0.1,0.1l-0.2,0.2L307.9,126.4z M284.7,127.1l-0.3-0.5l0.1-0.4l0.3-0.2l-0.3,0.5l0.1,0.3L284.7,127.1L284.7,127.1z
			 M309.6,126.2l-0.4,0.3l0.7,0.4l0.9-0.1l0.3,0.7l-0.9,0.1l-0.9-0.5L309,127l-0.3,0.6l-0.1,0.3l-0.1-0.3l0.2-1L309.6,126.2
			L309.6,126.2z M313.7,125.5v0.4l-0.2,0.3l0.2,0.3h-0.3l-0.1-0.3H313l-0.4-0.6L313.7,125.5z M284.2,124.9l-0.3,0.3l-0.3-0.1
			l0.1-0.3L284.2,124.9z M308.1,124.7l0.2,0.2l-0.3,0.5l-0.4-0.3L308.1,124.7z M282.3,124.3v0.4l-0.2-0.1l-0.1-0.5L282.3,124.3z
			 M308.5,122.9h0.7l-0.5,0.3l-0.4,0.3l-0.2,0.4l-0.1-0.4L308.5,122.9z M314.4,122.4l0.3,0.3l-0.5,0.1l-0.1-0.4H314.4z M282.9,121.3
			l-0.8-0.7l0.3-0.5l0.3,0.4v0.4l0.5-0.4l0.4,0.2L282.9,121.3z M307.2,120.3l-0.2,0.3l-0.4-0.3v-0.5l0.2-0.5h0.5l-0.1,0.3l-0.3,0.3
			L307.2,120.3z M289,119.1l-0.1,0.2l-0.3-0.1L289,119.1z M286.4,118.9l0.6-0.1v0.3l-0.1,0.4l-0.5,0.1V118.9z M306.1,118.5l0.1-0.7
			l0.6,0.1l-0.1,0.6H306.1z M284,119.3l-0.4-0.1l-0.5,0.2l-0.7-0.6l-0.6-0.6l0.1-0.3l0.1-0.3l0.6-0.1l0.1,1l0.2,0.3l0.3-0.6l0.7,0.2
			l0.3,0.7L284,119.3z M285.1,118.1l-0.4-0.3l0.2-0.3l0.5,0.1l0.5,0.3l0.4-0.1l0.1,0.5l-0.7,0.3L285.1,118.1z M283.7,117.3l0.1-0.3
			h0.3L283.7,117.3z M309.6,117.5l0.1-0.7l0.6,0.1l-0.1,0.3l0.3,0.1l0.4-0.1l-0.4,0.2l-0.5,0.1l-0.6,0.3L309.6,117.5z M307,116.7
			l-0.7,0.3l-0.8-0.5l0.1-0.5l0.7,0.3l0.7,0.1L307,116.7z M310.9,115.9l0.5-0.1l-0.1,0.5l-0.5-0.1L310.9,115.9z M296.9,127.3
			l-1.3-0.2h-1.4l-1.1-0.6l-0.7-1.4l-0.2-7.3l0.8-1.3l1.3-0.7l1-0.1l3.6,0.1l3,0.4l2,1.2l0.7,1l0.5,1l0.1,1.9l-0.2,1.8l-0.5,1.3
			l-0.7,1.1l-0.8,0.8l-1,0.5L296.9,127.3z M312.1,115.5l0.1,0.3h-0.5l-0.1-0.5L312.1,115.5z M286.1,115.7l0.1-0.5l0.5-0.1l-0.2,0.5
			L286.1,115.7z M283.4,115.6l-0.5-0.1l-0.1-0.6l0.5,0.2L283.4,115.6z M307.5,114.8v0.8h-0.3l-0.1-0.5l0.2-0.7l0.3,0.1L307.5,114.8z
			 M301.2,113.7l0.5,0.1l0.1,0.3l1-0.3v0.5l-0.5,0.5l-0.6,0.3l-0.3-0.7l-0.2-0.3V113.7z M299.1,113.9l-0.1,0.3l-0.2-0.5L299.1,113.9
			z M308.1,113.6h0.5v0.5l-0.5,0.1V113.6z M295.6,113l-0.3,0.5l-0.1-0.5H295.6z M288.6,113.3l-0.5,0.4v-0.3l0.3-0.4h0.4L288.6,113.3
			z M289.5,113.7l0.1-0.8l0.7,0.7l-0.3,1.1l-0.5-0.2l0.3-0.3l0.3-0.2L289.5,113.7z M294.3,113.5v0.7l-0.3,0.3l-0.3-0.1v-0.5h0.5
			l-0.1-0.3l-0.4-0.5l-0.4,0.1v-0.4l0.5,0.1l0.3-0.3v0.3L294.3,113.5z M285.9,112.4h0.6l-0.1,0.7l-0.3-0.1L285.9,112.4z
			 M297.8,112.8l0.5-0.5l0.6-0.1l-0.3,0.5l-0.2,0.7l-0.5,0.1l-0.1-0.3V112.8z M305.4,113.4l0.3-0.8l0.4-0.4l0.4,0.2l-0.1,0.6
			l-0.7-0.2l-0.1,0.3l0.7,0.5l-0.4,0.7h-0.6L305.4,113.4z M281.5,112.9l0.1-0.6l0.5-0.2l-0.1,0.3l-0.5,0.3l0.2,0.3l0.1,0.7h-0.3
			L281.5,112.9L281.5,112.9z M300.8,112.4l-0.3,0.4l-0.3-0.3l0.3-0.6l0.7-0.3l0.1,0.4l-0.1,0.3L300.8,112.4L300.8,112.4z
			 M283.3,112.2l-0.1,0.7l-0.3,0.1l-0.1-1l-0.5-0.5l0.1-0.4l0.6,0.2l0.3,0.6V112.2z M310,110.9l0.3,0.5l-0.3,0.1V110.9z M305.2,111
			l-0.3,0.2l-0.3-0.1l0.2-0.3L305.2,111l0.3,0.5l-0.3,1l-0.5,0.7l-0.3-0.3l0.9-1.4L305.2,111z M305.4,110.5l0.5,0.1l0.3,0.8
			l-0.5-0.1L305.4,110.5z M281.8,110.9h-0.3v-0.6h0.3V110.9z M299.7,110.1l-0.1,0.7l0.7-0.1l0.2,0.5h-0.8l-0.4-0.5l-0.1-0.5
			L299.7,110.1z M293.9,110.1l0.2,0.5l-0.1,0.5l-0.3-0.1l0.3-0.3l-0.3-0.2l-0.2,0.5l-0.2,0.8L293,111l-0.4,0.5l-0.3-0.7l-0.1-0.6
			l0.8,0.1l0.5,0.1L293.9,110.1z M302.5,112.2v0.5l-0.1,0.3l-0.2-0.2v-0.7l0.1-0.8l-0.5-0.5l-0.2-0.8l0.7-0.4l-0.3,0.7l0.4,0.5
			l0.7,0.7l-0.3,0.3L302.5,112.2z M296.1,108.7l-0.6,1.1l0.7,0.5v-0.4l0.1,0.3L296,111l-0.7-0.7l-0.7-0.7l-0.1-0.5l0.7-0.5
			L296.1,108.7z M298.2,108.8l0.1,0.4l-0.3-0.1l-0.1-0.5L298.2,108.8z M303,108.1l0.3,0.5l0.3,0.5l0.6,0.5l0.5-0.6l0.6-0.8l1.3,0.2
			l0.4-0.4l0.1,0.4l0.2,0.5l-0.4,0.6l-0.7-0.2h-0.4l-0.7,0.2l-1.1,0.7l-0.9,0.2l-0.1,0.3l0.1-0.5l0.2-0.6l-0.1-0.4l-0.4-0.5
			L303,108.1z M289.5,108.3l0.4,0.1l-0.1-0.6L289.5,108.3z M281.5,108.7l0.3,0.1l0.2,0.4l0.3-0.1l-0.2-0.6l-0.1-1l0.8,0.1l0.1,0.8
			l-0.4,1.2l-1.2-0.2L281.5,108.7z M299.3,107.5v-0.4l0.4,0.3l0.1,1l-0.3-0.1l-0.1-0.4l-0.2-0.2L299.3,107.5z M294.5,107l0.3-0.1
			l-0.1,0.5l-0.3,0.1L294.5,107z M301.3,106.7l1,0.7l0.1,0.7l-0.8,0.3l-0.5-0.7l-0.3,0.1v0.8l0.3,0.8l0.2,0.3l-0.4-0.1l-0.4-0.3
			l-0.2,0.3l-0.2-0.8l0.3-1.1l-0.3-0.6l-0.1-0.3L301.3,106.7z M296.7,106.7v0.5l-0.5-0.3L296.7,106.7z M292.2,112.4l-0.6,0.7l0.1,1
			l-0.1,0.5l-0.1-0.4l-0.4-1l-0.3-1l-0.5,0.3l-0.3,0.3l-0.4-1.4l0.1-1.4l-0.5-0.5l0.1-0.5l-0.3-0.4l0.3-0.3l0.2-0.5l-0.1-0.8h0.6
			l0.2,0.5l0.3,0.2l0.5,0.1l0.1-0.6l0.3,0.2l0.1,0.7l0.3,0.1l-0.5,0.5l0.5,0.4l0.5-0.7l0.7,0.3l0.2,0.7l-0.6-0.5l-0.5,1l-0.6,0.4
			l-0.6,0.1l-0.1-0.3l0.1-0.5l-0.4,0.2l-0.2,1l-0.4,0.6l0.8,0.5l0.5,0.8l0.3-0.1l-0.1-0.7l0.7,0.4l0.4,0.5L292.2,112.4z
			 M283.7,107.6l-0.3-0.3l0.8-0.9l1.2,0.1l0.2,0.8l0.7-0.6l-0.2-0.4l-0.3,0.3l0.2-0.3l0.8,0.7l0.7,0.5l0.7-0.2l0.2-0.7l0.4,0.1
			l-0.1,0.7l-0.4,0.4l-0.2,0.3l-0.1,1l0.7,0.8l0.3,1.4l-0.4,0.5l0.5-0.1l0.2,0.4l-0.6,0.3l-0.4-0.7L288,111l-0.2-1.4l-0.1-1.5
			l-0.3,0.3l0.2,0.7l-1.3,0.7l0.5,0.9l0.6,0.3l0.4,0.5v0.5l-0.2,0.3l-0.3,0.1l0.1-0.8l-0.3-0.4l-0.4-0.5l-0.5,0.1L286,111l-0.1,0.5
			l-0.7,0.7l-0.3,0.9l-0.7-1l-0.8-1.4l0.3-0.9l0.3,0.1l0.3,1l0.2,1.1l0.4-0.8l0.9-0.1l-0.1-0.8l0.4-1.2l0.7-1l-0.3-0.3l0.4-0.2
			l-0.4-0.1L285,108l-0.3-0.7l-0.3,0.8v0.6l0.3,0.5l-0.4-0.1h-0.5l-0.7-0.2l0.7-0.8L283.7,107.6z M318.2,147.6l-2.1-3.2l-0.6-1.1
			l-0.8-1.2l-0.7-1.2l-0.8-1l-2-3.4l-0.2-1.6l0.7-1.4l1.8-1.8l0.8-1.1l0.5-1.2l0.7-1.2l0.5-1.1l0.7-2.5l0.1-5.1l-0.3-1.2l-0.2-1.2
			l-0.3-1.3l-1.8-3.6l-0.9-1l-0.6-1l-3.3-2.5l-2.3-1.2l-5.4-1.1l-1.6-0.1l-1.9,0.1l-1.4-0.1l-1.3,0.1l-1.4-0.1l-1.1,0.1l-3.9-0.1
			l-1.2,0.2l-2.7-0.3l-1.2,0.2l-1.4-0.1l-1.2,0.6l-0.5,1.4l-0.2,18.2l0.2,1.9v3.3l-0.1,1.4l-0.1,2.5l0.2,1.4l-0.2,2.7l0.3,3.8
			l-0.1,1.4l0.2,5.1l0.5,1.4l1.3,0.7l1.2,0.1l2.7-0.2l1.4,0.1h2l2-0.7l0.5-1.2l0.1-1.4l-0.3-1.4l0.2-2.8l-0.1-4l0.6-1.3l1.3-0.7h1.2
			l1.2-0.1l1.6,0.5l1,1.1l1.7,2.3l0.5,1.2l1.8,3.3l0.8,1.2l0.6,1.1l0.8,1l1.3,1.2l1.6,0.4l2.3,0.1l1.4-0.1l1.3,0.1h2.6l1.4-0.1
			l1.4-0.3l0.3-1.4L318.2,147.6z"/>
	</g>
	<g>
		<defs>
			<rect id="SVGID_33_" x="-8.9" y="-7" width="847.7" height="1067"/>
		</defs>
		<clipPath id="SVGID_34_">
			<use xlink:href="#SVGID_33_"  style="overflow:visible;"/>
		</clipPath>
		<g class="st16">
			<g>
				<defs>
					<rect id="SVGID_35_" x="-8.9" y="-7" width="847.7" height="1067"/>
				</defs>
				<clipPath id="SVGID_36_">
					<use xlink:href="#SVGID_35_"  style="overflow:visible;"/>
				</clipPath>
				<g class="st17">
					<g>
						<g>
							<defs>
								<rect id="SVGID_37_" x="1.3" y="1.2" width="828" height="144.5"/>
							</defs>
							<clipPath id="SVGID_38_">
								<use xlink:href="#SVGID_37_"  style="overflow:visible;"/>
							</clipPath>
							<rect x="1.3" y="1.2" class="st18" width="828" height="94.5"/>
						</g>
					</g>
				</g>
			</g>
			<g>
				<defs>
					<rect id="SVGID_39_" x="-8.9" y="-7" width="847.7" height="1067"/>
				</defs>
				<clipPath id="SVGID_40_">
					<use xlink:href="#SVGID_39_"  style="overflow:visible;"/>
				</clipPath>
				<path class="st19" d="M820.1,82.1V0H0.1v94.7c0,0,494.9-11.6,511.6-6.1c6.5,2.1-6.5,34,3.2,43.2c11.6,11,27.1,0,99.3,0
					c57.8,0,142.1,3.4,146,0c14.7-12.6-7.1-32.8,6.4-47.6L820.1,82.1z"/>
			</g>
			<g>
				<defs>
					<rect id="SVGID_41_" x="-8.9" y="-7" width="847.7" height="1067"/>
				</defs>
				<clipPath id="SVGID_42_">
					<use xlink:href="#SVGID_41_"  style="overflow:visible;"/>
				</clipPath>
				<path class="st20" d="M734.5,107.7c0.1,1,0.1,1.9,0.1,2.9c0,0.8,0,1.6-0.1,2.1c0,0.3-0.2,0.7-0.6,1.2c-0.4,0.4-0.7,0.7-1.1,0.8
					l-0.1-4.1c0-0.2,0-0.9,0.1-2.1c0-0.4,0.1-1.1,0.1-2.2C734,106.5,734.5,106.9,734.5,107.7 M739,123.6c0-0.1-0.2-0.5-0.6-1.4
					c-0.4-0.9-0.8-2.1-1.3-3.7c-0.3-0.8-0.9-1.6-1.6-2.3c0.7-0.4,1.2-1,1.7-1.8c0.4-0.7,0.6-1.2,0.7-1.8c0.1-0.5,0.2-1.1,0.2-1.7
					c0-0.2,0-0.7-0.1-1.4c0-0.3,0-0.7,0-1.3c0-0.4,0-0.8,0-1.2c0-0.4-0.1-0.8-0.2-1.1c-0.1-0.4-0.4-0.8-0.8-1.2
					c-0.4-0.4-0.9-0.7-1.5-0.9c-0.6-0.2-1.1-0.4-1.7-0.4c-0.4,0-0.9,0-1.6,0.1h-0.9c-0.2,0-0.6,0.1-1,0.1c-0.4,0.1-0.8,0.2-1.1,0.3
					c0,0.7,0,2,0,3.8s0.1,3.1,0.1,3.8l0.1,2.8c0,0.2,0,0.9-0.1,2.3c-0.1,2.3-0.2,3.7-0.1,4.2c0,0.4,0.1,1.1,0.1,1.9
					c0,0.2,0,0.5,0,0.8s0.1,0.6,0.3,0.8c0.2,0.2,0.4,0.3,0.6,0.3h1.8c0.3-0.2,0.6-0.3,0.8-0.5s0.3-0.4,0.3-0.8v-5.9l0.7,1.4
					c0.2,0.4,0.6,1.5,1.1,3.4l0.5,1.7c0.1,0.3,0.3,0.6,0.6,0.8c0.3,0.2,0.5,0.3,0.8,0.3s0.6-0.1,1-0.2s0.7-0.2,0.7-0.2
					c0.4-0.1,0.7-0.4,0.7-0.8C739,124,739,123.8,739,123.6 M723.2,122.3c-0.2,0-0.4-0.1-0.5-0.3c-0.1-0.2-0.2-0.5-0.2-0.9
					c-0.1-1-0.1-2.2-0.1-3.5c0-1.4,0-2.7,0.1-3.8c0.1-1,0.1-1.9,0.1-2.5l-0.1-2c0-1.5,0.2-2.2,0.6-2.2c0.3,0,0.5,0.2,0.6,0.5
					s0.2,0.9,0.3,1.7c0.1,1.1,0.1,2,0.1,2.9c0,0.4,0,0.9-0.1,1.5v1.1v6c0,0.4-0.1,0.8-0.3,1.1C723.7,122.1,723.4,122.3,723.2,122.3
					 M723.1,125.2c1.3,0,2.3-0.4,2.9-1.2c0.6-0.8,1-2,1.2-3.5c0.1-0.4,0.1-1.4,0.1-2.9V115c0-2-0.1-4.2-0.3-6.5
					c-0.1-1.2-0.5-2.2-1.3-3c-0.7-0.8-1.8-1.1-3.2-1.1c-1.1,0-1.9,0.3-2.5,0.9s-0.9,1.6-1.1,3.1c-0.1,1-0.2,1.8-0.3,2.4
					c0,0.6-0.1,1.6-0.1,2.9c0,1.2-0.1,2-0.1,2.4c0,0.9,0.1,1.8,0.2,2.7s0.3,1.8,0.6,3c0.4,1.4,0.8,2.4,1.5,2.9
					C721.2,124.9,722,125.2,723.1,125.2 M711.4,118.1c0-0.1-0.1-0.2-0.2-0.2s-0.2,0-0.4,0h-0.7c-0.2,0-0.5,0-1-0.1
					c-0.2,0-0.4,0-0.6,0.1c-0.2,0.1-0.3,0.1-0.3,0.2c-0.1,0.5-0.1,0.9-0.1,1.3c0,0.7,0.1,1.6,0.4,2.7c0.2,1,0.5,1.6,0.9,2.1
					c0.4,0.4,0.8,0.7,1.2,0.8s1,0.1,1.8,0.1c1.4,0,2.3-0.3,3-1c0.6-0.7,1-1.8,1.2-3.3c0.1-0.4,0.1-1.4,0.1-2.9v-2.6
					c0-1.2-0.1-3.5-0.3-6.7c0-0.3,0-0.5,0-0.8c0-0.2,0-0.4,0-0.6v-0.6c0-0.5,0-0.9-0.1-1.2c-0.1-0.3-0.2-0.5-0.3-0.6
					c-0.5-0.1-0.9-0.2-1.1-0.2c-0.4,0-0.9,0.1-1.5,0.3v1c-0.1,1.9-0.1,3.2-0.1,3.7c0.1,1.1,0.1,2.2,0.1,3.1v1.3c0,0.2,0,0.6,0,1.1
					c0,0.8,0,1.7,0,2.7s-0.1,1.7-0.1,2.4c-0.1,0.8-0.1,1.3-0.3,1.5c-0.1,0.2-0.3,0.4-0.6,0.4c-0.2,0-0.4-0.1-0.6-0.3
					c-0.2-0.2-0.3-0.4-0.3-0.8c0-0.2,0-0.4,0-0.5c0-0.2,0-0.3,0-0.4c0-0.2,0-0.4,0-0.8C711.4,118.6,711.4,118.2,711.4,118.1
					 M706.7,122.8l-0.1-0.9c-0.3-0.1-1.1-0.1-2.4-0.1c-0.2,0-0.4,0-0.6,0c-0.2,0-0.5,0-0.8,0c-0.4,0-0.7,0-0.9,0l-0.1-5l1.2-0.1
					c0.2,0,0.5,0,0.9,0c0.6,0,1.1-0.1,1.5-0.2v-2c0-0.6-0.2-0.8-0.7-0.8c-0.5,0.1-0.9,0.1-1.2,0.1l-1,0.1c-0.3,0-0.5,0.1-0.7,0.1
					v-0.7c0-0.6,0-1.1,0.1-1.7c0-0.2,0-0.5,0-0.8c0-0.2,0-0.5,0-0.8s0-0.6,0-0.8V108l0.9-0.1c0.6,0,1,0,1.3-0.1
					c0.3,0,0.8-0.1,1.3-0.1c0.4,0,0.7,0,0.8-0.1v-1c0-0.2,0-0.4,0-0.7c0-0.2,0-0.4,0-0.6c0-0.1,0-0.2-0.1-0.3
					c-0.1-0.3-0.3-0.4-0.7-0.4c-0.3,0-1.3,0.1-2.9,0.2l-2,0.1c-0.2,0-0.6,0.1-1.2,0.1c-0.6,0-1.1,0-1.4,0c0,0.2,0,0.5,0,1
					c0,0.4,0,0.7,0,1l0.1,1.4c0,0.2,0,0.4,0,0.6s0,0.4,0,0.6c0,0.1,0,0.4,0.1,0.7l0.1,0.7c0,0.6,0,1.7,0.1,3.4c0,0.3,0,0.6,0,0.9
					l-0.1,2.1c-0.1,2-0.2,3.3-0.1,4.1c0.1,0.7,0.1,1.4,0.1,2.3v0.9c0,0.2,0.3,0.3,0.8,0.3c0.2,0,0.5,0,0.6,0c0.2,0,0.3,0,0.5-0.1
					c0.5-0.1,0.8-0.1,0.9-0.1c0.2,0,0.6,0,1.3-0.1l0.7-0.1c0.4,0,1.1,0,2.1,0.1c0.4,0,0.6,0.1,0.8,0.1c0.3,0,0.5,0,0.7-0.2
					s0.3-0.4,0.3-0.8c0-0.2,0-0.4-0.1-0.6C706.8,123.1,706.8,122.9,706.7,122.8 M695.9,110.3c0-0.3,0-1.1-0.1-2.5c0-1.3,0-2.4,0-3.2
					c0-0.4-0.1-0.6-0.2-0.8c-0.2-0.2-0.4-0.2-0.6-0.2c-0.2,0-0.3,0.1-0.4,0.1s-0.2,0-0.3,0c-0.4,0-0.7,0.1-0.9,0.2s-0.4,0.2-0.6,0.4
					c-0.2,0.5-0.3,1.2-0.5,2.3l-0.2,1.1c-0.3,1.2-0.8,3.2-1.5,5.9l-0.4-1.3c-0.8-2.8-1.3-4.4-1.4-4.9c-0.1-0.3-0.2-0.7-0.3-1.1
					l-0.3-0.9c-0.1-0.3-0.2-0.5-0.4-0.6s-0.4-0.1-0.7-0.1c-0.9,0-1.6,0.1-2.1,0.2c0,0.9,0,2.2,0.1,3.8c0.1,0.6,0.1,1,0.1,1.4v2.6
					v7.4v0.9v1.2l0.1,1.5v0.5c0,0.2,0,0.3,0.1,0.5c0,0.1,0.1,0.2,0.3,0.2s0.4,0,0.6,0h0.8c0.5,0,0.9-0.1,1.2-0.3
					c0.3-0.2,0.4-0.5,0.4-1c0-1,0-2.4-0.1-4.4c0-1.3-0.1-2.6-0.1-3.7V115c0.2,0.6,0.6,1.8,1.1,3.6c0.1,0.3,0.2,0.5,0.3,0.6
					c0.2,0.1,0.3,0.1,0.6,0.1c0.6,0,1.1-0.3,1.2-1l0.3-1.1c0.3-1.2,0.5-2,0.7-2.4l0.4-0.9v0.4c0,0.7,0,1.4,0,2.2
					c-0.1,4.2-0.1,6.5-0.1,7c0,0.8,0,1.3,0,1.4l1.1,0.1c0.6,0,1.1-0.1,1.5-0.3s0.6-0.5,0.6-1.1c0-0.1,0-0.4,0-0.9s0-1.2,0-2.3
					c0-1.1,0-2,0-2.6c0-0.5,0-1.2,0-2.2c0-1.1,0-2.2-0.1-3.3C695.9,111.4,695.9,110.7,695.9,110.3 M675.6,125.1
					c0.5,0,0.9-0.1,1.3-0.2c0.4-0.2,0.8-0.4,1.2-0.7c0.3-0.2,0.6-0.5,0.7-0.9c0.2-0.4,0.3-0.8,0.3-1.3c0-0.3,0.1-0.5,0.1-0.7
					c0-0.4,0-0.8-0.1-1.3c-0.1-0.4-0.2-0.8-0.3-1.1c-0.3-0.6-0.5-1.1-0.8-1.4c-0.2-0.3-0.7-0.9-1.4-1.7c-0.3-0.3-0.6-0.7-0.9-1.3
					c-0.3-0.5-0.5-1-0.5-1.3s0.1-0.7,0.3-1.1s0.5-0.7,0.9-0.7c0.3,0,0.5,0.1,0.7,0.4s0.2,0.6,0.2,0.9c0,0.4,0.1,0.7,0.2,0.9
					c0.1,0.2,0.3,0.3,0.5,0.3l1-0.2c0-0.2,0-0.5,0-0.7c0-0.3,0-0.5,0-0.6c0-0.3-0.1-0.7-0.3-1s-0.4-0.6-0.7-0.8
					c-0.3-0.2-0.6-0.3-0.9-0.4c-0.3-0.1-0.6-0.2-0.9-0.2c-0.7,0-1.3,0.2-1.8,0.7s-0.8,1.1-0.9,1.9c-0.1,0.3-0.1,0.6-0.1,0.9
					c0,0.7,0.2,1.3,0.5,2.1c0.7,1.4,1.3,2.3,1.9,2.8c0.4,0.4,0.7,0.9,1,1.4c0.3,0.6,0.4,1.1,0.4,1.5c0,0.6-0.2,1.1-0.5,1.5
					c-0.3,0.3-0.6,0.5-0.9,0.5c-0.3,0-0.5-0.1-0.7-0.4c-0.2-0.2-0.3-0.6-0.4-1c-0.1-0.4-0.1-0.8-0.2-0.9c-0.1-0.2-0.1-0.4-0.2-0.4
					c-0.1-0.1-0.3-0.1-0.5-0.1c-0.4,0.2-0.6,0.3-0.8,0.4c-0.1,0.1-0.2,0.4-0.2,0.7c0,0.1,0,0.3,0.1,0.6c0.2,1,0.5,1.8,1,2.2
					S675,125.1,675.6,125.1 M669.5,120.6c0,0.9-0.1,1.6-0.3,2s-0.5,0.7-0.9,0.7s-0.7-0.3-0.9-1c-0.2-0.6-0.3-1.7-0.3-3.2v-2.6
					c0-0.4,0-0.6,0-0.7c0.1-1,0.2-1.7,0.3-2.1s0.2-0.8,0.3-1s0.3-0.3,0.6-0.3c0.4,0,0.7,0.2,0.9,0.6s0.3,1.2,0.3,2.3
					c0,0.7,0,1.4,0,1.9C669.5,119,669.5,120.1,669.5,120.6 M668.7,125.1c0.6,0,1.2-0.3,1.6-0.8c0.5-0.5,0.9-1.3,1.1-2.2
					c0.1-0.3,0.2-1,0.2-1.9c0.1-0.9,0.1-1.7,0.1-2.3v-1.6c0-1.4-0.2-2.8-0.7-4.1c-0.3-0.7-0.6-1.2-1.1-1.5c-0.4-0.3-1-0.4-1.7-0.4
					c-0.6,0-1.1,0.2-1.5,0.6s-0.8,1-1.1,1.8c-0.4,1.1-0.7,2.4-0.7,4v1c0.1,2.5,0.3,4.3,0.5,5.4c0.2,0.8,0.6,1.3,1.1,1.6
					C667.1,125,667.8,125.1,668.7,125.1 M663.3,113.6c0-0.1,0-0.3,0-0.6c0-0.3,0-0.6-0.1-1c0-0.3-0.2-0.7-0.4-1.2
					c-0.2-0.3-0.4-0.5-0.7-0.7s-0.7-0.3-1-0.3c-0.9,0-1.6,0.6-2.1,1.8l-0.2-0.5c-0.2-0.3-0.4-0.6-0.8-0.8c-0.4-0.2-0.7-0.3-1.1-0.3
					c-0.7,0-1.4,0.5-1.9,1.6c-0.2-0.4-0.3-0.8-0.5-1.1c-0.7,0-1.2,0-1.5,0.1v1.2v3.3c0,0.7,0,1.3,0,1.9v3.8v3v0.4c0,0.2,0,0.3,0,0.5
					c0,0.1,0.1,0.2,0.2,0.2c0.1,0,0.3,0,0.4,0s0.3,0,0.4,0c0.3,0,0.6-0.1,0.8-0.2c0.2-0.2,0.3-0.5,0.3-0.9v-2.2c0-0.8,0-1.3,0-1.7
					v-2c0-1.2,0-2.6,0.1-4.1c0.3-1.1,0.7-1.6,1.2-1.6s0.7,0.8,0.7,2.3c0,0.5,0,1-0.1,1.5c0,0.2,0,0.4,0,0.7c0,4.8,0,7.6,0.1,8.3
					l0.6,0.1c0.4,0,0.8,0,0.9-0.1c0.2,0,0.3-0.2,0.4-0.3c0.1-0.2,0.1-0.5,0.1-0.9v-1.9c0-1.5,0-2.7,0-3.5c0-0.4,0-1,0-1.9
					c0-1,0-1.7,0-2.2c0.3-1.5,0.8-2.3,1.3-2.3s0.7,0.8,0.7,2.4c0,0.5,0,1-0.1,1.6c0,0.2,0,0.4,0,0.7c0,4.8,0,7.6,0.1,8.3l0.6,0.1
					c0.4,0,0.8,0,1-0.1c0.2,0,0.3-0.2,0.4-0.3c0.1-0.2,0.1-0.5,0.1-0.9v-1.9c0-1.5,0-2.7,0-3.5c0-0.5,0-1.3,0-2.5
					C663.3,114.7,663.3,114,663.3,113.6 M648,111.9c0.4,0,0.7,0.3,0.8,0.8c0.2,0.5,0.3,1.3,0.4,2.2v0.9c0,0.7-0.1,1-0.2,1
					c-0.2,0-0.4,0-0.7,0s-0.5,0-0.7,0h-0.9v-0.5c0-1.5,0.2-2.6,0.4-3.3C647.4,112.3,647.7,111.9,648,111.9 M650.4,120.3
					c-0.2-0.1-0.3-0.2-0.5-0.2c-0.1,0-0.2,0.1-0.3,0.2s-0.2,0.4-0.4,1s-0.4,1.1-0.6,1.4c-0.2,0.3-0.4,0.5-0.7,0.5s-0.6-0.3-0.8-0.8
					c-0.2-0.6-0.4-1.5-0.4-2.7v-0.9c0.5,0,0.9,0.1,1.1,0.1c0.8,0,1.6-0.1,2.3-0.3l0.8-0.1c0.2-0.3,0.3-0.9,0.3-1.6
					c0-0.8-0.1-1.5-0.2-2.4c-0.2-1.5-0.6-2.6-1.1-3.2s-1.2-1-2.1-1c-0.6,0-1.2,0.3-1.7,1c-0.6,0.7-0.9,1.4-1.1,2.1
					c-0.3,1.3-0.5,2.5-0.5,3.6v0.9c0,1.8,0.2,3.4,0.5,4.9c0.2,0.9,0.5,1.6,1.1,1.9c0.5,0.4,1.2,0.5,2,0.5c0.6,0,1.2-0.3,1.7-0.9
					s0.9-1.5,1.3-2.5c0.1-0.2,0.1-0.3,0.1-0.4c0-0.2,0-0.3-0.1-0.5c-0.1-0.1-0.2-0.3-0.3-0.4C650.6,120.5,650.5,120.4,650.4,120.3
					 M641.4,114.9c0,0.3,0.2,0.5,0.6,0.5c0.3,0,0.7-0.1,1-0.3c0.1-0.3,0.1-0.6,0.1-0.8c0-0.2,0-0.3,0-0.4c-0.2-1.4-0.6-2.3-1.1-2.8
					s-1.2-0.8-2-0.8c-0.6,0-1.2,0.2-1.6,0.6c-0.5,0.4-0.9,1.3-1.4,2.7c-0.2,0.5-0.3,1.2-0.3,2s-0.1,1.5,0,2c0,1.1,0.1,2.2,0.2,3.1
					c0.1,0.9,0.2,1.6,0.3,2c0.2,0.9,0.5,1.5,1,1.8s1.2,0.5,1.9,0.5s1.3-0.3,1.7-0.8c0.5-0.5,0.9-1.4,1.2-2.7
					c0.1-0.2,0.1-0.4,0.1-0.6s0-0.3-0.1-0.4s-0.2-0.2-0.5-0.4c-0.1-0.1-0.3-0.2-0.5-0.2s-0.4,0.1-0.5,0.4l-0.2,0.6
					c-0.2,0.7-0.4,1.3-0.6,1.7c-0.2,0.4-0.5,0.5-0.9,0.5c-0.8,0-1.2-1.5-1.2-4.4V116c0-2.6,0.4-3.8,1.2-3.8c0.5,0,0.8,0.2,1,0.6
					S641.3,114,641.4,114.9 M631.7,123c-0.2,0-0.5-0.2-0.7-0.5s-0.3-0.9-0.3-1.6c0-1,0.1-1.9,0.3-2.7c0.2-0.8,0.5-1.2,0.9-1.2
					c0.5,0,0.8,0.4,1,1.1v1.9v1.7C632.6,122.5,632.2,123,631.7,123 M634.6,111.8c-0.2-0.5-0.5-1-1-1.4s-1.1-0.6-1.8-0.6
					c-0.4,0-0.8,0-1,0.1c-0.3,0.1-0.6,0.2-0.9,0.4c-0.4,0.3-0.6,0.5-0.8,0.7c-0.1,0.2-0.2,0.5-0.2,0.8c0.1,0.2,0.1,0.4,0.3,0.6
					c0.1,0.1,0.3,0.3,0.5,0.4c0.2-0.2,0.4-0.5,0.8-0.7s0.7-0.3,1.2-0.3c0.4,0.1,0.7,0.3,0.9,0.9c0.2,0.5,0.3,1.1,0.3,1.7v1.6
					c-0.3-0.4-0.8-0.6-1.3-0.6c-0.7,0-1.1,0.1-1.5,0.3c-0.3,0.2-0.7,0.7-1.1,1.4c-0.2,0.3-0.3,0.9-0.4,1.5c-0.1,0.7-0.2,1.4-0.2,2.1
					c0,1.1,0.1,1.9,0.3,2.5c0.3,0.7,0.6,1.2,0.9,1.4c0.4,0.3,0.8,0.4,1.4,0.4c0.6,0,1.3-0.5,2.1-1.4c0.1,0.8,0.2,1.2,0.3,1.2
					c0.2,0,0.3,0,0.4,0c0.1,0,0.3,0,0.4,0c0.3,0,0.5-0.1,0.6-0.2c0.1-0.2,0.2-0.5,0.2-0.9v-3.8V119c0-0.8,0.1-1.7,0.1-2.4
					C635.1,114.6,635,112.9,634.6,111.8 M626.7,113.9c0-0.2,0-0.4,0-0.7c0-0.3,0-0.6-0.1-0.9c0-0.3-0.2-0.7-0.4-1.1
					c-0.1-0.3-0.4-0.6-0.8-0.8c-0.4-0.2-0.8-0.3-1.3-0.3c-0.7,0-1.4,0.5-1.9,1.5c0-3.2,0.1-5.3,0.1-6.2c0-0.2-0.3-0.4-0.7-0.4
					c-0.7,0-1.2,0.1-1.5,0.2v1.1v6.8c0,0.7,0,1.4,0,2.2l-0.1,6.3v0.9v1.5v0.4c0,0.2,0,0.3,0,0.5c0,0.1,0.1,0.2,0.2,0.2
					c0.1,0,0.3,0,0.4,0c0.1,0,0.3,0,0.4,0c0.3,0,0.6-0.1,0.8-0.2c0.2-0.2,0.3-0.5,0.3-0.9v-1.4c0-1.1,0-1.9,0-2.5c0-0.2,0-2.1,0-5.6
					c0.3-1.4,0.8-2.1,1.4-2.1c0.6,0,1,0.8,1,2.4c0,0.4,0,0.9-0.1,1.4c0,0.2,0,0.4,0,0.6c0,5,0,7.9,0.1,8.5l0.6,0.1
					c0.4,0,0.8,0,1-0.1c0.2,0,0.3-0.2,0.4-0.3c0.1-0.2,0.1-0.5,0.1-0.9v-2c0-1.6,0-2.8,0-3.6c0-0.5,0-1.2,0-2.3
					C626.8,114.9,626.8,114.2,626.7,113.9 M612,120.6c0,0.9-0.1,1.6-0.3,2s-0.5,0.7-0.9,0.7s-0.7-0.3-0.9-1
					c-0.2-0.6-0.3-1.7-0.3-3.2v-2.6c0-0.4,0-0.6,0-0.7c0.1-1,0.2-1.7,0.3-2.1s0.2-0.8,0.3-1s0.3-0.3,0.6-0.3c0.4,0,0.7,0.2,0.9,0.6
					s0.3,1.2,0.3,2.3c0,0.7,0,1.4,0,1.9C612,119,612,120.1,612,120.6 M611.2,125.1c0.6,0,1.2-0.3,1.6-0.8c0.5-0.5,0.9-1.3,1.1-2.2
					c0.1-0.3,0.2-1,0.2-1.9c0.1-0.9,0.1-1.7,0.1-2.3v-1.6c0-1.4-0.2-2.8-0.7-4.1c-0.3-0.7-0.6-1.2-1.1-1.5c-0.4-0.3-1-0.4-1.7-0.4
					c-0.6,0-1.1,0.2-1.5,0.6s-0.8,1-1.1,1.8c-0.4,1.1-0.7,2.4-0.7,4v1c0.1,2.5,0.3,4.3,0.5,5.4c0.2,0.8,0.6,1.3,1.1,1.6
					C609.7,125,610.3,125.1,611.2,125.1 M603.9,124.9h0.8c0.7,0,1-0.2,1-0.5v-4.5v-0.8c0-1.5,0.1-3.2,0.1-5.3V110
					c0-2.5,0-3.9,0.1-4.2c0-0.4-0.1-0.7-0.3-0.8c-0.2-0.1-0.5-0.2-0.9-0.2c-0.3,0-0.5,0-0.6,0s-0.3,0.1-0.5,0.1v1.2v6.9v2.2
					c0,0.6,0,1.1,0,1.5c0,2.1,0,3.4,0,4c0,0.3,0,0.8,0,1.6v1.4c0,0.1,0,0.2,0,0.4c0,0.2,0,0.4,0,0.6S603.8,124.9,603.9,124.9
					 M596.9,120.3c0.1-0.8,0.1-1.4,0.1-1.8c0-0.9-0.2-1.7-0.5-2.4c-0.3-0.8-0.8-1.5-1.4-2.2c-0.6-0.7-1.3-1.6-2.2-2.6
					c-0.6-0.7-0.9-1.8-0.9-3.4c0-0.7,0.1-1.2,0.3-1.5s0.4-0.4,0.8-0.4c0.3,0,0.5,0.2,0.6,0.5c0.1,0.4,0.2,1,0.2,2
					c0,0.7,0.1,1.2,0.2,1.4s0.3,0.4,0.7,0.4l2-0.3l-0.1-2.2c-0.1-1.4-0.5-2.5-1.3-3.3s-1.9-1.2-3.4-1.2c-1.2,0-2.1,0.5-2.8,1.3
					c-0.6,0.9-1,2.1-1,3.5c0,0.7,0.1,1.4,0.3,1.9s0.5,1.3,1,2.3c0.1,0.3,0.3,0.6,0.5,0.9s0.4,0.6,0.6,0.9c0.6,0.8,1,1.4,1.3,1.9
					c0.5,0.8,0.8,1.5,0.9,2.1c0.1,0.5,0.2,1.1,0.2,1.6c0,0.8,0,1.4,0,1.7c0,0.3-0.1,0.5-0.3,0.7c-0.1,0.1-0.4,0.2-0.8,0.2
					c-0.3,0-0.5-0.1-0.7-0.2s-0.3-0.4-0.3-0.8c-0.1-0.4-0.1-0.9-0.1-1.7v-0.8c0-0.4-0.1-0.8-0.2-1s-0.4-0.4-0.7-0.5l-2.1-0.1
					c-0.1,0.7-0.2,1.4-0.2,2c0,0.7,0.1,1.4,0.3,2.3c0.3,1.5,0.9,2.6,1.6,3.1c0.7,0.6,1.6,0.8,2.6,0.8s2-0.4,3-1.2
					c0.5-0.4,0.9-0.9,1.1-1.5C596.6,121.9,596.8,121.2,596.9,120.3 M582.1,122.3c-0.2,0-0.4-0.1-0.5-0.3c-0.1-0.2-0.2-0.5-0.2-0.9
					c-0.1-1-0.1-2.2-0.1-3.5c0-1.4,0-2.7,0.1-3.8c0.1-1,0.1-1.9,0.1-2.5l-0.1-2c0-1.5,0.2-2.2,0.6-2.2c0.3,0,0.5,0.2,0.6,0.5
					s0.2,0.9,0.3,1.7c0.1,1.1,0.1,2,0.1,2.9c0,0.4,0,0.9-0.1,1.5v1.1v6c0,0.4-0.1,0.8-0.3,1.1C582.6,122.1,582.4,122.3,582.1,122.3
					 M582,125.2c1.3,0,2.3-0.4,2.9-1.2c0.6-0.8,1-2,1.2-3.5c0.1-0.4,0.1-1.4,0.1-2.9V115c0-2-0.1-4.2-0.3-6.5
					c-0.1-1.2-0.5-2.2-1.3-3c-0.7-0.8-1.8-1.1-3.2-1.1c-1.1,0-1.9,0.3-2.5,0.9s-0.9,1.6-1.1,3.1c-0.1,1-0.2,1.8-0.3,2.4
					c0,0.6-0.1,1.6-0.1,2.9c0,1.2-0.1,2-0.1,2.4c0,0.9,0.1,1.8,0.2,2.7c0.1,0.8,0.3,1.8,0.6,3c0.4,1.4,0.8,2.4,1.5,2.9
					C580.2,124.9,581,125.2,582,125.2 M576.3,105.2c0-0.3-0.1-0.5-0.2-0.6c-0.1-0.1-0.3-0.2-0.5-0.2c-0.3,0-0.6,0-1.1,0.1
					c-1.1,0.1-1.8,0.1-2.1,0.1c-0.2,0-0.6,0-1.1,0s-0.8,0.1-1.1,0.1c-0.4,0.1-0.9,0.1-1.5,0.1s-1.1,0-1.5,0
					c-0.1,0.1-0.2,0.3-0.3,0.6c-0.1,0.3-0.1,0.6-0.1,1c0,0.7,0.1,1.2,0.3,1.7h2.2h0.4c0,0.8,0.1,1.8,0.1,3c0.1,1.9,0.1,3.1,0.1,3.6
					l-0.1,2.2c-0.1,2.1-0.2,3.6-0.1,4.4c0.1,0.7,0.1,1.3,0.1,2v0.7c0,0.3,0.1,0.6,0.3,0.8c0.2,0.2,0.4,0.3,0.6,0.3
					c0.1,0,0.5,0,1.1,0c0.7,0,1.2-0.1,1.5-0.2c0.2-0.1,0.2-0.2,0.2-0.4c0-0.1,0-0.2,0-0.3c0-0.1,0-0.3,0-0.4l-0.1-2.7
					c0-0.4,0-0.9,0-1.6s0-1.5,0.1-2.7c0-1.2,0.1-2.1,0.1-2.8c0-0.9,0-1.6,0-2.2s0-1,0-1.1c0-1.2,0-2.2,0-2.9c0,0,0.1,0,0.2,0
					c0.3,0,0.8-0.1,1.4-0.1c0.6,0,1,0,1.2-0.1v-1c0-0.2,0-0.5,0-0.7C576.3,105.5,576.3,105.3,576.3,105.2 M565.4,117.9
					c-0.1-1.8-0.2-4.4-0.2-7.7c0-0.7-0.1-1.6-0.1-2.7s0-2.1,0-2.9c0-0.7-0.3-1.1-0.9-1.1c-0.6,0-1.1,0-1.4,0.1
					c-0.3,0.1-0.5,0.3-0.6,0.6c0,1.1,0,3.5,0.1,7.4l0.1,2.6v1.1c-0.7-3.1-1.1-4.7-1.3-5c-0.1-0.2-0.2-0.5-0.4-1.2s-0.3-1.1-0.4-1.4
					c-0.4-1.5-0.6-2.3-0.7-2.6c-0.2-0.5-0.4-0.7-0.8-0.7c-0.1,0-0.2,0-0.3,0c-0.2,0.1-0.5,0.1-0.8,0.2c-0.3,0-0.5,0.1-0.7,0.1
					c-0.3,0-0.6,0.1-0.9,0.1c0,1.2,0,2.4,0.1,3.8c0.1,0.6,0.1,1.1,0.1,1.4v2.2c0,2.9-0.1,5.3-0.1,7.2v1.4c0,0.3,0,0.8,0.1,1.4v1.4
					v0.4c0,0.2,0,0.3,0.1,0.4c0,0.1,0.1,0.2,0.3,0.2h1.3c1.2,0,1.8-0.2,1.8-0.5v-0.8c0-0.3,0-1-0.1-1.9c0-0.9,0-1.7,0-2.4
					c0-0.5,0-1-0.1-1.5c0-0.2,0-0.5,0-1c0-0.4,0-0.8,0-1.2c0-0.5,0-0.8,0-1.1c0.2,0.6,0.3,0.9,0.3,0.8c1,4,1.7,6.3,1.9,6.9
					c0.1,0.3,0.3,0.8,0.5,1.6l0.2,0.7c0.1,0.4,0.2,0.6,0.3,0.7s0.2,0.1,0.5,0.1c0.7,0,1.2-0.1,1.7-0.3c0.4-0.2,0.6-0.5,0.6-1.1
					c0-0.1,0-0.5,0-1.1s0-1.3,0-2.2C565.5,119.8,565.4,118.9,565.4,117.9 M550,124.4c1.4,0,2.3-0.3,3-1c0.6-0.7,1-1.8,1.2-3.3
					c0.1-0.4,0.1-1.4,0.1-2.9v-2.6c0-1.2-0.1-3.4-0.3-6.7c0-0.2,0-0.5,0-1v-1c0-0.5,0-0.9-0.1-1.2c-0.1-0.3-0.2-0.5-0.3-0.6
					c-0.5-0.1-0.9-0.2-1.2-0.2s-0.7,0.1-1.1,0.2l-0.2,0.2v1c-0.1,1.9-0.1,3.2-0.1,3.7c0.1,1.1,0.1,2.2,0.1,3.1v1.3
					c0,0.2,0,0.6,0,1.1c0,0.6,0,1.1,0,1.6s0,1-0.1,1.3l-0.1,2.1c0,1.3-0.3,1.9-0.7,1.9c-0.3,0-0.5-0.2-0.6-0.5s-0.2-0.7-0.2-1.1
					l0.1-2.4c0-0.3,0-0.8,0-1.6c0-0.8,0-1.6,0-2.4v-1.1v-1.4c0-0.6,0-1.2,0-1.7c0-0.2,0-0.5,0-1.1s0.1-1,0.1-1.3
					c0-0.8-0.1-1.3-0.3-1.4c-0.3-0.2-0.6-0.4-1-0.5c-0.3-0.1-0.7-0.1-1.1-0.1c-0.3,0-0.5,0.1-0.8,0.2s-0.5,0.2-0.5,0.3
					c-0.1,0.2-0.2,0.5-0.2,0.9s0,0.6,0,0.7s0,0.3,0,0.5s0,0.4-0.1,0.7c-0.1,0.5-0.1,1.1-0.1,1.6v1.1c0,0.6,0.1,1.2,0.1,1.7v0.9
					c0,1.2-0.1,2-0.1,2.4c0,0.9,0.1,1.8,0.2,2.6c0.1,0.8,0.3,1.8,0.6,3c0.2,1,0.5,1.7,0.9,2.1c0.4,0.5,0.8,0.8,1.2,0.9
					C548.6,124.4,549.2,124.4,550,124.4 M538.1,118.1c0-0.1-0.1-0.2-0.2-0.2s-0.2,0-0.4,0h-0.7c-0.2,0-0.5,0-1-0.1
					c-0.2,0-0.4,0-0.6,0.1c-0.2,0.1-0.3,0.1-0.3,0.2c-0.1,0.5-0.1,0.9-0.1,1.3c0,0.7,0.1,1.6,0.4,2.7c0.2,1,0.5,1.6,0.9,2.1
					c0.4,0.4,0.8,0.7,1.2,0.8s1,0.1,1.8,0.1c1.4,0,2.3-0.3,3-1c0.6-0.7,1-1.8,1.2-3.3c0.1-0.4,0.1-1.4,0.1-2.9v-2.6
					c0-1.2-0.1-3.5-0.3-6.7c0-0.3,0-0.5,0-0.8c0-0.2,0-0.4,0-0.6v-0.6c0-0.5,0-0.9-0.1-1.2c-0.1-0.3-0.2-0.5-0.3-0.6
					c-0.5-0.1-0.9-0.2-1.1-0.2c-0.4,0-0.9,0.1-1.5,0.3v1c-0.1,1.9-0.1,3.2-0.1,3.7c0.1,1.1,0.1,2.2,0.1,3.1v1.3c0,0.2,0,0.6,0,1.1
					c0,0.8,0,1.7,0,2.7c0,0.9-0.1,1.7-0.1,2.4c-0.1,0.8-0.1,1.3-0.3,1.5c-0.1,0.2-0.3,0.4-0.6,0.4c-0.2,0-0.4-0.1-0.6-0.3
					c-0.2-0.2-0.3-0.4-0.3-0.8c0-0.2,0-0.4,0-0.5c0-0.2,0-0.3,0-0.4c0-0.2,0-0.4,0-0.8C538.2,118.6,538.2,118.2,538.1,118.1"/>
			</g>
			<g>
				<defs>
					<rect id="SVGID_43_" x="-8.9" y="-7" width="847.7" height="1067"/>
				</defs>
				<clipPath id="SVGID_44_">
					<use xlink:href="#SVGID_43_"  style="overflow:visible;"/>
				</clipPath>
				<path class="st21" d="M401.9,130.8c0,0.8-0.2,1.3-0.5,1.7s-0.7,0.6-1.1,0.6c-1.1,0-1.6-1.2-1.7-3.5c0-0.4,0-1,0-1.7
					c0-0.5,0-0.9,0-1c0.1-1.1,0.3-1.8,0.6-2.3c0.3-0.5,0.6-0.7,1.1-0.7s0.9,0.2,1.2,0.6c0.3,0.4,0.4,1,0.5,1.9c0,0.2,0,0.6,0,1.2
					C402,128.5,402,129.6,401.9,130.8 M400.6,135.2c0.8,0,1.5-0.2,2.1-0.7s1-1.2,1.4-2.1c0.1-0.3,0.2-0.9,0.4-1.7
					c0.1-0.8,0.2-1.5,0.2-2v-1c0-1.3-0.3-2.5-0.8-3.7c-0.4-0.8-0.9-1.4-1.5-1.7c-0.6-0.3-1.3-0.4-2.3-0.4c-1.4,0-2.5,0.8-3.4,2.5
					c-0.5,1.1-0.7,2.5-0.7,4.2c0.1,1.8,0.3,3.4,0.8,4.7c0.3,0.7,0.7,1.2,1.4,1.5C398.8,135.1,399.6,135.2,400.6,135.2 M392,129.8
					c-0.1,1-0.3,1.8-0.6,2.3s-0.6,0.8-1,0.8c-0.3,0-0.6-0.2-0.9-0.6c-0.3-0.4-0.5-1-0.7-1.6c0-0.5,0-1,0-1.4
					c0.1-2.2,0.1-3.4,0.1-3.8c0.2-0.4,0.5-0.8,0.8-1.1c0.3-0.3,0.6-0.4,0.9-0.4c0.9,0,1.4,0.9,1.6,2.7c0,0.3,0.1,0.7,0.1,1.1
					C392.1,128.5,392.1,129.2,392,129.8 M394,124.1c-0.3-0.6-0.6-1.1-0.9-1.4c-0.2-0.3-0.5-0.5-0.8-0.6s-0.6-0.2-1.1-0.2
					c-1.1,0-2,0.5-2.7,1.6c-0.3-0.9-0.4-1.4-0.6-1.4s-0.3,0-0.5,0c-0.1,0-0.3,0-0.4,0c-0.3,0-0.5,0.1-0.7,0.2s-0.2,0.4-0.2,0.8
					c0,0.1,0,0.3,0,0.6c0,0.4,0,0.8,0,1.2c0,0.3,0,0.8,0.1,1.5v2.3v4.8v0.9v3.4c0,0.5,0,0.9,0,1c0.2,0.5,0.6,0.7,1.2,0.7
					c0.2,0,0.3,0,0.3,0c0.1,0,0.2,0,0.3,0c0.2,0,0.3-0.1,0.5-0.2c0.2-0.1,0.3-0.3,0.3-0.6v-1c0-1.7,0-2.9,0-3.8
					c0.6,0.8,1.3,1.2,1.9,1.2c0.8,0,1.5-0.2,2-0.5s1-1,1.3-1.9c0.4-1.2,0.6-2.6,0.6-4.3c0-0.5-0.1-1.3-0.2-2.3
					C394.4,125.2,394.2,124.5,394,124.1 M381.5,135c0.2,0,0.4,0,0.5,0h0.6c0.8,0,1.2-0.2,1.2-0.7v-1.6c0-1,0-1.8,0-2.3v-1.2
					c0-1.7,0.1-3.4,0.1-5.2c0-0.7,0-1.1-0.1-1.3c-0.1-0.2-0.4-0.3-1-0.3c-0.4,0-0.9,0.1-1.5,0.2v1c0,0.5,0,1.1,0.1,1.7v0.9v1.6
					c-0.1,2-0.1,3.3-0.1,4c0,0.3,0,0.7,0,1.2v1c0,0.1,0,0.2,0,0.4s0,0.3,0,0.4C381.3,134.9,381.4,135,381.5,135 M382.6,120.4
					c0.4,0,0.8-0.2,1.1-0.5c0.3-0.3,0.4-0.7,0.5-1.1c0-0.2,0-0.4-0.1-0.7c-0.1-0.2-0.2-0.4-0.4-0.5c0,0-0.2-0.1-0.4-0.2
					s-0.4-0.2-0.7-0.2c-0.4,0-0.8,0.2-1.1,0.4c-0.3,0.3-0.5,0.6-0.5,0.9c-0.1,0.6,0,1.1,0.3,1.4S381.9,120.4,382.6,120.4
					 M378.8,125.3c0-0.3,0-0.8,0-1.4c0-0.2,0-0.5,0-0.8c0-0.1,0-0.2,0-0.4c0-0.2,0-0.3,0-0.4s-0.1-0.2-0.3-0.2c-0.2,0-0.3,0-0.5,0
					s-0.4,0-0.6,0c-0.4,0-0.7,0.1-0.9,0.2c-0.2,0.1-0.3,0.4-0.3,0.8c0,0.1,0,0.3,0,0.5c0,0.3,0,0.8,0,1.4c0,0.7,0,1.2,0,1.6
					c0,0.2,0,0.7,0,1.6c0,0.8,0,1.4,0,1.9c-0.2,0.9-0.4,1.5-0.7,2c-0.3,0.5-0.6,0.8-1,0.8c-0.5,0-0.8-0.3-1-0.8s-0.3-1.2-0.3-1.9
					v-1.3c0-4.1,0-6.5-0.1-7.1l-0.7-0.1c-0.6,0-1.1,0.1-1.4,0.2s-0.4,0.5-0.4,0.9c0,0.1,0,0.3,0,0.6c0,0.3,0,0.8,0,1.6
					c0,0.6,0,1.5-0.1,2.8c0,0.4,0,1.1,0,2.1s0,1.6,0,1.9c0,0.5,0.1,1,0.1,1.3c0.1,0.3,0.2,0.7,0.4,1.2c0.2,0.3,0.5,0.6,0.9,0.8
					s0.9,0.3,1.4,0.3s1-0.2,1.5-0.5s0.9-0.8,1.2-1.4c0.2,0.7,0.5,1.2,0.7,1.5c0.8,0,1.4,0,1.8-0.1v-0.8v-2.3c0-0.3,0-0.6,0-1v-1.6
					C378.8,127.4,378.8,126,378.8,125.3 M364.3,132.9c-0.4,0-0.8-0.3-1.1-0.8c-0.3-0.5-0.5-1.3-0.5-2.3c-0.1-0.8-0.1-1.5-0.1-2
					s0-0.8,0.1-1c0.1-0.9,0.3-1.6,0.6-2.1s0.6-0.8,1.1-0.8c0.3,0,0.5,0.1,0.8,0.4s0.5,0.6,0.7,1.1c0,0.7,0,2.4,0.1,5.1
					c-0.2,0.7-0.4,1.3-0.7,1.7C364.8,132.7,364.6,132.9,364.3,132.9 M368.5,133.6c0-1.1,0-2.5-0.1-4.2c0-1.8,0-2.8,0-2.9
					c0-0.4,0.1-1,0.1-1.8c0-0.5,0-0.9,0-1.1s0-0.4,0-0.4c0-0.4-0.1-0.7-0.2-0.8c-0.2-0.1-0.4-0.2-0.6-0.2c-0.1,0-0.3,0-0.4,0
					c-0.2,0-0.3,0-0.5,0c-0.1,0-0.1,0.1-0.2,0.4c-0.1,0.2-0.2,0.5-0.3,0.8c-0.6-1-1.4-1.5-2.3-1.5c-0.5,0-0.9,0.1-1.2,0.2
					c-0.3,0.1-0.6,0.4-0.9,0.7c-0.3,0.3-0.6,0.8-0.9,1.5c-0.2,0.4-0.4,1.1-0.6,2.1c-0.1,1-0.2,1.7-0.2,2.2c0,1,0.1,1.9,0.2,2.6
					c0.1,0.7,0.2,1.3,0.4,1.7c0.3,0.9,0.7,1.5,1.2,1.8s1.2,0.5,2,0.5c0.6,0,1.3-0.4,2-1.4l-0.1,5c0.1,0.2,0.1,0.4,0.3,0.5
					c0.1,0.1,0.3,0.2,0.5,0.2s0.3,0,0.4,0s0.2,0,0.3,0c0.6,0,1-0.2,1.2-0.7c0-0.2,0-0.6,0-1.2v-3.3L368.5,133.6L368.5,133.6z
					 M354.8,123.6c0.9,0,1.4,0.9,1.6,2.6c0,0.1,0,0.3,0,0.5c0,0.5-0.1,0.8-0.3,0.8H355c-0.2,0-0.5,0-0.9,0s-0.7,0-0.9,0v-0.1
					c0.1-1.3,0.2-2.2,0.6-2.9C354,123.9,354.4,123.6,354.8,123.6 M357.6,130.9c-0.1-0.1-0.3-0.2-0.4-0.2c-0.2,0-0.3,0.1-0.4,0.2
					l-0.4,0.6c-0.3,0.5-0.6,0.9-0.9,1.2c-0.2,0.3-0.5,0.4-0.8,0.4c-0.4,0-0.8-0.3-1.1-0.8c-0.3-0.5-0.4-1.3-0.5-2.3v-0.5
					c0.6,0,1,0.1,1.3,0.1c1,0,2-0.1,2.9-0.3l1.1-0.1c0.2-0.3,0.3-0.9,0.3-1.6c0-0.7-0.1-1.3-0.2-2c-0.3-1.3-0.8-2.3-1.4-2.9
					s-1.5-0.8-2.5-0.8c-0.6,0-1.3,0.3-2,1c-0.7,0.6-1.2,1.3-1.5,2.1c-0.3,1-0.5,2.1-0.5,3.2c0,1.8,0.2,3.4,0.7,4.9
					c0.3,0.8,0.7,1.5,1.4,1.8c0.6,0.4,1.4,0.5,2.4,0.5c0.7,0,1.3-0.2,1.9-0.7s1-1.2,1.4-2.1c0.1-0.1,0.1-0.3,0.1-0.4
					c0-0.2,0-0.3-0.1-0.4s-0.2-0.3-0.4-0.4C357.8,131.1,357.7,131,357.6,130.9 M341,123.6c0.9,0,1.4,0.9,1.6,2.6c0,0.1,0,0.3,0,0.5
					c0,0.5-0.1,0.8-0.3,0.8h-1.2c-0.2,0-0.5,0-0.9,0s-0.7,0-0.9,0v-0.1c0.1-1.3,0.2-2.2,0.6-2.9C340.3,123.9,340.6,123.6,341,123.6
					 M343.8,130.9c-0.1-0.1-0.3-0.2-0.4-0.2c-0.2,0-0.3,0.1-0.4,0.2l-0.4,0.6c-0.3,0.5-0.6,0.9-0.9,1.2c-0.2,0.3-0.5,0.4-0.8,0.4
					c-0.4,0-0.8-0.3-1.1-0.8c-0.3-0.5-0.4-1.3-0.5-2.3v-0.5c0.6,0,1,0.1,1.3,0.1c1,0,2-0.1,2.9-0.3l1.1-0.1c0.2-0.3,0.3-0.9,0.3-1.6
					c0-0.7-0.1-1.3-0.2-2c-0.3-1.3-0.8-2.3-1.4-2.9s-1.5-0.8-2.5-0.8c-0.6,0-1.3,0.3-2,1c-0.7,0.6-1.2,1.3-1.5,2.1
					c-0.3,1-0.5,2.1-0.5,3.2c0,1.8,0.2,3.4,0.7,4.9c0.3,0.8,0.7,1.5,1.4,1.8s1.4,0.5,2.4,0.5c0.7,0,1.3-0.2,1.9-0.7s1-1.2,1.4-2.1
					c0.1-0.1,0.1-0.3,0.1-0.4c0-0.2,0-0.3-0.1-0.4s-0.2-0.3-0.4-0.4C344,131.1,343.9,131,343.8,130.9 M330.9,132.9
					c-0.4,0-0.8-0.3-1.1-0.8c-0.3-0.5-0.5-1.3-0.5-2.3c-0.1-0.8-0.1-1.5-0.1-2s0-0.8,0.1-1c0.1-0.9,0.3-1.6,0.6-2.1
					c0.3-0.5,0.6-0.8,1.1-0.8c0.3,0,0.6,0.2,0.9,0.5s0.5,0.7,0.7,1.2v0.7v1.3c-0.1,2-0.1,3.1-0.1,3.2c-0.2,0.6-0.4,1.1-0.7,1.5
					C331.4,132.7,331.1,132.9,330.9,132.9 M335.1,117.5c-0.3-0.4-0.8-0.6-1.6-0.5c-0.3,0-0.6,0-0.7,0.1c-0.2,0.1-0.3,0.2-0.4,0.5
					v1.1c0,1.8,0,3.2,0,4.2c-0.5-0.7-1.2-1-2-1c-0.5,0-0.9,0.1-1.2,0.2c-0.3,0.1-0.6,0.4-0.9,0.7c-0.3,0.3-0.6,0.8-0.9,1.5
					c-0.2,0.4-0.4,1.1-0.6,2.1c-0.1,1-0.2,1.7-0.2,2.2c0,1,0.1,1.9,0.2,2.6c0.1,0.7,0.2,1.3,0.4,1.7c0.3,0.9,0.7,1.5,1.2,1.8
					s1.2,0.5,2,0.5c0.7,0,1.5-0.6,2.3-1.7c0.1,0.4,0.2,0.7,0.4,1c0.1,0.3,0.2,0.5,0.3,0.5c0.2,0,0.3,0,0.5,0s0.3,0,0.4,0
					c0.3,0,0.5-0.1,0.6-0.2c0.1-0.1,0.2-0.4,0.2-0.8c0-0.1,0-0.2,0-0.5s0-0.8,0-1.4c0-0.7,0-1.2,0-1.5c0-0.1,0-1.1,0-2.9
					c0-1.7,0.1-3,0.1-4.2v-4.3C335,118.3,335.1,117.8,335.1,117.5"/>
			</g>
		</g>
	</g>
	<g>
		<defs>
			<rect id="SVGID_45_" x="-8.9" y="-7" width="847.7" height="1067"/>
		</defs>
		<clipPath id="SVGID_46_">
			<use xlink:href="#SVGID_45_"  style="overflow:visible;"/>
		</clipPath>
		<line class="st22" x1="0.1" y1="52.3" x2="820.1" y2="52.3"/>
	</g>
	<g>
		<defs>
			<rect id="SVGID_47_" x="-8.9" y="-7" width="847.7" height="1067"/>
		</defs>
		<clipPath id="SVGID_48_">
			<use xlink:href="#SVGID_47_"  style="overflow:visible;"/>
		</clipPath>
		<g class="st23">
			<g>
				<defs>
					<rect id="SVGID_49_" x="-8.9" y="-7" width="847.7" height="1067"/>
				</defs>
				<clipPath id="SVGID_50_">
					<use xlink:href="#SVGID_49_"  style="overflow:visible;"/>
				</clipPath>
				<path class="st24" d="M33.6,45.1l1.3,2.3l7.8-1.4c0.1,0,0.1-0.1,0.2-0.1c0-0.1,0-0.1,0-0.2c-0.2-0.3-0.4-0.5-0.6-0.8
					c-0.7-0.8-1.9-1.1-2.6-0.9L33.6,45.1z"/>
			</g>
			<g>
				<defs>
					<rect id="SVGID_51_" x="-8.9" y="-7" width="847.7" height="1067"/>
				</defs>
				<clipPath id="SVGID_52_">
					<use xlink:href="#SVGID_51_"  style="overflow:visible;"/>
				</clipPath>
				<path class="st25" d="M25.2,51.1c-0.8,0-1.5-0.5-1.7-1.2c0-0.1,0-0.1,0-0.2c0-0.2,0-0.4,0.1-0.5c0.2-0.5,0.8-0.9,1.5-0.8
					c0.8,0,1.5,0.5,1.7,1.2c0,0.1,0,0.1,0,0.2c0,0.2,0,0.4-0.1,0.5C26.4,50.8,25.8,51.1,25.2,51.1 M28.1,49.7c0-0.1,0-0.3,0-0.4
					c0-0.1-0.1-0.2-0.1-0.4s-0.1-0.3-0.2-0.5c0-0.1-0.1-0.1-0.1-0.2c0,0,0,0,0.1,0c0.3,0,0.6,0,0.8,0c1.1,0,1.6,0,1.7,0h0.2l-0.6-1
					c-0.2-0.3-0.3-0.6-0.4-1c-0.3,0.1-0.6,0.2-0.9,0.4c-0.4,0.2-1.1,0.3-1.8,0.3c-0.1,0-0.7,0-1.3-0.1l0,0l0,0c-0.2,0-0.3,0-0.5,0
					c-1.2,0-2.2,0.6-2.7,1.6c-0.2,0.4-0.3,0.8-0.2,1.2c0,0.1,0,0.3,0,0.4c0.2,1.4,1.6,2.4,3,2.4c1.2,0,2.2-0.6,2.7-1.6
					C28.1,50.5,28.1,50.1,28.1,49.7"/>
			</g>
			<g>
				<defs>
					<rect id="SVGID_53_" x="-8.9" y="-7" width="847.7" height="1067"/>
				</defs>
				<clipPath id="SVGID_54_">
					<use xlink:href="#SVGID_53_"  style="overflow:visible;"/>
				</clipPath>
				<path class="st26" d="M28.8,40.3c-0.4-0.5-0.5-1.2-0.3-1.7c0.1-0.2,0.2-0.3,0.3-0.4l0.1-0.1c0.6-0.4,1.5-0.1,2,0.5
					c0.4,0.5,0.5,1.2,0.3,1.7c-0.1,0.2-0.2,0.3-0.3,0.4l-0.1,0.1C30.2,41.1,29.4,40.9,28.8,40.3 M31.5,46.4c0.2-0.3,0.6-0.5,0.9-0.3
					c0.3,0.2,0.5,0.6,0.3,0.9c-0.2,0.3-0.6,0.5-0.9,0.3C31.5,47.2,31.4,46.7,31.5,46.4 M29.9,44.1c0.2,0.6,0.3,1.1,0.4,1.6
					s0.2,0.8,0.4,1.2L33,51h3l-3.2-5.6l-0.5-0.9c-0.1-0.1-0.4-0.5-1.1-1.3c-0.2-0.2-0.4-0.4-0.5-0.6l0,0c0.1,0,0.1,0,0.2-0.1
					c0.1,0,0.3-0.1,0.5-0.2c0.1,0,0.2-0.1,0.3-0.2c0.1-0.1,0.2-0.1,0.3-0.2c0.3-0.3,0.6-0.6,0.8-1c0.5-1,0.3-2.2-0.5-3.1
					c-1-1.1-2.6-1.5-3.8-0.8c-0.1,0.1-0.2,0.1-0.3,0.2c-0.3,0.3-0.6,0.6-0.8,1c-0.5,1-0.3,2.2,0.5,3.1c0.1,0.1,0.2,0.2,0.3,0.3l0,0
					c0.5,0.5,0.9,0.9,0.9,1C29.4,43.1,29.7,43.6,29.9,44.1"/>
			</g>
		</g>
	</g>
</g>
</svg>
