<?xml version="1.0" encoding="utf-8"?>
<!-- Generator: Adobe Illustrator 21.1.0, SVG Export Plug-In . SVG Version: 6.00 Build 0)  -->
<svg version="1.1" id="Capa_1" xmlns="http://www.w3.org/2000/svg" xmlns:xlink="http://www.w3.org/1999/xlink" x="0px" y="0px"
	 viewBox="0 0 44.181 45.404" style="enable-background:new 0 0 44.181 45.404;" xml:space="preserve">
<style type="text/css">
	.st0{clip-path:url(#SVGID_2_);}
	.st1{filter:url(#Adobe_OpacityMaskFilter);}
	.st2{clip-path:url(#SVGID_4_);}
	.st3{clip-path:url(#SVGID_4_);mask:url(#SVGID_5_);}
	.st4{opacity:0.25;clip-path:url(#SVGID_9_);fill:#1D1D1B;}
	.st5{clip-path:url(#SVGID_4_);fill:#005CA8;}
	.st6{clip-path:url(#SVGID_4_);fill:none;stroke:#FFFFFF;stroke-width:1.274;}
	.st7{filter:url(#Adobe_OpacityMaskFilter_1_);}
	.st8{clip-path:url(#SVGID_4_);mask:url(#SVGID_10_);}
	.st9{clip-path:url(#SVGID_14_);fill:#FFFFFF;}
	.st10{clip-path:url(#SVGID_4_);fill:none;stroke:#FFFFFF;stroke-width:0.891;stroke-dasharray:2.377,1.486;}
	.st11{clip-path:url(#SVGID_4_);fill:none;stroke:#FFFFFF;stroke-width:0.891;stroke-dasharray:2.541,1.65;}
	.st12{clip-path:url(#SVGID_4_);fill:none;stroke:#FFFFFF;stroke-width:0.891;stroke-dasharray:2.841,1.95;}
	.st13{clip-path:url(#SVGID_4_);fill:none;stroke:#FFFFFF;stroke-width:0.891;}
	.st14{fill:#FFFFFF;}
	.st15{font-family:'Ubuntu-Bold';}
	.st16{font-size:17.8293px;}
</style>
<g>
	<defs>
		<rect id="SVGID_1_" x="-0.819" y="-3.167" width="45" height="51.118"/>
	</defs>
	<clipPath id="SVGID_2_">
		<use xlink:href="#SVGID_1_"  style="overflow:visible;"/>
	</clipPath>
	<g class="st0">
		<defs>
			<rect id="SVGID_3_" x="-0.819" y="-3.167" width="45" height="51.118"/>
		</defs>
		<clipPath id="SVGID_4_">
			<use xlink:href="#SVGID_3_"  style="overflow:visible;"/>
		</clipPath>
		<defs>
			<filter id="Adobe_OpacityMaskFilter" filterUnits="userSpaceOnUse" x="0" y="0" width="43.2" height="43.2">
				<feColorMatrix  type="matrix" values="1 0 0 0 0  0 1 0 0 0  0 0 1 0 0  0 0 0 1 0"/>
			</filter>
		</defs>
		<mask maskUnits="userSpaceOnUse" x="0" y="0" width="43.2" height="43.2" id="SVGID_5_">
			<g class="st1">
				<g>
					<defs>
						<rect id="SVGID_6_" x="-9.6" y="-7.68" width="63.36" height="53.76"/>
					</defs>
					<clipPath id="SVGID_7_" class="st2">
						<use xlink:href="#SVGID_6_"  style="overflow:visible;"/>
					</clipPath>
					<g style="clip-path:url(#SVGID_7_);">
						
							<image style="overflow:visible;" width="132" height="112" xlink:href="148ACC67F592CD5D.jpg"  transform="matrix(0.48 0 0 0.48 -9.6 -7.6801)">
						</image>
					</g>
				</g>
			</g>
		</mask>
		<g class="st3">
			<g>
				<defs>
					<rect id="SVGID_8_" y="0" width="43.2" height="43.2"/>
				</defs>
				<clipPath id="SVGID_9_">
					<use xlink:href="#SVGID_8_"  style="overflow:visible;"/>
				</clipPath>
				<rect x="0" class="st4" width="43.2" height="43.2"/>
			</g>
		</g>
		<path class="st5" d="M20.124,38.996c10.467,0,18.952-8.485,18.952-18.952c0-10.468-8.485-18.953-18.952-18.953
			S1.172,9.576,1.172,20.044C1.172,30.511,9.657,38.996,20.124,38.996"/>
		<circle class="st6" cx="20.124" cy="20.044" r="18.952"/>
		<defs>
			<filter id="Adobe_OpacityMaskFilter_1_" filterUnits="userSpaceOnUse" x="16.807" y="24.044" width="22.8" height="21.36">
				<feColorMatrix  type="matrix" values="1 0 0 0 0  0 1 0 0 0  0 0 1 0 0  0 0 0 1 0"/>
			</filter>
		</defs>
		<mask maskUnits="userSpaceOnUse" x="16.807" y="24.044" width="22.8" height="21.36" id="SVGID_10_">
			<g class="st7">
				<g>
					<defs>
						<rect id="SVGID_11_" x="-8.393" y="-1.156" width="73.44" height="72"/>
					</defs>
					<clipPath id="SVGID_12_" class="st2">
						<use xlink:href="#SVGID_11_"  style="overflow:visible;"/>
					</clipPath>
					<g style="clip-path:url(#SVGID_12_);">
						
							<image style="overflow:visible;" width="306" height="300" xlink:href="148ACC67F592CD5F.jpg"  transform="matrix(0.24 0 0 0.24 -8.3927 -1.1558)">
						</image>
					</g>
				</g>
			</g>
		</mask>
		<g class="st8">
			<g>
				<defs>
					<rect id="SVGID_13_" x="16.807" y="24.044" width="22.8" height="21.36"/>
				</defs>
				<clipPath id="SVGID_14_">
					<use xlink:href="#SVGID_13_"  style="overflow:visible;"/>
				</clipPath>
				<rect x="16.807" y="24.044" class="st9" width="22.8" height="21.36"/>
			</g>
		</g>
		<path class="st5" d="M27.551,32.024l2.628,0.276l3.395-6.96c0.031-0.063,0.029-0.138-0.005-0.2
			c-0.036-0.063-0.099-0.104-0.169-0.111c-0.326-0.031-0.643-0.031-0.943,0c-1.087,0.111-1.917,0.866-2.258,1.565L27.551,32.024z"/>
		<path class="st5" d="M27.377,42.199c-0.478,0.655-1.311,0.918-1.938,0.613c-0.051-0.025-0.102-0.055-0.15-0.087
			c-0.15-0.104-0.271-0.237-0.36-0.398c-0.272-0.491-0.202-1.146,0.18-1.668c0.478-0.655,1.311-0.918,1.938-0.613
			c0.051,0.025,0.102,0.054,0.15,0.087c0.15,0.104,0.271,0.237,0.36,0.398C27.829,41.021,27.758,41.676,27.377,42.199
			 M27.982,39.036c-0.11-0.075-0.226-0.143-0.345-0.201c-0.109-0.053-0.226-0.1-0.346-0.14c-0.145-0.057-0.314-0.096-0.463-0.131
			c-0.058-0.013-0.131-0.03-0.188-0.046c0.006-0.013,0.013-0.028,0.023-0.045c0.159-0.213,0.329-0.438,0.495-0.657
			c0.664-0.879,0.939-1.247,0.993-1.357l0.079-0.163l-1.104-0.116c-0.366-0.038-0.684-0.139-0.996-0.262
			c-0.051,0.277-0.12,0.584-0.225,0.941c-0.13,0.442-0.403,0.984-0.81,1.611c-0.036,0.052-0.374,0.531-0.86,1.015l-0.001,0.001
			c-0.001,0.001-0.002,0.002-0.003,0.003c-0.107,0.109-0.207,0.226-0.297,0.349c-0.675,0.925-0.771,2.138-0.244,3.09
			c0.199,0.359,0.473,0.66,0.814,0.894c0.11,0.075,0.226,0.143,0.345,0.201c1.249,0.609,2.841,0.178,3.703-1.003
			c0.675-0.926,0.771-2.139,0.244-3.09C28.597,39.571,28.323,39.27,27.982,39.036"/>
		<path class="st5" d="M20.778,30.295c0.646-0.046,1.239,0.241,1.511,0.732c0.089,0.16,0.138,0.334,0.145,0.516
			c0.003,0.058,0.001,0.116-0.005,0.173c-0.073,0.694-0.737,1.26-1.546,1.319c-0.646,0.046-1.238-0.241-1.511-0.732
			c-0.089-0.16-0.138-0.334-0.145-0.516c-0.003-0.058-0.001-0.116,0.005-0.173C19.305,30.922,19.97,30.354,20.778,30.295
			 M28.537,33.753c0.183,0.331,0.064,0.748-0.267,0.931c-0.331,0.184-0.748,0.064-0.931-0.267c-0.184-0.33-0.064-0.747,0.267-0.931
			C27.937,33.304,28.353,33.423,28.537,33.753 M35.497,34.968l0.135,0.014c0.353,0.037,0.884-0.083,1.276-0.436
			c0.136-0.123,0.346-0.112,0.469,0.024c0.017,0.02,0.032,0.04,0.044,0.062c0.073,0.132,0.049,0.302-0.069,0.408
			c-0.58,0.523-1.327,0.652-1.79,0.603l-0.135-0.014c-0.112-0.012-0.205-0.078-0.256-0.17c-0.032-0.057-0.047-0.125-0.039-0.195
			C35.151,35.082,35.314,34.95,35.497,34.968 M17.892,31.473c-0.014,0.132-0.018,0.266-0.012,0.399
			c0.017,0.413,0.127,0.804,0.326,1.164c0.528,0.951,1.607,1.513,2.751,1.43c0.15-0.011,0.304-0.033,0.455-0.067
			c0.001,0,0.002-0.001,0.003-0.001c0.669-0.156,1.254-0.189,1.318-0.192c0.746-0.013,1.35,0.044,1.794,0.168
			c0.643,0.179,1.092,0.374,1.488,0.546c0.431,0.187,0.772,0.335,1.177,0.377l8.315,0.874c0.773,0.081,1.854-0.222,2.524-1.084
			c0.185-0.238,0.353-0.508,0.5-0.8c0.031-0.064,0.03-0.139-0.004-0.202c-0.035-0.062-0.097-0.104-0.168-0.111l-11.244-1.182
			l-1.059-0.111c-0.121-0.013-0.58,0.025-1.677,0.123c-0.273,0.024-0.554,0.049-0.819,0.071c-0.02-0.001-0.036-0.002-0.05-0.004
			c0.016-0.057,0.041-0.127,0.06-0.183c0.05-0.145,0.106-0.309,0.134-0.463c0.03-0.122,0.052-0.246,0.065-0.368
			c0.014-0.132,0.018-0.266,0.012-0.399c-0.017-0.413-0.127-0.804-0.326-1.163c-0.528-0.952-1.607-1.513-2.751-1.431
			C19.246,28.969,18.037,30.091,17.892,31.473"/>
		<path class="st10" d="M36.126,20.579c0.078-2.285-0.332-4.608-1.274-6.81"/>
		<path class="st11" d="M32.308,9.66c-4.467-5.251-11.887-7.071-18.307-4.402"/>
		<path class="st11" d="M9.74,7.865c-5.251,4.467-7.071,11.887-4.402,18.307"/>
		<path class="st12" d="M8.242,30.772c1.968,2.185,4.462,3.736,7.171,4.57"/>
		<path class="st13" d="M16.354,35.602c0.46,0.111,0.925,0.203,1.394,0.273 M5.674,26.926c0.181,0.379,0.378,0.754,0.592,1.124
			c0.239,0.414,0.494,0.813,0.763,1.198 M13.248,5.594c-0.379,0.181-0.754,0.378-1.123,0.592c-0.37,0.213-0.729,0.439-1.075,0.677
			 M34.545,13.094c-0.171-0.354-0.357-0.704-0.556-1.05c-0.214-0.37-0.44-0.728-0.678-1.074 M35.813,23.233
			c0.079-0.388,0.144-0.779,0.194-1.173"/>
	</g>
	<g class="st0">
		<text transform="matrix(1 0 0 1 10.5026 25.1531)" class="st14 st15 st16">91</text>
	</g>
</g>
</svg>
