<svg id="Capa_1" data-name="Capa 1" xmlns="http://www.w3.org/2000/svg" viewBox="0 0 230.77 94.33"><defs><style>.cls-1{fill:#fff;}.cls-2{fill:none;stroke:#9589c0;stroke-linecap:round;stroke-miterlimit:10;stroke-width:2px;}</style></defs><title>img_0010</title><path class="cls-1" d="M9,55c1.8,34.38,48.55,41.42,118.73,37.74S222.83,76,220,37.09c-1.8-24.54-53.07-33.43-107.55-30.58S7.57,27,9,55" transform="translate(-2.32 -3.4)"/><path class="cls-2" d="M9,55c1.8,34.38,48.55,41.42,118.73,37.74S222.83,76,220,37.09c-1.8-24.54-53.07-33.43-107.55-30.58S7.57,27,9,55Z" transform="translate(-2.32 -3.4)"/><line class="cls-2" x1="21.63" y1="12.18" x2="20.94" y2="1"/><line class="cls-2" x1="12.19" y1="23.05" x2="1" y2="22.56"/><line class="cls-2" x1="16.27" y1="15.97" x2="1.66" y2="3.32"/><line class="cls-2" x1="207.98" y1="83.06" x2="212.44" y2="93.33"/><line class="cls-2" x1="213.13" y1="69.61" x2="223.81" y2="66.24"/><line class="cls-2" x1="211.71" y1="77.66" x2="229.77" y2="84.56"/></svg>