<?xml version="1.0" encoding="utf-8"?>
<!-- Generator: Adobe Illustrator 26.0.1, SVG Export Plug-In . SVG Version: 6.00 Build 0)  -->
<svg version="1.1" id="Capa_1" xmlns="http://www.w3.org/2000/svg" xmlns:xlink="http://www.w3.org/1999/xlink" x="0px" y="0px"
	 viewBox="0 0 9.2 53.1" style="enable-background:new 0 0 9.2 53.1;" xml:space="preserve">
<style type="text/css">
	.st0{clip-path:url(#SVGID_00000082349087745371236350000001269324474572453256_);fill:#4F4F4E;}
	.st1{clip-path:url(#SVGID_00000181797981917361418880000010526249225003038649_);fill:#4F4F4E;}
	
		.st2{clip-path:url(#SVGID_00000160877577640735495370000013148022382306301858_);fill:none;stroke:#FFCB00;stroke-width:3.839;stroke-linecap:round;}
</style>
<g>
	<g>
		<defs>
			<rect id="SVGID_1_" x="0" y="0" width="9.2" height="53.1"/>
		</defs>
		<clipPath id="SVGID_00000127013225024469539100000000592261271529669251_">
			<use xlink:href="#SVGID_1_"  style="overflow:visible;"/>
		</clipPath>
		<path style="clip-path:url(#SVGID_00000127013225024469539100000000592261271529669251_);fill:#4F4F4E;" d="M9.2,48.5
			C9.2,46,7.1,44,4.6,44S0,46,0,48.5s2.1,4.6,4.6,4.6S9.2,51.1,9.2,48.5"/>
	</g>
	<g>
		<defs>
			<rect id="SVGID_00000171712287887901696490000014659462299786185917_" x="0" y="0" width="9.2" height="53.1"/>
		</defs>
		<clipPath id="SVGID_00000039120407048397071610000008076222562692934024_">
			<use xlink:href="#SVGID_00000171712287887901696490000014659462299786185917_"  style="overflow:visible;"/>
		</clipPath>
		<path style="clip-path:url(#SVGID_00000039120407048397071610000008076222562692934024_);fill:#4F4F4E;" d="M9.2,4.6
			C9.2,2.1,7.1,0,4.6,0C2.1,0,0,2.1,0,4.6s2.1,4.6,4.6,4.6S9.2,7.1,9.2,4.6"/>
	</g>
	<g>
		<defs>
			<rect id="SVGID_00000100371859012291335990000001788251496208467073_" x="0" y="0" width="9.2" height="53.1"/>
		</defs>
		<clipPath id="SVGID_00000147921724954944098270000005502452767901988277_">
			<use xlink:href="#SVGID_00000100371859012291335990000001788251496208467073_"  style="overflow:visible;"/>
		</clipPath>
		
			<line style="clip-path:url(#SVGID_00000147921724954944098270000005502452767901988277_);fill:none;stroke:#FFCB00;stroke-width:3.839;stroke-linecap:round;" x1="4.6" y1="46.6" x2="4.6" y2="5.6"/>
	</g>
</g>
</svg>
