<?xml version="1.0" encoding="utf-8"?>
<!-- Generator: Adobe Illustrator 25.4.2, SVG Export Plug-In . SVG Version: 6.00 Build 0)  -->
<svg version="1.1" id="Capa_1" xmlns="http://www.w3.org/2000/svg" xmlns:xlink="http://www.w3.org/1999/xlink" x="0px" y="0px"
	 viewBox="0 0 42.4 11.9" style="enable-background:new 0 0 42.4 11.9;" xml:space="preserve">
<style type="text/css">
	.st0{clip-path:url(#SVGID_00000058570079311052490030000014085943573642614187_);fill:#D5D1E9;}
	.st1{clip-path:url(#SVGID_00000018954235045460409730000000929828281595019686_);fill:#D5D1E9;}
</style>
<g>
	<g>
		<defs>
			<rect id="SVGID_1_" width="42.4" height="11.9"/>
		</defs>
		<clipPath id="SVGID_00000111887262687924541010000003219515904049445514_">
			<use xlink:href="#SVGID_1_"  style="overflow:visible;"/>
		</clipPath>
		<path style="clip-path:url(#SVGID_00000111887262687924541010000003219515904049445514_);fill:#D5D1E9;" d="M0.2,7.4
			C0.1,7.4,0,7.4,0,7.3C1.9,0.9,13,0.1,18.4,0c7.2-0.1,16.5,1.9,20.3,8.6c0.1,0.2,0,0.5-0.3,0.4c-5.8-3.2-10.9-6.5-17.7-7.1
			C14,1.3,5,2.1,0.2,7.4"/>
	</g>
	<g>
		<defs>
			<rect id="SVGID_00000029741032526143063100000018115571225368803771_" width="42.4" height="11.9"/>
		</defs>
		<clipPath id="SVGID_00000137117287052537409950000008214760281883672456_">
			<use xlink:href="#SVGID_00000029741032526143063100000018115571225368803771_"  style="overflow:visible;"/>
		</clipPath>
		<path style="clip-path:url(#SVGID_00000137117287052537409950000008214760281883672456_);fill:#D5D1E9;" d="M30.6,10
			c-0.1,0-0.2-0.1-0.2-0.1c2.1-3.2,8.3-0.7,11.1,0.1c-0.4,0.4-0.7,0.9-1.1,1.3c-1-1.8-1.9-4.7-3.7-5.9c-2.1-1.4,2-4.1,2.3-1.2
			c0.2,1.4,1.2,2.6,1.9,3.8c0.5,0.9,1,1.7,1.4,2.6c0.3,0.6-0.4,1.5-1.1,1.3c-1.7-0.5-3.4-1.1-5.2-1.6C34.1,9.8,32.4,9.9,30.6,10"/>
	</g>
</g>
</svg>
