<?xml version="1.0" encoding="utf-8"?>
<!-- Generator: Adobe Illustrator 14.0.0, SVG Export Plug-In . SVG Version: 6.00 Build 43363)  -->
<!DOCTYPE svg PUBLIC "-//W3C//DTD SVG 1.1//EN" "http://www.w3.org/Graphics/SVG/1.1/DTD/svg11.dtd">
<svg version="1.1" id="Layer_1" xmlns="http://www.w3.org/2000/svg" xmlns:xlink="http://www.w3.org/1999/xlink" x="0px" y="0px"
	 width="91.979px" height="33.298px" viewBox="0 0 91.979 33.298" enable-background="new 0 0 91.979 33.298" xml:space="preserve">
<g>
	<g>
		<path fill="#009DC5" d="M10.27,0C10.27,0-0.052-0.05,0,13.174l0.025,6.499c0,0,0.05,13.225,10.371,13.275l71.313,0.35
			c0,0,10.32,0.052,10.271-13.172l-0.024-6.5c0,0-0.051-13.225-10.372-13.274L10.27,0z"/>
	</g>
	<g>
		<path fill="#FFFFFF" d="M18.581,21.291c-0.207,0.062-0.444,0.121-0.712,0.178c-0.269,0.057-0.55,0.105-0.844,0.146
			c-0.295,0.042-0.594,0.075-0.898,0.101c-0.305,0.026-0.596,0.039-0.874,0.039c-0.671,0-1.27-0.098-1.796-0.294
			s-0.971-0.478-1.331-0.844c-0.361-0.366-0.638-0.81-0.828-1.331c-0.191-0.521-0.287-1.107-0.287-1.757
			c0-0.661,0.083-1.257,0.248-1.788s0.402-0.983,0.712-1.354c0.31-0.372,0.689-0.655,1.138-0.852
			c0.449-0.196,0.962-0.294,1.54-0.294c0.32,0,0.606,0.03,0.859,0.093c0.253,0.062,0.509,0.149,0.767,0.263V9.913l2.307-0.372
			V21.291z M13.364,17.421c0,0.712,0.159,1.284,0.479,1.718s0.795,0.65,1.424,0.65c0.207,0,0.397-0.008,0.573-0.023
			s0.319-0.033,0.434-0.054v-4.195c-0.145-0.093-0.333-0.17-0.565-0.232c-0.232-0.062-0.467-0.093-0.704-0.093
			C13.911,15.191,13.364,15.935,13.364,17.421z"/>
		<path fill="#FFFFFF" d="M23.286,11.059c0,0.423-0.137,0.756-0.41,0.998c-0.273,0.243-0.596,0.364-0.967,0.364
			c-0.372,0-0.694-0.121-0.968-0.364c-0.273-0.242-0.41-0.575-0.41-0.998c0-0.424,0.137-0.756,0.41-0.999
			c0.273-0.242,0.596-0.363,0.968-0.363c0.371,0,0.693,0.121,0.967,0.363C23.149,10.303,23.286,10.635,23.286,11.059z
			 M23.069,21.554h-2.306v-8.143h2.306V21.554z"/>
		<path fill="#FFFFFF" d="M32.42,21.291c-0.207,0.062-0.444,0.121-0.712,0.178c-0.269,0.057-0.55,0.105-0.844,0.146
			c-0.295,0.042-0.594,0.075-0.898,0.101c-0.305,0.026-0.596,0.039-0.874,0.039c-0.671,0-1.27-0.098-1.796-0.294
			s-0.971-0.478-1.331-0.844c-0.361-0.366-0.638-0.81-0.828-1.331c-0.191-0.521-0.287-1.107-0.287-1.757
			c0-0.661,0.083-1.257,0.248-1.788s0.402-0.983,0.712-1.354c0.31-0.372,0.689-0.655,1.138-0.852
			c0.449-0.196,0.962-0.294,1.54-0.294c0.32,0,0.606,0.03,0.859,0.093c0.253,0.062,0.509,0.149,0.767,0.263V9.913l2.307-0.372
			V21.291z M27.203,17.421c0,0.712,0.159,1.284,0.479,1.718s0.795,0.65,1.424,0.65c0.207,0,0.397-0.008,0.573-0.023
			s0.319-0.033,0.434-0.054v-4.195c-0.145-0.093-0.333-0.17-0.565-0.232c-0.232-0.062-0.467-0.093-0.704-0.093
			C27.75,15.191,27.203,15.935,27.203,17.421z"/>
		<path fill="#FFFFFF" d="M37.544,13.194c0.681,0,1.248,0.077,1.702,0.232c0.454,0.154,0.818,0.377,1.092,0.666
			s0.467,0.64,0.58,1.052c0.113,0.413,0.171,0.873,0.171,1.378v4.799c-0.331,0.072-0.79,0.157-1.378,0.256
			c-0.589,0.098-1.301,0.146-2.137,0.146c-0.526,0-1.004-0.046-1.432-0.139c-0.429-0.093-0.797-0.245-1.106-0.457
			c-0.31-0.211-0.548-0.487-0.713-0.828s-0.247-0.759-0.247-1.254c0-0.475,0.095-0.877,0.286-1.207
			c0.19-0.33,0.446-0.594,0.767-0.79c0.319-0.195,0.686-0.338,1.099-0.426c0.413-0.087,0.841-0.131,1.285-0.131
			c0.299,0,0.564,0.013,0.797,0.038c0.232,0.026,0.421,0.06,0.565,0.101v-0.217c0-0.392-0.119-0.706-0.356-0.944
			c-0.237-0.237-0.65-0.355-1.238-0.355c-0.393,0-0.779,0.028-1.161,0.085s-0.712,0.137-0.99,0.24l-0.294-1.858
			c0.134-0.041,0.302-0.085,0.503-0.131c0.201-0.047,0.42-0.088,0.657-0.124s0.488-0.067,0.751-0.093
			C37.01,13.208,37.275,13.194,37.544,13.194z M39.68,10.485l-2.547,2.152l-1.06-0.944l2.19-2.508L39.68,10.485z M37.729,19.943
			c0.227,0,0.443-0.005,0.65-0.015c0.206-0.011,0.371-0.026,0.495-0.047v-1.749c-0.093-0.021-0.232-0.041-0.418-0.063
			c-0.186-0.021-0.356-0.03-0.511-0.03c-0.217,0-0.421,0.013-0.611,0.038c-0.191,0.026-0.359,0.075-0.504,0.147
			s-0.258,0.17-0.34,0.294c-0.083,0.124-0.124,0.278-0.124,0.465c0,0.361,0.121,0.611,0.363,0.75
			C36.974,19.874,37.306,19.943,37.729,19.943z"/>
		<path fill="#FFFFFF" d="M42.79,17.482c0-0.588,0.096-1.143,0.287-1.664c0.19-0.521,0.467-0.976,0.828-1.362
			c0.36-0.387,0.799-0.694,1.315-0.921c0.516-0.227,1.104-0.341,1.765-0.341c0.434,0,0.831,0.039,1.192,0.116
			c0.36,0.077,0.712,0.188,1.053,0.333l-0.48,1.842c-0.217-0.082-0.454-0.154-0.712-0.217c-0.258-0.062-0.547-0.093-0.867-0.093
			c-0.681,0-1.189,0.212-1.524,0.635c-0.336,0.424-0.503,0.98-0.503,1.672c0,0.733,0.157,1.301,0.472,1.703s0.864,0.604,1.648,0.604
			c0.279,0,0.578-0.025,0.898-0.077c0.319-0.052,0.613-0.135,0.882-0.248l0.325,1.889c-0.269,0.113-0.604,0.211-1.006,0.294
			s-0.847,0.124-1.331,0.124c-0.743,0-1.384-0.111-1.92-0.333c-0.537-0.222-0.978-0.523-1.323-0.905s-0.599-0.833-0.759-1.354
			S42.79,18.092,42.79,17.482z"/>
		<path fill="#FFFFFF" d="M50.809,11.384l2.307-0.372v2.399h2.771v1.92h-2.771v2.863c0,0.485,0.085,0.872,0.256,1.161
			c0.17,0.289,0.513,0.434,1.029,0.434c0.248,0,0.503-0.023,0.767-0.069c0.263-0.047,0.503-0.111,0.72-0.194l0.325,1.796
			c-0.279,0.114-0.589,0.212-0.93,0.294c-0.34,0.083-0.758,0.124-1.254,0.124c-0.629,0-1.15-0.085-1.563-0.255
			c-0.412-0.171-0.742-0.408-0.99-0.713c-0.248-0.304-0.421-0.673-0.519-1.106c-0.099-0.434-0.147-0.913-0.147-1.439V11.384z"/>
		<path fill="#FFFFFF" d="M60.282,11.059c0,0.423-0.137,0.756-0.41,0.998c-0.273,0.243-0.596,0.364-0.967,0.364
			c-0.372,0-0.694-0.121-0.968-0.364c-0.273-0.242-0.41-0.575-0.41-0.998c0-0.424,0.137-0.756,0.41-0.999
			c0.273-0.242,0.596-0.363,0.968-0.363c0.371,0,0.693,0.121,0.967,0.363C60.146,10.303,60.282,10.635,60.282,11.059z
			 M60.065,21.554H57.76v-8.143h2.306V21.554z"/>
		<path fill="#FFFFFF" d="M61.846,17.482c0-0.588,0.096-1.143,0.287-1.664c0.19-0.521,0.467-0.976,0.828-1.362
			c0.36-0.387,0.799-0.694,1.315-0.921c0.516-0.227,1.104-0.341,1.765-0.341c0.434,0,0.831,0.039,1.192,0.116
			c0.36,0.077,0.712,0.188,1.053,0.333l-0.48,1.842c-0.217-0.082-0.454-0.154-0.712-0.217c-0.258-0.062-0.547-0.093-0.867-0.093
			c-0.681,0-1.189,0.212-1.524,0.635c-0.336,0.424-0.503,0.98-0.503,1.672c0,0.733,0.157,1.301,0.472,1.703s0.864,0.604,1.648,0.604
			c0.279,0,0.578-0.025,0.898-0.077c0.319-0.052,0.613-0.135,0.882-0.248l0.325,1.889c-0.269,0.113-0.604,0.211-1.006,0.294
			s-0.847,0.124-1.331,0.124c-0.743,0-1.384-0.111-1.92-0.333c-0.537-0.222-0.978-0.523-1.323-0.905s-0.599-0.833-0.759-1.354
			S61.846,18.092,61.846,17.482z"/>
		<path fill="#FFFFFF" d="M72.945,13.194c0.681,0,1.248,0.077,1.702,0.232c0.454,0.154,0.818,0.377,1.092,0.666
			s0.467,0.64,0.58,1.052c0.113,0.413,0.171,0.873,0.171,1.378v4.799c-0.331,0.072-0.79,0.157-1.378,0.256
			c-0.589,0.098-1.301,0.146-2.137,0.146c-0.526,0-1.004-0.046-1.432-0.139c-0.429-0.093-0.797-0.245-1.106-0.457
			c-0.31-0.211-0.548-0.487-0.713-0.828s-0.247-0.759-0.247-1.254c0-0.475,0.095-0.877,0.286-1.207
			c0.19-0.33,0.446-0.594,0.767-0.79c0.319-0.195,0.686-0.338,1.099-0.426c0.413-0.087,0.841-0.131,1.285-0.131
			c0.299,0,0.564,0.013,0.797,0.038c0.232,0.026,0.421,0.06,0.565,0.101v-0.217c0-0.392-0.119-0.706-0.356-0.944
			c-0.237-0.237-0.65-0.355-1.238-0.355c-0.393,0-0.779,0.028-1.161,0.085s-0.712,0.137-0.99,0.24l-0.294-1.858
			c0.134-0.041,0.302-0.085,0.503-0.131c0.201-0.047,0.42-0.088,0.657-0.124s0.488-0.067,0.751-0.093
			C72.411,13.208,72.677,13.194,72.945,13.194z M73.131,19.943c0.227,0,0.443-0.005,0.65-0.015c0.206-0.011,0.371-0.026,0.495-0.047
			v-1.749c-0.093-0.021-0.232-0.041-0.418-0.063c-0.186-0.021-0.356-0.03-0.511-0.03c-0.217,0-0.421,0.013-0.611,0.038
			c-0.191,0.026-0.359,0.075-0.504,0.147s-0.258,0.17-0.34,0.294c-0.083,0.124-0.124,0.278-0.124,0.465
			c0,0.361,0.121,0.611,0.363,0.75C72.375,19.874,72.707,19.943,73.131,19.943z"/>
	</g>
</g>
</svg>
