<?xml version="1.0" encoding="utf-8"?>
<!-- Generator: Adobe Illustrator 24.2.3, SVG Export Plug-In . SVG Version: 6.00 Build 0)  -->
<svg version="1.1" id="Capa_1" xmlns="http://www.w3.org/2000/svg" xmlns:xlink="http://www.w3.org/1999/xlink" x="0px" y="0px"
	 viewBox="0 0 53.1 118.8" style="enable-background:new 0 0 53.1 118.8;" xml:space="preserve">
<style type="text/css">
	.st0{clip-path:url(#SVGID_2_);fill:#4F4F4E;}
	.st1{clip-path:url(#SVGID_4_);fill:#4F4F4E;}
	.st2{clip-path:url(#SVGID_6_);fill:none;stroke:#FFCB00;stroke-width:3.822;stroke-linecap:round;}
	.st3{clip-path:url(#SVGID_8_);fill:#4F4F4E;}
	.st4{clip-path:url(#SVGID_10_);fill:#4F4F4E;}
	.st5{clip-path:url(#SVGID_12_);fill:none;stroke:#FFCB00;stroke-width:3.822;stroke-linecap:round;}
	.st6{clip-path:url(#SVGID_14_);fill:#4F4F4E;}
	.st7{clip-path:url(#SVGID_16_);fill:#4F4F4E;}
	.st8{clip-path:url(#SVGID_18_);fill:none;stroke:#FFCB00;stroke-width:3.822;stroke-linecap:round;}
	.st9{clip-path:url(#SVGID_20_);fill:#4F4F4E;}
	.st10{clip-path:url(#SVGID_22_);fill:#4F4F4E;}
	.st11{clip-path:url(#SVGID_24_);fill:none;stroke:#FFCB00;stroke-width:3.822;stroke-linecap:round;}
</style>
<g>
	<g>
		<defs>
			<rect id="SVGID_1_" y="0.6" width="53.1" height="9.2"/>
		</defs>
		<clipPath id="SVGID_2_">
			<use xlink:href="#SVGID_1_"  style="overflow:visible;"/>
		</clipPath>
		<path class="st0" d="M4.6,9.8c2.5,0,4.6-2.1,4.6-4.6S7.1,0.6,4.6,0.6S0,2.7,0,5.2S2.1,9.8,4.6,9.8"/>
	</g>
	<g>
		<defs>
			<rect id="SVGID_3_" y="0.6" width="53.1" height="9.2"/>
		</defs>
		<clipPath id="SVGID_4_">
			<use xlink:href="#SVGID_3_"  style="overflow:visible;"/>
		</clipPath>
		<path class="st1" d="M48.5,9.8c2.5,0,4.6-2.1,4.6-4.6s-2-4.6-4.6-4.6C46,0.6,44,2.7,44,5.2S46,9.8,48.5,9.8"/>
	</g>
	<g>
		<defs>
			<rect id="SVGID_5_" y="0.6" width="53.1" height="9.2"/>
		</defs>
		<clipPath id="SVGID_6_">
			<use xlink:href="#SVGID_5_"  style="overflow:visible;"/>
		</clipPath>
		<line class="st2" x1="6.5" y1="5.2" x2="47.6" y2="5.2"/>
	</g>
</g>
<g>
	<g>
		<defs>
			<rect id="SVGID_7_" y="36.7" width="53.1" height="9.2"/>
		</defs>
		<clipPath id="SVGID_8_">
			<use xlink:href="#SVGID_7_"  style="overflow:visible;"/>
		</clipPath>
		<path class="st3" d="M4.6,45.9c2.5,0,4.6-2.1,4.6-4.6s-2.1-4.6-4.6-4.6S0,38.8,0,41.3S2.1,45.9,4.6,45.9"/>
	</g>
	<g>
		<defs>
			<rect id="SVGID_9_" y="36.7" width="53.1" height="9.2"/>
		</defs>
		<clipPath id="SVGID_10_">
			<use xlink:href="#SVGID_9_"  style="overflow:visible;"/>
		</clipPath>
		<path class="st4" d="M48.5,45.9c2.5,0,4.6-2.1,4.6-4.6s-2-4.6-4.6-4.6c-2.5,0-4.5,2.1-4.5,4.6S46,45.9,48.5,45.9"/>
	</g>
	<g>
		<defs>
			<rect id="SVGID_11_" y="36.7" width="53.1" height="9.2"/>
		</defs>
		<clipPath id="SVGID_12_">
			<use xlink:href="#SVGID_11_"  style="overflow:visible;"/>
		</clipPath>
		<line class="st5" x1="6.5" y1="41.3" x2="47.6" y2="41.3"/>
	</g>
</g>
<g>
	<g>
		<defs>
			<rect id="SVGID_13_" y="72.9" width="53.1" height="9.2"/>
		</defs>
		<clipPath id="SVGID_14_">
			<use xlink:href="#SVGID_13_"  style="overflow:visible;"/>
		</clipPath>
		<path class="st6" d="M4.6,82.1c2.5,0,4.6-2.1,4.6-4.6s-2.1-4.6-4.6-4.6S0,75,0,77.5S2.1,82.1,4.6,82.1"/>
	</g>
	<g>
		<defs>
			<rect id="SVGID_15_" y="72.9" width="53.1" height="9.2"/>
		</defs>
		<clipPath id="SVGID_16_">
			<use xlink:href="#SVGID_15_"  style="overflow:visible;"/>
		</clipPath>
		<path class="st7" d="M48.5,82.1c2.5,0,4.6-2.1,4.6-4.6s-2-4.6-4.6-4.6C46,72.9,44,75,44,77.5S46,82.1,48.5,82.1"/>
	</g>
	<g>
		<defs>
			<rect id="SVGID_17_" y="72.9" width="53.1" height="9.2"/>
		</defs>
		<clipPath id="SVGID_18_">
			<use xlink:href="#SVGID_17_"  style="overflow:visible;"/>
		</clipPath>
		<line class="st8" x1="6.5" y1="77.5" x2="47.6" y2="77.5"/>
	</g>
</g>
<g>
	<g>
		<defs>
			<rect id="SVGID_19_" y="109" width="53.1" height="9.2"/>
		</defs>
		<clipPath id="SVGID_20_">
			<use xlink:href="#SVGID_19_"  style="overflow:visible;"/>
		</clipPath>
		<path class="st9" d="M4.6,118.2c2.5,0,4.6-2.1,4.6-4.6S7.1,109,4.6,109S0,111.1,0,113.6S2.1,118.2,4.6,118.2"/>
	</g>
	<g>
		<defs>
			<rect id="SVGID_21_" y="109" width="53.1" height="9.2"/>
		</defs>
		<clipPath id="SVGID_22_">
			<use xlink:href="#SVGID_21_"  style="overflow:visible;"/>
		</clipPath>
		<path class="st10" d="M48.5,118.2c2.5,0,4.6-2.1,4.6-4.6s-2-4.6-4.6-4.6c-2.5,0-4.5,2.1-4.5,4.6S46,118.2,48.5,118.2"/>
	</g>
	<g>
		<defs>
			<rect id="SVGID_23_" y="109" width="53.1" height="9.2"/>
		</defs>
		<clipPath id="SVGID_24_">
			<use xlink:href="#SVGID_23_"  style="overflow:visible;"/>
		</clipPath>
		<line class="st11" x1="6.5" y1="113.6" x2="47.6" y2="113.6"/>
	</g>
</g>
</svg>
