<?xml version="1.0" encoding="utf-8"?>
<!-- Generator: Adobe Illustrator 14.0.0, SVG Export Plug-In . SVG Version: 6.00 Build 43363)  -->
<!DOCTYPE svg PUBLIC "-//W3C//DTD SVG 1.1//EN" "http://www.w3.org/Graphics/SVG/1.1/DTD/svg11.dtd">
<svg version="1.1" id="Layer_1" xmlns="http://www.w3.org/2000/svg" xmlns:xlink="http://www.w3.org/1999/xlink" x="0px" y="0px"
	 width="32.154px" height="48.836px" viewBox="0 0 32.154 48.836" enable-background="new 0 0 32.154 48.836" xml:space="preserve">
<g>
	<g opacity="0.57">
		<g>
			<path fill="#D0B8D8" d="M12.24,36.81c-1.986,1.173-2.789,2.58-2.303,3.646c-0.175,0.221-0.439,0.474-0.85,0.777
				c-1.635,1.203-3.646,1.78-3.646,1.78l0.019,0.004c-1.117,0.341-2.278,0.756-3.381,1.426c-0.012,0.005-0.022,0.012-0.032,0.017
				c-2.349,1.386-2.732,3.167-0.859,3.979c1.855,0.801,5.226,0.352,7.571-1.001h0.005c0,0,2.512-1.399,3.404-3.457l0.024,0.004
				c0.542-1.078,1.727-1.65,2.739-1.987c1.841-0.155,3.835-0.74,5.423-1.678c2.806-1.658,3.265-3.787,1.024-4.755
				c-0.039-0.019-0.085-0.03-0.126-0.047c2.01-1.546,4.723-3.662,5.134-4.123c0,0-1.772,0.8-5.866,3.667
				c-0.089,0.063-0.161,0.117-0.245,0.177C17.959,34.787,14.634,35.398,12.24,36.81"/>
		</g>
	</g>
	<path fill="#37383F" d="M23.294,21.251c0,0,2.344,8.915,3.065,10.07c0,0,0.479-1.764-0.471-6.961
		C24.938,19.163,22.749,20.128,23.294,21.251"/>
	<path fill="#E32A33" d="M28.757,4.82C28.732,2.125,25.585-0.033,21.728,0c-3.859,0.033-6.969,2.246-6.943,4.942
		c0.022,2.697,3.17,4.855,7.027,4.822C25.67,9.729,28.779,7.518,28.757,4.82"/>
	<path fill="#E32A33" d="M29.768,15.034c-0.752-0.836-2.344-1.088-2.823-3.156c-0.498-2.14,0.717-3.776,0.717-3.776l-0.029,0.007
		c0.699-1.036,1.29-2.192,1.091-3.682C28.397,1.999,14.781,4.86,14.781,4.86s-0.144,2.792,2.96,5.506l-0.036,0.007
		c1.674,1.589,1.236,2.898,0.633,3.78c-0.206,0.248-0.427,0.51-0.644,0.799c-0.027,0.03-0.052,0.06-0.073,0.088
		c-0.118,0.145-0.229,0.316-0.332,0.495c-0.262,0.419-0.492,0.891-0.652,1.436c-0.013,0.036-0.019,0.057-0.019,0.057l0.003-0.001
		c-0.015,0.054-0.029,0.106-0.043,0.16c-0.104,0.352-0.158,0.715-0.155,1.088c0.026,2.868,3.372,5.165,7.479,5.129
		s7.414-2.389,7.389-5.259C31.28,16.973,30.714,15.896,29.768,15.034"/>
	<path fill="#E74057" d="M28.184,4.066c-0.019-2.153-2.92-3.871-6.48-3.84c-3.562,0.031-6.435,1.799-6.414,3.953
		c0.018,2.153,2.92,3.871,6.481,3.84C25.331,7.988,28.204,6.219,28.184,4.066"/>
	<path fill="#E32A33" d="M32.154,18.324c-0.029-3.223-3.79-5.802-8.401-5.761c-4.612,0.04-8.329,2.684-8.299,5.907
		c0.026,3.222,3.787,5.803,8.401,5.761C28.467,24.191,32.182,21.545,32.154,18.324"/>
	<path fill="#E74057" d="M17.392,17.438c0,0-1.273,1.928-0.47,3.461c0.804,1.534,4.397,2.919,7.522,2.684
		c3.121-0.235,7.603-2.398,7.031-5.518c-0.567-3.119-2.448-3.728-3.826-4.174c-1.379-0.447-1.615-3.692-0.92-5.157
		c0.694-1.464,0.649-1.964,0.649-1.964s-3.142,2.943-9.321,1.123c0,0-0.366,1.087,0.057,1.791c0.422,0.705,5.049,0.832,7.456-0.107
		c0,0-0.718,3.589,1.374,4.571c2.09,0.982,1.742,3.71-0.003,4.583C23.271,20.563,18.451,19.679,17.392,17.438"/>
</g>
</svg>
