<?xml version="1.0" encoding="utf-8"?>
<!-- Generator: Adobe Illustrator 21.1.0, SVG Export Plug-In . SVG Version: 6.00 Build 0)  -->
<svg version="1.1" id="Capa_1" xmlns="http://www.w3.org/2000/svg" xmlns:xlink="http://www.w3.org/1999/xlink" x="0px" y="0px"
	 viewBox="0 0 33.1 9.3" style="enable-background:new 0 0 33.1 9.3;" xml:space="preserve">
<style type="text/css">
	.st0{clip-path:url(#SVGID_2_);fill:#F9D1C9;}
</style>
<g>
	<defs>
		<rect id="SVGID_1_" width="33.1" height="9.3"/>
	</defs>
	<clipPath id="SVGID_2_">
		<use xlink:href="#SVGID_1_"  style="overflow:visible;"/>
	</clipPath>
	<path class="st0" d="M0.2,3.5c3.7,4.1,10.8,4.7,16,4.3c5.3-0.5,9.3-3,13.8-5.6c0.2-0.1,0.3,0.1,0.3,0.3c-3,5.2-10.3,6.8-15.9,6.7
		C10.2,9.3,1.5,8.6,0,3.6C0,3.5,0.1,3.5,0.2,3.5"/>
	<path class="st0" d="M23.9,1.5c1.5,0.1,2.8,0.1,4.3-0.2c1.4-0.4,2.7-0.8,4.1-1.2c0.5-0.1,1.1,0.5,0.9,1c-0.3,0.7-0.7,1.4-1.1,2
		c-0.5,1-1.3,1.9-1.5,3c-0.2,2.2-3.4,0.2-1.8-0.9c1.4-0.9,2.1-3.2,2.9-4.6c0.3,0.3,0.6,0.7,0.9,1c-2.2,0.6-7.1,2.6-8.7,0.1
		C23.8,1.6,23.8,1.5,23.9,1.5"/>
</g>
</svg>
