<?xml version="1.0" encoding="utf-8"?>
<!-- Generator: Adobe Illustrator 21.1.0, SVG Export Plug-In . SVG Version: 6.00 Build 0)  -->
<svg version="1.1" id="Capa_1" xmlns="http://www.w3.org/2000/svg" xmlns:xlink="http://www.w3.org/1999/xlink" x="0px" y="0px"
	 viewBox="0 0 122.3 250.4" style="enable-background:new 0 0 122.3 250.4;" xml:space="preserve">
<style type="text/css">
	.st0{fill:#FFFFFF;}
	.st1{clip-path:url(#SVGID_2_);fill:#1D1D1B;}
	.st2{clip-path:url(#SVGID_2_);fill:#FFFFFF;}
	.st3{clip-path:url(#SVGID_4_);}
</style>
<polygon class="st0" points="99.1,60.4 106.1,59.5 114.2,57.5 115.7,7.1 9.3,1 7.2,59.7 "/>
<g>
	<defs>
		<rect id="SVGID_1_" width="122.3" height="250.4"/>
	</defs>
	<clipPath id="SVGID_2_">
		<use xlink:href="#SVGID_1_"  style="overflow:visible;"/>
	</clipPath>
	<path class="st1" d="M6.7,60.5C6.7,60.4,6.7,60.4,6.7,60.5C6.5,59.6,7.5,50.9,7.6,49c0.1-2,0.2-1.2,0.2-3.2c0-2,0.1-3.9,0-5.9
		c-0.2-5.6,0.7-5.5,1.1,0.1c0.1,2,0.3,3.8,0.4,5.8c0,2,0,1.3,0,3.3c-0.1,2-0.3,10.3-0.3,10.8c11.8-0.5,41.6-0.6,53.4-0.6
		c6,0,8.6,0.1,10.8,0.1c2.2,0.1,3.2,0.2,9.2,0.5c4.2,0.2,7.5,0.5,11.8,0.7c1.5,0.1,4.7,0.3,5.2,0.5c1.5,0.2,13.6-0.9,13.4-1.7
		c-0.2-0.7,0.5-1.5,0.6-2.2c0.1-0.7,0.6-2.7,0.8-5.4c0.5-5.3,0.9-31.3,1.2-36.6c0.2-2.6,0.4-5.2,0.5-7.8c-14-0.8-24.4-2.6-38.5-3.4
		C63.3,3.2,66,3.6,52,2.8c-7.7-0.5-33.5,0.2-41.2-0.2c-0.1,1.4-0.4,24.3-0.5,24.7c-0.3,0.7-0.9,0.9-1.1,0c-0.2-0.8-0.1-2.7,0-3.5
		c0.1-0.8,0.1-22,0.2-22.4c0.1-0.5,0.6-0.9,1.1-0.9c14.1,1.1,46.4,1,60.5,1.9c14,0.9,10.7,0.8,24.7,1.6c7.5,0.5,20,1.5,20.5,1.5
		c0.9,0.1,0.7,0.3,0.7,0.8c-0.3,10.7-1,32.6-2,43.3c-0.1,1.5-0.3,3-0.4,4.5c-0.1,1.4-0.4,3.5-0.5,4.9c1.3,3.1-14.8,3.1-15.3,2.9
		c-0.4-0.2-2.9-0.3-4-0.3c-2.1-0.1-8.9-1-12.2-1c-12.1-0.2-42.2-0.2-54.3,0.1c-6.8,0.2-13.5,0.4-20.3,0.7
		C7.3,61.8,6.7,61.1,6.7,60.5"/>
	<path class="st1" d="M0.5,65.5c0-0.1,0-0.3,0-0.4c0-0.6,0.1-1.1,0.1-1.7c0.1-1.2,0.1-2.3,0.2-3.5c0.1-2.3,0.3-4.5,0.5-6.8
		c0.1-1.1,0.8-1.1,0.8,0c0,2.3,0,4.5,0,6.8L2,63.3c0,0.6,0,1.1,0,1.7C2,65,2,65,2,65C3.6,64.9,5.2,65,6.8,65c2.2,0,4.3,0.1,6.5,0.2
		c1.3,0.1,1.3,1.2,0,1.1c-2.2-0.1-4.3-0.1-6.5,0c-2,0.1-3,0.3-5,0.4c-0.1,0-0.3,0-0.4,0c-0.1,0-0.1,0-0.2,0C0.6,66.8,0,67,0,66.4
		C0,66,0.2,65.7,0.5,65.5"/>
	<path class="st1" d="M119.6,13.3c0.2-1.4,0.4-2.8,0.5-4.1c0.1-0.7,0.2-1.4,0.3-2.1c0.1-0.4,0.1-0.9,0.2-1.3
		c-0.6-0.1-1.3-0.3-1.9-0.5c-0.8-0.2-1.7-0.5-2.5-0.7c-1.7-0.4-3.4-0.8-5.1-1.2c-1.7-0.4-3.4-0.7-5.2-1c-1.7-0.3-3.4-0.6-5.2-0.8
		c-0.7-0.1-1.3-0.2-1.2-1c0.1-0.7,2.4-0.4,2.9-0.3c1.7,0.4,2.2,0.3,3.9,0.7c1.8,0.3,3.5,0.7,5.2,1.1c1.7,0.4,3.5,0.8,5.2,1.3
		c0.8,0.2,1.7,0.5,2.5,0.7c0.9,0.3,1.9,0.5,2.6,1c0.3,0.2,0.5,0.6,0.4,1c-0.2,0.7-0.3,0.6-0.4,1.3c-0.1,0.7-0.2,1.4-0.3,2.1
		c-0.2,1.4-0.4,2.7-0.6,4.1c-0.4,2.8-0.9,14.4-1.3,17.2c-0.1,0.6-1.2,0.5-1.1-0.2C118.9,27.7,119.2,16,119.6,13.3"/>
	<path class="st1" d="M69.2,60.2c0,0-4.9,15-7.1,14.9C60,75,55.8,59.8,55.8,59.8"/>
	<path class="st2" d="M69.1,57.4c0,0-5.5,15.2-6.9,15c-1.4-0.2-6-17.3-6-17.3"/>
	<path class="st1" d="M87.4,47.2c0.3,0,0.6-0.1,0.8-0.4c0.2-0.2,0.3-0.5,0.3-0.9c0-0.2,0-0.3-0.1-0.4c-0.1-0.1-0.1-0.2-0.2-0.3
		c-0.1,0-0.1-0.1-0.3-0.2c-0.1-0.1-0.3-0.1-0.4-0.1c-0.3,0-0.5,0.1-0.7,0.3c-0.2,0.2-0.3,0.4-0.3,0.7c0,0.4,0,0.7,0.2,0.9
		C86.7,47.1,87,47.2,87.4,47.2 M84.9,39.9c0-0.4,0-0.8-0.1-1c0-0.2-0.1-0.5-0.3-0.8c-0.1-0.2-0.3-0.4-0.5-0.5
		c-0.3-0.1-0.5-0.2-0.9-0.2c-0.6,0-1.1,0.4-1.6,1.2c-0.1-0.3-0.2-0.6-0.4-0.8c-0.6,0-1,0-1.3,0.1c0,0.7,0,1.4,0,2.2
		c0,0.2,0,0.5,0,0.8l0,1.4c0,1.7,0,2.7,0,2.8c0,0.4,0,0.9,0,1.6c0,0.1,0,0.2,0,0.3c0,0.1,0,0.2,0,0.3c0,0.1,0.1,0.1,0.2,0.1
		s0.2,0,0.3,0c0.1,0,0.2,0,0.4,0c0.3,0,0.5-0.1,0.6-0.2c0.2-0.1,0.2-0.3,0.2-0.6l0-1.5c0-0.5,0-0.9,0-1.1l0-1.5c0-0.8,0-1.6,0.1-2.5
		c0.2-0.5,0.5-0.8,0.8-0.8c0.4,0,0.7,0.5,0.7,1.5c0,0.4,0,0.7-0.1,1l0,0.4c0,3,0,4.8,0.1,5.2l0.5,0.1c0.4,0,0.8-0.1,0.9-0.2
		c0.2-0.1,0.3-0.3,0.3-0.7v-0.9c0-1.1,0-2,0-2.7c0-0.3,0-0.8,0-1.6C84.9,40.6,84.9,40.1,84.9,39.9 M75.8,45.7
		c-0.1,0-0.3-0.1-0.4-0.3c-0.1-0.2-0.2-0.5-0.2-0.9c0-0.6,0.1-1.1,0.2-1.6c0.1-0.5,0.3-0.7,0.6-0.7c0.3,0,0.5,0.2,0.7,0.6l0,1.2l0,1
		C76.3,45.4,76.1,45.7,75.8,45.7 M77.9,38.5c-0.1-0.3-0.3-0.7-0.7-0.9c-0.3-0.3-0.8-0.4-1.3-0.4c-0.3,0-0.6,0-0.8,0.1
		c-0.2,0-0.4,0.1-0.6,0.3c-0.3,0.2-0.4,0.4-0.5,0.6c-0.1,0.2-0.1,0.4-0.1,0.6c0,0.2,0.1,0.4,0.2,0.4c0.1,0.1,0.2,0.2,0.5,0.3
		c0.1-0.2,0.3-0.3,0.5-0.5c0.2-0.2,0.6-0.2,0.9-0.2c0.3,0,0.5,0.2,0.6,0.5c0.1,0.3,0.2,0.7,0.2,1.1l0,1c-0.2-0.3-0.5-0.4-1-0.4
		c-0.4,0-0.8,0.1-1,0.2c-0.2,0.1-0.5,0.5-0.8,1c-0.2,0.2-0.3,0.6-0.3,1c-0.1,0.4-0.1,0.9-0.1,1.4c0,0.7,0.1,1.3,0.2,1.7
		c0.2,0.5,0.4,0.8,0.7,0.9c0.3,0.2,0.6,0.3,1,0.3c0.5,0,0.9-0.3,1.5-1c0.1,0.5,0.2,0.8,0.3,0.8c0.1,0,0.2,0,0.3,0c0.1,0,0.2,0,0.3,0
		c0.2,0,0.4-0.1,0.5-0.2c0.1-0.1,0.2-0.3,0.2-0.6c0-1,0-1.8,0-2.6c0-0.1,0-0.3,0-0.6c0-0.4,0-0.8,0-1.3
		C78.3,40.4,78.2,39.3,77.9,38.5 M72.1,45.9c-0.1-0.1-0.1-0.1-0.2-0.2c-0.1-0.1-0.1-0.1-0.2-0.1c0,0-0.1,0-0.1,0
		c0,0-0.1,0.1-0.2,0.1c-0.1,0.1-0.1,0.1-0.2,0.1c-0.1,0-0.1,0-0.1,0c-0.1,0-0.2-0.1-0.3-0.3c-0.1-0.2-0.1-0.4-0.1-0.7l0-1.8
		c0-0.6,0-1,0-1.4c0-0.4,0-1.2,0-2.4c0.3,0,0.8,0,1.5,0l0.1-0.4c0-0.3,0-0.5,0-0.7c0-0.2,0-0.4-0.1-0.4c0,0-0.5-0.1-1.5-0.1v-0.3
		c0-0.3,0-0.5,0-0.7l0-1.4c0-0.4,0-0.7,0-1c-0.3-0.1-0.5-0.1-0.6-0.1c-0.4,0-0.8,0.1-1.1,0.4c-0.1,0.1-0.2,0.4-0.2,0.9l0,0.8l0,1.3
		c-0.5,0-0.8,0-1.1,0l-0.1,0.8c0,0.1,0,0.1,0,0.2c0,0.2,0,0.3,0.1,0.4c0.1,0.1,0.2,0.1,0.5,0.1c0.2,0,0.4,0,0.5,0c0,0.4,0,0.7,0,0.9
		c0,0.2,0,0.3,0,0.4c0,0.7,0,1.1,0,1.5c0,0.4,0,0.7,0,0.8c0,0.2,0,0.3,0,0.3l0.1,1.6c0,0.7,0,1.2,0.2,1.7c0.2,0.4,0.3,0.7,0.6,0.9
		s0.5,0.3,0.7,0.3c0.4,0,0.8-0.1,1-0.2c0.2-0.1,0.5-0.3,0.7-0.5c0.1-0.1,0.1-0.2,0.1-0.4C72.3,46.3,72.2,46.1,72.1,45.9 M64.8,47.2
		c0.1,0,0.2,0,0.4,0c0.1,0,0.3,0,0.4,0c0.5,0,0.8-0.2,0.8-0.5V45v-1.1v-1c0-1.3,0-2.7,0-4c0-0.4,0-0.6-0.1-0.8
		c-0.1-0.2-0.3-0.2-0.7-0.2c-0.3,0-0.6,0.1-1,0.2l0,0.7c0,0.4,0,0.8,0,1.3l0,0.7l0,1.2c-0.1,1.4-0.1,2.4,0,3c0,0.2,0,0.5,0,0.9v0.7
		c0,0.1,0,0.1,0,0.3c0,0.1,0,0.2,0,0.3C64.6,47.2,64.7,47.2,64.8,47.2 M65.5,36.4c0.3,0,0.6-0.1,0.7-0.3c0.2-0.2,0.3-0.5,0.3-0.8
		c0-0.2,0-0.3-0.1-0.5c-0.1-0.2-0.2-0.3-0.3-0.3c-0.2-0.2-0.5-0.3-0.7-0.3c-0.3,0-0.6,0.1-0.8,0.3c-0.2,0.2-0.3,0.4-0.4,0.7
		c0,0.4,0,0.8,0.2,1C64.8,36.3,65.1,36.4,65.5,36.4 M60.5,47.4c0.4,0,0.7-0.1,0.9-0.2c0.3-0.1,0.6-0.3,0.8-0.5
		c0.4-0.3,0.7-0.9,0.8-1.7c0-0.1,0-0.3,0-0.4c0-0.2,0-0.5-0.1-0.8c0-0.3-0.1-0.5-0.2-0.7c-0.2-0.4-0.3-0.8-0.5-1
		c-0.2-0.2-0.6-0.6-1.1-1c-0.2-0.1-0.4-0.4-0.6-0.7c-0.2-0.3-0.3-0.6-0.4-0.8c0-0.2,0-0.4,0.1-0.7c0.1-0.3,0.2-0.4,0.4-0.5
		c0,0,0.1,0,0.2,0c0.2,0,0.4,0.1,0.5,0.2c0.1,0.2,0.2,0.3,0.2,0.5c0,0.3,0,0.5,0.1,0.6c0.1,0.2,0.2,0.2,0.4,0.2l0.8-0.2
		c0-0.2,0-0.5,0-0.9c0-0.3-0.1-0.5-0.2-0.8c-0.1-0.2-0.3-0.4-0.5-0.6c-0.5-0.3-0.9-0.4-1.4-0.4c-0.5,0-1,0.2-1.4,0.6
		s-0.6,0.9-0.7,1.5c0,0.2,0,0.4,0,0.5c0,0.5,0.1,0.9,0.3,1.4c0.1,0.3,0.3,0.6,0.6,1c0.3,0.4,0.5,0.6,0.8,0.8
		c0.3,0.2,0.6,0.5,0.8,0.8c0.2,0.3,0.3,0.7,0.3,1c0,0.3-0.1,0.6-0.3,0.8c-0.2,0.2-0.4,0.3-0.6,0.3c-0.3,0-0.5-0.1-0.6-0.4
		c-0.1-0.2-0.2-0.6-0.4-1.1c0-0.2-0.1-0.3-0.2-0.3c-0.1,0-0.2-0.1-0.4-0.1c-0.3,0.1-0.5,0.2-0.6,0.3c-0.1,0.1-0.2,0.3-0.2,0.5
		c0,0.1,0,0.3,0.1,0.5c0.1,0.7,0.4,1.2,0.8,1.5C59.7,47.2,60.1,47.4,60.5,47.4 M55.1,38.7c0.2,0,0.4,0.2,0.5,0.5
		c0.1,0.4,0.2,0.8,0.2,1.4c0,0.1,0,0.2,0,0.4c0,0.4-0.1,0.6-0.2,0.6c-0.1,0-0.2,0-0.4,0c-0.1,0-0.3,0-0.4,0c-0.2,0-0.4,0-0.7,0v-0.1
		c0-1,0.1-1.7,0.2-2.1C54.7,38.9,54.9,38.7,55.1,38.7 M56.8,44.2C56.6,44,56.5,44,56.5,44c-0.1,0-0.2,0.1-0.3,0.2
		c-0.1,0.1-0.2,0.3-0.3,0.6c-0.2,0.4-0.3,0.6-0.4,0.8c-0.1,0.2-0.3,0.3-0.5,0.3c-0.2,0-0.4-0.2-0.5-0.5c-0.1-0.4-0.2-0.9-0.2-1.7
		v-0.4c0.2,0,0.4,0,0.7,0c0.6,0,1.2-0.1,1.7-0.2l0.6-0.1c0.1-0.2,0.2-0.6,0.2-1.2c0-0.4-0.1-1-0.2-1.5c-0.2-1-0.5-1.7-0.9-2.2
		c-0.4-0.4-0.9-0.6-1.5-0.6c-0.4,0-0.8,0.2-1.2,0.7c-0.4,0.5-0.7,0.9-0.8,1.4c-0.3,0.9-0.4,1.7-0.4,2.5c0,1.5,0.1,2.7,0.4,3.7
		c0.2,0.6,0.4,1.1,0.8,1.3c0.4,0.3,0.9,0.4,1.5,0.4c0.4,0,0.8-0.2,1.2-0.5c0.3-0.4,0.7-0.9,0.9-1.6c0-0.1,0.1-0.2,0.1-0.3
		c0-0.1,0-0.2-0.1-0.3c-0.1-0.1-0.1-0.2-0.3-0.3C56.9,44.3,56.8,44.2,56.8,44.2 M50,40.6c0,0.2,0.2,0.3,0.4,0.3
		c0.3,0,0.5-0.1,0.8-0.3c0.1-0.2,0.1-0.4,0.1-0.5c0-0.1,0-0.2,0-0.2c-0.2-0.9-0.5-1.6-0.8-1.9c-0.4-0.4-0.9-0.5-1.5-0.5
		c-0.4,0-0.8,0.2-1.2,0.5c-0.4,0.3-0.7,0.9-1,1.9c-0.2,0.5-0.2,1.2-0.2,2.1c0,0.8,0,1.6,0.1,2.3c0.1,0.7,0.2,1.2,0.2,1.6
		c0.2,0.6,0.4,1,0.8,1.2c0.4,0.2,0.9,0.3,1.5,0.3c0.5,0,0.9-0.2,1.2-0.5c0.3-0.3,0.6-0.9,0.9-1.7c0.1-0.2,0.1-0.4,0.1-0.5
		c0-0.1,0-0.2-0.1-0.3c-0.1-0.1-0.2-0.2-0.4-0.3c-0.1-0.1-0.2-0.1-0.4-0.1c-0.1,0-0.2,0.1-0.3,0.2c-0.1,0.4-0.2,0.8-0.3,1
		c-0.1,0.2-0.2,0.4-0.3,0.5c-0.1,0.1-0.3,0.2-0.5,0.2c-0.3,0-0.5-0.2-0.6-0.7c-0.1-0.5-0.2-1.1-0.2-1.9v-1.7c0-0.8,0.1-1.4,0.2-1.8
		c0.1-0.4,0.3-0.6,0.6-0.6c0.3,0,0.5,0.1,0.7,0.4C49.9,39.7,50,40.1,50,40.6 M43,38.7c0.2,0,0.4,0.2,0.5,0.5
		c0.1,0.4,0.2,0.8,0.2,1.4c0,0.1,0,0.2,0,0.4c0,0.4-0.1,0.6-0.2,0.6c-0.1,0-0.2,0-0.4,0c-0.1,0-0.3,0-0.4,0c-0.2,0-0.4,0-0.7,0v-0.1
		c0-1,0.1-1.7,0.2-2.1C42.6,38.9,42.8,38.7,43,38.7 M44.7,44.2C44.6,44,44.5,44,44.4,44c-0.1,0-0.2,0.1-0.3,0.2
		c-0.1,0.1-0.2,0.3-0.3,0.6c-0.2,0.4-0.3,0.6-0.4,0.8c-0.1,0.2-0.3,0.3-0.5,0.3c-0.2,0-0.4-0.2-0.5-0.5c-0.1-0.4-0.2-0.9-0.2-1.7
		v-0.4c0.2,0,0.4,0,0.7,0c0.6,0,1.2-0.1,1.7-0.2l0.6-0.1c0.1-0.2,0.2-0.6,0.2-1.2c0-0.4-0.1-1-0.2-1.5c-0.2-1-0.5-1.7-0.9-2.2
		s-0.9-0.6-1.5-0.6c-0.4,0-0.8,0.2-1.2,0.7c-0.4,0.5-0.7,0.9-0.8,1.4c-0.3,0.9-0.4,1.7-0.4,2.5c0,1.5,0.1,2.7,0.4,3.7
		c0.2,0.6,0.4,1.1,0.8,1.3c0.4,0.3,0.9,0.4,1.5,0.4c0.4,0,0.8-0.2,1.2-0.5c0.3-0.4,0.7-0.9,0.9-1.6c0-0.1,0.1-0.2,0.1-0.3
		c0-0.1,0-0.2-0.1-0.3c-0.1-0.1-0.2-0.2-0.3-0.3C44.9,44.3,44.8,44.2,44.7,44.2 M39.2,39.9c0-0.4,0-0.8-0.1-1c0-0.2-0.1-0.5-0.3-0.8
		c-0.1-0.2-0.3-0.4-0.5-0.5c-0.3-0.1-0.5-0.2-0.8-0.2c-0.6,0-1.1,0.4-1.6,1.2c-0.1-0.3-0.2-0.6-0.4-0.8c-0.6,0-1,0-1.3,0.1
		c0,0.7,0,1.4,0,2.2c0,0.2,0,0.5,0,0.8l0,1.4c0,1.7,0,2.7,0,2.8c0,0.4,0,0.9,0,1.6c0,0.1,0,0.2,0,0.3c0,0.1,0,0.2,0,0.3
		c0,0.1,0.1,0.1,0.2,0.1c0.1,0,0.2,0,0.3,0c0.1,0,0.2,0,0.4,0c0.3,0,0.5-0.1,0.6-0.2c0.2-0.1,0.2-0.3,0.2-0.6l0-1.5
		c0-0.5,0-0.9,0-1.1l0-1.5c0-0.8,0-1.6,0.1-2.5c0.2-0.5,0.5-0.8,0.8-0.8c0.4,0,0.7,0.5,0.7,1.5c0,0.4,0,0.7-0.1,1l0,0.4
		c0,3,0,4.8,0.1,5.2l0.5,0.1c0.4,0,0.8-0.1,0.9-0.2c0.2-0.1,0.3-0.3,0.3-0.7v-0.9c0-1.1,0-2,0-2.7c0-0.3,0-0.8,0-1.6
		C39.2,40.6,39.2,40.1,39.2,39.9"/>
	<path class="st1" d="M95.9,25.7c0.4,0,0.7-0.1,0.9-0.2c0.3-0.1,0.6-0.3,0.8-0.5c0.4-0.3,0.7-0.9,0.8-1.7c0-0.1,0-0.3,0-0.4
		c0-0.2,0-0.5-0.1-0.8c0-0.3-0.1-0.5-0.2-0.7c-0.2-0.4-0.3-0.8-0.5-1c-0.2-0.2-0.6-0.6-1.1-1c-0.2-0.1-0.4-0.4-0.6-0.7
		c-0.2-0.3-0.3-0.6-0.4-0.8c0-0.2,0-0.4,0.1-0.7c0.1-0.3,0.2-0.4,0.4-0.5c0,0,0.1,0,0.2,0c0.2,0,0.4,0.1,0.5,0.2s0.2,0.3,0.2,0.5
		c0,0.3,0,0.5,0.1,0.6c0.1,0.2,0.2,0.2,0.4,0.2l0.8-0.2c0-0.2,0-0.5,0-0.9c0-0.3-0.1-0.5-0.2-0.8S98,16.1,97.8,16
		c-0.5-0.3-0.9-0.4-1.4-0.4c-0.5,0-1,0.2-1.4,0.6c-0.4,0.4-0.6,0.9-0.7,1.5c0,0.2,0,0.4,0,0.5c0,0.5,0.1,0.9,0.3,1.4
		c0.1,0.3,0.3,0.6,0.6,1c0.3,0.4,0.5,0.6,0.8,0.8c0.3,0.2,0.6,0.5,0.8,0.8c0.2,0.3,0.3,0.7,0.3,1c0,0.3-0.1,0.6-0.3,0.8
		c-0.2,0.2-0.4,0.3-0.6,0.3c-0.3,0-0.5-0.1-0.6-0.4c-0.1-0.2-0.2-0.6-0.4-1.1c0-0.2-0.1-0.3-0.2-0.3c-0.1,0-0.2-0.1-0.4-0.1
		c-0.3,0.1-0.5,0.2-0.6,0.3C94,22.8,94,23,94,23.3c0,0.1,0,0.3,0.1,0.5c0.1,0.7,0.4,1.2,0.8,1.5C95.2,25.5,95.5,25.7,95.9,25.7
		 M91.1,22.5c0,0.6,0,1-0.2,1.3c-0.1,0.3-0.3,0.4-0.6,0.4c-0.3,0-0.5-0.2-0.6-0.6s-0.2-1.1-0.2-2l0-1.5c0-0.2,0-0.4,0-0.4
		c0.1-0.9,0.2-1.5,0.3-1.8c0.1-0.3,0.3-0.5,0.5-0.5c0.3,0,0.5,0.1,0.6,0.4c0.1,0.3,0.2,0.8,0.2,1.4c0,0.5,0,0.9,0,1.2
		C91.1,21.5,91.1,22.2,91.1,22.5 M90.6,25.7c0.5,0,0.9-0.2,1.2-0.5c0.4-0.4,0.6-0.9,0.8-1.5c0.1-0.2,0.1-0.7,0.2-1.3
		c0.1-0.6,0.1-1.1,0.1-1.5l0-1c0-1-0.2-1.9-0.5-2.8c-0.2-0.5-0.5-0.8-0.8-1c-0.3-0.2-0.8-0.3-1.3-0.3c-0.8,0-1.4,0.5-1.9,1.6
		c-0.3,0.8-0.5,1.7-0.5,2.8l0,0.6c0.1,1.6,0.2,2.8,0.4,3.6c0.1,0.5,0.4,0.9,0.8,1.1C89.5,25.6,90,25.7,90.6,25.7 M86.5,20.9
		c-0.1-1.2-0.1-2.7-0.1-4.3l0-0.8l0-1.6l0-2.1c0-0.5-0.2-0.7-0.5-0.7c-0.3,0-0.5,0-0.7,0.1c-0.2,0.1-0.3,0.2-0.3,0.4
		c0,1.2,0,2.9,0.1,4.9l0,1.8l0,1.4c-0.3-1.3-0.6-2.6-0.9-3.9L83.8,15c-0.1-0.2-0.2-0.7-0.3-1.3c-0.1-0.6-0.2-1-0.3-1.2
		c-0.1-0.4-0.3-0.6-0.6-0.6c-0.1,0-0.2,0.1-0.4,0.1c-0.2,0-0.3,0.1-0.3,0.1c-0.1,0-0.3,0-0.5,0.1c0,0.6,0,1.4,0.1,2.5
		c0,0.5,0,0.9,0,1l0,1.7l0,4.9V23c0,0.4,0,1,0,1.8v0.3c0,0.1,0,0.2,0,0.3c0,0.1,0.1,0.1,0.2,0.1l0.6,0c0.6,0,0.9-0.1,0.9-0.4l0-0.8
		l-0.1-2.6l0-1c0-0.6,0-1.1,0-1.5c0-0.6,0-1,0-1.3l0.3,0.9c0.1,0.6,0.4,1.4,0.6,2.6c0.3,1.1,0.5,1.8,0.6,2.1
		c0.1,0.3,0.2,0.7,0.3,1.1c0,0.1,0,0.1,0,0.2c0,0.1,0,0.2,0.1,0.2c0.1,0.3,0.1,0.5,0.2,0.5c0,0.1,0.1,0.1,0.2,0.1
		c0.3,0,0.6-0.1,0.8-0.2c0.2-0.1,0.3-0.4,0.3-0.7c0-0.1,0-0.3,0-0.7c0-0.4,0-0.9,0-1.4C86.5,22.2,86.5,21.6,86.5,20.9 M75.8,25.6
		c0.3,0,0.6-0.1,0.8-0.4c0.2-0.2,0.3-0.5,0.3-0.9c0-0.2,0-0.3-0.1-0.4c-0.1-0.1-0.1-0.2-0.2-0.3c-0.1,0-0.1-0.1-0.3-0.2
		c-0.1-0.1-0.3-0.1-0.5-0.1c-0.3,0-0.5,0.1-0.7,0.3c-0.2,0.2-0.3,0.4-0.3,0.7c0,0.4,0,0.7,0.2,0.9C75.1,25.5,75.4,25.6,75.8,25.6
		 M75.3,22l0.5,0c0.4,0,0.7-0.1,0.7-0.3c0-0.1,0-0.4,0-0.8c0-0.5,0-0.9,0-1.3c0-0.3,0-1.3,0.1-3.1l0-2.2c0-1.1,0-1.7,0-1.9
		c0-0.4-0.3-0.6-1-0.6c-0.2,0-0.4,0-0.5,0.1c-0.1,0-0.2,0.1-0.3,0.1v0.6c0,0.3,0,1.5,0.1,3.7l0,1.1c0,1.4,0,2.3,0.1,2.8
		c0,0.1,0,0.4,0,0.8v0.6v0.3c0,0.1,0,0.2,0,0.3C75.1,22,75.2,22,75.3,22 M73.3,18.2c0-0.4,0-0.8-0.1-1c0-0.2-0.1-0.5-0.3-0.8
		c-0.1-0.2-0.3-0.4-0.5-0.5c-0.3-0.1-0.5-0.2-0.9-0.2c-0.6,0-1.1,0.4-1.6,1.2c-0.1-0.3-0.2-0.6-0.4-0.8c-0.6,0-1,0-1.3,0.1
		c0,0.7,0,1.4,0,2.2c0,0.2,0,0.5,0,0.8l0,1.4c0,1.7,0,2.7,0,2.8c0,0.4,0,0.9,0,1.6c0,0.1,0,0.2,0,0.3c0,0.1,0,0.2,0,0.3
		c0,0.1,0.1,0.1,0.2,0.1s0.2,0,0.3,0c0.1,0,0.2,0,0.4,0c0.3,0,0.5-0.1,0.6-0.2c0.2-0.1,0.2-0.3,0.2-0.6l0-1.5c0-0.5,0-0.9,0-1.1
		l0-1.5c0-0.8,0-1.6,0.1-2.5c0.2-0.5,0.5-0.8,0.8-0.8c0.4,0,0.7,0.5,0.7,1.5c0,0.4,0,0.7-0.1,1l0,0.4c0,3,0,4.8,0.1,5.2l0.5,0.1
		c0.4,0,0.8-0.1,0.9-0.2c0.2-0.1,0.3-0.3,0.3-0.7v-0.9c0-1.1,0-2,0-2.7c0-0.3,0-0.8,0-1.6C73.3,18.9,73.3,18.4,73.3,18.2 M64.6,14.7
		c0.1,0,0.3-0.2,0.5-0.6c0,0,0.2-0.3,0.5-0.8c0.3-0.5,0.6-1,0.8-1.6c-0.2-0.2-0.4-0.3-0.6-0.4c-0.2-0.1-0.4-0.1-0.6-0.1
		c-0.2,0-0.3,0-0.3,0.1c-0.1,0.1-0.2,0.3-0.3,0.5c-0.1,0.3-0.2,0.5-0.3,0.7L64,13.5l-0.2,0.6l0,0.2c0,0.1,0.1,0.3,0.3,0.3
		C64.2,14.7,64.4,14.7,64.6,14.7 M65.1,22.5c0,0.6,0,1-0.2,1.3c-0.1,0.3-0.3,0.4-0.6,0.4c-0.3,0-0.5-0.2-0.6-0.6
		c-0.1-0.4-0.2-1.1-0.2-2l0-1.5c0-0.2,0-0.4,0-0.4c0.1-0.9,0.2-1.5,0.3-1.8s0.3-0.5,0.5-0.5c0.3,0,0.4,0.1,0.6,0.4
		c0.1,0.3,0.2,0.8,0.2,1.4c0,0.5,0,0.9,0,1.2C65.1,21.5,65.1,22.2,65.1,22.5 M64.6,25.7c0.5,0,0.9-0.2,1.2-0.5
		c0.4-0.4,0.6-0.9,0.8-1.5c0.1-0.2,0.1-0.7,0.2-1.3c0.1-0.6,0.1-1.1,0.1-1.5l0-1c0-1-0.2-1.9-0.5-2.8c-0.2-0.5-0.5-0.8-0.8-1
		c-0.3-0.2-0.8-0.3-1.3-0.3c-0.8,0-1.4,0.5-1.9,1.6c-0.3,0.8-0.5,1.7-0.5,2.8l0,0.6c0.1,1.6,0.2,2.8,0.4,3.6
		c0.1,0.5,0.4,0.9,0.8,1.1C63.5,25.6,64,25.7,64.6,25.7 M58.8,25.5c0.1,0,0.2,0,0.4,0c0.1,0,0.3,0,0.4,0c0.5,0,0.8-0.2,0.8-0.5v-1.7
		v-1.1v-1c0-1.3,0-2.7,0-4c0-0.4,0-0.6-0.1-0.8c-0.1-0.2-0.3-0.2-0.7-0.2c-0.3,0-0.6,0.1-1,0.2l0,0.7c0,0.4,0,0.8,0,1.3l0,0.7l0,1.2
		c-0.1,1.4-0.1,2.4,0,3c0,0.2,0,0.5,0,0.9v0.7c0,0.1,0,0.1,0,0.3c0,0.1,0,0.2,0,0.3C58.7,25.5,58.7,25.5,58.8,25.5 M59.6,14.7
		c0.3,0,0.6-0.1,0.7-0.3c0.2-0.2,0.3-0.5,0.3-0.8c0-0.2,0-0.3-0.1-0.5c-0.1-0.2-0.2-0.3-0.3-0.3c-0.2-0.2-0.5-0.3-0.7-0.3
		c-0.3,0-0.6,0.1-0.8,0.3c-0.2,0.2-0.3,0.4-0.4,0.7c0,0.4,0,0.8,0.2,1C58.8,14.6,59.1,14.7,59.6,14.7 M55.8,19
		c0,0.2,0.2,0.3,0.4,0.3c0.3,0,0.5-0.1,0.8-0.3c0.1-0.2,0.1-0.4,0.1-0.5c0-0.1,0-0.2,0-0.2c-0.2-0.9-0.5-1.6-0.8-1.9
		c-0.4-0.4-0.9-0.5-1.5-0.5c-0.4,0-0.8,0.2-1.2,0.5c-0.4,0.3-0.7,0.9-1,1.9c-0.2,0.5-0.2,1.2-0.2,2.1c0,0.8,0,1.6,0.1,2.3
		c0.1,0.7,0.2,1.2,0.2,1.6c0.2,0.6,0.4,1,0.8,1.2c0.4,0.2,0.9,0.3,1.5,0.3c0.5,0,0.9-0.2,1.2-0.5c0.3-0.3,0.6-0.9,0.9-1.7
		c0.1-0.2,0.1-0.4,0.1-0.5c0-0.1,0-0.2-0.1-0.3c-0.1-0.1-0.2-0.2-0.4-0.3c-0.1-0.1-0.2-0.1-0.4-0.1s-0.2,0.1-0.3,0.2
		c-0.1,0.4-0.2,0.8-0.3,1c-0.1,0.2-0.2,0.4-0.3,0.5c-0.1,0.1-0.3,0.2-0.5,0.2c-0.3,0-0.5-0.2-0.6-0.7c-0.1-0.5-0.2-1.1-0.2-1.9v-1.7
		c0-0.8,0.1-1.4,0.2-1.8c0.1-0.4,0.3-0.6,0.6-0.6c0.3,0,0.5,0.1,0.7,0.4C55.7,18,55.8,18.4,55.8,19 M51,18.2c0-0.4,0-0.8-0.1-1
		c0-0.2-0.1-0.5-0.3-0.8c-0.1-0.2-0.3-0.4-0.5-0.5c-0.3-0.1-0.5-0.2-0.9-0.2c-0.6,0-1.1,0.4-1.6,1.2c-0.1-0.3-0.2-0.6-0.4-0.8
		c-0.6,0-1,0-1.3,0.1c0,0.7,0,1.4,0,2.2c0,0.2,0,0.5,0,0.8l0,1.4c0,1.7,0,2.7,0,2.8c0,0.4,0,0.9,0,1.6c0,0.1,0,0.2,0,0.3
		c0,0.1,0,0.2,0,0.3c0,0.1,0.1,0.1,0.2,0.1s0.2,0,0.3,0c0.1,0,0.2,0,0.4,0c0.3,0,0.5-0.1,0.6-0.2s0.2-0.3,0.2-0.6l0-1.5
		c0-0.5,0-0.9,0-1.1l0-1.5c0-0.8,0-1.6,0.1-2.5c0.2-0.5,0.5-0.8,0.8-0.8c0.4,0,0.7,0.5,0.7,1.5c0,0.4,0,0.7-0.1,1l0,0.4
		c0,3,0,4.8,0.1,5.2l0.5,0.1c0.4,0,0.8-0.1,0.9-0.2c0.2-0.1,0.3-0.3,0.3-0.7v-0.9c0-1.1,0-2,0-2.7c0-0.3,0-0.8,0-1.6
		C51,18.9,51,18.4,51,18.2 M42.3,17c0.2,0,0.4,0.2,0.5,0.5c0.1,0.4,0.2,0.8,0.2,1.4c0,0.1,0,0.2,0,0.4c0,0.4-0.1,0.6-0.2,0.6
		c-0.1,0-0.2,0-0.4,0c-0.1,0-0.3,0-0.4,0c-0.2,0-0.4,0-0.7,0v-0.1c0-1,0.1-1.7,0.2-2.1C41.9,17.3,42.1,17,42.3,17 M44,22.5
		c-0.1-0.1-0.2-0.2-0.3-0.2c-0.1,0-0.2,0.1-0.3,0.2c-0.1,0.1-0.2,0.3-0.3,0.6c-0.2,0.4-0.3,0.6-0.4,0.8c-0.1,0.2-0.3,0.3-0.5,0.3
		c-0.2,0-0.4-0.2-0.5-0.5c-0.1-0.4-0.2-0.9-0.2-1.7v-0.4c0.2,0,0.4,0,0.7,0c0.6,0,1.2-0.1,1.7-0.2l0.6-0.1c0.1-0.2,0.2-0.6,0.2-1.2
		c0-0.4-0.1-1-0.2-1.5c-0.2-1-0.5-1.7-0.9-2.1c-0.4-0.4-0.9-0.6-1.5-0.6c-0.4,0-0.8,0.2-1.2,0.7c-0.4,0.5-0.7,0.9-0.8,1.4
		c-0.3,0.9-0.4,1.7-0.4,2.5c0,1.5,0.1,2.7,0.4,3.7c0.2,0.6,0.4,1.1,0.8,1.3c0.4,0.3,0.9,0.4,1.5,0.4c0.4,0,0.8-0.2,1.2-0.5
		c0.3-0.4,0.7-0.9,0.9-1.6c0-0.1,0.1-0.2,0.1-0.3c0-0.1,0-0.2-0.1-0.3c-0.1-0.1-0.1-0.2-0.3-0.3C44.1,22.6,44,22.5,44,22.5
		 M38.8,24.2c-0.1-0.1-0.1-0.1-0.2-0.2c-0.1-0.1-0.1-0.1-0.2-0.1c0,0-0.1,0-0.1,0c0,0-0.1,0.1-0.2,0.1c-0.1,0.1-0.1,0.1-0.2,0.1
		c-0.1,0-0.1,0-0.1,0c-0.1,0-0.2-0.1-0.3-0.3c-0.1-0.2-0.1-0.4-0.1-0.7l0-1.8c0-0.6,0-1,0-1.4c0-0.4,0-1.2,0-2.4c0.3,0,0.8,0,1.5,0
		l0.1-0.4c0-0.3,0-0.5,0-0.7c0-0.2,0-0.4-0.1-0.4c0,0-0.5-0.1-1.5-0.1v-0.3c0-0.3,0-0.5,0-0.7l0-1.4c0-0.4,0-0.7,0-1
		c-0.3-0.1-0.5-0.1-0.6-0.1c-0.4,0-0.8,0.1-1.1,0.4c-0.1,0.1-0.2,0.4-0.2,0.9l0,0.8l0,1.3c-0.5,0-0.8,0-1.1,0l-0.1,0.8
		c0,0.1,0,0.1,0,0.2c0,0.2,0,0.3,0.1,0.4c0,0.1,0.2,0.1,0.5,0.1c0.2,0,0.4,0,0.5,0c0,0.4,0,0.7,0,0.9c0,0.2,0,0.4,0,0.4
		c0,0.7,0,1.1,0,1.5c0,0.4,0,0.7,0,0.8c0,0.2,0,0.3,0,0.3l0.1,1.6c0,0.7,0,1.2,0.2,1.7c0.2,0.4,0.3,0.7,0.6,0.9
		c0.2,0.2,0.5,0.3,0.7,0.3c0.4,0,0.8-0.1,1-0.2s0.5-0.3,0.7-0.5c0.1-0.1,0.1-0.2,0.1-0.4C38.9,24.7,38.9,24.5,38.8,24.2 M30.9,21.5
		c-0.2,0-0.4,0-0.8,0l0.1-1.1l0.1-1.2c0.2-1.5,0.4-3,0.6-4.4l0.3,2.1c0.1,0.7,0.1,1.1,0.2,1.3c0,0.1,0,0.3,0.1,0.8
		c0,0.4,0.1,0.9,0.2,1.3l0.2,0.9C31.5,21.4,31.2,21.5,30.9,21.5 M33.8,25c-0.1-0.5-0.2-1.1-0.3-1.9c-0.1-0.7-0.2-1.3-0.3-1.7
		l-0.1-0.7l-0.5-3.4c-0.1-0.6-0.3-1.8-0.5-3.6l-0.2-1c-0.1-0.3-0.2-0.5-0.3-0.6c-0.1-0.1-0.3-0.2-0.6-0.2h-0.5
		c-0.2,0-0.3,0.1-0.4,0.2c-0.1,0.1-0.2,0.3-0.2,0.5L29.9,13c-0.1,0.5-0.2,0.9-0.2,1.1c-0.1,0.3-0.3,1.3-0.5,2.9
		c0,0.2-0.1,0.5-0.1,0.8S29,18.4,29,18.5l-0.1,0.8c-0.4,2.5-0.8,4.4-1.1,5.5c-0.1,0.2-0.1,0.3-0.1,0.5s0,0.2,0.1,0.3
		c0.1,0,0.1,0.1,0.3,0.1c0.2,0,0.5,0.1,0.7,0.1c0.2,0,0.3,0,0.4,0c0.1,0,0.1-0.1,0.2-0.2c0.1-0.1,0.1-0.4,0.2-0.7
		c0.1-0.3,0.2-0.8,0.3-1.7c0.5-0.1,0.9-0.1,1.3-0.2l0.9,0v0l0.1,0.7c0.1,0.8,0.2,1.4,0.3,1.9c0.1,0.3,0.3,0.4,0.5,0.4
		c0.1,0,0.3,0,0.6-0.1c0.2,0,0.3-0.2,0.3-0.5C33.9,25.1,33.9,25,33.8,25 M24.8,19c-0.1,0-0.1,0-0.2,0.1c0,0.1,0,0.2,0,0.3v0.3v0.7
		c0,0.4,0,0.6,0,0.8c0,0.5-0.1,1.4-0.1,2.8l0,1.1c0,2.1-0.1,3.4-0.1,3.6v0.6c0.1,0,0.2,0,0.3,0.1c0.1,0,0.3,0.1,0.5,0.1
		c0.7,0,1-0.2,1-0.6c0-0.2,0-0.8,0-1.9l0-2.2c-0.1-1.8-0.1-2.8-0.1-3.1c0-0.4,0-0.9,0-1.3c0-0.5,0-0.8,0-0.9c0-0.2-0.2-0.3-0.6-0.3
		L24.8,19z M25.4,15.4c-0.4,0-0.7,0.1-0.9,0.3c-0.2,0.2-0.2,0.5-0.2,0.9c0,0.2,0.1,0.5,0.3,0.7c0.2,0.2,0.4,0.3,0.7,0.3
		c0.2,0,0.3,0,0.4-0.1c0.1-0.1,0.2-0.1,0.3-0.2c0.1-0.1,0.2-0.2,0.2-0.3c0.1-0.1,0.1-0.3,0.1-0.4c0-0.3-0.1-0.6-0.3-0.9
		C25.9,15.5,25.7,15.4,25.4,15.4"/>
</g>
<g>
	<defs>
		<polygon id="SVGID_3_" points="57.3,65.7 24.5,65.7 24.5,250.4 103.2,250.4 103.2,106.1 86.3,90.1 69.6,78.4 72.1,65.7 		"/>
	</defs>
	<clipPath id="SVGID_4_">
		<use xlink:href="#SVGID_3_"  style="overflow:visible;"/>
	</clipPath>
	<g class="st3">
		<defs>
			<rect id="SVGID_5_" x="24.5" y="64.5" width="79.8" height="185.9"/>
		</defs>
		<clipPath id="SVGID_6_">
			<use xlink:href="#SVGID_5_"  style="overflow:visible;"/>
		</clipPath>
		<g style="clip-path:url(#SVGID_6_);">
			
				<image style="overflow:visible;" width="261" height="608" xlink:href="4665AC4C0F94B64E.png"  transform="matrix(0.3058 0 0 0.3058 24.5218 64.5181)">
			</image>
		</g>
	</g>
</g>
</svg>
