<?xml version="1.0" encoding="utf-8"?>
<!-- Generator: Adobe Illustrator 23.0.3, SVG Export Plug-In . SVG Version: 6.00 Build 0)  -->
<svg version="1.1" id="Capa_1" xmlns="http://www.w3.org/2000/svg" xmlns:xlink="http://www.w3.org/1999/xlink" x="0px" y="0px"
	 viewBox="0 0 120.7 98.5" style="enable-background:new 0 0 120.7 98.5;" xml:space="preserve">
<style type="text/css">
	.st0{clip-path:url(#SVGID_2_);fill:#FFFFFF;}
	.st1{clip-path:url(#SVGID_4_);fill:#1D1D1B;}
	.st2{clip-path:url(#SVGID_6_);fill:#1D1D1B;}
</style>
<g>
	<g>
		<g>
			<defs>
				<rect id="SVGID_1_" width="120.7" height="97.1"/>
			</defs>
			<clipPath id="SVGID_2_">
				<use xlink:href="#SVGID_1_"  style="overflow:visible;"/>
			</clipPath>
			<path class="st0" d="M68.2,0.8c0,0,34.5-2.3,42.8,0.4s6.5,27.7,6.5,49.3s3.2,39.3,3.2,39.3s-19.3,4.7-45.2,6.3
				c-26,1.6-50.5,0-62.3-4.3C3.4,88.2-4.7,17.6,3.3,8.4C9.6,1.3,68.2,0.8,68.2,0.8"/>
		</g>
	</g>
	<g>
		<g>
			<defs>
				<rect id="SVGID_3_" width="120.7" height="97.1"/>
			</defs>
			<clipPath id="SVGID_4_">
				<use xlink:href="#SVGID_3_"  style="overflow:visible;"/>
			</clipPath>
			<path class="st1" d="M120.3,88c0-0.1,0-0.3,0-0.4c0-0.4-0.1-0.9-0.1-1.3c-0.1-0.9-0.2-1.9-0.3-2.7c-0.2-1.8-0.7-8.2-0.9-10.1
				c-0.1-0.9-1.5-0.8-1.4,0.1c0.1,1.8,0.4,8.2,0.5,10.1l0.2,2.7c0,0.4,0.1,0.9,0.1,1.3c0,0,0,0,0,0.1c-1.3,0-2.6,0.1-3.9,0.1
				c-1.8,0.1-9.2,0.5-10.9,0.7c-1,0.1-1,1.8,0.1,1.6c1.8-0.1,9.2-0.5,10.9-0.5c1.6,0,3.2,0,4.8,0.1c0.1,0,0.2,0,0.3,0
				c0.1,0,0.1,0,0.2,0c0.5,0,1-0.5,0.9-1.1C120.7,88.4,120.6,88.1,120.3,88"/>
		</g>
	</g>
	<g>
		<g>
			<defs>
				<rect id="SVGID_5_" width="120.7" height="97.1"/>
			</defs>
			<clipPath id="SVGID_6_">
				<use xlink:href="#SVGID_5_"  style="overflow:visible;"/>
			</clipPath>
			<path class="st2" d="M3.6,4.7c0,0.1,0,0.3,0,0.4c0,0.4,0,0.9,0.1,1.3c0,0.9,0.1,1.9,0.1,2.7c0.1,1.8,0.2,8.2,0.4,10.1
				c0.1,0.9,1.4,0.9,1.4,0c0-1.8,0-8.2,0-10.1V6.5c0-0.4,0-0.9,0-1.3c0,0,0,0,0-0.1c1.3,0.1,2.6,0,3.9,0c1.8,0,9.2,0,11-0.1
				c1.1,0,1.1-1.6,0-1.6c-1.8,0-9.2,0-11,0C7.9,3.2,6.3,3,4.7,3C4.6,3,4.5,3,4.4,3C4.3,3,4.3,3,4.2,3c-0.5,0-1,0.4-1,0.9
				C3.3,4.3,3.4,4.6,3.6,4.7"/>
		</g>
	</g>
</g>
</svg>
