<svg id="Layer_1" data-name="Layer 1" xmlns="http://www.w3.org/2000/svg" viewBox="0 0 242 158"><title>img_006</title><path d="M99.64,1.41s116.08-3.63,128.26.76,9.46,45.27,9.46,80.36a453.64,453.64,0,0,0,4.64,64.1A368,368,0,0,1,176,157c-37.91,2.6-139.41,0-156.75-7.09C4.9,144.07-7,29.15,4.78,14,14,2.17,99.64,1.41,99.64,1.41" fill="#fff"/><path d="M241.4,143.24l-.06-.57-.21-2.17c-.15-1.49-.29-3-.43-4.47-.28-2.94-1-13.42-1.34-16.36a1,1,0,1,0-2.07.12c.11,2.95.61,13.45.79,16.39l.27,4.35c0,.72.09,1.45.14,2.17v.13c-1.91,0-3.83.13-5.72.24-2.57.15-13.4.87-16,1.17-1.53.19-1.42,2.78.13,2.64,2.56-.25,13.39-.87,16-.91,2.34,0,4.67.11,7,.12a1.48,1.48,0,0,0,.47,0h.26a1.57,1.57,0,0,0,1.38-1.68,1.51,1.51,0,0,0-.6-1.17" fill="#231f20"/><path d="M5.32,7.66c0,.19,0,.38,0,.57,0,.73.07,1.46.1,2.18.07,1.5.15,3,.22,4.49.14,3,.33,13.46.55,16.41a1,1,0,1,0,2.07,0c0-2.95,0-13.46,0-16.41l-.06-4.36,0-2.18V8.23c1.9.13,3.83.1,5.72.09,2.57,0,13.43-.1,16-.26,1.53-.09,1.55-2.69,0-2.63-2.58.1-13.43.1-16,0-2.33-.1-4.64-.37-7-.52a1.42,1.42,0,0,0-.46,0l-.27,0A1.54,1.54,0,0,0,4.78,6.45a1.54,1.54,0,0,0,.54,1.21" fill="#231f20"/></svg>