<?xml version="1.0" encoding="utf-8"?>
<!-- Generator: Adobe Illustrator 14.0.0, SVG Export Plug-In . SVG Version: 6.00 Build 43363)  -->
<!DOCTYPE svg PUBLIC "-//W3C//DTD SVG 1.1//EN" "http://www.w3.org/Graphics/SVG/1.1/DTD/svg11.dtd">
<svg version="1.1" id="Layer_1" xmlns="http://www.w3.org/2000/svg" xmlns:xlink="http://www.w3.org/1999/xlink" x="0px" y="0px"
	 width="53.381px" height="9.222px" viewBox="0 0 53.381 9.222" enable-background="new 0 0 53.381 9.222" xml:space="preserve">
<g>
	<g>
		<path fill="#515254" d="M4.609,9.222c2.548,0,4.611-2.063,4.611-4.611C9.221,2.064,7.157,0,4.609,0C2.063,0,0,2.064,0,4.61
			C0,7.158,2.063,9.222,4.609,9.222"/>
	</g>
	<g>
		<path fill="#515254" d="M48.77,9.222c2.548,0,4.611-2.063,4.611-4.611c0-2.546-2.063-4.61-4.611-4.61
			c-2.546,0-4.609,2.064-4.609,4.61C44.16,7.158,46.224,9.222,48.77,9.222"/>
	</g>
	<g>
		<path fill="#FFCA05" d="M47.81,6.11H6.529c-0.829,0-1.5-0.671-1.5-1.5s0.671-1.5,1.5-1.5h41.28c0.828,0,1.5,0.671,1.5,1.5
			S48.638,6.11,47.81,6.11L47.81,6.11z"/>
	</g>
</g>
</svg>
