<?xml version="1.0" encoding="utf-8"?>
<!-- Generator: Adobe Illustrator 26.0.3, SVG Export Plug-In . SVG Version: 6.00 Build 0)  -->
<svg version="1.1" id="Layer_1" xmlns="http://www.w3.org/2000/svg" xmlns:xlink="http://www.w3.org/1999/xlink" x="0px" y="0px"
	 viewBox="0 0 53.8 263.8" style="enable-background:new 0 0 53.8 263.8;" xml:space="preserve">
<style type="text/css">
	.st0{fill:#504F4F;}
	.st1{fill:#FFCC00;}
</style>
<g>
	<g>
		<path class="st0" d="M4.6,136.5c2.6,0,4.6-2.1,4.6-4.6c0-2.6-2.1-4.6-4.6-4.6c-2.6,0-4.6,2.1-4.6,4.6C0,134.5,2.1,136.5,4.6,136.5
			"/>
	</g>
	<g>
		<path class="st0" d="M49.1,136.5c2.6,0,4.6-2.1,4.6-4.6c0-2.6-2.1-4.6-4.6-4.6c-2.6,0-4.6,2.1-4.6,4.6
			C44.5,134.5,46.6,136.5,49.1,136.5"/>
	</g>
	<g>
		<path class="st1" d="M48.2,133.4H6.6c-0.8,0-1.5-0.7-1.5-1.5s0.7-1.5,1.5-1.5h41.6c0.8,0,1.5,0.7,1.5,1.5S49,133.4,48.2,133.4
			L48.2,133.4z"/>
	</g>
</g>
<g>
	<g>
		<path class="st0" d="M4.6,9.3c2.6,0,4.6-2.1,4.6-4.6C9.3,2.1,7.2,0,4.6,0C2.1,0,0,2.1,0,4.6C0,7.2,2.1,9.3,4.6,9.3"/>
	</g>
	<g>
		<path class="st0" d="M49.1,9.3c2.6,0,4.6-2.1,4.6-4.6c0-2.6-2.1-4.6-4.6-4.6c-2.6,0-4.6,2.1-4.6,4.6C44.5,7.2,46.6,9.3,49.1,9.3"
			/>
	</g>
	<g>
		<path class="st1" d="M48.2,6.1H6.6c-0.8,0-1.5-0.7-1.5-1.5c0-0.8,0.7-1.5,1.5-1.5h41.6c0.8,0,1.5,0.7,1.5,1.5
			C49.7,5.5,49,6.1,48.2,6.1L48.2,6.1z"/>
	</g>
</g>
<g>
	<g>
		<path class="st0" d="M4.6,263.8c2.6,0,4.6-2.1,4.6-4.6c0-2.6-2.1-4.6-4.6-4.6c-2.6,0-4.6,2.1-4.6,4.6C0,261.7,2.1,263.8,4.6,263.8
			"/>
	</g>
	<g>
		<path class="st0" d="M49.1,263.8c2.6,0,4.6-2.1,4.6-4.6c0-2.6-2.1-4.6-4.6-4.6c-2.6,0-4.6,2.1-4.6,4.6
			C44.5,261.7,46.6,263.8,49.1,263.8"/>
	</g>
	<g>
		<path class="st1" d="M48.2,260.6H6.6c-0.8,0-1.5-0.7-1.5-1.5c0-0.8,0.7-1.5,1.5-1.5h41.6c0.8,0,1.5,0.7,1.5,1.5
			C49.7,259.9,49,260.6,48.2,260.6L48.2,260.6z"/>
	</g>
</g>
</svg>
