<?xml version="1.0" encoding="utf-8"?>
<!-- Generator: Adobe Illustrator 23.0.3, SVG Export Plug-In . SVG Version: 6.00 Build 0)  -->
<svg version="1.1" id="Capa_1" xmlns="http://www.w3.org/2000/svg" xmlns:xlink="http://www.w3.org/1999/xlink" x="0px" y="0px"
	 viewBox="0 0 141.8 54" style="enable-background:new 0 0 141.8 54;" xml:space="preserve">
<style type="text/css">
	.st0{clip-path:url(#SVGID_2_);}
	.st1{clip-path:url(#SVGID_4_);}
	.st2{opacity:0.2;clip-path:url(#SVGID_6_);fill:#1D1D1B;enable-background:new    ;}
	.st3{clip-path:url(#SVGID_8_);fill:#DDDB00;}
	.st4{clip-path:url(#SVGID_10_);fill:none;stroke:#1D1D1B;stroke-width:0.952;}
	.st5{clip-path:url(#SVGID_12_);fill:none;stroke:#1D1D1B;stroke-width:0.952;}
</style>
<g>
	<g>
		<defs>
			<rect id="SVGID_1_" x="-1" width="141.8" height="54"/>
		</defs>
		<clipPath id="SVGID_2_">
			<use xlink:href="#SVGID_1_"  style="overflow:visible;"/>
		</clipPath>
		<g class="st0">
			<g>
				<defs>
					<rect id="SVGID_3_" x="-1" width="141.8" height="54"/>
				</defs>
				<clipPath id="SVGID_4_">
					<use xlink:href="#SVGID_3_"  style="overflow:visible;"/>
				</clipPath>
				<g class="st1">
					<g>
						<g>
							<defs>
								<rect id="SVGID_5_" x="2.2" y="3.1" width="140.4" height="52.6"/>
							</defs>
							<clipPath id="SVGID_6_">
								<use xlink:href="#SVGID_5_"  style="overflow:visible;"/>
							</clipPath>
							<rect x="2.2" y="3.1" class="st2" width="140.4" height="52.6"/>
						</g>
					</g>
				</g>
			</g>
			<g>
				<defs>
					<rect id="SVGID_7_" x="-1" width="141.8" height="54"/>
				</defs>
				<clipPath id="SVGID_8_">
					<use xlink:href="#SVGID_7_"  style="overflow:visible;"/>
				</clipPath>
				<path class="st3" d="M3.3,0.6c0,0-3.6,0-3.6,3.6v45.3c0,0,0,3.6,3.6,3.6h132.9c0,0,3.6,0,3.6-3.6V4.2c0,0,0-3.6-3.6-3.6
					C136.2,0.6,3.3,0.6,3.3,0.6z"/>
			</g>
			<g>
				<defs>
					<rect id="SVGID_9_" x="-1" width="141.8" height="54"/>
				</defs>
				<clipPath id="SVGID_10_">
					<use xlink:href="#SVGID_9_"  style="overflow:visible;"/>
				</clipPath>
				<path class="st4" d="M16.8,0.6c0,0-15.8-0.5-16.7,0.6C-1,2.5-0.7,51,0.6,52.7c0.8,1,50.7,0.9,90.5,0.6"/>
			</g>
			<g>
				<defs>
					<rect id="SVGID_11_" x="-1" width="141.8" height="54"/>
				</defs>
				<clipPath id="SVGID_12_">
					<use xlink:href="#SVGID_11_"  style="overflow:visible;"/>
				</clipPath>
				<path class="st5" d="M107.8,53.2c18-0.2,31.1-0.4,31.5-0.6c1.4-0.6,1.4-51.3-0.6-51.7C136.6,0.4,29.3,0.6,29.3,0.6"/>
			</g>
		</g>
	</g>
	<g>
		<defs>
			<rect id="SVGID_13_" x="-1" width="141.8" height="54"/>
		</defs>
		<clipPath id="SVGID_14_">
			<use xlink:href="#SVGID_13_"  style="overflow:visible;"/>
		</clipPath>
	</g>
</g>
</svg>
