<?xml version="1.0" encoding="utf-8"?>
<!-- Generator: Adobe Illustrator 24.3.2, SVG Export Plug-In . SVG Version: 6.00 Build 0)  -->
<svg version="1.1" id="Capa_1" xmlns="http://www.w3.org/2000/svg" xmlns:xlink="http://www.w3.org/1999/xlink" x="0px" y="0px"
	 viewBox="0 0 820 1059.2" style="enable-background:new 0 0 820 1059.2;" xml:space="preserve">
<style type="text/css">
	.st0{fill:#00ABCC;}
	.st1{fill:#C7E8F0;}
</style>
<rect y="-0.4" class="st0" width="820" height="1059.2"/>
<g>
	<g>
		<g>
			<g>
				<path class="st1" d="M105.2,17.6c16.6-2,332.6,0,365.8,0s246.9-12.7,249.4,9.6c5.6,48.5,5.6,784.6,5.6,865.7
					c0,58.3-2.2,131.9-5.6,131.9c-3.3,0-550.9,26-619.7,6.6c-5.6-93.2-3.3-439.3-3.3-619.9C97.5,354.6,96.4,72.5,105.2,17.6"/>
			</g>
		</g>
	</g>
</g>
<polygon class="st0" points="0,1035.6 0,1059.6 820,1059.6 820,1023.4 "/>
<polygon class="st0" points="0,-0.4 0,27.5 820,38.8 820,-0.4 "/>
</svg>
