<?xml version="1.0" encoding="utf-8"?>
<!-- Generator: Adobe Illustrator 21.1.0, SVG Export Plug-In . SVG Version: 6.00 Build 0)  -->
<svg version="1.1" id="Capa_1" xmlns="http://www.w3.org/2000/svg" xmlns:xlink="http://www.w3.org/1999/xlink" x="0px" y="0px"
	 viewBox="0 0 93.086 126.723" style="enable-background:new 0 0 93.086 126.723;" xml:space="preserve">
<style type="text/css">
	.st0{clip-path:url(#SVGID_2_);fill:none;stroke:#F39E93;stroke-width:1.905;stroke-dasharray:6.247,6.247;}
	.st1{clip-path:url(#SVGID_2_);fill:none;stroke:#F39E93;stroke-width:1.905;stroke-dasharray:6.332,6.332;}
	.st2{clip-path:url(#SVGID_2_);fill:none;stroke:#F39E93;stroke-width:1.905;stroke-dasharray:6.144,6.144;}
	.st3{clip-path:url(#SVGID_2_);fill:none;stroke:#F39E93;stroke-width:1.905;stroke-dasharray:5.86,5.86;}
	.st4{clip-path:url(#SVGID_2_);fill:none;stroke:#F39E93;stroke-width:1.905;}
</style>
<g>
	<defs>
		<rect id="SVGID_1_" width="93.086" height="126.723"/>
	</defs>
	<clipPath id="SVGID_2_">
		<use xlink:href="#SVGID_1_"  style="overflow:visible;"/>
	</clipPath>
	<path class="st0" d="M88.997,9.286c-6.774,23.231-22.086,43.442-44.891,53.021"/>
	<path class="st1" d="M28.882,65.467c-13.005-1.786-17.463-17.693-4.357-25.291"/>
	<path class="st2" d="M39.482,36.793c20.181,0.748,50.289,16.726,52.52,39.547"/>
	<path class="st3" d="M90.253,91.094c-10.18,37.423-53.529,42.719-84.76,24.666"/>
	<path class="st4" d="M2.986,114.243c-0.825-0.521-1.64-1.06-2.445-1.615 M92.131,79.408c-0.013,1.009-0.082,2.031-0.208,3.064
		c-0.12,0.984-0.26,1.95-0.42,2.899 M27.365,38.781c0.93-0.384,1.926-0.734,2.988-1.042c0.945-0.275,1.948-0.49,3.001-0.647
		 M41.201,63.453c-0.971,0.36-1.955,0.7-2.952,1.022c-1.05,0.338-2.072,0.598-3.065,0.784 M91.187,0.178
		c-0.195,1.023-0.407,2.043-0.634,3.058"/>
</g>
</svg>
