<?xml version="1.0" encoding="utf-8"?>
<!-- Generator: Adobe Illustrator 14.0.0, SVG Export Plug-In . SVG Version: 6.00 Build 43363)  -->
<!DOCTYPE svg PUBLIC "-//W3C//DTD SVG 1.1//EN" "http://www.w3.org/Graphics/SVG/1.1/DTD/svg11.dtd">
<svg version="1.1" id="Layer_1" xmlns="http://www.w3.org/2000/svg" xmlns:xlink="http://www.w3.org/1999/xlink" x="0px" y="0px"
	 width="31.774px" height="18.268px" viewBox="0 0 31.774 18.268" enable-background="new 0 0 31.774 18.268" xml:space="preserve">
<g>
	<path fill="#FFFFFF" d="M4.923,1.65c0,0-3.629,0-3.629,3.628v8.985c0,0,0,3.629,3.629,3.629h22.848c0,0,3.629,0,3.629-3.629V5.279
		c0,0,0-3.628-3.629-3.628H4.923z"/>
</g>
<g>
	<path fill="#F6921E" d="M27.771,18.268H4.923c-3.958,0-4.004-3.963-4.004-4.004V5.279c0-3.958,3.964-4.003,4.004-4.003h22.848
		c3.958,0,4.004,3.963,4.004,4.003v8.985C31.774,18.221,27.811,18.268,27.771,18.268L27.771,18.268z M4.923,2.025
		c-0.132,0-3.254,0.051-3.254,3.253v8.985c0,0.133,0.051,3.254,3.254,3.254H27.77c0.133-0.002,3.255-0.053,3.255-3.254V5.279
		c-0.001-0.132-0.052-3.253-3.254-3.253H4.923L4.923,2.025z"/>
</g>
<g>
	<path fill="#F6921E" d="M14.455,18.262c-0.047,0-0.095-0.01-0.141-0.027c-0.192-0.078-0.284-0.297-0.207-0.488l3.234-7.975
		l-3.234-7.976c-0.078-0.192,0.015-0.411,0.207-0.489c0.192-0.078,0.411,0.015,0.489,0.207l3.348,8.258l-3.348,8.256
		C14.743,18.174,14.603,18.262,14.455,18.262L14.455,18.262z"/>
</g>
<g>
	<path fill="#F6921E" d="M7.941,5.518h1.997v8.872H7.941V5.518z"/>
</g>
<g>
	<path fill="#F6921E" d="M24.287,7.054c-0.93,0-1.603,0.258-2.016,0.774c-0.414,0.517-0.621,1.223-0.621,2.119
		c0,0.435,0.051,0.829,0.153,1.185c0.103,0.354,0.256,0.658,0.461,0.914s0.461,0.455,0.769,0.596
		c0.307,0.141,0.665,0.211,1.075,0.211c0.222,0,0.411-0.004,0.569-0.012c0.157-0.01,0.296-0.025,0.416-0.053V9.704h1.997v4.391
		c-0.239,0.094-0.623,0.193-1.152,0.301c-0.529,0.105-1.182,0.16-1.959,0.16c-0.665,0-1.269-0.104-1.811-0.307
		c-0.542-0.205-1.005-0.504-1.389-0.896c-0.385-0.393-0.681-0.875-0.89-1.447c-0.209-0.57-0.313-1.224-0.313-1.958
		c0-0.743,0.115-1.399,0.346-1.971c0.229-0.572,0.546-1.056,0.946-1.453c0.401-0.396,0.873-0.697,1.415-0.902
		c0.542-0.205,1.12-0.307,1.734-0.307c0.418,0,0.796,0.028,1.133,0.083c0.337,0.056,0.627,0.12,0.87,0.192
		c0.243,0.072,0.443,0.147,0.602,0.224c0.158,0.077,0.271,0.137,0.339,0.179l-0.575,1.6c-0.273-0.145-0.587-0.271-0.941-0.377
		C25.092,7.107,24.705,7.054,24.287,7.054z"/>
</g>
</svg>
