<?xml version="1.0" encoding="utf-8"?>
<!-- Generator: Adobe Illustrator 21.1.0, SVG Export Plug-In . SVG Version: 6.00 Build 0)  -->
<svg version="1.1" id="Capa_1" xmlns="http://www.w3.org/2000/svg" xmlns:xlink="http://www.w3.org/1999/xlink" x="0px" y="0px"
	 viewBox="0 0 64.98 44.062" style="enable-background:new 0 0 64.98 44.062;" xml:space="preserve">
<style type="text/css">
	.st0{clip-path:url(#SVGID_2_);}
	.st1{clip-path:url(#SVGID_4_);fill:#005CA8;}
	.st2{filter:url(#Adobe_OpacityMaskFilter);}
	.st3{clip-path:url(#SVGID_4_);}
	.st4{clip-path:url(#SVGID_4_);mask:url(#SVGID_5_);}
	.st5{opacity:0.2;clip-path:url(#SVGID_9_);fill:#1D1D1B;}
	.st6{clip-path:url(#SVGID_2_);fill:#FFFFFF;}
	.st7{clip-path:url(#SVGID_11_);fill:none;stroke:#005CA8;stroke-width:2.151;stroke-linecap:round;}
	.st8{clip-path:url(#SVGID_2_);fill:none;stroke:#005CA8;stroke-width:1.434;stroke-linecap:round;}
	.st9{clip-path:url(#SVGID_13_);fill:#005CA8;}
	.st10{clip-path:url(#SVGID_15_);fill:#FFFFFF;}
</style>
<g>
	<defs>
		<rect id="SVGID_1_" x="-12.92" y="-3.372" width="86" height="52"/>
	</defs>
	<clipPath id="SVGID_2_">
		<use xlink:href="#SVGID_1_"  style="overflow:visible;"/>
	</clipPath>
	<g class="st0">
		<defs>
			<rect id="SVGID_3_" x="-12.92" y="-3.372" width="86" height="52"/>
		</defs>
		<clipPath id="SVGID_4_">
			<use xlink:href="#SVGID_3_"  style="overflow:visible;"/>
		</clipPath>
		<path class="st1" d="M30.883,15.718c0,0-2.184,0-2.184,2.184v17.771c0,0,0,2.184,2.184,2.184h31.913c0,0,2.184,0,2.184-2.184
			V17.902c0,0,0-2.184-2.184-2.184H30.883z"/>
		<defs>
			<filter id="Adobe_OpacityMaskFilter" filterUnits="userSpaceOnUse" x="4.037" y="0" width="31.68" height="40.8">
				<feColorMatrix  type="matrix" values="1 0 0 0 0  0 1 0 0 0  0 0 1 0 0  0 0 0 1 0"/>
			</filter>
		</defs>
		<mask maskUnits="userSpaceOnUse" x="4.037" y="0" width="31.68" height="40.8" id="SVGID_5_">
			<g class="st2">
				<g>
					<defs>
						<rect id="SVGID_6_" x="-4.842" y="-6.96" width="49.92" height="48.96"/>
					</defs>
					<clipPath id="SVGID_7_" class="st3">
						<use xlink:href="#SVGID_6_"  style="overflow:visible;"/>
					</clipPath>
					<g transform="matrix(1 0 0 1 0 0)" style="clip-path:url(#SVGID_7_);">
						
							<image style="overflow:visible;" width="208" height="204" xlink:href="703AA8BB0C48D487.jpg"  transform="matrix(0.24 0 0 0.24 -4.8425 -6.96)">
						</image>
					</g>
				</g>
			</g>
		</mask>
		<g class="st4">
			<g>
				<defs>
					<rect id="SVGID_8_" x="4.038" width="31.68" height="40.8"/>
				</defs>
				<clipPath id="SVGID_9_">
					<use xlink:href="#SVGID_8_"  style="overflow:visible;"/>
				</clipPath>
				<rect x="4.037" y="0" class="st5" width="31.68" height="40.8"/>
			</g>
		</g>
	</g>
	<rect x="1.722" y="2.475" class="st6" width="31.473" height="40.724"/>
	<g class="st0">
		<defs>
			<rect id="SVGID_10_" x="-12.92" y="-3.372" width="86" height="52"/>
		</defs>
		<clipPath id="SVGID_11_">
			<use xlink:href="#SVGID_10_"  style="overflow:visible;"/>
		</clipPath>
		<path class="st7" d="M1.037,2.712v36.633c0,0,0.554,3.761,1.98,3.761h31.277c-1.505,0-1.98-3.761-1.98-3.761V2.712H1.037z"/>
	</g>
	<rect x="5.594" y="14.693" class="st8" width="9.581" height="9.482"/>
	<g class="st0">
		<defs>
			<rect id="SVGID_12_" x="-12.92" y="-3.372" width="86" height="52"/>
		</defs>
		<clipPath id="SVGID_13_">
			<use xlink:href="#SVGID_12_"  style="overflow:visible;"/>
		</clipPath>
		<path class="st9" d="M26.416,8.995l0.569-1.908l0.577,1.908H26.416z M28.137,10.944h1.028L27.551,6.08h-1.085l-1.592,4.864h0.975
			L26.187,9.8h1.607L28.137,10.944z M25.096,6.08h-3.545v0.847h1.295v4.017h0.953V6.927h1.297V6.08z M18.267,9.67l-0.419,0.674
			c0.461,0.399,1.038,0.669,1.712,0.669c0.915,0,1.651-0.491,1.651-1.494c0-1.765-2.293-1.129-2.293-2.101
			c0-0.356,0.306-0.562,0.722-0.562c0.35,0,0.761,0.145,1.095,0.38l0.411-0.655c-0.421-0.352-0.996-0.57-1.569-0.57
			c-0.88,0-1.597,0.509-1.597,1.479c0,1.717,2.272,1.127,2.272,2.101c0,0.367-0.319,0.556-0.745,0.556
			C19.085,10.147,18.649,9.962,18.267,9.67 M16.209,10.944h0.955V6.08h-0.955V10.944z M12.727,6.08h-1.02l1.555,4.864h0.821
			l1.561-4.864h-0.97l-0.977,3.368L12.727,6.08z M8.427,10.944h2.967v-0.843H9.371V8.913h1.715V8.071H9.371V6.923h1.975V6.08H8.427
			V10.944z M5.25,8.336V6.915h0.608c0.475,0,0.781,0.241,0.781,0.713c0,0.454-0.279,0.708-0.781,0.708H5.25z M4.312,10.944H5.25
			V9.173h0.522l0.924,1.771h1.106l-1.083-1.92c0.548-0.239,0.873-0.753,0.873-1.408c0-0.896-0.611-1.536-1.639-1.536H4.312V10.944z"
			/>
	</g>
	<line class="st8" x1="17.986" y1="16.279" x2="27.865" y2="16.279"/>
	<line class="st8" x1="17.986" y1="20.139" x2="27.865" y2="20.139"/>
	<line class="st8" x1="17.986" y1="24.175" x2="27.865" y2="24.175"/>
	<line class="st8" x1="5.187" y1="29.574" x2="28.944" y2="29.574"/>
	<line class="st8" x1="5.187" y1="33.434" x2="28.944" y2="33.434"/>
	<line class="st8" x1="5.187" y1="37.47" x2="28.944" y2="37.47"/>
	<g class="st0">
		<defs>
			<rect id="SVGID_14_" x="-12.92" y="-3.372" width="86" height="52"/>
		</defs>
		<clipPath id="SVGID_15_">
			<use xlink:href="#SVGID_14_"  style="overflow:visible;"/>
		</clipPath>
		<path class="st10" d="M56.272,25.45c-0.231,0.353-0.564,0.664-0.999,0.935c-0.774-0.271-1.321-0.596-1.64-0.975
			c-0.319-0.38-0.479-0.786-0.479-1.219c0-0.163,0.034-0.332,0.102-0.508c0.068-0.176,0.173-0.342,0.316-0.498
			c0.143-0.156,0.323-0.281,0.54-0.376c0.217-0.095,0.475-0.143,0.774-0.143c0.313,0,0.577,0.051,0.795,0.153
			c0.217,0.102,0.397,0.227,0.54,0.376c0.143,0.149,0.244,0.308,0.306,0.478c0.061,0.169,0.091,0.328,0.091,0.477
			C56.618,24.665,56.503,25.098,56.272,25.45 M53.236,29.485c0.258-0.382,0.577-0.715,0.957-1.001
			c0.381,0.123,0.737,0.255,1.07,0.398c0.333,0.143,0.622,0.307,0.866,0.491c0.245,0.184,0.438,0.398,0.581,0.643
			c0.143,0.245,0.214,0.524,0.214,0.838c0,0.422-0.163,0.803-0.489,1.144c-0.326,0.34-0.843,0.51-1.549,0.51
			c-0.367,0-0.679-0.054-0.937-0.163c-0.258-0.109-0.469-0.245-0.632-0.409c-0.163-0.163-0.282-0.343-0.356-0.541
			c-0.075-0.197-0.112-0.378-0.112-0.541C52.849,30.323,52.978,29.866,53.236,29.485 M59.4,28.802
			c-0.333-0.551-0.887-1.078-1.661-1.581c0.516-0.326,0.947-0.77,1.294-1.333c0.346-0.563,0.519-1.17,0.519-1.821
			c0-0.448-0.085-0.899-0.254-1.353c-0.17-0.454-0.445-0.865-0.826-1.231c-0.38-0.366-0.865-0.668-1.456-0.905
			c-0.591-0.238-1.301-0.357-2.13-0.357c-0.706,0-1.348,0.112-1.925,0.336c-0.578,0.224-1.07,0.522-1.478,0.895
			c-0.407,0.374-0.723,0.811-0.947,1.313c-0.224,0.502-0.336,1.024-0.336,1.567c0,0.719,0.139,1.309,0.417,1.77
			c0.279,0.461,0.71,0.929,1.294,1.404c-0.272,0.204-0.526,0.422-0.764,0.653c-0.238,0.231-0.452,0.486-0.642,0.765
			c-0.19,0.279-0.339,0.588-0.448,0.928c-0.109,0.34-0.163,0.714-0.163,1.123c0,0.394,0.082,0.826,0.245,1.295
			c0.163,0.469,0.438,0.901,0.825,1.296s0.896,0.725,1.528,0.99c0.632,0.265,1.423,0.397,2.374,0.397
			c0.828,0,1.559-0.105,2.19-0.316c0.632-0.21,1.158-0.507,1.58-0.887c0.42-0.381,0.736-0.827,0.947-1.337
			c0.21-0.51,0.316-1.071,0.316-1.683C59.899,29.996,59.732,29.353,59.4,28.802 M44.698,25.45c-0.231,0.353-0.564,0.664-0.998,0.935
			c-0.775-0.271-1.321-0.596-1.641-0.975c-0.319-0.38-0.478-0.786-0.478-1.219c0-0.163,0.033-0.332,0.102-0.508
			c0.067-0.176,0.173-0.342,0.315-0.498c0.143-0.156,0.323-0.281,0.54-0.376c0.217-0.095,0.476-0.143,0.775-0.143
			c0.312,0,0.577,0.051,0.794,0.153c0.217,0.102,0.398,0.227,0.54,0.376c0.143,0.149,0.245,0.308,0.306,0.478
			c0.061,0.169,0.092,0.328,0.092,0.477C45.045,24.665,44.929,25.098,44.698,25.45 M41.662,29.485
			c0.258-0.382,0.577-0.715,0.958-1.001c0.38,0.123,0.737,0.255,1.07,0.398c0.332,0.143,0.621,0.307,0.866,0.491
			c0.244,0.184,0.438,0.398,0.58,0.643c0.143,0.245,0.214,0.524,0.214,0.838c0,0.422-0.163,0.803-0.489,1.144
			c-0.326,0.34-0.842,0.51-1.548,0.51c-0.367,0-0.68-0.054-0.938-0.163c-0.258-0.109-0.468-0.245-0.631-0.409
			c-0.163-0.163-0.282-0.343-0.357-0.541c-0.075-0.197-0.112-0.378-0.112-0.541C41.275,30.323,41.404,29.866,41.662,29.485
			 M47.826,28.802c-0.333-0.551-0.886-1.078-1.661-1.581c0.516-0.326,0.948-0.77,1.294-1.333c0.347-0.563,0.52-1.17,0.52-1.821
			c0-0.448-0.085-0.899-0.255-1.353c-0.17-0.454-0.445-0.865-0.825-1.231c-0.381-0.366-0.866-0.668-1.457-0.905
			c-0.591-0.238-1.301-0.357-2.129-0.357c-0.707,0-1.349,0.112-1.926,0.336c-0.577,0.224-1.07,0.522-1.477,0.895
			c-0.408,0.374-0.724,0.811-0.948,1.313c-0.224,0.502-0.336,1.024-0.336,1.567c0,0.719,0.139,1.309,0.418,1.77
			c0.278,0.461,0.709,0.929,1.294,1.404c-0.272,0.204-0.527,0.422-0.764,0.653c-0.238,0.231-0.452,0.486-0.642,0.765
			c-0.191,0.279-0.34,0.588-0.449,0.928c-0.108,0.34-0.163,0.714-0.163,1.123c0,0.394,0.082,0.826,0.245,1.295
			c0.163,0.469,0.438,0.901,0.825,1.296s0.897,0.725,1.528,0.99c0.632,0.265,1.423,0.397,2.374,0.397
			c0.829,0,1.559-0.105,2.191-0.316c0.631-0.21,1.158-0.507,1.579-0.887c0.421-0.381,0.737-0.827,0.947-1.337
			c0.211-0.51,0.316-1.071,0.316-1.683C48.325,29.996,48.159,29.353,47.826,28.802"/>
	</g>
</g>
</svg>
