<?xml version="1.0" encoding="utf-8"?>
<!-- Generator: Adobe Illustrator 21.1.0, SVG Export Plug-In . SVG Version: 6.00 Build 0)  -->
<svg version="1.1" id="Capa_1" xmlns="http://www.w3.org/2000/svg" xmlns:xlink="http://www.w3.org/1999/xlink" x="0px" y="0px"
	 viewBox="0 0 681.5 641.122" style="enable-background:new 0 0 681.5 641.122;" xml:space="preserve">
<style type="text/css">
	.st0{filter:url(#Adobe_OpacityMaskFilter);}
	.st1{clip-path:url(#SVGID_2_);}
	.st2{clip-path:url(#SVGID_2_);mask:url(#SVGID_3_);}
	.st3{clip-path:url(#SVGID_7_);fill:#EDE8D8;}
	.st4{clip-path:url(#SVGID_2_);fill:#F29100;}
	.st5{clip-path:url(#SVGID_2_);fill:#AEC90B;}
	.st6{clip-path:url(#SVGID_2_);fill:#E95153;}
	.st7{clip-path:url(#SVGID_2_);fill:#FFFFFF;}
	.st8{clip-path:url(#SVGID_2_);fill:none;stroke:#FFDF7D;stroke-width:5.094;stroke-linecap:round;}
</style>
<g>
	<defs>
		<rect id="SVGID_1_" width="681.5" height="641.122"/>
	</defs>
	<clipPath id="SVGID_2_">
		<use xlink:href="#SVGID_1_"  style="overflow:visible;"/>
	</clipPath>
	<defs>
		<filter id="Adobe_OpacityMaskFilter" filterUnits="userSpaceOnUse" x="127.72" y="101.896" width="413.606" height="401.788">
			<feColorMatrix  type="matrix" values="1 0 0 0 0  0 1 0 0 0  0 0 1 0 0  0 0 0 1 0"/>
		</filter>
	</defs>
	<mask maskUnits="userSpaceOnUse" x="127.72" y="101.896" width="413.606" height="401.788" id="SVGID_3_">
		<g class="st0">
			<g>
				<defs>
					<rect id="SVGID_4_" x="127.72" y="101.896" width="413.606" height="401.788"/>
				</defs>
				<clipPath id="SVGID_5_" class="st1">
					<use xlink:href="#SVGID_4_"  style="overflow:visible;"/>
				</clipPath>
				<g style="clip-path:url(#SVGID_5_);">
					
						<image style="overflow:visible;" width="700" height="680" xlink:href="C58CDA9B79864CC2.jpg"  transform="matrix(0.5909 0 0 0.5909 127.7202 101.8959)">
					</image>
				</g>
			</g>
		</g>
	</mask>
	<g class="st2">
		<g>
			<defs>
				<rect id="SVGID_6_" x="127.72" y="101.896" width="413.606" height="401.788"/>
			</defs>
			<clipPath id="SVGID_7_">
				<use xlink:href="#SVGID_6_"  style="overflow:visible;"/>
			</clipPath>
			<path class="st3" d="M334.34,501.594c107.994,0,195.541-87.546,195.541-195.541c0-107.994-87.547-195.541-195.541-195.541
				s-195.541,87.547-195.541,195.541C138.799,414.048,226.346,501.594,334.34,501.594"/>
		</g>
	</g>
	<path class="st4" d="M311.683,297.197H31.533c0,0-31.533,0-31.533-30.744V47.825C0,20.496,10.365,0,37.227,0h174.017
		c16.496,0,23.358,15.372,35.037,46.116c11.679,30.746,77.081,207.242,77.081,207.242L311.683,297.197z"/>
	<path class="st5" d="M369.817,298.073h280.15c0,0,31.533,0,31.533-30.745V48.7c0-27.328-10.365-47.824-37.227-47.824H470.256
		c-16.496,0-23.358,15.372-35.037,46.116c-11.679,30.745-77.081,207.242-77.081,207.242L369.817,298.073z"/>
	<path class="st6" d="M380.523,329.439v280.15c0,0,0,31.533-30.745,31.533H131.15c-27.328,0-47.825-10.365-47.825-37.227V429.878
		c0-16.496,15.373-23.358,46.117-35.037c30.745-11.679,207.241-77.081,207.241-77.081L380.523,329.439z"/>
	<path class="st6" d="M298.219,329.439v280.15c0,0,0,31.533,30.745,31.533h218.628c27.328,0,47.824-10.365,47.824-37.227V429.878
		c0-16.496-15.372-23.358-46.117-35.037c-30.744-11.679-207.241-77.081-207.241-77.081L298.219,329.439z"/>
	<path class="st7" d="M341.286,434.385c73.49,0,133.066-59.575,133.066-133.065c0-73.491-59.576-133.066-133.066-133.066
		S208.22,227.829,208.22,301.32C208.22,374.81,267.796,434.385,341.286,434.385"/>
	<circle class="st8" cx="341.286" cy="301.319" r="133.066"/>
</g>
</svg>
