<?xml version="1.0" encoding="utf-8"?>
<!-- Generator: Adobe Illustrator 21.1.0, SVG Export Plug-In . SVG Version: 6.00 Build 0)  -->
<svg version="1.1" id="Capa_1" xmlns="http://www.w3.org/2000/svg" xmlns:xlink="http://www.w3.org/1999/xlink" x="0px" y="0px"
	 viewBox="0 0 86.414 35.625" style="enable-background:new 0 0 86.414 35.625;" xml:space="preserve">
<style type="text/css">
	.st0{clip-path:url(#SVGID_2_);}
	.st1{clip-path:url(#SVGID_4_);fill:#005CA8;}
	.st2{filter:url(#Adobe_OpacityMaskFilter);}
	.st3{clip-path:url(#SVGID_4_);}
	.st4{clip-path:url(#SVGID_4_);mask:url(#SVGID_5_);}
	.st5{opacity:0.2;clip-path:url(#SVGID_9_);fill:#1D1D1B;}
	.st6{clip-path:url(#SVGID_2_);fill:#FFFFFF;}
	.st7{clip-path:url(#SVGID_11_);fill:none;stroke:#005CA8;stroke-width:1.777;stroke-linecap:round;}
	.st8{clip-path:url(#SVGID_2_);fill:none;stroke:#005CA8;stroke-width:1.185;stroke-linecap:round;}
	.st9{clip-path:url(#SVGID_13_);fill:#005CA8;}
	.st10{clip-path:url(#SVGID_15_);fill:#FFFFFF;}
</style>
<g>
	<defs>
		<rect id="SVGID_1_" x="-7.875" y="-7.954" width="98" height="52.079"/>
	</defs>
	<clipPath id="SVGID_2_">
		<use xlink:href="#SVGID_1_"  style="overflow:visible;"/>
	</clipPath>
	<g class="st0">
		<defs>
			<rect id="SVGID_3_" x="-7.875" y="-7.954" width="98" height="52.079"/>
		</defs>
		<clipPath id="SVGID_4_">
			<use xlink:href="#SVGID_3_"  style="overflow:visible;"/>
		</clipPath>
		<path class="st1" d="M25.31,12.502c0,0-1.805,0-1.805,1.805v14.401c0,0,0,1.805,1.805,1.805h59.299c0,0,1.805,0,1.805-1.805
			V14.307c0,0,0-1.805-1.805-1.805H25.31z"/>
		<defs>
			<filter id="Adobe_OpacityMaskFilter" filterUnits="userSpaceOnUse" x="3.072" y="0.053" width="25.92" height="33.36">
				<feColorMatrix  type="matrix" values="1 0 0 0 0  0 1 0 0 0  0 0 1 0 0  0 0 0 1 0"/>
			</filter>
		</defs>
		<mask maskUnits="userSpaceOnUse" x="3.072" y="0.053" width="25.92" height="33.36" id="SVGID_5_">
			<g class="st2">
				<g>
					<defs>
						<rect id="SVGID_6_" x="-5.808" y="-6.907" width="44.16" height="41.28"/>
					</defs>
					<clipPath id="SVGID_7_" class="st3">
						<use xlink:href="#SVGID_6_"  style="overflow:visible;"/>
					</clipPath>
					<g transform="matrix(1 0 0 1 0 0)" style="clip-path:url(#SVGID_7_);">
						
							<image style="overflow:visible;" width="184" height="172" xlink:href="7CF40F89DF5BE0B4.jpg"  transform="matrix(0.24 0 0 0.24 -5.8077 -6.9066)">
						</image>
					</g>
				</g>
			</g>
		</mask>
		<g class="st4">
			<g>
				<defs>
					<rect id="SVGID_8_" x="3.072" y="0.054" width="25.92" height="33.36"/>
				</defs>
				<clipPath id="SVGID_9_">
					<use xlink:href="#SVGID_8_"  style="overflow:visible;"/>
				</clipPath>
				<rect x="3.072" y="0.053" class="st5" width="25.92" height="33.36"/>
			</g>
		</g>
	</g>
	<rect x="1.558" y="1.728" class="st6" width="25.605" height="33.132"/>
	<g class="st0">
		<defs>
			<rect id="SVGID_10_" x="-7.875" y="-7.954" width="98" height="52.079"/>
		</defs>
		<clipPath id="SVGID_11_">
			<use xlink:href="#SVGID_10_"  style="overflow:visible;"/>
		</clipPath>
		<path class="st7" d="M1.014,1.935v29.778c0,0,0.45,3.058,1.609,3.058h25.42c-1.223,0-1.609-3.058-1.609-3.058V1.935H1.014z"/>
	</g>
	<rect x="4.716" y="11.677" class="st8" width="7.776" height="7.696"/>
	<g class="st0">
		<defs>
			<rect id="SVGID_12_" x="-7.875" y="-7.954" width="98" height="52.079"/>
		</defs>
		<clipPath id="SVGID_13_">
			<use xlink:href="#SVGID_12_"  style="overflow:visible;"/>
		</clipPath>
		<path class="st9" d="M21.647,7.032l0.462-1.552l0.47,1.552H21.647z M23.047,8.618h0.836L22.57,4.661h-0.882l-1.296,3.957h0.794
			l0.275-0.93h1.307L23.047,8.618z M20.573,4.661h-2.884V5.35h1.054v3.268h0.775V5.35h1.055V4.661z M15.017,7.582L14.676,8.13
			c0.376,0.324,0.845,0.544,1.393,0.544c0.744,0,1.344-0.399,1.344-1.215c0-1.436-1.867-0.919-1.867-1.709
			c0-0.29,0.25-0.458,0.588-0.458c0.285,0,0.62,0.118,0.891,0.309l0.335-0.532c-0.343-0.287-0.811-0.465-1.277-0.465
			c-0.716,0-1.299,0.415-1.299,1.204c0,1.397,1.849,0.917,1.849,1.709c0,0.299-0.26,0.452-0.607,0.452
			C15.683,7.969,15.328,7.819,15.017,7.582 M13.343,8.618h0.777V4.661h-0.777V8.618z M10.51,4.661H9.681l1.265,3.957h0.667
			l1.27-3.957h-0.788l-0.796,2.74L10.51,4.661z M7.012,8.618h2.414V7.932H7.78V6.965h1.395V6.281H7.78V5.347h1.607V4.661H7.012
			V8.618z M4.427,6.496V5.34h0.495c0.386,0,0.635,0.196,0.635,0.581c0,0.368-0.227,0.575-0.635,0.575H4.427z M3.664,8.618h0.763
			V7.177h0.425l0.751,1.441h0.9L5.622,7.056c0.446-0.195,0.71-0.613,0.71-1.146c0-0.729-0.496-1.249-1.333-1.249H3.664V8.618z"/>
	</g>
	<line class="st8" x1="14.798" y1="12.968" x2="22.816" y2="12.968"/>
	<line class="st8" x1="14.798" y1="16.1" x2="22.816" y2="16.1"/>
	<line class="st8" x1="14.798" y1="19.373" x2="22.816" y2="19.373"/>
	<line class="st8" x1="4.385" y1="23.784" x2="23.695" y2="23.784"/>
	<line class="st8" x1="4.385" y1="26.916" x2="23.695" y2="26.916"/>
	<line class="st8" x1="4.385" y1="30.19" x2="23.695" y2="30.19"/>
	<g class="st0">
		<defs>
			<rect id="SVGID_14_" x="-7.875" y="-7.954" width="98" height="52.079"/>
		</defs>
		<clipPath id="SVGID_15_">
			<use xlink:href="#SVGID_14_"  style="overflow:visible;"/>
		</clipPath>
		<path class="st10" d="M74.723,23.888c-0.278,0.328-0.614,0.591-1.01,0.789c-0.396,0.198-0.854,0.339-1.374,0.424
			c-0.52,0.085-1.103,0.133-1.747,0.144c0.022,0.362,0.045,0.713,0.068,1.052c0.022,0.339,0.039,0.69,0.051,1.052
			c1.289-0.012,2.403-0.167,3.341-0.467c0.939-0.299,1.711-0.738,2.316-1.315c0.605-0.576,1.052-1.289,1.34-2.137
			c0.289-0.848,0.433-1.826,0.433-2.935c0-1.685-0.371-2.977-1.111-3.876c-0.741-0.899-1.841-1.349-3.3-1.349
			c-0.712,0-1.32,0.128-1.824,0.382c-0.503,0.254-0.918,0.577-1.246,0.967c-0.329,0.39-0.569,0.823-0.721,1.298
			c-0.153,0.475-0.229,0.939-0.229,1.391c0,0.543,0.079,1.04,0.237,1.493c0.158,0.452,0.404,0.839,0.738,1.162
			c0.334,0.322,0.761,0.571,1.281,0.746c0.52,0.176,1.148,0.263,1.883,0.263c0.203,0,0.449-0.025,0.738-0.076
			c0.288-0.051,0.551-0.133,0.789-0.246C75.217,23.147,74.999,23.56,74.723,23.888 M72.67,20.563c-0.3-0.294-0.45-0.746-0.45-1.357
			c0-0.204,0.031-0.413,0.094-0.628c0.062-0.214,0.155-0.412,0.28-0.593c0.124-0.181,0.288-0.328,0.491-0.441
			c0.204-0.113,0.442-0.17,0.713-0.17c0.339,0,0.625,0.076,0.857,0.229c0.231,0.153,0.415,0.362,0.551,0.628
			c0.136,0.265,0.232,0.576,0.288,0.933c0.057,0.356,0.091,0.738,0.102,1.145c0,0.034-0.003,0.073-0.008,0.118
			c-0.006,0.046-0.009,0.091-0.009,0.136v0.153c-0.136,0.09-0.345,0.161-0.627,0.212c-0.283,0.051-0.555,0.076-0.815,0.076
			C73.459,21.004,72.969,20.857,72.67,20.563 M65.571,19.641c-0.193,0.293-0.47,0.552-0.832,0.778
			c-0.644-0.226-1.1-0.496-1.365-0.812c-0.266-0.316-0.399-0.654-0.399-1.015c0-0.135,0.028-0.276,0.085-0.423
			c0.056-0.147,0.144-0.285,0.263-0.414c0.119-0.13,0.268-0.235,0.449-0.314c0.181-0.079,0.396-0.118,0.645-0.118
			c0.26,0,0.481,0.042,0.662,0.127c0.18,0.085,0.33,0.189,0.449,0.313c0.119,0.124,0.204,0.257,0.255,0.398
			c0.051,0.141,0.076,0.273,0.076,0.397C65.859,18.987,65.763,19.348,65.571,19.641 M63.043,23c0.215-0.318,0.48-0.596,0.797-0.834
			c0.317,0.102,0.614,0.213,0.891,0.332c0.277,0.119,0.517,0.255,0.721,0.408c0.203,0.153,0.365,0.332,0.483,0.536
			c0.119,0.204,0.178,0.436,0.178,0.697c0,0.352-0.135,0.669-0.407,0.952c-0.271,0.284-0.701,0.426-1.289,0.426
			c-0.305,0-0.566-0.046-0.78-0.136c-0.215-0.091-0.391-0.204-0.526-0.34c-0.136-0.136-0.235-0.287-0.297-0.451
			c-0.062-0.164-0.093-0.315-0.093-0.451C62.721,23.697,62.828,23.317,63.043,23 M68.175,22.431
			c-0.278-0.459-0.738-0.897-1.383-1.317c0.43-0.27,0.789-0.64,1.077-1.109c0.289-0.469,0.433-0.974,0.433-1.516
			c0-0.373-0.071-0.748-0.212-1.127c-0.142-0.378-0.371-0.719-0.687-1.024c-0.317-0.305-0.721-0.556-1.213-0.754
			c-0.492-0.198-1.083-0.297-1.773-0.297c-0.588,0-1.123,0.094-1.603,0.28c-0.481,0.186-0.891,0.435-1.23,0.745
			c-0.339,0.311-0.602,0.675-0.789,1.093c-0.186,0.418-0.28,0.853-0.28,1.304c0,0.599,0.116,1.09,0.348,1.474
			s0.591,0.774,1.077,1.169c-0.226,0.17-0.438,0.351-0.636,0.544c-0.198,0.192-0.376,0.404-0.534,0.637
			c-0.159,0.232-0.283,0.489-0.373,0.772c-0.091,0.284-0.136,0.595-0.136,0.935c0,0.328,0.068,0.688,0.203,1.078
			c0.136,0.391,0.365,0.751,0.687,1.079c0.323,0.329,0.747,0.603,1.273,0.824s1.184,0.331,1.976,0.331
			c0.69,0,1.298-0.088,1.824-0.263c0.526-0.175,0.964-0.422,1.314-0.739c0.351-0.317,0.614-0.688,0.789-1.112
			c0.175-0.425,0.263-0.892,0.263-1.402C68.59,23.425,68.452,22.89,68.175,22.431 M54.256,23.396h4.92v-2.29h-4.92V23.396z
			 M50.167,19.641c-0.192,0.293-0.469,0.552-0.831,0.778c-0.644-0.226-1.1-0.496-1.365-0.812c-0.266-0.316-0.399-0.654-0.399-1.015
			c0-0.135,0.028-0.276,0.085-0.423c0.056-0.147,0.144-0.285,0.263-0.414c0.118-0.13,0.268-0.235,0.449-0.314
			c0.181-0.079,0.396-0.118,0.645-0.118c0.26,0,0.48,0.042,0.662,0.127c0.18,0.085,0.33,0.189,0.449,0.313s0.204,0.257,0.255,0.398
			c0.05,0.141,0.076,0.273,0.076,0.397C50.456,18.987,50.36,19.348,50.167,19.641 M47.64,23c0.215-0.318,0.48-0.596,0.797-0.834
			c0.317,0.102,0.613,0.213,0.891,0.332c0.277,0.119,0.517,0.255,0.721,0.408c0.203,0.153,0.364,0.332,0.483,0.536
			c0.119,0.204,0.178,0.436,0.178,0.697c0,0.352-0.135,0.669-0.407,0.952c-0.271,0.284-0.701,0.426-1.289,0.426
			c-0.305,0-0.566-0.046-0.78-0.136c-0.215-0.091-0.391-0.204-0.526-0.34c-0.136-0.136-0.235-0.287-0.297-0.451
			s-0.093-0.315-0.093-0.451C47.318,23.697,47.425,23.317,47.64,23 M52.771,22.431c-0.277-0.459-0.738-0.897-1.382-1.317
			c0.43-0.27,0.789-0.64,1.077-1.109c0.288-0.469,0.433-0.974,0.433-1.516c0-0.373-0.071-0.748-0.212-1.127
			c-0.142-0.378-0.371-0.719-0.687-1.024c-0.317-0.305-0.721-0.556-1.213-0.754s-1.083-0.297-1.773-0.297
			c-0.588,0-1.123,0.094-1.603,0.28c-0.481,0.186-0.891,0.435-1.23,0.745c-0.339,0.311-0.602,0.675-0.789,1.093
			s-0.28,0.853-0.28,1.304c0,0.599,0.116,1.09,0.348,1.474c0.232,0.384,0.591,0.774,1.077,1.169
			c-0.226,0.17-0.438,0.351-0.636,0.544c-0.198,0.192-0.376,0.404-0.534,0.637c-0.159,0.232-0.283,0.489-0.374,0.772
			c-0.09,0.284-0.135,0.595-0.135,0.935c0,0.328,0.068,0.688,0.203,1.078c0.136,0.391,0.365,0.751,0.687,1.079
			c0.323,0.329,0.747,0.603,1.273,0.824s1.184,0.331,1.976,0.331c0.69,0,1.298-0.088,1.824-0.263
			c0.525-0.175,0.964-0.422,1.314-0.739c0.351-0.317,0.614-0.688,0.789-1.112c0.175-0.425,0.263-0.892,0.263-1.402
			C53.187,23.425,53.048,22.89,52.771,22.431 M40.532,19.641c-0.192,0.293-0.469,0.552-0.831,0.778
			c-0.645-0.226-1.1-0.496-1.366-0.812c-0.266-0.316-0.398-0.654-0.398-1.015c0-0.135,0.028-0.276,0.084-0.423
			c0.057-0.147,0.145-0.285,0.263-0.414c0.119-0.13,0.269-0.235,0.45-0.314c0.181-0.079,0.396-0.118,0.644-0.118
			c0.261,0,0.481,0.042,0.662,0.127c0.181,0.085,0.331,0.189,0.45,0.313c0.118,0.124,0.203,0.257,0.254,0.398
			c0.051,0.141,0.076,0.273,0.076,0.397C40.82,18.987,40.724,19.348,40.532,19.641 M38.004,23c0.215-0.318,0.481-0.596,0.798-0.834
			c0.316,0.102,0.613,0.213,0.89,0.332c0.277,0.119,0.518,0.255,0.721,0.408c0.204,0.153,0.365,0.332,0.484,0.536
			c0.119,0.204,0.178,0.436,0.178,0.697c0,0.352-0.136,0.669-0.407,0.952c-0.272,0.284-0.702,0.426-1.29,0.426
			c-0.305,0-0.565-0.046-0.78-0.136c-0.215-0.091-0.39-0.204-0.526-0.34c-0.135-0.136-0.235-0.287-0.297-0.451
			s-0.093-0.315-0.093-0.451C37.682,23.697,37.789,23.317,38.004,23 M43.136,22.431c-0.277-0.459-0.738-0.897-1.383-1.317
			c0.43-0.27,0.789-0.64,1.078-1.109c0.288-0.469,0.432-0.974,0.432-1.516c0-0.373-0.071-0.748-0.212-1.127
			c-0.141-0.378-0.37-0.719-0.687-1.024c-0.317-0.305-0.721-0.556-1.213-0.754s-1.083-0.297-1.773-0.297
			c-0.588,0-1.122,0.094-1.603,0.28c-0.48,0.186-0.89,0.435-1.229,0.745c-0.34,0.311-0.603,0.675-0.789,1.093
			c-0.187,0.418-0.28,0.853-0.28,1.304c0,0.599,0.116,1.09,0.348,1.474c0.231,0.384,0.59,0.774,1.077,1.169
			c-0.227,0.17-0.439,0.351-0.636,0.544c-0.198,0.192-0.377,0.404-0.535,0.637c-0.158,0.232-0.283,0.489-0.373,0.772
			c-0.091,0.284-0.136,0.595-0.136,0.935c0,0.328,0.068,0.688,0.204,1.078c0.136,0.391,0.365,0.751,0.687,1.079
			c0.322,0.329,0.746,0.603,1.272,0.824c0.526,0.221,1.185,0.331,1.977,0.331c0.689,0,1.297-0.088,1.823-0.263
			c0.526-0.175,0.964-0.422,1.315-0.739c0.35-0.317,0.613-0.688,0.789-1.112c0.175-0.425,0.263-0.892,0.263-1.402
			C43.552,23.425,43.413,22.89,43.136,22.431"/>
	</g>
</g>
</svg>
