<?xml version="1.0" encoding="utf-8"?>
<!-- Generator: Adobe Illustrator 21.1.0, SVG Export Plug-In . SVG Version: 6.00 Build 0)  -->
<svg version="1.1" id="Capa_1" xmlns="http://www.w3.org/2000/svg" xmlns:xlink="http://www.w3.org/1999/xlink" x="0px" y="0px"
	 viewBox="0 0 467.158 412.853" style="enable-background:new 0 0 467.158 412.853;" xml:space="preserve">
<style type="text/css">
	.st0{clip-path:url(#SVGID_2_);fill:none;stroke:#F0F4D9;stroke-width:2.547;stroke-linecap:round;stroke-dasharray:7.702,5.155;}
	.st1{clip-path:url(#SVGID_2_);fill:none;stroke:#F0F4D9;stroke-width:2.547;stroke-linecap:round;stroke-dasharray:7.591,5.043;}
	.st2{clip-path:url(#SVGID_2_);fill:none;stroke:#F0F4D9;stroke-width:2.547;stroke-linecap:round;stroke-dasharray:7.59,5.043;}
	.st3{clip-path:url(#SVGID_2_);fill:none;stroke:#F0F4D9;stroke-width:2.547;stroke-linecap:round;stroke-dasharray:7.527,4.98;}
	.st4{clip-path:url(#SVGID_2_);fill:none;stroke:#F0F4D9;stroke-width:2.547;stroke-linecap:round;}
	.st5{fill:none;stroke:#F0F4D9;stroke-width:2.547;stroke-linecap:round;}
	.st6{clip-path:url(#SVGID_4_);fill:none;stroke:#F0F4D9;stroke-width:2.547;stroke-linecap:round;}
</style>
<g>
	<defs>
		<rect id="SVGID_1_" width="467.158" height="412.853"/>
	</defs>
	<clipPath id="SVGID_2_">
		<use xlink:href="#SVGID_1_"  style="overflow:visible;"/>
	</clipPath>
	<path class="st0" d="M170.33,353.281c49.336,4.209,285.831,20.178,295.264-59.594"/>
	<path class="st1" d="M464.554,278.552C437.169,182.415-4.247,346.075,1.326,156.396"/>
	<path class="st2" d="M4.256,141.712c35.26-62.297,410.753-23.973,437.683-74.818"/>
	<path class="st3" d="M441.601,52.359C419.485,3.755,206.974,1.308,167.616,1.273"/>
	<path class="st4" d="M165.125,1.272c-2.449,0.006-3.763,0.02-3.763,0.02 M442.905,64.572c0.368-1.199,0.556-2.447,0.556-3.74
		c0-1.273-0.118-2.521-0.349-3.74 M1.426,153.872c0.061-1.244,0.142-2.508,0.241-3.787c0.1-1.277,0.319-2.522,0.654-3.731
		 M465.817,291.118c0.07-1.26,0.086-2.543,0.045-3.849c-0.041-1.297-0.141-2.557-0.3-3.782 M161.363,352.458
		c0,0,1.337,0.137,3.833,0.367"/>
</g>
<polyline class="st5" points="167.006,245.894 174.125,253.822 166.582,262.275 "/>
<g>
	<defs>
		<rect id="SVGID_3_" width="467.158" height="412.853"/>
	</defs>
	<clipPath id="SVGID_4_">
		<use xlink:href="#SVGID_3_"  style="overflow:visible;"/>
	</clipPath>
	<polyline class="st6" points="42,405.71 32.859,411.186 26.217,402.792 	"/>
</g>
<polyline class="st5" points="254.611,89.99 248.664,98.832 257.311,106.154 "/>
</svg>
