<?xml version="1.0" encoding="utf-8"?>
<!-- Generator: Adobe Illustrator 21.1.0, SVG Export Plug-In . SVG Version: 6.00 Build 0)  -->
<svg version="1.1" id="Capa_1" xmlns="http://www.w3.org/2000/svg" xmlns:xlink="http://www.w3.org/1999/xlink" x="0px" y="0px"
	 viewBox="0 0 820 1059.173" style="enable-background:new 0 0 820 1059.173;" xml:space="preserve">
<style type="text/css">
	.st0{fill:#AEC90B;}
	.st1{clip-path:url(#SVGID_2_);fill:#F0F4D9;}
</style>
<rect class="st0" width="820" height="1059.173"/>
<g>
	<defs>
		<rect id="SVGID_1_" width="820" height="1060"/>
	</defs>
	<clipPath id="SVGID_2_">
		<use xlink:href="#SVGID_1_"  style="overflow:visible;"/>
	</clipPath>
	<path class="st1" d="M55.216,64.157c19.92-1.919,398.401,0,438.241,0s295.746-12.095,298.8,9.2
		c6.64,46.29,6.64,749.127,6.64,826.517c0.001,55.745-2.655,125.884-6.639,125.884s-660.018,24.841-742.354,6.309
		c-6.64-88.952-3.984-419.4-3.984-591.781C45.92,386.022,44.592,116.598,55.216,64.157"/>
</g>
<polygon class="st0" points="0,1036.017 0,1060 820,1060 820,1023.805 "/>
<polygon class="st0" points="0,0 0,55.78 820,78.395 820,0 "/>
</svg>
