<?xml version="1.0" encoding="utf-8"?>
<!-- Generator: Adobe Illustrator 26.0.1, SVG Export Plug-In . SVG Version: 6.00 Build 0)  -->
<svg version="1.1" id="Capa_1" xmlns="http://www.w3.org/2000/svg" xmlns:xlink="http://www.w3.org/1999/xlink" x="0px" y="0px"
	 viewBox="0 0 53.1 131.9" style="enable-background:new 0 0 53.1 131.9;" xml:space="preserve">
<style type="text/css">
	.st0{clip-path:url(#SVGID_00000053519308599302374000000013277784986336826780_);fill:#4F4F4E;}
	.st1{clip-path:url(#SVGID_00000116943364132876258910000005844168690119041685_);fill:#4F4F4E;}
	
		.st2{clip-path:url(#SVGID_00000065784603086185913430000012414241978859299760_);fill:none;stroke:#FFCB00;stroke-width:3.821;stroke-linecap:round;}
	.st3{clip-path:url(#SVGID_00000131327518209345094510000011425219705064483463_);fill:#4F4F4E;}
	.st4{clip-path:url(#SVGID_00000178911759959875228470000009408203884837234362_);fill:#4F4F4E;}
	
		.st5{clip-path:url(#SVGID_00000158030330394366118450000000051042393270529465_);fill:none;stroke:#FFCB00;stroke-width:3.821;stroke-linecap:round;}
	.st6{clip-path:url(#SVGID_00000101821667149408598910000007010414578641886099_);fill:#4F4F4E;}
	.st7{clip-path:url(#SVGID_00000000202402760764294680000010770351247067908775_);fill:#4F4F4E;}
	
		.st8{clip-path:url(#SVGID_00000123429845213785016370000015210364683405883803_);fill:none;stroke:#FFCB00;stroke-width:3.821;stroke-linecap:round;}
</style>
<g>
	<g>
		<g>
			<g>
				<defs>
					<rect id="SVGID_1_" y="0" width="53.1" height="9.2"/>
				</defs>
				<clipPath id="SVGID_00000005973408336156349170000017481819188574930621_">
					<use xlink:href="#SVGID_1_"  style="overflow:visible;"/>
				</clipPath>
				<path style="clip-path:url(#SVGID_00000005973408336156349170000017481819188574930621_);fill:#4F4F4E;" d="M4.6,9.2
					c2.5,0,4.6-2.1,4.6-4.6S7.1,0,4.6,0S0,2.1,0,4.6S2.1,9.2,4.6,9.2"/>
			</g>
		</g>
	</g>
	<g>
		<g>
			<g>
				<defs>
					<rect id="SVGID_00000021832039597276884240000003857549409722452370_" y="0" width="53.1" height="9.2"/>
				</defs>
				<clipPath id="SVGID_00000162312956588492761280000002350430804355365546_">
					<use xlink:href="#SVGID_00000021832039597276884240000003857549409722452370_"  style="overflow:visible;"/>
				</clipPath>
				<path style="clip-path:url(#SVGID_00000162312956588492761280000002350430804355365546_);fill:#4F4F4E;" d="M48.5,9.2
					c2.5,0,4.6-2.1,4.6-4.6S51.1,0,48.5,0s-4.6,2.1-4.6,4.6S46,9.2,48.5,9.2"/>
			</g>
		</g>
	</g>
	<g>
		<g>
			<g>
				<defs>
					<rect id="SVGID_00000065775857997465790560000003110423199353756326_" y="0" width="53.1" height="9.2"/>
				</defs>
				<clipPath id="SVGID_00000005266129896395659710000018311712105990111411_">
					<use xlink:href="#SVGID_00000065775857997465790560000003110423199353756326_"  style="overflow:visible;"/>
				</clipPath>
				
					<line style="clip-path:url(#SVGID_00000005266129896395659710000018311712105990111411_);fill:none;stroke:#FFCB00;stroke-width:3.821;stroke-linecap:round;" x1="6.5" y1="4.6" x2="47.6" y2="4.6"/>
			</g>
		</g>
	</g>
</g>
<g>
	<g>
		<g>
			<g>
				<defs>
					<rect id="SVGID_00000159441584422147232620000014145512782997886904_" y="61.1" width="53.1" height="9.2"/>
				</defs>
				<clipPath id="SVGID_00000168815296661811962000000009326194506465353399_">
					<use xlink:href="#SVGID_00000159441584422147232620000014145512782997886904_"  style="overflow:visible;"/>
				</clipPath>
				<path style="clip-path:url(#SVGID_00000168815296661811962000000009326194506465353399_);fill:#4F4F4E;" d="M4.6,70.2
					c2.5,0,4.6-2.1,4.6-4.6c0-2.5-2.1-4.6-4.6-4.6S0,63.1,0,65.6C0,68.1,2.1,70.2,4.6,70.2"/>
			</g>
		</g>
	</g>
	<g>
		<g>
			<g>
				<defs>
					<rect id="SVGID_00000082345367241939516420000010347586758427249293_" y="61.1" width="53.1" height="9.2"/>
				</defs>
				<clipPath id="SVGID_00000109708718717699485990000004340443970072329638_">
					<use xlink:href="#SVGID_00000082345367241939516420000010347586758427249293_"  style="overflow:visible;"/>
				</clipPath>
				<path style="clip-path:url(#SVGID_00000109708718717699485990000004340443970072329638_);fill:#4F4F4E;" d="M48.5,70.2
					c2.5,0,4.6-2.1,4.6-4.6c0-2.5-2.1-4.6-4.6-4.6s-4.6,2.1-4.6,4.6C43.9,68.1,46,70.2,48.5,70.2"/>
			</g>
		</g>
	</g>
	<g>
		<g>
			<g>
				<defs>
					<rect id="SVGID_00000155856973098957072720000001178007381567832247_" y="61.1" width="53.1" height="9.2"/>
				</defs>
				<clipPath id="SVGID_00000068655092101680825850000006997820638452420775_">
					<use xlink:href="#SVGID_00000155856973098957072720000001178007381567832247_"  style="overflow:visible;"/>
				</clipPath>
				
					<line style="clip-path:url(#SVGID_00000068655092101680825850000006997820638452420775_);fill:none;stroke:#FFCB00;stroke-width:3.821;stroke-linecap:round;" x1="6.5" y1="65.6" x2="47.6" y2="65.6"/>
			</g>
		</g>
	</g>
</g>
<g>
	<g>
		<g>
			<g>
				<defs>
					<rect id="SVGID_00000021100631970007389410000004244444884787657091_" y="122.1" width="53.1" height="9.2"/>
				</defs>
				<clipPath id="SVGID_00000085215927654728000550000011531715141342386852_">
					<use xlink:href="#SVGID_00000021100631970007389410000004244444884787657091_"  style="overflow:visible;"/>
				</clipPath>
				<path style="clip-path:url(#SVGID_00000085215927654728000550000011531715141342386852_);fill:#4F4F4E;" d="M4.6,131.3
					c2.5,0,4.6-2.1,4.6-4.6s-2.1-4.6-4.6-4.6S0,124.2,0,126.7S2.1,131.3,4.6,131.3"/>
			</g>
		</g>
	</g>
	<g>
		<g>
			<g>
				<defs>
					<rect id="SVGID_00000011017982118948419910000008927800914035498653_" y="122.1" width="53.1" height="9.2"/>
				</defs>
				<clipPath id="SVGID_00000148651940605280963590000005759059197621830030_">
					<use xlink:href="#SVGID_00000011017982118948419910000008927800914035498653_"  style="overflow:visible;"/>
				</clipPath>
				<path style="clip-path:url(#SVGID_00000148651940605280963590000005759059197621830030_);fill:#4F4F4E;" d="M48.5,131.3
					c2.5,0,4.6-2.1,4.6-4.6s-2.1-4.6-4.6-4.6s-4.6,2.1-4.6,4.6S46,131.3,48.5,131.3"/>
			</g>
		</g>
	</g>
	<g>
		<g>
			<g>
				<defs>
					<rect id="SVGID_00000146475201713278225720000011198441744763532697_" y="122.1" width="53.1" height="9.2"/>
				</defs>
				<clipPath id="SVGID_00000064322473690365614290000001268466159833588390_">
					<use xlink:href="#SVGID_00000146475201713278225720000011198441744763532697_"  style="overflow:visible;"/>
				</clipPath>
				
					<line style="clip-path:url(#SVGID_00000064322473690365614290000001268466159833588390_);fill:none;stroke:#FFCB00;stroke-width:3.821;stroke-linecap:round;" x1="6.5" y1="126.7" x2="47.6" y2="126.7"/>
			</g>
		</g>
	</g>
</g>
</svg>
