<?xml version="1.0" encoding="utf-8"?>
<!-- Generator: Adobe Illustrator 21.1.0, SVG Export Plug-In . SVG Version: 6.00 Build 0)  -->
<svg version="1.1" id="Capa_1" xmlns="http://www.w3.org/2000/svg" xmlns:xlink="http://www.w3.org/1999/xlink" x="0px" y="0px"
	 viewBox="0 0 14.9 14.9" style="enable-background:new 0 0 14.9 14.9;" xml:space="preserve">
<style type="text/css">
	.st0{fill:#FFFFFF;}
	.st1{clip-path:url(#SVGID_2_);fill:none;stroke:#7C6EAF;stroke-width:0.955;stroke-linecap:round;}
	.st2{clip-path:url(#SVGID_2_);fill:#7C6EAF;}
</style>
<rect x="0.5" y="0.5" class="st0" width="14" height="14"/>
<g>
	<defs>
		<rect id="SVGID_1_" width="14.9" height="14.9"/>
	</defs>
	<clipPath id="SVGID_2_">
		<use xlink:href="#SVGID_1_"  style="overflow:visible;"/>
	</clipPath>
	<rect x="0.5" y="0.5" class="st1" width="14" height="14"/>
	<path class="st2" d="M9.5,10.4c-0.1,0-0.3,0.1-0.5,0.1c-0.2,0-0.5,0.1-0.8,0.1c-0.5,0-0.9-0.1-1.2-0.2c-0.3-0.2-0.6-0.4-0.9-0.7
		C5.9,9.4,5.7,9,5.6,8.6C5.5,8.2,5.4,7.8,5.4,7.3c0-0.5,0.1-1,0.2-1.4c0.1-0.4,0.3-0.8,0.6-1c0.2-0.3,0.5-0.5,0.9-0.6
		C7.4,4.1,7.8,4,8.2,4C8.6,4,9,4,9.4,4.1c0.4,0.1,0.7,0.2,0.9,0.4l0.4-1c0,0-0.1-0.1-0.3-0.1c-0.1-0.1-0.3-0.1-0.5-0.2
		C9.7,3.2,9.4,3.1,9.1,3.1C8.8,3,8.5,3,8.1,3C7.6,3,7.1,3.1,6.6,3.3C6.1,3.5,5.7,3.7,5.4,4.1C5,4.5,4.7,4.9,4.5,5.4
		C4.3,6,4.2,6.6,4.2,7.3s0.1,1.3,0.3,1.8c0.2,0.5,0.4,1,0.8,1.3c0.3,0.4,0.7,0.6,1.2,0.8c0.5,0.2,1,0.3,1.6,0.3c0.3,0,0.6,0,0.8,0
		c0.3,0,0.5-0.1,0.8-0.1c0.2,0,0.4-0.1,0.6-0.1c0.2,0,0.3-0.1,0.4-0.1V7.3H9.5V10.4z"/>
</g>
</svg>
