<?xml version="1.0" encoding="utf-8"?>
<!-- Generator: Adobe Illustrator 21.1.0, SVG Export Plug-In . SVG Version: 6.00 Build 0)  -->
<svg version="1.1" id="Capa_1" xmlns="http://www.w3.org/2000/svg" xmlns:xlink="http://www.w3.org/1999/xlink" x="0px" y="0px"
	 viewBox="0 0 33.952 63.836" style="enable-background:new 0 0 33.952 63.836;" xml:space="preserve">
<style type="text/css">
	.st0{clip-path:url(#SVGID_2_);fill:#3DA435;}
</style>
<g>
	<defs>
		<rect id="SVGID_1_" width="33.952" height="63.836"/>
	</defs>
	<clipPath id="SVGID_2_">
		<use xlink:href="#SVGID_1_"  style="overflow:visible;"/>
	</clipPath>
	<path class="st0" d="M14.235,12.068c1.355,1.327,3.035,1.99,5.04,1.99c1.945,0,3.61-0.663,4.995-1.99
		c1.385-1.326,2.078-3.019,2.078-5.083c0-2.063-0.693-3.743-2.078-5.04C22.885,0.649,21.22,0,19.275,0
		c-2.005,0-3.685,0.649-5.04,1.945c-1.356,1.297-2.033,2.977-2.033,5.04C12.202,9.049,12.879,10.742,14.235,12.068 M13.13,52.828
		c-1.326-1.268-1.989-2.874-1.989-4.819c0-1.414,0.323-2.71,0.972-3.89c0.648-1.178,1.473-2.328,2.476-3.448
		c1.001-1.119,2.078-2.24,3.227-3.36c1.149-1.119,2.224-2.328,3.227-3.625c1.002-1.296,1.827-2.71,2.476-4.244
		c0.648-1.532,0.972-3.271,0.972-5.216c0-0.589-0.03-1.223-0.088-1.901c-0.059-0.677-0.148-1.311-0.265-1.901h-9.195
		c0.058,0.353,0.088,0.722,0.088,1.105v1.017c0,1.768-0.369,3.359-1.105,4.774c-0.738,1.415-1.666,2.756-2.785,4.023
		c-1.121,1.268-2.33,2.506-3.625,3.714c-1.298,1.208-2.506,2.49-3.625,3.846c-1.121,1.356-2.049,2.829-2.786,4.42
		C0.368,44.915,0,46.712,0,48.717c0,1.649,0.266,3.359,0.796,5.128c0.531,1.768,1.473,3.389,2.829,4.863
		c1.356,1.472,3.183,2.696,5.482,3.669c2.299,0.972,5.217,1.459,8.753,1.459c2.947,0,5.82-0.369,8.621-1.105
		c2.799-0.738,5.289-1.725,7.471-2.962l-3.006-8.223c-2.064,1.119-4.038,1.93-5.924,2.431c-1.887,0.501-3.861,0.752-5.924,0.752
		C16.446,54.729,14.456,54.095,13.13,52.828"/>
</g>
</svg>
