<?xml version="1.0" encoding="utf-8"?>
<!-- Generator: Adobe Illustrator 14.0.0, SVG Export Plug-In . SVG Version: 6.00 Build 43363)  -->
<!DOCTYPE svg PUBLIC "-//W3C//DTD SVG 1.1//EN" "http://www.w3.org/Graphics/SVG/1.1/DTD/svg11.dtd">
<svg version="1.1" id="Layer_1" xmlns="http://www.w3.org/2000/svg" xmlns:xlink="http://www.w3.org/1999/xlink" x="0px" y="0px"
	 width="42.424px" height="11.905px" viewBox="0 0 42.424 11.905" enable-background="new 0 0 42.424 11.905" xml:space="preserve">
<g>
	<path fill="#ADDFEB" d="M38.745,3.283c0.117-0.204-0.076-0.534-0.33-0.392c-5.809,3.244-10.865,6.521-17.701,7.116
		C14.026,10.59,4.961,9.769,0.2,4.525c-0.068-0.072-0.229-0.022-0.195,0.09c1.879,6.417,13.002,7.232,18.416,7.287
		C25.575,11.977,34.872,9.98,38.745,3.283z"/>
	<path fill="#ADDFEB" d="M41.254,0.025c-1.76,0.478-3.486,1.082-5.248,1.555c-1.863,0.497-3.564,0.388-5.457,0.318
		C30.45,1.894,30.405,2,30.456,2.08c1.703,2.545,6.059,1.394,9.163,0.454c-0.724,1.551-1.569,3.207-2.792,4.042
		c-2.072,1.415,1.986,4.052,2.285,1.186c0.145-1.45,1.18-2.624,1.867-3.847c0.477-0.852,0.918-1.727,1.365-2.596
		C42.674,0.675,41.918-0.157,41.254,0.025z"/>
</g>
</svg>
