<?xml version="1.0" encoding="utf-8"?>
<!-- Generator: Adobe Illustrator 14.0.0, SVG Export Plug-In . SVG Version: 6.00 Build 43363)  -->
<!DOCTYPE svg PUBLIC "-//W3C//DTD SVG 1.1//EN" "http://www.w3.org/Graphics/SVG/1.1/DTD/svg11.dtd">
<svg version="1.1" id="Layer_1" xmlns="http://www.w3.org/2000/svg" xmlns:xlink="http://www.w3.org/1999/xlink" x="0px" y="0px"
	 width="29.062px" height="14.768px" viewBox="0 0 29.062 14.768" enable-background="new 0 0 29.062 14.768" xml:space="preserve">
<g>
	
		<rect x="0.375" y="0.375" fill="none" stroke="#00ABCC" stroke-width="0.75" stroke-linecap="round" width="14.018" height="14.018"/>
	<path fill="#00ABCC" d="M9.475,10.332c-0.102,0.032-0.27,0.065-0.504,0.101c-0.232,0.036-0.516,0.055-0.848,0.055
		c-0.469,0-0.873-0.08-1.219-0.238C6.563,10.09,6.271,9.868,6.039,9.578C5.807,9.29,5.633,8.943,5.518,8.54S5.346,7.689,5.346,7.2
		c0-0.507,0.066-0.964,0.201-1.372C5.682,5.421,5.869,5.075,6.113,4.79C6.352,4.505,6.645,4.288,6.99,4.138
		c0.344-0.151,0.725-0.225,1.145-0.225c0.395,0,0.783,0.048,1.162,0.148C9.678,4.16,9.98,4.283,10.209,4.435l0.369-0.961
		c-0.049-0.032-0.135-0.079-0.266-0.143c-0.131-0.063-0.301-0.125-0.506-0.19C9.602,3.078,9.355,3.021,9.064,2.974
		c-0.287-0.048-0.617-0.07-0.99-0.07c-0.545,0-1.057,0.094-1.535,0.284C6.061,3.379,5.643,3.655,5.287,4.019
		C4.93,4.382,4.646,4.832,4.438,5.365C4.227,5.899,4.123,6.511,4.123,7.2c0,0.687,0.094,1.296,0.279,1.826
		c0.186,0.529,0.449,0.979,0.787,1.342c0.344,0.363,0.748,0.641,1.223,0.83s1.002,0.284,1.58,0.284c0.285,0,0.564-0.014,0.842-0.04
		C9.113,11.413,9.367,11.38,9.6,11.34s0.438-0.08,0.617-0.119c0.178-0.04,0.313-0.074,0.408-0.105V7.27h-1.15V10.332z"/>
</g>
</svg>
