<?xml version="1.0" encoding="utf-8"?>
<!-- Generator: Adobe Illustrator 21.1.0, SVG Export Plug-In . SVG Version: 6.00 Build 0)  -->
<svg version="1.1" id="Capa_1" xmlns="http://www.w3.org/2000/svg" xmlns:xlink="http://www.w3.org/1999/xlink" x="0px" y="0px"
	 viewBox="0 0 269.057 241.915" style="enable-background:new 0 0 269.057 241.915;" xml:space="preserve">
<style type="text/css">
	.st0{filter:url(#Adobe_OpacityMaskFilter);}
	.st1{clip-path:url(#SVGID_2_);}
	.st2{clip-path:url(#SVGID_2_);mask:url(#SVGID_3_);}
	.st3{clip-path:url(#SVGID_7_);fill:#D3ECFB;}
	
		.st4{clip-path:url(#SVGID_7_);fill:none;stroke:#009AD8;stroke-width:1.274;stroke-linecap:round;stroke-linejoin:round;stroke-miterlimit:10;}
	.st5{filter:url(#Adobe_OpacityMaskFilter_1_);}
	.st6{clip-path:url(#SVGID_2_);mask:url(#SVGID_8_);}
	.st7{clip-path:url(#SVGID_12_);fill:#81CFF4;}
</style>
<g>
	<defs>
		<rect id="SVGID_1_" width="269.057" height="241.915"/>
	</defs>
	<clipPath id="SVGID_2_">
		<use xlink:href="#SVGID_1_"  style="overflow:visible;"/>
	</clipPath>
	<defs>
		<filter id="Adobe_OpacityMaskFilter" filterUnits="userSpaceOnUse" x="-11.348" y="-12.666" width="294.067" height="257.937">
			<feColorMatrix  type="matrix" values="1 0 0 0 0  0 1 0 0 0  0 0 1 0 0  0 0 0 1 0"/>
		</filter>
	</defs>
	<mask maskUnits="userSpaceOnUse" x="-11.348" y="-12.666" width="294.067" height="257.937" id="SVGID_3_">
		<g class="st0">
			<g>
				<defs>
					
						<rect id="SVGID_4_" x="12.785" y="-25.505" transform="matrix(0.0436 -0.999 0.999 0.0436 13.5746 246.7858)" width="245.8" height="283.615"/>
				</defs>
				<clipPath id="SVGID_5_" class="st1">
					<use xlink:href="#SVGID_4_"  style="overflow:visible;"/>
				</clipPath>
				<g transform="matrix(1 -3.725290e-09 3.725290e-09 1 0 0)" style="clip-path:url(#SVGID_5_);">
					
						<image style="overflow:visible;" width="480" height="416" xlink:href="7B4EB5F761365E9A.jpg"  transform="matrix(0.5903 0.0258 -0.0258 0.5903 -0.6267 -12.6657)">
					</image>
				</g>
			</g>
		</g>
	</mask>
	<g class="st2">
		<g>
			<defs>
				<rect id="SVGID_6_" x="-11.348" y="-12.666" width="294.067" height="257.937"/>
			</defs>
			<clipPath id="SVGID_7_">
				<use xlink:href="#SVGID_6_"  style="overflow:visible;"/>
			</clipPath>
			<path class="st3" d="M0.637,229.382c0,0,1.994-45.669,2.323-53.206s1.991-37.099,2.422-46.955
				c0.439-10.061,1.653-40.374,2.049-49.437c0.395-9.064,3.088-79.147,3.088-79.147s123.763,4.777,127.1,4.922
				c3.336,0.146,130.801,2.785,130.801,2.785s-2.488,62.984-3.03,75.398c-0.542,12.414-1.991,57.608-2.359,66.032
				c-0.367,8.424-4.755,65.171-4.755,65.171s1.297,3.039-8.033,13.912c-11.041,12.866-20.778,12.42-20.778,12.42
				s-85.206-4.998-88.172-5.127c-2.966-0.13-119.827-4.605-121.743-4.689C17.635,231.378,0.637,229.382,0.637,229.382"/>
			<path class="st4" d="M0.637,229.382c0,0,1.994-45.669,2.323-53.206s1.991-37.099,2.422-46.955
				c0.439-10.061,1.653-40.374,2.049-49.437c0.395-9.064,3.088-79.147,3.088-79.147s123.763,4.777,127.1,4.922
				c3.336,0.146,130.801,2.785,130.801,2.785s-2.488,62.984-3.03,75.398c-0.542,12.414-1.991,57.608-2.359,66.032
				c-0.367,8.424-4.755,65.171-4.755,65.171s1.297,3.039-8.033,13.912c-11.041,12.866-20.778,12.42-20.778,12.42
				s-85.206-4.998-88.172-5.127c-2.966-0.13-119.827-4.605-121.743-4.689C17.635,231.378,0.637,229.382,0.637,229.382z"/>
		</g>
	</g>
	<defs>
		<filter id="Adobe_OpacityMaskFilter_1_" filterUnits="userSpaceOnUse" x="197.187" y="198.361" width="74.721" height="57.757">
			<feColorMatrix  type="matrix" values="1 0 0 0 0  0 1 0 0 0  0 0 1 0 0  0 0 0 1 0"/>
		</filter>
	</defs>
	<mask maskUnits="userSpaceOnUse" x="197.187" y="198.361" width="74.721" height="57.757" id="SVGID_8_">
		<g class="st5">
			<g>
				<defs>
					
						<rect id="SVGID_9_" x="213.276" y="194.151" transform="matrix(0.2504 -0.9681 0.9681 0.2504 -44.1801 397.4194)" width="42.542" height="66.177"/>
				</defs>
				<clipPath id="SVGID_10_" class="st1">
					<use xlink:href="#SVGID_9_"  style="overflow:visible;"/>
				</clipPath>
				<g transform="matrix(1 -1.490116e-08 -1.490116e-08 1 1.525879e-05 0)" style="clip-path:url(#SVGID_10_);">
					
						<image style="overflow:visible;" width="112" height="72" xlink:href="7B4EB5F761365E9E.jpg"  transform="matrix(0.572 0.1479 -0.1479 0.572 207.8385 198.3611)">
					</image>
				</g>
			</g>
		</g>
	</mask>
	<g class="st6">
		<g>
			<defs>
				<rect id="SVGID_11_" x="197.187" y="198.361" width="74.721" height="57.757"/>
			</defs>
			<clipPath id="SVGID_12_">
				<use xlink:href="#SVGID_11_"  style="overflow:visible;"/>
			</clipPath>
			<path class="st7" d="M208.573,239.768c0,0,7.567,1.824,18.349-5.884c11.35-8.113,6.926-13.311,6.926-13.311
				s5.994,2.383,13.388,2.705c7.057,0.308,10.808-3.033,10.808-3.033s-2.906,13.737-16.396,18.659
				C225.522,244.787,208.573,239.768,208.573,239.768"/>
		</g>
	</g>
</g>
</svg>
