<?xml version="1.0" encoding="utf-8"?>
<!-- Generator: Adobe Illustrator 21.1.0, SVG Export Plug-In . SVG Version: 6.00 Build 0)  -->
<svg version="1.1" id="Capa_1" xmlns="http://www.w3.org/2000/svg" xmlns:xlink="http://www.w3.org/1999/xlink" x="0px" y="0px"
	 viewBox="0 0 31.992 48.589" style="enable-background:new 0 0 31.992 48.589;" xml:space="preserve">
<style type="text/css">
	.st0{clip-path:url(#SVGID_2_);}
	.st1{opacity:0.57;clip-path:url(#SVGID_4_);}
	.st2{clip-path:url(#SVGID_6_);fill:#D9C2DF;}
	.st3{clip-path:url(#SVGID_4_);fill:#3C383D;}
	.st4{clip-path:url(#SVGID_4_);fill:#DD1C25;}
	.st5{clip-path:url(#SVGID_4_);fill:#E2344D;}
</style>
<g>
	<defs>
		<rect id="SVGID_1_" width="31.992" height="48.589"/>
	</defs>
	<clipPath id="SVGID_2_">
		<use xlink:href="#SVGID_1_"  style="overflow:visible;"/>
	</clipPath>
	<g class="st0">
		<defs>
			<rect id="SVGID_3_" y="0" width="31.992" height="48.589"/>
		</defs>
		<clipPath id="SVGID_4_">
			<use xlink:href="#SVGID_3_"  style="overflow:visible;"/>
		</clipPath>
		<g class="st1">
			<g>
				<defs>
					<rect id="SVGID_5_" x="-5.501" y="22.522" width="48.78" height="27.425"/>
				</defs>
				<clipPath id="SVGID_6_">
					<use xlink:href="#SVGID_5_"  style="overflow:visible;"/>
				</clipPath>
				<path class="st2" d="M19.813,36.624c1.976,1.167,2.775,2.566,2.291,3.627c0.175,0.221,0.438,0.472,0.845,0.773
					c1.627,1.198,3.629,1.771,3.629,1.771l-0.02,0.004c1.112,0.341,2.268,0.753,3.366,1.418c0.01,0.006,0.021,0.012,0.032,0.018
					c2.337,1.379,2.718,3.151,0.853,3.959c-1.845,0.797-5.198,0.351-7.532-0.996h-0.005c0,0-2.499-1.392-3.387-3.439l-0.025,0.003
					c-0.538-1.073-1.718-1.641-2.725-1.976c-1.831-0.156-3.816-0.738-5.394-1.67c-2.793-1.649-3.249-3.767-1.02-4.731
					c0.039-0.017,0.084-0.031,0.125-0.047c-2-1.539-4.698-3.644-5.109-4.103c0,0,1.765,0.797,5.838,3.65
					c0.089,0.061,0.16,0.115,0.244,0.176C14.123,34.612,17.431,35.219,19.813,36.624"/>
			</g>
		</g>
		<path class="st3" d="M8.815,21.145c0,0-2.332,8.869-3.05,10.019c0,0-0.477-1.755,0.468-6.926
			C7.179,19.067,9.357,20.027,8.815,21.145"/>
		<path class="st4" d="M3.381,4.797c0.023-2.682,3.155-4.83,6.993-4.796c3.839,0.033,6.932,2.235,6.909,4.917
			c-0.023,2.683-3.154,4.83-6.993,4.797C6.451,9.681,3.358,7.48,3.381,4.797"/>
		<path class="st4" d="M2.374,14.958c0.749-0.831,2.331-1.082,2.81-3.141C5.678,9.687,4.47,8.061,4.47,8.061l0.029,0.006
			c-0.696-1.03-1.283-2.181-1.085-3.663c0.324-2.414,13.87,0.432,13.87,0.432s0.144,2.779-2.944,5.478l0.036,0.009
			c-1.665,1.58-1.231,2.883-0.63,3.76c0.205,0.246,0.424,0.508,0.642,0.794c0.026,0.031,0.051,0.061,0.072,0.088
			c0.117,0.144,0.226,0.315,0.33,0.494c0.26,0.416,0.49,0.885,0.649,1.428c0.013,0.036,0.019,0.056,0.019,0.056l-0.004-0.001
			c0.016,0.053,0.03,0.106,0.044,0.16c0.103,0.349,0.156,0.711,0.153,1.081c-0.025,2.855-3.356,5.14-7.441,5.104
			s-7.376-2.378-7.351-5.233C0.869,16.887,1.433,15.815,2.374,14.958"/>
		<path class="st5" d="M3.95,4.046c0.019-2.142,2.906-3.851,6.449-3.82c3.543,0.031,6.401,1.79,6.382,3.932
			c-0.019,2.142-2.906,3.852-6.45,3.821C6.789,7.948,3.931,6.188,3.95,4.046"/>
		<path class="st4" d="M0,18.232c0.028-3.207,3.771-5.773,8.358-5.733c4.59,0.04,8.286,2.671,8.258,5.878
			c-0.028,3.206-3.769,5.773-8.359,5.733C3.67,24.07-0.028,21.438,0,18.232"/>
		<path class="st5" d="M14.688,17.351c0,0,1.268,1.917,0.468,3.444c-0.801,1.526-4.377,2.904-7.485,2.67
			c-3.105-0.234-7.563-2.387-6.996-5.49c0.565-3.104,2.436-3.709,3.807-4.153s1.607-3.674,0.915-5.131
			C4.706,7.234,4.75,6.737,4.75,6.737s3.126,2.928,9.275,1.117c0,0,0.363,1.081-0.056,1.782c-0.421,0.7-5.023,0.826-7.419-0.107
			c0,0,0.715,3.571-1.366,4.548c-2.08,0.976-1.733,3.692,0.002,4.559C8.837,20.46,13.633,19.579,14.688,17.351"/>
	</g>
</g>
</svg>
