<?xml version="1.0" encoding="utf-8"?>
<!-- Generator: Adobe Illustrator 26.0.3, SVG Export Plug-In . SVG Version: 6.00 Build 0)  -->
<svg version="1.1" id="Capa_1" xmlns="http://www.w3.org/2000/svg" xmlns:xlink="http://www.w3.org/1999/xlink" x="0px" y="0px"
	 width="41.7px" height="159px" viewBox="0 0 41.7 159" style="enable-background:new 0 0 41.7 159;" xml:space="preserve">
<style type="text/css">
	.st0{fill:#504F4E;}
	.st1{fill:none;stroke:#FFCC00;stroke-width:3;stroke-linecap:round;}
</style>
<g>
	<path class="st0" d="M3.7,47c2,0,3.6-1.6,3.6-3.6c-0.3-2-2.2-3.4-4.3-3c-1.5,0.2-2.7,1.4-3,3C0.1,45.4,1.7,47,3.7,47"/>
	<path class="st0" d="M38.2,47c2,0,3.6-1.6,3.6-3.6c-0.3-2-2.2-3.4-4.3-3c-1.6,0.3-2.8,1.5-3,3C34.5,45.4,36.2,47,38.2,47"/>
	<line class="st1" x1="5.1" y1="43.4" x2="37.4" y2="43.4"/>
</g>
<g>
	<path class="st0" d="M3.7,79.2c2-0.1,3.6-1.7,3.5-3.7c-0.1-2-1.7-3.6-3.7-3.5C1.6,72.1,0,73.7,0,75.6c0,2,1.6,3.6,3.6,3.6H3.7"/>
	<path class="st0" d="M38.2,79.2c2-0.1,3.6-1.7,3.5-3.7S40,71.9,38,72c-1.9,0.1-3.5,1.6-3.5,3.6s1.6,3.6,3.6,3.6H38.2"/>
	<line class="st1" x1="5.1" y1="75.6" x2="37.4" y2="75.6"/>
</g>
<g>
	<path class="st0" d="M3.7,110.4c2,0,3.6-1.6,3.6-3.6c-0.3-2-2.2-3.4-4.3-3c-1.5,0.2-2.7,1.4-3,3C0.1,108.8,1.7,110.4,3.7,110.4"/>
	<path class="st0" d="M38.2,110.4c2,0,3.6-1.6,3.6-3.6c-0.3-2-2.2-3.4-4.3-3c-1.6,0.3-2.8,1.5-3,3C34.5,108.8,36.2,110.4,38.2,110.4
		"/>
	<line class="st1" x1="5.1" y1="106.8" x2="37.4" y2="106.8"/>
</g>
</svg>
