<?xml version="1.0" encoding="utf-8"?>
<!-- Generator: Adobe Illustrator 26.0.1, SVG Export Plug-In . SVG Version: 6.00 Build 0)  -->
<svg version="1.1" id="Capa_1" xmlns="http://www.w3.org/2000/svg" xmlns:xlink="http://www.w3.org/1999/xlink" x="0px" y="0px"
	 viewBox="0 0 18.9 22.7" style="enable-background:new 0 0 18.9 22.7;" xml:space="preserve">
<style type="text/css">
	.st0{fill:#E30613;}
</style>
<g>
	<polygon class="st0" points="15.7,0.4 15.7,0.4 16.2,1.3 15.8,2.3 15.8,2.3 15.8,2.3 15.6,2.5 15.4,2.7 15.1,3 15.1,3 14.9,3.2 
		14.7,3.4 14.5,3.7 14.2,3.9 14,4.1 13.8,4.3 13.6,4.6 13.3,4.8 13.3,4.9 13.1,5.1 12.9,5.3 12.7,5.5 12.5,5.8 12.3,6 12.3,6.1 
		12.1,6.3 11.9,6.5 11.7,6.8 11.5,7 11.3,7.3 11.2,7.3 11.1,7.5 10.9,7.8 10.7,8 10.5,8.3 10.3,8.4 10.3,8.5 10.1,8.8 9.9,9 
		9.7,9.3 9.6,9.4 9.5,9.6 9.3,9.8 9.1,10.1 8.9,10.3 8.9,10.3 8.7,10.6 8.6,10.9 8.4,11.1 8.3,11.3 8.2,11.4 8,11.7 7.8,11.9 
		7.7,12.2 7.6,12.2 7.5,12.5 7.3,12.8 7.1,13 7,13.2 7,13.3 6.8,13.6 6.7,13.7 6.6,13.9 6.6,14 6.5,14.1 6.4,14.3 6.3,14.4 
		6.2,14.6 6.2,14.7 6.1,14.8 6,14.9 6,15 5.9,15.1 5.8,15.3 5.8,15.4 5.7,15.5 5.6,15.7 5.5,15.8 5.5,16 5.4,16.1 5.3,16.3 
		5.3,16.4 5.3,16.4 5.2,16.5 5.1,16.7 5.1,16.8 5,17 4.9,17.1 4.9,17.3 4.8,17.4 4.7,17.6 4.7,17.7 4.6,17.8 4.6,17.9 4.5,18 
		4.5,18.2 4.4,18.3 4.4,18.5 4.3,18.6 4.3,18.8 4.2,18.9 4.2,19 4.1,19.1 4.1,19.1 3.8,19.6 3.3,19.9 1.9,19.7 1.9,19.7 1,18.7 
		1,18 1.3,17.5 1.3,17.4 1.4,17.3 1.5,17.2 1.6,17.1 1.7,16.9 1.8,16.8 1.9,16.7 2,16.5 2.1,16.3 2.3,16.1 2.4,16 2.5,15.9 
		2.6,15.7 2.7,15.6 2.8,15.5 2.9,15.3 3,15.2 3.1,15.1 3.2,14.9 3.3,14.8 3.4,14.7 3.5,14.5 3.6,14.4 3.8,14.1 4,13.9 4.1,13.7 
		4.1,13.7 4.2,13.6 4.4,13.3 4.6,13.1 4.7,12.8 4.9,12.5 5,12.4 5.2,12.1 5.3,12 5.4,11.9 5.6,11.6 5.8,11.3 6,11.1 6,11.1 
		6.2,10.8 6.4,10.5 6.6,10.3 6.7,10.1 6.8,10 7,9.7 7.1,9.5 7.3,9.2 7.5,8.9 7.7,8.7 7.9,8.4 8,8.3 8.1,8.1 8.3,7.9 8.5,7.6 
		8.7,7.3 8.8,7.2 8.9,7.1 9.1,6.8 9.3,6.5 9.5,6.3 9.7,6 9.7,6 9.9,5.8 10.1,5.5 10.3,5.2 10.5,5 10.6,4.7 10.7,4.7 10.9,4.4 
		11.1,4.2 11.3,3.9 11.5,3.7 11.6,3.5 11.7,3.4 11.9,3.1 12,2.9 12.2,2.6 12.4,2.3 12.6,2.1 12.8,1.8 13,1.5 13.2,1.4 13.2,1.3 
		13.4,1 13.6,0.8 13.8,0.5 13.8,0.5 14.7,0 	"/>
	<polygon class="st0" points="3.1,2.8 3.1,2.8 4.2,2.6 5,3.2 5,3.2 5,3.3 5.1,3.5 5.3,3.8 5.4,4.1 5.5,4.1 5.6,4.3 5.8,4.6 5.9,4.9 
		6.1,5.2 6.2,5.5 6.4,5.7 6.6,6 6.7,6.3 6.8,6.4 6.9,6.6 7.1,6.8 7.2,7.1 7.4,7.4 7.6,7.7 7.6,7.7 7.8,7.9 7.9,8.2 8.1,8.5 8.3,8.7 
		8.5,9 8.5,9 8.7,9.3 8.9,9.5 9,9.8 9.2,10 9.3,10.2 9.4,10.3 9.6,10.6 9.8,10.8 10,11.1 10.1,11.2 10.2,11.3 10.4,11.6 10.6,11.8 
		10.8,12.1 10.8,12.1 11,12.4 11.2,12.6 11.4,12.9 11.5,13 11.6,13.1 11.8,13.3 12,13.6 12.2,13.8 12.2,13.9 12.4,14.1 12.6,14.3 
		12.9,14.6 13,14.7 13.1,14.8 13.3,15 13.4,15.2 13.5,15.3 13.6,15.4 13.7,15.5 13.8,15.6 14,15.7 14.1,15.8 14.2,16 14.3,16.1 
		14.4,16.2 14.4,16.2 14.5,16.3 14.6,16.4 14.8,16.5 14.9,16.6 15,16.8 15.1,16.9 15.2,17 15.3,17.1 15.5,17.2 15.6,17.3 15.6,17.3 
		15.7,17.4 15.8,17.5 15.9,17.6 16.1,17.7 16.2,17.8 16.3,17.9 16.4,18 16.5,18.1 16.7,18.2 16.7,18.3 16.8,18.3 16.9,18.4 
		17.1,18.5 17.2,18.6 17.3,18.7 17.4,18.8 17.6,18.9 17.7,19 17.8,19.1 17.8,19.1 17.8,19.1 18.3,19.6 18.4,20.2 17.8,21.5 
		17.8,21.5 16.6,22 16,21.9 15.5,21.5 15.5,21.4 15.4,21.3 15.3,21.2 15.2,21 15.1,20.9 15,20.8 14.9,20.6 14.8,20.5 14.7,20.3 
		14.5,20.1 14.4,20 14.3,19.8 14.2,19.7 14.1,19.6 14,19.4 13.9,19.3 13.8,19.2 13.7,19 13.6,18.9 13.5,18.8 13.4,18.6 13.3,18.5 
		13.2,18.4 13,18.1 12.8,17.9 12.7,17.7 12.7,17.7 12.6,17.6 12.4,17.3 12.2,17.1 12,16.8 11.8,16.6 11.7,16.4 11.5,16.2 11.4,16 
		11.3,15.9 11.1,15.6 10.9,15.4 10.7,15.2 10.7,15.1 10.5,14.9 10.3,14.6 10.1,14.4 10,14.2 9.9,14.1 9.7,13.8 9.5,13.6 9.3,13.3 
		9.1,13.1 8.9,12.8 8.7,12.5 8.6,12.4 8.5,12.3 8.3,12 8.1,11.8 7.9,11.5 7.8,11.4 7.7,11.2 7.5,11 7.3,10.7 7.1,10.4 6.9,10.2 
		6.9,10.2 6.7,9.9 6.5,9.7 6.3,9.4 6.1,9.1 5.9,8.9 5.9,8.9 5.7,8.6 5.5,8.3 5.3,8.1 5.1,7.8 5,7.6 4.9,7.5 4.7,7.3 4.5,7 4.3,6.8 
		4.1,6.5 3.9,6.2 3.7,6 3.5,5.7 3.4,5.5 3.3,5.4 3.1,5.2 2.9,4.9 2.8,4.7 2.7,4.7 2.5,3.7 	"/>
</g>
</svg>
