<?xml version="1.0" encoding="utf-8"?>
<!-- Generator: Adobe Illustrator 14.0.0, SVG Export Plug-In . SVG Version: 6.00 Build 43363)  -->
<!DOCTYPE svg PUBLIC "-//W3C//DTD SVG 1.1//EN" "http://www.w3.org/Graphics/SVG/1.1/DTD/svg11.dtd">
<svg version="1.1" id="Layer_1" xmlns="http://www.w3.org/2000/svg" xmlns:xlink="http://www.w3.org/1999/xlink" x="0px" y="0px"
	 width="39.098px" height="39.098px" viewBox="0 0 39.098 39.098" enable-background="new 0 0 39.098 39.098" xml:space="preserve">
<g>
	<g>
		<g>
			<path fill="#0071BB" d="M19.549,38.598c10.521,0,19.049-8.529,19.049-19.049S30.07,0.5,19.549,0.5
				C9.029,0.5,0.5,9.029,0.5,19.549S9.029,38.598,19.549,38.598"/>
		</g>
		<g>
			<path fill="#FFFFFF" d="M19.549,39.098C8.77,39.098,0,30.328,0,19.549S8.77,0,19.549,0s19.549,8.77,19.549,19.549
				S30.328,39.098,19.549,39.098L19.549,39.098z M19.549,1C9.321,1,1,9.321,1,19.549s8.321,18.549,18.549,18.549
				s18.549-8.321,18.549-18.549S29.776,1,19.549,1L19.549,1z"/>
		</g>
	</g>
	<g>
		<path fill="#FFFFFF" d="M20.324,32.21H9.561c-0.276,0-0.5-0.224-0.5-0.5V7.046c0-0.276,0.224-0.5,0.5-0.5h14.27
			c0.134,0,0.262,0.054,0.355,0.148l5.205,5.261c0.093,0.094,0.145,0.22,0.145,0.352v7.75c0,0.276-0.224,0.5-0.5,0.5
			s-0.5-0.224-0.5-0.5v-7.545l-4.914-4.966H10.061V31.21h10.264c0.276,0,0.5,0.224,0.5,0.5S20.601,32.21,20.324,32.21L20.324,32.21z
			"/>
	</g>
	<g>
		<path fill="#FFFFFF" d="M28.143,12.537h-4.275c-0.276,0-0.5-0.224-0.5-0.5V7.852c0-0.276,0.224-0.5,0.5-0.5s0.5,0.224,0.5,0.5
			v3.686h3.775c0.276,0,0.5,0.224,0.5,0.5S28.419,12.537,28.143,12.537L28.143,12.537z"/>
	</g>
	<g>
		<path fill="#FFFFFF" d="M14.771,13.229h-2.758c-0.138,0-0.25-0.112-0.25-0.25V10.22c0-0.138,0.112-0.25,0.25-0.25h2.758
			c0.138,0,0.25,0.112,0.25,0.25v2.759C15.021,13.116,14.909,13.229,14.771,13.229L14.771,13.229z M12.264,12.729h2.258V10.47
			h-2.258V12.729L12.264,12.729z"/>
	</g>
	<g>
		<path fill="#FFFFFF" d="M14.771,22.291h-2.758c-0.138,0-0.25-0.112-0.25-0.25v-2.759c0-0.138,0.112-0.25,0.25-0.25h2.758
			c0.138,0,0.25,0.112,0.25,0.25v2.759C15.021,22.179,14.909,22.291,14.771,22.291L14.771,22.291z M12.264,21.791h2.258v-2.259
			h-2.258V21.791L12.264,21.791z"/>
	</g>
	<g>
		<path fill="#FFFFFF" d="M14.771,17.76h-2.758c-0.138,0-0.25-0.112-0.25-0.25v-2.759c0-0.138,0.112-0.25,0.25-0.25h2.758
			c0.138,0,0.25,0.112,0.25,0.25v2.759C15.021,17.647,14.909,17.76,14.771,17.76L14.771,17.76z M12.264,17.26h2.258v-2.259h-2.258
			V17.26L12.264,17.26z"/>
	</g>
	<g>
		<path fill="#FFFFFF" d="M14.771,26.824h-2.758c-0.138,0-0.25-0.112-0.25-0.25v-2.76c0-0.138,0.112-0.25,0.25-0.25h2.758
			c0.138,0,0.25,0.112,0.25,0.25v2.76C15.021,26.712,14.909,26.824,14.771,26.824L14.771,26.824z M12.264,26.324h2.258v-2.26h-2.258
			V26.324L12.264,26.324z"/>
	</g>
	<g>
		<g>
			<path fill="#FFFFFF" d="M21.369,12.346l-4.18-0.001c-0.35-0.033-0.965-0.304-0.965-1.104c0-0.986,0.679-1.247,1.037-1.247h4
				c0.001,0,0.002,0,0.003,0c0.565,0,1.177,0.309,1.177,1.176c0,0.572-0.251,0.858-0.461,0.998
				C21.746,12.323,21.497,12.346,21.369,12.346L21.369,12.346z M21.303,10.493l-4.041,0.001c-0.088,0.002-0.537,0.047-0.537,0.747
				c0,0.542,0.438,0.6,0.489,0.604l4.118-0.001l0.037,0.001c0.045,0,0.202-0.007,0.335-0.095c0.157-0.104,0.237-0.3,0.237-0.581
				C21.941,10.581,21.541,10.493,21.303,10.493L21.303,10.493z"/>
		</g>
		<g>
			<path fill="#FFFFFF" d="M26.309,16.812L26.309,16.812l-9.119-0.001c-0.35-0.033-0.965-0.304-0.965-1.104
				c0-0.986,0.679-1.247,1.037-1.247h8.936c0.001,0,0.002,0,0.003,0c0.565,0,1.177,0.309,1.177,1.177
				c0,0.571-0.249,0.857-0.458,0.996C26.686,16.788,26.437,16.812,26.309,16.812L26.309,16.812z M26.237,14.959l-8.976,0.001
				c-0.088,0.002-0.537,0.047-0.537,0.747c0,0.521,0.409,0.596,0.491,0.604l9.054-0.001l0.039,0.001
				c0.045,0,0.201-0.007,0.333-0.095c0.156-0.104,0.235-0.299,0.235-0.58C26.877,15.047,26.477,14.959,26.237,14.959L26.237,14.959z
				"/>
		</g>
		<g>
			<path fill="#FFFFFF" d="M25.735,21.392l-8.546-0.001c-0.35-0.033-0.965-0.305-0.965-1.104c0-0.986,0.679-1.247,1.037-1.247h8.363
				c0.001,0,0.002,0,0.003,0c0.565,0,1.177,0.309,1.177,1.175c0,0.572-0.25,0.858-0.459,0.998
				C26.112,21.368,25.863,21.392,25.735,21.392L25.735,21.392z M25.665,19.539l-8.403,0.001c-0.088,0.002-0.537,0.047-0.537,0.747
				c0,0.521,0.409,0.596,0.491,0.604l8.481-0.001l0.038,0.001c0.045,0,0.201-0.007,0.333-0.095c0.157-0.104,0.236-0.3,0.236-0.582
				C26.305,19.627,25.904,19.539,25.665,19.539L25.665,19.539z"/>
		</g>
		<g>
			<path fill="#FFFFFF" d="M21.369,25.899l-4.18-0.001c-0.35-0.033-0.965-0.305-0.965-1.104c0-0.987,0.679-1.248,1.037-1.248h4
				c0.001,0,0.002,0,0.003,0c0.564,0,1.177,0.309,1.177,1.177c0,0.572-0.251,0.858-0.461,0.998
				C21.746,25.877,21.497,25.899,21.369,25.899L21.369,25.899z M21.301,24.046l-4.039,0.001c-0.088,0.002-0.537,0.048-0.537,0.748
				c0,0.541,0.439,0.6,0.489,0.604l4.118-0.001l0.037,0.001c0.045,0,0.202-0.007,0.335-0.095c0.157-0.104,0.237-0.3,0.237-0.581
				C21.941,24.134,21.54,24.046,21.301,24.046L21.301,24.046z"/>
		</g>
		<g>
			<path fill="#0071BB" d="M25.289,33.498c3.943,0,7.141-3.198,7.141-7.143c0-3.941-3.197-7.139-7.141-7.139
				c-3.945,0-7.143,3.197-7.143,7.139C18.146,30.3,21.344,33.498,25.289,33.498"/>
		</g>
		<g>
			<path fill="#FFFFFF" d="M25.289,33.998c-4.214,0-7.643-3.429-7.643-7.643c0-4.212,3.429-7.639,7.643-7.639
				c4.213,0,7.641,3.427,7.641,7.639C32.93,30.569,29.502,33.998,25.289,33.998L25.289,33.998z M25.289,19.717
				c-3.663,0-6.643,2.979-6.643,6.639c0,3.663,2.979,6.643,6.643,6.643c3.662,0,6.641-2.979,6.641-6.643
				C31.93,22.695,28.951,19.717,25.289,19.717L25.289,19.717z"/>
		</g>
	</g>
	<g>
		<polygon fill="#FFFFFF" points="23.484,27.554 21.912,27.554 25.199,31.629 28.594,27.554 26.844,27.554 26.844,21.621 
			23.484,21.621 		"/>
	</g>
	<g>
		<path fill="#FFFFFF" d="M25.199,31.879c-0.063,0.011-0.146-0.035-0.194-0.093l-3.287-4.075c-0.061-0.075-0.072-0.178-0.031-0.265
			c0.042-0.087,0.129-0.143,0.226-0.143h1.322v-5.683c0-0.138,0.112-0.25,0.25-0.25h3.359c0.138,0,0.25,0.112,0.25,0.25v5.683h1.5
			c0.097,0,0.186,0.056,0.227,0.144s0.027,0.192-0.034,0.267l-3.395,4.075C25.344,31.846,25.273,31.879,25.199,31.879L25.199,31.879
			z M22.435,27.804l2.768,3.431l2.858-3.431h-1.217c-0.138,0-0.25-0.112-0.25-0.25v-5.683h-2.859v5.683
			c0,0.138-0.112,0.25-0.25,0.25H22.435L22.435,27.804z"/>
	</g>
</g>
</svg>
