<?xml version="1.0" encoding="utf-8"?>
<!-- Generator: Adobe Illustrator 26.0.1, SVG Export Plug-In . SVG Version: 6.00 Build 0)  -->
<svg version="1.1" xmlns="http://www.w3.org/2000/svg" xmlns:xlink="http://www.w3.org/1999/xlink" x="0px" y="0px"
	 viewBox="0 0 32.6 32.6" style="enable-background:new 0 0 32.6 32.6;" xml:space="preserve">
<style type="text/css">
	.st0{opacity:0.3;}
	.st1{fill:#FFFFFF;}
	.st2{clip-path:url(#SVGID_00000037669451958872667710000006920217624866894485_);}
	.st3{fill:#005CA9;}
	.st4{fill:none;stroke:#FFFFFF;stroke-width:0.8;}
	.st5{fill:#E2DEF0;}
</style>
<g id="Capa_2">
	<path class="st0" d="M17.4,32.2c8.2,0,14.9-6.7,14.9-14.9S25.7,2.4,17.4,2.4C9.2,2.4,2.5,9,2.5,17.2C2.5,25.5,9.1,32.2,17.4,32.2
		C17.4,32.2,17.4,32.2,17.4,32.2"/>
</g>
<g id="Capa_3">
	<path class="st1" d="M16.3,31.2c8.2,0,14.9-6.7,14.9-14.9S24.6,1.4,16.3,1.4C8.1,1.4,1.4,8,1.4,16.3C1.4,24.5,8,31.2,16.3,31.2
		C16.3,31.2,16.3,31.2,16.3,31.2"/>
</g>
<g id="Capa_1">
	<g>
		<g id="Capa_1_00000056420585870289848680000000086600365550201743_">
			<g>
				<g>
					<g>
						<defs>
							<rect id="SVGID_1_" x="2.1" y="2.1" width="28.4" height="28.4"/>
						</defs>
						<clipPath id="SVGID_00000146497835950866902850000011410999719748339353_">
							<use xlink:href="#SVGID_1_"  style="overflow:visible;"/>
						</clipPath>
						<g style="clip-path:url(#SVGID_00000146497835950866902850000011410999719748339353_);">
							<path class="st3" d="M16.3,30.1c7.6,0,13.8-6.2,13.8-13.8S23.9,2.6,16.3,2.6C8.7,2.6,2.6,8.7,2.5,16.3
								C2.5,23.9,8.6,30.1,16.3,30.1C16.3,30.1,16.3,30.1,16.3,30.1"/>
							<path class="st4" d="M16.3,30.1c7.6,0,13.8-6.2,13.8-13.8S23.9,2.6,16.3,2.6C8.7,2.6,2.6,8.7,2.5,16.3
								C2.5,23.9,8.6,30.1,16.3,30.1C16.3,30.1,16.3,30.1,16.3,30.1z"/>
							<path class="st1" d="M13.3,24.1c-0.1,0-0.3,0-0.4-0.1c-0.3-0.1-0.4-0.4-0.4-0.7V9.3c0-0.5,0.4-0.8,0.8-0.8
								c0.2,0,0.3,0.1,0.5,0.1l9.7,7c0.2,0.1,0.3,0.4,0.3,0.6c0,0.3-0.1,0.5-0.3,0.7l-9.7,7C13.6,24,13.4,24.1,13.3,24.1"/>
							<path class="st5" d="M12.5,16.3v7c0,0.4,0.4,0.8,0.8,0.8c0.2,0,0.3-0.1,0.5-0.2l9.7-7c0.2-0.2,0.3-0.4,0.3-0.7L12.5,16.3z"/>
						</g>
					</g>
				</g>
			</g>
		</g>
	</g>
</g>
</svg>
