<?xml version="1.0" encoding="utf-8"?>
<!-- Generator: Adobe Illustrator 25.4.5, SVG Export Plug-In . SVG Version: 6.00 Build 0)  -->
<svg version="1.1" id="Capa_1" xmlns="http://www.w3.org/2000/svg" xmlns:xlink="http://www.w3.org/1999/xlink" x="0px" y="0px"
	 viewBox="0 0 297 300" style="enable-background:new 0 0 297 300;" xml:space="preserve">
<style type="text/css">
	.st0{fill:#FFFFFF;}
	.st1{fill:none;}
	.st2{fill:#1E2229;}
	.st3{fill:#FFFFFF;stroke:#1E2229;stroke-width:2;stroke-miterlimit:10;}
	.st4{fill:#EBEBEB;stroke:#1E2229;stroke-width:2;stroke-miterlimit:10;}
	.st5{fill:none;stroke:#1E2229;stroke-width:2;stroke-miterlimit:10;}
</style>
<rect x="-0.5" y="-6" class="st0" width="296.4" height="312"/>
<rect x="12.9" y="70" class="st0" width="164.6" height="62.3"/>
<g>
	<g>
		<g>
			<rect x="2.5" y="68.8" class="st1" width="289.2" height="27.2"/>
			<path class="st2" d="M70.8,75.5c2.1,0.6,3.6,1.4,4.5,2.3c0.8,0.9,1.3,2,1.3,3.5c0,3.4-2.2,5.1-6.6,5.1c-1.4,0-2.7-0.2-3.8-0.7
				c-0.4-0.1-0.6-0.4-0.8-0.7c-0.2-0.4-0.3-0.7-0.3-1.2v-1.2c0-0.3,0.1-0.5,0.4-0.6c0.2-0.1,0.5-0.1,0.8,0c1.2,0.6,2.4,0.9,3.6,0.9
				c1.4,0,2.1-0.5,2.1-1.4c0-0.4-0.1-0.8-0.3-1c-0.2-0.2-0.6-0.4-1.2-0.6c-2-0.6-3.5-1.4-4.4-2.4s-1.3-2.1-1.3-3.5
				c0-1.5,0.5-2.7,1.6-3.5c1.1-0.9,2.6-1.3,4.7-1.3c1.5,0,2.8,0.2,3.9,0.5c0.4,0.1,0.7,0.3,0.9,0.7c0.2,0.3,0.3,0.7,0.3,1.1v1.1
				c0,0.3-0.1,0.5-0.4,0.7s-0.5,0.2-0.8,0.1c-1.4-0.4-2.6-0.7-3.7-0.7c-1.3,0-1.9,0.4-1.9,1.3C69.2,74.6,69.8,75.2,70.8,75.5z"/>
			<path class="st2" d="M90.9,69.3c0.4,0,0.7,0.1,0.9,0.4s0.4,0.6,0.4,0.9v9.3c0,2.1-0.6,3.8-1.7,4.8c-1.1,1.1-2.8,1.6-5,1.6
				s-3.8-0.5-5-1.6c-1.1-1.1-1.7-2.7-1.7-4.8v-9.3c0-0.4,0.1-0.7,0.4-0.9s0.6-0.4,0.9-0.4h2c0.4,0,0.7,0.1,0.9,0.4
				c0.3,0.3,0.4,0.6,0.4,0.9v9.6c0,0.9,0.2,1.5,0.5,1.9s0.9,0.5,1.6,0.5s1.3-0.2,1.6-0.5c0.3-0.4,0.5-1,0.5-1.9v-9.6
				c0-0.4,0.1-0.7,0.4-0.9s0.6-0.4,0.9-0.4H90.9z"/>
			<path class="st2" d="M103.9,77.2c1.2,0.2,2.1,0.6,2.8,1.4c0.7,0.8,1.1,1.6,1.1,2.6c0,1.7-0.6,3-1.7,3.8s-2.9,1.2-5.4,1.2
				c-1.3,0-2.6-0.1-4-0.2c-0.4,0-0.7-0.2-0.9-0.5c-0.3-0.3-0.4-0.6-0.4-1V70.6c0-0.4,0.1-0.7,0.4-1c0.2-0.3,0.6-0.5,0.9-0.5
				c1.3-0.1,2.6-0.2,3.8-0.2c4.6,0,6.9,1.5,6.9,4.4c0,1-0.3,1.8-0.9,2.5S104.9,77,103.9,77.2L103.9,77.2L103.9,77.2z M99.8,72.8v2.8
				c0,0.1,0.1,0.2,0.2,0.2h0.5c1.8,0,2.6-0.6,2.6-1.7s-0.8-1.6-2.3-1.6c-0.3,0-0.6,0-0.9,0.1C99.9,72.6,99.8,72.7,99.8,72.8z
				 M100.9,82.9c0.9,0,1.6-0.2,2-0.5s0.6-0.9,0.6-1.6c0-1.2-0.8-1.7-2.5-1.7h-0.9c-0.1,0-0.2,0.1-0.2,0.2v3.3c0,0.1,0.1,0.2,0.2,0.3
				C100.3,82.8,100.6,82.9,100.9,82.9z"/>
			<path class="st2" d="M114.1,69.3c0.4,0,0.7,0.1,0.9,0.4s0.4,0.6,0.4,0.9v14.2c0,0.4-0.1,0.7-0.4,0.9s-0.6,0.4-0.9,0.4h-2.4
				c-0.4,0-0.7-0.1-0.9-0.4s-0.4-0.6-0.4-0.9V70.6c0-0.4,0.1-0.7,0.4-0.9s0.6-0.4,0.9-0.4C111.7,69.3,114.1,69.3,114.1,69.3z"/>
			<path class="st2" d="M130.7,81.5l1.2,3.4c0.1,0.3,0.1,0.6-0.1,0.8c-0.2,0.3-0.4,0.4-0.8,0.4h-2.1c-0.4,0-0.8-0.1-1.1-0.3
				c-0.3-0.2-0.5-0.5-0.6-0.9l-1-3.1c-0.2-0.5-0.4-0.9-0.6-1.2c-0.3-0.2-0.6-0.3-1-0.3h-0.8c-0.1,0-0.2,0.1-0.2,0.2v4.3
				c0,0.4-0.1,0.7-0.4,0.9c-0.3,0.3-0.6,0.4-0.9,0.4h-1.9c-0.4,0-0.7-0.1-0.9-0.4c-0.3-0.3-0.4-0.6-0.4-0.9V70.7
				c0-0.4,0.1-0.7,0.4-1c0.2-0.3,0.5-0.4,0.9-0.5c1.5-0.1,3.1-0.2,4.7-0.2c4.6,0,6.9,1.7,6.9,5.2c0,1-0.3,1.9-0.9,2.7
				s-1.4,1.4-2.3,1.8l0,0l0,0c0.5,0.3,0.8,0.6,1.1,1S130.4,80.7,130.7,81.5z M124.7,76.9c0.8,0,1.4-0.2,1.9-0.6s0.7-0.9,0.7-1.6
				c0-1.5-0.8-2.2-2.5-2.2c-0.4,0-0.7,0-1.1,0.1c-0.1,0-0.2,0.1-0.2,0.3v3.8c0,0.1,0.1,0.2,0.2,0.2
				C123.7,76.9,124.7,76.9,124.7,76.9z"/>
			<path class="st2" d="M145.2,69.3c0.4,0,0.7,0.1,0.9,0.4s0.4,0.6,0.4,0.9v14.2c0,0.4-0.1,0.7-0.4,0.9s-0.6,0.4-0.9,0.4h-2.4
				c-0.4,0-0.7-0.1-0.9-0.4s-0.4-0.6-0.4-0.9V70.6c0-0.4,0.1-0.7,0.4-0.9s0.6-0.4,0.9-0.4C142.8,69.3,145.2,69.3,145.2,69.3z"/>
			<path class="st2" d="M165.4,69.3c0.4,0,0.7,0.1,0.9,0.4c0.3,0.3,0.4,0.6,0.4,0.9v14.2c0,0.4-0.1,0.7-0.4,0.9
				c-0.3,0.3-0.6,0.4-0.9,0.4h-1.7c-0.4,0-0.7-0.1-0.9-0.4s-0.4-0.6-0.4-0.9v-7.9l0,0l0,0l-1.7,4.5c-0.1,0.4-0.4,0.7-0.7,0.9
				c-0.3,0.2-0.7,0.3-1.1,0.3h-1.1c-0.4,0-0.8-0.1-1.1-0.3c-0.3-0.2-0.6-0.5-0.7-0.9l-1.7-4.5l0,0l0,0v7.9c0,0.4-0.1,0.7-0.4,0.9
				c-0.3,0.3-0.6,0.4-0.9,0.4h-1.6c-0.4,0-0.7-0.1-0.9-0.4c-0.3-0.3-0.4-0.6-0.4-0.9V70.6c0-0.4,0.1-0.7,0.4-0.9
				c0.3-0.3,0.6-0.4,0.9-0.4h2c0.4,0,0.8,0.1,1.1,0.3c0.3,0.2,0.5,0.5,0.7,0.9l3.1,8.7l0,0l0,0l3.1-8.7c0.1-0.4,0.3-0.7,0.7-0.9
				c0.3-0.2,0.7-0.3,1.1-0.3C163.2,69.3,165.4,69.3,165.4,69.3z"/>
			<path class="st2" d="M179,70.5l4.5,14.3c0.1,0.3,0,0.6-0.1,0.9c-0.2,0.3-0.4,0.4-0.8,0.4h-2.3c-0.4,0-0.7-0.1-1-0.4
				c-0.3-0.2-0.5-0.5-0.6-0.9l-0.4-1.8c0-0.1-0.1-0.2-0.2-0.2h-3.9c-0.2,0-0.2,0.1-0.3,0.2l-0.4,1.8c-0.1,0.4-0.3,0.7-0.6,0.9
				c-0.3,0.2-0.6,0.4-1,0.4h-2.2c-0.3,0-0.6-0.1-0.8-0.4c-0.2-0.3-0.2-0.5-0.1-0.9l4.5-14.3c0.1-0.4,0.3-0.7,0.6-0.9
				c0.3-0.2,0.7-0.3,1.1-0.3h2.2c0.4,0,0.7,0.1,1,0.3C178.7,69.8,178.9,70.1,179,70.5z M175,79.4h2.4c0,0,0.1,0,0.1-0.1v-0.1l-1.3-6
				l0,0l0,0l-1.3,6L175,79.4C174.9,79.4,175,79.4,175,79.4z"/>
			<path class="st2" d="M197,75.7c0.4,0,0.7,0.1,0.9,0.4c0.3,0.3,0.4,0.6,0.4,0.9v7c0,0.4-0.1,0.8-0.3,1.1c-0.2,0.3-0.5,0.5-0.9,0.6
				c-1.4,0.4-2.9,0.6-4.5,0.6c-2.7,0-4.8-0.8-6.4-2.3s-2.4-3.6-2.4-6.4c0-2.7,0.8-4.9,2.3-6.4s3.7-2.3,6.5-2.3
				c1.1,0,2.3,0.1,3.5,0.3c0.4,0.1,0.7,0.2,0.9,0.6c0.2,0.3,0.4,0.7,0.4,1v1.1c0,0.3-0.1,0.6-0.4,0.8s-0.5,0.3-0.9,0.2
				c-1.1-0.2-2.1-0.4-3-0.4c-1.6,0-2.8,0.4-3.5,1.2c-0.8,0.8-1.1,2.1-1.1,3.8s0.4,3,1.1,3.8s1.8,1.2,3.2,1.2c0.3,0,0.6,0,0.9-0.1
				c0.1,0,0.2-0.1,0.2-0.3v-2.9c0-0.1-0.1-0.2-0.2-0.2h-1.5c-0.4,0-0.7-0.1-0.9-0.4c-0.3-0.3-0.4-0.6-0.4-0.9v-0.8
				c0-0.4,0.1-0.7,0.4-0.9s0.6-0.4,0.9-0.4L197,75.7L197,75.7z"/>
			<path class="st2" d="M211.3,69.3c0.4,0,0.7,0.1,0.9,0.4s0.4,0.6,0.4,0.9v1.1c0,0.4-0.1,0.7-0.4,0.9s-0.6,0.4-0.9,0.4h-4.9
				c-0.1,0-0.2,0.1-0.2,0.2v2.4c0,0.1,0.1,0.2,0.2,0.2h4.5c0.4,0,0.7,0.1,0.9,0.4s0.4,0.6,0.4,0.9v0.8c0,0.4-0.1,0.7-0.4,0.9
				c-0.3,0.3-0.6,0.4-0.9,0.4h-4.5c-0.1,0-0.2,0.1-0.2,0.2v2.8c0,0.1,0.1,0.2,0.2,0.2h4.9c0.4,0,0.7,0.1,0.9,0.4s0.4,0.6,0.4,0.9
				v1.1c0,0.4-0.1,0.7-0.4,0.9s-0.6,0.4-0.9,0.4h-8.4c-0.4,0-0.7-0.1-0.9-0.4c-0.3-0.3-0.4-0.6-0.4-0.9V70.6c0-0.4,0.1-0.7,0.4-0.9
				c0.3-0.3,0.6-0.4,0.9-0.4L211.3,69.3L211.3,69.3z"/>
			<path class="st2" d="M227.8,69.3c0.4,0,0.7,0.1,0.9,0.4c0.3,0.3,0.4,0.6,0.4,0.9v14.2c0,0.4-0.1,0.7-0.4,0.9
				c-0.3,0.3-0.6,0.4-0.9,0.4h-1.7c-0.9,0-1.5-0.4-1.9-1.2l-4-8l0,0l0,0v7.9c0,0.4-0.1,0.7-0.4,0.9c-0.3,0.3-0.6,0.4-0.9,0.4h-1.8
				c-0.4,0-0.7-0.1-0.9-0.4c-0.3-0.3-0.4-0.6-0.4-0.9V70.6c0-0.4,0.1-0.7,0.4-0.9c0.3-0.3,0.6-0.4,0.9-0.4h1.7
				c0.9,0,1.5,0.4,1.9,1.2l4,8l0,0l0,0v-7.9c0-0.4,0.1-0.7,0.4-0.9c0.3-0.3,0.6-0.4,0.9-0.4L227.8,69.3L227.8,69.3z"/>
		</g>
		<g>
			<path class="st3" d="M179,207.6l-70.5-0.6c-1.2,0-2.2-1-2.2-2.2v-57.1c0-1.2,1-2.2,2.2-2.2h80.9c1.2,0,2.2,1,2.2,2.2v49.5
				L179,207.6z"/>
			<circle class="st4" cx="119.4" cy="158" r="6.7"/>
			<g>
				<path class="st5" d="M106.2,191.3l29.5-21.9c0.3-0.2,0.8-0.2,1,0.1l11.4,10.9"/>
				<path class="st5" d="M137.4,190.4l27.1-25.8c0.3-0.3,0.8-0.3,1.1,0l26.1,25.5"/>
			</g>
			<path class="st3" d="M191.2,196.4h-12c-0.3,0-0.5,0.2-0.5,0.5v10.4"/>
			<rect x="132.9" y="141.7" class="st0" width="28.1" height="22.7"/>
			<polygon class="st3" points="146.9,110 129,130.5 138.1,130.5 138.1,160.8 155.9,160.8 155.9,130.5 164.9,130.5 			"/>
			<rect x="136.3" y="159.6" class="st0" width="21.4" height="6"/>
		</g>
	</g>
	<g>
		<path d="M116,222.7c-0.2,0.3-0.5,0.4-0.7,0.4c-0.3,0-0.5-0.1-0.7-0.4l-1.3-2.4v5.4c0,0.4-0.5,0.7-1.1,0.7s-1.1-0.2-1.1-0.7v-8.5
			c0-0.8,0.5-1.1,1.1-1.1c0.8,0,1.1,0.1,1.7,1.1l1.4,2.5l1.4-2.5c0.6-1,0.9-1.1,1.7-1.1c0.6,0,1.1,0.3,1.1,1.1v8.5
			c0,0.4-0.5,0.7-1.1,0.7s-1.1-0.2-1.1-0.7v-5.3L116,222.7z"/>
		<path d="M126.5,222.3v3.3c0,0.4-0.4,0.7-1.1,0.7c-0.5,0-1-0.3-1-0.7v-0.3c-0.5,0.6-1.1,1.1-2.1,1.1c-1,0-1.8-0.6-1.8-1.9
			c0-1.7,1.3-2.1,3.3-2.1h0.5v-0.1c0-0.5-0.3-1-1.1-1c-1.1,0-1.3,0.5-1.6,0.5c-0.5,0-0.7-0.6-0.7-1.1c0-0.7,1.4-1.1,2.4-1.1
			C125.6,219.6,126.5,220.9,126.5,222.3z M123.2,218.4c-0.1,0-0.1,0.1-0.2,0.1c-0.4,0-0.6-0.4-0.6-0.8c0-0.2,0.1-0.4,0.3-0.5l2-0.9
			c0.1,0,0.1,0,0.2,0c0.4,0,0.7,0.4,0.7,0.8c0,0.2-0.1,0.4-0.3,0.5L123.2,218.4z M124.3,223.5L124.3,223.5c-0.9,0-1.6,0.1-1.6,0.8
			c0,0.4,0.2,0.6,0.5,0.6C123.7,224.9,124.3,224.3,124.3,223.5L124.3,223.5z"/>
		<path d="M127.4,225l1.6-2.1l-1.4-1.9c-0.1-0.1-0.1-0.2-0.1-0.4c0-0.5,0.9-1.1,1.5-1.1c0.1,0,0.3,0,0.5,0.2l1.1,1.8l1.1-1.8
			c0.1-0.2,0.3-0.2,0.5-0.2c0.5,0,1.4,0.6,1.4,1.1c0,0.1,0,0.2-0.1,0.4l-1.4,1.9l1.6,2.1c0.1,0.1,0.1,0.2,0.1,0.4
			c0,0.5-0.9,1.1-1.4,1.1c-0.2,0-0.4-0.1-0.5-0.2l-1.3-1.9l-1.3,1.9c-0.1,0.2-0.4,0.2-0.5,0.2c-0.4,0-1.4-0.6-1.4-1.1
			C127.3,225.3,127.4,225.1,127.4,225z"/>
		<path d="M136.8,217.4c0,0.5-0.5,1-1.1,1c-0.6,0-1.1-0.5-1.1-1s0.5-1,1.1-1C136.3,216.4,136.8,216.8,136.8,217.4z M136.8,220.3v5.3
			c0,0.3-0.5,0.7-1.1,0.7c-0.6,0-1.1-0.3-1.1-0.7v-5.3c0-0.4,0.4-0.7,1.1-0.7C136.3,219.7,136.8,219.9,136.8,220.3z"/>
		<path d="M142,222.5c0-0.7-0.5-1.1-1-1.1c-0.4,0-0.9,0.3-0.9,1v3.1c0,0.3-0.5,0.7-1.1,0.7c-0.6,0-1.1-0.3-1.1-0.7v-5.3
			c0-0.4,0.4-0.7,1.1-0.7c0.5,0,1,0.3,1,0.7v0.3c0.3-0.5,0.9-1.1,1.8-1.1c0.8,0,1.4,0.6,1.7,1.4c0.5-1,1.3-1.4,2.1-1.4
			c1.3,0,2.5,1.1,2.5,2.9v3.1c0,0.3-0.5,0.7-1.1,0.7c-0.6,0-1.1-0.3-1.1-0.7v-3.1c0-0.7-0.5-1.1-0.9-1.1c-0.4,0-0.9,0.4-0.9,1.1v3.2
			c0,0.5-0.5,0.7-1.1,0.7c-0.5,0-1.1-0.2-1.1-0.7V222.5z"/>
		<path d="M155.5,222.5v1c0,1.6-1.5,3-3.2,3s-3.2-1.4-3.2-3v-1c0-1.6,1.4-2.9,3.2-2.9C154,219.6,155.5,220.9,155.5,222.5z
			 M153.3,222.5c0-0.5-0.5-1-1-1s-1,0.5-1,1v1c0,0.6,0.4,1.1,1,1.1s1-0.5,1-1.1V222.5z"/>
		<path d="M162.3,219.9c1.9,0,3.4,0.8,3.4,3.1v0.3c0,2.3-1.5,3.2-3.4,3.2c-2.3,0-3.5-1.3-3.5-2.6c0-0.8,0.4-1,1.1-1
			c1,0,1.1,0.4,1.1,0.8c0,0.6,0.5,0.9,1.2,0.9c0.8,0,1.3-0.4,1.3-1.3v-0.3c0-0.9-0.5-1.4-1.2-1.4h-2.1c-0.6,0-0.8-0.3-0.8-0.9
			c0-0.1,0-0.3,0-0.4l0.4-3.5c0-0.4,0.2-0.7,0.4-0.7h4.5c0.4,0,0.6,0.5,0.6,1s-0.2,1-0.6,1h-3.1l-0.1,1.9H162.3z"/>
		<path d="M174.5,222.7c-0.2,0.3-0.5,0.4-0.7,0.4c-0.3,0-0.5-0.1-0.7-0.4l-1.3-2.4v5.4c0,0.4-0.5,0.7-1.1,0.7
			c-0.5,0-1.1-0.2-1.1-0.7v-8.5c0-0.8,0.5-1.1,1.1-1.1c0.8,0,1.1,0.1,1.7,1.1l1.4,2.5l1.4-2.5c0.6-1,0.9-1.1,1.7-1.1
			c0.6,0,1.1,0.3,1.1,1.1v8.5c0,0.4-0.5,0.7-1.1,0.7c-0.5,0-1.1-0.2-1.1-0.7v-5.3L174.5,222.7z"/>
		<path d="M179.5,216.8c0-0.4,0.5-0.7,1-0.7h2.9c1.4,0,2.8,0.5,2.8,2.5c0,1.1-0.4,1.9-1.2,2.2c0.9,0.3,1.4,0.8,1.4,2.2v0.3
			c0,2.2-1.2,3-2.8,3h-3.1c-0.6,0-1-0.3-1-0.7V216.8z M181.7,219.9h1.5c0.5,0,0.8-0.5,0.8-1c0-0.5-0.3-1-0.8-1h-1.5V219.9z
			 M183.1,224.4c0.7,0,1.1-0.4,1.1-1.3v-0.2c0-1-0.4-1.3-1.1-1.3h-1.4v2.8H183.1z"/>
	</g>
</g>
</svg>
