<?xml version="1.0" encoding="utf-8"?>
<!-- Generator: Adobe Illustrator 21.1.0, SVG Export Plug-In . SVG Version: 6.00 Build 0)  -->
<svg version="1.1" id="Capa_1" xmlns="http://www.w3.org/2000/svg" xmlns:xlink="http://www.w3.org/1999/xlink" x="0px" y="0px"
	 viewBox="0 0 119.2 67.3" style="enable-background:new 0 0 119.2 67.3;" xml:space="preserve">
<style type="text/css">
	.st0{clip-path:url(#SVGID_2_);fill:#FFFFFF;}
	.st1{clip-path:url(#SVGID_2_);fill:none;stroke:#1D1D1B;}
	.st2{clip-path:url(#SVGID_2_);fill:#1D1D1B;}
</style>
<g>
	<defs>
		<rect id="SVGID_1_" width="119.2" height="67.3"/>
	</defs>
	<clipPath id="SVGID_2_">
		<use xlink:href="#SVGID_1_"  style="overflow:visible;"/>
	</clipPath>
	<path class="st0" d="M6.2,0.5c0,0-5.7,0-5.7,5.7v55c0,0,0,5.7,5.7,5.7H113c0,0,5.7,0,5.7-5.7v-55c0,0,0-5.7-5.7-5.7H6.2"/>
	<path class="st1" d="M6.2,0.5c0,0-5.7,0-5.7,5.7v55c0,0,0,5.7,5.7,5.7H113c0,0,5.7,0,5.7-5.7v-55c0,0,0-5.7-5.7-5.7H6.2"/>
	<path class="st2" d="M105.2,11.9c0.5-0.5,0.9-0.8,1.2-0.8c0.2,0,0.3,0.1,0.3,0.4c0,0.6-0.8,1.4-2.5,2.4
		C104.4,13.1,104.7,12.4,105.2,11.9 M108.1,14.4c-0.1,0-0.2,0.1-0.3,0.2c-0.9,0.9-1.7,1.4-2.6,1.4c-0.4,0-0.6-0.1-0.8-0.3
		c-0.2-0.2-0.3-0.5-0.3-0.8c0-0.2,0.1-0.3,0.3-0.4c1-0.5,1.8-1.1,2.4-1.6c0.6-0.5,0.9-1.1,0.9-1.7c0-0.3-0.1-0.5-0.3-0.7
		c-0.2-0.2-0.4-0.3-0.7-0.3c-0.9,0-1.7,0.5-2.5,1.5c-0.8,1-1.1,2.1-1.1,3.2c0,0.7,0.2,1.2,0.5,1.6c0.3,0.4,0.8,0.6,1.5,0.6
		c0.8,0,1.5-0.3,2.2-0.8c0.7-0.6,1.1-1,1.1-1.4C108.3,14.5,108.2,14.4,108.1,14.4 M98.3,14.3l0-0.2c0-0.7,0.1-1.2,0.1-1.3
		c0-0.1,0.1-0.3,0.1-0.4c0-0.1,0.1-0.3,0.2-0.6c0.1-0.3,0.1-0.5,0.1-0.6c0-0.1,0-0.2-0.1-0.3c-0.1-0.1-0.2-0.1-0.3-0.1
		c-0.1,0-0.3,0.1-0.4,0.2c-0.1,0.1-0.2,0.2-0.3,0.3c0,0.1-0.1,0.3-0.1,0.6c0,0.3,0,0.4-0.1,0.5c-0.1,0.5-0.1,1-0.1,1.8
		c0,0.6,0,1,0,1.2c0,0.7,0,1.2,0.1,1.4s0.2,0.4,0.4,0.4c0.2,0,0.4,0,0.5-0.1c0.1-0.1,0.2-0.3,0.2-0.6c0.2-1.2,0.6-2.3,1.3-3.3
		c0.7-1,1.3-1.5,1.7-1.5c0.2,0,0.3,0.1,0.4,0.2c0.1,0.1,0.3,0.2,0.5,0.2c0.2,0,0.3,0,0.3-0.1c0.1-0.1,0.1-0.2,0.1-0.3
		c0-0.3-0.1-0.5-0.3-0.7c-0.2-0.2-0.5-0.3-0.8-0.3c-0.2,0-0.3,0-0.5,0.1c-0.2,0.1-0.4,0.2-0.6,0.3c-0.2,0.2-0.5,0.4-0.7,0.7
		c-0.3,0.3-0.5,0.6-0.7,1c-0.2,0.3-0.5,0.8-0.7,1.4c-0.1,0.1-0.1,0.2-0.1,0.3V14.3z M92.6,12.7c0.8-0.9,1.4-1.3,2-1.3
		c0.1,0,0.2,0.1,0.3,0.2c0.1,0.1,0.1,0.3,0.1,0.5c0,0.5-0.2,1-0.5,1.7c-0.4,0.7-0.8,1.2-1.3,1.6c-0.5,0.4-1,0.6-1.4,0.6
		c-0.3,0-0.5-0.2-0.7-0.6C91.2,14.5,91.8,13.6,92.6,12.7 M92.1,9c0.3-0.8,0.5-1.4,0.5-1.9c0-0.5-0.1-0.7-0.4-0.7
		c-0.2,0-0.3,0-0.4,0.1c-0.1,0.1-0.2,0.3-0.3,0.6c-0.1,0.3-0.2,1-0.5,2.2l-0.6,3.5C90.1,14,90,14.7,90,15.1c0,0.2,0.1,0.4,0.3,0.5
		c0.1,0.1,0.1,0.2,0.2,0.4c0,0.2,0.2,0.4,0.4,0.6c0.2,0.2,0.5,0.2,0.8,0.2c1,0,2-0.5,2.9-1.6c0.9-1.1,1.4-2.2,1.4-3.4
		c0-0.4-0.1-0.8-0.3-1c-0.2-0.3-0.5-0.4-0.8-0.4c-0.6,0-1.2,0.3-1.9,0.8c-0.7,0.6-1.3,1.3-1.8,2.2C91.5,11.3,91.8,9.8,92.1,9
		 M82.5,14.3c0,0.7,0.1,1.2,0.1,1.4c0,0.2,0.1,0.4,0.3,0.5c0.1,0.1,0.3,0.2,0.5,0.2c0.2,0,0.4-0.1,0.6-0.4c0.2-0.2,0.5-0.7,0.9-1.5
		c0.5-1,0.9-1.6,1.1-1.9c0.2-0.3,0.4-0.5,0.6-0.5c0.1,0,0.2,0.1,0.2,0.3c0.1,0.2,0.1,0.6,0.2,1.1c0.1,1.3,0.3,2.1,0.6,2.5
		c0.2,0.4,0.5,0.6,0.8,0.6c0.2,0,0.3-0.1,0.5-0.2c0.2-0.1,0.3-0.3,0.3-0.4c0-0.1-0.1-0.3-0.3-0.4c-0.3-0.2-0.6-0.5-0.7-1
		c-0.1-0.5-0.2-1.1-0.3-1.8c-0.1-0.6-0.2-1.1-0.3-1.5c-0.1-0.3-0.4-0.5-0.7-0.5c-0.4,0-0.7,0.2-1,0.5c-0.3,0.3-0.6,0.8-1,1.5
		c-0.6,1.2-1,1.9-1.2,1.9c0,0-0.1-0.1-0.1-0.2c-0.1-0.2-0.1-0.4-0.1-0.7c0-1.3-0.1-2.1-0.3-2.4s-0.4-0.5-0.6-0.5
		c-0.3,0-0.7,0.1-1,0.4s-0.8,1-1.5,2.1c-0.5,0.8-0.8,1.3-1.1,1.5c0-0.2,0.1-0.8,0.3-1.8c0.1-0.9,0.2-1.4,0.2-1.7
		c0-0.6-0.2-0.9-0.7-0.9c-0.2,0-0.3,0.1-0.3,0.4c0,0.3-0.1,0.7-0.2,1.3c-0.2,1.5-0.4,2.5-0.4,3.1c0,1,0.1,1.5,0.4,1.5
		c0.1,0,0.3,0,0.4-0.1c0.2,0,0.3-0.1,0.4-0.2c0.1-0.1,0.3-0.5,0.7-1.2c1.2-2.1,2-3.2,2.3-3.2C82.3,12.3,82.4,13,82.5,14.3
		 M72.5,12.6c0.5-0.8,1-1.2,1.6-1.2c0.4,0,0.7,0.1,0.9,0.4c0.2,0.3,0.3,0.7,0.3,1.2c0,0.8-0.3,1.5-0.9,2.1c-0.6,0.6-1.2,1-1.8,1
		c-0.3,0-0.5-0.1-0.7-0.4s-0.2-0.6-0.2-1C71.8,14.1,72.1,13.3,72.5,12.6 M75.1,15.7c0.8-0.9,1.2-1.8,1.2-2.8c0-0.7-0.2-1.2-0.6-1.7
		c-0.4-0.5-0.9-0.7-1.5-0.7c-0.9,0-1.8,0.5-2.4,1.5c-0.7,1-1,2-1,3c0,0.6,0.2,1.1,0.5,1.5c0.3,0.4,0.8,0.6,1.3,0.6
		C73.5,17,74.3,16.6,75.1,15.7 M67.4,14c0.1,1.1,0.2,1.8,0.4,2.1c0.2,0.3,0.4,0.4,0.8,0.4c0.3,0,0.6-0.1,0.8-0.3
		c0.2-0.2,0.3-0.4,0.3-0.5c0-0.2-0.1-0.3-0.3-0.3c0,0,0,0-0.1,0c-0.2,0.1-0.3,0.1-0.5,0.1c-0.2,0-0.3-0.1-0.4-0.4
		c-0.1-0.2-0.2-0.8-0.3-1.8c-0.1-0.8-0.3-1.4-0.5-1.8c-0.2-0.3-0.5-0.5-0.9-0.5c-0.4,0-0.8,0.2-1.2,0.6c-0.4,0.4-0.8,1.1-1.3,2
		c-0.5,0.9-0.8,1.4-0.8,1.4c0,0,0,0,0-0.1c0-0.1,0-0.4,0.1-0.8c0.2-1.2,0.4-2,0.4-2.4c0-0.4,0-0.6-0.1-0.8c-0.1-0.1-0.2-0.2-0.4-0.2
		c-0.1,0-0.2,0.1-0.4,0.3C63,11.3,63,11.4,63,11.6c0,1.3-0.1,2.6-0.3,3.7c-0.1,0.3-0.1,0.6-0.1,0.8c0,0.4,0.2,0.7,0.7,0.7
		c0.1,0,0.3-0.1,0.5-0.3c0.2-0.2,0.6-0.9,1.3-2.1c0.5-0.9,0.9-1.5,1.1-1.8c0.2-0.3,0.5-0.4,0.7-0.4C67.1,12.2,67.3,12.8,67.4,14
		 M52.7,12.6c0.5-0.8,1-1.2,1.6-1.2c0.4,0,0.7,0.1,0.9,0.4c0.2,0.3,0.3,0.7,0.3,1.2c0,0.8-0.3,1.5-0.9,2.1c-0.6,0.6-1.2,1-1.8,1
		c-0.3,0-0.5-0.1-0.7-0.4s-0.2-0.6-0.2-1C52.1,14.1,52.3,13.3,52.7,12.6 M55.4,15.7c0.8-0.9,1.2-1.8,1.2-2.8c0-0.7-0.2-1.2-0.6-1.7
		c-0.4-0.5-0.9-0.7-1.5-0.7c-0.9,0-1.8,0.5-2.4,1.5c-0.7,1-1,2-1,3c0,0.6,0.2,1.1,0.5,1.5c0.3,0.4,0.8,0.6,1.3,0.6
		C53.7,17,54.6,16.6,55.4,15.7 M46.2,14.3l0-0.2c0-0.7,0.1-1.2,0.1-1.3c0-0.1,0.1-0.3,0.1-0.4c0-0.1,0.1-0.3,0.2-0.6
		c0.1-0.3,0.1-0.5,0.1-0.6c0-0.1,0-0.2-0.1-0.3c-0.1-0.1-0.2-0.1-0.3-0.1c-0.1,0-0.3,0.1-0.4,0.2c-0.1,0.1-0.2,0.2-0.3,0.3
		c0,0.1-0.1,0.3-0.1,0.6c0,0.3,0,0.4-0.1,0.5c-0.1,0.5-0.1,1-0.1,1.8c0,0.6,0,1,0,1.2c0,0.7,0,1.2,0.1,1.4c0.1,0.3,0.2,0.4,0.4,0.4
		c0.2,0,0.4,0,0.5-0.1c0.1-0.1,0.2-0.3,0.2-0.6c0.2-1.2,0.6-2.3,1.3-3.3c0.7-1,1.3-1.5,1.7-1.5c0.2,0,0.3,0.1,0.4,0.2
		c0.1,0.1,0.3,0.2,0.5,0.2c0.2,0,0.3,0,0.3-0.1c0.1-0.1,0.1-0.2,0.1-0.3c0-0.3-0.1-0.5-0.3-0.7c-0.2-0.2-0.5-0.3-0.8-0.3
		c-0.2,0-0.3,0-0.5,0.1c-0.2,0.1-0.4,0.2-0.6,0.3c-0.2,0.2-0.5,0.4-0.7,0.7c-0.3,0.3-0.5,0.6-0.7,1c-0.2,0.3-0.5,0.8-0.7,1.4
		c-0.1,0.1-0.1,0.2-0.1,0.3V14.3z M42,9.6c0.1-0.5,0.2-0.8,0.2-0.8c0-0.1,0-0.2-0.1-0.3c-0.1-0.1-0.2-0.2-0.4-0.2
		c-0.3,0-0.5,0.2-0.6,0.6c-0.1,0.4-0.2,0.8-0.3,1.3c-0.1,0.4-0.2,0.7-0.3,0.7c-0.1,0.1-0.1,0.1-0.2,0.1h-1.2c-0.2,0-0.3,0.1-0.3,0.3
		c0,0.4,0.2,0.6,0.8,0.6l0.6-0.1c0.1,0,0.1,0,0.1,0.1c0,0.2-0.1,0.7-0.3,1.5c-0.2,0.8-0.3,1.5-0.3,1.9c0,1.1,0.5,1.7,1.4,1.7
		c0.6,0,1.1-0.2,1.7-0.7c0.5-0.4,0.8-0.8,0.8-1.1c0-0.2-0.1-0.3-0.3-0.3c-0.1,0-0.3,0.1-0.5,0.3c-0.6,0.5-1.1,0.8-1.4,0.8
		c-0.2,0-0.4-0.1-0.5-0.2c-0.1-0.1-0.2-0.4-0.2-0.9c0-0.3,0.1-0.8,0.3-1.7c0.2-0.9,0.3-1.4,0.4-1.4c0,0,0.3-0.1,0.8-0.2
		c0.5-0.1,1-0.1,1.6-0.1c0.4,0,0.7-0.2,0.7-0.5c0-0.1,0-0.2-0.1-0.3c-0.1-0.1-0.3-0.1-0.6-0.1c-0.2,0-0.5,0-0.9,0.1
		c-0.4,0-0.7,0.1-1.1,0.1L42,9.6z M36,15.9c-0.5,0.1-1,0.2-1.4,0.2c-0.1,0-0.2,0-0.3-0.1c-0.2,0-0.3-0.1-0.3-0.1
		c-0.1,0-0.3,0-0.4,0.1c-0.1,0.1-0.2,0.2-0.2,0.3c0,0.4,0.3,0.6,0.9,0.6c0.8,0,1.5-0.2,2.4-0.5c0.8-0.3,1.2-0.8,1.2-1.4
		c0-0.3-0.1-0.6-0.4-0.8c-0.3-0.2-0.6-0.5-1.1-0.7c-0.5-0.3-0.9-0.5-1.1-0.7c-0.2-0.2-0.3-0.4-0.3-0.6c0-0.4,0.3-0.7,0.9-1
		s1-0.4,1.2-0.4c0,0,0.1,0,0.2,0.1c0.1,0.1,0.2,0.1,0.3,0.1c0.1,0,0.1,0,0.2-0.1c0.1-0.1,0.2-0.2,0.2-0.3c0-0.3-0.1-0.5-0.2-0.6
		C37.6,10.1,37.3,10,37,10c-0.5,0-1.1,0.3-1.9,0.8c-0.8,0.5-1.2,1.2-1.2,1.9c0,0.3,0.1,0.6,0.4,0.8c0.3,0.2,0.8,0.6,1.6,1
		c0.6,0.3,0.9,0.6,0.9,0.9C36.8,15.6,36.5,15.8,36,15.9 M29.7,11.9c0.5-0.5,0.9-0.8,1.2-0.8c0.2,0,0.3,0.1,0.3,0.4
		c0,0.6-0.8,1.4-2.5,2.4C28.9,13.1,29.2,12.4,29.7,11.9 M32.6,14.4c-0.1,0-0.2,0.1-0.3,0.2c-0.9,0.9-1.7,1.4-2.6,1.4
		c-0.4,0-0.6-0.1-0.8-0.3c-0.2-0.2-0.3-0.5-0.3-0.8c0-0.2,0.1-0.3,0.3-0.4c1-0.5,1.8-1.1,2.4-1.6c0.6-0.5,0.9-1.1,0.9-1.7
		c0-0.3-0.1-0.5-0.3-0.7c-0.2-0.2-0.4-0.3-0.7-0.3c-0.9,0-1.7,0.5-2.5,1.5c-0.8,1-1.1,2.1-1.1,3.2c0,0.7,0.2,1.2,0.5,1.6
		c0.3,0.4,0.8,0.6,1.5,0.6c0.8,0,1.5-0.3,2.2-0.8c0.7-0.6,1.1-1,1.1-1.4C32.8,14.5,32.7,14.4,32.6,14.4 M24.6,14.4v0.2
		c0,0.8,0.1,1.4,0.3,1.8c0.2,0.4,0.4,0.6,0.7,0.6c0.1,0,0.3,0,0.4-0.1c0.2-0.1,0.2-0.2,0.2-0.3c0-0.1-0.1-0.2-0.2-0.4
		c-0.3-0.3-0.5-0.9-0.5-1.8c0-0.8,0.1-1.6,0.4-2.4c0.1-0.2,0.1-0.4,0.1-0.4c0-0.4-0.1-0.5-0.4-0.5c-0.2,0-0.3,0.1-0.4,0.2
		c-0.1,0.1-0.2,0.4-0.4,0.9c-0.4,1.2-0.9,2.1-1.5,2.7c-0.6,0.6-1.1,1-1.4,1c-0.3,0-0.4-0.3-0.4-1c0-0.7,0.2-1.5,0.5-2.5
		c0.2-0.5,0.3-0.9,0.3-1.2c0-0.1,0-0.2-0.1-0.4c-0.1-0.1-0.2-0.2-0.4-0.2c-0.2,0-0.4,0.1-0.5,0.4c0,0.3-0.1,0.9-0.3,1.8
		c-0.2,1-0.4,1.8-0.4,2.3c0,0.6,0.1,1.1,0.4,1.4c0.3,0.3,0.5,0.5,0.8,0.5c0.4,0,0.9-0.2,1.5-0.7c0.5-0.5,1-1.1,1.5-2
		C24.6,14.3,24.6,14.3,24.6,14.4 M14.9,12.3c-0.8-1.3-1.3-2.3-1.5-3c-0.1-0.2-0.1-0.4-0.1-0.5c0-0.1-0.1-0.2-0.2-0.2
		c-0.1,0-0.2-0.1-0.3-0.1c-0.1,0-0.2,0-0.3,0.1c-0.1,0.1-0.2,0.1-0.2,0.2S12.1,9,12.1,9.1l0,0.3c0,0.4-0.1,1.2-0.4,2.5
		c-0.3,1.3-0.5,2.3-0.6,3c-0.2,0.6-0.3,1.1-0.3,1.4c0,0.1,0,0.3,0.1,0.5c0,0.2,0.2,0.3,0.5,0.3c0.1,0,0.2-0.1,0.4-0.2
		s0.2-0.2,0.2-0.3c0-0.1,0-0.3,0-0.6c0-0.3,0-0.5,0-0.6l0.1-1c0.2-1.6,0.5-2.9,0.7-3.8c0.9,1.7,1.9,3.3,3,4.7
		c0.2,0.2,0.3,0.4,0.4,0.6c0,0.2,0.1,0.3,0.3,0.5c0.2,0.2,0.3,0.3,0.3,0.3c0,0,0.1,0.1,0.3,0.1c0.2,0,0.4-0.1,0.6-0.2
		c0.1-0.1,0.2-0.3,0.2-0.5c0-0.1,0-0.4,0-0.8c0-0.2,0.1-1,0.4-2.3c0.2-1.3,0.5-2.5,0.7-3.4c0.1-0.4,0.2-0.7,0.2-0.9
		c0-0.2,0-0.4-0.1-0.6C19,8.1,18.9,8,18.8,8c-0.2,0-0.3,0-0.5,0.1c-0.1,0.1-0.2,0.2-0.3,0.3C18,8.5,18,8.7,18,9
		c0,0.5-0.1,1.5-0.3,2.8c-0.2,1.4-0.5,2.5-0.7,3.4C16.4,14.6,15.7,13.6,14.9,12.3"/>
	<path class="st2" d="M94.7,29.1l0-0.2c0-0.7,0.1-1.2,0.1-1.3c0-0.1,0.1-0.3,0.1-0.4c0-0.1,0.1-0.3,0.2-0.6c0.1-0.3,0.1-0.5,0.1-0.6
		c0-0.1,0-0.2-0.1-0.3c-0.1-0.1-0.2-0.1-0.3-0.1c-0.1,0-0.3,0.1-0.4,0.2c-0.1,0.1-0.2,0.2-0.3,0.3c0,0.1-0.1,0.3-0.1,0.6
		c0,0.3,0,0.4-0.1,0.5c-0.1,0.5-0.1,1-0.1,1.8c0,0.6,0,1,0,1.2c0,0.7,0,1.2,0.1,1.4s0.2,0.4,0.4,0.4c0.2,0,0.4,0,0.5-0.1
		c0.1-0.1,0.2-0.3,0.2-0.6c0.2-1.2,0.6-2.3,1.3-3.3c0.7-1,1.3-1.5,1.7-1.5c0.2,0,0.3,0.1,0.4,0.2c0.1,0.1,0.3,0.2,0.5,0.2
		c0.2,0,0.3,0,0.3-0.1c0.1-0.1,0.1-0.2,0.1-0.3c0-0.3-0.1-0.5-0.3-0.7c-0.2-0.2-0.5-0.3-0.8-0.3c-0.2,0-0.3,0-0.5,0.1
		c-0.2,0.1-0.4,0.2-0.6,0.3c-0.2,0.2-0.5,0.4-0.7,0.7c-0.3,0.3-0.5,0.6-0.7,1c-0.2,0.3-0.5,0.8-0.7,1.4c-0.1,0.1-0.1,0.2-0.1,0.3
		V29.1z M90.6,27c0,0.7-0.4,1.5-1.1,2.4c-0.8,0.9-1.4,1.3-1.8,1.3c-0.3,0-0.4-0.2-0.4-0.7c0-0.6,0.3-1.4,1-2.4
		c0.7-1,1.3-1.5,1.8-1.5C90.4,26.2,90.6,26.5,90.6,27 M90.7,31.2c0.2,0.4,0.4,0.6,0.7,0.6c0.2,0,0.3-0.1,0.5-0.2
		c0.2-0.1,0.3-0.2,0.3-0.4c0-0.1-0.1-0.3-0.3-0.3c-0.4-0.2-0.5-0.8-0.5-1.7c0-0.5,0.1-1.3,0.3-2.4c0-0.2,0.1-0.4,0.1-0.5
		c0-0.2-0.2-0.4-0.5-0.4c-0.1,0-0.2-0.1-0.2-0.2c-0.2-0.4-0.4-0.6-0.7-0.6c-0.9,0-1.8,0.6-2.7,1.8c-0.9,1.2-1.4,2.3-1.4,3.3
		c0,0.4,0.1,0.7,0.3,1c0.2,0.3,0.5,0.4,0.8,0.4c0.4,0,0.9-0.2,1.5-0.5c0.5-0.4,1.1-0.9,1.6-1.7C90.4,30.2,90.5,30.8,90.7,31.2
		 M83.5,24.5c0.1-0.5,0.2-0.8,0.2-0.8c0-0.1,0-0.2-0.1-0.3c-0.1-0.1-0.2-0.2-0.4-0.2c-0.3,0-0.5,0.2-0.6,0.6
		c-0.1,0.4-0.2,0.8-0.3,1.3s-0.2,0.7-0.3,0.7c-0.1,0.1-0.1,0.1-0.2,0.1h-1.2c-0.2,0-0.3,0.1-0.3,0.3c0,0.4,0.2,0.6,0.8,0.6l0.6-0.1
		c0.1,0,0.1,0,0.1,0.1c0,0.2-0.1,0.7-0.3,1.5c-0.2,0.8-0.3,1.5-0.3,1.9c0,1.1,0.5,1.7,1.4,1.7c0.6,0,1.1-0.2,1.7-0.7
		s0.8-0.8,0.8-1.1c0-0.2-0.1-0.3-0.3-0.3c-0.1,0-0.3,0.1-0.5,0.3c-0.6,0.5-1.1,0.8-1.4,0.8c-0.2,0-0.4-0.1-0.5-0.2
		c-0.1-0.1-0.2-0.4-0.2-0.9c0-0.3,0.1-0.8,0.3-1.7c0.2-0.9,0.3-1.4,0.4-1.4c0,0,0.3-0.1,0.8-0.2c0.5-0.1,1-0.1,1.6-0.1
		c0.4,0,0.7-0.2,0.7-0.5c0-0.1,0-0.2-0.1-0.3c-0.1-0.1-0.3-0.1-0.6-0.1c-0.2,0-0.5,0-0.9,0.1c-0.4,0-0.7,0.1-1.1,0.1L83.5,24.5z
		 M77.4,30.8C76.9,31,76.5,31,76,31c-0.1,0-0.2,0-0.3-0.1c-0.2,0-0.3-0.1-0.3-0.1c-0.1,0-0.3,0-0.4,0.1c-0.1,0.1-0.2,0.2-0.2,0.3
		c0,0.4,0.3,0.6,1,0.6c0.8,0,1.5-0.2,2.4-0.5c0.8-0.3,1.2-0.8,1.2-1.4c0-0.3-0.1-0.6-0.4-0.8c-0.3-0.2-0.6-0.5-1.1-0.7
		c-0.5-0.3-0.9-0.5-1.1-0.7c-0.2-0.2-0.3-0.4-0.3-0.6c0-0.4,0.3-0.7,0.9-1c0.6-0.3,1-0.4,1.2-0.4c0,0,0.1,0,0.2,0.1
		c0.1,0.1,0.2,0.1,0.3,0.1c0.1,0,0.1,0,0.2-0.1c0.1-0.1,0.2-0.2,0.2-0.3c0-0.3-0.1-0.5-0.2-0.6c-0.1-0.1-0.4-0.2-0.7-0.2
		c-0.5,0-1.1,0.3-1.9,0.8c-0.8,0.5-1.2,1.2-1.2,1.9c0,0.3,0.1,0.6,0.4,0.8c0.3,0.2,0.8,0.6,1.6,1c0.6,0.3,0.9,0.6,0.9,0.9
		C78.2,30.5,77.9,30.7,77.4,30.8 M71.1,26.8c0.5-0.5,0.9-0.8,1.2-0.8c0.2,0,0.3,0.1,0.3,0.4c0,0.6-0.8,1.4-2.5,2.4
		C70.3,27.9,70.7,27.3,71.1,26.8 M74,29.3c-0.1,0-0.2,0.1-0.3,0.2c-0.9,0.9-1.7,1.4-2.6,1.4c-0.4,0-0.6-0.1-0.8-0.3
		c-0.2-0.2-0.3-0.5-0.3-0.8c0-0.2,0.1-0.3,0.3-0.4c1-0.5,1.8-1.1,2.4-1.6c0.6-0.5,0.9-1.1,0.9-1.7c0-0.3-0.1-0.5-0.3-0.7
		c-0.2-0.2-0.4-0.3-0.7-0.3c-0.9,0-1.7,0.5-2.5,1.5c-0.8,1-1.1,2.1-1.1,3.2c0,0.7,0.2,1.2,0.5,1.6c0.3,0.4,0.8,0.6,1.5,0.6
		c0.8,0,1.5-0.3,2.2-0.8c0.7-0.6,1.1-1,1.1-1.4C74.2,29.4,74.2,29.3,74,29.3 M61.5,27c0,0.7-0.4,1.5-1.1,2.4
		c-0.8,0.9-1.4,1.3-1.8,1.3c-0.3,0-0.4-0.2-0.4-0.7c0-0.6,0.3-1.4,1-2.4c0.7-1,1.3-1.5,1.8-1.5C61.3,26.2,61.5,26.5,61.5,27
		 M61.6,31.2c0.2,0.4,0.4,0.6,0.7,0.6c0.2,0,0.3-0.1,0.5-0.2c0.2-0.1,0.3-0.2,0.3-0.4c0-0.1-0.1-0.3-0.3-0.3
		c-0.4-0.2-0.5-0.8-0.5-1.7c0-0.5,0.1-1.3,0.3-2.4c0-0.2,0.1-0.4,0.1-0.5c0-0.2-0.2-0.4-0.5-0.4c-0.1,0-0.2-0.1-0.2-0.2
		c-0.2-0.4-0.4-0.6-0.7-0.6c-0.9,0-1.8,0.6-2.7,1.8c-0.9,1.2-1.4,2.3-1.4,3.3c0,0.4,0.1,0.7,0.3,1c0.2,0.3,0.5,0.4,0.8,0.4
		c0.4,0,0.9-0.2,1.5-0.5c0.5-0.4,1.1-0.9,1.6-1.7C61.3,30.2,61.4,30.8,61.6,31.2 M58.4,22.7c0.1-0.1,0.1-0.2,0.1-0.2
		c0-0.1,0-0.2-0.1-0.3c-0.1-0.1-0.2-0.2-0.2-0.2c0,0,0,0-0.1,0.1c-0.1,0.1-0.2,0.2-0.4,0.3c-0.5,0.3-1,0.6-1.6,1.1
		c-0.6,0.5-0.9,0.8-0.9,1c0,0.1,0,0.2,0.1,0.3c0.1,0.1,0.2,0.1,0.3,0.1l0.1-0.1c0.2-0.1,0.4-0.3,0.8-0.6c0.8-0.6,1.4-1,1.6-1.1
		c0,0,0.1,0,0.1-0.1c0,0,0,0,0.1,0C58.2,22.9,58.3,22.8,58.4,22.7 M55.3,28.7c0.1-0.4,0.3-1.2,0.5-2.2c0.1-0.2,0.1-0.3,0.1-0.5
		s-0.1-0.2-0.2-0.3c-0.1-0.1-0.3-0.1-0.5-0.1c-0.2,0-0.3,0.1-0.4,0.3c-0.1,0.2-0.1,0.4-0.1,0.6c0,0.1-0.1,0.5-0.2,1
		c-0.3,1.6-0.4,2.7-0.4,3.4c0,0.7,0.2,1,0.6,1c0.1,0,0.3-0.1,0.4-0.2c0.1-0.1,0.2-0.2,0.2-0.3c0,0,0-0.1,0-0.2
		c-0.1-0.4-0.1-0.7-0.1-1C55.2,29.7,55.2,29.2,55.3,28.7 M49,29.1l0-0.2c0-0.7,0.1-1.2,0.1-1.3c0-0.1,0.1-0.3,0.1-0.4
		c0-0.1,0.1-0.3,0.2-0.6c0.1-0.3,0.1-0.5,0.1-0.6c0-0.1,0-0.2-0.1-0.3c-0.1-0.1-0.2-0.1-0.3-0.1c-0.1,0-0.3,0.1-0.4,0.2
		c-0.1,0.1-0.2,0.2-0.3,0.3c0,0.1-0.1,0.3-0.1,0.6c0,0.3,0,0.4-0.1,0.5c-0.1,0.5-0.1,1-0.1,1.8c0,0.6,0,1,0,1.2c0,0.7,0,1.2,0.1,1.4
		c0.1,0.3,0.2,0.4,0.4,0.4c0.2,0,0.4,0,0.5-0.1c0.1-0.1,0.2-0.3,0.2-0.6c0.2-1.2,0.6-2.3,1.3-3.3c0.7-1,1.3-1.5,1.7-1.5
		c0.2,0,0.3,0.1,0.4,0.2c0.1,0.1,0.3,0.2,0.5,0.2c0.2,0,0.3,0,0.3-0.1c0.1-0.1,0.1-0.2,0.1-0.3c0-0.3-0.1-0.5-0.3-0.7
		c-0.2-0.2-0.5-0.3-0.8-0.3c-0.2,0-0.3,0-0.5,0.1c-0.2,0.1-0.4,0.2-0.6,0.3c-0.2,0.2-0.5,0.4-0.7,0.7c-0.3,0.3-0.5,0.6-0.7,1
		c-0.2,0.3-0.5,0.8-0.7,1.4c-0.1,0.1-0.1,0.2-0.1,0.3V29.1z M43.4,26.8c0.5-0.5,0.9-0.8,1.2-0.8c0.2,0,0.3,0.1,0.3,0.4
		c0,0.6-0.8,1.4-2.5,2.4C42.6,27.9,43,27.3,43.4,26.8 M46.3,29.3c-0.1,0-0.2,0.1-0.3,0.2c-0.9,0.9-1.7,1.4-2.6,1.4
		c-0.4,0-0.6-0.1-0.8-0.3c-0.2-0.2-0.3-0.5-0.3-0.8c0-0.2,0.1-0.3,0.3-0.4c1-0.5,1.8-1.1,2.4-1.6c0.6-0.5,0.9-1.1,0.9-1.7
		c0-0.3-0.1-0.5-0.3-0.7c-0.2-0.2-0.4-0.3-0.7-0.3c-0.9,0-1.7,0.5-2.5,1.5c-0.8,1-1.1,2.1-1.1,3.2c0,0.7,0.2,1.2,0.5,1.6
		c0.3,0.4,0.8,0.6,1.5,0.6c0.8,0,1.5-0.3,2.2-0.8c0.7-0.6,1.1-1,1.1-1.4C46.5,29.4,46.5,29.3,46.3,29.3 M37,27.6
		c0.8-0.9,1.4-1.3,2-1.3c0.1,0,0.2,0.1,0.3,0.2c0.1,0.1,0.1,0.3,0.1,0.5c0,0.5-0.2,1-0.5,1.7c-0.4,0.7-0.8,1.2-1.3,1.6
		s-1,0.6-1.4,0.6c-0.3,0-0.5-0.2-0.7-0.6C35.7,29.3,36.2,28.5,37,27.6 M36.6,23.9c0.3-0.8,0.5-1.4,0.5-1.9c0-0.5-0.1-0.7-0.4-0.7
		c-0.2,0-0.3,0-0.4,0.1c-0.1,0.1-0.2,0.3-0.3,0.6c-0.1,0.3-0.2,1-0.5,2.2l-0.6,3.5c-0.2,1.2-0.3,1.9-0.3,2.3c0,0.2,0.1,0.4,0.3,0.5
		c0.1,0.1,0.1,0.2,0.2,0.4c0,0.2,0.2,0.4,0.4,0.6c0.2,0.2,0.5,0.2,0.8,0.2c1,0,2-0.5,2.9-1.6c0.9-1.1,1.4-2.2,1.4-3.4
		c0-0.4-0.1-0.8-0.3-1s-0.5-0.4-0.8-0.4c-0.6,0-1.2,0.3-1.9,0.8c-0.7,0.6-1.3,1.3-1.8,2.2C35.9,26.1,36.3,24.7,36.6,23.9 M30.1,26.8
		c0.5-0.5,0.9-0.8,1.2-0.8c0.2,0,0.3,0.1,0.3,0.4c0,0.6-0.8,1.4-2.5,2.4C29.3,27.9,29.6,27.3,30.1,26.8 M33,29.3
		c-0.1,0-0.2,0.1-0.3,0.2c-0.9,0.9-1.7,1.4-2.6,1.4c-0.4,0-0.6-0.1-0.8-0.3c-0.2-0.2-0.3-0.5-0.3-0.8c0-0.2,0.1-0.3,0.3-0.4
		c1-0.5,1.8-1.1,2.4-1.6c0.6-0.5,0.9-1.1,0.9-1.7c0-0.3-0.1-0.5-0.3-0.7c-0.2-0.2-0.4-0.3-0.7-0.3c-0.9,0-1.7,0.5-2.5,1.5
		c-0.8,1-1.1,2.1-1.1,3.2c0,0.7,0.2,1.2,0.5,1.6c0.3,0.4,0.8,0.6,1.5,0.6c0.8,0,1.5-0.3,2.2-0.8c0.7-0.6,1.1-1,1.1-1.4
		C33.2,29.4,33.1,29.3,33,29.3 M24.2,26.7c0.2,0.2,0.2,0.4,0.2,0.5c0,0.4-0.2,0.9-0.7,1.6s-0.9,1.2-1.3,1.5
		c-0.4,0.3-0.8,0.5-1.1,0.5c-0.3,0-0.5-0.2-0.5-0.7c0-0.7,0.3-1.5,0.9-2.4c0.6-0.9,1.2-1.3,1.9-1.3C23.8,26.4,24,26.5,24.2,26.7
		 M24.3,29.8c0,1.2,0.3,1.9,1,1.9c0.4,0,0.7-0.1,1.1-0.4c0.3-0.3,0.5-0.5,0.5-0.7c0-0.2-0.1-0.2-0.2-0.2c-0.1,0-0.2,0-0.3,0.1
		c-0.2,0.1-0.5,0.2-0.7,0.2c-0.3,0-0.5-0.4-0.5-1.2c0-0.8,0.1-1.8,0.4-3c0.3-1.3,0.5-2.3,0.8-3.2c0.2-0.6,0.3-0.9,0.3-1
		c0-0.5-0.1-0.7-0.4-0.7c-0.1,0-0.2,0-0.4,0.1c-0.2,0.1-0.3,0.3-0.3,0.5l-0.8,3.8c-0.3-0.3-0.7-0.5-1.1-0.5c-0.9,0-1.8,0.5-2.6,1.6
		c-0.8,1-1.2,2.1-1.2,3c0,0.5,0.1,0.9,0.3,1.2c0.2,0.3,0.5,0.4,0.9,0.4c0.5,0,1-0.2,1.6-0.7c0.6-0.5,1.1-1.1,1.7-1.9
		C24.3,29.4,24.3,29.6,24.3,29.8"/>
	<path class="st2" d="M104.1,43.1c0.1,1.1,0.2,1.8,0.4,2.1c0.2,0.3,0.4,0.4,0.8,0.4c0.3,0,0.6-0.1,0.8-0.3c0.2-0.2,0.3-0.4,0.3-0.5
		c0-0.2-0.1-0.3-0.3-0.3c0,0,0,0-0.1,0c-0.2,0.1-0.3,0.1-0.5,0.1c-0.2,0-0.3-0.1-0.4-0.4c-0.1-0.2-0.2-0.8-0.3-1.8
		c-0.1-0.8-0.3-1.4-0.5-1.8c-0.2-0.3-0.5-0.5-0.9-0.5c-0.4,0-0.8,0.2-1.2,0.6c-0.4,0.4-0.8,1.1-1.3,2c-0.5,0.9-0.8,1.4-0.8,1.4
		c0,0,0,0,0-0.1c0-0.1,0-0.4,0.1-0.8c0.2-1.2,0.4-2,0.4-2.4c0-0.4,0-0.6-0.1-0.8s-0.2-0.2-0.4-0.2c-0.1,0-0.2,0.1-0.4,0.3
		c-0.1,0.2-0.2,0.3-0.2,0.5c0,1.3-0.1,2.6-0.3,3.7c-0.1,0.3-0.1,0.6-0.1,0.8c0,0.4,0.2,0.7,0.7,0.7c0.1,0,0.3-0.1,0.5-0.3
		c0.2-0.2,0.6-0.9,1.3-2.1c0.5-0.9,0.9-1.5,1.1-1.8c0.2-0.3,0.5-0.4,0.7-0.4C103.8,41.4,104,41.9,104.1,43.1 M94.1,41.7
		c0.5-0.8,1-1.2,1.6-1.2c0.4,0,0.7,0.2,0.9,0.4c0.2,0.3,0.3,0.7,0.3,1.2c0,0.8-0.3,1.5-0.9,2.1c-0.6,0.6-1.2,1-1.8,1
		c-0.3,0-0.5-0.1-0.7-0.4s-0.2-0.6-0.2-1C93.4,43.2,93.6,42.5,94.1,41.7 M96.7,44.9c0.8-0.9,1.2-1.8,1.2-2.8c0-0.7-0.2-1.2-0.6-1.7
		c-0.4-0.5-0.9-0.7-1.5-0.7c-0.9,0-1.8,0.5-2.4,1.5c-0.7,1-1,2-1,3c0,0.6,0.2,1.1,0.5,1.5c0.3,0.4,0.8,0.6,1.3,0.6
		C95.1,46.2,95.9,45.7,96.7,44.9 M90.1,45.5c0.7-0.5,1-0.8,1-1.1c0-0.2-0.1-0.2-0.2-0.2c-0.1,0-0.3,0.1-0.6,0.3
		c-0.8,0.5-1.5,0.8-2,0.8c-0.8,0-1.1-0.3-1.1-1c0-0.7,0.3-1.5,0.8-2.4c0.6-1,1-1.4,1.4-1.4c0.2,0,0.4,0.2,0.5,0.7
		c0.1,0.5,0.3,0.7,0.5,0.7c0.1,0,0.2-0.1,0.3-0.2c0.1-0.2,0.1-0.4,0.1-0.6c0-0.4-0.1-0.7-0.3-1.1c-0.2-0.3-0.5-0.5-0.8-0.5
		c-0.7,0-1.4,0.6-2.3,1.7c-0.8,1.1-1.2,2.2-1.2,3.2c0,0.6,0.2,1.1,0.5,1.4c0.3,0.3,0.8,0.5,1.4,0.5C88.7,46.2,89.4,46,90.1,45.5
		 M76.4,41.7c0.5-0.8,1-1.2,1.6-1.2c0.4,0,0.7,0.2,0.9,0.4c0.2,0.3,0.3,0.7,0.3,1.2c0,0.8-0.3,1.5-0.9,2.1c-0.6,0.6-1.2,1-1.8,1
		c-0.3,0-0.5-0.1-0.7-0.4c-0.2-0.2-0.2-0.6-0.2-1C75.8,43.2,76,42.5,76.4,41.7 M79.1,44.9c0.8-0.9,1.2-1.8,1.2-2.8
		c0-0.7-0.2-1.2-0.6-1.7c-0.4-0.5-0.9-0.7-1.5-0.7c-0.9,0-1.8,0.5-2.4,1.5c-0.7,1-1,2-1,3c0,0.6,0.2,1.1,0.5,1.5
		c0.3,0.4,0.8,0.6,1.3,0.6C77.4,46.2,78.3,45.7,79.1,44.9 M70.9,41c0.2,0.2,0.2,0.4,0.2,0.5c0,0.4-0.2,0.9-0.7,1.6
		c-0.5,0.7-0.9,1.2-1.3,1.5c-0.4,0.3-0.8,0.5-1.1,0.5c-0.3,0-0.5-0.2-0.5-0.7c0-0.7,0.3-1.5,0.9-2.4c0.6-0.9,1.2-1.3,1.9-1.3
		C70.5,40.7,70.7,40.8,70.9,41 M71,44.1c0,1.2,0.3,1.9,1,1.9c0.4,0,0.7-0.1,1.1-0.4c0.3-0.3,0.5-0.5,0.5-0.7c0-0.2-0.1-0.2-0.2-0.2
		c-0.1,0-0.2,0-0.3,0.1c-0.2,0.1-0.5,0.2-0.7,0.2c-0.3,0-0.5-0.4-0.5-1.2c0-0.8,0.1-1.8,0.4-3c0.3-1.3,0.5-2.3,0.8-3.2
		c0.2-0.6,0.3-0.9,0.3-1c0-0.5-0.1-0.7-0.4-0.7c-0.1,0-0.2,0-0.4,0.1c-0.2,0.1-0.3,0.3-0.3,0.5l-0.8,3.8c-0.3-0.3-0.7-0.5-1.1-0.5
		c-0.9,0-1.8,0.5-2.6,1.6c-0.8,1-1.2,2.1-1.2,3c0,0.5,0.1,0.9,0.3,1.2c0.2,0.3,0.5,0.4,0.9,0.4c0.5,0,1-0.2,1.6-0.7
		c0.6-0.5,1.1-1.1,1.7-1.9C71,43.7,71,43.9,71,44.1 M63.9,41.3c0,0.7-0.4,1.5-1.1,2.4C62,44.5,61.4,45,61,45c-0.3,0-0.4-0.2-0.4-0.7
		c0-0.6,0.3-1.4,1-2.4c0.7-1,1.3-1.4,1.8-1.4C63.7,40.4,63.9,40.7,63.9,41.3 M64,45.5c0.2,0.4,0.4,0.6,0.7,0.6
		c0.2,0,0.3-0.1,0.5-0.2c0.2-0.1,0.3-0.2,0.3-0.4c0-0.1-0.1-0.3-0.3-0.3c-0.4-0.2-0.5-0.8-0.5-1.7c0-0.5,0.1-1.3,0.3-2.4
		c0-0.2,0.1-0.4,0.1-0.5c0-0.2-0.2-0.4-0.5-0.4c-0.1,0-0.2-0.1-0.2-0.2c-0.2-0.4-0.4-0.6-0.7-0.6c-0.9,0-1.8,0.6-2.7,1.8
		s-1.4,2.3-1.4,3.3c0,0.4,0.1,0.7,0.3,1c0.2,0.3,0.5,0.4,0.8,0.4c0.4,0,0.9-0.2,1.5-0.6c0.5-0.4,1.1-0.9,1.6-1.7
		C63.7,44.5,63.8,45.1,64,45.5 M56.2,43.1c0.1,1.1,0.2,1.8,0.4,2.1c0.2,0.3,0.4,0.4,0.8,0.4c0.3,0,0.6-0.1,0.8-0.3
		c0.2-0.2,0.3-0.4,0.3-0.5c0-0.2-0.1-0.3-0.3-0.3c0,0,0,0-0.1,0c-0.2,0.1-0.3,0.1-0.5,0.1c-0.2,0-0.3-0.1-0.4-0.4
		c-0.1-0.2-0.2-0.8-0.3-1.8c-0.1-0.8-0.3-1.4-0.5-1.8c-0.2-0.3-0.5-0.5-0.9-0.5c-0.4,0-0.8,0.2-1.2,0.6c-0.4,0.4-0.8,1.1-1.3,2
		c-0.5,0.9-0.8,1.4-0.8,1.4c0,0,0,0,0-0.1c0-0.1,0-0.4,0.1-0.8c0.2-1.2,0.4-2,0.4-2.4c0-0.4,0-0.6-0.1-0.8C52.6,40,52.5,40,52.3,40
		c-0.1,0-0.2,0.1-0.4,0.3c-0.1,0.2-0.2,0.3-0.2,0.5c0,1.3-0.1,2.6-0.3,3.7c-0.1,0.3-0.1,0.6-0.1,0.8c0,0.4,0.2,0.7,0.7,0.7
		c0.1,0,0.3-0.1,0.5-0.3c0.2-0.2,0.6-0.9,1.3-2.1c0.5-0.9,0.9-1.5,1.1-1.8c0.2-0.3,0.5-0.4,0.7-0.4C55.9,41.4,56.1,41.9,56.2,43.1
		 M46.2,41.7c0.5-0.8,1-1.2,1.6-1.2c0.4,0,0.7,0.2,0.9,0.4c0.2,0.3,0.3,0.7,0.3,1.2c0,0.8-0.3,1.5-0.9,2.1c-0.6,0.6-1.2,1-1.8,1
		c-0.3,0-0.5-0.1-0.7-0.4c-0.2-0.2-0.2-0.6-0.2-1C45.5,43.2,45.7,42.5,46.2,41.7 M48.8,44.9C49.6,44,50,43.1,50,42
		c0-0.7-0.2-1.2-0.6-1.7c-0.4-0.5-0.9-0.7-1.5-0.7c-0.9,0-1.8,0.5-2.4,1.5c-0.7,1-1,2-1,3c0,0.6,0.2,1.1,0.5,1.5
		c0.3,0.4,0.8,0.6,1.3,0.6C47.2,46.2,48,45.7,48.8,44.9 M42.5,43c0.1-0.4,0.3-1.2,0.5-2.2c0.1-0.2,0.1-0.3,0.1-0.5S43,40.1,42.9,40
		c-0.1-0.1-0.3-0.1-0.5-0.1c-0.2,0-0.3,0.1-0.4,0.3s-0.1,0.4-0.1,0.6c0,0.1-0.1,0.5-0.2,1c-0.3,1.6-0.4,2.7-0.4,3.4
		c0,0.7,0.2,1,0.6,1c0.1,0,0.3-0.1,0.4-0.2c0.1-0.1,0.2-0.2,0.2-0.3c0,0,0-0.1,0-0.2c-0.1-0.4-0.1-0.7-0.1-1
		C42.4,44,42.4,43.4,42.5,43 M43.6,37.9c0.2-0.1,0.4-0.3,0.5-0.6c0.1-0.3,0.1-0.5,0.1-0.7c0-0.1-0.1-0.2-0.2-0.3
		c-0.1-0.1-0.3-0.1-0.4-0.1c-0.2,0-0.4,0.1-0.6,0.2c-0.2,0.2-0.3,0.3-0.3,0.5c0,0.2,0.1,0.4,0.2,0.7c0,0.1,0,0.1,0.1,0.2
		c0,0.2,0.1,0.3,0.2,0.3C43.2,38,43.4,38,43.6,37.9 M38.8,45.5c0.7-0.5,1-0.8,1-1.1c0-0.2-0.1-0.2-0.2-0.2c-0.1,0-0.3,0.1-0.6,0.3
		c-0.8,0.5-1.5,0.8-2,0.8c-0.8,0-1.1-0.3-1.1-1c0-0.7,0.3-1.5,0.8-2.4c0.6-1,1-1.4,1.4-1.4c0.2,0,0.4,0.2,0.5,0.7
		c0.1,0.5,0.3,0.7,0.5,0.7c0.1,0,0.2-0.1,0.3-0.2c0.1-0.2,0.1-0.4,0.1-0.6c0-0.4-0.1-0.7-0.3-1.1c-0.2-0.3-0.5-0.5-0.8-0.5
		c-0.7,0-1.4,0.6-2.3,1.7c-0.8,1.1-1.2,2.2-1.2,3.2c0,0.6,0.2,1.1,0.5,1.4c0.3,0.3,0.8,0.5,1.4,0.5C37.4,46.2,38.1,46,38.8,45.5
		 M32.3,41.3c0,0.7-0.4,1.5-1.1,2.4c-0.8,0.9-1.4,1.3-1.8,1.3c-0.3,0-0.4-0.2-0.4-0.7c0-0.6,0.3-1.4,1-2.4c0.7-1,1.3-1.4,1.8-1.4
		C32.1,40.4,32.3,40.7,32.3,41.3 M32.4,45.5c0.2,0.4,0.4,0.6,0.7,0.6c0.2,0,0.3-0.1,0.5-0.2c0.2-0.1,0.3-0.2,0.3-0.4
		c0-0.1-0.1-0.3-0.3-0.3c-0.4-0.2-0.5-0.8-0.5-1.7c0-0.5,0.1-1.3,0.3-2.4c0-0.2,0.1-0.4,0.1-0.5c0-0.2-0.2-0.4-0.5-0.4
		c-0.1,0-0.2-0.1-0.2-0.2c-0.2-0.4-0.4-0.6-0.7-0.6c-0.9,0-1.8,0.6-2.7,1.8c-0.9,1.2-1.4,2.3-1.4,3.3c0,0.4,0.1,0.7,0.3,1
		s0.5,0.4,0.8,0.4c0.4,0,0.9-0.2,1.5-0.6c0.5-0.4,1.1-0.9,1.6-1.7C32.1,44.5,32.2,45.1,32.4,45.5 M26.3,36.4
		c-0.2,0.3-0.4,1.5-0.8,3.4c-0.3,1.9-0.5,3.6-0.5,4.9c0,0.6,0,1,0.1,1.2c0.1,0.3,0.2,0.4,0.4,0.4c0.1,0,0.3-0.1,0.4-0.2
		c0.1-0.1,0.2-0.3,0.2-0.5c0-0.1,0-0.1,0-0.3c-0.1-0.6-0.1-1.3-0.1-1.9c0-0.5,0.1-1.2,0.2-2.2c0.1-0.9,0.3-1.7,0.5-2.5
		c0.3-1.2,0.5-2,0.5-2.3c0-0.4-0.1-0.5-0.4-0.5C26.7,36,26.5,36.1,26.3,36.4 M20.5,41c0.5-0.5,0.9-0.8,1.2-0.8
		c0.2,0,0.3,0.1,0.3,0.4c0,0.6-0.8,1.4-2.5,2.4C19.7,42.2,20.1,41.6,20.5,41 M23.4,43.6c-0.1,0-0.2,0.1-0.3,0.2
		c-0.9,0.9-1.7,1.4-2.6,1.4c-0.4,0-0.6-0.1-0.8-0.3c-0.2-0.2-0.3-0.5-0.3-0.8c0-0.2,0.1-0.3,0.3-0.4c1-0.5,1.8-1.1,2.4-1.6
		c0.6-0.6,0.9-1.1,0.9-1.7c0-0.3-0.1-0.5-0.3-0.7c-0.2-0.2-0.4-0.3-0.7-0.3c-0.9,0-1.7,0.5-2.5,1.5c-0.8,1-1.1,2.1-1.1,3.2
		c0,0.7,0.2,1.2,0.5,1.6c0.3,0.4,0.8,0.6,1.5,0.6c0.8,0,1.5-0.3,2.2-0.8c0.7-0.6,1.1-1,1.1-1.4C23.6,43.7,23.6,43.6,23.4,43.6
		 M13.6,43.4l0-0.2c0-0.7,0.1-1.2,0.1-1.3c0-0.1,0.1-0.3,0.1-0.4c0-0.1,0.1-0.3,0.2-0.6c0.1-0.3,0.1-0.5,0.1-0.6
		c0-0.1,0-0.2-0.1-0.3c-0.1-0.1-0.2-0.1-0.3-0.1c-0.1,0-0.3,0.1-0.4,0.2C13.1,40,13,40.1,13,40.2c0,0.1-0.1,0.3-0.1,0.6
		c0,0.3,0,0.4-0.1,0.5c-0.1,0.5-0.1,1-0.1,1.8c0,0.6,0,1,0,1.2c0,0.7,0,1.2,0.1,1.4c0.1,0.3,0.2,0.4,0.4,0.4c0.2,0,0.4,0,0.5-0.1
		c0.1-0.1,0.2-0.3,0.2-0.6c0.2-1.2,0.6-2.3,1.3-3.3c0.7-1,1.3-1.5,1.7-1.5c0.2,0,0.3,0.1,0.4,0.2c0.1,0.1,0.3,0.2,0.5,0.2
		c0.2,0,0.3,0,0.3-0.1c0.1-0.1,0.1-0.2,0.1-0.3c0-0.3-0.1-0.5-0.3-0.7c-0.2-0.2-0.5-0.3-0.8-0.3c-0.2,0-0.3,0-0.5,0.1
		c-0.2,0.1-0.4,0.2-0.6,0.3c-0.2,0.2-0.5,0.4-0.7,0.7c-0.3,0.3-0.5,0.6-0.7,1c-0.2,0.3-0.5,0.8-0.7,1.4c-0.1,0.1-0.1,0.2-0.1,0.3
		V43.4z"/>
	<path class="st2" d="M83,56.1c0.5-0.8,1-1.2,1.6-1.2c0.4,0,0.7,0.2,0.9,0.4c0.2,0.3,0.3,0.7,0.3,1.2c0,0.8-0.3,1.5-0.9,2.1
		c-0.6,0.6-1.2,1-1.8,1c-0.3,0-0.5-0.1-0.7-0.4s-0.2-0.6-0.2-1C82.3,57.6,82.6,56.9,83,56.1 M85.7,59.3c0.8-0.9,1.2-1.8,1.2-2.8
		c0-0.7-0.2-1.2-0.6-1.7c-0.4-0.5-0.9-0.7-1.5-0.7c-0.9,0-1.8,0.5-2.4,1.5c-0.7,1-1,2-1,3c0,0.6,0.2,1.1,0.5,1.5
		c0.3,0.4,0.8,0.6,1.3,0.6C84,60.6,84.9,60.2,85.7,59.3 M82.4,51.4c0.1-0.1,0.1-0.2,0.1-0.2c0-0.1,0-0.2-0.1-0.3
		c-0.1-0.1-0.2-0.2-0.2-0.2c0,0,0,0-0.1,0.1c-0.1,0.1-0.2,0.2-0.4,0.3c-0.5,0.3-1,0.6-1.6,1.1c-0.6,0.5-0.9,0.8-0.9,1
		c0,0.1,0,0.2,0.1,0.3c0.1,0.1,0.2,0.1,0.3,0.1l0.1-0.1c0.2-0.1,0.4-0.3,0.8-0.6c0.8-0.6,1.4-1,1.6-1.1c0,0,0.1,0,0.1-0.1
		c0,0,0,0,0.1,0C82.2,51.5,82.3,51.5,82.4,51.4 M79.3,57.4c0.1-0.4,0.3-1.2,0.5-2.2c0.1-0.2,0.1-0.3,0.1-0.5s-0.1-0.2-0.2-0.3
		c-0.1-0.1-0.3-0.1-0.5-0.1c-0.2,0-0.3,0.1-0.4,0.3c-0.1,0.2-0.1,0.4-0.1,0.6c0,0.1-0.1,0.5-0.2,1c-0.3,1.6-0.4,2.7-0.4,3.4
		c0,0.7,0.2,1,0.6,1c0.1,0,0.3-0.1,0.4-0.2c0.1-0.1,0.2-0.2,0.2-0.3c0,0,0-0.1,0-0.2c-0.1-0.4-0.1-0.7-0.1-1
		C79.2,58.4,79.2,57.9,79.3,57.4 M74.7,60.3c0-0.2,0-0.4,0-0.8c0-1.1,0.1-2.4,0.4-3.9c0.1,0,0.4-0.1,1-0.1c0.7-0.1,1.1-0.1,1.3-0.2
		c0.2-0.1,0.3-0.2,0.3-0.4s-0.1-0.2-0.3-0.2c-0.2,0-0.8,0-1.8,0c-0.2,0-0.4-0.1-0.4-0.3c0-0.6,0.2-1.3,0.5-2.2
		c0.3-0.9,0.7-1.3,1.1-1.3c0.4,0,0.6,0.4,0.6,1.1l0,0.6c0,0.1,0.1,0.2,0.2,0.2c0.2,0,0.3-0.2,0.5-0.5c0.1-0.4,0.2-0.7,0.2-1
		c0-0.4-0.1-0.6-0.4-0.9c-0.2-0.2-0.5-0.4-0.9-0.4c-0.7,0-1.2,0.3-1.6,0.8c-0.4,0.5-0.7,1.4-0.9,2.6c-0.1,0.3-0.1,0.6-0.2,0.8
		c0,0.2-0.2,0.4-0.4,0.5c-0.3,0.2-0.4,0.4-0.4,0.5c0,0.1,0.1,0.2,0.3,0.3c0.2,0.1,0.2,0.2,0.2,0.3c0,0.4-0.1,1-0.2,1.8
		c-0.2,1.3-0.3,2.1-0.3,2.4c0,0.6,0.2,0.9,0.6,0.9c0.1,0,0.2,0,0.4-0.1c0.1-0.1,0.2-0.1,0.2-0.2C74.7,60.5,74.7,60.4,74.7,60.3
		 M70.5,55.7c0,0.7-0.4,1.5-1.1,2.4c-0.8,0.9-1.4,1.3-1.8,1.3c-0.3,0-0.4-0.2-0.4-0.7c0-0.6,0.3-1.4,1-2.4c0.7-1,1.3-1.5,1.8-1.5
		C70.4,54.9,70.5,55.1,70.5,55.7 M70.6,59.9c0.2,0.4,0.4,0.6,0.7,0.6c0.2,0,0.3-0.1,0.5-0.2c0.2-0.1,0.3-0.2,0.3-0.4
		c0-0.1-0.1-0.3-0.3-0.3c-0.4-0.2-0.5-0.8-0.5-1.7c0-0.5,0.1-1.3,0.3-2.4c0-0.2,0.1-0.4,0.1-0.5c0-0.2-0.2-0.4-0.5-0.4
		c-0.1,0-0.2-0.1-0.2-0.2c-0.2-0.4-0.4-0.6-0.7-0.6c-0.9,0-1.8,0.6-2.7,1.8c-0.9,1.2-1.4,2.3-1.4,3.3c0,0.4,0.1,0.7,0.3,1
		c0.2,0.3,0.5,0.4,0.8,0.4c0.4,0,0.9-0.2,1.5-0.5c0.5-0.4,1.1-0.9,1.6-1.7C70.3,58.9,70.4,59.5,70.6,59.9 M63.2,59.5
		c-0.5,0.1-1,0.2-1.4,0.2c-0.1,0-0.2,0-0.3-0.1c-0.2,0-0.3-0.1-0.3-0.1c-0.1,0-0.3,0-0.4,0.1c-0.1,0.1-0.2,0.2-0.2,0.3
		c0,0.4,0.3,0.6,0.9,0.6c0.8,0,1.5-0.2,2.4-0.5c0.8-0.3,1.2-0.8,1.2-1.4c0-0.3-0.1-0.6-0.4-0.8c-0.3-0.2-0.6-0.5-1.1-0.7
		c-0.5-0.3-0.9-0.5-1.1-0.7c-0.2-0.2-0.3-0.4-0.3-0.6c0-0.4,0.3-0.7,0.9-1s1-0.4,1.2-0.4c0,0,0.1,0,0.2,0.1c0.1,0.1,0.2,0.1,0.3,0.1
		c0.1,0,0.1,0,0.2-0.1c0.1-0.1,0.2-0.2,0.2-0.3c0-0.3-0.1-0.5-0.2-0.6s-0.4-0.2-0.7-0.2c-0.5,0-1.1,0.3-1.9,0.8
		c-0.8,0.5-1.2,1.2-1.2,1.9c0,0.3,0.1,0.6,0.4,0.8c0.3,0.2,0.8,0.6,1.6,1c0.6,0.3,0.9,0.6,0.9,0.9C64,59.2,63.7,59.4,63.2,59.5
		 M56.9,55.5c0.5-0.5,0.9-0.8,1.2-0.8c0.2,0,0.3,0.1,0.3,0.4c0,0.6-0.8,1.4-2.5,2.4C56.1,56.6,56.4,56,56.9,55.5 M59.8,58
		c-0.1,0-0.2,0.1-0.3,0.2c-0.9,0.9-1.7,1.4-2.6,1.4c-0.4,0-0.6-0.1-0.8-0.3c-0.2-0.2-0.3-0.5-0.3-0.8c0-0.2,0.1-0.3,0.3-0.4
		c1-0.5,1.8-1.1,2.4-1.6c0.6-0.5,0.9-1.1,0.9-1.7c0-0.3-0.1-0.5-0.3-0.7c-0.2-0.2-0.4-0.3-0.7-0.3c-0.9,0-1.7,0.5-2.5,1.5
		c-0.8,1-1.1,2.1-1.1,3.2c0,0.7,0.2,1.2,0.5,1.6c0.3,0.4,0.8,0.6,1.5,0.6c0.8,0,1.5-0.3,2.2-0.8c0.7-0.6,1.1-1,1.1-1.4
		C60,58.1,60,58,59.8,58 M51,55.4c0.2,0.2,0.2,0.4,0.2,0.5c0,0.4-0.2,0.9-0.7,1.6c-0.5,0.7-0.9,1.2-1.3,1.5
		c-0.4,0.3-0.8,0.5-1.1,0.5c-0.3,0-0.5-0.2-0.5-0.7c0-0.7,0.3-1.5,0.9-2.4c0.6-0.9,1.2-1.3,1.9-1.3C50.6,55.1,50.8,55.2,51,55.4
		 M51.1,58.5c0,1.2,0.3,1.9,1,1.9c0.4,0,0.7-0.1,1.1-0.4c0.4-0.3,0.5-0.5,0.5-0.7c0-0.2-0.1-0.2-0.2-0.2c-0.1,0-0.2,0-0.3,0.1
		c-0.2,0.1-0.5,0.2-0.7,0.2c-0.3,0-0.5-0.4-0.5-1.2c0-0.8,0.1-1.8,0.4-3c0.3-1.3,0.5-2.3,0.8-3.2c0.2-0.6,0.3-0.9,0.3-1
		c0-0.5-0.1-0.7-0.4-0.7c-0.1,0-0.2,0-0.4,0.1s-0.3,0.3-0.3,0.5l-0.8,3.8c-0.3-0.3-0.7-0.5-1.1-0.5c-0.9,0-1.8,0.5-2.6,1.6
		c-0.8,1-1.2,2.1-1.2,3c0,0.5,0.1,0.9,0.3,1.2c0.2,0.3,0.5,0.4,0.9,0.4c0.5,0,1-0.2,1.6-0.7c0.6-0.5,1.1-1.1,1.7-1.9
		C51.2,58.1,51.1,58.3,51.1,58.5 M40.2,50.9c-0.2,0.3-0.4,1.5-0.8,3.4c-0.3,1.9-0.5,3.6-0.5,4.9c0,0.6,0,1,0.1,1.2
		c0.1,0.3,0.2,0.4,0.4,0.4c0.1,0,0.3-0.1,0.4-0.2c0.1-0.1,0.2-0.3,0.2-0.5c0-0.1,0-0.1,0-0.3c-0.1-0.6-0.1-1.3-0.1-1.9
		c0-0.5,0.1-1.2,0.2-2.2s0.3-1.8,0.5-2.5c0.3-1.2,0.5-2,0.5-2.3c0-0.4-0.1-0.5-0.4-0.5C40.6,50.4,40.4,50.5,40.2,50.9 M34.4,55.5
		c0.5-0.5,0.9-0.8,1.2-0.8c0.2,0,0.3,0.1,0.3,0.4c0,0.6-0.8,1.4-2.5,2.4C33.6,56.6,33.9,56,34.4,55.5 M37.3,58
		c-0.1,0-0.2,0.1-0.3,0.2c-0.9,0.9-1.7,1.4-2.6,1.4c-0.4,0-0.6-0.1-0.8-0.3c-0.2-0.2-0.3-0.5-0.3-0.8c0-0.2,0.1-0.3,0.3-0.4
		c1-0.5,1.8-1.1,2.4-1.6c0.6-0.5,0.9-1.1,0.9-1.7c0-0.3-0.1-0.5-0.3-0.7c-0.2-0.2-0.4-0.3-0.7-0.3c-0.9,0-1.7,0.5-2.5,1.5
		c-0.8,1-1.1,2.1-1.1,3.2c0,0.7,0.2,1.2,0.5,1.6c0.3,0.4,0.8,0.6,1.5,0.6c0.8,0,1.5-0.3,2.2-0.8c0.7-0.6,1.1-1,1.1-1.4
		C37.5,58.1,37.5,58,37.3,58"/>
</g>
</svg>
