<?xml version="1.0" encoding="utf-8"?>
<!-- Generator: Adobe Illustrator 21.1.0, SVG Export Plug-In . SVG Version: 6.00 Build 0)  -->
<svg version="1.1" id="Capa_1" xmlns="http://www.w3.org/2000/svg" xmlns:xlink="http://www.w3.org/1999/xlink" x="0px" y="0px"
	 viewBox="0 0 30.907 17.115" style="enable-background:new 0 0 30.907 17.115;" xml:space="preserve">
<style type="text/css">
	.st0{clip-path:url(#SVGID_2_);fill:#FFFFFF;}
	.st1{clip-path:url(#SVGID_2_);fill:none;stroke:#AEC90B;stroke-width:0.955;stroke-linecap:round;}
	.st2{fill:#AEC90B;}
	.st3{clip-path:url(#SVGID_4_);fill:#AEC90B;}
</style>
<g>
	<defs>
		<rect id="SVGID_1_" width="30.907" height="17.115"/>
	</defs>
	<clipPath id="SVGID_2_">
		<use xlink:href="#SVGID_1_"  style="overflow:visible;"/>
	</clipPath>
	<path class="st0" d="M4.087,0.477c0,0-3.61,0-3.61,3.61v8.94c0,0,0,3.61,3.61,3.61h22.732c0,0,3.61,0,3.61-3.61v-8.94
		c0,0,0-3.61-3.61-3.61H4.087z"/>
	<path class="st1" d="M4.087,0.477c0,0-3.61,0-3.61,3.61v8.94c0,0,0,3.61,3.61,3.61h22.732c0,0,3.61,0,3.61-3.61v-8.94
		c0,0,0-3.61-3.61-3.61H4.087z"/>
	<polyline class="st1" points="13.57,16.632 16.845,8.558 13.57,0.484 	"/>
</g>
<rect x="7.091" y="4.326" class="st2" width="1.987" height="8.825"/>
<g>
	<defs>
		<rect id="SVGID_3_" width="30.907" height="17.115"/>
	</defs>
	<clipPath id="SVGID_4_">
		<use xlink:href="#SVGID_3_"  style="overflow:visible;"/>
	</clipPath>
	<path class="st3" d="M24.501,6.013c0.352,0.106,0.664,0.231,0.936,0.376l0.573-1.592c-0.068-0.043-0.18-0.102-0.337-0.178
		c-0.158-0.077-0.357-0.151-0.599-0.223c-0.242-0.072-0.531-0.136-0.866-0.191c-0.335-0.055-0.711-0.083-1.127-0.083
		c-0.611,0-1.186,0.102-1.725,0.306c-0.54,0.203-1.009,0.503-1.408,0.897c-0.399,0.395-0.713,0.877-0.942,1.446
		s-0.344,1.222-0.344,1.961c0,0.73,0.104,1.38,0.312,1.948c0.208,0.569,0.503,1.049,0.885,1.439
		c0.382,0.391,0.843,0.688,1.382,0.892c0.539,0.203,1.14,0.305,1.802,0.305c0.772,0,1.422-0.053,1.948-0.159
		c0.527-0.106,0.909-0.206,1.146-0.299V8.49h-1.986v3.069c-0.119,0.025-0.257,0.043-0.414,0.051
		c-0.157,0.008-0.346,0.013-0.567,0.013c-0.407,0-0.764-0.07-1.069-0.211c-0.306-0.14-0.561-0.337-0.765-0.592
		c-0.203-0.254-0.356-0.558-0.458-0.91c-0.102-0.352-0.153-0.745-0.153-1.178c0-0.892,0.206-1.594,0.618-2.108
		c0.411-0.513,1.08-0.77,2.006-0.77C23.764,5.854,24.149,5.907,24.501,6.013"/>
</g>
</svg>
