<?xml version="1.0" encoding="utf-8"?>
<!-- Generator: Adobe Illustrator 14.0.0, SVG Export Plug-In . SVG Version: 6.00 Build 43363)  -->
<!DOCTYPE svg PUBLIC "-//W3C//DTD SVG 1.1//EN" "http://www.w3.org/Graphics/SVG/1.1/DTD/svg11.dtd">
<svg version="1.1" id="Layer_1" xmlns="http://www.w3.org/2000/svg" xmlns:xlink="http://www.w3.org/1999/xlink" x="0px" y="0px"
	 width="107.51px" height="33.748px" viewBox="0 0 107.51 33.748" enable-background="new 0 0 107.51 33.748" xml:space="preserve">
<g>
	<g>
		<path fill="#EA5153" d="M11.555,0C11.555,0-0.057-0.056,0,14.82l0.015,3.58c0,0,0.057,14.877,11.668,14.935l84.271,0.413
			c0,0,11.611,0.059,11.555-14.819l-0.014-3.581c0,0-0.057-14.876-11.668-14.935L11.555,0z"/>
	</g>
	<g>
		<path fill="#FFFFFF" d="M17.546,15.488c-0.207-0.052-0.449-0.106-0.728-0.163s-0.578-0.085-0.898-0.085
			c-0.145,0-0.317,0.013-0.519,0.039c-0.201,0.025-0.354,0.054-0.457,0.085v6.223h-2.307v-7.709c0.413-0.145,0.9-0.281,1.463-0.41
			s1.189-0.193,1.881-0.193c0.124,0,0.273,0.008,0.449,0.023c0.176,0.015,0.351,0.036,0.526,0.062s0.351,0.057,0.526,0.093
			s0.325,0.08,0.449,0.132L17.546,15.488z"/>
		<path fill="#FFFFFF" d="M18.723,17.577c0-0.722,0.111-1.354,0.333-1.896c0.222-0.542,0.513-0.993,0.875-1.354
			s0.777-0.635,1.247-0.82c0.469-0.187,0.952-0.279,1.447-0.279c1.156,0,2.069,0.354,2.74,1.061s1.006,1.747,1.006,3.119
			c0,0.135-0.005,0.281-0.016,0.441s-0.021,0.302-0.031,0.426h-5.232c0.052,0.475,0.273,0.852,0.666,1.13s0.918,0.418,1.579,0.418
			c0.423,0,0.838-0.039,1.246-0.116s0.741-0.173,0.999-0.286l0.31,1.873c-0.124,0.062-0.289,0.124-0.495,0.186
			c-0.207,0.062-0.436,0.116-0.689,0.162c-0.253,0.047-0.524,0.086-0.813,0.116c-0.289,0.031-0.578,0.047-0.867,0.047
			c-0.733,0-1.37-0.108-1.912-0.325c-0.542-0.217-0.991-0.514-1.347-0.89c-0.356-0.377-0.62-0.823-0.79-1.34
			C18.808,18.733,18.723,18.175,18.723,17.577z M24.141,16.695c-0.011-0.196-0.044-0.387-0.101-0.573
			c-0.057-0.186-0.145-0.351-0.263-0.495c-0.119-0.145-0.269-0.263-0.449-0.355c-0.181-0.094-0.405-0.14-0.673-0.14
			c-0.258,0-0.48,0.044-0.666,0.132s-0.34,0.203-0.464,0.348s-0.219,0.313-0.287,0.503c-0.067,0.191-0.116,0.385-0.147,0.581H24.141
			z"/>
		<path fill="#FFFFFF" d="M30.487,19.93c0.423,0,0.723-0.041,0.898-0.124c0.175-0.082,0.263-0.242,0.263-0.479
			c0-0.187-0.114-0.349-0.34-0.488c-0.228-0.139-0.573-0.296-1.037-0.472c-0.362-0.134-0.689-0.273-0.983-0.418
			c-0.294-0.145-0.544-0.317-0.75-0.519c-0.207-0.201-0.367-0.441-0.48-0.72c-0.114-0.279-0.17-0.614-0.17-1.007
			c0-0.764,0.284-1.367,0.852-1.811c0.567-0.443,1.347-0.666,2.337-0.666c0.496,0,0.97,0.044,1.424,0.132
			c0.454,0.088,0.815,0.184,1.083,0.286l-0.402,1.796c-0.269-0.093-0.56-0.176-0.875-0.248c-0.314-0.071-0.668-0.108-1.06-0.108
			c-0.723,0-1.083,0.201-1.083,0.604c0,0.093,0.015,0.175,0.046,0.247c0.031,0.072,0.093,0.143,0.186,0.209
			c0.093,0.067,0.219,0.14,0.379,0.218c0.16,0.078,0.364,0.164,0.611,0.258c0.505,0.188,0.923,0.372,1.254,0.554
			c0.33,0.183,0.591,0.379,0.782,0.59s0.325,0.445,0.402,0.703c0.078,0.257,0.116,0.556,0.116,0.896
			c0,0.803-0.302,1.411-0.905,1.822c-0.604,0.412-1.458,0.618-2.562,0.618c-0.723,0-1.324-0.062-1.804-0.186
			s-0.813-0.228-0.999-0.31l0.387-1.873c0.392,0.154,0.794,0.275,1.208,0.363C29.677,19.886,30.085,19.93,30.487,19.93z"/>
		<path fill="#FFFFFF" d="M43.258,17.515c0,0.63-0.078,1.202-0.232,1.719c-0.155,0.516-0.382,0.959-0.681,1.331
			c-0.3,0.371-0.671,0.66-1.115,0.866c-0.444,0.207-0.955,0.311-1.533,0.311c-0.32,0-0.619-0.031-0.897-0.094
			c-0.279-0.062-0.547-0.149-0.805-0.263v3.065h-2.307V13.722c0.207-0.062,0.444-0.121,0.712-0.178
			c0.268-0.057,0.549-0.105,0.843-0.146c0.294-0.042,0.593-0.075,0.898-0.101c0.304-0.026,0.596-0.039,0.875-0.039
			c0.671,0,1.27,0.101,1.796,0.302s0.97,0.485,1.331,0.852s0.637,0.813,0.828,1.339S43.258,16.865,43.258,17.515z M40.905,17.577
			c0-0.712-0.16-1.281-0.48-1.71s-0.794-0.643-1.424-0.643c-0.207,0-0.397,0.008-0.573,0.023c-0.176,0.016-0.32,0.033-0.434,0.054
			v4.164c0.145,0.093,0.333,0.171,0.565,0.232c0.232,0.063,0.467,0.093,0.705,0.093C40.358,19.791,40.905,19.053,40.905,17.577z"/>
		<path fill="#FFFFFF" d="M44.683,17.577c0-0.722,0.111-1.354,0.333-1.896c0.222-0.542,0.513-0.993,0.875-1.354
			s0.777-0.635,1.247-0.82c0.469-0.187,0.952-0.279,1.447-0.279c1.156,0,2.069,0.354,2.74,1.061s1.006,1.747,1.006,3.119
			c0,0.135-0.005,0.281-0.016,0.441s-0.021,0.302-0.031,0.426h-5.232c0.052,0.475,0.273,0.852,0.666,1.13s0.918,0.418,1.579,0.418
			c0.423,0,0.838-0.039,1.246-0.116s0.741-0.173,0.999-0.286l0.31,1.873c-0.124,0.062-0.289,0.124-0.495,0.186
			c-0.207,0.062-0.436,0.116-0.689,0.162c-0.253,0.047-0.524,0.086-0.813,0.116c-0.289,0.031-0.578,0.047-0.867,0.047
			c-0.733,0-1.37-0.108-1.912-0.325c-0.542-0.217-0.991-0.514-1.347-0.89c-0.356-0.377-0.62-0.823-0.79-1.34
			C44.768,18.733,44.683,18.175,44.683,17.577z M50.101,16.695c-0.011-0.196-0.044-0.387-0.101-0.573
			c-0.057-0.186-0.145-0.351-0.263-0.495c-0.119-0.145-0.269-0.263-0.449-0.355c-0.181-0.094-0.405-0.14-0.673-0.14
			c-0.258,0-0.48,0.044-0.666,0.132s-0.34,0.203-0.464,0.348s-0.219,0.313-0.287,0.503c-0.067,0.191-0.116,0.385-0.147,0.581H50.101
			z"/>
		<path fill="#FFFFFF" d="M54.048,11.417l2.306-0.372v2.399h2.771v1.92h-2.771v2.863c0,0.485,0.085,0.872,0.256,1.161
			c0.17,0.289,0.513,0.434,1.029,0.434c0.247,0,0.503-0.023,0.766-0.069c0.264-0.047,0.503-0.111,0.72-0.194l0.325,1.796
			c-0.278,0.114-0.588,0.212-0.929,0.294c-0.341,0.083-0.759,0.124-1.254,0.124c-0.629,0-1.15-0.085-1.563-0.255
			c-0.413-0.171-0.743-0.408-0.99-0.713c-0.248-0.304-0.421-0.673-0.519-1.106c-0.098-0.434-0.147-0.913-0.147-1.439V11.417z"/>
		<path fill="#FFFFFF" d="M67.917,21.308c-0.393,0.113-0.898,0.219-1.518,0.317c-0.619,0.098-1.27,0.146-1.95,0.146
			c-0.691,0-1.267-0.093-1.726-0.278c-0.46-0.186-0.823-0.446-1.092-0.782c-0.269-0.335-0.459-0.735-0.573-1.199
			c-0.113-0.465-0.17-0.976-0.17-1.532v-4.536h2.307v4.257c0,0.743,0.098,1.28,0.294,1.61s0.563,0.495,1.1,0.495
			c0.165,0,0.34-0.008,0.526-0.023c0.186-0.016,0.351-0.033,0.495-0.054v-6.285h2.307V21.308z"/>
		<path fill="#FFFFFF" d="M77.716,17.5c0,0.641-0.093,1.226-0.279,1.757c-0.186,0.532-0.454,0.986-0.805,1.362
			c-0.351,0.377-0.771,0.669-1.262,0.875s-1.039,0.31-1.648,0.31c-0.599,0-1.143-0.104-1.633-0.31s-0.911-0.498-1.262-0.875
			c-0.352-0.376-0.625-0.83-0.82-1.362c-0.196-0.531-0.294-1.116-0.294-1.757c0-0.64,0.101-1.223,0.302-1.749
			s0.479-0.976,0.836-1.347c0.355-0.372,0.778-0.66,1.269-0.867c0.49-0.206,1.024-0.31,1.603-0.31c0.588,0,1.128,0.104,1.618,0.31
			c0.489,0.207,0.91,0.495,1.261,0.867c0.352,0.371,0.625,0.82,0.821,1.347C77.618,16.277,77.716,16.86,77.716,17.5z M75.363,17.5
			c0-0.712-0.142-1.271-0.426-1.68c-0.283-0.407-0.688-0.611-1.215-0.611s-0.934,0.204-1.223,0.611
			c-0.289,0.408-0.434,0.968-0.434,1.68s0.145,1.277,0.434,1.695s0.696,0.627,1.223,0.627s0.932-0.209,1.215-0.627
			C75.221,18.777,75.363,18.211,75.363,17.5z"/>
		<path fill="#FFFFFF" d="M81.772,19.93c0.423,0,0.723-0.041,0.897-0.124c0.176-0.082,0.264-0.242,0.264-0.479
			c0-0.187-0.114-0.349-0.341-0.488c-0.228-0.139-0.572-0.296-1.037-0.472c-0.361-0.134-0.688-0.273-0.983-0.418
			c-0.294-0.145-0.544-0.317-0.75-0.519c-0.207-0.201-0.367-0.441-0.48-0.72c-0.113-0.279-0.17-0.614-0.17-1.007
			c0-0.764,0.283-1.367,0.852-1.811c0.567-0.443,1.347-0.666,2.337-0.666c0.496,0,0.97,0.044,1.425,0.132
			c0.454,0.088,0.814,0.184,1.083,0.286l-0.402,1.796c-0.269-0.093-0.56-0.176-0.875-0.248c-0.314-0.071-0.668-0.108-1.06-0.108
			c-0.723,0-1.084,0.201-1.084,0.604c0,0.093,0.016,0.175,0.047,0.247c0.03,0.072,0.093,0.143,0.186,0.209
			c0.093,0.067,0.219,0.14,0.379,0.218s0.364,0.164,0.611,0.258c0.506,0.188,0.924,0.372,1.254,0.554
			c0.33,0.183,0.591,0.379,0.782,0.59c0.19,0.211,0.325,0.445,0.402,0.703c0.077,0.257,0.116,0.556,0.116,0.896
			c0,0.803-0.302,1.411-0.905,1.822c-0.604,0.412-1.458,0.618-2.563,0.618c-0.723,0-1.323-0.062-1.804-0.186
			c-0.479-0.124-0.813-0.228-0.998-0.31l0.387-1.873c0.393,0.154,0.795,0.275,1.208,0.363C80.961,19.886,81.37,19.93,81.772,19.93z"
			/>
		<path fill="#FFFFFF" d="M89.976,13.227c0.681,0,1.248,0.077,1.702,0.232c0.454,0.154,0.818,0.377,1.092,0.666
			s0.467,0.64,0.58,1.052c0.114,0.413,0.171,0.873,0.171,1.378v4.799c-0.331,0.072-0.79,0.157-1.378,0.256
			c-0.588,0.098-1.301,0.146-2.137,0.146c-0.525,0-1.003-0.046-1.432-0.139c-0.428-0.093-0.797-0.245-1.106-0.457
			c-0.31-0.211-0.547-0.487-0.712-0.828s-0.248-0.759-0.248-1.254c0-0.475,0.096-0.877,0.286-1.207
			c0.191-0.33,0.446-0.594,0.767-0.79c0.319-0.195,0.687-0.338,1.099-0.426c0.413-0.087,0.842-0.131,1.285-0.131
			c0.299,0,0.565,0.013,0.797,0.038c0.232,0.026,0.421,0.06,0.565,0.101v-0.217c0-0.392-0.119-0.706-0.356-0.944
			c-0.237-0.237-0.649-0.355-1.238-0.355c-0.392,0-0.779,0.028-1.161,0.085s-0.712,0.137-0.99,0.24l-0.294-1.858
			c0.134-0.041,0.302-0.085,0.503-0.131c0.201-0.047,0.42-0.088,0.658-0.124c0.237-0.036,0.487-0.067,0.75-0.093
			C89.442,13.241,89.708,13.227,89.976,13.227z M90.162,19.976c0.227,0,0.443-0.005,0.65-0.015c0.206-0.011,0.371-0.026,0.495-0.047
			v-1.749c-0.093-0.021-0.232-0.041-0.418-0.063c-0.186-0.021-0.356-0.03-0.511-0.03c-0.217,0-0.421,0.013-0.611,0.038
			c-0.191,0.026-0.359,0.075-0.503,0.147c-0.145,0.072-0.259,0.17-0.341,0.294c-0.083,0.124-0.124,0.278-0.124,0.465
			c0,0.361,0.121,0.611,0.364,0.75C89.406,19.907,89.739,19.976,90.162,19.976z"/>
	</g>
</g>
</svg>
