<?xml version="1.0" encoding="utf-8"?>
<!-- Generator: Adobe Illustrator 14.0.0, SVG Export Plug-In . SVG Version: 6.00 Build 43363)  -->
<!DOCTYPE svg PUBLIC "-//W3C//DTD SVG 1.1//EN" "http://www.w3.org/Graphics/SVG/1.1/DTD/svg11.dtd">
<svg version="1.1" id="Layer_1" xmlns="http://www.w3.org/2000/svg" xmlns:xlink="http://www.w3.org/1999/xlink" x="0px" y="0px"
	 width="98.377px" height="33.239px" viewBox="0 0 98.377 33.239" enable-background="new 0 0 98.377 33.239" xml:space="preserve">
<g>
	<g>
		<path fill="#7C6EB0" d="M10.27,0C10.27,0-0.052-0.051,0,13.174l0.023,6.409c0,0,0.051,13.224,10.372,13.274l77.712,0.382
			c0,0,10.321,0.052,10.27-13.174l-0.025-6.409c0,0-0.049-13.225-10.371-13.274L10.27,0z"/>
	</g>
	<g>
		<path fill="#FFFFFF" d="M16.082,19.74c0.423,0,0.723-0.041,0.898-0.124c0.175-0.082,0.263-0.242,0.263-0.479
			c0-0.187-0.113-0.349-0.341-0.488c-0.227-0.139-0.572-0.296-1.037-0.472c-0.361-0.134-0.688-0.273-0.982-0.418
			s-0.545-0.317-0.751-0.519c-0.207-0.201-0.366-0.441-0.48-0.72c-0.113-0.279-0.17-0.614-0.17-1.007
			c0-0.764,0.284-1.367,0.852-1.811s1.347-0.666,2.338-0.666c0.495,0,0.97,0.044,1.424,0.132s0.815,0.184,1.083,0.286l-0.402,1.796
			c-0.269-0.093-0.56-0.176-0.874-0.248c-0.315-0.071-0.669-0.108-1.061-0.108c-0.723,0-1.084,0.201-1.084,0.604
			c0,0.093,0.016,0.175,0.047,0.247s0.093,0.143,0.186,0.209c0.093,0.067,0.219,0.14,0.379,0.218s0.364,0.164,0.612,0.258
			c0.505,0.188,0.923,0.372,1.254,0.554c0.33,0.183,0.59,0.379,0.781,0.59c0.19,0.211,0.325,0.445,0.402,0.703
			c0.077,0.257,0.116,0.556,0.116,0.896c0,0.803-0.302,1.411-0.905,1.822c-0.604,0.412-1.458,0.618-2.563,0.618
			c-0.722,0-1.323-0.062-1.803-0.186c-0.48-0.124-0.813-0.228-0.999-0.31l0.387-1.873c0.393,0.154,0.795,0.275,1.208,0.363
			C15.271,19.696,15.68,19.74,16.082,19.74z"/>
		<path fill="#FFFFFF" d="M28.854,17.31c0,0.641-0.094,1.226-0.279,1.757c-0.186,0.532-0.454,0.986-0.805,1.362
			c-0.351,0.377-0.771,0.669-1.262,0.875s-1.04,0.31-1.648,0.31c-0.599,0-1.144-0.104-1.633-0.31
			c-0.491-0.206-0.911-0.498-1.262-0.875c-0.352-0.376-0.625-0.83-0.821-1.362c-0.195-0.531-0.294-1.116-0.294-1.757
			c0-0.64,0.101-1.223,0.302-1.749s0.48-0.976,0.836-1.347c0.356-0.372,0.779-0.66,1.27-0.867c0.49-0.206,1.024-0.31,1.603-0.31
			c0.588,0,1.127,0.104,1.617,0.31c0.49,0.207,0.911,0.495,1.262,0.867c0.351,0.371,0.625,0.82,0.82,1.347
			C28.755,16.087,28.854,16.67,28.854,17.31z M26.5,17.31c0-0.712-0.142-1.271-0.426-1.68c-0.284-0.407-0.688-0.611-1.215-0.611
			s-0.935,0.204-1.223,0.611c-0.289,0.408-0.434,0.968-0.434,1.68s0.145,1.277,0.434,1.695c0.288,0.418,0.696,0.627,1.223,0.627
			s0.931-0.209,1.215-0.627S26.5,18.021,26.5,17.31z"/>
		<path fill="#FFFFFF" d="M32.908,19.74c0.423,0,0.723-0.041,0.898-0.124c0.175-0.082,0.263-0.242,0.263-0.479
			c0-0.187-0.113-0.349-0.341-0.488c-0.227-0.139-0.572-0.296-1.037-0.472c-0.361-0.134-0.688-0.273-0.982-0.418
			s-0.545-0.317-0.751-0.519c-0.207-0.201-0.366-0.441-0.48-0.72c-0.113-0.279-0.17-0.614-0.17-1.007
			c0-0.764,0.284-1.367,0.852-1.811s1.347-0.666,2.338-0.666c0.495,0,0.97,0.044,1.424,0.132s0.815,0.184,1.083,0.286l-0.402,1.796
			c-0.269-0.093-0.56-0.176-0.874-0.248c-0.315-0.071-0.669-0.108-1.061-0.108c-0.723,0-1.084,0.201-1.084,0.604
			c0,0.093,0.016,0.175,0.047,0.247s0.093,0.143,0.186,0.209c0.093,0.067,0.219,0.14,0.379,0.218s0.364,0.164,0.612,0.258
			c0.505,0.188,0.923,0.372,1.254,0.554c0.33,0.183,0.59,0.379,0.781,0.59c0.19,0.211,0.325,0.445,0.402,0.703
			c0.077,0.257,0.116,0.556,0.116,0.896c0,0.803-0.302,1.411-0.905,1.822c-0.604,0.412-1.458,0.618-2.563,0.618
			c-0.722,0-1.323-0.062-1.803-0.186c-0.48-0.124-0.813-0.228-0.999-0.31l0.387-1.873c0.393,0.154,0.795,0.275,1.208,0.363
			C32.098,19.696,32.506,19.74,32.908,19.74z"/>
		<path fill="#FFFFFF" d="M38.001,11.227l2.307-0.372v2.399h2.771v1.92h-2.771v2.863c0,0.485,0.085,0.872,0.256,1.161
			c0.17,0.289,0.513,0.434,1.029,0.434c0.248,0,0.503-0.023,0.767-0.069c0.263-0.047,0.503-0.111,0.72-0.194l0.325,1.796
			c-0.279,0.114-0.589,0.212-0.93,0.294c-0.34,0.083-0.758,0.124-1.254,0.124c-0.629,0-1.15-0.085-1.563-0.255
			c-0.412-0.171-0.742-0.408-0.99-0.713c-0.248-0.304-0.421-0.673-0.519-1.106c-0.099-0.434-0.147-0.913-0.147-1.439V11.227z"/>
		<path fill="#FFFFFF" d="M44.44,17.387c0-0.722,0.111-1.354,0.333-1.896c0.222-0.542,0.514-0.993,0.875-1.354
			s0.776-0.635,1.246-0.82c0.47-0.187,0.952-0.279,1.447-0.279c1.155,0,2.069,0.354,2.74,1.061c0.67,0.707,1.006,1.747,1.006,3.119
			c0,0.135-0.005,0.281-0.016,0.441s-0.021,0.302-0.031,0.426H46.81c0.051,0.475,0.272,0.852,0.665,1.13s0.919,0.418,1.579,0.418
			c0.423,0,0.839-0.039,1.246-0.116s0.74-0.173,0.999-0.286l0.31,1.873c-0.124,0.062-0.289,0.124-0.496,0.186
			c-0.206,0.062-0.436,0.116-0.688,0.162c-0.253,0.047-0.524,0.086-0.813,0.116c-0.289,0.031-0.578,0.047-0.867,0.047
			c-0.732,0-1.37-0.108-1.912-0.325c-0.541-0.217-0.99-0.514-1.347-0.89c-0.355-0.377-0.619-0.823-0.789-1.34
			C44.526,18.543,44.44,17.985,44.44,17.387z M49.858,16.505c-0.01-0.196-0.044-0.387-0.101-0.573
			c-0.057-0.186-0.145-0.351-0.263-0.495c-0.119-0.145-0.269-0.263-0.449-0.355c-0.181-0.094-0.405-0.14-0.673-0.14
			c-0.259,0-0.48,0.044-0.666,0.132s-0.341,0.203-0.465,0.348c-0.123,0.145-0.219,0.313-0.286,0.503
			c-0.067,0.191-0.116,0.385-0.146,0.581H49.858z"/>
		<path fill="#FFFFFF" d="M53.899,13.532c0.392-0.113,0.897-0.219,1.517-0.317c0.619-0.098,1.27-0.146,1.95-0.146
			c0.691,0,1.267,0.091,1.727,0.271c0.459,0.181,0.822,0.437,1.091,0.767s0.459,0.723,0.573,1.177
			c0.113,0.454,0.17,0.959,0.17,1.517v4.598H58.62v-4.319c0-0.742-0.098-1.269-0.294-1.578s-0.563-0.465-1.099-0.465
			c-0.165,0-0.341,0.008-0.526,0.023s-0.352,0.033-0.496,0.054v6.285h-2.306V13.532z"/>
		<path fill="#FFFFFF" d="M65.539,10.901c0,0.423-0.137,0.756-0.41,0.998c-0.273,0.243-0.596,0.364-0.967,0.364
			c-0.372,0-0.694-0.121-0.968-0.364c-0.273-0.242-0.41-0.575-0.41-0.998c0-0.424,0.137-0.756,0.41-0.999
			c0.273-0.242,0.596-0.363,0.968-0.363c0.371,0,0.693,0.121,0.967,0.363C65.402,10.146,65.539,10.478,65.539,10.901z
			 M65.322,21.396h-2.306v-8.143h2.306V21.396z"/>
		<path fill="#FFFFFF" d="M75.075,17.325c0,0.65-0.096,1.238-0.286,1.765c-0.191,0.526-0.468,0.976-0.828,1.347
			c-0.361,0.372-0.806,0.658-1.332,0.859c-0.525,0.201-1.125,0.302-1.795,0.302c-0.279,0-0.57-0.013-0.875-0.039
			c-0.305-0.025-0.604-0.059-0.897-0.101c-0.294-0.041-0.576-0.09-0.844-0.146c-0.269-0.057-0.506-0.116-0.712-0.178V9.756
			l2.306-0.372v4.056c0.259-0.113,0.526-0.201,0.806-0.263c0.278-0.063,0.577-0.093,0.897-0.093c0.578,0,1.089,0.101,1.532,0.302
			c0.444,0.201,0.815,0.487,1.115,0.859c0.299,0.371,0.526,0.817,0.681,1.339C74.998,16.105,75.075,16.686,75.075,17.325z
			 M72.723,17.264c0-1.486-0.548-2.229-1.642-2.229c-0.237,0-0.472,0.031-0.704,0.093c-0.232,0.063-0.421,0.14-0.565,0.232v4.195
			c0.114,0.021,0.259,0.038,0.434,0.054c0.176,0.016,0.366,0.023,0.573,0.023c0.629,0,1.104-0.217,1.424-0.65
			S72.723,17.976,72.723,17.264z"/>
		<path fill="#FFFFFF" d="M80.121,21.552c-0.671-0.011-1.215-0.083-1.633-0.217c-0.418-0.135-0.748-0.323-0.99-0.565
			c-0.243-0.242-0.408-0.536-0.496-0.883c-0.088-0.345-0.131-0.734-0.131-1.168V9.756l2.306-0.372v8.87
			c0,0.207,0.016,0.393,0.047,0.558s0.09,0.305,0.178,0.418s0.215,0.206,0.38,0.278s0.387,0.119,0.665,0.14L80.121,21.552z"/>
		<path fill="#FFFFFF" d="M81.422,17.387c0-0.722,0.111-1.354,0.333-1.896c0.222-0.542,0.514-0.993,0.875-1.354
			s0.776-0.635,1.246-0.82c0.47-0.187,0.952-0.279,1.447-0.279c1.155,0,2.069,0.354,2.74,1.061c0.67,0.707,1.006,1.747,1.006,3.119
			c0,0.135-0.005,0.281-0.016,0.441s-0.021,0.302-0.031,0.426h-5.231c0.051,0.475,0.272,0.852,0.665,1.13s0.919,0.418,1.579,0.418
			c0.423,0,0.839-0.039,1.246-0.116s0.74-0.173,0.999-0.286l0.31,1.873c-0.124,0.062-0.289,0.124-0.496,0.186
			c-0.206,0.062-0.436,0.116-0.688,0.162c-0.253,0.047-0.524,0.086-0.813,0.116c-0.289,0.031-0.578,0.047-0.867,0.047
			c-0.732,0-1.37-0.108-1.912-0.325c-0.541-0.217-0.99-0.514-1.347-0.89c-0.355-0.377-0.619-0.823-0.789-1.34
			C81.508,18.543,81.422,17.985,81.422,17.387z M86.84,16.505c-0.01-0.196-0.044-0.387-0.101-0.573
			c-0.057-0.186-0.145-0.351-0.263-0.495c-0.119-0.145-0.269-0.263-0.449-0.355c-0.181-0.094-0.405-0.14-0.673-0.14
			c-0.259,0-0.48,0.044-0.666,0.132s-0.341,0.203-0.465,0.348c-0.123,0.145-0.219,0.313-0.286,0.503
			c-0.067,0.191-0.116,0.385-0.146,0.581H86.84z"/>
	</g>
</g>
</svg>
