<?xml version="1.0" encoding="utf-8"?>
<!-- Generator: Adobe Illustrator 14.0.0, SVG Export Plug-In . SVG Version: 6.00 Build 43363)  -->
<!DOCTYPE svg PUBLIC "-//W3C//DTD SVG 1.1//EN" "http://www.w3.org/Graphics/SVG/1.1/DTD/svg11.dtd">
<svg version="1.1" id="Layer_1" xmlns="http://www.w3.org/2000/svg" xmlns:xlink="http://www.w3.org/1999/xlink" x="0px" y="0px"
	 width="30.191px" height="15.128px" viewBox="0 0 30.191 15.128" enable-background="new 0 0 30.191 15.128" xml:space="preserve">
<g>
	<g>
		<path fill="#F39200" d="M15.127,15.128H0V0h15.127V15.128L15.127,15.128z M1,14.128h13.127V1H1V14.128L1,14.128z"/>
	</g>
	<g>
		<path fill="#F39200" d="M9.68,10.727c-0.104,0.031-0.273,0.065-0.508,0.102c-0.235,0.036-0.52,0.055-0.855,0.055
			c-0.471,0-0.878-0.08-1.225-0.24c-0.347-0.158-0.639-0.385-0.874-0.677c-0.235-0.29-0.41-0.639-0.526-1.045
			C5.577,8.514,5.519,8.064,5.519,7.57c0-0.511,0.067-0.971,0.203-1.381s0.325-0.76,0.569-1.046
			c0.242-0.288,0.538-0.507,0.885-0.658c0.347-0.152,0.731-0.227,1.153-0.227c0.398,0,0.789,0.049,1.172,0.15
			c0.385,0.099,0.689,0.224,0.922,0.376l0.369-0.969c-0.047-0.033-0.137-0.08-0.268-0.145c-0.132-0.063-0.302-0.126-0.508-0.191
			C9.808,3.417,9.559,3.36,9.268,3.312C8.976,3.264,8.645,3.241,8.269,3.241c-0.549,0-1.066,0.096-1.548,0.287
			c-0.482,0.192-0.903,0.47-1.262,0.837C5.1,4.731,4.814,5.183,4.604,5.722C4.393,6.26,4.287,6.876,4.287,7.57
			c0,0.693,0.095,1.307,0.282,1.841c0.187,0.535,0.453,0.985,0.794,1.352c0.343,0.367,0.753,0.646,1.232,0.838
			c0.479,0.19,1.009,0.286,1.59,0.286c0.288,0,0.571-0.015,0.849-0.042c0.28-0.027,0.537-0.061,0.771-0.101
			c0.236-0.04,0.443-0.08,0.623-0.12c0.178-0.04,0.316-0.075,0.412-0.107V7.641H9.68V10.727z"/>
	</g>
</g>
</svg>
