<?xml version="1.0" encoding="utf-8"?>
<!-- Generator: Adobe Illustrator 26.0.2, SVG Export Plug-In . SVG Version: 6.00 Build 0)  -->
<svg version="1.1" id="Layer_1" xmlns="http://www.w3.org/2000/svg" xmlns:xlink="http://www.w3.org/1999/xlink" x="0px" y="0px"
	 viewBox="0 0 811.7 53.8" style="enable-background:new 0 0 811.7 53.8;" xml:space="preserve">
<style type="text/css">
	.st0{fill:#504F4F;}
	.st1{fill:#FFCC00;}
</style>
<g>
	<g>
		<g>
			<path class="st0" d="M387.3,49.2c0-2.6-2.1-4.6-4.6-4.6c-2.6,0-4.6,2.1-4.6,4.6c0,2.6,2.1,4.6,4.6,4.6S387.3,51.7,387.3,49.2"/>
		</g>
		<g>
			<path class="st0" d="M387.3,4.6c0-2.6-2.1-4.6-4.6-4.6c-2.6,0-4.6,2.1-4.6,4.6c0,2.6,2.1,4.6,4.6,4.6
				C385.2,9.3,387.3,7.2,387.3,4.6"/>
		</g>
		<g>
			<path class="st1" d="M382.6,48.7c-0.8,0-1.5-0.7-1.5-1.5V5.6c0-0.8,0.7-1.5,1.5-1.5s1.5,0.7,1.5,1.5v41.6
				C384.1,48,383.5,48.7,382.6,48.7L382.6,48.7z"/>
		</g>
	</g>
	<g>
		<g>
			<path class="st0" d="M9.2,49.2c0-2.6-2.1-4.6-4.6-4.6C2,44.6,0,46.7,0,49.2c0,2.6,2.1,4.6,4.6,4.6S9.2,51.7,9.2,49.2"/>
		</g>
		<g>
			<path class="st0" d="M9.2,4.6C9.2,2,7.1,0,4.6,0C2,0,0,2.1,0,4.6c0,2.6,2.1,4.6,4.6,4.6C7.1,9.3,9.2,7.2,9.2,4.6"/>
		</g>
		<g>
			<path class="st1" d="M4.6,48.7c-0.8,0-1.5-0.7-1.5-1.5V5.6c0-0.8,0.7-1.5,1.5-1.5s1.5,0.7,1.5,1.5v41.6C6.1,48,5.4,48.7,4.6,48.7
				L4.6,48.7z"/>
		</g>
	</g>
</g>
<g>
	<g>
		<g>
			<path class="st0" d="M811.7,49.2c0-2.6-2.1-4.6-4.6-4.6c-2.6,0-4.6,2.1-4.6,4.6c0,2.6,2.1,4.6,4.6,4.6S811.7,51.7,811.7,49.2"/>
		</g>
		<g>
			<path class="st0" d="M811.7,4.6c0-2.6-2.1-4.6-4.6-4.6c-2.6,0-4.6,2.1-4.6,4.6c0,2.6,2.1,4.6,4.6,4.6
				C809.6,9.3,811.7,7.2,811.7,4.6"/>
		</g>
		<g>
			<path class="st1" d="M807,48.7c-0.8,0-1.5-0.7-1.5-1.5V5.6c0-0.8,0.7-1.5,1.5-1.5s1.5,0.7,1.5,1.5v41.6
				C808.5,48,807.9,48.7,807,48.7L807,48.7z"/>
		</g>
	</g>
	<g>
		<g>
			<path class="st0" d="M433.6,49.2c0-2.6-2.1-4.6-4.6-4.6c-2.6,0-4.6,2.1-4.6,4.6c0,2.6,2.1,4.6,4.6,4.6S433.6,51.7,433.6,49.2"/>
		</g>
		<g>
			<path class="st0" d="M433.6,4.6c0-2.6-2.1-4.6-4.6-4.6c-2.6,0-4.6,2.1-4.6,4.6c0,2.6,2.1,4.6,4.6,4.6
				C431.5,9.3,433.6,7.2,433.6,4.6"/>
		</g>
		<g>
			<path class="st1" d="M429,48.7c-0.8,0-1.5-0.7-1.5-1.5V5.6c0-0.8,0.7-1.5,1.5-1.5s1.5,0.7,1.5,1.5v41.6
				C430.5,48,429.8,48.7,429,48.7L429,48.7z"/>
		</g>
	</g>
</g>
</svg>
