<?xml version="1.0" encoding="utf-8"?>
<!-- Generator: Adobe Illustrator 21.1.0, SVG Export Plug-In . SVG Version: 6.00 Build 0)  -->
<svg version="1.1" id="Capa_1" xmlns="http://www.w3.org/2000/svg" xmlns:xlink="http://www.w3.org/1999/xlink" x="0px" y="0px"
	 viewBox="0 0 716.777 544.277" style="enable-background:new 0 0 716.777 544.277;" xml:space="preserve">
<style type="text/css">
	.st0{clip-path:url(#SVGID_2_);}
	.st1{clip-path:url(#SVGID_6_);}
	.st2{clip-path:url(#SVGID_10_);}
	.st3{clip-path:url(#SVGID_14_);}
	.st4{clip-path:url(#SVGID_18_);}
	.st5{clip-path:url(#SVGID_22_);fill:#CBC6E3;}
	.st6{clip-path:url(#SVGID_22_);fill:#9D92C6;}
	.st7{clip-path:url(#SVGID_22_);fill:#E2F2F8;}
	.st8{clip-path:url(#SVGID_24_);fill:#FFFFFF;}
	.st9{clip-path:url(#SVGID_26_);fill:none;stroke:#FFFFFF;stroke-width:2.547;stroke-dasharray:6.433,3.886;}
	.st10{clip-path:url(#SVGID_26_);fill:none;stroke:#FFFFFF;stroke-width:2.547;stroke-dasharray:7.649,5.102;}
	.st11{clip-path:url(#SVGID_26_);fill:none;stroke:#FFFFFF;stroke-width:2.547;stroke-dasharray:7.688,5.141;}
	.st12{clip-path:url(#SVGID_26_);fill:none;stroke:#FFFFFF;stroke-width:2.547;stroke-dasharray:7.564,5.017;}
	.st13{clip-path:url(#SVGID_26_);fill:none;stroke:#FFFFFF;stroke-width:2.547;stroke-dasharray:7.622,5.075;}
	.st14{clip-path:url(#SVGID_26_);fill:none;stroke:#FFFFFF;stroke-width:2.547;}
	.st15{clip-path:url(#SVGID_26_);fill:#FFFFFF;}
</style>
<g>
	<defs>
		<path id="SVGID_1_" d="M638.611,277.432c-5.848,40.32-30.814,10.468-52.117,50.411c-21.303,39.943,9.82,45.452-10.887,91.187
			c-20.707,45.736-27.629,34.826-33.297,67.05c-5.315,30.229,2.705,43.754,3.719,45.314h30.998c1.082-3,11.527-32.25,16.873-58.204
			c5.643-27.39,50.75-20.945,55.685-63.58c4.934-42.636-16.213-62.095,10.973-92.326c27.186-30.232,30.098-64.932,0-82.696
			c-2.055-1.212-3.908-1.874-5.605-1.874C647.712,232.716,643.35,244.768,638.611,277.432"/>
	</defs>
	<clipPath id="SVGID_2_">
		<use xlink:href="#SVGID_1_"  style="overflow:visible;"/>
	</clipPath>
	<g class="st0">
		<g>
			<defs>
				<rect id="SVGID_3_" x="536.995" y="232.714" width="153.661" height="298.68"/>
			</defs>
			<clipPath id="SVGID_4_">
				<use xlink:href="#SVGID_3_"  style="overflow:visible;"/>
			</clipPath>
			<g style="clip-path:url(#SVGID_4_);">
				
					<image style="overflow:visible;" width="642" height="1245" xlink:href="DB25A82B939969A9.jpg"  transform="matrix(0.24 0 0 0.24 536.76 232.597)">
				</image>
			</g>
		</g>
	</g>
</g>
<g>
	<defs>
		<path id="SVGID_5_" d="M667.947,359.852c-18.124,27.267-7.849,59.59-38.663,66.931c-30.815,7.341-46.762,42.924-52.233,68.288
			c-5,23.177-0.958,34.536-0.224,36.323h24.692c-0.647-1.102-1.338-6.548,18.786-29.878c23.628-27.39,56.692-16.24,63.354-59.615
			c6.661-43.375,32.376-35.048,33.105-59.416c0.507-16.907-14.47-34.376-29.74-34.379
			C680.287,348.105,673.495,351.504,667.947,359.852"/>
	</defs>
	<clipPath id="SVGID_6_">
		<use xlink:href="#SVGID_5_"  style="overflow:visible;"/>
	</clipPath>
	<g class="st1">
		<g>
			<defs>
				<rect id="SVGID_7_" x="572.051" y="348.105" width="145.22" height="183.289"/>
			</defs>
			<clipPath id="SVGID_8_">
				<use xlink:href="#SVGID_7_"  style="overflow:visible;"/>
			</clipPath>
			<g style="clip-path:url(#SVGID_8_);">
				
					<image style="overflow:visible;" width="606" height="764" xlink:href="DB25A82B939969AB.jpg"  transform="matrix(0.24 0 0 0.24 572.04 348.037)">
				</image>
			</g>
		</g>
	</g>
</g>
<g>
	<defs>
		<path id="SVGID_9_" d="M11.985,319.248c14.23,14.45,24.146,12.02,23.196,48.464c-0.949,36.445,42.834,20.156,46.036,38.733
			c3.203,18.577-43.053,35.713-24.08,42.157c18.975,6.445,33.09,4.413,31.659,23.645c-3.064,41.176,26.025,48.673,26.025,48.673
			l41.425-6.278c0,0,28.974-17.921,16.549-35.098c-15.192-21.003,31.199-37.482-14.493-59.259
			c-31.676-15.097-26.608-20.934-47.894-57.912c-11.801-20.502-17.709-17.881-20.37-15.26c-2.14,2.106-2.182,4.212-1.502-5.683
			c1.525-22.209-10.834-63.254-48.768-75.664c-4.024-1.317-7.665-1.915-10.946-1.915C1.177,263.852-0.734,306.331,11.985,319.248"/>
	</defs>
	<clipPath id="SVGID_10_">
		<use xlink:href="#SVGID_9_"  style="overflow:visible;"/>
	</clipPath>
	<g class="st2">
		<g>
			<defs>
				
					<rect id="SVGID_11_" x="-17.626" y="250.856" transform="matrix(0.9903 -0.1392 0.1392 0.9903 -53.6205 17.9628)" width="238.513" height="283.06"/>
			</defs>
			<clipPath id="SVGID_12_">
				<use xlink:href="#SVGID_11_"  style="overflow:visible;"/>
			</clipPath>
			<g style="clip-path:url(#SVGID_12_);">
				
					<image style="overflow:visible;" width="1150" height="1308" xlink:href="DB25A82B939969AE.jpg"  transform="matrix(0.24 0 0 0.24 -36.36 235.477)">
				</image>
			</g>
		</g>
	</g>
</g>
<g>
	<defs>
		<path id="SVGID_13_" d="M24.673,340.431c-14.596,1.519-22.944,10.011-24.432,22.121L3.045,382.5
			c2.055,5.691,5.162,11.671,9.356,17.755c20.482,29.707,37.323,37.306,35.059,63.324c-2.265,26.018,3.84,25.854,22.727,38.503
			c17.467,11.697,10.798,26.88,9.694,29.101l35.921-5.049c0.456-2.968,4.415-30.248-3.395-35.408
			c-31.81-21.018-20.396-27.032-22.315-48.583c-1.919-21.55-3.19-42.435-25.191-52.518c-27.924-12.797-13.986-49.34-37.502-49.343
			C26.54,340.282,25.635,340.331,24.673,340.431"/>
	</defs>
	<clipPath id="SVGID_14_">
		<use xlink:href="#SVGID_13_"  style="overflow:visible;"/>
	</clipPath>
	<g class="st3">
		<g>
			<defs>
				
					<rect id="SVGID_15_" x="-12.459" y="332.862" transform="matrix(0.9903 -0.1392 0.1392 0.9903 -60.0561 12.6228)" width="145.377" height="205.741"/>
			</defs>
			<clipPath id="SVGID_16_">
				<use xlink:href="#SVGID_15_"  style="overflow:visible;"/>
			</clipPath>
			<g style="clip-path:url(#SVGID_16_);">
				
					<image style="overflow:visible;" width="721" height="935" xlink:href="DB25A82B939969AF.jpg"  transform="matrix(0.24 0 0 0.24 -26.28 323.557)">
				</image>
			</g>
		</g>
	</g>
</g>
<g>
	<defs>
		<path id="SVGID_17_" d="M39.265,416.525c-4.423,0.001-9.378,1.084-14.773,3.15C1.756,428.379,27.544,450.339,38,461.071
			c10.456,10.732,7.788,32.255,25.883,39.473c16.986,6.775,12.931,28.508,12.37,31.148l10.984-1.543
			c0.556-2.643,4.739-24.442-6.716-32.757c-12.203-8.859-17.578-17.021-17.945-43.929c-0.352-25.747-9.094-36.937-23.309-36.938
			C39.266,416.525,39.266,416.525,39.265,416.525"/>
	</defs>
	<clipPath id="SVGID_18_">
		<use xlink:href="#SVGID_17_"  style="overflow:visible;"/>
	</clipPath>
	<g class="st4">
		<g>
			<defs>
				
					<rect id="SVGID_19_" x="-5.819" y="410.808" transform="matrix(0.9903 -0.1392 0.1392 0.9903 -65.527 11.1365)" width="105.37" height="126.602"/>
			</defs>
			<clipPath id="SVGID_20_">
				<use xlink:href="#SVGID_19_"  style="overflow:visible;"/>
			</clipPath>
			<g style="clip-path:url(#SVGID_20_);">
				
					<image style="overflow:visible;" width="509" height="586" xlink:href="DB25A82B939969AA.jpg"  transform="matrix(0.24 0 0 0.24 -14.28 403.957)">
				</image>
			</g>
		</g>
	</g>
</g>
<g>
	<defs>
		<rect id="SVGID_21_" width="716.777" height="544.277"/>
	</defs>
	<clipPath id="SVGID_22_">
		<use xlink:href="#SVGID_21_"  style="overflow:visible;"/>
	</clipPath>
	<path class="st5" d="M68.678,25.058C52.735,42.785,89.189,544.275,89.189,544.275s446.308-8.129,519.289-25.059
		C604.966,426.29,587.967-0.001,587.967-0.001S183.145,12.015,68.678,25.058"/>
	<path class="st6" d="M78.741,12.459c-16.627,16.939,0,519.713,0,519.713s446.204,13.394,519.784,0
		c0.159-93.006,0-519.713,0-519.713S193.613,4.949,78.741,12.459"/>
	<path class="st7" d="M107.555,23.777c0,0-10.807,0.701-18.426,8.398c-8.098,8.18,2.717,471.497,2.717,471.497
		s0.253,10.826,11.082,10.763c0,0,415.596,9.754,474.489-0.877c0,0,10.658-1.926,10.677-12.754
		c0.131-76.351-0.015-465.496-0.015-465.496s-0.004-10.83-10.832-11.029C577.247,24.279,205.332,17.437,107.555,23.777"/>
</g>
<g>
	<defs>
		<path id="SVGID_23_" d="M107.555,23.777c0,0-10.807,0.701-18.425,8.398c-8.098,8.18,2.716,471.497,2.716,471.497
			s0.253,10.826,11.082,10.763c0,0,415.596,9.754,474.489-0.877c0,0,10.658-1.926,10.677-12.754
			c0.132-76.351-0.014-465.496-0.014-465.496s-0.005-10.83-10.833-11.029c0,0-173.676-3.195-314.863-3.195
			C196.96,21.084,138.516,21.77,107.555,23.777"/>
	</defs>
	<clipPath id="SVGID_24_">
		<use xlink:href="#SVGID_23_"  style="overflow:visible;"/>
	</clipPath>
	<path class="st8" d="M678.27,205.629c0-10.969-9.273-19.861-20.712-19.861c-4.376,0-8.429,1.308-11.773,3.529
		c0.245-1.334,0.393-2.699,0.393-4.104c0-12.71-10.489-23.015-23.428-23.015c-2.063,0-4.063,0.262-5.968,0.756
		c-1.863-12.897-17.912-22.975-37.439-22.975c-17.914,0-32.893,8.484-36.685,19.844c-0.61-0.041-1.218-0.094-1.838-0.094
		c-15.136,0-27.406,12.27-27.406,27.404c0,15.137,12.27,27.407,27.406,27.407c1.934,0,3.819-0.205,5.64-0.586
		c4.443,15.978,23.941,28.015,47.325,28.015c22.108,0,40.732-10.761,46.455-25.441c3.701,5.406,10.07,8.982,17.318,8.982
		C668.997,225.49,678.27,216.598,678.27,205.629"/>
</g>
<g>
	<defs>
		<rect id="SVGID_25_" width="716.777" height="544.277"/>
	</defs>
	<clipPath id="SVGID_26_">
		<use xlink:href="#SVGID_25_"  style="overflow:visible;"/>
	</clipPath>
	<path class="st9" d="M100.628,25.273c-2.315,0.766-4.96,1.914-7.521,3.629"/>
	<path class="st10" d="M87.645,40.916C82.937,100.812,90.536,446,91.701,497.299"/>
	<path class="st11" d="M111.912,514.638c58.813,1.299,388.668,8.145,459.158-0.166"/>
	<path class="st12" d="M588.107,492.004c0.101-86.178-0.007-401.84-0.025-450.404"/>
	<path class="st13" d="M568.364,24.121c-55.736-0.963-357.945-5.873-454.471-0.715"/>
	<path class="st14" d="M111.359,23.547c-1.31,0.074-2.578,0.152-3.804,0.23c0,0-1.24,0.082-3.177,0.487 M582.067,25.277
		c-1.304-0.59-2.89-0.963-4.82-0.998c0,0-1.315-0.023-3.81-0.068 M588.081,39.09c-0.001-2.477-0.002-3.781-0.002-3.781
		s0-2.309-1.066-4.813 M587.167,505.846c0.573-1.418,0.924-3.084,0.927-5.041c0.002-1.188,0.004-2.45,0.006-3.784 M573.62,514.15
		c1.395-0.191,2.662-0.388,3.798-0.591c0,0,2.292-0.416,4.753-1.94 M98.088,513.555c1.316,0.558,2.91,0.892,4.841,0.881
		c0,0,1.327,0.031,3.843,0.089 M91.758,499.848c0.057,2.504,0.088,3.824,0.088,3.824s0.054,2.306,1.177,4.785 M91.533,30.041
		c-0.824,0.645-1.63,1.354-2.404,2.135c-0.357,0.361-0.678,1.609-0.964,3.666"/>
	<path class="st15" d="M452.165,52.99c0-6.912-5.844-12.518-13.054-12.518c-2.757,0-5.311,0.825-7.419,2.225
		c0.154-0.84,0.248-1.701,0.248-2.586c0-8.012-6.611-14.506-14.765-14.506c-1.301,0-2.561,0.166-3.762,0.477
		c-1.174-8.127-11.288-14.479-23.595-14.479c-11.29,0-20.73,5.346-23.12,12.506c-0.385-0.025-0.767-0.06-1.159-0.06
		c-9.539,0-17.271,7.734-17.271,17.273c0,9.539,7.732,17.272,17.271,17.272c1.219,0,2.407-0.129,3.555-0.372
		c2.8,10.073,15.088,17.659,29.826,17.659c13.933,0,25.67-6.784,29.277-16.034c2.333,3.407,6.347,5.661,10.914,5.661
		C446.321,65.508,452.165,59.902,452.165,52.99"/>
	<path class="st15" d="M254.699,391.966c0-13.15-11.117-23.811-24.831-23.811c-5.246,0-10.105,1.569-14.114,4.231
		c0.294-1.598,0.471-3.236,0.471-4.918c0-15.24-12.575-27.594-28.087-27.594c-2.473,0-4.871,0.315-7.154,0.906
		c-2.233-15.46-21.474-27.543-44.884-27.543c-21.476,0-39.434,10.172-43.98,23.79c-0.732-0.049-1.46-0.114-2.204-0.114
		c-18.146,0-32.856,14.711-32.856,32.858c0,18.144,14.71,32.855,32.856,32.855c2.318,0,4.579-0.246,6.762-0.703
		c5.326,19.156,28.701,33.586,56.735,33.586c26.505,0,48.832-12.902,55.693-30.5c4.437,6.482,12.073,10.769,20.762,10.769
		C243.582,415.778,254.699,405.118,254.699,391.966"/>
</g>
</svg>
