<?xml version="1.0" encoding="utf-8"?>
<!-- Generator: Adobe Illustrator 21.1.0, SVG Export Plug-In . SVG Version: 6.00 Build 0)  -->
<svg version="1.1" id="Capa_1" xmlns="http://www.w3.org/2000/svg" xmlns:xlink="http://www.w3.org/1999/xlink" x="0px" y="0px"
	 viewBox="0 0 52.973 35.911" style="enable-background:new 0 0 52.973 35.911;" xml:space="preserve">
<style type="text/css">
	.st0{clip-path:url(#SVGID_2_);}
	.st1{clip-path:url(#SVGID_4_);fill:#005CA8;}
	.st2{filter:url(#Adobe_OpacityMaskFilter);}
	.st3{clip-path:url(#SVGID_4_);}
	.st4{clip-path:url(#SVGID_4_);mask:url(#SVGID_5_);}
	.st5{opacity:0.2;clip-path:url(#SVGID_9_);fill:#1D1D1B;}
	.st6{clip-path:url(#SVGID_2_);fill:#FFFFFF;}
	.st7{clip-path:url(#SVGID_11_);fill:none;stroke:#005CA8;stroke-width:1.777;stroke-linecap:round;}
	.st8{clip-path:url(#SVGID_2_);fill:none;stroke:#005CA8;stroke-width:1.185;stroke-linecap:round;}
	.st9{clip-path:url(#SVGID_13_);fill:#005CA8;}
	.st10{clip-path:url(#SVGID_15_);fill:#FFFFFF;}
</style>
<g>
	<defs>
		<rect id="SVGID_1_" x="-9.125" y="-5.113" width="75.189" height="51.024"/>
	</defs>
	<clipPath id="SVGID_2_">
		<use xlink:href="#SVGID_1_"  style="overflow:visible;"/>
	</clipPath>
	<g class="st0">
		<defs>
			<rect id="SVGID_3_" x="-9.125" y="-5.113" width="75.189" height="51.024"/>
		</defs>
		<clipPath id="SVGID_4_">
			<use xlink:href="#SVGID_3_"  style="overflow:visible;"/>
		</clipPath>
		<path class="st1" d="M25.261,12.827c0,0-1.805,0-1.805,1.805v14.401c0,0,0,1.805,1.805,1.805h25.907c0,0,1.805,0,1.805-1.805
			V14.632c0,0,0-1.805-1.805-1.805H25.261z"/>
		<defs>
			<filter id="Adobe_OpacityMaskFilter" filterUnits="userSpaceOnUse" x="3.401" y="0" width="25.92" height="33.361">
				<feColorMatrix  type="matrix" values="1 0 0 0 0  0 1 0 0 0  0 0 1 0 0  0 0 0 1 0"/>
			</filter>
		</defs>
		<mask maskUnits="userSpaceOnUse" x="3.401" y="0" width="25.92" height="33.361" id="SVGID_5_">
			<g class="st2">
				<g>
					<defs>
						<rect id="SVGID_6_" x="-5.479" y="-6.96" width="44.16" height="41.28"/>
					</defs>
					<clipPath id="SVGID_7_" class="st3">
						<use xlink:href="#SVGID_6_"  style="overflow:visible;"/>
					</clipPath>
					<g transform="matrix(1 0 0 1 0 0)" style="clip-path:url(#SVGID_7_);">
						
							<image style="overflow:visible;" width="184" height="172" xlink:href="FCDBCB53D552AD99.jpg"  transform="matrix(0.24 0 0 0.24 -5.4791 -6.9595)">
						</image>
					</g>
				</g>
			</g>
		</mask>
		<g class="st4">
			<g>
				<defs>
					<rect id="SVGID_8_" x="3.401" y="0" width="25.92" height="33.36"/>
				</defs>
				<clipPath id="SVGID_9_">
					<use xlink:href="#SVGID_8_"  style="overflow:visible;"/>
				</clipPath>
				<rect x="3.401" class="st5" width="25.92" height="33.36"/>
			</g>
		</g>
	</g>
	<rect x="1.509" y="2.052" class="st6" width="25.605" height="33.132"/>
	<g class="st0">
		<defs>
			<rect id="SVGID_10_" x="-9.125" y="-5.113" width="75.189" height="51.024"/>
		</defs>
		<clipPath id="SVGID_11_">
			<use xlink:href="#SVGID_10_"  style="overflow:visible;"/>
		</clipPath>
		<path class="st7" d="M0.965,2.259v29.778c0,0,0.45,3.058,1.609,3.058h25.42c-1.223,0-1.609-3.058-1.609-3.058V2.259H0.965z"/>
	</g>
	<rect x="4.667" y="12.002" class="st8" width="7.776" height="7.696"/>
	<g class="st0">
		<defs>
			<rect id="SVGID_12_" x="-9.125" y="-5.113" width="75.189" height="51.024"/>
		</defs>
		<clipPath id="SVGID_13_">
			<use xlink:href="#SVGID_12_"  style="overflow:visible;"/>
		</clipPath>
		<path class="st9" d="M21.598,7.357l0.462-1.552l0.47,1.552H21.598z M22.998,8.943h0.836l-1.313-3.957h-0.882l-1.296,3.957h0.794
			l0.275-0.93h1.307L22.998,8.943z M20.524,4.986H17.64v0.689h1.054v3.268h0.775V5.675h1.055V4.986z M14.968,7.907l-0.341,0.548
			c0.376,0.324,0.845,0.544,1.393,0.544c0.744,0,1.344-0.399,1.344-1.215c0-1.436-1.866-0.919-1.866-1.709
			c0-0.29,0.249-0.458,0.587-0.458c0.285,0,0.62,0.118,0.891,0.309l0.335-0.532c-0.343-0.287-0.811-0.465-1.277-0.465
			c-0.716,0-1.299,0.415-1.299,1.204c0,1.397,1.849,0.917,1.849,1.709c0,0.299-0.26,0.452-0.607,0.452
			C15.634,8.294,15.279,8.144,14.968,7.907 M13.294,8.943h0.777V4.986h-0.777V8.943z M10.461,4.986H9.632l1.265,3.957h0.667
			l1.27-3.957h-0.788l-0.796,2.74L10.461,4.986z M6.963,8.943h2.414V8.257H7.731V7.29h1.395V6.606H7.731V5.672h1.607V4.986H6.963
			V8.943z M4.378,6.821V5.665h0.495c0.386,0,0.635,0.196,0.635,0.581c0,0.368-0.227,0.575-0.635,0.575H4.378z M3.615,8.943h0.763
			V7.502h0.425l0.751,1.441h0.9L5.573,7.381c0.446-0.195,0.71-0.613,0.71-1.146c0-0.729-0.496-1.249-1.333-1.249H3.615V8.943z"/>
	</g>
	<line class="st8" x1="14.749" y1="13.293" x2="22.767" y2="13.293"/>
	<line class="st8" x1="14.749" y1="16.424" x2="22.767" y2="16.424"/>
	<line class="st8" x1="14.749" y1="19.698" x2="22.767" y2="19.698"/>
	<line class="st8" x1="4.336" y1="24.109" x2="23.646" y2="24.109"/>
	<line class="st8" x1="4.336" y1="27.24" x2="23.646" y2="27.24"/>
	<line class="st8" x1="4.336" y1="30.514" x2="23.646" y2="30.514"/>
	<g class="st0">
		<defs>
			<rect id="SVGID_14_" x="-9.125" y="-5.113" width="75.189" height="51.024"/>
		</defs>
		<clipPath id="SVGID_15_">
			<use xlink:href="#SVGID_14_"  style="overflow:visible;"/>
		</clipPath>
		<path class="st10" d="M46.255,27.91c0.624-0.197,1.138-0.47,1.542-0.821c0.404-0.351,0.701-0.768,0.892-1.25
			c0.19-0.482,0.285-1.009,0.285-1.58c0-0.726-0.175-1.348-0.526-1.865c-0.351-0.518-0.847-0.908-1.489-1.17
			c0.464-0.237,0.832-0.584,1.106-1.041c0.273-0.457,0.41-0.929,0.41-1.416c0-0.498-0.084-0.958-0.25-1.379
			c-0.166-0.421-0.422-0.789-0.766-1.104c-0.345-0.314-0.782-0.558-1.311-0.73c-0.529-0.172-1.156-0.258-1.881-0.258
			c-0.392,0-0.764,0.036-1.114,0.107c-0.351,0.071-0.681,0.16-0.99,0.267c-0.309,0.107-0.591,0.226-0.847,0.357
			c-0.255,0.131-0.478,0.256-0.668,0.374l0.945,1.944c0.356-0.226,0.751-0.416,1.185-0.571c0.434-0.154,0.907-0.232,1.418-0.232
			c0.202,0,0.401,0.027,0.597,0.081c0.196,0.053,0.368,0.133,0.517,0.24c0.149,0.107,0.27,0.244,0.366,0.41
			c0.095,0.167,0.142,0.363,0.142,0.589c0,0.297-0.056,0.544-0.169,0.74c-0.113,0.196-0.265,0.35-0.455,0.463
			c-0.19,0.113-0.407,0.194-0.651,0.241c-0.243,0.048-0.496,0.071-0.757,0.071h-1.177v2.14h1.034c0.368,0,0.716,0.027,1.043,0.08
			c0.327,0.054,0.609,0.149,0.847,0.285c0.238,0.137,0.425,0.315,0.562,0.535c0.136,0.22,0.205,0.49,0.205,0.811
			c0,0.524-0.191,0.94-0.571,1.248c-0.38,0.31-0.981,0.464-1.801,0.464c-0.713,0-1.31-0.074-1.792-0.223
			c-0.481-0.148-0.876-0.288-1.185-0.419l-0.517,2.211c0.154,0.071,0.368,0.149,0.642,0.232c0.273,0.083,0.576,0.16,0.909,0.232
			c0.333,0.071,0.677,0.127,1.034,0.169c0.357,0.041,0.695,0.062,1.016,0.062C44.891,28.205,45.631,28.106,46.255,27.91
			 M36.119,19.872c-0.202,0.308-0.493,0.581-0.873,0.818c-0.678-0.237-1.157-0.521-1.436-0.853
			c-0.279-0.332-0.419-0.688-0.419-1.067c0-0.142,0.03-0.29,0.089-0.444c0.06-0.154,0.152-0.3,0.277-0.436s0.282-0.246,0.472-0.329
			c0.19-0.083,0.416-0.125,0.678-0.125c0.273,0,0.505,0.045,0.695,0.134c0.19,0.089,0.348,0.199,0.473,0.329
			c0.124,0.13,0.214,0.27,0.267,0.418c0.054,0.148,0.08,0.287,0.08,0.417C36.422,19.184,36.321,19.563,36.119,19.872 M33.463,23.403
			c0.225-0.334,0.505-0.626,0.838-0.876c0.332,0.107,0.644,0.223,0.936,0.348c0.291,0.126,0.543,0.268,0.757,0.429
			c0.214,0.161,0.384,0.349,0.509,0.563c0.124,0.215,0.187,0.459,0.187,0.733c0,0.37-0.143,0.703-0.428,1.001
			s-0.737,0.447-1.355,0.447c-0.321,0-0.595-0.048-0.82-0.143c-0.226-0.095-0.41-0.214-0.553-0.357
			c-0.143-0.143-0.247-0.301-0.312-0.474c-0.066-0.173-0.098-0.331-0.098-0.474C33.124,24.135,33.237,23.736,33.463,23.403
			 M38.856,22.804c-0.291-0.482-0.776-0.943-1.453-1.384c0.451-0.284,0.829-0.673,1.132-1.166c0.303-0.492,0.455-1.023,0.455-1.593
			c0-0.392-0.075-0.787-0.223-1.184c-0.149-0.398-0.39-0.757-0.722-1.077c-0.333-0.32-0.758-0.585-1.275-0.792
			c-0.517-0.208-1.138-0.312-1.863-0.312c-0.618,0-1.18,0.098-1.685,0.294c-0.505,0.196-0.936,0.457-1.293,0.783
			c-0.356,0.327-0.633,0.709-0.829,1.149c-0.196,0.439-0.294,0.896-0.294,1.37c0,0.629,0.122,1.146,0.366,1.549
			c0.243,0.404,0.621,0.814,1.132,1.229c-0.238,0.178-0.461,0.369-0.669,0.571c-0.208,0.203-0.395,0.426-0.562,0.67
			c-0.166,0.244-0.297,0.515-0.392,0.812c-0.095,0.298-0.142,0.625-0.142,0.982c0,0.345,0.071,0.723,0.214,1.134
			c0.142,0.41,0.383,0.788,0.722,1.133c0.338,0.346,0.784,0.635,1.337,0.867c0.553,0.231,1.245,0.348,2.077,0.348
			c0.725,0,1.364-0.093,1.917-0.277c0.552-0.185,1.013-0.444,1.381-0.777c0.369-0.333,0.645-0.723,0.829-1.169
			c0.185-0.446,0.277-0.937,0.277-1.473C39.293,23.848,39.147,23.286,38.856,22.804"/>
	</g>
</g>
</svg>
