<?xml version="1.0" encoding="utf-8"?>
<!-- Generator: Adobe Illustrator 21.1.0, SVG Export Plug-In . SVG Version: 6.00 Build 0)  -->
<svg version="1.1" id="Capa_1" xmlns="http://www.w3.org/2000/svg" xmlns:xlink="http://www.w3.org/1999/xlink" x="0px" y="0px"
	 viewBox="0 0 18.9 22.7" style="enable-background:new 0 0 18.9 22.7;" xml:space="preserve">
<style type="text/css">
	.st0{fill:#E20613;}
</style>
<path class="st0" d="M5,20L5,20L5,20L5,20L5,20z M3.6,20L3.6,20L3.6,20L3.6,20z M5.1,20L5.1,20L5.1,20L5.1,20L5.1,20L5.1,20L5.1,20
	L5.1,20L5.1,20L5.1,20L5.1,20L5.1,20L5.1,20L5.1,20L5.1,20L5.1,20L5.1,20L5.1,20z M5.1,20L5.1,20L5.1,20z M17.8,0l-0.8,0.3L17,0.4
	l-0.1,0.1l-0.1,0.1l-0.1,0.1l-0.1,0.1L16.4,1l-0.1,0.1l-0.1,0.1l-0.1,0.1L16,1.4l-0.1,0.1l-0.1,0.1l-0.1,0.1l-0.1,0.1l-0.1,0.1
	l-0.1,0.1l-0.1,0.1l-0.1,0.1l-0.1,0.1L15,2.5l-0.1,0.1l-0.1,0.1l-0.1,0.1L14.6,3l-0.1,0.1l-0.1,0.1l-0.1,0.1l-0.1,0.1l-0.1,0.1
	l-0.1,0.1L14,3.8l-0.1,0.1L13.8,4l-0.1,0.1l-0.1,0.1l-0.1,0.1l-0.1,0.1l-0.1,0.1l-0.1,0.1l-0.1,0.1L13.1,5L13,5.1l-0.1,0.1l-0.1,0.1
	l-0.1,0.1l-0.1,0.1l-0.1,0.1l-0.1,0.1l-0.1,0.1l-0.1,0.1l-0.1,0.1l0,0.1l0,0.1L12,6.4L12,6.6l-0.1,0.1l-0.1,0.1l-0.1,0.1l-0.1,0.1
	l-0.1,0.1l-0.1,0.1l-0.1,0.1l-0.1,0.1l-0.1,0.1l-0.1,0.1l-0.1,0.1L11,8.1l-0.1,0.1l-0.1,0.1l-0.1,0.1l-0.1,0.1l-0.1,0.1l-0.1,0.1
	l-0.1,0.1l-0.1,0.1l0,0l0,0.1l-0.1,0.1l-0.1,0.1l-0.1,0.1L10,9.7L10,9.9L9.9,10l-0.1,0.1l-0.1,0.1l-0.1,0.1l-0.1,0.1l-0.1,0.1
	l-0.1,0.1l-0.1,0.1L9.3,11l-0.1,0.1l-0.1,0.1l-0.1,0.1L9,11.5L9,11.7l-0.1,0.1l-0.1,0.1l-0.1,0.3l-0.1,0.3l-0.1,0.3L8.3,13l-0.1,0.3
	L8,13.5l-0.1,0.3l-0.1,0.3l-0.1,0.3l-0.1,0.3l-0.1,0.3l-0.1,0.3l-0.1,0.2l0,0.1L7,15.7l-0.1,0.3l-0.1,0.3l0,0.1l0,0.1l-0.1,0.2
	l-0.1,0.2l-0.1,0.1l-0.1,0.2l-0.1,0.2l-0.1,0.2l-0.1,0.2l-0.1,0.2L6.1,18L6,18.1L6,18l-0.1-0.2l0-0.1l0-0.1l0-0.1l0-0.1l0-0.1l0-0.1
	l-0.1-0.1l-0.1-0.1L5.4,17l-0.1-0.1l0-0.1l-0.1-0.1l-0.1-0.1l-0.1-0.1l-0.1-0.1l-0.1-0.1L5,16.2l0,0l0-0.1L4.9,16l-0.1-0.1l-0.1-0.1
	l-0.1-0.1l-0.1-0.1l-0.1-0.1l-0.1-0.1l-0.1-0.1l-0.1-0.1l-0.1-0.1l-0.1-0.1L4.3,15l-0.1-0.1l-0.1-0.1l-0.1-0.1L4,14.7L4,14.6
	l-0.1-0.1l-0.1-0.1l-0.1-0.1l-0.1-0.1l-0.1-0.1l-0.1-0.1L3.5,14l-0.1-0.1l-0.1-0.1l-0.1-0.1l-0.1-0.1l-0.1-0.1l-0.1-0.1L3,13.4
	L3,13.3l-0.1-0.1l-0.1-0.1l0,0l0,0L2.7,13l0,0l-1-0.5l-1.1,0.4l0,0l-0.5,1L0.4,15l0,0l0.1,0.1l0,0l0,0l0.1,0.1l0.1,0.1l0.1,0.1
	l0.1,0.1l0.1,0.1l0.1,0.1l0.1,0.1L1,15.7L1,15.8l0.1,0.1l0.1,0.1L1.2,16l0.1,0.1l0.1,0.1l0.1,0.1l0.1,0.1l0.1,0.1l0.1,0.1l0.1,0.1
	l0.1,0.1l0.1,0.1l0.1,0.1l0,0.1l0.1,0.1L1.9,17l0,0.1L2,17.1l0,0.1l0.1,0.1l0.1,0.1l0,0.1l0,0.1l0.1,0.1l0,0.1l0,0.1l0,0l0.1,0.1
	l0,0.1l0,0.1l0,0.1l0,0.1l0,0.1l0,0.1l0,0.1l0,0.1l0,0.1l0,0.1l0,0.1l0,0.1l0,0.1l0,0.1l0,0.1l0,0.1l0.1,0.2l0.1,0.2l0.1,0.2l0,0
	l0.1,0.2L3.6,20h0l0,0l0,0l0,0l0.1,0.2l0.1,0.1l0.1,0.2l0,0.1l0,0.1l0,0.1L4,21l0,0.1l0,0.1l0,0.1l0,0.1l0,0.1l0,0l0,0.1l0,0.1l0,0
	l0,0l0,0l0,0l0,0l0,0l0,0l0,0l0,0.1l0,0.1l0,0.1l0.1,0.1l0.1,0.1l0.1,0.1l0.1,0.1l0.1,0l0.1,0l0.1,0.1l0.1,0.1l0.1,0l0.1,0l0.1,0
	l0.1,0h0.1H6l0.1,0l0.1,0l0.1,0l0.1,0l0.1,0l0.1,0l0.1-0.1l0.1,0l0.1-0.1l0.1-0.1l0.1-0.1L7,22.2L7,22.2l0.1,0l0,0l0,0l0,0l0,0l0,0
	l0,0l0,0l0,0l0,0l0,0l0,0l0,0l0,0l0,0l0,0l0,0l0,0l0-0.1l0.1-0.1l0-0.1l0-0.1l0-0.1l0-0.1l0-0.1l0-0.1l0-0.1l0-0.1l0-0.1l0-0.1
	l0-0.1l0-0.1l0-0.1l0-0.1l0-0.1l0-0.1l0-0.1l0-0.1l0-0.1L8.7,19l0.1-0.2l0.1-0.2l0.1-0.2L9,18.2L9,18.1l0.1-0.2l0.1-0.1l0.1-0.2
	l0.1-0.2l0,0l0,0L9.4,17l0.1-0.3l0.1-0.3l0-0.1l0.1-0.2l0.1-0.3l0.1-0.3l0.1-0.3l0.1-0.3l0.1-0.3l0.1-0.3l0.1-0.3l0.1-0.3l0.1-0.3
	l0.1-0.3l0.1-0.3l0.1-0.3l0.1-0.1l0.1-0.1l0.1-0.1l0.1-0.1l0.1-0.1l0.1-0.1l0.1-0.1l0.1-0.1l0.1-0.1l0.1-0.1l0.1-0.1l0.1-0.1
	l0.1-0.1l0.1-0.1l0.1-0.1l0.1-0.1l0.1-0.1l0.1-0.1l0.1-0.1l0.1-0.1l0.1-0.1l0-0.1l0,0l0.1-0.1l0.1-0.1l0.1-0.1l0.1-0.1l0.1-0.1
	l0.1-0.1L13,9.4L13,9.3l0.1-0.1L13.2,9l0.1-0.1l0.1-0.1l0.1-0.1l0.1-0.1l0.1-0.1l0.1-0.1l0.1-0.1L13.8,8l0.1-0.1l0.1-0.1L14,7.7
	l0.1-0.1l0-0.1l0-0.1l0.1-0.1l0.1-0.1l0.1-0.1L14.4,7l0.1-0.1l0.1-0.1l0.1-0.1l0.1-0.1l0.1-0.1l0.1-0.1L15,6.2l0.1-0.1l0.1-0.1
	l0.1-0.1l0.1-0.1l0.1-0.1l0.1-0.1l0.1-0.1l0.1-0.1l0.1-0.1L15.8,5l0.1-0.1L16,4.8l0.1-0.1l0,0l0.1-0.1l0.1-0.1l0.1-0.1l0.1-0.1
	l0.1-0.1L16.6,4l0.1-0.1l0.1-0.1l0.1-0.1L17,3.6l0.1-0.1l0.1-0.1l0.1-0.1l0.1-0.1l0.1-0.1L17.5,3l0.1-0.1l0.1-0.1l0.1-0.1l0.1-0.1
	L18,2.5l0.1-0.1l0.1-0.1l0.1-0.1l0.1-0.1L18.5,2l0.1-0.1l0,0l0.3-0.8l-0.3-0.8l0,0L17.8,0z"/>
</svg>
