<?xml version="1.0" encoding="utf-8"?>
<!-- Generator: Adobe Illustrator 25.4.3, SVG Export Plug-In . SVG Version: 6.00 Build 0)  -->
<svg version="1.1" id="Capa_1" xmlns="http://www.w3.org/2000/svg" xmlns:xlink="http://www.w3.org/1999/xlink" x="0px" y="0px"
	 viewBox="0 0 23.6 15" style="enable-background:new 0 0 23.6 15;" xml:space="preserve">
<style type="text/css">
	.st0{fill:#929581;}
	.st1{fill:#AFCA0B;}
</style>
<path class="st0" d="M17.9,6.1c0-1.5,1.3-2.6,2.8-2.6c1.6,0,2.8,1.2,2.8,2.6c0,1.5-1.3,2.6-2.8,2.6C19.2,8.7,17.9,7.6,17.9,6.1"/>
<path class="st1" d="M1,9.5c-0.5,0-0.9-0.4-1-0.9c-0.1-0.5,0.3-1,0.9-1.1l19.6-2.4C21,5,21.5,5.4,21.6,6c0.1,0.5-0.3,1-0.9,1.1
	L1.1,9.5C1.1,9.5,1,9.5,1,9.5z"/>
<polygon class="st1" points="12.6,11 0.9,9.5 1.1,7.5 12.6,9 "/>
</svg>
