<?xml version="1.0" encoding="utf-8"?>
<!-- Generator: Adobe Illustrator 21.1.0, SVG Export Plug-In . SVG Version: 6.00 Build 0)  -->
<svg version="1.1" id="Capa_1" xmlns="http://www.w3.org/2000/svg" xmlns:xlink="http://www.w3.org/1999/xlink" x="0px" y="0px"
	 viewBox="0 0 42.278 11.864" style="enable-background:new 0 0 42.278 11.864;" xml:space="preserve">
<style type="text/css">
	.st0{clip-path:url(#SVGID_2_);fill:#E9EEC6;}
</style>
<g>
	<defs>
		<rect id="SVGID_1_" width="42.278" height="11.864"/>
	</defs>
	<clipPath id="SVGID_2_">
		<use xlink:href="#SVGID_1_"  style="overflow:visible;"/>
	</clipPath>
	<path class="st0" d="M0.198,4.51c4.746,5.226,13.781,6.045,20.444,5.463c6.81-0.593,11.852-3.858,17.641-7.091
		c0.252-0.142,0.445,0.187,0.327,0.391c-3.859,6.674-13.124,8.664-20.251,8.589C12.96,11.807,1.877,10.995,0.004,4.601
		C-0.027,4.489,0.131,4.439,0.198,4.51"/>
	<path class="st0" d="M30.444,1.892c1.885,0.07,3.583,0.179,5.441-0.317c1.756-0.472,3.473-1.073,5.227-1.549
		c0.664-0.181,1.416,0.648,1.086,1.288c-0.444,0.867-0.884,1.739-1.361,2.587c-0.684,1.22-1.715,2.389-1.861,3.835
		c-0.294,2.856-4.341,0.226-2.276-1.183c1.746-1.193,2.728-4.068,3.672-5.904c0.364,0.43,0.727,0.86,1.087,1.288
		C38.65,2.69,32.459,5.224,30.352,2.074C30.299,1.994,30.344,1.888,30.444,1.892"/>
</g>
</svg>
