<?xml version="1.0" encoding="utf-8"?>
<!-- Generator: Adobe Illustrator 21.1.0, SVG Export Plug-In . SVG Version: 6.00 Build 0)  -->
<svg version="1.1" id="Capa_1" xmlns="http://www.w3.org/2000/svg" xmlns:xlink="http://www.w3.org/1999/xlink" x="0px" y="0px"
	 viewBox="0 0 524.64 516.802" style="enable-background:new 0 0 524.64 516.802;" xml:space="preserve">
<style type="text/css">
	.st0{clip-path:url(#SVGID_2_);fill:none;stroke:#E9EEC6;stroke-width:2.547;stroke-linecap:round;stroke-dasharray:7.769,5.222;}
	.st1{clip-path:url(#SVGID_2_);fill:none;stroke:#E9EEC6;stroke-width:2.547;stroke-linecap:round;stroke-dasharray:7.685,5.138;}
	.st2{clip-path:url(#SVGID_2_);fill:none;stroke:#E9EEC6;stroke-width:2.547;stroke-linecap:round;stroke-dasharray:7.578,5.031;}
	.st3{clip-path:url(#SVGID_2_);fill:none;stroke:#E9EEC6;stroke-width:2.547;stroke-linecap:round;stroke-dasharray:7.586,5.039;}
	.st4{clip-path:url(#SVGID_2_);fill:none;stroke:#E9EEC6;stroke-width:2.547;stroke-linecap:round;stroke-dasharray:7.736,5.189;}
	.st5{clip-path:url(#SVGID_2_);fill:none;stroke:#E9EEC6;stroke-width:2.547;stroke-linecap:round;}
	.st6{clip-path:url(#SVGID_2_);fill:none;stroke:#F0F4D9;stroke-width:2.547;stroke-linecap:round;}
	.st7{fill:none;stroke:#F0F4D9;stroke-width:2.547;stroke-linecap:round;}
</style>
<g>
	<defs>
		<rect id="SVGID_1_" width="524.64" height="516.802"/>
	</defs>
	<clipPath id="SVGID_2_">
		<use xlink:href="#SVGID_1_"  style="overflow:visible;"/>
	</clipPath>
	<path class="st0" d="M16.225,507.24c-10.267-23.021-32.129-80.141,9.623-118.01"/>
	<path class="st1" d="M38.498,380.429c87.029-40.527,446.396,105.545,455.514-82.131"/>
	<path class="st2" d="M493.392,283.12C470.958,171.872-19.317,441.722,17.659,200.802"/>
	<path class="st3" d="M22.13,186.521c45.746-64.268,490.855,60.32,501.058-117.445"/>
	<path class="st4" d="M522.751,53.737c-13.335-93.826-239.189-31.27-280.344-14.479"/>
	<path class="st5" d="M240.019,40.273c-1.624,0.725-2.781,1.328-3.425,1.785 M523.303,66.56c0.042-1.25,0.063-2.515,0.063-3.795
		c0-1.312-0.036-2.601-0.107-3.863 M18.057,198.318c0.204-1.23,0.422-2.474,0.653-3.73c0.234-1.27,0.577-2.485,1.028-3.647
		 M494.114,295.732c0.039-1.267,0.063-2.547,0.071-3.842c0.008-1.304-0.033-2.564-0.122-3.787 M27.808,387.505
		c0.972-0.83,1.975-1.647,3.011-2.455c0.991-0.772,2.043-1.502,3.155-2.19 M19.989,515.531c-0.38-0.887-0.929-2.076-1.602-3.539"/>
	<polyline class="st6" points="361.763,16.95 367.863,8.214 359.877,1.272 	"/>
</g>
<polyline class="st7" points="349.082,160.849 342.982,169.585 351.223,177.095 "/>
<polyline class="st7" points="190.178,305.443 197.016,297.269 189.714,289.539 "/>
<polyline class="st7" points="471.98,346.406 472.737,357.036 483.883,356.686 "/>
</svg>
