<?xml version="1.0" encoding="utf-8"?>
<!-- Generator: Adobe Illustrator 26.0.3, SVG Export Plug-In . SVG Version: 6.00 Build 0)  -->
<svg version="1.1" id="Capa_1" xmlns="http://www.w3.org/2000/svg" xmlns:xlink="http://www.w3.org/1999/xlink" x="0px" y="0px"
	 viewBox="0 0 355 134.8" style="enable-background:new 0 0 355 134.8;" xml:space="preserve">
<style type="text/css">
	.st0{fill:#E72E3C;}
</style>
<g>
	<path class="st0" d="M242.7,5.3C191.9,18.5,138.8,18.8,87.2,26.8C62.6,30.8,19,37.3,5.1,59.5c-7.4,12.2-2.8,24.3,6.4,34.1
		c5.9,6.3,13.3,10.8,21.1,14.3c62.7,28.7,248.5,33.2,306.2-5.4c5.3-3.7,9.6-8.5,11.9-14.5c2.5-5.8,4.1-12.3,2.8-18.5
		c-1.8-8.5-8.9-14.5-16.1-18.6C318.2,40.6,297,34.5,276,29.2c-8.5-2.1-17-3.9-25.5-6C237.8,20.2,224.8,16.7,214,9
		c-3.5-2.6-6.8-5.6-9.5-9c2.8,3.3,6.1,6.3,9.7,8.8c10.8,7.5,23.8,10.8,36.5,13.7c8.5,1.9,17.1,3.7,25.6,5.6c21.2,5,42.6,11,62,21.2
		c7.7,4.3,15.3,10.7,17.2,19.7c1.5,6.7-0.1,13.6-2.7,19.8c-2.4,6.4-7.1,11.6-12.6,15.5c-26.1,18-69.7,23.4-101,26.5
		c-61,5.1-151.2,3.4-207.6-20.5c-19.5-8.1-42.1-30-28.6-52.2c18.6-31.1,101.6-35.1,136.1-39C173.7,15.7,208.8,13.8,242.7,5.3
		L242.7,5.3z"/>
</g>
</svg>
