<svg id="Capa_1" data-name="Capa 1" xmlns="http://www.w3.org/2000/svg" viewBox="0 0 457.16 205.92"><defs><style>.cls-1{fill:#e72e3c;}</style></defs><path class="cls-1" d="M311.09,8.18c-22,7.38-45,11.41-67.91,14.91C197.33,30,151,33.68,105.39,42.24,82.8,46.65,60,52,39.27,62.24c-35.15,17-50.84,49.31-25.28,82.9,52.13,74.5,370.83,77.66,427.63,7a45.17,45.17,0,0,0,7.26-12.89,76.29,76.29,0,0,0,4.5-16.52c3-18.67-5.07-33.17-20.25-43.71-14.29-9.77-30.46-16.57-46.51-22.94-21.6-8.48-44.16-14-66.44-20.4-16.58-4.87-33.63-10.74-46.66-22.55A71.89,71.89,0,0,1,262.13,0c13.4,20.05,35.86,28.89,58.25,35s45,11.46,66.76,19.73c16.24,6.3,32.52,13.06,47,22.85,23,15.74,26.47,37.34,16.77,62.47-15.22,43-98.19,56.72-138.46,61.62-78.05,9.23-204.42,5.68-273.93-32.11-10.23-5.78-19.69-13.24-26.67-22.77-15.7-20.22-18.35-45-1.68-65.56C40.74,43.83,127.55,36.7,174,30.62,219.91,25,266.69,22,311.09,8.18Z" transform="translate(1.15)"/></svg>