<?xml version="1.0" encoding="utf-8"?>
<!-- Generator: Adobe Illustrator 21.1.0, SVG Export Plug-In . SVG Version: 6.00 Build 0)  -->
<svg version="1.1" id="Capa_1" xmlns="http://www.w3.org/2000/svg" xmlns:xlink="http://www.w3.org/1999/xlink" x="0px" y="0px"
	 viewBox="0 0 25.109 13.904" style="enable-background:new 0 0 25.109 13.904;" xml:space="preserve">
<style type="text/css">
	.st0{clip-path:url(#SVGID_2_);fill:#FFFFFF;}
	.st1{clip-path:url(#SVGID_2_);fill:none;stroke:#AEC90B;stroke-width:0.776;stroke-linecap:round;}
	.st2{fill:#AEC90B;}
	.st3{clip-path:url(#SVGID_4_);fill:#AEC90B;}
</style>
<g>
	<defs>
		<rect id="SVGID_1_" width="25.109" height="13.904"/>
	</defs>
	<clipPath id="SVGID_2_">
		<use xlink:href="#SVGID_1_"  style="overflow:visible;"/>
	</clipPath>
	<path class="st0" d="M3.321,0.388c0,0-2.933,0-2.933,2.933v7.263c0,0,0,2.932,2.933,2.932h18.467c0,0,2.933,0,2.933-2.932V3.321
		c0,0,0-2.933-2.933-2.933H3.321z"/>
	<path class="st1" d="M3.321,0.388c0,0-2.933,0-2.933,2.933v7.263c0,0,0,2.932,2.933,2.932h18.467c0,0,2.933,0,2.933-2.932V3.321
		c0,0,0-2.933-2.933-2.933H3.321z"/>
	<polyline class="st1" points="11.024,13.511 13.684,6.951 11.024,0.392 	"/>
</g>
<rect x="5.761" y="3.513" class="st2" width="1.614" height="7.17"/>
<g>
	<defs>
		<rect id="SVGID_3_" width="25.109" height="13.904"/>
	</defs>
	<clipPath id="SVGID_4_">
		<use xlink:href="#SVGID_3_"  style="overflow:visible;"/>
	</clipPath>
	<path class="st3" d="M19.904,4.885c0.286,0.086,0.54,0.188,0.76,0.305l0.466-1.293c-0.055-0.034-0.147-0.083-0.274-0.145
		c-0.128-0.062-0.29-0.122-0.486-0.181c-0.197-0.058-0.432-0.11-0.704-0.155s-0.578-0.067-0.916-0.067
		c-0.496,0-0.963,0.082-1.401,0.248c-0.438,0.165-0.819,0.409-1.144,0.729c-0.324,0.321-0.579,0.713-0.765,1.175
		c-0.186,0.462-0.279,0.993-0.279,1.593c0,0.593,0.084,1.121,0.253,1.583c0.169,0.462,0.409,0.852,0.719,1.169
		c0.31,0.317,0.684,0.558,1.123,0.724c0.437,0.165,0.925,0.248,1.463,0.248c0.628,0,1.156-0.043,1.583-0.129
		c0.428-0.086,0.738-0.167,0.931-0.243V6.897h-1.614v2.494c-0.096,0.02-0.208,0.034-0.336,0.041c-0.127,0.007-0.281,0.01-0.46,0.01
		c-0.331,0-0.621-0.057-0.869-0.17c-0.248-0.114-0.455-0.275-0.621-0.482c-0.165-0.206-0.29-0.453-0.372-0.739
		c-0.083-0.286-0.124-0.605-0.124-0.957c0-0.724,0.167-1.295,0.501-1.712c0.335-0.418,0.878-0.626,1.63-0.626
		C19.306,4.756,19.618,4.799,19.904,4.885"/>
</g>
</svg>
