<?xml version="1.0" encoding="utf-8"?>
<!-- Generator: Adobe Illustrator 14.0.0, SVG Export Plug-In . SVG Version: 6.00 Build 43363)  -->
<!DOCTYPE svg PUBLIC "-//W3C//DTD SVG 1.1//EN" "http://www.w3.org/Graphics/SVG/1.1/DTD/svg11.dtd">
<svg version="1.1" id="Layer_1" xmlns="http://www.w3.org/2000/svg" xmlns:xlink="http://www.w3.org/1999/xlink" x="0px" y="0px"
	 width="347.415px" height="438.583px" viewBox="0 0 347.415 438.583" enable-background="new 0 0 347.415 438.583"
	 xml:space="preserve">
<g>
	<g>
		<polygon fill="#FFE7D4" points="333.258,0.083 333.258,0.083 334.905,0.07 		"/>
		<polygon fill="#FFE7D4" points="296.975,0.373 296.975,0.373 297.278,0.371 		"/>
		<polygon fill="#FFE7D4" points="206.27,1.098 206.27,1.098 206.807,1.093 		"/>
		<path fill="#FFE7D4" d="M138.24,1.641l-1.151,0.009L138.24,1.641z"/>
		<polygon fill="#FFE7D4" points="79.282,2.112 79.282,2.112 82.423,2.087 		"/>
		<polygon fill="#FFE7D4" points="61.141,2.257 61.141,2.257 63.579,2.238 		"/>
		<polygon fill="#FFE7D4" points="43,2.402 43,2.402 44.748,2.388 		"/>
		<polygon fill="#FFE7D4" points="24.859,2.547 24.859,2.547 25.899,2.539 		"/>
		<polygon fill="#FFE7D4" points="6.717,2.692 6.717,2.692 7.079,2.689 		"/>
		<path fill="#FFE7D4" d="M334.905,0.07l2.889-0.022l0.07,7.936c2.01,0.858,3.426,2.841,3.445,5.165
			c0.027,3.131-2.488,5.691-5.619,5.718c-3.131,0.028-5.691-2.489-5.719-5.62c-0.02-2.324,1.361-4.331,3.355-5.224l-0.07-7.939
			l-35.979,0.288l4.23-0.033l0.07,7.962c2.01,0.858,3.428,2.841,3.447,5.165c0.027,3.131-2.486,5.691-5.619,5.718
			c-3.131,0.028-5.691-2.489-5.719-5.62c-0.021-2.324,1.361-4.332,3.355-5.224l-0.07-7.966l-90.168,0.72l3.998-0.031l0.07,8.029
			c2.01,0.858,3.426,2.841,3.446,5.166c0.027,3.13-2.487,5.69-5.618,5.717c-3.132,0.028-5.691-2.488-5.72-5.619
			c-0.021-2.324,1.362-4.332,3.356-5.224l-0.071-8.033l-68.03,0.543l0.071,8.083c2.009,0.857,3.427,2.841,3.447,5.166
			c0.027,3.13-2.487,5.69-5.617,5.717c-3.133,0.028-5.693-2.488-5.72-5.619c-0.021-2.324,1.362-4.331,3.356-5.224l-0.071-8.086
			l3.384-0.027L82.423,2.087l1.395-0.011l0.071,8.123c2.009,0.858,3.426,2.841,3.447,5.165c0.027,3.131-2.488,5.691-5.619,5.718
			c-3.131,0.028-5.693-2.488-5.719-5.62c-0.021-2.324,1.362-4.331,3.355-5.224l-0.071-8.126L63.579,2.238l2.097-0.017l0.07,8.136
			c2.01,0.857,3.428,2.841,3.449,5.166c0.026,3.131-2.49,5.691-5.62,5.718c-3.13,0.028-5.692-2.488-5.719-5.62
			c-0.021-2.324,1.363-4.332,3.357-5.224l-0.072-8.139l-16.393,0.13l2.787-0.022l0.071,8.149c2.009,0.858,3.428,2.841,3.447,5.165
			c0.028,3.131-2.487,5.691-5.619,5.718c-3.131,0.028-5.691-2.489-5.719-5.62c-0.021-2.324,1.362-4.331,3.356-5.224L43,2.402
			L25.899,2.539l3.494-0.027l0.072,8.164c2.009,0.858,3.426,2.84,3.447,5.164c0.027,3.131-2.489,5.691-5.62,5.718
			c-3.13,0.028-5.692-2.488-5.719-5.62c-0.02-2.324,1.363-4.332,3.357-5.224l-0.072-8.167L7.079,2.689l4.173-0.033l0.071,8.176
			c2.01,0.858,3.429,2.841,3.448,5.166c0.026,3.131-2.489,5.69-5.619,5.717c-3.132,0.028-5.692-2.488-5.72-5.619
			c-0.021-2.324,1.362-4.331,3.355-5.223l-0.07-8.181L0,2.746l3.74,435.838l343.674-2.744L343.674,0L334.905,0.07z M99.857,20.924
			c-3.131,0.028-5.692-2.489-5.72-5.62c-0.019-2.323,1.363-4.33,3.356-5.224l-0.071-8.113l4.535-0.037l0.071,8.109
			c2.009,0.858,3.428,2.841,3.448,5.165C105.502,18.337,102.987,20.897,99.857,20.924z M117.998,20.765
			c-3.13,0.029-5.691-2.488-5.718-5.619c-0.021-2.325,1.362-4.333,3.356-5.225l-0.071-8.099l4.535-0.036l0.071,8.096
			c2.009,0.858,3.426,2.841,3.446,5.165C123.645,18.178,121.128,20.738,117.998,20.765z M154.28,20.449
			c-3.13,0.028-5.692-2.489-5.719-5.619c-0.02-2.324,1.363-4.332,3.356-5.225l-0.07-8.072l4.535-0.036l0.071,8.069
			c2.009,0.858,3.427,2.841,3.447,5.165C159.926,17.861,157.411,20.421,154.28,20.449z M172.421,20.291
			c-3.131,0.028-5.691-2.489-5.719-5.619c-0.021-2.325,1.361-4.332,3.355-5.224l-0.071-8.06l4.535-0.036l0.071,8.056
			c2.01,0.858,3.427,2.841,3.445,5.165C178.067,17.704,175.553,20.264,172.421,20.291z M190.563,20.132
			c-3.131,0.028-5.691-2.488-5.721-5.619c-0.02-2.324,1.363-4.331,3.357-5.224l-0.07-8.046l4.535-0.036l0.069,8.042
			c2.009,0.858,3.427,2.841,3.447,5.165C196.209,17.545,193.692,20.105,190.563,20.132z M226.845,19.816
			c-3.132,0.028-5.692-2.489-5.72-5.62c-0.021-2.325,1.362-4.333,3.356-5.225l-0.069-8.019l4.534-0.036l0.068,8.015
			c2.01,0.858,3.429,2.841,3.448,5.166C232.491,17.229,229.975,19.789,226.845,19.816z M244.984,19.657
			c-3.129,0.028-5.69-2.488-5.719-5.619c-0.019-2.324,1.364-4.332,3.356-5.224l-0.07-8.005l4.535-0.036l0.07,8.002
			c2.01,0.858,3.426,2.841,3.447,5.165C250.631,17.07,248.116,19.63,244.984,19.657z M263.125,19.499
			c-3.131,0.028-5.689-2.488-5.719-5.62c-0.021-2.324,1.362-4.331,3.356-5.224l-0.071-7.992l4.535-0.036l0.07,7.989
			c2.01,0.858,3.428,2.841,3.447,5.165C268.772,16.912,266.258,19.472,263.125,19.499z M281.268,19.341
			c-3.131,0.028-5.693-2.489-5.719-5.62c-0.021-2.325,1.363-4.332,3.357-5.225l-0.072-7.979l4.535-0.036l0.07,7.976
			c2.01,0.858,3.426,2.841,3.446,5.165C286.915,16.754,284.398,19.314,281.268,19.341z M317.549,19.024
			c-3.131,0.028-5.691-2.488-5.719-5.62c-0.021-2.324,1.361-4.331,3.354-5.224l-0.066-7.952l4.535-0.037l0.066,7.948
			c2.012,0.858,3.43,2.841,3.447,5.166C323.196,16.437,320.68,18.997,317.549,19.024z"/>
	</g>
	<polygon fill="none" points="0,2.745 3.741,438.583 347.415,435.838 343.674,-0.001 	"/>
	<polygon fill="none" points="0,2.745 3.741,438.583 347.415,435.838 343.674,-0.001 	"/>
	<polygon fill="none" points="0,2.745 3.741,438.583 347.415,435.838 343.674,-0.001 	"/>
	<polygon fill="none" points="0,2.745 3.741,438.583 347.415,435.838 343.674,-0.001 	"/>
	<polygon fill="none" points="0,2.745 3.741,438.583 347.415,435.838 343.674,-0.001 	"/>
	<polygon fill="none" points="0,2.745 3.741,438.583 347.415,435.838 343.674,-0.001 	"/>
	<polygon fill="none" points="0,2.745 3.741,438.583 347.415,435.838 343.674,-0.001 	"/>
	<polygon fill="none" points="0,2.745 3.741,438.583 347.415,435.838 343.674,-0.001 	"/>
	<polygon fill="none" points="0,2.745 3.741,438.583 347.415,435.838 343.674,-0.001 	"/>
	<polygon fill="none" points="0,2.745 3.741,438.583 347.415,435.838 343.674,-0.001 	"/>
	<polygon fill="none" points="0,2.745 3.741,438.583 347.415,435.838 343.674,-0.001 	"/>
	<polygon fill="none" points="0,2.745 3.741,438.583 347.415,435.838 343.674,-0.001 	"/>
	<polygon fill="none" points="0,2.745 3.741,438.583 347.415,435.838 343.674,-0.001 	"/>
	<polygon fill="none" points="0,2.745 3.741,438.583 347.415,435.838 343.674,-0.001 	"/>
	<polygon fill="none" points="0,2.745 3.741,438.583 347.415,435.838 343.674,-0.001 	"/>
	<polygon fill="none" points="0,2.745 3.741,438.583 347.415,435.838 343.674,-0.001 	"/>
	<polygon fill="none" points="0,2.745 3.741,438.583 347.415,435.838 343.674,-0.001 	"/>
	<polygon fill="none" points="0,2.745 3.741,438.583 347.415,435.838 343.674,-0.001 	"/>
	<polygon fill="none" points="0,2.745 3.741,438.583 347.415,435.838 343.674,-0.001 	"/>
	<polygon fill="none" points="0,2.745 3.741,438.583 347.415,435.838 343.674,-0.001 	"/>
	
		<line fill="none" stroke="#929497" stroke-width="1.5" stroke-linecap="round" stroke-linejoin="round" stroke-miterlimit="10" stroke-dasharray="0,4.495" x1="21.227" y1="77.648" x2="329.063" y2="77.648"/>
	<path fill="none" stroke="#929497" stroke-width="1.5" stroke-linecap="round" stroke-linejoin="round" stroke-miterlimit="10" d="
		M331.939,77.648L331.939,77.648 M15.473,77.648L15.473,77.648"/>
	
		<line fill="none" stroke="#929497" stroke-width="1.5" stroke-linecap="round" stroke-linejoin="round" stroke-miterlimit="10" stroke-dasharray="0,4.495" x1="21.227" y1="106.965" x2="329.063" y2="106.965"/>
	<path fill="none" stroke="#929497" stroke-width="1.5" stroke-linecap="round" stroke-linejoin="round" stroke-miterlimit="10" d="
		M331.939,106.965L331.939,106.965 M15.473,106.965L15.473,106.965"/>
	
		<line fill="none" stroke="#929497" stroke-width="1.5" stroke-linecap="round" stroke-linejoin="round" stroke-miterlimit="10" stroke-dasharray="0,4.495" x1="21.227" y1="136.283" x2="329.063" y2="136.283"/>
	<path fill="none" stroke="#929497" stroke-width="1.5" stroke-linecap="round" stroke-linejoin="round" stroke-miterlimit="10" d="
		M331.939,136.283L331.939,136.283 M15.473,136.283L15.473,136.283"/>
	
		<line fill="none" stroke="#929497" stroke-width="1.5" stroke-linecap="round" stroke-linejoin="round" stroke-miterlimit="10" stroke-dasharray="0,4.495" x1="21.227" y1="165.6" x2="329.063" y2="165.6"/>
	<path fill="none" stroke="#929497" stroke-width="1.5" stroke-linecap="round" stroke-linejoin="round" stroke-miterlimit="10" d="
		M331.939,165.6L331.939,165.6 M15.473,165.6L15.473,165.6"/>
	
		<line fill="none" stroke="#929497" stroke-width="1.5" stroke-linecap="round" stroke-linejoin="round" stroke-miterlimit="10" stroke-dasharray="0,4.495" x1="21.227" y1="194.917" x2="329.063" y2="194.917"/>
	<path fill="none" stroke="#929497" stroke-width="1.5" stroke-linecap="round" stroke-linejoin="round" stroke-miterlimit="10" d="
		M331.939,194.917L331.939,194.917 M15.473,194.917L15.473,194.917"/>
	
		<line fill="none" stroke="#929497" stroke-width="1.5" stroke-linecap="round" stroke-linejoin="round" stroke-miterlimit="10" stroke-dasharray="0,4.495" x1="21.227" y1="224.234" x2="329.063" y2="224.234"/>
	<path fill="none" stroke="#929497" stroke-width="1.5" stroke-linecap="round" stroke-linejoin="round" stroke-miterlimit="10" d="
		M331.939,224.234L331.939,224.234 M15.473,224.234L15.473,224.234"/>
	
		<line fill="none" stroke="#929497" stroke-width="1.5" stroke-linecap="round" stroke-linejoin="round" stroke-miterlimit="10" stroke-dasharray="0,4.495" x1="21.227" y1="253.55" x2="329.063" y2="253.55"/>
	<path fill="none" stroke="#929497" stroke-width="1.5" stroke-linecap="round" stroke-linejoin="round" stroke-miterlimit="10" d="
		M331.939,253.55L331.939,253.55 M15.473,253.55L15.473,253.55"/>
	
		<line fill="none" stroke="#929497" stroke-width="1.5" stroke-linecap="round" stroke-linejoin="round" stroke-miterlimit="10" stroke-dasharray="0,4.495" x1="21.227" y1="282.868" x2="329.063" y2="282.868"/>
	<path fill="none" stroke="#929497" stroke-width="1.5" stroke-linecap="round" stroke-linejoin="round" stroke-miterlimit="10" d="
		M331.939,282.868L331.939,282.868 M15.473,282.868L15.473,282.868"/>
	
		<line fill="none" stroke="#929497" stroke-width="1.5" stroke-linecap="round" stroke-linejoin="round" stroke-miterlimit="10" stroke-dasharray="0,4.495" x1="21.227" y1="312.186" x2="329.063" y2="312.186"/>
	<path fill="none" stroke="#929497" stroke-width="1.5" stroke-linecap="round" stroke-linejoin="round" stroke-miterlimit="10" d="
		M331.939,312.186L331.939,312.186 M15.473,312.186L15.473,312.186"/>
	
		<line fill="none" stroke="#929497" stroke-width="1.5" stroke-linecap="round" stroke-linejoin="round" stroke-miterlimit="10" stroke-dasharray="0,4.495" x1="21.227" y1="341.501" x2="329.063" y2="341.501"/>
	<path fill="none" stroke="#929497" stroke-width="1.5" stroke-linecap="round" stroke-linejoin="round" stroke-miterlimit="10" d="
		M331.939,341.501L331.939,341.501 M15.473,341.501L15.473,341.501"/>
	
		<line fill="none" stroke="#929497" stroke-width="1.5" stroke-linecap="round" stroke-linejoin="round" stroke-miterlimit="10" stroke-dasharray="0,4.495" x1="21.227" y1="370.819" x2="329.063" y2="370.819"/>
	<path fill="none" stroke="#929497" stroke-width="1.5" stroke-linecap="round" stroke-linejoin="round" stroke-miterlimit="10" d="
		M331.939,370.819L331.939,370.819 M15.473,370.819L15.473,370.819"/>
	
		<line fill="none" stroke="#929497" stroke-width="1.5" stroke-linecap="round" stroke-linejoin="round" stroke-miterlimit="10" stroke-dasharray="0,4.495" x1="21.227" y1="400.137" x2="329.063" y2="400.137"/>
	<path fill="none" stroke="#929497" stroke-width="1.5" stroke-linecap="round" stroke-linejoin="round" stroke-miterlimit="10" d="
		M331.939,400.137L331.939,400.137 M15.473,400.137L15.473,400.137"/>
	<text transform="matrix(1 0 0 1 14.5166 76.7993)" fill="#231F20" font-family="'Ubuntu-Light'" font-size="15.36"> </text>
	<text transform="matrix(1 0 0 1 14.5166 106.1216)" fill="#231F20" font-family="'Ubuntu-Light'" font-size="15.36"> </text>
	<text transform="matrix(1 0 0 1 14.5166 135.4438)" fill="#231F20" font-family="'Ubuntu-Light'" font-size="15.36"> </text>
	<text transform="matrix(1 0 0 1 14.5166 399.2974)" fill="#231F20" font-family="'Ubuntu-Light'" font-size="15.36"> </text>
</g>
</svg>
