<?xml version="1.0" encoding="utf-8"?>
<!-- Generator: Adobe Illustrator 14.0.0, SVG Export Plug-In . SVG Version: 6.00 Build 43363)  -->
<!DOCTYPE svg PUBLIC "-//W3C//DTD SVG 1.1//EN" "http://www.w3.org/Graphics/SVG/1.1/DTD/svg11.dtd">
<svg version="1.1" id="Layer_1" xmlns="http://www.w3.org/2000/svg" xmlns:xlink="http://www.w3.org/1999/xlink" x="0px" y="0px"
	 width="30.855px" height="16.993px" viewBox="0 0 30.855 16.993" enable-background="new 0 0 30.855 16.993" xml:space="preserve">
<g>
	<path fill="#FFFFFF" d="M4.005,0.375c0,0-3.63,0-3.63,3.629v8.985c0,0,0,3.629,3.63,3.629h22.849c0,0,3.627,0,3.627-3.629V4.004
		c0,0,0-3.629-3.627-3.629H4.005z"/>
	<path fill="none" stroke="#F6921E" stroke-width="0.75" stroke-linecap="round" d="M4.005,0.375c0,0-3.63,0-3.63,3.629v8.985
		c0,0,0,3.629,3.63,3.629h22.849c0,0,3.627,0,3.627-3.629V4.004c0,0,0-3.629-3.627-3.629H4.005z"/>
	<polyline fill="none" stroke="#F6921E" stroke-width="0.75" stroke-linecap="round" points="13.535,16.612 16.826,8.497 
		13.535,0.38 	"/>
	<g>
		<path fill="#F6921E" d="M8.88,5.778c-0.93,0-1.603,0.258-2.016,0.774C6.45,7.069,6.243,7.775,6.243,8.671
			c0,0.435,0.051,0.83,0.154,1.184c0.103,0.354,0.256,0.659,0.461,0.915s0.46,0.455,0.768,0.596s0.666,0.211,1.075,0.211
			c0.222,0,0.412-0.004,0.569-0.013c0.156-0.009,0.296-0.024,0.416-0.052V8.428h1.997v4.391c-0.239,0.094-0.623,0.193-1.152,0.301
			c-0.529,0.105-1.182,0.16-1.958,0.16c-0.666,0-1.269-0.104-1.811-0.308c-0.542-0.205-1.006-0.503-1.39-0.896
			c-0.384-0.394-0.681-0.875-0.89-1.447C4.274,10.058,4.17,9.404,4.17,8.671c0-0.743,0.115-1.399,0.347-1.971
			c0.229-0.572,0.546-1.056,0.946-1.453c0.4-0.396,0.871-0.697,1.413-0.902C7.418,4.14,7.996,4.038,8.61,4.038
			c0.418,0,0.796,0.028,1.133,0.083c0.337,0.056,0.627,0.12,0.871,0.192c0.243,0.072,0.443,0.147,0.602,0.224
			s0.271,0.137,0.34,0.179l-0.576,1.6c-0.273-0.145-0.587-0.271-0.941-0.377C9.684,5.832,9.298,5.778,8.88,5.778z"/>
	</g>
	<g>
		<path fill="#F6921E" d="M21.513,4.242h1.996v8.871h-1.996V4.242z"/>
	</g>
</g>
</svg>
