<svg id="Capa_1" data-name="Capa 1" xmlns="http://www.w3.org/2000/svg" viewBox="0 0 21.96 27.79"><defs><style>.cls-1{fill:#575756;}</style></defs><path class="cls-1" d="M22.23,1.58C16.7,1.8,11.66,6.81,8.65,11.11S5,20.17,4,25.28c0,.22-.34.17-.4,0C1.55,19.59,5,13,8.66,8.79c2.76-3.22,8.83-9.47,13.61-7.37.09,0,0,.16,0,.16" transform="translate(-0.36 -1)"/><path class="cls-1" d="M8.56,21.07A13.81,13.81,0,0,0,6,24.49c-.6,1.3-1.11,2.63-1.7,3.92a.76.76,0,0,1-1.32,0c-.3-.71-.6-1.41-.87-2.12A8.12,8.12,0,0,0,.75,23.25c-1.56-1.62,2.05-2.73,1.86-.78-.16,1.65,1.07,3.69,1.69,5.18H3c1-2.07,2.56-7.06,5.52-6.74a.09.09,0,0,1,.06.15" transform="translate(-0.36 -1)"/></svg>