<?xml version="1.0" encoding="utf-8"?>
<!-- Generator: Adobe Illustrator 26.0.1, SVG Export Plug-In . SVG Version: 6.00 Build 0)  -->
<svg version="1.1" id="Capa_1" xmlns="http://www.w3.org/2000/svg" xmlns:xlink="http://www.w3.org/1999/xlink" x="0px" y="0px"
	 viewBox="0 0 53.1 29" style="enable-background:new 0 0 53.1 29;" xml:space="preserve">
<style type="text/css">
	.st0{clip-path:url(#SVGID_00000047781136569001725250000002999326299870126230_);fill:#4F4F4E;}
	.st1{clip-path:url(#SVGID_00000020393377199410495150000012556658688154708147_);fill:#4F4F4E;}
	
		.st2{clip-path:url(#SVGID_00000142166603608016285750000004837302314850402946_);fill:none;stroke:#FFCB00;stroke-width:3.822;stroke-linecap:round;}
	.st3{clip-path:url(#SVGID_00000181052346001944014940000002392923194564779931_);fill:#4F4F4E;}
	.st4{clip-path:url(#SVGID_00000026883388142677632430000012172235901195509404_);fill:#4F4F4E;}
	
		.st5{clip-path:url(#SVGID_00000044856256192424350450000017278060118021275327_);fill:none;stroke:#FFCB00;stroke-width:3.822;stroke-linecap:round;}
</style>
<g>
	<g>
		<defs>
			<rect id="SVGID_1_" width="53.1" height="9.2"/>
		</defs>
		<clipPath id="SVGID_00000003798646310738832740000010024211033658635442_">
			<use xlink:href="#SVGID_1_"  style="overflow:visible;"/>
		</clipPath>
		<path style="clip-path:url(#SVGID_00000003798646310738832740000010024211033658635442_);fill:#4F4F4E;" d="M4.6,9.2
			c2.5,0,4.6-2.1,4.6-4.6S7.1,0,4.6,0S0,2.1,0,4.6S2.1,9.2,4.6,9.2"/>
	</g>
	<g>
		<defs>
			<rect id="SVGID_00000046311183552737483860000017012888646289131697_" width="53.1" height="9.2"/>
		</defs>
		<clipPath id="SVGID_00000142893730267622102620000017177055307808499114_">
			<use xlink:href="#SVGID_00000046311183552737483860000017012888646289131697_"  style="overflow:visible;"/>
		</clipPath>
		<path style="clip-path:url(#SVGID_00000142893730267622102620000017177055307808499114_);fill:#4F4F4E;" d="M48.5,9.2
			c2.5,0,4.6-2.1,4.6-4.6S51.1,0,48.5,0C46,0,44,2.1,44,4.6S46,9.2,48.5,9.2"/>
	</g>
	<g>
		<defs>
			<rect id="SVGID_00000071536342154092464120000007028305742665493399_" width="53.1" height="9.2"/>
		</defs>
		<clipPath id="SVGID_00000142160440236026541960000010809649884127147195_">
			<use xlink:href="#SVGID_00000071536342154092464120000007028305742665493399_"  style="overflow:visible;"/>
		</clipPath>
		
			<line style="clip-path:url(#SVGID_00000142160440236026541960000010809649884127147195_);fill:none;stroke:#FFCB00;stroke-width:3.822;stroke-linecap:round;" x1="6.5" y1="4.6" x2="47.6" y2="4.6"/>
	</g>
</g>
<g>
	<g>
		<defs>
			<rect id="SVGID_00000108268949073537479700000017281595236668244898_" x="0" y="19.8" width="53.1" height="9.2"/>
		</defs>
		<clipPath id="SVGID_00000129186716432724165000000016569645884069482668_">
			<use xlink:href="#SVGID_00000108268949073537479700000017281595236668244898_"  style="overflow:visible;"/>
		</clipPath>
		<path style="clip-path:url(#SVGID_00000129186716432724165000000016569645884069482668_);fill:#4F4F4E;" d="M4.6,29
			c2.5,0,4.6-2.1,4.6-4.6s-2.1-4.6-4.6-4.6S0,21.9,0,24.4S2.1,29,4.6,29"/>
	</g>
	<g>
		<defs>
			<rect id="SVGID_00000072971343920729969740000011218231429213334439_" x="0" y="19.8" width="53.1" height="9.2"/>
		</defs>
		<clipPath id="SVGID_00000144316385223067996890000005364988928364306317_">
			<use xlink:href="#SVGID_00000072971343920729969740000011218231429213334439_"  style="overflow:visible;"/>
		</clipPath>
		<path style="clip-path:url(#SVGID_00000144316385223067996890000005364988928364306317_);fill:#4F4F4E;" d="M48.5,29
			c2.5,0,4.6-2.1,4.6-4.6s-2-4.6-4.6-4.6c-2.5,0-4.5,2.1-4.5,4.6S46,29,48.5,29"/>
	</g>
	<g>
		<defs>
			<rect id="SVGID_00000089543875071860627860000011037311117039865503_" x="0" y="19.8" width="53.1" height="9.2"/>
		</defs>
		<clipPath id="SVGID_00000001657144432745042670000011849928973320113554_">
			<use xlink:href="#SVGID_00000089543875071860627860000011037311117039865503_"  style="overflow:visible;"/>
		</clipPath>
		
			<line style="clip-path:url(#SVGID_00000001657144432745042670000011849928973320113554_);fill:none;stroke:#FFCB00;stroke-width:3.822;stroke-linecap:round;" x1="6.5" y1="24.4" x2="47.6" y2="24.4"/>
	</g>
</g>
</svg>
