<?xml version="1.0" encoding="utf-8"?>
<!-- Generator: Adobe Illustrator 14.0.0, SVG Export Plug-In . SVG Version: 6.00 Build 43363)  -->
<!DOCTYPE svg PUBLIC "-//W3C//DTD SVG 1.1//EN" "http://www.w3.org/Graphics/SVG/1.1/DTD/svg11.dtd">
<svg version="1.1" id="Layer_1" xmlns="http://www.w3.org/2000/svg" xmlns:xlink="http://www.w3.org/1999/xlink" x="0px" y="0px"
	 width="55.45px" height="38.957px" viewBox="0 0 55.45 38.957" enable-background="new 0 0 55.45 38.957" xml:space="preserve">
<path fill="#0066B2" d="M26.458,14.854c0,0-1.814,0-1.814,1.814v14.475c0,0,0,1.814,1.814,1.814h26.038c0,0,1.813,0,1.813-1.814
	V16.668c0,0,0-1.814-1.813-1.814H26.458z"/>
<defs>
	<filter id="Adobe_OpacityMaskFilter" filterUnits="userSpaceOnUse" x="4.453" y="1.952" width="25.958" height="33.484">
		<feColorMatrix  type="matrix" values="1 0 0 0 0  0 1 0 0 0  0 0 1 0 0  0 0 0 1 0"/>
	</filter>
</defs>
<mask maskUnits="userSpaceOnUse" x="4.453" y="1.952" width="25.958" height="33.484" id="SVGID_1_">
	<g filter="url(#Adobe_OpacityMaskFilter)">
		<g>
			<defs>
				<rect id="SVGID_2_" x="-6.912" y="-6.957" width="49.151" height="43.622"/>
			</defs>
			<clipPath id="SVGID_3_">
				<use xlink:href="#SVGID_2_"  overflow="visible"/>
			</clipPath>
			<g transform="matrix(1 0 0 1 4.389947e-007 5.430993e-007)" clip-path="url(#SVGID_3_)">
				
					<image overflow="visible" width="160" height="142" xlink:href="79B54B3C.jpg"  transform="matrix(0.3072 0 0 0.3072 -6.9121 -6.957)">
				</image>
			</g>
		</g>
	</g>
</mask>
<g mask="url(#SVGID_1_)">
	<g>
		<defs>
			<rect id="SVGID_4_" x="4.453" y="1.952" width="25.958" height="33.485"/>
		</defs>
		<clipPath id="SVGID_5_">
			<use xlink:href="#SVGID_4_"  overflow="visible"/>
		</clipPath>
		<rect x="4.453" y="1.952" opacity="0.2" clip-path="url(#SVGID_5_)" fill="#231F20" width="25.958" height="33.485"/>
	</g>
</g>
<rect x="2.584" y="4.025" fill="#FFFFFF" width="25.736" height="33.3"/>
<path fill="none" stroke="#0066B2" stroke-width="1.396" stroke-linecap="round" d="M2.037,4.233v29.93c0,0,0.454,3.072,1.618,3.072
	h25.55c-1.229,0-1.619-3.072-1.619-3.072V4.233H2.037z"/>
<rect x="5.76" y="14.026" fill="none" stroke="#0066B2" stroke-width="0.93" stroke-linecap="round" width="7.815" height="7.734"/>
<path fill="#0066B2" d="M22.777,9.357l0.464-1.56l0.472,1.56H22.777z M24.184,10.951h0.842l-1.32-3.977h-0.888l-1.303,3.977h0.799
	l0.275-0.936h1.314L24.184,10.951z M21.696,6.974h-2.897v0.693h1.059v3.284h0.779V7.667h1.06V6.974z M16.114,9.909l-0.344,0.552
	c0.377,0.325,0.849,0.546,1.399,0.546c0.748,0,1.352-0.4,1.352-1.221c0-1.444-1.876-0.922-1.876-1.717
	c0-0.292,0.25-0.461,0.591-0.461c0.286,0,0.621,0.119,0.894,0.311l0.338-0.535c-0.346-0.288-0.815-0.467-1.284-0.467
	c-0.719,0-1.306,0.417-1.306,1.209c0,1.404,1.858,0.921,1.858,1.718c0,0.301-0.262,0.456-0.608,0.456
	C16.782,10.299,16.425,10.148,16.114,9.909 M14.43,10.951h0.781V6.974H14.43V10.951z M11.584,6.974h-0.835l1.272,3.977h0.67
	l1.276-3.977h-0.791l-0.801,2.753L11.584,6.974z M8.067,10.951h2.425v-0.69H8.839V9.29h1.402V8.602H8.839V7.663h1.615V6.974H8.067
	V10.951z M5.469,8.818V7.656h0.498c0.389,0,0.639,0.197,0.639,0.583c0,0.372-0.229,0.579-0.639,0.579H5.469z M4.703,10.951h0.766
	V9.503h0.428l0.755,1.448h0.903L6.672,9.38c0.445-0.194,0.712-0.616,0.712-1.15c0-0.734-0.499-1.256-1.34-1.256H4.703V10.951z"/>
<line fill="none" stroke="#0066B2" stroke-width="0.93" stroke-linecap="round" x1="15.893" y1="15.323" x2="23.951" y2="15.323"/>
<line fill="none" stroke="#0066B2" stroke-width="0.93" stroke-linecap="round" x1="15.893" y1="18.47" x2="23.951" y2="18.47"/>
<line fill="none" stroke="#0066B2" stroke-width="0.93" stroke-linecap="round" x1="15.893" y1="21.76" x2="23.951" y2="21.76"/>
<line fill="none" stroke="#0066B2" stroke-width="0.93" stroke-linecap="round" x1="5.426" y1="26.192" x2="24.834" y2="26.192"/>
<line fill="none" stroke="#0066B2" stroke-width="0.93" stroke-linecap="round" x1="5.426" y1="29.341" x2="24.834" y2="29.341"/>
<line fill="none" stroke="#0066B2" stroke-width="0.93" stroke-linecap="round" x1="5.426" y1="32.632" x2="24.834" y2="32.632"/>
<text transform="matrix(1 0 0 1 31.0645 30.042)" fill="#FFFFFF" font-family="'Ubuntu-Bold'" font-size="17.92">94</text>
</svg>
