<?xml version="1.0" encoding="utf-8"?>
<!-- Generator: Adobe Illustrator 21.1.0, SVG Export Plug-In . SVG Version: 6.00 Build 0)  -->
<svg version="1.1" id="Capa_1" xmlns="http://www.w3.org/2000/svg" xmlns:xlink="http://www.w3.org/1999/xlink" x="0px" y="0px"
	 viewBox="0 0 820 1060" style="enable-background:new 0 0 820 1060;" xml:space="preserve">
<style type="text/css">
	.st0{fill:#AEC90B;}
	.st1{clip-path:url(#SVGID_2_);fill:#F0F4D9;}
</style>
<rect class="st0" width="820" height="1060"/>
<g>
	<defs>
		<rect id="SVGID_1_" width="820" height="1060"/>
	</defs>
	<clipPath id="SVGID_2_">
		<use xlink:href="#SVGID_1_"  style="overflow:visible;"/>
	</clipPath>
	<path class="st1" d="M55.222,64.119c19.922-1.919,398.435,0,438.278,0c39.844,0,295.771-12.096,298.826,9.201
		c6.641,46.294,6.641,749.191,6.641,826.587c0,55.75-2.656,125.894-6.641,125.894c-3.984,0-660.073,24.844-742.416,6.311
		c-6.641-88.96-3.985-419.437-3.985-591.832C45.925,386.012,44.597,116.564,55.222,64.119"/>
</g>
<polygon class="st0" points="0,0 0,55.35 820,78.748 820,0 "/>
<polygon class="st0" points="0,1036.273 0,1060 820,1060 820,1023.638 "/>
</svg>
