<?xml version="1.0" encoding="utf-8"?>
<!-- Generator: Adobe Illustrator 21.1.0, SVG Export Plug-In . SVG Version: 6.00 Build 0)  -->
<svg version="1.1" id="Capa_1" xmlns="http://www.w3.org/2000/svg" xmlns:xlink="http://www.w3.org/1999/xlink" x="0px" y="0px"
	 viewBox="0 0 29 15" style="enable-background:new 0 0 29 15;" xml:space="preserve">
<style type="text/css">
	.st0{fill:#FFFFFF;}
	.st1{clip-path:url(#SVGID_2_);fill:none;stroke:#7C6EAF;stroke-width:0.96;stroke-linecap:round;}
	.st2{clip-path:url(#SVGID_4_);fill:none;stroke:#7C6EAF;stroke-width:0.96;stroke-linecap:round;}
	.st3{clip-path:url(#SVGID_4_);fill:#7C6EAF;}
	.st4{fill:#7C6EAF;}
</style>
<rect x="14.5" y="0.5" class="st0" width="14" height="14"/>
<g>
	<defs>
		<rect id="SVGID_1_" width="29" height="15"/>
	</defs>
	<clipPath id="SVGID_2_">
		<use xlink:href="#SVGID_1_"  style="overflow:visible;"/>
	</clipPath>
	<rect x="14.5" y="0.5" class="st1" width="14" height="14"/>
</g>
<polygon class="st0" points="0.5,0.5 0.5,14.5 14.5,14.5 16.3,8.1 14.5,0.5 "/>
<g>
	<defs>
		<rect id="SVGID_3_" width="29" height="15"/>
	</defs>
	<clipPath id="SVGID_4_">
		<use xlink:href="#SVGID_3_"  style="overflow:visible;"/>
	</clipPath>
	<polygon class="st2" points="0.5,0.5 0.5,14.5 14.5,14.5 16.3,8.1 14.5,0.5 	"/>
	<path class="st3" d="M24.4,10.4c-0.1,0-0.3,0.1-0.5,0.1c-0.2,0-0.5,0.1-0.8,0.1c-0.5,0-0.9-0.1-1.2-0.2c-0.3-0.2-0.6-0.4-0.9-0.7
		c-0.2-0.3-0.4-0.6-0.5-1c-0.1-0.4-0.2-0.9-0.2-1.3c0-0.5,0.1-1,0.2-1.4c0.1-0.4,0.3-0.8,0.6-1c0.2-0.3,0.5-0.5,0.9-0.7
		C22.3,4.1,22.6,4,23.1,4c0.4,0,0.8,0.1,1.2,0.1c0.4,0.1,0.7,0.2,0.9,0.4l0.4-1c0,0-0.1-0.1-0.3-0.1c-0.1-0.1-0.3-0.1-0.5-0.2
		S24.3,3.1,24,3.1C23.7,3,23.4,3,23,3c-0.5,0-1.1,0.1-1.5,0.3c-0.5,0.2-0.9,0.5-1.3,0.8c-0.4,0.4-0.6,0.8-0.8,1.3
		c-0.2,0.5-0.3,1.1-0.3,1.8c0,0.7,0.1,1.3,0.3,1.8c0.2,0.5,0.4,1,0.8,1.3c0.3,0.4,0.7,0.6,1.2,0.8c0.5,0.2,1,0.3,1.6,0.3
		c0.3,0,0.6,0,0.8,0c0.3,0,0.5-0.1,0.8-0.1c0.2,0,0.4-0.1,0.6-0.1c0.2,0,0.3-0.1,0.4-0.1V7.4h-1.2V10.4z"/>
</g>
<rect x="7.4" y="3.2" class="st4" width="1.2" height="8.2"/>
</svg>
