<?xml version="1.0" encoding="utf-8"?>
<!-- Generator: Adobe Illustrator 26.0.2, SVG Export Plug-In . SVG Version: 6.00 Build 0)  -->
<svg version="1.1" id="Capa_1" xmlns="http://www.w3.org/2000/svg" xmlns:xlink="http://www.w3.org/1999/xlink" x="0px" y="0px"
	 viewBox="0 0 141.8 54" style="enable-background:new 0 0 141.8 54;" xml:space="preserve">
<style type="text/css">
	.st0{display:none;}
	.st1{display:inline;opacity:0.3;enable-background:new    ;}
	.st2{display:inline;fill:#FFCA05;stroke:#FFFFFF;stroke-width:2;stroke-miterlimit:10;}
	.st3{clip-path:url(#SVGID_00000026156378225850903590000013766264552785515931_);}
	.st4{opacity:0.2;fill:#1D1D1B;enable-background:new    ;}
	.st5{fill:#DDDB00;}
	.st6{fill:none;stroke:#1D1D1B;stroke-width:0.75;}
</style>
<g class="st0">
	<polygon class="st1" points="2.7,53.2 139.9,53.2 139.9,2.8 2.7,8.6 	"/>
	<polygon class="st2" points="133.6,49.7 1.8,49 1.8,6.2 135.6,2 	"/>
</g>
<g>
	<g id="Capa_1_00000134242077279009520850000014965622402919927694_">
		<g>
			<g>
				<defs>
					<rect id="SVGID_1_" x="8" y="9.2" width="128.6" height="41.1"/>
				</defs>
				<clipPath id="SVGID_00000008835354269649552540000003954451171884517026_">
					<use xlink:href="#SVGID_1_"  style="overflow:visible;"/>
				</clipPath>
				<g style="clip-path:url(#SVGID_00000008835354269649552540000003954451171884517026_);">
					<rect x="8" y="9.2" class="st4" width="128.6" height="41.1"/>
				</g>
			</g>
		</g>
		<path class="st5" d="M8.9,7.2c-1.6,0-3,1.2-3,2.8c0,0,0,0.1,0,0.1v35.3c0,0,0,2.9,3,2.9h122.5c1.6,0,3-1.2,3-2.8c0,0,0-0.1,0-0.1
			V10.1c0,0,0-2.9-3-2.9H8.9z"/>
		<path class="st6" d="M20.3,7.2c0,0-13.3-0.3-14,0.5S5.7,46.6,6.7,48c1.1,1.4,42.4,0.7,75.7,0.5"/>
		<path class="st6" d="M96.4,48.4l37.6-0.5c1.2-0.5,1.3-40.1-0.4-40.4C131.8,7.2,30.7,7.2,30.7,7.2"/>
	</g>
</g>
</svg>
