<?xml version="1.0" encoding="utf-8"?>
<!-- Generator: Adobe Illustrator 14.0.0, SVG Export Plug-In . SVG Version: 6.00 Build 43363)  -->
<!DOCTYPE svg PUBLIC "-//W3C//DTD SVG 1.1//EN" "http://www.w3.org/Graphics/SVG/1.1/DTD/svg11.dtd">
<svg version="1.1" id="Layer_1" xmlns="http://www.w3.org/2000/svg" xmlns:xlink="http://www.w3.org/1999/xlink" x="0px" y="0px"
	 width="42.424px" height="11.905px" viewBox="0 0 42.424 11.905" enable-background="new 0 0 42.424 11.905" xml:space="preserve">
<g>
	<path fill="#ADDFEB" d="M38.745,8.621c-3.875-6.697-13.17-8.693-20.322-8.619C13.004,0.057,1.885,0.873,0.004,7.289
		C-0.029,7.402,0.131,7.451,0.2,7.38c4.762-5.244,13.828-6.065,20.516-5.482c6.832,0.595,11.893,3.872,17.699,7.116
		C38.667,9.155,38.862,8.826,38.745,8.621z"/>
	<path fill="#ADDFEB" d="M42.344,10.587c-0.447-0.869-0.887-1.745-1.367-2.596c-0.688-1.224-1.721-2.397-1.867-3.848
		c-0.295-2.866-4.355-0.228-2.285,1.187c1.223,0.835,2.068,2.489,2.793,4.04c-3.105-0.938-7.461-2.089-9.16,0.456
		c-0.053,0.078-0.01,0.186,0.09,0.181c1.893-0.07,3.598-0.179,5.459,0.317c1.764,0.474,3.486,1.078,5.246,1.556
		C41.92,12.062,42.674,11.229,42.344,10.587z"/>
</g>
</svg>
