<?xml version="1.0" encoding="utf-8"?>
<!-- Generator: Adobe Illustrator 14.0.0, SVG Export Plug-In . SVG Version: 6.00 Build 43363)  -->
<!DOCTYPE svg PUBLIC "-//W3C//DTD SVG 1.1//EN" "http://www.w3.org/Graphics/SVG/1.1/DTD/svg11.dtd">
<svg version="1.1" id="Layer_1" xmlns="http://www.w3.org/2000/svg" xmlns:xlink="http://www.w3.org/1999/xlink" x="0px" y="0px"
	 width="31.374px" height="16.982px" viewBox="0 0 31.374 16.982" enable-background="new 0 0 31.374 16.982" xml:space="preserve">
<g>
	<g>
		<path fill="#FFFFFF" d="M4.26,0.37c0,0-3.628,0-3.628,3.629v8.985c0,0,0,3.629,3.628,3.629h22.848c0,0,3.629,0,3.629-3.629V3.999
			c0,0,0-3.629-3.629-3.629H4.26z"/>
	</g>
	<g>
		<path fill="#F6921E" d="M27.108,16.988H4.26c-3.958,0-4.003-3.964-4.003-4.004V3.999c0-3.958,3.963-4.004,4.003-4.004h22.848
			c3.958,0,4.004,3.964,4.004,4.004v8.985C31.112,16.942,27.148,16.988,27.108,16.988L27.108,16.988z M4.26,0.745
			c-0.132,0-3.253,0.051-3.253,3.254v8.985c0,0.132,0.051,3.254,3.253,3.254h22.847c0.133-0.001,3.255-0.052,3.255-3.254V3.999
			c-0.001-0.132-0.052-3.254-3.254-3.254H4.26L4.26,0.745z"/>
	</g>
</g>
<g>
	<path fill="#F6921E" d="M13.792,16.982c-0.047,0-0.095-0.009-0.141-0.027c-0.192-0.078-0.284-0.297-0.207-0.488l3.234-7.975
		l-3.234-7.975c-0.078-0.192,0.015-0.411,0.207-0.489c0.191-0.079,0.41,0.015,0.489,0.207l3.348,8.257l-3.348,8.256
		C14.08,16.895,13.939,16.982,13.792,16.982L13.792,16.982z"/>
</g>
<g>
	<path fill="#F6921E" d="M9.135,5.774c-0.93,0-1.603,0.258-2.016,0.774C6.705,7.065,6.498,7.771,6.498,8.667
		c0,0.435,0.051,0.83,0.154,1.184c0.103,0.354,0.256,0.659,0.461,0.915c0.205,0.256,0.46,0.455,0.768,0.596
		c0.307,0.141,0.666,0.211,1.075,0.211c0.222,0,0.412-0.004,0.569-0.013s0.296-0.025,0.416-0.052V8.424h1.997v4.391
		c-0.239,0.094-0.623,0.193-1.152,0.301c-0.529,0.105-1.182,0.16-1.958,0.16c-0.666,0-1.269-0.104-1.811-0.308
		c-0.542-0.205-1.005-0.503-1.389-0.896c-0.384-0.393-0.681-0.875-0.89-1.447c-0.209-0.571-0.313-1.224-0.313-1.958
		c0-0.743,0.115-1.399,0.346-1.971C5,6.124,5.316,5.64,5.717,5.243C6.118,4.846,6.589,4.545,7.131,4.34
		c0.542-0.205,1.12-0.307,1.734-0.307c0.418,0,0.796,0.028,1.133,0.083c0.337,0.056,0.627,0.12,0.871,0.192
		c0.243,0.072,0.443,0.147,0.602,0.224c0.158,0.077,0.271,0.137,0.339,0.179l-0.576,1.6c-0.273-0.145-0.587-0.271-0.941-0.377
		C9.939,5.828,9.553,5.774,9.135,5.774z"/>
</g>
<g>
	<path fill="#F6921E" d="M21.768,4.238h1.997v8.871h-1.997V4.238z"/>
</g>
</svg>
