<?xml version="1.0" encoding="utf-8"?>
<!-- Generator: Adobe Illustrator 14.0.0, SVG Export Plug-In . SVG Version: 6.00 Build 43363)  -->
<!DOCTYPE svg PUBLIC "-//W3C//DTD SVG 1.1//EN" "http://www.w3.org/Graphics/SVG/1.1/DTD/svg11.dtd">
<svg version="1.1" id="Layer_1" xmlns="http://www.w3.org/2000/svg" xmlns:xlink="http://www.w3.org/1999/xlink" x="0px" y="0px"
	 width="53.798px" height="9.293px" viewBox="0 0 53.798 9.293" enable-background="new 0 0 53.798 9.293" xml:space="preserve">
<g>
	<g>
		<path fill="#504F4F" d="M4.647,9.293c2.566,0,4.646-2.08,4.646-4.647C9.293,2.08,7.213,0,4.647,0C2.08,0,0,2.08,0,4.646
			C0,7.213,2.08,9.293,4.647,9.293"/>
	</g>
	<g>
		<path fill="#504F4F" d="M49.153,9.293c2.565,0,4.646-2.08,4.646-4.647C53.798,2.08,51.718,0,49.153,0
			c-2.567,0-4.647,2.08-4.647,4.646C44.505,7.213,46.585,9.293,49.153,9.293"/>
	</g>
	<g>
		<path fill="#FFCC00" d="M48.185,6.146H6.583c-0.829,0-1.5-0.672-1.5-1.5s0.671-1.5,1.5-1.5h41.603c0.828,0,1.5,0.671,1.5,1.5
			S49.013,6.146,48.185,6.146L48.185,6.146z"/>
	</g>
</g>
</svg>
