<?xml version="1.0" encoding="utf-8"?>
<!-- Generator: Adobe Illustrator 26.0.1, SVG Export Plug-In . SVG Version: 6.00 Build 0)  -->
<svg version="1.1" id="Capa_1" xmlns="http://www.w3.org/2000/svg" xmlns:xlink="http://www.w3.org/1999/xlink" x="0px" y="0px"
	 viewBox="0 0 53.1 75.9" style="enable-background:new 0 0 53.1 75.9;" xml:space="preserve">
<style type="text/css">
	.st0{clip-path:url(#SVGID_00000118368701957301691610000011351004622106725533_);fill:#4F4F4E;}
	.st1{clip-path:url(#SVGID_00000063594692843922567110000002232857105232893862_);fill:#4F4F4E;}
	
		.st2{clip-path:url(#SVGID_00000167390943132804181920000009468711939928751281_);fill:none;stroke:#FFCB00;stroke-width:3.821;stroke-linecap:round;}
	.st3{clip-path:url(#SVGID_00000124158999730073773330000012021599226367153298_);fill:#4F4F4E;}
	.st4{clip-path:url(#SVGID_00000125570344717772101860000008161792873379750315_);fill:#4F4F4E;}
	
		.st5{clip-path:url(#SVGID_00000106136544530064656200000008298729987414190986_);fill:none;stroke:#FFCB00;stroke-width:3.821;stroke-linecap:round;}
	.st6{clip-path:url(#SVGID_00000142858758023964285790000009429416413749962152_);fill:#4F4F4E;}
	.st7{clip-path:url(#SVGID_00000104682787612585796490000010407030215574688681_);fill:#4F4F4E;}
	
		.st8{clip-path:url(#SVGID_00000056405254982305640270000009788274391419156880_);fill:none;stroke:#FFCB00;stroke-width:3.821;stroke-linecap:round;}
</style>
<g>
	<g>
		<g>
			<defs>
				<rect id="SVGID_1_" y="0" width="53.1" height="9.2"/>
			</defs>
			<clipPath id="SVGID_00000137095293918825952120000012263350660349658550_">
				<use xlink:href="#SVGID_1_"  style="overflow:visible;"/>
			</clipPath>
			<path style="clip-path:url(#SVGID_00000137095293918825952120000012263350660349658550_);fill:#4F4F4E;" d="M4.6,9.2
				c2.5,0,4.6-2.1,4.6-4.6S7.1,0,4.6,0S0,2.1,0,4.6S2.1,9.2,4.6,9.2"/>
		</g>
	</g>
	<g>
		<g>
			<defs>
				<rect id="SVGID_00000117648025379016842540000003037134451334213258_" y="0" width="53.1" height="9.2"/>
			</defs>
			<clipPath id="SVGID_00000176025255659678257030000012432452241408676782_">
				<use xlink:href="#SVGID_00000117648025379016842540000003037134451334213258_"  style="overflow:visible;"/>
			</clipPath>
			<path style="clip-path:url(#SVGID_00000176025255659678257030000012432452241408676782_);fill:#4F4F4E;" d="M48.5,9.2
				c2.5,0,4.6-2.1,4.6-4.6S51.1,0,48.5,0s-4.6,2.1-4.6,4.6S46,9.2,48.5,9.2"/>
		</g>
	</g>
	<g>
		<g>
			<defs>
				<rect id="SVGID_00000080919584569631477600000015628263379386430624_" y="0" width="53.1" height="9.2"/>
			</defs>
			<clipPath id="SVGID_00000101062488555520166580000014455023541210012350_">
				<use xlink:href="#SVGID_00000080919584569631477600000015628263379386430624_"  style="overflow:visible;"/>
			</clipPath>
			
				<line style="clip-path:url(#SVGID_00000101062488555520166580000014455023541210012350_);fill:none;stroke:#FFCB00;stroke-width:3.821;stroke-linecap:round;" x1="6.5" y1="4.6" x2="47.6" y2="4.6"/>
		</g>
	</g>
</g>
<g>
	<g>
		<g>
			<defs>
				<rect id="SVGID_00000088848384027346299000000010718076807613995424_" y="31.9" width="53.1" height="9.2"/>
			</defs>
			<clipPath id="SVGID_00000027602185383556068000000005813360511299211655_">
				<use xlink:href="#SVGID_00000088848384027346299000000010718076807613995424_"  style="overflow:visible;"/>
			</clipPath>
			<path style="clip-path:url(#SVGID_00000027602185383556068000000005813360511299211655_);fill:#4F4F4E;" d="M4.6,41
				c2.5,0,4.6-2.1,4.6-4.6s-2.1-4.6-4.6-4.6S0,33.9,0,36.4S2.1,41,4.6,41"/>
		</g>
	</g>
	<g>
		<g>
			<defs>
				<rect id="SVGID_00000042006763458352410250000000043584449096473783_" y="31.9" width="53.1" height="9.2"/>
			</defs>
			<clipPath id="SVGID_00000168830692742379447150000016506629847066634905_">
				<use xlink:href="#SVGID_00000042006763458352410250000000043584449096473783_"  style="overflow:visible;"/>
			</clipPath>
			<path style="clip-path:url(#SVGID_00000168830692742379447150000016506629847066634905_);fill:#4F4F4E;" d="M48.5,41
				c2.5,0,4.6-2.1,4.6-4.6s-2.1-4.6-4.6-4.6s-4.6,2.1-4.6,4.6S46,41,48.5,41"/>
		</g>
	</g>
	<g>
		<g>
			<defs>
				<rect id="SVGID_00000016056533996838763280000015475920944090932626_" y="31.9" width="53.1" height="9.2"/>
			</defs>
			<clipPath id="SVGID_00000128485442891979427240000012848380238217961650_">
				<use xlink:href="#SVGID_00000016056533996838763280000015475920944090932626_"  style="overflow:visible;"/>
			</clipPath>
			
				<line style="clip-path:url(#SVGID_00000128485442891979427240000012848380238217961650_);fill:none;stroke:#FFCB00;stroke-width:3.821;stroke-linecap:round;" x1="6.5" y1="36.4" x2="47.6" y2="36.4"/>
		</g>
	</g>
</g>
<g>
	<g>
		<g>
			<defs>
				<rect id="SVGID_00000042718977672816855740000005826976460965417384_" y="63.8" width="53.1" height="9.2"/>
			</defs>
			<clipPath id="SVGID_00000050631094313501919640000008770043190453421972_">
				<use xlink:href="#SVGID_00000042718977672816855740000005826976460965417384_"  style="overflow:visible;"/>
			</clipPath>
			<path style="clip-path:url(#SVGID_00000050631094313501919640000008770043190453421972_);fill:#4F4F4E;" d="M4.6,73
				c2.5,0,4.6-2.1,4.6-4.6s-2.1-4.6-4.6-4.6S0,65.9,0,68.4S2.1,73,4.6,73"/>
		</g>
	</g>
	<g>
		<g>
			<defs>
				<rect id="SVGID_00000059992248079566364300000011739635413478875839_" y="63.8" width="53.1" height="9.2"/>
			</defs>
			<clipPath id="SVGID_00000047019350063228399680000014843960496079202735_">
				<use xlink:href="#SVGID_00000059992248079566364300000011739635413478875839_"  style="overflow:visible;"/>
			</clipPath>
			<path style="clip-path:url(#SVGID_00000047019350063228399680000014843960496079202735_);fill:#4F4F4E;" d="M48.5,73
				c2.5,0,4.6-2.1,4.6-4.6s-2.1-4.6-4.6-4.6s-4.6,2.1-4.6,4.6S46,73,48.5,73"/>
		</g>
	</g>
	<g>
		<g>
			<defs>
				<rect id="SVGID_00000154408085004893055230000012164790424078705824_" y="63.8" width="53.1" height="9.2"/>
			</defs>
			<clipPath id="SVGID_00000065789751181282018740000010228353994016502921_">
				<use xlink:href="#SVGID_00000154408085004893055230000012164790424078705824_"  style="overflow:visible;"/>
			</clipPath>
			
				<line style="clip-path:url(#SVGID_00000065789751181282018740000010228353994016502921_);fill:none;stroke:#FFCB00;stroke-width:3.821;stroke-linecap:round;" x1="6.5" y1="68.4" x2="47.6" y2="68.4"/>
		</g>
	</g>
</g>
</svg>
