<?xml version="1.0" encoding="utf-8"?>
<!-- Generator: Adobe Illustrator 21.1.0, SVG Export Plug-In . SVG Version: 6.00 Build 0)  -->
<svg version="1.1" id="Capa_1" xmlns="http://www.w3.org/2000/svg" xmlns:xlink="http://www.w3.org/1999/xlink" x="0px" y="0px"
	 viewBox="0 0 12.107 12.107" style="enable-background:new 0 0 12.107 12.107;" xml:space="preserve">
<style type="text/css">
	.st0{clip-path:url(#SVGID_2_);fill:none;stroke:#AEC90B;stroke-width:0.776;stroke-linecap:round;}
	.st1{clip-path:url(#SVGID_2_);fill:#AEC90B;}
</style>
<g>
	<defs>
		<rect id="SVGID_1_" width="12.107" height="12.107"/>
	</defs>
	<clipPath id="SVGID_2_">
		<use xlink:href="#SVGID_1_"  style="overflow:visible;"/>
	</clipPath>
	<rect x="0.388" y="0.388" class="st0" width="11.331" height="11.331"/>
	<path class="st1" d="M7.744,8.436C7.661,8.462,7.525,8.489,7.336,8.518C7.148,8.546,6.919,8.561,6.651,8.561
		c-0.378,0-0.705-0.064-0.983-0.192C5.389,8.241,5.156,8.06,4.967,7.827C4.779,7.594,4.638,7.314,4.545,6.988
		C4.453,6.662,4.406,6.301,4.406,5.904c0-0.409,0.055-0.778,0.163-1.108C4.678,4.467,4.83,4.187,5.025,3.957
		c0.195-0.23,0.432-0.406,0.71-0.528C6.013,3.308,6.321,3.247,6.66,3.247c0.32,0,0.633,0.04,0.94,0.12
		c0.307,0.08,0.553,0.181,0.739,0.302l0.297-0.777C8.598,2.867,8.526,2.829,8.42,2.777C8.315,2.726,8.179,2.675,8.013,2.624
		c-0.167-0.051-0.367-0.096-0.6-0.134c-0.233-0.039-0.5-0.058-0.801-0.058c-0.441,0-0.855,0.077-1.242,0.23
		C4.983,2.816,4.646,3.04,4.358,3.334C4.071,3.628,3.842,3.991,3.673,4.422c-0.17,0.432-0.255,0.926-0.255,1.482
		s0.076,1.049,0.226,1.477c0.15,0.428,0.363,0.79,0.638,1.084C4.556,8.759,4.886,8.983,5.27,9.136
		c0.383,0.154,0.808,0.23,1.275,0.23c0.23,0,0.457-0.011,0.681-0.033c0.224-0.023,0.43-0.05,0.619-0.082
		C8.033,9.219,8.2,9.187,8.343,9.155c0.144-0.032,0.255-0.06,0.331-0.086V5.962h-0.93V8.436z"/>
</g>
</svg>
