<svg id="Capa_1" data-name="Capa 1" xmlns="http://www.w3.org/2000/svg" xmlns:xlink="http://www.w3.org/1999/xlink" viewBox="0 0 77.97 50.01"><defs><style>.cls-1,.cls-3,.cls-4,.cls-5,.cls-6,.cls-7,.cls-8{fill:none;}.cls-2{clip-path:url(#clip-path);}.cls-3,.cls-4,.cls-5,.cls-6,.cls-7,.cls-8{stroke:#7c6eb0;stroke-width:1.5px;}.cls-3{stroke-dasharray:4.84 4.84;}.cls-4{stroke-dasharray:4.91 4.91;}.cls-5{stroke-dasharray:4.95 4.95;}.cls-6{stroke-dasharray:5.66 5.66;}.cls-7{stroke-dasharray:5.53 5.53;}</style><clipPath id="clip-path" transform="translate(0 0)"><rect class="cls-1" width="77.96" height="50.04"/></clipPath></defs><g class="cls-2"><path class="cls-3" d="M5.67,26C14,33.88,30.73,48.26,44.48,49.24" transform="translate(0 0)"/><path class="cls-4" d="M56.1,46.24c7.17-4.84,8.5-14.48,2.51-24.15" transform="translate(0 0)"/><path class="cls-5" d="M50.09,13.38c-6.9-3.45-11.54,3-8.08,9.1" transform="translate(0 0)"/><path class="cls-6" d="M52.76,30a19.3,19.3,0,0,0,18.46-4.21" transform="translate(0 0)"/><path class="cls-7" d="M77.19,13.61A22.79,22.79,0,0,0,76,5.44" transform="translate(0 0)"/><path class="cls-8" d="M75,2.86A20.86,20.86,0,0,0,73.74.4m-.57,23.37a21.21,21.21,0,0,0,1.64-2.3A16.23,16.23,0,0,0,76,19M43.46,24.47a13.51,13.51,0,0,0,1.82,1.68,23,23,0,0,0,2.32,1.61m9.64-7.71c-.48-.64-1-1.29-1.52-1.93s-1.12-1.28-1.67-1.82m-7.15,33A16,16,0,0,0,49.31,49a20.5,20.5,0,0,0,2.37-.61M.55,20.79s.6.65,1.68,1.75" transform="translate(0 0)"/></g></svg>