<?xml version="1.0" encoding="utf-8"?>
<!-- Generator: Adobe Illustrator 14.0.0, SVG Export Plug-In . SVG Version: 6.00 Build 43363)  -->
<!DOCTYPE svg PUBLIC "-//W3C//DTD SVG 1.1//EN" "http://www.w3.org/Graphics/SVG/1.1/DTD/svg11.dtd">
<svg version="1.1" id="Layer_1" xmlns="http://www.w3.org/2000/svg" xmlns:xlink="http://www.w3.org/1999/xlink" x="0px" y="0px"
	 width="751.717px" height="842.347px" viewBox="0 0 751.717 842.347" enable-background="new 0 0 751.717 842.347"
	 xml:space="preserve">
<g>
	<g>
		<path fill="#EAF2D4" d="M732.023,19.589c0,0,7.64,754.155,7.64,775.319s-6.11,40.76-18.334,43.895
			c-12.223,3.135-406.008,2.352-478.578,3.135c-72.568,0.784-180.277,0.784-197.846-3.135c-17.571-3.92-22.154-9.406-25.21-30.57
			C16.64,787.069,22.751,23.9,37.265,19.589c14.516-4.312,129.098-7.446,210.836-7.838
			C329.835,11.358,721.329,12.534,732.023,19.589"/>
	</g>
	<g>
		<path fill="#C7DE88" d="M161.524,836.974c-49.456,0-111.18-0.613-124.382-3.533c-17.884-3.956-22.706-9.738-25.792-30.933
			C9.8,791.855,10.583,597.256,13.54,405.163c1.656-107.545,3.757-198.725,6.077-263.682c4.289-120.086,8.177-121.231,9.837-121.72
			c15.116-4.451,134.399-7.438,211.073-7.801c9.118-0.043,21.86-0.066,36.85-0.066c4.354,0,435.714,0.217,447.556,7.959l0.336,0.219
			l0.004,0.401c0.076,7.478,7.64,747.969,7.64,768.715c0,18.194-4.95,40.7-18.901,44.248c-8.454,2.15-190.131,2.45-336.111,2.69
			c-64.282,0.105-119.797,0.197-142.711,0.442C217.884,836.753,191.059,836.974,161.524,836.974L161.524,836.974z M277.376,13.393
			c-14.988,0-27.728,0.023-36.843,0.066c-88.63,0.42-196.941,3.702-210.656,7.74c-1.699,1.191-5.18,18.761-8.85,122.822
			c-2.3,65.209-4.382,156.282-6.021,263.375c-2.923,190.999-3.701,384.385-2.17,394.896c3,20.597,7.373,25.867,24.632,29.685
			c10.197,2.256,54.255,3.498,124.058,3.498c29.527,0,56.348-0.221,73.647-0.406c22.921-0.245,78.439-0.337,142.725-0.442
			c138.199-0.228,327.471-0.539,335.744-2.644c10.795-2.745,17.771-19.543,17.771-42.795c0-20.527-7.41-746.204-7.635-768.246
			C709.539,15.243,417.924,13.393,277.376,13.393L277.376,13.393z"/>
	</g>
	<g>
		<path fill="#C7DE88" d="M11.635,819.373c-0.053,0-0.106-0.006-0.16-0.017l-10.885-2.363c-0.405-0.088-0.662-0.487-0.574-0.893
			s0.485-0.657,0.892-0.574l10.885,2.363c0.405,0.088,0.662,0.487,0.574,0.893C12.292,819.133,11.981,819.373,11.635,819.373
			L11.635,819.373z"/>
	</g>
	<g>
		<path fill="#C7DE88" d="M2.202,828.478c-0.297,0-0.578-0.177-0.696-0.469c-0.155-0.384,0.03-0.821,0.414-0.977l10.521-4.261
			c0.387-0.153,0.822,0.03,0.977,0.414s-0.03,0.821-0.414,0.977l-10.521,4.261C2.391,828.46,2.295,828.478,2.202,828.478
			L2.202,828.478z"/>
	</g>
	<g>
		<path fill="#C7DE88" d="M7.644,837.583c-0.19,0-0.381-0.072-0.527-0.217c-0.294-0.291-0.297-0.767-0.006-1.061l8.347-8.435
			c0.292-0.295,0.766-0.297,1.061-0.006s0.297,0.767,0.006,1.061l-8.347,8.435C8.03,837.508,7.837,837.583,7.644,837.583
			L7.644,837.583z"/>
	</g>
	<g>
		<path fill="#C7DE88" d="M17.441,842.136c-0.066,0-0.133-0.009-0.2-0.027c-0.399-0.11-0.633-0.523-0.523-0.923l2.54-9.193
			c0.11-0.399,0.524-0.633,0.923-0.522c0.399,0.11,0.633,0.523,0.523,0.923l-2.54,9.193
			C18.071,841.918,17.77,842.136,17.441,842.136L17.441,842.136z"/>
	</g>
	<g>
		<path fill="#C7DE88" d="M739.835,22.085c-0.4,0-0.732-0.317-0.748-0.721c-0.017-0.414,0.306-0.763,0.72-0.779l11.131-0.437
			c0.396-0.017,0.763,0.306,0.778,0.72c0.017,0.414-0.306,0.763-0.72,0.779l-11.131,0.437
			C739.855,22.085,739.846,22.085,739.835,22.085L739.835,22.085z"/>
	</g>
	<g>
		<path fill="#C7DE88" d="M737.571,17.666c-0.229,0-0.456-0.105-0.604-0.304c-0.247-0.333-0.177-0.802,0.156-1.049l9.12-6.757
			c0.333-0.249,0.803-0.177,1.049,0.156c0.247,0.333,0.177,0.802-0.156,1.049l-9.12,6.757
			C737.883,17.618,737.726,17.666,737.571,17.666L737.571,17.666z"/>
	</g>
	<g>
		<path fill="#C7DE88" d="M733.173,13.71c-0.128,0-0.258-0.033-0.376-0.102c-0.358-0.208-0.479-0.667-0.271-1.026l5.968-10.254
			c0.209-0.357,0.668-0.478,1.025-0.271c0.358,0.208,0.479,0.667,0.271,1.026l-5.968,10.254
			C733.683,13.577,733.432,13.71,733.173,13.71L733.173,13.71z"/>
	</g>
	<g>
		<path fill="#C7DE88" d="M728.358,11.038c-0.004,0-0.008,0-0.013,0c-0.414-0.007-0.744-0.348-0.737-0.762l0.158-9.538
			c0.007-0.41,0.342-0.738,0.75-0.738c0.004,0,0.008,0,0.013,0c0.414,0.007,0.744,0.348,0.737,0.762l-0.158,9.538
			C729.102,10.71,728.767,11.038,728.358,11.038L728.358,11.038z"/>
	</g>
</g>
</svg>
