<?xml version="1.0" encoding="utf-8"?>
<!-- Generator: Adobe Illustrator 14.0.0, SVG Export Plug-In . SVG Version: 6.00 Build 43363)  -->
<!DOCTYPE svg PUBLIC "-//W3C//DTD SVG 1.1//EN" "http://www.w3.org/Graphics/SVG/1.1/DTD/svg11.dtd">
<svg version="1.1" id="Layer_1" xmlns="http://www.w3.org/2000/svg" xmlns:xlink="http://www.w3.org/1999/xlink" x="0px" y="0px"
	 width="157.461px" height="59.68px" viewBox="0 0 157.461 59.68" enable-background="new 0 0 157.461 59.68" xml:space="preserve">
<g>
	<g>
		<path fill="#FFFFFF" d="M10.713,0.508c0,0-7.295-0.51-7.807,6.786L0.508,41.617c0,0-0.512,7.295,6.785,7.804l139.453,9.753
			c0,0,7.297,0.51,7.807-6.785l2.4-34.324c0,0,0.51-7.295-6.785-7.806L10.713,0.508z"/>
	</g>
	<g>
		<path d="M23.384,11.069c0.19,0.013,0.354,0.094,0.491,0.243c0.136,0.148,0.195,0.328,0.181,0.54
			c-0.024,0.356-0.189,1.131-0.495,2.322c-0.374,1.458-0.676,3.021-0.903,4.684c-0.228,1.664-0.356,2.707-0.386,3.129
			c-0.016,0.231-0.137,0.453-0.36,0.664c-0.225,0.212-0.414,0.312-0.57,0.301c-0.166-0.012-0.316-0.089-0.454-0.232
			c-0.136-0.144-0.196-0.315-0.183-0.517c0.013-0.181,0.135-0.816,0.368-1.907c0.195-0.92,0.308-1.587,0.337-1.999
			c0.017-0.242-0.007-0.41-0.072-0.505c-0.063-0.096-0.179-0.149-0.344-0.16c-0.252-0.018-0.746-0.024-1.484-0.021
			c-0.799,0.01-1.296,0.008-1.492-0.006c-0.206-0.015-0.732-0.019-1.579-0.012c-0.846,0.006-1.316,0.031-1.406,0.072
			c-0.091,0.042-0.205,0.368-0.341,0.977c-0.136,0.609-0.229,1.117-0.277,1.523c-0.074,0.696-0.193,1.268-0.358,1.714
			c-0.165,0.445-0.354,0.661-0.564,0.646c-0.146-0.01-0.318-0.138-0.515-0.381c-0.198-0.243-0.288-0.48-0.272-0.712
			c0.014-0.201,0.099-0.541,0.253-1.021c0.213-0.657,0.495-1.837,0.851-3.54c0.354-1.703,0.682-3.476,0.98-5.319
			c0.019-0.12,0.096-0.238,0.23-0.355c0.134-0.117,0.271-0.17,0.412-0.161c0.493,0.034,0.715,0.406,0.665,1.115
			c-0.029,0.417-0.167,1.082-0.412,1.994c-0.22,0.823-0.342,1.421-0.367,1.792c-0.012,0.156,0.03,0.272,0.126,0.35
			c0.097,0.077,0.333,0.13,0.71,0.156c0.824,0.058,1.938,0.068,3.343,0.032c1.404-0.035,2.168-0.173,2.294-0.415
			c0.126-0.241,0.276-0.799,0.45-1.673c0.176-0.874,0.297-1.792,0.363-2.752c0.008-0.11,0.096-0.236,0.261-0.376
			C23.029,11.121,23.203,11.057,23.384,11.069z"/>
		<path d="M30.241,20.376c-0.77,0.896-1.516,1.556-2.237,1.981c-0.722,0.424-1.368,0.616-1.942,0.576
			c-0.387-0.027-0.71-0.214-0.968-0.56c-0.26-0.347-0.37-0.776-0.334-1.289c0.093-1.322,0.781-2.705,2.07-4.147
			c1.287-1.443,2.515-2.124,3.682-2.042c0.423,0.029,0.719,0.292,0.892,0.79c0.054,0.165,0.151,0.253,0.292,0.263
			c0.402,0.028,0.592,0.198,0.57,0.509c-0.011,0.156-0.051,0.368-0.12,0.636c-0.375,1.464-0.584,2.5-0.626,3.108
			c-0.086,1.217,0.095,1.961,0.54,2.236c0.213,0.135,0.313,0.292,0.301,0.467c-0.011,0.156-0.13,0.306-0.357,0.449
			c-0.227,0.143-0.441,0.208-0.643,0.193c-0.387-0.027-0.688-0.316-0.901-0.866S30.172,21.361,30.241,20.376z M30.078,16.099
			c-0.663-0.046-1.479,0.521-2.445,1.704c-0.967,1.184-1.479,2.185-1.536,3.004c-0.04,0.578,0.13,0.88,0.513,0.907
			c0.553,0.039,1.358-0.465,2.416-1.513c1.06-1.048,1.621-2.04,1.687-2.974C30.763,16.508,30.551,16.132,30.078,16.099z"/>
		<path d="M36.059,23.973c-0.754-0.053-1.316-0.309-1.691-0.77c-0.374-0.46-0.535-1.081-0.48-1.86
			c0.092-1.312,0.709-2.66,1.851-4.042c1.144-1.382,2.161-2.043,3.056-1.98c0.407,0.029,0.743,0.273,1.006,0.734
			c0.265,0.46,0.378,0.937,0.344,1.429c-0.021,0.297-0.104,0.547-0.245,0.752c-0.144,0.205-0.281,0.303-0.411,0.293
			c-0.292-0.021-0.478-0.329-0.558-0.926c-0.091-0.643-0.265-0.973-0.521-0.991c-0.523-0.037-1.186,0.541-1.986,1.732
			c-0.8,1.191-1.23,2.215-1.29,3.069c-0.06,0.855,0.396,1.316,1.365,1.384c0.739,0.052,1.633-0.234,2.683-0.858
			c0.368-0.222,0.636-0.327,0.802-0.316c0.171,0.012,0.25,0.117,0.236,0.313c-0.026,0.382-0.511,0.832-1.45,1.35
			C37.826,23.805,36.924,24.033,36.059,23.973z"/>
		<path d="M48.522,21.844c-0.036,0.513-0.533,1.1-1.491,1.76c-0.959,0.66-1.919,0.957-2.884,0.89
			c-0.81-0.057-1.417-0.339-1.824-0.848c-0.406-0.508-0.58-1.189-0.521-2.044c0.101-1.438,0.682-2.771,1.743-4
			c1.061-1.229,2.166-1.804,3.317-1.723c0.377,0.026,0.676,0.171,0.896,0.434c0.223,0.263,0.321,0.568,0.297,0.915
			c-0.055,0.773-0.486,1.489-1.294,2.144c-0.809,0.656-1.872,1.281-3.192,1.876c-0.271,0.118-0.413,0.284-0.429,0.5
			c-0.029,0.417,0.068,0.76,0.291,1.028c0.224,0.268,0.572,0.419,1.044,0.452c1.082,0.076,2.227-0.445,3.437-1.563
			c0.178-0.154,0.309-0.229,0.395-0.223C48.469,21.454,48.541,21.588,48.522,21.844z M43.364,20.301
			c2.219-1.117,3.356-2.061,3.41-2.83c0.021-0.301-0.104-0.461-0.376-0.48c-0.462-0.032-1.008,0.271-1.635,0.909
			C44.135,18.537,43.669,19.337,43.364,20.301z"/>
		<path d="M56.059,18.946c-0.469-0.022-1.565,1.292-3.29,3.945c-0.584,0.894-0.921,1.379-1.012,1.456
			c-0.092,0.077-0.253,0.14-0.487,0.189c-0.233,0.049-0.426,0.068-0.575,0.058c-0.338-0.023-0.46-0.691-0.368-2.003
			c0.052-0.739,0.305-2.064,0.756-3.979c0.185-0.775,0.289-1.331,0.313-1.667c0.023-0.332,0.184-0.487,0.48-0.466
			c0.558,0.039,0.809,0.46,0.753,1.265c-0.026,0.377-0.172,1.11-0.435,2.197c-0.305,1.242-0.468,1.998-0.491,2.27
			c0.332-0.28,0.836-0.909,1.511-1.887c0.952-1.338,1.643-2.18,2.073-2.526c0.432-0.345,0.862-0.504,1.295-0.474
			c0.326,0.023,0.572,0.26,0.734,0.71c0.164,0.451,0.208,1.502,0.132,3.154c-0.019,0.413-0.002,0.722,0.049,0.928
			c0.052,0.206,0.093,0.31,0.123,0.312c0.236,0.017,0.805-0.752,1.707-2.306c0.482-0.82,0.938-1.437,1.368-1.852
			c0.431-0.414,0.89-0.604,1.378-0.57c0.407,0.028,0.688,0.259,0.845,0.691c0.157,0.433,0.247,1.064,0.269,1.894
			c0.018,0.84,0.082,1.612,0.19,2.317c0.11,0.705,0.37,1.17,0.778,1.395c0.277,0.156,0.408,0.325,0.396,0.506
			c-0.013,0.176-0.146,0.348-0.399,0.517c-0.255,0.169-0.482,0.247-0.683,0.233c-0.402-0.028-0.745-0.299-1.027-0.815
			c-0.282-0.514-0.446-1.597-0.492-3.247c-0.025-0.663-0.06-1.135-0.105-1.417c-0.046-0.281-0.14-0.426-0.28-0.437
			c-0.211-0.015-0.476,0.169-0.794,0.551c-0.316,0.382-0.84,1.167-1.569,2.353c-0.57,0.925-0.995,1.538-1.275,1.839
			c-0.282,0.301-0.544,0.443-0.784,0.427c-0.217-0.015-0.404-0.115-0.563-0.301c-0.159-0.186-0.253-0.402-0.28-0.648
			c-0.029-0.247-0.035-0.85-0.019-1.809C56.314,20.156,56.241,19.222,56.059,18.946z"/>
		<path d="M68.121,26.162c-0.688-0.048-1.239-0.35-1.65-0.903c-0.41-0.554-0.589-1.216-0.535-1.985
			c0.091-1.297,0.616-2.545,1.577-3.743c0.959-1.198,2.048-1.754,3.265-1.669c0.805,0.056,1.435,0.411,1.892,1.064
			c0.457,0.654,0.655,1.408,0.596,2.262c-0.091,1.307-0.692,2.482-1.804,3.525C70.351,25.757,69.236,26.24,68.121,26.162z
			 M67.277,23.17c-0.035,0.508,0.041,0.93,0.233,1.267c0.19,0.336,0.462,0.518,0.813,0.542c0.749,0.052,1.53-0.306,2.342-1.075
			s1.252-1.657,1.322-2.662c0.043-0.618-0.066-1.13-0.328-1.534c-0.263-0.405-0.638-0.624-1.125-0.658
			c-0.81-0.057-1.539,0.391-2.189,1.343C67.696,21.345,67.34,22.271,67.277,23.17z"/>
		<path d="M78.528,24.775c0.022-0.327-0.354-0.726-1.129-1.2c-0.983-0.594-1.645-1.061-1.98-1.4
			c-0.339-0.339-0.494-0.703-0.467-1.09c0.069-1,0.63-1.794,1.678-2.383c1.05-0.588,1.892-0.86,2.524-0.816
			c0.407,0.028,0.697,0.119,0.871,0.273c0.173,0.153,0.248,0.404,0.224,0.75c-0.011,0.156-0.087,0.285-0.227,0.386
			c-0.142,0.101-0.25,0.149-0.326,0.144c-0.054-0.004-0.159-0.05-0.315-0.136c-0.156-0.082-0.26-0.125-0.311-0.128
			c-0.251-0.018-0.773,0.13-1.568,0.443c-0.794,0.313-1.208,0.702-1.24,1.164c-0.02,0.281,0.098,0.546,0.354,0.793
			c0.256,0.248,0.724,0.562,1.404,0.943c0.549,0.312,0.981,0.634,1.301,0.966c0.316,0.333,0.46,0.708,0.432,1.125
			c-0.055,0.77-0.626,1.334-1.718,1.695c-1.091,0.36-2.118,0.507-3.083,0.44c-0.814-0.057-1.203-0.362-1.164-0.915
			c0.014-0.191,0.115-0.325,0.304-0.403c0.191-0.078,0.378-0.11,0.564-0.097c0.076,0.005,0.217,0.041,0.425,0.106
			c0.202,0.064,0.336,0.099,0.401,0.104c0.558,0.039,1.163-0.012,1.813-0.153C77.947,25.246,78.358,25.042,78.528,24.775z"/>
		<path d="M92.896,24.22c-0.72,1.036-1.437,1.826-2.151,2.373c-0.716,0.546-1.362,0.799-1.94,0.759
			c-0.332-0.023-0.656-0.24-0.973-0.652c-0.317-0.411-0.448-1.019-0.392-1.823c0.046-0.658,0.272-1.618,0.678-2.877
			c0.342-1.052,0.527-1.794,0.558-2.227c0.167-0.292,0.406-0.427,0.718-0.405c0.211,0.015,0.374,0.101,0.489,0.258
			c0.116,0.157,0.169,0.316,0.157,0.477c-0.024,0.352-0.184,0.844-0.475,1.475c-0.556,1.229-0.865,2.296-0.929,3.201
			c-0.058,0.825,0.104,1.25,0.486,1.277c0.487,0.034,1.138-0.337,1.949-1.114c0.813-0.777,1.54-1.888,2.181-3.333
			c0.253-0.578,0.451-0.952,0.598-1.121c0.146-0.169,0.331-0.246,0.559-0.23c0.341,0.023,0.496,0.262,0.464,0.715
			c-0.004,0.055-0.064,0.235-0.181,0.541c-0.38,1.08-0.603,2.109-0.672,3.089c-0.082,1.177,0.059,1.952,0.421,2.326
			c0.188,0.2,0.279,0.357,0.271,0.474c-0.01,0.141-0.121,0.261-0.333,0.363c-0.211,0.101-0.4,0.146-0.565,0.135
			c-0.353-0.025-0.618-0.306-0.797-0.844c-0.181-0.538-0.234-1.317-0.163-2.338l0.018-0.249
			C92.877,24.387,92.886,24.305,92.896,24.22z"/>
		<path d="M102.393,22.353c-0.261-0.018-0.558,0.133-0.89,0.453c-0.334,0.32-0.859,1.054-1.575,2.201
			c-0.947,1.54-1.55,2.413-1.81,2.617c-0.258,0.204-0.469,0.3-0.629,0.289c-0.594-0.042-0.87-0.348-0.83-0.922
			c0.018-0.24,0.081-0.58,0.193-1.016c0.382-1.5,0.633-3.091,0.751-4.774c0.013-0.191,0.107-0.397,0.288-0.62
			c0.18-0.222,0.342-0.328,0.488-0.318c0.261,0.018,0.442,0.111,0.541,0.279c0.1,0.169,0.132,0.498,0.098,0.984
			c-0.035,0.508-0.26,1.543-0.671,3.105c-0.139,0.516-0.211,0.845-0.221,0.985c-0.006,0.081,0.012,0.122,0.052,0.125
			c0.075,0.005,0.467-0.571,1.175-1.729c0.713-1.177,1.324-1.998,1.832-2.463c0.506-0.464,1.044-0.677,1.612-0.637
			c0.452,0.031,0.806,0.263,1.062,0.695c0.254,0.432,0.409,1.198,0.463,2.298c0.055,1.251,0.128,2.033,0.219,2.345
			c0.093,0.312,0.263,0.477,0.509,0.494c0.156,0.011,0.355-0.031,0.599-0.125c0.042-0.017,0.073-0.025,0.093-0.023
			c0.217,0.015,0.316,0.148,0.299,0.399c-0.016,0.221-0.181,0.445-0.495,0.674c-0.314,0.228-0.68,0.327-1.098,0.298
			c-0.426-0.03-0.744-0.222-0.954-0.578c-0.211-0.355-0.332-1.275-0.364-2.757C103.091,23.145,102.846,22.385,102.393,22.353z"/>
		<path d="M114.785,28.167c-0.311,0.888-0.63,2.141-0.961,3.759l-0.311,1.41c-0.049,0.199-0.156,0.392-0.32,0.58
			c-0.165,0.188-0.311,0.277-0.436,0.269c-0.156-0.011-0.329-0.102-0.515-0.274c-0.188-0.172-0.278-0.306-0.271-0.401
			c0.02-0.276,0.107-0.654,0.268-1.134c1.181-3.649,1.869-6.88,2.065-9.69l0.036-0.634c0.028-0.543,0.15-0.932,0.369-1.164
			c0.219-0.232,0.458-0.339,0.72-0.32c0.121,0.008,0.23,0.11,0.326,0.307c0.099,0.196,0.136,0.468,0.111,0.815
			c-0.034,0.487-0.126,1.075-0.275,1.761c-0.191,0.866-0.295,1.364-0.309,1.494c0.84-1.254,1.706-2.219,2.597-2.895
			c0.891-0.675,1.695-0.987,2.414-0.937c0.508,0.036,0.923,0.255,1.246,0.659c0.322,0.404,0.465,0.887,0.426,1.45
			c-0.114,1.639-0.848,3.083-2.198,4.333c-1.35,1.249-2.621,1.832-3.813,1.749c-0.296-0.021-0.525-0.113-0.688-0.275
			C115.104,28.864,114.942,28.578,114.785,28.167z M119.892,22.425c-0.709-0.05-1.632,0.553-2.771,1.807s-1.733,2.251-1.785,2.989
			c-0.013,0.181,0.077,0.364,0.272,0.55c0.193,0.185,0.449,0.289,0.767,0.311c0.719,0.05,1.583-0.423,2.591-1.421
			c1.01-0.998,1.551-2.01,1.622-3.035c0.026-0.367-0.028-0.655-0.163-0.864C120.29,22.553,120.112,22.44,119.892,22.425z"/>
		<path d="M126.675,17.049c0.362,0.025,0.528,0.27,0.496,0.732c-0.029,0.413-0.317,1.377-0.863,2.895
			c-0.345,0.956-0.634,2.017-0.866,3.182c-0.232,1.166-0.373,2.083-0.42,2.751c-0.059,0.83-0.063,1.658-0.014,2.485
			c0.008,0.157,0.011,0.271,0.006,0.341c-0.018,0.252-0.118,0.462-0.301,0.631c-0.185,0.169-0.373,0.247-0.563,0.233
			c-0.266-0.019-0.439-0.198-0.52-0.537c-0.078-0.339-0.093-0.878-0.041-1.617c0.118-1.684,0.465-3.756,1.044-6.216
			c0.578-2.46,1.002-3.893,1.271-4.298C126.172,17.227,126.43,17.032,126.675,17.049z"/>
		<path d="M132.65,27.537c-0.77,0.896-1.516,1.557-2.238,1.981c-0.721,0.424-1.367,0.616-1.941,0.576
			c-0.387-0.027-0.71-0.213-0.968-0.56c-0.26-0.347-0.37-0.776-0.334-1.289c0.093-1.322,0.782-2.704,2.07-4.147
			c1.287-1.443,2.515-2.124,3.681-2.042c0.423,0.029,0.72,0.292,0.893,0.79c0.054,0.165,0.15,0.253,0.291,0.263
			c0.402,0.028,0.593,0.198,0.571,0.51c-0.011,0.156-0.051,0.368-0.12,0.636c-0.375,1.464-0.584,2.5-0.626,3.108
			c-0.086,1.217,0.094,1.961,0.54,2.235c0.213,0.136,0.313,0.292,0.3,0.467c-0.011,0.156-0.129,0.306-0.356,0.449
			c-0.227,0.143-0.441,0.208-0.643,0.193c-0.387-0.027-0.688-0.316-0.901-0.866S132.581,28.522,132.65,27.537z M132.487,23.26
			c-0.663-0.046-1.479,0.521-2.445,1.704c-0.967,1.183-1.479,2.184-1.537,3.003c-0.04,0.578,0.131,0.88,0.514,0.907
			c0.553,0.039,1.358-0.465,2.416-1.513c1.06-1.048,1.621-2.039,1.687-2.974C133.172,23.669,132.96,23.293,132.487,23.26z"/>
		<path d="M142.211,25.138c-0.262-0.019-0.559,0.133-0.891,0.452c-0.333,0.32-0.858,1.054-1.575,2.201
			c-0.946,1.54-1.549,2.413-1.809,2.617c-0.259,0.204-0.469,0.3-0.63,0.289c-0.593-0.042-0.87-0.348-0.83-0.922
			c0.018-0.241,0.081-0.58,0.193-1.017c0.382-1.499,0.633-3.09,0.751-4.774c0.013-0.191,0.108-0.398,0.288-0.62
			c0.181-0.223,0.343-0.329,0.488-0.318c0.262,0.018,0.442,0.111,0.542,0.28c0.1,0.169,0.131,0.498,0.097,0.984
			c-0.035,0.508-0.259,1.543-0.671,3.105c-0.138,0.516-0.21,0.844-0.22,0.984c-0.006,0.081,0.012,0.122,0.052,0.125
			c0.075,0.005,0.467-0.571,1.174-1.729c0.714-1.177,1.324-1.998,1.832-2.463c0.507-0.464,1.044-0.677,1.612-0.637
			c0.452,0.032,0.806,0.264,1.062,0.695c0.255,0.432,0.409,1.198,0.464,2.298c0.054,1.251,0.127,2.033,0.219,2.346
			c0.093,0.312,0.262,0.477,0.508,0.494c0.156,0.011,0.356-0.03,0.6-0.125c0.042-0.017,0.073-0.024,0.093-0.023
			c0.216,0.015,0.315,0.148,0.298,0.4c-0.016,0.221-0.181,0.445-0.495,0.673c-0.313,0.229-0.679,0.327-1.097,0.298
			c-0.426-0.03-0.744-0.223-0.955-0.578c-0.21-0.356-0.332-1.275-0.363-2.758C142.908,25.929,142.664,25.169,142.211,25.138z"/>
	</g>
	<g>
		<path d="M32.543,34.272c0.521-0.004,1.012-0.019,1.472-0.041c0.457-0.019,0.836-0.018,1.138,0.004
			c0.382,0.026,0.62,0.078,0.716,0.155c0.096,0.078,0.137,0.205,0.125,0.381c-0.029,0.407-0.328,0.607-0.898,0.604
			c-0.732-0.006-1.408,0.011-2.025,0.048c-0.62,0.037-0.955,0.081-1.007,0.13c-0.051,0.05-0.244,0.638-0.581,1.763
			c-0.336,1.127-0.517,1.859-0.541,2.201c-0.038,0.553,0.009,0.927,0.142,1.121c0.133,0.193,0.346,0.3,0.637,0.32
			c0.433,0.03,1.056-0.252,1.871-0.847c0.314-0.245,0.553-0.362,0.714-0.352c0.216,0.016,0.315,0.139,0.3,0.369
			c-0.025,0.362-0.407,0.807-1.143,1.334c-0.737,0.526-1.47,0.765-2.198,0.714c-1.217-0.085-1.774-0.845-1.675-2.277
			c0.036-0.518,0.218-1.311,0.545-2.379c0.322-1.063,0.491-1.703,0.507-1.919c0.005-0.076-0.053-0.117-0.174-0.126l-0.789,0.013
			c-0.644-0.045-0.948-0.323-0.912-0.836c0.021-0.292,0.179-0.427,0.476-0.406l1.553,0.108c0.106,0.008,0.203-0.034,0.291-0.124
			c0.086-0.09,0.227-0.401,0.421-0.937c0.192-0.534,0.369-1.063,0.527-1.588c0.158-0.52,0.413-0.768,0.765-0.743
			c0.217,0.015,0.38,0.103,0.489,0.261c0.11,0.16,0.16,0.305,0.151,0.436c-0.006,0.07-0.12,0.424-0.347,1.06L32.543,34.272z"/>
		<path d="M38.371,42.704c-0.688-0.049-1.239-0.35-1.65-0.903c-0.409-0.554-0.589-1.216-0.535-1.984
			c0.091-1.298,0.617-2.546,1.577-3.743c0.96-1.198,2.048-1.755,3.265-1.67c0.805,0.056,1.435,0.411,1.893,1.064
			c0.456,0.653,0.654,1.407,0.595,2.262c-0.091,1.307-0.691,2.482-1.804,3.525C40.601,42.298,39.486,42.782,38.371,42.704z
			 M37.527,39.712c-0.035,0.508,0.042,0.93,0.233,1.266c0.19,0.337,0.462,0.518,0.813,0.542c0.75,0.053,1.53-0.306,2.342-1.075
			c0.812-0.769,1.252-1.656,1.322-2.661c0.043-0.618-0.066-1.131-0.328-1.535c-0.263-0.404-0.638-0.624-1.125-0.658
			c-0.81-0.057-1.539,0.392-2.188,1.344C37.946,37.886,37.591,38.812,37.527,39.712z"/>
		<path d="M50.521,40.037c-0.75,1.034-1.521,1.817-2.315,2.351c-0.795,0.532-1.51,0.777-2.143,0.732
			c-0.488-0.034-0.861-0.248-1.118-0.643c-0.258-0.395-0.365-0.903-0.322-1.526c0.089-1.272,0.697-2.54,1.823-3.806
			c1.126-1.265,2.288-1.855,3.484-1.771c0.522,0.036,0.992,0.295,1.408,0.773l1.4-4.857c0.099-0.332,0.254-0.548,0.466-0.65
			c0.212-0.101,0.375-0.148,0.491-0.14c0.352,0.025,0.507,0.349,0.463,0.972c-0.008,0.111-0.152,0.516-0.433,1.213
			c-0.445,1.081-0.889,2.415-1.33,4.003c-0.442,1.588-0.696,2.869-0.765,3.845c-0.07,1.005,0.112,1.523,0.55,1.554
			c0.281,0.02,0.579-0.053,0.895-0.218c0.132-0.082,0.253-0.119,0.364-0.111c0.16,0.012,0.232,0.123,0.218,0.334
			c-0.018,0.257-0.264,0.537-0.736,0.843c-0.474,0.306-0.947,0.44-1.42,0.408c-0.829-0.059-1.188-0.887-1.076-2.484
			C50.443,40.585,50.476,40.312,50.521,40.037z M49.779,36.44c-0.814-0.058-1.659,0.438-2.535,1.485
			c-0.877,1.047-1.348,2.038-1.413,2.974c-0.044,0.628,0.142,0.957,0.559,0.986c0.393,0.027,0.884-0.146,1.474-0.519
			c0.588-0.373,1.211-0.99,1.867-1.851c0.656-0.861,1.001-1.518,1.032-1.97c0.016-0.222-0.07-0.456-0.258-0.704
			C50.317,36.595,50.075,36.46,49.779,36.44z"/>
		<path d="M57.359,44.031c-0.689-0.048-1.239-0.35-1.65-0.903c-0.41-0.554-0.589-1.215-0.535-1.984
			c0.091-1.297,0.617-2.545,1.576-3.742c0.96-1.199,2.049-1.756,3.266-1.671c0.805,0.057,1.435,0.412,1.893,1.064
			c0.455,0.653,0.654,1.408,0.595,2.263c-0.091,1.307-0.692,2.481-1.804,3.525S58.475,44.109,57.359,44.031z M56.515,41.04
			c-0.035,0.508,0.042,0.931,0.234,1.267c0.19,0.337,0.462,0.518,0.813,0.542c0.75,0.053,1.53-0.306,2.342-1.075
			c0.812-0.769,1.252-1.656,1.322-2.661c0.043-0.618-0.067-1.131-0.328-1.535c-0.263-0.405-0.638-0.624-1.125-0.658
			c-0.81-0.057-1.539,0.392-2.189,1.344C56.935,39.214,56.578,40.14,56.515,41.04z"/>
		<path d="M67.767,42.645c0.022-0.327-0.354-0.727-1.129-1.2c-0.983-0.594-1.646-1.061-1.981-1.4
			c-0.338-0.339-0.493-0.702-0.466-1.09c0.07-1,0.629-1.794,1.678-2.383s1.891-0.86,2.524-0.816c0.407,0.029,0.697,0.12,0.87,0.273
			c0.174,0.153,0.249,0.404,0.225,0.751c-0.011,0.156-0.087,0.284-0.228,0.385c-0.141,0.102-0.249,0.149-0.325,0.145
			c-0.055-0.004-0.16-0.049-0.315-0.136c-0.157-0.082-0.26-0.124-0.311-0.128c-0.252-0.018-0.773,0.131-1.569,0.443
			c-0.794,0.313-1.208,0.701-1.24,1.164c-0.02,0.281,0.099,0.546,0.354,0.793c0.257,0.248,0.724,0.563,1.405,0.943
			c0.549,0.312,0.981,0.634,1.3,0.966c0.317,0.333,0.462,0.709,0.433,1.126c-0.054,0.769-0.627,1.334-1.718,1.694
			s-2.119,0.507-3.083,0.439c-0.814-0.057-1.203-0.361-1.164-0.914c0.014-0.191,0.114-0.326,0.304-0.403
			c0.19-0.078,0.378-0.11,0.564-0.098c0.075,0.005,0.217,0.041,0.424,0.105c0.203,0.064,0.337,0.1,0.401,0.104
			c0.559,0.039,1.164-0.013,1.814-0.154C67.185,43.115,67.596,42.911,67.767,42.645z"/>
		<path d="M75.295,49.718c-0.598-0.042-1.159-0.333-1.686-0.872c-0.524-0.539-0.774-0.99-0.749-1.352
			c0.007-0.101,0.048-0.197,0.125-0.291c0.078-0.093,0.134-0.139,0.169-0.136c0.035,0.002,0.11,0.058,0.224,0.167
			c0.74,0.749,1.353,1.14,1.834,1.174c0.397,0.027,0.754-0.138,1.066-0.497c0.313-0.36,0.567-1.049,0.765-2.068
			c0.198-1.019,0.429-2.607,0.689-4.767c0.186-1.559,0.321-2.546,0.408-2.965c0.089-0.418,0.229-0.705,0.421-0.86
			c0.193-0.156,0.43-0.225,0.711-0.205c0.146,0.011,0.279,0.077,0.399,0.199c0.121,0.122,0.175,0.263,0.164,0.424
			c-0.007,0.091-0.033,0.213-0.079,0.366c-0.479,1.563-0.861,3.614-1.149,6.155c-0.178,1.533-0.402,2.661-0.669,3.386
			c-0.269,0.724-0.642,1.271-1.12,1.642C76.341,49.589,75.833,49.755,75.295,49.718z M79.536,32.952l0.022,0.001
			c0.142,0.01,0.349,0.075,0.623,0.195s0.454,0.217,0.536,0.291c0.083,0.073,0.12,0.191,0.109,0.353
			c-0.022,0.312-0.185,0.574-0.488,0.788c-0.303,0.214-0.524,0.315-0.664,0.306c-0.242-0.017-0.445-0.137-0.612-0.36
			c-0.165-0.225-0.241-0.441-0.227-0.653C78.874,33.33,79.106,33.022,79.536,32.952z"/>
		<path d="M87.033,42.431c-0.719,1.036-1.437,1.827-2.151,2.373s-1.362,0.799-1.938,0.759c-0.332-0.023-0.658-0.24-0.975-0.651
			c-0.317-0.412-0.447-1.02-0.391-1.823c0.046-0.659,0.271-1.618,0.677-2.877c0.343-1.053,0.527-1.795,0.558-2.228
			c0.168-0.291,0.406-0.427,0.719-0.404c0.21,0.015,0.374,0.101,0.488,0.258c0.116,0.156,0.169,0.316,0.157,0.477
			c-0.024,0.352-0.184,0.844-0.474,1.476c-0.557,1.229-0.865,2.296-0.929,3.2c-0.058,0.824,0.104,1.25,0.485,1.276
			c0.488,0.034,1.138-0.337,1.951-1.113c0.812-0.777,1.538-1.888,2.18-3.334c0.252-0.577,0.451-0.952,0.597-1.121
			c0.146-0.169,0.332-0.245,0.559-0.229c0.341,0.023,0.497,0.262,0.465,0.715c-0.004,0.055-0.064,0.235-0.182,0.54
			c-0.379,1.08-0.603,2.11-0.672,3.09c-0.082,1.177,0.06,1.951,0.422,2.325c0.188,0.2,0.278,0.358,0.27,0.474
			c-0.01,0.141-0.121,0.262-0.332,0.363c-0.212,0.102-0.399,0.146-0.565,0.135c-0.354-0.025-0.618-0.306-0.798-0.844
			s-0.234-1.317-0.163-2.338l0.018-0.249C87.014,42.599,87.022,42.517,87.033,42.431z"/>
		<path d="M96.53,40.565c-0.262-0.019-0.559,0.133-0.891,0.452c-0.333,0.321-0.858,1.055-1.575,2.201
			c-0.945,1.541-1.549,2.413-1.809,2.617c-0.259,0.204-0.469,0.3-0.63,0.289c-0.593-0.042-0.87-0.349-0.83-0.922
			c0.018-0.241,0.081-0.58,0.193-1.017c0.382-1.499,0.633-3.091,0.751-4.774c0.013-0.191,0.109-0.397,0.288-0.62
			c0.181-0.223,0.343-0.328,0.488-0.318c0.262,0.019,0.442,0.111,0.542,0.28c0.099,0.169,0.131,0.497,0.098,0.984
			c-0.036,0.508-0.26,1.543-0.672,3.105c-0.138,0.516-0.21,0.844-0.22,0.984c-0.006,0.081,0.012,0.122,0.052,0.125
			c0.075,0.005,0.467-0.571,1.174-1.729c0.714-1.178,1.324-1.999,1.832-2.464c0.507-0.464,1.044-0.677,1.612-0.637
			c0.452,0.031,0.806,0.263,1.062,0.695c0.255,0.432,0.41,1.197,0.464,2.298c0.054,1.252,0.127,2.033,0.219,2.345
			c0.093,0.313,0.262,0.477,0.508,0.494c0.156,0.011,0.356-0.03,0.6-0.124c0.042-0.018,0.073-0.025,0.093-0.024
			c0.216,0.016,0.315,0.148,0.298,0.399c-0.016,0.222-0.181,0.446-0.495,0.675c-0.313,0.228-0.678,0.327-1.096,0.298
			c-0.427-0.03-0.745-0.223-0.956-0.578c-0.21-0.355-0.332-1.275-0.363-2.757C97.228,41.356,96.983,40.596,96.53,40.565z"/>
		<path d="M104.8,39.325c0.521-0.004,1.012-0.018,1.473-0.041c0.457-0.019,0.836-0.018,1.137,0.004
			c0.382,0.026,0.62,0.078,0.716,0.155c0.096,0.078,0.138,0.205,0.126,0.381c-0.029,0.407-0.329,0.608-0.899,0.604
			c-0.731-0.006-1.408,0.011-2.025,0.048c-0.62,0.037-0.955,0.081-1.007,0.13c-0.05,0.05-0.244,0.638-0.58,1.764
			c-0.337,1.126-0.517,1.859-0.541,2.201c-0.038,0.553,0.008,0.926,0.141,1.12c0.134,0.193,0.346,0.3,0.637,0.32
			c0.433,0.03,1.057-0.252,1.871-0.847c0.314-0.245,0.554-0.362,0.714-0.352c0.217,0.016,0.315,0.139,0.3,0.37
			c-0.025,0.362-0.407,0.806-1.143,1.333c-0.736,0.526-1.47,0.765-2.198,0.714c-1.217-0.085-1.774-0.844-1.675-2.276
			c0.036-0.519,0.219-1.312,0.545-2.379c0.322-1.064,0.491-1.703,0.507-1.92c0.005-0.075-0.053-0.117-0.174-0.126l-0.789,0.013
			c-0.644-0.045-0.947-0.323-0.911-0.836c0.021-0.292,0.178-0.427,0.476-0.406l1.553,0.108c0.106,0.008,0.202-0.033,0.29-0.124
			c0.086-0.089,0.228-0.401,0.421-0.937c0.193-0.534,0.369-1.063,0.527-1.588c0.158-0.52,0.413-0.768,0.765-0.742
			c0.217,0.015,0.38,0.103,0.489,0.261c0.11,0.16,0.161,0.305,0.152,0.436c-0.006,0.07-0.121,0.424-0.348,1.06L104.8,39.325z"/>
		<path d="M110.628,47.756c-0.688-0.048-1.238-0.35-1.649-0.903c-0.41-0.554-0.59-1.216-0.536-1.984
			c0.091-1.298,0.616-2.545,1.577-3.743c0.96-1.198,2.048-1.755,3.265-1.67c0.805,0.056,1.436,0.411,1.892,1.064
			c0.457,0.653,0.656,1.407,0.597,2.262c-0.091,1.307-0.692,2.482-1.805,3.525C112.857,47.351,111.744,47.834,110.628,47.756z
			 M109.784,44.765c-0.035,0.508,0.042,0.93,0.233,1.266c0.191,0.338,0.463,0.518,0.814,0.542c0.748,0.053,1.529-0.306,2.342-1.075
			c0.812-0.769,1.252-1.656,1.322-2.661c0.043-0.618-0.067-1.13-0.328-1.535c-0.263-0.404-0.639-0.624-1.125-0.658
			c-0.81-0.056-1.539,0.392-2.189,1.344S109.848,43.865,109.784,44.765z"/>
		<path d="M121.037,46.371c0.022-0.327-0.354-0.728-1.129-1.201c-0.984-0.594-1.646-1.061-1.981-1.399
			c-0.338-0.34-0.494-0.703-0.467-1.09c0.07-1,0.63-1.795,1.679-2.383c1.049-0.589,1.891-0.86,2.523-0.816
			c0.407,0.028,0.698,0.119,0.871,0.272c0.174,0.153,0.249,0.404,0.225,0.751c-0.011,0.156-0.087,0.284-0.228,0.386
			c-0.142,0.102-0.249,0.149-0.325,0.144c-0.055-0.004-0.16-0.049-0.315-0.135c-0.157-0.082-0.261-0.124-0.312-0.128
			c-0.25-0.018-0.773,0.13-1.568,0.443c-0.794,0.313-1.208,0.701-1.24,1.163c-0.02,0.281,0.099,0.546,0.354,0.794
			c0.256,0.248,0.724,0.562,1.404,0.943c0.55,0.311,0.982,0.633,1.301,0.966c0.316,0.333,0.461,0.708,0.433,1.125
			c-0.054,0.77-0.627,1.334-1.718,1.695c-1.092,0.36-2.119,0.507-3.084,0.439c-0.814-0.058-1.203-0.362-1.164-0.915
			c0.014-0.19,0.115-0.325,0.305-0.403c0.19-0.078,0.378-0.11,0.563-0.098c0.076,0.006,0.218,0.041,0.425,0.106
			c0.203,0.064,0.336,0.1,0.401,0.104c0.559,0.039,1.163-0.012,1.814-0.153C120.455,46.84,120.866,46.636,121.037,46.371z"/>
		<path d="M125.276,46.311l0.166,0.011c0.091,0.007,0.195,0.059,0.315,0.155c0.119,0.097,0.175,0.221,0.164,0.371
			c-0.021,0.302-0.09,0.519-0.205,0.652s-0.296,0.277-0.542,0.432c-0.245,0.155-0.416,0.229-0.512,0.222
			c-0.211-0.015-0.364-0.073-0.457-0.176c-0.095-0.103-0.126-0.367-0.097-0.794c0.028-0.397,0.066-0.632,0.118-0.704
			c0.05-0.073,0.163-0.124,0.34-0.154C124.744,46.294,124.979,46.29,125.276,46.311z"/>
	</g>
	<g>
		<path fill="none" stroke="#000000" d="M10.713,0.508c0,0-7.295-0.51-7.807,6.786L0.508,41.617c0,0-0.512,7.295,6.785,7.804
			l139.453,9.753c0,0,7.297,0.51,7.807-6.785l2.4-34.324c0,0,0.51-7.295-6.785-7.806L10.713,0.508z"/>
	</g>
</g>
</svg>
