<?xml version="1.0" encoding="utf-8"?>
<!-- Generator: Adobe Illustrator 14.0.0, SVG Export Plug-In . SVG Version: 6.00 Build 43363)  -->
<!DOCTYPE svg PUBLIC "-//W3C//DTD SVG 1.1//EN" "http://www.w3.org/Graphics/SVG/1.1/DTD/svg11.dtd">
<svg version="1.1" id="Layer_1" xmlns="http://www.w3.org/2000/svg" xmlns:xlink="http://www.w3.org/1999/xlink" x="0px" y="0px"
	 width="625.922px" height="109.903px" viewBox="0 0 625.922 109.903" enable-background="new 0 0 625.922 109.903"
	 xml:space="preserve">
<g>
	<path fill="#FFFFFF" d="M10.885,0C10.885,0,0,0,0,10.885v88.133c0,0,0,10.885,10.885,10.885h604.152c0,0,10.885,0,10.885-10.885
		V10.885c0,0,0-10.885-10.885-10.885H10.885z"/>
	
		<line fill="none" stroke="#929497" stroke-width="1.5" stroke-linecap="round" stroke-linejoin="round" stroke-miterlimit="10" stroke-dasharray="0,4.478" x1="32.09" y1="30.381" x2="596.697" y2="30.381"/>
	<path fill="none" stroke="#929497" stroke-width="1.5" stroke-linecap="round" stroke-linejoin="round" stroke-miterlimit="10" d="
		M599.564,30.381L599.564,30.381 M26.357,30.381L26.357,30.381"/>
	
		<line fill="none" stroke="#929497" stroke-width="1.5" stroke-linecap="round" stroke-linejoin="round" stroke-miterlimit="10" stroke-dasharray="0,4.478" x1="32.09" y1="59.698" x2="596.697" y2="59.698"/>
	<path fill="none" stroke="#929497" stroke-width="1.5" stroke-linecap="round" stroke-linejoin="round" stroke-miterlimit="10" d="
		M599.564,59.698L599.564,59.698 M26.357,59.698L26.357,59.698"/>
	
		<line fill="none" stroke="#929497" stroke-width="1.5" stroke-linecap="round" stroke-linejoin="round" stroke-miterlimit="10" stroke-dasharray="0,4.478" x1="32.09" y1="89.015" x2="596.697" y2="89.015"/>
	<path fill="none" stroke="#929497" stroke-width="1.5" stroke-linecap="round" stroke-linejoin="round" stroke-miterlimit="10" d="
		M599.564,89.015L599.564,89.015 M26.357,89.015L26.357,89.015"/>
</g>
</svg>
