<svg xmlns="http://www.w3.org/2000/svg" xmlns:xlink="http://www.w3.org/1999/xlink" viewBox="0 0 47.56 72.23"><defs><style>.cls-1{fill:none;}.cls-2{isolation:isolate;}.cls-3{opacity:0.57;mix-blend-mode:multiply;}.cls-4{clip-path:url(#clip-path);}.cls-5{fill:#dac2df;}.cls-6{fill:#3c383d;}.cls-7{fill:#dd1d26;}.cls-8{fill:#e3344e;}</style><clipPath id="clip-path" transform="translate(-17.35)"><rect class="cls-1" y="33.03" width="73.66" height="41.29"/></clipPath></defs><g class="cls-2"><g id="Capa_1" data-name="Capa 1"><g class="cls-3"><g class="cls-4"><path class="cls-5" d="M35.46,54.44c-2.94,1.74-4.13,3.82-3.41,5.39A6.17,6.17,0,0,1,30.79,61a19.41,19.41,0,0,1-5.39,2.64h0a21.89,21.89,0,0,0-5,2.11l-.05,0c-3.47,2-4,4.68-1.27,5.88s7.73.52,11.2-1.48h0s3.72-2.07,5-5.11h0a6.64,6.64,0,0,1,4-2.93,19.69,19.69,0,0,0,8-2.49c4.15-2.45,4.83-5.6,1.51-7l-.18-.07c3-2.29,7-5.42,7.59-6.1a65.05,65.05,0,0,0-8.68,5.43l-.36.26a18.65,18.65,0,0,0-11.88,2.32" transform="translate(-17.35)"/></g></g><path class="cls-6" d="M51.8,31.43s3.47,13.19,4.54,14.9c0,0,.71-2.61-.7-10.3S51,29.77,51.8,31.43" transform="translate(-17.35)"/><path class="cls-7" d="M59.88,7.13c0-4-4.69-7.18-10.39-7.13S39.18,3.32,39.22,7.31s4.69,7.18,10.39,7.13,10.31-3.32,10.27-7.31" transform="translate(-17.35)"/><path class="cls-7" d="M61.38,22.24c-1.11-1.24-3.47-1.61-4.18-4.67A7.31,7.31,0,0,1,58.26,12h0a7.54,7.54,0,0,0,1.61-5.44c-.48-3.59-20.61.64-20.61.64s-.22,4.13,4.37,8.14h-.05c2.47,2.35,1.83,4.29.93,5.59-.3.37-.63.76-.95,1.19l-.11.13a6.17,6.17,0,0,0-.49.73,8.59,8.59,0,0,0-1,2.12l0,.09h0a1.55,1.55,0,0,0-.07.23A5.8,5.8,0,0,0,41.64,27c0,4.24,5,7.64,11.06,7.59s11-3.54,10.93-7.78a6.28,6.28,0,0,0-2.25-4.6" transform="translate(-17.35)"/><path class="cls-8" d="M59,6C59,2.83,54.72.29,49.45.33S39.94,3,40,6.18s4.32,5.73,9.59,5.68S59.07,9.2,59,6" transform="translate(-17.35)"/><path class="cls-7" d="M64.91,27.1c0-4.76-5.61-8.58-12.43-8.52s-12.31,4-12.27,8.74,5.6,8.58,12.43,8.52,12.31-4,12.27-8.74" transform="translate(-17.35)"/><path class="cls-8" d="M43.07,25.79s-1.88,2.85-.69,5.12,6.5,4.32,11.13,4,11.24-3.55,10.39-8.16-3.61-5.51-5.65-6.17-2.39-5.47-1.37-7.63a7.22,7.22,0,0,0,1-2.9s-4.65,4.35-13.79,1.66a3.73,3.73,0,0,0,.08,2.64c.63,1,7.47,1.23,11-.16,0,0-1.06,5.31,2,6.77a3.76,3.76,0,0,1,0,6.77c-5.43,2.71-12.56,1.41-14.13-1.91" transform="translate(-17.35)"/></g></g></svg>