<svg xmlns="http://www.w3.org/2000/svg" viewBox="0 0 438 579"><defs><style>.cls-1{fill:#938bbd;}</style></defs><g id="Layer_1" data-name="Layer 1"><path class="cls-1" d="M286.56,444.42a.57.57,0,0,1-.27-.06.72.72,0,0,1-.41-.9c.41-1.09.89-2.4,1.37-3.77a.72.72,0,0,1,.89-.41.71.71,0,0,1,.41.89c-.48,1.44-1,2.68-1.37,3.84a.59.59,0,0,1-.62.41Zm2.27-6.3a.26.26,0,0,1-.21-.07.69.69,0,0,1-.41-.89c.41-1.24.82-2.47,1.3-3.84a.69.69,0,0,1,.89-.41.67.67,0,0,1,.41.89c-.41,1.37-.89,2.67-1.3,3.84a.84.84,0,0,1-.68.48Zm2.05-6.45h-.2a.77.77,0,0,1-.48-.89c.41-1.23.75-2.53,1.16-3.84a.67.67,0,1,1,1.3.35c-.41,1.37-.82,2.6-1.16,3.9,0,.35-.27.48-.62.48Zm1.92-6.44h-.2a.7.7,0,0,1-.48-.82c.34-1.31.68-2.54,1.09-3.91A.71.71,0,0,1,294,420a.66.66,0,0,1,.48.82c-.35,1.3-.69,2.68-1.1,3.91a.56.56,0,0,1-.62.48Zm1.78-6.51h-.13a.65.65,0,0,1-.48-.83c.34-1.3.61-2.6,1-3.9a.67.67,0,1,1,1.3.34c-.34,1.37-.62,2.67-1,4a.91.91,0,0,1-.69.42Zm1.58-6.52H296a.74.74,0,0,1-.54-.82c.27-1.3.54-2.6.82-4a.7.7,0,0,1,1.37.28c-.27,1.37-.55,2.67-.82,4a.78.78,0,0,1-.69.54Zm1.3-6.58h-.13a.7.7,0,0,1-.55-.82c.27-1.3.48-2.67.68-4a.66.66,0,0,1,1.31.21c-.21,1.3-.42,2.67-.69,4a.61.61,0,0,1-.62.61Zm1.1-6.65h-.07a.68.68,0,0,1-.55-.75c.21-1.37.35-2.68.55-4a.8.8,0,0,1,.76-.61.79.79,0,0,1,.61.75c-.13,1.3-.34,2.67-.55,4a.89.89,0,0,1-.75.55Zm.82-6.72h0a.73.73,0,0,1-.68-.75c.13-1.37.27-2.67.34-4a.69.69,0,1,1,1.37.13c-.07,1.31-.2,2.68-.34,4.05a.72.72,0,0,1-.69.61Zm.48-6.71h0a.69.69,0,0,1-.68-.69c.07-1.37.07-2.74.13-4a.74.74,0,0,1,.69-.69h0a.69.69,0,0,1,.69.69c0,1.3-.07,2.67-.14,4a.69.69,0,0,1-.69.69Zm.07-6.72a.69.69,0,0,1-.68-.69,39,39,0,0,0-.21-4,.75.75,0,0,1,.62-.76.81.81,0,0,1,.75.62q.1,1.95.21,4.11a.71.71,0,0,1-.69.76Zm-.34-6.72a.73.73,0,0,1-.69-.62c-.13-1.37-.27-2.67-.48-4a.66.66,0,1,1,1.31-.21c.2,1.3.41,2.67.54,4.05a.67.67,0,0,1-.61.75Zm-1-6.65a.68.68,0,0,1-.69-.55c-.27-1.3-.54-2.67-.89-3.91a.68.68,0,0,1,1.31-.34c.34,1.3.68,2.61,1,4a.7.7,0,0,1-.55.82Zm-1.71-6.51a.66.66,0,0,1-.62-.48,29.17,29.17,0,0,0-1.44-3.71.67.67,0,1,1,1.23-.54,35.25,35.25,0,0,1,1.44,3.84.7.7,0,0,1-.41.89Zm-2.61-6.17a.73.73,0,0,1-.62-.35c-.61-1.16-1.3-2.33-2-3.42a.69.69,0,1,1,1.16-.76,29.65,29.65,0,0,1,2.06,3.57.61.61,0,0,1-.28.89c-.13,0-.2.07-.34.07Zm-3.63-5.69a.62.62,0,0,1-.55-.28,35.43,35.43,0,0,0-2.61-2.95.68.68,0,0,1,1-1,37.38,37.38,0,0,1,2.75,3.08.68.68,0,0,1-.14,1,.58.58,0,0,1-.41.14ZM286,342.21a.75.75,0,0,1-.42-.14,33.67,33.67,0,0,0-3.15-2.33.68.68,0,0,1-.21-1,.67.67,0,0,1,1-.2,27.89,27.89,0,0,1,3.29,2.46.66.66,0,0,1,.07,1,1.06,1.06,0,0,1-.54.21Zm-5.56-3.77a.61.61,0,0,1-.34-.07c-1.17-.62-2.33-1.16-3.57-1.71a.68.68,0,0,1,.55-1.24,29.46,29.46,0,0,1,3.7,1.79.68.68,0,0,1,.28,1,1,1,0,0,1-.62.28Zm-6.17-2.67a.24.24,0,0,1-.2-.07c-1.24-.41-2.54-.76-3.84-1.1a.67.67,0,0,1,.34-1.3c1.37.34,2.67.68,4,1.09a.7.7,0,0,1,.41.9.84.84,0,0,1-.69.48Zm-6.51-1.65h-.14c-1.3-.21-2.6-.41-4-.55a.8.8,0,0,1-.62-.75.74.74,0,0,1,.75-.62c1.37.14,2.75.34,4.05.55a.71.71,0,0,1,.55.82.57.57,0,0,1-.62.55Zm-6.65-.82h0c-1.37-.07-2.67-.14-4-.14a.69.69,0,1,1,0-1.37h0c1.37,0,2.74.07,4.11.14a.62.62,0,0,1,.62.75.74.74,0,0,1-.69.62Z"/><path class="cls-1" d="M178.84,293.24l-1.42-.06a.57.57,0,0,1-.54-.59.55.55,0,0,1,.6-.54h0l1.42.06,2,.08h0a.52.52,0,0,1,.53.58.55.55,0,0,1-.6.55l-2-.08Zm-3.69-.15h0c-1.13,0-2.27-.09-3.4-.2a.54.54,0,0,1-.53-.58.59.59,0,0,1,.6-.55c1.13.05,2.27.1,3.4.2a.55.55,0,0,1,.53.59.59.59,0,0,1-.6.54Zm7.88.31a.56.56,0,1,1,.07-1.12c1.13,0,2.26.09,3.4.08a.52.52,0,0,1,.53.58.54.54,0,0,1-.59.55c-1.14-.05-2.27-.1-3.41-.09Zm5.68.12a.57.57,0,1,1,.06-1.13c1.13.05,2.27,0,3.41.08a.53.53,0,0,1,.53.59.54.54,0,0,1-.6.54c-1.14,0-2.27,0-3.4-.08Zm-19.16-.77h0c-1.14-.05-2.27-.15-3.4-.2a.56.56,0,0,1-.54-.58.57.57,0,0,1,.6-.54c1.13.1,2.27.14,3.4.19a.56.56,0,0,1,.54.59.59.59,0,0,1-.6.54Zm24.77.88a.56.56,0,1,1,.07-1.12c1.13,0,2.27,0,3.41,0a.52.52,0,0,1,.53.59.55.55,0,0,1-.6.54c-1.14,0-2.27,0-3.41,0Zm-30.38-1.22h0c-1.13-.1-2.26-.15-3.39-.25a.57.57,0,0,1-.54-.59.58.58,0,0,1,.6-.54c1.13.1,2.26.2,3.4.25a.55.55,0,0,1,.53.59.63.63,0,0,1-.6.54ZM200,293.69a.56.56,0,1,1,.07-1.12c1.13,0,2.27,0,3.41,0a.52.52,0,0,1,.53.59.55.55,0,0,1-.6.54c-1.14,0-2.27,0-3.41,0ZM158.29,292h0l-3.4-.3a.5.5,0,0,1-.47-.64.53.53,0,0,1,.65-.49l3.39.31a.57.57,0,0,1,.54.59.72.72,0,0,1-.71.53Zm47.33,1.8a.57.57,0,0,1,.07-1.13c1.14,0,2.27,0,3.41,0a.57.57,0,0,1-.07,1.13c-1.13,0-2.27,0-3.41,0Zm-52.93-2.36h0c-1.18-.11-2.31-.26-3.38-.36a.51.51,0,0,1-.48-.65.52.52,0,0,1,.65-.48c1.13.1,2.2.26,3.34.36a.5.5,0,0,1,.47.64.57.57,0,0,1-.6.49Zm58.56,2.36a.56.56,0,0,1-.54-.59.55.55,0,0,1,.6-.54l3.36,0a.56.56,0,0,1,.53.59.54.54,0,0,1-.54.54l-3.41,0Zm5.63-.05a.55.55,0,0,1-.54-.53.54.54,0,0,1,.54-.55l3.41,0a.65.65,0,0,1,.6.53.62.62,0,0,1-.55.6c-1.19-.05-2.33,0-3.46,0Zm-69.78-2.93h0c-1.18-.16-2.31-.32-3.38-.42a.56.56,0,0,1-.47-.64.54.54,0,0,1,.65-.49c1.13.16,2.2.32,3.33.42a.53.53,0,0,1,.47.64.58.58,0,0,1-.6.49Zm75.4,2.87a.54.54,0,0,1-.53-.53.62.62,0,0,1,.54-.6l3.41,0a.65.65,0,0,1,.6.53.62.62,0,0,1-.55.6l-3.47,0Zm5.64-.11a.54.54,0,0,1-.54-.53.62.62,0,0,1,.54-.6l3.42-.09a.6.6,0,0,1,.59.53.62.62,0,0,1-.54.6l-3.47.09ZM141.52,290h-.05c-1.13-.16-2.26-.32-3.33-.53a.64.64,0,0,1-.47-.64.67.67,0,0,1,.65-.48c1.13.16,2.2.37,3.32.53a.66.66,0,0,1,.48.64.61.61,0,0,1-.6.48Zm92.3,3.39a.54.54,0,0,1-.53-.53.62.62,0,0,1,.54-.6l3.42-.09a.65.65,0,0,1,.59.53.62.62,0,0,1-.55.6l-3.47.09Zm5.64-.11a.54.54,0,0,1-.54-.53.62.62,0,0,1,.54-.6l3.42-.09a.65.65,0,0,1,.59.53.62.62,0,0,1-.54.6l-3.47.09ZM136,289.13h-.06c-1.12-.22-2.25-.38-3.32-.59a.54.54,0,0,1-.41-.64.57.57,0,0,1,.65-.42c1.06.21,2.19.42,3.31.58a.65.65,0,0,1,.48.64.7.7,0,0,1-.65.43Zm109.14,4.06a.54.54,0,0,1-.54-.53.64.64,0,0,1,.55-.6l3.41-.08a.59.59,0,0,1,.59.53.63.63,0,0,1-.54.6l-3.47.08Zm5.63-.16a.56.56,0,0,1-.54-.53.62.62,0,0,1,.55-.6l3.41-.09a.61.61,0,0,1,.6.53.63.63,0,0,1-.55.6l-3.47.09Zm-120.28-4.91h-.11c-1.13-.21-2.25-.48-3.32-.7a.57.57,0,0,1-.41-.69.6.6,0,0,1,.71-.43c1.06.27,2.18.49,3.31.7a.56.56,0,0,1,.42.64.64.64,0,0,1-.6.49Zm-5.5-1.24h-.11c-1.12-.27-2.24-.54-3.3-.87a.52.52,0,0,1-.36-.69.55.55,0,0,1,.7-.37c1.07.27,2.13.6,3.25.87a.57.57,0,0,1,.41.69.64.64,0,0,1-.59.38Zm-5.36-1.52h-.12c-1.11-.32-2.17-.65-3.23-1a.6.6,0,0,1-.36-.69.62.62,0,0,1,.7-.37c1,.32,2.12.71,3.18,1a.53.53,0,0,1,.36.69.55.55,0,0,1-.53.38Zm-5.36-1.74h-.17c-1.11-.38-2.17-.82-3.16-1.26a.58.58,0,0,1-.3-.75.62.62,0,0,1,.76-.31c1,.44,2.05.82,3.11,1.2a.59.59,0,0,1-.24,1.13Zm-5.16-2.13s-.17,0-.22-.07c-1-.49-2.1-1-3-1.54a.55.55,0,0,1-.24-.74.56.56,0,0,1,.75-.25c.94.49,1.94,1,3,1.47a.52.52,0,0,1,.24.75.45.45,0,0,1-.48.38Zm-5-2.58a.47.47,0,0,1-.28-.07A33.4,33.4,0,0,1,101,277a.54.54,0,0,1-.12-.79.56.56,0,0,1,.8-.14c.87.6,1.8,1.26,2.74,1.81a.57.57,0,0,1,.18.8.52.52,0,0,1-.47.26Zm-4.53-3.24a.74.74,0,0,1-.33-.12,25.54,25.54,0,0,1-2.48-2.36.54.54,0,0,1,0-.79.55.55,0,0,1,.8,0,22.18,22.18,0,0,0,2.37,2.24.62.62,0,0,1,.07.8.54.54,0,0,1-.47.2Zm-3.86-4a.49.49,0,0,1-.44-.24,21.86,21.86,0,0,1-1.82-2.9.59.59,0,0,1,1-.53,19.77,19.77,0,0,0,1.72,2.73.56.56,0,0,1-.1.79.71.71,0,0,1-.41.15ZM93,266.87a.5.5,0,0,1-.49-.36,22.14,22.14,0,0,1-.89-3.31.58.58,0,0,1,.5-.66.56.56,0,0,1,.65.48,15.66,15.66,0,0,0,.84,3.14.56.56,0,0,1-.32.72.47.47,0,0,0-.29,0Zm-1.1-5.47a.59.59,0,0,1-.54-.53c0-.68,0-1.42,0-2.15a11.45,11.45,0,0,1,.13-1.3.52.52,0,0,1,.66-.48.5.5,0,0,1,.47.64c0,.4-.11.85-.13,1.24,0,.68,0,1.36,0,2a.56.56,0,0,1-.55.6l0-.06Zm.49-5.58h-.11a.54.54,0,0,1-.42-.63,24.15,24.15,0,0,1,.93-3.3.55.55,0,0,1,.7-.37.57.57,0,0,1,.36.69c-.35,1.06-.64,2.18-.87,3.19a.6.6,0,0,1-.59.43Zm1.67-5.36a.19.19,0,0,1-.16-.07.55.55,0,0,1-.3-.74c.4-1,.91-2.06,1.43-3.11a.56.56,0,0,1,.75-.25.54.54,0,0,1,.24.74c-.51,1.05-1,2.05-1.37,3.06a.69.69,0,0,1-.59.37Zm2.45-5.05a.37.37,0,0,1-.22-.06.56.56,0,0,1-.24-.75c.57-.94,1.13-1.93,1.76-2.93a.65.65,0,0,1,.81-.19.62.62,0,0,1,.18.8c-.63,1-1.19,1.93-1.76,2.87a.61.61,0,0,1-.53.26Zm2.66-5c-.11,0-.22,0-.26-.1a.55.55,0,0,1,0-.81c.79-.84,1.63-1.68,2.53-2.5a.57.57,0,0,1,.82,0,.54.54,0,0,1,0,.8c-.85.83-1.68,1.61-2.46,2.46a.85.85,0,0,1-.63.18Z"/><path class="cls-1" d="M380.48,178.88a.91.91,0,0,1-.7-.31,23.1,23.1,0,0,0-2.48-3,.52.52,0,0,1,.07-.87.88.88,0,0,1,1.09.06,18.12,18.12,0,0,1,2.65,3.23.5.5,0,0,1-.32.8.39.39,0,0,1-.31.13Zm-4.74-5a.91.91,0,0,1-.54-.19,26.56,26.56,0,0,0-3.58-2.23.55.55,0,0,1-.23-.87.89.89,0,0,1,1.09-.19,40.92,40.92,0,0,1,3.81,2.36.52.52,0,0,1,0,.87c-.08.19-.31.25-.55.25Zm-219.19-1.74h-2.41a.71.71,0,0,1-.78-.62.72.72,0,0,1,.78-.62h4.66a.72.72,0,0,1,.78.62c0,.37-.31.62-.78.62Zm5.36-.06a.72.72,0,0,1-.78-.62c0-.37.31-.62.78-.62,1.55,0,3.11-.06,4.66-.06a.71.71,0,0,1,.78.62c0,.37-.31.62-.78.62-1.47.06-3.11.06-4.66.06Zm-11,0h0c-1.63,0-3.19-.06-4.74-.12a.64.64,0,1,1,0-1.25c1.55.07,3.11.07,4.66.13a.71.71,0,0,1,.78.62c.08.37-.31.62-.7.62Zm18.81-.12a.72.72,0,0,1-.78-.63c0-.37.31-.62.78-.62,1.55-.06,3.11-.12,4.66-.12.47,0,.78.25.78.62s-.31.62-.78.62c-1.47,0-3,.06-4.66.13Zm-26.66-.07h0c-1.63-.06-3.27-.18-4.74-.25-.39,0-.78-.31-.7-.68s.39-.62.85-.56c1.48.13,3.11.19,4.67.25.46,0,.77.31.7.68a.79.79,0,0,1-.78.56Zm34.51-.25c-.39,0-.78-.24-.78-.55a.65.65,0,0,1,.7-.63l4.67-.18a.89.89,0,0,1,.85.56.73.73,0,0,1-.7.68c-1.55,0-3.11.06-4.74.12Zm-42.36-.24h-.08c-1.63-.13-3.19-.31-4.66-.44a.78.78,0,0,1-.7-.68.87.87,0,0,1,.85-.56c1.48.19,3,.31,4.66.43.39.07.78.31.7.69a.77.77,0,0,1-.77.56Zm50.21-.13c-.39,0-.78-.25-.78-.56a.73.73,0,0,1,.7-.68c1.56-.06,3.11-.19,4.67-.25a.82.82,0,0,1,.85.56.73.73,0,0,1-.7.68c-1.55.13-3.11.19-4.74.25Zm7.85-.43c-.39,0-.78-.25-.78-.56a.73.73,0,0,1,.7-.68c1.56-.07,3.11-.19,4.67-.32a.82.82,0,0,1,.85.56.8.8,0,0,1-.7.69c-1.55.12-3.11.25-4.74.31Zm-65.84-.25h-.15c-1.63-.19-3.19-.44-4.66-.68a.72.72,0,0,1-.63-.75.89.89,0,0,1,.94-.5c1.47.25,3,.5,4.58.69.39.06.7.37.62.68s-.38.56-.7.56Zm73.69-.19c-.39,0-.78-.25-.78-.56a.79.79,0,0,1,.7-.68c1.56-.12,3.11-.19,4.67-.31a.8.8,0,0,1,.85.56.78.78,0,0,1-.7.68c-1.55.06-3.11.19-4.74.31Zm168.21-.18a.77.77,0,0,1-.39-.07c-1.32-.55-2.72-1.11-4.2-1.61-.39-.12-.62-.5-.39-.81a.8.8,0,0,1,1-.31,43,43,0,0,1,4.36,1.68.57.57,0,0,1,.31.87,1.15,1.15,0,0,1-.7.25ZM209,169.87a.76.76,0,0,1-.77-.56.73.73,0,0,1,.69-.68c1.56-.12,3.11-.25,4.67-.31a.8.8,0,0,1,.85.56c.08.31-.31.62-.7.68-1.55.07-3.11.19-4.74.31Zm-89.23-.56h-.23c-1.64-.31-3.11-.68-4.59-1.11-.39-.13-.62-.44-.47-.81a.84.84,0,0,1,1-.37c1.4.37,2.88.74,4.43,1,.39.06.7.44.55.75a.7.7,0,0,1-.7.49Zm97.08,0a.76.76,0,0,1-.77-.55c-.08-.31.31-.63.7-.69l4.66-.37a.8.8,0,0,1,.85.56c.08.31-.31.62-.7.68l-4.74.37Zm7.78-.62a.78.78,0,0,1-.78-.56c-.08-.31.31-.62.7-.68l4.66-.37a.76.76,0,0,1,.86.56c.08.31-.24.62-.7.68l-4.74.37Zm7.85-.56a.78.78,0,0,1-.78-.55c-.08-.31.23-.63.7-.69l4.66-.37a.72.72,0,0,1,.86.56c.08.31-.24.62-.7.68l-4.74.37Zm129.73-.37a.36.36,0,0,1-.24-.06c-1.39-.37-2.87-.75-4.43-1.12a.64.64,0,0,1-.54-.74c.08-.31.54-.5.93-.44,1.56.37,3.11.75,4.59,1.12a.61.61,0,0,1,.46.81.93.93,0,0,1-.77.43Zm-121.88-.25a.78.78,0,0,1-.78-.56c-.08-.31.31-.62.7-.68l4.66-.37a.82.82,0,0,1,.86.56c.08.31-.23.62-.7.68l-4.74.37Zm-128-.18a.56.56,0,0,1-.31-.06,43,43,0,0,1-4.36-1.68c-.39-.19-.54-.56-.31-.87a.9.9,0,0,1,1.09-.25c1.24.56,2.64,1.12,4.12,1.62.39.12.62.49.39.8a.57.57,0,0,1-.62.44Zm135.87-.44a.79.79,0,0,1-.78-.56c-.08-.31.31-.62.7-.68l4.66-.37a.77.77,0,0,1,.86.56c.08.31-.31.62-.7.68l-4.74.37Zm7.77-.56a.78.78,0,0,1-.78-.56c-.07-.31.31-.62.7-.68,1.56-.12,3.11-.25,4.67-.31a.88.88,0,0,1,.85.56.78.78,0,0,1-.7.68c-1.55.07-3.11.19-4.74.31Zm98.72-.31h-.16c-1.47-.25-3-.49-4.58-.74a.68.68,0,0,1-.63-.75.81.81,0,0,1,.94-.49c1.63.24,3.18.49,4.66.74a.7.7,0,0,1,.62.75,1.09,1.09,0,0,1-.85.49Zm-90.87-.25a.78.78,0,0,1-.78-.55.8.8,0,0,1,.7-.69c1.56-.12,3.11-.25,4.67-.31a.87.87,0,0,1,.85.56.78.78,0,0,1-.7.68c-1.55.07-3.11.19-4.74.31Zm7.85-.55c-.39,0-.77-.25-.77-.56a.8.8,0,0,1,.69-.69c1.56-.12,3.11-.18,4.67-.31a.87.87,0,0,1,.85.56.8.8,0,0,1-.7.69c-1.55.12-3.11.18-4.74.31Zm75.24-.38h-.07c-1.48-.18-3-.37-4.67-.49a.8.8,0,0,1-.7-.69.9.9,0,0,1,.86-.56c1.63.13,3.19.31,4.66.5.39.06.7.37.62.68s-.31.56-.7.56Zm-67.46-.12c-.39,0-.78-.25-.78-.56a.73.73,0,0,1,.7-.68c1.55-.13,3.11-.19,4.66-.25a.9.9,0,0,1,.86.56.73.73,0,0,1-.7.68c-1.56.06-3.11.19-4.74.25Zm-174-.37a1.38,1.38,0,0,1-.47-.13,19.89,19.89,0,0,1-3.65-2.48.52.52,0,0,1,0-.87.89.89,0,0,1,1.09,0,26,26,0,0,0,3.5,2.36.5.5,0,0,1,.15.87.79.79,0,0,1-.62.25Zm181.89-.07c-.39,0-.78-.24-.78-.55a.74.74,0,0,1,.7-.69c1.55-.06,3.11-.18,4.74-.25a.9.9,0,0,1,.86.56.75.75,0,0,1-.7.69c-1.64.06-3.19.18-4.82.24Zm51.84-.18h0c-1.55-.13-3.19-.25-4.74-.31-.47,0-.78-.31-.7-.69s.39-.62.86-.56c1.63.07,3.18.19,4.74.32.39.06.77.31.7.68a1,1,0,0,1-.86.56Zm-44-.19c-.39,0-.78-.25-.78-.56a.73.73,0,0,1,.7-.68l4.74-.19a.72.72,0,0,1,.78.62c0,.38-.31.63-.78.63l-4.66.18Zm36.14-.25h0c-1.55-.06-3.11-.12-4.74-.12a.64.64,0,1,1,0-1.24c1.63.06,3.19.06,4.74.18.47,0,.78.31.7.69.08.24-.31.49-.7.49Zm-28.29,0a.72.72,0,0,1-.78-.62c0-.37.31-.62.78-.62,1.55-.06,3.18-.06,4.74-.12a.71.71,0,0,1,.78.62c0,.37-.31.62-.78.62-1.56,0-3.11.06-4.74.12Zm7.85-.18a.72.72,0,0,1-.78-.62c0-.38.31-.63.78-.63,1.55,0,3.19-.06,4.74-.06h0a.72.72,0,0,1,.78.62c0,.38-.31.62-.78.62-1.55,0-3.11,0-4.74.07Zm12.59-.07h0c-1.55,0-3.11-.06-4.74-.06a.71.71,0,0,1-.78-.62c0-.37.31-.62.78-.62,1.55,0,3.19,0,4.74.06a.64.64,0,1,1,0,1.24ZM99.8,160a.77.77,0,0,1-.62-.25,17.69,17.69,0,0,1-2.33-3.42c-.16-.31,0-.68.47-.8a.81.81,0,0,1,1,.37,12.69,12.69,0,0,0,2.17,3.17.57.57,0,0,1-.15.87,2,2,0,0,1-.55.06Zm-3.18-5.65a.75.75,0,0,1-.78-.5,15.56,15.56,0,0,1-.55-3.85c0-.37.32-.62.78-.62a.72.72,0,0,1,.78.62,13.68,13.68,0,0,0,.54,3.6.65.65,0,0,1-.62.75Zm-.47-6.28h0a.71.71,0,0,1-.78-.68,36.75,36.75,0,0,1,.7-3.79.86.86,0,0,1,.93-.49.67.67,0,0,1,.63.74,31.9,31.9,0,0,0-.7,3.67c0,.31-.31.55-.78.55Zm1.48-6.14h-.24c-.39-.13-.62-.44-.54-.75.39-1.18.93-2.36,1.48-3.6a.87.87,0,0,1,1-.37.61.61,0,0,1,.46.8,33.17,33.17,0,0,0-1.47,3.54c0,.19-.32.38-.7.38Z"/><path class="cls-1" d="M106.17,120.51a.57.57,0,0,1-.46-.31,1.05,1.05,0,0,1,.1-1.25,29.59,29.59,0,0,1,3.55-3.29.64.64,0,0,1,1,.26,1.17,1.17,0,0,1-.25,1.23,27.69,27.69,0,0,0-3.39,3.13.67.67,0,0,1-.51.23Zm5.93-5.07a.64.64,0,0,1-.52-.49,1,1,0,0,1,.31-1.23c1.18-.8,2.5-1.59,3.89-2.37a.56.56,0,0,1,.87.43.89.89,0,0,1-.37,1.13,34.92,34.92,0,0,0-3.81,2.29c-.16.26-.23.25-.37.24Zm6.5-3.68c-.27,0-.47-.22-.57-.58a1,1,0,0,1,.44-1.13c1.3-.61,2.68-1.22,4-1.82.36-.15.76.15.86.61a1,1,0,0,1-.51,1.12c-1.38.61-2.75,1.12-4,1.74a.35.35,0,0,1-.29.06Zm6.79-2.85a.71.71,0,0,1-.57-.67,1,1,0,0,1,.51-1.12c1.3-.52,2.73-.94,4.16-1.36.36-.15.75.15.84.69a1,1,0,0,1-.58,1.12c-1.42.42-2.79.94-4.08,1.37l-.28,0Zm6.87-2.21c-.27,0-.53-.31-.64-.68a.83.83,0,0,1,.58-1c1.35-.33,2.71-.76,4.2-1.08a.72.72,0,0,1,.78.69c0,.45-.22,1-.57,1-1.43.33-2.85.75-4.14,1.09l-.21,0Zm7-1.75a.79.79,0,0,1-.63-.77c0-.45.22-1,.57-1,1.35-.34,2.77-.58,4.19-.91.35-.06.74.24.77.78s-.22,1-.64,1c-1.42.24-2.84.57-4.19.9Zm7-1.48a.74.74,0,0,1-.63-.77c0-.45.22-1,.64-1,1.42-.24,2.76-.48,4.24-.72.36-.06.75.24.77.78s-.21,1-.64,1c-1.41.25-2.83.49-4.17.74l-.21,0Zm7-1.13a.74.74,0,0,1-.64-.77,1,1,0,0,1,.64-1c1.42-.24,2.82-.39,4.24-.64.35-.06.74.33.77.79a1,1,0,0,1-.64,1c-1.41.15-2.82.39-4.24.63Zm7.05-1a.73.73,0,0,1-.63-.77c0-.45.29-1,.63-.93,1.41-.15,2.81-.31,4.23-.55a.7.7,0,0,1,.7.78c0,.45-.29,1-.63.93-1.41.15-2.82.31-4.23.55Zm7-.76c-.34,0-.59-.41-.62-.86s.29-1,.63-.93l4.22-.46c.35-.06.74.33.7.86s-.29,1-.71.93l-4.22.46Zm7-.67c-.35,0-.6-.41-.63-.86a.86.86,0,0,1,.71-.93c1.4-.15,2.8-.22,4.21-.37.35-.06.67.32.69.86a.86.86,0,0,1-.7.93c-1.41.16-2.81.22-4.21.37Zm7-.59c-.34,0-.59-.41-.62-.86a.87.87,0,0,1,.7-.93c1.4-.06,2.81-.21,4.21-.28.42,0,.67.33.69.87a.86.86,0,0,1-.7.93c-1.4.06-2.81.21-4.21.28Zm7.08-.49c-.34,0-.59-.41-.62-.86a.87.87,0,0,1,.7-.93c1.4-.06,2.8-.12,4.21-.28.42,0,.67.33.69.87a.87.87,0,0,1-.7.93c-1.4.06-2.8.12-4.21.28Zm7-.41c-.35,0-.6-.4-.63-.85a.86.86,0,0,1,.71-.93l4.19-.19c.43-.06.67.32.7.86a.86.86,0,0,1-.71.93l-4.19.19Zm7.06-.31c-.34,0-.59-.41-.62-.86a.85.85,0,0,1,.7-.92l4.2-.2c.35-.06.66.42.69.87a.94.94,0,0,1-.7.93c-1.4.06-2.8.13-4.27.18Zm7.06-.22c-.35,0-.59-.41-.63-.86a.94.94,0,0,1,.71-.93c1.4-.06,2.8-.12,4.19-.1a.84.84,0,0,1,.69.87.93.93,0,0,1-.7.92c-1.39,0-2.79,0-4.26.1Zm7.06-.22c-.35,0-.6-.41-.63-.86a1,1,0,0,1,.7-.93c1.4-.06,2.8,0,4.19-.1a.83.83,0,0,1,.7.86,1,1,0,0,1-.7.93c-1.4,0-2.86,0-4.26.1Zm7-.23a.78.78,0,0,1-.62-.86,1,1,0,0,1,.7-.93c1.4-.06,2.79,0,4.19-.1a.83.83,0,0,1,.7.87,1,1,0,0,1-.71.92c-1.4.07-2.79,0-4.26.1Zm7.05-.13a.78.78,0,0,1-.62-.86.93.93,0,0,1,.7-.93l4.26-.1a.85.85,0,0,1,.7.87,1,1,0,0,1-.71.93l-4.33.09Zm7-.14a.78.78,0,0,1-.62-.86,1,1,0,0,1,.7-.93l4.19-.1a.9.9,0,0,1,.7.87,1,1,0,0,1-.71.93l-4.26.09Zm7.05-.13a.78.78,0,0,1-.62-.86,1,1,0,0,1,.7-.93l4.19-.1a.89.89,0,0,1,.7.86.94.94,0,0,1-.71.93l-4.26.1Zm7.05-.14a.77.77,0,0,1-.62-.85.93.93,0,0,1,.7-.93l4.19-.1a.88.88,0,0,1,.7.86,1,1,0,0,1-.71.93l-4.26.09Zm7-.13a.78.78,0,0,1-.62-.86A1,1,0,0,1,259,95l4.19-.1a.9.9,0,0,1,.7.87,1,1,0,0,1-.71.93l-4.26.09Zm7-.14a.78.78,0,0,1-.63-.86.94.94,0,0,1,.7-.93l4.19-.1a.84.84,0,0,1,.7.87,1,1,0,0,1-.71.93l-4.25.09Zm7.05-.22a.78.78,0,0,1-.62-.86,1,1,0,0,1,.7-.93c1.4-.06,2.79,0,4.19-.1a.9.9,0,0,1,.7.87,1,1,0,0,1-.71.92c-1.33.07-2.8.13-4.26.1Zm7.05-.13c-.34,0-.59-.41-.62-.86a.93.93,0,0,1,.7-.93c1.4-.07,2.8-.13,4.19-.1.42,0,.66.41.7.86a1,1,0,0,1-.71.93c-1.39,0-2.79,0-4.26.1ZM287,96c-.35,0-.59-.4-.63-.86a.92.92,0,0,1,.71-.92l4.2-.19a.83.83,0,0,1,.69.86.94.94,0,0,1-.7.93c-1.4.06-2.8.13-4.27.18Zm7.06-.31c-.34,0-.59-.41-.62-.86a.87.87,0,0,1,.7-.93l4.2-.19c.42,0,.67.33.69.87a.86.86,0,0,1-.7.93l-4.27.18Zm7-.32c-.35,0-.59-.4-.63-.86a.86.86,0,0,1,.71-.92c1.4-.07,2.8-.13,4.2-.28.43-.06.67.32.7.86a.86.86,0,0,1-.71.93c-1.4.06-2.79.13-4.2.28Zm7.07-.4c-.34,0-.59-.4-.62-.86a.85.85,0,0,1,.7-.92c1.4-.07,2.81-.22,4.2-.28.36-.06.68.32.7.86a.87.87,0,0,1-.7.93c-1.4.06-2.81.22-4.21.28Zm7-.49c-.34,0-.59-.41-.62-.86a.86.86,0,0,1,.7-.93c1.41-.15,2.81-.22,4.21-.37.36-.06.74.33.7.87s-.29,1-.71.92c-1.4.16-2.8.22-4.21.37Zm7.1-.67c-.35,0-.6-.41-.63-.86s.29-1,.64-.93l4.21-.46a.67.67,0,0,1,.71.77c0,.46-.29,1-.64.94l-4.22.46a.07.07,0,0,1-.07.08Zm7-.85a.75.75,0,0,1-.64-.77c0-.45.29-1,.64-.94,1.4-.15,2.82-.39,4.22-.54.36-.06.74.33.78.78a1,1,0,0,1-.65,1c-1.41.24-2.82.4-4.22.55-.06-.1-.13-.1-.13-.1Zm7-1a.74.74,0,0,1-.63-.77c0-.45.22-1,.64-1l4.18-.73c.35-.06.74.24.77.78s-.22,1-.65,1c-1.34.25-2.75.49-4.24.73Zm7-1.3a.74.74,0,0,1-.63-.77c0-.45.22-1,.57-1,1.42-.33,2.84-.66,4.2-1a.72.72,0,0,1,.78.69c0,.45-.22,1-.58,1-1.35.34-2.77.67-4.19,1,0,.09-.08.08-.15.08Zm7-1.76c-.28,0-.53-.31-.64-.68a.82.82,0,0,1,.57-1c1.43-.42,2.79-.84,4.08-1.27.36-.15.75.15.85.61a1,1,0,0,1-.51,1.12c-1.29.43-2.72.85-4.15,1.27l-.2,0Zm6.88-2.3a.62.62,0,0,1-.58-.58,1,1,0,0,1,.51-1.13c1.44-.6,2.75-1.21,4-1.82a.64.64,0,0,1,.87.52,1,1,0,0,1-.44,1.13,38.14,38.14,0,0,1-4.06,1.82.33.33,0,0,1-.28.06Zm6.61-3.31a.77.77,0,0,1-.58-.49,1.05,1.05,0,0,1,.38-1.23A26.33,26.33,0,0,0,367.05,79c.31-.33.72-.21,1,.17a1.05,1.05,0,0,1-.18,1.24,31.09,31.09,0,0,1-3.72,2.92,2,2,0,0,1-.36.06Zm5.81-5.26a.82.82,0,0,1-.4-.21,1.15,1.15,0,0,1,0-1.26,8.79,8.79,0,0,0,1-1.53c.25-.43.68-.57,1-.28a1,1,0,0,1,.18,1.27c-.33.6-.73,1.2-1.13,1.79a.67.67,0,0,1-.57.22Z"/><path class="cls-1" d="M376.94,50.4a1.07,1.07,0,0,1-.76-.37,15.51,15.51,0,0,0-3-3.37.68.68,0,0,1,0-1,.87.87,0,0,1,1.17,0,18.93,18.93,0,0,1,3.27,3.67.72.72,0,0,1-.34,1c-.08,0-.16.07-.33.07Zm-5.69-5.54a1.41,1.41,0,0,1-.51-.15,43.22,43.22,0,0,0-4.1-2.55.69.69,0,0,1-.25-1,.88.88,0,0,1,1.17-.22,34,34,0,0,1,4.27,2.62.75.75,0,0,1,.17,1.05,1.58,1.58,0,0,1-.75.3Zm-7.12-4.12a.79.79,0,0,1-.42-.08c-1.42-.67-2.93-1.34-4.52-1.94a.72.72,0,0,1-.42-1,.88.88,0,0,1,1.09-.37c1.67.67,3.18,1.35,4.6,2a.72.72,0,0,1,.34,1,.78.78,0,0,1-.67.3Zm-7.7-3.15a.6.6,0,0,1-.34-.07q-2.25-.8-4.77-1.57a.76.76,0,0,1-.5-1,.91.91,0,0,1,1.09-.45c1.67.53,3.26,1,4.77,1.65a.75.75,0,0,1,.5,1,.84.84,0,0,1-.75.45Zm-8-2.62h-.25c-1.59-.45-3.18-.9-4.85-1.35a.8.8,0,0,1-.59-.89.93.93,0,0,1,1-.53c1.68.45,3.35.9,4.86,1.35a.72.72,0,0,1,.5,1c.09.23-.25.45-.67.45Zm-8.12-2.17H340c-1.59-.37-3.26-.75-4.94-1.12a.71.71,0,0,1-.58-.9.8.8,0,0,1,1-.53c1.67.38,3.35.75,4.94,1.13a.77.77,0,0,1,.59.9.8.8,0,0,1-.76.52ZM332,31h-.16c-1.59-.37-3.27-.67-4.94-1a.78.78,0,0,1-.67-.9.87.87,0,0,1,1-.6c1.68.3,3.35.68,5,1a.7.7,0,0,1,.58.89.79.79,0,0,1-.84.6Zm-8.28-1.64h-.17c-1.67-.3-3.27-.6-5-.9a.78.78,0,0,1-.67-.9.85.85,0,0,1,1-.6l5,.9a.78.78,0,0,1,.67.9.79.79,0,0,1-.83.6Zm-8.37-1.43h-.17c-1.68-.3-3.35-.52-5-.75a.75.75,0,0,1-.67-.82.83.83,0,0,1,.92-.6c1.67.23,3.35.53,5,.75a.79.79,0,0,1,.67.9c0,.3-.34.52-.75.52ZM307,26.73h-.16l-5-.67a.76.76,0,0,1-.67-.82.83.83,0,0,1,.93-.6l5,.67a.76.76,0,0,1,.67.83.71.71,0,0,1-.76.59Zm-8.37-1.12h-.08c-1.67-.22-3.35-.45-5-.6a.91.91,0,0,1-.76-.82,1,1,0,0,1,.92-.68c1.68.23,3.35.38,5,.6a.91.91,0,0,1,.75.83.86.86,0,0,1-.84.67Zm-8.45-1.05H290c-1.67-.15-3.34-.37-5-.52a.91.91,0,0,1-.75-.83,1,1,0,0,1,.92-.67c1.67.15,3.35.38,5,.53a.9.9,0,0,1,.76.82.79.79,0,0,1-.84.67Zm-8.46-.9h-.08c-1.67-.15-3.35-.3-5-.52a.91.91,0,0,1-.76-.82,1,1,0,0,1,.92-.68c1.68.15,3.35.3,5,.53a.9.9,0,0,1,.75.82c0,.45-.42.67-.84.67Zm-8.45-.74h-.09l-5.1-.45c-.42-.08-.84-.38-.76-.83a.83.83,0,0,1,.93-.67l5.1.45c.5.07.84.37.76.82a.8.8,0,0,1-.84.68Zm-8.46-.75h0c-1.75-.15-3.43-.3-5.1-.38a.7.7,0,0,1-.76-.82.74.74,0,0,1,.92-.68c1.68.15,3.35.23,5.11.38a.69.69,0,0,1,.75.82,1,1,0,0,1-.92.68Zm-8.45-.68h0c-1.76-.15-3.43-.22-5.11-.37a.71.71,0,0,1-.75-.83.78.78,0,0,1,.92-.67c1.67.15,3.35.22,5.11.37a.71.71,0,0,1,.75.83,1.05,1.05,0,0,1-.92.67Zm-8.46-.6h0c-1.75-.07-3.43-.22-5.1-.3a.7.7,0,0,1-.76-.82.78.78,0,0,1,.92-.67c1.68.07,3.35.22,5.11.3a.69.69,0,0,1,.75.82,1,1,0,0,1-.92.67Zm-8.53-.52h0c-1.76-.08-3.44-.23-5.11-.3a.69.69,0,0,1-.75-.82.74.74,0,0,1,.92-.68c1.67.08,3.34.15,5.1.3a.71.71,0,0,1,.76.83.9.9,0,0,1-.92.67Zm-8.46-.45h0l-5.11-.22a.71.71,0,0,1-.75-.83.73.73,0,0,1,.92-.67l5.11.22a.71.71,0,0,1,.75.83,1,1,0,0,1-.92.67Zm-8.54-.37h0l-5.1-.23a.79.79,0,0,1-.84-.75.8.8,0,0,1,.84-.75l5.1.23c.5,0,.84.37.75.75.09.37-.25.75-.75.75Zm-8.45-.38h0L208.76,19a.75.75,0,1,1,0-1.5l5.11.22a.75.75,0,1,1,0,1.5Zm-8.54-.3h0c-1.76-.07-3.43-.15-5.11-.15a.8.8,0,0,1-.84-.75.76.76,0,0,1,.84-.75c1.68.08,3.35.08,5.11.15a.75.75,0,1,1,0,1.5Zm-8.46-.3h0c-1.76-.07-3.43-.07-5.1-.15a.79.79,0,0,1-.84-.75.8.8,0,0,1,.84-.75c1.67.08,3.34.08,5.1.15a.75.75,0,1,1,0,1.5Zm-8.54-.22h0c-1.75-.08-3.43-.08-5.1-.15a.8.8,0,0,1-.84-.75.86.86,0,0,1,.84-.75h0c1.67,0,3.35.07,5.1.15a.79.79,0,0,1,.84.75.75.75,0,0,1-.84.75Zm-8.45-.15h0c-1.76,0-3.43-.08-5.11-.08a.79.79,0,0,1-.83-.75.75.75,0,0,1,.83-.75c1.68,0,3.35.08,5.11.08a.8.8,0,0,1,.84.75.86.86,0,0,1-.84.75Zm-8.54-.15h0c-1.84,0-3.52-.08-5.11-.08a.79.79,0,0,1-.83-.75.8.8,0,0,1,.83-.75c1.59,0,3.35,0,5.11.08a.75.75,0,1,1,0,1.5ZM162.8,18h-5.1a.79.79,0,0,1-.84-.75.8.8,0,0,1,.84-.75h5.1a.75.75,0,1,1,0,1.5Zm-8.45-.07h-.42a.8.8,0,0,1-.84-.75.76.76,0,0,1,.84-.75h.42a.75.75,0,0,1,.83.75.79.79,0,0,1-.83.75Z"/><path class="cls-1" d="M87.78,275.4a1,1,0,0,1-.25-.7.9.9,0,0,1,.83-1l8.78-.35.62-9.42a.9.9,0,0,1,.9-.95.92.92,0,0,1,.81,1l-.71,11.26-10.3.46a1.11,1.11,0,0,1-.68-.34Z"/><path class="cls-1" d="M324.91,226.2a.89.89,0,0,1-.48-.18l-8.8-7.15,6.43-10a1,1,0,1,1,1.66,1.07l-5.49,8.55,7.35,6a1.1,1.1,0,0,1,.18,1.45.9.9,0,0,1-.85.27Z"/><path class="cls-1" d="M299,390.55l-8.3-6.6a1,1,0,0,1,1.2-1.6l7,5.5,6.9-6.6a1,1,0,0,1,1.4,1.4l-8.2,7.9Z"/><path class="cls-1" d="M172,180.76a.87.87,0,0,1-.85-.25,1,1,0,0,1-.15-1.4l6.51-7.87-6.6-6.84a1,1,0,0,1,0-1.43,1,1,0,0,1,1.44.05l7.85,8.14-7.6,9.18a.81.81,0,0,1-.64.42Z"/><path class="cls-1" d="M258.52,110.29a.9.9,0,0,1-.54-.2l-8.09-7.7,5.6-9.4a.83.83,0,0,1,1.25-.3,1.06,1.06,0,0,1,.26,1.4l-4.71,7.9,6.85,6.6a1.07,1.07,0,0,1,.09,1.4,1,1,0,0,1-.71.3Z"/><path class="cls-1" d="M103.84,234.64a1.39,1.39,0,0,0,.8-.34c1.16-1.11,2.44-2.16,3.79-3.22.4-.26.55-.71.36-.89s-.68-.15-1,.11a41.12,41.12,0,0,0-4,3.41c-.37.33-.41.7-.12.82a.2.2,0,0,0,.22.11Zm6.81-5.27a1.41,1.41,0,0,0,.59-.21,47.09,47.09,0,0,1,4.38-2.43.94.94,0,0,0,.65-.9c-.06-.31-.45-.36-.9-.15-1.65.82-3.19,1.69-4.65,2.56-.41.27-.6.65-.44.89,0,.19.16.25.37.24Zm200.72-10.3,2.19-.09a1.3,1.3,0,0,0,1-.67c.19-.38,0-.62-.4-.6l-4.25.18h0a1.31,1.31,0,0,0-1,.66c-.18.38,0,.63.4.61l2.06-.09Zm-4.86.15a1.35,1.35,0,0,0,1-.67c.18-.38,0-.62-.4-.61-1.42.06-2.81.06-4.22.12a1.32,1.32,0,0,0-1,.67c-.19.38,0,.62.4.6,1.31,0,2.8-.05,4.22-.11Zm10-.43h0c1.49-.06,2.94-.19,4.38-.31a1.3,1.3,0,0,0,1-.67c.19-.38,0-.62-.39-.6-1.45.12-2.87.18-4.32.3a1.33,1.33,0,0,0-1,.67c-.26.39,0,.63.33.61Zm-17.09.6a1.3,1.3,0,0,0,1-.66c.19-.38,0-.63-.4-.61-1.38,0-2.77,0-4.19.06a1.21,1.21,0,0,0-1,.66c-.18.38,0,.63.4.61,1.35-.06,2.73-.06,4.19-.06Zm24.34-1.1h0c1.52-.12,3.07-.31,4.45-.43a1.25,1.25,0,0,0,1-.73c.18-.38-.05-.62-.5-.54-1.41.18-2.93.31-4.38.44a1.13,1.13,0,0,0-1,.72.39.39,0,0,0,.43.54Zm-31.34,1.09a1.3,1.3,0,0,0,1-.6c.18-.38,0-.63-.33-.61h-4.16a1.56,1.56,0,0,0-1.06.6c-.18.39,0,.63.3.68,1.42-.06,2.8-.06,4.26-.06Zm38.75-1.9h.07c1.55-.19,3.06-.44,4.47-.63a1.6,1.6,0,0,0,1-.73c.08-.31-.15-.55-.5-.54-1.44.25-2.92.44-4.47.63a1.3,1.3,0,0,0-1,.73.39.39,0,0,0,.43.54Zm-45.72,1.82a1.3,1.3,0,0,0,1-.6c.18-.38,0-.62-.3-.67-1.39,0-2.74-.07-4.13-.07a1.43,1.43,0,0,0-1.06.6c-.18.38,0,.63.3.67,1.35.07,2.74.07,4.2.07Zm-6.94-.14a1.3,1.3,0,0,0,1-.6c.18-.38,0-.62-.3-.67-1.39,0-2.74-.07-4.1-.14a1.47,1.47,0,0,0-1.06.61.43.43,0,0,0,.3.67c1.36.07,2.71.13,4.17.13Zm60.15-2.81h.14c1.58-.26,3.12-.57,4.59-.89a1.37,1.37,0,0,0,.94-.78c.09-.32-.21-.55-.6-.48-1.47.32-3,.63-4.52.88a1.26,1.26,0,0,0-.91.73.36.36,0,0,0,.36.54ZM271.56,219a1.3,1.3,0,0,0,1-.6.43.43,0,0,0-.3-.67c-1.35-.07-2.74-.07-4.1-.14a1.43,1.43,0,0,0-1.06.61.44.44,0,0,0,.3.67c1.39,0,2.74.07,4.17.13ZM118.3,225.37a1,1,0,0,0,.38-.08c1.49-.63,3-1.25,4.64-1.82.41-.14.81-.53.76-.84s-.32-.49-.77-.28c-1.67.57-3.22,1.2-4.81,1.89-.45.2-.77.59-.72.9a.55.55,0,0,0,.52.23Zm146.38-6.61a1.47,1.47,0,0,0,1-.61c.19-.38,0-.62-.3-.67-1.35-.07-2.71-.13-4.09-.14a1.43,1.43,0,0,0-1.06.61.4.4,0,0,0,.29.67c1.39,0,2.74.07,4.17.14Zm81.63-4h.22c1.64-.38,3.17-.82,4.74-1.33a1.19,1.19,0,0,0,.83-.84c0-.31-.25-.49-.74-.34-1.46.43-3,.87-4.57,1.25-.38.08-.85.47-.86.78a.35.35,0,0,0,.38.49Zm-88.51,3.77a1.44,1.44,0,0,0,1-.6.41.41,0,0,0-.3-.68l-4.06-.2a1.43,1.43,0,0,0-1.06.61.41.41,0,0,0,.3.67l4.13.2Zm-6.77-.34a1.42,1.42,0,0,0,1-.6.41.41,0,0,0-.3-.67l-4.07-.2a1.29,1.29,0,0,0-1.06.6.4.4,0,0,0,.3.68l4.14.19Zm-6.88-.26a1.47,1.47,0,0,0,1-.61.39.39,0,0,0-.3-.67l-4.06-.2a1.18,1.18,0,0,0-1.06.61.39.39,0,0,0,.29.67l4.14.2Zm-118.09,4.65a.36.36,0,0,0,.24-.07c1.47-.44,3-.87,4.6-1.32a1.27,1.27,0,0,0,.87-.78c.09-.32-.25-.49-.63-.41-1.61.44-3.21.88-4.74,1.32-.42.15-.82.54-.83.85a.43.43,0,0,0,.49.41Zm111.24-5a1.4,1.4,0,0,0,1-.6.41.41,0,0,0-.3-.67l-4.06-.2a1.41,1.41,0,0,0-1.06.6.4.4,0,0,0,.3.68l4.13.19Zm116.81-5.16a.71.71,0,0,0,.32-.07c1.66-.57,3.22-1.2,4.8-1.89.45-.21.78-.6.72-.9s-.42-.42-.87-.22c-1.41.62-3,1.25-4.56,1.82-.42.14-.81.53-.76.84s.07.43.35.42Zm-123.65,4.83a1.39,1.39,0,0,0,1-.6.4.4,0,0,0-.29-.67l-4.07-.2a1.31,1.31,0,0,0-1.06.6.42.42,0,0,0,.3.68l4.14.19Zm-6.81-.27a1.42,1.42,0,0,0,1-.6.41.41,0,0,0-.3-.67c-1.35-.07-2.71-.14-4.1-.14a1.58,1.58,0,0,0-1.06.61.44.44,0,0,0,.3.67c1.39,0,2.74.07,4.17.13Zm-89.85,3.52H134l4.55-.94a1.34,1.34,0,0,0,.94-.79c.08-.31-.15-.55-.6-.47-1.62.32-3.16.63-4.63,1a1.41,1.41,0,0,0-.94.78.51.51,0,0,0,.53.48Zm83-3.78a1.47,1.47,0,0,0,1-.61c.15-.32,0-.62-.3-.67-1.35-.07-2.71-.13-4.09-.14a1.57,1.57,0,0,0-1.06.61.43.43,0,0,0,.29.67c1.39,0,2.74.07,4.17.14Zm-6.88-.27a1.3,1.3,0,0,0,1-.61.43.43,0,0,0-.3-.67c-1.35-.06-2.74-.07-4.09-.14a1.59,1.59,0,0,0-1.06.61.43.43,0,0,0,.3.67c1.35.07,2.74.07,4.16.14ZM141.48,219h.07c1.44-.25,2.95-.5,4.5-.69a1.54,1.54,0,0,0,1-.73c.09-.32-.14-.56-.5-.54-1.55.19-3.06.44-4.5.69a1.31,1.31,0,0,0-.91.72c-.18.38,0,.56.36.55Zm61.57-2.75a1.26,1.26,0,0,0,1-.6c.19-.38,0-.63-.29-.68-1.36-.06-2.74-.07-4.13-.07a1.59,1.59,0,0,0-1.06.61c-.19.38,0,.62.3.67,1.38,0,2.74.07,4.19.07Zm158.86-7.14a1.8,1.8,0,0,0,.49-.15,36.67,36.67,0,0,0,4.57-2.68c.41-.27.6-.65.44-.89s-.59-.23-1,0a49,49,0,0,1-4.37,2.55c-.44.21-.7.59-.57.9s.23.24.44.23Zm-165.8,7a1.29,1.29,0,0,0,1-.6c.19-.38,0-.63-.29-.68-1.39,0-2.74-.07-4.2-.07a1.59,1.59,0,0,0-1.06.61c-.19.38,0,.62.3.67,1.45,0,2.81.07,4.26.07Zm-47.17,1.82h0c1.48-.18,3-.38,4.48-.5a1.15,1.15,0,0,0,1-.73c.18-.38-.05-.62-.5-.54-1.52.13-3,.32-4.48.51a1.3,1.3,0,0,0-1,.72c0,.32.15.56.5.54Zm40.2-1.9a1.26,1.26,0,0,0,1-.6c.19-.38,0-.62-.29-.67h-4.23a1.32,1.32,0,0,0-1,.67c-.19.38,0,.62.39.6Zm-32.83,1.15h0c1.45-.12,2.9-.25,4.39-.31a1.32,1.32,0,0,0,1-.67c.19-.38,0-.62-.4-.6-1.52.13-2.94.19-4.41.37a1.13,1.13,0,0,0-1,.73c-.2.26,0,.5.38.48Zm25.8-1.1a1.31,1.31,0,0,0,1-.66c.19-.38,0-.63-.4-.61-1.38,0-2.87.06-4.26.06a1.31,1.31,0,0,0-1,.66c-.18.39,0,.63.4.61,1.42-.06,2.8-.06,4.26-.06Zm-7.06.12a1.35,1.35,0,0,0,1-.67c.18-.38,0-.62-.4-.6-1.42.06-2.88.06-4.29.12h0a1.28,1.28,0,0,0-1,.66c-.19.38,0,.63.39.61,1.42-.06,2.84-.12,4.3-.12Zm-11.45.42h0c1.41-.06,2.86-.18,4.35-.24a1.32,1.32,0,0,0,1-.67c.19-.38,0-.63-.4-.61-1.42.06-2.9.13-4.35.25a1.3,1.3,0,0,0-1,.67c-.19.38,0,.62.4.6ZM369.19,204.4a1.14,1.14,0,0,0,.69-.28,38.71,38.71,0,0,0,3.83-3.59c.3-.33.35-.7,0-.81a1.08,1.08,0,0,0-1.1.42,28.54,28.54,0,0,1-3.57,3.33c-.37.33-.49.71-.3.88a1.35,1.35,0,0,0,.47.05Zm5.73-5.92a1.24,1.24,0,0,0,1-.54,28.73,28.73,0,0,0,2.42-4c.19-.38,0-.63-.4-.61a1.35,1.35,0,0,0-1,.67,25.91,25.91,0,0,1-2.29,3.71c-.23.32-.2.69.19.74Zm3.56-6.44h0a1.36,1.36,0,0,0,1.06-.73c.48-1.27.88-2.53,1.25-3.85.09-.32-.21-.56-.6-.48a1.34,1.34,0,0,0-.94.79c-.34,1.26-.75,2.52-1.19,3.73-.16.32,0,.56.42.54Zm1.73-6.24h.22a1.38,1.38,0,0,0,.87-.79c.23-1.19.33-2.38.45-3.63,0-.31-.32-.48-.73-.34s-.82.53-.83.84a31,31,0,0,1-.43,3.57c-.09.19.1.37.45.36Z"/></g></svg>