<?xml version="1.0" encoding="utf-8"?>
<!-- Generator: Adobe Illustrator 21.1.0, SVG Export Plug-In . SVG Version: 6.00 Build 0)  -->
<svg version="1.1" id="Capa_1" xmlns="http://www.w3.org/2000/svg" xmlns:xlink="http://www.w3.org/1999/xlink" x="0px" y="0px"
	 viewBox="0 0 78.2 34.6" style="enable-background:new 0 0 78.2 34.6;" xml:space="preserve">
<style type="text/css">
	.st0{clip-path:url(#SVGID_2_);}
	.st1{clip-path:url(#SVGID_4_);fill:#005CA8;}
	.st2{filter:url(#Adobe_OpacityMaskFilter);}
	.st3{clip-path:url(#SVGID_4_);}
	.st4{clip-path:url(#SVGID_4_);mask:url(#SVGID_5_);}
	.st5{opacity:0.2;clip-path:url(#SVGID_9_);fill:#1D1D1B;}
	.st6{clip-path:url(#SVGID_2_);fill:#FFFFFF;}
	.st7{clip-path:url(#SVGID_11_);fill:none;stroke:#005CA8;stroke-width:1.778;stroke-linecap:round;}
	.st8{clip-path:url(#SVGID_2_);fill:none;stroke:#005CA8;stroke-width:1.185;stroke-linecap:round;}
	.st9{clip-path:url(#SVGID_13_);fill:#005CA8;}
	.st10{fill:#FFFFFF;}
	.st11{font-family:'MyriadPro-Regular';}
	.st12{font-size:17.8359px;}
</style>
<g>
	<defs>
		<rect id="SVGID_1_" width="78.2" height="34.6"/>
	</defs>
	<clipPath id="SVGID_2_">
		<use xlink:href="#SVGID_1_"  style="overflow:visible;"/>
	</clipPath>
	<g class="st0">
		<defs>
			<rect id="SVGID_3_" y="0" width="78.2" height="34.6"/>
		</defs>
		<clipPath id="SVGID_4_">
			<use xlink:href="#SVGID_3_"  style="overflow:visible;"/>
		</clipPath>
		<path class="st1" d="M25.2,11.5c0,0-1.8,0-1.8,1.8v14.4c0,0,0,1.8,1.8,1.8h51.2c0,0,1.8,0,1.8-1.8V13.3c0,0,0-1.8-1.8-1.8H25.2z"
			/>
		<defs>
			<filter id="Adobe_OpacityMaskFilter" filterUnits="userSpaceOnUse" x="2.9" y="-1" width="25.9" height="33.4">
				<feColorMatrix  type="matrix" values="1 0 0 0 0  0 1 0 0 0  0 0 1 0 0  0 0 0 1 0"/>
			</filter>
		</defs>
		<mask maskUnits="userSpaceOnUse" x="2.9" y="-1" width="25.9" height="33.4" id="SVGID_5_">
			<g class="st2">
				<g>
					<defs>
						<rect id="SVGID_6_" x="-5.9" y="-8" width="44.2" height="41.3"/>
					</defs>
					<clipPath id="SVGID_7_" class="st3">
						<use xlink:href="#SVGID_6_"  style="overflow:visible;"/>
					</clipPath>
					<g transform="matrix(1 0 0 1 0 0)" style="clip-path:url(#SVGID_7_);">
						
							<image style="overflow:visible;" width="184" height="172" xlink:href="C6C4B5B58194E535.jpg"  transform="matrix(0.24 0 0 0.24 -5.9315 -7.9533)">
						</image>
					</g>
				</g>
			</g>
		</mask>
		<g class="st4">
			<g>
				<defs>
					<rect id="SVGID_8_" x="2.9" y="-1" width="25.9" height="33.4"/>
				</defs>
				<clipPath id="SVGID_9_">
					<use xlink:href="#SVGID_8_"  style="overflow:visible;"/>
				</clipPath>
				<rect x="2.9" y="-1" class="st5" width="25.9" height="33.4"/>
			</g>
		</g>
	</g>
	<rect x="1.4" y="0.7" class="st6" width="25.6" height="33.1"/>
	<g class="st0">
		<defs>
			<rect id="SVGID_10_" y="0" width="78.2" height="34.6"/>
		</defs>
		<clipPath id="SVGID_11_">
			<use xlink:href="#SVGID_10_"  style="overflow:visible;"/>
		</clipPath>
		<path class="st7" d="M0.9,0.9v29.8c0,0,0.5,3.1,1.6,3.1h25.4c-1.2,0-1.6-3.1-1.6-3.1V0.9H0.9z"/>
	</g>
	<rect x="4.6" y="10.6" class="st8" width="7.8" height="7.7"/>
	<g class="st0">
		<defs>
			<rect id="SVGID_12_" y="0" width="78.2" height="34.6"/>
		</defs>
		<clipPath id="SVGID_13_">
			<use xlink:href="#SVGID_12_"  style="overflow:visible;"/>
		</clipPath>
		<path class="st9" d="M21.5,6L22,4.4L22.5,6H21.5z M22.9,7.6h0.8l-1.3-4h-0.9l-1.3,4h0.8l0.3-0.9h1.3L22.9,7.6z M20.5,3.6h-2.9v0.7
			h1.1v3.3h0.8V4.3h1.1V3.6z M14.9,6.5l-0.3,0.5c0.4,0.3,0.8,0.5,1.4,0.5c0.7,0,1.3-0.4,1.3-1.2c0-1.4-1.9-0.9-1.9-1.7
			c0-0.3,0.2-0.5,0.6-0.5c0.3,0,0.6,0.1,0.9,0.3L17.2,4c-0.3-0.3-0.8-0.5-1.3-0.5c-0.7,0-1.3,0.4-1.3,1.2c0,1.4,1.8,0.9,1.8,1.7
			c0,0.3-0.3,0.5-0.6,0.5C15.6,6.9,15.2,6.8,14.9,6.5 M13.2,7.6H14v-4h-0.8V7.6z M10.4,3.6H9.6l1.3,4h0.7l1.3-4H12l-0.8,2.7
			L10.4,3.6z M6.9,7.6h2.4V6.9H7.7v-1h1.4V5.2H7.7V4.3h1.6V3.6H6.9V7.6z M4.3,5.5V4.3h0.5c0.4,0,0.6,0.2,0.6,0.6
			c0,0.4-0.2,0.6-0.6,0.6H4.3z M3.5,7.6h0.8V6.1h0.4l0.8,1.4h0.9L5.5,6c0.4-0.2,0.7-0.6,0.7-1.1c0-0.7-0.5-1.2-1.3-1.2H3.5V7.6z"/>
	</g>
	<line class="st8" x1="14.7" y1="11.9" x2="22.7" y2="11.9"/>
	<line class="st8" x1="14.7" y1="15.1" x2="22.7" y2="15.1"/>
	<line class="st8" x1="14.7" y1="18.3" x2="22.7" y2="18.3"/>
	<line class="st8" x1="4.3" y1="22.7" x2="23.6" y2="22.7"/>
	<line class="st8" x1="4.3" y1="25.9" x2="23.6" y2="25.9"/>
	<line class="st8" x1="4.3" y1="29.2" x2="23.6" y2="29.2"/>
	<g class="st0">
		<text transform="matrix(1 0 0 1 31.5122 26.113)" class="st10 st11 st12">95-96</text>
	</g>
</g>
</svg>
