<svg id="Capa_1" data-name="Capa 1" xmlns="http://www.w3.org/2000/svg" viewBox="0 0 820 280"><defs><style>.cls-1,.cls-3{fill:#b31e8d;}.cls-2{fill:#fff;}.cls-3{isolation:isolate;font-size:30.99px;font-family:ArialMT, Arial;}.cls-4{fill:none;stroke:#fff;stroke-dasharray:4.01 4.01;}</style></defs><title>Fondo_003</title><polygon class="cls-1" points="269.46 92.88 272.98 170.11 317.8 175.42 318 92.88 269.46 92.88"/><path class="cls-2" d="M315.53,147.59l.07,1.11-.33,1.38-.2,1.37-.45,1.18-.27,1.31-.65,1.24-.33,1.25-2,3.27-2.61,3-5.57,3.73-3.8,1.18-4.18.59-11.79.06-1.37.2h-1.31l-1.38-.2h-1.5l-1.05-.58-.78-1.44.13-2.49-.2-5.24.13-1.31-.13-5.24.2-2.55-.2-1.37.2-1.25-.2-2.81.2-2.49-.27-5.24.2-1.31-.2-1.3.2-1.44-.13-2.49.06-1.31-.13-1.31v-2.68l1-1.25,1.17-.72,1.38.07,1.18-.07,1.31.13,4.18-.13,1.31.13,9.3.07,2.68.52,3.6,1.18,1.31.65,2.43,1.51,1.83,1.77,1.11.85,1.7,2,.53,1.11,1.5,2.23,1,2.61.33,1.18.13,1.38,1,3.73Zm-38.29-17,.26.13.39.13.2.4.26.26-.06-.4-.46-.52.39-.13.46.26.39.33.33-.33.46.13.06.59v.46l.4-.2.19-.39.07-.85-.53-.13-.19.52-.13-1.18-.92-.78-.72-.4-.59.4.07.19-.07.79.13.46Zm.13,3.4.85.07-.39.33-.33.39.26.13-.19,1,.72-.26.06.85.59.79h-.85v.85l.52-.52.46,1.37-.26.59.85-.46-.2-1.57.46-.92-.33-.85-.78-.52.33-.39.65-.4-.78-.65.26-.66-.85-.13h-.59l1-.19.33-.46-1.77.13-.19.72Zm0-6,.78.13.07-.59.26.4.66.39.26-.59-.72-.2-.52-.32.19-.46-.52.26-.33.72ZM278,142l-.33.92.2.66.06.26.2-.66.46-.19.32-.2-.52-1v-1.11l.46-.59-.13-.26-.4.39-.13-.52-.26-.14-.39.66v.46l.32.13Zm-.33,11.72.79-1.24-.07-.46-.65.13-.2,1Zm.79,5.44.59-.66-.72-.39.52-.92,1.18-.72.32.46-.06.46.52-.4.79.27V155.9l-.33-.19-.46.26-.32-.26h-1l.14-.66,1.63.26.2-.33H281l-.65-.26-.4-1,.59-.06.53.39.32-.2-.85-.26-.46-.13.2-.13-.33-.13.2-.4-.39-.13-.46.53-.13-.33-.46.65.39.66-.52.72.72,1-.33.33-.78-.46-.07.72-.33.66.07,1.11.19.52L277.7,160l.85.52.32-.52Zm.91-10.35.53-.85-.2-.13-.26-.13-.79.33-.72-.07.2.79,1.05.39-.66.33.33.59.46-.26.32.19.33.07.06-.46.53-.46-.46-.13Zm-1-23.76.2,1.18.19.39.4.33v-.46l.19-.72.46-.19.52.91.33,1.57.72-.13-.33-.39.46-.26,1.31-1v-1.25l.33-.46-.85.4h-.92l-.2.59h.72l.4.65-.59.2-.46.39-.65-.33.19-1v-.59l-.52-.2-.33.33.26.46-.26.07-.72-1.31Zm1.31,33-.06-.39H279v.46Zm-.33-26.25-.19-.19.13.65Zm.59,13.95-.26-.4h-.52l.32.72Zm.13,17.28-.13-.53V162l-.32.85-.14.46Zm.79-4,.2-.45.13-.46-.33-.59-.33.52-.65.53.26.52Zm-.26-25.26-.2-.46-.46.26.07.33Zm.19.65-.19.53-.46.06.72.2.39-.59Zm.4,2.75.39-.85-.33-.07-.46.27-.32.32Zm1.17,14.21-.19-.85-.33-.59.26-.66-.19-.19-.4.32-.72.2-.32.46.78.26.13.46.4.19-.27.53-.26.13Zm-1.76-4.19.26.32.59.27.45.06-.19-.33-.52-.45Zm.65,16.62-.13-.52-.33.39v.53Zm.52-2.75-.13-.72-.52.2.07.52Zm.66-29.45-.85.52-.4.85.92-.52Zm.2,12.24-.27.06-.06-.32-.39.32.13.4-.46.65v.66l.59-.53.13-.65.19.06v-.32Zm-.46,2.29.13-.39.19.06-.26-.2-.65.53.19.32Zm2.35-15.38-.52-.13v.58l-.33-.32-.19-.85L283,130l-1.18-.59.39.59,1.71,1.64.78-.2.4-.46Zm-1.11,24.28-.26-.32-.13.19-.26.26-.2-.39H282l.26.39.32.46.33.33h.46v-.92Zm-.13-17.93-.06-.59-1.12,1,.33-.06.33-.26Zm-.26,6.61.26.13h.65l-.45-.2h-.4Zm.39-19.64.33.59v.46l.52-.66-.65-.65Zm1.31,19-.39-.33-.85-.65.26.72h.59Zm-.26,17.61-.07-.26-.39-.2-.26-.2.26.33.26.13Zm.06-10.67.2-.2-.72-.52-.2.78Zm-.52-16.5.2.13.06-.52.13-.53-.32.07-.2.46Zm.2,11,.13.59.13-.59.13-.4Zm.52-7.2.52.06-.39-.32-.39.06Zm.92,19-.33.13v-.39l-.46-.39-.19.32.58.59h.4v-.26ZM287,130.31l-.85-.46h-.52l-.27.26.2.46,1,.33Zm.2-5.11-.07-.39-.46-.2V124l-.58-.07-.2.53.59.52Zm-.59,24.88-.07-.85-.45.13.06.45Zm.65-20.16.46-.14.13-.58-.46.32Zm14.4,23.63.86-1.18,1-2.36.39-1.24.33-3.21-.2-2-.78-3.86-.85-1-.73-1.24L300,135.55l-2.23-1.44-2.62-.79-2-.13-1.37.06-1.38-.06-1.9.72-.78,1.18v16.82l-.2,1.31.26,1.18-.13,1.31.59,1.44,1.57.59,5.43-.27,2.36-.65,1.31-.66,1-.65.78-1Zm-13.28-27.5.65.07.39-.39.2-.4-.39.07-.46.32h-.26Zm1.83.07.79.39-.14-.65-.65-.4Zm.52-1.05.46-.13.13-.46.4.13-.33-.46-.59-.32Zm1.83,5.11.14.59.06-1.38Zm.27-5.63.39.52.92.65.19-.32-.72-.26.13-.33Zm1,3.34-.13.72.46.06.26-.39.06-.39Zm1.05-1.25-.59-.13.06.66.53.19Zm.06,4.78-.13.26.65.2.53-.52-.59-.07-.26.46Zm1.44-1.57.33.52.65-.13.79-.91.85-.07-.85-.46-1,.26Zm2,.13-.26.46.59.32.26-.26Zm.52-2,.79-.13.2-.79-.66.27Zm2,4.52-.52.46-.85-.53-.46.2v.52l1.25.13.91-.78-.13-.2-.33-.26-.59-.26Zm-.91-2.75-.66-.65-.06.85.78,1,.79-.2v-.46Zm.72,27.88-.33-.26-.46.2.66.33Zm-.07-30.76.13.33.92.32.72.4-.65.78.32.26.33-.19v-.46h.26l1.31.52.33-.72-1,.2-.33-.52.07-.53-.53-.13.53-.46.58.27-.45-.59-.66.39-.33-.07-.19-.58-.26.13-.27.65Zm3.6,31,.53-.4-.85-1.76-.86.52.07.46-.26.26-.4.13-.19.33.39.46.2.59.46.13.26-.46-.59-.59-.07-.46.33-.13.72.39.2.79-.07.39.2.4.33-.46Zm-1.44-4.45-.26-.27-.06.2-.07.46.52.19Zm.13-22.13.27-.72-.66-.13.07.72Zm-.13,4.58.13.46.79-1h-.59l.2.19Zm11.07,12.57h-.72l-.66,1-.65.66.06-.26.2-.33-.33.13-.46.26.07.92-.79.52-.39-.19-.39.39-.59-1.05,1.05-.59.32-.26.27.2-.4-.59.2-.2.52.26.2-.52-.46-.26-.33.46-.52-.27-.2.59-.39-.19-.07.19-.58.46-.86.46-.45-.13.13-.26h-.26l-.66-.53-.92.2-.06-.39.85-.53-.33-.46.53-.06-.2-.46-.72.79-.13.46-.13-.53-.59.2.39,1.37h1.44l.33.27.52.58.85-.06-.26,1.05-.2,1-.32-.2-.59-1.77-.33.13v.79l-.39.66-.72.32.52,1-.13.72-1.64-.58-.85-.92h.46l.07-.52-.59-.33-.46,1.11.59.59-.33.92.59.52,1.05-.52,1,.45.46.53-.32.33-.46-.4-.92-.52-.33.72.79.52.65.46.4.2.06-.66.39.33.59.13.4.46-.53-.07-.06.27.46.45,1-.45.19.45.33.33.26-.46.33-.46-.52-.26.45.07.4-.53.45.4-.13-1.12-.39-.58,1.05.32.46.33.13-.26-.46-.39.39-.46.66-.13-.07-1.18-.72-.46.26-.26.79.19.19-1.89H313l.33-.13.39-.33-.13-.46h-.46l-.13-.46.85-.39v-.79Zm-9.63-19-.32.06-.33.13-.33-.06.33.33Zm.2,1.5.59.07.06-.33-.52-.26Zm.59,21.28.46-.53.45.13.14-.26-.79-.32-.46.78Zm.59,7.39-.13-1.63-.53.78Zm-.2-19.24.79-.07.26-.65-.66-.07-.39.4Zm.39-11.65.33.26.26-.07-.19-.26Zm.79,15.31-.59.14.2.26.19.19.2.33.46-.33Zm-.13-13.22.26.2.39-.59-.45-.39Zm.26,15.52.13-.27.46.27.33-.07v-1.05l-.33.13-.13.59-.33.13-.26.27-.13.52.33.26.26.13.46.27-.07-.59-.59-.2Zm1,8.31-.59.72.07-.53-.46-.65.13-.2Zm-.32-12.57v-.59l-.33.26-.26.53Zm.13-10.41-.59.13.06.79.53-.46.26.07Zm.39,23.5,1.5.53-.13.59-1,.59-.4-.53-.32.13ZM310.16,145l.2.32.59.07-.33-.72V143.2h-.39l-.39,1.18-.72.53-.07-.4-.72-.78-.65.26.39.13.26.72.79.26.72-.32ZM308,140.39l-.26.85.66.46-.07-.46.72-.06,1.12,1.3.58-.45h-.52l-.46-.13.26-.4-.19-.19-.46-.53-.85-.19-.26-.2-.07-.59-.33-.06Zm.27,7.79-.46-.33v.72h.52Zm-.07-16-.33.06.27.07.45.39.66.07Zm.92,10.8-.13.59.26.32.52-.19-.19-.72-.53-.66-.52-.13v.33l.33.52Zm.32-4.91-.39.65.07.26-.2.27-.13.26.26-.39.39.19.46.39.39-.19-.45-.66-.2-.39.33-.13Zm.53,8.44-.2-.85h-.33l-.32.53.19.78Zm-.46,2,.59-.13.06-.66-.39.26Zm1.11-9.17.53.39.26-.26-.26-.39-.2-.33-.26-.19Zm0,2.1.2.52.39-.33-.32-.59Zm3.34,4.77-.65-.45-.53-.13.46.52-.52.39-.72.53-.33-.46.52-.59-.19-.72v-1.05l-.72,1.31.26,1.44-.33.79.46.72.79-.2v-1.24l.32.65.72.33.07-.66L313,147l.27-.26Zm-1.83-4-.4.13.27.4.45-.59v-.59l1-.72-1.05.13-.33.19-.33.72Zm1,8.58L313,151l-.72-.45.27-.46Zm1-7.47-.26-.45-.86-.46-.52.59.52-.4.66.33.2.59Zm-.59,1.12.32-.07-.06-.19-.33.06Zm.46.46-.14-.53-.32.66.13.45.2-.32Z"/><polygon class="cls-1" points="317.38 91.56 323.83 175.42 371.54 171.75 371.54 91.56 317.38 91.56"/><path class="cls-2" d="M370.28,145.49l-.26,1.9-.07,1.38-.33,1.31-.06,1.18-.52,2.48-1,2.49-2.88,4.39-.91.91-.86,1.18-1.83,1.57-1.24.59-1,.79-2.16,1.18-4.91,1.63-3.93.53-3.67.06-1.37-.13-2.36-.52-1.44-.13-1.9-.66-5.1-2.62-2.16-1.7-.72-.85-1-.92-.85-1-.79-.79-3-6-.59-2.48-.13-1.25-.33-1.18-.2-1.37.2-5.3,1.11-5,1-2.49,2-3.47,3.2-3.73,2.23-1.64,1.18-.59,1-.72,4.91-1.83,6.94-1,1.77.06,3.79.66,5,1.57,1,.72,2,.85,1.5,1,1.9,1.63,1.84,2,1.44,2,1.24,2.42,1.64,4.91.45,2.68Zm-43.21,5,.14-.33-.72-.32.13-.66.32-.13.79-.52,1.11.26.26-.4-.78-.32-.72-.2-.52.72-1,.79h-.72V149l.72-.19-.13-.4.46-.52.52-.26.59-.79,1,.27.39.58.78-.19-.06-.66-.72-.72-.26-1.17-.4-.53-.72-.33-.32-.13-.4.85.79,1,.72-.65.2.65-.4.66-.91-.27-.4.86-.65.13-.66-.46v-.46l.53.07.13-.46h-1.38l-.85.72h.59l.26.52-.52.2.07.32.65-.13.79.2-.33.39-.26-.06-.4.72.53,1.44,1.31-.07.26.13-.39.33.32.2Zm-1.76-8.25-.07.4-.78.19.52.33.2.85,1.17-.72.92-.26-.33-.39.07-.2-.66.06.53-.58,1.11-.4-.06.4.72.45.65-.26-.52-.26-.46-.52-1.05-.33.39-.72-.58-.66-1.58.33.27,1.31-.59.07-.46.19-.07.53Zm-.07,2.16h-.39v.79l.46-.4Zm-.13,7.79.33.4.26.13-.13-.2-.13-.72-.53-.13-.06.33Zm.2-15.38.13,1.44v.59l.52-.13.13.46,1.18.13,1.31.72h.66l.06-.59.39-.4-.59-.52-.45-.26,1.11-.39.65-1-.26-.65-1.24-1.44-.2-1.51-.06-.59-.66.27-.65.45.52.4-.26.39-.59-.06-.06.78-.59.53-.59.58Zm1.37,17.15-.26-.52-1.05.13.4.72-.07.32.33-.06Zm-.52-16.82-.2-.27.92-.26.06.33Zm.46,0,.39.06.39.59.2-.26-.13-.39.39-.14h.39l-.06.86-.46.52-1.5-.52Zm.06,3.6-.46-.27.26-.39h.4Zm.33,11.12-.4.4-.13.32.46-.13Zm.19-1.76.46-.4-.19-.39-.27.39Zm.27,3.4.19.33.59-.26-.13-.33Zm.72,3.21-.13-.46h-.53l.07.52Zm2.22-2.23-.26.13-.79.27-.65.19-.39-.26-.4-.46-.32.26.39.66.52-.07.27.07.32-.13.4.39.39-.65.39-.13Zm-2.62-18.06.53-.53-.53-.13.2-.46.59-.06.65.39-.85.85Zm.13,5.89h.27l-.27-.4Zm2.49,10-.06-1,.91.26.59.59.72.39-.65.39-.59.85.39.33v-.46l.46-.13,1.51-1.11.59-.26v-.46l-.79.19-.46-.52.4-.46.72.13.13-.13-.72-.59-.4-.45.66-.4-.39-.39-.66-.13-.13.65.33.66-.33.39-.39.4.45.39-.45.46-1.12-1.25-1.24-.13.52-.26.46-.33.39-.46,1-.78-.4-.66-.72.4-.32-.33-.2,1-1.18.78-.19.92-.2-.2H329l-.39.2-.46-.46.2.26-.33.79.26,1.24.33-.26v-.65l.72-.4.46.2Zm-1.5-21,.72,1.7.65.13.53-1.05-.14-1.5h1.05l-.13.45v.53l.65-.33.72.26V132l-.52-.06.52.39,1-.39.06-.46L332.9,131l-.39-.52.19-.72.4.33.32-.39-.59-.2-.06-.39-.52-.53-.86.46.27.39.65.07.33.13-.72.13-.66.52-.32-.13h-.59Zm0,19.83.06-.46.2.13.2.26Zm.52-17,.26-.26-.32-.26v.39l.39.78,1.44.86.07.72.26.39.78-.46.2-.59-.59.2-.2-.59-.52-.2-.39-.32.59-.53.52-.46.39-.91-.33-.07-.26.53-1.37.72Zm1.44,8.38v-.59l-.65.06-.53.66-.26.72.33.06.52-.39Zm-.46,17.21-.65.59.13.59.46-.39ZM332,139v-.39l.4-.06-.2-.2-.13.2-.66.06-.58-.78-.66.19.13.85.53.4.45-.2Zm-1.44,7.66h1V146l-.72-.06-.13.39-.59.52.33.53.26-.33Zm.26-3.6-.26.2v.39l.33-.06Zm.92,2-.19-.32-.4-.27-.26.2.59.13Zm-.85,7.79.39-.19.07-.59-.46.19Zm1.7,3.54-.06-.72-1.18-.2-.07.33.86.52Zm-1.24,4.06.13-.33-.2.26Zm.39.19-.33-.19.14.13Zm.26-6.28-.19.59.59-.07.13-.39Zm0-17.35-.13.26.07.46.26-.2Zm.72,7.66-.06-.33.79-.39v-.53l-.92.4-.53-.13-.06.72Zm-.59,2.49.53.26v-.39Zm1.05-14.27-.39.13-.07.39.46-.13Zm.26,21.14-.72-.26.14.26Zm-.65-8.9.06.46.72-.53-.72-.26ZM333,134v.46l.13.39.33-.39-.13-.33Zm.52,7.4V141l-.52.33.39.39Zm.46,13.81.53-.07.13-.32-.4-.4.27-.19.52-.2-.39-.46-.27.59-.26.07-.59.39Zm.2-17.41-.2.19-.19.13.52-.19.07-.26Zm-.07-7.21h.66l.33-.26L335,130l-.45.4Zm1.51,26.45-.39-.33-.66.2-.39-.07.78.2Zm-.39-24.68.13-.85-.53.59-.45.2ZM334.54,153l.65.06.07-.39h-.72V153Zm22.91-3.08.52-2.42.13-4-.19-1.18-.59-1.25-.79-2.48L354,135.87l-2-1.44-1.18-.52-1.18-.26-3.14-.4-1.83.13-2.55.66-.86.33-3.27,2.22-1.57,2.1-.39,1.18-.53,1.17-.19,1.25-.33,1.17v4l.52,2.42.59,1.18.33,1.05.92,1.24.85.92,1.77,1.44,1,.59,2.36,1,1.44.19h3.6l1.31-.26,1-.46,1.18-.32,3.14-2.16.92-1.05.39-1,.72-1.18Zm-22.19-21.73.72-.2.39-.59-.2-.26-.46.52-.32.27Zm1.11,2.75-.26.33.52.13.2-.33Zm.59-5.24.06.39.4-.13-.07-.39Zm.72,1.11.72.13.26-.58-.79-.14Zm.26,1.7-.06.53.39-.26.06-.53Zm1.7-3.14.2.66.92.39.32-.59-.78-.39Zm3.34,1.84.39.19.33-.26h-.26Zm.13-2.1.2.2.52-.07-.39-.26Zm3.67-.19.13.32v-.32l.39-.2Zm.59,2.68L347,128l.26.13.2-.26Zm1.76-.52.07.26.39.13V127Zm1.51,1.5.46.07-.07-.46-.39-.07v.46Zm.06-3.08.4.2.59-.2.59.2.45.33-.26-.53-.39-.39.06-.65-.85.19Zm2.82,2.82.26.65,1-.13.07-.46-.52-.06-.33-.39Zm.2-2.55.72.45.58-.13.14-.26-.66-.39-.78-.39Zm.85,4.9-.59-.26.06.53.59.39Zm1.57-3.14.06.33.46.07-.13-.33Zm0,7.27h.39l.07-.39-.4.13Zm1.18,21.08-.07-.4-.26-.32-.07.65Zm1.31-3.34-.27-.39-.39.39.39.33Zm8.24-2.68.53-.72.13.65.33.52.45.4.66-.46-.79-1-1-1.38.39-.92h.66l.39-.85-.78-.32-.07-.4.66-.45.19-.86-.72.07-.52.79-.33.58-.65.07-.27.26-.19.72-1.38.53-.91-.53.72-.65.59-.59.26.26-.53-1.11.14-.33-.07-.65-.46.06-.13.59.13.59-.46.06-.26.33-.72.85-1,.13v.33l.26.13H363v.66l.27.78-.92.79-1.11-.66-.59.66.52-.13.13.26-.39.39.19.46.59-.2.4.07.13.59-.26.39-1-.33h-1.24l-1.05-.13.2.59.92-.13,1,.52-.07.59-.33.4-.52-1-.65.07v.33l.72.72.78.32.59-.13.46-.59-.2-.91,1.51.19.19.72-.19.66.52-.39.26-.59.07.78-1.18.46-.72-.33v.4l-.2.39h-.45l-.27.13h-.39l.46.2.52-.13,1.44-.07,1-.13-.4-.26.53-.13.72-1-.66-.26-.33-.06,1-.33,1.24.92-.2.46.66-.14-.26.66-.07.26-.33.33-.45-.13-.53.39.53.39L366,154l.52.27.66.72.19-.33.07-.2-.59-.59.13-.45.85-1.12.85-.65-.92-.33Zm-7,4.84-.79-.26-.32.45h.72Zm-.46-7.07.13.39.59-.52.33.19v-.32l-.53-.26Zm.33-3.4.13,1.31,1.44.13-.13-.59-.59.45-.26-.58.59-.27.19-.39-.52-.06Zm.13-8.32.72-.06.33-.53-.53-.06-.32.33Zm.06,10.34.07.4h.39v-.46Zm1.25-6.28-.59-.19.26.39.46.19Zm.13,15.19-.46-.33v.39l.39.27Zm.65-12.24-.52-.27-.33-.06v.33l.53.39.39-.13Zm-.78-9.1.39-.53-.26-.19Zm0,13,.13.66.72.19-.13-.72Zm.33-8.77.85-.85.78-.59.85.26.27.27-.66-.72-1.11.13-.26.06-.53.52Zm1.17,17.35-.45.06.06.59.39-.13Zm-.39-19.7.53-.07.32-.39h-.65Zm5.24,5.69-.79.13-.32-.32.32-.92-.39-.13-.46.52-.92-.33.2-1-.52-.33-.2.85-.33.52-.39.2-.33-.52-.59-.66-.52.2.52.19v.66l1,.33.32-.4.46.33.72.66.46.19.72.26.39-.06.66.06.65.33-.46.13-1,.53-.72-.2.13.59-.33.39.46.52.92-.26-.26-.78.46.26.32.72.59-.33-.33-.52-.06-.59.65-.52-.32-.27Zm-3.67-2.49.13.53.07-.79-.52-.65-.46-.14v.72Zm-.39,10.54.59.2-.2.46-.52-.14Zm.07-15.25h.32l.53-.2-.46-.26Zm.59,21.67-.14-.33-.45.13.19.33Zm-.2,2-.07-.4-.32.07V158Zm.59-15.45-.4-.79-.45.53.32.58Zm-.85.13.19.26.13-.06Zm.91,5.63.07.46-.39.19-.4.07-.06-.4Zm.07-10.47-.33.45H365l.33-.59Zm.2-2.56.52-.33-.33-.45-.06.52Zm.52,22.59-.13-.53v-.33l-.26.72Zm1.18-2-.14-.78-.65.39-.52.39.19.2.4-.07.52.27Zm-.46-19h-.79l.85.65.85.46-.52.07.2.26.32-.33v-.52Zm-.39,12.76-.07-.45L366,149l.2.4Zm.32.92.92.39-.13.4L365.7,151Zm.72-1.37-.72-.2.53-.2Zm.59-2.56-.59.07.07-.53.2-.19.45.26Z"/><polygon class="cls-1" points="371.41 89.59 375.66 170.66 413.37 171.86 417.67 89.59 371.41 89.59"/><path class="cls-2" d="M412.74,152.5l-.06,4.06-.2,1.18-.39,1.3-.53,1.18-1.3,2.1-1.84,2.09-2.09,1.44-3.41,1.84-6.41,1.24-2.1.06-1.9-.19-2.74-.2-1.25-.46-1.44-.19-4.71-2.16-1.11-.72-1.9-1.9-1.64-2-1.05-2.62-.26-1.17-.13-1.45.46-1.37,1.31-.59,1.31.07,1.31-.13,5,.13,1.31.52,1,1.31,1,.92,1.18.72,1,.45,1.51.4,2,.13,1.84-.07,2.42-.72,1.05-.59,1-.91.4-1.71-.33-1.7L400,152l-2.35-1-1.31-.07-1.18-.2-5.37-.39-2.36-.52-3.73-1.25-2.29-1.37-1.83-1.7L378,143.34l-.85-2.3-.46-1.83-.06-4.38.91-3.8.66-1.05.46-1.18.85-.85.72-1.11,1.18-.78.91-.86,1.31-.78,1.05-.39,1-.66,1.17-.46,5.18-1,3.66-.07,1.44.33,1.18.13,1.37.26,3.6,1.24,4.19,2.88.85,1,.66,1,.85,1.05,1.05,2.36.52,2.55-.59,1.24-1.24.79-1.25-.13-1.17.13-4.32-.13-2-.66-2.16-2.29-1-.78-1.44-.53-4.18.13-1.18.27-.92.39-1.11.85-.72.92-.2,1.7.07,1.77,1,1,1,.53,2.74,1,6.62.85,5.36,1.31,3.47,1.57,1.12.92,1.57,2,1.31,2.42.32,1.24Zm-15.45,12.83h.92l.33-.46.39.13.33.07-.59-.59-.65.46-.59-.07.32-.26-.19-.33.32-.52,1.18.65.59-.13-.06-.46-.27.13-.26-.52-1.11-.26-.39-.2-.27-.52-.13.33-.72.78-.26-.52-.79-.39-.52.26-.06-.85-.53-.66.07-.26-.33.13-.33.72-.59-.13.33-.26-.2.06v-.13l.33-.2-.85-.45-.52-.4-.72-.85-.79-.06.2.52-.72.26-.07.4.4.13.26.39-.2.39-.59.4-.39-.4.39-.39-1,.13.2-.78.26-.66.33.07.46-.4V159l-.33-.39-.79-.46-.78-.78-.92-.2-.13.66-.26.32-.4.59-.39-.13-.52-.13.32-.26.53-.26.46-.27-.27-.39.2-.33-.13-.39-.07.2-.26.26-.59.19.33.33-.2.39-.72-.06-.59-.59.46.13.53-.52-.2-.59-.59-.07-.13-.59.59-.19-.79-.2-.26.85v.26l-1.44-1.5-.13-.13-.33.39.33.53.2.58-.53-.19L382,156l.33-.4-.59-.72-.72.53-.06-.59-.72.06-.53.59-.39.13v-.52l-1.05.06v.27l.33.45-.39,1,.65.65-.13.33-.52.46.39.52-.46.33v.65l.46-.19V160l.33.59.39-.2.13.26h.4l-.14-.33h-.52l.52-.32.66-.13-.2.32v.53l.2.19-.52.27-.14.52.33-.07.53-.32.32-.13.53-.27.19-.59.13-.52.33.26.26.27-.19.72-.85.45.72.4-.33.52-.33-.46-.65,1.18.72.72.32.06.46.59.26-.72.2-.19.2.06-.07.07h.07v.85l.72.33.32.06.2.2.13.32.33.27-.13-.4-.2-.26.39-.19.72,1h.79l.92.85.26-.13-.26-.06.13-.46.78.06-.13.53,1.18-.2V167l.79-1,.72.2-.66.26-.06.79.26.39.85-.13.33-.39.19-.53.33.33-.13.65.46.07.19-.59h.92v.33l-.46.26.2.2,1.11-.13.66.26.06-.59.33-.46.65.13.4-.26-.14.59-.26.33.59-.07.33-.72.33-.2.13-.13-1.57-1.31-.07-.45.39.32.33-.06.2-.2.26.66.79.32.19.4.39-.4.14.27h.65l-.39.59-.46.45.26.2.39-.33.4-.52-.2-.66-.13-.19-.92-.07ZM378.9,138.69l.39-.07-.33-.46-.39-.06.07-.26.19-.59h-.26l-.2.13-.13.78Zm.2-6.48.26.32v-.39l-.2-.2Zm0,4.12.32.26.27-.19.32-.2-.32-.33-.4.33Zm.26-3.27v-.13l-.13.19.19.33.2-.2Zm2.35,9.95-.06-.33-1,.13-.53.13.26-.26-.06-.59-.26.26v.4l-.59.52-.26-.07.65.33.2.72.39.52.26-.39-.52-.46-.13-.26.39-.13.59-.33.13-.45.2.39Zm-.13,13.87.46.07-.19.39-1.38.13-.46-.26-.78.26.26-.52,1.24.13.85-1,.4.26-.27.13Zm-1.5-15.9.19.39.46-.46.13.46.2.79.65-.13v-.46l-.52.33-.13-.66.13-.33-.65-.19Zm.13-2.23.65-.19.4-.59-.33-.33-.07.39-.58.4Zm2.55,20.69-.26.26-.26-.2-.33.2-.26-.2-.66-.45-.39-.2.59-.2.52-.45.07.65.33.2.78-.26-.13.26.46-.2v-.39l-.33-.26-.52.13.13-.46.26-.39.39.13.14.26.45.52.53.13-.13.27-.72.52Zm-1.44-30.25.26.46.33.07-.2-.53-.13-.26Zm5.57,18.66.13-.59.19-.45,1.25-.07.46-.26-1-.07-.32-.32-.33.13-.26-.59-.2-1.12-.59,1.45-1.18-.07.07-1-.79-.06-.13-.07.46-.39,1-.07.33.4.06.19-.32.4.39.39.26-.78-.26-.27-.2-1-1.18-.46-1-.45.26-.07.33-.26h-.4l-.39.39.2.2-.4.06-.26-.33.26-.39-.59.39-.13.92-.45.79-.27.39-.39-.33.39.46.79-.2.13-.85v-.59l1.38.07.19.65-.52-.19-.59,1v.91l-.46.07v.46l.59.52-.13-.46-.07-.32.59-.13-.06-.33-.26-.13.32-.46.2-.2.33.2.06.33.26.45.07.59.52.53-.32.19v.65l.26-.19.39-.07-.13-.78.92.19.06.85Zm-5-18-.26.26L382,130Zm.59,8.12.33-.26.19-.46-.26-.07v.46H382l-.27.33.53.65-.46.66h.85l.46.26.46.13.13-.39.06-.33.07-.07v-.06l.19-.13-.13-.53.46-.91-.13-.4.78-.32.72.59.33-.2.07-.39.32.13-.06.32.13-.39-1.05-.65.59-.07.2-.19.59,1,.19-.33h-.39l.33-.52-.4-.66-.32-.26.26-.13.39.13-.19-.52.19-.72-.72.19v.72l-1.44,1.18-1.24,1.51-.33.78-.13.33-.39.65Zm-.26-2.62-.26-.2.32.26Zm.52,24.94h-.46l-.13-.39.33-.2Zm-.13,1.37H383l-.06.4-.66-.2.14-.46.32.13Zm-.2-31.22.14.33.19.52v-1Zm.4,5.17-.07-.33-.33.26.33.27Zm.85,2.75.13.46h-.07V139l-.58.32-.4-.13.26-.65.33-.26.2-.26Zm-.33,25.14-.52.19v-.06l.26-.39.59.06.26.13Zm-.2-27.43.2.19,1.18-1.57-.46-.06-.39-.4.26-.39-.39.39v1Zm.73,5.17-.27.72-.13.13.66-.26.32-.52Zm.52-8.12-.13.33-.59-.13.59.33.33-.46.26-.46.13.39.13.33.06-.39-.32-.52-.53.06-.65.26Zm-.13,24.62-.59-.46.26-.33.39.53Zm3.27-17-.52-.33-.46-.19-.33.33-.26-.13.26-.14.26-.52.53-.13v-.39l.13-.26.78.13-.65-.46-.26-.33-.2.92-.26.13v-.72l-.79-.85-.26.19.33.2v.59l-1.11.33-.92.78-.06.79.52-.13.59-.2.19-.92.14.59.72.4.32.13H387v.32l-.46.13-.72-.06.33.33L387,141l.92.4-.53.72H387l-.72.26.2.46.46.32.32-.59.4-.26.52.4,1-.92-.13-1.05-.52.2Zm-1.7,23.11.33.59-.2.46-.72-1.12-1.31-.65.07-.2-.27-.39.2-.33.65.13.27-.19.19-.53-.26-.78,1,.13-.13.65h-.26l.26.66.59.06-.26.13.06.59-.59-.26-.32.52Zm-1.9-.07.52.14v.65l-.26-.2Zm.33-34.23.06.26h.4l-.27.66.33.52.07-.33-.4-.19.4-.33.19-.13-.19-.53-.27-.26Zm.39,30.17-.13-.58.65-.59.79.32.65.07.2.52-1-.13v.33l-.52.06-.72.66Zm.13-32.72.13.39.26.46.14.39.19-.39.07-.46.39-.26-.39.13-.4-.27Zm.72,5.23.66-.26.06-.59-.39.26-.59-.19-.46.32.92,1.05Zm-.33,1.31-.13.66-.06.58.59-.45.06-1.05-.52.13Zm.07,8.12.39.06-.13-.39-.13-.52h-.26l-.07.39Zm-.13.59.59.45-.2-.65Zm1-12-.65.06.19.26Zm.59,29.65.26,1.18-.65-.2-.14-.59-.26-.39Zm-.46-32.4.07.59.26-.26Zm1.57,37.57.2.4-1,.39h-.79l.59-.33.2-.33Zm-1.11-36.59-.33-.19.07.45.58.2.33-.52h-.06l-.27.32Zm.72,4.06-.26-.13-.2-.07v-.26l-.26.46Zm1.18,14.47-.53.13-1,1,.59.59.78-.19-.19-.4-1.05.07.26-.26.13-.26.33-.07.52-.2Zm-1.18,14.66-.39-.46.65.13Zm1.37,2.29.46.72v.33l-.19.32h-.4l-.85-1-.59-1,.72-.52.26.32.14.59-.27.27Zm-1.3-3.34.19-.19-.13-.27.13-.45.26-.59.53.52.19.92-.32.52-.79-.13Zm.32-28.61.26.2.53-.06.39.13-.26-.59-.85-.2Zm.79,11.07-.79-.13.46.59,1,.39.2-.52Zm-.66-13.68.13.39.27-.13Zm.53-1.9.19.19.27-.26.06.59.65-.39-.26-.33h-.52Zm.91,17.87.4-.07.32.4-.19-.85-.92-.2-.07.46-.32.52.91.72.33.13-.33-.52Zm0,1.7-.65.26.26.66.2-.53Zm-.19,12.24-.46.33.13-.79.65-.26.4.59Zm-.13-32.92.19.32.66-.06-.07-.46Zm.72,15.51.26.33.52-.4-.2-.32Zm1.44,4.71-.4.2-.32.59.19.52.4.13-.07-.58.2-.4v-.46Zm-.13,16.63.13.26v.26l-.2.13-.52-.78Zm-.2-33.45.52.33.53.06-.46-.52-.4-.13.2-.4.2.2-.07-.33-.46.46Zm2.42,14.47.2-.92.26.13.26-.39-.79-.72-.65-.13.2.52-.07.46.52.46-.58.72-.59.26-.92-.59.26.65.33.2v.33l-.2.19-.19-.32-.13.19v.39l-.2.27,1.18.13.46.19-.46-.52-.53-.06v-.4l.46-.26Zm-1,18.33.65.26-.19.19-.59-.06-.66-.26Zm-.59-36.14.72-.52-.2-.2-.26.46Zm.65,35.42-.58-.2v-.46l.52.2.46.65h-.85Zm-.26-2.1.53.59.65-.26.07-.59.72.39.78.13.46,1.25.13.45.07.46.45-.39.07-.39h.06l.14.13.45-.26.4.19.26.46-.07.39.66-.26.13-.52-.46.26-.39-.52.39-.72.26.32.59.07v-.46H398l-.2-.39.13-.59-1.5.06-.92-.39-.33.33-.13.26-.32-.2h-.86l-.32-.06.13-.46-.59.13-.52.13Zm1.05-14.47-.52-.39-.2.39.2.33Zm-.13,1.51-.33-.39v.26Zm2.42,19.18.46.52-1.18-.19.26-.33-.65-.13.06.52-.52.07-.72-.4.59-.59.59.13.65-.13.46.07v.46Zm-.72-20.69-.2-.26-.78-.06-.39.45.65.53.52-.46Zm-.39,18.92-.46-.59.52-.33.4.59-.07.4.53.19-.33.33-.53.26-.39-.26Zm.26-36.85.26.46.53.06-.2-.13.2-.52-.2-.26Zm2.88,36.46-.66.52-1.37-.46-.46-.65.39-.26.33.65.92.07.39-.33.39-.07.33.33Zm-.85-17.09-.13-.52-1.18.13.33-.39-.53-.39v.65l.33.59.2.33.26-.27Zm-.2,14.41-.32.26-.07-.07v.07l-.79-.85.14-.92.06-.39.26.39.07.52.33.46Zm-.19-.66-.33-.33h.65l.59.66h-.46Zm-.27-30.9.46.46-.13-.52-.2-.2Zm.07,13.23.33.52.26.33.19-.2.27-.13-.4-.26-.26-.26v-.27Zm2.09,3.07.59.26-.45-.45-.59-.72-.53-.53.33-.06-.26-.52-.85.32.91,1.31Zm-1.44-19.83.2.39.26.07-.13-.33Zm1.18,21.4-.39-.32.13-.85-.39.45-.07.66.26.06Zm.46-3.2.07.39.65.26.13.66.39-.2.07-.2-.33-.45-.59-.2Zm.2,17.87.46.13v-.66l-.33-.13Zm.19-13.16.59-.2.26-.26-.26-.46-.46.46Zm.46,11.46.46.58-.13-.32.52-1.12.46-.39.33-.65.26.19-.13-.52-1.18.78ZM400.44,149l-.27-.32-.58.39-.14.46.2.13v.26l-.39.33.32.26.07-.46.26-.26.13-.59.13-.2Zm-.79,12.77-.26.26v.79l.26-.13v-.4l.39.2-.13-.33Zm.92-14.66-.07-.33h-.26l-.2.33-.06-.59-.46.26.52.33Zm1.17,18.39-.58-.2-.92-.65-.33-.13-.13.65-.26.59.33.4h.39l.2.32.26.07.91-.26Zm-1.83-4,.39-.59.2.32.33-.32.13-.33-.46-.26-.26.39-.59.46Zm1.25,4.12.32.33-.78.13-.33-.06-.39-.4-.13-.26.19-.2.26.27Zm-1.25-21.21.26.07.72.45.2-.52-.65-.33Zm.07-18.06.46-.07.19.39.33-.19-.26-.33.52-.26-.85.13Zm1.11,37.18-.92-.46-.19.52.39.66.52-.59.33.78.26.33-.13-.26Zm-.39-18.27-.13-.26-.07.33.33.33Zm.65,2.56-.39.26-.33.32.4.07Zm.26,11.58-.26.33.59.65.59.53.2.46.32-.27-.32-.32-.59-.85v-.85Zm.4,3.34-.59-.13v.92l.46.72-.2-.72.33-.33Zm.26-17.87-.33.26-.19.79.65-.53.07-.32.32.19.2-.32-.33-.14-.39-.26-.13-.32-.26.39Zm-.53,7.4.79.19.2-.32-.4.06.14-.46h-.59Zm1.38,1.18-.26-.4-.46-.19h-.26l.39.39.07.2.19-.2Zm-.85,5.23.33-.06.32-.59Zm1.05,5.31-.4.26-.32.39-.14-.26.07.39.59-.33Zm0-5.24.58-.59-.26-.2.2.2-.59.26Zm.13-30.25.19.53.72-1.11-.46.06-.26.72Zm2.94,26.58-1.7-1.37.07.32.13.72-1,.2-.2.52.33-.13.06-.26.33.2.72.06.52.66.4-.66Zm-2.49,3.54.14.39.39.26.2.2.39-.13-.33-.33-.26-.39Zm2.23,5.37-.78-.33-.79.19-.39-.13.32-.26-.26-.19.13.26-.45.13.72.52.72-.33.45.2ZM405,157.21l-.26.26-.13-.13-.39-.26-.13.39.58.2.66-.26.39-.53-.33-.32-.26-.07h-.33Zm-.26-6.81h.72v-.32l-.52-.13ZM405,161l-.13.33.39.19.4.07.06-.07-.19-.26Zm1.44.13-.13-.39-.59-.07-.39-.26-.07.26.33.13.26.46-.06.2.26-.2Zm-.91-29.72.26-.19v-.46l-.26.19Zm.06,27.82.46.46.26-.79Zm2.56,2.55-.59-.32-.46.06-.2.13.59-.06.52.59Zm-.66-11.91.13.39.85-.32.2-.2-.33.06-.19.2-.4-.39Zm1.24,7.2-.85-.06.26.45-.32.33.26.13.06-.46.2-.26Z"/><polygon class="cls-1" points="416.38 92.88 418.25 175.42 445.98 171.81 447.86 94.4 416.38 92.88"/><path class="cls-2" d="M443.64,163.89l.14,1.18v1.44l-.73,1.17-1.24.66-19.44-.13-1.31-.46-.65-1.37v-5l.13-1.25.78-1.24,4.32-1.38.66-1.44.13-2.55-.26-2.82.33-1.31-.27-2.55.13-1.31.07-2.68-.2-1.51-.06-1.11.19-5.56-.85-1.18-4-1.38-.65-1.24v-1.25l-.14-1.3v-1.44l.14-1.12v-1.24l.72-1.38,1.44-.65,2.55.13,1.24-.07,4,.07,1.44-.13,8.31.06,2.09.59.53,1.31.13,1.31-.13,1.18v3.86l-.72,1.25-1.25.72-1.44.06-1.24.72-.72,1.18v2.75l.13,1.37-.13,1.31.13,1.25-.13,2,.13,2-.26,2.75.26,2.62-.13,5.37.72,1.31,4.39,1.37.91,1.11ZM427,132.34l1.05.13.26-.2.07.07.32-.26.2-.07-.13.79-1.57.72.26.78h.26l.59.52.07,1.05.58.72-1.11.66-.19.85.39.52.39-.26.46.39.26-.13v-.52l.59-.2-.52-1.5.65-1.12-.19-.45-.46.13v-.59l-.85-.07.26-.85,1-.78v.19l-.33.46.07.39.65-.26.26.65.59-.26-.52-.65.26-1.31.52-.92.33-.06-.39-.2-.59-.39-.79-.4.2-.19.79-.26.39.32,1,.2.53-.65-.27-.27-.45.59h-.66l-.59-.78-.46-1.05-.78-.13.91-.59.14-.85-.79.72-1.44-.72-1.05-.26-.85-.59-.39.19.06.33-.19.2.13.46-.46-.2-.33-.72-1.57.46-1.37.78.13.53-.26.13.13.65.39,1-.26,1.31,1.05.92,1,.52,1.31-.59ZM422.7,165.2l.13-.79.46.26.52.46-.07-.72.72-.59-.39-.19-.46.39-1,.33-.59.91.2.92h.85Zm-.59-39,.26.13.33-.32v-.46l-.27.33Zm3.34,36.14-.07-.33-.78-.06-.66-.46.26.52-.19.53-.79-.46-1-.2-.13.26.32.33.33.72.33-.13.33-.52.39.06h.39l.53-.06Zm-2.36-33.65,1.05.52-.72-.06Zm.33-4.71.13.72H424l.52.59.85-.66-.26-.72-.26.2-.53-.46Zm.91,42.42-.65.32-.07.53.59-.26Zm-.13-40,.07.59-.4.06.07-.39Zm.53,38.88-.07-.39-.26.07-.07.26-.19.13h.26Zm1.17-3.73-.52-.52-.06-.85-.07-.46-.26.13.13.52-.66.27v.32l.53-.13.26.07.07.52Zm1.9-33.84-1.5.33v1.83l-.66.39-.39-1,.26-1.24.26-.66,1.51-.26Zm-1.44-1.57-.33-.07.27-.39Zm.13-1.83.2.91.46.07.13-.79.33.72,1.37.53.33-.86.46-.19-.07.52.72.59.26-.78.46-.2.46.06-.52.59.06.85.39-.39.53-.26-.46-.26v-.53l-.07-.45-.39.06-1.31-.72-1.64.46-.85-.26Zm.53,36.59.46-.72-.2-1-.33.13.07.85-.27.66-.06.32Zm.26-29.26-.46-.46.2-.2.52.26Zm.39-3.8.39.2-.91.39.06-.26Zm-.26,21.73h-.26l.39.07,1-.66,1-1-.33-.59-.78.39-.53-.06-.32,1Zm.39-8.11.26-.13-.26-.14-.39.66.52.33.2-.33Zm.33,25-.2-.32h-.39l-.13-.27.19.92Zm-.52-43,.19.4.4-.2-.14-.26Zm6.93,27-.45-.13-.46.4-.4-.2.46.59-.78.06h-1.38l-.72.2-.39-.46.46-.26.72.13.78-.06.07-.33-1.05-.2.13-.91.65.26L432,149l.65-.06.92.19.46-.26-.33-.2h-1.05l-1.44.2.07-.59-.52-.2-.92.53-.26.65.32.26.14.46-.46.13-.59.46h-.46l-.39-.59-.53.33.59.78.66.2.19.79-.39.59-.26-.2.2-.66-.27-.19-.39.72.52,1,.46,1-.78.33-.07.65.92.46.78.33v-.85l1.38-.46.92-.13.19-.66.07-.39-.13-.46-1.05.79-1.05,1h-.72l-.46.2-.13-.33.72-.2.27-.52-.46-.46.32-.72.46-.13-.19.52.59.33.19-.26-.33-.59v-.39l.72-.53.27.33.26.52,1-.06.2-1.11.66-.07.52-.52.19-.26Zm-5.62-18.52-.27.19-.39.2L428,132l.06-1.18-.19-.91.59-.2.26.26-.13.79.91.06.4-.32.39.65-.72.13-.07.72Zm-.27,13.48-.78.07v.72h1Zm.2-1-.26-.19-.46-.13.33.26Zm.39,17.22-.32-.66-.59-.06.26.52.52.13.07.4Zm-.39-1.25.26-.19-.26-.33-.26-.13-.2.26Zm.26-19.76.2-.59.13-.53h-.26l-.2.46-.13.46Zm2.42,3.79-.13-.26-.72.13-.39-.06-.07-.33.46-.39-.19-.59-.85.39-.46-.06-.2-.27-.13.79.85.46.2.39.19.59.92-.33Zm-2.35,6.29.52.19-.26.46-.59-.39Zm.39-3.67h.65l.33.07.33.19-.39-.26-.46-.52-.79.13Zm2.29,10.21h-.33l-.58.4-.46,1-.79.2.92.19.52-1.11Zm-1.5-16,.58-.19-.19-.59-.53.13Zm.58,5,.46.14-.26-.59-.52.13Zm.66-9.22-.59.19-.13.66.39-.2.2-.46Zm-.2-8.91H431l.19.46.46-.06Zm-.26,4.52L431,133l.52-.13.2-.33Zm.07,2-.07.46.39.13.07-.53Zm.91,22.06.72-.07-.06-.59-.4-.19-.39.65-.59-.06.07.46Zm1.31-10.15-.39-1.18.13-.78-.92.33-.65.19v.33l.52.06.33.27V146l-.13.46.13.32-.07.33Zm-.85-14.66.13-.92-.33-.26-.19.59-.53.26.07.33Zm-.85,10.41.39.39.66.13-.33-.59Zm.59,5.56h-.39l.26.33.52-.07Zm.06-20.29.92-.39.59-.72-1.05.26ZM434,138.62l-.85.13.13.53-.39.39-.4.46.27.39.19.33-.26.39.2.39.46-.39-.07-.52v-1.31l.33.06v-.59l.39-.26.65.39.66.27-.13-.4.13-.26Zm-.19,20.75-.46-.19-.33.13.39.32Zm.06-6.67-.13-.46-.46.19.26.4Zm-.39-9.37v.27l.78.13.66.06-.46-.33Zm.78-11.26-.13-.26-.59.2.26.33ZM434,143l.06-.33-.33.07-.13.19Zm3.33-17.81.86.4.32-.53-.65-.52.06-.26-.52.06-.39.2-.2.26.07.46-.72.06-1.18-.06-.26-.72-.59.19-.13.66.65.46.85.45.59-.06.26-.39.52-.59ZM434.81,127l-.33.19-.13.46.46-.2Zm-.33,21.4.46.13.52-.39.26-.53-.32.2-.33.46h-.39Zm1.37-2.95.14-.26-.66-.45-.65.19.52.39Zm-1.11-7.85.2.2h.59l-.2-.13-.26-.14Zm1,18.66-.19-.33-.59-.33-.13.26.26.26Zm.92-3.15-.39-.19-.72.33-.53.39-.13.52.33.33V154l.52-.4h.79ZM435,131.55l.4.13-.14-.26Zm.72-4-.19-.26-.33.52v.52l.39-.26Zm.26,4.25-.52-.06.46.39.59.07ZM436.9,152l-.52-.72-.85-.06.52.52Zm-.46,7.14-.26-.2-.39-.2.13.4Zm0-28.15v-.59h-.39V131Zm1.18-3.34.33.06.19-.26-.06-.32-.46.13Zm.85-3.6-.33.13.33.13.59.07.2-.46-.27.13Zm1.31,2.42-.59-.19-.59-.4-.06.46.85.39Zm.66-2.42.32.33.26-.2Z"/><polygon class="cls-1" points="446.57 89.59 449.04 173 487.71 175.42 488.54 91.56 446.57 89.59"/><path class="cls-2" d="M483.32,161.14l.07,4.06-.14,1.24-.58,1.25-1.38.65-1.24.13-4-.26-4,.2-1.18-.2-14.79.13-1.25-.72-.85-1.24.27-1.31.06-1.31-.13-2.55V159.9l-.13-1.51.19-1.18-.06-1.24.13-1.44-.2-1.38.14-2.61-.2-2.56.2-1.37V134.89l-.14-1.18.14-1.37L454,129l.27-1.9-.14-2.62.66-1.44,1.9-.46,8.57-.19,1.18.13,2.55-.07,1.31.13,2.88-.13,1.31.2,1.18-.13,5.24.06,1.37.59.66,1.31-.2,1.25-.06,1.44.19,1.24.13,2.68-.72,1.18-1.37.72-12.57.07-2,.59-.65,1.89.13,2,.78,1.18,1.12.72,5.17-.06,1.5.13h1.38l1.31-.13,2.62.06,1.11.72.59,1.25.13,1.31-.13,5.17-.66,1.24-1.31.72-1.18.07-1.37-.13-1.77.13-3.47-.2-1.31.13h-2.55l-1.18.72L466,152l-.06,3.2.59,2,1.37.79,1.44-.13,1.44.13,1.24-.2,8.64.13,2,.66.85,1.31Zm-24.55.52.79.07-.53-.85.14-1.38.65-1,1.44.39-.2.79,1.12.13,1.5-.53.59-1,1.05.07.2.59-.14,1.11.53.26.19.26.33-.2-.26-.19-.33-.79-.33-1.5-.52-.46h-.33l-1,.92-1,.72-.27-.33-.32-.33-.66-.26.13-.52.92.13h1.05l-.07-.59L464,157l-.2-.72-1.57-.13-.19.72-.53-.33V156l.53-.19.91.06.79-.52.92.06.13-.78-.26-.07.26-1.18-.92-.58v-.2h.46l.52-.66-.52-.72.91-.52.33-1,.07-.85.52-.07.2.53.91-.66,1.51-.78.85.19.07-.33-.46-.19-.66-.59-.78.72-.66-.07-.65.53h-1l-.72.26.39.72-.85,1-1.38.53-.06-.66.59.07.13-.46-1.05-.39.39-.66.53.2-.2.19.33.07.59-.33v-.46l.19-.06h-.26l-.46-.92h1.05l-.26-.06.26-.2,1-.07.72-.32.2.39-.52.39-.13.33.39-.07.59-.39.26-.92-.79.07-.32-.13.32-1.44,1.25.52.13,1h1l.07-.26-.79-.46.59-.66.46-.59.19-1,1.12-1.12,1-1.11-.72-.59-.59.85-.46.2-.33-.2.07.46.65.39-.39.33-1.05,1.11-1.31.72v-.91l-.26-.4.07-.19-.14.19-.39.92-1.31,1-.85-.33.33-.52.46-.07-.4-.72.85-.46.27-.06-.4-.26-2.55.72-1.57-.07-.26.07.26.39.19-.13.14-.26.45,1.31-.85,1.5-.26.4-.85-.72,1.05-.72.13-.85-.92-.27-.52-.06-.13.46.65.26-.46.26-.72.72-.65-.65h-.59l-.26-.2-.2.13.33.07.52.45-.13.46-.2.39.79.07h.92l.65.79.92.39-1,.65-.58.46-.27-1.11-1-.59-.79.13-.59-.26-.19.46.72.45-.2.72-.33-.32-.59.32h-.39l-.59.07-.2.46.59.26-.32.72.06.85.46-.26-.26.85-.2,1.31-.59.19v1.05l.46,1.05-.52.85.91.79-.32.85,1,.19-.52.2-.72.92.33.45.59-.32.26-.46,1.5.52-.72.33.86.85Zm-3.14-1.24.66.07-.14-.53h-.65Zm0-16,.26.59.66.46-.13-.66-.4-.45Zm1.11,20.69.86.06v-.19l-1.25-.85-.26.19.33.66-.79.45.26.4Zm-1-28.94.32.13.13-.32-.26-.4Zm.06-10.53.4-.2.06-.52-.46.13Zm1.51,17.93-.13.72,1-.06.91-.79,1.05.07v-.66h-.65l-.72.2-.72-.79h-.92l-.33.59-.19-.59v-.33l-.66.33.53,1.05Zm-.92-11.32-.26.45.65-.45-.59-.66-.19.13Zm-.13,6.08-.26.46.13.46.13-.33-.06-.32.19-.07.13-.2Zm.46,16.89.26.13-.39.2-.26-.26Zm-.26-26.64.13.26.13.2.06-.26Zm.52,17.35-.52.06.32.26.4-.06Zm1.18,5.76-1.11.06-.53-.32.59-.33.59.2.46-.07v.46Zm-1.38-10,.79-.26v-.72l.13-.27h-.06l-.53.27-.13.72Zm.13-2.42.07.26.13.19.07-.32Zm1,24.22-.53.19-.13.2h.59Zm1.63-7.27-1-.26-1.18.26-.06-.66h.78l.2-.72,1-.45.26.78.4.53Zm-1.63,9.82-.27-.26-.32.32v.33l.39.13Zm.06-23-.52.13.06-.32Zm-.39-10.28.06.4.79-.07-.2-.59Zm0,1.58h.39l.53-.33.65-.26-.07-.53-.45.33-.13.33-.66.19Zm.39,15.31-.32-.65,1.5-.46.39.13-.26.33.13.59.13-.2-.13-.32.4-.2.45.07-.19.52-.52.46Zm-.19,8.12.52.33-.52.06Zm.06-32.07.13.45.4-.13-.14-.33h-.39ZM460.48,142l.26-.92-.53-.39L460,141l-.07.39-.52.13-.13-.85-.72-.2-.59.13-.13-.06.06.06.53.46.52.33.39.65Zm-2-2.55-.13-.85h-.46v.78Zm-.26,9.36-.13-.52.46.13Zm-.07,5.3.14-.26.39-.07-.07.33Zm1.51-2.55-.66-.13.4-.2Zm-.46-15.45h.39l.07-.26h-.46Zm1.25,30-.53-.46-.72.46.46.59.66-.26ZM459.3,125.6l.32-.2.07-.39.59.52.85.13-.26-.59-.59-.33-.2.2-.26-.13-.26.06-.26.33v.4Zm.26,13.68-.2.52.72-.26.2-.53Zm.39,14.14-.46.19.2-.32Zm.13,6.15.27-.39-.4-.07-.26.59Zm.27-2.95.13.66-.72.19Zm.32-21.34-.59-.72-.19.79ZM460.21,151l.33.4H460Zm-.19,9.56.06.52.53-.19.52-.26v-.46h-.59Zm.72,3.08-.13-.4-.59-.06.19.39Zm.65-24.88-.33-.19-.06-.46-.33.13.2.33.26.32.26.13.26-.06Zm-.26-6.74-.07-.39-.32-.07v.39Zm.46,23.76-.53-.13.07-.52.59.26.39-.66.59.27-.72.72Zm-.2,9.69.46-.33-.13-.45-.59.39.26.85h.33l-.13-.33Zm0-3.73-.19.39.52-.06.26-.46Zm.33-12.83-.33-.2.07-.26Zm-.26,2.09.39.07.13.46-.46-.07Zm.32-21.53.2.46.33-.4Zm0,6.87h.73l.91.59.79-.59-.33-.2.46-1.11-.26-1-.59.33-.4.52.2.26.33-.33.32.53-.91.52-1.18-.19Zm.53,24.35-.07-.52-.39.26.07.46Zm.13,2.42-.46-.19.2.33v.26H462l.2.06Zm.39-15.77-.72.06.13-.52.66-.13Zm-.52.85-.2-.2.53-.26.13.26ZM462.18,126l.59.06.45.4.4.19.26-.65-.2-.53-.32.27-.14.45-.45-.13-.26-.19-.33-.13V126Zm3.34,14.53v-.85l-.53-.07-.19.46-.72-.26-.33-.85-.33-1,.46-.26v-.2h-.59l-.46.13.13,1.05.59,1.11-.19.26-.4.2-.26-.13-.39.39-.07.46h.46l.66.59.85-.13v-.33h-.46l-.13-.26-.27-.2v-.59h.73l.39.4.91.39.86.33-.33.26-.46.39h-.52v.33h.59l.72-.13.91-.4.53,1.25h1l-.52-.46-.2-.72.39-.07h.46l-.33-.52-.52.26-.26-.13.33-.46-.92-.59Zm-2.62-11.65.26-.4-.39.14-.4.26Zm2,33.19-.46-.2-.65.13-.72-.2-.26.4.45.39.79-.26.39-.46.2.26.2.2Zm-1.7-29.66-.33-.06.13.39.46.07Zm.52,9.5-.85-.07v.52l.79.33.46-.33Zm-.19-11.27h-.33l-.26.14.32.06Zm0,15.32-.33-.45h.59Zm.59,14.6.72-.59-.2-.33-.85.53-.53.65.4.26.65.27Zm-.4-14.2.13.32h-.39Zm.72,7.26-.52-.19.52-.2Zm-.06-9.56-.4.27v-.4Zm-.26-17,.26.65h.91l.13.85h.2l.39-1.24,1.18-.66-.13-.33-1.11.53-1.18.39.07-.39.45-.13.13-.2h-.26l-.39.26Zm3.07,4.19-.91.19-.66-.39.33-.52.26-.59-.72-.46-.2.92v.45l-.65.4-.33-.13v.39l.4-.2.19.2,1,.33h1.31v-.59ZM464.67,139l.39-.46-.39-.39-.4.59Zm-.33-13.49h.91l.4-.45-.46-.07-.33.39h-.19Zm.52,38.23-.13-.33-.39-.19.06.46Zm.79-17.15-1.18-.32.39-.86.33.14.33.78.65.13Zm.06,17.15-.26.13-.33.27.07.19.39-.33Zm0-2.16-.39-.13.13.53.33.13Zm.07-29-.07-.32-.33-.07.07.33Zm1.37,31.36-.13-.33-.65.33-.59.65.39.33.39-.65Zm.46-34.83-.52-.13-.4-.19-.06.52.26.66.59.45.39.46.33.07.52-.53-.13-.39.07-.2-.33.59-.46.26-.13-.32-.13-.66.59-.72Zm-.78-3.4.39.13v-.19l-.26-.2Zm.32,37.25.59-.26.2-.53.19-.39-.32.19-.46.46-.39.33-.07.33Zm.39-1.9.33-.26-.33-.2Zm.66,4.25-.26-.19-.2.26.33.2Zm-.33-41.76.33.65-.13.2.19-.2-.06-.32v-.4ZM469.31,164l-.59.19-.19.33h.59ZM468.72,127l.33-.07.26-.33-.46.07Zm1.51,34.75-.66-.65-.32.65.32-.13.27.07-.07.52Zm.33-16.95-.14-.13H470l-.26-.07.33.13.26.14ZM470.23,166l-.13-.26-.26-.26.13.46Zm-.33-38.55.26.39h.46l-.33-.39ZM471,130.7l-.72.13.52.46.66-.46Zm.26,16.82.52-.32-.26-.59-.65.59Zm.59-5.89-.85.66.59.52.78-.52Zm-.39,2.1-.07-.4-.32-.06v.39Zm1.5,3.86-.26-.07-.2.4-.52.26-.65.13.72.07.45-.46.33-.2Zm-.85-6.87.13.45h.72l-.19-.32Zm1.18,4.32-.46-.4-.46.07-.26-.13.13.2.4.13.26.52Zm-1.05-19.25.46-.06.46.26.33-.2-.27-.33-.59.13Zm.79,35.09-.4.06-.13.33-.19.13.59-.19Zm-.07,3.4-.13-.19-.33-.07.14.33Zm.46-36.33-.52-.2-.27.53.4.06Zm-.13,19-.46-.07v.27l.46.06Zm-.07-4.52.27.2.26-.2.39-.13.07-.32-.33.13-.07.26-.39-.13Zm.33-12.3.4.39.06-.33-.2-.32Zm2.29,34.5L475,164l-1.25-.65-.26.26.33.26.39-.2.59.79.79.59Zm-2.09-18.07.59-.07-.07-.72-.59.07Zm.65,1.5-.46-.45-.19.52.39.26Zm-.46-4.58.07.72.65.33.46-.52,1.25.26.91-.53-1.11.07-1.44-.07Zm.59,1.7-.19-.26L474,145l.14.19Zm-.32-16.36.45.13.33-.39-.59-.07Zm.52,14,.46.45.46-.19-.26-.07-.2-.52-.26-.2Zm.46,23.17-.2-.07-.26.33v.26h.39Zm0-35.28-.4-.2.07.52.46.2Zm-.4,10,.14.52.26.4V141Zm2.69,1.24.2.53.32.46.59,1.57-.46,1.11-.39-.65v-.53l-.52.07-1,.26.06.39h1l.2.66-.59.06-.39.2-.72.13-.66-.2-.2.4.2.39.85-.2.53.39-.14-.45.14-.33.39-.26.39.26.07.39.26.53.46.13-.13-.2.32-.06.27-.13-.33-.07h-.52l.39-.65.91-.4.79-.19-.92-1,.33-1.37-.65.06-.13-.39-.46-.72Zm-2.23,21,.14.46.32.32-.06-.59Zm.85-15.19-.13-.33-.52-.19.2.46Zm-.13-5.95.33.45.39-.19-.06-.26Zm.66,21.14.52-.2.13-.33h-.33l-.26.27Zm.85,1.83-.13-.19-.4.32-.19.2.33-.13Zm.2-4.71.39.06-.13-.39h-.46Zm.13-18.66.91.2.85.13.4.2-.33-.33-.65-.46-.92-.52Zm.72,20.16.45.59.2-.19-.52-.72-.59-.07-.07.33Zm.91-19.31-.52-.06v.52l.59.07ZM480.7,164l-.13-.4-.26-.52-.72.2-.66.26.2.65.46-.13-.26-.52.52-.13.52.19v.4Z"/><polygon class="cls-1" points="487.25 89.59 491.82 174.17 532.37 175.42 541.41 89.59 487.25 89.59"/><path class="cls-2" d="M531.49,166.44l-.26,1.38-1.38.32-1.44.13H525.8l-1.31-.13-1.44.13-2.36-.13-1.64-.39-1.31-1.18-.78-1-.59-1.12-.85-1.24-1.84-3.27-.45-1.25-1.71-2.29-1-1.11-1.64-.53-1.18.07h-1.18l-1.31.65-.59,1.31.14,4.06-.2,2.82.26,1.37-.13,1.38-.46,1.24-2,.66h-2l-1.37-.13-2.69.19-1.24-.06-1.31-.66-.46-1.44-.2-5.11.14-1.37-.27-3.8.2-2.68-.2-1.44.07-2.49.13-1.37v-3.28l-.2-1.89.2-18.33.52-1.38,1.25-.59,1.44.07,1.24-.2,2.68.26,1.25-.19,3.92.13,1.12-.13,1.44.13,1.31-.13,1.44.06,1.89-.06,1.64.13,5.43,1.11,2.3,1.18,3.27,2.49.59,1,.91,1,1.77,3.6.33,1.31.19,1.25.33,1.24-.06,5.17-.72,2.49-.46,1.11-.72,1.18-.46,1.24-.79,1.12-1.83,1.76-.72,1.38.2,1.57,2,3.4.85,1,.66,1.18.78,1.18.59,1.11,2.1,3.21Zm-37.84-40.06,1.18.2.4-1.25-.13-.85-.79-.06.06,1,.2.59-.33.13-.19-.39-.33-.07Zm.07.92v.59h.33v-.59Zm0,3.47h.33l-.07-.66-.19-.26.45-.33.14-.32-.53.19-.13.59v.79Zm1,29.58-.39.2-.33.26.26.07.07.52.39-.19Zm1.77-24.15-.33-.66-.72-.19-.26.59-.2-.26-.13-1-.59.07-.13.26-.06.26.59.59.65.59.52-.2.4.14Zm-2.23,5,.13.53.2.13v-.39Zm1.57-3.4-.39-.2-.46.4v-.4l-.26-.39-.33.46.79.72Zm-.32-8.9-.33-.59-.59-.2-.13.4.52.45.07,1,.32-.07.14-.65v-.33Zm-.26,24.81-.13-.33h-.4l-.26.26.26.33ZM494.9,150l-.2.26.07.32.32-.26Zm.46-2.3-.27-.39-.32-.13.06.52Zm-.46,7.66h.85l.46-.06-.4-.39-.91-.14Zm.59-23.17L495,132l.06.58.53.14Zm.26,25.86.2-.33h-.46l-.13.39Zm.33-32.86-.66.85.66.19h.45l.4.13-.26-.45v-.59l.32-.85.27.72,1.5-.53.39.13-.39.2.33.33-.66,1-.39,1.18.07.78-.92.07-.39.79-.2-1.12-.26-1-.33-.13-.26.92.85,1.44.65,1,.33-.92.66-.72.13-.46.19-.19.46-.07.39.46.27.39-.13.79.26-.13L500,129v-.46l-.39-.52-.59-.33-.46-.91,1.31-.66-.19-.65.26-.33.13,1.5.2,1.38.39.46.39.65.59-.26-.19-.39-.53.13.4-.46-.27-1.37-.72-.79.07-1,.19-.33.4-.39.13-.72-.4-.06-.19.72-.66.19-.65-.46-.85-.65-.2.33.26-.26.2.39-.72.59-.2-.79-1.17-.13-.86.92.27.32ZM496,141.9l-.07.32.33.07.26-.26Zm.58,20.81.33-.52-.06-.85-.66-.2-.26.13.46.72-.26,1,.26.66.52-.46ZM496.34,134h-.26l-.13.33Zm.65,9.82-.13-.26.33-.53-.33.2-.13.39.26.53v-.33Zm1-8.25.66-.33-.13-.52-.4.13-.45-.26-.53-.07-.19.33.39.26Zm-.39,23.76-.32-.52v-.33l-.2,1,.33.27Zm-.32-7.79.45.07-.19-.4-.4.07Zm0,3,.26.59.45-.32-.26-.59Zm1,2.62-.33.2-.13.26-.19.2.39.06.07-.46Zm.07-27.16.26.06.13-.72h-.59Zm.39,2.61.2-.45-.53.06-.06.46Zm-.13,28.15h.59l-.26-.65h-.46Zm.06-24.28.46-.07.13-.39v-.26l-.59.13v.59Zm3,26.05-.2-.13-.33.2-.39-.46h-.92l-.65-.46-.46-.2.33.46.19.46-.26.39.52-.06,1-.2.78.26Zm-2-7.73.32.27.4.13-.33-.13-.07-.33Zm.32-1.7.27.07v-.39l-.07-.46-.39.33ZM501.05,130h-.39l-.26.39v.33l.45-.39Zm-.13,6.28.26.14.13-.2Zm4.06-6.74-.39-.52-.66-.39.13.65-.26.07-.46-.79-.85-.46.39-.59.2-1,.39-.19-.13.45.07.33L504,127l.59-.39.45-1,.59.45-.19-.72-.72-.32-.53.65-.45-.39.45-.46-.32-.07-.07-.72-.32-.19-.14.59-.52-.07-.33-.2-.19-.45h-.59l.06.85-.19.46-.26.32.32.4-.13.52.52.52-.13,1.44.4,1.44.32-.26.46-.26.33,1,.39,1,.07.39.13-.46-.13-1,.59-.65Zm-3-4.71.13.59-.39-.07Zm.27,6.22-.27.2-.26.26.46.19.33-1.11-.66-.66-.13.79Zm.52,27.75-.13-.52-.59-.13v.59Zm.06-5.1-.32.06-.13.53.32-.13Zm2.95-26.19-.52-.06-.86-.07.14.59.32.66.4-.53.26.79.19-.79.2-.52.33.2-.33.32.33.07.06-.46-.19-.52Zm8.51,16.43,1-.45.79-.79.72-1.11.52-1.31.2-1.77-.13-1.9-.46-1-.66-1-2-1.24-3-.39-3.6-.07-1.05.07-1.31.65-.78,1.31.2,7.33.65,1.38,1.11.59h1.44l1.31.19Zm-8-13.94v-.26l-.26.26-.46-.06v.39l.4-.13.39.45.07.33H506v.53l.26.06.33-.26v-.72Zm.26-5.5.33-.06.13-.46-.26.06ZM507.4,153l-.26-.39-.33.06Zm.2-27.36-.72.46.06.46.72.72.66.72.39-.72-.13-.33v.39l-.72-.52.59-1.12Zm0,4.32.06.52.26-.45Zm.52,21.34.2-.59-.2-.52-.26-.26h-.26l.06.26.46.06v.4l-.2.59.27.52Zm.33-27.49.52.33v-.46Zm1.63,6.48.14.32.45-.13.2-.72.33-.45-.59.06-.46.46Zm.07-4.71.13.52.33.06-.13-.39Zm1.18,28.14-.33-.45-.2.39Zm-.2-23,.2.53.06-.33Zm.33-3.47.13.46.39.52h.79l-.2-.45-.65.06.13-.65Zm.06-2.42.2.2.06.39.33.13-.06-1-.4-.32v.39Zm.92,24.29-.39.32.13.26Zm0-25.27.13.26.26.59-.26,1.11.2.85.19-.26.4.33.39.13-.2-.33-.32-.85v-.85l.32-.13.46.72.79-.26-.13-.72-1-.66Zm1.11,5.63.13-.33-.13-.39-.65.26-.33.59.26.26.33-.39Zm-.13,25.27-.13-.4.26-.72-.52-.13.13.46-.33.2-.06.52.52-.07-.26.27.26.26Zm.13-8.06.2-.52-.26-.13-.2.39-.13.46.2.46.39-.07Zm.33,5.31-.39.32.26.13.33-.26.06-.33-.33-.45-.52-.07.07.33Zm-.46-20.75.2.26.33.72.59-.33.52-.52v-.53l-1,.33-.07-.33-.46-.06Zm14.73,33.71-.13-1.77-.65-.07-.2.66-.39-.26.06-.66-.46.07.07-.46.19-.65-.26-1.05v-.59l-1-1.64-.59-.65-.65-1-.26-.26.13-.53-.53.13-.78.26-.4-.19.2-.59.39-.59-.52-1.11-.13-1.12L522,153l-.33.46-.33.39-.26-.39v.32l.2.53-.2.59-1,.65-.39-.52.19-.33-.46-.2-.65-.06-.33-.92.46-.65.52-.2-.06-.59h-.46l-.26-.33-.07.53.33.06-.59.46-.52,1.18.59.65-.79-.19-.06-.72h-.46l.2,1.31,1.7.33-.4,1,.46.92-1,.46-.06.39.45-.07.27.53-.53.46-.06.59-1-.2-.65-.39-.46-.33.32-.72-.32-.59.06-.65.26-.53-.13-.39-.32.52-.2-.85V155l-.33-.2-.39-.26-.26-.06-.26-.27h-.27l.07.33.33.07.13.26.59.65-1.12.72-.39.66-.13-.27-.13.86.72,1,.46.85.26-.26-.26-.65-.66-.92v-.65l.26.13,1,.32-.27,1,.59.66-.06,1.3.78.2.85,1.18,1.25.65-.2.27.13.26.13-.46-.19-.52.46.13.46.91,1.17-.13.33-.85.13.66.92.26.26.13.07-.52.58-.2-.13-.92-.72-.78.4-.39.91.78.4,1.11.45-.39.07.52.13.66-.52-.13-.13.26-.66-.13-.19.65.32.33.66-.39v.92l-.72.85,1.17.59v-1.31l.4.06-.07,1.38-.32.45-.59.2.26.2.52-.26.33-.27h.65l.27-.39-.4-.2-.26-.39.33-.72h.52l.13,1.25.2,1.17.72.07h1Zm-13-36,.33-.26-.72-.72-.4-.52.27-.72-.66.39.2.85.52.46-.13.79v.72l.2.19.06-.33v-.52Zm-.33,24.16-.13.46.46-.07.13-.33Zm.33-27.23.39.45.07.4-.2.59-.13.45.13-.32.92-.2,1.11-.72.72-.2h.4l.65.2.39-.59-.19-.46-.14-.39-.39.39-1.31-.19-.59.78-.52.59-.59-.46-.26-.52-.33-.52ZM517,151.19l.2-.65.13-1.71-.52.13.13,1.25-.66.26.27.46Zm-.45,5.89.52.46.33-.59.52.26.06-.52-.13-.72-.46-.39-.19.52-.07.39Zm1-28.47L516.7,130l.26.33.52-.66.33-1-.26-.53-.4-.19-.19.33.26.06.33-.2Zm-.26,16.3.13.52.79-.52-.33-.46Zm0,7.07.33.39.26-.39.13-.66.13-.39-.46.2Zm.33,8.18.52.65-.46.4-.39-.72Zm-.07-28.81h.59l.4-.65-.66-.52.13-.33.66.19.06-.58-.39-.2-.4.39-.26.79Zm.4-3.07.52.13-.26-.79-.53-.06Zm1.44,5.24-.72-.07-.73-.33-.13.53.85.45.66-.32Zm-1.18,16.16.59.27-.07-.72-.78-.13Zm.46,15.06-.33-.46-.13.4.26.39Zm.39-29.26.06-.59-.59-.07-.13.72Zm4.38,11.19-.26-.32h-.59l.07.65h-.59l-.26-.13.19-.33-.26-.19-.59-.66-1-.33.06-.72-.52-.06-.19.26.39.52-.13.53-.66.65-.32.66.39.19.33-.72.32-.26,1.12-.19.52.58.13.53-.39.13-.33-.39-.39.19.06.66.59.13-.13.46-.85.26-.52.13.52.78-.26,1.18-.27-.52-.52.46.39.65.59-.59.46-.85.59.07v.32l.59-.39.79.59.39-.46-.52-.85.52-.39.13.26-.26-.72-.79-.06-.19,1.11-1-.26.19-.33.59-.52-.2-.59,1.12-.33ZM519.25,137l.26-.27.13-.26h-.52l-.2.46v.52l.4.27.19-.33Zm.26,11.06.07-.26-.33.19-.07.46Zm.26,11.39-.32,1.18-.2-.33v-1.18Zm.2-27.95-.33-.07-.19.72.13.52h.26v-.78Zm-.26,25.59-.2-.72.39-.2.33.85-.06.72-.33.27Zm1.37,3.73.33.85h-.33l-.06-.45-.53.39-.85.06.26-1.17ZM520.3,165l-.59-.13.13.66Zm-.46-12-.07.65.59-.19Zm.19-10.67.4.26.26-.52-.2-.2Zm0,1.5.2-.19.06-.14Zm.2-3.2.13.39.2-.39.39-.27.52-.32h-.65Zm.59,23.37.26-.2.33-.2-.59-.26-.13.52-.4.14.33.13Zm-.39-32.73.52-.07v-.52h-.52Zm1.31,11.71-.79.52-.2,1,.07.32.13-.26.26-.59.33.13.92.53.91-.07-.26-.72-.92.13-.65-.39.39-.26Zm0,22.26-.14-.85-.32.39-.4.13.33.59-.33.59.4.13Zm-.53-13.94-.13,1,.79-.2.19-.92Zm.46,5.23-.39-.46.39-.45.39.78Zm.07,1.38.45.06-.06.59-.59-.46Zm.06-23,.59-.33.46-.06.39-.2-.39.13-.26-.06.13-.33-.59-.13-.13.65Zm.59-6.42.26-.06-.26-.46Zm.53,38.5-.07-.59-.33.45Zm.13-33.65.52.06.13-.45-.46.06Zm.32,26.58.85.65-.26.33-.85-.72Zm.4-12.51.52.13.19-.85,1-.65.52-.92-.85.79-1.18.65Zm.26-15,.13.46h.46l-.13-.33Zm1,27.76-.46-.66v-.85l.33.66.39.72Zm-.2,2.81.66.13-.13.4-.27.26-.26-.13V163Zm.33-20.22.39.59h.27l.06.32h.26l-.19-.32.19-.33v-.39Zm.07,19.57h.39l-.2.59Zm.06-1.9.26-.2.4.26-.27.33Zm.72,2.29.26.33-.46.32-.26-.19Zm.53-23.24.06.4.52-.07-.32-.33Zm3.14,26.12-.33-.26-.59.46-.13.45-.2.33.33.07.06-.33.4-.26h.46Z"/><path class="cls-1" d="M298.21,266.53a6.59,6.59,0,0,1,0,.9c0,.14,0,.3,0,.48a5.6,5.6,0,0,0,0,.57,1.33,1.33,0,0,0,.32.87.9.9,0,0,0,.65.28.67.67,0,0,0,.65-.41,5.85,5.85,0,0,0,.27-1.67c.05-.7.08-1.56.11-2.59s.05-2,.05-2.86c0-.5,0-.88,0-1.15l0-1.43c0-1,0-2.07-.15-3.31,0-.56,0-1.88.12-4l0-1.11a5.52,5.52,0,0,1,1.68-.37,6,6,0,0,1,1.23.21,1,1,0,0,1,.38.67,7.27,7.27,0,0,1,.09,1.28v.69c0,.16,0,.36,0,.6a7.9,7.9,0,0,0,0,.82q.29,5.23.28,7.22v2.82c0,1.63,0,2.68-.09,3.13a6.32,6.32,0,0,1-1.28,3.53,4,4,0,0,1-3.19,1.12,11.24,11.24,0,0,1-2-.14,2.49,2.49,0,0,1-1.33-.84,5.15,5.15,0,0,1-1-2.24,13.34,13.34,0,0,1-.43-2.95,11.33,11.33,0,0,1,.09-1.36c0-.08.14-.16.34-.23a1.47,1.47,0,0,1,.66-.08l1.11.06h.71a1.4,1.4,0,0,1,.42.05.27.27,0,0,1,.17.23A4.88,4.88,0,0,1,298.21,266.53Z"/><path class="cls-1" d="M309.11,272a2.61,2.61,0,0,1-1.3-.95,6,6,0,0,1-1-2.29,28.26,28.26,0,0,1-.63-3.24,21.42,21.42,0,0,1-.17-2.83c0-.42,0-1.26.06-2.54l0-1q0-.75-.06-1.8l0-1.21a12.36,12.36,0,0,1,.12-1.7c0-.27.07-.51.08-.72s0-.37,0-.49,0-.33,0-.75a2.59,2.59,0,0,1,.22-1,1.26,1.26,0,0,1,.59-.29,3.74,3.74,0,0,1,.9-.17,5.1,5.1,0,0,1,1.22.07,2.74,2.74,0,0,1,1,.52c.19.18.28.7.28,1.55,0,.35,0,.83-.06,1.45a7.4,7.4,0,0,0,0,1.15c0,.58,0,1.19,0,1.83v2.72c0,.91,0,1.78,0,2.62s0,1.42,0,1.75l-.09,2.54a2.63,2.63,0,0,0,.2,1.21.76.76,0,0,0,.7.5c.48,0,.73-.69.77-2.08l.07-2.26c0-.41,0-.9.06-1.46s0-1.13,0-1.73,0-.88,0-1.15l0-1.42c0-1,0-2.08-.15-3.32q0-.84.12-4l0-1.12.19-.19a3.88,3.88,0,0,1,1.15-.18,4.91,4.91,0,0,1,1.3.21,1,1,0,0,1,.34.64,7.05,7.05,0,0,1,.09,1.25v1.09q0,.75,0,1.08.29,5.23.28,7.22v2.82c0,1.64,0,2.68-.09,3.13a6.47,6.47,0,0,1-1.27,3.54,4.11,4.11,0,0,1-3.2,1.11A7.57,7.57,0,0,1,309.11,272Z"/><path class="cls-1" d="M327.86,268.23c0,.87,0,1.65,0,2.33s-.05,1.08-.05,1.2a1.14,1.14,0,0,1-.68,1.18,4.79,4.79,0,0,1-1.8.28.61.61,0,0,1-.51-.12,2.66,2.66,0,0,1-.33-.78l-.18-.74a14.58,14.58,0,0,0-.5-1.71c-.27-.64-1-3.11-2.07-7.43,0,0-.1-.28-.28-.9,0,.25,0,.63,0,1.15s0,.82,0,1.3.05.82.05,1.05c.06.62.09,1.18.09,1.67,0,.71,0,1.57.05,2.59s.06,1.71.08,2.06l0,.84c0,.39-.64.59-1.92.59l-1.4,0a.31.31,0,0,1-.34-.21,1.65,1.65,0,0,1-.06-.48v-.4l0-1.55c-.05-.66-.06-1.16-.06-1.49l0-1.54q0-3.16.07-7.81l0-2.36a14.74,14.74,0,0,0-.1-1.55c-.12-1.48-.17-2.86-.15-4.12a6.27,6.27,0,0,1,1-.15l.73-.11a6.52,6.52,0,0,0,.91-.2,1.42,1.42,0,0,1,.31,0c.4,0,.68.26.87.8q.15.47.78,2.82c.08.33.21.84.4,1.53a8.59,8.59,0,0,0,.4,1.29c.14.29.6,2.09,1.36,5.39l0-1.24-.07-2.85c-.1-4.19-.15-6.86-.15-8a.73.73,0,0,1,.6-.62,5.39,5.39,0,0,1,1.5-.16c.67,0,1,.38,1,1.15s0,1.88,0,3.11.07,2.22.11,3q0,5.3.22,8.27C327.83,266.28,327.86,267.28,327.86,268.23Z"/><path class="cls-1" d="M339.65,252.12a7.77,7.77,0,0,0,0,.8l0,1.09a5.44,5.44,0,0,1-1.28.09,15.15,15.15,0,0,0-1.54.06.44.44,0,0,0-.19,0c0,.81,0,1.85,0,3.13,0,.11,0,.49,0,1.16s0,1.48,0,2.41q0,1.14-.06,3.06c0,1.24-.06,2.21-.06,2.92s0,1.32,0,1.73l.12,2.91a2,2,0,0,0,0,.45,2.6,2.6,0,0,1,0,.36.41.41,0,0,1-.25.43,4.26,4.26,0,0,1-1.64.2h-1.24a.77.77,0,0,1-.64-.37,1.7,1.7,0,0,1-.29-.87l0-.77c0-.71,0-1.41-.1-2.11s0-2.43.13-4.74l.06-2.36q0-.84-.15-3.93c-.09-1.32-.14-2.42-.16-3.29H329.6a5.1,5.1,0,0,1-.28-1.83,4,4,0,0,1,.12-1,1.19,1.19,0,0,1,.34-.61c.42,0,.94,0,1.58,0a11.82,11.82,0,0,0,1.68-.09l1.22-.13a8.15,8.15,0,0,1,1.16,0,20.74,20.74,0,0,0,2.33-.12,8.86,8.86,0,0,1,1.14-.09.84.84,0,0,1,.58.21.94.94,0,0,1,.23.69C339.7,251.6,339.68,251.83,339.65,252.12Z"/><path class="cls-1" d="M343.29,272.24a5.71,5.71,0,0,1-1.58-3.11,26.84,26.84,0,0,1-.63-3.22,22.09,22.09,0,0,1-.17-2.88c0-.42,0-1.26.06-2.54s.08-2.43.14-3.13.15-1.57.29-2.61a6.14,6.14,0,0,1,1.23-3.39,3.43,3.43,0,0,1,2.64-1,4.6,4.6,0,0,1,3.46,1.24,5.19,5.19,0,0,1,1.38,3.26q.34,3.84.34,7.06v2.85c0,1.65,0,2.71-.09,3.16a7.91,7.91,0,0,1-1.29,3.8,3.69,3.69,0,0,1-3.15,1.28A4,4,0,0,1,343.29,272.24Zm3.49-2.77a2,2,0,0,0,.29-1.15l0-6.53,0-1.18c0-.62.06-1.16.06-1.61,0-.93-.05-2-.16-3.1a8.07,8.07,0,0,0-.28-1.89.69.69,0,0,0-.68-.56c-.47,0-.7.79-.68,2.39l.06,2.16c0,.69,0,1.58-.15,2.7s-.16,2.6-.16,4.15q0,2.08.12,3.78a2.18,2.18,0,0,0,.22,1,.63.63,0,0,0,.56.28A.86.86,0,0,0,346.78,269.47Z"/><path class="cls-1" d="M361.5,270.15a3.69,3.69,0,0,1-1.2,1.58,4.88,4.88,0,0,1-3.19,1.27,4.38,4.38,0,0,1-2.8-.91,5.86,5.86,0,0,1-1.72-3.39,10.73,10.73,0,0,1-.31-2.45,11.51,11.51,0,0,1,.22-2.14l2.32.16a1,1,0,0,1,.78.54,2.9,2.9,0,0,1,.18,1.13l0,.9a11.82,11.82,0,0,0,.11,1.83,1.5,1.5,0,0,0,.36.85,1.06,1.06,0,0,0,.74.23,1.16,1.16,0,0,0,.82-.23,1.2,1.2,0,0,0,.28-.73c0-.33,0-.93,0-1.8a6.43,6.43,0,0,0-.23-1.73,10.13,10.13,0,0,0-1-2.23,19.69,19.69,0,0,0-1.37-2c-.23-.31-.45-.63-.68-1a8.19,8.19,0,0,1-.56-.93q-.74-1.55-1.05-2.43a6.12,6.12,0,0,1-.31-2.06,6.43,6.43,0,0,1,1-3.81,3.45,3.45,0,0,1,3-1.46,5,5,0,0,1,3.65,1.26A5.22,5.22,0,0,1,362,254.2l.12,2.38-2.2.34c-.43,0-.7-.14-.8-.41A5.6,5.6,0,0,1,359,255a12,12,0,0,0-.21-2.18.67.67,0,0,0-.68-.58,1,1,0,0,0-.9.48,3.42,3.42,0,0,0-.28,1.63,5.45,5.45,0,0,0,1,3.69c.95,1.05,1.73,2,2.34,2.75a12.14,12.14,0,0,1,1.47,2.42,6.25,6.25,0,0,1,.53,2.57,16.89,16.89,0,0,1-.16,2A9.6,9.6,0,0,1,361.5,270.15Z"/><text class="cls-3" transform="translate(363.28 272.76)"> </text><path class="cls-1" d="M369.23,272.48a2.44,2.44,0,0,1-.05-.62c0-.23,0-.38,0-.47v-1.48q0-1.28,0-1.74c0-.58,0-2,0-4.27q0-.75,0-1.65l0-2.35,0-7.44v-1.27a3.84,3.84,0,0,1,.49-.16,4.47,4.47,0,0,1,.62,0,1.94,1.94,0,0,1,.93.2c.25.14.36.44.34.92s-.06,1.86-.06,4.52v4.12c0,2.26,0,4.17-.06,5.74v.83l0,4.87c0,.39-.36.59-1.08.59l-.84,0C369.37,272.76,369.27,272.66,369.23,272.48Z"/><path class="cls-1" d="M375.21,272.54a2.5,2.5,0,0,1-1.18-1.7,38.78,38.78,0,0,1-.59-5.89l0-1.12a11.28,11.28,0,0,1,.72-4.27,5,5,0,0,1,1.24-2A2.47,2.47,0,0,1,377,257a3.5,3.5,0,0,1,1.87.45,3.09,3.09,0,0,1,1.17,1.63,12.86,12.86,0,0,1,.77,4.43l0,1.71c0,.62-.05,1.44-.14,2.46a19.93,19.93,0,0,1-.26,2.09,5.44,5.44,0,0,1-1.2,2.42,2.37,2.37,0,0,1-1.78.83A4.7,4.7,0,0,1,375.21,272.54Zm3.19-8.21c0-.58,0-1.26,0-2.05a6.38,6.38,0,0,0-.32-2.46,1.05,1.05,0,0,0-1-.7.74.74,0,0,0-.66.37,3,3,0,0,0-.36,1.09c-.08.47-.18,1.25-.28,2.32a6.74,6.74,0,0,0,0,.81l0,2.76a13.43,13.43,0,0,0,.31,3.48c.21.69.54,1,1,1a1,1,0,0,0,.93-.73,5,5,0,0,0,.31-2.18Q378.34,267.33,378.4,264.33Z"/><path class="cls-1" d="M394.3,263.15c0,1.2,0,2.05,0,2.54,0,.89,0,2.2,0,3.94v2.2a2.61,2.61,0,0,1-.13.94.59.59,0,0,1-.45.37,4.36,4.36,0,0,1-1,.08l-.68-.15c0-.73-.06-3.8-.06-9.24a6.32,6.32,0,0,1,0-.65c0-.58.07-1.08.07-1.52,0-1.75-.36-2.63-1.06-2.63s-1.16.74-1.49,2.23c0,3.78,0,5.81,0,6.07,0,.62,0,1.52,0,2.7v1.52a1.34,1.34,0,0,1-.31,1,1.3,1.3,0,0,1-.84.26,3.64,3.64,0,0,1-.48,0l-.45,0c-.12,0-.2-.08-.23-.22a2.49,2.49,0,0,1-.05-.5v-3l.06-6.79c0-.78,0-1.56,0-2.32l0-7.35v-1.24a5.16,5.16,0,0,1,1.61-.18c.52.08.79.23.81.46,0,1-.08,3.25-.13,6.7a2.58,2.58,0,0,1,2.08-1.59,3.41,3.41,0,0,1,1.41.28,1.53,1.53,0,0,1,.82.84,4.41,4.41,0,0,1,.42,1.24,9.18,9.18,0,0,1,.09,1c0,.33,0,.58,0,.75C394.29,261.23,394.3,262,394.3,263.15Z"/><path class="cls-1" d="M403.38,263.86q0,1.27-.06,2.64l0,.93,0,4.15a1.46,1.46,0,0,1-.24,1,.81.81,0,0,1-.66.27l-.45,0a3.87,3.87,0,0,0-.48,0c-.09,0-.19-.44-.31-1.31-.81,1-1.55,1.55-2.23,1.55a2.54,2.54,0,0,1-1.5-.41,3.32,3.32,0,0,1-1-1.54,9,9,0,0,1-.31-2.72,14.14,14.14,0,0,1,.17-2.3,5,5,0,0,1,.48-1.64,4,4,0,0,1,1.21-1.53,3,3,0,0,1,1.61-.36,1.7,1.7,0,0,1,1.42.68l0-1.77a5.31,5.31,0,0,0-.29-1.82c-.2-.56-.51-.87-.95-.93a2,2,0,0,0-1.3.31,3.08,3.08,0,0,0-.83.74,2,2,0,0,1-.59-.42,1.2,1.2,0,0,1-.28-.6,1.86,1.86,0,0,1,.2-.89,2.82,2.82,0,0,1,.82-.79,3,3,0,0,1,.95-.44,4.49,4.49,0,0,1,1.13-.11,2.77,2.77,0,0,1,1.9.68,3.16,3.16,0,0,1,1,1.49A19.75,19.75,0,0,1,403.38,263.86ZM401,269.19l0-1.79,0-2c-.23-.76-.59-1.16-1.08-1.18s-.79.4-1,1.26a11.82,11.82,0,0,0-.33,2.93,3.29,3.29,0,0,0,.35,1.7c.22.37.47.56.74.56C400.2,270.65,400.64,270.16,401,269.19Z"/><path class="cls-1" d="M409.87,259.79a1,1,0,0,0-1-.7c-.87,0-1.3,1.39-1.3,4.15v2.95q0,4.74,1.3,4.74a1,1,0,0,0,.93-.59,9.64,9.64,0,0,0,.65-1.8l.19-.62a.49.49,0,0,1,.49-.4.71.71,0,0,1,.5.19,2.47,2.47,0,0,1,.51.45.68.68,0,0,1,.14.44,2.28,2.28,0,0,1-.12.69,7.7,7.7,0,0,1-1.34,2.86,2.37,2.37,0,0,1-1.89.85,3.75,3.75,0,0,1-2.09-.54,2.88,2.88,0,0,1-1.1-1.93c-.1-.48-.21-1.22-.31-2.22s-.17-2.12-.22-3.36c0-.58,0-1.31.05-2.2a9.47,9.47,0,0,1,.33-2.17,7,7,0,0,1,1.47-2.9,2.56,2.56,0,0,1,1.78-.7,2.78,2.78,0,0,1,2.18.87,6.33,6.33,0,0,1,1.2,3.07,1.9,1.9,0,0,1,0,.4,2.6,2.6,0,0,1-.16.87,2.34,2.34,0,0,1-1.11.31c-.42,0-.63-.17-.65-.53A9.47,9.47,0,0,0,409.87,259.79Z"/><path class="cls-1" d="M420.39,268.11a1.38,1.38,0,0,1,.37.4.93.93,0,0,1,.13.5,1.32,1.32,0,0,1-.1.46,7.91,7.91,0,0,1-1.39,2.73,2.4,2.4,0,0,1-1.83,1,3.65,3.65,0,0,1-2.14-.59,3.2,3.2,0,0,1-1.14-2.07,23,23,0,0,1-.56-5.27l0-1a15.66,15.66,0,0,1,.52-3.88,5.82,5.82,0,0,1,1.18-2.32,2.51,2.51,0,0,1,1.89-1.12,2.78,2.78,0,0,1,2.25,1,7.32,7.32,0,0,1,1.22,3.46A14.78,14.78,0,0,1,421,264a4.08,4.08,0,0,1-.28,1.76l-.84.16a10.33,10.33,0,0,1-2.51.31c-.24,0-.66,0-1.24-.06v1a7.89,7.89,0,0,0,.39,2.91c.26.6.56.9.89.9s.5-.18.71-.53a9.81,9.81,0,0,0,.65-1.49c.23-.6.37-1,.43-1.05a.43.43,0,0,1,.37-.25.94.94,0,0,1,.5.22C420.11,267.89,420.23,268,420.39,268.11Zm-3.86-8.26a12.66,12.66,0,0,0-.45,3.58V264h1.74a5.84,5.84,0,0,0,.74,0c.15,0,.22-.36.22-1.09l0-.93a11.35,11.35,0,0,0-.41-2.34c-.18-.58-.48-.88-.89-.88S416.79,259.12,416.53,259.85Z"/><path class="cls-1" d="M434.12,263c0,1.31,0,2.21,0,2.7,0,.89,0,2.15,0,3.78v2a2.37,2.37,0,0,1-.14.94.66.66,0,0,1-.47.37,4.41,4.41,0,0,1-1,.08l-.65-.15c0-.73-.06-3.7-.06-8.93,0-.27,0-.5,0-.71q.06-.93.06-1.74c0-1.73-.27-2.6-.8-2.6s-1,.8-1.37,2.45c0,.5,0,1.28,0,2.35s0,1.7,0,2.11q0,1.33,0,3.78v2a2.2,2.2,0,0,1-.14.94.63.63,0,0,1-.45.37,4.11,4.11,0,0,1-1,.08l-.68-.15c0-.73-.06-3.7-.06-8.93,0-.27,0-.5,0-.71,0-.58.06-1.12.06-1.61,0-1.63-.27-2.45-.81-2.45s-1,.57-1.33,1.7c-.06,1.64-.09,3.12-.09,4.47l0,2.1q0,.63,0,1.86l0,2.36a1.3,1.3,0,0,1-.3,1,1.13,1.13,0,0,1-.81.27,3.64,3.64,0,0,1-.48,0l-.45,0c-.13,0-.2-.08-.22-.22a3.73,3.73,0,0,1,0-.5v-.4l0-3.25,0-4.09c0-.62,0-1.31,0-2.05l0-3.56v-1.27a6,6,0,0,1,1.64-.16,9.51,9.51,0,0,1,.5,1.18c.6-1.12,1.3-1.68,2.1-1.7a2.49,2.49,0,0,1,1.19.29,1.78,1.78,0,0,1,.83.82l.24.59c.6-1.32,1.37-2,2.3-2a2.4,2.4,0,0,1,1.13.29,1.88,1.88,0,0,1,.79.79,4.77,4.77,0,0,1,.42,1.29,9.75,9.75,0,0,1,.09,1c0,.33,0,.55,0,.68C434.11,260.92,434.12,261.73,434.12,263Z"/><path class="cls-1" d="M437.68,272.54a2.5,2.5,0,0,1-1.18-1.7,38.78,38.78,0,0,1-.59-5.89l0-1.12a11.28,11.28,0,0,1,.72-4.27,5,5,0,0,1,1.24-2,2.47,2.47,0,0,1,1.67-.62,3.47,3.47,0,0,1,1.87.45,3.09,3.09,0,0,1,1.17,1.63,12.86,12.86,0,0,1,.77,4.43l0,1.71c0,.62-.05,1.44-.14,2.46a16.86,16.86,0,0,1-.27,2.09,5.33,5.33,0,0,1-1.19,2.42,2.37,2.37,0,0,1-1.78.83A4.7,4.7,0,0,1,437.68,272.54Zm3.19-8.21c0-.58,0-1.26,0-2.05a6.58,6.58,0,0,0-.32-2.46,1.05,1.05,0,0,0-1-.7.77.77,0,0,0-.67.37,3.16,3.16,0,0,0-.35,1.09c-.08.47-.18,1.25-.28,2.32a6.74,6.74,0,0,0,0,.81l0,2.76a13.43,13.43,0,0,0,.31,3.48c.21.69.54,1,1,1a1,1,0,0,0,.93-.73,5,5,0,0,0,.31-2.18Q440.81,267.33,440.87,264.33Z"/><path class="cls-1" d="M445.77,272.21a4.06,4.06,0,0,1-1.09-2.43c0-.37-.06-.6-.06-.68a1,1,0,0,1,.23-.76,3.75,3.75,0,0,1,.82-.45,1.14,1.14,0,0,1,.53.14.82.82,0,0,1,.25.48c0,.17.1.49.17,1a2.5,2.5,0,0,0,.4,1.13.93.93,0,0,0,.79.4,1.35,1.35,0,0,0,1-.56,2.3,2.3,0,0,0,.5-1.58,3.59,3.59,0,0,0-.48-1.67,6.14,6.14,0,0,0-1.13-1.52,11.29,11.29,0,0,1-2-3,5.48,5.48,0,0,1-.56-2.27,4.61,4.61,0,0,1,.1-1,3.58,3.58,0,0,1,1-2,2.58,2.58,0,0,1,1.95-.81,2.87,2.87,0,0,1,1,.17,8.56,8.56,0,0,1,1,.48,2,2,0,0,1,.71.87,3,3,0,0,1,.28,1.09c0,.16,0,.39.05.68a4.38,4.38,0,0,1,0,.8l-1.06.25a.6.6,0,0,1-.56-.37,2.31,2.31,0,0,1-.18-1,2,2,0,0,0-.26-1,.86.86,0,0,0-.77-.47,1,1,0,0,0-.94.72,2.49,2.49,0,0,0-.29,1.24,3.45,3.45,0,0,0,.52,1.45,7.88,7.88,0,0,0,.93,1.36c.75.83,1.25,1.43,1.52,1.8a8.51,8.51,0,0,1,.84,1.55,4.43,4.43,0,0,1,.32,1.18,9.33,9.33,0,0,1,.11,1.36,5.6,5.6,0,0,1-.06.75,6.09,6.09,0,0,1-.37,1.42,2.28,2.28,0,0,1-.78,1,5.76,5.76,0,0,1-1.27.76,3.53,3.53,0,0,1-1.42.26A2.45,2.45,0,0,1,445.77,272.21Z"/><path class="cls-1" d="M469.41,259.34c0,1.13.06,2.31.06,3.53s0,1.86,0,2.36,0,1.55,0,2.78,0,2,0,2.48,0,.84,0,1a1.15,1.15,0,0,1-.61,1.18,3.94,3.94,0,0,1-1.61.28l-1.18-.15c0-.15,0-.66,0-1.52q0-.78.09-7.56c0-.77,0-1.54,0-2.33v-.43l-.4,1a23.08,23.08,0,0,0-.75,2.6l-.31,1.15a1.28,1.28,0,0,1-1.33,1.11,1.19,1.19,0,0,1-.62-.14.94.94,0,0,1-.37-.63c-.54-1.94-.94-3.25-1.21-3.94v.62c0,1.24,0,2.59.06,4,.07,2.07.1,3.64.1,4.71a1.18,1.18,0,0,1-.48,1.1,2.48,2.48,0,0,1-1.32.3l-.84,0a3.8,3.8,0,0,0-.65,0,.28.28,0,0,1-.31-.2,1.78,1.78,0,0,1-.06-.51v-.52l-.06-1.62,0-1.27v-1l0-8,0-2.79c0-.39,0-.9-.09-1.52-.11-1.82-.15-3.2-.13-4.15a10.31,10.31,0,0,1,2.26-.19,2,2,0,0,1,.8.14,1,1,0,0,1,.44.61l.31,1a7.77,7.77,0,0,1,.38,1.18c.14.55.66,2.33,1.54,5.33l.41,1.36c.74-3,1.29-5.13,1.64-6.42l.25-1.23a13.94,13.94,0,0,1,.52-2.48,1.5,1.5,0,0,1,.66-.45,4.76,4.76,0,0,1,.92-.17,1.45,1.45,0,0,1,.32,0,1.52,1.52,0,0,0,.43-.07.63.63,0,0,1,.66.21,1.25,1.25,0,0,1,.27.88c0,.85,0,2,.05,3.42s.05,2.32.07,2.65S469.37,258.2,469.41,259.34Z"/><path class="cls-1" d="M481.22,271a4.35,4.35,0,0,1,.06.66,1.17,1.17,0,0,1-.28.87.85.85,0,0,1-.71.22q-.23,0-.84-.06a18.1,18.1,0,0,0-2.29-.13l-.78.06a8.81,8.81,0,0,1-1.42.1,5.11,5.11,0,0,0-1,.06l-.51.06c-.2,0-.43,0-.7,0-.58,0-.87-.12-.87-.37l0-.93c0-.93,0-1.74-.09-2.45s0-2.27.12-4.4l.06-2.26q0-.53,0-1-.09-2.79-.09-3.72l-.06-.74c0-.37-.07-.63-.07-.78s0-.38,0-.6,0-.44,0-.67l-.1-1.52c0-.24,0-.59,0-1a6.3,6.3,0,0,1,0-1c.41,0,.93,0,1.55,0a9.39,9.39,0,0,0,1.33-.06l2.2-.13c1.74-.14,2.78-.22,3.13-.22s.66.16.75.47a1.11,1.11,0,0,1,.06.34,6.29,6.29,0,0,1-.05.65,6.7,6.7,0,0,0,0,.74l0,1.06a3.88,3.88,0,0,1-.86.06,13.12,13.12,0,0,0-1.37.06,8.45,8.45,0,0,1-1.42.09l-1,.07v1.39c0,.29,0,.6,0,.92a7.79,7.79,0,0,0,0,.85c0,.31,0,.59,0,.83q-.06.93-.06,1.86v.72a4.75,4.75,0,0,0,.81-.07l1-.12a9.91,9.91,0,0,0,1.33-.12c.48-.07.72.21.72.83l0,2.14a5.58,5.58,0,0,1-1.58.19c-.44,0-.78,0-1,0l-1.27.12.13,5.42q.4,0,1,0c.31,0,.58,0,.82,0l.67,0a15.56,15.56,0,0,1,2.57.12l.15.93C481.14,270.59,481.18,270.78,481.22,271Z"/><path class="cls-1" d="M486.3,266.53q0,.62,0,.9c0,.14,0,.3,0,.48a3.79,3.79,0,0,0,0,.57,1.28,1.28,0,0,0,.31.87.92.92,0,0,0,.65.28.66.66,0,0,0,.65-.41,5.74,5.74,0,0,0,.28-1.67c0-.7.08-1.56.11-2.59s0-2,0-2.86c0-.5,0-.88,0-1.15l0-1.43c0-1-.05-2.07-.15-3.31,0-.56,0-1.88.12-4l0-1.11a5.64,5.64,0,0,1,1.68-.37,6.1,6.1,0,0,1,1.24.21,1,1,0,0,1,.37.67,7.27,7.27,0,0,1,.09,1.28v.69c0,.16,0,.36,0,.6a7.67,7.67,0,0,0,0,.82q.28,5.23.28,7.22v2.82c0,1.63,0,2.68-.09,3.13a6.4,6.4,0,0,1-1.27,3.53,4.05,4.05,0,0,1-3.19,1.12,11.08,11.08,0,0,1-2-.14,2.42,2.42,0,0,1-1.33-.84,5,5,0,0,1-1-2.24,13.34,13.34,0,0,1-.43-2.95,9.58,9.58,0,0,1,.09-1.36c0-.08.13-.16.34-.23a1.41,1.41,0,0,1,.65-.08l1.11.06h.72a1.5,1.5,0,0,1,.42.05.28.28,0,0,1,.17.23A5,5,0,0,1,486.3,266.53Z"/><path class="cls-1" d="M496.28,272.24a5.71,5.71,0,0,1-1.58-3.11,29.27,29.27,0,0,1-.64-3.22,24,24,0,0,1-.17-2.88c0-.42,0-1.26.06-2.54s.09-2.43.14-3.13.15-1.57.3-2.61a6.07,6.07,0,0,1,1.22-3.39,3.46,3.46,0,0,1,2.65-1,4.62,4.62,0,0,1,3.46,1.24,5.3,5.3,0,0,1,1.38,3.26c.22,2.56.34,4.91.34,7.06v2.85a31.3,31.3,0,0,1-.1,3.16,7.81,7.81,0,0,1-1.28,3.8,3.69,3.69,0,0,1-3.15,1.28A4,4,0,0,1,496.28,272.24Zm3.49-2.77a2.06,2.06,0,0,0,.29-1.15l0-6.53,0-1.18c0-.62.06-1.16.06-1.61,0-.93-.05-2-.15-3.1a8.65,8.65,0,0,0-.28-1.89.69.69,0,0,0-.68-.56c-.48,0-.71.79-.68,2.39l.06,2.16c0,.69-.06,1.58-.16,2.7s-.15,2.6-.15,4.15q0,2.08.12,3.78a2.06,2.06,0,0,0,.22,1,.61.61,0,0,0,.56.28A.86.86,0,0,0,499.77,269.47Z"/><path class="cls-1" d="M516.27,271.92a.83.83,0,0,1-.72.84l-.79.24a3.6,3.6,0,0,1-1.13.22,1.33,1.33,0,0,1-.87-.37,2.42,2.42,0,0,1-.65-.9l-.59-1.83a37.27,37.27,0,0,0-1.21-3.69l-.77-1.51,0,6.41a1.07,1.07,0,0,1-.31.84,4.11,4.11,0,0,1-.87.55h-1.92a.83.83,0,0,1-.68-.35,1.47,1.47,0,0,1-.31-.85c0-.36,0-.64,0-.87,0-.91,0-1.59-.06-2s0-2.09.15-4.55c.09-1.53.13-2.38.13-2.54l-.07-3c0-.76-.05-2.14-.11-4.12s-.06-3.37,0-4.15a7.25,7.25,0,0,1,1.19-.28c.49-.08.86-.14,1.13-.16l1,0c.75,0,1.33-.06,1.77-.06a4.73,4.73,0,0,1,1.81.39,5.91,5.91,0,0,1,1.65,1,2.64,2.64,0,0,1,.85,1.28,6.07,6.07,0,0,1,.18,1.24c0,.43,0,.86,0,1.3,0,.62,0,1.09,0,1.42,0,.75.06,1.24.06,1.49a7.07,7.07,0,0,1-.22,1.81,7.59,7.59,0,0,1-.81,1.91,5.12,5.12,0,0,1-1.79,1.92,6.33,6.33,0,0,1,1.77,2.51c.55,1.69,1,3,1.45,3.95s.63,1.44.65,1.5A1.76,1.76,0,0,1,516.27,271.92Zm-6.61-19.31c0,1.18-.08,2-.12,2.36-.08,1.38-.11,2.16-.09,2.32l.06,4.47a3,3,0,0,0,1.21-.92,2.47,2.47,0,0,0,.65-1.25,19.22,19.22,0,0,0,.12-2.33c0-1,0-2.07-.09-3.13C511.38,253.33,510.8,252.82,509.66,252.61Z"/><rect class="cls-1" x="339.31" y="190.64" width="132.26" height="38.1"/><path class="cls-2" d="M364.37,200.17l0,5.8c0,1.49,0,3.36-.07,5.6,0,2.45-.06,3.76,0,3.92,0,.46,0,1.15,0,2.06s0,1.51,0,1.91,0,.64,0,.74a1.68,1.68,0,0,1-.27,1.11,1,1,0,0,1-.79.29l-.55,0c-.21,0-.41,0-.62,0s-.19-.2-.36-.61-.34-.89-.5-1.41c-1,1.53-2.07,2.3-3,2.3a5,5,0,0,1-2.7-.64,4.6,4.6,0,0,1-1.67-2.45,16,16,0,0,1-.51-2.34,28.1,28.1,0,0,1-.31-3.54,24.78,24.78,0,0,1,.27-3A9,9,0,0,1,354,207a10.36,10.36,0,0,1,1.25-1.95,3.17,3.17,0,0,1,1.22-.91,4.39,4.39,0,0,1,1.65-.26,3.15,3.15,0,0,1,2.68,1.37c0-1.3,0-3.19,0-5.67v-1.51a.84.84,0,0,1,.52-.63,3.36,3.36,0,0,1,1-.12c1.07-.09,1.78.12,2.13.65C364.38,198.34,364.37,199.07,364.37,200.17ZM359.82,218a7.52,7.52,0,0,0,.91-2c0-.23,0-1.68.11-4.36l0-1.79v-1a5.25,5.25,0,0,0-.94-1.58,1.63,1.63,0,0,0-1.15-.62,1.7,1.7,0,0,0-1.5,1,7.8,7.8,0,0,0-.77,2.84,6.55,6.55,0,0,0-.11,1.4,25.73,25.73,0,0,0,.18,2.68,8.45,8.45,0,0,0,.72,3.08,1.64,1.64,0,0,0,1.44,1.08C359.1,218.75,359.46,218.49,359.82,218Z"/><path class="cls-2" d="M376.74,216.5a2.9,2.9,0,0,1,.48.57,1.12,1.12,0,0,1,.17.58,1.21,1.21,0,0,1-.14.55,8.6,8.6,0,0,1-1.94,2.87,3.65,3.65,0,0,1-2.52,1,6.49,6.49,0,0,1-3.23-.72,4.19,4.19,0,0,1-1.86-2.44,23.27,23.27,0,0,1-.89-6.63,13.77,13.77,0,0,1,.69-4.33,7.8,7.8,0,0,1,2-2.81,4.07,4.07,0,0,1,2.7-1.31,4.75,4.75,0,0,1,3.38,1.12,7.2,7.2,0,0,1,1.91,3.86,12.6,12.6,0,0,1,.31,2.75,4.25,4.25,0,0,1-.41,2.16l-1.45.18a18.1,18.1,0,0,1-3.88.41c-.36,0-.94,0-1.71-.07v.69a6.65,6.65,0,0,0,.61,3.09,1.7,1.7,0,0,0,1.45,1,1.43,1.43,0,0,0,1.08-.55,12.57,12.57,0,0,0,1.15-1.61l.48-.76a.65.65,0,0,1,.58-.31.9.9,0,0,1,.59.24C376.37,216.15,376.53,216.31,376.74,216.5Zm-5.7-9.07a9.7,9.7,0,0,0-.76,3.87v.13c.32,0,.74,0,1.25,0h2.77c.25,0,.38-.35.38-1.06a3.81,3.81,0,0,0,0-.69q-.34-3.54-2.13-3.54C372,206.15,371.47,206.57,371,207.43Z"/><path class="cls-2" d="M395.29,216.5a3.82,3.82,0,0,1,.48.57,1.12,1.12,0,0,1,.17.58,1.21,1.21,0,0,1-.14.55,8.6,8.6,0,0,1-1.94,2.87,3.65,3.65,0,0,1-2.52,1,6.46,6.46,0,0,1-3.23-.72,4.19,4.19,0,0,1-1.86-2.44,23.27,23.27,0,0,1-.89-6.63,13.77,13.77,0,0,1,.69-4.33,7.68,7.68,0,0,1,2-2.81,4.07,4.07,0,0,1,2.7-1.31,4.75,4.75,0,0,1,3.38,1.12,7.2,7.2,0,0,1,1.91,3.86,13.25,13.25,0,0,1,.31,2.75,4.13,4.13,0,0,1-.42,2.16l-1.44.18a18.1,18.1,0,0,1-3.88.41c-.36,0-.94,0-1.72-.07v.69a6.76,6.76,0,0,0,.62,3.09,1.7,1.7,0,0,0,1.45,1,1.45,1.45,0,0,0,1.08-.55,12.57,12.57,0,0,0,1.15-1.61l.48-.76a.65.65,0,0,1,.58-.31.9.9,0,0,1,.59.24C394.92,216.15,395.08,216.31,395.29,216.5Zm-5.71-9.07a9.9,9.9,0,0,0-.75,3.87v.13c.32,0,.74,0,1.25,0h2.77c.25,0,.38-.35.38-1.06a5.05,5.05,0,0,0,0-.69q-.35-3.54-2.13-3.54C390.51,206.15,390,206.57,389.58,207.43Z"/><path class="cls-2" d="M409.58,220.85l0,4.39c0,.78,0,1.31,0,1.58a1.63,1.63,0,0,1-1.65,1,2.15,2.15,0,0,1-.45,0l-.5,0a1.13,1.13,0,0,1-.65-.28,1.36,1.36,0,0,1-.36-.72L406,220c-.94,1.21-1.84,1.82-2.71,1.82a5,5,0,0,1-2.7-.64,4.6,4.6,0,0,1-1.67-2.45,16,16,0,0,1-.51-2.34,30.11,30.11,0,0,1-.31-3.54,24.78,24.78,0,0,1,.27-3,9,9,0,0,1,.76-2.87,10.89,10.89,0,0,1,1.25-1.95,3.17,3.17,0,0,1,1.22-.91,4.39,4.39,0,0,1,1.65-.26,3.52,3.52,0,0,1,3.13,2,7.45,7.45,0,0,1,.38-1.13c.13-.32.24-.48.31-.48s.41,0,.63,0l.6,0a1.18,1.18,0,0,1,.86.29,1.52,1.52,0,0,1,.31,1.12c0,.06,0,.25,0,.56s0,.82,0,1.53c0,1,0,1.82-.07,2.37,0,.18,0,1.49,0,3.92.05,2.24.07,4.12.07,5.63v1.24Zm-4.5-3a9.46,9.46,0,0,0,1-2.32q-.13-5.33-.1-6.84a4.73,4.73,0,0,0-.93-1.42,1.55,1.55,0,0,0-1.1-.57,1.68,1.68,0,0,0-1.49,1.05,7.68,7.68,0,0,0-.77,2.8,6.73,6.73,0,0,0-.11,1.41,25.73,25.73,0,0,0,.18,2.68,8.39,8.39,0,0,0,.72,3.07,1.62,1.62,0,0,0,1.44,1.08C404.3,218.75,404.69,218.44,405.08,217.81Z"/><path class="cls-2" d="M423.45,213.8l0,2.17q0,.85,0,1.41l0,3.09v1a13.56,13.56,0,0,1-2.48.17,7.48,7.48,0,0,1-.92-2,6.73,6.73,0,0,1-1.65,1.87,3.28,3.28,0,0,1-2,.71,4.71,4.71,0,0,1-1.85-.38,2.37,2.37,0,0,1-1.24-1,6.52,6.52,0,0,1-.6-1.6,11.43,11.43,0,0,1-.15-1.73c0-.44,0-1.3,0-2.58s0-2.29,0-2.82c0-1.74.07-3,.07-3.81,0-1,0-1.7,0-2.13s0-.71,0-.83c0-.66.19-1.08.57-1.27a4.55,4.55,0,0,1,1.84-.27l1,.17q.11,1.2.1,9.52l0,1.71a8.3,8.3,0,0,0,.34,2.61,1.3,1.3,0,0,0,1.3,1,1.56,1.56,0,0,0,1.36-1,11.42,11.42,0,0,0,.94-2.73c0-.62,0-1.47,0-2.54s0-1.89,0-2.17c0-.45,0-1.15,0-2.09s0-1.51,0-1.91,0-.64,0-.74a1.21,1.21,0,0,1,.44-1.11,2.13,2.13,0,0,1,1.2-.3c.26,0,.51,0,.76,0l.69,0a.32.32,0,0,1,.34.23,1.45,1.45,0,0,1,.05.53c0,.21,0,.37,0,.48,0,.41,0,.76,0,1q0,1.28,0,1.89C423.57,209.46,423.55,211.24,423.45,213.8Z"/><path class="cls-2" d="M427,201.34a2.51,2.51,0,0,1-.38-1.83,2,2,0,0,1,.65-1.27,2.23,2.23,0,0,1,1.48-.58,1.85,1.85,0,0,1,1,.24l.48.28a1.47,1.47,0,0,1,.52.67,1.84,1.84,0,0,1,.17.91,2.65,2.65,0,0,1-.67,1.54,1.91,1.91,0,0,1-1.46.62A2.16,2.16,0,0,1,427,201.34Zm0,20a1.7,1.7,0,0,1-.05-.53c0-.21,0-.37,0-.48V219c0-.73,0-1.27,0-1.61q-.08-1.49.06-5.43l0-2.13,0-1.2c0-.83-.06-1.59-.06-2.3l0-1.38a9.1,9.1,0,0,1,2.06-.31c.76,0,1.21.15,1.34.45a5.41,5.41,0,0,1,.17,1.79c0,2.4,0,4.73-.07,7v1.65c0,.69,0,1.71,0,3.06v2.09q0,1-1.65,1l-.82,0a5.68,5.68,0,0,0-.69,0A.32.32,0,0,1,426.92,221.31Z"/><path class="cls-2" d="M444.86,209.75c.15,1.38.24,2.41.24,3.09a19,19,0,0,1-.86,5.77,4.76,4.76,0,0,1-1.74,2.51,4.91,4.91,0,0,1-2.69.69,3.4,3.4,0,0,1-2.54-1.68c0,1.21,0,2.94,0,5.18v1.34a1,1,0,0,1-.43.79,1.7,1.7,0,0,1-.65.21l-.43,0a1.62,1.62,0,0,1-.45,0,1.57,1.57,0,0,1-1.65-1c0-.26,0-.72,0-1.41l0-4.6v-1.21l0-6.45,0-3.06c0-.92-.07-1.59-.07-2,0-.62,0-1.17,0-1.65s0-.75,0-.82a1.53,1.53,0,0,1,.31-1.12,1.27,1.27,0,0,1,.89-.29,5.44,5.44,0,0,1,.57,0,4.22,4.22,0,0,0,.64,0c.16,0,.41.6.75,1.82a4.15,4.15,0,0,1,3.61-2.13,4,4,0,0,1,1.48.22,2.72,2.72,0,0,1,1,.84,12,12,0,0,1,1.16,1.89A10.28,10.28,0,0,1,444.86,209.75Zm-3.23,2.06a13,13,0,0,0-.07-1.51c-.21-2.43-.91-3.64-2.1-3.64a1.78,1.78,0,0,0-1.15.6,6.14,6.14,0,0,0-1,1.43c0,.5,0,2.22-.07,5.15,0,.57,0,1.19,0,1.85a9.09,9.09,0,0,0,.94,2.19,1.56,1.56,0,0,0,1.15.87c.57.05,1-.29,1.41-1a9.2,9.2,0,0,0,.76-3.12A21.32,21.32,0,0,0,441.63,211.81Z"/><path class="cls-2" d="M449.85,221.23a3.45,3.45,0,0,1-1.83-2,23.87,23.87,0,0,1-1-6.36,12.2,12.2,0,0,1,.89-5.63q1.65-3.33,4.53-3.33a7,7,0,0,1,3.16.58,4.81,4.81,0,0,1,2,2.23,12.3,12.3,0,0,1,1.06,5l0,1.41a19.68,19.68,0,0,1-.24,2.66,12.32,12.32,0,0,1-.48,2.29,6.48,6.48,0,0,1-1.86,2.78,4.21,4.21,0,0,1-2.78,1A8.36,8.36,0,0,1,449.85,221.23Zm5.21-9.55c0-.81,0-1.33,0-1.59a5.13,5.13,0,0,0-.66-2.61,1.88,1.88,0,0,0-1.6-.79,1.62,1.62,0,0,0-1.51,1,9,9,0,0,0-.76,3.12c0,.19,0,.63,0,1.34,0,.9,0,1.64,0,2.23q.11,4.68,2.27,4.68a1.86,1.86,0,0,0,1.53-.79,4.2,4.2,0,0,0,.67-2.34C455,214.25,455.06,212.84,455.06,211.68Z"/><polygon class="cls-1" points="820 94.01 820 0 0 0 0 106.71 820 94.01"/><line class="cls-4" x1="3.51" y1="55" x2="819.89" y2="55"/><path class="cls-2" d="M33.24,47.83l1.35,2.34,7.8-1.37a.21.21,0,0,0,.16-.13.2.2,0,0,0,0-.2,5.19,5.19,0,0,0-.56-.78,3,3,0,0,0-2.66-.93Z"/><path class="cls-2" d="M24.72,53.8a1.64,1.64,0,0,1-1.67-1.23,1.1,1.1,0,0,1,0-.18,1.45,1.45,0,0,1,.11-.54A1.62,1.62,0,0,1,24.63,51a1.63,1.63,0,0,1,1.67,1.24.88.88,0,0,1,0,.17,1.12,1.12,0,0,1-.11.54,1.61,1.61,0,0,1-1.49.85m3-1.4a2.71,2.71,0,0,0,0-.4,2.22,2.22,0,0,0-.09-.37,3.12,3.12,0,0,0-.17-.46c0-.06-.06-.13-.08-.19h.05l.84,0a15.91,15.91,0,0,0,1.72,0l.19,0-.57-1a3.61,3.61,0,0,1-.38-1c-.26.12-.56.25-.92.38a6.91,6.91,0,0,1-1.82.3,7.84,7.84,0,0,1-1.35-.11h0a3.55,3.55,0,0,0-.46,0,3,3,0,0,0-2.71,1.65,2.79,2.79,0,0,0-.25,1.21c0,.14,0,.28,0,.41a3.1,3.1,0,0,0,3.06,2.46,3,3,0,0,0,2.7-1.66,2.66,2.66,0,0,0,.25-1.21"/><path class="cls-2" d="M28.4,42.93a1.59,1.59,0,0,1-.3-1.69,1.1,1.1,0,0,1,.34-.43.71.71,0,0,1,.14-.1,1.64,1.64,0,0,1,2,.48,1.59,1.59,0,0,1,.3,1.69,1.08,1.08,0,0,1-.33.43l-.15.1a1.64,1.64,0,0,1-2-.48m2.73,6.17a.7.7,0,1,1,.34.93.7.7,0,0,1-.34-.93m-1.65-2.36a9.91,9.91,0,0,1,.44,1.56,4.13,4.13,0,0,0,.4,1.2l2.35,4.08H35.6l-3.26-5.65L31.8,47c-.06-.11-.37-.46-1.11-1.31L30.14,45l0,0,.19-.06a3.61,3.61,0,0,0,.46-.17l.35-.16a3.88,3.88,0,0,0,.33-.23,2.68,2.68,0,0,0,.77-1,3,3,0,0,0-.47-3.14,3.1,3.1,0,0,0-3.85-.76,3.88,3.88,0,0,0-.33.23,2.68,2.68,0,0,0-.77,1,3,3,0,0,0,.47,3.14,2.57,2.57,0,0,0,.33.33h0a8.22,8.22,0,0,1,.95,1,6.53,6.53,0,0,1,.94,1.58"/></svg>