<?xml version="1.0" encoding="utf-8"?>
<!-- Generator: Adobe Illustrator 24.2.3, SVG Export Plug-In . SVG Version: 6.00 Build 0)  -->
<svg version="1.1" id="Capa_1" xmlns="http://www.w3.org/2000/svg" xmlns:xlink="http://www.w3.org/1999/xlink" x="0px" y="0px"
	 viewBox="0 0 325.8 359.1" style="enable-background:new 0 0 325.8 359.1;" xml:space="preserve">
<style type="text/css">
	.st0{fill:#E6D9D9;}
	.st1{fill:#FFFFFF;}
	.st2{fill:#F2987A;}
	.st3{fill:#EB6739;}
	.st4{fill:#E84E24;}
</style>
<g>
	
		<rect x="-6.1" y="27.2" transform="matrix(4.366959e-03 -1 1 4.366959e-03 -16.8989 345.1374)" class="st0" width="341.9" height="307.6"/>
	
		<rect x="4.8" y="37" transform="matrix(4.366959e-03 -1 1 4.366959e-03 -16.8995 345.1364)" class="st1" width="320.2" height="288.1"/>
	<polygon class="st2" points="1,356.8 42.7,357 17.1,341.2 1.2,311.6 	"/>
	<polygon class="st3" points="3.2,320.2 3.1,354.8 32.7,355 14.5,342.8 	"/>
	<polygon class="st2" points="3.1,321 3,354.8 33.4,354.8 4.9,352.7 	"/>
	<polygon class="st2" points="307.4,342.4 281.7,358.1 323.5,358.2 323.7,312.9 	"/>
	<polygon class="st3" points="321.6,321.6 321.4,356.2 291.8,356.1 310,344.1 	"/>
	<polygon class="st2" points="321.6,322.4 321.5,356.2 291.1,355.9 319.6,354 	"/>
	<polygon class="st2" points="325,2.4 283.3,2.2 308.9,18.1 324.8,47.7 	"/>
	<polygon class="st3" points="322.8,39 323,4.4 293.3,4.3 311.5,16.4 	"/>
	<polygon class="st2" points="322.9,38.2 323,4.4 292.7,4.4 321.2,6.5 	"/>
	<polygon class="st4" points="2.5,1 2.3,46.3 18.5,16.8 44.2,1.2 	"/>
	<polygon class="st3" points="4.4,37.7 4.6,3 34.2,3.2 15.9,15.1 	"/>
	<polygon class="st2" points="4.3,36.9 4.5,3 34.9,3.3 6.4,5.2 	"/>
</g>
</svg>
