<?xml version="1.0" encoding="utf-8"?>
<!-- Generator: Adobe Illustrator 21.1.0, SVG Export Plug-In . SVG Version: 6.00 Build 0)  -->
<svg version="1.1" id="Capa_1" xmlns="http://www.w3.org/2000/svg" xmlns:xlink="http://www.w3.org/1999/xlink" x="0px" y="0px"
	 viewBox="0 0 282.574 215.083" style="enable-background:new 0 0 282.574 215.083;" xml:space="preserve">
<style type="text/css">
	.st0{clip-path:url(#SVGID_2_);}
	.st1{clip-path:url(#SVGID_4_);}
	.st2{clip-path:url(#SVGID_6_);fill:#CAE0F5;}
	.st3{clip-path:url(#SVGID_4_);fill:#FFFFFF;}
	.st4{clip-path:url(#SVGID_4_);fill:none;stroke:#9C9B9B;stroke-width:2.547;}
	.st5{clip-path:url(#SVGID_8_);fill:url(#SVGID_9_);}
	.st6{clip-path:url(#SVGID_11_);fill:url(#SVGID_12_);}
	.st7{clip-path:url(#SVGID_14_);fill:#FFD97E;}
</style>
<g>
	<defs>
		<rect id="SVGID_1_" width="282.574" height="215.083"/>
	</defs>
	<clipPath id="SVGID_2_">
		<use xlink:href="#SVGID_1_"  style="overflow:visible;"/>
	</clipPath>
	<g class="st0">
		<defs>
			<rect id="SVGID_3_" width="282.574" height="215.083"/>
		</defs>
		<clipPath id="SVGID_4_">
			<use xlink:href="#SVGID_3_"  style="overflow:visible;"/>
		</clipPath>
		<g class="st1">
			<g>
				<defs>
					<rect id="SVGID_5_" x="-7.326" y="-10.186" width="307.188" height="235.239"/>
				</defs>
				<clipPath id="SVGID_6_">
					<use xlink:href="#SVGID_5_"  style="overflow:visible;"/>
				</clipPath>
				<path class="st2" d="M7.249,23.356c-9.237,3.363,24.858,189.938,34.062,191.727c177.361-10.017,193.595-10.185,236.011-14.856
					c11.95-8.705,2.892-186.196-20.947-192.189C231.856,4.264,16.486,19.993,7.249,23.356"/>
			</g>
		</g>
		<path class="st3" d="M8.085,11.514C-1.961,14.83-2.176,199.761,16.169,206.453c183.794-7.655,205.401-4.776,249.734-8.942
			c13.721-8.76,18.951-188.712-4.53-195.218C236.824-1.946,18.131,8.198,8.085,11.514"/>
		<path class="st4" d="M8.085,11.514C-1.961,14.83-2.176,199.761,16.169,206.453c183.794-7.655,205.401-4.776,249.734-8.942
			c13.721-8.76,18.951-188.712-4.53-195.218C236.824-1.946,18.131,8.198,8.085,11.514z"/>
	</g>
	<g class="st0">
		<defs>
			<path id="SVGID_7_" d="M230.462,25.963c0,8.325,6.35,15.162,14.451,15.898h2.904c7.669-0.697,13.765-6.857,14.397-14.573v-2.65
				C261.544,16.442,254.704,10,246.365,10C237.583,10,230.462,17.147,230.462,25.963"/>
		</defs>
		<clipPath id="SVGID_8_">
			<use xlink:href="#SVGID_7_"  style="overflow:visible;"/>
		</clipPath>
		
			<linearGradient id="SVGID_9_" gradientUnits="userSpaceOnUse" x1="-253.7626" y1="654.9405" x2="-252.7626" y2="654.9405" gradientTransform="matrix(31.806 0 0 -31.806 8301.6963 20856.9863)">
			<stop  offset="0" style="stop-color:#BFC7D3"/>
			<stop  offset="1" style="stop-color:#D7DBE2"/>
		</linearGradient>
		<rect x="230.462" y="10" class="st5" width="31.752" height="31.861"/>
	</g>
	<g class="st0">
		<defs>
			<path id="SVGID_10_" d="M229.384,24.393c0,8.816,7.12,15.963,15.903,15.963s15.904-7.147,15.904-15.963
				c0-8.816-7.121-15.963-15.904-15.963S229.384,15.577,229.384,24.393"/>
		</defs>
		<clipPath id="SVGID_11_">
			<use xlink:href="#SVGID_10_"  style="overflow:visible;"/>
		</clipPath>
		
			<radialGradient id="SVGID_12_" cx="-245.6994" cy="665.3632" r="0.9999" gradientTransform="matrix(16.0733 0 0 -16.1338 4194.4805 10759.3369)" gradientUnits="userSpaceOnUse">
			<stop  offset="0" style="stop-color:#FFCF08"/>
			<stop  offset="0.1381" style="stop-color:#FFCF08"/>
			<stop  offset="0.357" style="stop-color:#FECB0A"/>
			<stop  offset="0.5897" style="stop-color:#FCBE0E"/>
			<stop  offset="0.6292" style="stop-color:#FBBB0F"/>
			<stop  offset="0.7203" style="stop-color:#F9B80F"/>
			<stop  offset="0.7891" style="stop-color:#F4AE10"/>
			<stop  offset="0.8506" style="stop-color:#EB9E11"/>
			<stop  offset="0.9078" style="stop-color:#DE8713"/>
			<stop  offset="0.9616" style="stop-color:#CE6A15"/>
			<stop  offset="1" style="stop-color:#C05017"/>
		</radialGradient>
		<rect x="229.384" y="8.43" class="st6" width="31.807" height="31.926"/>
	</g>
	<g class="st0">
		<defs>
			<rect id="SVGID_13_" width="282.574" height="215.083"/>
		</defs>
		<clipPath id="SVGID_14_">
			<use xlink:href="#SVGID_13_"  style="overflow:visible;"/>
		</clipPath>
		<path class="st7" d="M233.307,26.452c0-7.872,6.363-14.253,14.212-14.253c3.784,0,7.22,1.486,9.767,3.905
			c-2.581-3.59-6.784-5.93-11.534-5.93c-7.848,0-14.211,6.381-14.211,14.253c0,4.076,1.709,7.75,4.444,10.348
			C234.301,32.433,233.307,29.56,233.307,26.452"/>
	</g>
</g>
</svg>
