<?xml version="1.0" encoding="utf-8"?>
<!-- Generator: Adobe Illustrator 21.1.0, SVG Export Plug-In . SVG Version: 6.00 Build 0)  -->
<svg version="1.1" id="Capa_1" xmlns="http://www.w3.org/2000/svg" xmlns:xlink="http://www.w3.org/1999/xlink" x="0px" y="0px"
	 viewBox="0 0 42.2 11.9" style="enable-background:new 0 0 42.2 11.9;" xml:space="preserve">
<style type="text/css">
	.st0{clip-path:url(#SVGID_2_);fill:#D5D1E9;}
</style>
<g>
	<defs>
		<rect id="SVGID_1_" width="42.2" height="11.9"/>
	</defs>
	<clipPath id="SVGID_2_">
		<use xlink:href="#SVGID_1_"  style="overflow:visible;"/>
	</clipPath>
	<path class="st0" d="M0.2,7.3c4.7-5.2,13.8-6,20.4-5.5C27.4,2.5,32.5,5.7,38.2,9c0.3,0.1,0.4-0.2,0.3-0.4C34.7,1.9,25.5-0.1,18.3,0
		C12.9,0.1,1.9,0.9,0,7.3C0,7.4,0.1,7.4,0.2,7.3"/>
	<path class="st0" d="M30.4,10c1.9-0.1,3.6-0.2,5.4,0.3c1.8,0.5,3.5,1.1,5.2,1.5c0.7,0.2,1.4-0.6,1.1-1.3c-0.4-0.9-0.9-1.7-1.4-2.6
		c-0.7-1.2-1.7-2.4-1.9-3.8c-0.3-2.9-4.3-0.2-2.3,1.2c1.7,1.2,2.7,4.1,3.7,5.9c0.4-0.4,0.7-0.9,1.1-1.3c-2.8-0.8-9-3.3-11.1-0.1
		C30.3,9.9,30.3,10,30.4,10"/>
</g>
</svg>
