<?xml version="1.0" encoding="utf-8"?>
<!-- Generator: Adobe Illustrator 26.0.2, SVG Export Plug-In . SVG Version: 6.00 Build 0)  -->
<svg version="1.1" id="Layer_1" xmlns="http://www.w3.org/2000/svg" xmlns:xlink="http://www.w3.org/1999/xlink" x="0px" y="0px"
	 viewBox="0 0 786.5 54.9" style="enable-background:new 0 0 786.5 54.9;" xml:space="preserve">
<style type="text/css">
	.st0{fill:#504F4F;}
	.st1{fill:#FFCC00;}
</style>
<g>
	<g>
		<path class="st0" d="M9.3,50c0-2.6-2.1-4.6-4.6-4.6C2.1,45.3,0,47.4,0,50c0,2.6,2.1,4.6,4.6,4.6C7.2,54.6,9.3,52.5,9.3,50"/>
	</g>
	<g>
		<path class="st0" d="M9.3,5.4c0-2.6-2.1-4.6-4.6-4.6C2.1,0.8,0,2.9,0,5.4c0,2.6,2.1,4.6,4.6,4.6C7.2,10.1,9.3,8,9.3,5.4"/>
	</g>
	<g>
		<path class="st1" d="M4.6,49.5c-0.8,0-1.5-0.7-1.5-1.5V6.4c0-0.8,0.7-1.5,1.5-1.5c0.8,0,1.5,0.7,1.5,1.5V48
			C6.1,48.8,5.5,49.5,4.6,49.5L4.6,49.5z"/>
	</g>
</g>
<g>
	<g>
		<path class="st0" d="M786.5,50c0-2.6-2.1-4.6-4.6-4.6c-2.6,0-4.6,2.1-4.6,4.6c0,2.6,2.1,4.6,4.6,4.6
			C784.4,54.6,786.5,52.5,786.5,50"/>
	</g>
	<g>
		<path class="st0" d="M786.5,5.4c0-2.6-2.1-4.6-4.6-4.6c-2.6,0-4.6,2.1-4.6,4.6c0,2.6,2.1,4.6,4.6,4.6
			C784.4,10.1,786.5,8,786.5,5.4"/>
	</g>
	<g>
		<path class="st1" d="M781.9,49.5c-0.8,0-1.5-0.7-1.5-1.5V6.4c0-0.8,0.7-1.5,1.5-1.5c0.8,0,1.5,0.7,1.5,1.5V48
			C783.4,48.8,782.7,49.5,781.9,49.5L781.9,49.5z"/>
	</g>
</g>
</svg>
