<?xml version="1.0" encoding="utf-8"?>
<!-- Generator: Adobe Illustrator 21.1.0, SVG Export Plug-In . SVG Version: 6.00 Build 0)  -->
<svg version="1.1" id="Capa_1" xmlns="http://www.w3.org/2000/svg" xmlns:xlink="http://www.w3.org/1999/xlink" x="0px" y="0px"
	 viewBox="0 0 25.109 13.904" style="enable-background:new 0 0 25.109 13.904;" xml:space="preserve">
<style type="text/css">
	.st0{clip-path:url(#SVGID_2_);fill:#FFFFFF;}
	.st1{clip-path:url(#SVGID_2_);fill:none;stroke:#AEC90B;stroke-width:0.776;stroke-linecap:round;}
	.st2{fill:#AEC90B;}
	.st3{clip-path:url(#SVGID_4_);fill:#AEC90B;}
</style>
<g>
	<defs>
		<rect id="SVGID_1_" width="25.109" height="13.904"/>
	</defs>
	<clipPath id="SVGID_2_">
		<use xlink:href="#SVGID_1_"  style="overflow:visible;"/>
	</clipPath>
	<path class="st0" d="M3.321,0.388c0,0-2.933,0-2.933,2.933v7.263c0,0,0,2.932,2.933,2.932h18.467c0,0,2.933,0,2.933-2.932V3.321
		c0,0,0-2.933-2.933-2.933H3.321z"/>
	<path class="st1" d="M3.321,0.388c0,0-2.933,0-2.933,2.933v7.263c0,0,0,2.932,2.933,2.932h18.467c0,0,2.933,0,2.933-2.932V3.321
		c0,0,0-2.933-2.933-2.933H3.321z"/>
	<polyline class="st1" points="11.024,13.511 13.684,6.951 11.024,0.392 	"/>
</g>
<rect x="17.468" y="3.513" class="st2" width="1.614" height="7.17"/>
<g>
	<defs>
		<rect id="SVGID_3_" width="25.109" height="13.904"/>
	</defs>
	<clipPath id="SVGID_4_">
		<use xlink:href="#SVGID_3_"  style="overflow:visible;"/>
	</clipPath>
	<path class="st3" d="M8.197,4.885c0.286,0.086,0.54,0.188,0.76,0.305l0.466-1.293C9.368,3.863,9.276,3.814,9.149,3.752
		C9.021,3.69,8.859,3.63,8.663,3.571c-0.197-0.058-0.432-0.11-0.704-0.155S7.381,3.349,7.043,3.349
		c-0.496,0-0.963,0.082-1.401,0.248C5.204,3.762,4.823,4.006,4.498,4.326C4.174,4.647,3.919,5.039,3.733,5.501
		C3.547,5.963,3.454,6.494,3.454,7.094c0,0.593,0.084,1.121,0.253,1.583c0.169,0.462,0.409,0.852,0.719,1.169
		c0.31,0.317,0.684,0.558,1.123,0.724c0.437,0.165,0.925,0.248,1.463,0.248c0.628,0,1.156-0.043,1.583-0.129
		c0.428-0.086,0.738-0.167,0.931-0.243V6.897H7.912v2.494c-0.096,0.02-0.208,0.034-0.336,0.041c-0.127,0.007-0.281,0.01-0.46,0.01
		c-0.331,0-0.621-0.057-0.869-0.17C5.999,9.158,5.792,8.997,5.626,8.79c-0.165-0.206-0.29-0.453-0.372-0.739
		C5.171,7.765,5.13,7.446,5.13,7.094c0-0.724,0.167-1.295,0.501-1.712c0.335-0.418,0.878-0.626,1.63-0.626
		C7.599,4.756,7.911,4.799,8.197,4.885"/>
</g>
</svg>
