<?xml version="1.0" encoding="utf-8"?>
<!-- Generator: Adobe Illustrator 21.1.0, SVG Export Plug-In . SVG Version: 6.00 Build 0)  -->
<svg version="1.1" id="Capa_1" xmlns="http://www.w3.org/2000/svg" xmlns:xlink="http://www.w3.org/1999/xlink" x="0px" y="0px"
	 viewBox="0 0 743.801 491.304" style="enable-background:new 0 0 743.801 491.304;" xml:space="preserve">
<style type="text/css">
	.st0{clip-path:url(#SVGID_2_);fill:#EDE8D8;}
	.st1{clip-path:url(#SVGID_4_);fill:#F08700;}
	.st2{clip-path:url(#SVGID_4_);fill:#E95153;}
	.st3{clip-path:url(#SVGID_4_);fill:#009CC4;}
	.st4{clip-path:url(#SVGID_4_);fill:#AEC90B;}
	.st5{clip-path:url(#SVGID_6_);fill:none;stroke:#FFFFFF;stroke-width:1.496;stroke-linecap:round;}
	.st6{clip-path:url(#SVGID_6_);fill:#FFFFFF;}
	.st7{fill:#F08700;}
	.st8{fill:none;stroke:#FFFFFF;stroke-width:1.496;stroke-linecap:round;}
	.st9{fill:#AEC90B;}
	.st10{clip-path:url(#SVGID_8_);fill:#E95153;}
	.st11{fill:none;stroke:#FFFFFF;stroke-width:1.4956;stroke-linecap:round;}
	.st12{fill:#009CC4;}
	.st13{clip-path:url(#SVGID_10_);fill:#FFFFFF;}
	.st14{clip-path:url(#SVGID_10_);fill:none;stroke:#E95153;stroke-width:1.496;stroke-linecap:round;}
	.st15{clip-path:url(#SVGID_10_);fill:none;stroke:#F08700;stroke-width:1.496;stroke-linecap:round;}
	.st16{clip-path:url(#SVGID_10_);fill:none;stroke:#009CC4;stroke-width:1.496;stroke-linecap:round;}
	.st17{clip-path:url(#SVGID_10_);fill:none;stroke:#AEC90B;stroke-width:1.496;stroke-linecap:round;}
</style>
<g>
	<defs>
		<rect id="SVGID_1_" width="743.801" height="491.304"/>
	</defs>
	<clipPath id="SVGID_2_">
		<use xlink:href="#SVGID_1_"  style="overflow:visible;"/>
	</clipPath>
	<path class="st0" d="M365.683,470.665c122.972,0,222.661-99.689,222.661-222.661S488.655,25.343,365.683,25.343
		s-222.661,99.689-222.661,222.661S242.711,470.665,365.683,470.665"/>
</g>
<g>
	<defs>
		<path id="SVGID_3_" d="M161.82,248.004c0,112.59,91.273,203.863,203.864,203.863c112.589,0,203.862-91.273,203.862-203.863
			c0-112.591-91.273-203.862-203.862-203.862C253.093,44.142,161.82,135.413,161.82,248.004"/>
	</defs>
	<clipPath id="SVGID_4_">
		<use xlink:href="#SVGID_3_"  style="overflow:visible;"/>
	</clipPath>
	<rect x="141.863" y="20.51" class="st1" width="223.85" height="226.746"/>
	<rect x="365.683" y="20.51" class="st2" width="223.85" height="226.746"/>
	<rect x="365.683" y="247.257" class="st3" width="223.85" height="226.746"/>
	<rect x="142.175" y="247.257" class="st4" width="223.85" height="226.746"/>
</g>
<g>
	<defs>
		<rect id="SVGID_5_" width="743.801" height="491.304"/>
	</defs>
	<clipPath id="SVGID_6_">
		<use xlink:href="#SVGID_5_"  style="overflow:visible;"/>
	</clipPath>
	<circle class="st5" cx="365.683" cy="248.004" r="203.863"/>
	<path class="st6" d="M365.683,370.299c67.541,0,122.295-54.754,122.295-122.295s-54.754-122.295-122.295-122.295
		s-122.295,54.754-122.295,122.295S298.142,370.299,365.683,370.299"/>
</g>
<polygon class="st7" points="225.908,136.147 162.935,138.008 163.34,184.438 226.312,182.576 226.385,190.841 255.806,158.836 
	225.83,127.35 "/>
<polygon class="st8" points="225.908,136.147 162.935,138.008 163.34,184.438 226.312,182.576 226.385,190.841 255.806,158.836 
	225.83,127.35 "/>
<polygon class="st9" points="225.469,352.419 166.114,351.854 163.684,305.486 223.039,306.051 222.606,297.798 253.926,327.947 
	225.93,361.205 "/>
<polygon class="st8" points="225.469,352.419 166.114,351.854 163.684,305.486 223.039,306.051 222.606,297.798 253.926,327.947 
	225.93,361.205 "/>
<g>
	<defs>
		<rect id="SVGID_7_" width="743.801" height="491.304"/>
	</defs>
	<clipPath id="SVGID_8_">
		<use xlink:href="#SVGID_7_"  style="overflow:visible;"/>
	</clipPath>
	<polygon class="st10" points="504.004,136.153 574.035,137.136 574.035,183.568 504.004,182.584 504.004,190.85 474.304,159.102 
		504.004,127.355 	"/>
</g>
<polygon class="st11" points="504.004,136.153 574.035,137.136 574.035,183.568 504.004,182.584 504.004,190.85 474.304,159.102 
	504.004,127.355 "/>
<polygon class="st12" points="513.125,352.5 573.965,350.062 573.156,303.637 512.314,306.076 512.17,297.812 483.031,330.072 
	513.277,361.296 "/>
<polygon class="st8" points="513.125,352.5 573.965,350.062 573.156,303.637 512.314,306.076 512.17,297.812 483.031,330.072 
	513.277,361.296 "/>
<g>
	<defs>
		<rect id="SVGID_9_" width="743.801" height="491.304"/>
	</defs>
	<clipPath id="SVGID_10_">
		<use xlink:href="#SVGID_9_"  style="overflow:visible;"/>
	</clipPath>
	<path class="st13" d="M707.844,239.59c0,0,15.282,0,15.282-15.282V35.957c0,0,0-15.282-15.282-15.282H541.957
		c0,0-15.283,0-15.283,15.282v188.351c0,0,0,15.282,15.283,15.282H707.844z"/>
	<path class="st14" d="M707.844,239.59c0,0,15.282,0,15.282-15.282V35.957c0,0,0-15.282-15.282-15.282H541.957
		c0,0-15.283,0-15.283,15.282v188.351c0,0,0,15.282,15.283,15.282H707.844z"/>
	<path class="st13" d="M191.014,239.59c0,0,15.282,0,15.282-15.282V35.957c0,0,0-15.282-15.282-15.282H35.957
		c0,0-15.283,0-15.283,15.282v188.351c0,0,0,15.282,15.283,15.282H191.014z"/>
	<path class="st15" d="M191.014,239.59c0,0,15.282,0,15.282-15.282V35.957c0,0,0-15.282-15.282-15.282H35.957
		c0,0-15.283,0-15.283,15.282v188.351c0,0,0,15.282,15.283,15.282H191.014z"/>
	<path class="st13" d="M707.844,470.629c0,0,15.282,0,15.282-15.283V272.639c0,0,0-15.282-15.282-15.282H541.957
		c0,0-15.283,0-15.283,15.282v182.707c0,0,0,15.283,15.283,15.283H707.844z"/>
	<path class="st16" d="M707.844,470.629c0,0,15.282,0,15.282-15.283V272.639c0,0,0-15.282-15.282-15.282H541.957
		c0,0-15.283,0-15.283,15.282v182.707c0,0,0,15.283,15.283,15.283H707.844z"/>
	<path class="st13" d="M191.014,470.603c0,0,15.282,0,15.282-15.282V272.613c0,0,0-15.282-15.282-15.282H35.957
		c0,0-15.283,0-15.283,15.282v182.708c0,0,0,15.282,15.283,15.282H191.014z"/>
	<path class="st17" d="M191.014,470.603c0,0,15.282,0,15.282-15.282V272.613c0,0,0-15.282-15.282-15.282H35.957
		c0,0-15.283,0-15.283,15.282v182.708c0,0,0,15.282,15.283,15.282H191.014z"/>
</g>
</svg>
