<svg id="Capa_1" data-name="Capa 1" xmlns="http://www.w3.org/2000/svg" viewBox="0 0 8.96 548.16"><defs><style>.cls-1{fill:none;stroke:#e3c49a;stroke-miterlimit:10;stroke-width:2px;}</style></defs><title>img_002)</title><polyline class="cls-1" points="7.71 351.61 6.18 356.98 4.65 362.34 3.12 356.98 1.59 351.61"/><polyline class="cls-1" points="7.69 337.6 6.16 342.96 4.63 348.33 3.1 342.96 1.57 337.6"/><polyline class="cls-1" points="7.69 323.59 6.16 328.95 4.63 334.31 3.1 328.95 1.57 323.59"/><polyline class="cls-1" points="7.69 309.57 6.16 314.94 4.63 320.3 3.1 314.94 1.57 309.57"/><polyline class="cls-1" points="7.69 295.56 6.16 300.92 4.63 306.29 3.1 300.92 1.57 295.56"/><polyline class="cls-1" points="7.69 281.55 6.16 286.91 4.63 292.27 3.1 286.91 1.57 281.55"/><polyline class="cls-1" points="7.69 267.53 6.16 272.9 4.63 278.26 3.1 272.9 1.57 267.53"/><polyline class="cls-1" points="7.08 253.52 5.55 258.88 4.02 264.25 2.49 258.88 0.96 253.52"/><polyline class="cls-1" points="7.69 239.5 6.16 244.87 4.63 250.23 3.1 244.87 1.57 239.5"/><polyline class="cls-1" points="7.69 225.49 6.16 230.85 4.63 236.22 3.1 230.85 1.57 225.49"/><polyline class="cls-1" points="7.71 365.63 6.18 370.99 4.65 376.36 3.12 370.99 1.59 365.63"/><polyline class="cls-1" points="7.73 435.69 6.2 441.06 4.67 446.42 3.13 441.06 1.6 435.69"/><polyline class="cls-1" points="7.7 421.68 6.17 427.05 4.64 432.41 3.11 427.05 1.58 421.68"/><polyline class="cls-1" points="7.7 407.67 6.17 413.03 4.64 418.4 3.11 413.03 1.58 407.67"/><polyline class="cls-1" points="7.7 393.65 6.17 399.02 4.64 404.38 3.11 399.02 1.58 393.65"/><polyline class="cls-1" points="7.7 379.64 6.17 385 4.64 390.37 3.11 385 1.58 379.64"/><polyline class="cls-1" points="7.73 449.71 6.2 455.07 4.67 460.44 3.13 455.07 1.6 449.71"/><polyline class="cls-1" points="7.7 519.78 6.17 525.14 4.64 530.5 3.11 525.14 1.58 519.78"/><polyline class="cls-1" points="7.67 505.76 6.14 511.13 4.62 516.49 3.08 511.13 1.55 505.76"/><polyline class="cls-1" points="7.67 491.75 6.14 497.11 4.62 502.48 3.08 497.11 1.55 491.75"/><polyline class="cls-1" points="7.67 477.74 6.14 483.1 4.62 488.46 3.08 483.1 1.55 477.74"/><polyline class="cls-1" points="7.67 463.72 6.14 469.09 4.62 474.45 3.08 469.09 1.55 463.72"/><polyline class="cls-1" points="7.7 533.79 6.17 539.15 4.64 544.52 3.11 539.15 1.58 533.79"/><polyline class="cls-1" points="7.98 28.3 6.45 33.67 4.92 39.03 3.39 33.67 1.86 28.3"/><polyline class="cls-1" points="7.96 14.29 6.43 19.65 4.9 25.02 3.37 19.65 1.84 14.29"/><polyline class="cls-1" points="7.96 0.27 6.43 5.64 4.9 11 3.37 5.64 1.84 0.27"/><polyline class="cls-1" points="7.98 42.31 6.45 47.68 4.92 53.04 3.39 47.68 1.86 42.31"/><polyline class="cls-1" points="8 112.38 6.47 117.75 4.94 123.11 3.41 117.75 1.88 112.38"/><polyline class="cls-1" points="7.97 98.37 6.44 103.73 4.91 109.1 3.38 103.73 1.85 98.37"/><polyline class="cls-1" points="7.97 84.36 6.44 89.72 4.91 95.08 3.38 89.72 1.85 84.36"/><polyline class="cls-1" points="7.97 70.34 6.44 75.71 4.91 81.07 3.38 75.71 1.85 70.34"/><polyline class="cls-1" points="7.97 56.33 6.44 61.69 4.91 67.06 3.38 61.69 1.85 56.33"/><polyline class="cls-1" points="8 126.4 6.47 131.76 4.94 137.13 3.41 131.76 1.88 126.4"/><polyline class="cls-1" points="7.97 196.46 6.44 201.83 4.91 207.19 3.38 201.83 1.85 196.46"/><polyline class="cls-1" points="7.95 182.45 6.42 187.81 4.89 193.18 3.36 187.81 1.83 182.45"/><polyline class="cls-1" points="7.95 168.44 6.42 173.8 4.89 179.16 3.36 173.8 1.83 168.44"/><polyline class="cls-1" points="7.95 154.42 6.42 159.79 4.89 165.15 3.36 159.79 1.83 154.42"/><polyline class="cls-1" points="7.95 140.41 6.42 145.77 4.89 151.14 3.36 145.77 1.83 140.41"/><polyline class="cls-1" points="7.97 210.48 6.44 215.84 4.91 221.21 3.38 215.84 1.85 210.48"/></svg>