<svg id="Capa_1" data-name="Capa 1" xmlns="http://www.w3.org/2000/svg" viewBox="0 0 279 53.8"><defs><style>.cls-1{fill:#cbc8e4;}.cls-2{fill:#b3b3a9;}</style></defs><path class="cls-1" d="M0,49.7c3,.1,3.1,2.2,6,1.8,4.7-.6,5.2.8,9.9.8s12.2.6,12.2.6a37,37,0,0,0,7.4-.4l2.5-.2c2.5-.3,5,.4,7.5,0s4.5.3,6.7.3,3.8-1.4,5.8-.9a38.2,38.2,0,0,0,5.9.9c1.2.1,5.6-1,6.7-1a43.8,43.8,0,0,1,5.1-.1c2.1.2,6.4,1.2,6.4,1.2a9,9,0,0,1,3.8-1.1,55.5,55.5,0,0,1,6,.7,16.2,16.2,0,0,1,3.5-1.1c3.5,0,10.3.4,10.3.4l3.3-.8c2.3-.6,4.6,2,7.1,1.9,6.5-.5,19.4-.6,19.4-.6s3.1-.6,4.4,0,12.9.2,12.9.2l14.2.9a37.6,37.6,0,0,0,6-.3c2.2-.5,4.2-1.5,6.6-1.5s3.4,1.4,5.1,1.4h0c2.9,0,8.4-.1,10.3.3s4.9-.9,9.2-.7,11.2.6,11.2.6l8.1-.8h9.7a19.3,19.3,0,0,0,1.9,1.6c.7.2,5.8-1.6,7.5-.5a20.3,20.3,0,0,0,4.1-1.6,10.6,10.6,0,0,0,3.4,1.6l15.5.5c1.6,0,9.2-1,12.5-.5.5-3.7-1.1-12.7-1.3-16.5a8.5,8.5,0,0,1-.7-6.7A49.6,49.6,0,0,0,279,19.4a20.8,20.8,0,0,0-.5-5.2,26.9,26.9,0,0,1-3,0c-3.4,0-148.6-.3-274-.3C2.5,29.8,0,49.7,0,49.7"/><path class="cls-2" d="M107.5,3.6,92.2,2.9,77.6,1.8,62.8.1c0,.2-.9.3-1,.6s.4.5-.1,1.1.7,2.1-.6,2.6-.7.3-.6.3h1.4c.2,0,.3.1.1.3a2.2,2.2,0,0,1-1.9,1.1c-1.1.6-.3,1,1.6,2.2s-3.4.9-2.2,1.2,1.2.4.8,1.5.8.6.8.8-1.8,1.2-1.2,2.4,2.9,1.3.2.5.5,1,1.1,1.2l5.4.6L84,18.4l15.4,1.4,7.5.3a13.3,13.3,0,0,0,2.1-.3c.1-.1.4-.1.3-.2s-1.1-.4-.6-.7-.7-1.6-.1-1.7c3.8-.8-2.1-.9.4-2.4.7-.4-.9-2.4-1.2-3.2s-.5-3.7-1-4.3.7-1.5.6-1.5c-2-.7-.2-1.2-.1-2.1Z"/></svg>