<svg id="Layer_1" data-name="Layer 1" xmlns="http://www.w3.org/2000/svg" viewBox="0 0 69.45 66.33"><defs><style>.cls-1,.cls-2,.cls-6{fill:#fff;}.cls-2,.cls-3,.cls-6{stroke:#000;}.cls-2,.cls-3,.cls-5,.cls-6{stroke-linecap:round;}.cls-2,.cls-3,.cls-5{stroke-linejoin:round;}.cls-3,.cls-5{fill:none;}.cls-4{fill:#343334;}.cls-5{stroke:#343334;}.cls-6{stroke-miterlimit:10;}</style></defs><title>img_004</title><path class="cls-1" d="M8.75,69.71s1.62-17.27,9-20.22,12-1.23,12-1.23,6.11,11.29,7.9,21.53C37.68,69.79,38.22,70.24,8.75,69.71Z" transform="translate(-0.5 -3.87)"/><path class="cls-2" d="M16,51a24.25,24.25,0,1,1,15.59,1" transform="translate(-0.5 -3.87)"/><path class="cls-3" d="M8.75,69.71c1.39-8.77,3.66-15.78,7.29-18.38" transform="translate(-0.5 -3.87)"/><path class="cls-2" d="M33.44,51.49a70.61,70.61,0,0,0,9.61.73c4,0,12.66,1.1,14-.5s4.09-13.27,4.89-16,1.44-6.3,5-5.18c2.15.69,3.29,1.65,2,9.17-1.16,6.73-1.54,15.49-6.39,18.7s-34.18,1.69-34.18,1.69" transform="translate(-0.5 -3.87)"/><path class="cls-2" d="M27,34.5l14.91-2.42s2,8.69-5.69,10.11C30.82,43.19,27.91,37.86,27,34.5Z" transform="translate(-0.5 -3.87)"/><path class="cls-3" d="M29.05,38.53S34,36.15,36,42" transform="translate(-0.5 -3.87)"/><ellipse class="cls-4" cx="39.58" cy="24.45" rx="1.75" ry="2.5" transform="matrix(0.96, -0.27, 0.27, 0.96, -5.57, 7.5)"/><ellipse class="cls-4" cx="28.11" cy="25.73" rx="1.75" ry="2.5" transform="translate(-6.32 4.51) rotate(-15.39)"/><path class="cls-5" d="M21.4,20.06S24,15.91,27,16.18" transform="translate(-0.5 -3.87)"/><path class="cls-5" d="M36.1,17.18s3.28-.88,5,1.35" transform="translate(-0.5 -3.87)"/><path class="cls-3" d="M35.12,60.4c.72,2.28,1.46,4.94,2.15,7.94" transform="translate(-0.5 -3.87)"/><line class="cls-6" x1="1.68" y1="65.83" x2="65.44" y2="65.83"/></svg>