<?xml version="1.0" encoding="utf-8"?>
<!-- Generator: Adobe Illustrator 26.0.3, SVG Export Plug-In . SVG Version: 6.00 Build 0)  -->
<svg version="1.1" id="Capa_1" xmlns="http://www.w3.org/2000/svg" xmlns:xlink="http://www.w3.org/1999/xlink" x="0px" y="0px"
	 viewBox="0 0 850.7 565.5" style="enable-background:new 0 0 850.7 565.5;" xml:space="preserve">
<style type="text/css">
	.st0{fill:#F1EFF8;}
	.st1{fill:#FFFFFF;stroke:#E95153;stroke-miterlimit:10;}
	.st2{fill:none;stroke:#000000;stroke-width:4;stroke-miterlimit:10;}
	.st3{fill:none;}
</style>
<rect y="281.5" class="st0" width="850.7" height="284"/>
<polygon points="209,227.2 209,219.5 207.7,219.5 207.7,222.7 191.8,222.7 178.4,174.7 194.8,174.7 194.8,177.9 196.2,177.9 
	196.2,170.1 194.8,170.1 194.8,173.3 178,173.3 165.7,129.4 182.1,129.4 182.1,132.6 183.5,132.6 183.5,124.8 182.1,124.8 
	182.1,128 165.3,128 156.8,97.7 154.9,98.2 206.1,281.1 208,280.6 192.2,224 207.7,224 207.7,227.2 "/>
<polygon points="273,334.2 273,341.9 271.7,341.9 271.7,338.7 255.8,338.7 242.4,386.7 258.8,386.7 258.8,383.5 260.2,383.5 
	260.2,391.2 258.8,391.2 258.8,388 242,388 229.7,432 246.1,432 246.1,428.8 247.5,428.8 247.5,436.5 246.1,436.5 246.1,433.4 
	229.3,433.4 220.8,463.7 218.9,463.2 270.1,280.2 272,280.8 256.2,337.4 271.7,337.4 271.7,334.2 "/>
<polygon points="440.1,334.2 440.1,341.9 438.8,341.9 438.8,338.7 422.9,338.7 409.5,386.7 425.9,386.7 425.9,383.5 427.3,383.5 
	427.3,391.2 425.9,391.2 425.9,388 409.1,388 396.8,432 413.2,432 413.2,428.8 414.6,428.8 414.6,436.5 413.2,436.5 413.2,433.4 
	396.5,433.4 388,463.7 386,463.2 437.2,280.2 439.2,280.8 423.3,337.4 438.8,337.4 438.8,334.2 "/>
<path class="st1" d="M227,96.4c-45.8,2.1-93.5,1.9-142.7,0c-1.7-15.7-1.9-31.1,0-45.9c31.4-1.6,85.6-0.9,142.7,0
	C228.9,67.1,228.7,82.2,227,96.4z"/>
<path class="st1" d="M290.2,507.8c-45.8,2.1-93.5,1.9-142.7,0c-1.6-15.7-1.9-31.1,0-45.9c31.4-1.6,85.6-0.9,142.7,0
	C292.1,478.5,291.9,493.6,290.2,507.8z"/>
<path class="st1" d="M457.4,507.8c-45.8,2.1-93.5,1.9-142.7,0c-1.6-15.7-1.9-31.1,0-45.9c31.5-1.6,85.6-0.9,142.7,0
	C459.2,478.5,459,493.6,457.4,507.8z"/>
<path class="st1" d="M756.4,311.8c-49.9,2.9-101.8,2.7-155.3,0c-1.8-21.8-2-43.1,0-63.8c34.2-2.2,93.2-1.3,155.3,0
	C758.4,271,758.2,292.1,756.4,311.8z"/>
<polygon points="373.4,227.2 373.4,219.5 372,219.5 372,222.7 356.1,222.7 342.7,174.7 359.1,174.7 359.1,177.9 360.5,177.9 
	360.5,170.1 359.1,170.1 359.1,173.3 342.3,173.3 330,129.4 346.4,129.4 346.4,132.6 347.8,132.6 347.8,124.8 346.4,124.8 
	346.4,128 329.6,128 321.1,97.7 319.2,98.2 370.4,281.1 372.4,280.6 356.5,224 372,224 372,227.2 "/>
<path class="st1" d="M391.3,96.4c-45.8,2.1-93.5,1.9-142.7,0c-1.6-15.7-1.9-31.1,0-45.9c31.5-1.6,85.6-0.9,142.7,0
	C393.2,67.1,393,82.2,391.3,96.4z"/>
<polygon points="541.1,227.2 541.1,219.5 539.7,219.5 539.7,222.7 523.8,222.7 510.4,174.7 526.9,174.7 526.9,177.9 528.2,177.9 
	528.2,170.1 526.9,170.1 526.9,173.3 510,173.3 497.8,129.4 514.2,129.4 514.2,132.6 515.5,132.6 515.5,124.8 514.2,124.8 
	514.2,128 497.4,128 488.9,97.7 486.9,98.2 538.1,281.1 540.1,280.6 524.2,224 539.7,224 539.7,227.2 "/>
<path class="st1" d="M559.1,96.4c-45.8,2.1-93.5,1.9-142.7,0c-1.6-15.7-1.9-31.1,0-45.9c31.5-1.6,85.6-0.9,142.7,0
	C560.9,67.1,560.7,82.2,559.1,96.4z"/>
<g>
	<g>
		<line class="st2" x1="0" y1="281.5" x2="591.1" y2="281.5"/>
		<g>
			<path d="M563.8,300.8c-0.6-0.9-0.3-2.2,0.6-2.8l25.8-16.4l-25.8-16.4c-0.9-0.6-1.2-1.8-0.6-2.8c0.6-0.9,1.8-1.2,2.8-0.6
				l28.5,18.1c0.6,0.4,0.9,1,0.9,1.7s-0.3,1.3-0.9,1.7l-28.5,18.1c-0.3,0.2-0.7,0.3-1.1,0.3C564.8,301.7,564.2,301.3,563.8,300.8z"
				/>
		</g>
	</g>
</g>
<rect x="606.3" y="334.7" class="st3" width="83.6" height="94.3"/>
</svg>
