<?xml version="1.0" encoding="utf-8"?>
<!-- Generator: Adobe Illustrator 24.2.3, SVG Export Plug-In . SVG Version: 6.00 Build 0)  -->
<svg version="1.1" id="Capa_1" xmlns="http://www.w3.org/2000/svg" xmlns:xlink="http://www.w3.org/1999/xlink" x="0px" y="0px"
	 viewBox="0 0 26.4 30.5" style="enable-background:new 0 0 26.4 30.5;" xml:space="preserve">
<style type="text/css">
	.st0{fill:#D6D2E8;}
	.st1{clip-path:url(#SVGID_2_);fill:#FFFFFF;}
</style>
<polygon class="st0" points="12.5,11.7 0.6,1.6 0.2,19.3 4.5,21.8 12.8,29.7 19.7,22.9 25.4,16.8 25.8,0.5 "/>
<g>
	<g>
		<defs>
			<rect id="SVGID_1_" width="26.4" height="30.5"/>
		</defs>
		<clipPath id="SVGID_2_">
			<use xlink:href="#SVGID_1_"  style="overflow:visible;"/>
		</clipPath>
		<path class="st1" d="M23.1,17.5c0.5-0.5,1-1,1-1.8c0-3.8,0.1-7.5,0.1-11.3c0-0.4,0-0.7-0.1-1.3c-1.4,0.9-2.5,1.9-3.5,3
			c-1.6,1.7-3.2,3.4-5.1,4.6c-0.4,0.3-0.7,0.7-1.1,1.1c-0.5,0.5-1.1,0.6-1.7,0.3c-0.5-0.3-1.1-0.6-1.5-1C8.3,8.8,5.5,6.4,2.5,3.8
			c-0.2,2.6-0.1,4.8-0.1,7.1c0,2.3,0.1,4.5,0.1,7c3.6,3,6.9,6.5,10.2,10.2c1.9-1.9,3.6-3.7,5.4-5.5C19.8,20.9,21.4,19.2,23.1,17.5
			 M14.5,29.6c-1.2,1.1-2,1.2-3.2,0.1c-0.8-0.8-1.6-1.6-2.4-2.4c-2.2-2.2-4.4-4.4-6.6-6.6c-0.4-0.4-0.9-0.7-1.4-1
			c-0.8-0.4-1-1-1-1.9c0.1-3.6,0.1-7.2,0.1-10.8c0-1.7,0-3.4,0.1-5.1c0.1-1.2,0.9-1.5,1.9-0.9C2.7,1.5,3.3,2,3.9,2.5
			c3,2.5,5.9,4.9,9,7.5c1.4-1.1,2.9-2.1,4.1-3.4c2.2-2.4,4.8-4.4,7.4-6.3c0.7-0.5,1.3-0.4,1.6,0.4c0.2,0.6,0.4,1.3,0.4,1.9
			c0,4.7,0,9.3,0,14c0,0.8-0.3,1.4-1.1,1.8c-0.4,0.2-0.7,0.5-1,0.8C20.9,22.6,18,26.4,14.5,29.6"/>
	</g>
</g>
</svg>
