<svg id="Capa_1" data-name="Capa 1" xmlns="http://www.w3.org/2000/svg" xmlns:xlink="http://www.w3.org/1999/xlink" viewBox="0 0 33.95 63.84"><defs><style>.cls-1{fill:none;}.cls-2{clip-path:url(#clip-path);}.cls-3{fill:#0095df;}</style><clipPath id="clip-path"><rect class="cls-1" width="33.95" height="63.84"/></clipPath></defs><g class="cls-2"><path class="cls-3" d="M14.23,12.07a7,7,0,0,0,5,2,7,7,0,0,0,5-2A6.72,6.72,0,0,0,26.35,7a6.62,6.62,0,0,0-2.08-5,7.07,7.07,0,0,0-5-1.94,7,7,0,0,0-5,2,6.66,6.66,0,0,0-2,5,6.83,6.83,0,0,0,2,5.08m-1.1,40.76a6.38,6.38,0,0,1-2-4.82,7.91,7.91,0,0,1,1-3.89,18.9,18.9,0,0,1,2.48-3.45q1.5-1.68,3.23-3.36A34.81,34.81,0,0,0,21,33.69a18.77,18.77,0,0,0,2.48-4.25,13.22,13.22,0,0,0,1-5.21c0-.59,0-1.23-.09-1.91s-.15-1.31-.26-1.9h-9.2A6.74,6.74,0,0,1,15,21.53v1a10.28,10.28,0,0,1-1.1,4.77,20.14,20.14,0,0,1-2.79,4q-1.68,1.9-3.62,3.72A39.84,39.84,0,0,0,3.89,38.9a20.17,20.17,0,0,0-2.78,4.42A12.68,12.68,0,0,0,0,48.72a17.75,17.75,0,0,0,.8,5.12,12.5,12.5,0,0,0,2.82,4.87,15.76,15.76,0,0,0,5.49,3.67,22.64,22.64,0,0,0,8.75,1.46,33.57,33.57,0,0,0,8.62-1.11,31.13,31.13,0,0,0,7.47-3l-3-8.22A27.62,27.62,0,0,1,25,54a23,23,0,0,1-5.92.75q-4,0-6-1.9"/></g></svg>