<?xml version="1.0" encoding="utf-8"?>
<!-- Generator: Adobe Illustrator 21.1.0, SVG Export Plug-In . SVG Version: 6.00 Build 0)  -->
<svg version="1.1" id="Capa_1" xmlns="http://www.w3.org/2000/svg" xmlns:xlink="http://www.w3.org/1999/xlink" x="0px" y="0px"
	 viewBox="0 0 65.072 43.68" style="enable-background:new 0 0 65.072 43.68;" xml:space="preserve">
<style type="text/css">
	.st0{clip-path:url(#SVGID_2_);}
	.st1{clip-path:url(#SVGID_4_);fill:#005CA8;}
	.st2{filter:url(#Adobe_OpacityMaskFilter);}
	.st3{clip-path:url(#SVGID_4_);}
	.st4{clip-path:url(#SVGID_4_);mask:url(#SVGID_5_);}
	.st5{opacity:0.2;clip-path:url(#SVGID_9_);fill:#1D1D1B;}
	.st6{clip-path:url(#SVGID_2_);fill:#FFFFFF;}
	.st7{clip-path:url(#SVGID_11_);fill:none;stroke:#005CA8;stroke-width:2.151;stroke-linecap:round;}
	.st8{clip-path:url(#SVGID_2_);fill:none;stroke:#005CA8;stroke-width:1.434;stroke-linecap:round;}
	.st9{clip-path:url(#SVGID_13_);fill:#005CA8;}
	.st10{clip-path:url(#SVGID_15_);fill:#FFFFFF;}
</style>
<g>
	<defs>
		<rect id="SVGID_1_" x="-7.625" y="-4.82" width="81" height="55"/>
	</defs>
	<clipPath id="SVGID_2_">
		<use xlink:href="#SVGID_1_"  style="overflow:visible;"/>
	</clipPath>
	<g class="st0">
		<defs>
			<rect id="SVGID_3_" x="-7.625" y="-4.82" width="81" height="55"/>
		</defs>
		<clipPath id="SVGID_4_">
			<use xlink:href="#SVGID_3_"  style="overflow:visible;"/>
		</clipPath>
		<path class="st1" d="M30.975,15.261c0,0-2.184,0-2.184,2.184v17.771c0,0,0,2.184,2.184,2.184h31.913c0,0,2.184,0,2.184-2.184
			V17.445c0,0,0-2.184-2.184-2.184H30.975z"/>
		<defs>
			<filter id="Adobe_OpacityMaskFilter" filterUnits="userSpaceOnUse" x="3.672" y="0" width="31.68" height="40.8">
				<feColorMatrix  type="matrix" values="1 0 0 0 0  0 1 0 0 0  0 0 1 0 0  0 0 0 1 0"/>
			</filter>
		</defs>
		<mask maskUnits="userSpaceOnUse" x="3.672" y="0" width="31.68" height="40.8" id="SVGID_5_">
			<g class="st2">
				<g>
					<defs>
						<rect id="SVGID_6_" x="-5.208" y="-6.96" width="49.92" height="48.96"/>
					</defs>
					<clipPath id="SVGID_7_" class="st3">
						<use xlink:href="#SVGID_6_"  style="overflow:visible;"/>
					</clipPath>
					<g transform="matrix(1 0 0 1 0 0)" style="clip-path:url(#SVGID_7_);">
						
							<image style="overflow:visible;" width="208" height="204" xlink:href="E65F315EAB442235.jpg"  transform="matrix(0.24 0 0 0.24 -5.2076 -6.9599)">
						</image>
					</g>
				</g>
			</g>
		</mask>
		<g class="st4">
			<g>
				<defs>
					<rect id="SVGID_8_" x="3.672" y="0" width="31.68" height="40.8"/>
				</defs>
				<clipPath id="SVGID_9_">
					<use xlink:href="#SVGID_8_"  style="overflow:visible;"/>
				</clipPath>
				<rect x="3.672" class="st5" width="31.68" height="40.8"/>
			</g>
		</g>
	</g>
	<rect x="1.814" y="2.018" class="st6" width="31.473" height="40.724"/>
	<g class="st0">
		<defs>
			<rect id="SVGID_10_" x="-7.625" y="-4.82" width="81" height="55"/>
		</defs>
		<clipPath id="SVGID_11_">
			<use xlink:href="#SVGID_10_"  style="overflow:visible;"/>
		</clipPath>
		<path class="st7" d="M1.129,2.255v36.633c0,0,0.554,3.761,1.98,3.761h31.277c-1.505,0-1.98-3.761-1.98-3.761V2.255H1.129z"/>
	</g>
	<rect x="5.686" y="14.236" class="st8" width="9.581" height="9.482"/>
	<g class="st0">
		<defs>
			<rect id="SVGID_12_" x="-7.625" y="-4.82" width="81" height="55"/>
		</defs>
		<clipPath id="SVGID_13_">
			<use xlink:href="#SVGID_12_"  style="overflow:visible;"/>
		</clipPath>
		<path class="st9" d="M26.508,8.538l0.569-1.908l0.577,1.908H26.508z M28.229,10.487h1.028l-1.614-4.864h-1.085l-1.592,4.864h0.975
			l0.338-1.144h1.607L28.229,10.487z M25.188,5.623h-3.545V6.47h1.295v4.017h0.953V6.47h1.297V5.623z M18.359,9.213L17.94,9.887
			c0.461,0.399,1.038,0.669,1.712,0.669c0.915,0,1.651-0.491,1.651-1.494c0-1.765-2.293-1.129-2.293-2.101
			c0-0.356,0.306-0.562,0.722-0.562c0.35,0,0.761,0.145,1.095,0.38l0.411-0.655c-0.421-0.352-0.996-0.57-1.569-0.57
			c-0.88,0-1.597,0.509-1.597,1.479c0,1.717,2.272,1.127,2.272,2.101c0,0.367-0.319,0.556-0.745,0.556
			C19.177,9.69,18.741,9.505,18.359,9.213 M16.301,10.487h0.955V5.623h-0.955V10.487z M12.819,5.623h-1.02l1.555,4.864h0.821
			l1.561-4.864h-0.97l-0.977,3.368L12.819,5.623z M8.519,10.487h2.967V9.644H9.463V8.456h1.715V7.614H9.463V6.466h1.975V5.623H8.519
			V10.487z M5.342,7.879V6.458H5.95c0.475,0,0.781,0.241,0.781,0.713c0,0.454-0.279,0.708-0.781,0.708H5.342z M4.404,10.487h0.938
			V8.716h0.522l0.924,1.771h1.106l-1.083-1.92c0.548-0.239,0.873-0.753,0.873-1.408c0-0.896-0.611-1.536-1.639-1.536H4.404V10.487z"
			/>
	</g>
	<line class="st8" x1="18.077" y1="15.822" x2="27.956" y2="15.822"/>
	<line class="st8" x1="18.077" y1="19.683" x2="27.956" y2="19.683"/>
	<line class="st8" x1="18.077" y1="23.718" x2="27.956" y2="23.718"/>
	<line class="st8" x1="5.278" y1="29.117" x2="29.035" y2="29.117"/>
	<line class="st8" x1="5.278" y1="32.978" x2="29.035" y2="32.978"/>
	<line class="st8" x1="5.278" y1="37.013" x2="29.035" y2="37.013"/>
	<g class="st0">
		<defs>
			<rect id="SVGID_14_" x="-7.625" y="-4.82" width="81" height="55"/>
		</defs>
		<clipPath id="SVGID_15_">
			<use xlink:href="#SVGID_14_"  style="overflow:visible;"/>
		</clipPath>
		<path class="st10" d="M55.782,30.095c-0.333,0.394-0.737,0.71-1.212,0.948c-0.476,0.237-1.026,0.407-1.651,0.509
			s-1.324,0.16-2.099,0.173c0.028,0.435,0.055,0.856,0.082,1.264c0.027,0.407,0.047,0.828,0.061,1.263
			c1.549-0.014,2.887-0.2,4.014-0.56c1.128-0.36,2.055-0.887,2.782-1.58c0.726-0.692,1.263-1.548,1.609-2.567
			c0.347-1.019,0.52-2.194,0.52-3.525c0-2.024-0.445-3.576-1.335-4.656s-2.211-1.62-3.963-1.62c-0.856,0-1.586,0.153-2.19,0.458
			c-0.605,0.306-1.104,0.693-1.498,1.162c-0.394,0.469-0.683,0.988-0.866,1.559c-0.183,0.57-0.275,1.127-0.275,1.671
			c0,0.652,0.095,1.249,0.285,1.793c0.19,0.543,0.486,1.008,0.887,1.395c0.4,0.388,0.913,0.687,1.538,0.897
			c0.625,0.211,1.379,0.316,2.262,0.316c0.244,0,0.54-0.031,0.886-0.092c0.347-0.061,0.662-0.159,0.948-0.295
			C56.376,29.206,56.115,29.701,55.782,30.095 M53.317,26.101c-0.36-0.353-0.54-0.896-0.54-1.63c0-0.244,0.037-0.495,0.112-0.754
			c0.074-0.258,0.186-0.495,0.336-0.713c0.149-0.217,0.346-0.394,0.591-0.53c0.244-0.135,0.53-0.203,0.856-0.203
			c0.407,0,0.75,0.091,1.029,0.275c0.278,0.183,0.499,0.435,0.662,0.754c0.163,0.319,0.278,0.692,0.346,1.12
			s0.109,0.887,0.123,1.376c0,0.04-0.004,0.088-0.011,0.142c-0.007,0.055-0.01,0.109-0.01,0.163v0.184
			c-0.163,0.109-0.414,0.193-0.754,0.254c-0.34,0.062-0.666,0.092-0.978,0.092C54.264,26.631,53.676,26.455,53.317,26.101
			 M44.789,24.993c-0.231,0.353-0.564,0.664-0.998,0.935c-0.775-0.271-1.321-0.596-1.641-0.975c-0.319-0.38-0.478-0.786-0.478-1.219
			c0-0.163,0.033-0.332,0.102-0.508c0.067-0.176,0.173-0.342,0.315-0.498c0.143-0.156,0.323-0.281,0.54-0.376
			c0.217-0.095,0.476-0.143,0.775-0.143c0.312,0,0.577,0.051,0.794,0.153c0.217,0.102,0.398,0.227,0.54,0.376
			c0.143,0.149,0.245,0.308,0.306,0.478c0.061,0.169,0.092,0.328,0.092,0.477C45.136,24.208,45.02,24.641,44.789,24.993
			 M41.753,29.028c0.258-0.382,0.577-0.715,0.958-1.001c0.38,0.123,0.737,0.255,1.07,0.398c0.332,0.143,0.621,0.307,0.866,0.491
			c0.244,0.184,0.438,0.398,0.58,0.643c0.143,0.245,0.214,0.524,0.214,0.838c0,0.422-0.163,0.803-0.489,1.144
			c-0.326,0.34-0.842,0.51-1.548,0.51c-0.367,0-0.68-0.054-0.938-0.163c-0.258-0.109-0.468-0.245-0.631-0.409
			c-0.163-0.163-0.282-0.343-0.357-0.541c-0.075-0.197-0.112-0.378-0.112-0.541C41.366,29.866,41.495,29.409,41.753,29.028
			 M47.917,28.345c-0.333-0.551-0.886-1.078-1.661-1.581c0.516-0.326,0.948-0.77,1.294-1.333c0.347-0.563,0.52-1.17,0.52-1.821
			c0-0.448-0.085-0.899-0.255-1.353c-0.17-0.454-0.445-0.865-0.825-1.231c-0.381-0.366-0.866-0.668-1.457-0.905
			c-0.591-0.238-1.301-0.357-2.129-0.357c-0.707,0-1.349,0.112-1.926,0.336c-0.577,0.224-1.07,0.522-1.477,0.895
			c-0.408,0.374-0.724,0.811-0.948,1.313c-0.224,0.502-0.336,1.024-0.336,1.567c0,0.719,0.139,1.309,0.418,1.77
			c0.278,0.461,0.709,0.929,1.294,1.404c-0.272,0.204-0.527,0.422-0.764,0.653c-0.238,0.231-0.452,0.486-0.642,0.765
			c-0.191,0.279-0.34,0.588-0.449,0.928c-0.108,0.34-0.163,0.714-0.163,1.123c0,0.394,0.082,0.826,0.245,1.295
			c0.163,0.469,0.438,0.901,0.825,1.296c0.387,0.395,0.897,0.725,1.528,0.99c0.632,0.265,1.423,0.397,2.374,0.397
			c0.829,0,1.559-0.105,2.191-0.316c0.631-0.21,1.158-0.507,1.579-0.887c0.421-0.381,0.737-0.827,0.947-1.337
			c0.211-0.51,0.316-1.071,0.316-1.683C48.416,29.539,48.25,28.896,47.917,28.345"/>
	</g>
</g>
</svg>
