<?xml version="1.0" encoding="utf-8"?>
<!-- Generator: Adobe Illustrator 14.0.0, SVG Export Plug-In . SVG Version: 6.00 Build 43363)  -->
<!DOCTYPE svg PUBLIC "-//W3C//DTD SVG 1.1//EN" "http://www.w3.org/Graphics/SVG/1.1/DTD/svg11.dtd">
<svg version="1.1" id="Layer_1" xmlns="http://www.w3.org/2000/svg" xmlns:xlink="http://www.w3.org/1999/xlink" x="0px" y="0px"
	 width="39.1px" height="39.098px" viewBox="0 0 39.1 39.098" enable-background="new 0 0 39.1 39.098" xml:space="preserve">
<g>
	<path fill="#0071BB" d="M19.549,38.598c10.521,0,19.051-8.528,19.051-19.049C38.6,9.029,30.07,0.5,19.549,0.5
		C9.029,0.5,0.5,9.029,0.5,19.549C0.5,30.069,9.029,38.598,19.549,38.598"/>
	<circle fill="none" stroke="#FFFFFF" cx="19.549" cy="19.549" r="19.049"/>
	<polyline fill="none" stroke="#FFFFFF" stroke-linecap="round" stroke-linejoin="round" stroke-miterlimit="10" points="
		29.037,20.058 29.037,12.306 23.83,7.047 9.561,7.047 9.561,31.709 20.324,31.709 	"/>
	<polyline fill="none" stroke="#FFFFFF" stroke-linecap="round" stroke-linejoin="round" stroke-miterlimit="10" points="
		23.867,7.852 23.867,12.038 28.141,12.038 	"/>
	
		<polygon fill="none" stroke="#FFFFFF" stroke-width="0.5" stroke-linecap="round" stroke-linejoin="round" stroke-miterlimit="10" points="
		12.014,10.22 12.014,10.22 12.014,12.978 14.773,12.978 14.773,10.22 	"/>
	
		<polygon fill="none" stroke="#FFFFFF" stroke-width="0.5" stroke-linecap="round" stroke-linejoin="round" stroke-miterlimit="10" points="
		12.014,19.283 12.014,19.283 12.014,22.041 14.773,22.041 14.773,19.283 	"/>
	
		<polygon fill="none" stroke="#FFFFFF" stroke-width="0.5" stroke-linecap="round" stroke-linejoin="round" stroke-miterlimit="10" points="
		12.014,14.751 12.014,14.751 12.014,17.51 14.773,17.51 14.773,14.751 	"/>
	
		<polygon fill="none" stroke="#FFFFFF" stroke-width="0.5" stroke-linecap="round" stroke-linejoin="round" stroke-miterlimit="10" points="
		12.014,23.814 12.014,23.814 12.014,26.573 14.773,26.573 14.773,23.814 	"/>
	<path fill="none" stroke="#FFFFFF" stroke-width="0.5" d="M21.262,10.244h-4c0,0-0.787-0.002-0.787,0.997
		c0,0.784,0.715,0.854,0.715,0.854h4.143c0,0,0.857,0.072,0.857-0.925C22.189,10.172,21.262,10.244,21.262,10.244z"/>
	<path fill="none" stroke="#FFFFFF" stroke-width="0.5" d="M26.197,14.71H17.26c0,0-0.785-0.002-0.785,0.998
		c0,0.783,0.715,0.854,0.715,0.854h9.08c0,0,0.857,0.072,0.857-0.926C27.127,14.639,26.197,14.71,26.197,14.71z"/>
	<path fill="none" stroke="#FFFFFF" stroke-width="0.5" d="M25.625,19.29h-8.363c0,0-0.787-0.002-0.787,0.998
		c0,0.783,0.715,0.854,0.715,0.854h8.508c0,0,0.857,0.071,0.857-0.925C26.555,19.219,25.625,19.29,25.625,19.29z"/>
	<path fill="none" stroke="#FFFFFF" stroke-width="0.5" d="M21.262,23.798h-4c0,0-0.787-0.003-0.787,0.997
		c0,0.783,0.715,0.854,0.715,0.854h4.143c0,0,0.857,0.072,0.857-0.926C22.189,23.727,21.262,23.798,21.262,23.798z"/>
	<path fill="#0071BB" d="M25.289,33.498c3.943,0,7.141-3.197,7.141-7.141c0-3.944-3.197-7.142-7.141-7.142s-7.141,3.197-7.141,7.142
		C18.148,30.301,21.346,33.498,25.289,33.498"/>
	<circle fill="none" stroke="#FFFFFF" stroke-linecap="round" stroke-miterlimit="10" cx="25.289" cy="26.357" r="7.141"/>
	<polygon fill="#FFFFFF" points="23.484,27.555 21.912,27.555 25.199,31.629 28.594,27.555 26.842,27.555 26.842,21.622 
		23.484,21.622 	"/>
	
		<polyline fill="none" stroke="#FFFFFF" stroke-width="0.5" stroke-linecap="round" stroke-linejoin="round" stroke-miterlimit="10" points="
		23.484,27.555 21.912,27.555 25.199,31.629 28.594,27.555 26.842,27.555 26.842,21.622 23.484,21.622 23.484,27.555 	"/>
</g>
</svg>
