<?xml version="1.0" encoding="utf-8"?>
<!-- Generator: Adobe Illustrator 25.4.1, SVG Export Plug-In . SVG Version: 6.00 Build 0)  -->
<svg version="1.1" id="Layer_1" xmlns="http://www.w3.org/2000/svg" xmlns:xlink="http://www.w3.org/1999/xlink" x="0px" y="0px"
	 viewBox="0 0 106 106" style="enable-background:new 0 0 106 106;" xml:space="preserve">
<style type="text/css">
	.st0{fill:#FFFFFF;}
	.st1{fill:#00ABCC;}
</style>
<g>
	<rect x="4.3" y="4.3" class="st0" width="97.5" height="97.4"/>
</g>
<g>
	<path class="st1" d="M104.3,104.3H1.7V1.7h102.6V104.3L104.3,104.3z M6.9,99.1h92.3V6.9H6.9V99.1L6.9,99.1z"/>
</g>
<path class="st1" d="M67.6,73.5c-0.7,0.2-1.9,0.5-3.5,0.7c-1.6,0.2-3.6,0.4-5.9,0.4c-3.2,0-6.1-0.6-8.5-1.7c-2.4-1.1-4.4-2.7-6-4.7
	c-1.6-2-2.8-4.4-3.6-7.2c-0.8-2.8-1.2-5.9-1.2-9.3c0-3.5,0.5-6.7,1.4-9.5c0.9-2.8,2.2-5.2,3.9-7.2c1.7-2,3.7-3.5,6.1-4.5
	c2.4-1,5-1.6,8-1.6c2.8,0,5.4,0.3,8.1,1c2.6,0.7,4.8,1.5,6.4,2.6l2.6-6.7c-0.3-0.2-0.9-0.6-1.8-1c-0.9-0.4-2.1-0.9-3.5-1.3
	c-1.4-0.4-3.2-0.8-5.2-1.2c-2-0.3-4.3-0.5-6.9-0.5c-3.8,0-7.4,0.7-10.7,2c-3.3,1.3-6.2,3.2-8.7,5.8C36,32.1,34,35.3,32.6,39
	c-1.5,3.7-2.2,8-2.2,12.8c0,4.8,0.6,9,1.9,12.7c1.3,3.7,3.1,6.8,5.5,9.3c2.4,2.5,5.2,4.4,8.5,5.8c3.3,1.3,7,2,11,2
	c2,0,3.9-0.1,5.9-0.3c1.9-0.2,3.7-0.4,5.3-0.7c1.6-0.3,3.1-0.6,4.3-0.8c1.2-0.3,2.2-0.5,2.9-0.7V52.2h-8V73.5z"/>
</svg>
