<?xml version="1.0" encoding="utf-8"?>
<!-- Generator: Adobe Illustrator 23.0.3, SVG Export Plug-In . SVG Version: 6.00 Build 0)  -->
<svg version="1.1" id="Layer_1" xmlns="http://www.w3.org/2000/svg" xmlns:xlink="http://www.w3.org/1999/xlink" x="0px" y="0px"
	 viewBox="0 0 31.2 32.6" style="enable-background:new 0 0 31.2 32.6;" xml:space="preserve">
<style type="text/css">
	.st0{fill:#515254;}
	.st1{fill:#FFCA05;}
</style>
<g>
	<g>
		<path class="st0" d="M4.6,7.4C5.9,7.4,7,6.3,7,5c0-1.3-1.1-2.4-2.4-2.4C3.3,2.6,2.2,3.6,2.2,5C2.2,6.3,3.3,7.4,4.6,7.4"/>
	</g>
	<g>
		<path class="st0" d="M27.6,7.4C28.9,7.4,30,6.3,30,5c0-1.3-1.1-2.4-2.4-2.4S25.2,3.6,25.2,5C25.2,6.3,26.3,7.4,27.6,7.4"/>
	</g>
	<g>
		<path class="st1" d="M27.1,5.7H5.6C5.2,5.7,4.8,5.4,4.8,5c0-0.4,0.3-0.8,0.8-0.8h21.5c0.4,0,0.8,0.3,0.8,0.8
			C27.9,5.4,27.5,5.7,27.1,5.7L27.1,5.7z"/>
	</g>
	<g>
		<path class="st0" d="M4.6,28.1c1.3,0,2.4-1.1,2.4-2.4c0-1.3-1.1-2.4-2.4-2.4c-1.3,0-2.4,1.1-2.4,2.4C2.2,27.1,3.3,28.1,4.6,28.1"
			/>
	</g>
	<g>
		<path class="st0" d="M27.6,28.1c1.3,0,2.4-1.1,2.4-2.4c0-1.3-1.1-2.4-2.4-2.4s-2.4,1.1-2.4,2.4C25.2,27.1,26.3,28.1,27.6,28.1"/>
	</g>
	<g>
		<path class="st1" d="M27.1,26.5H5.6c-0.4,0-0.8-0.3-0.8-0.8c0-0.4,0.3-0.8,0.8-0.8h21.5c0.4,0,0.8,0.3,0.8,0.8
			C27.9,26.2,27.5,26.5,27.1,26.5L27.1,26.5z"/>
	</g>
</g>
</svg>
