<svg id="Capa_1" data-name="Capa 1" xmlns="http://www.w3.org/2000/svg" xmlns:xlink="http://www.w3.org/1999/xlink" viewBox="0 0 31 23.06"><defs><style>.cls-1{fill:none;}.cls-2{clip-path:url(#clip-path);}.cls-3{fill:#00a4b2;}.cls-4{fill:#fff;}</style><clipPath id="clip-path" transform="translate(-0.22 -0.26)"><rect class="cls-1" y="0.78" width="31.43" height="22.02" transform="translate(-0.58 0.81) rotate(-2.9)"/></clipPath></defs><g class="cls-2"><path class="cls-3" d="M21,3.71,4.13,13.38c-2.21,1.28-.76,3.8-.76,3.8l1.32,2.29a2.62,2.62,0,0,0,3.66,1.25l16.82-9.67c2.22-1.28.77-3.8.77-3.8L24.62,5A2.62,2.62,0,0,0,21,3.71M29.1,2.3,30.65,5s2,3.47-1.48,5.46L7.8,22.75s-3.47,2-5.46-1.47L.79,18.58s-2-3.47,1.47-5.46L23.63.83s3.47-2,5.47,1.47" transform="translate(-0.22 -0.26)"/><path class="cls-4" d="M27.44,4.44a.71.71,0,0,1,.56.83.71.71,0,0,1-.84.55.7.7,0,0,1,.28-1.38" transform="translate(-0.22 -0.26)"/><path class="cls-3" d="M14.82,16.17l10.25-5.86A2.36,2.36,0,0,0,26,7l-1.14-2a2.35,2.35,0,0,0-3.28-.88L14.82,8Z" transform="translate(-0.22 -0.26)"/></g></svg>