<?xml version="1.0" encoding="utf-8"?>
<!-- Generator: Adobe Illustrator 25.4.1, SVG Export Plug-In . SVG Version: 6.00 Build 0)  -->
<!DOCTYPE svg PUBLIC "-//W3C//DTD SVG 1.1//EN" "http://www.w3.org/Graphics/SVG/1.1/DTD/svg11.dtd" [
	<!ENTITY ns_extend "http://ns.adobe.com/Extensibility/1.0/">
	<!ENTITY ns_ai "http://ns.adobe.com/AdobeIllustrator/10.0/">
	<!ENTITY ns_graphs "http://ns.adobe.com/Graphs/1.0/">
	<!ENTITY ns_vars "http://ns.adobe.com/Variables/1.0/">
	<!ENTITY ns_imrep "http://ns.adobe.com/ImageReplacement/1.0/">
	<!ENTITY ns_sfw "http://ns.adobe.com/SaveForWeb/1.0/">
	<!ENTITY ns_custom "http://ns.adobe.com/GenericCustomNamespace/1.0/">
	<!ENTITY ns_adobe_xpath "http://ns.adobe.com/XPath/1.0/">
]>
<svg version="1.1" id="Capa_1" xmlns:x="&ns_extend;" xmlns:i="&ns_ai;" xmlns:graph="&ns_graphs;"
	 xmlns="http://www.w3.org/2000/svg" xmlns:xlink="http://www.w3.org/1999/xlink" x="0px" y="0px" viewBox="0 0 24.27 13.44"
	 style="enable-background:new 0 0 24.27 13.44;" xml:space="preserve">
<style type="text/css">
	.st0{clip-path:url(#SVGID_00000180363671788824356890000015883620793298772913_);fill:#FFFFFF;}
	
		.st1{clip-path:url(#SVGID_00000180363671788824356890000015883620793298772913_);fill:none;stroke:#EA5153;stroke-width:0.75;stroke-linecap:round;}
	.st2{clip-path:url(#SVGID_00000180363671788824356890000015883620793298772913_);}
	.st3{fill:#EA5153;}
</style>
<metadata>
	<sfw  xmlns="&ns_sfw;">
		<slices></slices>
		<sliceSourceBounds  bottomLeftOrigin="true" height="13.44" width="24.27" x="18.43" y="-34.9"></sliceSourceBounds>
	</sfw>
</metadata>
<g>
	<defs>
		<rect id="SVGID_1_" width="24.27" height="13.44"/>
	</defs>
	<clipPath id="SVGID_00000042696434526989272420000007913195034927159454_">
		<use xlink:href="#SVGID_1_"  style="overflow:visible;"/>
	</clipPath>
	<path style="clip-path:url(#SVGID_00000042696434526989272420000007913195034927159454_);fill:#FFFFFF;" d="M3.21,0.38
		c0,0-2.84,0-2.84,2.84v7.02c0,0,0,2.84,2.84,2.84h17.85c0,0,2.83,0,2.83-2.84V3.21c0,0,0-2.84-2.83-2.84H3.21z"/>
	
		<path style="clip-path:url(#SVGID_00000042696434526989272420000007913195034927159454_);fill:none;stroke:#EA5153;stroke-width:0.75;stroke-linecap:round;" d="
		M3.21,0.38c0,0-2.84,0-2.84,2.84v7.02c0,0,0,2.84,2.84,2.84h17.85c0,0,2.83,0,2.83-2.84V3.21c0,0,0-2.84-2.83-2.84H3.21z"/>
	
		<polyline style="clip-path:url(#SVGID_00000042696434526989272420000007913195034927159454_);fill:none;stroke:#EA5153;stroke-width:0.75;stroke-linecap:round;" points="
		10.66,13.06 13.23,6.72 10.66,0.38 	"/>
	<g style="clip-path:url(#SVGID_00000042696434526989272420000007913195034927159454_);">
		<path class="st3" d="M5.57,3.4h1.56v6.93H5.57V3.4z"/>
	</g>
	<g style="clip-path:url(#SVGID_00000042696434526989272420000007913195034927159454_);">
		<path class="st3" d="M18.34,4.6c-0.73,0-1.25,0.2-1.58,0.61s-0.49,0.96-0.49,1.66c0,0.34,0.04,0.65,0.12,0.93
			c0.08,0.28,0.2,0.51,0.36,0.71c0.16,0.2,0.36,0.36,0.6,0.46c0.24,0.11,0.52,0.17,0.84,0.17c0.17,0,0.32,0,0.45-0.01
			c0.12-0.01,0.23-0.02,0.33-0.04V6.67h1.56v3.43c-0.19,0.07-0.49,0.15-0.9,0.24c-0.41,0.08-0.92,0.12-1.53,0.12
			c-0.52,0-0.99-0.08-1.42-0.24c-0.42-0.16-0.79-0.39-1.08-0.7s-0.53-0.68-0.7-1.13c-0.16-0.45-0.25-0.96-0.25-1.53
			c0-0.58,0.09-1.09,0.27-1.54c0.18-0.45,0.43-0.83,0.74-1.13c0.31-0.31,0.68-0.55,1.11-0.71c0.42-0.16,0.88-0.24,1.36-0.24
			c0.33,0,0.62,0.02,0.88,0.06c0.26,0.04,0.49,0.09,0.68,0.15c0.19,0.06,0.35,0.12,0.47,0.17c0.12,0.06,0.21,0.11,0.27,0.14
			l-0.45,1.25c-0.21-0.11-0.46-0.21-0.74-0.3C18.97,4.64,18.67,4.6,18.34,4.6z"/>
	</g>
</g>
<g>
</g>
<g>
</g>
<g>
</g>
<g>
</g>
<g>
</g>
<g>
</g>
</svg>
