<?xml version="1.0" encoding="utf-8"?>
<!-- Generator: Adobe Illustrator 25.4.5, SVG Export Plug-In . SVG Version: 6.00 Build 0)  -->
<svg version="1.1" id="Capa_1" xmlns="http://www.w3.org/2000/svg" xmlns:xlink="http://www.w3.org/1999/xlink" x="0px" y="0px"
	 viewBox="0 0 43.3 28.4" style="enable-background:new 0 0 43.3 28.4;" xml:space="preserve">
<style type="text/css">
	.st0{clip-path:url(#SVGID_00000080891186739145874040000016697450766995274913_);}
	.st1{clip-path:url(#SVGID_00000155860217264050617120000011449058097553211530_);}
	.st2{fill:#005CA9;}
	.st3{filter:url(#Adobe_OpacityMaskFilter);}
	.st4{clip-path:url(#SVGID_00000134212322695038333720000011005817631915342737_);}
	.st5{clip-path:url(#SVGID_00000035500864733178893130000002662738920424737422_);}
	
		.st6{clip-path:url(#SVGID_00000134212322695038333720000011005817631915342737_);mask:url(#SVGID_00000109724812638951440480000011063068273345291664_);}
	.st7{opacity:0.2;clip-path:url(#SVGID_00000005947835830418979840000004797393567115873937_);enable-background:new    ;}
	.st8{clip-path:url(#SVGID_00000160886979319498724390000005165584591201183661_);}
	.st9{fill:#FFFFFF;}
	.st10{clip-path:url(#SVGID_00000083071992933928477050000000600590213843337611_);}
	.st11{clip-path:url(#SVGID_00000039839087956088071390000012657400553680071565_);}
	.st12{clip-path:url(#SVGID_00000010298344398582953330000015832080791454178223_);}
	.st13{clip-path:url(#SVGID_00000079447101609581746100000010736410234606040469_);}
	.st14{clip-path:url(#SVGID_00000013191080762804820040000005737290902402100415_);}
	.st15{clip-path:url(#SVGID_00000009570387828525793780000007218963825156333991_);}
	.st16{clip-path:url(#SVGID_00000130606673091438576880000002790729265182803850_);}
	.st17{clip-path:url(#SVGID_00000083086000116214811680000003814221363676913062_);}
	.st18{clip-path:url(#SVGID_00000147221120608497242930000012928727388427479690_);}
	.st19{clip-path:url(#SVGID_00000143582350707505353070000015201713738182865332_);}
	.st20{clip-path:url(#SVGID_00000004535061228541626170000004878702118122589834_);}
	.st21{clip-path:url(#SVGID_00000028286177234374243270000012296898181308772752_);}
</style>
<g>
	<g>
		<defs>
			<rect id="SVGID_1_" width="43.3" height="28.4"/>
		</defs>
		<clipPath id="SVGID_00000020395257776678577920000008849720291373729931_">
			<use xlink:href="#SVGID_1_"  style="overflow:visible;"/>
		</clipPath>
		<g style="clip-path:url(#SVGID_00000020395257776678577920000008849720291373729931_);">
			<g>
				<defs>
					<rect id="SVGID_00000029751424676799603490000003762033718651169686_" width="43.3" height="28.4"/>
				</defs>
				<clipPath id="SVGID_00000011746533330484280630000015042357925201532085_">
					<use xlink:href="#SVGID_00000029751424676799603490000003762033718651169686_"  style="overflow:visible;"/>
				</clipPath>
				<g style="clip-path:url(#SVGID_00000011746533330484280630000015042357925201532085_);">
					<path class="st2" d="M20.6,9.4c0,0-1.4,0-1.4,1.4v11.9c0,0,0,1.4,1.4,1.4h21.3c0,0,1.4,0,1.4-1.4V10.8c0,0,0-1.4-1.4-1.4H20.6z
						"/>
				</g>
			</g>
			<g>
				<defs>
					<rect id="SVGID_00000176735377077106033220000002173529883574912947_" width="43.3" height="28.4"/>
				</defs>
				<clipPath id="SVGID_00000037681019427351350510000000223634006186954376_">
					<use xlink:href="#SVGID_00000176735377077106033220000002173529883574912947_"  style="overflow:visible;"/>
				</clipPath>
				<defs>
					<filter id="Adobe_OpacityMaskFilter" filterUnits="userSpaceOnUse" x="2.6" y="-1.1" width="21.1" height="27.4">
						<feColorMatrix  type="matrix" values="1 0 0 0 0  0 1 0 0 0  0 0 1 0 0  0 0 0 1 0"/>
					</filter>
				</defs>
				
					<mask maskUnits="userSpaceOnUse" x="2.6" y="-1.1" width="21.1" height="27.4" id="SVGID_00000109724812638951440480000011063068273345291664_">
					<g class="st3">
						<g>
							<g>
								<defs>
									<rect id="SVGID_00000140727219048918305440000007911850948182581899_" width="43.3" height="28.4"/>
								</defs>
								
									<clipPath id="SVGID_00000101098635241081911460000006839661571121971871_" style="clip-path:url(#SVGID_00000037681019427351350510000000223634006186954376_);">
									<use xlink:href="#SVGID_00000140727219048918305440000007911850948182581899_"  style="overflow:visible;"/>
								</clipPath>
							</g>
							<g>
								<defs>
									<rect id="SVGID_00000000917477936486166380000004288283058463892610_" width="43.3" height="28.4"/>
								</defs>
								<defs>
									<rect id="SVGID_00000174595320327673601660000013434989568708342149_" x="-6.2" y="-8" width="39.4" height="35.5"/>
								</defs>
								
									<clipPath id="SVGID_00000093862872168619315140000008098339433704681641_" style="clip-path:url(#SVGID_00000037681019427351350510000000223634006186954376_);">
									<use xlink:href="#SVGID_00000000917477936486166380000004288283058463892610_"  style="overflow:visible;"/>
								</clipPath>
								
									<clipPath id="SVGID_00000073679144726311791490000011542613440876797869_" style="clip-path:url(#SVGID_00000093862872168619315140000008098339433704681641_);">
									<use xlink:href="#SVGID_00000174595320327673601660000013434989568708342149_"  style="overflow:visible;"/>
								</clipPath>
								<g>
									<g style="clip-path:url(#SVGID_00000073679144726311791490000011542613440876797869_);enable-background:new    ;">
										
											<image style="overflow:visible;" width="171" height="154" xlink:href="E6665F8CE108DC71.jpg"  transform="matrix(0.2302 0 0 0.2302 -6.2467 -7.9851)">
										</image>
									</g>
								</g>
							</g>
						</g>
					</g>
				</mask>
				
					<g style="clip-path:url(#SVGID_00000037681019427351350510000000223634006186954376_);mask:url(#SVGID_00000109724812638951440480000011063068273345291664_);">
					<g>
						<g>
							<defs>
								<rect id="SVGID_00000091017280842932788350000013874934830971497404_" x="2.6" y="-1.1" width="21.1" height="27.4"/>
							</defs>
							<clipPath id="SVGID_00000179617975412054907920000007352195742876092301_">
								<use xlink:href="#SVGID_00000091017280842932788350000013874934830971497404_"  style="overflow:visible;"/>
							</clipPath>
							
								<g style="opacity:0.2;clip-path:url(#SVGID_00000179617975412054907920000007352195742876092301_);enable-background:new    ;">
								<rect x="2.6" y="-1.1" width="21.1" height="27.4"/>
							</g>
						</g>
					</g>
				</g>
			</g>
		</g>
	</g>
	<g>
		<defs>
			<rect id="SVGID_00000027596438497257715740000013165640204710865324_" width="43.3" height="28.4"/>
		</defs>
		<clipPath id="SVGID_00000044146993225475419870000005466520982311298992_">
			<use xlink:href="#SVGID_00000027596438497257715740000013165640204710865324_"  style="overflow:visible;"/>
		</clipPath>
		<g style="clip-path:url(#SVGID_00000044146993225475419870000005466520982311298992_);">
			<rect x="1.2" y="0.6" class="st9" width="21" height="27.1"/>
		</g>
	</g>
	<g>
		<defs>
			<rect id="SVGID_00000111876865745497001620000012166079757401316523_" width="43.3" height="28.4"/>
		</defs>
		<clipPath id="SVGID_00000120543051294860859040000005567878909443367304_">
			<use xlink:href="#SVGID_00000111876865745497001620000012166079757401316523_"  style="overflow:visible;"/>
		</clipPath>
		<g style="clip-path:url(#SVGID_00000120543051294860859040000005567878909443367304_);">
			<g>
				<defs>
					<rect id="SVGID_00000075145727182839703920000004742536674186640011_" width="43.3" height="28.4"/>
				</defs>
				<clipPath id="SVGID_00000052798000331644095660000011658834636670618763_">
					<use xlink:href="#SVGID_00000075145727182839703920000004742536674186640011_"  style="overflow:visible;"/>
				</clipPath>
				<g style="clip-path:url(#SVGID_00000052798000331644095660000011658834636670618763_);">
					<path class="st2" d="M22.9,28.3H2c-1.4,0-1.9-2.2-2-3.1l0-0.1V0h22.3v25.1c0.1,0.8,0.4,1.7,0.7,1.8L22.9,28.3z M1.4,25.1
						c0.1,0.8,0.5,1.7,0.7,1.9l19.2,0c-0.3-0.7-0.4-1.4-0.4-1.7l0-23.8H1.4V25.1z"/>
				</g>
			</g>
		</g>
	</g>
	<g>
		<defs>
			<rect id="SVGID_00000114762329207324575930000012011991271363719871_" width="43.3" height="28.4"/>
		</defs>
		<clipPath id="SVGID_00000131333745579800429910000011048765552497758096_">
			<use xlink:href="#SVGID_00000114762329207324575930000012011991271363719871_"  style="overflow:visible;"/>
		</clipPath>
		<g style="clip-path:url(#SVGID_00000131333745579800429910000011048765552497758096_);">
			<path class="st2" d="M10.6,15.5H3.3V8.2h7.3V15.5z M4.2,14.6h5.5V9.2H4.2V14.6z"/>
		</g>
	</g>
	<g>
		<defs>
			<rect id="SVGID_00000090278105765702951040000002557273443293671049_" width="43.3" height="28.4"/>
		</defs>
		<clipPath id="SVGID_00000114058283583761314150000003903790265235132575_">
			<use xlink:href="#SVGID_00000090278105765702951040000002557273443293671049_"  style="overflow:visible;"/>
		</clipPath>
		<g style="clip-path:url(#SVGID_00000114058283583761314150000003903790265235132575_);">
			<g>
				<defs>
					<rect id="SVGID_00000080889922478649982910000002991224690307262874_" width="43.3" height="28.4"/>
				</defs>
				<clipPath id="SVGID_00000077315965072129673680000007695980235919868593_">
					<use xlink:href="#SVGID_00000080889922478649982910000002991224690307262874_"  style="overflow:visible;"/>
				</clipPath>
				<g style="clip-path:url(#SVGID_00000077315965072129673680000007695980235919868593_);">
					<path class="st2" d="M17.6,4.9L18,3.6l0.4,1.3H17.6z M18.8,6.2h0.7L18.4,3h-0.7l-1.1,3.2h0.6l0.2-0.8h1.1L18.8,6.2z M16.8,3
						h-2.4v0.6h0.9v2.7h0.6V3.5h0.9L16.8,3L16.8,3z M12.2,5.3l-0.3,0.5c0.3,0.3,0.7,0.4,1.1,0.4c0.6,0,1.1-0.3,1.1-1
						c0-1.2-1.5-0.8-1.5-1.4c0-0.2,0.2-0.4,0.5-0.4c0.2,0,0.5,0.1,0.7,0.2l0.3-0.4c-0.3-0.2-0.7-0.4-1.1-0.4c-0.6,0-1.1,0.4-1.1,1
						c0,1.1,1.5,0.8,1.5,1.4c0,0.2-0.2,0.4-0.5,0.4C12.7,5.7,12.4,5.6,12.2,5.3 M10.8,6.2h0.6V3h-0.6V6.2z M8.5,3H7.8l1,3.2h0.6
						l1-3.2H9.8L9.1,5.2L8.5,3z M5.6,6.2h2V5.6H6.3V4.8h1.1V4.3H6.3V3.5h1.3V3h-2V6.2z M3.5,4.5V3.5h0.4c0.3,0,0.5,0.2,0.5,0.5
						c0,0.3-0.2,0.5-0.5,0.5L3.5,4.5L3.5,4.5z M2.9,6.2h0.6V5h0.3l0.6,1.2h0.7L4.5,4.9C4.9,4.8,5.1,4.4,5.1,4c0-0.6-0.4-1-1.1-1H2.9
						V6.2z"/>
				</g>
			</g>
		</g>
	</g>
	<g>
		<defs>
			<rect id="SVGID_00000101816631659942078260000012394840653085385644_" width="43.3" height="28.4"/>
		</defs>
		<clipPath id="SVGID_00000111177103344517272740000013582803891157252777_">
			<use xlink:href="#SVGID_00000101816631659942078260000012394840653085385644_"  style="overflow:visible;"/>
		</clipPath>
		<g style="clip-path:url(#SVGID_00000111177103344517272740000013582803891157252777_);">
			<path class="st2" d="M18.6,10.2H12c-0.3,0-0.5-0.2-0.5-0.5s0.2-0.5,0.5-0.5h6.6c0.3,0,0.5,0.2,0.5,0.5S18.9,10.2,18.6,10.2z"/>
		</g>
	</g>
	<g>
		<defs>
			<rect id="SVGID_00000137105282167218958080000010884678623117305996_" width="43.3" height="28.4"/>
		</defs>
		<clipPath id="SVGID_00000087379775815185248090000007529410345373407118_">
			<use xlink:href="#SVGID_00000137105282167218958080000010884678623117305996_"  style="overflow:visible;"/>
		</clipPath>
		<g style="clip-path:url(#SVGID_00000087379775815185248090000007529410345373407118_);">
			<path class="st2" d="M18.6,12.8H12c-0.3,0-0.5-0.2-0.5-0.5s0.2-0.5,0.5-0.5h6.6c0.3,0,0.5,0.2,0.5,0.5S18.9,12.8,18.6,12.8z"/>
		</g>
	</g>
	<g>
		<defs>
			<rect id="SVGID_00000139278374826254727800000009766343179161650820_" width="43.3" height="28.4"/>
		</defs>
		<clipPath id="SVGID_00000164487831321915097180000008262648271031966392_">
			<use xlink:href="#SVGID_00000139278374826254727800000009766343179161650820_"  style="overflow:visible;"/>
		</clipPath>
		<g style="clip-path:url(#SVGID_00000164487831321915097180000008262648271031966392_);">
			<path class="st2" d="M18.6,15.5H12c-0.3,0-0.5-0.2-0.5-0.5s0.2-0.5,0.5-0.5h6.6c0.3,0,0.5,0.2,0.5,0.5S18.9,15.5,18.6,15.5z"/>
		</g>
	</g>
	<g>
		<defs>
			<rect id="SVGID_00000039829254652173236890000015983581200530113927_" width="43.3" height="28.4"/>
		</defs>
		<clipPath id="SVGID_00000123425800097270116500000009727803425354526087_">
			<use xlink:href="#SVGID_00000039829254652173236890000015983581200530113927_"  style="overflow:visible;"/>
		</clipPath>
		<g style="clip-path:url(#SVGID_00000123425800097270116500000009727803425354526087_);">
			<path class="st2" d="M19.3,19.1H3.5c-0.3,0-0.5-0.2-0.5-0.5s0.2-0.5,0.5-0.5h15.8c0.3,0,0.5,0.2,0.5,0.5S19.6,19.1,19.3,19.1z"/>
		</g>
	</g>
	<g>
		<defs>
			<rect id="SVGID_00000004511783612856249910000009583538524686332324_" width="43.3" height="28.4"/>
		</defs>
		<clipPath id="SVGID_00000057856811293007997230000012146432640213622417_">
			<use xlink:href="#SVGID_00000004511783612856249910000009583538524686332324_"  style="overflow:visible;"/>
		</clipPath>
		<g style="clip-path:url(#SVGID_00000057856811293007997230000012146432640213622417_);">
			<path class="st2" d="M19.3,21.7H3.5c-0.3,0-0.5-0.2-0.5-0.5s0.2-0.5,0.5-0.5h15.8c0.3,0,0.5,0.2,0.5,0.5S19.6,21.7,19.3,21.7z"/>
		</g>
	</g>
	<g>
		<defs>
			<rect id="SVGID_00000044168084030636576240000014876581779507537821_" width="43.3" height="28.4"/>
		</defs>
		<clipPath id="SVGID_00000091704508565636135960000013171548177461680777_">
			<use xlink:href="#SVGID_00000044168084030636576240000014876581779507537821_"  style="overflow:visible;"/>
		</clipPath>
		<g style="clip-path:url(#SVGID_00000091704508565636135960000013171548177461680777_);">
			<path class="st2" d="M19.3,24.4H3.5c-0.3,0-0.5-0.2-0.5-0.5s0.2-0.5,0.5-0.5h15.8c0.3,0,0.5,0.2,0.5,0.5S19.6,24.4,19.3,24.4z"/>
		</g>
	</g>
	<g>
		<defs>
			<rect id="SVGID_00000030475706103590636840000007837254547181545643_" width="43.3" height="28.4"/>
		</defs>
		<clipPath id="SVGID_00000085224365430105068020000005116899033757444537_">
			<use xlink:href="#SVGID_00000030475706103590636840000007837254547181545643_"  style="overflow:visible;"/>
		</clipPath>
		<g style="clip-path:url(#SVGID_00000085224365430105068020000005116899033757444537_);">
			<g>
				<path class="st9" d="M28.8,15.8c0.6,0,1.1,0.1,1.5,0.2c0.4,0.2,0.8,0.4,1,0.7s0.5,0.6,0.6,1c0.1,0.4,0.2,0.8,0.2,1.2
					c0,0.4-0.1,0.8-0.2,1.1c-0.1,0.4-0.3,0.8-0.6,1.1c-0.3,0.3-0.6,0.6-1,0.8s-0.9,0.3-1.5,0.3c-1.2,0-2-0.4-2.7-1.1s-0.9-1.8-0.9-3
					c0-0.9,0.1-1.8,0.4-2.5c0.3-0.7,0.7-1.3,1.2-1.8c0.5-0.5,1.2-0.9,2-1.1s1.6-0.4,2.6-0.4c0,0.3,0,0.6,0.1,0.9s0,0.6,0.1,0.9
					c-0.5,0-0.9,0.1-1.3,0.1s-0.8,0.2-1.1,0.4c-0.3,0.2-0.6,0.4-0.9,0.6c-0.2,0.3-0.5,0.6-0.6,1c0.2-0.1,0.4-0.2,0.6-0.2
					C28.4,15.9,28.6,15.8,28.8,15.8z M28.6,17.5c-0.2,0-0.4,0-0.7,0.1s-0.4,0.1-0.5,0.1c0,0,0,0.1,0,0.2c0,0.1,0,0.1,0,0.2
					c0,0.3,0,0.6,0.1,1s0.1,0.6,0.2,0.8s0.3,0.4,0.5,0.5c0.2,0.1,0.4,0.2,0.7,0.2c0.2,0,0.4,0,0.6-0.1s0.3-0.2,0.4-0.4
					s0.2-0.3,0.2-0.5s0.1-0.4,0.1-0.5c0-0.5-0.1-0.8-0.4-1.1S29.1,17.5,28.6,17.5z"/>
			</g>
			<g>
				<path class="st9" d="M37.7,19.2c0-0.3-0.1-0.5-0.2-0.7s-0.3-0.4-0.6-0.5c-0.3-0.1-0.7-0.2-1.2-0.3c-0.5-0.1-1.1-0.1-1.9-0.1
					c0.1-0.9,0.2-1.8,0.2-2.6c0.1-0.9,0.1-1.7,0.2-2.5h5.2v1.8h-3.5c0,0.3,0,0.7-0.1,1s0,0.6-0.1,0.8c1.4,0.1,2.4,0.4,3,1
					s1,1.3,1,2.3c0,0.5-0.1,0.9-0.2,1.2c-0.2,0.4-0.4,0.7-0.7,1c-0.3,0.3-0.7,0.5-1.2,0.7s-1,0.2-1.7,0.2c-0.2,0-0.5,0-0.8,0
					c-0.3,0-0.5-0.1-0.8-0.1s-0.5-0.1-0.7-0.2s-0.4-0.1-0.5-0.2l0.4-1.7c0.2,0.1,0.5,0.2,0.9,0.3c0.4,0.1,0.8,0.1,1.4,0.1
					c0.6,0,1.1-0.1,1.4-0.4C37.6,19.8,37.7,19.5,37.7,19.2z"/>
			</g>
		</g>
	</g>
</g>
</svg>
