<svg id="Capa_1" data-name="Capa 1" xmlns="http://www.w3.org/2000/svg" xmlns:xlink="http://www.w3.org/1999/xlink" viewBox="0 0 283.23 88.8"><defs><style>.cls-1{fill:none;}.cls-2{clip-path:url(#clip-path);}.cls-3{fill:#1d1d1b;}</style><clipPath id="clip-path"><rect class="cls-1" y="-1.4" width="283.23" height="88.2"/></clipPath></defs><g class="cls-2"><path class="cls-3" d="M1,44.51l-.25-1,1.1-4.64.36-.85.13-1,.3-.86L3.9,30.31l.85-2.74.19-.92.91-4L6,21.78,6.58,20l.12-.85L8,14.22,8,13.37l.43-1,.31-2,.54-1.95.31-.73.18-1,.12-1,.61-1.95L11.15,3l1.1-.55,1-.12.92.18,1,.43.67.85.37,1,.18,1.09.79,2.81.31,1.89,1.1,3.53.55,3,.36.85.12,1.1,1,3.65.12,1,1,3.84.18,1.1.3.79.06,1,.92,2.87.24,1.82.37,1.16.06.73,1.1,3.78.61,3-.31,1-.79.37h-1.1l-1.16-.61-.79-.79-.3-1.95-.25-1-.36-.85-.37-2.13-.3-1-.19-1L19.14,34l-.74-1.1-1-.49h-2.8l-1.47-.18H11.88l-.91.12H8.9l-1.1.49-.61,1.1L5.24,42.8l-.36.8-.74.91-1,.67H2Zm13.71-15.6h1.89l.79-.3.18-1-.49-2-.12-1-.24-1-.12-.73L16.27,22l-.12-1.09L15.91,20l-.43-.85-.24-1.95-.43-1.65-.18-1.4L14,11.48l-.25-2-.55-2L13,7.34l-.42,1.95L12,13.49l-.31.67-.61,3.11-.06.91-.3,1-.25.85-.55,1.77-.06,1.16-.24.91L9,25.56,9,26.72l-.18.79.12,1.1.85.36h1l.91-.06,2,.12Z"/><path class="cls-3" d="M31.94,45.06l-1-.31-.61-1.09.12-5.73L30.35,37l.06-1-.06-1.1.12-.91-.12-1,.18-1-.18-1-.06-1,.12-1.4-.06-3.78.06-1.59-.06-.91.18-2.5-.06-1.4-.12-.92.18-1.09-.18-1,.06-1-.06-.92.06-3.65-.12-1.16.06-1-.06-.79.18-1-.06-1.82L31,3l1-.61,1,.18h.92l1-.12h2L38,2.58l1.52-.18,1.41.18L42,2.52l.92.31,1,.12.92.36,1,.55.91.37.61.55L48.7,6.36l.54.79.37.92.79,1.76.25,1.1.48,4.51-.06,1.46-.3,1v1l-.18.92-.92,2.68-.43.79-1.15,1.59-.67.73-.8.61-.79.79-1.64.91-2.75.8-5.79.36-.79.43-.49,1,.13.92v6.82l-.13.86.06,4.2L34,44.69l-1,.55Zm6.88-19.32,2-.36,1-.43.91-.25.92-.48L45,22.69l.43-.91.54-.73L46.62,19l.06-1,.19-1L46.81,14l-.19-1.83-.18-.79L46,10.08l-.67-1.46-.61-.92-1.4-1.16-.85-.18L41.38,6l-2.31-.18-1.4.12-.92-.06-1-.18-.92.61L34.5,7.4v.85l-.13,4.63.06,1.4-.06,1,.06,1-.06.92.13,2-.13,1.16.19,1.58-.25,2.25.49,1,1,.55,1.58.12Z"/><path class="cls-3" d="M73.38,45.06l-1.1-.73-.67-1.16L71,41.65l-.24-1-.43-.91-.24-1-.43-.85-.24-.85-.79-1.77-.25-.79-.79-1.83-.43-.79L66.62,30l-.37-.8-.67-.91-.79-.79h-1.1l-2.07-.12-.92.06-.79.73-.18,1.09.12,1v.91l.06,1-.06,11.15-.3.86-.74.79-1,.18-1-.3-.73-.67-.18-1-.06-.79.12-2.2-.18-1.76-.06-1.71.18-2.32V33.24L56,32.08l-.18-3.35.18-1.1v-1l-.12-1L56,23.79,56,19l-.18-1V16.05l.18-1V14l-.24-1,.06-.85.18-1V9.59l-.18-1.34.18-1L56,6.36l-.18-1.89.18-1,1.1-.8,1.64-.06,1.1-.24L61,2.4l1,.24L63,2.4l1.22.18,1.58.06,1.34.19.8-.13L69,3.13l.79.24,1,.43,1.65.91.73.61.67.8.67.67.3.67.67.91.55,2,.18,1.95.31,1.22L76.37,15l-.19,1.1-.12.92-.06,1-.18,1.1-.67,1.77-.49.91-.61.85-.43.8-.73.67-.79.54-.85.55-.8.67-.42,1,.18,1.1,1.34,3.77.43.8.24.91.31.79.42.92.25.79.36,1.1,1,2.31L75,40.61l.8,1.71.36,1,.06.86-.67.85-.79.24ZM65,24l.91-.24.86-.06,1-.25,1-.54.85-.43.73-.55,1.34-2.38.37-1v-1l.24-.85.06-1.46-.18-3.9-.3-.92L70.15,7.88l-.85-.73-.73-.42-.86-.31-2.37-.49-2.62-.18-1,.12-.85.31-.61.55-.43,1.15.06.8.06,2-.12,1.22-.06,1.4.12,1-.12,2.44.06,1.4-.06,1.16.12.79-.06,1,.06.91.31,1,.73.79,1.22.18Z"/><path class="cls-3" d="M97.7,45.06H95.81l-1-.06-1,.18L93,45.06l-2,.12L90,45l-.85.12L88.25,45l-2,.24-1.89-.06-1-.49-.55-1L83,36.77l-.18-3,.06-1L83,31.9l-.12-1.1L83,30l.06-1-.18-1.1-.06-1.09.06-1.71.06-1-.06-1.1.18-1.1-.12-1,.12-2.75L83,17v-.85L83,14.22,83,13.13l-.12-1.41.18-2.43-.18-.8v-1L83,6.79l-.06-1.1-.06-1-.12-.79.42-1.1.92-.42,1,.24.86-.24,1,.24,2.93-.24,4.93.18,2.93-.06,1,.06.86.49.61.67.06.91-.61.86L98,6l-1.4-.12-1-.12-1.1.06-.91.12-1-.24-2.07.06-2,.24-1,.55L87,7.94l-.06,3.48.12,2-.12.85L87,17.21l-.12,1,.12.86-.06,1,.43,1.22,1,.37.85.06,1-.12,1.53.06,1.83-.06,1.52.12,1.77.06,1-.12,1,.48.43,1-.49,1.22-.92.55-1.82.18-.92-.24L93.13,25l-.85-.12-1,.12L89.35,25l-1-.12-.91.67-.49.85.12.92L87,28.42l.13,1.1v1l-.13.79.13,1.09-.19,6.22.06,1.1.49,1.4,1.1.49,2-.06,1,.18,1-.12h2.07l1,.18.91-.12,1,.06,1-.06,1,.36.55.92-.06.91-.43.92-1,.48Z"/><path class="cls-3" d="M122.38,44.57l-.85-.91-.36-.86L120,39.09l-.25-1-.42-.91-.19-.86-1-2.92-.19-.73L116.53,29l-.48-2.13-.43-1-.24-1-.43-.67-.55-2-.43-.92-.12-1-.42-.86L111.11,12l-.12-.86-.79-2.8-.37-.79-.24-.06.06.91-.06,1,.12,1-.06,1,.12,1-.06.8.12,1-.06,1.53.12,5.36-.18.91.18,3.9-.06,1,.12,1.1-.06.85-.12.91.06,2.14.12,1.46-.18,1.34.12,1.16-.06.79v1l.12,1.09-.18,1.1.12,3.84-.55.91-1.46.37-1.4-.49-.49-.79-.06-4.88.12-.91-.12-1.16.06-4-.12-2.44.06-.85V28.12l.12-1-.18-2.31.06-2.5-.06-1.1.06-.79-.06-1.16.12-.91-.18-.92.18-1.89V14.47l-.12-.8.06-3.1-.06-1L106,5l-.06-1.1.49-1,1.4-.49,1.52.06,1-.12,1,.55.92,1,.36.85.25.86.12,1,.79,1.71,3.35,10.3.13.85.3.86.49,1L119,24l.49,1.89,2,5.85.3,1.47.31,1,.49,1.1.24,1,.12,1,.55,2.07.37.91.24-.06.06-3-.3-1.77.12-1V33.18l-.18-1.41.18-1.4-.12-1.4.12-2.44-.12-.79.06-12.55-.19-1.53.13-1.4-.13-.79.13-.92-.06-1,.06-.92-.19-2.92.43-.92.79-.3,1,.06.91.31.61.85.19.85.12,1.71-.12,1,.12,1.1-.12,1,.24,4.93-.12.73.12,2.26-.06,1-.12.86.12,5.05-.12.86.12,1-.06,4.09.06,1-.12.86.12.91v1l-.12,1,.12,4-.12.79v1.1l.12,1.1-.12.85v.86l-.43,1.21-.91.37h-.92l-1.1-.06-.85.12Z"/><path class="cls-3" d="M136.22,44.69l-.49-1.09-.06-.92.12-.79-.12-1.16.12-.85V37.81l-.18-.92v-3l.18-1-.12-.73.06-1L135.67,30l.12-.92-.12-1.4.06-1.46-.12-.92.12-1.46-.06-1.52v-1.4l-.06-1.65.06-.79-.06-.92.18-1-.12-1.22.12-.85-.18-1,.18-4.69-.24-2,.24-2.87.37-.85.91-.67,4,.06,1-.18,1.34.24,2.5.06.92.12,1,.06,1.83.55,1.71.8,2.07,2.13.42.67.37.79.37.73,1,2.87.18,1.09.19.92.3.85.06,1v1l.25,1.16-.06.92.24,1v6l-.12,1v1.95l-.12,3-.19.85-.3,1.16-.18,1.64L155.54,36l-.18,1-1,2.74-.55.73-.55.79-.73.73-.67.73-.73.43-.91.67-.79.37-1.41.48-1.46.31-.91.06-1-.06-3.84.18-.91-.12-2.26.12Zm9.26-3.1,1-.31,1.71-.91.79-.19.67-.61.55-.85.55-.73.67-1.71.54-1.82.43-2.08V30.25l.12-.79.25-7.19-.37-5.79-.12-1-.06-1-.31-.92-.12-.91-.49-2-.79-1.59-.67-.85L149,7.76l-.61-.67-.85-.55-.8-.3-1-.12-.79-.37-2.87-.06-1,.18-1,.55-.36.79.06.92-.13,1.22v.85l.19.91-.19,1.16.07,2,.06.73-.06,6.59-.13,1,.06,1.34.07.79.06,4.88-.19,1,.13,1-.13,3.11.19.79v1l-.13.91v2.56l.55,1.22.79.42,2.14.07,1.46.12Z"/><path class="cls-3" d="M170.72,45.67l-.86-.18-.79-.37-.85-.18-.79-.43-.86-.67L164.81,42l-.31-1.09-.49-.74-.3-1-1-2.68-.73-6V29.34l-.18-4.45.18-3.54-.12-.91.18-1-.06-1,.18-.86V16.54l.13-1,.24-.79.43-3,.79-2.68,1.34-2.68,2.07-1.95,1.71-.91.91-.31.86-.06L172.12,3l1.46.18.85.37.92.18.85.3.73.37,1.47,1.34.48.79.55.67.49.86.73,1.82,1,3.84.61,5.37-.07,1,.19,1.1.06,1-.12,1.1L182.24,29l.06,1-.19,1-.06.92-.55,3.65-.36,1.1-.06,1.1-.67,1.83-.49.91-.49.73-.42.86-.61.67-.55.73-.92.73-.73.42-.85.43-.92.31-.85.24-1.46.12Zm1.46-3.54,1.16-.18.91-.24.61-.37.49-.67.67-.61.43-.79.48-1.89.37-1,.3-.92.06-1,.19-1v-1l.12-.91.18-3.23.19-.85-.13-5.18.06-1L178,18.18l-.18-.91-.13-1,.07-.85-.73-4-.8-1.77-.55-1L174.37,7l-1-.3L172,6.67h-1.28l-.8.3-.61.49-.48.73-.61.73-.43.85-.49.92-.12,1-.3.92-.61,4v1.28l-.12,1-.13.91-.06,6.4-.12.91.25,1L166,29l.07,1.83.54,4.94.67,2,.19.85.48.91,1,1.65.91.37,1,.54Z"/><path class="cls-3" d="M203.39,45.06l-1.65-.79-1.34-1.1-.73-.79-.43-.73-.55-.73-.48-.86-.67-1.83-.13-1-.24-1-.24-.73-.61-3.17.12-1-.31-2.87.13-1.22-.19-.91.06-.91L196,23.79l.12-1.58-.12-.86.18-1.58-.06-1.28.37-3v-1l.18-.8.12-1.09.25-1,.36-.79.19-1,.36-1,.18-.73.43-1,1.16-1.64.55-.61,1.52-1.47.79-.42.86-.31,1-.49,1-.06.91-.12,2.93-.06,2.07.43,1.83.73,1,.24.86.61.54,1-.18,1-.55.8-1,.12-.92-.18L212,6.12l-1-.25-.91-.36-.91-.19-1.47-.12-1.58.31-.79.06-.74.36-.67.43L203.2,7l-.61.61-.3,1-.92,1.64-.18.85-.85,5.06-.24,9.14.12,1-.06.85.12.79.06,1.16-.12,1,.18.85.24,2.93L201,35.8l.36.91.19,1.1.3.73.49,1.1.49.73.73.61.85.61.79.42.86.31,1.52-.06,1.34-.19,1.52-.12,1.28-.3,1.71-.61.79-.61h1.1l.91.73.06,1.28-.73,1.22-4,1.7-2.25.37-1.47-.18-1.52.18Z"/><path class="cls-3" d="M228.5,45.67l-1-.31-.91-.18-.73-.36-1.47-1.1-1.22-1.22-.54-.79-.43-.73-.67-1.83-.49-.79-.55-1.89-.91-7.07.12-1.16-.18-1v-.85l.12-.85V19.4l.12-.79-.06-1,.06-1v-.92l.24-1,.37-3,.85-2.92.43-.67.3-1,.55-.61.37-1,.67-.8.79-.48.67-.55.86-.55.79-.43.91-.36.85-.19.92-.12,1.46-.12,1.4.12,1.1.18.79.25.79.18.86.43,1.58.91.61.55,1.28,1.46.86,1.71.54,1.71.37.91.24,1,1,7.07v1l-.12,1,.18,5.91-.18,1.89v2l-.25,1-.18,3-.31,1.83-.48,2-1.1,2.8-1,1.53-.67.91-.74.67-1.52,1-.73.36-.92.06-.91.31-1,.12h-1.46l-1.4.06ZM233,42l.91-.24.61-.61.67-.55,1-1.4.61-1.83.42-.91.12-1,.13-1.22.3-2,.24-2.8-.06-1.1.13-.85-.07-5.3.13-.8L238,19.52l.06-1.09-.24-3.72-.37-1.89-.06-1.1-.42-.79-.31-.85L236.42,9,236,8.07l-.55-.8L234,6l-.85-.3-1-.3-1.28.06-1.4-.13-.85.31-.79.24-.61.49L226,7.76l-.79,1.46-.8,3.11-.48,2.87-.13,2.13-.06.91-.12,2.93.12,2.68-.12,1.46v.92l.12,1,.06,4,.19.74.06,1.89.73,3.16.55,1.71.36.91L227,41l.8.42.73.55.91.31,2.74.06Z"/><path class="cls-3" d="M265.37,44.57l-.85-.91-.37-.86-1.22-3.71-.24-1-.43-.91-.18-.86-1-2.92-.18-.73L259.52,29,259,26.9l-.43-1-.24-1-.43-.67-.54-2-.43-.92-.12-1-.43-.86L254.1,12l-.13-.86-.79-2.8-.37-.79-.24-.06.06.91-.06,1,.12,1-.06,1,.12,1-.06.8.12,1-.06,1.53.13,5.36-.19.91.19,3.9-.07,1,.13,1.1-.06.85-.13.91.06,2.14.13,1.46-.19,1.34.13,1.16-.07.79v1l.13,1.09-.19,1.1.13,3.84-.55.91-1.47.37-1.4-.49-.49-.79-.06-4.88L249,38l-.13-1.16.06-4-.12-2.44.06-.85V28.12l.13-1-.19-2.31.06-2.5-.06-1.1.06-.79-.06-1.16.12-.91-.18-.92.18-1.89V14.47l-.12-.8.06-3.1-.06-1L249,5l-.06-1.1.49-1,1.4-.49,1.53.06,1-.12,1,.55.91,1,.37.85.24.86.12,1,.8,1.71,3.35,10.3.12.85.31.86.48,1L262,24l.48,1.89,2,5.85.3,1.47.3,1,.49,1.1.25,1,.12,1,.55,2.07.36.91.25-.06.06-3-.31-1.77.12-1V33.18l-.18-1.41.18-1.4-.12-1.4.12-2.44-.12-.79.06-12.55-.18-1.53.12-1.4-.12-.79.12-.92-.06-1,.06-.92-.18-2.92.43-.92.79-.3,1,.06.92.31.61.85.18.85.12,1.71-.12,1,.12,1.1-.12,1,.24,4.93-.12.73.12,2.26-.06,1-.12.86.12,5.05-.12.86.12,1-.06,4.09.06,1-.12.86.12.91v1l-.12,1,.12,4-.12.79v1.1l.12,1.1-.12.85v.86l-.43,1.21-.91.37h-.91l-1.1-.06-.85.12Z"/><path class="cls-3" d="M29,65.18,28.89,69l-.27.74-.14,1-.78,1.8-1,1.47-.6.69-.6.6-.64.73-.69.55-4.37,1.75-4.74.37-1-.18-1,.09-1.06.51-.41.82,0,1.06-.1.87.1,1.71,0,1,0,.92-.42,1-1,.36-1.06.1-.83-.05-2.26.09-.82,0-1.43-.46-.51-.88.05-8.51-.09-.87,0-11.92-.09-.87.19-1.84,0-5.57.41-.74,1-.5,1-.19.82.14,1,.05,2.85-.19.92.14,2.81.05,1-.14,1.47-.05,1.38.05.92.32h.92l.78.32,1.84.56,1.52,1,2.07,1.79,1.1,1.52.88,1.56.55,1.71.14,1ZM4.23,62.79l.14.23.18.14.19-.23-.32-.28ZM9.57,78.11l.32,0,.28.23.27-.18-.09-.37-.5,0H9.34l.09-.59.32,0,.19.14.18,0L10,77.05l-.23,0,0-.46v-.83l-.42-.92-.87-.14-.19-.28.23-.32.79.37.64.41.19-.13-.19-.23.42-.46L11,74l-.14-.32h.32l.6,0,.19.14.46.36.55-.13-.19-.33-.64-.09-.37,0,0-.19.23-.14.32-.5-.37-.74L11.18,72l-.41-.14,0-.32.37-.18L10.54,71l.27-.73-.27-.14-.42.41L10,70l-.32-.37.51-.51.23-.46.41,0v-.33l-.23.14-.18.19-.46.23-.23-.1.27-.27,0-.42-.19.14-.27.51-.14.69-.65.18-.32-.37-.23.14v.28l-.14,1-1.15-.18v-.6l.28.14-.28-.37-.5-1.29L7.08,68l-.32.42.09.5.37,0,.28-.37L8,68.31l.23.55.46-.37.18-.36L8.65,68l-.19-.09,1-.37-.18-.42-.46.23-.23.28-.1.28-.18.41-.74-.51-.46-.18.69-.37L7.5,66.7,7,66.93l-.19-.6L6.16,66l-.32-.41-.55-.47L5,65.69l-.27-.46-.37.18.09.55v.37l-.14.42.83.18.55-.41.33.13V67l.36,0,.28.19-.51.27-.82-.09-.28.32-.55.09-.28.33.23,1.05-.09,1.11.32.37-.14.18-.23.87,1.2.37v.55l-.92.1L5,72.59v-.28l-.51,0,0,.55.27.5L4.6,74l.41.27-.32.33.19.36.32-.13-.09.5-.42.37-.14-.32-.32.09.19.69-.1.51.65.92-.14.27.37,0,0-.37.42-.37.55.46.74.18L7,77.33l-.51-.19.19-.37.41.14.46.14.46-.6.37.19L8,77.28l.23.51.46.27L9,77.69ZM5.38,79.67l.37.46.32-.64L5.38,79l-.55-.46-.41-.23.13.46-.27.88v.64l.46,0,.14-.51ZM4.55,63.89l-.13.42.41-.14L5,63.71Zm-.09-3.68.28.65v.5l.55-.14.37-.36-.42-.23-.36-.56Zm.6,10,.23-.14,0,.5-.69-.18ZM4.69,59.38l.46.23.09-.41L4.92,59Zm.14-2.57.41.09,0,.28L5,57.27l.23.46.6-.19L5.66,57l-.23-.6-.32.27Zm.41,25.12-.32.14,0,.27.32-.09Zm.37-19.28-.27-.09-.1-.23,0,.41.41.28.28-.19V62.6Zm0,6.21-.32.19,0-.46.41-.28Zm-.23-13.2.23.14.28-.14.32.14.18,0L6,55.43l-.6,0Zm.19,20h.32L5.8,76l-.28,0Zm.18,7.45,0-.37-.23-.22-.05.32ZM5.57,84l-.05.23.09.28.14-.23Zm1.1,1H6.35l-.55-.14.27.14-.32.36-.23.37L6,85.65l.28-.41.36.09ZM6,62l0-.37H5.61v.41ZM7,82.25l.23-.55-.51-.37-.41-.18.14-.28-.28-.41-.55.36,0,.56.6,0,.14.32-.28.64.46,0Zm-1.2-23.6.37-.19,0-.27-.36.14ZM6,63.85l0,.46.42,0L6.35,64Zm1.7,14.67.37-.23L8,78.06l-.37,0-.14.18L6.72,78l-.51.46.46.18h.78l.78.32.1-.27-.23-.19ZM6.35,74.75l.37-.23,0,.32Zm1.52,5.11-.42-.23L7,79.49l-.42.09L6.35,80l.37.27.27.42.32,0v-.5Zm-1.11-23,.23.37-.14.6v.64l.42-.41.09-.83L7.5,57l.23.09-.19-.19H7.31L7,57ZM7,79.58l.32.18L7,79.9l-.23-.23Zm0-4.32.46-.05-.19.28Zm1.19-13.8-.23-.1-.14-.27-.46.27L7,61.82l.41.23.14-.46.51.09.27,0Zm-.69,3.26,0-.18H7l.18.18Zm-.32,9L7,73.19l.41,0Zm.87-10,.28.18.09-.23-.09-.32L8,63.48l-.51.18-.32.23.41,0ZM7.73,83l-.19-.28H7.22l.14.23ZM7.36,65.18l.41.28L7.54,65Zm.09,9L7.77,74v.33l-.27.18ZM8,58.46l-.23-.18-.23.18.27.14Zm.09,13.67.14.37-.65-.23,0-.79.18-.55.46-.14.37.51.74.14.09.37-.51,0-.64-.05ZM8.23,58l.33.23.27.1-.27-.28ZM9.52,82.39l-.46-.28-.5.14-.33.14.37.14.28.13.51.19ZM8.33,55.84l.32.28.6-.09-.51-.19Zm.41,9.29-.28,0,.1.51.23,0Zm0,5.89-.18-.23.78-.73v.69ZM8.88,76H8.56v-.46l.32,0Zm.46-3.78.6-.27,0-.46.28.09.14.69-.88.14-.78.23-.05-.37Zm-.51,7.32L9.48,79l-.14-.41-.74.55Zm1.25-6.86,1.19-.36.14.18-.41.46h-.6l.14.28.09.27-.55.14-.28.51-.55.09.23-.69-.69-.09-.1-.33.51,0ZM9.39,76.5l-.19.18-.32-.37.32-.09Zm.18-11.23H9.11l.14.88.55,0L9.66,66Zm.09,14.22.19.05h.27l.19-.28H10l-.13.23Zm.19,1,.46-.1L10.4,80l-.32,0-.05.23Zm.69.92-.1-.19-.36-.09H9.89l.19.28ZM12.47,76l-.14-.32-.09.32-.28.14L11.82,76l-.55-.42L11,75.16l.18-.23-.41.14-.33.19L10,75.21l-.09.41.73.23v.46l-.5.19h.6l.64-.37.37.18.5.28ZM10.12,65.6l.32-.19.14-.32-.32.09Zm.19-4,.18-.13,0-.24-.23.14Zm.27,7.5-.23.65.42.13.23-.59ZM11.78,77l-.19-.32,0,.23-.05.32-.23,0-.18.55-.6,1,.46.65v-.41l.23-.7.41-.59-.14-.46Zm2.39-5.88,2.35,0L17.94,71l.74-.23.73-.55.6-.74.42-.74.32-.82.09-1.25-.09-1.28-.14-.83-.46-.92-.6-.6-.73-.51-.92-.41L13.11,62l-1,.46-.46.87v1.89l-.1,1,.14,3.72.42.79.92.55ZM11.87,73l-.28-.23.19-.27.09.13Zm.6,4.51L12.38,77l-.23.1.23.18Zm.32-2.62.23.23V74.8l.28-.33h-.42Zm.78.55-.55.09.05.19.27-.19Zm.23-14.68.32-.27.46-.23H15l-.42-.32L14,60.4Zm1.06,15-.28-.28-.41.14.23.37.41,0Zm.46-2.21-.05-.42-.5,0,0,.23.33.23-.28.18h.28Zm.14-1.66-.28.09.23.19.28-.09Zm.32,2.53-.37,0,.09.41.28.09Zm.14-1.56.5.18.33-.6-.28-.5-.41.09.32.18-.19.37-.41,0Zm.55.73,0,.28,0,.18.18-.13.65-.42-.51-.32-.28.18Zm2.71,2-.69-.37-.69.23-.27-.18-1-.74.13.23-.27.33.6.23h.55l.27.13.6.28.69.18ZM17.39,58.37l.41.05.1-.51-.46,0Zm1.1,14.77-.64-.23-.37.18.19.23.64.19h.32Zm.42-1,.5-.32-.46-.1-.46.19-.18-.28-.28.09,0,.14.37.05Zm.27,5.06L19,76.87l-.28,0,.23.19Zm-.36-17.58.27.19.19.14.13.27h.23V60l-.13-.18-.14-.42-.55,0Zm.13-3,.28.05.05-.41-.23-.14Zm.74,17.72L19.51,74l-.28-.23.05.46.23.37Zm.55-2,.55-.46-.64-.23-.46.42Zm0-1.19-.37-.1.05.23.37.1Zm-.32-12.06.14.46.14-.23v-.23l.18-.18.14-.09h-.23Zm.64,16.38H20.2l-.14.37.32-.14Zm1,.74L21.07,76l-.32-.18-.14.32.32.23.51.09Zm.09-.74.09-.46-.46-.64-.32-.51-.18.14.14.27.09.33.23.41.14.14-.23.27.36.23.19,0Zm-.69-4.83.14.32.41,0-.13-.37Zm.14-12.7.37.28.09-.42ZM23,72.27h-.19l-.27.23-.42.13-.5-.23-.14.19.5.41.56.14v-.23l.13-.28.19-.27Zm-1.29-2.58-.19.46.28.09.32-.23v-.27ZM22,74.11l-.42-.28-.09.37.46.14ZM21.62,61l.05.42H22l0-.37Zm1,13.94-.46,0,.14.18Zm1.06-3.22.14.14.05-.19-.33-.23-.73,0,.09.32.41-.14.23-.18Zm-.6-5.8.1.23.13.23v-.36Zm.1-8.51.09.42.46,0-.19-.37Zm.92,17.3-.33.14v.23L24,75Zm.41-1.93-.6.14-.09.46.41-.1Zm.09-13.62-.37.14v.32l.33,0Zm.6,4L25.12,63h-.37l.14.23Zm0,10.49-.32-.28-.14.37.37.18Zm1.2-3.45-.79-.14.42.28.09.55h.23l.05-.32Zm.73-8.19L27,62l.09-.41-.46-.42-.18.28.5.27h-.27l-.14.19.23.18Zm.65.92-.05-.19-.27-.09.09.23Z"/><path class="cls-3" d="M60.72,85.47l-.27,1-.88.42-1.52,0-.87-.09-3.63.05L52,86.48l-1-.83-.51-.78L50.1,84l-.51-.69-.87-1.65-1-1.39-.37-.82-.55-.92-.92-.79-2.67-.36-.87.5-.42.92-.09,3,.14,1-.09.83v1.57l-.42,1.33L40,86.85H38.64l-.74.09-1.47-.14-.92.14-1.33-.6-.46-1.42V78.11l-.09-.92,0-3.73.09-.87-.09-.88v-.92l0-1,.13-1.84L33.67,67l0-10.53.55-1.29.83-.46,2.71-.23,1,0,.92.19h.92l.83-.23h.92l.92.18H46l1.34-.09,1.47,0,2.62.59,1.75.6,1.61.88,2.62,2.76.51.73.36.79.83,2.62.14.92.09,2.9-.6,2.66L57,73.32l-.64.56-.65.69-.41,1,0,1.1.56.69,1.47,2.39.41.83,1.57,2.35.36.87.56.65ZM34.32,57l.36.83.79.69-.37.5.23.09.41-.23.23.51-.23.18.28.23L36,60l-.37.27-.18-.13-.23.32-.41,0-.05.32.55,0,.19.19-.28.37.87.46,0,.64-.23-.09,0-.33L35.56,62l-.32.46-.37,0-.14-.14.09-.14-.27-.41v.46l.32.23-.23.09-.28.14,1.43.09-.23.55.41.32.09-.41.19-.6.18-.41.28.32,0,.69h.92l-.87.83-.37.59.32.51.56-.18.36.32.28-.09-.14-.6-.69-.09.37-.51,1.43,0-.23-.23,0-.37.37.05.6.18h.5l-.73.46,0,.69-.64-.14-.42.37.14.41.65-.18.27-.19.37.24.05-.37.41.23-.14.5.23-.13.42-.88.32-.69-.37-.41.18-.14-.13-.32-.1-.19.69-.14,0-.59-.19-.42.37-.23.51.23.64-.41.92-.32L44,61l.23.27.32-.36h.09v0l.46-.18.6.55.55-.14h1.11l.5-.41-.18.64.32.09.09-.36h.28l.14.36.46,0,.23-.6.09.28,0,.22.1-.18.36-.55.28.09.6.74.55.14.28-.05.09-.28,0-.64-.18-.69.23-.42.37-.32.69-.23-.14-.5-.6,0,.46-.32-.5-.32-.23.64.09.42v.36l-.19.14-.55.09L50.65,59v-.51l-.37.14.09.37.09.23,0,.55-.69-.23-.19-.69-.13-.19-.19.37-.09-.5.69-.42-.14-.5,0-.56L49.31,57l-.41.78-.55.14-.09-.14-.14-.23.37-.09.13-.14h-.23l-.18.19-.83.18-.87-.32,1.06,0-.19-.18.09-.28.33.1,0-.33-.46-.36.6-.1.18-.46-.69-.09L47,56l.1.59-.46.28-.42,0,.14-.5-.28-.46L45,56l-.23-.56-.51.14.09.42-.32-.37H43.7v.46h.37l0,.27-.36.37,0,.37.42.18-.83.28-.6-.28-.28-.09L42.23,57l.09-.28.46.28.41.32.1-.23L43,56.72l.42-1.38h-.37l0,.46-.41-.1-.19-.36-.59.18-.33,0,.19.32-.09.37L41.35,56l-.27-.64-.69,0-.09.32.32.19-.78.46-.05.55.32.74-.78-.37-1.38,0-.23.6.41.23.28.42-.23.18-.51-.09-.41.09L37,58.37l.18-.14-.41-.92-.37.74-.55,0,.18-.41-.46-.18-.23-.14-.27-.05-.37-.37v.23Zm0,7.54h.28l-.19-.18Zm.37-.78.14-.41-.37-.23-.09.5.55.42.28-.09.18-.19-.23-.09-.23.14Zm.18-4.6,0-.51-.28-.23,0,.46Zm1,6.81-.74-.32-.32.37-.23.27.37-.09.32-.23.23.18Zm-1.29,9.75.27-.27-.09-.28-.18.28ZM35.1,83l.37-.37-.19-.37-.41.28.37.78.18,0-.14-.14Zm.23-6.17-.14-.41-.28.41.42.09.09.28.28.14Zm.27,3.27L35.37,80l-.46.18.14.19.37,0Zm.46-14.91L36,65l-.23-.42-.23-.18V65h.19l.09.18ZM35.74,81.7l.32-.28.42-.14,0-.36-.27,0-.19.32-.46,0ZM35.6,61.13l.51-.83.32.24,0,.36-.37.19.09.18.28-.05.18.19-.09.41-.6-.36Zm.14-5.56.09.36.33.19.18-.37.46.32.32-.32v-.23l-.37.18-.41-.13Zm1,29.44.55.32L37,84.92l.28-.32,0-.28.28,0,.5-.23v-.46l-.36.1.13-.47.51-.13v-.79l.74-1.24.18-.87.28-.09,0-.19-.18,0-.46.14-.23.27,0,.79-.78.18-.55.18.09.56.32.13-.46.23-.41.42-.23-.14-.41.28v.36H36l.09.56.6-.23-.05-.33.23-.18-.18-.23.32,0,.37,0,.14.46.18.5-.23,0-.32.28-.23.18h-.69Zm1.7-28.94-.23.37-.37.09-.46.51-.46-.46-.73-.09.46.5.73.32.28-.09.23-.5.73-.19.28-.09h.18l.1.32-.37.09,0,.28.56-.32-.1-.74.23-.23-.27-.5h-.42l.51.36-1.1,0-.51-.14-.18.37.18.14.23-.37Zm-1.79,4-.33,0,.33-.27L37,60v-.46l.28-.41.13.27.65-.09.09.32-.32.19.69.23.37.64.32.37-.05.42.42.55.36,0,.14-.13h.46l.19.18-.88.18-1-.36-.83.41.55.5-.27.28v-.32l-.37.09-.41-.32,0-.32.46-.65L37.77,61l.36-.23,0-.32-.42.41-.5.23-.05-.37-.32-.13Zm.69,20.75.18-.28,0-.87-.65-.46.14.13.18,1.11ZM37.26,62.6l.28,0,.09.32L37.4,63l-.28.14-.18-.28Zm.28,3.18v-.41l-.19.18h-.14l-.13.23.27.23.46.28L37.9,66Zm.13,13.3.23.13.19-.37-.74-.09.14-.23-.32.19Zm.79,6.67h-.33v-.69l-.23-.51-.32.18.42.42-.1.27-.55.14-.18.32.73.19Zm-1.11-4.88V81l.19.19,0-.23Zm.37-13.53v.23l.32-.32-.41-.37ZM38,82.16l-.27-.33.41-.32.41.1-.32.41Zm.42-24.06-.37-.1.09-.32.41.19Zm1.47,26L39.84,84l-.19.19-.32,0-.55-.46.14-.46.32-.42-.19-.32-.32.1.09.5-.23.65.14.36-.37.65.28,0,.09-.23.37-.18.09.37.23.09.09-.37h.19ZM39.24,66h.41l-.27-.18-.56,0-.13.32-.23.14-.05.14.18,0,.42,0,.27-.09Zm-.32,9.57.32-.55v-.19l-.19.09-.09.28-.18.05-.05.27.23.28-.18.27h-.37l.41.14h.42l-.09-.37Zm2.07,3-.56-.33-.73.28-.28-.23.55-.51.05-.78-.41,0,0,.69-.23.32-.27-.51-.28-.27.32-.1,0-.41-.33.09,0,.32-.05.19.28.41,0,.69-.59,0,.59.32h.6l-.37.28.14.32.51-.19.37-.59Zm-1.66-8.47-.09-.37-.32.09,0,.37-.32.05v.18l.28-.18Zm-.09-7.41,0,.51-.32,0-.23-.32Zm.27-2.25-.46.18L39,60.3l.32-.13Zm.28.51-.55,0,.18-.18.28-.37-.28-.55-.27-.51.27-.37.6.6.28.92-.1.37-.09.87h-.37Zm-.23,20.88-.05.37.23.18.37-.46-.27-.46-.28-.18-.18-.28-.05.19-.18.5.23.14Zm-.05-13,.14-.32-.37,0,0,.46Zm.56-1.38.32.14,0-.19-.32-.18-.5.46-.1.32Zm.32-4.79.27.23-.55.1-.27.41L39.65,63l.51-.23ZM40,64.17l.28.09,0,.51-.46-.19Zm.74,19.23-.14-.51-.73-.09-.05.51.14,0,.46.28Zm-.55-24L40,59l.46.23.09.37Zm.64,19.88-.55.14-.18.41.41-.18Zm0-22.54-.41.36v-.32l.87-.5.19.18-.19.37.65.18.41.23-1,.37.19.78-.46.19.27-.28-.41-.46.05-.69-.23-.28Zm1.38,19.87,0-.37-.51.19v-.33l.37-.27-.78,0-.65.69v.37l-.14.6.19.09.27-.78.28-.55.32.46Zm-1.65-2.07.5-.64-.55.13.05.56,0,.18ZM42,60.67l.37.23-.19.28L41.86,61Zm6.67,8.93.83-.37.5-.41.51-.69.41-.92.14-1.38-.18-1.2-.28-.74-1.15-1.42-.87-.23-1.2-.1-1.29-.27-1.84.18-.92,0-1,.37-.42.87-.09,1.93L42,66v2.76l.37.74.92.51,1-.1,2.21.1.88,0ZM42,58.33l.6.13-.33.28ZM44.71,76l-.23-.14-.18-.23-.18-.32-.1.37-.5.18-.05-.36.14-.46-.14.23L43,75.21l-.32.18-.14-.69-.14.14.05.32.37.6.55.32h.37v.42h.32l.32-.23.32.09ZM42.5,60l.42-.23.14.46-.05.41-.32-.18Zm.37,12.7-.18.18,0,.14.42-.42Zm1.52-1.34-.37.09-.55-.09v.28l1.06-.19.46-.32v-.37ZM44.3,60.26l.32.55,0,0-.33-.14-.41-.14-.18-.09Zm0-3L44.12,57l.64.18-.18.6Zm.92,17.66-.27-.36-.09.55Zm0-18.08-.27-.23v-.27l.41,0,.23.14.46-.09-.28.37Zm.37.33.51,0,.18.09-.32.32-.51.1Zm3,18.86-.23.14-.28-.1L47.93,76l-.09.28.32.23-.55.23-.73.18,0-.27-.14-.46-.87-.92-.46.18.09.55.69.19.69.46h-.6l.42.5.6.19.27.41L48,77.6l-.23-.5.51-.65Zm-.83-4.88.18-.41.37.09.05-.14-.28-.18-.27.23-.46-.09-.83.46-.46.18L45.54,71l.14.28.6.46.87-.64.6.69.37-.42-.19-.18Zm-1.52,2.12-.18.23-.19-.14-.18.09.28.37.27-.14.23-.27Zm.05-18,.09.51.28.41.13-.46-.18-.41Zm1.33,4.28-.69-.64.19-.42.32.37.41.23Zm0,12.7-.32.51.27-.14.14-.23.28.32.09-.28-.32-.18L47.52,72Zm-.32,2.48v.23l.32.1Zm2.3-2.3.78,0L50,72.17,49.45,72l-.27.14L49,72.4l-.28.19-.41.41-.51,0-.28.14.19.36.73,0-.27-.28.37-.13.27-.46.28-.19.27-.27Zm-1.43,6.31-.05-.51-.13.42-.14.13Zm.41-19.19L48,58.88l.55.09.51.32Zm.1.23.59-.27.46.78h-.46L48.62,60Zm0,11.69.14.32,0-.23.42-.46,1.38.69.6-.23,0-.37-.32,0-.32.14-.23,0,0-.55-.14-.51,0-.27-.19.09.19.23v.46l-.42.27L49,70.84Zm2.85,2.9.46.18-.18-.46-.42-.23-.18.23v.18l-.51,0-.27.14-.19,0-.13-.32-.42.37v.78l.55-.69.14,0,.37-.23.14.18h.23ZM50.37,56.85l.28.46-.23.56.6-.19.18.14.18.09L51,57.22Zm.69,4.33-.37-.46.14-.28.46.32.28.19-.23.14Zm-.37,12.47.42-.05.6-.37.5-.46.42-.46L52.3,72l-.5.23-.32,0,.09.18,0,.19-.27.46-.14.32-.37-.09Zm1.38-11.27-.27-.19-.65,0-.09.51.14.23.41-.37Zm-.69-6.22,0,.46.28.23.23-.27-.33-.32Zm.74,14.45-.51.18.14.37.46-.18Zm.37,6.49-.05-.74-.69-.69-.14-.23.1.32.5.74Zm.32-13.57h-.46L52.26,63H52l-.09.28.41.55Zm-.05-4.1-.46-.28-.36.33.36.13Zm.19.41L52,60l-.09.28.27,0,.19-.23.23-.09.55.51.14.46.32-.14-.28-.55Zm-.37,5-.09-.27-.23.27.18.37.37-.14Zm.32,4.56h.23l.37-.19-.32-.36-.32.41h-.33l-.27.23.32.14Zm-.41,6.53.37-.32-.6.09Zm1.61-1.66-.28-.36-.41-.33-.32,0,0,.18-.27.19v.18l.27.09-.14.32.28.19V75l-.41-.1-.23-.18H52.3l.1.28h.41l.18.27v.19l.46-.42-.13-.37-.19-.23.42-.36Zm-.42-1.33-.18-.28-.18.23-.37,0-.05.37.19.27Zm.37,3.68-.46.14,0,.37Zm1.06-5.06.28-.23L55.16,71,55,70.66l-.23,0,0,.23.37.14v.23l-.28.46Z"/><path class="cls-3" d="M97.06,70.75,96.83,74l-.18,1-.28.74-.14.92-.32.87-1.79,3.17-.6.83L90.3,84.6l-4.09,1.84L84.46,87l-4.1.41-2.76-.14-3.91-1.15-.87-.36-3.13-1.66-.6-.69L67.8,82.16l-2.16-3-.46-.83-.27-1-.69-1.57L63.71,73l.18-5.34.37-2,.88-2.53.41-.78L67.11,60l1.25-1.38,1.47-1,.64-.56,2.35-1.47,1.75-.46.82-.37.92-.27.92-.19,3.22-.18,2.17,0,6,1.88L91,57.54l2,1.8.6.83.55.55.6.78.32.83.83,1.52.23,1.06.36,1,.37,1.7ZM65.55,72.4l.55-.73-.37-.42.14-.23,0-.09-.14.14-.14.23,0,.28-.32.09-.14-.23v.32l.09.28-.18.36Zm.37.23.32-.13.28-.1.32.23.14-.5.46,0-.14-.23L67,71.81l-.19.09,0,.37-.23.13h-.19l-.14-.13-.46.23-.32.32Zm-.23-2.11.23.41.18-.41-.27-.37Zm.23-5.29.09.18.23-.41.09-.23L66.1,65Zm8.92,18.4L76.13,83,76,82.43,76,82.2,76,81.88l-.28-.14.09.19.19.23-.79.27-.69.65,0,.32-.37-.09h-.18l-.28.18,0-.37.37-.37.28-.22.27-.28.1-.46.5,0,.14-.59-.55-.09L74,80.73l-.18-.41v-.46l0-.19V79.4l-.18.23-.14.27-.14-.27-.27-.09-.14.41-.23-.09-.18-.28-.33-.5-.36.41-.1.18-.18-.37-.37-.5.55-.6.56-.32.23-.19-.19-.23-.18.28-.78.28-.6.69-.14-.42-.41-.09,0-.69-.41-.32v.41l.32.32L70,78l-.37.23-.55,0,.09.69-.28,0,0,.23L68.54,79l.09-.51,0-.41.59-.23.46-.88.42-.32.32-.46L70.06,76l.5-.28V75l.23.28v.59l0,.19.51-.51L70.93,75l-.18-.23v-.18l.46-.79.14-.78.32-.23v-.18h-.55l-.42.6,0,.73-1,.32-.69.51-.6-.18-.09.36.74,0,.6-.18.13.09-.36.23-.37.41-.14,0-.14-.14v0l-.32.23-.6.65.42,1.1.23.55-.42-.13-.37,0V77.6l-.18-.37-.51.1h-.46l-.41-.28-.14-.14L66,76.73l.23.69.87.41.51-.46.18.32-.09.23.14.28-.37.14-.46.28.28.92.83.36-.1.51.23.55.46-.18.42.87.55.46.23-.14v-.23l.32-.59.28.18-.28.46.09,1.29h1.06l.42,0,.13.23-.32.28L72,84l.32.19.5-.33.74.88.23-.69-.09-.28.09-.32L74,84l.14.6v.28l.27,0,.09-.18Zm-7.36-8,.32-.18-.41-.37v-.18l-.28.23L66.42,75l-.32.41v.32l.19-.18.32-.23.46.46.6,0ZM66.93,68l-.41-.09.23.23-.23.27h-.33l.37.28L67,68.4Zm-.69-3.78.18-.13.42-.14,0-.37-.32.28Zm.69,12.06L66.61,76v.27l-.14.28,0,.23.09-.19.37-.09.18.09,0,.23.23-.18Zm0-2.81.23,0,.23.13-.23-.23Zm.32-4-.28.28h.23l.28-.23-.14-.28ZM68,74.75,67.9,75l.18-.23V74.2l.46-.09.14-.37-.37-.09-.23.18-.46.18-.18.28L67.25,74l-.23,0,0,.32.27,0,.37.18Zm-.92-7.5,0,.32.14.1-.09-.19Zm.5,5.43-.36,0,0,.32h.51l.23-.32h.36l0-.42-.32-.09,0,.28Zm-.18-6.62.09.18L67.8,66l-.18-.18Zm.18,12.74.23.09-.32.19Zm.05-8.65.37.32.09.19-.23-.6-.28-.28ZM68,67.57l-.19-.13.14.18v.23l-.09.32.32.32.14-.27-.14-.32v-.28Zm0-6,.14.23h.46l-.28-.23Zm.73,9.94-.41,0,.18.23Zm.14-3.36L68.68,68l-.28.09.19.14ZM68.54,61h.37l.09-.28-.37,0Zm.64,19.41-.64.1v-.37l.37-.09.37.09Zm.28-6.81.14-.36.09-.69-.37-.42-.46-.14-.09.33.41.18-.09.28-.23,0,.19.14.23-.09v.41Zm-.6,2v-.19l.14.1.09,0,.32.23-.27.32Zm.55.92-.5.55v-.51l.64-.32.42.09ZM69.14,74l0-.19L69,74l.28.32,0,.18,0-.27Zm.18-4.46-.32.18v.46l.41-.18Zm-.14,11.27.37,0-.18.23Zm1.2-8.51,0-.42-.27-.23-.32,0,0-.28-.28,0-.18.33.37.27L70,72l.13.32Zm-.64,7.59-.37,0-.09-.14.23-.32.32.14Zm-.23-6.26v.05l.09.27.23,0-.09-.19Zm.13-13.06.14.18.09-.18v-.19l.19-.05.14-.13-.28-.05-.09.23Zm0,2.85.1.27.09-.37Zm.1-4.33,0,.28.28-.19v-.23Zm.46,21.49.13,0-.59.19Zm.13-7.32-.46,0,0,.41.46.05Zm0,1.57-.23,0,.18-.5.42.18ZM70.2,64.72l-.1.37.33-.14.09-.28Zm-.1,3.54v.28l.83.32-.32.09,0,.23.36.1.51-.14-.32-.55.09-.37,0-.42H71l-.23.6-.19.14ZM71,70.93l-.32.09-.14-.18-.09.41.27.42.46-.14.28-.41.18-.19-.41-.32v-.87l-.32.09-.23.37H70.1v.46l.37-.1.42-.09Zm-.65-4.41-.18.18.09.28.14-.23Zm-.09-6.77.42-.23.41.09.37-.27L71,58.79l.64-.33.65-.23-.1.46.19.23.14-.09-.1-.18.37.23.23.46-.64-.14-.46.23.64.18.6.33.74.23v-.33h.46l.5.19v.32l-.5-.09-.1.37.05.27-.37.05-.46.18-.09.37.51-.28.41-.32.18.14-.13.42.41.22-.14.19-.23.14.55.32.51-.14.18.09.46-.32.83-.83,0-.87.14-.14-.1.37.23.51.56-.19.78.09,0,.23-.36,0v.28l.83.09.69,0,0-.32,0-.27.88-.14.73-.42.37.19V60.3l.28-.13L82.2,60l0-.18-.32.23-.51.18-.51-.09L81,59.8l.23-.23-.23,0,0-.37.28.1.41.41.56-.37-.19-.41h.23l.19-.19-.79-.32-.87.42.14.46-.19.13-.09-.09v0h0l-.55.13-.55,0-.09.23-.23-.19-.05-.5.28-.32-.46-.1-.18-.32h-.37l-.1.37.47.18v.51l-.47-.46L78,58.51l-.41-.28,0-.18-.32-.14v-.23l.64,0,1.11,0,.51.69.46.32,0,.37.32-.14.42-.27-.1-.51-.32,0v-.51l.32,0L81,58l.23-.09v-.33l.32.19.14.46.46-.42.46-.23-.27.28-.14.32.41,0,.23-.23.09.36.1.28,0,.41.19,0,.23,0,.13-.23-.13-.46,0-.27.14-.14-.14,0-.37.18-.18-.64-.41-.92-.6-.51-.14-.18-.05-.33-.13-.18-.28.05-.42,0-.69-.32-.45.14-.28.32-.23.14V55l-.6.28,0,.41-.23,0-.46-.55-.73,0-.6.14-1.06.37-.09.74h-.18l-.51-.37-.55.55-.55-.28-.23,0-.28.09-.69.32-.28.88-.32-.23-.27-.19v.37l-.14.23-.42.28-.36.14,0,.69-.23.18-.18.32Zm1.06,3.41-.23-.65-.74.09,0,0,.41.28.14.27-.32,0,.14.14.32-.23Zm-1,.83.14.22.14-.13-.09-.23Zm.42,3.4-.28.28.46,0,.23-.28Zm1.06,9.25-.51,0-.51-.28-.13.69-.14,0,0,.32.46,0,.09.18.23-.32.19.09.18-.14V77l.14.14.28-.23Zm-.74,4.78.46.19-.51.64-.5.69.09-.74,0-.82.19.23.37.27Zm.37-1.84h.18l-.37.64-.36-.46Zm.27-13.48v-.55l-.5.28,0,.5.37-.09Zm.51,9.11,0-.51-.41-.55-.55.09.27.79Zm-.6-13.34-.27-.19v.46Zm0,16.79-.14.14.28.09.13-.23Zm.6-18,.27.13.28.33.37-.19L73,60.54l-.46.09,0-.19-.23-.14-.33.19-.27.27.32-.18Zm.32,15.68.18-.64-.64-.23-.32.32.41.55.14.56.14.27.41-.18.09.55,0,.18.46.37,0,.6,0,.23.18.23.19-.23-.14-.23.14-.23.23.37.09.37.09.13.14-.32.14.1.41.13V78.8h-.46l0-.23-.27.05-.28-.74-.46-.6-.23-.6-.55,0Zm.14,5.39.55.46-.6.27-.18-.27-.1-.33-.09-.5.14-.74L72,80.36l.41-.23.42.42.64,0,.05.28-.14.09.09.23-.18.14-.28,0-.14-.14-.09-.19-.14.23ZM88.6,70.61l-.19-2-.32-.83-.27-.92-.37-.82-1.06-1.57L85,63.43l-2.43-1-2.21-.14-2.12.18-1,.23-.82.42L75.07,64l-.69.59-.6.74-.41.78-.55.65-.28.82-.32,1.71,0,1.38L72.4,73l.88,2.57.6.65.46.64,1.42,1.24,1.57.83.82.09.93.32,2.66-.09.88-.23.83-.09.73-.41.83-.37L86.44,77l.55-.82.41-.69.51-.69.41-1.89ZM72.27,63.94l.18.18.55-.18.23-.37h-.5L72.5,64Zm1.19-1.52.28-.37.23-.32,0-.23-.27.14-.19.37-.09.27-.6.32-.09.33L73,62.7Zm-.37-4.14-.27-.41.27-.19h.19l.37.14-.14.28.32-.05-.28.23-.09-.14Zm.33-1.38-.46,0,.18-.18.41-.14Zm.18,24.57-.28.14,0-.23.27-.14Zm.28-18.4,0,.46.37-.14.18-.19L74.29,63l-.09-.46Zm.36,18.4-.36,0,.23-.37.27.1Zm.28-24-.37-.14V57l.42,0,.23-.23.32.46L74.8,58l.23.41-.28.19-.46-.46Zm.32,22.77-.14.28.28,0,.09,0,0-.18ZM75,60.63l.41.23.37.36-.27.28.23,0,.41-.1-1.1.69-.28-.13.14-.28.09-.23.18-.19-.41-.36Zm.6,23.23-.09-.23-.14-.14.09.32-.28.28v.32l.33-.18Zm0-24.94-.28-.23.23-.5h.6l-.46.46Zm.14,25.17.23.09.13-.23,0-.23-.18.09Zm.46-3.63-.28-.1-.14.23.23.09Zm-.33-21.4.42.69.18.79v.18l-.37.18-.23-.27.14-1ZM77.6,85.29l-.41-.23.27-.56,0-.32-.37.32-1,.23-.23.14.37.09.37.05.18.55.65.14Zm-1.52-3.68h.19l0-.28.1-.14-.19.14Zm1.66.36.32-.36.65,0,.37-.28-.47-.13-.32-.37-.14-.23-.36.18-.19.14-.27-.05-.37.1-.28.32.32.14.23-.33.1-.18h.41l.37-.05-.14.46-.46.55-.18.51-.33.09-.27-.09-.28.74.32.87-.13.19.18.13-.14-.13.42-.28.18-.51-.41.14-.19-.32.46-.6.19-.23Zm-1-24.1-.13-.46v-.19l.41.09.18.37Zm.1,3.49.09.46.6-.14.09-.22Zm.32-1.75.18,0,0,.41L77,60Zm.46,20.89.14-.46.23-.18-.37-.28-.51.32-.09.56Zm-.23-24.61-.28.14,0-.46h.37ZM77.83,59l-.41.23.09-.28.46-.09Zm0,.46.23-.18h.32l.51.36.92.28.14.55-.28,0-.59.09-.28-.19-.32.14-.56-.32Zm.28,23.83.18-.14L78,82.94v0Zm.41-.92-.41-.09.23.28.32.18Zm1.61.6-.46-.09-.27.32h-.23l-.32,0-.14.42-.33-.05-.23.23.42.14h.18l.33-.09.32,0v.28l0-.23-.13-.32.23-.14.23-.32ZM78.75,57.08l-.55,0v-.37l.51,0Zm-.09,23.33.32,0-.09-.33L78.57,80Zm.69,5.06L79,85.29l-.23-.23-.18,0,.18.14.23.14.1.27.27.19Zm-.14-3.68L79,82l.14.14.28-.09.23.13-.19-.27ZM79.58,57l-.5-.46.18-.09.51.23.32.18ZM79.4,80.78l.14-.23-.14-.28-.14.37Zm.32,4-.18.18h.13Zm0-29-.14-.18.23-.23Zm.68,5.34-.41,0,.18.28h.33Zm-.36-4.92.09-.56-.09-.36.32.13.32.33-.18.36Zm.59,3,0,0-.14.37,0,.32-.37-.18.09-.28Zm0,24.7-.14-.23-.32.19.14.13Zm.51,1.34-.19-.14.09.23,0,.27Zm0-28.48,0-.51.19-.27.18.18-.23.32Zm.32.46L81.19,57l.32-.09Zm.18-.28,0-.23.23-.46.14.32Zm.37,3.73-.23.28.37,0Zm1.15.37.14-.42-.51.14-.27.09-.05.19.46.27.19.42.18-.37ZM82.8,56l.46-.14.14-.41h-.51Zm.69.23.14.37-.09.32.09.23.09-.14.09-.18.42.14.37-.33-.14-.23-.32.33L84,56.53l.19-.32L84,56.07l-.19,0-.18,0ZM84,58.14l0,.55,0,.37,0-.37.14-.23.37-.13-.28-.28,0-.55-.19.14-.23.13Zm.83,2.35.41.18.14-.23-.19-.18L85,60.17Zm0,1.52.09.18h.32l-.18-.37Zm1.7-1.8.37-.09-.05-.32-.28.14Zm0,.69.18.05.28-.23-.14-.18.05.22-.23.05Zm1.15,1.61.32.05.23-.28h-.37Zm.46.65-.23.23.32.14.28-.33ZM88,58.33l.19,0-.09-.32Zm2.21,4.55h-.27l0,.19v.32l.14-.14Zm.28,4.37h.37L90.58,67Zm.69.88L90.9,68l-.14-.23-.18.14.23.23Zm1.42.36-.46-.13-.23,0,.19.18.32.19Zm.83-2.66-.09-.23-.28,0-.13-.09,0,.41Zm0-3.27,0-.18-.19.13.09.28Z"/><path class="cls-3" d="M126.78,55.89,126.27,57l-2.94,4.88-.56.64-5.84,9.61-.46,1.2-.27,1.33,0,2.67-.14.83v.92l.1.92-.14,5.34-.37,1-.92.51-.92-.09-1.29.09-1.42-.09-.83.09-.92,0-1-.36-.37-1,0-1.74L108,82.8l.09-3.54-.09-.92,0-3.64-.23-1.24-.46-1.29-3.54-5.61-.37-.83-1.1-1.47L100.46,61l-.5-.65-2-3.27-.46-1,.14-1,.92-.46,2.11.14,2.35-.18.78.18,1,0,1.06.41,1,.87L109,60l.51.78,1.38,2.58.51.74.5.87h.51l.6-.78.78-1.75.46-.78.46-1,1-1.47.55-1.38,1.2-2,.83-.78,1.24-.46.78,0,1.79,0,.92.14,1-.09,1.8,0,.82.19ZM100,58.14l-.23.23-.09.32.18-.27Zm-.23-1.52.28.74,0,.6.33-.6.27-.78-.41-.19-.23.51Zm.14-.69.32-.18.14-.32-.46.09Zm2.53,4.47.41.14.14-.24-.5-.78.36-.87-.09-.42-.46.33-.73-.51-.74.09-.6.55.19.74.32-.09.41.09.55-.14.46.46Zm-1.47-3,.41.37.28-.14-.23-.23.23-.32.32.37,0-.46-.36-.33-.23.28-.19.14Zm.69,1.1.23.33-.69.32-.19-.32ZM101.52,60l-.18.05-.19.23.23.14Zm-.32-4.18h.27l.1-.33-.33,0Zm1-.46.28.09.18-.09.19.23.14-.19-.28-.09-.32,0Zm1,8.19-.1-.37-.32,0,.14.28Zm-.19-4,.23.23.46-.55.65-.14-.14.37-.09.28.69-.46.73-.46-.18-.51-.23-.23-.14.32-.14-.46h-.32l-.09.19-.14.36-.83.37Zm2.26,5.11-.51-.74-.64-1.06-.42.14.09-.55-.36-.46-.28.09,0,.19.23-.1,0,.28.14.55.09.46.28.23.69.74.27.73-.41.14v.33l.18-.19.19-.09.23-.23Zm-2.07-7.45.27.36.23.65L104,58l-.09-.42v-.46h-.41Zm1-.1.1.23h.36l-.18-.23Zm.42,3-.14.23.28.28.13-.32Zm.69,3.22v.33l.18,0v-.23l-.18-.18-.37-.18,0,.22Zm.23-3.08-.09-.27,0-.19-.28-.18.1.64,0,.42,0,.18.13-.18.23.32v.73l-.46.42.19.55.32.28-.14-.46.23-.33.14-.64.14-.18.32.18.28-.23-.28-.83-.09-.55.28.28.27-.14v-.32l.14-.23v-.23l-.18-.69-.28-.69-.18,0,0,.42-.55.36.18.46.56,0,.27.27-.18.23-.32-.27-.23.18,0,.19-.32.36.28.74-.28.51-.09-.37Zm.37,4.05-.37.09,0,.37H106Zm-.42,2.67.33-.51-.33,0Zm.65.74-.14-.23-.28,0,.14.23Zm1.28.64.28-.46,0-.32-.33-.19-.45-.69,0-.73.23-.32-.27-.23-.33.13.1-.32.27-.6-.18-.59-.19-.51.37-.14.37.78.69,0L108,63.8l.09-.27.32.27.46,0-.18-.22h-1l-.51-.33v-.41l-.32,0-.55.51.23.83,0,.5-.19.46-.13.79.23.5-.28.51.23.46.28.32-.14.46h.27l0-.6.18-.23.23.32-.18.56-.09.36ZM107.36,70l0-.69L107,69h-.28l-.13.18-.14-.36-.05.27.14.14.32,0,.14.42-.18.5.13.1Zm-.09-9.39.09.92.51,1,.14.14.14-.37.27-.55-.78-.6.41-.59v-.33l-.55-.73Zm2.85,4.23-.59-.46-.28.23.28.74,0,.41-.92.1,0-1,.14-.46h-.42l-.27-.19-.05.65-.19.83.1.37-.46.23,0,.59.65.23.69.14.27-.92.56-.55.18-.28-.14-.37.32-.09,0,.6-.14.42.42.09.27.41.23,0,0-.33.27-.46.23-.09-.18.46.23.19.51-.19.09.32h.23l-.09-.32-.1-.23L112,65.5l-.37.1-.23-.37-.64-.19-.14-.64Zm15.28-9.15-.23-.09-.28.13-.46.1-.27-.51-.28.28-.28-.14-.37.09-.18.37-.32.14.09.23.37-.14.27-.37.51.41-.55.23-.14.51-.23.18-.46-.41-.23.6h-.28v-.42l.1-.87v-.83l-.46.46-.33-.37-.09.19-.37.14-.13.27H121l.69.42L122,57l-.42-.41-1.7-.28-.09.28.46.09-.09.37-.74.41.46.51-.32.23-.28.18-.23.14v.28l.28,0,0-.32.28.09-.41.74L118.4,59l-.27,0,.23.19.09.32.18.78-.13.51.41.18-.14.64-.55.24,0,.46-.46-.1,0-.46,0-.14-1.43.19.32.73-.18.33.73.6.33,1,.5-.46.14-1,.46,0,.46.55-.55.6-.28.51.19.14.36-.46.37.46.28.32-.23.27-.42-.13-.23-.05L117.48,65l-.55-1.1-.87-.1.14-.68-.14-1.57.41-.74.09.19.33-.14.41-.78-.46-.37,0-.23h.32l.64.55-.41.88.09.46.46-1-.09-1.06-.23.14-.19-.37.14-.46-.18-.23-.37.09-.37.6L116,60.3l-.28,1.29-.41-.13V62l-.46.87-.42.41.23.37.46-.13.23.13v.65l.55.18.19-.46.27.09,0,.42-.19.59.37.74-.6.46-.36.09.09-.46.46,0-.37-.46,0-.55h-.46l-.37-.1-.83-.69-.55.74,0,.32-.18.14-.19.23.51.32.46-.5.23-.7.51.37-.1.37-.82,1.15-.6.42.46-.6-.19-.14-.78.6L112.38,68l.37.09.23.09.18.42-.41.36-.65.65-.78-.51.09-.32-.09-.28.09-.36.37.18.37-.28-.32-.36v-.33l0-.5-.23-.19-.23.33.18.46.1.32-.23.14-.37-.33-.55.14-.37-.41-.32.09.13.18.1.28-.1.32h.23l0-.32.41.32.32-.23.14-.23.23.23-.27.55.27.6-.32,0-.41-.28.32.83-.46.64-.09-1-.6-.46-.14.36.37.1-.32.46-.46.5-.19.65-.5.13-.14-.41h-.19l-.18.32-.23.37.55.18.37.51.18.23-.41.6.32.5.46.1.19-.46-.23-.14.18-.46-.32-.32L108.7,72l.09-.32.32-.28.46.14-.14.28.19.09.23-.14-.09.46.27,0V71.9l-.09-.28.23-.32.23-.23.28.41.23.56.13.78.51.41h.18l.1-.5.41.23.09.64h.51l.18.64-.32.69.64,0,.42,0h0l.14.32.19.46-.28.09-.14-.32-1.06-.28-.82-.09V75l-.1.18.1.28.27.41.42.37.27.64.88-.55,1,0,.23.13-.37.19-.46.14.23.36v.33l.28-.14.23.46.36-.09-.13-.65-.1-.64.23-.42,0-.82.23-.88-.55-1-.14-.83.46.65.55,0,.09-.6.23-.23-.36-.14-.19-.32.09-.55-.69.23-.09-.64h.42l.78-.1.23-.23,0-.55.42.09-.09.23.13.14.14-.14,0-.23-.1-.73.19-.14.23.55.41-.18v-.28l-.27.14-.14-.18.87-.6.14-1.34-.41-.23-.14.46L118,68l-.23.14-.32-.88.37-.69.64.14.28.55.32-.41.23-.69.46-.37,0-.78.09-.28.6.37.42-.69-.19-.09-.5,0,.13-.46-.27-.23.14-.23.32.23.5,0,0-.6.32-.19.28.37.27-.55.33-.6.13-.69.6-.6,0-.78.59-.09.23-.74-.32-.69-.73.05-.28-.37.55-.64,1.06.36.83-.46,0-.59,0-.46.23-.37.37,0ZM108.19,69.41l-.14.46.33.14.27-.23-.23-.41L108.1,69l-.28,0,.23.13Zm.65-7.27-.19.51.23.32.23.51.51-.37-.55-.92-.14-.64h-.19Zm-.19,10.45.32-.19-.09.37Zm.32,1.93.79.46.59.28-.36-.51.27-.28.55,1,.69.41v.74l.14,1-.09.92.32-.51.32-1-.36-.88-.51-.73L111,74.8l-.55-.56v-.41L111,74l.18-.41-.69-.18L110,74l-.27.23-.14-.51-.74.28Zm.28,5.29-.18-.09,0,.46Zm.51-1.47h.41l.41.41.23-.13-.69-.79-.92-.55,0,.64Zm.18-7.87.14.78-.32.19-.14-.69Zm.14,2.85.14-.32-.37,0-.14.32Zm.27,10-.13-.32-.28,0-.09.59Zm0-7.31-.37-.46,0,.6.32.41.37-.09.27.14.09-.33Zm.6,5.66.41-.14-.32-.74-.55-.46-.37-.46v.6l.6.18.18.56-.09.27Zm0-15.83-.42-.09.19-.23Zm-.19,13.94-.14-.14V80l.28.09Zm0-9,.27-.28,0,.51Zm.5,12,.42-.27-.37-.19-.37.32Zm0,1.29,0-.23-.14.14v.27Zm0-12.65.28.46-.23.09ZM112,84.6l-.18-.28-.18-.14.13.37ZM114,75h-.27l.27-.65-.27-.69-.23.28,0,.41-.27-1.06.09-.87-.23-.09-.23-.46-.42.14,0,.59-.6-.13-.14-.46.56-.6-.33-.32-.32-.1v-.69l.37-.09.32-.18.65,0,.36-.36,0-.65.41.09.23.69.42-.46.27.23-.27.23.23.28.23.14-.46.46-.37-.32-.46.5-.14.51-.23-.28v.78l.92-.18.32-.51.19.6-.37.65-.28.41-.37,0-.09.18.23.14L114,73l.19-.18.23.64-.09,1,.55-.14.23.37-.37.37-.28.69-.27-.51Zm-1.88-.42.37-.23-.28-.46-.32.28Zm.23,5,.14-.33-.37.14v.32l.32.14Zm.23,1.1-.28,0-.18-.09.14.23.18.14Zm0,1.61,0-.37-.27-.27v.46Zm.27-4.51.23.23-.13-.32-.28-.18v-.19l0,.19Zm0-1.93.23.28v.32l-.23-.23Zm.09,3.54,0,.37.23.14v-.41Zm.6,5.62-.32.18-.23.55.32.14.09-.55Zm.18-1.75-.18.23-.14-.28-.28-.27v.46l.42.23Zm-.46-4.83v.41h.32l.05-.37Zm.23-1,.42.14-.1-.5-.41-.14Zm.69-9.79.37.32-.28.87-.82-.23.55-.23Zm-.64,11.87.09.27.32-.18Zm.83,4,0-.37-.37-.13,0,0Zm0-3.08.23.23.14-.23-.28-.09-.41.27Zm1.1-.83-.18-.27,0-.32v-.56l-.27-.32-.14.46.09.28-.32.18-.05.46.33.51.23-.14-.37-.46.09-.28.41.23Zm-.55,1.48-.32.09-.05.32.33-.09Zm.42-13.53.09.55-.55-.27-.23-.65.23,0,.18.13v-.23l-.09-.32-.09-.46.23-.14.18.79Zm-.19,2,.19.14-.1.27H115Zm.32.37.37,0-.27.28Zm1.52-3.5-.18.6.18.41-.09.28-.28-.05-.13-.6-.65-.27.23-.23Zm-1,2,.55.14,0,.59-.46-.13Zm1-2.85h.32l-.09.36-.33,0Zm1.42,0,.42,0,0,.51-.55-.05-.19,0-.41-.28.18-.23Zm-.69-7.87h.28l.18-.19,0-.18-.09.18h-.37Zm2.26,2.85-.46,1-.42.19.46-1.06v-.65Zm.55,1,.73.14v.41l-.82-.27-.28.46-.32-.19,0-.5Zm-.37-2.44-.14-.36.32,0Zm-.09.33.5.27-.23.14Zm.09-4.24,0,.6.46-.18,0-.55Zm.64,3.87-.41-.37.09-.46.14-.46.14.37.27.41v.19Zm.14-1.15-.23-.32.42,0Zm.46,2.62.46.92-.09.51-.41-.46-.23-.79-.1-.69Zm0-2.25.32.13.23.6-.14.32-.14-.23h-.32l-.23-.36,0-.19Zm.18-1.06h-.28l.23-.37.42.05Zm.69,2.57.09.92-.23.14-.23-1.1.14-.42Z"/><path class="cls-3" d="M150.83,80.82v4.65l-.5,1-1,.41-6.58.09-.92-.09-.92.09-1.06,0-.87-.19-1.89.14-.82,0-1,.1L132,86.85l-1.38-.6L130.22,85l-.09-1,.14-3.18-.14-.92.09-.87.05-7.45-.14-.83.05-3.77.09-.88-.14-1,.09-4.5-.13-1,.13-1.88L130.13,56l.51-1,1-.36.92,0,.92-.09.83.09.88-.18.92.14,3.77-.1.92.1.78,0,.92.09,1-.09,3.73-.05.83.19h1l.92.37.42.87.09,2.76,0,.92,0,.92-.46.83L149,62l-.87,0-6.58-.09-.87.18-.88-.05-1,.37-.41.87v1.43l.36,1.43,1,.41,2.67-.09,1.93.14,1-.09H148l1.06.59.46,1.29-.14,4.14-.32.92-.92.37-1.06,0-.92.1-1.88,0-1.75.09L141,73.78l-1.39,0-.82.51-.42,1v2.9l.37.83,1,.46,1-.09.87.14,1-.05.93.09,1.51-.18,2.35,0,.87.14,1.06-.09,1,.41Zm-12,3.36-.23-.37.09-.32-.09-.28-.23-.09.28.42-.28.14-.37-.05-.36.41-.37.33-.09.36-.23.33-.1-.42h-.23l-.27.19-.28-.33.09-.23.42-.18.37-.32,0-.37.14-.23.69-.09-.05-.55-.46,0-.64-.37-.28-.37.1-.5-.23-.09-.14.23L136,81l-.41.41-.32-.14v-.23l-.09-.18-.28-.51-.09.69-.19.14-.46-.69-.36-.32.46-.6.69-.46.23-.09-.05-.19-.23,0-.05.32-.73.18-.74.74-.5-.64v-.74l-.37-.23-.09.41.36.37-.59.23-.33,0,0,.36.32.1-.23.18-.37.14.09.14-.36.46.18.6.37-.23.27-.42.33.14.09.32-.51.23-.37.37-.18.74-.41.27.41,0,.32.27-.37.56.23.36-.23.56.42,0,.55.23-.14.83.6.23.28-.18.69.13.92-.32h.55l-.19-.32.51-.09.46.41.41.09.1-.82.18.32.18.55.56-.18.13-.65.74-.27Zm-7.68-5.61.28.46.46.14-.19-.33,0-.22.27-.24-.41-.18-.18.28Zm.09-19.51.42.23.36-.32.33.37.27-.14-.23-.51H132l-.23-.32h-.46Zm.14-2,.32.41.51.65.87,0,.23-.09.09.14h.19l-.19-.19-.23,0v-.37l.37-.32.14.23.55.23-.32.55.18.23v.23l-.5.23-.09-.18h-.23l-.1.18-.18.28-.32.41.14,0,.64-.14.78-.19.42-.23.23.05-.14.41.18.19,0-.28,1,.65-1,0-.14.23.69.19.46.09-.23.18,0,.23.74-.09.27-.32.69.18.09.46-.46-.09-.18.32.32.42-.14.32.6-.09-.18-.42.14-.27.32,0,.23.28.32-.09-.14-.51.23-.83-.37-.41,0-.23-.19-.23.05-.37.51-.18.09-.1.14.23-.19.23-.18.37.46.37v.51l.46.59.46,0,.09-.32v-.6l.42-.46h.55l-.05.32.23-.09.28.46.64-.23v-.51l.28-.27-.51,0-.18-.32-.32.27.32.37v.42l-.42-.46-1.1-.79,0-.36h1.2l.55-.05.37.32v.28l.23,0,.51.42,0,.46.32-.14.37-.41-.18-.42-.42,0-.27-.28.09-.09.18-.09.14-.32-.27-.28.5-.09.55.32-.32-.09.23.6.28-.6-.23-.88.27-.36.23.18.33-.83-.23-.27-.33.23-.64-.23-.23-.65-.14.14-.37,0-.37.32.14.41-.18.05-.14.23.23,0,.42-.27.27-.1.42.46-.19.6,0,.42-.56-.51.14-.55-.51.32-.27.09-.09.28.27.32.23-.28.09.42.24.14-.56.13-.46-.5.09-.83.23-.87-.41-.14-.27.32-.14-.18.14.73-.42.19-.18-.42-.42-.69-.69-.14-.64.19-.83.78-.32-.37.23-.18.41,0,.23-.55-.27-.09-.23.18-.56-.27-.78.27-1,0-.55.18-.05-.18-.46,0-.14.37-.23.23-.13-.14-.23-.37-.1.23.1.23.46.19.13-.32L135,56l.09.27-.6.14-.6-.23,0-.14-.28-.09-.55.28-.6-.51h.14l.09-.28-.64.14-.32.74Zm.46,16.61-.28.32h.05l.28-.09v.73h.18l.09-1.15-.37-.37Zm.23-14h-.18l-.14.23.32.19.32.23.23-.23v-.19l-.6-.09.14-.27,0-.23-.14.13Zm-.32,17,.23.09.14.41.36.23.6-.6v-.59l.23-.37.42-.88.32-.78.32-.27-.41,0-.46.6-.1.73-.69.14-.55.23.14.46.23.09-.37.23ZM132,57.18l-.19-.42.42-.23,0,.14v.83Zm.83,26.59-.46.6-.37-.19.09-.37.46-.09v-.78l.28-.51.55-.27.18.13-.27.14.09.51.37.23-.1-.42.46,0,.1.74-.42,0-.46.69h-.18l0-1.06-.23,0Zm-.6-11,0-.37h-.23v.51l.42.18.18.1.09.27.14,0,.05-.14-.28-.46-.14.18ZM132.66,57l-.41-.42v-.41l.27,0,.69.69-.13.55L133,57Zm-.18,17.48.14.32.36.14-.09-.42Zm.6-2.81-.05-.23-.37.09.28.28ZM133,76l-.32.09.23-.55.46.19ZM134,60.35l-.32-.37-.23.14v.18l-.28,0,0,.23-.46,0,.18.18.23-.18Zm.46,24.06.05.37-.42.14-.18.14-.41-.33-.28.6-.23-.09-.23-.6.78,0Zm-.73-6.3v.37l.23-.14.13.14.05-.1-.14-.46-.5-.32-.19,0,.14.09.09.18-.14.28-.09.14-.32,0,.05.28.18.18.09-.27v-.23ZM134.5,71l-.32.32.23.51-.28.27-.27-.55-.05-.32.09-.32-.32,0v.78l.19.55-.28.19-.37-.28,0,.23.64.42.41-.46.56-.51-.05-.6Zm-1-1.06-.33.18,0,.19.87.09.19-.37-.46-.18-.19-.37.09-.28.23-.13-.18-.14-.09.18-.23.37Zm.09-6,0,.27H134l.18-.18-.18-.14-.18-.32-.33.09-.18.14ZM134,81.61l-.69-.37v-.42l.32.28.18-.46.14,0,.32.24Zm-.42-24.39L133.4,57l.55-.19.09.6Zm0,19.65-.14.23.05.23.14-.19.09-.23.23-.23-.23-.27-.28.18Zm.74-10.26H134v.32l-.14.46.42-.28Zm0-4-.18-.09-.19.41.33.1Zm1.29,10.67.05-.5.13,0,.6-.87-.23-.19-.92.56-.78.41-.18-.09,0,.18.09.23-.32,0,.14.32.51-.28.32-.46.46.14-.32.46-.37.28.23.18h.69l.14-.09Zm-1.29,2.49-.09.37.32.27.28-.5-.32-.6-.42-.19.05.6Zm.28-18.36-.23-.37.6-.27.18,0,.37.14.27.19-.87-.14-.28.23Zm.41.78,0,.37-.23,0-.28-.19.14-.23Zm.83,3.78,0-.28,0-.23-.19.09h-.32l-.27-.27-.33.14.37.09.23.13.19-.09.09.28Zm-.64,15.64.32-.65-.55-.32-.33.19v.18l.28.46.18.6.19.18Zm1.15,5.15-.33.32-.27-.41-.28,0,0,.23.32.42.18.5-.46.1-.37-.6,0-1.38-.46-.19.37-.36.46.41.41.18.23,0,.23.36Zm-.37-18.17-.46,0-.28.33-.27,0,.18.18.55-.18Zm-.51,3.31-.41.19.14.32.18.14-.14-.19.23-.09Zm.23,1.66-.18.18h.18l.19.19-.33.32-.27,0v.46l-.19.65.23.14.33-.79.46,0-.33.83.28-.1.37-.59.6-.46-.33-.56v-.18l-.41.14Zm-.27-.92.09.23.14,0Zm.09,7.54.41-.23h.37l-.41.23.13.46h.6l.42.14.18.05,0-.23L136,75.58l-.64.32Zm.27-17.62.37-.37.42.65v.32h-.79l-.32-.18Zm0,19.78-.18.1,0,.46.42-.28,0-.55-.41,0Zm.37-1.1.41,0,.23.13-.09-.41-.74,0Zm.27-2.9-.32.65.42.32.23-.19,0-.27-.09-.69-.69-.32Zm.19-12.24-.05-.18-.27,0-.19.46v.18l.19-.18Zm-.23-2.8.41-.05-.27.46-.28-.14ZM137,80.13h.23l.05.28.37,0-.19-.27-.23,0-.14-.13.1-.28-.28.14-.14-.23-.32,0-.23.42.14.32.09-.32.09-.19.28.37.23.28ZM137,64v-.37l-.19.09,0,.37-.23.27.13.28.37-.23.19-.09Zm1.56,8.69-.37.32-.27,0-.56-.37-.55.18,0,.19-.19,0v.51l.23-.14.74-.09.74,0ZM137,78.34l-.14-.19h-.09l.09.19Zm.32-18.68-.5-.69.23-.55.09-.42.32-.27,0-.23.27.41-.13.78.09.74Zm-.5,7.91.27.23.19-.09Zm.37-7.5.27.33-.55,0Zm-.05,18.64L137,79l.23-.09Zm.74-9.16.13-.14.23,0-.5-.05-.37.19.6.59.18.74-.27.64.55-.69.6-.64.27.09,0-.27-.28-.14-.27.18v-.83l-.33.6Zm.23-11.91-.33-.83.28-.05.09.46.32.51h.42l0,.32Zm.13,27.55,0-.32h-.14l-.05.51-.09.23.19-.09Zm3.13-2.3-.41-.36-.69.55-.19.6-.36.09-.51.14v.41l.46-.09.28-.32,1-1.06v.23Zm-1.88-24.06-.19-.55.46-.05.19.37Zm.5,25.86-.18,0-.14.14-.09.23-.28-.37V85l.19.23.41-.18Zm-.64-16,.09.41.28.09-.05-.32-.23-.18.14-.19h-.19Zm.41,2.53-.32,0v.23l.18-.09Zm-.23,10.35.28.18.18-.13.33,0,.41-.5h-.6Zm0,1.15.32-.23.14-.37-.41.23ZM140,57l-.09-.5h.55l.05.46-.23-.23Zm0,12.93.74.18.64.19.14.18v0l-.14-.14-.09-.28-.42-.23v-.46h-.46v.23l-.37-.14Zm.64-9.38-.41,0-.09.55.32-.09Zm-.23,21.57-.13,0,.18,0,.41-.09Zm.1-14.31.41-.13-.18-.23Zm.36-9.8,0-.46.64.05V58Zm.14,11,.37.33-.09-.33Zm1.15,1.8-.73,0,.09-.32-.28.14-.23.18,1,1h.5l-.18-.69.64-.69.14-.37-.46,0-.23.32.28.23Zm-.46-1.38-.27-.05.13.28H142Zm.46,15.78-.09-.28-.19-.32h-.23l.05.46Zm.09-1.84-.32-.19-.18.14Zm-.09-16,.18.18.37.19-.32-.42Zm.41,5.24-.23.09-.13.14.18,0Zm1.06-11.87-.46.42-.41-.51-.32-.18.09.46.69.36.41-.32ZM143,72.45l-.23-.32-.14.14.05.23.09-.1.1.19Zm2.3-12.88-.36-.23-.79,0-.36.33.32.46.46.37.5-.28-.09-.37.28,0Zm-1.1,9,.18.59.14-.5.14-.46.18.09v.18l.23.1,0-.23-.46-.37.14-.23.32.14.18.23.1-.37.13-.23.14-.19h-.27l-.14.33-.14.18-.32-.09-.19.23Zm.55-10.72-.23-.23.09-.28-.27.09-.09.19.23.18-.05,1.33.41-.5.46-.51.19.28-.37.32-.09.32h.37l.32-.83L145,57v.41Zm1.11,12.74-.65.37.05.27.14-.13Zm-.1-2.62-.18.23-.28-.09.05,0,0,.23.32,0,.69-.28-.19-.32Zm-.13-11.5,0,.36.42-.13.41-.37-.37-.14Zm.69,2.71-.19-.28-.46.1.28.18Zm.27,9.29-.09-.23,0,0,0,.14Zm.78,3.22,0-.27-.32.14-.28-.19-.32-.09.18.28.32.13.33.23Zm-.78-14.53-.14.59h.69l.37-.36h-.27l-.37.32-.09-.23.23-.42ZM147,70.89l.09-.6-.55-.37-.05.18Zm.32-11.6-.23-.27-.05-.42-.23.92,0,.37.18,0,.05-.56.18,0Zm-.51,10.45.37.13.87-.78-.23.14-.82-.55-.05.37.46.09.23.18-.14.14-.32.09-.28.09Zm.51-1.52.27.23.19-.09.32-.37v-.28l-.41.28v.23l-.19-.09Zm.32-11.37.28,0,.09-.42-.32.14Z"/><path class="cls-3" d="M186.35,76l-1.2,3.5-1,1.66-1.05,1.38-1.29,1.28-2.26,1.61-.78.37-1,.32-.83.46-2.72.56-3.22.23-2.3-.19-.87,0-.83-.19-.92-.32-.83-.18-2.07-.88-2-1.06-2.07-1.79-1.88-2-2-4-.64-2.62-.28-3.36.46-4,.46-1.89,1.15-2.58.87-1.33,1.25-1.57,2-1.79,1.34-1,3.4-1.61,4.46-.88,2.86,0,.92.14.87,0,4.42,1.48,3.13,2,1.29,1.34.5.87.64.78.42.74.5.74.28,1,.32.83.28,1-.32.92-.79.37-1.38.14-1.28-.14-.92,0-1,0-.83.09-1.06-.5-.87-.88-.51-.69L176,63l-.64-.51-.83-.32-1.43-.41-2-.1L168,62.1l-1.24.69-1.11.87L164.54,65l-.46.88-.69,1.65-.32,1.84v2.81l.14,1,.23.83.32.64.32.92,1,1.61,1.34,1.2,1.61.83,1.65.59,1.34.14,2.44-.14,1.61-.87.69-.27.73-.65,1.06-1.2.46-.87.74-.74,1.05-.55.92,0,.92,0,.92.14,2.58-.18.92.59Zm-30.55-2.8-.14-.23-.37-.14-.32.23.51.23.18-.14.05.32Zm.14-2.17-.32-.09-.14.14L155.2,71l-.14.27.14.14.28-.14h.18Zm-.23,3-.23-.23-.28-.18.28.23Zm-.28-7.13.14.37.18.14.05-.18v-.28l-.18-.14Zm.46-1,.09.46.14-.09V66Zm.78,4v-.41l.28.09.32.09.14-.59-.23-.51.18-.46-.64-.28-.83.1.14.41.64.51.42.23-.46.09-.51.14.28.27.14.23,0,.28.09.14-.09.13.32,0,0-.32Zm-.09,2.44v-.46l-.46-.18v.6Zm-.27-7.22.23.69.23.23v.37l.5.41L158,67l0-.28-.65-.18-.46-.14.14,0h.42v-.27l-.56,0-.18-.28.92,0,.41.55.23-.23.46-.14.83.28.46-.37.14.23v.37l.32.46h.19l.23-.09.18-.19-.28-.09-.27.18,0-.27-.23-.42-.18-.27.23-.23.46-.19,0-.23-.23-.13v.27l-.73.19-.88-.28.14.41h-.55l-.87,0-.51-.42-.41.42-.19-.37.14-.28.28-.27h-.37Zm.36,7.91-.23.14v.32l.23-.14Zm0-9.43.41,0,.09-.33-.41,0Zm1.1,7.22-.46-.09,0,.32h.41Zm-.09,1.94-.09-.33-.32,0,.13.32ZM157.5,63l.19.32.46.19.36-.19-.23-.55.14-.36.09-.37-.46-.28-.32.28.28.5,0,.42-.27-.1Zm.23,5.48.42.18.32-.27.18-.28-.09-.6.32-.46.37.37-.09.32.09.28.23-.14.05-.23-.1-.37-.32-.23.32,0,.28-.19.23,0-.23-.14-.78.09-.32-.14-.19-.18.05.28.18.13-.27.33-.19.55-.5.14Zm.51-4.1-.19-.46-.18.37.18.51.51.14.09-.37Zm.18,6.12-.14-.23-.23.05,0,.18Zm1.2-.83.37-.23-.28,0-.18.09-.05-.23-.28-.41h-.46l-.46,0,0,.37.73.09.51.37.18.28-.36.5-.1.46.42-.27.23-.46v-.37Zm-.74-8.14.05.78.23,0-.09-.46.5-.23.05-.23Zm.32,10.08-.27-.1v.33l.23.09Zm.56,4.14-.28-.28-.23,0,.32.51.19.18Zm-.1-12.38-.27-.09v.28l.23.13Zm.6,4.74.37-.32v-.42l-.37.14-.14.51-.36.23-.37.14.46.13Zm-.41-3.77-.42.09,0,.23.51,0,.13-.5Zm.23-2.35.14.28.27-.23,0,.32.41.09.05-.23-.32-.18-.28-.09-.28-.19.19-.32-.23.37Zm1,8.24-.28,0-.23.09,0,.28.23,0,.18-.28Zm-.32-6.35v.32l.32,0V63.8ZM162,68.36l-.23.13v.37l-.36-.37-.42.19.14.32.46.14.23-.28.18-.23Zm-1-8.65,0,.23.23.13-.09-.27Zm.5,1.47.51,0-.09-.41-.37-.14Zm.51,2-.32.19-.14.32.41-.14Zm1-2.3-.09-.6-.32.51-.19.55-.27.19-.51.55v.73l.32-.64.19-.64.32-.09Zm-.5,4.93.13.09v-.28H162l-.32-.23v.28l.09.37.41,0Zm-.19-1.2.14-.32-.05-.28-.27-.14-.37.23.23.42.41.18Zm-.09,3,.23-.32H162l-.09.37Zm.28,9.61-.42.28.42.14Zm.09-17.43.09.14.18-.33-.23-.13Zm.46,2.71,0,.56,0,.27.23-.41.55.14.23.27.09-.09-.27-.46Zm0-1.1.37.05,0-.37-.33-.05Zm.37,2.8,0-.36-.28-.28.05.37Zm.09-2.25.19.42.5.13.37-.09V62l.09-.23-.32.41L164,62Zm.1-4.6.23.14v-.32l0-.23-.14.23Zm.87,2.94.09.24.23-.19-.23-.32Zm.32-1.38.14.19.23.09,0-.28Zm.37,1.89v-.32l-.23,0v.36ZM165.09,62l.19.28h.32l-.09-.28Zm.65-3.77.5-.09,0-.37-.46,0Zm0,2.57.32.33.27-.23-.27-.42Zm.59-1.88-.36.18.23.23.18-.18Zm.37,1.47-.32-.18-.23,0,.18.14.19.09Zm-.18-2.62h.32l.23-.37-.23-.28.09.28-.27.09Zm.18-1.52.23.18,0-.36-.19-.14Zm.74,2.44-.32.09-.14.18.27,0,.19-.19.09.23.19,0-.19-.23.14-.37-.19-.32-.13.32Zm1,23.51-.18-.28H168l.09.28Zm-.32-21.4.37.14,0-.23.24-.23-.51.1Zm.88-.32.14.28h.22l-.18-.28,0-.14Zm.27-1.06.09.37.37-.14,0-.23Zm.69-1.05.05.23.28.36.18-.13-.37-.33ZM171.26,82l-.14-.32-.28-.09,0,.27Zm2.16.23-.28-.28.1.23-.33.09-.32.14.28.37.27.46v-.55Zm-.46-23-.23.28.32.09.09-.37-.27-.37Zm.14-.74.27.19.14-.28.28,0,.09-.23-.37.18-.23.14Zm.64,25.81-.18-.23v.28l.09.14Zm1-3.22,0,.37.69.32-.32-.5-.64-.51-.51-.27-.18.18.32.74Zm-.65-21.76.14.19,0,.23.13-.23,0-.37Zm1.48,25,.32.65.23-.23-.14-.32.05-.14-.6-.55-.65-.69-.18.41.64.6Zm-.6-24.79h.41l.05-.14-.32-.09Zm.5,1.24h-.27l0,.23h.33Zm.1,22.45L175.4,83l-.19-.1,0,.28.28,0H176l.14-.22-.32,0Zm0-3.36.32-.09-.19-.09Zm.64,5.57-.46,0-.05.37.46,0Zm.64-5.06-.18-.42-.18-.27,0-.28h.19l-.19-.14-.18-.09-.23.32-.19.28.33.09.09.83-.14.83.18.18,0-.5ZM176,60.21l.32-.14,0-.46-.32.14Zm.64.69-.32.1-.23.22.46.05Zm4,21.53-.23-.09-.28-.14-.28-.27v-.32l-.09-.69.23-.28.19.23.23,0-.1-.65-.46-.37-.36.14-.33-.18-.46,0-.5.14-.32-.23.18-.18.14-.23h.23l.5.09.56.14.13-.33.46.1.14-.28.19-.14.13.42.37.41.19-.27.23-.24v-.22l-.56-.74-.69.14-.18.14.23-.83.46-.42v.46l-.14.09.55.23.46.51.28.09-.09-.5.27-.42.28.14-.14-.51.14-.27.05.23.23.23.41-.23.28-.37.18,0-.28-.32-.13-.5-.46-.1,0-.23-.32-.23-.55.14-.51,0-.18-.28-.28,0-.46.33-.32.41-.37.51-.27-.23-.19-.19.05.23.09.37-.14.09-.14.42.23.32.46,0-.23.69-.64.7h-.32l-.74-.56-1,.1V79l.87.19.05.55-.19-.42-.32.14.37.56.5.27v.55l.23.1.33-.37.13-.33.56.46.36.56-.27.23v.64l-.19.18V83l.74.22.18,0,.14-.32.32-.1ZM177,61.68l.23,0,.23.23.37.32.18-.23-.36-.27-.23-.32-.33-.05Zm.55-2,.05.46.23-.23-.18-.23Zm.05,18.44h.51l.55.28.32-.14-.32,0-.05-.37v-.65l-.41.37-.51.19Zm.37,3.87.23,0v-.36l-.46.13Zm.23-23,.18-.18.28-.05.23.6.55.18-.05.28-.5,0-.37-.14.14.74.87.68.51.46,0-.27.33-.14.32.23.18-.18-.5-.23-.46.13,0-.41v-.23l-.23-.14.32-.18.42-.32.37.27-.19.55.46.1.46-.32-.37-.6-.69-.37h-.36l-.19.32-.46-.32.09-.28-.13-.41-.46,0-.19-.27-.41-.09-.09.27Zm0,23.6.14.23.18-.18.14-.09h-.19Zm1.06,1-.28-.09-.37.18-.18-.18-.19-.23,0,.23.23.41.27,0,.23-.23.23.13Zm.46-19.37-.23-.51-.28-.32-.46-.5-.14-.65.32-.23-.36-.09-.14.32,0,1.15.92.78,0,.24ZM179,57.87l.32.23,0-.23-.27-.28Zm.5,24.52.32.32-.32.09-.27-.27Zm3.08-19-.18-.46L182,62.6l.09-.5v-.28l-.6.23-.28.14-.23-.32-.23.32-.09.19-.14-.14-.23.09H180l-.32-.32-.23-.09.09.18.28.46.69.73-.32.24.27.68-.23.79.23.27.23-1,.46-.37-.09.27.32,0,.46-.69-.5-.32.09-.28.23,0,.51.27.32.23-.14.37-.18.14-.28.18.14.33,0,.22.32-.27.14-.55Zm-2.94,18.86.46-.09.18.23-.23,0Zm.74-5.38-.56,0,.14-.6.23.14Zm.46-.23L180.5,76l.23-.46.23.23.6.55.32.56-.32.09-.37.09h-.36Zm.18,2.67-.32-.18,0-.33.33.37Zm.87,1.66-.27-.23,0,.37-.13.13-.37-.5.18-.56L181.1,80l-.37.36.19.46-.23.46h.5l-.18.33.41-.19.42-.09Zm.69-19,.14.69.28.37,0,.36-.13.74.5.28-.23.64-.64-.18-.78.27-.37.23-.28-.14-.09.23.32,0,.37,0h.64l.14-.46.42.37.59-.23.19-.64L184,64v-.51l.32.51-.18.64-.14.23.41.14.1-.28.18-.51.28-.55-.42-.27-.18-.37-.05-.42-.92.14-.73-.69.13-.27.14-.1-.23.1Zm-1.15,1.74-.23.19v0Zm2.76,14.77-.64-.37-.18-.13-.09.23-.14.37-.23.09.13-.51-.18-.41,0,.41-.09.28h-.23l0,.18.18.23.23.37.37.37v.23l-.6,0-.55-.09-.46-.23.27.46,1,.32.69-.6.36-.46Zm-2.53-18.63.19.14,0-.23Zm.51-.41-.14.13.14,0,.23.14Zm.74,22-.37-.36.27-.37-.18-.23-.46.46.09.41.19.09,0,.28ZM182.44,77l-.19-.46.46.37,0,.36Zm1-14.72h.27l.1-.28-.33,0Zm1.7,14.26-.14-.32-.55-.05-.74-.18-.18.46.37.41.37.05.46.13Zm-.41,1.1-.33-.14.05.33.28.09Z"/><path class="cls-3" d="M212.34,56.12l-.05,4.37-.55,1L211,62l-.83,0-1,.14-1.7-.23-1.8.09-.87.55-.37,1.38-.14,4,.14,1-.09,7.41.14,1-.09.83,0,1.84-.09,1,.14,1.74-.14,2.4-.46,1.28-1.33.46-3.09.1L198,86.85l-1.34-.46-.59-1,.09-.88,0-2.67-.09-1,.05-3.73.09-.92-.14-6.85.09-1.29,0-.92,0-1-.09-1.29.09-1.47-.5-.92-.88-.46-4.37-.09-.92.09-.83-.46-.41-.83-.09-1.43.09-2.3,0-.92.56-1.06.87-.46,3.22.19,1.43-.14,2.71.14.83-.19,1,.1,1-.14.87,0,.92.19,3.73-.19.87.1,1-.14.87.09H211l.87.6Zm-21.67,4.23h-.19l-.13.19.18,0Zm-.19-2.76h.37l-.09-.18h-.23ZM191.54,59l-.37-.46h-.36l.32.23.18.23-.14.32Zm-.27.87-.28.18.14.1Zm-.19-3.68.37,0,.05-.33h-.28Zm.83,1.56.14-.23-.28.1-.14.13Zm.27,2.49h-.41l-.09.32.32-.09Zm1.52-4.46-.64.55-.32.5-.51-.32-.51-.14.14.6.56.19.46.13,0-.23.6-.59ZM193.29,59l-.37-.14-.23-.14-.32.23-.05.33.32-.1.19-.18.14.23.27,0Zm.37-1.89-.37.19-.14.27-.27-.18.09.32-.09.46.36.09.23-.13-.18-.28.18-.46Zm0,3-.14-.37,0,.28Zm.6-1.84.64-.14.33.41.27-.09-.18-.6-.51-.09-.55-.37-.28.42Zm9.8.92.23.41.69-.23v-.46l.18-.27-.46-.14-.18-.32-.23,0-.09.32.41.28v.46l-.51-.41-.5-.37L203,58v-.41l.64,0,.51,0,.55-.09.46.37.14.36.46.37,0,.42.27-.14.51-.46-.42-.32-.27,0-.23-.27.09-.19h.23l.09-.32-.27-.28.55-.09.6.32-.42-.09.23.55.33-.59-.24-.83.28-.42.32.1.05-.37-.19-.23h-.41l-.46-.09.09.5-.23.78-.23-.27-.32-.28.09-.23,0-.18-.19,0-.32.19-.27,0-.1.37.23.28.23-.23.1.37.27.09-.55.18-.51-.5,0-.6,0-.6-.32.05-.09.5-.69-.37-.32.65-.23-.42-.28.33-.09-.42-.28-.23-.32,0h-1l-1.06-.19-.23.14.23,0v.23L199,55.43l-1,.09-.73-.09-.83.18.46.28-.19.5-.27-.13-.23-.14v-.23l-.14.23-.23.14,0-.28-.55,0-.18.6-.28-.32-.32-.28.28-.32-.19-.23-.41.46.41.65.19.36.32.23.41.19.42-.09.36,0-.18-.23-.09-.27.46-.33.09.23.55.23-.32.51.14.28v.23l-.42.27-.09-.23-.32.05-.09.14-.14.23-.18.36.64-.09.78-.23.42-.18.23,0-.1.42.19.18V58.6l.14-.14.36.46.46.28-.23.09-.73-.09-.14.28.64.18.46.09-.23.19.1.23.27-.14.46.09.28-.32.14-.09.59.23,0,.5-.51-.14-.23.33.37.41-.14.32.23.1.37-.05.19-.09-.37-.42.18-.27.46.23.37.41-.14.14h.46l.32.18-.09.19.51-.56.14-.92.13.28.19.51.69-.42-.09-.55.18-.41-.51-.05-.09.51-.18,0-.19-.14.14-.18,0-.64.46-.42.5,0-.18.23.18.18Zm-8.56,0,0-.23-.51.09-.05-.14.14-.32-.18-.09-.14.27,0,.19.23.23.33.23Zm1.34.32-.23-.41-.28.18H196l-.09.37h-.23v.23l.28-.23.27-.14.28,0Zm0,2.76.27-.32-.27-.09Zm4.92,21.35-.19-.33,0-.36-.09-.32,0,.27-.23.19h-.41l-.41.41-.37.32,0,.42-.27.27-.1-.46-.23,0-.5-.14.09-.28.41-.18.42-.32-.05-.33.19-.27.69-.09,0-.56-.46,0-.6-.37-.27-.46-.1-.41-.27.18-.19-.41-.23,0-.18.46-.28-.18-.13-.33-.28-.55-.09.33.09.68.55.42.46.14.28,0,.18.37.05.51-.42.23-.27-.32-.28,0,.14-.23-.18-.05V82l.18.51.51.27-.23.46-.37.05-.46-.6v-.32l.14-.69-.42-.5-.18-.14v-.46l-.19-.14-.09.55.05.78.14.55-.14.92.37.79-.28.55.51.46.23.37-.23.18-.19-.18.14.41h.6l.32.23h.28l.46,0,.59-.19.19-.41v-.41l.18-.46.14-.33.74-.36Zm-3.59-22.87H198l-.09-.13-.18-.19-.33.14-.27.32.27-.14.37-.09.23.14Zm-1,9.71.23.37.18-.19-.09-.23-.09-.18Zm1.42-14.17h-.59l-.33-.14-.18.23-.09.23-.19-.46.51-.27h.23l.37.18ZM197.48,69l-.28-.09.05.32.27.09ZM199,71.25l-.23-.32-.37.37-.73.23-.51.6.28.14.27-.42.55.14-.32.41-.41.33.23.23.37-.23.27.18-.09-.37.05-.5.32.09,0-.23,0-.28Zm-1.84,3.59v.46l.05.19.23-.28.13-.46Zm.51-17.57.09.32-.28.09-.27-.18.18-.28ZM198,76.82l.23-.6L197.8,76l-.42.32.37.5.14.65.14.18.09-.27Zm.69-13.07h-.46l-.28.37-.23-.09.14.18.6-.18Zm-.46,3.36-.46.14.18.37.14,0-.14-.1.19-.13Zm.23,17.53.18.65-.46-.1-.14-.27-.23-.28Zm-.05-15.87-.18.18h.23l.09.19-.23.32-.32.05,0,.5-.18.65.18.09.33-.74.46-.09-.14.46.14.28.27-.6.65-.46-.33-.55.05-.19L199,69Zm.14-8-.05-.23-.18.14h-.18l.09.23.32.14Zm-.32,14.63.41-.23.37.05-.37.18.14.46.64,0,.33.09.23.09,0-.23-.51-.37-.59-.73-.69.32Zm.92-17.11-.6-.1-.37-.23.37-.32.32-.46.46.69v.28Zm-.69-1.52.41-.23,0,.27Zm0,21.34.41-.27v-.51l-.37,0,.05.32-.05.32Zm.5-1.61h.42l.18.23,0-.41-.46,0-.28.14Zm.23-2.94-.27.64.41.37.28-.14-.14-1.1-.64-.32Zm.23-12.38,0-.18-.28,0-.18.36,0,.23.23-.13Zm-.09,22.87.23.64v.6l-.23.23-.27.23-.19-.27.28-.23.14-.46-.1-.42Zm0-.78-.42.09.28-.37.23.09Zm-.32-13.76-.05-.23.28,0,.09.18Zm-.05,9.8.14.28.18-.23.09-.28.19.32.23.28V79.4h.18l.14.32.32-.09V79.3l-.18.1h-.23l-.14-.19.09-.13-.27.09-.19-.28h-.32Zm.37-21.12.18.1-.23.41-.27-.09.09-.28Zm.55-1.84-.6-.09.46-.27Zm-.14,6.72v-.46l-.46.83.14.23.32-.18.19-.1Zm.37,8.79-.51.18,0,.19-.23.41.32-.05.23-.09.51,0,.78,0,.14-.55-.37.32-.28.09Zm-.37,10.21-.41,0,.18-.46Zm.83-25.21-.14.83.14.69-.51.23-.46-.65.23-.55L200,57l.41-.46Zm-.51,9.94-.13-.09h-.28l.18.23Zm-.09-7.73.32.37-.55-.1Zm-.18,9.15.23-.13-.09-.37-.19.18ZM200,78l-.14.32.19-.09Zm.69-1.52-.41.09-.19.28.37-.09Zm-.41-7.77.18.27.41.28L201,70l-.28.69.55-.64.65-.69.32-.28L202,69l-.23.23.1-.41-.14-.46-.37.59-.6-.23.19-.13.18,0-.18-.14-.28.14Zm.32,4.41.27-.09-.36-.18-.19.32Zm-.28,1.52.19-.09.23-.23,0-.23-.23.09-.18.23Zm1.06-12.51-.41-.09-.19.23-.32-.05v.19l.28-.05.32-.09.14.18Zm-.64,5.66-.19,0h.19l.23-.27ZM201,56.67l-.41-.83.37-.09.13.69.51.09.18.32-.09.23Zm-.41,23.74.23-.19,0-.22-.18.18Zm.69-4.74.23,0,.14-.13-.28,0-.09.14-.19-.23-.36.27.09.42.18-.14ZM201,78.38l.09-.32-.27-.18,0,.37Zm.09,5.89-.18-.09v.23l.14.14-.23.14,0,.32.23-.09.09-.37Zm0-26.36-.19-.14.19-.13.23,0Zm.87,2,.42.73-.19.09-.5.19-.23-.05-.14-.5.23-.83-.42-.74-.18-.18v-.42l.51-.18.32.09-.23.28-.19.37.46.32Zm.69,4.69-.09-.51-.23-.09-.41.46-.33.14-.36-.18-.28.18.64.09.65-.14Zm-1.24-1.84-.09.32.37-.18V62.6Zm.09,18.49h.19l.13-.18h-.27Zm.46-19.5-.18-.14-.19.14.14.14.19-.1Zm-.09,12v-.32l-.14-.18,0,.46Zm.28-10.39-.23-.1-.19.1.23.14Zm.59,13.25,0-.37-.37-.28-.37.09-.23.19.14.14.46-.19.28,0-.23.27,0,.23Zm-.78,5.52-.09-.23-.14.23.09.18ZM203,85.38l-.37-.14-.19.37-.46-.28.14.32.51.28Zm-.23-2.21L203,83l-.32.09-.51.14-.09.37.46-.09Zm-.6-26,.46,0-.32.65Zm.41,27.09-.18.23-.05-.23-.18-.23v.28l.23.28.37-.23v-.28Zm-.27-16.42,0,0-.14,0,.14.41.28,0-.09-.28Zm.18,9.61.23-.27.32-.14.23-.46-.32.28-.51.27-.23.19Zm.18-3-.41-.09.32.32.55-.23.33-.23-.51.09Zm-.36-3.73.23-.09.13-.23-.36.09Zm1.1,10L203,80.5l-.64.42.32.18.23-.23.28.09Zm-.46.83-.46.14-.09.37.32-.19Zm.83-19.32-.05-.51-.64-.13h-.55V62l.27.14.23-.28h.42l0,.23Zm-.09,12.88-.33-.27-.18.13.18.33h-.23l-.18.36-.23.19.23-.14.51,0,.23-.46Zm-.14-6.21-.05-.18-.14-.09H203l0,.5.51.09Zm-.42,2.3-.18.23.37,0,.23-.19Zm.33,6.44-.14-.18-.19.23L203,78l.18,0,.14-.13Zm-.05,4.79-.28.09,0,.32L203,83l.18-.14.23-.23Zm.28-17.76-.19-.14-.23-.23,0-.27-.19.09v.27l.28.23.14.19Zm.73-7.64h-.64v-.46l.64,0Zm2.9,3.59,0-.41-.46.13-.27-.13.09-.23v-.19l-.18.09L206,60l-.46-.55-.28.13.37.42v.46l-.28-.05-.23-.14-.27.19-.19.23-.18-.09V60.3l-.28.14-.18.23.27.28-.32.37.19.55-.05-.19.55-.09.74-.09,0-.46.88-.18.46-.46.23,0,.27,0ZM204.7,61l.32,0-.09.41Zm3.54-2.44-.41-.23-.46.09-.32,0-.42.32.42.46.46.37.5-.32,0-.33.22-.09Zm0-.55.36-.78-.41-.92L208,56l0,.37-.33.5-.18-.18,0-.32-.24,0-.09.28.23.23v.18l-.14.65.33.23.41-.46.23-.32.19.23-.33.36-.18.33Zm-.56.55.28.09-.14.14-.27.14ZM209,61l0-.23-.19.18h-.27l0,.23.33,0Zm-.41-5.34,0,.28.28,0,.23-.32-.27-.14Zm.78,3.08-.09-.41-.23-.32-.42.14.28.13.32.05,0,.28Zm1-2.25h-.23l-.36.28-.05-.23.23-.37-.14-.14.05.18-.42.05-.09.6.69,0Zm-.18,1.93-.14-.32,0-.46h-.19l.05.46-.14.55v.32l.09-.36.14-.14Zm-.05,1.15-.27.42,0,.27.1-.41Zm.88,1.15-.05-.32-.23-.09v.37Z"/><path class="cls-3" d="M246.88,70.75,246.65,74l-.18,1-.28.74-.13.92-.33.87-1.79,3.17-.6.83-3.22,3.09L236,86.44l-1.75.55-4.1.41-2.76-.14-3.91-1.15-.87-.36-3.13-1.66-.6-.69-1.29-1.24-2.16-3-.46-.83-.28-1L214,75.85l-.5-2.89.18-5.34.37-2,.88-2.53.41-.78,1.56-2.3,1.25-1.38,1.47-1,.64-.56,2.35-1.47,1.75-.46.82-.37.92-.27.92-.19,3.22-.18,2.17,0,6,1.88,2.35,1.47,2,1.8.6.83.55.55.6.78.32.83.83,1.52.23,1.06.36,1,.37,1.7ZM215.37,72.4l.55-.73-.37-.42.14-.23.05-.09-.14.14-.14.23,0,.28-.33.09-.13-.23v.32l.09.28-.18.36Zm.37.23.32-.13.28-.1.32.23.14-.5.46,0-.14-.23-.32-.13-.19.09-.05.37-.22.13h-.19l-.14-.13-.46.23-.32.32Zm-.23-2.11.23.41.18-.41-.28-.37Zm.23-5.29.09.18.23-.41.09-.23-.23.18Zm8.92,18.4L226,83l-.18-.56.09-.23-.09-.32-.28-.14.09.19.19.23-.79.27-.69.65,0,.32-.37-.09h-.18l-.28.18,0-.37.37-.37.28-.22.27-.28.1-.46.5,0,.14-.59-.55-.09-.65-.42-.18-.41v-.46l-.05-.19V79.4l-.18.23-.14.27-.14-.27-.27-.09-.14.41-.23-.09-.18-.28-.33-.5-.36.41-.1.18-.18-.37-.37-.5.55-.6.56-.32.23-.19-.19-.23-.18.28-.78.28-.6.69-.14-.42L220,78.2l0-.69-.41-.32v.41l.32.32-.18,0-.37.23-.55,0,.09.69-.28,0,0,.23-.37-.09.09-.51,0-.41.59-.23.46-.88.42-.32.32-.46-.32-.27.5-.28V75l.23.28v.59l0,.19.51-.51-.42-.55-.18-.23v-.18l.46-.79.14-.78.32-.23v-.18h-.55l-.42.6,0,.73-1,.32-.69.51-.6-.18-.09.36.74,0,.6-.18.13.09-.36.23-.37.41-.14,0-.14-.14v0l-.32.23-.6.65.42,1.1.23.55-.42-.13-.37,0V77.6l-.18-.37-.51.1h-.46l-.41-.28-.14-.14-.09-.18.23.69.87.41.51-.46.18.32-.09.23.14.28-.37.14-.46.28.28.92.83.36-.1.51.23.55.46-.18.42.87.55.46.23-.14v-.23l.32-.59.28.18-.28.46.09,1.29h1.06l.42,0,.13.23-.32.28.42.32.32.19.5-.33.74.88.23-.69-.09-.28.09-.32.14.55.14.6v.28l.27,0,.09-.18Zm-7.36-8,.32-.18-.41-.37v-.18l-.28.23-.69-.09-.32.41v.32l.18-.18.33-.23.46.46.6,0ZM216.75,68l-.41-.09.22.23-.22.27H216l.37.28.46-.28Zm-.69-3.78.18-.13.42-.14,0-.37-.32.28Zm.69,12.06-.32-.32v.27l-.14.28.05.23.09-.19.37-.09.18.09.05.23.23-.18Zm.05-2.81.23,0,.23.13-.23-.23Zm.32-4-.28.28h.23l.28-.23-.14-.28Zm.69,5.29-.09.23.18-.23V74.2l.46-.09.14-.37-.37-.09-.23.18-.46.18-.18.28-.19-.28-.23,0,0,.32.27,0,.37.18Zm-.92-7.5,0,.32.14.1-.09-.19Zm.5,5.43-.36,0-.05.32h.51l.23-.32h.36l0-.42-.32-.09,0,.28Zm-.18-6.62.09.18.32-.23-.18-.18Zm.18,12.74.23.09-.32.19Zm.05-8.65.37.32.09.19-.23-.6-.28-.28Zm.37-2.58-.19-.13.14.18v.23l-.09.32.32.32.14-.27L218,67.9v-.28Zm0-6,.14.23h.46l-.28-.23Zm.73,9.94-.41,0,.18.23Zm.14-3.36L218.5,68l-.28.09.19.14ZM218.36,61h.37l.09-.28-.37,0ZM219,80.36l-.64.1v-.37l.37-.09.37.09Zm.28-6.81.14-.36.09-.69-.37-.42-.46-.14-.09.33.41.18-.09.28-.23,0,.19.14.23-.09v.41Zm-.6,2v-.19l.14.1.09,0,.32.23-.27.32Zm.55.92-.5.55v-.51l.64-.32.42.09ZM219,74l-.05-.19-.14.19.28.32,0,.18,0-.27Zm.18-4.46-.32.18v.46l.41-.18ZM219,80.78l.37,0-.18.23Zm1.2-8.51,0-.42-.27-.23-.32,0-.05-.28-.28,0-.18.33.37.27.37.19.13.32Zm-.64,7.59-.37,0-.09-.14.23-.32.32.14Zm-.23-6.26v.05l.09.27.23,0-.09-.19Zm.13-13.06.14.18.09-.18v-.19l.19-.05.14-.13-.28-.05-.09.23Zm0,2.85.1.27.09-.37Zm.1-4.33,0,.28.28-.19v-.23ZM220,80.55l.13,0-.59.19Zm.13-7.32-.46,0,.05.41.46.05Zm0,1.57-.23,0,.18-.5.42.18ZM220,64.72l-.1.37.33-.14.09-.28Zm-.1,3.54v.28l.83.32-.32.09,0,.23.36.1.51-.14-.32-.55.09-.37,0-.42h-.37l-.23.6-.19.14Zm.88,2.67-.32.09-.14-.18-.09.41.27.42.46-.14.28-.41.18-.19-.41-.32v-.87l-.32.09-.23.37h-.56v.46l.37-.1.42-.09Zm-.65-4.41-.18.18.09.28.14-.23Zm-.09-6.77.42-.23.41.09.37-.27-.46-.55.64-.33.65-.23-.1.46.19.23.14-.09-.1-.18.37.23.23.46-.64-.14-.46.23.64.18.6.33.74.23v-.33h.46l.5.19v.32l-.5-.09-.1.37.05.27-.37.05-.46.18-.09.37.51-.28.41-.32.18.14-.13.42.41.22-.14.19-.23.14.55.32.51-.14.18.09.46-.32.83-.83.05-.87.14-.14-.1.37.23.51.56-.19.78.09,0,.23-.36,0v.28l.82.09.69,0,0-.32,0-.27.88-.14.73-.42.37.19V60.3l.28-.13L232,60l0-.18-.33.23-.5.18-.51-.09.19-.32.23-.23-.23,0,0-.37.28.1.41.41.55-.37-.18-.41h.23l.19-.19-.79-.32-.87.42.14.46-.19.13-.09-.09v0h0l-.56.13-.55,0-.09.23-.23-.19-.05-.5.28-.32-.46-.1-.19-.32h-.36l-.1.37.46.18v.51l-.46-.46-.41-.23-.41-.28,0-.18-.32-.14v-.23l.64,0,1.11,0,.5.69.46.32.05.37.32-.14.42-.27-.09-.51-.33,0v-.51l.33,0,.27.32.23-.09v-.33l.32.19.14.46.46-.42.46-.23-.28.28-.13.32.41,0,.23-.23.09.36.1.28,0,.41.19,0,.23,0,.13-.23-.13-.46,0-.27.14-.14-.14,0-.37.18-.18-.64-.41-.92-.6-.51-.14-.18-.05-.33-.13-.18-.28.05-.42,0-.68-.32-.47.14-.27.32-.23.14V55l-.6.28,0,.41-.23,0-.46-.55-.73,0-.6.14-1.06.37-.09.74h-.18l-.51-.37-.55.55-.55-.28-.23,0-.28.09-.69.32-.28.88-.32-.23-.27-.19v.37l-.14.23-.42.28-.36.14,0,.69-.23.18-.18.32Zm1.06,3.41-.23-.65-.74.09,0,0,.41.28.14.27-.32,0,.14.14.32-.23Zm-1,.83.14.22.14-.13-.09-.23Zm.42,3.4-.28.28.46,0,.23-.28Zm1.06,9.25-.51,0-.51-.28-.13.69-.14,0-.05.32.46,0,.09.18.23-.32.19.09.18-.14V77l.14.14.28-.23Zm-.74,4.78.46.19-.51.64-.5.69.09-.74-.05-.82.19.23.37.27Zm.37-1.84h.18l-.37.64-.36-.46Zm.27-13.48v-.55l-.5.28-.05.5.37-.09Zm.51,9.11,0-.51-.41-.55-.55.09.27.79Zm-.6-13.34-.27-.19v.46Zm.05,16.79-.14.14.28.09.13-.23Zm.6-18,.27.13.28.33.37-.19-.19-.36-.46.09,0-.19-.23-.14-.33.19-.27.27.32-.18Zm.32,15.68.18-.64-.64-.23-.32.32.41.55.14.56.14.27.41-.18.09.55.05.18.46.37,0,.6,0,.23.18.23.19-.23-.14-.23.14-.23.23.37.09.37.09.13.14-.32.14.1.41.13V78.8h-.46l-.05-.23-.27.05-.28-.74-.46-.6-.23-.6-.55,0Zm.14,5.39.55.46-.6.27-.18-.27-.1-.33-.09-.5.14-.74-.46-.23.41-.23.42.42.64,0,.05.28-.14.09.09.23-.18.14-.28,0-.14-.14-.09-.19-.14.23Zm15.87-11.09-.19-2-.32-.83-.27-.92-.37-.82-1.06-1.57-1.43-1.06-2.43-1-2.21-.14-2.12.18-1,.23-.82.42-1.34.92-.69.59-.6.74-.41.78-.55.65-.28.82L222,69.28l0,1.38.23,2.3.88,2.57.6.65.46.64,1.42,1.24,1.57.83L228,79l.92.32,2.67-.09.88-.23.83-.09.73-.41.83-.37L236.26,77l.55-.82.41-.69.51-.69.41-1.89Zm-16.33-6.67.18.18.55-.18.23-.37h-.5l-.23.42Zm1.19-1.52.28-.37.23-.32,0-.23-.27.14-.19.37-.09.27-.6.32-.09.33.23-.23Zm-.37-4.14-.27-.41.27-.19h.19l.37.14-.14.28.32-.05-.28.23-.09-.14Zm.33-1.38-.46,0,.18-.18.41-.14Zm.18,24.57-.28.14,0-.23.27-.14Zm.28-18.4,0,.46.37-.14.18-.19-.18-.23-.09-.46Zm.36,18.4-.36,0,.23-.37.27.1Zm.28-24-.37-.14V57l.42,0,.23-.23.32.46-.32.78.23.41-.28.19-.46-.46Zm.32,22.77-.14.28.28,0,.09,0,0-.18Zm.14-19.59.41.23.37.36-.27.28.23,0,.41-.1-1.1.69-.28-.13.14-.28.09-.23.18-.19-.41-.36Zm.6,23.23-.09-.23-.14-.14.09.32-.28.28v.32l.33-.18Zm0-24.94-.28-.23.23-.5h.6l-.46.46Zm.14,25.17.23.09.13-.23,0-.23-.18.09Zm.46-3.63-.28-.1-.14.23.23.09Zm-.33-21.4.42.69.18.79v.18l-.37.18-.23-.27.14-1Zm1.75,26.23-.41-.23.27-.56,0-.32-.37.32-1,.23-.23.14L226,85l.37.05.18.55.65.14Zm-1.52-3.68h.19l0-.28.1-.14-.19.14Zm1.66.36.32-.36.65,0,.36-.28-.46-.13-.32-.37-.14-.23-.36.18-.19.14-.27-.05-.37.1-.28.32.32.14.23-.33.1-.18h.41l.37-.05-.14.46-.46.55-.18.51-.33.09-.27-.09-.28.74.32.87-.13.19.18.13-.14-.13.42-.28.18-.51-.41.14-.19-.32.46-.6.19-.23Zm-1-24.1-.13-.46v-.19l.41.09.18.37Zm.1,3.49.09.46.6-.14.09-.22Zm.32-1.75.18,0,0,.41-.33,0Zm.46,20.89.14-.46.23-.18-.37-.28-.51.32-.09.56Zm-.23-24.61L227,56l0-.46h.37Zm.41,3.08-.41.23.09-.28.46-.09Zm0,.46.23-.18h.32l.51.36.92.28.14.55-.28,0-.6.09-.27-.19-.32.14-.56-.32Zm.28,23.83.18-.14-.32-.18v0Zm.41-.92-.41-.09.23.28.32.18Zm1.61.6-.46-.09-.27.32H229l-.33,0-.13.42-.33-.05-.23.23.42.14h.18l.32-.09.33,0v.28l0-.23-.14-.32.23-.14.23-.32Zm-1.38-25.86L228,57v-.37l.51,0Zm-.09,23.33.32,0-.09-.33-.32-.09Zm.69,5.06-.37-.18-.23-.23-.18,0,.18.14.23.14.09.27.28.19ZM229,81.79l-.23.23.14.14.28-.09.23.13-.19-.27ZM229.4,57l-.51-.46.19-.09.5.23.33.18Zm-.18,23.74.13-.23-.13-.28-.14.37Zm.32,4-.19.18h.14Zm0-29-.13-.18.23-.23Zm.69,5.34-.41,0,.19.28h.32Zm-.36-4.92.09-.56-.09-.36.32.13.32.33-.18.36Zm.6,3,0,0-.14.37,0,.32L230,59.8l.09-.28Zm0,24.7-.14-.23-.32.19.14.13Zm.51,1.34-.19-.14.1.23,0,.27Zm0-28.48L231,56.3l.18-.27.19.18-.23.32Zm.32.46L231,57l.32-.09Zm.18-.28,0-.23.23-.46.14.32Zm.37,3.73-.23.28.37,0Zm1.15.37.14-.42-.51.14-.27.09-.05.19.46.27.19.42.18-.37ZM232.62,56l.46-.14.14-.41h-.51Zm.69.23.14.37-.09.32.09.23.09-.14.09-.18.42.14.37-.33-.14-.23-.32.33-.19-.19.19-.32-.14-.14-.19,0-.18,0Zm.51,1.93,0,.55,0,.37,0-.37.14-.23.37-.13-.28-.28,0-.55-.19.14-.23.13Zm.82,2.35.42.18.14-.23-.19-.18-.18-.09Zm0,1.52.1.18h.32l-.18-.37Zm1.71-1.8.37-.09-.05-.32-.28.14Zm0,.69.18.05.28-.23-.14-.18.05.22-.23.05Zm1.15,1.61.32.05.23-.28h-.37Zm.46.65-.23.23.32.14.28-.33Zm-.19-4.83.19,0-.09-.32ZM240,62.88h-.27l0,.19v.32l.14-.14Zm.28,4.37h.37L240.4,67Zm.69.88-.23-.14-.14-.23-.18.14.23.23Zm1.42.36-.46-.13-.23,0,.19.18.32.19Zm.83-2.66-.09-.23-.28,0-.13-.09,0,.41Zm0-3.27,0-.18-.19.13.09.28Z"/><path class="cls-3" d="M276.27,77.14l-.27,2.3-.28.78-.27.83-.51,1-.46.64-1.33,1.38L270,86l-.88.41-.82.09-.92.37-.93.14-.91.23-.92.09L261,87.22l-1.89-.32-1.79-.65L256.4,86l-.87-.42-.65-.69-1.61-1-.6-.69-.64-.6-.87-1.7-.28-.83-.18-.92-.14-.92.37-1,.82-.36,3.55-.19.87.14.83-.09.92.37,1.52,1.65.78.51.78.41,2.35.23.83-.14,1.42-.09,1.57-.69.59-.69.37-1.15L267.86,76l-.6-.55-1.66-.78-7.22-.83-1.66-.55-3.13-1.7-1.7-2.12-.73-1.61L250.83,66l0-1.43.14-2.25.82-2.53,1.61-2.16,2.21-1.52,1.57-.92,1.74-.55.83-.14.92,0,1-.27,3.55.09,1.79.37,2.58.87,3,2.12,1,1.38,1.28,2.39.1.87.18.88-.37.78-.87.64-.83-.09h-.92l-1.24-.09-2.16.18-1-.59-.69-.92-.78-.65-.83-.55-.82-.23-1.48-.18-1.47,0-.83.18-.73.42-.69.5-.56.6-.23,1.25.19,1.38.69.64,1.7.83,2.44.5H265l1,.19.92,0,.92.14,3.59,1.11.83.5.73.37.83.74,1.2,1.38.5.73.69,2.67ZM252,62.1h.28l-.05-.18.32-.19.19-.27-.37,0-.32.23Zm.92,5.75-.41-.51-.33.19.65.69Zm.28-3.64.18.1-.09-.56-.23-.5-.23,0-.05-.41-.5,0,0,.37.37.09.41.46Zm-.14-4.46-.28.42.23.13.14.28.28-.41-.14-.42-.19-.32.37-.37v-.27l-.18.09-.09.23-.14.37-.23.13Zm.64,9.34-.14-.23-.23.28Zm-.14-9.52.28,0,.28.19.32.5.23-.13.09-.46,1.1,1.1.05-.46.18.14.19-.05-.09-.14h-.65l.37-.36-.23-.37-.55.14-.37-.28h-.55l-.32-.09Zm.23,3.22.28-.37-.09-.28v0l0,0-.18.1-.14.14Zm1,.78-.37-.5-.37.32.1.36.18.1Zm-.41-2.11.09-.24.18-.36.09-.14h-.23l-.32.5Zm.09-2.86.14.37.32.23.18-.41-.09-.42v-.69l-.23,0,0,.32-.13.23Zm.09,3.82.55-.28.37-.46.28-.27-.28-.19-.14-.22,0-.24-.14.1,0,.5,0,.42h-.23l-.1.32Zm.55.46.23-.18.19-.32.55.13-.23-.5-.19.27-.5.28Zm.6,5.52-.28-.32-.23.09.51.46Zm.37-3.77.14.32.18.14v-.32l-.09-.14-.09-.23Zm.78,3.13-.51.09,0-.28-.19.05.28.28.28.09Zm-.14-8.1,0,.74H257v-.33l.14-.32Zm.19,1.29v.37l-.14.27.32-.27Zm.36,4.09.23-.46-.18-.5-.23-.09.09-.33-.18.14-.05,1-.14.42.28.27.18.14Zm.6-4.37-.41,0-.19.41.33-.23Zm0,6.49-.23-.09-.05.6-.14.18.09.09.14-.14.09-.13Zm.69-7.78-.56-.64,0-.37-.19-.32v.28l-.27.5.78.51v.6ZM258,57.73l.41-.46-.23-.09Zm.46.14.51-.42.18-.69-.28,0-.13.64Zm.14,4.46.23-.23,0-.32-.23.23Zm.83-4.42-.28.14h-.32l-.19.18.28.14h.23v-.32l.18.09.23,0Zm2.07,13.44-.1-.46-.18.32,0,.46Zm1.84,1.38-.09-.46-.1-.23v.27l-.23.37-.23.32-.18.42.41-.28ZM263,60.54l.32-.37-.28.13Zm.14,20.65-.05.37.55.23,0,.23.23-.28-.14-.59-.69-.33v.28Zm.23,3.54.27-.18.46-.37L263.9,84l-.42.37-.22.09-.1.37.42.6.27-.09-.18-.14h-.23Zm.73-1.15.74.6.05-.41h-.42l0-.32-.23-.28Zm.88,2.07-.32-.18.18-.28-.37,0,.14.27.05.33-.14.36.18,0,.19-.23Zm.5-12.46-.36,0-.05.37-.18-.09-.19.32.14.14.14-.19h.32Zm-.64-16.84.09.32,0,.18.23-.23-.23-.36Zm1.84,27.74-.41-.23-.1.18-.09-.18h-.27l-.28.28-.32-.1-.19.14.14.28h.23l.14-.23.18.23.19-.09-.19-.23.14-.1.46.33.37.09Zm8.65-7-.51.23-.23.42-.09-.79.64-.55L274.8,76l-.37.09.23-.46.1-.55.13.42.19.18,0-.28-.18-.18-.18-.23-.23-.28-.56-.23-.69-.87-.13-.92.27-.37-.23-.55-.27.18.18.42-.05.23-.09-.14-.55-.78-.28.18v.23l-.18-.27-.37-.46-.55.23-.28.27-.32-.41-.27-.37-.14.05.14.13.09.23.09.83-.46.78-.6-.23-.14-.13.33-.42.23.37.32-.23-.28-.41-.55-.19-.09.37.14.28-.33-.14-.36-.37.09-.18-.19.09.28.64.69.83.23.64H270l.14-.32.32.37.55-.18.28-.37-.28-.05,0-.46.41-.18-.18-.23.64-.09,0,.18-.1.64.05.74-.37-.14-.23.51.6.46.28.41L272,75l.41-.14.33.37v.32l.36.37-.59.41h-.19l-.18.69-.23.23v-.59l-.46-.6.14-.42v-.46l-.92-.27-.51-.09.05-.19.23.14.27-.09-.14-.23-.36.09-.42.23-.37.14.14-.28,0-.32-.23-.32-.33-.09-.32.27-.41-.37-.37.19-.09.32-.19.09v.28h.28l.05-.32.5.23.74.41,0,.51.23.23.05.41-.37-.28v.46l.28.37-.42.42,0,.46h-.37l-.09,0,.23.23.14.74-.42.36-.32.42,0,.46-.23.32.13.37-.32,0-.14-.87h-.32v.37l-.18,0-.14.46-.55-.14-.28.14-.37.14.37.28.37-.42.32,0-.14.46-.73.18-.55-.41-.05.55,1.15.42.55.22-.37.51-.23.51-.23.36-.18-.27-.41.09.27.32h.28l.32-.23.32.23.42,0,.13-.28.19.37L267,84l.55.32.37-.59.14-.56-.32-.23h-.42l0-.36-.19-.24.46-.13.65-.46.6-.42-.14.33-.23.32,0,.18.1-.14.73-.09.6.41-.32.6-.05.32-.14-.46v-.41l-.32-.14-.69.69-.18.74-.05.41.19-.18.09.37,0,.46L268,84.6l-.41.18.05.18.36-.23v.33l-.18.36-.32-.18-.32-.28-.23-.18-.1.23.33,0,.09.27,0,.32.19.28.46-.28.14-.36.64-.14,0-1-.23-.14-.19-.23.37-.78.18-.6.23.6.23.37.19,0,.27-.24.56.42-.28.41-.28-.36-.18.64-.51.09.05.28.6,0,.23.14.37-.23.32-.51h.18l.09.19.69-1.2h.23l.65.14.37-.51.41,0,.14-1.1.18.27.42-.14-.19-.82,0-1.25.13-.27.42-.56.23.37v.33l.41-.19.09-.64.05-.46-.18-.37.27-.28Zm-9.8-6.21.28.42.27.27.14-.09-.18-.37-.33-.23Zm.41,1.66,0,.32.18,0,.19-.13.22-.1.19-.13-.19-.1-.18-.18,0,.28-.32-.1-.42-.18-.09.32Zm0,12.33-.36.37.23.18Zm.79-11.69-.28-.18-.28.18v.42l-.27,0v.23l.5,0Zm.09-2.85-.05-.28h-.28l-.18-.13-.14,0-.23.23.46.09Zm1.1,10.49.05.37-.28.14-.46-.56-.46-.23.19-.09.23-.14.36.32Zm-.55-7.64.32-.09.05-.83.09-.64-.09-.55-.14.18-.28.64.23.69-.32.33Zm.55,0,.42-.1,0,.23.32.1,0-.42-.28,0-.23-.14Zm1,7.17.23.32-.46-.09-.09-.59.19-.19Zm0-2.11-.18-.1.37-.36.09-.56.37-.09.27-.18v.23l-.36.5.46.23.36-.32.19.23.14.37-.28,0-.37.46-.32.32h-.28l.19-.23-.05-.37-.37-.37Zm-.13-17.67,0,.46.05.28.23.09V61l-.19-.42.1-.28-.1-.13Zm.36,3,.23-.28-.18-.23.23-.19.18.79.28,0,.14-.18-.23-.23-.28-.42-.32,0-.05.18Zm1.43,17-.05.18.46.24,0,.18-.18.37.18.23-.41.27-.33-.18.14-.46-.73-.18-.19-.33-.09-.18-.09.18-.14-.14-.05-.68.19-.56.18-.09.32,0,.33-.41.27.14-.5.55.18.09-.09.46-.14.55.28,0,0-.37.23-.41.14-.23v.18h.18l.1-1.38.32.37.09.46-.18.46,0,.55-.27-.09Zm-.92-3.91-.23-.23.23,0,.23-.33-.18-.41v-.28l.23-.23.09.6.27.83V76l.33.14.13-.46h.42V76l-.14.41-.23.42-.32.41-.28-.14-.14-.32Zm.05-14.81.32-.05.18-.18.09-.33-.18.14-.28.23Zm1,9.06.6.14.13-.55-.23-.14Zm.23,7.22.27-1,.37.18-.41.92Zm.87-6.16.14.37-.32,0-.46-.09.27-.32Zm-.14,9.57-.41-.37.28,0,.27.23Zm1.48-2.17.5.28h-.5l-.42-.23-.32.19.37.46-.69.5-.42.23-.13-.23-.23-.14.46-.69-.33-.87.28-.09.28.23.23.18.18-.18-.41-.56.13-.69.14.1.19.46.09.46Zm-.37,2.21.32.23-.05.23-.46-.18-.23.46-.27.18h-.46l.55-.73ZM272,73.09l-.27-.41.27-.18.78,0,.19.14-.19,0-.27.18-.05.78.19-.32-.1-.46.23,0,.28-.18,0,.32-.23.55.23,1.06-.42.55,0-.46-.42-.27.28-.23-.05-.23-.13.18-.33,0-.32-.42.19-.09Zm1.11,7.32.46,0-.42.32.05.46-.09.14-.51-.37-.55.46h-.28l.32-.55v-.24l.46-.13,0,.23Zm.09-3.5-.69.51.41-.69.37-.46.18.27Zm-.37,1.47-.32-.13.18-.19.14-.37.28.19Zm0-16.37.28.41.27-.23-.27-.32Zm.55,16.33.28.28-.19.32-.36-.1-.1-.22Zm.55-1,.28.37-.09.37-.23-.37-.28-.14Zm-.27-3.82.5,0,0,.46.69-.09-.28-.1-.09-.36-.51-.28Zm.37,3.09-.28-.51v-.32l.37.27,0,.23Zm.73,3.68-.32-.46-.28.32.05.41.23.14Zm0-2.53.13.09.14.37-.09.27-.18-.37Z"/></g></svg>