<?xml version="1.0" encoding="utf-8"?>
<!-- Generator: Adobe Illustrator 21.1.0, SVG Export Plug-In . SVG Version: 6.00 Build 0)  -->
<svg version="1.1" id="Capa_1" xmlns="http://www.w3.org/2000/svg" xmlns:xlink="http://www.w3.org/1999/xlink" x="0px" y="0px"
	 viewBox="0 0 705.602 676.271" style="enable-background:new 0 0 705.602 676.271;" xml:space="preserve">
<style type="text/css">
	.st0{fill:none;stroke:#ADB6BB;stroke-width:1.91;}
	.st1{clip-path:url(#SVGID_2_);fill:none;stroke:#ECB1D1;stroke-width:1.91;}
	.st2{clip-path:url(#SVGID_2_);fill:none;stroke:#8BA5D6;stroke-width:1.91;}
	.st3{clip-path:url(#SVGID_2_);fill:none;stroke:#84CDE4;stroke-width:1.91;}
	.st4{clip-path:url(#SVGID_2_);fill:none;stroke:#D9E39A;stroke-width:1.91;}
	.st5{clip-path:url(#SVGID_2_);fill:none;stroke:#FBCA8C;stroke-width:1.91;}
	.st6{clip-path:url(#SVGID_2_);fill:#FDEAD2;}
	.st7{clip-path:url(#SVGID_2_);fill:#F0F4D9;}
	.st8{clip-path:url(#SVGID_2_);fill:#D4EBF5;}
	.st9{clip-path:url(#SVGID_2_);fill:#D2DAEF;}
	.st10{clip-path:url(#SVGID_2_);fill:#EED7E9;}
	.st11{clip-path:url(#SVGID_2_);fill:#94A5B0;}
	.st12{fill:none;stroke:#8BA5D6;stroke-width:1.91;}
</style>
<polyline class="st0" points="433.247,27.55 531.836,27.55 531.836,76.288 "/>
<polyline class="st0" points="438.908,32.812 433.247,27.55 438.908,22.287 "/>
<polyline class="st0" points="537.1,70.627 531.837,76.289 526.574,70.627 "/>
<polyline class="st0" points="265.046,27.55 166.457,27.55 166.457,76.288 "/>
<polyline class="st0" points="259.385,32.812 265.046,27.55 259.385,22.287 "/>
<polyline class="st0" points="161.193,70.627 166.456,76.289 171.719,70.627 "/>
<g>
	<defs>
		<rect id="SVGID_1_" width="705.602" height="676.271"/>
	</defs>
	<clipPath id="SVGID_2_">
		<use xlink:href="#SVGID_1_"  style="overflow:visible;"/>
	</clipPath>
	<path class="st1" d="M595.411,465.573c0,0-1.225,14.745,0.539,36.252"/>
	<polyline class="st1" points="600.732,495.753 595.95,501.824 590.242,496.613 	"/>
	<path class="st2" d="M534.408,136.989c0,0-1.228,14.746,0.542,36.253"/>
	<polyline class="st2" points="539.731,167.168 534.95,173.242 529.24,168.031 	"/>
	<path class="st2" d="M353.54,378.184c0,0-1.252,14.746,0.552,36.252"/>
	<polyline class="st2" points="358.863,408.355 354.092,414.436 348.374,409.234 	"/>
	<path class="st3" d="M353.54,468.18c0,0-1.252,14.745,0.552,36.251"/>
	<polyline class="st3" points="358.862,498.35 354.091,504.431 348.373,499.23 	"/>
	<path class="st4" d="M165.905,141.447c0,0-1.228,14.746,0.541,36.252"/>
	<polyline class="st4" points="171.227,171.626 166.446,177.699 160.737,172.489 	"/>
	<path class="st5" d="M110.545,462.388c0,0-1.224,14.746,0.539,36.252"/>
	<polyline class="st5" points="115.866,492.569 111.084,498.64 105.376,493.429 	"/>
	<path class="st6" d="M24.936,421.25c0,0-1.46,9.479-1.543,20.731c-0.084,11.252,1.543,20.867,1.543,20.867
		s68.739,1.923,86.039,1.602c17.3-0.32,84.275-1.602,84.275-1.602s2.32-10.085,2.598-20.744c0.319-12.268-2.598-20.854-2.598-20.854
		s-63.905-1.535-87.636-1.603C83.883,419.579,24.936,421.25,24.936,421.25"/>
	<path class="st7" d="M67.823,89.723c0,0-1.833,10.904-1.937,23.847c-0.105,12.943,1.937,24.003,1.937,24.003
		s86.279,2.212,107.994,1.843c21.714-0.369,105.78-1.843,105.78-1.843s2.911-11.601,3.26-23.862
		c0.401-14.111-3.26-23.988-3.26-23.988s-80.212-1.766-109.998-1.843C141.812,87.803,67.823,89.723,67.823,89.723"/>
	<path class="st8" d="M247.839,419.463c0,0-1.803,10.208-1.905,22.326c-0.103,12.117,1.905,22.472,1.905,22.472
		s84.857,2.071,106.214,1.726c21.356-0.345,104.036-1.726,104.036-1.726s2.864-10.86,3.206-22.34
		c0.395-13.211-3.206-22.458-3.206-22.458s-78.889-1.654-108.185-1.726C320.609,417.664,247.839,419.463,247.839,419.463"/>
	<path class="st9" d="M420.633,89.677c0,0-1.912,10.634-2.021,23.258c-0.109,12.623,2.021,23.41,2.021,23.41
		s90.013,2.158,112.666,1.798c22.654-0.36,110.358-1.798,110.358-1.798s3.037-11.314,3.401-23.272
		c0.418-13.763-3.401-23.396-3.401-23.396s-83.683-1.722-114.758-1.798C497.824,87.805,420.633,89.677,420.633,89.677"/>
	<path class="st10" d="M488.009,420.159c0,0-1.832,9.939-1.936,21.737s1.936,21.88,1.936,21.88s86.22,2.016,107.919,1.68
		c21.7-0.336,105.708-1.68,105.708-1.68s2.91-10.575,3.258-21.751c0.4-12.863-3.258-21.866-3.258-21.866s-80.157-1.61-109.923-1.68
		C561.947,418.408,488.009,420.159,488.009,420.159"/>
	<path class="st5" d="M6.53,512.546c0,0-4.419,41.674-4.52,83.747c-0.102,42.073,4.52,71.793,4.52,71.793s37.892,6.84,80.085,7.173
		c74.651,0.589,129.981-3.536,129.981-3.536s2.296-53.252,2.635-93.109c0.391-45.87-4.378-66.068-4.378-66.068
		s-67.594-3.807-96.621-4.058S6.53,512.546,6.53,512.546z"/>
	<path class="st4" d="M8.001,182.041c0,0-6.884,42.166-7.043,84.736c-0.159,42.569,7.043,72.64,7.043,72.64
		s59.038,6.92,124.776,7.258c116.312,0.596,202.519-3.578,202.519-3.578s3.576-53.88,4.105-94.208
		c0.609-46.411-6.821-66.848-6.821-66.848s-105.316-3.852-150.541-4.106C136.813,177.681,8.001,182.041,8.001,182.041z"/>
	<path class="st3" d="M248.446,512.546c0,0-4.464,41.674-4.567,83.747c-0.103,42.073,4.567,71.793,4.567,71.793
		s38.286,6.84,80.916,7.173c75.427,0.589,131.332-3.536,131.332-3.536s2.319-53.252,2.662-93.109
		c0.395-45.87-4.423-66.068-4.423-66.068s-68.297-3.807-97.625-4.058C331.979,508.237,248.446,512.546,248.446,512.546z"/>
	<path class="st2" d="M371.234,182.041c0,0-6.863,42.166-7.021,84.736c-0.158,42.569,7.021,72.64,7.021,72.64
		s58.855,6.92,124.388,7.258c115.95,0.596,201.889-3.578,201.889-3.578s3.565-53.88,4.092-94.208
		c0.607-46.411-6.8-66.848-6.8-66.848s-104.988-3.852-150.073-4.106S371.234,182.041,371.234,182.041z"/>
	<path class="st1" d="M490.892,512.546c0,0-4.44,41.674-4.542,83.747c-0.103,42.073,4.542,71.793,4.542,71.793
		s38.076,6.84,80.473,7.173c75.013,0.589,130.611-3.536,130.611-3.536s2.307-53.252,2.648-93.109
		c0.392-45.87-4.399-66.068-4.399-66.068s-67.922-3.807-97.09-4.058C573.967,508.237,490.892,512.546,490.892,512.546z"/>
	<path class="st11" d="M236.815,2.188c0,0-1.903,12.923-2.012,28.263c-0.108,15.34,2.012,28.448,2.012,28.448
		s89.598,2.621,112.147,2.184c22.55-0.437,109.849-2.184,109.849-2.184s3.024-13.749,3.385-28.281
		c0.417-16.724-3.385-28.43-3.385-28.43s-83.297-2.093-114.229-2.185C313.65-0.088,236.815,2.188,236.815,2.188"/>
</g>
<polyline class="st12" points="109.237,412.513 109.237,378.2 596.904,378.2 596.904,409.363 "/>
<polyline class="st12" points="114.499,406.851 109.236,412.513 103.973,406.851 "/>
<polyline class="st12" points="602.168,403.701 596.905,409.363 591.642,403.701 "/>
</svg>
