<?xml version="1.0" encoding="utf-8"?>
<!-- Generator: Adobe Illustrator 21.1.0, SVG Export Plug-In . SVG Version: 6.00 Build 0)  -->
<svg version="1.1" id="Capa_1" xmlns="http://www.w3.org/2000/svg" xmlns:xlink="http://www.w3.org/1999/xlink" x="0px" y="0px"
	 viewBox="0 0 42.208 11.844" style="enable-background:new 0 0 42.208 11.844;" xml:space="preserve">
<style type="text/css">
	.st0{clip-path:url(#SVGID_2_);fill:#E9EEC6;}
</style>
<g>
	<defs>
		<rect id="SVGID_1_" width="42.208" height="11.844"/>
	</defs>
	<clipPath id="SVGID_2_">
		<use xlink:href="#SVGID_1_"  style="overflow:visible;"/>
	</clipPath>
	<path class="st0" d="M0.198,4.502c4.738,5.217,13.758,6.035,20.41,5.454c6.8-0.592,11.833-3.852,17.612-7.08
		c0.252-0.141,0.444,0.187,0.327,0.391c-3.853,6.663-13.102,8.649-20.218,8.575c-5.39-0.055-16.455-0.865-18.325-7.249
		C-0.027,4.481,0.131,4.431,0.198,4.502"/>
	<path class="st0" d="M30.393,1.888c1.882,0.07,3.577,0.179,5.432-0.316C37.578,1.1,39.292,0.5,41.043,0.025
		c0.663-0.181,1.414,0.647,1.085,1.286c-0.444,0.865-0.882,1.736-1.359,2.583c-0.683,1.218-1.713,2.385-1.858,3.828
		c-0.294,2.852-4.333,0.226-2.272-1.181c1.743-1.19,2.723-4.061,3.666-5.894c0.363,0.429,0.725,0.858,1.085,1.286
		c-2.803,0.751-8.984,3.282-11.088,0.136C30.249,1.989,30.294,1.884,30.393,1.888"/>
</g>
</svg>
