<?xml version="1.0" encoding="utf-8"?>
<!-- Generator: Adobe Illustrator 26.0.1, SVG Export Plug-In . SVG Version: 6.00 Build 0)  -->
<svg version="1.1" id="Layer_1" xmlns="http://www.w3.org/2000/svg" xmlns:xlink="http://www.w3.org/1999/xlink" x="0px" y="0px"
	 viewBox="0 0 38.5 32.2" style="enable-background:new 0 0 38.5 32.2;" xml:space="preserve">
<style type="text/css">
	.st0{fill:#D190BF;}
	.st1{fill:#212121;}
</style>
<polygon class="st0" points="23.5,4.1 5.7,4.4 15.9,16.4 4.6,29.8 20.9,29.5 27.1,23.7 34,16.8 26,8.4 "/>
<path class="st1" d="M21.7,27.1c-0.5,0.5-1,1-1.8,1c-3.8,0-7.6,0.1-11.4,0.1c-0.4,0-0.7,0-1.3-0.1c0.9-1.4,1.9-2.5,3-3.6
	c1.7-1.6,3.4-3.2,4.7-5.2c0.3-0.4,0.7-0.7,1.1-1.1c0.5-0.5,0.6-1.1,0.3-1.7c-0.3-0.5-0.6-1.1-1-1.5c-2.4-2.8-4.8-5.6-7.4-8.7
	c2.6-0.2,4.9-0.1,7.1-0.1c2.3,0,4.6,0.1,7.1,0.1c3,3.6,6.5,6.9,10.3,10.2c-1.9,1.9-3.8,3.7-5.6,5.4C25.1,23.7,23.4,25.4,21.7,27.1
	 M33.9,18.4c1.1-1.2,1.2-2,0.1-3.2c-0.8-0.8-1.6-1.6-2.4-2.4c-2.2-2.2-4.5-4.4-6.7-6.6c-0.4-0.4-0.7-0.9-1-1.4c-0.4-0.8-1-1-1.9-1
	C18.4,3.9,14.8,4,11.2,4C9.5,4,7.7,4,6,4.1C4.8,4.2,4.5,5,5.2,6c0.4,0.6,1,1.2,1.4,1.8c2.5,3,5,6,7.5,9c-1.1,1.4-2.1,2.9-3.4,4.1
	c-2.4,2.2-4.4,4.8-6.3,7.5C3.9,29.1,4,29.7,4.7,30c0.6,0.2,1.3,0.4,1.9,0.4c4.7,0,9.4,0,14.1,0c0.8,0,1.4-0.3,1.8-1.1
	c0.2-0.4,0.5-0.7,0.8-1C26.8,24.9,30.6,22,33.9,18.4"/>
</svg>
