<?xml version="1.0" encoding="utf-8"?>
<!-- Generator: Adobe Illustrator 21.1.0, SVG Export Plug-In . SVG Version: 6.00 Build 0)  -->
<svg version="1.1" id="Capa_1" xmlns="http://www.w3.org/2000/svg" xmlns:xlink="http://www.w3.org/1999/xlink" x="0px" y="0px"
	 viewBox="0 0 52.897 35.546" style="enable-background:new 0 0 52.897 35.546;" xml:space="preserve">
<style type="text/css">
	.st0{clip-path:url(#SVGID_2_);}
	.st1{clip-path:url(#SVGID_4_);fill:#005CA8;}
	.st2{filter:url(#Adobe_OpacityMaskFilter);}
	.st3{clip-path:url(#SVGID_4_);}
	.st4{clip-path:url(#SVGID_4_);mask:url(#SVGID_5_);}
	.st5{opacity:0.2;clip-path:url(#SVGID_9_);fill:#1D1D1B;}
	.st6{clip-path:url(#SVGID_2_);fill:#FFFFFF;}
	.st7{clip-path:url(#SVGID_11_);fill:none;stroke:#005CA8;stroke-width:1.777;stroke-linecap:round;}
	.st8{clip-path:url(#SVGID_2_);fill:none;stroke:#005CA8;stroke-width:1.185;stroke-linecap:round;}
	.st9{clip-path:url(#SVGID_13_);fill:#005CA8;}
	.st10{clip-path:url(#SVGID_15_);fill:#FFFFFF;}
</style>
<g>
	<defs>
		<rect id="SVGID_1_" x="-4" y="-2.621" width="59" height="40.614"/>
	</defs>
	<clipPath id="SVGID_2_">
		<use xlink:href="#SVGID_1_"  style="overflow:visible;"/>
	</clipPath>
	<g class="st0">
		<defs>
			<rect id="SVGID_3_" x="-4" y="-2.621" width="59" height="40.614"/>
		</defs>
		<clipPath id="SVGID_4_">
			<use xlink:href="#SVGID_3_"  style="overflow:visible;"/>
		</clipPath>
		<path class="st1" d="M25.185,12.449c0,0-1.805,0-1.805,1.805v14.401c0,0,0,1.805,1.805,1.805h25.907c0,0,1.805,0,1.805-1.805
			V14.254c0,0,0-1.805-1.805-1.805H25.185z"/>
		<defs>
			<filter id="Adobe_OpacityMaskFilter" filterUnits="userSpaceOnUse" x="2.947" y="0" width="25.92" height="33.36">
				<feColorMatrix  type="matrix" values="1 0 0 0 0  0 1 0 0 0  0 0 1 0 0  0 0 0 1 0"/>
			</filter>
		</defs>
		<mask maskUnits="userSpaceOnUse" x="2.947" y="0" width="25.92" height="33.36" id="SVGID_5_">
			<g class="st2">
				<g>
					<defs>
						<rect id="SVGID_6_" x="-5.933" y="-6.96" width="44.16" height="41.28"/>
					</defs>
					<clipPath id="SVGID_7_" class="st3">
						<use xlink:href="#SVGID_6_"  style="overflow:visible;"/>
					</clipPath>
					<g transform="matrix(1 0 0 1 0 0)" style="clip-path:url(#SVGID_7_);">
						
							<image style="overflow:visible;" width="184" height="172" xlink:href="14AFDC18E2CFDB87.jpg"  transform="matrix(0.24 0 0 0.24 -5.9327 -6.96)">
						</image>
					</g>
				</g>
			</g>
		</mask>
		<g class="st4">
			<g>
				<defs>
					<rect id="SVGID_8_" x="2.947" width="25.92" height="33.36"/>
				</defs>
				<clipPath id="SVGID_9_">
					<use xlink:href="#SVGID_8_"  style="overflow:visible;"/>
				</clipPath>
				<rect x="2.947" y="0" class="st5" width="25.92" height="33.36"/>
			</g>
		</g>
	</g>
	<rect x="1.433" y="1.675" class="st6" width="25.605" height="33.132"/>
	<g class="st0">
		<defs>
			<rect id="SVGID_10_" x="-4" y="-2.621" width="59" height="40.614"/>
		</defs>
		<clipPath id="SVGID_11_">
			<use xlink:href="#SVGID_10_"  style="overflow:visible;"/>
		</clipPath>
		<path class="st7" d="M0.889,1.882V31.66c0,0,0.45,3.058,1.609,3.058h25.42c-1.223,0-1.609-3.058-1.609-3.058V1.882H0.889z"/>
	</g>
	<rect x="4.591" y="11.624" class="st8" width="7.776" height="7.696"/>
	<g class="st0">
		<defs>
			<rect id="SVGID_12_" x="-4" y="-2.621" width="59" height="40.614"/>
		</defs>
		<clipPath id="SVGID_13_">
			<use xlink:href="#SVGID_12_"  style="overflow:visible;"/>
		</clipPath>
		<path class="st9" d="M21.522,6.979l0.462-1.552l0.47,1.552H21.522z M22.922,8.565h0.836l-1.313-3.957h-0.882l-1.296,3.957h0.794
			l0.275-0.93h1.307L22.922,8.565z M20.448,4.608h-2.884v0.689h1.054v3.268h0.775V5.297h1.055V4.608z M14.892,7.529l-0.341,0.548
			c0.376,0.324,0.845,0.544,1.393,0.544c0.744,0,1.344-0.399,1.344-1.215c0-1.436-1.867-0.919-1.867-1.709
			c0-0.29,0.25-0.458,0.588-0.458c0.285,0,0.62,0.118,0.891,0.309l0.335-0.532c-0.343-0.287-0.811-0.465-1.277-0.465
			c-0.716,0-1.299,0.415-1.299,1.204c0,1.397,1.849,0.917,1.849,1.709c0,0.299-0.26,0.452-0.607,0.452
			C15.558,7.916,15.203,7.766,14.892,7.529 M13.218,8.565h0.777V4.608h-0.777V8.565z M10.385,4.608H9.556l1.265,3.957h0.667
			l1.27-3.957h-0.789l-0.795,2.74L10.385,4.608z M6.887,8.565h2.414V7.879H7.655V6.912H9.05V6.228H7.655V5.294h1.607V4.608H6.887
			V8.565z M4.302,6.443V5.287h0.495c0.386,0,0.635,0.196,0.635,0.581c0,0.368-0.227,0.575-0.635,0.575H4.302z M3.539,8.565h0.763
			V7.124h0.425l0.751,1.441h0.9L5.497,7.003c0.446-0.195,0.71-0.613,0.71-1.146c0-0.729-0.496-1.249-1.333-1.249H3.539V8.565z"/>
	</g>
	<line class="st8" x1="14.673" y1="12.915" x2="22.691" y2="12.915"/>
	<line class="st8" x1="14.673" y1="16.046" x2="22.691" y2="16.046"/>
	<line class="st8" x1="14.673" y1="19.32" x2="22.691" y2="19.32"/>
	<line class="st8" x1="4.26" y1="23.731" x2="23.57" y2="23.731"/>
	<line class="st8" x1="4.26" y1="26.862" x2="23.57" y2="26.862"/>
	<line class="st8" x1="4.26" y1="30.136" x2="23.57" y2="30.136"/>
	<g class="st0">
		<defs>
			<rect id="SVGID_14_" x="-4" y="-2.621" width="59" height="40.614"/>
		</defs>
		<clipPath id="SVGID_15_">
			<use xlink:href="#SVGID_14_"  style="overflow:visible;"/>
		</clipPath>
		<path class="st10" d="M45.663,23.958c-0.292,0.345-0.645,0.622-1.061,0.83c-0.416,0.208-0.898,0.356-1.444,0.445
			c-0.547,0.089-1.159,0.14-1.837,0.152c0.024,0.38,0.048,0.749,0.072,1.105c0.023,0.357,0.041,0.725,0.053,1.106
			c1.355-0.012,2.526-0.176,3.512-0.491c0.987-0.314,1.798-0.775,2.434-1.381c0.636-0.607,1.106-1.355,1.409-2.247
			c0.303-0.891,0.454-1.919,0.454-3.084c0-1.771-0.389-3.129-1.167-4.074c-0.779-0.945-1.935-1.418-3.468-1.418
			c-0.749,0-1.388,0.134-1.917,0.401c-0.529,0.268-0.966,0.607-1.31,1.017c-0.345,0.41-0.598,0.864-0.758,1.364
			c-0.161,0.499-0.241,0.986-0.241,1.462c0,0.57,0.083,1.093,0.25,1.569c0.166,0.475,0.425,0.882,0.775,1.221
			c0.351,0.339,0.8,0.6,1.346,0.784c0.547,0.185,1.207,0.277,1.98,0.277c0.213,0,0.472-0.027,0.775-0.081
			c0.303-0.053,0.58-0.139,0.829-0.258C46.183,23.18,45.954,23.614,45.663,23.958 M43.505,20.464
			c-0.315-0.309-0.472-0.785-0.472-1.426c0-0.214,0.033-0.434,0.098-0.66c0.065-0.226,0.163-0.434,0.294-0.624
			c0.131-0.19,0.303-0.345,0.517-0.464c0.214-0.118,0.464-0.178,0.749-0.178c0.357,0,0.657,0.08,0.9,0.241
			c0.244,0.16,0.437,0.38,0.58,0.659c0.143,0.28,0.243,0.607,0.303,0.981c0.059,0.374,0.095,0.776,0.107,1.203
			c0,0.036-0.003,0.078-0.009,0.125c-0.006,0.048-0.009,0.096-0.009,0.143v0.16c-0.143,0.096-0.363,0.17-0.66,0.223
			c-0.297,0.054-0.582,0.08-0.855,0.08C44.334,20.927,43.82,20.773,43.505,20.464 M34.992,27.559c0.071-1.07,0.259-2.14,0.562-3.209
			c0.303-1.07,0.659-2.071,1.069-3.005c0.41-0.932,0.844-1.767,1.302-2.505c0.457-0.736,0.876-1.313,1.257-1.729v-1.926h-8.647
			v2.265h5.366c-0.416,0.582-0.826,1.275-1.23,2.077s-0.77,1.655-1.096,2.558c-0.327,0.904-0.604,1.825-0.829,2.764
			c-0.226,0.939-0.375,1.842-0.446,2.71H34.992z"/>
	</g>
</g>
</svg>
