<?xml version="1.0" encoding="utf-8"?>
<!-- Generator: Adobe Illustrator 21.1.0, SVG Export Plug-In . SVG Version: 6.00 Build 0)  -->
<svg version="1.1" id="Capa_1" xmlns="http://www.w3.org/2000/svg" xmlns:xlink="http://www.w3.org/1999/xlink" x="0px" y="0px"
	 viewBox="0 0 820 1060" style="enable-background:new 0 0 820 1060;" xml:space="preserve">
<style type="text/css">
	.st0{fill:#AEC90B;}
	.st1{clip-path:url(#SVGID_2_);fill:#F0F4D9;}
	.st2{clip-path:url(#SVGID_4_);fill:#FFFFFF;}
	.st3{clip-path:url(#SVGID_6_);fill:#F0F4D9;}
</style>
<rect class="st0" width="820" height="1060"/>
<polygon class="st0" points="0,1060 820,1060 820,1032.009 0,1023.286 "/>
<g>
	<defs>
		<rect id="SVGID_1_" width="820" height="1060"/>
	</defs>
	<clipPath id="SVGID_2_">
		<use xlink:href="#SVGID_1_"  style="overflow:visible;"/>
	</clipPath>
	<path class="st1" d="M55.213,64.117c19.922-1.919,398.444,0,438.289,0c39.844,0,295.778-12.096,298.833,9.201
		c6.641,46.295,6.641,749.209,6.641,826.607c0,55.751-2.656,125.897-6.641,125.897c-3.984,0-660.089,24.845-742.435,6.311
		c-6.64-88.962-3.984-419.447-3.984-591.846C45.916,386.018,44.588,116.564,55.213,64.117"/>
</g>
<g>
	<defs>
		<path id="SVGID_3_" d="M493.501,64.117c-39.843,0-418.365-1.919-438.288,0c-10.625,52.446-9.297,321.901-9.297,376.17
			c0,172.399-2.657,502.884,3.984,591.845c82.346,18.535,738.45-6.31,742.435-6.31c3.985,0,6.641-70.146,6.641-125.897
			c0-77.398,0-780.313-6.641-826.607c-1.43-9.971-58.289-12.623-122.455-12.622C596.999,60.696,514.691,64.117,493.501,64.117"/>
	</defs>
	<clipPath id="SVGID_4_">
		<use xlink:href="#SVGID_3_"  style="overflow:visible;"/>
	</clipPath>
	<path class="st2" d="M65.91,714.554c0,0-7.22,0-7.22,7.22v324.448c0,0,0,7.22,7.22,7.22h700.68c0,0,7.219,0,7.219-7.22V721.774
		c0,0,0-7.22-7.219-7.22H65.91z"/>
</g>
<g>
	<defs>
		<rect id="SVGID_5_" width="820" height="1060"/>
	</defs>
	<clipPath id="SVGID_6_">
		<use xlink:href="#SVGID_5_"  style="overflow:visible;"/>
	</clipPath>
	<path class="st3" d="M46.188,58.702c19.922-1.919,398.444,0,438.289,0c39.844,0,295.778-12.096,298.833,9.201
		c6.641,46.295,6.641,749.209,6.641,826.607c0,55.751-2.656,125.897-6.641,125.897c-3.984,0-660.089,24.845-742.435,6.311
		c-6.64-88.962-3.984-419.447-3.984-591.846C36.891,380.603,35.563,111.149,46.188,58.702"/>
</g>
</svg>
