<?xml version="1.0" encoding="utf-8"?>
<!-- Generator: Adobe Illustrator 24.2.3, SVG Export Plug-In . SVG Version: 6.00 Build 0)  -->
<svg version="1.1" id="Capa_1" xmlns="http://www.w3.org/2000/svg" xmlns:xlink="http://www.w3.org/1999/xlink" x="0px" y="0px"
	 viewBox="0 0 155.2 45.6" style="enable-background:new 0 0 155.2 45.6;" xml:space="preserve">
<style type="text/css">
	.st0{filter:url(#Adobe_OpacityMaskFilter);}
	.st1{mask:url(#SVGID_1_);}
	.st2{opacity:0.3;clip-path:url(#SVGID_5_);}
	.st3{fill:#C2E6FB;}
	.st4{fill:#BFBFB4;}
	.st5{fill:none;}
</style>
<defs>
	<filter id="Adobe_OpacityMaskFilter" filterUnits="userSpaceOnUse" x="-1.6" y="-2.3" width="158.9" height="54.2">
		<feColorMatrix  type="matrix" values="1 0 0 0 0  0 1 0 0 0  0 0 1 0 0  0 0 0 1 0"/>
	</filter>
</defs>
<mask maskUnits="userSpaceOnUse" x="-1.6" y="-2.3" width="158.9" height="54.2" id="SVGID_1_">
	<g class="st0">
		<g>
			<defs>
				
					<rect id="SVGID_2_" x="53.5" y="-54.5" transform="matrix(7.090291e-02 -0.9975 0.9975 7.090291e-02 46.9533 101.5353)" width="49" height="160.2"/>
			</defs>
			<clipPath id="SVGID_3_">
				<use xlink:href="#SVGID_2_"  style="overflow:visible;"/>
			</clipPath>
			<g transform="matrix(1 7.450581e-09 7.450581e-09 1 1.490116e-08 0)" style="clip-path:url(#SVGID_3_);">
				
					<image style="overflow:visible;" width="334" height="103" xlink:href="8D037F82324CE0A2.jpg"  transform="matrix(0.4784 3.400793e-02 -3.370298e-02 0.4741 -0.1817 -4.5347)">
				</image>
			</g>
		</g>
	</g>
</mask>
<g class="st1">
	<g>
		<defs>
			
				<rect id="SVGID_4_" x="56.3" y="-53.3" transform="matrix(7.090291e-02 -0.9975 0.9975 7.090291e-02 47.5628 100.7279)" width="43.2" height="156.2"/>
		</defs>
		<clipPath id="SVGID_5_">
			<use xlink:href="#SVGID_4_"  style="overflow:visible;"/>
		</clipPath>
		
			<rect x="56.3" y="-53.3" transform="matrix(7.090291e-02 -0.9975 0.9975 7.090291e-02 47.5626 100.7277)" class="st2" width="43.2" height="156.2"/>
	</g>
</g>
<path class="st3" d="M2.4,37.9c1.6,0,1.7,1.7,3.3,1.4c2.5-0.5,2.8,0.6,5.4,0.6c2.2,0,6.6,0.5,6.6,0.5s2.7,0.1,4-0.3
	c0.4-0.1,0.8-0.1,1.3-0.2c1.4-0.2,2.7,0.3,4.1,0c1.1-0.3,2.4,0.2,3.6,0.2c1.1,0,2-1,3.1-0.6c1,0.4,2.2,0.5,3.2,0.7
	c0.7,0.1,3-0.8,3.6-0.8c0.9-0.1,1.9-0.1,2.7,0c1.2,0.1,3.5,0.9,3.5,0.9s1.2-0.9,2-0.9c1,0,3.2,0.6,3.2,0.6s1.4-0.9,1.9-0.9
	c1.9,0,5.6,0.3,5.6,0.3s1.1-0.3,1.8-0.6c1.3-0.5,2.6,1.6,3.9,1.4c3.5-0.4,10.5-0.4,10.5-0.4s1.7-0.5,2.4,0c1,0.7,7,0.1,7,0.1
	s5,0.5,7.7,0.7c0.7,0.1,2.8-0.1,3.2-0.2c1.2-0.4,2.3-1.1,3.6-1.2c0.9,0,1.9,1.1,2.8,1.1l0,0c1.5,0,4.5-0.1,5.6,0.2
	c0.4,0.1,2.6-0.7,5-0.5c2.9,0.3,6.1,0.5,6.1,0.5l4.3-0.6l5.3,0c0,0,0.8,1.1,1,1.2c0.4,0.2,3.1-1.2,4-0.3c1.3-0.5,2.2-1.3,2.2-1.3
	s1.1,1.1,1.9,1.2c0.5,0.1,7.5,0.4,8.4,0.4c0.9,0,5-0.8,6.8-0.4c0.2-2.9-0.8-9.9-1-12.8c0,0-1.1-2.4-0.5-5.3c0,0,1.2-4.7,1.3-8.4
	c0.1-1.6-0.3-4-0.3-4s-0.9,0-1.7,0c-1.8-0.1-80.4-0.3-148.2-0.4C3.4,22.3,2.4,37.9,2.4,37.9"/>
<path class="st4" d="M91.8,2.6L79.8,2.5L68.4,2.1L56.8,1.1c0,0.2-0.8,0.3-0.8,0.5c0,0.1,0.3,0.4,0,0.9c-0.5,0.6,0.6,1.6-0.4,2.1
	c-0.4,0.2-0.5,0.3-0.5,0.3c0.1,0,0.3,0,0.5,0c0.2,0,0.5,0,0.6,0c0.1,0,0.2,0.1,0.1,0.3c-0.4,0.6-0.7,0.7-1.5,0.9
	c-0.8,0.5-0.2,0.8,1.4,1.7c1.3,0.7-2.6,0.8-1.8,1c1.4,0.4,1,0.3,0.7,1.1c-0.1,0.3,0.6,0.4,0.6,0.6c0.2,1-1.4,1-0.8,1.9
	c0.2,0.4,2.3,1,0.1,0.4c-1-0.3,0.4,0.8,0.9,0.9l4.3,0.3l13.6,1l12,0.6l5.9,0.1c0.6-0.1,1.1-0.2,1.6-0.4c0.1,0,0.3,0,0.3-0.1
	c0-0.1-0.9-0.3-0.5-0.6c0.6-0.5-0.6-1.2-0.1-1.3c2.9-0.7-1.7-0.6,0.3-1.8c0.5-0.3-0.8-1.8-1-2.5c-0.3-0.8-0.5-2.9-0.9-3.4
	c-0.6-0.7,0.5-1.2,0.4-1.2c-1.6-0.4-0.2-0.9-0.1-1.6L91.8,2.6z"/>
<polyline class="st5" points="53.1,-8 51,21.4 96.4,24.7 98.5,-4.8 "/>
</svg>
