<?xml version="1.0" encoding="utf-8"?>
<!-- Generator: Adobe Illustrator 14.0.0, SVG Export Plug-In . SVG Version: 6.00 Build 43363)  -->
<!DOCTYPE svg PUBLIC "-//W3C//DTD SVG 1.1//EN" "http://www.w3.org/Graphics/SVG/1.1/DTD/svg11.dtd">
<svg version="1.1" id="Layer_1" xmlns="http://www.w3.org/2000/svg" xmlns:xlink="http://www.w3.org/1999/xlink" x="0px" y="0px"
	 width="717px" height="264px" viewBox="0 0 717 264" enable-background="new 0 0 717 264" xml:space="preserve">
<path fill="#CBCACA" d="M12.949,11.543h679.629c0,0,4.491,86.03,5.663,123.734c1.604,51.704-7.464,115.199-7.464,115.199
	s-345.536,7.074-420.865,6.781c-75.329-0.295-258.035,0.01-258.035,0.01s-0.326-103.692-0.326-141.55
	C11.551,77.863,12.949,11.543,12.949,11.543"/>
<path fill="#FBFAF7" d="M10.742,8.895h679.629c0,0,4.491,86.03,5.663,123.734c1.604,51.704-7.464,115.199-7.464,115.199
	s-345.536,7.074-420.865,6.781c-75.329-0.295-258.035,0.01-258.035,0.01s-0.326-103.692-0.326-141.55
	C9.344,75.215,10.742,8.895,10.742,8.895"/>
<path fill="#00AFB7" d="M699.815,12.998l-22.133,11.276c-2.913,1.485-1.224,4.803-1.224,4.803l1.537,3.015
	c1.69,3.317,4.603,1.833,4.603,1.833l22.133-11.276c2.913-1.485,1.223-4.802,1.223-4.802l-1.537-3.018
	C702.728,11.513,699.815,12.998,699.815,12.998 M710.313,11.723l1.809,3.549c0,0,2.324,4.563-2.237,6.888l-28.119,14.328
	c0,0-4.563,2.323-6.886-2.238l-1.809-3.55c0,0-2.325-4.563,2.237-6.886l28.118-14.328C703.426,9.485,707.987,7.162,710.313,11.723"
	/>
<path fill="#FFFFFF" d="M708.062,14.342c0.486,0.126,0.777,0.621,0.652,1.106c-0.126,0.483-0.621,0.776-1.106,0.651
	c-0.485-0.127-0.777-0.62-0.651-1.105C707.081,14.51,707.576,14.217,708.062,14.342"/>
<path fill="#00AFB7" d="M691.166,28.529l13.482-6.831c0,0,2.739-1.396,1.343-4.132l-1.321-2.596c0,0-1.396-2.736-4.133-1.342
	l-8.846,4.507L691.166,28.529z"/>
</svg>
