<?xml version="1.0" encoding="utf-8"?>
<!-- Generator: Adobe Illustrator 14.0.0, SVG Export Plug-In . SVG Version: 6.00 Build 43363)  -->
<!DOCTYPE svg PUBLIC "-//W3C//DTD SVG 1.1//EN" "http://www.w3.org/Graphics/SVG/1.1/DTD/svg11.dtd">
<svg version="1.1" id="Layer_1" xmlns="http://www.w3.org/2000/svg" xmlns:xlink="http://www.w3.org/1999/xlink" x="0px" y="0px"
	 width="16.536px" height="20.486px" viewBox="0 0 16.536 20.486" enable-background="new 0 0 16.536 20.486" xml:space="preserve">
<polygon fill="#EC1C24" points="8.273,15.006 8.225,15.146 8.155,15.347 8.114,15.465 8.066,15.594 8.015,15.731 7.963,15.881 
	7.905,16.034 7.846,16.193 7.784,16.359 7.718,16.523 7.688,16.612 7.653,16.696 7.621,16.781 7.584,16.867 7.549,16.951 
	7.513,17.038 7.478,17.123 7.443,17.209 7.407,17.295 7.37,17.379 7.334,17.463 7.296,17.545 7.258,17.627 7.222,17.709 
	7.185,17.787 7.146,17.866 7.106,17.944 7.067,18.021 7.027,18.097 6.989,18.171 6.948,18.242 6.926,18.28 6.905,18.315 
	6.883,18.351 6.863,18.388 6.84,18.423 6.818,18.459 6.795,18.493 6.769,18.527 6.744,18.563 6.719,18.597 6.693,18.635 
	6.664,18.67 6.636,18.707 6.604,18.741 6.571,18.779 6.537,18.816 6.498,18.854 6.457,18.894 6.413,18.933 6.363,18.976 
	6.308,19.013 6.247,19.057 6.176,19.1 6.096,19.14 6.008,19.181 5.919,19.21 5.855,19.228 5.796,19.244 5.734,19.252 5.671,19.261 
	5.604,19.266 5.535,19.267 5.463,19.266 5.375,19.26 5.264,19.241 5.15,19.21 5.051,19.175 4.967,19.134 4.895,19.093 4.837,19.055 
	4.785,19.016 4.732,18.976 4.666,18.917 4.608,18.857 4.562,18.807 4.523,18.758 4.487,18.715 4.459,18.672 4.432,18.633 
	4.407,18.594 4.383,18.561 4.361,18.523 4.341,18.489 4.32,18.455 4.301,18.42 4.282,18.385 4.246,18.317 4.222,18.274 4.212,18.25 
	4.176,18.182 4.144,18.112 4.111,18.041 4.078,17.972 4.048,17.904 4.019,17.836 3.989,17.768 3.96,17.7 3.931,17.635 3.879,17.514 
	3.834,17.403 3.76,17.229 3.745,17.188 3.675,17.046 3.612,16.913 3.606,16.905 3.537,16.769 3.467,16.63 3.395,16.489 
	3.361,16.423 3.325,16.356 3.289,16.285 3.254,16.219 3.219,16.151 3.183,16.084 3.145,16.02 3.109,15.952 3.072,15.886 
	3.037,15.82 2.999,15.752 2.96,15.688 2.922,15.623 2.885,15.558 2.847,15.493 2.811,15.427 2.77,15.361 2.759,15.343 2.732,15.3 
	2.693,15.237 2.655,15.173 2.615,15.11 2.578,15.048 2.537,14.984 2.497,14.922 2.457,14.858 2.416,14.798 2.378,14.737 
	2.335,14.676 2.292,14.614 2.251,14.552 2.212,14.49 2.169,14.428 2.125,14.369 2.083,14.309 2.04,14.248 1.998,14.188 1.956,14.13 
	1.909,14.071 1.863,14.012 1.82,13.953 1.776,13.895 1.729,13.834 1.684,13.775 1.637,13.72 1.591,13.662 1.543,13.604 
	1.496,13.548 1.448,13.487 1.4,13.431 1.352,13.375 1.304,13.319 1.253,13.262 1.231,13.236 1.204,13.204 1.151,13.144 
	1.146,13.143 0.847,12.266 1.248,11.428 1.253,11.424 2.134,11.12 2.969,11.521 2.971,11.524 3.028,11.589 3.063,11.626 
	3.087,11.657 3.147,11.724 3.205,11.795 3.263,11.861 3.319,11.928 3.375,11.998 3.431,12.065 3.487,12.134 3.542,12.204 
	3.597,12.272 3.65,12.341 3.703,12.41 3.755,12.48 3.809,12.551 3.861,12.62 3.912,12.69 3.965,12.76 4.016,12.833 4.063,12.903 
	4.114,12.973 4.165,13.044 4.212,13.113 4.26,13.187 4.308,13.259 4.355,13.332 4.405,13.402 4.452,13.473 4.498,13.546 
	4.543,13.617 4.59,13.691 4.635,13.763 4.678,13.834 4.725,13.909 4.768,13.98 4.811,14.056 4.842,14.104 4.855,14.128 
	4.897,14.202 4.941,14.276 4.981,14.348 5.025,14.423 5.067,14.496 5.109,14.573 5.15,14.646 5.191,14.722 5.23,14.797 
	5.269,14.872 5.311,14.946 5.35,15.021 5.39,15.094 5.428,15.17 5.468,15.248 5.506,15.322 5.544,15.4 5.62,15.552 5.66,15.632 
	5.708,15.518 5.776,15.366 5.836,15.219 5.896,15.075 5.953,14.938 6.006,14.808 6.055,14.685 6.102,14.573 6.176,14.378 
	6.236,14.234 6.257,14.178 6.278,14.133 6.374,13.91 6.47,13.695 6.566,13.478 6.587,13.434 6.663,13.267 6.763,13.05 6.86,12.838 
	6.963,12.625 7.062,12.41 7.165,12.197 7.267,11.985 7.369,11.773 7.473,11.562 7.577,11.35 7.685,11.138 7.789,10.927 
	7.896,10.716 7.95,10.606 8.005,10.506 8.062,10.4 8.114,10.293 8.169,10.19 8.225,10.085 8.281,9.982 8.335,9.875 8.391,9.773 
	8.448,9.668 8.503,9.565 8.561,9.459 8.618,9.356 8.674,9.252 8.732,9.147 8.79,9.046 8.847,8.942 8.908,8.839 8.965,8.734 
	9.023,8.633 9.083,8.53 9.121,8.465 9.142,8.428 9.202,8.325 9.262,8.223 9.322,8.122 9.382,8.02 9.444,7.918 9.506,7.817 
	9.567,7.718 9.629,7.614 9.691,7.514 9.753,7.415 9.816,7.312 9.878,7.214 9.945,7.112 10.006,7.013 10.071,6.911 10.135,6.812 
	10.2,6.714 10.264,6.614 10.329,6.515 10.394,6.416 10.459,6.317 10.525,6.217 10.558,6.169 10.593,6.121 10.66,6.021 10.727,5.926 
	10.794,5.827 10.864,5.729 10.929,5.634 11,5.536 11.068,5.439 11.138,5.343 11.206,5.245 11.277,5.149 11.347,5.055 11.417,4.961 
	11.488,4.861 11.56,4.77 11.63,4.674 11.703,4.579 11.776,4.485 11.847,4.39 11.919,4.295 11.994,4.203 12.067,4.109 12.142,4.015 
	12.218,3.922 12.292,3.83 12.368,3.739 12.443,3.646 12.519,3.555 12.593,3.462 12.671,3.37 12.75,3.279 12.826,3.188 12.904,3.099 
	12.982,3.007 13.061,2.917 13.139,2.828 13.218,2.737 13.3,2.648 13.38,2.562 13.458,2.472 13.541,2.384 13.623,2.295 13.705,2.209 
	13.787,2.119 13.87,2.034 13.953,1.947 14.038,1.86 14.121,1.773 14.205,1.688 14.291,1.603 14.377,1.517 14.462,1.432 15.08,1.184 
	15.691,1.438 15.695,1.443 15.943,2.058 15.689,2.672 15.687,2.673 15.605,2.755 15.527,2.835 15.45,2.913 15.369,2.995 
	15.291,3.075 15.214,3.155 15.136,3.238 15.059,3.317 14.983,3.399 14.908,3.484 14.832,3.567 14.756,3.649 14.679,3.732 
	14.607,3.816 14.534,3.899 14.458,3.984 14.386,4.069 14.314,4.153 14.24,4.239 14.168,4.324 14.097,4.414 14.026,4.499 
	13.957,4.585 13.884,4.672 13.815,4.758 13.745,4.847 13.677,4.935 13.666,4.946 13.608,5.024 13.538,5.109 13.472,5.199 
	13.404,5.289 13.335,5.379 13.271,5.467 13.201,5.559 13.136,5.649 13.07,5.739 13.007,5.831 12.939,5.922 12.876,6.012 
	12.812,6.104 12.75,6.196 12.685,6.29 12.621,6.382 12.558,6.475 12.498,6.567 12.435,6.66 12.373,6.753 12.311,6.847 12.25,6.94 
	12.189,7.038 12.129,7.133 12.098,7.181 12.07,7.227 12.009,7.32 11.949,7.417 11.89,7.511 11.83,7.607 11.771,7.702 11.715,7.8 
	11.656,7.896 11.6,7.993 11.541,8.09 11.485,8.187 11.427,8.285 11.373,8.383 11.317,8.482 11.261,8.578 11.206,8.678 11.15,8.773 
	11.095,8.873 11.041,8.973 10.985,9.072 10.935,9.17 10.879,9.269 10.826,9.368 10.806,9.404 10.771,9.468 10.719,9.569 
	10.666,9.67 10.615,9.771 10.561,9.869 10.51,9.972 10.458,10.071 10.406,10.172 10.355,10.272 10.304,10.373 10.254,10.476 
	10.203,10.577 10.152,10.679 10.103,10.78 10.052,10.883 10.006,10.983 9.957,11.088 9.906,11.189 9.857,11.292 9.809,11.396 
	9.761,11.5 9.713,11.601 9.617,11.809 9.523,12.015 9.431,12.224 9.338,12.431 9.247,12.642 9.156,12.849 9.067,13.059 
	8.976,13.269 8.888,13.478 8.802,13.691 8.714,13.901 8.629,14.114 8.563,14.279 8.545,14.322 8.458,14.536 8.374,14.749 
	8.29,14.963 8.299,14.945 8.289,14.967 "/>
</svg>
