<?xml version="1.0" encoding="utf-8"?>
<!-- Generator: Adobe Illustrator 21.1.0, SVG Export Plug-In . SVG Version: 6.00 Build 0)  -->
<svg version="1.1" id="Capa_1" xmlns="http://www.w3.org/2000/svg" xmlns:xlink="http://www.w3.org/1999/xlink" x="0px" y="0px"
	 viewBox="0 0 17.368 17.123" style="enable-background:new 0 0 17.368 17.123;" xml:space="preserve">
<style type="text/css">
	.st0{clip-path:url(#SVGID_2_);fill:#FFFFFF;}
	.st1{clip-path:url(#SVGID_2_);fill:none;stroke:#7C6EAF;stroke-width:0.956;stroke-linecap:round;}
	.st2{clip-path:url(#SVGID_2_);fill:#7C6EAF;}
</style>
<g>
	<defs>
		<rect id="SVGID_1_" width="17.368" height="17.123"/>
	</defs>
	<clipPath id="SVGID_2_">
		<use xlink:href="#SVGID_1_"  style="overflow:visible;"/>
	</clipPath>
	<path class="st0" d="M13.56,0.478H4.09c0,0-3.612,0-3.612,3.611v8.945c0,0,0,3.611,3.612,3.611h9.493"/>
	<path class="st1" d="M13.56,0.478H4.09c0,0-3.612,0-3.612,3.611v8.945c0,0,0,3.611,3.612,3.611h9.493"/>
	<polyline class="st1" points="13.576,16.639 16.852,8.561 13.576,0.483 	"/>
	<path class="st2" d="M10.095,6.016c0.352,0.106,0.664,0.232,0.936,0.376l0.574-1.593c-0.068-0.042-0.181-0.102-0.338-0.178
		C11.11,4.544,10.91,4.47,10.668,4.398c-0.242-0.072-0.531-0.136-0.866-0.191C9.466,4.152,9.09,4.124,8.674,4.124
		c-0.611,0-1.187,0.102-1.726,0.306C6.409,4.634,5.939,4.933,5.54,5.328C5.141,5.723,4.827,6.205,4.597,6.774
		C4.368,7.343,4.253,7.997,4.253,8.736c0,0.731,0.104,1.38,0.313,1.949c0.208,0.57,0.503,1.05,0.885,1.44
		c0.382,0.391,0.843,0.688,1.382,0.892c0.54,0.204,1.141,0.306,1.803,0.306c0.773,0,1.423-0.053,1.95-0.16
		c0.526-0.106,0.908-0.205,1.146-0.299v-4.37H9.745v3.071c-0.119,0.025-0.257,0.042-0.414,0.05
		c-0.158,0.009-0.347,0.013-0.567,0.013c-0.408,0-0.765-0.07-1.071-0.21c-0.305-0.14-0.56-0.338-0.764-0.592
		c-0.204-0.255-0.357-0.559-0.459-0.911C6.368,9.562,6.317,9.169,6.317,8.736c0-0.892,0.206-1.594,0.618-2.108
		c0.412-0.514,1.081-0.771,2.007-0.771C9.358,5.857,9.742,5.91,10.095,6.016"/>
</g>
</svg>
