<?xml version="1.0" encoding="utf-8"?>
<!-- Generator: Adobe Illustrator 21.1.0, SVG Export Plug-In . SVG Version: 6.00 Build 0)  -->
<svg version="1.1" id="Capa_1" xmlns="http://www.w3.org/2000/svg" xmlns:xlink="http://www.w3.org/1999/xlink" x="0px" y="0px"
	 viewBox="0 0 142.8 54.4" style="enable-background:new 0 0 142.8 54.4;" xml:space="preserve">
<style type="text/css">
	.st0{clip-path:url(#SVGID_2_);fill:#DDDB00;}
	.st1{clip-path:url(#SVGID_2_);fill:none;stroke:#1D1D1B;stroke-width:0.75;}
	.st2{fill:#1D1D1B;}
</style>
<g>
	<defs>
		<rect id="SVGID_1_" x="0" width="142.8" height="54.4"/>
	</defs>
	<clipPath id="SVGID_2_">
		<use xlink:href="#SVGID_1_"  style="overflow:visible;"/>
	</clipPath>
	<path class="st0" d="M3.6,0.6c0,0-2.8,0-2.8,2.8v47.2c0,0,0,2.8,2.8,2.8H139c0,0,2.8,0,2.8-2.8V3.4c0,0,0-2.8-2.8-2.8H3.6z"/>
	<path class="st1" d="M17.9,0.5c0,0-16-0.5-16.9,0.6C0,2.4,0.2,51.4,1.6,53.1c0.8,1.1,51.1,1,91.3,0.7"/>
	<path class="st1" d="M109.6,53.7c18.1-0.2,31.4-0.4,31.8-0.6c1.4-0.6,1.5-51.8-0.6-52.3C138.7,0.3,30.5,0.5,30.5,0.5"/>
</g>
<path class="st2" d="M124.3,38.5l0.2,0.2l0.2-0.3l-0.1-0.1L124.3,38.5z M122.4,38.2l-0.2,0l0.1,0.1l-0.1-0.1l0.1-0.2l-0.1-0.2h0.2
	l0.1,0.1L122.4,38.2z M125.6,38.1l-0.2,0.2l-0.1-0.1l0-0.3l0.3-0.1V38.1z M124.8,38.6l-0.4,0.2l-0.2-0.2l-0.2-0.2l-0.2-0.1l0.1-0.1
	l0.2-0.1L124,38l-0.2-0.1l-0.2,0.1l0-0.3l0.1,0.1l0.3,0.1l0.2,0.2l0.4,0.1l0.1,0.2L124.8,38.6z M123.3,37.8l-0.1,0.2l-0.3-0.1
	l-0.2,0l-0.1-0.1l0.1-0.1l-0.2-0.5l-0.1,0.2l-0.1,0l0.1-0.3l0.5-0.1l0.2,0.3l0.3-0.1l0.1,0.2L123.3,37.8z M126.2,37.1l0-0.3
	l-0.1-0.2L126,37L126.2,37.1z M124.7,36.9l-0.2-0.2l0.3-0.1l0.1,0.5L124.7,36.9z M123.6,36.9l-0.2-0.1l-0.1,0.1l-0.1,0.2H123
	l-0.1-0.4l0.1,0.2l0.4-0.2l0,0.2L123.6,36.9l0.2,0.1L123.6,36.9L123.6,36.9z M123.8,36.6l-0.1,0.1l-0.1-0.1L123.8,36.6L123.8,36.6z
	 M122.3,36.5l0.1,0.3l-0.2-0.1l-0.1-0.3L122.3,36.5z M121.7,36.5l-0.1,0.3l-0.1,0.1l0-0.4L121.7,36.5l0.1,0.1L121.7,36.5z
	 M126.9,36.1V36l-0.2,0.2l0.1,0.1L126.9,36.1z M123.8,36.2l-0.2-0.3l0.2,0.1l0.1,0.1L123.8,36.2z M121.3,36.2l-0.1-0.2l0.2-0.1
	l0.2,0.1l0.2,0.1l0.1-0.1l0.4,0.1l0.1,0.2l-0.8,0v-0.1L121.3,36.2z M124.6,36.2l-0.2,0.2l-0.3,0.2l-0.1-0.1v-0.3l0.1-0.2l0.3-0.2
	l0.1,0.1h-0.1l0,0.1L124.6,36.2z M128.5,36.1l0-0.3l-0.2,0v0.3H128.5l0.5,0.2l0.3-0.1l-0.4-0.1L128.5,36.1z M121.5,35.4l0.1,0.1
	l0,0.1l-0.1,0l-0.2,0.2l-0.1-0.3L121.5,35.4z M123.6,35.4l0.2,0l0.2,0.2l0.3-0.1l0.4-0.1l0.2,0.1l0.3-0.1l0.1,0.2l-0.2,0.3l0.2,0.1
	l0.1,0.2l-0.1-0.1L125,36l-0.5-0.3l-0.5,0.1l-0.2-0.2h-0.2l-0.1-0.2L123.6,35.4z M121.6,35.2l-0.2-0.1l0.2-0.1L121.6,35.2z
	 M128.2,34.8h-0.3l0.1,0.3h0.2l0.3-0.2L128.2,34.8z M129.7,34.8l-0.1,0.1l0.2,0.1l0.1-0.2l-0.1-0.2L129.7,34.8z M122.4,34.7l0.2,0.1
	l-0.1,0.4l0.1,0.2l0.2,0.1l0.1,0.2l-0.2,0.1l-0.2,0l-0.1-0.1l0.2-0.1l-0.1-0.1l-0.2-0.1l-0.1-0.5L122.4,34.7z M127.6,34.6V35
	l0.1,0.2l0.1-0.3l0.2-0.1l-0.2-0.1H127.6z M119.2,34.7l0-0.2v0l0.1,0.3L119.2,34.7z M121.4,34.8L121.4,34.8l0.4-0.2l0.3,0.1
	l-0.2,0.2L122,35l0.2,0v0.3l-0.2,0.1l-0.1-0.2l0.1-0.2l0-0.1l-0.3,0l-0.2-0.1l0,0.1l-0.2-0.1L121.4,34.8z M129.3,34.5l0,0.2l0.1,0.1
	l0.1-0.1l-0.1-0.3L129.3,34.5z M121.2,34.6l-0.3,0.7l-0.2-0.1l0.2-0.4l0.2-0.3l0.1-0.1L121.2,34.6z M120,34.6l-0.2-0.1h-0.5l0.2-0.3
	V34l0.1,0.2l0,0.1l0.1,0.1l0.2-0.1l0.2,0.1V34.6z M121.8,34L122,34V34l-0.1,0.2l-0.1-0.1V34z M128.8,34.2l-0.2,0.1l-0.2-0.3
	l-0.1,0.1l-0.3,0.4l0.6,0.1L128.8,34.2z M121.5,33.9l0.1,0.2l-0.2,0l0-0.2L121.5,33.9z M120.5,34.2l-0.2-0.2l0.2-0.2l0.3-0.2
	l-0.1,0.1l-0.1,0.3L120.5,34.2z M130.6,33.5l-0.1,0.2L130.6,33.5l-0.3-0.2l0.1-0.3l0.2-0.2l0,0.3V33.5z M127.6,32.4l-0.1,0.2
	l0.4-0.1L127.6,32.4z M129.1,32l-0.2,0.2l-0.1,0.4l-0.2-0.1l-0.3-0.1l-0.1,0.3l0.4-0.1l0.3,0.2l0.2,0l0.2-0.1l-0.2-0.4L129.1,32z
	 M127.1,31.7l0,0.3l0.1,0.3v0.1l0.2-0.3l-0.2-0.4H127.1z M129.3,31.6l0.1-0.1h0.2l0.1,0.1l-0.1,0.2l-0.1-0.2L129.3,31.6z
	 M127.9,30.8h0.3V31L128,31L127.9,30.8z M127.2,30.3l0.2,0.1v0.3l-0.2-0.1V30.3z M126.4,31.1l-0.1,0.1l-0.1-0.3l0.2-0.1l-0.1-0.2
	l0.1,0.1l0,0.1l0.1-0.3l-0.3-0.3l0.3,0.1l0.1,0.4l-0.2,0.2L126.4,31.1z M130.4,34.3l-0.2,0v0.2l0.2,0.1l0,0.2l-0.3,0.5l-0.4,0.5
	l-0.3-0.1l-0.1-0.2l-0.3,0.3l0.2,0.2h0.3l0,0.1l-0.4,0.5l-0.4,0.6l-0.4-0.1l-0.1,0.1l-0.1-0.2l-0.1-0.2L128,37l-0.1-0.1l0.1-0.1
	l0.2-0.1l0.3-0.2l-0.2-0.4l-0.1,0.2l-0.2,0.2l-0.5-0.1l-0.1,0.2l-0.1-0.1l0.2-0.3l0.2,0.2l0.3-0.1l0.1-0.2l-0.1-0.2l-0.2,0l-0.1,0.1
	l-0.1,0.1h-0.2l-0.1-0.2h0.1l0.2,0.1l0.2-0.2l0.1,0.1l0.2,0l-0.1-0.3l0.3-0.2l-0.2-0.1l-0.5,0l-0.1-0.5l-0.5-0.2l-0.2-0.1l0.2,0.3
	l-0.2-0.1l-0.1-0.3l-0.1,0.3l0.1,0.3l-0.2,0.1l-0.4-0.1l0.1,0.2l-0.1,0.1l0.4,0.4l0.2-0.2l-0.1-0.3l0.4-0.1l-0.2-0.1l0.1-0.1
	l0.2,0.1l-0.1,0.4l-0.2,0.2l-0.1,0.1l0.1,0.1l-0.3,0.4l-0.2,0.3l-0.2-0.2v0.2l0.2,0.4l0,0.4l0.1,0.4l0.1-0.4l0.2-0.6l0.3,0.2l0.5,0
	l0.3,0.3l0.1,0.1l-0.2,0.1l0,0.2l-0.2,0.1l-0.2-0.1l0.1-0.3l-0.1-0.3l-0.3,0.4l-0.3,0l-0.1,0.1l0.3,0.1l0,0.3l-0.1,0l-0.2-0.2
	l-0.3,0.2l-0.2,0.2l-0.2-0.1l0.2-0.2l0-0.3l-0.1-0.1l0,0.2l-0.3-0.1l0.1-0.3l-0.1-0.2l-0.2-0.2l0,0.3l0.2,0.2l-0.3,0.1l-0.3-0.1
	l0.1-0.2l0-0.6l-0.3,0.1l-0.2-0.2l-0.1,0.1l0.1-0.1l0.4-0.3l0.1,0.3l0.1,0.1l0.2-0.1l0.1-0.1l0.2-0.3l-0.2-0.1l-0.1-0.1l-0.1-0.2
	l-0.1-0.1l0.1-0.1l0.1,0.2l0.2-0.3l0.1-0.3l-0.1,0l-0.1,0.2l-0.2-0.2l0.3-0.3l0.1-0.3l0.1,0.1h0.1l0.2-0.3l0.3-0.4l0.1-0.4l0.3-0.2
	l0.4,0.2l0.2,0.1l0.2-0.3l-0.2-0.1l-0.2-0.1l-0.4-0.1L127,33l-0.1-0.1v-0.6l-0.2-0.5v-0.2l-0.2-0.1l0.1-0.1l0.3-0.1l-0.2-0.5
	l0.4-0.3l0.2,0.2v0.1l0.1,0.2h-0.2l0.2,0.2l0.2-0.3l0.2-0.1l0,0.2l0.2,0.4v0.5l0.2,0.1l0.3-0.2l0.2-0.2l-0.4-0.1l-0.1-0.2l0.2-0.3
	l0.2-0.2l-0.2-0.1l0,0.2l-0.2,0.1l0.1-0.2l0.2-0.1l0.1-0.2l0.4,0.3l0.1,0.3l-0.1,0.3l0.4-0.1l0.2,0.1l0.4,0.2l0.3-0.5l-0.2-0.3
	l-0.2-0.4l-0.1,0.2l-0.4,0.2L129,31l-0.2-0.2l0.1-0.2l-0.2,0.1l0-0.2h0.2l0-0.3l-0.2,0l-0.2,0.2l-0.2,0.2l-0.3-0.1l-0.3-0.1
	l-0.2-0.3l0.1-0.1l0,0.2l0.4-0.1l0.3-0.3v0l0.2,0.1l0.2,0.1l0.1,0.1l0.1,0.1l0.1-0.3l0.1,0.1l0.1,0.2l-0.4,0.3l0.2,0.2v0.3l0.4,0
	l0.3-0.3l0.3,0.1l0.1,0.3l0.2,0.2l0,0.3l0.2,0.2l0,0.1l-0.1-0.1l-0.1-0.1l-0.2,0.4l-0.3,0.5l0.2,0.2l0.1-0.1h0.2l-0.1,0.2l-0.3-0.1
	l0.3,0.2l0,0.4l-0.3,0.1l-0.1-0.1l-0.1,0.1l0.4,0.1l0.4,0.4L130.4,34.3z M128.5,29.8l-0.2,0.2l0.1-0.2L128.5,29.8z M129.7,29.8
	l0.2,0.2l0,0.2l-0.1,0.1l0,0.1h-0.2l0.1-0.2l0.1-0.1l-0.1-0.1l-0.2,0.1l-0.1-0.2L129.7,29.8z M126.6,29.9l0.1,0l-0.1-0.1l0.1,0.1
	l0,0.2l-0.2-0.1V29.9z M128,29.1l0.1,0l0.2,0.2v0.2l-0.2,0l-0.2-0.3L128,29.1z M128.7,29.3l0.1,0.2l0.1-0.1l-0.1-0.1l0.1-0.2
	l0.3,0.2l-0.1,0.3l-0.4,0V29.3z M126.2,29.2l-0.3,0V29l0.3,0L126.2,29.2z M123.6,29.3l-0.2,0.1l0.1-0.2l0.1-0.2l0-0.1l0.1,0.2
	L123.6,29.3z M127.5,28.7l0.2,0.1l0,0.1l-0.1-0.1l-0.4-0.1L127.5,28.7z M122.3,29.1l-0.1-0.2l0.1-0.2l0.1,0.2L122.3,29.1z M125.7,29
	l-0.2-0.1l-0.1-0.1l-0.1,0l0.1-0.1v0.1l0.2,0V29z M124.3,28.9l-0.2,0.1l0,0.2h-0.1l0.1-0.4l0.2-0.1L124.3,28.9z M125.1,28.7l0-0.1
	l0-0.1L125.1,28.7l0.2,0.2l-0.1-0.1L125.1,28.7z M128.4,28.5v-0.2l0.1,0.2l-0.1,0.2l-0.1,0.2l0-0.2L128.4,28.5z M121.1,28.2h0.2l0,0
	L121.1,28.2z M122.3,27.9l-0.3,0.1l-0.1-0.3l0.3-0.1h0.2l0.2,0.1L122.3,27.9z M126.1,27.6l0.2,0l0.2,0.2l-0.3,0L126.1,27.6z
	 M123.8,28l-0.2,0l0.1-0.2l-0.2-0.1l-0.2-0.1h0.2l0.2,0.1V28z M121.4,28l-0.2-0.2l-0.1-0.2h0.4l0.2,0.3L121.4,28z M122.9,27.7
	l-0.2-0.1l0.2-0.2l0.1,0.2L122.9,27.7z M122.4,27.5l0-0.3l0.3,0l0.1,0.2L122.4,27.5z M121.6,27.4l-0.2-0.2l0.1-0.1l0.3,0.1l0.3-0.1
	l0.3-0.3l0.2,0.1l-0.2,0.2l-0.2,0.1l-0.1,0.3l-0.2,0.2L121.6,27.4z M121,26.9l0.1-0.2h0.2V27l-0.2,0.1L121,26.9z M122.5,26.8
	l-0.1-0.2l0-0.1l0.2,0.1L122.5,26.8z M119.8,26.3l0,0.1l-0.1-0.1l0-0.4h-0.1l0.1-0.1l0.2,0.2l-0.2,0.2L119.8,26.3z M121.3,25.6
	l0,0.2l-0.1,0.2l0.5,0.3l0.1-0.3l-0.2-0.2L121.3,25.6z M120.3,24.8l-0.2,0.3l-0.3-0.1l0.1,0l0.1-0.2L120.3,24.8z M119.4,24.3h0.5
	l-0.2,0.4l0,0.3l-0.2-0.1l-0.1-0.4L119.4,24.3z M120.2,24.3l-0.1-0.3h0.3l0.2,0.2L120.2,24.3z M125.3,23.8L125,24l0.1-0.2
	L125.3,23.8z M123.8,23.4l0.2,0.1l0.2-0.1l-0.1,0.2l-0.1,0.2l0.1,0.1l0.2-0.1l0.1-0.1h0.2l0,0.2l-0.2-0.1h-0.1l-0.1,0.1l0.1,0.1
	l-0.2,0.1h-0.3V24l0.1-0.1l-0.1-0.2l-0.2-0.1L123.8,23.4z M124.5,23.3l0.2,0.1v0.3l-0.3-0.1L124.5,23.3z M119.3,23.5V23l0.3,0.1
	l-0.1,0.4v0.3l0.1-0.1l0.4,0l0.1-0.5l-0.1,0.1l-0.2,0l0-0.3L120,23l0.1,0v0.4l0.3,0.2l-0.1,0.3l-0.6,0.1l-0.2,0.1l-0.2-0.2
	L119.3,23.5z M123.7,22.6l0.4,0.1l0,0.3l-0.2,0.2l-0.2-0.3V22.6z M124.8,22.3l0.3,0.1l-0.1,0.1l-0.1,0L124.8,22.3l-0.1,0.1
	L124.8,22.3z M123,22.3l-0.1,0.1l0.2,0.1l0.2,0l0-0.1h0.2l-0.1,0.1l-0.2,0.2l-0.1,0.2l-0.2-0.3l-0.1-0.4L123,22.3z M122.5,24.5
	l-0.2,0.1l0.2,0.1l0.1,0.3l-0.4,0.1l-0.3,0.2l-0.2,0.1l0.2,0.2l0.2,0.1l0.1,0.3l-0.1,0l-0.3-0.1l-0.2,0.5l0.4,0.1l0.3-0.3l0.1,0.1
	l-0.8,0.6l-0.3-0.1l0.1-0.3l0.1-0.2l-0.2-0.1l-0.3,0.1l-0.2,0l-0.1-0.2l-0.2,0.1l-0.1,0.3l0.2,0.2l-0.1,0.2l-0.2-0.1l0-0.2l-0.1-0.3
	l0.3-0.2l0.1,0.1l0.2,0l-0.1-0.2l-0.2-0.3l-0.5,0.7l0,0.4l0.1-0.1l0,0.3l-0.2,0.3l0,0.1l-0.1,0.2l-0.1-0.1l-0.1-0.1l0.2-0.1l0.2-0.4
	l-0.3-0.4l0.1-0.7l-0.3-0.2l-0.4,0.1l0-0.2l0.3,0l0.5-0.1l0.2-0.4l0.1,0.2l0,0.2l0.2,0.1l0.1-0.2l-0.1-0.2l-0.1-0.3l0.1-0.1l0.2,0.2
	l0.1,0.3l-0.1,0.3l0.2-0.2l0.2-0.5l-0.3-0.1l-0.2-0.4h0.1l0-0.2l-0.3-0.1l-0.1-0.3l0.1-0.2l0.1,0l0-0.2l-0.1-0.1l-0.2,0.1l-0.1-0.2
	l0.5-0.4h0.5l0.1-0.4l-0.3,0l-0.3,0.2l-0.5,0.4l-0.1-0.1l0.2-0.3l0.2-0.3l-0.1-0.2l-0.1,0.2l-0.1-0.1l0.1-0.1l0.4-0.1l0,0.3l0.3-0.1
	l0.2-0.1l-0.2-0.2v-0.3l0.1,0.1l0.2,0l0.1-0.1h0.1l-0.1,0.4l0.3,0.1l-0.2,0.3l-0.3,0.2l0.2,0.1l0.3-0.1L122,23l0.1,0.3l0.2-0.1
	l0.1-0.2l0.2,0.1l0.3,0.3h-0.1l-0.1,0.2l-0.3-0.1l-0.2,0l-0.2-0.1l-0.2-0.2l-0.5-0.1l-0.3,0.2l0.1,0.3l-0.1,0.1l0.1,0.1l0.2,0
	l0.1-0.2l0.1,0l0.1-0.1h0.3l0,0.2l-0.4,0.2l0,0.3l-0.2,0l0,0.1l0.4,0.3l0,0.2l0.3,0.1l-0.3,0.1l0.2,0.3L122,25l0-0.3l-0.1-0.1v-0.4
	l-0.1-0.2l-0.2,0l-0.1-0.2l0.4-0.2l0.2,0l-0.2,0.2V24l0.2,0l0.6-0.4l0.5-0.5h0.1l0.1,0.2v0.3l-0.3-0.1l-0.2,0.1l0,0.1h0.3l0.2,0.2
	l-0.1,0.1l-0.2-0.2L122.5,24.5z M123,21.8l0.2,0l-0.1,0.1l0.1,0.1l0,0.2l-0.3-0.2L123,21.8z M120.3,21.7l0.1-0.1l0.2,0.1l0,0.1
	l-0.4,0.1l0-0.2L120.3,21.7z M122.2,21.4l0.2-0.1v0.1l-0.3,0.2L122.2,21.4z M130.8,31.6l0-0.5l-0.6-1.4l-0.3-0.5l-0.5-0.6l-0.6-0.4
	l-0.4-0.3l-0.5-0.2l-0.4-0.2l-1.1-0.3l-0.9-0.2h-2.1l-0.5-0.3l-0.2-0.6l0-0.5l0.2-0.6l0.5-0.3l4.7,0l0.5-0.1h0.5l0.6-0.2L130,24
	v-0.4l0.1-0.7l-0.1-0.8l0.1-0.5l-0.3-0.5l-0.5-0.2l-7.6-0.1l-0.5,0.1l-1.3,0l-0.7,0.3l-0.2,0.5l0,0.5l-0.1,0.5l0,0.5l0.1,0.5l-0.1,2
	l0.1,0.5l0,0.5l0,1l0,0.5l0.1,0.5l-0.1,0.5v0.6l0.1,0.5l0.2,0.4l0.5,0.3l0.6,0l0.4-0.1h0.5l0.5-0.1h0.5l0.5,0.1l0.5,0l1.5,0.2
	l0.5,0.2l0.9,0.6l0.2,0.4l0.2,0.8l-0.1,0.8l-0.3,0.5l-0.3,0.4l-0.4,0.3l-0.8,0.2l-0.8-0.1l-0.5-0.2l-0.4-0.3l-0.3-0.4l-0.3-0.5
	l-0.8-0.3l-2.3,0l-0.4,0.3l-0.2,0.5l0.2,1l0.3,0.5l0.4,0.9l0.3,0.4l1.1,1.1l0.7,0.4l0.8,0.3l1,0.3l1.4,0.1l0.8,0L126,39l1.4-0.5
	l0.9-0.5l0.9-0.6l1.3-2.2l0.2-1l0.1-1.2v-0.8L130.8,31.6z M106.4,37.8l-0.2,0.1l0.1-0.2l0.1-0.1L106.4,37.8z M94.4,37.1l-0.2,0.1H94
	l0.2-0.1l0-0.3l0.2,0.1V37.1z M107.6,37.1l-0.3-0.1l-0.1-0.1l0.1-0.4l0.2,0l0,0.2l0.2,0.1L107.6,37.1z M106.2,36.7l0.1-0.3l0.1-0.2
	l0.1,0.3L106.2,36.7z M107,36.5l-0.2,0l0-0.3l0.2,0L107,36.5z M94.8,36.2l0-0.3l0.2,0l0.1,0.3L94.8,36.2z M95.9,36l-0.1,0l0-0.2
	L95.9,36l0.1,0l0.1,0.1L95.9,36z M93.9,36L93.5,36v-0.3h0.3V36z M106.3,35.7l0.4-0.2l0.2,0l0,0.4l-0.3,0L106.3,35.7z M106,36.1h-0.2
	l0-0.5l0.1-0.1l0.2,0.2L106,36.1z M104.2,35.4l0.1-0.4l0.1,0.1l0,0.3l0.1,0.4L104.2,35.4z M94.4,35.5v-0.2l0.2-0.2l0.2-0.2l0.1,0.2
	l0,0.2l-0.1,0.2L94.4,35.5z M94,35l0.1-0.2l0.2,0.3h-0.3L94,35z M96.6,34.6l-0.2-0.1l0.2-0.1V34.6z M96.3,34.4l-0.2-0.1l0.1-0.1
	l0.2,0.1L96.3,34.4L96.3,34.4z M104,35.3v0.2l-0.2-0.1l0.1-0.2l-0.1-0.3l-0.3-0.2l-0.1,0.1l0,0.2l-0.1,0.1l0.1-0.3l0.1-0.1l-0.1-0.2
	l0.4-0.2l0.2,0.4l0.2,0.3l-0.2,0.1L104,35.3z M102.9,34.1L102.9,34.1L102.9,34.1h0.2H102.9z M105.1,34.5l0.1-0.1l0.2,0.2l0.4-0.1
	l0.1-0.3l-0.6-0.2L105.1,34.5z M95.5,34.2L95.3,34l-0.1-0.2l0.3,0.2l0.1-0.1l0.1,0.1l0.1,0.3L95.5,34.2z M106.6,33.9l0.3,0.2
	l0.2-0.2l-0.4-0.2L106.6,33.9z M105.2,33.8l-0.1-0.1l-0.2-0.1l0.2,0.2L105,34L105.2,33.8z M102.5,33.6h0.3v0.3l-0.1,0.1l-0.2-0.2
	L102.5,33.6z M93.8,35.4l-0.2,0.1l-0.1-0.3l0-0.5l0.1-0.2l0-0.3l0.4,0.1l0.1,0.1v-0.1l-0.3-0.3l0.2-0.3l-0.1-0.3l0.2-0.1l0.2-0.2
	h0.2v0.2l0.1,0.1l0.4,0.1l0,0.2l-0.1-0.1l-0.2-0.1l-0.2,0l0.1,0.3l0.3,0.1l0.1-0.1l0,0.2l-0.3,0l-0.4-0.1l-0.1,0.3l0.2,0.1l0.3-0.1
	l0.2,0.1l0.2-0.1l0.1,0.1l0,0.4h-0.3l-0.1,0.2l0-0.2l-0.2-0.2l-0.5,0.3l-0.2,0.3l0.3,0.1L93.8,35.4z M102.1,33.3l-0.1,0.3l-0.3,0.1
	l0-0.1l-0.2-0.1l-0.2-0.2l0.2-0.2l0.2,0l-0.2,0.1l0.2,0.1l0.3-0.2l0.1,0l0,0.1l0.1,0.1L102.1,33.3z M93.4,33.3l0-0.2l0.1-0.3
	l0.2-0.1l0.1,0.2l-0.2,0.3L93.4,33.3L93.4,33.3z M102.2,32.9l0-0.2l-0.1-0.2l0.2-0.1l-0.1,0.1l0.1,0.3L102.2,32.9z M104.6,32.4
	l0,0.3l-0.2-0.1l-0.1,0.2l-0.2,0l0.1-0.3L104.6,32.4z M94,32.4L94,32.6l-0.3,0v-0.2L94,32.4z M94.4,32.1l0,0.2h-0.2l0-0.2H94.4z
	 M107.3,32.1l-0.2,0.1l0.2,0l0.1,0.1l0.1,0.1l0.1-0.1L107.3,32.1z M96.1,32L95.8,32l0.1-0.3L96.1,32z M96.9,31.8h-0.2v-0.2l0.2,0
	L96.9,31.8z M94.9,32.3v-0.2L94.6,32l0.1-0.2l0.1,0.1l0.2-0.1l0.2-0.2l0.1,0.1l-0.1,0.2l0.1,0.2l0,0.4L95,32.5l0.1-0.2L94.9,32.3z
	 M102.5,31.6l0.3-0.1l0-0.2l0.1-0.2l0.1,0.3l-0.3,0.3h-0.3L102.5,31.6z M105.5,31.2l0,0.2h-0.2l-0.1-0.3L105.5,31.2z M94.2,32
	l-0.1-0.1l-0.1,0l-0.1-0.2l0.2-0.1L94,31.5l-0.4-0.1l-0.1-0.3l0.1-0.1l0,0.1l0.2,0.1l0.3-0.2l0.3,0.1l0,0.2l-0.2,0.2l0.3,0.2
	l0.2-0.1L94.2,32z M106,31.2l0.2-0.2l-0.1,0.3l-0.2,0.1L106,31.2z M107.2,33.4l-0.3-0.4l-0.2,0.1l0.2,0l0.2,0.5l0.3,0.4l0.3,0.1
	l0,0.5l-0.2,0.1l-0.1-0.2l-0.2,0.4l-0.1,0.4l0.4-0.1l0.1,0.2l0,0.4l-0.1,0l-0.1-0.3h-0.1l-0.1,0.2v0.2l-0.1,0.2l0.2-0.1l0.1,0.1
	l-0.1,0.2l-0.2-0.2l-0.1-0.7l-0.7-0.3l0.2-0.2h0.2l0.2-0.2l0.1-0.2l-0.2,0l0.1-0.2l-0.1-0.1l-0.5-0.3l0.1,0.2l0.2,0.4l-0.3,0.3
	l-0.2,0.4l-0.1-0.2l-0.2-0.1l-0.4,0.2l-0.1-0.2l0.1-0.1l0.2,0l-0.4-0.2l-0.1-0.2l0,0.5l-0.1-0.1l0.1-0.1l-0.2-0.1l-0.5-0.4l0.1-0.2
	l0.3,0.2l0.3,0.2l0.1-0.2l-0.2-0.2l-0.4-0.2l-0.4,0.3l-0.3-0.2l0.1-0.4l-0.3-0.3l0.2-0.3l-0.3-0.2l-0.2-0.2l-0.1,0.2l0.3,0.4
	l0.1,0.4l-0.3-0.1l0.1-0.3l-0.3-0.3l-0.3-0.2l-0.2-0.2l0.2,0l0.3-0.1h0.2l0.5-0.4l-0.3-0.3l-0.1-0.1l0.1-0.1l0.5,0.6l-0.5,0.4l0.5,0
	l0.1-0.1v0.2l-0.2,0.1l0.3,0.4l-0.1,0.2l0.3,0.3l0.5,0.2l0-0.4l0.2-0.1l-0.1-0.2l-0.3-0.1l0.3-0.1l0.1-0.3l-0.1-0.2l0.2,0l0.1-0.1
	l0.2,0.3v0.4l0.2,0.1l0.1-0.5l0.1-0.3l-0.4,0L105,32l-0.1-0.1l-0.1,0.1l-0.4-0.1l-0.1-0.5l0.2-0.1l0.1,0.2l0-0.2l0.3-0.3l0.1,0.1
	l-0.2,0.1l0.2,0.2l-0.4,0.2l0.1,0.1l0.4-0.1l0.3,0.3l0.2,0.1l0.5-0.4l-0.1-0.1l0.2,0l0.1,0.1l0.1-0.3l0.5,0l-0.1,0.2l-0.2-0.1
	l-0.1,0.1l0,0.2l-0.2,0l-0.4,0.3l0.2,0.4l0.2-0.1l0.2,0.1l0.3-0.2v-0.4l0.2-0.1l0.1,0.2l0.2-0.3l0.1-0.4l0.3-0.1l0.2,0.3l-0.2,0.2
	l0,0.1l0.3,0.2l-0.2,0.3l0.1,0.2l-0.2,0.1l-0.2-0.3l0,0l0,0l0-0.1l-0.1,0v0.3l-0.1,0.3l0.3,0.2l0.2,0.2V33l0.1,0.2l-0.1,0.2l0.1,0.2
	l0.2,0.3l-0.3,0.1h-0.2l-0.2-0.2l0.1-0.1L107.2,33.4z M95.1,31.1l-0.2-0.1l-0.2-0.1l0.1-0.2L95.1,31.1z M105.9,30.8l-0.1-0.3
	l0.1-0.3l0.2,0l0.1,0.4L105.9,30.8z M95.1,30.5L95,30.4l0.2-0.1l0.1-0.1v0.2L95.1,30.5z M105.1,30.7l0.1,0.2l-0.2,0l-0.1-0.1
	l-0.2-0.1l0.1-0.2l0.2-0.3l0.1-0.2h0.1l0,0.2l0.2,0.1l-0.2,0.1l-0.2,0l-0.1-0.1l-0.1,0.1L105.1,30.7z M100,30L100,30l-0.1-0.2
	l0.2,0.1L100,30z M107.6,30.1l0-0.1l0.1-0.2v-0.1l0.1,0.1L107.6,30.1z M93.5,30.1l0.2-0.5l0,0.4L93.5,30.1z M107.1,31.2l-0.3,0.1
	l-0.2-0.4l0.2-0.1l0-0.1l-0.1-0.5l0.2-0.5l0.2,0v0.3L107,30l-0.1,0.1l0.2,0.3l-0.3,0.2l0.2,0.2l0.5-0.3l-0.2-0.1v-0.1l0.2,0.1
	l0.2,0.2l-0.2,0.2l0.1,0.2l0.2,0.3l-0.4,0.1l-0.1-0.4l-0.1,0.1L107.1,31.2z M107.5,29.7l0.1-0.1l0.1,0.1L107.5,29.7L107.5,29.7z
	 M104.8,29.6l0.2,0.2l-0.1,0.1l-0.2-0.2l-0.1-0.1H104.8z M95.6,29.5h-0.2v0.1l0,0.1l-0.1,0L95.2,30L95,30l0.2-0.3l-0.1-0.1l0.1-0.2
	h0.5l0.2,0.1l-0.2,0L95.6,29.5z M106.2,30l-0.2-0.1l-0.2,0.1l-0.4-0.1l-0.3-0.4l0.3-0.1l0.3,0.3l0.1,0.2l0.2-0.3l0.2-0.4l0.2,0.6
	l0.1,0.3l-0.1,0L106.2,30z M107.7,29.2l0,0.2l-0.3-0.4L107.7,29.2z M104.2,29.9L104.2,29.9l0.1-0.3l-0.1-0.4v-0.3l0.1,0.3l0.2,0.2
	v0.7l-0.1,0.3l-0.2-0.3l0.3-0.1L104.2,29.9z M105.7,29.2l-0.1-0.2v-0.2l0.2,0l0.2,0.3l0,0.2l-0.2,0.1l-0.1-0.2l0.1-0.2H105.7z
	 M95.7,29l0.1-0.3l0.2,0.5L95.7,29z M106.6,28.6l-0.1,0.2l-0.1-0.2L106.6,28.6z M107.5,28.4l-0.2,0.2l-0.3,0.1l0.1,0.3l-0.3,0.2
	h-0.1l0.1-0.2h0.1l-0.2-0.3l0.3-0.2L107.5,28.4z M106.2,29l-0.3-0.3l-0.2-0.3h-0.2l0,0.2l-0.3-0.2l0.1-0.3l-0.1-0.2l0-0.1l0.2,0v0.2
	l0.1,0.2l0.3,0l0.2,0.2l0.1,0.1l-0.1,0.2h0.4L106.2,29z M104.6,27.8l0.2,0.1l-0.1,0.2l-0.2,0.1h-0.2V28L104.6,27.8z M93.5,29.2v-0.9
	l-0.1-0.1l0-0.2l0.2-0.2l0.1,0.1l-0.1,0.2l0.2-0.1l0.1,0.2l-0.3,0.2l0.3,0.7l-0.3,0.2v0.2l-0.2-0.1l-0.2-0.2H93.5z M106.4,27.5
	l0.1,0l0.1,0.2l0.2,0.1l-0.2,0.1l-0.2-0.1V27.5z M106.1,27.3l-0.1,0.1l0.3,0.4l-0.1,0l-0.2-0.1l-0.3-0.1l0.1-0.2l0.2-0.3L106.1,27.3
	z M96.4,27h-0.2l-0.2-0.1l0.2-0.1L96.4,27z M95.3,27l0.2-0.1l0.2-0.2l0,0.2L95.5,27l-0.3,0.2L95.3,27z M94.8,26.9l-0.2-0.1l0.1-0.1
	l0.1-0.2l0.2,0.1L94.8,26.9z M94,26.5l-0.2-0.1v0.2l0.3,0.1L94,26.5z M94.6,26l0.2-0.2l-0.1,0.4L94.4,26L94.6,26z M93.9,27.3
	l-0.1-0.2l-0.2,0.2l-0.2-0.1l0.2-0.2l-0.1-0.2l0.4,0.1l-0.2-0.3l-0.1-0.3l-0.2,0l0.1-0.3L93.4,26l0.1-0.1l0.2-0.2l-0.3-0.1v-0.4
	l0.5-0.2l0.2-0.1V25l-0.1,0.2l-0.4,0.1l0.6,0.1L94,25.5l0.3,0.3L94,26l-0.2,0.1l0.3,0.3l0.2,0.4L94.1,27l0.2,0.6L94,27.8l0.1-0.3
	L93.9,27.3z M105.9,25v0.1l0,0.1l-0.2,0l-0.2-0.2l-0.2-0.1L105,25l0.1,0.3l-0.2-0.2L105,25l-0.1-0.2l0.3-0.1l0.3,0.1l0.2,0.1
	L105.9,25z M94.1,24.9L94.1,24.9l0-0.1L94.1,24.9z M94.8,25.2l0.2-0.3l0.3-0.2l-0.1,0.4L94.8,25.2z M105,24.3l-0.2,0.3l-0.1-0.1
	l0-0.3L105,24.3z M96.8,24.4l-0.3-0.1l0-0.2l0-0.1l0.2,0.1l0.3,0.1L96.8,24.4z M95.7,24.1l0.1,0.4l0.1,0.1l0.1-0.2l0.2,0.1l0.1,0.2
	l-0.3,0.2l-0.7-0.7l-0.1-0.2l0.2,0.2L95.7,24.1z M106.2,23.8l0.2,0.2l-0.2,0.1l-0.1-0.2L106.2,23.8z M104.5,23.7l0.2-0.2l0.2,0.2
	l-0.2-0.1H104.5z M95.1,23.6l0.1-0.1l0.2,0.2l-0.1,0.2l-0.1-0.1L95.1,23.6L95.1,23.6z M93.4,24l0-0.3l0-0.2l0.2-0.1l0.3,0.1l0.3,0.3
	l0,0.3l0.1,0.2l0.3-0.2l0,0.3l-0.2,0.3l0-0.2l-0.1-0.2l-0.2-0.1L94,24.5l-0.1-0.1l-0.2-0.1l-0.2,0.1l0.1,0.1l0.1,0.1l-0.1-0.1
	l-0.2-0.2l0.2,0L93.4,24z M106.7,23.4l0.1,0.1l0-0.2l0.1-0.2l0,0.1l0.1,0.1l-0.1,0l-0.3,0.2l-0.1-0.1L106.7,23.4z M93.5,22.8
	l0.3,0.3l0.3,0.1L94,23.4l-0.3-0.1l-0.1-0.2l-0.1,0.2l-0.3,0.1l0-0.2L93.5,22.8z M105.2,22.9l0.3-0.3v-0.1l0.1,0v0.1l-0.3,0.3
	l-0.2,0.3L105.2,22.9z M104.5,22.4l0.1,0.1l0.2,0.1l0,0.3h-0.2l-0.1-0.2l0.1-0.2L104.5,22.4l-0.1-0.1L104.5,22.4z M104.7,22.1l0.2,0
	v0.3l-0.2-0.1L104.7,22.1z M104.4,22l0,0.3l-0.3,0L104.4,22z M94,21.9l0.2,0.3l0.2,0.2l0.1-0.1l-0.1-0.2l0.2-0.1l0.2,0.2l-0.1,0.4
	l0.2,0.1l0.2-0.2h0.4l-0.2,0.2L95,23l-0.2,0.1l0.1,0.2l-0.3,0.1l-0.2-0.6l-0.3-0.4l-0.2,0.1L94,22.7v0.2l-0.1-0.1l-0.2-0.2l-0.1-0.4
	L94,21.9z M108.3,30.4l0.1-0.6l-0.1-3.1l0.1-1l-0.1-0.5v-1l0.1-0.5l-0.1-0.8l0.1-1.3l-0.3-0.5l-0.6-0.3l-0.5-0.1h-0.5L106,21
	l-0.5-0.1l-0.5,0.1l-0.5,0l-0.6,0.3l-0.3,0.5l0,4.6l0.1,0.5v0.5l-0.1,0.5l0,1l-0.1,0.4l-0.4-0.1l-1.1-1.1l-0.4-0.3l-0.9-0.9
	l-0.4-0.3l-0.3-0.4l-0.5-0.6L98.7,25l-0.3-0.4L98,24.3l-0.3-0.4l-0.4-0.3l-0.3-0.4l-1.4-1.4l-1-0.7l-0.7-0.2l-0.6,0.3l-0.3,0.5
	l0.1,3.6l-0.1,0.5l0.1,1l-0.1,0.5l0,0.5l-0.1,0.5l0.1,3.6l-0.1,0.5v0.5l-0.1,0.6v0.5l0.1,0.5l0,1L93,36l-0.1,1l0.1,0.5V38l0.2,0.6
	l0.5,0.3l0.9-0.1l1.3,0.1l0.5-0.1l0.6,0.1l0.5-0.3l0.2-0.5l-0.1-0.5l0.1-6.2l-0.1-0.5l0.3-0.3l0.3,0.1l3.6,3.6l0.4,0.3l2.5,2.5
	l0.3,0.4l0.4,0.3l0.3,0.4l0.3,0.3l0.7,0.3l0.7,0.2l0.6-0.3l0.2-0.5l0.1-6.9L108.3,30.4z M75,35.8L75,35.8L75,35.8L75,35.8z
	 M74.9,35.7l0.1-0.1L74.9,35.7L74.9,35.7z M74.6,35.7l-0.2,0.2l-0.1-0.2l0.3-0.2L74.6,35.7z M87.5,34.8v-0.2l0.1,0l0,0.2L87.5,34.8z
	 M88,34.6l0.1-0.3v0.1l0.1,0.2L88,34.6z M76.4,34.4l-0.3-0.1l0.2,0l0.3-0.1l0.2,0.1H76.4z M73.5,34.3l0-0.2h0.2l0.1,0.2L73.5,34.3z
	 M87.6,34l-0.1-0.1l0.2-0.1l0.1,0.1L87.6,34z M75.2,34.1l-0.3-0.2l0-0.1l0.5,0.1l0,0.3L75.2,34.1z M87.2,33.9L87,34l0-0.2l0.2,0
	V33.9z M84.9,33.9l0-0.3l0.1,0.1l0,0.2L84.9,33.9z M88.6,34l-0.2-0.1l-0.2,0l-0.1-0.1l0.2-0.2l0.3-0.2l0.1,0.3L88.6,34z M86.6,33.8
	l-0.2-0.1v-0.2l0.2,0.1L86.6,33.8z M85.9,33.5h-0.3l0.1-0.2l0.3,0.1L85.9,33.5z M75.4,33.4l-0.1,0.2l-0.2,0l0.1-0.2L75.4,33.4z
	 M74.5,33.5l-0.2,0.1l-0.2,0.3l-0.2-0.2l-0.1,0.1l-0.1,0l-0.2,0l-0.2-0.3l0.1-0.1l0.2,0.2l0.2,0.1l0.3-0.1L74.5,33.5l0.1-0.1
	L74.5,33.5z M75.5,33.2l-0.1-0.1l0.3,0.1H75.5z M75.8,33.5l0.2-0.2l0.1,0l0.1-0.2l0.2,0.2l-0.2,0.1l-0.1,0.1l0.2,0.2l-0.1,0.1
	l-0.2,0L75.8,33.5z M72.9,33.4l-0.1,0l0-0.1L72.6,33L73,33l0.1,0.2L72.9,33.4z M73.7,32.9l0.1,0.1l-0.2,0.1L73.4,33L73.7,32.9z
	 M76.2,32.7h0.3l0,0.2l-0.3,0V32.7z M85.5,32.7l-0.2-0.1l0.2-0.2l0.1,0.2L85.5,32.7z M74.8,32.5l0.2-0.1l0,0.2l-0.2,0.1V32.5z
	 M73.2,32.6l-0.2,0.1l0.1-0.1l0.2-0.2L73.2,32.6z M72.4,32.4l0-0.1l0.2,0.1l0.1,0.3l0.1,0.1l-0.1-0.1l-0.1-0.2L72.4,32.4z M74.2,32
	l-0.1-0.1L74,31.9l0,0.2L74.2,32z M88.3,32l0.4,0.1l0.1-0.2l-0.4-0.2L88.3,32z M87.4,31.6l0.2,0.1l0.1-0.2l-0.2-0.1L87.4,31.6z
	 M73.3,31.5l0.1-0.2l0.1,0.2l-0.2,0.2V31.5z M88.5,31.4l-0.1-0.2l-0.2,0.1l0,0.2L88.5,31.4z M88.7,31.1l-0.2,0.1l0.3,0.1L88.7,31.1z
	 M87.6,31.1l0,0.2l0.2,0l0.2-0.1l0-0.2L87.6,31.1z M74.3,32.2l-0.2-0.1l-0.3,0.2v0.3l-0.1,0.1l-0.1-0.5l0.1-0.3l-0.1-0.1l0.2,0.2
	l0.2-0.1h0l0.1,0.1l0.1-0.4l0.5-0.3l0.1-0.4l0.1,0.1l0.3-0.2l0.2,0.3l-0.4,0.3l-0.2,0.2l-0.2,0.1l-0.2,0.1l0.5,0.1l0.4,0.5l0.2-0.2
	L75.3,32l0.2-0.2l0.1-0.2l-0.1-0.3l0.1-0.3l0.3,0.1l0.2,0.2l-0.3,0.2l0.2,0.2l0.3,0.2L76,32L75.8,32l-0.2,0.2l0.2,0.2l0.3-0.1v0.2
	l-0.2,0.1L75.3,33L75.1,33v0.2l-0.2-0.1l0.2-0.3l0.3-0.2l-0.3-0.2l-0.2-0.2l-0.4-0.1l0,0.4L74.3,32.2z M86.1,30.5l0.2,0.1v0.1
	l-0.1-0.1l-0.2,0.2l-0.1-0.2L86.1,30.5z M75.5,30.5v0.2l-0.2-0.1L75.5,30.5z M86.9,30.4l0.1,0.3l-0.3-0.1l-0.1-0.3L86.9,30.4z
	 M86.3,30.1v0.2h-0.2l0-0.2L86.3,30.1z M89,30.1L88.8,30l-0.1,0.1l0,0.2l0.2,0L89,30.1z M74.7,30.5l-0.1,0.1l-0.1-0.2l0.2-0.2
	l0.1-0.2l0.3,0v0.3h-0.4L74.7,30.5z M75.5,29.6l0.3,0.1l-0.3,0.2l0-0.2L75.5,29.6z M75,29.6l-0.2-0.1l0.1-0.1L75,29.6l0.1,0.1
	L75,29.6z M72.6,29.6l-0.2,0.2v-0.3h0.2L72.6,29.6z M86.3,29.4l0.2,0l-0.1,0.2l-0.2,0.1l0.1,0.2l0.2-0.2l0.1,0.2l-0.6-0.1L86,29.4
	H86.3z M73.2,32l-0.1-0.1l0.2-0.1l-0.1-0.1l-0.5,0l-0.2-0.6l0.2-0.3l0.1,0l0.1-0.2l-0.3-0.1l-0.3,0.1l0-0.1l0.2-0.1l-0.1-0.2h-0.2
	l0.3-0.3h0.5l-0.1,0.2l-0.2,0v0.2l0.3,0.2l0.3-0.1l0.2-0.3l0.4,0.1l0.2-0.3l-0.1-0.3L73.5,30l-0.3-0.4l0.2-0.3l0.1,0.1l0.3,0.1
	l0.2,0.2l0.1,0.5l0.3,0.3l0,0.3L74,30.7l-0.2-0.2l-0.4-0.1l-0.2,0.3L73,30.8L72.9,31l0.1,0.2l-0.3,0.1v0.2h0.3l0.4-0.3l0.2-0.3
	l0.3,0.1l0.3,0.1L74,31.2l-0.4-0.1l-0.3,0.2l-0.1,0.1l-0.1,0.3l0.3,0.1l-0.1,0.1L73.2,32z M89.1,32.2l0.4,0.1l-0.3,0.3L88.8,33
	l-0.1,0.2l0.2,0.2l0,0.1l-0.1,0.1l-0.3-0.3l-0.2-0.1l-0.2,0.1l-0.2-0.2l0.2-0.2l0.2,0.1l0.1-0.1l0-0.1l0.1-0.3l-0.3,0.1l0.1-0.2
	L88,32.1l-0.4,0.1l0.1,0l0.3,0.1l-0.3,0.4l-0.2,0.1l0.2,0.1l-0.4,0.1l-0.6,0L86.6,33l-0.2-0.1h0.2l0.1-0.1h0.2l0.1-0.2v-0.2l0.3,0.1
	l0.5-0.2l0-0.3l-0.1,0.2l-0.2,0.2l0.1-0.3l-0.1-0.3L86.7,32l0.1,0.4l-0.2,0.2l-0.2,0.1l-0.3-0.1l-0.3-0.3v-0.1l0.3,0l0.2,0.4
	l0.1-0.2l0-0.2L86,31.9l-0.4,0.1l-0.1-0.2l0.4,0.1h0.5l0.4,0.1l0.1-0.2l-0.1-0.2l-0.2,0l-0.2,0.1l-0.1-0.2l0.2-0.2l-0.1-0.1
	l-0.2,0.1l0.2-0.3l0.4,0.3l0.4-0.3l-0.1-0.3v-0.3h-0.4l-0.1-0.1v-0.1l0.4-0.1l0.3-0.3l0.1-0.1l0.2,0l-0.1-0.2l0.1-0.2l0.2,0l0,0.3
	l-0.1,0.1l0.2,0.4L88,29.8L87.8,30l-0.3,0.3l0.4,0.2l0.5-0.2l0.1-0.3l0.1-0.1l0.3,0l0.1-0.2l0.2-0.3l0.3,0l-0.1,0.3l-0.3,0.2l0,0.2
	l0.3,0.1l-0.2,0.3h-0.3l-0.2,0.4l0.4,0.5l0.3,0.4l-0.3,0.2l-0.2-0.2L89,31.5L89,31.3l-0.2,0.3L89.1,32.2z M75.2,29.5l0-0.3l0.2,0.1
	l0.4-0.2v0.2l-0.3,0.2l0,0.1L75.2,29.5z M74.8,29.1l-0.1,0V29l0.1-0.1L74.8,29.1z M87.7,28.8L87.7,28.8l-0.1-0.1L87.7,28.8z
	 M86.9,29L86.7,29l-0.2-0.2v-0.1l0.1,0l0.2,0.1L86.9,29z M73.6,28.5l0.1,0.2h-0.1V28.5z M74.5,28.9L74.3,29l-0.1,0l0.1-0.3l0.2-0.3
	l0.3,0v0.2L74.5,28.9z M87.7,28.8l-0.1-0.2l0.2-0.2l0.2,0.3L87.7,28.8z M75.8,28.4l-0.2-0.2l0.2-0.1v0.2L75.8,28.4z M73.2,27.8h-0.2
	L73,27.9l0.2,0.1L73.2,27.8z M86.6,27.9l-0.2-0.1l-0.1-0.2l0.2,0.1L86.6,27.9z M72.3,28.5l0-0.2l0.2-0.1l0.2,0l-0.1-0.5l0.6-0.1
	l0.2,0.3l-0.2,0.3l0.4,0.1l0.2,0.2l0.2,0.1l-0.3,0.1l-0.3-0.2l0-0.2l-0.4,0.2L73,28.7l0.3,0l0,0.1l0.1,0.2L73,29l-0.5,0.3L72.5,29
	l-0.2-0.1l0.3-0.1l0-0.2L72.3,28.5z M89.3,28.4l0.1,0.1l-0.3,0.2l0,0.2l0.1,0.2l-0.2,0.1L89,29l-0.2-0.1l0.1,0.3l-0.4,0.1l-0.2-0.2
	l0.1-0.2l-0.1-0.2l0.3,0.1l0.4-0.2l0.2-0.1L89,28.4l-0.3,0l-0.2,0l-0.3-0.1l-0.2-0.1L87.9,28l-0.2-0.1L87.6,28l-0.4-0.1v-0.3
	L87,27.6l0.2-0.1l0.2,0.3l0.1,0.2l0.2-0.1l0.1-0.2l0.1-0.3l0.2,0.1L88,27.9l0.4,0.1l0.2-0.2l0.2,0.1l-0.1,0.4l0.1,0.1l0.3-0.1
	L89.3,28.4z M87.3,27.2v-0.3l0.2,0.1l0.2,0.3l0,0.3l-0.1-0.2L87.3,27.2z M74.9,27.4l-0.2,0.1l-0.2-0.2L74.5,27l0.3-0.1l0.2,0.3
	l0.3,0l0.1-0.1l0.1,0.1l-0.2,0v0.2L74.9,27.4z M76.1,26.9l0,0.1L75.9,27L76,27L76.1,26.9L76.1,26.9z M88.2,26.8L88.1,27h-0.3
	l0.1-0.2L88.2,26.8z M75.3,26.8l-0.1,0.1l0-0.2l0.1-0.1L75.3,26.8z M73,26.9l0.6,0.2l0.2-0.2l0-0.3h-0.2l-0.2,0.1l0.1,0.2l-0.1,0.1
	l-0.2-0.2l-0.2,0L73,26.9z M88.8,26.7v0.2l-0.1,0.1L88.6,27l0.2,0l-0.3-0.2l-0.3-0.3h0.3L88.8,26.7z M73.2,26.5l0-0.1l-0.4,0.1
	l0.1,0.1L73.2,26.5z M86.8,26.6l0.2-0.2l0.1,0l0.4-0.1l0.3,0.3l-0.1-0.1l-0.3-0.1L87,26.6L86.7,27L86.8,26.6z M87.1,25.9h0.3
	L87.2,26l-0.2,0L87.1,25.9z M86.1,26l0.1-0.1l0.2,0l-0.1,0.2l-0.3,0L86.1,26z M73.8,26.4l0.3-0.3l-0.3-0.2l-0.2,0l-0.1,0.2l0.2,0.1
	l-0.2,0.2L73.8,26.4z M88,25.8l0-0.2l0.1,0.2L88,25.9L88,25.8z M84.6,25.6l0.2-0.1l0,0.2h-0.2L84.6,25.6z M75.7,25.5l0.1,0.1
	l-0.1,0.2l-0.1-0.2v-0.2L75.7,25.5z M87.6,25.3l0.2,0.1l-0.2,0.1h-0.1L87.6,25.3z M84.9,32.1l-0.3,0.5l-0.2,0.4l-0.4,0.4l-1.2,0.8
	l-0.5,0.1l-0.4,0.2l-0.5,0.1h-1.4l-0.6-0.1l-0.9-0.4l-0.4-0.2l-0.7-0.6l-0.3-0.4l-0.4-0.5l-0.1-0.4l-0.2-0.5l-0.2-0.9v-1.6l0.1-0.5
	l0.1-0.5l0.2-0.5l0.2-0.5l0.6-0.8l1.3-0.9l0.3-0.1l1-0.3l0.7-0.1l1.2,0.2l0.5,0.1l0.5,0.2l0.8,0.6l1,1l0.3,1l0.2,0.5l0.1,0.5
	l-0.1,1.6l-0.2,0.9L84.9,32.1z M86.6,25l0.1,0.1l-0.2,0.2L86.6,25z M75.7,25.1l-0.2,0.1l0-0.2l0.2-0.1V25.1z M74.6,25.4l0.5-0.3
	l0.1-0.2l0.1,0l-0.2,0.4L75,25.5l-0.2,0.2l0.2,0.1l0.2,0.1l0.1,0.2l0.2-0.1l-0.1,0.2L75,26.4l-0.1-0.2l0-0.3l-0.6-0.3l-0.2-0.3v-0.2
	l0.1,0.1l-0.1,0.1L74.6,25.4z M72.8,26.2L73,26l0.2-0.2l0-0.3l0.2,0l0.1-0.2l-0.2-0.2l0.3-0.2l0.3-0.1l0,0.2l0.1,0.6l0.5,0.6
	l0.1,0.3l-0.3,0.4l-0.4,0.2l0.2,0.1l0.2,0.2l-0.2,0.2l0,0.2h-0.3l-0.5-0.3l-0.5-0.1l-0.1-0.2l-0.2,0.1v-0.2l-0.1-0.6L72.8,26.2z
	 M76.1,24.8l0.2-0.1l0.2-0.2l-0.1,0.3L76.1,24.8z M77.1,24.3L77,24.4l-0.2-0.1l0.1-0.1L77.1,24.3z M84,24.4l-0.2-0.2l0-0.2l0.2,0.1
	L84,24.4z M76.2,24l0.2-0.2l0.1,0.1l-0.1,0.1H76L76.2,24z M74.6,23.9h0.2l0.1,0.1l0.3-0.2l0.3-0.1l-0.1-0.1l-0.3,0L75,23.5l0.3-0.2
	l0.2,0.2l0,0.2l0.2,0.1l-0.1,0.2l-0.2-0.1L75.4,24l0.2,0.2l0.4,0.2l0,0.2l-0.4,0.2l-0.2-0.2l0.2,0v-0.2l-0.3-0.1L75,24.4v-0.2
	l0.1-0.2h-0.4l0.1,0.6L74.5,25L74.3,25L74,24.3L74.6,23.9z M77.7,23.2l0,0.2l-0.2,0.1l0-0.2L77.7,23.2z M82.5,23.1l0.2,0l0,0.2
	l-0.2,0V23.1z M83.8,23l0.1,0.2l0.2,0l0,0.2l-0.4,0.1l-0.1-0.3L83.8,23z M81.2,23l-0.1,0.1l-0.1-0.1l0.1-0.2L81.2,23z M84.8,22.9
	l0.1,0.1l-0.2,0l0-0.1L84.8,22.9z M79.7,22.7h0.1l-0.1,0.1l-0.2-0.1L79.7,22.7z M76.5,23l0.1-0.1l0.2-0.2l0.1,0.1l-0.2,0.2l-0.3,0.1
	L76.5,23z M82.1,22.7v0.2l-0.2,0l0-0.1L82.1,22.7z M77.5,22.4l0.3,0.1l-0.1,0.2l-0.3-0.1L77.5,22.4z M77.3,22.1l0,0.2l-0.2,0.1
	l0-0.2L77.3,22.1z M78.4,22.1l0.3,0.2l-0.1,0.2l-0.4-0.2L78.2,22L78.4,22.1z M83.7,21.9l0.3,0.2l0.3,0.2l-0.1,0.1l-0.2,0.1l-0.3-0.2
	V21.9z M79.7,21.9l0.2,0.1l-0.2,0l-0.1-0.1L79.7,21.9z M81.2,21.8L81,21.9V22L81,21.9L81.2,21.8z M82.7,21.8l0.3-0.1l0,0.3l0.2,0.2
	l0.1,0.2l-0.2-0.1l-0.2-0.1l-0.2,0.1l-0.2-0.1L82.7,21.8z M90,28.6l-0.2-1l-0.6-1.9l-0.5-0.9l-0.6-0.8l-0.7-0.8l-0.7-0.6l-0.6-0.4
	l-0.8-0.3L85,21.5l-2-0.6l-1.5-0.3l-0.7,0L78.2,21l-1.9,0.7L75.9,22l-0.5,0.2l-0.9,0.6l-1.2,1.5l-0.8,1.4l-0.4,1l-0.4,2l-0.1,2.1
	l0.1,0.5l0.1,0.5l0.1,0.5l0.2,1l1.2,2.3l0.3,0.3l0.3,0.4l0.4,0.4l0.3,0.3l0.8,0.7l2,1l0.7,0.3l0.6,0.1l0.9,0.2l0.5,0.1l1.4,0
	l1.5-0.2l1.9-0.6l0.8-0.5l0.4-0.3l0.5-0.2l0.7-0.6l0.3-0.5l0.4-0.4l1.1-1.7l0.4-1l0.2-1l0-0.5l0.1-0.5l0-0.5l0.1-0.7L90,28.6z
	 M81,17.8l-0.2,0v-0.2H81V17.8z M81.8,17.8L81.8,17.8l0,0.1l0,0.2L81.4,18l0.1-0.1l-0.2,0v-0.2l0.2,0l0.1,0.2l0.1,0.1L81.8,17.8
	L81.8,17.8z M82.2,17.9L82.2,17.9l-0.2-0.3v-0.2h0.1l0,0.2l0.1,0.1L82.2,17.9z M81.8,17.5L81.8,17.5L81.8,17.5L81.8,17.5L81.8,17.5z
	 M79.7,17.5h0.2l-0.1,0.2h-0.2L79.7,17.5z M80.7,17.5l-0.1,0.3l-0.3-0.1l-0.1-0.4l0.2-0.1l0.3,0l0.2,0l-0.3,0.1l-0.2,0.1L80.7,17.5z
	 M81.7,17L81.7,17l0.1,0.1h-0.1V17z M81.3,17.2v-0.4h0.3l0,0.4H81.3z M80.1,16.7l0.2,0.1l0.1,0.1l-0.2,0L80.1,16.7L80.1,16.7z
	 M83.2,16.5L83,16.4l-0.2,0.2l0.2,0L83.2,16.5z M80.3,16.4l0,0.1h-0.2l0-0.1H80.3z M83,16.2L83,16.2L83,16.2L83,16.2z M80.8,16.1
	l0,0.1h-0.2l0-0.1H80.8z M80.6,16.4l0.3,0.3l0.1-0.3v-0.1l0.2-0.2l0.2-0.1l0.1-0.1l0.1-0.1v0.1l-0.2,0.1l0.1,0.1v0.2l-0.2,0.3
	l-0.2,0.1l-0.4,0l-0.2-0.3L80.6,16.4z M82.3,16.3l0.4-0.1l-0.1-0.3L82.5,16l-0.2,0l-0.2,0.3l0,0.3l0.2,0L82.3,16.3z M81.4,15.8
	l-0.2,0l-0.1-0.1l0.2,0L81.4,15.8z M82.9,15.5l0,0.2l0.2-0.1L82.9,15.5z M83.5,15.2L83.5,15.2l0.1,0.1L83.5,15.2L83.5,15.2z
	 M81.7,15.5l0.1,0l0.1,0.1l0.3,0.1l0.1-0.2l-0.3-0.1l-0.3-0.1l0.1-0.2l0.2,0.1V15l0.2-0.1l0.2,0.1l0.1,0.1l0.6-0.1l0.3,0.5l0.3,0.1
	l0.1,0.1l0.1-0.1l0.1-0.1l-0.1,0.1l-0.2,0.1l0.1,0.1h-0.2l-0.3,0.2l-0.1-0.3l-0.1,0.1l0.2,0.3l0.1,0.3L83,16.8l-0.2,0.2L82.6,17
	l0,0.3l-0.1-0.1l-0.2-0.1l0.1-0.2l-0.3-0.1l-0.3-0.4v-0.3l-0.1,0l0.1-0.3L81.7,15.5z M81,15l0.2-0.1l0.3-0.3l0.1,0.2L81.4,15l0,0.1
	l0.1,0.2l-0.2,0l-0.1-0.1l-0.1,0.2h-0.2l-0.1-0.2L81,15z M79.9,18.6l0.5-0.1l0.5,0.1l0.2,0l0.7-0.1l0.5-0.2l0.3-0.2l0.2-0.3l1.7-1.9
	l0.2-0.2l0.2-0.5l-0.3-0.3l-1.2-0.4l-0.3,0L81.2,14l-0.4,0.2l-1,2.3l-0.2,0.3l-0.1,0.3l-0.2,0.3l-0.1,0.3L79.1,18l-0.2,0.5l0.6,0.2
	H79.9z M62.3,38.3L62,38.4l0-0.2l0.3-0.1L62.3,38.3z M63.6,38.2l-0.1-0.4l0.1,0.1h0.2l0.1,0.1L63.6,38.2z M62.3,37.6h-0.1H62.3v-0.2
	l0.1,0l0,0.2L62.3,37.6z M61.8,37.9h-0.3l-0.1-0.4l0.2-0.4l0.4-0.1l0.2-0.2l0.2,0.1l-0.3,0.2l0,0.3l-0.2-0.2l-0.2-0.1l-0.1,0.3
	L61.8,37.9z M62.5,36.5l-0.2,0h-0.2l-0.2,0l-0.1,0.2l-0.1,0.1l-0.1-0.3l-0.1-0.1l0.1-0.1l0.4,0.1l0.3,0.2l0.1-0.2l-0.1-0.2l0.3,0.2
	l0.3,0l0,0.1L62.5,36.5z M64.2,36.3l0-0.2L64,36.1l-0.1-0.2l0.2,0l0.1,0.3L64.2,36.3z M63.9,35.5l0.1-0.1l0.1,0.1l0.1,0.1l-0.1,0.1
	L63.9,35.5z M62.7,36.1l0-0.2l-0.1,0l-0.2,0.1v-0.1l0.3-0.1l-0.1-0.2l0.1-0.1l0,0.2l0,0.3l0.2,0.2L62.7,36.1z M65.9,35.4l-0.2-0.1
	l0.1-0.1l0.2,0.1L65.9,35.4z M63.2,36l0-0.1l0.1-0.3l0-0.3l0.1-0.1l0.1,0.4l-0.2,0.3L63.2,36z M66.8,35.2l-0.1-0.2l0.2,0.1l0.1,0.1
	H66.8z M65,34.7l-0.2,0.4l-0.4-0.1l0.3-0.1l0.2-0.4l0.2-0.2h0.1L65,34.7z M65.1,34.3l0-0.2l0.2,0l0.2-0.3l0.2,0.1l0,0.2l-0.3,0
	L65.1,34.3z M66.5,34l-0.1-0.1l0.1-0.1l0.2,0.1l0.1,0.1L66.5,34z M67.1,33h-0.3l-0.2,0.2v0.2l-0.1-0.1l0.1-0.2l0.2-0.2l0.3-0.1
	l0.2,0.1L67.1,33z M65.9,32.7l-0.1-0.2l0.2-0.1l0.1,0.2L65.9,32.7z M66.9,32.3l-0.2-0.2l0.3,0l0.2,0.3L66.9,32.3z M64.1,32l0.2,0.2
	l0.1-0.2l-0.2-0.1L64.1,32z M66.2,31.9L66.1,32l-0.2,0.2l-0.3,0l-0.1,0.4l-0.4,0L65,32.5l-0.1-0.1l-0.3,0.2v0.2l0.1,0.2L64.7,33
	l-0.2-0.1l0.1-0.2l-0.2,0.1L64.2,33l0.2,0.2l-0.1,0.2L64,33.5l0.1,0.1l0.2-0.1h0.3l0.4-0.4l0.4-0.3l0.1,0.2l0,0.2l-0.1,0.3L65,33.5
	l-0.5,0.2V34l-0.3-0.1l-0.4-0.2l0-0.3l0.3-0.1l-0.2-0.4l-0.2-0.4l0.2-0.3l0.1,0.1l-0.1,0.3l0.1,0.1l0.2-0.2l-0.1-0.3l-0.3-0.1
	l-0.2-0.3l0.2-0.1l0.2,0.2h0.2l0.2-0.2l0.2-0.1l-0.1-0.2l-0.1-0.1l0.1-0.3l0.4-0.2L65,31l0,0.2l0.6-0.1H66l0.1,0.1l-0.2,0.1
	l-0.4-0.1l-0.3,0l0.1,0.2l-0.3-0.1l-0.1,0.4l0.4,0.1l0,0.1l-0.3,0l-0.3-0.1L64.7,32l0.2,0.2l0.3-0.1h0.5l0.3,0l-0.2-0.2l0.2,0.1
	l0.2-0.2l0.2,0.1L66.2,31.9z M65.6,30.9l-0.2,0l-0.1-0.1h0.2L65.6,30.9z M66.3,31h0.2l0.1-0.2l0.1-0.1l-0.1,0.2l-0.2,0.2L66.3,31
	L66.3,31z M63.6,31.1l0.1-0.4l0.2,0l0.3-0.2l0.1,0.2L64,31.2l-0.4,0.3l-0.2,0h0.1L63.6,31.1z M64.2,30.3l0.3-0.1l0.2,0.2l0.2,0.1
	l-0.1-0.1l-0.1,0h-0.3L64.2,30.3z M64.8,30L65,30l0.1,0.2l-0.2-0.1L64.8,30z M64.1,30.1h-0.4v-0.3l0.3,0L64.1,30.1z M66.5,29.8
	l-0.2-0.2l0.3-0.1l0.3,0.2l-0.1,0.1L66.5,29.8z M65.4,30.5l0-0.1l-0.1-0.1l0.1-0.2V30l-0.1-0.1l-0.2,0v-0.1l0.3-0.1l0.4-0.1
	l-0.1,0.3l0.2,0.5L65.4,30.5z M63.9,29.4l-0.1-0.1L63.9,29.4l0.2,0L63.9,29.4z M66.3,29.1l0.2,0.1l-0.3,0l-0.3-0.1V29L66.3,29.1z
	 M64.9,29.6l-0.4,0.1l-0.1-0.2l-0.1-0.2l-0.3-0.2l0.1-0.3l0.1,0.1l0.2,0l0.3-0.2l0.1,0.2l-0.2,0.2l0,0.1l0.2,0l0.3-0.1l0.1,0.1
	L64.9,29.6z M65.9,28.9L65.9,28.9l0.2-0.1l0,0.1L65.9,28.9z M65.5,28.6l0.1,0.2l-0.3-0.1l-0.2-0.2L65.5,28.6z M63.8,28.5l-0.1,0.1
	l-0.2-0.1l0.2-0.3l0.1,0.1l-0.1,0.1L63.8,28.5z M64.6,27.9l0.2-0.1l0.1,0.2l-0.2,0.1L64.6,27.9z M64.1,27.9l0.1-0.2l0.1-0.2h0.1
	l-0.1,0.2L64.2,28L64.1,27.9z M66.6,27.2l-0.1,0.1l0.1,0.2l-0.3-0.1l-0.3-0.2l-0.2,0.1v0.2l-0.1,0V28l0,0.2l-0.2,0.2l-0.1-0.2
	l0.1-0.2l-0.1-0.1l-0.1-0.2l0.2-0.2l0.2-0.2l-0.1-0.2l0.3-0.1H66.6z M66.5,26.8l0.1,0.1l0.1,0.1h-0.2l-0.1-0.1L66.5,26.8z
	 M65.1,26.6L65,26.8l-0.2,0.1l0.1-0.3H65.1L65.1,26.6z M65.1,25.7l0,0.2L65,25.8l0-0.2L65.1,25.7z M65.2,24.8L65.1,25L64.9,25
	l0.1-0.2L65.2,24.8z M66,24.8l-0.1-0.1l0.2-0.1l0.1,0.1L66,24.8z M67.1,24.7l-0.2,0l-0.2-0.2l0.2,0L67.1,24.7z M66.6,24.4l0.1,0.1
	l-0.2-0.1L66.6,24.4z M63.6,24.3l-0.2-0.1l-0.1,0.1l0.2,0.2L63.6,24.3z M65.2,24.6l0-0.1l0.2-0.1l0.1-0.2l0.1,0.1l-0.1,0.4H65.2z
	 M66.9,24H67v0.2h-0.2V24z M64.3,24.6l0-0.3l0.3-0.1L64.5,24l-0.2,0.1l-0.4,0l0.1-0.3l-0.1-0.1l-0.2,0.1l0.1,0.4l0,0.5l0.1,0.1
	l0.2-0.1l0.1-0.1L64.3,24.6z M62,23.5l0.3,0l-0.4-0.2L62,23.5z M65.1,23.3l-0.2,0l-0.1-0.2h0.2L65.1,23.3z M63.4,23.1l0,0.1l0.4-0.2
	L63.6,23L63.4,23.1z M66.7,23.1l-0.2,0.1V23l0.1-0.2l0.1,0.1L66.7,23.1z M67.5,22.8l0.2-0.1l0,0.1L67.6,23l-0.1,0V22.8z M63.5,22.7
	l-0.6,0.1l-0.1,0.3l-0.1,0.5l0.2,0.4l0.3-0.2v-0.7l0.6-0.1L63.5,22.7z M66.4,22.9L66.2,23l0.1-0.2l0.1-0.1V22.9z M65.6,22.6l0.4-0.1
	l-0.2,0.3l-0.4,0.2L65.6,22.6z M62.2,22.5l0,0.2l0.2,0l0-0.2L62.2,22.5z M68.2,22.6l-0.3-0.2l0-0.2l0.2,0.2l0.2,0.1L68.2,22.6z
	 M63.1,22.2L63,22.3l0.1,0L63.1,22.2z M61.6,22.2l0.1-0.1v0.2l-0.1,0.1l-0.1-0.1L61.6,22.2z M62.8,24.4l-0.5,0.2l-0.4-0.2L61.5,24
	l0.1-0.5l-0.2-0.4l-0.1-0.3l0.1-0.1l-0.1-0.2l0.5-0.3l0.6-0.2l0.1,0.3l0.2,0.1l-0.1-0.2l0.1-0.1l0-0.1l0.2-0.1l0.3,0.2l0.4,0.1
	l0.6,0.3l0.3-0.3l-0.1,0.3L64.2,23l0.3,0l0.2,0.4l0.2,0.3h0.3l0.2-0.2l0.1,0.1l-0.2,0.3l-0.4-0.1l-0.2-0.1l-0.3,0.1l-0.1,0.1
	l0.3,0.2l0.2,0.2l0.2,0.1l-0.1,0l-0.2,0.4l-0.1,0.5l0.2,0.3l-0.2,0.1l-0.1-0.3l-0.3,0.1l0-0.2l0.1-0.2v-0.1L64,25.2l-0.1,0.3l0.3,0
	v0.2l0.2-0.1l0.1,0.2l-0.3,0.4l0.2,0.6L64.2,27v0.2l-0.1,0.1l-0.2-0.2l-0.2,0.1L63.6,27l0.1-0.3l0.4-0.3l-0.2-0.3l0-0.4l-0.2-0.2
	h-0.1l-0.1-0.3l0.6-0.3l0.1-0.3l-0.1,0l-0.1,0.1l0,0l-0.1,0.1l-0.4-0.1L62.8,24.4z M67.2,22L67,22.2l-0.1,0.2l-0.2,0l-0.3-0.2
	l-0.3-0.2l0.1-0.3l0.2-0.1l0.1,0.3l0.5,0L67.2,22l0-0.2l0.1-0.1l0.2-0.1l0.2,0l0,0.1l0.3,0.2l-0.1,0.2L67.4,22L67.2,22z M68.8,21.6
	l-0.1,0.1l-0.1-0.1L68.8,21.6z M68,21.5l0.1-0.1L68,21.7l-0.2,0l-0.1-0.1l0.1-0.1H68z M63.5,21.5l0.3,0.1l0.6-0.2l0.5,0.3l0.2,0
	l0,0.2v0.2l0.2,0.1l-0.2,0.1L65,22.4l0-0.3l0.2-0.2l-0.2,0l-0.2,0.1l-0.1,0.3L64.4,22l0-0.2l-0.2,0.1l-0.1,0.3L63.6,22l-0.1-0.3
	L63.4,22l-0.2,0l-0.1-0.4L63.5,21.5z M62.3,21.4l0.2,0.2l0.1-0.1l0.1,0.3L62.4,22l-0.2-0.2H62L62,21.5L62.3,21.4z M63.8,21.3
	l0.1,0.1l-0.2,0.1l-0.1-0.2L63.8,21.3z M69.9,35.5l-0.4-0.4l-1.7-0.5L67.6,34l0.1-2.1l-0.1-1l0.1-1.1l-0.1-0.8l0.1-0.8l-0.1-0.5
	l0.1-0.5l-0.1-0.5v-1.1l0.3-0.5l0.5-0.3l0.6,0l0.5-0.3l0.3-0.5v-1.5l0.1-0.5l-0.1-0.5l-0.2-0.5l-0.8-0.2l-3.2,0L64.8,21l-1.6,0
	l-0.5,0l-1-0.1l-0.6,0.3L61,21.7v0.5l-0.1,0.4v0.6l0.1,0.5v0.5l0.3,0.5l1.6,0.5l0.3,0.5L63,27.8l0,0.4l0.1,0.6l0,1L63,30.4l0.1,1
	L63,31.9l0.1,1.1l-0.1,1l-0.3,0.6l-1.7,0.5l-0.3,0.5l-0.1,0.5v2l0.3,0.5l0.5,0.2l7.6,0.1l0.5-0.3l0.3-0.5v-0.6l-0.1-0.5L69.9,35.5z
	 M52.1,37.7l-0.2,0l-0.3,0.1l-0.2-0.1l-0.2,0.2l0.3,0.2l0.2,0l0-0.2l0.3,0.1L51.8,38l0.5,0.1l-0.2-0.2V37.7z M54,37.6l-0.1-0.1
	l-0.1,0.1l0.1,0.1l0.2,0.2l0.1,0l0.3-0.1l-0.1-0.1L54,37.6z M48.8,37.6l-0.1,0.1l-0.2,0.1h0.3l0.4-0.2l-0.1-0.2L48.8,37.6z M54.5,38
	l-0.4,0.1L54,38L54,37.9h-0.2l-0.1-0.2l0.1-0.2l0.1-0.3l0.1,0.1l0.4,0.3l0.2,0.1L54.5,38z M55.1,37.3l-0.2,0.1l0-0.2l0.1,0.1
	L55.1,37.3l0.1-0.2L55.1,37.3z M47.7,37.3l0.1,0.1v-0.3L47.6,37L47.7,37.3z M51.5,37.4l0.2,0.1l0.2-0.1l0.1-0.1l-0.2-0.1l0-0.2
	l-0.2-0.2L51.5,37l0.2,0.2L51.5,37.4z M56.1,37.1L55.9,37l-0.3,0.1l-0.3-0.2l0.2-0.1l-0.1-0.1l0.1,0.1L55.5,37l0.2,0.1l0.3-0.1
	l0.3,0.1L56.1,37.1z M47.6,36.9l-0.1-0.1l-0.2,0l-0.1,0.2v0l0.2-0.1L47.6,36.9z M50.2,36.8l0.2,0.3l0.1-0.1v-0.1l-0.1-0.1L50.2,36.8
	z M54.4,37.3l0.1,0.1L54.4,37.3l-0.2-0.3L54,37.2l-0.2-0.3l0.1-0.2l0.4,0.2L54.4,37.3z M53,37l-0.1-0.1l-0.2,0L52.5,37l-0.4,0
	l-0.1-0.3l-0.2,0.1l0.2,0.3l0.5,0.2l0.3-0.2L53,37z M49.2,37.1l0.1-0.1l-0.1-0.2l-0.1-0.1l-0.3,0.2l0.2,0.4l0.3,0.4h0.2l0.1-0.1
	v-0.1l-0.2-0.3L49.2,37.1z M50.6,36.6l0.3,0.1l0.2,0l0.1-0.1l-0.3-0.1L50.6,36.6z M54.6,36.8l-0.1,0.1l0.1,0.3l-0.2-0.3v-0.4
	l0.2,0.1V36.8z M53.8,36.4l0.1,0.1l-0.2-0.1v0.2l-0.1,0.1v-0.3l0.1-0.1L53.8,36.4z M53.3,36.1l0.1,0.1v0.3l-0.2-0.1L53.3,36.1z
	 M57,36.4l-0.2-0.2l-0.2,0l0.1-0.1l0.2,0l0.2,0.1L57,36.4z M47.1,36.1L47,36.1L47,36.3l0.3,0.1l0-0.2L47.1,36.1L47.1,36.1z
	 M50.7,36.4H51l-0.2-0.3L50.7,36v0.2l0.2,0.1L50.7,36.4z M49.1,36.1L48.8,36l0.2,0.2L49.1,36.1z M56,36l0.1,0.1l0,0l-0.2,0l-0.2-0.1
	l0.1-0.1L56,36z M48.1,36.8l0.1-0.2l0.2,0.1l0-0.2l0.1-0.1l-0.2,0l-0.1-0.3h0.1l0.1-0.3l-0.4-0.1l0.1,0.3L48,36.4l-0.1,0.1l-0.3-0.1
	l-0.1,0.1l0.1,0.2l0,0.1l0.5,0.3l0.3,0.4l0.1-0.2l-0.1-0.2L48.1,36.8z M56.2,36l-0.1,0.1L56.2,36L56,35.9l-0.1-0.1l0-0.1l0.2,0.1
	l0.2,0l0.1,0.2L56.2,36z M53.7,36l0.2-0.2l0.1-0.2l0.2,0.1l-0.1,0.1L54.1,36L54,35.9l-0.2,0.2L53.7,36z M52.6,35.9h0.2l-0.2-0.3
	h-0.3l0.1,0.1L52.6,35.9z M48.4,35.5l0.1,0.2l0.1,0.2l0.3,0.1l-0.1-0.5H48.4z M47,35.4l-0.1,0.1l0.1,0.2h0.2L47,35.4z M52.3,35.8
	l-0.1-0.2l0-0.2l-0.1-0.2l0,0.2L52,35.8l0.3,0.3v0l0,0l0.1-0.1L52.3,35.8z M49,35.9l0.3,0.1l0.1-0.2l-0.1-0.4l-0.2-0.2l-0.1,0.2
	L49,35.6l0.1,0.1L49,35.8L49,35.9z M50.9,35.3l0.2-0.1l0.2-0.1l-0.1,0.2l0.1,0h0.3l0.1,0.1l0.1-0.1l0.1-0.1l0.4,0.2l0.6,0L53,35.6
	l0.1,0.2h0.2v0.2l-0.2,0l-0.1-0.1l-0.2,0.3l0.2,0.2l0.2-0.1l-0.1,0.2l-0.3,0.1l0-0.2l-0.1-0.2l-0.2-0.1l-0.2,0.1l-0.1-0.1h0l0,0.2
	l-0.2,0.2l0-0.2L52,36.1l-0.2-0.5l-0.3-0.1l-0.3-0.2l0,0.2L51,35.7l-0.2-0.2L50.9,35.3z M54.7,35.2v0.3l0.2,0.3L55,36l-0.1,0.1
	l-0.1-0.2l-0.2-0.2l-0.2-0.3l0.1-0.1L54.7,35.2z M56.3,35.1l-0.1,0.3L56,35.2L56.3,35.1z M49.9,35.2L49.8,35l-0.3,0.1l-0.1,0.3
	l0.2-0.1L49.9,35.2z M55.6,35l0.1,0.2l0.1,0.1l-0.2,0.1l-0.1-0.1l-0.2-0.1L55.4,35H55.6z M47.9,35.7l0.3-0.3l0.2,0v-0.1l0.4,0.1
	l-0.1-0.2l-0.3,0L48.1,35l-0.3,0.2l0.1,0.2L47.9,35.7z M53.8,35.2l0.5-0.3l0.1,0.2L54.2,35l-0.1,0.3l-0.2,0.2l-0.2,0.4l0.1,0.1
	l-0.2-0.2L53.8,35.2z M55,34.8L54.9,35l-0.1,0L55,34.8z M55.1,34.9l0.2-0.1l-0.1-0.1l0.1,0.1L55.1,35L55.1,34.9z M47.4,35.3l0.3-0.2
	l0.1-0.1l-0.2-0.1l-0.2-0.2l-0.1-0.1l-0.2-0.1L47,34.7L47,34.9l0.2-0.1l0.1,0.1v0.2l-0.2,0.1l0.1-0.1l-0.3,0.1l-0.1-0.1l0-0.3
	L46.5,35l-0.2,0.1l0.2,0.1l0.3,0.2l0.1,0.1l0.1-0.1l0.1,0.1l0.1-0.1L47.4,35.3z M57.1,34.5L57,34.6l0,0.2l-0.1-0.1l0.1-0.1l-0.1-0.2
	l0.3,0L57.1,34.5z M47.8,34.6l-0.2-0.2l-0.1,0.1l0.2,0.2L47.8,34.6z M55.7,34.2h0.1l0.1,0l0.1,0.1l-0.2,0.2l-0.3,0.1l-0.2-0.1
	l0.1-0.2l0.2,0.1l0.1,0.1l0.1-0.1L55.7,34.2z M46.7,34.2l0.1-0.1L46.7,34l-0.3,0.4l-0.5-0.1l-0.1,0.2l0.3-0.1l0.2,0.1l0.5-0.1
	l0.1-0.2l-0.2,0L46.7,34.2z M53,37.7l0.4,0l0.1,0.1l0.1,0.3l-0.2,0.2l-0.2,0.1l-0.1-0.1l0.2-0.2l0.2-0.2h-0.3l-0.1-0.1L52.9,38
	l-0.1-0.2l-0.3-0.1l-0.1-0.3l-0.1,0.1l-0.1,0l-0.2-0.1l0,0.2l0.6,0.5l-0.1,0.1l-0.1,0.1l-0.1,0.3l-0.2,0l0.1-0.1l0.1-0.2l-0.2,0.1
	l-0.3-0.1l-0.1,0.2l0,0.2l-0.3-0.1l-0.4,0.1L51,38.5l0.2-0.1v-0.1h-0.4l-0.1,0.2l-0.2,0l0.1-0.3l-0.1-0.1l-0.1,0.2l-0.1,0.2L50,38.5
	l-0.1-0.2l0-0.3l0.3-0.1l-0.3-0.1l-0.3,0.4v-0.2l-0.5,0.1l0.1-0.2l-0.3,0l-0.1,0.2l0.1,0l-0.1,0.1l-0.4-0.3h-0.3l-0.3-0.4l-0.2,0.1
	l0.1,0.1l0.1,0.2l-0.1-0.1l-0.1-0.1l-0.1-0.1l-0.1,0l-0.3-0.1V37h0l0,0l-0.1,0L47,37l-0.1,0.3l-0.2-0.2l-0.1,0l-0.3-0.3l0.3-0.5
	l0.1,0.2l0.1-0.2l-0.3-0.2l0.3-0.2l0.1-0.3l-0.1-0.1l-0.1-0.1l-0.1,0.2l-0.1,0.2L46.4,36L46.3,36l-0.2,0.1l-0.1,0L46,36l0.2-0.1
	l-0.1-0.1v-0.2l0.1-0.1l-0.3,0.1l-0.2,0.1h0.2l0.1,0.1h-0.2l-0.1-0.1l-0.2,0.1l-0.1-0.2v-0.2l-0.2,0.1v-0.3l0.2-0.1l-0.2-0.2
	l0.2-0.2l0.1-0.1l-0.3-0.3l0.2-0.4l-0.1-0.2v-0.1l0.4,0v0.2l0.2-0.1l0.2-0.2l0.3,0l0,0.2l0.3-0.2l0.2,0.3L46.8,34L47,34l0.2,0.1
	l-0.1-0.2L47,33.7l0.1-0.2l0.1,0.1l0.6,0.6V34l0.1-0.3l0.3,0.1l-0.2,0.1l0.1,0.2l0.2,0l0.1,0.2l-0.2,0.2l-0.2-0.1l0.2,0.2l0.3,0
	l0.1-0.2l-0.1-0.1l0.2-0.1l0.1-0.1l0-0.1l0.1,0.2l-0.1,0.1l0.1,0.2l-0.2,0.1l-0.2,0.1L48.3,35l0.2,0.1l0.2,0.1l0.2-0.2l0.1-0.1
	l0.1-0.3l0.4,0.1l0.3,0.3l0.3,0.2l0.1,0.2v0.2l-0.2,0.2l-0.1,0l-0.1,0.3l-0.1,0.3l0.4-0.1l-0.2,0.2l0.2,0.2l0.2-0.2l0.1-0.2
	l-0.1-0.2L50,35.8l0-0.2l0.3-0.1l-0.1-0.2l0.3,0l0.3,0.3l0.2,0.2l0.3,0.2l-0.1,0.1v0.1l0.1,0l-0.1,0.1l0.2,0.1l0.1-0.3l0.1-0.1
	l0,0.1l0.2,0.3l0,0.3l0.2-0.1l0.3,0.2l0.1,0.2l0.3-0.3l0.1-0.1l0.1,0.2l0.2,0.1l0.4,0.1l0.1,0.2l0.1-0.1l0,0.2l-0.2,0.1L53,37
	l-0.1,0.2l0.1,0.1l-0.1,0.1l0.2,0l0.3-0.2l0.2,0.2l-0.1,0l-0.2-0.1l-0.1,0.2h-0.4L53,37.7z M56.2,33.7L56.1,34l-0.2-0.3l-0.3,0
	l-0.1-0.1l0,0.1l-0.1,0.1l0.1-0.2l0.4-0.1l-0.1-0.3l0-0.1l0.7,0.5L56.2,33.7z M54.9,32.9L54.9,32.9h-0.1l-0.2-0.2h0.1L54.9,32.9
	l0.1,0.1L54.9,32.9z M54.6,32.3h0.2l-0.1,0.2l0.2,0l-0.1,0.1l-0.3-0.1L54.6,32.3z M55.8,31.6l0.2,0.1v0.1h-0.3L55.8,31.6z
	 M56.9,31.5l0.2,0.2l0.1-0.1l0.1,0l-0.1,0.1l-0.3,0.1l-0.1-0.2L56.9,31.5z M53.9,31.2L53.9,31.2l-0.1,0.3l-0.1,0.1l0,0.2l-0.1-0.1
	l0.2-0.1v-0.1l-0.1-0.1l0.1-0.2l0.2-0.2l0.1,0.1H53.9z M53.4,31.1l0.2-0.2l0.1,0.2l-0.1,0.1l-0.2,0.1L53.4,31.1z M54.3,31l-0.2,0
	l0.1-0.1l0.2-0.1L54.3,31z M49.6,30.7l-0.1,0.2l-0.1-0.3l0.3-0.1L49.6,30.7z M49.3,30.7l-0.2,0.1l-0.1,0L49,30.9L48.9,31l0.4,0
	l0.1,0.2L49,31.2L48.8,31l0.4-0.4l0.2-0.1L49.3,30.7z M50.4,30.5l-0.1,0.2l0,0.2l-0.2-0.1l-0.1-0.2l0.1-0.2l0.2-0.1V30.5z
	 M53.9,30.5l-0.2-0.1l0.2-0.1L53.9,30.5l0.1-0.1h0.1l0,0.1H53.9z M51,30.4v-0.1l0.1,0.2L51,30.4z M52.9,30.7l-0.1,0l0-0.3l0.2-0.2
	l-0.1,0.3l0.2,0.1H52.9z M52.3,30.4l-0.1,0.1l-0.1-0.1L52,30.2v-0.3l0.2,0.2L52,30.2l0.5-0.1l0.1,0.2L52.3,30.4z M51.7,29.9
	l-0.2,0.2l-0.3-0.2l0.2-0.2l0.3,0V29.9L51.7,29.9z M54.2,29.9l-0.1-0.1l0-0.1l0.1,0.1L54.2,29.9z M51,30l-0.1-0.1l0.1-0.2l0.2,0.2
	L51,30z M49.8,30.1l0.1,0.2l-0.1-0.1L49.4,30l0.1-0.2l0-0.2l0.4,0.1L50,30l-0.1-0.2l-0.2,0L49.8,30.1z M53.4,29.5l0.2,0.1l0.1,0.2
	l0,0.1l-0.2,0.1l-0.1-0.3l-0.3-0.1l0-0.2L53.4,29.5z M54.6,29.5l0.1-0.2l0.1,0.1l0.2,0.1l0.1,0.1l-0.1,0.1l-0.1-0.1l0,0.1L54.5,30
	l0.1-0.3l0.1-0.1L54.6,29.5z M54,29.3l0.3,0.1l-0.1,0.2l-0.3-0.2l-0.1,0L54,29.3z M52.8,29.9l-0.4-0.5l0.3-0.1l0.1,0.2l-0.1,0
	l0.2,0.2l0.2,0.3l0.2,0.2l-0.2-0.1L52.8,29.9z M49.7,29.1l-0.1,0.2l-0.4-0.2l-0.2-0.2l0.3,0.1L49.7,29.1z M52.5,28.8v0.1l0.1,0.1
	l0.2,0.1l-0.1,0.1l-0.1,0.1l-0.1-0.1l-0.1-0.2L52.5,28.8z M48.5,30.7l0-0.3l-0.4-0.1l0.1,0.3l-0.2,0L48,30.7v-0.3l0.1-0.1l-0.2-0.2
	l0-0.2l-0.1-0.2l0-0.1l-0.1-0.1l-0.1,0.1l-0.1,0.2l0.1,0.1l0,0.1l-0.2,0.1l0,0.1l0.1,0.2l-0.2-0.2V30l0.2,0v-0.4l0.2-0.4l0.2,0.1
	L47.7,29l-0.5,0v0.2l-0.1,0.3l-0.3,0.1l-0.2-0.2l0.2,0.1l0.1-0.2l0.2-0.3l0.1-0.4l0.2-0.2l-0.1,0.2l0.1,0.1l0.2,0l-0.1-0.1l0.2-0.2
	h0.2l-0.1,0.1l-0.1,0l0.4,0.2l0.5,0.2l0.1,0.4l0.1,0.1l-0.1,0.3l-0.2-0.2l0.1-0.2l0-0.1l-0.1-0.2l-0.4,0l-0.2,0.2l0.1,0l0.3,0l0,0.4
	l0.5,0l0.2-0.6l0.1,0.4l0.1,0.2l0.1-0.1l0.1,0.1l0.4,0l-0.2,0.1l-0.5,0l-0.1,0.2l-0.1,0.2L48.5,30.7z M50.8,29.7l-0.2,0.1V30l0.2,0
	l0.2,0.2l-0.2-0.1l-0.5-0.1l0.1-0.1v-0.2l0.1-0.1l0.1,0.1l0.1-0.1v-0.1l-0.1-0.1l-0.1-0.3l0.4,0.2l0.2-0.1l0.2-0.3L51,29l0-0.2
	L51,28.6l0.3,0.1l0.3,0.3l-0.1,0.2l-0.1-0.1l-0.1,0.4L50.8,29.7z M48.2,28.6l0.1,0.3l-0.2-0.2L48.2,28.6z M46.6,29l-0.1-0.2L46.5,29
	l-0.2,0.1l-0.2,0.1l0.1,0.1l0.2,0.2l-0.1,0.2l-0.2-0.2L46,29.1L45.8,29l0.1,0l0.2-0.2v-0.2l0.1-0.1l0,0.2l-0.1,0.1l0.2-0.1l0.4-0.1
	l0,0.1L46.6,29z M50.1,28.4l0.1,0.1L50,28.6l-0.1-0.1L50.1,28.4z M47.8,28.3l-0.1,0.2l-0.3,0.1l0.1-0.1l0.1-0.3L47.8,28.3z M48,28.2
	l0-0.2h0.1l0.1,0.2l0.1,0.2l-0.2,0L48,28.2z M46.3,28l0.3,0.1l-0.1,0.1l0.1,0.3l0.2-0.1v0.2l-0.3,0.1l-0.1-0.3L46.3,28l-0.1,0.3
	l-0.1-0.2L46.3,28z M47.4,27l-0.1,0.1l-0.1,0.1l-0.1,0.3l0.2,0.1l0.2-0.1v-0.1h0l-0.1-0.2L47.4,27z M49.4,28.1l0.2-0.1l0.1,0.4
	l-0.4,0.4L49,28.7l-0.2,0.1L48.7,29l-0.2-0.1l-0.1-0.2l0.3-0.1H49l0.2-0.3l-0.4-0.2l-0.3,0.1l-0.1-0.1l0.3,0l0.2-0.1V28h-0.3
	l-0.1-0.1l-0.3-0.2L48,27.5L48,27.9L47.7,28L47.5,28l0-0.3l0.4-0.3l0.4-0.1v-0.2L48.2,27l0.1-0.1l0.3,0.3v0.3l0.1-0.1l0.1-0.4
	l0.1,0.1l0.3,0.2l-0.3-0.1l-0.1,0.1v0.2l-0.2,0.1l-0.1,0.2l-0.1,0.1l0.1,0.1l0.1-0.1l0.2,0.1l0.2,0.1L49.4,28.1z M46.2,27.1l0.2-0.2
	l0-0.2l0.1,0.1l-0.2,0.2l-0.3,0.1L46.2,27.1z M45.4,27l0.1-0.3l0.1-0.1h0.1l-0.1,0.2l0,0.1l0.2,0l0.1,0.2l-0.2,0L45.4,27z
	 M45.8,26.3l0.2-0.1l0.1,0.1l-0.1,0.1l-0.1,0.1L45.8,26.3L45.8,26.3z M47.1,26.1L47,26l0.1-0.1V26.1L47.1,26.1z M47,26l-0.1-0.1
	L47,26L47,26z M47.4,25.9v-0.4l0.2-0.2l-0.1,0.2l0.2,0.2l0.2,0l-0.5,0.6l-0.1-0.1L47.4,25.9z M47.1,27.4l0.2-0.3l0.1-0.1l0.1-0.3
	l0.5-0.6l0.6-0.5v-0.3l0.3-0.1l-0.1,0.3l0.1,0.2l-0.2-0.1l-0.1,0.1l0.1,0.1l0.2,0.3l-0.1,0.2h0.2l-0.1,0.1l-0.2-0.4l-0.1,0.1l-0.2,0
	l0.4,0.3l-0.1,0.2l0-0.1l-0.1-0.1l0,0.2l-0.1,0.1L48,26.4l-0.3,0.1l0.1,0.2L47.6,27l0.1,0.2l-0.1,0.1v0l0,0l0,0.1l-0.1,0.2l-0.2-0.1
	l-0.2-0.1h-0.3l0.2-0.3L46.7,27l0.1-0.1h0.3v-0.2l0.1,0l-0.1,0.2L47,27L47.1,27.4z M48.1,25.2l0.2-0.1l0,0.4L48,25.7l0-0.2
	L48.1,25.2L48.1,25.2z M45.9,25.1L45.9,25.1l-0.2-0.1l0.1-0.1V25L45.9,25.1z M47.5,25l0.3-0.1l0.2,0l0.1,0.2l0,0.2L48,25.1L48,24.9
	l-0.1,0.2l-0.1,0.2l-0.2-0.1l0.2,0.1l0.1-0.1L47.5,25z M48.7,24.9l0.1-0.2v0.1l0.1,0l0.1,0.1H48.7z M45.7,24.6L45.7,24.6l0.1,0.2
	l-0.1-0.1L45.7,24.6z M49.1,24.5l0.3,0.1l0.1,0.2l-0.2-0.1l-0.2,0l-0.1-0.1L49.1,24.5z M48.3,25l-0.4-0.4l0.2-0.1l0.2,0.1l0.2-0.1
	l0,0.2l-0.3,0.1L48.3,25z M56,24.2l0.1-0.1v0.2L56,24.4V24.2z M48.3,24.1L48.2,24l0.3,0L48.3,24.1z M47.1,23.9v0.4l-0.1-0.2L47,24
	L47.1,23.9z M46.8,23.8l-0.1,0.1L46.8,23.8L46.8,23.8z M49.3,23.7l-0.1,0.1l-0.1-0.2L49.3,23.7z M52.3,23.6L52.3,23.6l0.1,0.3
	l-0.2-0.2L52.3,23.6z M47.9,23.6l0.1,0.1l0.1,0.2L48,23.9L47.8,24l0.2,0.1l0,0.1L47.8,24l0.1-0.3h-0.2l0-0.1L47.9,23.6z M50.3,23.7
	l0.2-0.2l0,0.1l-0.1-0.1L50.3,23.7l0.2,0.1l0.2,0.2l-0.2,0l-0.2-0.1L50.3,23.7z M46.7,23.4l0.1,0.1l0.1,0.2l-0.1,0l-0.1-0.2
	L46.7,23.4z M48.8,23.4l0.1-0.1h0L48.8,23.4h-0.2l0-0.2l0.1,0.1L48.8,23.4z M55.3,23.3l0.1-0.3l0.2,0l-0.3,0.4V23.3L55.3,23.3z
	 M48.6,23l-0.1,0.1l0-0.2L48.6,23z M49.5,22.8h0.2l0.1,0.1l-0.3,0.2L49.5,22.8L49.4,23l-0.1-0.1L49.5,22.8z M52,22.7l0.1,0.1L52,23
	l0.1,0.1l-0.2,0l-0.1-0.2L52,22.7z M48.1,22.7l0.2,0.1l0.2-0.1l-0.2,0.1l0,0.2l-0.1,0.2L48.1,23L48,22.8l-0.1-0.2H48.1z M49.9,22.4
	l0,0.2l-0.3,0l-0.1-0.1L49.9,22.4z M52.7,22.4l0.1,0.1l-0.1,0l-0.1-0.2L52.7,22.4z M54,22.3l0.3-0.1l-0.2,0.1l0.1,0.1l-0.1,0.1
	L54,22.4l-0.2,0L54,22.3z M50.7,22.4l0.1-0.2l0.1,0.1l-0.3,0.2L50.7,22.4z M58.7,32.1l-0.1-0.5l-0.5-0.9l-0.6-0.8l-0.4-0.4l-1.4-0.6
	l-2.1-0.5L51,28.1L50,27.7l-0.4-0.2l-0.4-0.4l0-0.7l0.1-0.7l0.3-0.4l0.4-0.3l0.4-0.2l0.5-0.1l1.6-0.1l0.6,0.2l0.4,0.3l0.8,0.9
	l0.8,0.3l1.7,0.1l0.5-0.1l0.5,0.1l0.5-0.3l0.2-0.5l-0.2-1l-0.4-0.9l-0.3-0.4l-0.3-0.4l-0.3-0.4l-1.6-1.1l-1.4-0.5l-0.5-0.1l-0.5-0.1
	l-0.6-0.1l-1.4,0l-2,0.4l-0.5,0.2l-0.4,0.3l-0.4,0.2L47,22l-0.4,0.3l-0.5,0.3l-0.3,0.4l-0.3,0.3l-0.2,0.5l-0.3,0.4l-0.4,1.5l0,1.7
	l0.2,0.7l0.3,0.9l0.6,0.8l0.7,0.7l0.9,0.5l1.5,0.5l0.9,0.2l2.1,0.2l0.5,0.1l0.5,0l0.9,0.4l0.4,0.3l0.1,0.7L54.2,34l-0.4,0.4
	l-0.4,0.2l-0.9,0.3l-0.7,0L51,34.9l-0.6-0.2L50,34.6l-0.5-0.3l-0.4-0.4l-0.4-0.5l-0.5-0.2l-1.9-0.1l-0.5,0.1l-0.5,0l-0.5,0.2
	l-0.2,0.5l0.1,0.6l0.1,0.5l0.4,1l0.6,0.8l0.7,0.7l0.4,0.3l1.8,0.8l0.6,0.1l0.5,0.2l1.1,0.1l0.7,0.1l0.8,0l2.5-0.5l1.3-0.7l0.8-0.6
	l0.7-0.8l0.5-0.8l0.2-0.5l0.2-0.5l0.1-0.5l0-1.6L58.7,32.1z M39.1,38.1h-0.2V38l0.1-0.1l0.1,0L39.1,38.1z M32.3,38.1L32.1,38v-0.1
	l0.1-0.1l0.1,0.1L32.3,38.1z M33.3,38l-0.3,0.1l-0.2-0.2l0.3-0.2l0.2,0.2L33.3,38z M37.1,37.8L37,37.7L37.1,37.8l0.1,0L37.1,37.8z
	 M36.3,37.7l-0.1-0.1l0.1-0.1l0.1,0.1L36.3,37.7z M39.8,37.5l-0.1,0.1L39.8,37.5l0.1-0.2l0.1,0.1L39.8,37.5z M33.8,37.7l0.1,0.1
	h-0.1l-0.1-0.3l0.2-0.2l0.1,0.2L33.8,37.7L33.8,37.7z M31.6,37.8l-0.1-0.2l0.3-0.2l-0.1-0.3l0.1-0.1l0.5,0.3v0.1l-0.3,0L31.6,37.8z
	 M38.1,37.2L38,37.1l0.1,0l0.1,0.1L38.1,37.2z M36.7,37.3h-0.2l0.1-0.1l0.2-0.1L36.7,37.3z M35.4,37.1l-0.2,0.1l0-0.1L35.4,37.1
	l0.1-0.1L35.4,37.1z M35.7,37.2l-0.2,0.3l-0.2-0.1l0.2-0.3l0.3-0.1l0.1,0.1L35.7,37.2z M32.3,37.1h-0.2l0.1-0.1l0.2-0.1L32.3,37.1z
	 M39.3,37.5l-0.3-0.2L38.7,37l-0.2,0.1l-0.1-0.1l0.1-0.1l0.5,0.3l0.3,0.3L39.3,37.5z M34.9,36.9l0-0.2l0.2,0.1l0.1,0.1L34.9,36.9z
	 M33.3,36.9l-0.1-0.2l0.2,0l0.1,0.2L33.3,36.9z M41.1,37.1v-0.2l-0.2-0.1l-0.2,0.1l0.1,0.2l-0.2,0.1l-0.1-0.3l0.3-0.1l0.3-0.1
	l0.1,0.2l0.1,0.2H41.1z M39.3,36.8l0,0.2l-0.1-0.1l-0.1-0.2L39.3,36.8z M34,36.9L34,36.9L34,36.9v-0.1L34,36.7l0.2,0.1L34,36.9z
	 M39.7,36.6l0.1-0.1h0.1l-0.1,0.1l-0.2,0.1L39.7,36.6z M35,36.4L35,36.4l-0.2-0.2l-0.2,0.2l-0.3,0.1l-0.2-0.2l0.1-0.2l0.3,0.1
	l0.3-0.1l0.2,0.1L35,36.4z M35.9,36.7l0-0.1l0.2-0.1l0.2-0.2l0.1-0.1l-0.1,0.2l-0.1,0.2L36,36.7L35.9,36.7z M34,36.2l-0.1,0.2
	l-0.2,0l0.1-0.2L34,36.2z M35.4,36.3l-0.1-0.1l-0.1-0.2l0.2,0.1L35.4,36.3z M40.2,36.2l0-0.1l0.2,0l0.2,0.3l-0.1,0.1l-0.2-0.2
	L40.2,36.2z M37,36.4l0-0.2l-0.1,0l-0.1,0.1l0.1-0.3l0.3,0.3L37,36.4z M38.2,36L38,36.1L38,36l0.1-0.1l0.2,0L38.2,36z M36.1,35.8
	l0.1,0.1l-0.1,0.1V35.8z M33.9,35.9l0-0.2l0.2-0.1l0,0.2L33.9,35.9z M33.4,35.6h0.2v0.2l-0.2,0.1L33.2,36l0-0.2L33.4,35.6z
	 M31.4,35.5h0.3l0.1,0.2l-0.3,0L31.4,35.5z M40,35.5h0.2l0.1,0.2l-0.2,0L40,35.5z M34.8,36.1L34.6,36l-0.2-0.1l0.2-0.3l0.3-0.2
	l0.1,0.1l-0.3,0.2L34.8,36.1z M33.1,35.4l0.1-0.2l0.2,0l-0.1,0.2L33.1,35.4z M32.3,34.8l0.2,0l-0.2-0.1V34.8z M33.1,34.6l0.3-0.1
	l-0.1-0.3L33.1,34.6z M31.7,33.7l0.1,0.1l0.2-0.1l-0.1-0.1L31.7,33.7z M34,33.9l0.3-0.3L34,33.5l-0.2,0.3l-0.2-0.1l0,0.2l0.2,0.1
	L34,33.9z M33.1,33.9L33,33.7l-0.1-0.3l-0.4,0.2l-0.1,0.3h-0.3l0,0.3l0.5-0.1l0.4,0.1L33.1,33.9z M32.7,33.2l0-0.1l-0.2,0l-0.1,0.1
	H32.7z M33.1,32.9L33,33l0.2-0.1L33.1,32.9z M34.9,32.9L34.7,33l0.2,0.1V32.9z M33,32.1l-0.2,0.1l0.3,0.1L33,32.1z M32.4,32.1
	l-0.2,0L32,32.1l-0.2,0.1l0.2,0.1l0.4,0V32.1z M33.8,32.2l0.2,0l-0.1-0.2l-0.2,0L33.8,32.2z M33.2,32.2h0.2L33.3,32L33.2,32.2z
	 M33,31.6l0.2-0.2l0.1-0.2l-0.2,0l-0.2,0.1l0.1,0.1l-0.1,0.1l-0.1-0.2l0.1-0.1l-0.2-0.1l-0.6,0.2l0.1,0.3L33,31.6z M33.7,31l0,0.1
	l0.1,0.1L33.7,31z M32.6,31L32.4,31l0.1,0.2L32.6,31z M34.3,30.9l-0.1-0.1L34,30.9l0.1,0.1L34.3,30.9z M38.7,31l-0.2-0.1l0.1-0.2
	l0.2,0.2L38.7,31z M38.2,30.8L38,30.8L37.9,31l-0.3,0l0.3-0.1l0.2-0.1L38.2,30.8L38.2,30.8L38.2,30.8z M39.3,30.8l-0.1-0.2l0.2,0.1
	l0.1,0.1L39.3,30.8z M38.3,30.6l-0.2,0v-0.1l0.2,0V30.6z M34.3,30.4l-0.3,0.1L34,30.6l0.3,0L34.3,30.4z M37.4,30.5l0.3-0.2l0.1,0.2
	l-0.2,0.1L37.4,30.5z M34.5,30.3h0.2l-0.1-0.1L34.5,30.3z M32.1,30.1l-0.2,0l-0.1-0.1l0.2,0L32.1,30.1z M38.5,30l0.2,0l0,0.3l-0.2,0
	L38.5,30z M34.6,29.9h-0.2l0.1,0.2L34.6,29.9z M35.6,30.2l-0.3-0.1l-0.1-0.3l-0.1-0.1l-0.2,0.3l0.5,0.1L35.6,30.2z M38.7,29.8
	L38.7,29.8l0.1-0.1l0.1,0.1H38.7z M37.2,29.7l-0.1-0.1L37,29.6l0.1,0L37.2,29.7L37.2,29.7L37.2,29.7z M38.2,29.9l-0.1-0.2l-0.2-0.1
	l-0.1-0.1l0.1,0.1l0.2,0l0.2,0.2L38.2,29.9z M31.6,29.4l0.2,0.2l0.1,0.3l-0.3-0.2l-0.1-0.2L31.6,29.4z M34.7,29.3v0.2l0.2-0.1
	L34.7,29.3z M38.9,29.2l0.6,0l0.4,0l-0.4,0.2l-0.5-0.1l-0.2,0.2l-0.3-0.1l0-0.3L38.9,29.2z M37.5,29.2V29l0.1,0l0,0.2L37.5,29.2z
	 M32.2,28.9l0,0.1l0.2-0.1L32.2,28.9z M39,28.7l0.1,0.1l0.1,0.2l0.1,0L39.1,29l-0.2-0.2L39,28.7z M40.8,28.9l-0.2,0v-0.2l0.2,0
	L40.8,28.9z M40.1,28.6l0.2,0.3l0.1,0.2l0.3,0l-0.1,0.5l0.4,0.4L40.6,30l-0.4,0.2L40,30.4h0.2l0.1,0l-0.1,0.1l-0.1,0l0.1,0.1
	L40,30.5l-0.1-0.2l0-0.2l-0.2-0.1l-0.2,0.1l-0.1,0.1l0.1,0.2l-0.2-0.2l-0.3,0.1L39,30.3l0.1-0.2l0.3,0.1l0.3-0.1l0.2-0.1l0.2,0
	l-0.1-0.3h-0.4l0-0.2l0.4-0.1l0.2,0v0.2l0.2,0.3l0.2-0.4l-0.2-0.6L40,28.7L40,28.5L40.1,28.6z M38.4,28.6l0.2,0.1l0-0.1l0.1-0.1
	l0,0.1l-0.2,0.1l-0.1,0.1L38.4,28.6L38.4,28.6z M39.6,28.5l0,0.1l-0.2,0.1l-0.1-0.2H39.6z M31.8,29l-0.2-0.4l0.3-0.1v0.1l0.1,0.2
	l0.1-0.2h0.4l0.3,0.3l0.3-0.1h0.3v0.3l-0.4,0l-0.4,0.3l-0.4,0l0.1-0.3L31.8,29z M34.8,28.7l-0.2,0.1l-0.3-0.1v-0.2l0.3,0L34.8,28.7z
	 M38,28.6l-0.3,0.2l-0.2-0.2l0.3-0.3L38,28.6z M39.1,28.2v0.3L39,28.3l-0.1-0.2L39.1,28.2z M40.2,28l0.4,0.2l0.3,0.2l0.1,0.1
	l-0.2-0.1l-0.3-0.1l-0.4-0.1L40.2,28z M38.1,28.1l0.1,0.1h-0.3L37.9,28L38.1,28.1z M32.5,35.6l-0.3-0.3l0.3-0.1l-0.6-0.2l-0.1,0.2
	l-0.2,0.1l-0.1-0.2l0.3-0.4l0.2-0.1l-0.4-0.1l0.1-0.3l-0.4-0.3l0.2-0.3l-0.2-0.4v-0.4l0.2-0.1l0.1-0.5l0.1-0.3L31.5,32l0-0.3
	l0.1-0.3l-0.2-0.1l0.1-0.2l0.2,0h0.2l0.2-0.1l0.1,0.1l0.1-0.3L32,30.6l0.1-0.2l0.2,0.1l0.3-0.1l0.4,0.2l0.1,0.4l0.2-0.2l0.4-0.3
	l-0.4-0.2l-0.3-0.3h-0.4l-0.3,0l0.1-0.2l0.1-0.2l-0.2-0.2l-0.1,0l0.1-0.1l0.1,0.1h0.2l0.3,0.3l0.3-0.3l0.2-0.1l-0.3-0.1l0.1-0.2
	l0.2,0l0.4,0.1l-0.1,0.3L33.3,30l0.3,0.3l0.1-0.2l0.3-0.6L33.8,29l-0.1,0.1l-0.1,0.1L33.6,29l0.1,0l0.6,0l1-0.3l0.2,0.1l-0.1,0
	L35,29.1l0.2,0.3l-0.2,0l-0.1,0.2l0.3,0.1l0.5-0.4l0.2-0.4l0.1-0.1l0,0.1l0.1,0.2v0.4l0.5-0.3l0.4-0.4l0.2-0.1l-0.3-0.2l0-0.2
	l0.1,0.1l0.2-0.1l0.2-0.3l0.3,0.2l-0.4,0.4L36.8,29l-0.1,0.4l-0.2,0.2l-0.2,0.3l0.3,0.2l0,0.1h-0.4l-0.1-0.4l-0.5-0.2l-0.1,0.6
	l0.1,0.1l0.3,0l-0.1,0.4l-0.2,0.2l-0.2,0l0.1-0.1l0.2-0.2l-0.1-0.2l-0.3,0.1l-0.4,0l-0.1,0.1l0.1,0h-0.4l0.2,0.4h0.1l-0.1,0v0.2
	l-0.2,0.1l-0.1,0l0.1-0.1l-0.2-0.1l-0.2,0.3l0.4,0.2l-0.1,0.2l-0.2,0l0,0.3l0.5-0.2l0.3-0.4L35,31l0.3-0.1h0.4l0.3-0.2l0.3,0
	l0.3-0.3l0.3,0.2l0.2,0.1l0,0.1l-0.3-0.1L36,31.1l-0.4,0.3l-0.1-0.2l-0.2,0l0,0.3l-0.1,0.4l-0.4,0.2l0.2,0.3l-0.2,0.3h-0.2v0.1
	l0.4,0.2l-0.1,0.5l0.1,0L35,33.7l-0.4,0l-0.3,0.2l-0.4,0L33.8,34v0.2l0.2,0.1l0.1-0.3l0.6,0.1l0.1,0.3l-0.2,0.1l0,0.2h-0.4l-0.4-0.1
	l-0.1,0.2l0.3,0.1l0.1,0.1l0.1,0.1l0.4-0.3l0.4-0.4h0.1l0.2,0.2l0.1,0.6l0.1,0.3l0.1,0.1l-0.1,0.1l-0.1-0.1l-0.2-0.1l0.1-0.4
	l-0.1-0.2l-0.4,0l-0.2,0.4L34,35.4l-0.4,0l0.1-0.3l-0.6-0.2l-0.3,0.4l-0.1,0.5l0.2,0.3l-0.3,0L32.5,35.6z M32.9,28.5l-0.2-0.3
	l-0.2-0.1L32.4,28l0,0l0.1,0l0.2-0.1l0.3,0.1l0.1,0.3l0.2-0.1l0-0.2l0.1-0.1l0.2,0.2l-0.1,0.4L32.9,28.5z M32,28.3L32,28l0.2-0.1h0
	L32.2,28v0.3l-0.3,0.1L32,28.3z M32.1,27.5l0,0.1L32.1,27.5L32,27.5L32.1,27.5z M33.3,27.4l-0.1,0.2l-0.3,0.1l0.1-0.2L33.3,27.4z
	 M32.4,27.5v-0.3h0.2l0.1,0.3L32.4,27.5z M31.8,27.1L31.8,27.1l-0.1,0.1l0,0.1l-0.1,0.1l-0.1-0.2l0.1-0.2H31.8z M34.8,27.2L35,27
	l0.2,0.2L35,27.3L34.8,27.2z M33.8,27.3l-0.1,0l-0.1-0.1l-0.1-0.1l-0.1-0.1l0.1-0.1l0,0.2l0.1,0.1L33.8,27.3z M35.9,27.8l0.4,0.2
	l-0.1,0.2l0.1,0.1l0.2-0.1l0.1,0.2h-0.2l-0.2,0l0.1,0.3l0.2,0.2h-0.4L36,28.4l-0.4,0.2l-0.3,0.1h-0.2v-0.1h0.2l0.2-0.2l0.1-0.1
	l-0.3-0.1l-0.4-0.2l-0.2-0.2h-0.3V28l0.1,0.1l0.1,0.1h0.2v0.1l-0.3,0.1l-0.3-0.2h-0.2l0-0.2l0.2-0.2l0.1,0.1l0.2-0.1l0.1-0.1
	l-0.2-0.4l-0.1-0.4l0.2-0.1h0.2v0.1L34.5,27l0.1,0.4l0.1,0.3l0.3,0.1l0.1-0.2l0.2,0v0.3L35.9,27.8z M32.9,26.1h0.2l0,0.1h-0.2V26.1z
	 M31.6,26l0.1,0.2l-0.1,0.1l-0.1-0.1L31.6,26z M33.1,25.9l0.1-0.3l0.2,0.3L33.1,25.9z M33.9,26.1l0.5,0.1l0.4-0.2l-0.1-0.2l-0.1,0.1
	l-0.1-0.1l0.2-0.2l0.2-0.1l0.1,0.4l-0.2,0.4l0.1,0.1l-0.3,0.2l-0.4-0.2h-0.3L33.9,26.1z M32.3,25.4l0.3-0.1l0.1-0.1l0.2-0.1l0,0.2
	l-0.3,0.1l-0.2,0.1h-0.2L32.3,25.4z M32.5,24.8l0.1,0.2l-0.3,0l0-0.2L32.5,24.8z M34.5,24.9l-0.2,0l-0.1-0.2l0.1,0L34.5,24.9z
	 M35.3,24.8l0-0.1l0.1,0l0,0.1L35.3,24.8z M33.5,24.6v-0.2l0.1,0l0,0.2L33.5,24.6z M31.6,24.5L31.6,24.5l0.3,0.2l-0.3,0.2l0.1-0.2
	L31.6,24.5z M37.6,24.2l-0.3,0.2l-0.2-0.2l0.3-0.1L37.6,24.2z M34.4,24.2l-0.1,0L34.4,24.2l0.1-0.1L34.4,24.2z M39.1,24.4l-0.2-0.1
	l0-0.2l0.2,0.1L39.1,24.4z M38.5,23.8l0.1,0.1l0,0.1l-0.2-0.2L38.5,23.8z M36,24.6h-0.5l-0.4-0.1L35,24.4l-0.2,0.1v-0.2l0.1,0.1
	l0.3-0.2V24l0.1-0.4l0.3,0.2L35.5,24l-0.1,0.2l0.3,0.2l0.4-0.1V24.6z M34.1,23.7L34,23.8l-0.1-0.2L34.1,23.7z M36.4,23.4l-0.2,0.3
	l0.1,0.3l0.1,0.1l0.2-0.1l0.1-0.2l0,0.1l0.1,0.2l-0.2,0.2l-0.1,0L36.1,24l-0.2-0.2l-0.1-0.3l0-0.2l0.2,0.1l0.2,0.1L36.4,23.4z
	 M38.8,23.3l0.2,0l-0.1,0.2l-0.2-0.1L38.8,23.3z M31.9,23.4l0,0.1L31.9,23.4l-0.1-0.1L31.9,23.4z M34.1,23.4l0.2-0.1l0.2,0l-0.1,0.2
	H34.1z M38.2,23.2l-0.2,0l0.1-0.2l0.2,0.1L38.2,23.2z M37.2,22.8l0.1,0.2h-0.2L37,22.8H37.2z M36.6,22.6l0.2,0l-0.1,0.1l-0.1,0
	L36.6,22.6z M35,22.6l0.2-0.1h0.1l-0.1,0.1L35,22.6v0.2l0.5-0.2l0.4-0.2l0.1,0.1l-0.5,0.3l-0.2,0.5h-0.1L35.2,23h-0.4l-0.1-0.3
	L35,22.6z M32.5,22.2l0.1,0.1l-0.2,0.1l-0.1-0.2H32.5z M38.1,22.1l0.2-0.1l0.1,0.1l-0.1,0.1L38.1,22.1l-0.2,0.1L38.1,22.1z M34,22.2
	l0.1,0.1l0.1,0.1l0.2,0.1l0.1-0.2l0.1-0.1l0.1,0.2l-0.1,0.3l-0.2-0.1l-0.2-0.2l-0.2,0V22.2z M35.9,22.1l0.1,0.1v0.1l-0.2-0.1
	L35.9,22.1z M35,22L35,22l0.2-0.2l0.2,0l-0.2,0.2h-0.4L35,22z M31.5,21.9l0.2-0.1l0,0.2l-0.2,0.1V21.9z M32.9,22l0.1-0.1l0.1,0
	l0.1,0.1l0.1-0.1l0.2,0.1l0.1,0.2l-0.3-0.1l-0.2-0.2l0,0.2l-0.1,0.1V22z M36.4,21.3v0.2l0,0.1l-0.1,0.1l0.1-0.1l-0.1-0.3L36.4,21.3z
	 M42.3,35.5L42,35l-0.8-0.3l-3.4-0.1l-0.5,0.1l-0.6-0.1l-0.6,0.1l-0.5-0.3l-0.2-0.8l0-1.2l0.2-0.5l0.5-0.3h1l0.5-0.1l1.4,0.1
	l0.7-0.1l0.5,0.1l0.5,0l0.5-0.3l0.3-0.5l0.1-2l-0.1-0.5l-0.2-0.5l-0.4-0.3l-1,0l-0.5,0.1h-0.5l-0.6-0.1l-2,0l-0.4-0.3l-0.3-0.5
	L35.4,26l0.3-0.7l0.8-0.2l4.9,0l0.5-0.3l0.3-0.5l-0.1-1L42,22.7l0-0.6l0.1-0.5l-0.3-0.5L41.3,21l-2,0L38.8,21l-0.5-0.1L37.2,21
	l-0.5-0.1l-1,0l-0.5-0.1L31.9,21l-0.7,0.2l-0.3,0.6l0.1,1l-0.1,0.7l0.1,1.3l-0.1,0.5l0.1,0.5v4.6l-0.1,0.5l0.1,1l-0.1,1l0.1,0.5
	L30.9,34l0,0.5l-0.1,0.5l0.1,0.6V36l0.1,1l0,0.5L30.8,38l0.3,0.5l0.5,0.3l5.8-0.1l0.5,0.1l1.6-0.1l1.6,0.1l0.5-0.1l0.5-0.3l0.2-0.5
	l0.1-0.5l0-1.6L42.3,35.5z M21.3,37.7l-0.2,0l-0.3,0.1l-0.2-0.1l-0.2,0.2l0.3,0.2l0.2,0l0-0.2l0.3,0.1L21,38l0.5,0.1l-0.2-0.2V37.7z
	 M23.2,37.6l-0.1-0.1L23,37.6l0.1,0.1l0.2,0.2l0.1,0l0.3-0.1l-0.1-0.1L23.2,37.6z M18,37.6l-0.1,0.1l-0.2,0.1H18l0.4-0.2l-0.1-0.2
	L18,37.6z M23.7,38l-0.4,0.1l-0.1,0l-0.1-0.1H23l-0.1-0.2l0.1-0.2l0.1-0.3l0.1,0.1l0.4,0.3l0.2,0.1L23.7,38z M24.3,37.3L24,37.4
	l0-0.2l0.1,0.1L24.3,37.3l0.1-0.2L24.3,37.3z M16.9,37.3l0.1,0.1v-0.3L16.8,37L16.9,37.3z M20.7,37.4l0.2,0.1l0.2-0.1l0.1-0.1
	L21,37.2l0-0.2l-0.2-0.2L20.7,37l0.2,0.2L20.7,37.4z M25.3,37.1L25.1,37l-0.3,0.1l-0.3-0.2l0.2-0.1l0-0.1l0.1,0.1L24.7,37l0.2,0.1
	l0.3-0.1l0.3,0.1L25.3,37.1z M16.8,36.9l-0.1-0.1l-0.2,0l-0.1,0.2v0l0.2-0.1L16.8,36.9z M19.3,36.8l0.2,0.3l0.1-0.1v-0.1l-0.1-0.1
	L19.3,36.8z M23.6,37.3l0.1,0.1L23.6,37.3l-0.2-0.3l-0.2,0.2L23,36.9l0.1-0.2l0.4,0.2L23.6,37.3z M22.2,37L22,36.8l-0.2,0L21.7,37
	l-0.4,0l-0.1-0.3l-0.2,0.1l0.2,0.3l0.5,0.2l0.3-0.2L22.2,37z M18.4,37.1l0.1-0.1l-0.1-0.2l-0.1-0.1l-0.3,0.2l0.2,0.4l0.3,0.4h0.2
	l0.1-0.1v-0.1l-0.2-0.3L18.4,37.1z M19.7,36.6l0.3,0.1l0.2,0l0.1-0.1l-0.3-0.1L19.7,36.6z M23.8,36.8l-0.1,0.1l0.1,0.3l-0.2-0.3
	v-0.4l0.2,0.1V36.8z M23,36.4l0.1,0.1l-0.2-0.1v0.2l-0.1,0.1v-0.3l0.1-0.1L23,36.4z M22.5,36.1l0.1,0.1v0.3l-0.2-0.1L22.5,36.1z
	 M26.1,36.4l-0.2-0.2l-0.2,0l0.1-0.1l0.2,0l0.2,0.1L26.1,36.4z M16.3,36.1l-0.1-0.1l-0.1,0.2l0.3,0.1l0-0.2L16.3,36.1L16.3,36.1z
	 M19.9,36.4h0.3l-0.2-0.3L19.8,36v0.2l0.2,0.1L19.9,36.4z M18.2,36.1L18,36l0.2,0.2L18.2,36.1z M25.2,36l0.1,0.1l0,0l-0.2,0
	l-0.2-0.1l0.1-0.1L25.2,36z M17.2,36.8l0.1-0.2l0.2,0.1l0-0.2l0.1-0.1l-0.2,0l-0.1-0.3h0.1l0-0.3l-0.4-0.1l0.1,0.3l-0.1,0.2L17,36.5
	l-0.3-0.1l-0.1,0.1l0.1,0.2l0,0.1l0.5,0.3l0.3,0.4l0.1-0.2l-0.1-0.2L17.2,36.8z M25.4,36l-0.1,0.1L25.4,36l-0.2-0.2l-0.1-0.1l0-0.1
	l0.2,0.1l0.2,0l0.1,0.2L25.4,36z M22.9,36l0.2-0.2l0.1-0.2l0.2,0.1l-0.1,0.1L23.2,36l-0.1-0.1L23,36.1L22.9,36z M21.8,35.9h0.2
	l-0.2-0.3h-0.3l0.1,0.1L21.8,35.9z M17.6,35.5l0.1,0.2l0.1,0.2L18,36l-0.1-0.5H17.6z M16.2,35.4l-0.1,0.1l0.1,0.2h0.2L16.2,35.4z
	 M21.5,35.8l-0.1-0.2l0-0.2l-0.1-0.2l0,0.2l-0.1,0.4l0.3,0.3v0l0,0l0.1-0.1L21.5,35.8z M18.2,35.9l0.3,0.1l0.1-0.2l-0.1-0.4
	l-0.2-0.2l-0.1,0.2l-0.1,0.2l0.1,0.1l-0.1,0.1L18.2,35.9z M20.1,35.3l0.2-0.1l0.2-0.1l-0.1,0.2l0.1,0H21l0.1,0.1l0.1-0.1l0.1-0.1
	l0.4,0.2l0.6,0l-0.1,0.2l0.1,0.2h0.2v0.2l-0.2,0l-0.1-0.1L22,36.1l0.2,0.2l0.2-0.1l-0.1,0.2L22,36.5l0-0.2l-0.1-0.2l-0.2-0.1
	l-0.2,0.1l-0.1-0.1h0l0,0.2l-0.2,0.2l0-0.2l-0.1-0.2L21,35.6l-0.3-0.1l-0.3-0.2l0,0.2l-0.3,0.1L20,35.5L20.1,35.3z M23.9,35.2v0.3
	l0.2,0.3l0.1,0.1l-0.1,0.1L24,35.9l-0.2-0.2l-0.2-0.3l0.1-0.1L23.9,35.2z M25.5,35.1l-0.1,0.3l-0.2-0.2L25.5,35.1z M19.1,35.2L19,35
	l-0.3,0.1l-0.1,0.3l0.2-0.1L19.1,35.2z M24.8,35l0.1,0.2l0.1,0.1l-0.2,0.1l-0.1-0.1l-0.2-0.1L24.6,35H24.8z M17,35.7l0.3-0.3l0.2,0
	v-0.1l0.4,0.1l-0.1-0.2l-0.3,0L17.3,35L17,35.2l0.1,0.2L17,35.7z M23,35.2l0.5-0.3l0.1,0.2L23.4,35l-0.1,0.3l-0.2,0.2l-0.2,0.4
	l0.1,0.1l-0.2-0.2L23,35.2z M24.2,34.8L24.1,35l-0.1,0L24.2,34.8z M24.3,34.9l0.2-0.1l-0.1-0.1l0.1,0.1L24.3,35L24.3,34.9z
	 M16.6,35.3l0.3-0.2l0.1-0.1l-0.2-0.1l-0.2-0.2l-0.1-0.1l-0.2-0.1l-0.1,0.2l-0.1,0.2l0.2-0.1l0.1,0.1v0.2l-0.2,0.1l0.1-0.1l-0.3,0.1
	l-0.1-0.1l0-0.3L15.7,35l-0.2,0.1l0.2,0.1l0.3,0.2l0.1,0.1l0.1-0.1l0.1,0.1l0.1-0.1L16.6,35.3z M26.3,34.5l-0.1,0.1l0,0.2l-0.1-0.1
	l0.1-0.1l-0.1-0.2l0.3,0L26.3,34.5z M16.9,34.6l-0.2-0.2l-0.1,0.1l0.2,0.2L16.9,34.6z M24.9,34.2H25l0.1,0l0.1,0.1l-0.2,0.2
	l-0.3,0.1l-0.2-0.1l0.1-0.2l0.2,0.1l0.1,0.1l0.1-0.1L24.9,34.2z M15.9,34.2l0.1-0.1L15.9,34l-0.3,0.4l-0.5-0.1L15,34.6l0.3-0.1
	l0.2,0.1l0.5-0.1l0.1-0.2l-0.2,0L15.9,34.2z M22.2,37.7l0.4,0l0.1,0.1l0.1,0.3l-0.2,0.2l-0.2,0.1l-0.1-0.1l0.2-0.2l0.2-0.2h-0.3
	l-0.1-0.1L22.1,38L22,37.8l-0.3-0.1l-0.1-0.3l-0.1,0.1l-0.1,0l-0.2-0.1l0,0.2l0.6,0.5l-0.1,0.1l-0.1,0.1l-0.1,0.3l-0.2,0l0.1-0.1
	l0.1-0.2l-0.2,0.1l-0.3-0.1L21,38.4l0,0.2l-0.3-0.1l-0.4,0.1l-0.1-0.1l0.2-0.1v-0.1H20L20,38.5l-0.2,0l0.1-0.3l-0.1-0.1l-0.1,0.2
	l-0.1,0.2l-0.3,0.1l-0.1-0.2l0-0.3l0.3-0.1l-0.3-0.1l-0.3,0.4v-0.2l-0.5,0.1l0.1-0.2l-0.3,0L18,38.1l0.1,0L18,38.2l-0.4-0.3h-0.3
	L17,37.4l-0.2,0.1l0.1,0.1l0.1,0.2l-0.1-0.1l-0.1-0.1l-0.1-0.1l-0.1,0l-0.3-0.1V37h0l0,0l-0.1,0L16.2,37l-0.1,0.3l-0.2-0.2l-0.1,0
	l-0.3-0.3l0.3-0.5l0.1,0.2l0.1-0.2l-0.3-0.2l0.3-0.2l0.1-0.3L16,35.5l-0.1-0.1l-0.1,0.2l-0.1,0.2L15.6,36L15.5,36l-0.2,0.1l-0.1,0
	l0.1-0.2l0.2-0.1l-0.1-0.1v-0.2l0.1-0.1l-0.3,0.1l-0.2,0.1h0.2l0.1,0.1H15L15,35.7l-0.2,0.1l-0.1-0.2v-0.2l-0.2,0.1v-0.3l0.2-0.1
	l-0.2-0.2l0.2-0.2l0.1-0.1l-0.3-0.3l0.2-0.4l-0.1-0.2v-0.1l0.4,0v0.2l0.2-0.1l0.2-0.2l0.3,0l0,0.2l0.3-0.2l0.2,0.3L16,34l0.2,0.1
	l0.2,0.1l-0.1-0.2l-0.1-0.2l0.1-0.2l0.1,0.1l0.6,0.6V34l0.1-0.3l0.3,0.1l-0.2,0.1l0.1,0.2l0.2,0l0.1,0.2l-0.2,0.2l-0.2-0.1l0.2,0.2
	l0.3,0l0.1-0.2l-0.1-0.1l0.2-0.1l0.1-0.1l0-0.1l0.1,0.2l-0.1,0.1l0.1,0.2l-0.2,0.1l-0.2,0.1L17.5,35l0.2,0.1l0.2,0.1l0.2-0.2
	l0.1-0.1l0.1-0.3l0.4,0.1l0.3,0.3l0.3,0.2l0.1,0.2v0.2l-0.2,0.2l-0.1,0l-0.1,0.3l-0.1,0.3l0.4-0.1L19,36.2l0.2,0.2l0.2-0.2l0.1-0.2
	l-0.1-0.2l-0.2-0.1l0-0.2l0.3-0.1l-0.1-0.2l0.3,0l0.3,0.3l0.2,0.2l0.3,0.2l-0.1,0.1v0.1l0.1,0l-0.1,0.1l0.2,0.1l0.1-0.3l0.1-0.1
	l0,0.1l0.2,0.3l0,0.3l0.2-0.1l0.3,0.2l0.1,0.2l0.3-0.3l0.1-0.1l0.1,0.2l0.2,0.1l0.4,0.1l0.1,0.2l0.1-0.1l0,0.2l-0.2,0.1L22.2,37
	l-0.1,0.2l0.1,0.1L22,37.4l0.2,0l0.3-0.2l0.2,0.2l-0.1,0l-0.2-0.1l-0.1,0.2H22L22.2,37.7z M25.4,33.7L25.3,34L25,33.7l-0.3,0
	l-0.1-0.1l0,0.1l-0.1,0.1l0.1-0.2l0.4-0.1l-0.1-0.3l0-0.1l0.7,0.5L25.4,33.7z M24.1,32.9L24.1,32.9H24l-0.2-0.2H24L24.1,32.9
	l0.1,0.1L24.1,32.9z M23.8,32.3H24L24,32.5l0.2,0L24,32.6l-0.3-0.1L23.8,32.3z M24.9,31.6l0.2,0.1v0.1h-0.3L24.9,31.6z M26,31.5
	l0.2,0.2l0.1-0.1l0.1,0l-0.1,0.1L26,31.7l-0.1-0.2L26,31.5z M23.1,31.2L23.1,31.2L23,31.5l-0.1,0.1l0,0.2l-0.1-0.1l0.2-0.1v-0.1
	l-0.1-0.1l0.1-0.2l0.2-0.2l0.1,0.1H23.1z M22.6,31.1l0.2-0.2l0.1,0.2l-0.1,0.1l-0.2,0.1L22.6,31.1z M23.4,31l-0.2,0l0.1-0.1l0.2-0.1
	L23.4,31z M18.8,30.7l-0.1,0.2l-0.1-0.3l0.3-0.1L18.8,30.7z M18.5,30.7l-0.2,0.1l-0.1,0l-0.1,0.1L18,31l0.4,0l0.1,0.2l-0.3,0.1
	L18,31l0.4-0.4l0.2-0.1L18.5,30.7z M19.6,30.5l-0.1,0.2l0,0.2l-0.2-0.1l-0.1-0.2l0.1-0.2l0.2-0.1V30.5z M23.1,30.5l-0.2-0.1l0.2-0.1
	L23.1,30.5l0.1-0.1h0.1l0,0.1H23.1z M20.2,30.4v-0.1l0.1,0.2L20.2,30.4z M22,30.7l-0.1,0l0-0.3l0.2-0.2l-0.1,0.3l0.2,0.1H22z
	 M21.5,30.4l-0.1,0.1l-0.1-0.1l-0.1-0.2v-0.3l0.2,0.2l-0.1,0.2l0.5-0.1l0.1,0.2L21.5,30.4z M20.9,29.9l-0.2,0.2l-0.3-0.2l0.2-0.2
	l0.3,0V29.9L20.9,29.9z M23.4,29.9l-0.1-0.1l0-0.1l0.1,0.1L23.4,29.9z M20.2,30l-0.1-0.1l0.1-0.2l0.2,0.2L20.2,30z M19,30.1l0.1,0.2
	L19,30.2L18.6,30l0.1-0.2l0-0.2l0.4,0.1l0.1,0.3l-0.1-0.2l-0.2,0L19,30.1z M22.6,29.5l0.2,0.1l0.1,0.2l0,0.1l-0.2,0.1l-0.1-0.3
	l-0.3-0.1l0-0.2L22.6,29.5z M23.8,29.5l0.1-0.2l0.1,0.1l0.2,0.1l0.1,0.1l-0.1,0.1L24,29.7l0,0.1L23.7,30l0.1-0.3l0.1-0.1L23.8,29.5z
	 M23.2,29.3l0.3,0.1l-0.1,0.2l-0.3-0.2l-0.1,0L23.2,29.3z M22,29.9l-0.4-0.5l0.3-0.1l0.1,0.2l-0.1,0l0.2,0.2l0.2,0.3l0.2,0.2
	l-0.2-0.1L22,29.9z M18.9,29.1l-0.1,0.2l-0.4-0.2l-0.2-0.2l0.3,0.1L18.9,29.1z M21.7,28.8v0.1l0.1,0.1l0.2,0.1l-0.1,0.1l-0.1,0.1
	l-0.1-0.1l-0.1-0.2L21.7,28.8z M17.7,30.7l0-0.3l-0.4-0.1l0.1,0.3l-0.2,0l-0.1,0.1v-0.3l0.1-0.1l-0.2-0.2l0-0.2l-0.1-0.2l0-0.1
	l-0.1-0.1l-0.1,0.1l-0.1,0.2l0.1,0.1l0,0.1l-0.2,0.1l0,0.1l0.1,0.2l-0.2-0.2V30l0.2,0v-0.4l0.2-0.4l0.2,0.1L16.9,29l-0.5,0v0.2
	l-0.1,0.3L16,29.7l-0.2-0.2l0.2,0.1l0.1-0.2l0.2-0.3l0.1-0.4l0.2-0.2l-0.1,0.2l0.1,0.1l0.2,0l-0.1-0.1l0.2-0.2h0.2l-0.1,0.1l-0.1,0
	l0.4,0.2l0.5,0.2l0.1,0.4l0.1,0.1l-0.1,0.3l-0.2-0.2l0.1-0.2l0-0.1l-0.1-0.2l-0.4,0l-0.2,0.2l0.1,0l0.3,0l0,0.4l0.5,0l0.2-0.6
	l0.1,0.4l0.1,0.2l0.1-0.1l0.1,0.1l0.4,0l-0.2,0.1l-0.5,0L18,30.6l-0.1,0.2L17.7,30.7z M20,29.7l-0.2,0.1V30l0.2,0l0.2,0.2L20,30.1
	l-0.5-0.1l0.1-0.1v-0.2l0.1-0.1l0.1,0.1l0.1-0.1v-0.1l-0.1-0.1l-0.1-0.3l0.4,0.2l0.2-0.1l0.2-0.3L20.2,29l0-0.2l-0.1-0.2l0.3,0.1
	l0.3,0.3l-0.1,0.2l-0.1-0.1l-0.1,0.4L20,29.7z M17.4,28.6l0.1,0.3l-0.2-0.2L17.4,28.6z M15.8,29l-0.1-0.2L15.7,29l-0.2,0.1l-0.2,0.1
	l0.1,0.1l0.2,0.2l-0.1,0.2l-0.2-0.2l-0.1-0.3L15,29l0.1,0l0.2-0.2v-0.2l0.1-0.1l0,0.2l-0.1,0.1l0.2-0.1l0.4-0.1l0,0.1L15.8,29z
	 M19.3,28.4l0.1,0.1l-0.2,0.2l-0.1-0.1L19.3,28.4z M17,28.3l-0.1,0.2l-0.3,0.1l0.1-0.1l0.1-0.3L17,28.3z M17.2,28.2l0-0.2h0.1
	l0.1,0.2l0.1,0.2l-0.2,0L17.2,28.2z M15.5,28l0.3,0.1l-0.1,0.1l0.1,0.3l0.2-0.1v0.2l-0.3,0.1l-0.1-0.3L15.5,28l-0.1,0.3l-0.1-0.2
	L15.5,28z M16.6,27l-0.1,0.1l-0.1,0.1l-0.1,0.3l0.2,0.1l0.2-0.1v-0.1h0l-0.1-0.2L16.6,27z M18.5,28.1l0.2-0.1l0.1,0.4l-0.4,0.4
	l-0.2-0.2l-0.2,0.1L17.9,29l-0.2-0.1l-0.1-0.2l0.3-0.1h0.2l0.2-0.3L18,28.2l-0.3,0.1l-0.1-0.1l0.3,0l0.2-0.1V28h-0.3l-0.1-0.1
	l-0.3-0.2l-0.1-0.2l-0.1,0.4L16.9,28L16.7,28l0-0.3l0.4-0.3l0.4-0.1v-0.2L17.4,27l0.1-0.1l0.3,0.3v0.3l0.1-0.1l0.1-0.4l0.1,0.1
	l0.3,0.2L18,27.4L18,27.5v0.2l-0.2,0.1l-0.1,0.2l-0.1,0.1l0.1,0.1l0.1-0.1l0.2,0.1l0.2,0.1L18.5,28.1z M15.4,27.1l0.2-0.2l0-0.2
	l0.1,0.1l-0.2,0.2l-0.3,0.1L15.4,27.1z M14.6,27l0.1-0.3l0.1-0.1h0.1l-0.1,0.2l0,0.1l0.2,0l0.1,0.2l-0.2,0L14.6,27z M15,26.3
	l0.2-0.1l0.1,0.1l-0.1,0.1L15,26.4L15,26.3L15,26.3z M16.3,26.1L16.2,26l0.1-0.1V26.1L16.3,26.1z M16.2,26L16,25.9L16.2,26L16.2,26z
	 M16.6,25.9v-0.4l0.2-0.2l-0.1,0.2l0.2,0.2l0.2,0l-0.5,0.6l-0.1-0.1L16.6,25.9z M16.3,27.4l0.2-0.3l0.1-0.1l0.1-0.3l0.5-0.6l0.6-0.5
	v-0.3l0.3-0.1l-0.1,0.3l0.1,0.2l-0.2-0.1l-0.1,0.1l0.1,0.1l0.2,0.3l-0.1,0.2H18l-0.1,0.1l-0.2-0.4l-0.1,0.1l-0.2,0l0.4,0.3l-0.1,0.2
	l0-0.1l-0.1-0.1l0,0.2l-0.1,0.1l-0.3-0.2l-0.3,0.1l0.1,0.2L16.8,27l0.1,0.2l-0.1,0.1v0l0,0l0,0.1l-0.1,0.2l-0.2-0.1l-0.2-0.1h-0.3
	l0.2-0.3L15.9,27l0.1-0.1h0.3v-0.2l0.1,0l-0.1,0.2L16.2,27L16.3,27.4z M17.2,25.2l0.2-0.1l0,0.4l-0.2,0.2l0-0.2L17.2,25.2L17.2,25.2
	z M15.1,25.1L15.1,25.1L15,25.1L15,25V25L15.1,25.1z M16.7,25l0.3-0.1l0.2,0l0.1,0.2l0,0.2l-0.1-0.1l-0.1-0.2L17,25.1l-0.1,0.2
	l-0.2-0.1l0.2,0.1l0.1-0.1L16.7,25z M17.9,24.9l0.1-0.2v0.1l0.1,0l0.1,0.1H17.9z M14.9,24.6L14.9,24.6l0.1,0.2l-0.1-0.1L14.9,24.6z
	 M18.3,24.5l0.3,0.1l0.1,0.2l-0.2-0.1l-0.2,0l-0.1-0.1L18.3,24.5z M17.5,25l-0.4-0.4l0.2-0.1l0.2,0.1l0.2-0.1l0,0.2l-0.3,0.1
	L17.5,25z M25.2,24.2l0.1-0.1v0.2l-0.1,0.1V24.2z M17.5,24.1L17.4,24l0.3,0L17.5,24.1z M16.3,23.9v0.4l-0.1-0.2L16.2,24L16.3,23.9z
	 M16,23.8l-0.1,0.1L16,23.8L16,23.8z M18.5,23.7l-0.1,0.1l-0.1-0.2L18.5,23.7z M21.5,23.6L21.5,23.6l0.1,0.3l-0.2-0.2L21.5,23.6z
	 M17,23.6l0.1,0.1l0.1,0.2l-0.1,0.1L17,24l0.2,0.1l0,0.1L17,24l0.1-0.3h-0.2l0-0.1L17,23.6z M19.5,23.7l0.2-0.2l0,0.1l-0.1-0.1
	L19.5,23.7l0.2,0.1l0.2,0.2l-0.2,0l-0.2-0.1L19.5,23.7z M15.9,23.4l0.1,0.1l0.1,0.2l-0.1,0l-0.1-0.2L15.9,23.4z M18,23.4l0.1-0.1h0
	L18,23.4h-0.2l0-0.2l0.1,0.1L18,23.4z M24.5,23.3l0.1-0.3l0.2,0l-0.3,0.4V23.3L24.5,23.3z M17.8,23l-0.1,0.1l0-0.2L17.8,23z
	 M18.7,22.8h0.2L19,23l-0.3,0.2L18.7,22.8L18.6,23l-0.1-0.1L18.7,22.8z M21.2,22.7l0.1,0.1L21.2,23l0.1,0.1L21,23l-0.1-0.2
	L21.2,22.7z M17.3,22.7l0.2,0.1l0.2-0.1l-0.2,0.1l0,0.2l-0.1,0.2L17.3,23l-0.1-0.2l-0.1-0.2H17.3z M19.1,22.4l0,0.2l-0.3,0l-0.1-0.1
	L19.1,22.4z M21.9,22.4l0.1,0.1l-0.1,0l-0.1-0.2L21.9,22.4z M23.2,22.3l0.3-0.1l-0.2,0.1l0.1,0.1l-0.1,0.1l-0.1-0.2l-0.2,0
	L23.2,22.3z M19.9,22.4l0.1-0.2l0.1,0.1l-0.3,0.2L19.9,22.4z M27.9,32.1l-0.1-0.5l-0.5-0.9l-0.6-0.8l-0.4-0.4l-1.4-0.6l-2.1-0.5
	l-2.6-0.3l-1.1-0.4l-0.4-0.2l-0.4-0.4l0-0.7l0.1-0.7l0.3-0.4l0.4-0.3l0.4-0.2l0.5-0.1l1.6-0.1l0.6,0.2l0.4,0.3l0.8,0.9l0.8,0.3
	l1.7,0.1l0.5-0.1l0.5,0.1l0.5-0.3l0.2-0.5l-0.2-1l-0.4-0.9l-0.3-0.4l-0.3-0.4L26,22.5l-1.6-1.1l-1.4-0.5l-0.5-0.1l-0.5-0.1l-0.6-0.1
	l-1.4,0l-2,0.4l-0.5,0.2l-0.4,0.3l-0.4,0.2L16.2,22l-0.4,0.3l-0.5,0.3l-0.3,0.4l-0.3,0.3l-0.2,0.5l-0.3,0.4l-0.4,1.5l0,1.7l0.2,0.7
	l0.3,0.9l0.6,0.8l0.7,0.7l0.9,0.5l1.5,0.5l0.9,0.2l2.1,0.2l0.5,0.1l0.5,0l0.9,0.4l0.4,0.3l0.1,0.7L23.4,34L23,34.4l-0.4,0.2
	l-0.9,0.3l-0.7,0l-0.8-0.1l-0.6-0.2l-0.4-0.2l-0.5-0.3l-0.4-0.4L18,33.4l-0.5-0.2l-1.9-0.1L15,33.2l-0.5,0L14,33.4l-0.2,0.5l0.1,0.6
	L14,35l0.4,1l0.6,0.8l0.7,0.7l0.4,0.3l1.8,0.8l0.6,0.1l0.5,0.2l1.1,0.1l0.7,0.1l0.8,0l2.5-0.5l1.3-0.7l0.8-0.6l0.7-0.8l0.5-0.8
	l0.2-0.5l0.2-0.5l0.1-0.5l0-1.6L27.9,32.1z"/>
</svg>
