<?xml version="1.0" encoding="utf-8"?>
<!-- Generator: Adobe Illustrator 25.4.1, SVG Export Plug-In . SVG Version: 6.00 Build 0)  -->
<svg version="1.1" id="Capa_3" xmlns="http://www.w3.org/2000/svg" xmlns:xlink="http://www.w3.org/1999/xlink" x="0px" y="0px"
	 viewBox="0 0 466.7 482.8" style="enable-background:new 0 0 466.7 482.8;" xml:space="preserve">
<style type="text/css">
	.st0{fill:none;stroke:#C7E8F0;stroke-width:2;stroke-linecap:round;stroke-dasharray:6,5;}
	.st1{fill:#C7E8F0;}
</style>
<path class="st0" d="M113.6,476.7c0,0-92.5-26.3-94.8-78.8s48.4-65.6,152.4-60.8s264.5,1.9,266-73.5S285.4,208.8,219,211.4
	S29.7,219.7,24.7,149c-4.2-60.1,225.9-41.3,225.9-41.3s208.1,10.2,205.9-33.3C454.2,30.9,354.2,16.5,304.6,12S138.2,5.3,138.2,5.3"
	/>
<g>
	<path class="st1" d="M18.7,400.6l-8.8-8.7c-0.4-0.4-0.4-1,0-1.4c0.4-0.4,1-0.4,1.4,0l7.5,7.4l7.7-6.2c0.4-0.3,1.1-0.3,1.4,0.2
		c0.3,0.4,0.3,1.1-0.2,1.4L18.7,400.6L18.7,400.6z"/>
</g>
<g>
	<path class="st1" d="M171.5,221c-0.3,0-0.5-0.1-0.7-0.3c-0.4-0.4-0.4-1,0-1.4l7-7l-6.2-7.5c-0.4-0.4-0.3-1.1,0.1-1.4
		c0.4-0.4,1.1-0.3,1.4,0.1l7.4,8.9l-8.2,8.3C172.1,220.9,171.8,221,171.5,221L171.5,221z"/>
</g>
<g>
	<path class="st1" d="M356.2,115.6c-0.3,0-0.5-0.1-0.7-0.3l-8.2-8.3l7.4-8.9c0.4-0.4,1-0.5,1.4-0.1c0.4,0.4,0.5,1,0.1,1.4l-6.2,7.5
		l7,7c0.4,0.4,0.4,1,0,1.4C356.7,115.5,356.5,115.6,356.2,115.6L356.2,115.6z"/>
</g>
<g>
	<path class="st1" d="M369.6,333.3c-0.2,0-0.4,0-0.5-0.2l-9.9-6.2l5.2-10.4c0.2-0.5,0.8-0.7,1.3-0.4c0.5,0.2,0.7,0.8,0.4,1.3
		l-4.4,8.8l8.4,5.2c0.5,0.3,0.6,0.9,0.3,1.4C370.2,333.2,369.9,333.3,369.6,333.3L369.6,333.3z"/>
</g>
</svg>
