<?xml version="1.0" encoding="utf-8"?>
<!-- Generator: Adobe Illustrator 23.0.3, SVG Export Plug-In . SVG Version: 6.00 Build 0)  -->
<svg version="1.1" id="Layer_1" xmlns="http://www.w3.org/2000/svg" xmlns:xlink="http://www.w3.org/1999/xlink" x="0px" y="0px"
	 viewBox="0 0 775.9 319.5" style="enable-background:new 0 0 775.9 319.5;" xml:space="preserve">
<style type="text/css">
	.st0{fill:#9DCEEF;}
	.st1{clip-path:url(#SVGID_2_);}
	.st2{clip-path:url(#SVGID_4_);}
	.st3{clip-path:url(#SVGID_6_);}
	.st4{clip-path:url(#SVGID_8_);}
	.st5{fill:#EC1750;}
	.st6{fill:#B9D432;}
	.st7{fill:#85CEE9;}
	.st8{fill:#FAAB18;}
	.st9{fill:#E46CA8;}
	.st10{fill:#F1654F;}
	.st11{fill:#408C86;}
	.st12{fill:#51B966;}
	.st13{fill:#FFC727;}
	.st14{fill:#67B2AA;}
	.st15{fill:#5EAFA6;}
	.st16{fill:#F6A9AA;}
	.st17{fill:#207367;}
	.st18{fill:#5CAB3F;}
	.st19{fill:#F6921E;}
	.st20{fill:#DAB784;}
	.st21{fill:#F1655D;}
	.st22{fill:#F48221;}
	.st23{fill:#69C080;}
</style>
<g>
	<path class="st0" d="M555.3,297.8c6.3-17.5,9.8-35.5,9.8-55c0-95-81.1-172.1-181.1-172.1c-100,0-181.1,77-181.1,172.1
		c0,21.4,4.2,42.8,11.7,61.7L555.3,297.8z"/>
</g>
<g>
	<g>
		<defs>
			<rect id="SVGID_1_" x="257.7" y="185" width="50.8" height="50.1"/>
		</defs>
		<clipPath id="SVGID_2_">
			<use xlink:href="#SVGID_1_"  style="overflow:visible;"/>
		</clipPath>
		<g class="st1">
			<g>
				<defs>
					<rect id="SVGID_3_" x="257.7" y="185" width="50.8" height="50.1"/>
				</defs>
				<clipPath id="SVGID_4_">
					<use xlink:href="#SVGID_3_"  style="overflow:visible;"/>
				</clipPath>
				<g transform="matrix(1 0 0 1 -4.789985e-006 -2.435176e-006)" class="st2">
					
						<image style="overflow:visible;enable-background:new    ;" width="170" height="166" xlink:href="8A880C8A.png"  transform="matrix(0.2988 0 0 0.2982 257.6753 185.2607)">
					</image>
				</g>
			</g>
		</g>
	</g>
</g>
<g>
	<g>
		<defs>
			<rect id="SVGID_5_" x="472.9" y="235.3" width="37.8" height="37.3"/>
		</defs>
		<clipPath id="SVGID_6_">
			<use xlink:href="#SVGID_5_"  style="overflow:visible;"/>
		</clipPath>
		<g class="st3">
			<g>
				<defs>
					<rect id="SVGID_7_" x="472.9" y="235.3" width="37.8" height="37.3"/>
				</defs>
				<clipPath id="SVGID_8_">
					<use xlink:href="#SVGID_7_"  style="overflow:visible;"/>
				</clipPath>
				<g transform="matrix(1 0 0 1 1.541437e-005 1.323579e-005)" class="st4">
					
						<image style="overflow:visible;enable-background:new    ;" width="128" height="128" xlink:href="8A880C8E.png"  transform="matrix(0.2908 0 0 0.2914 473.2519 235.3252)">
					</image>
				</g>
			</g>
		</g>
	</g>
</g>
<g>
	<path class="st5" d="M114.8,298.1c-0.6-1.1-1.3-2.1-1.9-3.2c-0.7-1-1.3-2.1-2-3.1c-0.7-1.1-1.5-2.1-2.2-3.2
		c-0.7-1.2-2.4-0.2-1.8,1.1c0.5,1.2,0.9,2.4,1.5,3.6c0.5,1.1,1,2.3,1.5,3.4c0.5,1.1,1,2.3,1.6,3.4c0.6,1.3,1.1,2.8,2.6,3.2
		c0.9,0.3,1.9-0.3,2.2-1.2C116.5,300.6,115.5,299.3,114.8,298.1"/>
	<path class="st5" d="M108.8,304.5c-0.1-1.5-1.6-3-3.2-2.4c-2.1,0.8-3,3-4.1,4.8c-0.9,1.6-1.8,3.2-2.6,4.8c-0.5,1-0.3,2.1,0.6,2.8
		c0.8,0.6,2.1,0.7,2.8-0.2c1.3-1.5,2.4-3,3.6-4.5C107.1,308.3,109,306.5,108.8,304.5"/>
	<path class="st6" d="M138.2,298.1c-0.6-1.3-1.8-2.4-2.8-3.5c-1-1.1-2-2.2-3-3.3c-2-2.2-3.9-4.3-6-6.4c0,0,0,0,0,0
		c-0.3-0.3-0.8-0.5-1.3-0.4c-1,0.1-1.8,1.4-1.1,2.3c1.8,2.4,3.6,4.8,5.5,7.2c0.9,1.1,1.8,2.3,2.7,3.4c1,1.2,2,2.6,3.3,3.5
		c0.7,0.5,1.8,0.3,2.4-0.3C138.5,299.9,138.6,298.9,138.2,298.1"/>
	<path class="st6" d="M87.9,301.9c-0.9-0.4-1.6-0.6-2.6-0.4c-0.4,0.1-0.7,0.2-1,0.3c-0.8,0.2-1.6,0.4-2.4,0.7
		c-1.6,0.5-3.1,0.9-4.7,1.4c-3.2,1-6.5,1.9-9.6,3.2c-1.7,0.7-0.8,3.6,1,3.5c3.3-0.2,6.7-0.9,10-1.5c1.6-0.3,3.2-0.6,4.8-0.8
		c0.8-0.1,1.7-0.3,2.5-0.5c0.3-0.1,0.7-0.1,1.1-0.2c0.9-0.3,1.4-0.9,2-1.6C89.8,304.6,89.2,302.6,87.9,301.9"/>
	<path class="st7" d="M210.4,296.2c-0.9-0.6-2-0.7-3-1c-0.8-0.2-1.6-0.4-2.4-0.6c-1.7-0.4-3.4-0.8-5.1-1.1
		c-3.5-0.7-6.9-1.4-10.4-1.9c-2.2-0.4-3.1,2.6-0.9,3.4c3.3,1.2,6.7,2.2,10.1,3.2c1.7,0.5,3.3,1,5,1.4c0.8,0.2,1.6,0.4,2.4,0.6
		c1,0.3,2.1,0.7,3.1,0.6c1.1-0.1,2.1-0.7,2.4-1.9C211.8,297.9,211.3,296.8,210.4,296.2"/>
	<path class="st8" d="M175.3,298.1c-0.5-0.8-1.5-1.2-2.4-1c-2.5,0.7-4.7,2.4-6.9,3.8c-1.1,0.7-2.1,1.3-3.2,2
		c-1.2,0.7-2.5,1.5-3.5,2.5c-0.8,0.9-1,2.2-0.4,3.3c0.6,1,1.9,1.7,3,1.2c2.5-1,4.6-2.8,6.7-4.4c1-0.7,2.1-1.4,3.1-2.2
		c1.1-0.8,2.3-1.6,3.2-2.7C175.6,299.9,175.8,299,175.3,298.1"/>
	<path class="st9" d="M219.9,302.5c-0.7-0.5-1.2-0.8-2-0.9c-0.7-0.1-1.4-0.2-2-0.2c-1.3,0-2.6,0.1-3.9,0.4c-2.5,0.5-5,1.7-6.8,3.5
		c-0.8,0.8,0,2.5,1.2,2c2.1-0.9,4.1-1.6,6.3-2c1-0.2,2.1-0.2,3.1-0.2c1.2,0.1,2.3,0.4,3.5,0.1C220.3,304.8,220.9,303.2,219.9,302.5"
		/>
	<path class="st5" d="M197.4,300.2c-1.7-1.3-3.8-2-5.9-1.7c-0.7,0.1-1.4,0.5-1.5,1.3c-0.1,0.7,0.3,1.4,1.1,1.6
		c1.6,0.4,3.1,1.5,3.8,2.6c0.7,1,0.7,1.6,1.2,2.5c0.9,1.6,3.4,1.8,4.1-0.1C201.1,304.2,199,301.5,197.4,300.2"/>
	<path class="st5" d="M588.7,292.3c-0.6-1.1-1.3-2.1-1.9-3.2c-0.7-1-1.3-2.1-2-3.1c-0.7-1.1-1.5-2.1-2.2-3.2
		c-0.7-1.2-2.4-0.2-1.8,1.1c0.5,1.2,0.9,2.4,1.5,3.6c0.5,1.1,1,2.3,1.5,3.4c0.5,1.1,1,2.3,1.6,3.4c0.6,1.3,1.1,2.8,2.6,3.2
		c0.9,0.3,1.9-0.3,2.2-1.2C590.5,294.8,589.4,293.5,588.7,292.3"/>
	<path class="st5" d="M582.8,298.7c-0.1-1.5-1.6-3-3.2-2.4c-2.1,0.8-3,3-4.1,4.8c-0.9,1.6-1.8,3.2-2.6,4.8c-0.5,1-0.3,2.1,0.6,2.8
		c0.8,0.6,2.1,0.7,2.8-0.2c1.3-1.5,2.4-3,3.6-4.5C581,302.6,582.9,300.8,582.8,298.7"/>
	<path class="st6" d="M612.1,292.3c-0.6-1.3-1.8-2.4-2.8-3.5c-1-1.1-2-2.2-3-3.3c-2-2.2-3.9-4.3-6-6.4c0,0,0,0,0,0
		c-0.3-0.3-0.8-0.5-1.3-0.4c-1,0.1-1.8,1.4-1.1,2.3c1.8,2.4,3.6,4.8,5.5,7.2c0.9,1.1,1.8,2.3,2.7,3.4c1,1.2,2,2.6,3.3,3.5
		c0.7,0.5,1.8,0.3,2.4-0.3C612.5,294.1,612.5,293.1,612.1,292.3"/>
	<path class="st6" d="M561.8,296.1c-0.9-0.4-1.6-0.6-2.6-0.4c-0.3,0.1-0.7,0.2-1,0.3c-0.8,0.2-1.6,0.4-2.4,0.7
		c-1.6,0.5-3.1,0.9-4.7,1.4c-3.2,1-6.5,1.9-9.6,3.2c-1.7,0.7-0.8,3.6,1,3.5c3.3-0.2,6.7-0.9,10-1.5c1.6-0.3,3.2-0.6,4.8-0.8
		c0.8-0.1,1.7-0.3,2.5-0.5c0.3-0.1,0.7-0.1,1.1-0.2c0.9-0.3,1.4-0.9,2-1.6C563.8,298.9,563.1,296.8,561.8,296.1"/>
	<path class="st7" d="M684.3,290.4c-0.9-0.6-2-0.7-3-1c-0.8-0.2-1.6-0.4-2.4-0.6c-1.7-0.4-3.4-0.8-5.1-1.1
		c-3.5-0.7-6.9-1.4-10.4-1.9c-2.2-0.4-3.1,2.6-0.9,3.4c3.3,1.2,6.7,2.2,10.1,3.2c1.7,0.5,3.3,1,5,1.4c0.8,0.2,1.6,0.4,2.4,0.6
		c1,0.3,2.1,0.7,3.1,0.6c1.1-0.1,2.1-0.7,2.4-1.9C685.8,292.1,685.2,291,684.3,290.4"/>
	<path class="st8" d="M649.3,292.3c-0.5-0.8-1.5-1.2-2.4-1c-2.5,0.7-4.7,2.4-6.9,3.8c-1.1,0.7-2.1,1.3-3.2,2
		c-1.2,0.7-2.5,1.5-3.5,2.5c-0.8,0.9-1,2.2-0.4,3.3c0.6,1,1.9,1.7,3,1.2c2.5-1,4.6-2.8,6.7-4.4c1-0.7,2.1-1.4,3.1-2.2
		c1.1-0.8,2.3-1.6,3.2-2.7C649.5,294.1,649.8,293.2,649.3,292.3"/>
	<path class="st9" d="M693.9,296.7c-0.7-0.5-1.2-0.8-2-0.9c-0.7-0.1-1.3-0.2-2-0.2c-1.3,0-2.6,0.1-3.9,0.4c-2.5,0.5-5,1.7-6.8,3.5
		c-0.8,0.8,0,2.5,1.2,2c2.1-0.9,4.1-1.6,6.3-2c1-0.2,2.1-0.2,3.1-0.2c1.2,0.1,2.3,0.4,3.5,0.1C694.2,299,694.8,297.4,693.9,296.7"/>
	<path class="st5" d="M671.3,294.5c-1.7-1.3-3.8-2-5.9-1.7c-0.7,0.1-1.4,0.5-1.5,1.3c-0.1,0.7,0.3,1.4,1.1,1.6
		c1.6,0.4,3,1.5,3.8,2.6c0.7,1,0.7,1.6,1.2,2.5c0.9,1.6,3.4,1.8,4.1-0.1C675.1,298.5,673,295.8,671.3,294.5"/>
	<path class="st5" d="M72.8,269.4c0.2-1,0-1.9-0.7-2.6c-0.6-0.6-1.8-1-2.6-0.7c-0.7,0.3-1.3,0.5-1.9,1c-0.4,0.3-0.7,0.6-1,1
		c-0.7,0.8-1.3,1.5-2,2.3c-1.2,1.6-2.5,3.1-3.7,4.7c-2.6,3.2-5.1,6.4-7.5,9.8c-0.8,1.2-0.3,3,0.8,3.8c1.1,0.9,2.9,0.9,3.9-0.2
		c2.6-2.9,5.1-5.9,7.6-8.9c1.2-1.5,2.4-3,3.6-4.5c0.7-0.9,1.4-1.7,2.1-2.6c0.3-0.4,0.6-0.8,0.8-1.2c0.2-0.3,0.3-0.5,0.4-0.8
		c0.1-0.2,0.2-0.5,0.2-0.8C72.9,269.2,72.9,269.1,72.8,269.4"/>
	<path class="st5" d="M133.4,150.7c-1.2-1.6-2.2-3.2-3.3-4.9c-1.1-1.8-2.4-3.4-3.7-5.1c-1.2-1.5-2.4-3-3.6-4.5c-1.3-1.6-2.8-4-5-4.4
		c-1.6-0.3-3.2,0.7-3.2,2.4c0,2.4,2,4.2,3.5,5.9c1.3,1.5,2.6,3,3.9,4.4c1.3,1.4,2.6,2.8,4,4.1c1.5,1.4,3,2.7,4.4,4.2
		C131.9,154.4,134.7,152.4,133.4,150.7"/>
	<path class="st5" d="M83.9,179.4c-2.4-1.6-4.6-3.3-7.1-4.9c-1.2-0.8-2.5-1.4-3.7-2.1c-1.4-0.8-3-1.8-4.7-1.6
		c-1.9,0.2-3.1,2-2.2,3.8c0.8,1.5,2.3,2.3,3.8,3c1.3,0.7,2.7,1.4,4,1.9c2.8,1.2,5.6,2.2,8.4,3.3c0.9,0.3,1.9-0.3,2.2-1.1
		C85,180.8,84.7,179.9,83.9,179.4"/>
	<path class="st6" d="M694.3,120.6c-0.9-1.6-1.8-3.2-2.8-4.8c-2-3.2-4.3-6.2-7-8.9c-1.7-1.7-4.7,0.5-3.4,2.6c1.9,3,3.8,6,5.3,9.2
		c0.4,0.8,0.7,1.5,1.1,2.3c0,0,0,0,0,0.1c0,0,0,0,0,0.1c0.1,0.2,0.2,0.4,0.2,0.6c0.2,0.4,0.3,0.9,0.5,1.3c0.3,0.8,0.6,1.6,0.8,2.4
		c0.1,0.5,0.3,0.9,0.4,1.4c0.4,1.1,0.9,1.8,1.9,2.4c1.8,1.2,4.4,0,4.9-2C697.1,125.1,695.4,122.6,694.3,120.6"/>
	<path class="st8" d="M169.1,100.8c-1.1-1.1-2.5-1.9-3.8-2.8c-0.3-0.2-0.6-0.4-0.9-0.7c0,0-0.3-0.3-0.4-0.3
		c-0.6-0.4-1.1-0.9-1.6-1.4c-1.9-1.9-3.6-4.1-5-6.4c-0.5-0.8-1.6-1.2-2.4-0.8c-0.8,0.4-1.5,1.4-1.1,2.3c1.2,2.9,2.6,5.6,4.3,8.2
		c1.9,2.7,3.8,5.8,6.7,7.5c1.5,0.9,3.5,0.5,4.5-0.9C170.4,104,170.4,102,169.1,100.8"/>
	<path class="st8" d="M183.4,254c-2-2.5-4.7-4.4-7.4-6c-2.7-1.6-5.6-2.9-8.7-3.6c-2.2-0.5-3.7,2.6-1.6,3.8c1.3,0.7,2.6,1.5,3.8,2.3
		c0.6,0.4,1.2,0.8,1.7,1.2c0.2,0.2,0.5,0.3,0.7,0.5c0,0,0.6,0.5,0.6,0.5c2.2,1.8,4.1,4,6.1,6.1c1.2,1.3,3.5,1.3,4.7,0
		C184.7,257.2,184.5,255.4,183.4,254"/>
	<path class="st7" d="M63.3,97.3c-0.8-0.8-2.2-0.8-3,0c-2,2.1-4.1,4.1-6.1,6.2c-2,2-4.1,4.1-6,6.3c-1,1.2-1.2,3,0,4.1
		c1.1,1,3,1.2,4.1,0c2-2.1,3.8-4.4,5.6-6.7c1.8-2.3,3.6-4.6,5.4-6.9C64,99.4,64.2,98.2,63.3,97.3"/>
	<path class="st7" d="M104.2,227.4c-0.8-1.2-2.1-1.7-3.4-1.4c-1.5,0.3-2.9,1.3-4.3,2c-1.2,0.6-2.4,1.3-3.6,1.9
		c-2.5,1.3-4.8,2.9-7.2,4.4c-1.7,1.1-0.6,4,1.4,3.3c2.7-0.9,5.4-1.7,8.1-2.7c1.3-0.5,2.6-1,4-1.6c1.6-0.7,3.2-1.2,4.6-2.3
		C104.7,230.3,104.8,228.4,104.2,227.4"/>
	<path class="st7" d="M425.8,287c-2.2-0.8-4.3-1.5-6.6-2c-2.3-0.5-4.7-0.9-7.1-1.1c-2.2-0.2-4.5-0.4-6.7-0.4c-1.3,0-2.6,0.1-3.9,0.3
		c-1.5,0.2-2.7,0.4-3.6,1.7c-0.6,0.8-0.3,2,0.4,2.7c1,1.1,2.5,1,3.8,1.1c1.1,0.1,2.2,0.1,3.3,0.1c2.2,0,4.4,0.1,6.6,0.3
		c4.3,0.3,8.5,0.7,12.7,1.4C427.3,291.5,428.3,287.9,425.8,287"/>
	<path class="st7" d="M174.1,201.1c-1.8-2.5-3.6-5-5.6-7.3c-1-1.1-2-2.1-3-3.2c-1.3-1.4-2.6-2.7-4.5-3c-1.1-0.5-2.3-0.8-3.3,0.1
		c-0.9,0.9-0.6,2.2-0.2,3.3c0.2,1.9,1.4,3.1,2.8,4.5c1.1,1,2.2,2.1,3.3,3.1c2.2,2.1,4.7,3.9,7.2,5.7
		C172.7,205.9,175.5,203,174.1,201.1"/>
	<path class="st6" d="M145.7,220.9c-0.9,0.5-1.8,0.8-2.7,1.3c-0.8,0.4-1.6,0.7-2.6,1c-0.5,0.1-1,0.2-1.5,0.3c-0.1,0-0.5,0.1-0.5,0.1
		c-0.2,0-0.3,0-0.5,0c-0.5,0-1,0-1.5,0c-1,0-2,0.6-2.7,1.3c-1,0.9-1.2,2.4,0,3.3c0.7,0.8,1.6,1.4,2.7,1.4c0.7,0,1.5-0.1,2.2-0.3
		c1.3-0.2,2.6-0.6,3.8-1.3c1.2-0.6,2.2-1.4,3.2-2.2c0.9-0.8,1.5-2,2.1-3.1C148.2,221.6,146.9,220.1,145.7,220.9"/>
	<path class="st8" d="M124.4,51.8c-1.7-4.6-5.5-8.6-10.4-9.7c-2.2-0.5-3.5,2.4-1.6,3.7c0.8,0.5,1.2,0.9,1.9,1.5
		c0.3,0.3,0.6,0.6,0.9,0.9c0.1,0.1,0.2,0.3,0.3,0.4c0,0,0.3,0.4,0.3,0.4c0.2,0.4,0.5,0.7,0.7,1.1c0.1,0.2,0.2,0.4,0.3,0.6
		c0,0,0,0,0,0c0,0,0,0,0,0.1c0.3,0.9,0.6,1.8,0.8,2.8c0.3,1.8,2.6,3,4.3,2.5C123.6,55.6,125.1,53.6,124.4,51.8"/>
	<path class="st8" d="M269.8,272c-0.8-0.6-1.5-1.2-2.3-1.7c-0.1,0-0.2-0.1-0.3-0.2c-0.2-0.2-0.4-0.4-0.6-0.5
		c-0.9-0.8-1.8-1.8-2.6-2.7c-0.1-0.1-0.2-0.2-0.2-0.3c-0.2-0.3-0.4-0.6-0.6-0.9c-0.3-0.5-0.6-1.1-0.9-1.6c-0.1-0.1-0.1-0.3-0.2-0.4
		c-0.2-0.4-0.4-0.9-0.6-1.3c0,0,0,0,0,0c-0.1-0.1-0.1-0.3-0.2-0.4c-0.1-0.3-0.3-0.6-0.4-1c0.1,0.3,0.1,0.3,0,0c-1-3-5.4-2.5-5.6,0.8
		c0,0.2,0,0.3,0,0.2c0,0.3-0.1,0.6-0.1,0.9c0,0.4,0,0.7,0.1,1.1c0.1,1,0.3,1.9,0.6,2.8c0.5,1.6,1.2,3.2,2.1,4.7
		c0.8,1.4,1.9,2.8,3.1,4c0.6,0.6,1.3,1.2,2,1.7c0.9,0.7,1.8,1.2,3,1.6c1.5,0.6,3.6-0.4,4.4-1.8C271.2,275.2,271.2,273.1,269.8,272"
		/>
	<path class="st8" d="M223.4,77.8c-0.4-3.7-2.5-6.9-5.9-8.4c-3.3-1.5-7-1.7-9.9,0.7c-0.7,0.6-0.8,1.8-0.3,2.5c0.5,0.8,1.4,1.2,2.4,1
		c0.1,0,0.7-0.1,0.6-0.1c0.2,0,0.5,0,0.7,0c0.2,0,0.4,0,0.7,0c0.1,0,0.3,0,0.4,0c0.4,0.1,0.8,0.2,1.2,0.3c-0.1,0,0.5,0.2,0.6,0.3
		c0.2,0.1,0.4,0.3,0.7,0.4c0.1,0,0.1,0.1,0.1,0.1c0,0,0,0,0.1,0.1c0.2,0.2,0.4,0.4,0.7,0.6c0.2,0.2,0.3,0.3,0.4,0.5
		c0.1,0.1,0.2,0.2,0.3,0.3c0.2,0.3,0.2,0.2-0.1-0.1c0.2,0.1,0.4,0.6,0.5,0.7c0,0.1,0.1,0.1,0.1,0.2c0.2,0.3,0.1,0.3-0.1-0.2
		c0.2,0.1,0.2,0.6,0.3,0.8c0,0.1,0.1,0.3,0.1,0.4c0,0,0-0.1,0-0.1c0.2,1.7,1.4,3.2,3.2,3.2C221.8,81,223.6,79.6,223.4,77.8"/>
	<path class="st9" d="M484.2,199.9c-2-0.3-4,0.2-5.9,0.5c-1.6,0.3-3.3,0.5-4.9,0.8c-3.3,0.5-6.5,1.1-9.7,2c-2.3,0.6-1.8,4,0.6,4.1
		c3.3,0.1,6.5,0,9.8-0.3c1.6-0.1,3.2-0.3,4.8-0.4c0.8-0.1,1.7-0.1,2.5-0.2c1-0.1,2.1-0.1,3-0.5c1.2-0.5,2.4-1.5,2.3-3
		C486.5,201.6,485.6,200.1,484.2,199.9"/>
	<path class="st5" d="M113.7,90.7c-0.8-1.2-1.8-2.4-2.7-3.6c-1.8-2.2-3.6-4.2-5.6-6.2c-1.4-1.3-3.3,0.3-2.5,1.9
		c1.2,2.5,2.6,4.9,4.1,7.2c0.8,1.3,1.7,2.6,2.7,3.8c0.4,0.5,0.9,1.1,1.4,1.5c0.9,0.6,2.1,0.7,3,0C115.8,94.1,114.7,92.1,113.7,90.7"
		/>
	<path class="st5" d="M658.9,250.3c3.2-0.7,6.2-2.2,9.3-3.6c1.5-0.7,3-1.3,4.4-2c1.5-0.6,3.8-1.3,4.6-2.8c0.8-1.4,0-2.8-1.5-3.1
		c-1.6-0.3-3.6,1.1-5,1.8c-1.4,0.7-2.9,1.4-4.3,2.2c-3,1.5-6,2.8-8.6,4.9C656.5,248.6,657.5,250.6,658.9,250.3"/>
	<path class="st6" d="M438.8,254.6c-0.1-0.6-0.3-1.3-0.6-1.9c-0.3-0.6-0.9-1.1-1.4-1.6c-1-0.9-2-1.8-3.2-2.5
		c-2.1-1.3-4.5-2.2-6.9-2.7c-0.9-0.2-1.8,0.2-2.2,1.1c-0.3,0.8-0.1,1.9,0.8,2.3c1.9,0.9,3.9,2.2,5.3,3.4c0.8,0.7,1.7,1.4,2.4,2.1
		c0.5,0.5,1,1.1,1.6,1.4c0.5,0.3,1.2,0.5,1.8,0.7C437.9,257.5,439,255.9,438.8,254.6"/>
	<path class="st6" d="M603.7,75.7c-1.5-1.5-3.6-2.6-5.5-3.5c-1.8-0.9-3.6-1.8-5.5-2.6c-2-0.9-3.9-1.9-6-2.7c-2-0.8-4.5-1.6-6.7-1.1
		c-1.7,0.5-2.2,2.3-1.5,3.7c0.5,1,1.3,1.6,2.1,2.4c0.9,0.8,1.9,1.4,3,2c1.8,1,3.6,1.8,5.5,2.6l5.4,2.4c2.2,1,4.6,2,7,2.2
		c1.2,0.1,2.4-0.9,2.9-1.9C604.8,77.9,604.6,76.6,603.7,75.7"/>
	<path class="st6" d="M262.4,87.8c-1-0.5-1.8-0.7-3-0.5c-0.5,0.1-0.9,0.3-1.4,0.4c-0.9,0.3-1.8,0.6-2.8,0.9
		c-1.8,0.6-3.7,1.2-5.5,1.8c-3.7,1.2-7.3,2.4-11,3.6c-1.5,0.5-2.7,2.2-2.2,3.8c0.5,1.6,2.1,2.6,3.8,2.2l11.1-3
		c1.9-0.5,3.7-1,5.6-1.5c0.9-0.3,1.9-0.5,2.8-0.8c0.5-0.1,0.9-0.3,1.4-0.4c1.1-0.4,1.7-0.9,2.3-1.9C264.5,91,264,88.5,262.4,87.8"/>
	<path class="st6" d="M317.1,10c-0.4-0.9-1.3-1.6-2.3-1.6c-1.1,0.1-2.1,0.2-3.1,0.8c-0.8,0.4-1.6,0.9-2.4,1.3
		c-1.5,0.8-3,1.7-4.6,2.5c-1.3,0.7-1.7,2.4-1,3.6c0.8,1.4,2.3,1.5,3.6,1c1.5-0.7,3.1-1.4,4.6-2.1c0.8-0.3,1.5-0.7,2.3-1
		c0.9-0.4,1.6-1,2.2-1.8C317.2,12,317.5,10.9,317.1,10"/>
	<path class="st6" d="M582.5,208.8c-0.1-1-0.4-1.9-0.6-2.8c-0.6-1.8-1.3-3.7-2.2-5.4c-1.7-3.1-4-5.9-6.8-8.1c-1.3-1-3.3-1.4-4.6,0
		c-1.2,1.3-1.3,3.3,0,4.6c0.5,0.5,0.9,1,1.4,1.5c-0.1-0.1,0.4,0.6,0.5,0.7c0.2,0.3,0.4,0.6,0.6,1c0.4,0.7,0.8,1.3,1.1,2
		c0.2,0.3,0.4,0.7,0.5,1.1c-0.3-1,0.1,0.2,0.1,0.4c0.5,1.4,0.9,2.9,1.1,4.4c0,0.1,0,0.2,0,0.4c0.1,0.7,0,1.4,0.2,2
		c0.4,1.4,1.3,2.6,2.5,3.5c1.3,1,3.4,0.5,4.5-0.6C582.1,212.3,582.7,210.3,582.5,208.8"/>
	<path class="st6" d="M601.8,242c0.1,2.9,0.2,5.8,0.3,8.7c0,1.6,0.1,3.3,0.3,4.9c0.2,1.7,0.9,3,2,4.3c0.9,1,2.5,0.9,3.3-0.2
		c0.3-0.5,0.6-1,0.9-1.5c0.5-1,0.7-1.9,0.7-3c0-1.4,0-2.8-0.1-4.2c-0.2-2.8-0.3-5.7-0.5-8.5c-0.1-0.9-0.2-1.7-0.8-2.5
		c-0.6-0.6-1.5-1.2-2.4-1.2C603.8,238.8,601.8,240.1,601.8,242"/>
	<path class="st8" d="M486.9,62.3c-1.4-0.8-2.8-0.2-3.6,1c-2,2.8-4.1,5.6-6.2,8.4c-1,1.3-2,2.7-2.9,4.1c-1.1,1.6-2.7,3.9-1.9,5.9
		c0.4,1,1.2,1.8,2.4,1.8c2.4,0,3.9-2.3,5-4.1c0.9-1.4,1.8-2.9,2.7-4.4l5.4-9C488.6,64.7,488.2,63,486.9,62.3"/>
	<path class="st8" d="M670.2,168.4c0.1-0.4,0.2-0.8,0.2-1.3c0-0.7-0.2-1.4-0.6-2c-0.6-1.2-1.9-1.7-3.2-1.7c-0.8,0-1.5,0.3-2.1,0.7
		c0.2-0.1-0.7,0.6-1.1,1c-0.1,0-0.4,0.2-1,0.8c-0.4,0.4-0.7,0.9-1,1.4c-1,1.4-1.6,3.1-2.1,4.7c-0.5,1.6-0.7,3.2-0.9,4.8
		c-0.1,1.3,0,2.7,0.6,3.8c0.4,0.7,1.1,1.3,1.8,1.7c1.4,0.8,2.9,0.7,4.3,0c1.8-0.8,2.4-2.8,2.6-4.6c0-0.3,0-0.6,0.1-0.9
		c0-0.1,0-0.2,0-0.3c0.3-1.3,0.6-2.6,1-3.8c0.2-0.7,0.5-1.3,0.7-2c0.2-0.6,0.3-0.8,0.4-1.5c0-0.1,0.1-0.2,0.1-0.2
		C670,168.8,670.1,168.6,670.2,168.4"/>
	<path class="st8" d="M218,201.7c-0.5-1.5-2-3-3.7-2.8c-3.3,0.3-6.3,1.8-9,3.6c-1.3,0.9-2.5,1.9-3.6,3c-1,1-1.8,2.1-2.9,3.1
		c-0.9,0.9-0.9,2.4,0,3.3c0.9,0.9,2.3,0.8,3.3,0c0.9-0.8,2.1-1.2,3.2-1.7c0,0,0.5-0.2,0.5-0.2c0.2-0.1,0.4-0.2,0.7-0.3
		c0.3-0.1,0.6-0.2,0.8-0.3c0.4-0.2,0.8-0.3,1.1-0.5c0,0,0,0,0.1,0c0.1-0.1,0.5-0.2,0.6-0.3c0.3-0.1,0.7-0.3,1-0.4
		c0.6-0.2,1.1-0.4,1.7-0.6c1.5-0.4,3-1,4.4-1.6C217.7,205.3,218.5,203.2,218,201.7"/>
	<path class="st8" d="M305.3,69.2c-0.1,0-0.2-0.1-0.3-0.1c-0.8-0.6-1.9-0.7-2.9-0.8c-1.2-0.2-2.2,0-3.4,0.1c-1.9,0.3-3.8,1-5.6,1.7
		c-2,0.8-3.8,1.9-5.5,3.2c-1,0.8-1.9,1.5-2.7,2.5c-0.4,0.5-0.8,1-1.2,1.5c-0.6,0.9-0.5,1.8-0.4,2.8c0.1,0.9,1,1.6,1.9,1.9
		c1.5,0.4,2.5-0.1,3.8-0.8c0.8-0.4,1.6-0.8,2.3-1.3c1.5-1,3.2-1.9,4.8-2.8c0.8-0.4,1.6-0.8,2.4-1.2c0.2-0.1,0.4-0.2,0.5-0.2
		c0.2-0.1,0.3-0.1,0.3-0.2c0,0-0.1,0-0.2,0.1c0.6-0.3,1.2-0.5,1.8-0.8c0.2-0.1,0.4-0.2,0.5-0.2c0.1,0,0.1-0.1,0.1-0.1
		c0.2-0.1,0.4-0.2,0.5-0.2c0.4-0.2,0.7-0.5,1.1-0.7c0.8-0.5,1.7-0.9,2.2-1.7c0,0,0,0,0.1-0.1C306.4,71.1,306.3,69.7,305.3,69.2"/>
	<path class="st8" d="M264.1,127C264.1,127,264.1,127,264.1,127"/>
	<path class="st5" d="M182.9,155.5c-1.5,1.6-2.3,4-3.2,6c-0.9,1.9-1.7,3.9-2.7,5.8c-1.2,2.5,2.1,4.4,3.7,2.2
		c1.2-1.7,2.6-3.4,3.8-5.1c1.3-1.8,3-3.6,3.7-5.7C189.3,155.6,185,153.2,182.9,155.5"/>
	<path class="st5" d="M231.7,127.4c-1.6-1-3.6-1.3-5.4-1.7c-1.7-0.3-3.3-0.7-5-1c-4-0.8-7.9-1.3-11.9-1.2c-2.3,0.1-3.3,3.3-1.2,4.4
		c3.1,1.7,6.3,3,9.7,4c3.2,0.9,6.5,2,9.8,2.6c2.1,0.4,5.3,0.3,6.6-1.9C235.5,130.5,233.3,128.5,231.7,127.4"/>
	<path class="st5" d="M253.3,180.3c-0.5-1-1.7-1.6-2.6-2.2c-1.2-0.8-2.4-1.5-3.6-2.3c-2.4-1.5-4.8-3-7.3-4.5c-1.6-1-4-0.4-4.9,1.3
		c-1,1.9-0.4,3.8,1.3,4.9c2.3,1.6,4.6,3.2,6.8,4.9c1.1,0.8,2.2,1.6,3.4,2.4c0.7,0.5,1.6,1.2,2.4,1.4c1.1,0.2,2,0.1,3-0.3
		c1.2-0.5,2-1.3,2-2.7C253.9,182.1,253.8,181.1,253.3,180.3"/>
	<path class="st5" d="M436.4,180.2c-0.5-0.9-1.5-1.7-2.3-2.3c-0.2-0.2-0.4-0.3-0.7-0.5c-0.1-0.1-0.5-0.4-0.6-0.5c-1-0.9-2-2-2.9-3
		c0-0.1-0.1-0.1-0.1-0.2c0,0,0-0.1-0.2-0.2c-0.2-0.3-0.4-0.6-0.6-0.9c-0.4-0.6-0.7-1.3-1.1-1.9c-0.7-1.2-1.4-2.4-1.9-3.6
		c-0.4-0.9-1.9-1.2-2.2,0c-0.3,1.6-0.5,3.1-0.3,4.7c0.2,1.9,0.9,3.7,1.7,5.4c0.8,1.6,1.8,3.1,3,4.4c1.4,1.6,3.3,3.3,5.5,3.4
		C436.2,185,437.4,182.2,436.4,180.2"/>
	<path class="st7" d="M636.2,144.1c-0.2-0.7-0.6-1.4-1-2.1c-0.6-1-1.4-2-2.2-2.8c-1.7-1.7-3.5-2.9-5.7-3.7c-3.1-1.1-5.4,3.2-3.1,5.4
		c0.6,0.5,1.1,1.1,1.7,1.7c0.1,0.1,0.7,0.9,0.9,1c0.1,0.1,0.2,0.3,0.3,0.4c0.4,0.7,0.8,1.4,1.2,2.1c0.2,0.4,0.3,0.7,0.5,1.1
		c0.5,0.8,1.2,1.3,2,1.8c1.9,1.3,4.8,0,5.4-2.2C636.3,146,636.4,145,636.2,144.1"/>
	<path class="st7" d="M647.8,215.1c-1.9-1.1-4.2-1.4-6.3-1.6c-1.5-0.1-3.1-0.1-4.6-0.1c-3.3,0.2-6.7,0.9-9.9,1.9
		c-2.4,0.8-2.1,4.6,0.6,4.5c1.5-0.1,3.1-0.1,4.6,0.1c0.1,0,0.2,0,0.2,0c0,0,0.1,0,0.2,0c0.1,0,1,0.1,1.3,0.2c0.7,0.1,1.4,0.2,2,0.4
		c3.2,0.6,6.3,2.1,9.6,2.4c1.8,0.2,3.7-1.4,4.1-3.1C650.2,218.1,649.5,216.1,647.8,215.1"/>
	<path class="st7" d="M537.8,73.4c-0.9-1.2-1.8-2.4-2.9-3.5c-1-1-2-1.9-3-2.8c-1-0.8-2-1.7-3.1-2.5c-0.5-0.4-1-0.8-1.5-1.3
		c-0.5-0.4-1-0.9-1.7-1.1c-0.8-0.2-1.5,0-2.2,0.1c-0.7,0.2-1.4,0.9-1.6,1.6c-0.2,0.7-0.3,1.5-0.1,2.2c0.2,0.7,0.6,1.2,1.1,1.7
		c0.4,0.5,0.8,0.9,1.1,1.4c0.9,1.1,1.7,2.1,2.6,3.2c0.8,1,1.7,2,2.6,2.9c1.1,1.2,2.3,2.1,3.6,3.1c1.3,1,3.6,0.5,4.6-0.6
		C538.2,76.9,538.8,74.8,537.8,73.4"/>
	<path class="st7" d="M536.5,209.5c-1.6-2-3.8-3.5-5.9-4.7l-6-3.5c-1-0.6-2.2-0.3-2.9,0.6c-0.6,0.8-0.7,2.2,0.2,3
		c1.8,1.5,3.6,2.9,5.3,4.4c1.9,1.6,4,3.3,6.5,4.1c1,0.3,2.1-0.1,2.7-0.9C536.8,211.6,537.1,210.3,536.5,209.5"/>
	<path class="st5" d="M549.4,187.1C549.4,187.1,549.4,187.1,549.4,187.1C549.4,187.1,549.4,187.1,549.4,187.1"/>
	<path class="st9" d="M242.2,58.2c-0.8-1.2-1.4-2.5-2.2-3.8c-0.4-0.6-0.8-1.3-1.1-2c-0.1-0.2-0.2-0.3-0.2-0.5c0,0,0-0.1,0-0.1
		c-0.1-0.4-0.3-0.7-0.4-1.1c-0.5-1.4-0.9-2.9-1.2-4.3c-0.4-1.7-0.6-3.4-1.5-4.9c-1.2-1.9-3.9-2-5.2,0c-2.2,3.6-0.4,8.8,1.6,12
		c1,1.5,2.1,3,3.4,4.2c1.4,1.4,3.1,2.1,4.9,2.8C241.7,61.1,243,59.4,242.2,58.2"/>
	<path class="st9" d="M542.5,261.2c-0.2-0.7-0.6-1.4-0.9-2c-0.5-0.9-1-1.7-1.5-2.5c-1.4-1.8-2.8-3.5-4.6-5c-0.9-0.8-1.9-1.5-2.9-2.2
		c-1-0.6-2.1-1-3.2-1.4c-1.9-0.7-3.9-1.1-6-1.1c-1.1,0-2,1.6-1,2.4c2.8,2.2,5.5,4.7,7.8,7.5c0.1,0.2,0.3,0.3,0.4,0.5c0,0,0,0,0,0
		c0.3,0.4,0.5,0.7,0.7,1.1c0.5,0.8,1,1.6,1.4,2.4c0.2,0.4,0.4,0.8,0.6,1.2c0.2,0.3,0.3,0.9,0.5,1.2v0c0.2,0.6,0.5,1.2,0.9,1.7
		c0.5,0.7,1.2,1.1,1.9,1.6c2.1,1.3,4.7,0,5.4-2.2C542.6,263.3,542.8,262.2,542.5,261.2"/>
	<path class="st7" d="M182.9,57c-1.1-0.7-2.1-1.5-3.3-2.2c-1.1-0.6-2.2-1.2-3.3-1.7c-2.3-1.2-4.5-2.4-6.8-3.5
		c-1.3-0.7-2.9-0.4-3.8,0.8c-0.8,1.1-0.9,2.9,0.2,3.9c2,1.7,3.9,3.3,5.9,5c1,0.8,2,1.7,3,2.5c1.2,1,2.6,1.8,3.8,2.6
		c1.8,1.2,4.7,0.4,5.7-1.5C185.6,60.6,184.9,58.3,182.9,57"/>
	<path class="st7" d="M662.9,58.6c-2.7-1.4-5.4-2.9-8.2-4.2c-1.7-0.8-3.3-1.6-5-2.3c-1.7-0.6-3.5-1.6-5.3-1.4
		c-1.9,0.2-3.4,1-4.2,2.8c-0.7,1.7-0.3,3.6,0.9,5c1.4,1.6,3.7,2.1,5.6,2.8c1.4,0.5,3,0.9,4.4,1.3c3,0.8,6,1.5,9,2.3
		c1.7,0.4,3.4-0.4,4.1-2C665,61.5,664.5,59.4,662.9,58.6"/>
	<path class="st8" d="M708.6,196.3c1-0.3,1.5-1.1,1.5-2.1c-0.1-2.7-0.3-5.3-0.7-7.9c-0.4-2.6-0.9-5.2-1.3-7.8
		c-0.2-1.1-1-2.2-2.2-2.4c-0.5,0-0.9-0.1-1.4,0.1c-1,0.5-1.9,1.6-1.7,2.8c0.5,2.7,1,5.3,1.5,8c0.5,2.8,1.2,5.4,2.1,8.1
		C706.6,196,707.7,196.5,708.6,196.3"/>
	<path class="st6" d="M276.2,161.7c-0.8-0.9-1.9-1.6-2.7-2.3c-0.9-0.8-1.7-1.6-2.4-2.5c0,0,0,0,0,0c-0.1-0.1-0.1-0.2-0.2-0.3
		c-0.2-0.3-0.4-0.5-0.6-0.8c-0.3-0.5-0.6-0.9-0.9-1.4c-0.2-0.4-0.5-0.9-0.7-1.4c0-0.1-0.2-0.4-0.2-0.5c-0.2-0.5-0.4-0.9-0.7-1.4
		c-0.4-0.6-1-1.1-1.7-1.2c-0.7-0.4-1.7-0.2-2.2,0.5c-0.6,0.5-0.9,1.3-0.9,2c0,1.6,0.7,3.1,1.4,4.5c0.6,1.2,1.3,2.4,2.1,3.5
		c1.7,2.4,4,5.1,7,6c1.2,0.4,2.5-0.2,3.1-1.3C277.3,163.9,277,162.6,276.2,161.7"/>
</g>
<g>
	<path class="st10" d="M117.8,43.8c0,0,14.1,19.3,17.8,21.6l15.9-23.5C151.4,41.9,139.3,44.6,117.8,43.8"/>
	<path class="st11" d="M173.3,39.3c0,0,14.3,22.3,19.7,23.6l20.6-32.1L173.3,39.3z"/>
</g>
<polygon class="st12" points="229.7,25.4 247.1,42.4 256.9,13.7 "/>
<g>
	<path class="st13" d="M96.4,43.9c0,0-14.1,23.2-16,24.2c0,0-14.8-15.1-13.4-25.7C67,42.3,92.2,44.9,96.4,43.9"/>
</g>
<polygon class="st14" points="49.1,41.2 35.5,61.7 21,36.1 "/>
<g>
	<path class="st15" d="M669.2,50.3c0,0-12.6,20-16.1,22.5l-17.6-22.6C635.5,50.2,647.8,52.3,669.2,50.3"/>
	<path class="st16" d="M613.3,49.8c0,0-12.7,22.9-18.1,24.5l-22.8-31.1L613.3,49.8z"/>
</g>
<polygon class="st12" points="551.7,34.9 536.5,50.7 529,21.6 542.3,30.7 "/>
<g>
	<path class="st13" d="M689,49.1c0,0,16.4,22.1,18.4,22.9c0,0,13.2-16.1,10.8-26.6C718.2,45.4,693.3,49.9,689,49.1"/>
</g>
<polygon class="st10" points="733.9,43.2 747.4,63.7 762,38.1 "/>
<g>
	<path class="st13" d="M419.5,43.8c0,0-10.9,20.7-14.1,23.4l-19.5-21.4C385.8,45.8,398.3,47.1,419.5,43.8"/>
	<path class="st15" d="M362.3,44.9c0,0-11.9,22.2-17.2,23.8L326.2,38L362.3,44.9z"/>
</g>
<polygon class="st16" points="301.6,28 286.8,43.2 279.4,14.1 292.7,23.2 "/>
<g>
	<path class="st10" d="M437.7,41.5c0,0,19,20.6,21.1,21.2c0,0,11.2-17.2,7.5-27.4C466.3,35.3,442.1,41.8,437.7,41.5"/>
</g>
<polygon class="st11" points="482.9,30 504.4,44.9 506.9,16.5 "/>
<g>
	<path class="st17" d="M769.6,34.9C712.9,47,651.4,55.7,593.7,45.4C568.6,41,542.4,32,525.6,14.9c-2.1-2.1-4.2-4.5-5.8-7h-7.1
		c-23.2,26.8-71.1,33.9-107.9,36.2c-38.3,2.4-80.2-3.9-111.6-23.5c-5.8-3.6-11.9-7.9-16.5-12.7h-11.4c-11,6.8-24,11.9-36.4,16.3
		c-38.4,13.5-80.3,18.9-121.7,18.6c-32-0.2-63.9-3.9-95.1-10v3.4C93.6,51.5,185.7,51.2,259,14.4c3.8-1.9,7.6-3.9,11.2-6.1
		c16.1,19.2,47.2,30.1,73,35c37.3,7.1,77.6,4.7,114.2-4.4c21.4-5.3,43.2-13.6,57.7-28.3c5.6,8.8,16.3,16.1,25.8,21.2
		c33.6,18.3,76.5,21.6,115.5,20.5c38.3-1.1,76.2-7,113.3-14.8L769.6,34.9L769.6,34.9z"/>
	<path class="st13" d="M163,90.1c-1.6-0.9-3.2-1.6-4.9-2.1C159.9,88.5,161.5,89.2,163,90.1"/>
	<path class="st18" d="M357.4,126.5c1.5-5.1,2.9-10.1,3.3-15.4c0.4-5.8-0.2-11.7-1.5-17.4c-1.6-7-4.3-14.2-8.2-20.2
		c-0.3-0.4-1,0.5-0.8,0.9c3.2,4.9,5.4,10.6,7.1,16.2c1.6,5.4,2.6,11,2.6,16.6c0.1,6-1.1,11.6-2.8,17.3"/>
</g>
<polygon class="st19" points="356.3,98.1 351.8,106 360.6,108.8 360.6,101.2 "/>
<g>
	<path class="st20" d="M211,203.5c-0.2-10.8,3.2-21.7,6.3-31.9c1.5-5.2,3-10.2,3.3-15.6c0.4-5.9-0.2-11.8-1.6-17.5
		c-1.7-7-4.3-14.3-8.3-20.4c-0.3-0.5-1.1,0.6-0.8,1c3.2,4.9,5.4,10.6,7.1,16.1c1.6,5.4,2.6,11,2.7,16.6c0.1,6.1-1,11.9-2.7,17.7
		c-2.9,9.7-5.9,19.5-6.8,29.6"/>
</g>
<polygon class="st21" points="215.9,137.1 214,146.2 223.4,146.1 221,138.7 "/>
<g>
	<path class="st16" d="M239.6,130.5c6.8-11.1,6.2-30.1-2.8-42c-5.7-7.7-15.7-12.4-24.1-11.5c-13.1,1.4-18.9,14.5-19,27.7
		c0.1,13.8,6,26.8,18.4,32.8c0,0,0,0,0.1,0c0.5,0.2,1,0.5,1.5,0.7C223.7,142.3,234.1,139.4,239.6,130.5"/>
	<path class="st16" d="M224,78.9c1.5,0.5,2.9,1.3,4.2,2.1C226.9,80.2,225.4,79.4,224,78.9"/>
	<path class="st22" d="M582.3,142.2c0.8-9.2,3.6-18.2,6.2-27c1.6-5.3,2.6-10.6,2.5-16.2c-0.1-5.2-1-10.4-2.5-15.4
		c-1.5-5.1-3.6-10.4-6.6-14.9c-0.2-0.3,0.4-1.2,0.6-0.8c3.6,5.6,6.1,12.3,7.6,18.7c1.3,5.3,1.8,10.8,1.4,16.2
		c-0.3,4.9-1.7,9.6-3.1,14.3c-2.8,9.3-5.9,19.3-5.7,29.1"/>
</g>
<polygon class="st23" points="587.4,85.3 585.6,93.7 594.3,93.6 592.1,86.8 "/>
<g>
	<path class="st12" d="M594.7,30.9c1.4,0.3,2.6,0.7,3.8,1.3C597.3,31.6,596,31.2,594.7,30.9 M584,87C584,87,584,87,584,87
		c0.5,0.2,0.9,0.3,1.4,0.4c9.2,2.4,18.6-1.9,23.5-11c6.1-11.3,5.6-28.8-2.5-38.5c-5.2-6.2-14.2-9.1-21.8-7
		c-11.8,3.3-17.1,16.3-17.2,28.6C567.4,72.1,572.7,83.3,584,87"/>
</g>
<image style="overflow:visible;" width="619" height="424" xlink:href="img_006.png"  transform="matrix(0.48 0 0 0.48 318.5119 89.863)">
</image>
</svg>
