<?xml version="1.0" encoding="utf-8"?>
<!-- Generator: Adobe Illustrator 14.0.0, SVG Export Plug-In . SVG Version: 6.00 Build 43363)  -->
<!DOCTYPE svg PUBLIC "-//W3C//DTD SVG 1.1//EN" "http://www.w3.org/Graphics/SVG/1.1/DTD/svg11.dtd">
<svg version="1.1" id="Layer_1" xmlns="http://www.w3.org/2000/svg" xmlns:xlink="http://www.w3.org/1999/xlink" x="0px" y="0px"
	 width="40.953px" height="40.56px" viewBox="0 0 40.953 40.56" enable-background="new 0 0 40.953 40.56" xml:space="preserve">
<path fill="#0071BB" d="M20.514,39.405c10.521,0,19.049-8.529,19.049-19.049S31.034,1.307,20.514,1.307
	c-10.52,0-19.049,8.529-19.049,19.049S9.994,39.405,20.514,39.405"/>
<circle fill="none" stroke="#FFFFFF" cx="20.514" cy="20.356" r="19.049"/>
<polyline fill="none" stroke="#FFFFFF" stroke-linecap="round" stroke-linejoin="round" stroke-miterlimit="10" points="30,20.864 
	30,13.112 24.795,7.853 10.525,7.853 10.525,32.516 21.289,32.516 "/>
<polyline fill="none" stroke="#FFFFFF" stroke-linecap="round" stroke-linejoin="round" stroke-miterlimit="10" points="
	24.831,8.658 24.831,12.843 29.106,12.843 "/>
<polygon fill="none" stroke="#FFFFFF" stroke-width="0.5" stroke-linecap="round" stroke-linejoin="round" stroke-miterlimit="10" points="
	12.979,11.026 12.979,11.026 12.979,13.785 15.736,13.785 15.736,11.026 "/>
<polygon fill="none" stroke="#FFFFFF" stroke-width="0.5" stroke-linecap="round" stroke-linejoin="round" stroke-miterlimit="10" points="
	12.979,20.09 12.979,20.09 12.979,22.848 15.736,22.848 15.736,20.09 "/>
<polygon fill="none" stroke="#FFFFFF" stroke-width="0.5" stroke-linecap="round" stroke-linejoin="round" stroke-miterlimit="10" points="
	12.979,15.558 12.979,15.558 12.979,18.316 15.736,18.316 15.736,15.558 "/>
<polygon fill="none" stroke="#FFFFFF" stroke-width="0.5" stroke-linecap="round" stroke-linejoin="round" stroke-miterlimit="10" points="
	12.979,24.622 12.979,24.622 12.979,27.379 15.736,27.379 15.736,24.622 "/>
<path fill="none" stroke="#FFFFFF" stroke-width="0.5" d="M22.226,11.051h-4c0,0-0.787-0.002-0.787,0.997
	c0,0.783,0.716,0.854,0.716,0.854h4.143c0,0,0.858,0.072,0.858-0.925S22.226,11.051,22.226,11.051z"/>
<path fill="none" stroke="#FFFFFF" stroke-width="0.5" d="M27.161,15.517h-8.936c0,0-0.787-0.002-0.787,0.998
	c0,0.783,0.716,0.854,0.716,0.854h9.08c0,0,0.857,0.071,0.857-0.925C28.092,15.445,27.161,15.517,27.161,15.517z"/>
<path fill="none" stroke="#FFFFFF" stroke-width="0.5" d="M26.589,20.097h-8.363c0,0-0.787-0.002-0.787,0.997
	c0,0.784,0.716,0.854,0.716,0.854h8.507c0,0,0.857,0.072,0.857-0.926C27.519,20.024,26.589,20.097,26.589,20.097z"/>
<path fill="none" stroke="#FFFFFF" stroke-width="0.5" d="M22.226,24.604h-4c0,0-0.787-0.002-0.787,0.997
	c0,0.784,0.716,0.854,0.716,0.854h4.143c0,0,0.858,0.073,0.858-0.925S22.226,24.604,22.226,24.604z"/>
<path fill="#0071BB" d="M26.253,34.305c3.943,0,7.141-3.198,7.141-7.142c0-3.944-3.197-7.142-7.141-7.142
	c-3.944,0-7.141,3.197-7.141,7.142C19.112,31.107,22.309,34.305,26.253,34.305"/>
<circle fill="none" stroke="#FFFFFF" stroke-linecap="round" stroke-miterlimit="10" cx="26.253" cy="27.164" r="7.142"/>
<polygon fill="#FFFFFF" points="24.449,28.361 22.878,28.361 26.164,32.434 29.558,28.361 27.808,28.361 27.808,22.428 
	24.449,22.428 "/>
<polyline fill="none" stroke="#FFFFFF" stroke-width="0.5" stroke-linecap="round" stroke-linejoin="round" stroke-miterlimit="10" points="
	24.449,28.361 22.878,28.361 26.164,32.434 29.558,28.361 27.808,28.361 27.808,22.428 24.449,22.428 24.449,28.361 "/>
</svg>
