<?xml version="1.0" encoding="utf-8"?>
<!-- Generator: Adobe Illustrator 21.1.0, SVG Export Plug-In . SVG Version: 6.00 Build 0)  -->
<svg version="1.1" id="Capa_1" xmlns="http://www.w3.org/2000/svg" xmlns:xlink="http://www.w3.org/1999/xlink" x="0px" y="0px"
	 viewBox="0 0 556.711 469.737" style="enable-background:new 0 0 556.711 469.737;" xml:space="preserve">
<style type="text/css">
	.st0{clip-path:url(#SVGID_2_);fill:none;stroke:#E9EEC6;stroke-width:2.547;stroke-linecap:round;stroke-dasharray:7.741,5.194;}
	.st1{clip-path:url(#SVGID_2_);fill:none;stroke:#E9EEC6;stroke-width:2.547;stroke-linecap:round;stroke-dasharray:7.633,5.086;}
	.st2{clip-path:url(#SVGID_2_);fill:none;stroke:#E9EEC6;stroke-width:2.547;stroke-linecap:round;stroke-dasharray:7.638,5.091;}
	.st3{clip-path:url(#SVGID_2_);fill:none;stroke:#E9EEC6;stroke-width:2.547;stroke-linecap:round;stroke-dasharray:7.673,5.126;}
	.st4{clip-path:url(#SVGID_2_);fill:none;stroke:#E9EEC6;stroke-width:2.547;stroke-linecap:round;}
	.st5{fill:none;stroke:#F0F4D9;stroke-width:2.547;stroke-linecap:round;}
</style>
<g>
	<defs>
		<rect id="SVGID_1_" width="556.711" height="469.737"/>
	</defs>
	<clipPath id="SVGID_2_">
		<use xlink:href="#SVGID_1_"  style="overflow:visible;"/>
	</clipPath>
	<path class="st0" d="M411.052,468.245c31.907-1.473,137.502-12.799,144.065-98.018"/>
	<path class="st1" d="M555.21,354.87C542.613,168.411,12.13,437.999,1.438,234.747"/>
	<path class="st2" d="M1.503,219.483C13.083-0.113,459.706,261.124,473.87,92.145"/>
	<path class="st3" d="M474.053,76.831c-4.509-87.115-101.669-89.104-222.552-55.014"/>
	<path class="st4" d="M249.035,22.517c-1.226,0.349-2.455,0.703-3.687,1.06 M474.049,89.608c0.071-1.252,0.119-2.523,0.145-3.816
		c0.024-1.297,0.029-2.574,0.016-3.838 M1.332,232.206c-0.039-1.256-0.058-2.527-0.058-3.816c0-1.289,0.013-2.561,0.041-3.819
		 M555.285,367.636c0.067-1.274,0.112-2.563,0.135-3.869c0.023-1.291,0.023-2.563,0.002-3.815 M401.992,468.46
		c0,0,1.377,0.021,3.87-0.033"/>
</g>
<polyline class="st5" points="233.201,128.155 223.714,133.005 227.725,143.6 "/>
<polyline class="st5" points="171.846,320.604 178.395,312.198 170.281,304.292 "/>
</svg>
