<?xml version="1.0" encoding="utf-8"?>
<!-- Generator: Adobe Illustrator 25.4.2, SVG Export Plug-In . SVG Version: 6.00 Build 0)  -->
<svg version="1.1" id="Layer_1" xmlns="http://www.w3.org/2000/svg" xmlns:xlink="http://www.w3.org/1999/xlink" x="0px" y="0px"
	 viewBox="0 0 820 1060" style="enable-background:new 0 0 820 1060;" xml:space="preserve">
<style type="text/css">
	.st0{fill:#00ABCC;}
	.st1{clip-path:url(#SVGID_00000054963802568333416830000006835704269798429838_);fill:#C7E8F0;}
	.st2{fill:none;}
</style>
<g>
	<rect y="-0.3" class="st0" width="820" height="1060.3"/>
	<g>
		<defs>
			<rect id="SVGID_1_" x="10.4" y="-0.3" width="809.6" height="1060.3"/>
		</defs>
		<clipPath id="SVGID_00000094584452149008456740000010730637772050647729_">
			<use xlink:href="#SVGID_1_"  style="overflow:visible;"/>
		</clipPath>
		<path style="clip-path:url(#SVGID_00000094584452149008456740000010730637772050647729_);fill:#C7E8F0;" d="M69.4,73.7
			c19.2-1.9,384.1,0,422.5,0c38.4,0,285.1-11.8,288.1,9c6.4,45.3,6.4,733.5,6.4,809.3c0,54.6-2.6,123.3-6.4,123.3
			s-636.3,24.3-715.7,6.2c-6.4-87.1-3.8-410.7-3.8-579.4C60.5,388.9,59.2,125.1,69.4,73.7"/>
	</g>
	<g>
		<defs>
			<rect id="SVGID_00000142885668631701549240000006255581855141825201_" x="10.4" y="-0.3" width="809.6" height="1060.3"/>
		</defs>
		<clipPath id="SVGID_00000142897421142549095070000018048992063536093570_">
			<use xlink:href="#SVGID_00000142885668631701549240000006255581855141825201_"  style="overflow:visible;"/>
		</clipPath>
	</g>
	<g>
		<defs>
			<rect id="SVGID_00000098205638364323844240000005723421770927400361_" x="10.4" y="-0.3" width="809.6" height="1060.3"/>
		</defs>
		<clipPath id="SVGID_00000044893945190423418330000014677152442296073400_">
			<use xlink:href="#SVGID_00000098205638364323844240000005723421770927400361_"  style="overflow:visible;"/>
		</clipPath>
	</g>
	<g>
		<defs>
			<rect id="SVGID_00000045589556644033491830000005002454911741346200_" x="10.4" y="-0.3" width="809.6" height="1060.3"/>
		</defs>
		<clipPath id="SVGID_00000059286769383940674760000014941605968091391875_">
			<use xlink:href="#SVGID_00000045589556644033491830000005002454911741346200_"  style="overflow:visible;"/>
		</clipPath>
	</g>
</g>
<rect x="13.7" y="17.6" class="st2" width="792.6" height="1024.5"/>
</svg>
