<?xml version="1.0" encoding="utf-8"?>
<!-- Generator: Adobe Illustrator 25.4.1, SVG Export Plug-In . SVG Version: 6.00 Build 0)  -->
<svg version="1.1" id="Capa_1" xmlns="http://www.w3.org/2000/svg" xmlns:xlink="http://www.w3.org/1999/xlink" x="0px" y="0px"
	 viewBox="0 0 34 63.8" style="enable-background:new 0 0 34 63.8;" xml:space="preserve">
<style type="text/css">
	.st0{clip-path:url(#SVGID_00000183224145983086283990000018101273484004660366_);fill:#369B2F;}
</style>
<g>
	<g>
		<g>
			<defs>
				<rect id="SVGID_1_" width="34" height="63.8"/>
			</defs>
			<clipPath id="SVGID_00000057855252119649651960000003045425889620104839_">
				<use xlink:href="#SVGID_1_"  style="overflow:visible;"/>
			</clipPath>
			<path style="clip-path:url(#SVGID_00000057855252119649651960000003045425889620104839_);fill:#369B2F;" d="M14.2,12.1
				c1.4,1.3,3,2,5,2c1.9,0,3.6-0.7,5-2s2.1-3,2.1-5.1s-0.7-3.7-2.1-5s-3.1-1.9-5-1.9c-2,0-3.7,0.6-5,1.9c-1.4,1.3-2,3-2,5
				C12.2,9,12.9,10.7,14.2,12.1 M13.1,52.8c-1.3-1.3-2-2.9-2-4.8c0-1.4,0.3-2.7,1-3.9c0.6-1.2,1.5-2.3,2.5-3.4
				c1-1.1,2.1-2.2,3.2-3.4C19,36.2,20,35,21,33.7s1.8-2.7,2.5-4.2c0.6-1.5,1-3.3,1-5.2c0-0.6,0-1.2-0.1-1.9
				c-0.1-0.7-0.1-1.3-0.3-1.9h-9.2c0.1,0.4,0.1,0.7,0.1,1.1v1c0,1.8-0.4,3.4-1.1,4.8c-0.7,1.4-1.7,2.8-2.8,4
				c-1.1,1.3-2.3,2.5-3.6,3.7S5,37.6,3.9,38.9c-1.1,1.4-2,2.8-2.8,4.4C0.4,44.9,0,46.7,0,48.7c0,1.6,0.3,3.4,0.8,5.1
				c0.5,1.8,1.5,3.4,2.8,4.9c1.4,1.5,3.2,2.7,5.5,3.7s5.2,1.5,8.8,1.5c2.9,0,5.8-0.4,8.6-1.1c2.8-0.7,5.3-1.7,7.5-3l-3-8.2
				c-2.1,1.1-4,1.9-5.9,2.4s-3.9,0.8-5.9,0.8C16.4,54.7,14.5,54.1,13.1,52.8"/>
		</g>
	</g>
</g>
</svg>
