<?xml version="1.0" encoding="utf-8"?>
<!-- Generator: Adobe Illustrator 23.0.3, SVG Export Plug-In . SVG Version: 6.00 Build 0)  -->
<svg version="1.1" id="Capa_1" xmlns="http://www.w3.org/2000/svg" xmlns:xlink="http://www.w3.org/1999/xlink" x="0px" y="0px"
	 viewBox="0 0 120.7 72.1" style="enable-background:new 0 0 120.7 72.1;" xml:space="preserve">
<style type="text/css">
	.st0{clip-path:url(#SVGID_2_);fill:#FFFFFF;}
	.st1{clip-path:url(#SVGID_4_);fill:#1D1D1B;}
	.st2{clip-path:url(#SVGID_6_);fill:#1D1D1B;}
</style>
<g>
	<g>
		<defs>
			<rect id="SVGID_1_" width="120.7" height="72.1"/>
		</defs>
		<clipPath id="SVGID_2_">
			<use xlink:href="#SVGID_1_"  style="overflow:visible;"/>
		</clipPath>
		<path class="st0" d="M68.2,0.6c0,0,34.5-1.7,42.8,0.3s6.5,20.6,6.5,36.6s3.2,29.2,3.2,29.2s-19.3,3.5-45.2,4.7
			c-26,1.2-50.5,0-62.3-3.2c-9.8-2.7-17.9-55.1-9.9-62C9.6,1,68.2,0.6,68.2,0.6"/>
	</g>
	<g>
		<defs>
			<rect id="SVGID_3_" width="120.7" height="72.1"/>
		</defs>
		<clipPath id="SVGID_4_">
			<use xlink:href="#SVGID_3_"  style="overflow:visible;"/>
		</clipPath>
		<path class="st1" d="M120.3,65.3c0-0.1,0-0.2,0-0.3c0-0.3-0.1-0.7-0.1-1c-0.1-0.7-0.2-1.4-0.3-2c-0.2-1.3-0.7-6.1-0.9-7.5
			c-0.1-0.7-1.5-0.6-1.4,0.1c0.1,1.3,0.4,6.1,0.5,7.5l0.2,2c0,0.3,0.1,0.7,0.1,1c0,0,0,0,0,0.1c-1.3,0-2.6,0.1-3.9,0.1
			c-1.8,0.1-9.2,0.4-10.9,0.5c-1,0.1-1,1.3,0.1,1.2c1.8-0.1,9.2-0.4,10.9-0.4c1.6,0,3.2,0,4.8,0.1c0.1,0,0.2,0,0.3,0
			c0.1,0,0.1,0,0.2,0c0.5,0,1-0.4,0.9-0.8C120.7,65.6,120.6,65.4,120.3,65.3"/>
	</g>
	<g>
		<defs>
			<rect id="SVGID_5_" width="120.7" height="72.1"/>
		</defs>
		<clipPath id="SVGID_6_">
			<use xlink:href="#SVGID_5_"  style="overflow:visible;"/>
		</clipPath>
		<path class="st2" d="M3.6,3.5c0,0.1,0,0.2,0,0.3c0,0.3,0,0.7,0.1,1c0,0.7,0.1,1.4,0.1,2c0.1,1.3,0.2,6.1,0.4,7.5
			c0.1,0.7,1.4,0.7,1.4,0c0-1.3,0-6.1,0-7.5v-2c0-0.3,0-0.7,0-1c0,0,0,0,0-0.1c1.3,0.1,2.6,0,3.9,0c1.8,0,9.2,0,11-0.1
			c1.1,0,1.1-1.2,0-1.2c-1.8,0-9.2,0-11,0c-1.6,0-3.2-0.2-4.8-0.2c-0.1,0-0.2,0-0.3,0c-0.1,0-0.1,0-0.2,0c-0.5,0-1,0.3-1,0.7
			C3.3,3.2,3.4,3.4,3.6,3.5"/>
	</g>
	<g>
		<defs>
			<rect id="SVGID_7_" width="120.7" height="72.1"/>
		</defs>
		<clipPath id="SVGID_8_">
			<use xlink:href="#SVGID_7_"  style="overflow:visible;"/>
		</clipPath>
	</g>
	<g>
		<defs>
			<rect id="SVGID_9_" width="120.7" height="72.1"/>
		</defs>
		<clipPath id="SVGID_10_">
			<use xlink:href="#SVGID_9_"  style="overflow:visible;"/>
		</clipPath>
	</g>
</g>
</svg>
