<?xml version="1.0" encoding="utf-8"?>
<!-- Generator: Adobe Illustrator 26.0.1, SVG Export Plug-In . SVG Version: 6.00 Build 0)  -->
<svg version="1.1" id="Layer_1" xmlns="http://www.w3.org/2000/svg" xmlns:xlink="http://www.w3.org/1999/xlink" x="0px" y="0px"
	 viewBox="0 0 438 579" style="enable-background:new 0 0 438 579;" xml:space="preserve">
<style type="text/css">
	.st0{fill:#FFFFFF;}
</style>
<g>
	<path class="st0" d="M366,560.4c-0.1,0-0.2,0-0.4-0.1c-0.5-0.2-0.8-0.8-0.6-1.3c0.6-1.6,1.3-3.5,2-5.5c0.2-0.5,0.8-0.8,1.3-0.6
		s0.8,0.8,0.6,1.3c-0.7,2.1-1.4,3.9-2,5.6C366.8,560.2,366.4,560.4,366,560.4L366,560.4z M369.3,551.2c-0.1,0-0.2,0-0.3-0.1
		c-0.5-0.2-0.8-0.7-0.6-1.3c0.6-1.8,1.2-3.6,1.9-5.6c0.2-0.5,0.7-0.8,1.3-0.6c0.5,0.2,0.8,0.7,0.6,1.3c-0.6,2-1.3,3.9-1.9,5.6
		C370.1,550.9,369.7,551.2,369.3,551.2L369.3,551.2z M372.3,541.8c-0.1,0-0.2,0-0.3,0c-0.5-0.2-0.8-0.7-0.7-1.3
		c0.6-1.8,1.1-3.7,1.7-5.6c0.2-0.5,0.7-0.8,1.2-0.7c0.5,0.2,0.8,0.7,0.7,1.2c-0.6,2-1.2,3.8-1.7,5.7
		C373.2,541.6,372.8,541.8,372.3,541.8L372.3,541.8z M375.1,532.4c-0.1,0-0.2,0-0.3,0c-0.5-0.1-0.8-0.7-0.7-1.2
		c0.5-1.9,1-3.7,1.6-5.7c0.1-0.5,0.7-0.8,1.2-0.7s0.9,0.7,0.7,1.2c-0.5,1.9-1,3.9-1.6,5.7C376,532.1,375.6,532.4,375.1,532.4
		L375.1,532.4z M377.7,522.9c-0.1,0-0.2,0-0.2,0c-0.5-0.1-0.9-0.7-0.7-1.2c0.5-1.9,0.9-3.8,1.4-5.7c0.1-0.5,0.7-0.9,1.2-0.7
		c0.5,0.1,0.9,0.7,0.7,1.2c-0.5,2-0.9,3.9-1.4,5.8C378.5,522.6,378.1,522.9,377.7,522.9L377.7,522.9z M380,513.4c-0.1,0-0.1,0-0.2,0
		c-0.5-0.1-0.9-0.7-0.8-1.2c0.4-1.9,0.8-3.8,1.2-5.8c0.1-0.5,0.6-0.9,1.2-0.8c0.5,0.1,0.9,0.6,0.8,1.2c-0.4,2-0.8,3.9-1.2,5.8
		C380.8,513.1,380.4,513.4,380,513.4L380,513.4z M381.9,503.8c-0.1,0-0.1,0-0.2,0c-0.5-0.1-0.9-0.6-0.8-1.2c0.4-1.9,0.7-3.9,1-5.8
		c0.1-0.5,0.6-0.9,1.1-0.8s0.9,0.6,0.8,1.1c-0.3,1.9-0.6,3.9-1,5.8C382.8,503.4,382.4,503.8,381.9,503.8L381.9,503.8z M383.5,494.1
		h-0.1c-0.5-0.1-0.9-0.6-0.8-1.1c0.3-2,0.5-3.9,0.8-5.8c0.1-0.5,0.6-0.9,1.1-0.9c0.5,0.1,0.9,0.6,0.9,1.1c-0.2,1.9-0.5,3.9-0.8,5.9
		C384.4,493.7,384,494.1,383.5,494.1L383.5,494.1z M384.7,484.3C384.7,484.3,384.6,484.3,384.7,484.3c-0.6-0.1-1-0.5-1-1.1
		c0.2-2,0.4-3.9,0.5-5.9c0-0.6,0.5-1,1.1-0.9c0.6,0,1,0.5,0.9,1.1c-0.1,1.9-0.3,3.9-0.5,5.9C385.6,483.9,385.2,484.3,384.7,484.3
		L384.7,484.3z M385.4,474.5L385.4,474.5c-0.6,0-1-0.5-1-1c0.1-2,0.1-4,0.2-5.9c0-0.5,0.5-1,1-1l0,0c0.6,0,1,0.5,1,1
		c0,1.9-0.1,3.9-0.2,5.9C386.4,474.1,385.9,474.5,385.4,474.5L385.4,474.5z M385.5,464.7c-0.5,0-1-0.4-1-1c0-2-0.1-3.9-0.3-5.9
		c0-0.6,0.4-1,0.9-1.1c0.5,0,1,0.4,1.1,0.9c0.1,1.9,0.2,3.9,0.3,6C386.5,464.2,386.1,464.7,385.5,464.7L385.5,464.7L385.5,464.7z
		 M385,454.9c-0.5,0-0.9-0.4-1-0.9c-0.2-2-0.4-3.9-0.7-5.8c-0.1-0.5,0.3-1.1,0.8-1.1c0.5-0.1,1.1,0.3,1.1,0.8
		c0.3,1.9,0.6,3.9,0.8,5.9C386.1,454.3,385.7,454.8,385,454.9L385,454.9L385,454.9z M383.5,445.2c-0.5,0-0.9-0.3-1-0.8
		c-0.4-1.9-0.8-3.9-1.3-5.7c-0.1-0.5,0.2-1.1,0.7-1.2s1.1,0.2,1.2,0.7c0.5,1.9,1,3.8,1.4,5.8c0.1,0.5-0.2,1.1-0.8,1.2
		C383.6,445.2,383.6,445.2,383.5,445.2L383.5,445.2z M381,435.7c-0.4,0-0.8-0.3-0.9-0.7c-0.6-1.9-1.3-3.7-2.1-5.4
		c-0.2-0.5,0-1.1,0.5-1.3c0.5-0.2,1.1,0,1.3,0.5c0.8,1.8,1.5,3.7,2.1,5.6c0.2,0.5-0.1,1.1-0.6,1.3
		C381.2,435.7,381.1,435.7,381,435.7L381,435.7z M377.2,426.7c-0.4,0-0.7-0.2-0.9-0.5c-0.9-1.7-1.9-3.4-2.9-5
		c-0.3-0.5-0.2-1.1,0.3-1.4s1.1-0.2,1.4,0.3c1.1,1.6,2.1,3.4,3,5.2c0.3,0.5,0.1,1.1-0.4,1.3C377.5,426.6,377.4,426.7,377.2,426.7
		L377.2,426.7z M371.9,418.4c-0.3,0-0.6-0.1-0.8-0.4c-1.2-1.5-2.5-3-3.8-4.3c-0.4-0.4-0.4-1,0-1.4s1-0.4,1.4,0
		c1.4,1.4,2.7,2.9,4,4.5c0.3,0.4,0.3,1.1-0.2,1.4C372.4,418.3,372.2,418.4,371.9,418.4L371.9,418.4z M365.2,411.3
		c-0.2,0-0.5-0.1-0.6-0.2c-1.5-1.2-3-2.4-4.6-3.4c-0.5-0.3-0.6-0.9-0.3-1.4c0.3-0.5,0.9-0.6,1.4-0.3c1.7,1.1,3.3,2.3,4.8,3.6
		c0.4,0.4,0.5,1,0.1,1.4C365.7,411.2,365.4,411.3,365.2,411.3L365.2,411.3z M357.1,405.8c-0.2,0-0.3,0-0.5-0.1
		c-1.7-0.9-3.4-1.7-5.2-2.5c-0.5-0.2-0.8-0.8-0.5-1.3c0.2-0.5,0.8-0.8,1.3-0.5c1.9,0.8,3.7,1.6,5.4,2.6c0.5,0.3,0.7,0.9,0.4,1.4
		C357.8,405.6,357.4,405.8,357.1,405.8L357.1,405.8z M348.1,401.9c-0.1,0-0.2,0-0.3-0.1c-1.8-0.6-3.7-1.1-5.6-1.6
		c-0.5-0.1-0.9-0.7-0.7-1.2c0.1-0.5,0.7-0.9,1.2-0.7c2,0.5,3.9,1,5.8,1.6c0.5,0.2,0.8,0.7,0.6,1.3
		C348.9,401.6,348.5,401.9,348.1,401.9L348.1,401.9z M338.6,399.5c-0.1,0-0.1,0-0.2,0c-1.9-0.3-3.8-0.6-5.8-0.8
		c-0.5-0.1-0.9-0.6-0.9-1.1c0.1-0.5,0.5-0.9,1.1-0.9c2,0.2,4,0.5,5.9,0.8c0.5,0.1,0.9,0.6,0.8,1.2
		C339.5,399.2,339.1,399.5,338.6,399.5L338.6,399.5z M328.9,398.3C328.9,398.3,328.8,398.3,328.9,398.3c-2-0.1-3.9-0.2-5.9-0.2
		c-0.6,0-1-0.5-1-1c0-0.6,0.5-1,1-1l0,0c2,0,4,0.1,6,0.2c0.6,0,1,0.5,0.9,1.1C329.8,397.9,329.4,398.3,328.9,398.3L328.9,398.3z"/>
</g>
<g>
	<path class="st0" d="M173.2,404.9h-2.5c-0.6,0-1-0.5-1-1c0-0.6,0.4-1,1-1l0,0h2.5c1.2,0,2.3,0,3.5,0l0,0c0.6,0,1,0.4,1,1
		s-0.4,1-1,1C175.5,404.9,174.4,404.9,173.2,404.9L173.2,404.9z M166.7,404.9L166.7,404.9c-2,0-4,0-6-0.1c-0.6,0-1-0.5-1-1
		c0-0.6,0.5-1,1-1c2,0,4,0,6,0.1c0.6,0,1,0.5,1,1S167.3,404.9,166.7,404.9L166.7,404.9z M180.6,404.9c-0.5,0-1-0.4-1-1s0.4-1,1-1
		c2,0,4,0,6-0.1c0.6,0,1,0.4,1,1s-0.4,1-1,1C184.6,404.8,182.6,404.8,180.6,404.9C180.7,404.9,180.6,404.9,180.6,404.9L180.6,404.9z
		 M190.6,404.7c-0.5,0-1-0.4-1-1s0.4-1,1-1c2,0,4-0.1,6-0.1c0.6,0,1,0.4,1,1s-0.4,1-1,1C194.6,404.7,192.6,404.7,190.6,404.7
		L190.6,404.7L190.6,404.7z M156.8,404.7L156.8,404.7c-2,0-4-0.1-6-0.1c-0.6,0-1-0.5-1-1c0-0.6,0.5-1,1-1c2,0.1,4,0.1,6,0.1
		c0.6,0,1,0.5,1,1C157.8,404.3,157.3,404.7,156.8,404.7L156.8,404.7z M200.5,404.5c-0.5,0-1-0.4-1-1s0.4-1,1-1c2,0,4-0.1,6-0.2
		c0.6,0,1,0.4,1,1s-0.4,1-1,1C204.5,404.4,202.5,404.5,200.5,404.5L200.5,404.5L200.5,404.5z M146.9,404.5
		C146.9,404.5,146.8,404.5,146.9,404.5c-2-0.1-4-0.1-6-0.2c-0.6,0-1-0.5-1-1c0-0.6,0.5-1,1-1c2,0.1,4,0.2,6,0.2c0.6,0,1,0.5,1,1
		C147.8,404.1,147.4,404.5,146.9,404.5L146.9,404.5z M210.5,404.2c-0.5,0-1-0.4-1-1s0.4-1,1-1c2-0.1,4-0.1,6-0.2c0.6,0,1,0.4,1,1
		s-0.4,1-1,1C214.5,404.1,212.5,404.2,210.5,404.2L210.5,404.2L210.5,404.2z M136.9,404.1L136.9,404.1c-2-0.1-4-0.2-6-0.3
		c-0.6,0-1-0.5-0.9-1.1c0-0.6,0.5-1,1.1-0.9c2,0.1,4,0.2,6,0.3c0.6,0,1,0.5,1,1C137.9,403.7,137.5,404.1,136.9,404.1L136.9,404.1z
		 M220.4,403.9c-0.5,0-1-0.4-1-1s0.4-1,1-1c2-0.1,4-0.2,6-0.2c0.5,0,1,0.4,1,1s-0.4,1-1,1C224.4,403.7,222.4,403.8,220.4,403.9
		L220.4,403.9L220.4,403.9z M127,403.5L127,403.5c-2.1-0.1-4.1-0.3-6-0.4c-0.6,0-1-0.5-0.9-1.1c0-0.6,0.5-1,1.1-0.9
		c2,0.1,3.9,0.3,5.9,0.4c0.6,0,1,0.5,0.9,1.1C128,403.1,127.5,403.5,127,403.5L127,403.5z M230.3,403.5c-0.5,0-1-0.4-1-1s0.4-1,1-1
		c2-0.1,4-0.2,5.9-0.3c0.5,0,1,0.4,1,1s-0.4,1-0.9,1C234.3,403.3,232.3,403.4,230.3,403.5L230.3,403.5L230.3,403.5z M240.2,403
		c-0.5,0-1-0.4-1-0.9c0-0.6,0.4-1,0.9-1c2-0.1,4-0.2,6-0.3c0.5,0,1,0.4,1.1,0.9c0,0.6-0.4,1-0.9,1.1
		C244.2,402.8,242.2,402.9,240.2,403L240.2,403L240.2,403z M117.1,402.8C117.1,402.8,117,402.8,117.1,402.8c-2.1-0.2-4.1-0.4-6-0.5
		c-0.5-0.1-1-0.5-0.9-1.1s0.5-1,1.1-0.9c2,0.2,3.9,0.4,5.9,0.5c0.5,0,1,0.5,0.9,1.1C118.1,402.4,117.6,402.8,117.1,402.8
		L117.1,402.8z M250.1,402.5c-0.5,0-1-0.4-1-0.9c0-0.6,0.4-1,0.9-1.1c2-0.1,4-0.2,6-0.3c0.5,0,1,0.4,1.1,0.9c0,0.6-0.4,1-0.9,1.1
		C254.2,402.3,252.2,402.4,250.1,402.5C250.2,402.5,250.1,402.5,250.1,402.5L250.1,402.5z M260,401.9c-0.5,0-1-0.4-1-0.9
		c0-0.6,0.4-1,0.9-1.1l6-0.4c0.6,0,1,0.4,1.1,0.9c0,0.6-0.4,1-0.9,1.1L260,401.9C260.1,401.9,260.1,401.9,260,401.9L260,401.9z
		 M107.2,401.9L107.2,401.9c-2.1-0.2-4.1-0.4-6-0.7c-0.5-0.1-0.9-0.6-0.9-1.1c0.1-0.5,0.6-0.9,1.1-0.9c2,0.2,3.9,0.5,5.9,0.7
		c0.5,0.1,0.9,0.6,0.9,1.1C108.1,401.5,107.7,401.9,107.2,401.9L107.2,401.9z M270,401.3c-0.5,0-1-0.4-1-0.9c0-0.6,0.4-1,0.9-1.1
		l6-0.4c0.5,0,1,0.4,1.1,0.9c0,0.6-0.4,1-0.9,1.1L270,401.3L270,401.3L270,401.3z M279.9,400.7c-0.5,0-1-0.4-1-0.9
		c0-0.6,0.4-1,0.9-1.1l6-0.4c0.5,0,1,0.4,1.1,0.9c0,0.6-0.4,1-0.9,1.1L279.9,400.7L279.9,400.7L279.9,400.7z M97.3,400.7L97.3,400.7
		c-2.1-0.3-4.1-0.5-6-0.8c-0.5-0.1-0.9-0.6-0.8-1.1s0.6-0.9,1.1-0.8c1.9,0.3,3.9,0.6,5.9,0.8c0.5,0.1,0.9,0.6,0.9,1.1
		C98.3,400.3,97.8,400.7,97.3,400.7L97.3,400.7z M289.8,400.1c-0.5,0-1-0.4-1-0.9c0-0.6,0.4-1,0.9-1.1l6-0.4c0.6,0,1,0.4,1.1,0.9
		c0,0.6-0.4,1-0.9,1.1L289.8,400.1L289.8,400.1L289.8,400.1z M299.7,399.4c-0.5,0-1-0.4-1-0.9c0-0.6,0.4-1,0.9-1.1l6-0.4
		c0.6,0,1,0.4,1.1,0.9c0,0.6-0.4,1-0.9,1.1L299.7,399.4C299.8,399.4,299.7,399.4,299.7,399.4L299.7,399.4z M87.5,399.3
		c-0.1,0-0.1,0-0.2,0c-2-0.3-4-0.7-5.9-1c-0.5-0.1-0.9-0.6-0.8-1.2c0.1-0.5,0.6-0.9,1.2-0.8c1.9,0.4,3.9,0.7,5.9,1
		c0.5,0.1,0.9,0.6,0.8,1.1S88,399.3,87.5,399.3L87.5,399.3z M77.7,397.5c-0.1,0-0.1,0-0.2,0c-2-0.4-4-0.8-5.9-1.3
		c-0.5-0.1-0.9-0.7-0.7-1.2c0.1-0.5,0.7-0.9,1.2-0.7c1.9,0.4,3.8,0.9,5.8,1.3c0.5,0.1,0.9,0.6,0.8,1.2
		C78.6,397.1,78.2,397.5,77.7,397.5L77.7,397.5z M68.1,395.2c-0.1,0-0.2,0-0.2,0c-2-0.5-3.9-1-5.8-1.6c-0.5-0.2-0.8-0.7-0.7-1.2
		c0.2-0.5,0.7-0.8,1.2-0.7c1.8,0.5,3.8,1.1,5.7,1.6c0.5,0.1,0.9,0.7,0.7,1.2C68.9,394.9,68.5,395.2,68.1,395.2L68.1,395.2z
		 M58.5,392.5c-0.1,0-0.2,0-0.3,0c-2-0.6-3.9-1.3-5.7-2c-0.5-0.2-0.8-0.8-0.6-1.3s0.8-0.8,1.3-0.6c1.8,0.7,3.7,1.3,5.6,1.9
		c0.5,0.2,0.8,0.7,0.6,1.3C59.3,392.2,58.9,392.5,58.5,392.5L58.5,392.5z M49.2,389.1c-0.1,0-0.3,0-0.4-0.1
		c-1.9-0.8-3.8-1.6-5.5-2.5c-0.5-0.2-0.7-0.8-0.5-1.3s0.8-0.7,1.3-0.5c1.7,0.8,3.5,1.6,5.4,2.4c0.5,0.2,0.8,0.8,0.5,1.3
		C49.9,388.9,49.6,389.1,49.2,389.1L49.2,389.1z M40.2,384.9c-0.2,0-0.3,0-0.5-0.1c-1.8-1-3.6-2-5.2-3.1c-0.5-0.3-0.6-0.9-0.3-1.4
		s0.9-0.6,1.4-0.3c1.6,1,3.3,2.1,5,3c0.5,0.3,0.7,0.9,0.4,1.4C40.9,384.7,40.5,384.9,40.2,384.9L40.2,384.9z M31.9,379.5
		c-0.2,0-0.4-0.1-0.6-0.2c-1.7-1.3-3.2-2.6-4.6-4c-0.4-0.4-0.4-1,0-1.4s1-0.4,1.4,0c1.3,1.3,2.8,2.6,4.4,3.8c0.4,0.3,0.5,1,0.2,1.4
		C32.5,379.4,32.2,379.5,31.9,379.5L31.9,379.5z M24.7,372.7c-0.3,0-0.6-0.1-0.8-0.4c-1.3-1.6-2.5-3.3-3.5-5
		c-0.3-0.5-0.1-1.1,0.4-1.4s1.1-0.1,1.4,0.4c0.9,1.6,2.1,3.2,3.3,4.7c0.4,0.4,0.3,1.1-0.1,1.4C25.1,372.6,24.9,372.7,24.7,372.7
		L24.7,372.7z M19.5,364.4c-0.4,0-0.8-0.2-0.9-0.6c-0.8-1.9-1.4-3.8-1.9-5.8c-0.1-0.5,0.2-1.1,0.8-1.2c0.5-0.1,1.1,0.2,1.2,0.8
		c0.4,1.9,1,3.7,1.8,5.5c0.2,0.5,0,1.1-0.5,1.3C19.7,364.3,19.6,364.4,19.5,364.4L19.5,364.4z M17,354.8c-0.5,0-0.9-0.4-1-0.9
		c-0.1-1.2-0.2-2.5-0.2-3.8c0-0.8,0-1.5,0.1-2.3c0-0.6,0.5-1,1.1-0.9c0.6,0,1,0.5,0.9,1.1c0,0.7-0.1,1.5-0.1,2.2
		c0,1.2,0.1,2.4,0.2,3.6c0.1,0.6-0.3,1-0.9,1.1C17,354.8,17,354.8,17,354.8L17,354.8z M17.3,344.9c0,0-0.1,0-0.2,0
		c-0.5-0.1-0.9-0.6-0.8-1.1c0.3-1.9,0.7-3.9,1.3-5.9c0.1-0.5,0.7-0.9,1.2-0.7c0.5,0.1,0.8,0.7,0.7,1.2c-0.5,1.9-0.9,3.9-1.2,5.7
		C18.2,344.6,17.7,344.9,17.3,344.9L17.3,344.9z M19.7,335.3c-0.1,0-0.2,0-0.3-0.1c-0.5-0.2-0.8-0.7-0.6-1.3
		c0.6-1.8,1.4-3.7,2.2-5.6c0.2-0.5,0.8-0.7,1.3-0.5s0.7,0.8,0.5,1.3c-0.8,1.9-1.5,3.7-2.1,5.5C20.5,335,20.1,335.3,19.7,335.3
		L19.7,335.3z M23.5,326.2c-0.1,0-0.3,0-0.4-0.1c-0.5-0.2-0.7-0.8-0.5-1.3c0.9-1.7,1.8-3.5,2.8-5.3c0.3-0.5,0.9-0.6,1.4-0.4
		c0.5,0.3,0.6,0.9,0.4,1.4c-1,1.8-1.9,3.5-2.8,5.2C24.2,326,23.9,326.2,23.5,326.2L23.5,326.2z M28.3,317.5c-0.2,0-0.4,0-0.5-0.1
		c-0.5-0.3-0.6-0.9-0.3-1.4c1-1.7,2.1-3.4,3.3-5.1c0.3-0.5,0.9-0.6,1.4-0.3c0.5,0.3,0.6,0.9,0.3,1.4c-1.1,1.7-2.2,3.3-3.2,5
		C29,317.3,28.7,317.5,28.3,317.5L28.3,317.5z M309,398.9c-0.5,0-0.8-0.4-0.9-0.9c0-0.6,0.3-1,0.8-1.1l5.3-0.4
		c0.5,0,0.9,0.4,0.9,0.9c0,0.6-0.3,1-0.8,1.1L309,398.9L309,398.9L309,398.9z M316.4,398.3c-0.4,0-0.6-0.4-0.6-1s0.3-1,0.7-1
		l4.2-0.1c0.4,0,0.7,0.4,0.7,1s-0.3,1-0.7,1L316.4,398.3C316.5,398.3,316.5,398.3,316.4,398.3L316.4,398.3z M75.5,292.4
		c0.4,0.2,0.6,0.4,0.5,0.9c0.1,0.6-0.4,1-1,1c-2.1,0-4,0.1-5.9,0.2c-0.5,0-1-0.4-1-1c0-0.5,0.4-1,1-1c1.9-0.2,4-0.2,6-0.2
		C75.3,292.3,75.4,292.4,75.5,292.4L75.5,292.4z M85.4,292.2c0.4,0.2,0.6,0.5,0.5,1c0.1,0.6-0.4,1-1,1c-2.1,0-4,0-5.9,0.1
		c-0.5,0-1-0.4-1-1c0-0.5,0.4-1,1-1c1.9-0.2,4-0.2,6-0.2C85.1,292,85.3,292.1,85.4,292.2L85.4,292.2z M94.9,292.7
		c0.4,0.2,0.5,0.5,0.4,1c0,0.6-0.5,1-1,0.9c-2.1-0.2-4-0.3-5.9-0.3c-0.5,0-1-0.5-0.9-1c0-0.5,0.5-1,1-0.9c1.9,0,4,0.1,6,0.3
		C94.7,292.5,94.9,292.6,94.9,292.7L94.9,292.7z M104.3,293.1c0.4,0.2,0.5,0.5,0.4,1c0,0.6-0.5,1-1,0.9c-2.1-0.2-4-0.3-5.9-0.3
		c-0.5,0-1-0.5-0.9-1c0-0.5,0.5-1,1-0.9c1.9,0,4,0.1,6,0.3C104.1,293,104.3,293.1,104.3,293.1L104.3,293.1z M114.3,293.5
		c0.4,0.2,0.5,0.5,0.4,1c0,0.6-0.5,1-1,0.9c-2.1-0.2-4-0.3-5.9-0.3c-0.5,0-1-0.5-0.9-1s0.5-1,1-0.9c1.9,0,4,0.1,6,0.3
		C114,293.4,114.2,293.5,114.3,293.5L114.3,293.5z M135,294c0.4,0.2,0.5,0.5,0.4,1c0,0.6-0.5,1-1,0.9c-2.1-0.1-4-0.2-5.9-0.2
		c-0.5,0-1-0.5-0.9-1c0-0.5,0.5-1,1-0.9c1.9-0.1,4,0.1,6,0.2C134.7,293.8,134.9,293.9,135,294L135,294z M125.6,293.7
		c0.4,0.2,0.5,0.5,0.4,1c0,0.6-0.5,1-1,0.9c-2.1-0.1-4-0.2-5.9-0.2c-0.5,0-1-0.5-0.9-1s0.5-1,1-0.9c1.9-0.1,4,0.1,6,0.2
		C125.3,293.6,125.5,293.7,125.6,293.7L125.6,293.7z M65.8,292.9c0.3,0.1,0.5,0.5,0.5,0.8c0,0.6-0.4,1-1,1.1
		c-1.9,0.1-3.9,0.3-5.8,0.5c-0.6,0-1.1-0.3-1.1-0.9c0-0.6,0.3-1.1,0.9-1.1c1.9-0.3,4-0.4,6-0.5C65.5,292.7,65.6,292.8,65.8,292.9
		L65.8,292.9z M56.1,294.6c0.1,0.1,0.2,0.3,0.3,0.7c0.1,0.5-0.3,1.1-0.9,1.1c-1.9,0.3-3.9,0.7-5.6,1.3c-0.6,0.2-1.1-0.1-1.3-0.6
		c-0.2-0.6,0.1-1.1,0.6-1.3c1.9-0.6,3.9-1.1,5.9-1.4C55.5,294.3,55.8,294.4,56.1,294.6L56.1,294.6z M46.6,297.3
		c0.1,0.1,0.1,0.2,0.4,0.3c0.2,0.5,0,1.1-0.5,1.3c-1.8,0.8-3.4,1.8-5,2.9c-0.5,0.4-1.1,0.2-1.4-0.2c-0.4-0.5-0.2-1.1,0.2-1.4
		c1.7-1.2,3.4-2.2,5.3-3.1C45.9,296.9,46.4,297,46.6,297.3L46.6,297.3z M38.4,302.8c0,0,0,0,0.1,0c0.4,0.5,0.4,1-0.1,1.4
		c-0.9,0.8-1.7,1.7-2.5,2.6c-0.5,0.5-0.9,1.2-1.4,1.7c-0.3,0.5-1,0.6-1.4,0.2c-0.5-0.3-0.6-1-0.2-1.4c0.5-0.7,0.9-1.2,1.5-1.8
		c0.9-1,1.8-1.9,2.7-2.7C37.5,302.5,38,302.5,38.4,302.8L38.4,302.8z"/>
</g>
<g>
	<path class="st0" d="M362.9,568.4c-0.1,0-0.3,0-0.4-0.1c-0.5-0.2-0.7-0.8-0.5-1.3c0,0,0.5-1.2,1.4-3.4c0.2-0.5,0.8-0.8,1.3-0.6
		s0.8,0.8,0.6,1.3c-0.9,2.2-1.4,3.4-1.4,3.4C363.6,568.1,363.2,568.4,362.9,568.4L362.9,568.4z"/>
</g>
<g>
	<path class="st0" d="M200.7,297.4h-1.2c-0.6,0-1-0.4-1-1s0.4-1,1-1h1.2c1.6,0,3.2,0,4.8,0l0,0c0.6,0,1,0.4,1,1s-0.4,1-1,1
		C204,297.4,202.3,297.4,200.7,297.4L200.7,297.4z M195.5,297.4L195.5,297.4c-2.1,0-4.1,0-6.1,0c-0.6,0-1-0.5-1-1c0-0.6,0.5-1,1-1
		l0,0c2,0,4,0,6,0c0.6,0,1,0.4,1,1C196.5,296.9,196,297.4,195.5,297.4L195.5,297.4z M209.6,297.3c-0.5,0-1-0.4-1-1s0.4-1,1-1
		c2,0,4,0,6.1-0.1l0,0c0.5,0,1,0.4,1,1s-0.4,1-1,1C213.7,297.3,211.6,297.3,209.6,297.3L209.6,297.3L209.6,297.3z M185.4,297.3
		L185.4,297.3c-2.1,0-4.1-0.1-6.1-0.1c-0.6,0-1-0.5-1-1c0-0.6,0.5-1,1-1c2,0,4,0.1,6,0.1c0.6,0,1,0.5,1,1
		C186.4,296.8,185.9,297.3,185.4,297.3L185.4,297.3z M219.7,297.2c-0.5,0-1-0.4-1-1s0.4-1,1-1c2,0,4-0.1,6.1-0.1c0.6,0,1,0.4,1,1
		s-0.4,1-1,1C223.8,297.2,221.8,297.2,219.7,297.2C219.8,297.2,219.7,297.2,219.7,297.2L219.7,297.2z M175.3,297.1L175.3,297.1
		c-2.1,0-4.1-0.1-6.1-0.1c-0.6,0-1-0.5-1-1c0-0.6,0.5-1,1-1c2,0,4,0.1,6,0.1c0.6,0,1,0.5,1,1C176.3,296.7,175.8,297.1,175.3,297.1
		L175.3,297.1z M229.9,297c-0.5,0-1-0.4-1-1s0.4-1,1-1c2-0.1,4-0.1,6.1-0.2l0,0c0.5,0,1,0.4,1,1s-0.4,1-1,1
		C233.9,296.9,231.9,297,229.9,297L229.9,297L229.9,297z M165.2,296.9C165.2,296.9,165.1,296.9,165.2,296.9
		c-2.1-0.1-4.1-0.1-6.1-0.2c-0.6,0-1-0.5-1-1c0-0.6,0.5-1,1-1c1.9,0.1,4,0.1,6,0.2c0.6,0,1,0.5,1,1
		C166.2,296.5,165.7,296.9,165.2,296.9L165.2,296.9z M240,296.7c-0.5,0-1-0.4-1-1s0.4-1,1-1c2-0.1,4-0.1,6-0.2c0.5,0,1,0.4,1,1
		s-0.4,1-1,1C244,296.6,242,296.7,240,296.7L240,296.7L240,296.7z M155.1,296.6C155.1,296.6,155,296.6,155.1,296.6
		c-2.2-0.1-4.2-0.1-6.1-0.2c-0.6,0-1-0.5-1-1c0-0.6,0.5-1,1-1c1.9,0.1,3.9,0.1,6,0.2c0.6,0,1,0.5,1,1
		C156,296.2,155.6,296.6,155.1,296.6L155.1,296.6z M250.1,296.3c-0.5,0-1-0.4-1-1s0.4-1,1-1c2-0.1,4-0.2,6-0.3c0.5,0,1,0.4,1,0.9
		c0,0.6-0.4,1-0.9,1.1C254.1,296.2,252.1,296.3,250.1,296.3L250.1,296.3L250.1,296.3z M145,296.2C145,296.2,144.9,296.2,145,296.2
		c-2.3-0.1-4.3-0.2-6.1-0.3c-0.6,0-1-0.5-1-1c0-0.6,0.5-1,1-1c1.8,0.1,3.8,0.2,6,0.3c0.6,0,1,0.5,1,1
		C145.9,295.8,145.5,296.2,145,296.2L145,296.2z M260.1,295.9c-0.5,0-1-0.4-1-0.9c0-0.6,0.4-1,0.9-1.1c2-0.1,4-0.2,6-0.4
		c0.6,0,1,0.4,1.1,0.9c0,0.6-0.4,1-0.9,1.1C264.2,295.6,262.2,295.7,260.1,295.9C260.2,295.9,260.2,295.9,260.1,295.9L260.1,295.9z
		 M270.2,295.2c-0.5,0-1-0.4-1-0.9c0-0.6,0.4-1,0.9-1.1c2-0.1,4-0.3,6-0.4c0.5,0,1,0.4,1.1,0.9c0,0.6-0.4,1-0.9,1.1
		C274.3,295,272.3,295.1,270.2,295.2C270.3,295.2,270.3,295.2,270.2,295.2L270.2,295.2z M280.3,294.5c-0.5,0-1-0.4-1-0.9
		c0-0.6,0.4-1,0.9-1.1c2-0.2,4-0.3,6-0.5c0.5-0.1,1,0.4,1.1,0.9c0,0.6-0.4,1-0.9,1.1C284.4,294.2,282.4,294.4,280.3,294.5
		C280.4,294.5,280.4,294.5,280.3,294.5L280.3,294.5z M290.4,293.7c-0.5,0-0.9-0.4-1-0.9s0.4-1,0.9-1.1c2-0.2,4-0.4,6-0.6
		c0.5,0,1,0.3,1.1,0.9c0.1,0.5-0.3,1-0.9,1.1C294.5,293.3,292.5,293.5,290.4,293.7C290.5,293.7,290.4,293.7,290.4,293.7L290.4,293.7
		z M300.5,292.6c-0.5,0-0.9-0.4-1-0.9s0.3-1,0.9-1.1c2-0.2,4-0.4,6-0.7c0.5-0.1,1,0.3,1.1,0.9c0.1,0.5-0.3,1-0.9,1.1
		c-2,0.2-4,0.5-6,0.7C300.5,292.6,300.5,292.6,300.5,292.6L300.5,292.6z M310.5,291.5c-0.5,0-0.9-0.4-1-0.9s0.3-1,0.9-1.1
		c2-0.3,4-0.5,6-0.8c0.5-0.1,1.1,0.3,1.1,0.9c0.1,0.5-0.3,1.1-0.9,1.1c-2,0.3-4,0.5-6,0.8H310.5L310.5,291.5z M320.5,290.1
		c-0.5,0-0.9-0.4-1-0.9s0.3-1.1,0.8-1.1c2-0.3,4-0.6,6-0.9c0.5-0.1,1.1,0.3,1.1,0.8c0.1,0.5-0.3,1.1-0.8,1.1c-2,0.3-4,0.6-6,0.9
		C320.6,290.1,320.6,290.1,320.5,290.1L320.5,290.1z M330.5,288.5c-0.5,0-0.9-0.3-1-0.8s0.3-1.1,0.8-1.2c2-0.3,4-0.7,5.9-1.1
		c0.5-0.1,1.1,0.3,1.2,0.8s-0.3,1.1-0.8,1.2c-2,0.4-4,0.7-6,1.1C330.6,288.5,330.6,288.5,330.5,288.5L330.5,288.5z M340.4,286.7
		c-0.5,0-0.9-0.3-1-0.8s0.2-1.1,0.8-1.2c2-0.4,4-0.8,5.9-1.2c0.5-0.1,1.1,0.2,1.2,0.8c0.1,0.5-0.2,1.1-0.8,1.2
		c-2,0.4-3.9,0.8-5.9,1.2C340.6,286.7,340.5,286.7,340.4,286.7L340.4,286.7z M350.3,284.6c-0.5,0-0.9-0.3-1-0.8s0.2-1.1,0.7-1.2
		c2-0.5,4-0.9,5.9-1.4c0.5-0.1,1.1,0.2,1.2,0.7s-0.2,1.1-0.7,1.2c-1.9,0.5-3.9,1-5.9,1.4C350.5,284.5,350.4,284.6,350.3,284.6
		L350.3,284.6z M360.1,282.1c-0.4,0-0.8-0.3-1-0.7c-0.1-0.5,0.2-1.1,0.7-1.2c2-0.5,3.9-1.1,5.8-1.7c0.5-0.2,1.1,0.1,1.2,0.7
		c0.2,0.5-0.1,1.1-0.7,1.2c-1.9,0.6-3.9,1.1-5.8,1.7C360.3,282.1,360.2,282.1,360.1,282.1L360.1,282.1z M369.8,279.2
		c-0.4,0-0.8-0.3-1-0.7c-0.2-0.5,0.1-1.1,0.6-1.3c2-0.6,3.9-1.3,5.7-2c0.5-0.2,1.1,0.1,1.3,0.6c0.2,0.5-0.1,1.1-0.6,1.3
		c-1.8,0.7-3.8,1.3-5.8,2C370,279.2,369.9,279.2,369.8,279.2L369.8,279.2z M379.3,275.8c-0.4,0-0.8-0.2-0.9-0.6
		c-0.2-0.5,0-1.1,0.6-1.3c1.9-0.8,3.8-1.5,5.5-2.3c0.5-0.2,1.1,0,1.3,0.5c0.2,0.5,0,1.1-0.5,1.3c-1.8,0.8-3.7,1.6-5.6,2.4
		C379.6,275.7,379.5,275.8,379.3,275.8L379.3,275.8z M388.6,271.7c-0.4,0-0.7-0.2-0.9-0.6c-0.2-0.5,0-1.1,0.4-1.3
		c1.8-0.9,3.6-1.9,5.3-2.8c0.5-0.3,1.1-0.1,1.4,0.4s0.1,1.1-0.4,1.4c-1.7,1-3.5,2-5.4,2.9C388.9,271.6,388.7,271.7,388.6,271.7
		L388.6,271.7z M397.3,266.7c-0.3,0-0.6-0.2-0.8-0.5c-0.3-0.5-0.2-1.1,0.3-1.4c1.7-1.1,3.3-2.3,4.8-3.5c0.4-0.3,1.1-0.3,1.4,0.2
		c0.3,0.4,0.3,1.1-0.2,1.4c-1.5,1.2-3.2,2.4-5,3.6C397.7,266.6,397.5,266.7,397.3,266.7L397.3,266.7z M405.2,260.5
		c-0.3,0-0.5-0.1-0.7-0.3c-0.4-0.4-0.4-1,0-1.4c1.5-1.4,2.8-2.9,4-4.3c0.3-0.4,1-0.5,1.4-0.2s0.5,1,0.2,1.4
		c-1.2,1.5-2.6,3.1-4.2,4.5C405.7,260.4,405.5,260.5,405.2,260.5L405.2,260.5z M411.6,252.7c-0.2,0-0.4,0-0.5-0.1
		c-0.5-0.3-0.6-0.9-0.3-1.4c1-1.7,1.9-3.4,2.5-5.2c0.2-0.5,0.8-0.8,1.3-0.6s0.8,0.8,0.6,1.3c-0.7,1.9-1.6,3.8-2.7,5.6
		C412.3,252.6,412,252.7,411.6,252.7L411.6,252.7z M415.4,243.5c-0.1,0-0.1,0-0.2,0c-0.5-0.1-0.9-0.6-0.8-1.2
		c0.4-1.7,0.6-3.6,0.6-5.4c0-0.5,0.5-1,1-1l0,0c0.6,0,1,0.5,1,1c0,2-0.2,3.9-0.6,5.8C416.3,243.2,415.8,243.5,415.4,243.5
		L415.4,243.5z"/>
	<path class="st0" d="M414.2,225.1c0.3,0.1,0.5,0.3,0.7,0.6c0.8,1.9,1.5,3.9,1.9,5.8c0.1,0.6-0.2,1.1-0.8,1.2s-1.1-0.2-1.2-0.8
		c-0.4-1.8-1.1-3.7-1.8-5.4c-0.3-0.5,0-1.1,0.5-1.3C413.7,225.1,414,225.1,414.2,225.1L414.2,225.1z"/>
</g>
<g>
	<path class="st0" d="M412.7,223.4c-0.4,0-0.7-0.2-0.9-0.5c-0.9-1.7-2-3.3-3.2-4.9c-0.4-0.4-0.3-1.1,0.1-1.4
		c0.4-0.4,1.1-0.3,1.4,0.1c1.3,1.6,2.5,3.4,3.4,5.2c0.3,0.5,0.1,1.1-0.4,1.3C413,223.3,412.9,223.4,412.7,223.4L412.7,223.4z
		 M406.6,215.4c-0.2,0-0.5-0.1-0.7-0.3c-1.4-1.3-2.9-2.5-4.6-3.6c-0.5-0.3-0.6-0.9-0.3-1.4c0.3-0.5,0.9-0.6,1.4-0.3
		c1.8,1.2,3.4,2.5,4.9,3.8c0.4,0.4,0.4,1,0,1.4C407.2,215.3,406.9,215.4,406.6,215.4L406.6,215.4z M124.6,212.6c-1.1,0-2.1,0-3.1,0
		c-0.6,0-1-0.5-1-1c0-0.6,0.5-1,1-1c2,0,4,0,6,0l0,0c0.5,0,1,0.4,1,1s-0.4,1-1,1C126.5,212.6,125.5,212.6,124.6,212.6L124.6,212.6z
		 M131.5,212.5c-0.5,0-1-0.4-1-1s0.4-1,1-1c2,0,4-0.1,6-0.1c0.5,0,1,0.4,1,1s-0.4,1-1,1C135.6,212.5,133.5,212.5,131.5,212.5
		L131.5,212.5L131.5,212.5z M117.4,212.5L117.4,212.5c-2.1,0-4.1-0.1-6.1-0.2c-0.6,0-1-0.5-1-1c0-0.6,0.5-1,1-1c2,0.1,4,0.1,6,0.2
		c0.6,0,1,0.5,1,1C118.4,212.1,117.9,212.5,117.4,212.5L117.4,212.5z M141.6,212.3c-0.5,0-1-0.4-1-1s0.4-1,1-1c2-0.1,4-0.2,6-0.2
		c0.6,0,1,0.4,1,1s-0.4,1-1,1C145.7,212.1,143.7,212.2,141.6,212.3C141.7,212.3,141.7,212.3,141.6,212.3L141.6,212.3z M107.3,212.2
		C107.2,212.2,107.2,212.2,107.3,212.2c-2.1-0.1-4.2-0.3-6.1-0.4c-0.5,0-1-0.5-0.9-1.1c0-0.6,0.5-1,1.1-0.9c1.9,0.2,4,0.3,6,0.4
		c0.6,0,1,0.5,0.9,1.1C108.2,211.8,107.8,212.2,107.3,212.2L107.3,212.2z M151.7,211.8c-0.5,0-1-0.4-1-0.9c0-0.6,0.4-1,0.9-1
		c2-0.1,4-0.2,6-0.3c0.5,0,1,0.4,1.1,0.9c0,0.6-0.4,1-0.9,1.1C155.8,211.6,153.8,211.7,151.7,211.8
		C151.8,211.8,151.8,211.8,151.7,211.8L151.7,211.8z M97.2,211.4L97.2,211.4c-2.2-0.2-4.2-0.5-6.1-0.7c-0.5-0.1-0.9-0.6-0.9-1.1
		c0.1-0.5,0.6-0.9,1.1-0.9c1.9,0.3,3.9,0.5,6,0.7c0.5,0.1,1,0.5,0.9,1.1C98.1,211,97.7,211.4,97.2,211.4L97.2,211.4z M161.8,211.2
		c-0.5,0-1-0.4-1-0.9c0-0.6,0.4-1,0.9-1.1c2-0.1,4-0.3,6-0.4c0.6,0,1,0.4,1.1,0.9c0,0.6-0.4,1-0.9,1.1
		C165.9,211,163.9,211.1,161.8,211.2C161.9,211.2,161.9,211.2,161.8,211.2L161.8,211.2z M171.9,210.5c-0.5,0-1-0.4-1-0.9
		c0-0.6,0.4-1,0.9-1.1c2-0.1,4-0.3,6-0.5c0.6,0,1,0.4,1.1,0.9c0,0.5-0.4,1-0.9,1.1C176,210.2,174,210.4,171.9,210.5
		C172,210.5,172,210.5,171.9,210.5L171.9,210.5z M87.2,210.1c-0.1,0-0.1,0-0.2,0c-2.1-0.3-4.1-0.7-6-1.1c-0.5-0.1-0.9-0.7-0.8-1.2
		s0.7-0.9,1.2-0.8c1.9,0.4,3.9,0.8,5.9,1.1c0.5,0.1,0.9,0.6,0.8,1.1C88.1,209.7,87.6,210.1,87.2,210.1L87.2,210.1z M182,209.8
		c-0.5,0-1-0.4-1-0.9s0.4-1,0.9-1.1c2-0.2,4-0.3,6-0.5c0.5-0.1,1,0.4,1.1,0.9c0,0.5-0.4,1-0.9,1.1
		C186.1,209.4,184.1,209.6,182,209.8C182.1,209.7,182,209.8,182,209.8L182,209.8z M398.4,209.5c-0.2,0-0.3,0-0.5-0.1
		c-1.7-0.9-3.5-1.8-5.4-2.6c-0.5-0.2-0.8-0.8-0.5-1.3c0.2-0.5,0.8-0.8,1.3-0.5c2,0.8,3.8,1.7,5.6,2.7c0.5,0.3,0.7,0.9,0.4,1.4
		C399.1,209.3,398.8,209.5,398.4,209.5L398.4,209.5z M192.1,208.9c-0.5,0-0.9-0.4-1-0.9c0-0.6,0.4-1,0.9-1.1c2-0.2,4-0.4,6-0.5
		c0.6,0,1,0.4,1.1,0.9s-0.4,1-0.9,1.1C196.2,208.5,194.2,208.7,192.1,208.9C192.2,208.9,192.1,208.9,192.1,208.9L192.1,208.9z
		 M77.3,208c-0.1,0-0.2,0-0.3,0c-2.1-0.5-4-1.1-5.9-1.8c-0.5-0.2-0.8-0.7-0.6-1.3c0.2-0.5,0.7-0.8,1.3-0.6c1.8,0.6,3.7,1.2,5.7,1.7
		c0.5,0.1,0.9,0.7,0.7,1.2C78.1,207.7,77.7,208,77.3,208L77.3,208z M202.2,208c-0.5,0-0.9-0.4-1-0.9s0.4-1,0.9-1.1
		c2-0.2,4-0.4,6-0.6c0.5-0.1,1,0.4,1.1,0.9s-0.4,1-0.9,1.1C206.3,207.6,204.3,207.8,202.2,208L202.2,208L202.2,208z M212.2,207
		c-0.5,0-0.9-0.4-1-0.9s0.4-1,0.9-1.1l6-0.6c0.5-0.1,1,0.3,1.1,0.9c0.1,0.5-0.3,1-0.9,1.1L212.2,207C212.3,207,212.3,207,212.2,207
		L212.2,207z M222.3,206.1c-0.5,0-0.9-0.4-1-0.9s0.3-1,0.9-1.1l6-0.6c0.6-0.1,1,0.3,1.1,0.9c0.1,0.5-0.3,1-0.9,1.1L222.3,206.1
		C222.4,206.1,222.4,206.1,222.3,206.1L222.3,206.1z M389.2,205.5c-0.1,0-0.2,0-0.3-0.1c-1.8-0.6-3.7-1.2-5.7-1.8
		c-0.5-0.1-0.8-0.7-0.7-1.2c0.1-0.5,0.7-0.8,1.2-0.7c2,0.6,4,1.2,5.9,1.8c0.5,0.2,0.8,0.8,0.6,1.3
		C390,205.2,389.6,205.5,389.2,205.5L389.2,205.5z M232.4,205.1c-0.5,0-0.9-0.4-1-0.9s0.4-1,0.9-1.1l6-0.6c0.5-0.1,1,0.4,1.1,0.9
		s-0.3,1-0.9,1.1L232.4,205.1C232.5,205.1,232.4,205.1,232.4,205.1L232.4,205.1z M67.7,204.8c-0.1,0-0.3,0-0.4-0.1
		c-2-0.8-3.8-1.7-5.6-2.7c-0.5-0.3-0.7-0.9-0.4-1.4s0.9-0.7,1.4-0.4c1.6,0.9,3.4,1.8,5.3,2.6c0.5,0.2,0.8,0.8,0.5,1.3
		C68.4,204.6,68.1,204.8,67.7,204.8L67.7,204.8z M242.5,204.1c-0.5,0-0.9-0.4-1-0.9s0.4-1,0.9-1.1l6-0.6c0.6-0.1,1,0.4,1.1,0.9
		s-0.4,1-0.9,1.1L242.5,204.1L242.5,204.1L242.5,204.1z M252.5,203.2c-0.5,0-0.9-0.4-1-0.9s0.4-1,0.9-1.1c2-0.2,4-0.4,6-0.5
		c0.5,0,1,0.4,1.1,0.9c0,0.5-0.4,1-0.9,1.1C256.6,202.8,254.6,203,252.5,203.2C252.6,203.2,252.6,203.2,252.5,203.2L252.5,203.2z
		 M379.5,202.7c-0.1,0-0.1,0-0.2,0c-1.9-0.4-3.9-0.8-5.9-1.2c-0.5-0.1-0.9-0.6-0.8-1.2c0.1-0.5,0.6-0.9,1.2-0.8
		c2.1,0.4,4.1,0.8,6,1.2c0.5,0.1,0.9,0.7,0.8,1.2C380.3,202.4,379.9,202.7,379.5,202.7L379.5,202.7z M262.6,202.3
		c-0.5,0-0.9-0.4-1-0.9c0-0.5,0.4-1,0.9-1.1c2-0.2,4-0.4,6-0.5c0.5,0,1,0.4,1.1,0.9c0,0.5-0.4,1-0.9,1.1
		C266.7,201.9,264.7,202.1,262.6,202.3L262.6,202.3L262.6,202.3z M272.7,201.4c-0.5,0-1-0.4-1-0.9s0.4-1,0.9-1.1c2-0.2,4-0.3,6-0.5
		c0.5,0,1,0.4,1.1,0.9c0,0.5-0.4,1-0.9,1.1C276.8,201.1,274.8,201.2,272.7,201.4L272.7,201.4L272.7,201.4z M369.5,200.8h-0.1
		c-1.9-0.3-3.9-0.6-6-0.8c-0.5-0.1-0.9-0.6-0.9-1.1c0.1-0.5,0.6-0.9,1.1-0.9c2.1,0.2,4.1,0.5,6,0.8c0.5,0.1,0.9,0.6,0.8,1.1
		C370.4,200.5,370,200.8,369.5,200.8L369.5,200.8z M282.7,200.6c-0.5,0-1-0.4-1-0.9c0-0.6,0.4-1,0.9-1.1c2-0.2,4-0.3,6-0.4
		c0.5,0,1,0.4,1.1,0.9c0,0.6-0.4,1-0.9,1.1C286.8,200.3,284.8,200.5,282.7,200.6C282.8,200.6,282.8,200.6,282.7,200.6L282.7,200.6z
		 M58.8,200c-0.2,0-0.4-0.1-0.6-0.2c-1.8-1.2-3.4-2.6-4.7-4c-0.4-0.4-0.4-1,0-1.4s1-0.4,1.4,0c1.3,1.3,2.8,2.6,4.5,3.8
		c0.5,0.3,0.6,0.9,0.2,1.4C59.4,199.9,59.1,200,58.8,200L58.8,200z M292.8,199.9c-0.5,0-1-0.4-1-0.9c0-0.6,0.4-1,0.9-1.1
		c2-0.1,4-0.3,6.1-0.4c0.5,0,1,0.4,1.1,0.9c0,0.6-0.4,1-0.9,1.1C296.9,199.6,294.9,199.8,292.8,199.9
		C292.9,199.9,292.8,199.9,292.8,199.9L292.8,199.9z M359.5,199.6C359.5,199.6,359.4,199.6,359.5,199.6c-2-0.2-4.1-0.4-6.1-0.5
		c-0.6,0-1-0.5-0.9-1.1c0-0.6,0.5-1,1.1-0.9c2.1,0.1,4.1,0.3,6.1,0.5c0.5,0.1,1,0.5,0.9,1.1C360.4,199.2,360,199.6,359.5,199.6
		L359.5,199.6z M302.9,199.3c-0.5,0-1-0.4-1-0.9c0-0.6,0.4-1,0.9-1.1c2-0.1,4.1-0.2,6.1-0.3c0.5,0,1,0.4,1,1s-0.4,1-1,1
		C307,199.1,305,199.2,302.9,199.3C303,199.3,302.9,199.3,302.9,199.3L302.9,199.3z M349.4,198.9L349.4,198.9c-2-0.1-4-0.2-6.1-0.2
		c-0.6,0-1-0.5-1-1c0-0.6,0.5-1,1-1c2.1,0.1,4.1,0.1,6.1,0.3c0.6,0,1,0.5,0.9,1.1C350.4,198.5,349.9,198.9,349.4,198.9L349.4,198.9z
		 M313,198.9c-0.5,0-1-0.4-1-1s0.4-1,1-1c2-0.1,4.1-0.1,6.1-0.2c0.5,0,1,0.4,1,1s-0.4,1-1,1C317.1,198.7,315.1,198.8,313,198.9
		C313.1,198.9,313,198.9,313,198.9L313,198.9z M323.1,198.6c-0.5,0-1-0.4-1-1s0.4-1,1-1c2,0,4.1-0.1,6.1-0.1l0,0c0.5,0,1,0.4,1,1
		s-0.4,1-1,1C327.2,198.5,325.2,198.5,323.1,198.6L323.1,198.6L323.1,198.6z M339.3,198.5L339.3,198.5c-2,0-4-0.1-6.1-0.1
		c-0.6,0-1-0.5-1-1c0-0.6,0.4-1,1-1c2,0,4.1,0,6.1,0.1c0.6,0,1,0.5,1,1C340.3,198.1,339.8,198.5,339.3,198.5L339.3,198.5z M51.6,193
		c-0.3,0-0.6-0.1-0.8-0.4c-1.2-1.7-2.2-3.6-3-5.5c-0.2-0.5,0-1.1,0.6-1.3c0.5-0.2,1.1,0,1.3,0.6c0.7,1.8,1.6,3.5,2.8,5.1
		c0.3,0.5,0.2,1.1-0.2,1.4C52,193,51.8,193,51.6,193L51.6,193z M47.5,183.9c-0.5,0-0.9-0.3-1-0.8c-0.4-2-0.7-4-0.7-6.2
		c0-0.6,0.4-1,1-1c0.5,0,1,0.4,1,1c0,2,0.3,4,0.7,5.8c0.1,0.5-0.2,1.1-0.8,1.2C47.7,183.9,47.6,183.9,47.5,183.9L47.5,183.9z
		 M46.9,173.8L46.9,173.8c-0.6,0-1-0.5-1-1.1c0.2-2,0.5-4,0.9-6.1c0.1-0.5,0.7-0.9,1.2-0.8c0.5,0.1,0.9,0.6,0.8,1.2
		c-0.4,2-0.7,4-0.9,5.9C47.9,173.4,47.5,173.8,46.9,173.8L46.9,173.8z M48.8,163.9c-0.1,0-0.2,0-0.3,0c-0.5-0.2-0.8-0.7-0.7-1.2
		c0.5-1.9,1.2-3.8,1.9-5.8c0.2-0.5,0.8-0.8,1.3-0.6s0.8,0.8,0.6,1.3c-0.7,1.9-1.4,3.8-1.9,5.7C49.7,163.6,49.3,163.9,48.8,163.9
		L48.8,163.9z"/>
</g>
<g>
	<path class="st0" d="M58.9,144c-0.3,0-0.5-0.1-0.7-0.3c-0.4-0.4-0.4-1,0-1.4c1.4-1.4,2.9-2.7,4.7-4c0.4-0.3,1.1-0.2,1.4,0.2
		s0.2,1.1-0.2,1.4c-1.7,1.2-3.2,2.5-4.5,3.8C59.4,143.9,59.1,144,58.9,144L58.9,144z M66.8,137.8c-0.3,0-0.7-0.2-0.8-0.5
		c-0.3-0.5-0.2-1.1,0.3-1.4c1.6-1,3.4-2,5.3-3c0.5-0.3,1.1-0.1,1.3,0.4c0.3,0.5,0.1,1.1-0.4,1.3c-1.9,0.9-3.6,1.9-5.2,2.9
		C67.1,137.8,67,137.8,66.8,137.8L66.8,137.8z M75.7,133.1c-0.4,0-0.7-0.2-0.9-0.6c-0.2-0.5,0-1.1,0.5-1.3c1.8-0.8,3.7-1.6,5.6-2.4
		c0.5-0.2,1.1,0.1,1.3,0.6c0.2,0.5-0.1,1.1-0.6,1.3c-1.9,0.8-3.8,1.5-5.5,2.3C76,133.1,75.8,133.1,75.7,133.1L75.7,133.1z
		 M85.1,129.3c-0.4,0-0.8-0.3-0.9-0.7c-0.2-0.5,0.1-1.1,0.6-1.3c1.8-0.7,3.8-1.3,5.8-1.9c0.5-0.2,1.1,0.1,1.3,0.7
		c0.2,0.5-0.1,1.1-0.7,1.3c-2,0.6-3.9,1.3-5.7,1.9C85.3,129.3,85.2,129.3,85.1,129.3L85.1,129.3z M94.7,126.2c-0.4,0-0.8-0.3-1-0.7
		c-0.2-0.5,0.1-1.1,0.7-1.2c1.9-0.5,3.8-1.1,5.9-1.6c0.5-0.1,1.1,0.2,1.2,0.7s-0.2,1.1-0.7,1.2c-2,0.5-4,1.1-5.8,1.6
		C94.9,126.2,94.8,126.2,94.7,126.2L94.7,126.2z M104.5,123.6c-0.4,0-0.9-0.3-1-0.8s0.2-1.1,0.7-1.2c1.9-0.5,3.9-0.9,5.9-1.4
		c0.5-0.1,1.1,0.2,1.2,0.8c0.1,0.5-0.2,1.1-0.8,1.2C108.5,122.6,106.5,123.1,104.5,123.6C104.7,123.6,104.6,123.6,104.5,123.6
		L104.5,123.6z M114.4,121.3c-0.5,0-0.9-0.3-1-0.8s0.2-1.1,0.8-1.2c2-0.4,3.9-0.8,6-1.2c0.5-0.1,1.1,0.2,1.2,0.8
		c0.1,0.5-0.2,1.1-0.8,1.2c-2,0.4-4,0.8-5.9,1.2C114.5,121.3,114.4,121.3,114.4,121.3L114.4,121.3z M124.3,119.4
		c-0.5,0-0.9-0.3-1-0.8s0.3-1.1,0.8-1.2c2-0.4,4-0.7,6-1.1c0.5-0.1,1.1,0.3,1.2,0.8c0.1,0.5-0.3,1.1-0.8,1.2c-2,0.3-4,0.7-6,1.1
		C124.4,119.4,124.4,119.4,124.3,119.4L124.3,119.4z M134.3,117.6c-0.5,0-0.9-0.3-1-0.8s0.3-1.1,0.8-1.1c2-0.3,4-0.6,6-1
		c0.5-0.1,1.1,0.3,1.1,0.8c0.1,0.5-0.3,1.1-0.8,1.1c-2,0.3-4,0.6-6,1C134.4,117.6,134.3,117.6,134.3,117.6L134.3,117.6z
		 M144.3,116.1c-0.5,0-0.9-0.4-1-0.9s0.3-1.1,0.8-1.1c2-0.3,4-0.6,6-0.9c0.5-0.1,1.1,0.3,1.1,0.9c0.1,0.5-0.3,1.1-0.9,1.1
		C148.3,115.5,146.3,115.8,144.3,116.1C144.4,116.1,144.3,116.1,144.3,116.1L144.3,116.1z M154.3,114.7c-0.5,0-0.9-0.4-1-0.9
		s0.3-1,0.9-1.1c2-0.3,4-0.5,6-0.8c0.5-0.1,1,0.3,1.1,0.9c0.1,0.5-0.3,1-0.9,1.1c-2,0.3-4,0.5-6,0.8
		C154.4,114.7,154.3,114.7,154.3,114.7L154.3,114.7z M164.3,113.4c-0.5,0-0.9-0.4-1-0.9s0.3-1,0.9-1.1c2-0.2,4-0.5,6-0.7
		c0.6-0.1,1,0.3,1.1,0.9c0.1,0.5-0.3,1-0.9,1.1c-2,0.2-4,0.5-6,0.7C164.4,113.4,164.4,113.4,164.3,113.4L164.3,113.4z M174.4,112.2
		c-0.5,0-0.9-0.4-1-0.9s0.3-1,0.9-1.1c2-0.2,4-0.4,6-0.7c0.6-0.1,1,0.3,1.1,0.9c0.1,0.5-0.3,1-0.9,1.1c-2,0.2-4,0.4-6,0.7H174.4
		L174.4,112.2z M184.4,111.1c-0.5,0-0.9-0.4-1-0.9s0.3-1,0.9-1.1c2-0.2,4-0.4,6-0.6c0.6-0.1,1,0.3,1.1,0.9c0.1,0.5-0.3,1-0.9,1.1
		c-2,0.2-4,0.4-6,0.6C184.5,111.1,184.5,111.1,184.4,111.1L184.4,111.1z M194.5,110.1c-0.5,0-0.9-0.4-1-0.9s0.3-1,0.9-1.1
		c2-0.2,4-0.4,6-0.6c0.5-0.1,1,0.4,1.1,0.9s-0.4,1-0.9,1.1C198.6,109.7,196.6,109.9,194.5,110.1
		C194.6,110.1,194.5,110.1,194.5,110.1L194.5,110.1z M204.6,109.2c-0.5,0-0.9-0.4-1-0.9s0.4-1,0.9-1.1c2-0.2,4-0.4,6-0.5
		c0.6,0,1,0.4,1.1,0.9c0,0.6-0.4,1-0.9,1.1C208.7,108.8,206.7,109,204.6,109.2L204.6,109.2L204.6,109.2z M214.7,108.3
		c-0.5,0-0.9-0.4-1-0.9c0-0.5,0.4-1,0.9-1.1c2-0.2,4-0.3,6-0.5c0.6,0,1,0.4,1.1,0.9c0,0.5-0.4,1-0.9,1.1
		C218.8,107.9,216.7,108.1,214.7,108.3L214.7,108.3L214.7,108.3z M224.7,107.4c-0.5,0-1-0.4-1-0.9s0.4-1,0.9-1.1c2-0.2,4-0.3,6-0.5
		c0.6,0,1,0.4,1.1,0.9c0,0.5-0.4,1-0.9,1.1C228.8,107.1,226.8,107.2,224.7,107.4C224.8,107.4,224.7,107.4,224.7,107.4L224.7,107.4z
		 M234.8,106.6c-0.5,0-1-0.4-1-0.9c0-0.6,0.4-1,0.9-1.1l6.1-0.5c0.6,0,1,0.4,1.1,0.9c0,0.5-0.4,1-0.9,1.1L234.8,106.6
		C234.9,106.6,234.8,106.6,234.8,106.6L234.8,106.6z M244.9,105.8c-0.5,0-1-0.4-1-0.9s0.4-1,0.9-1.1l6-0.5c0.5,0,1,0.4,1.1,0.9
		c0,0.6-0.4,1-0.9,1.1L244.9,105.8C245,105.8,244.9,105.8,244.9,105.8L244.9,105.8z M255,105c-0.5,0-1-0.4-1-0.9s0.4-1,0.9-1.1
		l6-0.5c0.5,0,1,0.4,1.1,0.9c0,0.6-0.4,1-0.9,1.1L255,105L255,105L255,105z M265.1,104.2c-0.5,0-1-0.4-1-0.9c0-0.6,0.4-1,0.9-1.1
		l6-0.5c0.5,0,1,0.4,1.1,0.9c0,0.5-0.4,1-0.9,1.1L265.1,104.2L265.1,104.2L265.1,104.2z M275.2,103.4c-0.5,0-1-0.4-1-0.9
		s0.4-1,0.9-1.1l6-0.5c0.5,0,1,0.4,1.1,0.9c0,0.6-0.4,1-0.9,1.1L275.2,103.4L275.2,103.4L275.2,103.4z M285.2,102.6
		c-0.5,0-1-0.4-1-0.9c0-0.6,0.4-1,0.9-1.1l6-0.5c0.6,0,1,0.4,1.1,0.9c0,0.6-0.4,1-0.9,1.1L285.2,102.6
		C285.3,102.6,285.3,102.6,285.2,102.6L285.2,102.6z M295.3,101.7c-0.5,0-1-0.4-1-0.9s0.4-1,0.9-1.1c2-0.2,4-0.3,6-0.5
		c0.5,0,1,0.4,1.1,0.9c0,0.5-0.4,1-0.9,1.1C299.5,101.4,297.4,101.6,295.3,101.7C295.4,101.7,295.4,101.7,295.3,101.7L295.3,101.7z
		 M305.4,100.9c-0.5,0-0.9-0.4-1-0.9c0-0.6,0.4-1,0.9-1.1c2-0.2,4-0.4,6-0.5c0.6,0,1,0.4,1.1,0.9c0,0.5-0.4,1-0.9,1.1
		C309.5,100.5,307.5,100.7,305.4,100.9C305.5,100.9,305.4,100.9,305.4,100.9L305.4,100.9z M315.5,100c-0.5,0-0.9-0.4-1-0.9
		s0.4-1,0.9-1.1c2-0.2,4-0.4,6-0.6c0.6,0,1,0.4,1.1,0.9s-0.4,1-0.9,1.1C319.6,99.6,317.6,99.8,315.5,100
		C315.6,100,315.5,100,315.5,100L315.5,100z M325.6,99c-0.5,0-0.9-0.4-1-0.9s0.3-1,0.9-1.1c2-0.2,4-0.4,6-0.6c0.6-0.1,1,0.3,1.1,0.9
		c0.1,0.5-0.3,1-0.9,1.1C329.7,98.6,327.7,98.8,325.6,99L325.6,99L325.6,99z M335.6,98c-0.5,0-0.9-0.4-1-0.9s0.3-1,0.9-1.1
		c2-0.2,4-0.4,6-0.7c0.6-0.1,1,0.3,1.1,0.9c0.1,0.5-0.3,1-0.9,1.1c-2,0.2-4,0.4-6,0.7C335.7,98,335.7,98,335.6,98L335.6,98z
		 M345.7,96.9c-0.5,0-0.9-0.4-1-0.9s0.3-1,0.9-1.1c2-0.2,4-0.5,6-0.7c0.5-0.1,1,0.3,1.1,0.9c0.1,0.5-0.3,1-0.9,1.1
		c-2,0.2-4,0.5-6,0.7C345.8,96.9,345.7,96.9,345.7,96.9L345.7,96.9z M355.7,95.7c-0.5,0-0.9-0.4-1-0.9s0.3-1,0.9-1.1
		c2-0.3,4-0.5,6-0.8c0.5-0.1,1.1,0.3,1.1,0.9c0.1,0.5-0.3,1.1-0.9,1.1c-2,0.3-4,0.5-6,0.8C355.8,95.7,355.8,95.7,355.7,95.7
		L355.7,95.7z M365.8,94.3c-0.5,0-0.9-0.4-1-0.9s0.3-1.1,0.8-1.1c2-0.3,4-0.6,6-0.9c0.6-0.1,1.1,0.3,1.1,0.8
		c0.1,0.5-0.3,1.1-0.8,1.1c-2,0.3-4,0.6-6,0.9C365.9,94.3,365.8,94.3,365.8,94.3L365.8,94.3z M375.8,92.7c-0.5,0-0.9-0.3-1-0.8
		s0.3-1.1,0.8-1.1c2-0.3,4-0.7,6-1c0.5-0.1,1.1,0.3,1.2,0.8s-0.3,1.1-0.8,1.2c-2,0.4-4,0.7-6,1C375.9,92.7,375.8,92.7,375.8,92.7
		L375.8,92.7z M385.7,91c-0.5,0-0.9-0.3-1-0.8s0.2-1.1,0.8-1.2c2-0.4,4-0.8,5.9-1.2c0.5-0.1,1.1,0.2,1.2,0.8
		c0.1,0.5-0.2,1.1-0.8,1.2c-1.9,0.4-3.9,0.8-6,1.2C385.9,91,385.8,91,385.7,91L385.7,91z M395.6,88.9c-0.5,0-0.9-0.3-1-0.8
		s0.2-1.1,0.7-1.2c2-0.5,4-1,5.9-1.5c0.5-0.1,1.1,0.2,1.2,0.7s-0.2,1.1-0.7,1.2c-1.9,0.5-3.9,1-5.9,1.5
		C395.8,88.9,395.7,88.9,395.6,88.9L395.6,88.9z M405.4,86.3c-0.4,0-0.8-0.3-1-0.7c-0.2-0.5,0.1-1.1,0.7-1.2c2-0.6,3.9-1.2,5.7-1.8
		c0.5-0.2,1.1,0.1,1.3,0.6c0.2,0.5-0.1,1.1-0.6,1.3c-1.8,0.6-3.8,1.2-5.8,1.8C405.6,86.3,405.5,86.3,405.4,86.3L405.4,86.3z
		 M415,83.1c-0.4,0-0.8-0.2-0.9-0.6c-0.2-0.5,0.1-1.1,0.6-1.3c2-0.8,3.8-1.6,5.5-2.4c0.5-0.2,1.1,0,1.3,0.5c0.2,0.5,0,1.1-0.5,1.3
		c-1.7,0.8-3.6,1.7-5.6,2.4C415.3,83.1,415.1,83.1,415,83.1L415,83.1z M424.1,78.8c-0.3,0-0.7-0.2-0.9-0.5c-0.3-0.5-0.1-1.1,0.4-1.4
		c1.8-1.1,3.4-2.2,4.7-3.3c0.4-0.4,1-0.3,1.4,0.1s0.3,1-0.1,1.4c-1.4,1.2-3.1,2.4-5,3.6C424.5,78.7,424.3,78.8,424.1,78.8
		L424.1,78.8z M431.8,72.4c-0.2,0-0.4-0.1-0.6-0.2c-0.4-0.3-0.5-1-0.2-1.4c0.5-0.6,0.9-1.2,1.2-1.8c0.3-0.5,0.9-0.7,1.4-0.4
		c0.5,0.3,0.7,0.9,0.4,1.4c-0.4,0.7-0.9,1.4-1.4,2.1C432.4,72.3,432.1,72.4,431.8,72.4L431.8,72.4z M51.7,152.6
		c-0.1-0.3-0.1-0.6,0.1-0.9c1-1.8,2.1-3.6,3.3-5.1c0.4-0.5,1-0.5,1.4-0.2c0.5,0.4,0.5,1,0.2,1.4c-1.1,1.4-2.2,3.1-3.1,4.8
		c-0.2,0.5-0.9,0.7-1.3,0.4C52,152.9,51.8,152.7,51.7,152.6L51.7,152.6z"/>
</g>
<g>
	<path class="st0" d="M432.3,56.1c-0.3,0-0.7-0.2-0.9-0.5c-0.9-1.5-2.1-3.1-3.6-4.5c-0.4-0.4-0.4-1,0-1.4s1-0.4,1.4,0
		c1.6,1.6,2.9,3.2,3.9,4.9c0.3,0.5,0.1,1.1-0.4,1.4C432.6,56,432.5,56.1,432.3,56.1L432.3,56.1z M425.5,48.7c-0.2,0-0.4-0.1-0.6-0.2
		c-1.4-1.1-3.1-2.3-4.9-3.4c-0.5-0.3-0.6-0.9-0.3-1.4c0.3-0.5,0.9-0.6,1.4-0.3c1.9,1.1,3.6,2.3,5.1,3.5c0.4,0.3,0.5,1,0.2,1.4
		C426.1,48.5,425.8,48.7,425.5,48.7L425.5,48.7z M417,43.2c-0.2,0-0.3,0-0.5-0.1c-1.7-0.9-3.5-1.8-5.4-2.6c-0.5-0.2-0.7-0.8-0.5-1.3
		s0.8-0.7,1.3-0.5c2,0.9,3.8,1.8,5.5,2.7c0.5,0.3,0.7,0.9,0.4,1.4C417.7,43,417.4,43.2,417,43.2L417,43.2z M407.8,39
		c-0.1,0-0.3,0-0.4-0.1c-1.8-0.7-3.7-1.4-5.7-2.1c-0.5-0.2-0.8-0.8-0.6-1.3c0.2-0.5,0.8-0.8,1.3-0.6c2,0.7,3.9,1.4,5.7,2.2
		c0.5,0.2,0.8,0.8,0.6,1.3C408.6,38.7,408.2,39,407.8,39L407.8,39z M398.2,35.5c-0.1,0-0.2,0-0.3,0c-1.9-0.6-3.8-1.2-5.8-1.8
		c-0.5-0.2-0.8-0.7-0.7-1.2c0.2-0.5,0.7-0.8,1.2-0.7c2,0.6,4,1.2,5.8,1.8c0.5,0.2,0.8,0.7,0.6,1.3C399.1,35.2,398.7,35.5,398.2,35.5
		L398.2,35.5z M388.5,32.6c-0.1,0-0.2,0-0.3,0c-1.9-0.5-3.9-1-5.9-1.5c-0.5-0.1-0.9-0.7-0.7-1.2c0.1-0.5,0.7-0.9,1.2-0.7
		c2,0.5,4,1,5.9,1.5c0.5,0.1,0.8,0.7,0.7,1.2C389.3,32.3,388.9,32.6,388.5,32.6L388.5,32.6z M378.6,30.2c-0.1,0-0.2,0-0.2,0
		c-1.9-0.5-3.9-0.9-5.9-1.3c-0.5-0.1-0.9-0.6-0.8-1.2c0.1-0.5,0.6-0.9,1.2-0.8c2,0.4,4,0.9,6,1.3c0.5,0.1,0.9,0.7,0.7,1.2
		C379.5,29.9,379.1,30.2,378.6,30.2L378.6,30.2z M368.7,28c-0.1,0-0.1,0-0.2,0c-2-0.4-3.9-0.8-6-1.2c-0.5-0.1-0.9-0.6-0.8-1.2
		c0.1-0.5,0.6-0.9,1.2-0.8c2,0.4,4,0.8,6,1.2c0.5,0.1,0.9,0.6,0.8,1.2C369.6,27.7,369.2,28,368.7,28L368.7,28z M358.7,26.1
		c-0.1,0-0.1,0-0.2,0c-2-0.4-4-0.7-6-1c-0.5-0.1-0.9-0.6-0.8-1.1s0.6-0.9,1.1-0.8c2,0.3,4,0.7,6,1c0.5,0.1,0.9,0.6,0.8,1.2
		C359.6,25.8,359.2,26.1,358.7,26.1L358.7,26.1z M348.7,24.5c-0.1,0-0.1,0-0.2,0c-2-0.3-4-0.6-6-0.9c-0.5-0.1-0.9-0.6-0.8-1.1
		s0.6-0.9,1.1-0.8c2,0.3,4,0.6,6,0.9c0.5,0.1,0.9,0.6,0.8,1.1C349.6,24.1,349.2,24.5,348.7,24.5L348.7,24.5z M338.7,23h-0.1
		c-2-0.3-4-0.6-6-0.8c-0.5-0.1-0.9-0.6-0.9-1.1c0.1-0.5,0.6-0.9,1.1-0.9c2,0.3,4,0.5,6,0.8c0.5,0.1,0.9,0.6,0.9,1.1
		C339.6,22.6,339.2,23,338.7,23L338.7,23z M328.6,21.6h-0.1c-2-0.2-4-0.5-6-0.7c-0.5-0.1-0.9-0.6-0.9-1.1c0.1-0.5,0.6-0.9,1.1-0.9
		c2,0.2,4,0.5,6,0.7c0.5,0.1,0.9,0.6,0.9,1.1C329.5,21.3,329.1,21.6,328.6,21.6L328.6,21.6z M318.5,20.4h-0.1c-2-0.2-4-0.4-6-0.7
		c-0.5-0.1-0.9-0.6-0.9-1.1c0.1-0.5,0.6-0.9,1.1-0.9c2,0.2,4,0.4,6,0.7c0.5,0.1,0.9,0.6,0.9,1.1C319.5,20.1,319,20.4,318.5,20.4
		L318.5,20.4z M308.4,19.4h-0.1c-2-0.2-4-0.4-6.1-0.6c-0.5-0.1-1-0.5-0.9-1.1c0.1-0.5,0.5-1,1.1-0.9c2,0.2,4,0.4,6.1,0.6
		c0.6,0.1,1,0.5,0.9,1.1C309.4,19,308.9,19.4,308.4,19.4L308.4,19.4z M298.3,18.4C298.3,18.4,298.2,18.4,298.3,18.4
		c-2.1-0.2-4.1-0.4-6.1-0.5c-0.6,0-1-0.5-0.9-1.1c0-0.6,0.5-1,1.1-0.9c2,0.2,4,0.3,6.1,0.5c0.6,0,1,0.5,0.9,1.1
		C299.3,18,298.8,18.4,298.3,18.4L298.3,18.4z M288.2,17.5C288.2,17.5,288.1,17.5,288.2,17.5c-2.1-0.2-4.1-0.3-6.1-0.5
		c-0.6,0-1-0.5-0.9-1.1c0-0.5,0.5-1,1.1-0.9c2,0.2,4,0.3,6.1,0.5c0.6,0,1,0.5,0.9,1.1C289.1,17.1,288.7,17.5,288.2,17.5L288.2,17.5z
		 M278.1,16.7C278,16.7,278,16.7,278.1,16.7c-2.1-0.1-4.1-0.3-6.1-0.4c-0.6,0-1-0.5-0.9-1.1c0-0.5,0.5-1,1.1-0.9
		c2,0.1,4,0.3,6.1,0.4c0.6,0,1,0.5,0.9,1.1C279,16.3,278.6,16.7,278.1,16.7L278.1,16.7z M267.9,16L267.9,16
		c-2.1-0.1-4.1-0.3-6.1-0.4c-0.6,0-1-0.5-0.9-1.1c0-0.6,0.5-1,1.1-0.9c2,0.1,4,0.2,6.1,0.4c0.6,0,1,0.5,0.9,1.1
		C268.9,15.6,268.5,16,267.9,16L267.9,16z M257.8,15.4L257.8,15.4c-2.1-0.1-4.1-0.2-6.1-0.3c-0.6,0-1-0.5-0.9-1.1
		c0-0.6,0.5-1,1.1-0.9c2,0.1,4,0.2,6.1,0.3c0.6,0,1,0.5,0.9,1.1C258.8,15,258.3,15.4,257.8,15.4L257.8,15.4z M247.6,14.9L247.6,14.9
		c-2.1-0.1-4.1-0.2-6.1-0.3c-0.6,0-1-0.5-1-1c0-0.6,0.5-1,1-1c2,0.1,4,0.2,6.1,0.3c0.6,0,1,0.5,0.9,1
		C248.6,14.4,248.2,14.9,247.6,14.9L247.6,14.9z M237.5,14.4L237.5,14.4c-2.1-0.1-4.1-0.2-6.1-0.3c-0.6,0-1-0.5-1-1c0-0.6,0.5-1,1-1
		c2,0.1,4,0.2,6.1,0.3c0.6,0,1,0.5,1,1C238.5,14,238,14.4,237.5,14.4L237.5,14.4z M227.3,14L227.3,14c-2.1-0.1-4.1-0.2-6.1-0.2
		c-0.6,0-1-0.5-1-1c0-0.6,0.4-1,1-1c2,0.1,4,0.1,6.1,0.2c0.6,0,1,0.5,1,1S227.9,14,227.3,14L227.3,14z M217.2,13.6L217.2,13.6
		c-2.1-0.1-4.1-0.1-6.1-0.2c-0.6,0-1-0.5-1-1c0-0.6,0.5-1,1-1c2,0.1,4,0.1,6.1,0.2c0.6,0,1,0.5,1,1
		C218.2,13.2,217.7,13.6,217.2,13.6L217.2,13.6z M207,13.3L207,13.3c-2.1-0.1-4.1-0.1-6.1-0.2c-0.6,0-1-0.5-1-1s0.5-1,1-1l0,0
		c2,0,4,0.1,6.1,0.2c0.6,0,1,0.5,1,1C208,12.9,207.6,13.3,207,13.3L207,13.3z M196.9,13.1L196.9,13.1c-2.1,0-4.1-0.1-6.1-0.1
		c-0.6,0-1-0.5-1-1c0-0.6,0.4-1,1-1c2,0,4,0.1,6.1,0.1c0.6,0,1,0.5,1,1S197.4,13.1,196.9,13.1L196.9,13.1z M186.7,12.9L186.7,12.9
		c-2.2,0-4.2-0.1-6.1-0.1c-0.6,0-1-0.5-1-1c0-0.6,0.5-1,1-1c1.9,0,4,0,6.1,0.1c0.6,0,1,0.5,1,1S187.3,12.9,186.7,12.9L186.7,12.9z
		 M176.5,12.8L176.5,12.8c-2.2,0-4.3,0-6.1,0c-0.6,0-1-0.5-1-1c0-0.6,0.5-1,1-1c1.8,0,3.9,0,6.1,0c0.6,0,1,0.5,1,1
		S177.1,12.8,176.5,12.8L176.5,12.8z M166.4,12.7h-0.5c-0.6,0-1-0.5-1-1c0-0.6,0.4-1,1-1l0,0h0.5c0.6,0,1,0.4,1,1
		S166.9,12.7,166.4,12.7L166.4,12.7z M433.4,58.2c0.3,0.1,0.5,0.4,0.5,0.7c0.4,2,0.6,4.1,0.6,6.1c0,0.6-0.4,1-1,1c-0.6,0-1-0.4-1-1
		c0-1.8-0.3-3.8-0.6-5.7c-0.2-0.5,0.3-1.1,0.8-1.2C433,58.1,433.3,58.1,433.4,58.2L433.4,58.2z"/>
</g>
<g>
	<path class="st0" d="M289.6,106.8c-0.2,0-0.4-0.1-0.5-0.2l-5.8-4.8l4.4-6.1c0.2-0.3,0.9-0.4,1.2-0.2c0.4,0.2,0.5,0.8,0.2,1.1
		l-3.5,4.9l4.6,3.9c0.3,0.3,0.4,0.8,0.1,1.1C290,106.7,289.8,106.8,289.6,106.8L289.6,106.8z"/>
</g>
<g>
	<path class="st0" d="M174.1,203.1c0.2,0,0.4,0.2,0.5,0.3l5.2,5.4l-5,5.5c-0.2,0.3-0.9,0.3-1.2,0.1c-0.4-0.3-0.4-0.8-0.1-1.1
		l4.1-4.4l-4.1-4.4c-0.3-0.4-0.3-0.8,0-1.1C173.6,203.1,173.8,203.1,174.1,203.1L174.1,203.1z"/>
</g>
<g>
	<path class="st0" d="M305.5,296.3c-0.2,0-0.4-0.1-0.5-0.2l-6.1-4.3l3.8-6.4c0.2-0.3,0.8-0.5,1.1-0.3c0.4,0.2,0.6,0.7,0.3,1.1
		l-3.1,5.2l4.9,3.5c0.3,0.3,0.5,0.7,0.2,1.1C305.9,296.2,305.7,296.3,305.5,296.3L305.5,296.3z"/>
</g>
<g>
	<path class="st0" d="M123.8,396.2c0.2,0,0.4,0.2,0.5,0.3l4.6,5.8l-5.5,5c-0.3,0.3-0.9,0.2-1.2,0c-0.4-0.3-0.4-0.9,0-1.1l4.4-4
		l-3.7-4.8c-0.2-0.4-0.3-0.8,0.1-1.1C123.3,396.2,123.5,396.2,123.8,396.2L123.8,396.2z"/>
</g>
<g>
	<path class="st0" d="M390,449.5c0,0.2-0.1,0.4-0.2,0.5l-4.4,6l-6.3-4c-0.3-0.2-0.5-0.8-0.3-1.2c0.2-0.4,0.7-0.6,1.1-0.3l5.1,3.2
		l3.6-4.8c0.3-0.3,0.7-0.5,1.1-0.2C389.8,449.1,390,449.3,390,449.5L390,449.5z"/>
</g>
</svg>
