<?xml version="1.0" encoding="utf-8"?>
<!-- Generator: Adobe Illustrator 21.1.0, SVG Export Plug-In . SVG Version: 6.00 Build 0)  -->
<svg version="1.1" id="Capa_1" xmlns="http://www.w3.org/2000/svg" xmlns:xlink="http://www.w3.org/1999/xlink" x="0px" y="0px"
	 viewBox="0 0 246.993 220.209" style="enable-background:new 0 0 246.993 220.209;" xml:space="preserve">
<style type="text/css">
	.st0{clip-path:url(#SVGID_2_);}
	.st1{filter:url(#Adobe_OpacityMaskFilter);}
	.st2{clip-path:url(#SVGID_4_);}
	.st3{clip-path:url(#SVGID_4_);mask:url(#SVGID_5_);}
	.st4{opacity:0.2;clip-path:url(#SVGID_9_);fill:#1D1D1B;}
	.st5{clip-path:url(#SVGID_2_);fill:#FFFFFF;}
	.st6{clip-path:url(#SVGID_11_);fill:none;stroke:#1D1D1B;stroke-width:0.637;}
	.st7{filter:url(#Adobe_OpacityMaskFilter_1_);}
	.st8{clip-path:url(#SVGID_11_);}
	.st9{clip-path:url(#SVGID_11_);mask:url(#SVGID_12_);}
	.st10{opacity:0.2;clip-path:url(#SVGID_16_);fill:#1D1D1B;}
	.st11{clip-path:url(#SVGID_11_);fill:none;stroke:#44B9C0;stroke-width:2.547;}
</style>
<g>
	<defs>
		<rect id="SVGID_1_" width="246.993" height="220.209"/>
	</defs>
	<clipPath id="SVGID_2_">
		<use xlink:href="#SVGID_1_"  style="overflow:visible;"/>
	</clipPath>
	<g class="st0">
		<defs>
			<rect id="SVGID_3_" width="246.993" height="220.209"/>
		</defs>
		<clipPath id="SVGID_4_">
			<use xlink:href="#SVGID_3_"  style="overflow:visible;"/>
		</clipPath>
		<defs>
			<filter id="Adobe_OpacityMaskFilter" filterUnits="userSpaceOnUse" x="-1.022" y="3.557" width="252.96" height="221.76">
				<feColorMatrix  type="matrix" values="1 0 0 0 0  0 1 0 0 0  0 0 1 0 0  0 0 0 1 0"/>
			</filter>
		</defs>
		<mask maskUnits="userSpaceOnUse" x="-1.022" y="3.557" width="252.96" height="221.76" id="SVGID_5_">
			<g class="st1">
				<g>
					<defs>
						<rect id="SVGID_6_" x="-10.622" y="-4.123" width="272.64" height="232.32"/>
					</defs>
					<clipPath id="SVGID_7_" class="st2">
						<use xlink:href="#SVGID_6_"  style="overflow:visible;"/>
					</clipPath>
					<g style="clip-path:url(#SVGID_7_);">
						
							<image style="overflow:visible;" width="568" height="484" xlink:href="A82F334840FDAAEA.jpg"  transform="matrix(0.48 0 0 0.48 -10.6216 -4.1235)">
						</image>
					</g>
				</g>
			</g>
		</mask>
		<g class="st3">
			<g>
				<defs>
					<rect id="SVGID_8_" x="-1.022" y="3.557" width="252.96" height="221.76"/>
				</defs>
				<clipPath id="SVGID_9_">
					<use xlink:href="#SVGID_8_"  style="overflow:visible;"/>
				</clipPath>
				<rect x="-1.022" y="3.557" class="st4" width="252.96" height="221.76"/>
			</g>
		</g>
	</g>
	
		<rect x="7.006" y="12.722" transform="matrix(0.9976 -0.0698 0.0698 0.9976 -7.5366 8.8883)" class="st5" width="232.98" height="199.266"/>
	<g class="st0">
		<defs>
			<rect id="SVGID_10_" width="246.993" height="220.209"/>
		</defs>
		<clipPath id="SVGID_11_">
			<use xlink:href="#SVGID_10_"  style="overflow:visible;"/>
		</clipPath>
		
			<rect x="7.006" y="12.721" transform="matrix(0.9976 -0.0698 0.0698 0.9976 -7.5366 8.8883)" class="st6" width="232.981" height="199.266"/>
		<defs>
			<filter id="Adobe_OpacityMaskFilter_1_" filterUnits="userSpaceOnUse" x="198.719" y="-0.269" width="39.84" height="58.56">
				<feColorMatrix  type="matrix" values="1 0 0 0 0  0 1 0 0 0  0 0 1 0 0  0 0 0 1 0"/>
			</filter>
		</defs>
		<mask maskUnits="userSpaceOnUse" x="198.719" y="-0.269" width="39.84" height="58.56" id="SVGID_12_">
			<g class="st7">
				<g>
					<defs>
						<rect id="SVGID_13_" x="188.159" y="-7.949" width="61.44" height="69.12"/>
					</defs>
					<clipPath id="SVGID_14_" class="st8">
						<use xlink:href="#SVGID_13_"  style="overflow:visible;"/>
					</clipPath>
					<g transform="matrix(1 0 0 1 0 4.768372e-07)" style="clip-path:url(#SVGID_14_);">
						
							<image style="overflow:visible;" width="128" height="144" xlink:href="A82F334840FDAAEE.jpg"  transform="matrix(0.48 0 0 0.48 188.1589 -7.949)">
						</image>
					</g>
				</g>
			</g>
		</mask>
		<g class="st9">
			<g>
				<defs>
					<rect id="SVGID_15_" x="198.719" y="-0.269" width="39.84" height="58.56"/>
				</defs>
				<clipPath id="SVGID_16_">
					<use xlink:href="#SVGID_15_"  style="overflow:visible;"/>
				</clipPath>
				<rect x="198.719" y="-0.269" class="st10" width="39.84" height="58.56"/>
			</g>
		</g>
		<path class="st11" d="M214.051,5.189c0,0-5.394-6.574-10.97-2.684c-5.576,3.893-1.676,9.94-1.676,9.94l22.824,40.781
			c0,0,3.944,3.559,8.502,0.649c4.557-2.913,0.639-7.967,0.639-7.967l-16.524-28.705"/>
	</g>
</g>
</svg>
