<svg id="Capa_1" data-name="Capa 1" xmlns="http://www.w3.org/2000/svg" xmlns:xlink="http://www.w3.org/1999/xlink" viewBox="0 0 521.5 196.5"><defs><style>.cls-1{fill:none;}.cls-2{fill:#009dc6;}.cls-3{fill:#fff;}.cls-4{clip-path:url(#clip-path);}.cls-5{fill:#bee3f0;}</style><clipPath id="clip-path"><path class="cls-1" d="M12.1,186.6c7.5.6,95.2,8,191.2,8.3,170.2.7,300-3.7,310.4-4.1.6-6.8,5.5-64.6,6.2-108.1.8-41.5-6.2-67.9-10.2-76.5C500.1,6,345.8,1.8,278.9,1.5S24.2,5.9,12.2,6.2C11,11.9,1.7,57.7,1.5,103.4S10.8,182.3,12.1,186.6Z"/></clipPath></defs><path class="cls-2" d="M238,196.5H203.3c-99.9-.4-190.9-8.3-191.8-8.4H11v-.5c-.2-.3-11.1-35.4-10.9-84.1S10.7,5.8,10.8,5.3l.2-.5h.6C13.5,4.7,210.3-.3,278.9,0S508.6,4.7,510.2,4.8h.5l.2.4c4,8.2,11.3,35,10.5,77.5-.8,46.1-6.2,108.3-6.3,108.9v.7h-.7C513.2,192.3,397.1,196.5,238,196.5Z"/><path class="cls-3" d="M12.1,186.6c7.5.6,95.2,8,191.2,8.3,170.2.7,300-3.7,310.4-4.1.6-6.8,5.5-64.6,6.2-108.1.8-41.5-6.2-67.9-10.2-76.5C500.1,6,345.8,1.8,278.9,1.5S24.2,5.9,12.2,6.2C11,11.9,1.7,57.7,1.5,103.4S10.8,182.3,12.1,186.6Z"/><g class="cls-4"><path class="cls-5" d="M15.6.2S7.1.3,6.4,8.7c0,0-1,.6-1.1,11.4s.9,11.7.9,11.7.9,1.1,9.4,1.3c0,0,48.1,1.6,54.8,1.3S154.6,33,154.6,33s8.5-.1,9-6.5a49.1,49.1,0,0,0,.5-6.3,155.9,155.9,0,0,0-.5-15.8S163.1.3,154.5.2L69.1-.5C60-.6,15.6.2,15.6.2"/></g></svg>