<svg id="Capa_1" data-name="Capa 1" xmlns="http://www.w3.org/2000/svg" xmlns:xlink="http://www.w3.org/1999/xlink" viewBox="0 0 251.5 196.5"><defs><style>.cls-1{fill:none;}.cls-2{fill:#009dc6;}.cls-3{fill:#fff;}.cls-4{clip-path:url(#clip-path);}.cls-5{fill:#bee3f0;}</style><clipPath id="clip-path"><path class="cls-1" d="M6.6,186.7a604.7,604.7,0,0,0,91.5,8.2c80.3.7,141.8-3.5,148.9-4,.3-6.9,2.6-64.7,3-108.2.4-48.5-4.1-72.6-4.9-76.5-7.2-.4-79.1-4.4-110.6-4.7S15,5.8,6.6,6.2c-.6,5.9-5,51.6-5.1,97.2A632.6,632.6,0,0,0,6.6,186.7Z"/></clipPath></defs><path class="cls-2" d="M114.8,196.5H98.1A609,609,0,0,1,5.8,188H5.3v-.5c0-.3-5.3-35.3-5.2-84S5.2,5.9,5.2,5.4V4.8h.6c1-.1,95.5-5.1,128.6-4.8S245,4.7,245.7,4.8h.6v.5c.1.3,5.5,24.3,5.1,77.4-.4,46.1-3,108.3-3.1,108.9v.6h-.7C247.2,192.3,191.3,196.5,114.8,196.5Z"/><path class="cls-3" d="M6.6,186.7a604.7,604.7,0,0,0,91.5,8.2c80.3.7,141.8-3.5,148.9-4,.3-6.9,2.6-64.7,3-108.2.4-48.5-4.1-72.6-4.9-76.5-7.2-.4-79.1-4.4-110.6-4.7S15,5.8,6.6,6.2c-.6,5.9-5,51.6-5.1,97.2A632.6,632.6,0,0,0,6.6,186.7Z"/><g class="cls-4"><path class="cls-5" d="M10.4.2S1.9.3,1.1,8.7c0,0-1,.6-1,11.4S1,31.8,1,31.8s.9,1.1,9.4,1.3c0,0,48.1,1.6,54.7,1.3S149.3,33,149.3,33s8.5-.1,9-6.5a49.1,49.1,0,0,0,.5-6.3c0-11.7-.4-15.8-.4-15.8S157.8.3,149.3.2L63.8-.5C54.7-.6,10.4.2,10.4.2"/></g></svg>