<?xml version="1.0" encoding="utf-8"?>
<!-- Generator: Adobe Illustrator 21.1.0, SVG Export Plug-In . SVG Version: 6.00 Build 0)  -->
<svg version="1.1" id="Capa_1" xmlns="http://www.w3.org/2000/svg" xmlns:xlink="http://www.w3.org/1999/xlink" x="0px" y="0px"
	 viewBox="0 0 84.174 37.125" style="enable-background:new 0 0 84.174 37.125;" xml:space="preserve">
<style type="text/css">
	.st0{clip-path:url(#SVGID_2_);}
	.st1{clip-path:url(#SVGID_4_);fill:#005CA8;}
	.st2{filter:url(#Adobe_OpacityMaskFilter);}
	.st3{clip-path:url(#SVGID_4_);}
	.st4{clip-path:url(#SVGID_4_);mask:url(#SVGID_5_);}
	.st5{opacity:0.2;clip-path:url(#SVGID_9_);fill:#1D1D1B;}
	.st6{clip-path:url(#SVGID_2_);fill:#FFFFFF;}
	.st7{clip-path:url(#SVGID_11_);fill:none;stroke:#005CA8;stroke-width:1.777;stroke-linecap:round;}
	.st8{clip-path:url(#SVGID_2_);fill:none;stroke:#005CA8;stroke-width:1.185;stroke-linecap:round;}
	.st9{clip-path:url(#SVGID_13_);fill:#005CA8;}
	.st10{clip-path:url(#SVGID_15_);fill:#FFFFFF;}
</style>
<g>
	<defs>
		<rect id="SVGID_1_" x="-5.875" y="-5.625" width="97" height="52"/>
	</defs>
	<clipPath id="SVGID_2_">
		<use xlink:href="#SVGID_1_"  style="overflow:visible;"/>
	</clipPath>
	<g class="st0">
		<defs>
			<rect id="SVGID_3_" x="-5.875" y="-5.625" width="97" height="52"/>
		</defs>
		<clipPath id="SVGID_4_">
			<use xlink:href="#SVGID_3_"  style="overflow:visible;"/>
		</clipPath>
		<path class="st1" d="M26.314,13.016c0,0-1.805,0-1.805,1.805v15.175c0,0,0,1.805,1.805,1.805h56.055c0,0,1.805,0,1.805-1.805
			V14.821c0,0,0-1.805-1.805-1.805H26.314z"/>
		<defs>
			<filter id="Adobe_OpacityMaskFilter" filterUnits="userSpaceOnUse" x="3.134" y="0.104" width="26.88" height="34.8">
				<feColorMatrix  type="matrix" values="1 0 0 0 0  0 1 0 0 0  0 0 1 0 0  0 0 0 1 0"/>
			</filter>
		</defs>
		<mask maskUnits="userSpaceOnUse" x="3.134" y="0.104" width="26.88" height="34.8" id="SVGID_5_">
			<g class="st2">
				<g>
					<defs>
						<rect id="SVGID_6_" x="-5.746" y="-6.856" width="45.12" height="43.2"/>
					</defs>
					<clipPath id="SVGID_7_" class="st3">
						<use xlink:href="#SVGID_6_"  style="overflow:visible;"/>
					</clipPath>
					<g style="clip-path:url(#SVGID_7_);">
						
							<image style="overflow:visible;" width="188" height="180" xlink:href="90AAFE42A1654558.jpg"  transform="matrix(0.24 0 0 0.24 -5.7462 -6.8557)">
						</image>
					</g>
				</g>
			</g>
		</mask>
		<g class="st4">
			<g>
				<defs>
					<rect id="SVGID_8_" x="3.134" y="0.104" width="26.88" height="34.8"/>
				</defs>
				<clipPath id="SVGID_9_">
					<use xlink:href="#SVGID_8_"  style="overflow:visible;"/>
				</clipPath>
				<rect x="3.134" y="0.104" class="st5" width="26.88" height="34.8"/>
			</g>
		</g>
	</g>
	<rect x="1.619" y="1.779" class="st6" width="26.705" height="34.555"/>
	<g class="st0">
		<defs>
			<rect id="SVGID_10_" x="-5.875" y="-5.625" width="97" height="52"/>
		</defs>
		<clipPath id="SVGID_11_">
			<use xlink:href="#SVGID_10_"  style="overflow:visible;"/>
		</clipPath>
		<path class="st7" d="M1.014,1.957v31.126c0,0,0.471,3.197,1.682,3.197H29.28c-1.279,0-1.682-3.196-1.682-3.196V1.957H1.014z"/>
	</g>
	<rect x="4.888" y="12.131" class="st8" width="8.161" height="8.077"/>
	<g class="st0">
		<defs>
			<rect id="SVGID_12_" x="-5.875" y="-5.625" width="97" height="52"/>
		</defs>
		<clipPath id="SVGID_13_">
			<use xlink:href="#SVGID_12_"  style="overflow:visible;"/>
		</clipPath>
		<path class="st9" d="M22.571,7.311l0.483-1.619l0.489,1.619H22.571z M24.031,8.965h0.873l-1.369-4.127h-0.921l-1.351,4.127h0.828
			l0.286-0.97h1.364L24.031,8.965z M21.451,4.838h-3.007v0.719h1.098v3.408h0.809V5.557h1.1V4.838z M15.657,7.884l-0.356,0.572
			c0.392,0.338,0.881,0.568,1.453,0.568c0.776,0,1.401-0.417,1.401-1.268c0-1.498-1.946-0.958-1.946-1.782
			c0-0.303,0.26-0.478,0.613-0.478c0.297,0,0.646,0.123,0.929,0.323L18.1,5.263c-0.358-0.299-0.846-0.484-1.332-0.484
			c-0.746,0-1.355,0.433-1.355,1.255c0,1.457,1.929,0.956,1.929,1.783c0,0.311-0.271,0.472-0.633,0.472
			C16.351,8.289,15.981,8.132,15.657,7.884 M13.91,8.965h0.81V4.838h-0.81V8.965z M10.956,4.838h-0.865l1.319,4.127h0.697
			l1.324-4.127h-0.822l-0.83,2.857L10.956,4.838z M7.308,8.965h2.517V8.249H8.109V7.241h1.455V6.528H8.109V5.553h1.676V4.838H7.308
			V8.965z M4.612,6.752V5.546h0.516c0.403,0,0.663,0.205,0.663,0.606c0,0.384-0.237,0.6-0.663,0.6H4.612z M3.816,8.965h0.796V7.462
			h0.443l0.784,1.503h0.938L5.858,7.336c0.465-0.203,0.741-0.639,0.741-1.195c0-0.76-0.518-1.303-1.391-1.303H3.816V8.965z"/>
	</g>
	<line class="st8" x1="15.403" y1="13.476" x2="23.817" y2="13.476"/>
	<line class="st8" x1="15.403" y1="16.767" x2="23.817" y2="16.767"/>
	<line class="st8" x1="15.403" y1="20.208" x2="23.817" y2="20.208"/>
	<line class="st8" x1="4.542" y1="24.757" x2="24.732" y2="24.757"/>
	<line class="st8" x1="4.542" y1="28.048" x2="24.732" y2="28.048"/>
	<line class="st8" x1="4.542" y1="31.489" x2="24.732" y2="31.489"/>
	<g class="st0">
		<defs>
			<rect id="SVGID_14_" x="-5.875" y="-5.625" width="97" height="52"/>
		</defs>
		<clipPath id="SVGID_15_">
			<use xlink:href="#SVGID_14_"  style="overflow:visible;"/>
		</clipPath>
		<path class="st10" d="M75.616,29.096c0.624-0.197,1.138-0.47,1.542-0.821c0.404-0.351,0.701-0.768,0.891-1.25
			c0.19-0.482,0.286-1.009,0.286-1.58c0-0.726-0.176-1.348-0.526-1.865c-0.351-0.518-0.847-0.908-1.489-1.17
			c0.464-0.237,0.832-0.584,1.105-1.041c0.274-0.457,0.411-0.929,0.411-1.416c0-0.498-0.084-0.958-0.25-1.379
			c-0.167-0.421-0.422-0.789-0.767-1.104c-0.345-0.314-0.781-0.558-1.31-0.73c-0.529-0.172-1.156-0.258-1.881-0.258
			c-0.392,0-0.764,0.036-1.115,0.107c-0.35,0.071-0.68,0.16-0.989,0.267c-0.309,0.107-0.591,0.226-0.847,0.357
			c-0.256,0.131-0.479,0.256-0.669,0.374l0.945,1.944c0.357-0.226,0.752-0.416,1.186-0.571c0.434-0.154,0.906-0.232,1.418-0.232
			c0.201,0,0.401,0.027,0.597,0.081c0.196,0.053,0.368,0.133,0.517,0.24c0.148,0.107,0.27,0.244,0.365,0.41
			c0.095,0.167,0.143,0.363,0.143,0.589c0,0.297-0.057,0.544-0.169,0.74c-0.114,0.196-0.265,0.35-0.455,0.463
			c-0.19,0.113-0.407,0.194-0.651,0.241c-0.244,0.048-0.496,0.071-0.758,0.071H71.97v2.14h1.034c0.368,0,0.716,0.027,1.043,0.08
			c0.327,0.054,0.609,0.149,0.847,0.285c0.237,0.137,0.425,0.315,0.561,0.535c0.137,0.22,0.205,0.49,0.205,0.811
			c0,0.524-0.19,0.94-0.57,1.248c-0.381,0.31-0.981,0.464-1.801,0.464c-0.713,0-1.31-0.074-1.792-0.223
			c-0.481-0.148-0.876-0.288-1.185-0.419l-0.517,2.211c0.154,0.071,0.368,0.149,0.641,0.232c0.274,0.083,0.577,0.16,0.91,0.232
			c0.332,0.071,0.677,0.127,1.034,0.169c0.356,0.041,0.695,0.062,1.016,0.062C74.252,29.39,74.992,29.292,75.616,29.096
			 M65.48,21.057c-0.202,0.308-0.493,0.581-0.874,0.818c-0.677-0.237-1.156-0.521-1.435-0.853c-0.279-0.332-0.419-0.688-0.419-1.067
			c0-0.142,0.03-0.29,0.089-0.444c0.06-0.154,0.152-0.3,0.277-0.436c0.124-0.136,0.282-0.246,0.472-0.329
			c0.19-0.083,0.416-0.125,0.678-0.125c0.273,0,0.505,0.045,0.695,0.134c0.19,0.089,0.348,0.199,0.472,0.329
			c0.125,0.13,0.214,0.27,0.268,0.418c0.053,0.148,0.08,0.287,0.08,0.417C65.783,20.37,65.682,20.749,65.48,21.057 M62.823,24.588
			c0.226-0.334,0.505-0.626,0.838-0.876c0.333,0.107,0.645,0.223,0.936,0.348c0.292,0.126,0.544,0.268,0.758,0.429
			c0.214,0.161,0.383,0.349,0.508,0.563c0.125,0.215,0.187,0.459,0.187,0.733c0,0.37-0.142,0.703-0.427,1.001
			c-0.286,0.298-0.738,0.447-1.355,0.447c-0.321,0-0.595-0.048-0.821-0.143c-0.226-0.095-0.41-0.214-0.552-0.357
			c-0.143-0.143-0.247-0.301-0.312-0.474c-0.066-0.173-0.098-0.331-0.098-0.474C62.485,25.321,62.597,24.921,62.823,24.588
			 M68.217,23.99c-0.292-0.482-0.776-0.943-1.453-1.384c0.451-0.284,0.829-0.673,1.132-1.166c0.303-0.492,0.454-1.023,0.454-1.593
			c0-0.392-0.074-0.787-0.222-1.184c-0.149-0.398-0.39-0.757-0.722-1.077c-0.333-0.32-0.758-0.585-1.275-0.792
			c-0.517-0.208-1.139-0.312-1.863-0.312c-0.619,0-1.18,0.098-1.685,0.294c-0.506,0.196-0.936,0.457-1.293,0.783
			c-0.357,0.327-0.633,0.709-0.829,1.149c-0.196,0.439-0.294,0.896-0.294,1.37c0,0.629,0.122,1.146,0.365,1.549
			c0.244,0.404,0.621,0.814,1.132,1.229c-0.237,0.178-0.46,0.369-0.668,0.571c-0.208,0.203-0.395,0.426-0.562,0.67
			c-0.166,0.244-0.297,0.515-0.392,0.812c-0.095,0.298-0.143,0.625-0.143,0.982c0,0.345,0.072,0.723,0.214,1.134
			c0.143,0.41,0.384,0.788,0.722,1.133c0.339,0.346,0.785,0.635,1.338,0.867c0.552,0.231,1.245,0.348,2.077,0.348
			c0.725,0,1.364-0.093,1.916-0.277c0.553-0.185,1.014-0.444,1.382-0.777c0.368-0.333,0.645-0.723,0.829-1.169
			c0.184-0.446,0.277-0.937,0.277-1.473C68.654,25.034,68.508,24.472,68.217,23.99 M53.588,25.004h5.171v-2.407h-5.171V25.004z
			 M51.618,18.541c-0.161-0.434-0.41-0.802-0.749-1.105s-0.77-0.538-1.293-0.704c-0.523-0.167-1.147-0.25-1.872-0.25
			c-0.796,0-1.542,0.158-2.237,0.472c-0.696,0.315-1.305,0.717-1.828,1.204l1.32,1.854c0.083-0.083,0.207-0.193,0.374-0.33
			c0.166-0.136,0.366-0.273,0.597-0.41c0.232-0.136,0.488-0.255,0.767-0.356s0.579-0.152,0.9-0.152c0.44,0,0.809,0.107,1.106,0.321
			c0.297,0.214,0.445,0.583,0.445,1.105c0,0.238-0.053,0.473-0.16,0.705c-0.107,0.231-0.256,0.463-0.446,0.695
			s-0.41,0.47-0.659,0.713c-0.25,0.244-0.517,0.502-0.803,0.776c-0.368,0.356-0.74,0.713-1.114,1.07
			c-0.374,0.356-0.71,0.739-1.007,1.15c-0.298,0.41-0.538,0.853-0.722,1.328c-0.185,0.475-0.277,0.998-0.277,1.569v0.428
			c0,0.202,0.012,0.368,0.036,0.499h8.237v-2.229H46.92c0.035-0.118,0.127-0.27,0.276-0.454c0.149-0.185,0.318-0.384,0.508-0.598
			c0.19-0.214,0.39-0.425,0.598-0.633c0.207-0.207,0.401-0.395,0.579-0.561c0.345-0.321,0.695-0.66,1.052-1.017
			c0.357-0.356,0.678-0.727,0.963-1.114c0.285-0.386,0.517-0.787,0.695-1.203s0.268-0.85,0.268-1.302
			C51.859,19.466,51.778,18.975,51.618,18.541 M39.164,21.057c-0.202,0.308-0.493,0.581-0.873,0.818
			c-0.678-0.237-1.157-0.521-1.436-0.853c-0.279-0.332-0.419-0.688-0.419-1.067c0-0.142,0.03-0.29,0.089-0.444
			c0.06-0.154,0.152-0.3,0.277-0.436s0.282-0.246,0.472-0.329c0.19-0.083,0.416-0.125,0.678-0.125c0.273,0,0.505,0.045,0.695,0.134
			c0.19,0.089,0.348,0.199,0.473,0.329c0.124,0.13,0.214,0.27,0.267,0.418c0.054,0.148,0.08,0.287,0.08,0.417
			C39.467,20.37,39.366,20.749,39.164,21.057 M36.508,24.588c0.225-0.334,0.505-0.626,0.838-0.876
			c0.332,0.107,0.644,0.223,0.936,0.348c0.291,0.126,0.543,0.268,0.757,0.429c0.214,0.161,0.384,0.349,0.509,0.563
			c0.124,0.215,0.187,0.459,0.187,0.733c0,0.37-0.143,0.703-0.428,1.001s-0.737,0.447-1.355,0.447c-0.321,0-0.595-0.048-0.82-0.143
			c-0.226-0.095-0.41-0.214-0.553-0.357c-0.143-0.143-0.247-0.301-0.312-0.474c-0.066-0.173-0.098-0.331-0.098-0.474
			C36.169,25.321,36.282,24.921,36.508,24.588 M41.901,23.99c-0.291-0.482-0.776-0.943-1.453-1.384
			c0.451-0.284,0.829-0.673,1.132-1.166c0.303-0.492,0.455-1.023,0.455-1.593c0-0.392-0.075-0.787-0.223-1.184
			c-0.149-0.398-0.39-0.757-0.722-1.077c-0.333-0.32-0.758-0.585-1.275-0.792c-0.517-0.208-1.138-0.312-1.863-0.312
			c-0.618,0-1.18,0.098-1.685,0.294c-0.505,0.196-0.936,0.457-1.293,0.783c-0.356,0.327-0.633,0.709-0.829,1.149
			c-0.196,0.439-0.294,0.896-0.294,1.37c0,0.629,0.122,1.146,0.366,1.549c0.243,0.404,0.621,0.814,1.132,1.229
			c-0.238,0.178-0.461,0.369-0.669,0.571c-0.208,0.203-0.395,0.426-0.561,0.67c-0.167,0.244-0.298,0.515-0.393,0.812
			c-0.095,0.298-0.142,0.625-0.142,0.982c0,0.345,0.071,0.723,0.214,1.134c0.142,0.41,0.383,0.788,0.722,1.133
			c0.338,0.346,0.784,0.635,1.337,0.867c0.553,0.231,1.245,0.348,2.077,0.348c0.725,0,1.364-0.093,1.917-0.277
			c0.552-0.185,1.013-0.444,1.381-0.777c0.369-0.333,0.645-0.723,0.829-1.169c0.185-0.446,0.277-0.937,0.277-1.473
			C42.338,25.034,42.192,24.472,41.901,23.99"/>
	</g>
</g>
</svg>
