<?xml version="1.0" encoding="utf-8"?>
<!-- Generator: Adobe Illustrator 21.1.0, SVG Export Plug-In . SVG Version: 6.00 Build 0)  -->
<svg version="1.1" id="Capa_1" xmlns="http://www.w3.org/2000/svg" xmlns:xlink="http://www.w3.org/1999/xlink" x="0px" y="0px"
	 viewBox="0 0 52.96 35.518" style="enable-background:new 0 0 52.96 35.518;" xml:space="preserve">
<style type="text/css">
	.st0{clip-path:url(#SVGID_2_);}
	.st1{clip-path:url(#SVGID_4_);fill:#005CA8;}
	.st2{filter:url(#Adobe_OpacityMaskFilter);}
	.st3{clip-path:url(#SVGID_4_);}
	.st4{clip-path:url(#SVGID_4_);mask:url(#SVGID_5_);}
	.st5{opacity:0.2;clip-path:url(#SVGID_9_);fill:#1D1D1B;}
	.st6{clip-path:url(#SVGID_2_);fill:#FFFFFF;}
	.st7{clip-path:url(#SVGID_11_);fill:none;stroke:#005CA8;stroke-width:1.777;stroke-linecap:round;}
	.st8{clip-path:url(#SVGID_2_);fill:none;stroke:#005CA8;stroke-width:1.185;stroke-linecap:round;}
	.st9{clip-path:url(#SVGID_13_);fill:#005CA8;}
	.st10{clip-path:url(#SVGID_15_);fill:#FFFFFF;}
</style>
<g>
	<defs>
		<rect id="SVGID_1_" x="-3.934" y="-2.007" width="62" height="40"/>
	</defs>
	<clipPath id="SVGID_2_">
		<use xlink:href="#SVGID_1_"  style="overflow:visible;"/>
	</clipPath>
	<g class="st0">
		<defs>
			<rect id="SVGID_3_" x="-3.934" y="-2.007" width="62" height="40"/>
		</defs>
		<clipPath id="SVGID_4_">
			<use xlink:href="#SVGID_3_"  style="overflow:visible;"/>
		</clipPath>
		<path class="st1" d="M25.249,12.448c0,0-1.805,0-1.805,1.805v14.4c0,0,0,1.805,1.805,1.805h25.906c0,0,1.805,0,1.805-1.805v-14.4
			c0,0,0-1.805-1.805-1.805H25.249z"/>
		<defs>
			<filter id="Adobe_OpacityMaskFilter" filterUnits="userSpaceOnUse" x="3.013" y="0" width="25.92" height="33.36">
				<feColorMatrix  type="matrix" values="1 0 0 0 0  0 1 0 0 0  0 0 1 0 0  0 0 0 1 0"/>
			</filter>
		</defs>
		<mask maskUnits="userSpaceOnUse" x="3.013" y="0" width="25.92" height="33.36" id="SVGID_5_">
			<g class="st2">
				<g>
					<defs>
						<rect id="SVGID_6_" x="-5.867" y="-6.96" width="44.16" height="41.28"/>
					</defs>
					<clipPath id="SVGID_7_" class="st3">
						<use xlink:href="#SVGID_6_"  style="overflow:visible;"/>
					</clipPath>
					<g transform="matrix(1 0 0 1 0 0)" style="clip-path:url(#SVGID_7_);">
						
							<image style="overflow:visible;" width="184" height="172" xlink:href="AD4ADC5AD7EA4B1E.jpg"  transform="matrix(0.24 0 0 0.24 -5.8672 -6.9598)">
						</image>
					</g>
				</g>
			</g>
		</mask>
		<g class="st4">
			<g>
				<defs>
					<rect id="SVGID_8_" x="3.013" y="0" width="25.92" height="33.36"/>
				</defs>
				<clipPath id="SVGID_9_">
					<use xlink:href="#SVGID_8_"  style="overflow:visible;"/>
				</clipPath>
				<rect x="3.013" class="st5" width="25.92" height="33.36"/>
			</g>
		</g>
	</g>
	<rect x="1.499" y="1.675" class="st6" width="25.604" height="33.13"/>
	<g class="st0">
		<defs>
			<rect id="SVGID_10_" x="-3.934" y="-2.007" width="62" height="40"/>
		</defs>
		<clipPath id="SVGID_11_">
			<use xlink:href="#SVGID_10_"  style="overflow:visible;"/>
		</clipPath>
		<path class="st7" d="M0.954,1.882v29.776c0,0,0.45,3.058,1.609,3.058h25.419c-1.223,0-1.609-3.057-1.609-3.057V1.882H0.954z"/>
	</g>
	<rect x="4.657" y="11.624" class="st8" width="7.776" height="7.695"/>
	<g class="st0">
		<defs>
			<rect id="SVGID_12_" x="-3.934" y="-2.007" width="62" height="40"/>
		</defs>
		<clipPath id="SVGID_13_">
			<use xlink:href="#SVGID_12_"  style="overflow:visible;"/>
		</clipPath>
		<path class="st9" d="M21.587,6.979l0.463-1.552l0.469,1.552H21.587z M22.987,8.565h0.836l-1.312-3.957h-0.883l-1.296,3.957h0.794
			l0.275-0.93h1.308L22.987,8.565z M20.513,4.608H17.63v0.689h1.053v3.268h0.775V5.297h1.055V4.608z M14.958,7.529l-0.342,0.548
			c0.376,0.324,0.845,0.544,1.393,0.544c0.745,0,1.344-0.399,1.344-1.215c0-1.436-1.866-0.919-1.866-1.709
			c0-0.29,0.249-0.458,0.587-0.458c0.285,0,0.62,0.118,0.891,0.309L17.3,5.016c-0.343-0.287-0.811-0.464-1.277-0.464
			c-0.715,0-1.299,0.414-1.299,1.203c0,1.397,1.849,0.917,1.849,1.709c0,0.299-0.26,0.452-0.606,0.452
			C15.624,7.916,15.268,7.766,14.958,7.529 M13.283,8.565h0.777V4.608h-0.777V8.565z M10.451,4.608h-0.83l1.265,3.957h0.668
			l1.27-3.957h-0.789l-0.795,2.74L10.451,4.608z M6.953,8.565h2.414V7.879H7.721V6.912h1.395V6.228H7.721V5.294h1.606V4.608H6.953
			V8.565z M4.368,6.443V5.287h0.495c0.386,0,0.635,0.197,0.635,0.581c0,0.369-0.227,0.575-0.635,0.575H4.368z M3.605,8.565h0.763
			V7.124h0.425l0.751,1.441h0.9L5.563,7.003c0.446-0.195,0.71-0.613,0.71-1.146c0-0.729-0.497-1.249-1.333-1.249H3.605V8.565z"/>
	</g>
	<line class="st8" x1="14.738" y1="12.914" x2="22.756" y2="12.914"/>
	<line class="st8" x1="14.738" y1="16.045" x2="22.756" y2="16.045"/>
	<line class="st8" x1="14.738" y1="19.319" x2="22.756" y2="19.319"/>
	<line class="st8" x1="4.325" y1="23.73" x2="23.634" y2="23.73"/>
	<line class="st8" x1="4.325" y1="26.861" x2="23.634" y2="26.861"/>
	<line class="st8" x1="4.325" y1="30.135" x2="23.634" y2="30.135"/>
	<g class="st0">
		<defs>
			<rect id="SVGID_14_" x="-3.934" y="-2.007" width="62" height="40"/>
		</defs>
		<clipPath id="SVGID_15_">
			<use xlink:href="#SVGID_14_"  style="overflow:visible;"/>
		</clipPath>
		<path class="st10" d="M45.824,25.072c-0.369,0.327-0.963,0.49-1.783,0.49c-0.678,0-1.26-0.063-1.747-0.187
			c-0.488-0.125-0.88-0.253-1.177-0.384l-0.481,2.193c0.142,0.072,0.344,0.143,0.606,0.214c0.261,0.072,0.555,0.14,0.882,0.205
			c0.327,0.065,0.666,0.119,1.017,0.161c0.35,0.041,0.686,0.062,1.007,0.062c0.82,0,1.536-0.101,2.148-0.303s1.12-0.481,1.525-0.838
			c0.403-0.357,0.707-0.778,0.909-1.266c0.202-0.487,0.303-1.016,0.303-1.586c0-1.237-0.413-2.202-1.239-2.898
			c-0.826-0.695-2.107-1.102-3.842-1.221c0.035-0.297,0.068-0.644,0.098-1.043c0.029-0.398,0.056-0.811,0.08-1.239h4.457v-2.228
			h-6.686c-0.047,0.998-0.113,2.068-0.196,3.209c-0.083,1.141-0.19,2.264-0.321,3.369c0.975,0,1.783,0.048,2.425,0.143
			c0.642,0.095,1.153,0.232,1.533,0.41c0.381,0.178,0.648,0.401,0.803,0.668c0.154,0.268,0.231,0.574,0.231,0.919
			C46.376,24.362,46.192,24.745,45.824,25.072 M36.107,19.494c-0.202,0.308-0.493,0.58-0.873,0.817
			c-0.678-0.237-1.156-0.521-1.435-0.853c-0.28-0.332-0.419-0.687-0.419-1.067c0-0.142,0.029-0.29,0.089-0.444
			c0.059-0.154,0.151-0.299,0.276-0.436c0.125-0.136,0.282-0.246,0.473-0.329c0.189-0.083,0.415-0.124,0.677-0.124
			c0.273,0,0.505,0.044,0.695,0.133c0.19,0.089,0.348,0.199,0.473,0.329s0.214,0.27,0.267,0.418c0.054,0.148,0.08,0.287,0.08,0.418
			C36.41,18.806,36.309,19.185,36.107,19.494 M33.451,23.024c0.226-0.334,0.505-0.626,0.838-0.876
			c0.332,0.107,0.644,0.223,0.936,0.348c0.291,0.126,0.544,0.268,0.758,0.429c0.213,0.161,0.383,0.349,0.508,0.563
			c0.124,0.215,0.187,0.459,0.187,0.733c0,0.369-0.143,0.703-0.428,1.001s-0.737,0.447-1.355,0.447c-0.321,0-0.594-0.048-0.82-0.143
			c-0.226-0.095-0.41-0.215-0.553-0.357c-0.142-0.143-0.247-0.301-0.312-0.474c-0.065-0.173-0.098-0.331-0.098-0.474
			C33.112,23.756,33.225,23.357,33.451,23.024 M38.844,22.426c-0.291-0.482-0.776-0.943-1.453-1.384
			c0.452-0.284,0.829-0.673,1.132-1.166c0.303-0.492,0.455-1.023,0.455-1.593c0-0.392-0.075-0.786-0.223-1.184
			c-0.149-0.397-0.39-0.756-0.722-1.077c-0.333-0.32-0.758-0.584-1.275-0.792c-0.517-0.208-1.138-0.312-1.863-0.312
			c-0.618,0-1.18,0.098-1.685,0.294c-0.505,0.196-0.936,0.457-1.292,0.784c-0.357,0.326-0.633,0.709-0.829,1.148
			c-0.196,0.439-0.295,0.896-0.295,1.371c0,0.629,0.122,1.145,0.366,1.548c0.243,0.404,0.621,0.814,1.132,1.229
			c-0.238,0.179-0.461,0.369-0.669,0.571c-0.208,0.203-0.395,0.426-0.561,0.67c-0.167,0.244-0.297,0.514-0.392,0.812
			c-0.096,0.298-0.143,0.625-0.143,0.982c0,0.345,0.071,0.723,0.214,1.133c0.143,0.411,0.383,0.789,0.722,1.134
			c0.339,0.346,0.784,0.634,1.337,0.866c0.553,0.232,1.245,0.348,2.077,0.348c0.725,0,1.364-0.092,1.917-0.276
			c0.552-0.185,1.013-0.444,1.381-0.777c0.369-0.333,0.645-0.723,0.829-1.169c0.185-0.446,0.277-0.938,0.277-1.473
			C39.281,23.47,39.135,22.908,38.844,22.426"/>
	</g>
</g>
</svg>
