<?xml version="1.0" encoding="utf-8"?>
<!-- Generator: Adobe Illustrator 21.1.0, SVG Export Plug-In . SVG Version: 6.00 Build 0)  -->
<svg version="1.1" id="Capa_1" xmlns="http://www.w3.org/2000/svg" xmlns:xlink="http://www.w3.org/1999/xlink" x="0px" y="0px"
	 viewBox="0 0 52.897 35.493" style="enable-background:new 0 0 52.897 35.493;" xml:space="preserve">
<style type="text/css">
	.st0{clip-path:url(#SVGID_2_);}
	.st1{clip-path:url(#SVGID_4_);fill:#005CA8;}
	.st2{filter:url(#Adobe_OpacityMaskFilter);}
	.st3{clip-path:url(#SVGID_4_);}
	.st4{clip-path:url(#SVGID_4_);mask:url(#SVGID_5_);}
	.st5{opacity:0.2;clip-path:url(#SVGID_9_);fill:#1D1D1B;}
	.st6{clip-path:url(#SVGID_2_);fill:#FFFFFF;}
	.st7{clip-path:url(#SVGID_11_);fill:none;stroke:#005CA8;stroke-width:1.777;stroke-linecap:round;}
	.st8{clip-path:url(#SVGID_2_);fill:none;stroke:#005CA8;stroke-width:1.185;stroke-linecap:round;}
	.st9{clip-path:url(#SVGID_13_);fill:#005CA8;}
	.st10{clip-path:url(#SVGID_15_);fill:#FFFFFF;}
</style>
<g>
	<defs>
		<rect id="SVGID_1_" x="-4" y="-7.007" width="66" height="52"/>
	</defs>
	<clipPath id="SVGID_2_">
		<use xlink:href="#SVGID_1_"  style="overflow:visible;"/>
	</clipPath>
	<g class="st0">
		<defs>
			<rect id="SVGID_3_" x="-4" y="-7.007" width="66" height="52"/>
		</defs>
		<clipPath id="SVGID_4_">
			<use xlink:href="#SVGID_3_"  style="overflow:visible;"/>
		</clipPath>
		<path class="st1" d="M25.185,12.449c0,0-1.805,0-1.805,1.805v14.401c0,0,0,1.805,1.805,1.805h25.907c0,0,1.805,0,1.805-1.805
			V14.254c0,0,0-1.805-1.805-1.805H25.185z"/>
		<defs>
			<filter id="Adobe_OpacityMaskFilter" filterUnits="userSpaceOnUse" x="2.947" y="0" width="25.92" height="33.36">
				<feColorMatrix  type="matrix" values="1 0 0 0 0  0 1 0 0 0  0 0 1 0 0  0 0 0 1 0"/>
			</filter>
		</defs>
		<mask maskUnits="userSpaceOnUse" x="2.947" y="0" width="25.92" height="33.36" id="SVGID_5_">
			<g class="st2">
				<g>
					<defs>
						<rect id="SVGID_6_" x="-5.933" y="-6.96" width="44.16" height="41.28"/>
					</defs>
					<clipPath id="SVGID_7_" class="st3">
						<use xlink:href="#SVGID_6_"  style="overflow:visible;"/>
					</clipPath>
					<g transform="matrix(1 0 0 1 0 0)" style="clip-path:url(#SVGID_7_);">
						
							<image style="overflow:visible;" width="184" height="172" xlink:href="B95581BA4577F8DD.jpg"  transform="matrix(0.24 0 0 0.24 -5.9327 -6.96)">
						</image>
					</g>
				</g>
			</g>
		</mask>
		<g class="st4">
			<g>
				<defs>
					<rect id="SVGID_8_" x="2.947" width="25.92" height="33.36"/>
				</defs>
				<clipPath id="SVGID_9_">
					<use xlink:href="#SVGID_8_"  style="overflow:visible;"/>
				</clipPath>
				<rect x="2.947" y="0" class="st5" width="25.92" height="33.36"/>
			</g>
		</g>
	</g>
	<rect x="1.433" y="1.675" class="st6" width="25.605" height="33.132"/>
	<g class="st0">
		<defs>
			<rect id="SVGID_10_" x="-4" y="-7.007" width="66" height="52"/>
		</defs>
		<clipPath id="SVGID_11_">
			<use xlink:href="#SVGID_10_"  style="overflow:visible;"/>
		</clipPath>
		<path class="st7" d="M0.889,1.882V31.66c0,0,0.45,3.058,1.609,3.058h25.42c-1.223,0-1.609-3.058-1.609-3.058V1.882H0.889z"/>
	</g>
	<rect x="4.591" y="11.624" class="st8" width="7.776" height="7.696"/>
	<g class="st0">
		<defs>
			<rect id="SVGID_12_" x="-4" y="-7.007" width="66" height="52"/>
		</defs>
		<clipPath id="SVGID_13_">
			<use xlink:href="#SVGID_12_"  style="overflow:visible;"/>
		</clipPath>
		<path class="st9" d="M21.522,6.979l0.462-1.552l0.47,1.552H21.522z M22.922,8.565h0.836l-1.313-3.957h-0.882l-1.296,3.957h0.794
			l0.275-0.93h1.307L22.922,8.565z M20.448,4.608h-2.884v0.689h1.054v3.268h0.775V5.297h1.055V4.608z M14.892,7.529l-0.341,0.548
			c0.376,0.324,0.845,0.544,1.393,0.544c0.744,0,1.344-0.399,1.344-1.215c0-1.436-1.867-0.919-1.867-1.709
			c0-0.29,0.25-0.458,0.588-0.458c0.285,0,0.62,0.118,0.891,0.309l0.335-0.532c-0.343-0.287-0.811-0.465-1.277-0.465
			c-0.716,0-1.299,0.415-1.299,1.204c0,1.397,1.849,0.917,1.849,1.709c0,0.299-0.26,0.452-0.607,0.452
			C15.558,7.916,15.203,7.766,14.892,7.529 M13.218,8.565h0.777V4.608h-0.777V8.565z M10.385,4.608H9.556l1.265,3.957h0.667
			l1.27-3.957h-0.789l-0.795,2.74L10.385,4.608z M6.887,8.565h2.414V7.879H7.655V6.912H9.05V6.228H7.655V5.294h1.607V4.608H6.887
			V8.565z M4.302,6.443V5.287h0.495c0.386,0,0.635,0.196,0.635,0.581c0,0.368-0.227,0.575-0.635,0.575H4.302z M3.539,8.565h0.763
			V7.124h0.425l0.751,1.441h0.9L5.497,7.003c0.446-0.195,0.71-0.613,0.71-1.146c0-0.729-0.496-1.249-1.333-1.249H3.539V8.565z"/>
	</g>
	<line class="st8" x1="14.673" y1="12.915" x2="22.691" y2="12.915"/>
	<line class="st8" x1="14.673" y1="16.046" x2="22.691" y2="16.046"/>
	<line class="st8" x1="14.673" y1="19.32" x2="22.691" y2="19.32"/>
	<line class="st8" x1="4.26" y1="23.731" x2="23.57" y2="23.731"/>
	<line class="st8" x1="4.26" y1="26.862" x2="23.57" y2="26.862"/>
	<line class="st8" x1="4.26" y1="30.136" x2="23.57" y2="30.136"/>
	<g class="st0">
		<defs>
			<rect id="SVGID_14_" x="-4" y="-7.007" width="66" height="52"/>
		</defs>
		<clipPath id="SVGID_15_">
			<use xlink:href="#SVGID_14_"  style="overflow:visible;"/>
		</clipPath>
		<path class="st10" d="M46.616,23.048c-0.059,0.511-0.154,0.951-0.285,1.32c-0.131,0.368-0.309,0.653-0.535,0.855
			c-0.226,0.203-0.505,0.304-0.838,0.304s-0.609-0.101-0.829-0.304c-0.22-0.202-0.398-0.487-0.535-0.855
			c-0.137-0.369-0.235-0.809-0.294-1.32c-0.06-0.511-0.089-1.075-0.089-1.694c0-0.617,0.029-1.179,0.089-1.684
			c0.059-0.505,0.157-0.942,0.294-1.311c0.137-0.368,0.315-0.653,0.535-0.856c0.22-0.202,0.496-0.303,0.829-0.303
			s0.612,0.101,0.838,0.303c0.226,0.203,0.404,0.488,0.535,0.856c0.131,0.369,0.226,0.806,0.285,1.311
			c0.059,0.505,0.089,1.067,0.089,1.684C46.705,21.973,46.675,22.537,46.616,23.048 M48.23,16.585
			c-0.791-1.111-1.881-1.667-3.272-1.667c-0.678,0-1.29,0.143-1.836,0.428c-0.547,0.285-1.017,0.701-1.409,1.248
			c-0.392,0.547-0.692,1.219-0.9,2.015c-0.208,0.796-0.312,1.711-0.312,2.745c0,2.081,0.395,3.676,1.185,4.788
			c0.791,1.111,1.881,1.667,3.272,1.667s2.481-0.556,3.272-1.667c0.79-1.112,1.185-2.707,1.185-4.788
			C49.415,19.286,49.02,17.697,48.23,16.585 M35.535,23.958c-0.291,0.344-0.645,0.621-1.061,0.829s-0.897,0.356-1.444,0.445
			c-0.547,0.089-1.159,0.14-1.836,0.152c0.024,0.38,0.047,0.749,0.071,1.105c0.024,0.357,0.042,0.725,0.054,1.106
			c1.355-0.012,2.525-0.176,3.512-0.491c0.987-0.314,1.798-0.775,2.434-1.381c0.636-0.607,1.105-1.355,1.408-2.247
			c0.303-0.891,0.455-1.919,0.455-3.084c0-1.771-0.39-3.129-1.168-4.074c-0.779-0.945-1.934-1.418-3.468-1.418
			c-0.749,0-1.388,0.134-1.916,0.401c-0.529,0.268-0.966,0.607-1.311,1.017c-0.345,0.41-0.597,0.864-0.758,1.364
			c-0.16,0.499-0.24,0.986-0.24,1.462c0,0.57,0.083,1.093,0.249,1.569c0.167,0.475,0.425,0.882,0.776,1.221
			c0.35,0.339,0.799,0.6,1.346,0.784c0.547,0.185,1.206,0.277,1.979,0.277c0.214,0,0.473-0.027,0.776-0.08
			c0.303-0.054,0.579-0.14,0.829-0.259C36.055,23.179,35.826,23.613,35.535,23.958 M33.378,20.463
			c-0.315-0.309-0.472-0.784-0.472-1.426c0-0.214,0.032-0.434,0.098-0.66c0.065-0.226,0.163-0.434,0.294-0.624
			c0.13-0.19,0.303-0.345,0.517-0.464c0.214-0.118,0.463-0.178,0.749-0.178c0.356,0,0.656,0.08,0.9,0.241
			c0.243,0.16,0.437,0.38,0.579,0.659c0.143,0.28,0.244,0.607,0.304,0.981c0.059,0.374,0.095,0.776,0.107,1.204
			c0,0.035-0.004,0.077-0.009,0.124c-0.006,0.048-0.009,0.096-0.009,0.143v0.16c-0.143,0.096-0.363,0.17-0.66,0.223
			c-0.297,0.054-0.582,0.081-0.856,0.081C34.207,20.927,33.693,20.772,33.378,20.463"/>
	</g>
</g>
</svg>
