<?xml version="1.0" encoding="utf-8"?>
<!-- Generator: Adobe Illustrator 25.4.3, SVG Export Plug-In . SVG Version: 6.00 Build 0)  -->
<svg version="1.1" id="Capa_1" xmlns="http://www.w3.org/2000/svg" xmlns:xlink="http://www.w3.org/1999/xlink" x="0px" y="0px"
	 viewBox="0 0 273.8 192.5" style="enable-background:new 0 0 273.8 192.5;" xml:space="preserve">
<style type="text/css">
	.st0{fill:#F39200;}
	.st1{fill:none;stroke:#F39200;stroke-linecap:round;stroke-miterlimit:10;stroke-dasharray:3;}
</style>
<polygon class="st0" points="129.6,83.2 130.4,80.1 141.8,82.8 145.2,68.5 133.7,65.8 134.5,62.7 121.6,70.5 "/>
<path class="st1" d="M242.1,2.4c4.6-1.2,10.1-1.2,14.5,3.2c12.7,12.7,21.7,58,10,78.6c-13.4,23.6-37.4,14.8-101.9-1.3
	c-59.4-14.9-74-30.4-105-21.5c-13.7,3.9-43.4,13.1-54.5,48.6c-1.5,4.7-9.2,29.3-1,53.4c7.3,21.8,22.3,27.8,24.9,28.8"/>
</svg>
