<svg id="Capa_1" data-name="Capa 1" xmlns="http://www.w3.org/2000/svg" viewBox="0 0 417.44 191.33"><defs><style>.cls-1{fill:#f39200;}.cls-2{fill:none;stroke:#f39200;stroke-linecap:round;stroke-miterlimit:10;stroke-dasharray:3;}</style></defs><polygon class="cls-1" points="398.09 101.48 396.69 98.58 407.28 93.48 400.91 80.25 390.33 85.35 388.93 82.45 383.83 96.62 398.09 101.48"/><polygon class="cls-1" points="225.28 87.63 226.02 84.5 237.45 87.2 240.83 72.91 229.39 70.21 230.13 67.08 217.25 74.89 225.28 87.63"/><polygon class="cls-1" points="39.55 91.59 37.97 88.79 48.2 83.01 40.98 70.23 30.75 76.01 29.16 73.2 25.01 87.68 39.55 91.59"/><path class="cls-2" d="M372.87,4.33c7.12-1.25,15.48-1.25,22.32,3.19,19.53,12.69,33.26,58,15.38,78.56-20.52,23.63-57.33,14.84-156.22-1.33-91.06-14.89-113.47-30.38-161-21.52-21,3.92-66.61,13.08-83.69,48.62-2.25,4.69-14.06,29.28-1.59,53.4C19.29,187,42.28,193,46.32,194" transform="translate(-1.93 -3.11)"/></svg>