<?xml version="1.0" encoding="utf-8"?>
<!-- Generator: Adobe Illustrator 26.0.2, SVG Export Plug-In . SVG Version: 6.00 Build 0)  -->
<svg version="1.1" id="Capa_1" xmlns="http://www.w3.org/2000/svg" xmlns:xlink="http://www.w3.org/1999/xlink" x="0px" y="0px"
	 viewBox="0 0 215 24.8" style="enable-background:new 0 0 215 24.8;" xml:space="preserve">
<style type="text/css">
	.st0{fill:#FFFFFF;}
	.st1{fill:#868686;}
</style>
<path class="st0" d="M212.6,24.4H2.4c-1.1,0-2-0.9-2-2v-20c0-1.1,0.9-2,2-2h210.2c1.1,0,2,0.9,2,2v20
	C214.6,23.5,213.7,24.4,212.6,24.4z"/>
<path class="st1" d="M0.8,9.4H0v-7C0,1.1,1.1,0,2.4,0h4v0.8h-4c-0.9,0-1.6,0.7-1.6,1.6V9.4z"/>
<path class="st1" d="M11.5,24.8H2.4c-1.3,0-2.4-1.1-2.4-2.4V10.3h0.8v12.1c0,0.9,0.7,1.6,1.6,1.6h9.1V24.8z"/>
<path class="st1" d="M212.6,24.8h-9.3V24h9.3c0.9,0,1.6-0.7,1.6-1.6v-4.5h0.8v4.5C215,23.7,213.9,24.8,212.6,24.8z"/>
<path class="st1" d="M215,16.5h-0.8v-14c0-1-0.8-1.7-1.7-1.7h-14.4V0h14.4c1.4,0,2.5,1.1,2.5,2.5V16.5z"/>
<rect x="8.6" class="st1" width="187.2" height="0.8"/>
<rect x="13.8" y="24" class="st1" width="187.2" height="0.8"/>
</svg>
