<?xml version="1.0" encoding="utf-8"?>
<!-- Generator: Adobe Illustrator 26.0.2, SVG Export Plug-In . SVG Version: 6.00 Build 0)  -->
<svg version="1.1" id="Capa_1" xmlns="http://www.w3.org/2000/svg" xmlns:xlink="http://www.w3.org/1999/xlink" x="0px" y="0px"
	 viewBox="0 0 24.8 24.8" style="enable-background:new 0 0 24.8 24.8;" xml:space="preserve">
<style type="text/css">
	.st0{fill:#FFFFFF;}
	.st1{fill:none;stroke:#868686;stroke-width:0.75;stroke-miterlimit:10;}
</style>
<g>
	<path class="st0" d="M22.4,24.4h-20c-1.1,0-2-0.9-2-2v-20c0-1.1,0.9-2,2-2h20c1.1,0,2,0.9,2,2v20C24.4,23.5,23.5,24.4,22.4,24.4z"
		/>
	<path class="st1" d="M6.4,0.4h-4c-1.1,0-2,0.9-2,2v7"/>
	<path class="st1" d="M0.4,10.3v12.1c0,1.1,0.9,2,2,2h9.1"/>
	<path class="st1" d="M13.1,24.4h9.3c1.1,0,2-0.9,2-2v-4.5"/>
	<path class="st1" d="M24.4,16.5v-14c0-1.2-0.9-2.1-2.1-2.1c0,0,0,0,0,0H7.9"/>
</g>
</svg>
