<?xml version="1.0" encoding="utf-8"?>
<!-- Generator: Adobe Illustrator 14.0.0, SVG Export Plug-In . SVG Version: 6.00 Build 43363)  -->
<!DOCTYPE svg PUBLIC "-//W3C//DTD SVG 1.1//EN" "http://www.w3.org/Graphics/SVG/1.1/DTD/svg11.dtd">
<svg version="1.1" id="Layer_1" xmlns="http://www.w3.org/2000/svg" xmlns:xlink="http://www.w3.org/1999/xlink" x="0px" y="0px"
	 width="39.337px" height="39.835px" viewBox="-4.167 -4.665 39.337 39.835" enable-background="new -4.167 -4.665 39.337 39.835"
	 xml:space="preserve">
<path fill="#0071BB" d="M15.813,34.648c10.521,0,19.049-8.528,19.049-19.048S26.333-3.449,15.813-3.449
	C5.292-3.449-3.236,5.08-3.236,15.6S5.292,34.648,15.813,34.648"/>
<path fill="#FFFFFF" d="M11.656,26.388c-0.174,0-0.348-0.04-0.508-0.121c-0.374-0.191-0.608-0.576-0.608-0.994V5.927
	c0-0.42,0.234-0.804,0.608-0.995c0.373-0.191,0.821-0.156,1.16,0.09l13.395,9.673c0.29,0.209,0.463,0.546,0.463,0.905
	c0,0.358-0.173,0.695-0.463,0.904l-13.395,9.673C12.116,26.317,11.885,26.388,11.656,26.388"/>
<path fill="#D8D6EB" d="M10.54,15.6v9.673c0,0.42,0.234,0.803,0.608,0.994c0.16,0.082,0.334,0.121,0.508,0.121
	c0.229,0,0.46-0.07,0.652-0.211l13.395-9.673c0.29-0.21,0.463-0.546,0.463-0.905H10.54z"/>
</svg>
