<?xml version="1.0" encoding="utf-8"?>
<!-- Generator: Adobe Illustrator 21.1.0, SVG Export Plug-In . SVG Version: 6.00 Build 0)  -->
<svg version="1.1" id="Capa_1" xmlns="http://www.w3.org/2000/svg" xmlns:xlink="http://www.w3.org/1999/xlink" x="0px" y="0px"
	 viewBox="0 0 81.475 37.125" style="enable-background:new 0 0 81.475 37.125;" xml:space="preserve">
<style type="text/css">
	.st0{clip-path:url(#SVGID_2_);}
	.st1{clip-path:url(#SVGID_4_);fill:#005CA8;}
	.st2{filter:url(#Adobe_OpacityMaskFilter);}
	.st3{clip-path:url(#SVGID_4_);}
	.st4{clip-path:url(#SVGID_4_);mask:url(#SVGID_5_);}
	.st5{opacity:0.2;clip-path:url(#SVGID_9_);fill:#1D1D1B;}
	.st6{clip-path:url(#SVGID_2_);fill:#FFFFFF;}
	.st7{clip-path:url(#SVGID_11_);fill:none;stroke:#005CA8;stroke-width:1.777;stroke-linecap:round;}
	.st8{clip-path:url(#SVGID_2_);fill:none;stroke:#005CA8;stroke-width:1.185;stroke-linecap:round;}
	.st9{clip-path:url(#SVGID_13_);fill:#005CA8;}
	.st10{clip-path:url(#SVGID_15_);fill:#FFFFFF;}
</style>
<g>
	<defs>
		<rect id="SVGID_1_" x="-6.625" y="-7.22" width="96" height="53"/>
	</defs>
	<clipPath id="SVGID_2_">
		<use xlink:href="#SVGID_1_"  style="overflow:visible;"/>
	</clipPath>
	<g class="st0">
		<defs>
			<rect id="SVGID_3_" x="-6.625" y="-7.22" width="96" height="53"/>
		</defs>
		<clipPath id="SVGID_4_">
			<use xlink:href="#SVGID_3_"  style="overflow:visible;"/>
		</clipPath>
		<path class="st1" d="M26.323,13.078c0,0-1.805,0-1.805,1.805v15.175c0,0,0,1.805,1.805,1.805H79.67c0,0,1.805,0,1.805-1.805
			V14.883c0,0,0-1.805-1.805-1.805H26.323z"/>
		<defs>
			<filter id="Adobe_OpacityMaskFilter" filterUnits="userSpaceOnUse" x="3.143" y="0.166" width="26.88" height="34.8">
				<feColorMatrix  type="matrix" values="1 0 0 0 0  0 1 0 0 0  0 0 1 0 0  0 0 0 1 0"/>
			</filter>
		</defs>
		<mask maskUnits="userSpaceOnUse" x="3.143" y="0.166" width="26.88" height="34.8" id="SVGID_5_">
			<g class="st2">
				<g>
					<defs>
						<rect id="SVGID_6_" x="-5.737" y="-6.794" width="45.12" height="43.2"/>
					</defs>
					<clipPath id="SVGID_7_" class="st3">
						<use xlink:href="#SVGID_6_"  style="overflow:visible;"/>
					</clipPath>
					<g style="clip-path:url(#SVGID_7_);">
						
							<image style="overflow:visible;" width="188" height="180" xlink:href="EEDC96E455A2CE4D.jpg"  transform="matrix(0.24 0 0 0.24 -5.7372 -6.7937)">
						</image>
					</g>
				</g>
			</g>
		</mask>
		<g class="st4">
			<g>
				<defs>
					<rect id="SVGID_8_" x="3.143" y="0.166" width="26.88" height="34.8"/>
				</defs>
				<clipPath id="SVGID_9_">
					<use xlink:href="#SVGID_8_"  style="overflow:visible;"/>
				</clipPath>
				<rect x="3.143" y="0.166" class="st5" width="26.88" height="34.8"/>
			</g>
		</g>
	</g>
	<rect x="1.628" y="1.841" class="st6" width="26.705" height="34.555"/>
	<g class="st0">
		<defs>
			<rect id="SVGID_10_" x="-6.625" y="-7.22" width="96" height="53"/>
		</defs>
		<clipPath id="SVGID_11_">
			<use xlink:href="#SVGID_10_"  style="overflow:visible;"/>
		</clipPath>
		<path class="st7" d="M1.023,2.019v31.126c0,0,0.471,3.197,1.683,3.197h26.583c-1.279,0-1.682-3.196-1.682-3.196V2.019H1.023z"/>
	</g>
	<rect x="4.897" y="12.193" class="st8" width="8.161" height="8.077"/>
	<g class="st0">
		<defs>
			<rect id="SVGID_12_" x="-6.625" y="-7.22" width="96" height="53"/>
		</defs>
		<clipPath id="SVGID_13_">
			<use xlink:href="#SVGID_12_"  style="overflow:visible;"/>
		</clipPath>
		<path class="st9" d="M22.58,7.373l0.483-1.619l0.489,1.619H22.58z M24.04,9.027h0.873L23.544,4.9h-0.921l-1.351,4.127H22.1
			l0.286-0.97h1.364L24.04,9.027z M21.46,4.9h-3.007v0.719h1.098v3.408h0.809V5.619h1.1V4.9z M15.666,7.946L15.31,8.518
			c0.392,0.338,0.881,0.568,1.453,0.568c0.776,0,1.401-0.417,1.401-1.268c0-1.498-1.946-0.958-1.946-1.782
			c0-0.303,0.26-0.478,0.613-0.478c0.297,0,0.646,0.123,0.929,0.323l0.349-0.556c-0.358-0.299-0.846-0.484-1.332-0.484
			c-0.746,0-1.355,0.433-1.355,1.255c0,1.457,1.929,0.956,1.929,1.783c0,0.311-0.271,0.472-0.633,0.472
			C16.36,8.351,15.99,8.194,15.666,7.946 M13.919,9.027h0.81V4.9h-0.81V9.027z M10.965,4.9H10.1l1.319,4.127h0.697L13.44,4.9h-0.822
			l-0.83,2.857L10.965,4.9z M7.317,9.027h2.517V8.311H8.118V7.303h1.455V6.59H8.118V5.615h1.676V4.9H7.317V9.027z M4.621,6.814
			V5.608h0.516C5.54,5.608,5.8,5.813,5.8,6.214c0,0.384-0.237,0.6-0.663,0.6H4.621z M3.825,9.027h0.796V7.524h0.443l0.784,1.503
			h0.938L5.867,7.398c0.465-0.203,0.741-0.639,0.741-1.195c0-0.76-0.518-1.303-1.391-1.303H3.825V9.027z"/>
	</g>
	<line class="st8" x1="15.412" y1="13.538" x2="23.826" y2="13.538"/>
	<line class="st8" x1="15.412" y1="16.829" x2="23.826" y2="16.829"/>
	<line class="st8" x1="15.412" y1="20.27" x2="23.826" y2="20.27"/>
	<line class="st8" x1="4.551" y1="24.819" x2="24.741" y2="24.819"/>
	<line class="st8" x1="4.551" y1="28.11" x2="24.741" y2="28.11"/>
	<line class="st8" x1="4.551" y1="31.551" x2="24.741" y2="31.551"/>
	<g class="st0">
		<defs>
			<rect id="SVGID_14_" x="-6.625" y="-7.22" width="96" height="53"/>
		</defs>
		<clipPath id="SVGID_15_">
			<use xlink:href="#SVGID_14_"  style="overflow:visible;"/>
		</clipPath>
		<path class="st10" d="M76.589,18.603c-0.161-0.434-0.41-0.802-0.749-1.105c-0.339-0.303-0.77-0.538-1.293-0.704
			c-0.523-0.167-1.147-0.25-1.872-0.25c-0.796,0-1.542,0.158-2.238,0.472c-0.695,0.315-1.304,0.717-1.827,1.204l1.319,1.854
			c0.083-0.083,0.208-0.193,0.375-0.33c0.166-0.136,0.365-0.273,0.597-0.41c0.232-0.136,0.487-0.255,0.767-0.356
			c0.279-0.101,0.579-0.152,0.9-0.152c0.44,0,0.808,0.107,1.106,0.321c0.296,0.214,0.445,0.583,0.445,1.105
			c0,0.238-0.053,0.473-0.16,0.705c-0.107,0.231-0.256,0.463-0.446,0.695s-0.41,0.47-0.66,0.713
			c-0.249,0.244-0.517,0.502-0.802,0.776c-0.369,0.356-0.74,0.713-1.114,1.07c-0.375,0.356-0.711,0.739-1.008,1.15
			c-0.297,0.41-0.538,0.853-0.722,1.328s-0.276,0.998-0.276,1.569v0.428c0,0.202,0.012,0.368,0.036,0.499h8.237v-2.229h-5.313
			c0.035-0.118,0.127-0.27,0.276-0.454c0.148-0.185,0.318-0.384,0.508-0.598c0.19-0.214,0.389-0.425,0.597-0.633
			c0.208-0.207,0.402-0.395,0.58-0.561c0.344-0.321,0.695-0.66,1.052-1.017c0.356-0.356,0.677-0.727,0.963-1.114
			c0.285-0.386,0.517-0.787,0.695-1.203c0.178-0.416,0.267-0.85,0.267-1.302C76.829,19.528,76.749,19.037,76.589,18.603
			 M64.135,21.119c-0.202,0.308-0.493,0.581-0.874,0.818c-0.677-0.237-1.156-0.521-1.435-0.853
			c-0.279-0.332-0.419-0.688-0.419-1.067c0-0.142,0.03-0.29,0.089-0.444c0.06-0.154,0.152-0.3,0.277-0.436
			c0.124-0.136,0.282-0.246,0.472-0.329c0.19-0.083,0.416-0.125,0.678-0.125c0.273,0,0.505,0.045,0.695,0.134
			c0.19,0.089,0.348,0.199,0.472,0.329c0.125,0.13,0.214,0.27,0.268,0.418c0.053,0.148,0.08,0.287,0.08,0.417
			C64.438,20.432,64.337,20.811,64.135,21.119 M61.478,24.65c0.226-0.334,0.505-0.626,0.838-0.876
			c0.333,0.107,0.645,0.223,0.936,0.348c0.292,0.126,0.544,0.268,0.758,0.429c0.214,0.161,0.383,0.349,0.508,0.563
			c0.125,0.215,0.187,0.459,0.187,0.733c0,0.37-0.142,0.703-0.427,1.001c-0.286,0.298-0.738,0.447-1.355,0.447
			c-0.321,0-0.595-0.048-0.821-0.143c-0.226-0.095-0.41-0.214-0.552-0.357c-0.143-0.143-0.247-0.301-0.312-0.474
			c-0.066-0.173-0.098-0.331-0.098-0.474C61.14,25.383,61.252,24.983,61.478,24.65 M66.872,24.052
			c-0.292-0.482-0.776-0.943-1.453-1.384c0.451-0.284,0.829-0.673,1.132-1.166c0.303-0.492,0.454-1.023,0.454-1.593
			c0-0.392-0.074-0.787-0.222-1.184c-0.149-0.398-0.39-0.757-0.722-1.077c-0.333-0.32-0.758-0.585-1.275-0.792
			c-0.517-0.208-1.139-0.312-1.863-0.312c-0.619,0-1.18,0.098-1.685,0.294c-0.506,0.196-0.936,0.457-1.293,0.783
			c-0.357,0.327-0.633,0.709-0.829,1.149c-0.196,0.439-0.294,0.896-0.294,1.37c0,0.629,0.122,1.146,0.365,1.549
			c0.244,0.404,0.621,0.814,1.132,1.229c-0.237,0.178-0.46,0.369-0.668,0.571c-0.208,0.203-0.395,0.426-0.562,0.67
			c-0.166,0.244-0.297,0.515-0.392,0.812c-0.095,0.298-0.143,0.625-0.143,0.982c0,0.345,0.072,0.723,0.214,1.134
			c0.143,0.41,0.384,0.788,0.722,1.133c0.339,0.346,0.785,0.635,1.338,0.867c0.552,0.231,1.245,0.348,2.077,0.348
			c0.725,0,1.364-0.093,1.916-0.277c0.553-0.185,1.014-0.444,1.382-0.777c0.368-0.333,0.645-0.723,0.829-1.169
			c0.184-0.446,0.277-0.937,0.277-1.473C67.309,25.096,67.163,24.534,66.872,24.052 M52.243,25.066h5.171v-2.407h-5.171V25.066z
			 M43.721,21.447c0.416-0.143,0.843-0.312,1.283-0.508c0.44-0.196,0.838-0.413,1.195-0.651v8.897h2.656V16.829h-1.854
			c-0.261,0.274-0.556,0.532-0.882,0.776c-0.327,0.244-0.669,0.475-1.026,0.695c-0.356,0.22-0.722,0.422-1.096,0.606
			c-0.374,0.185-0.734,0.348-1.079,0.491L43.721,21.447z M37.819,21.119c-0.202,0.308-0.493,0.581-0.873,0.818
			c-0.678-0.237-1.157-0.521-1.436-0.853c-0.279-0.332-0.419-0.688-0.419-1.067c0-0.142,0.03-0.29,0.089-0.444
			c0.06-0.154,0.152-0.3,0.277-0.436s0.282-0.246,0.472-0.329c0.19-0.083,0.416-0.125,0.678-0.125c0.273,0,0.505,0.045,0.695,0.134
			c0.19,0.089,0.348,0.199,0.473,0.329c0.124,0.13,0.214,0.27,0.267,0.418c0.054,0.148,0.08,0.287,0.08,0.417
			C38.122,20.432,38.021,20.811,37.819,21.119 M35.163,24.65c0.225-0.334,0.505-0.626,0.838-0.876
			c0.332,0.107,0.644,0.223,0.936,0.348c0.291,0.126,0.543,0.268,0.757,0.429c0.214,0.161,0.384,0.349,0.509,0.563
			c0.124,0.215,0.187,0.459,0.187,0.733c0,0.37-0.143,0.703-0.428,1.001s-0.737,0.447-1.355,0.447c-0.321,0-0.595-0.048-0.82-0.143
			c-0.226-0.095-0.41-0.214-0.553-0.357c-0.143-0.143-0.247-0.301-0.312-0.474c-0.066-0.173-0.098-0.331-0.098-0.474
			C34.824,25.383,34.937,24.983,35.163,24.65 M40.556,24.052c-0.291-0.482-0.776-0.943-1.453-1.384
			c0.452-0.284,0.829-0.673,1.132-1.166c0.303-0.492,0.455-1.023,0.455-1.593c0-0.392-0.075-0.787-0.223-1.184
			c-0.149-0.398-0.39-0.757-0.722-1.077c-0.333-0.32-0.758-0.585-1.275-0.792c-0.517-0.208-1.138-0.312-1.863-0.312
			c-0.618,0-1.18,0.098-1.685,0.294c-0.505,0.196-0.936,0.457-1.293,0.783c-0.356,0.327-0.633,0.709-0.829,1.149
			c-0.196,0.439-0.294,0.896-0.294,1.37c0,0.629,0.122,1.146,0.366,1.549c0.243,0.404,0.621,0.814,1.132,1.229
			c-0.238,0.178-0.461,0.369-0.669,0.571c-0.208,0.203-0.395,0.426-0.561,0.67c-0.167,0.244-0.298,0.515-0.393,0.812
			c-0.095,0.298-0.142,0.625-0.142,0.982c0,0.345,0.071,0.723,0.214,1.134c0.142,0.41,0.383,0.788,0.722,1.133
			c0.338,0.346,0.784,0.635,1.337,0.867c0.553,0.231,1.245,0.348,2.077,0.348c0.725,0,1.364-0.093,1.917-0.277
			c0.552-0.185,1.013-0.444,1.381-0.777c0.369-0.333,0.645-0.723,0.829-1.169c0.185-0.446,0.277-0.937,0.277-1.473
			C40.993,25.096,40.847,24.534,40.556,24.052"/>
	</g>
</g>
</svg>
