<?xml version="1.0" encoding="utf-8"?>
<!-- Generator: Adobe Illustrator 21.1.0, SVG Export Plug-In . SVG Version: 6.00 Build 0)  -->
<svg version="1.1" id="Capa_1" xmlns="http://www.w3.org/2000/svg" xmlns:xlink="http://www.w3.org/1999/xlink" x="0px" y="0px"
	 viewBox="0 0 614.029 614.029" style="enable-background:new 0 0 614.029 614.029;" xml:space="preserve">
<style type="text/css">
	.st0{clip-path:url(#SVGID_2_);fill:#FFFFFF;}
	.st1{clip-path:url(#SVGID_4_);fill:#F29100;}
	.st2{clip-path:url(#SVGID_6_);fill:none;stroke:#1D1D1B;stroke-width:1.032;}
	.st3{clip-path:url(#SVGID_6_);fill:#FFFFFF;}
	.st4{clip-path:url(#SVGID_8_);fill:#009CC4;}
	.st5{clip-path:url(#SVGID_10_);fill:none;stroke:#1D1D1B;stroke-width:1.032;}
	.st6{clip-path:url(#SVGID_10_);fill:#FFFFFF;}
	.st7{clip-path:url(#SVGID_12_);fill:#AEC90B;}
	.st8{clip-path:url(#SVGID_14_);fill:none;stroke:#1D1D1B;stroke-width:1.032;}
	.st9{clip-path:url(#SVGID_14_);fill:#FFFFFF;}
	.st10{clip-path:url(#SVGID_16_);fill:#7C6EAF;}
	.st11{clip-path:url(#SVGID_18_);fill:none;stroke:#1D1D1B;stroke-width:1.032;}
	.st12{clip-path:url(#SVGID_18_);fill:#FFFFFF;}
	.st13{clip-path:url(#SVGID_20_);fill:#E95153;}
	.st14{clip-path:url(#SVGID_22_);fill:none;stroke:#1D1D1B;stroke-width:1.032;}
	.st15{clip-path:url(#SVGID_24_);fill:none;stroke:#1D1D1B;stroke-width:1.032;}
	.st16{fill:#FFFFFF;}
	.st17{fill:none;stroke:#1D1D1B;stroke-width:1.032;}
	.st18{fill:#E95153;}
	.st19{clip-path:url(#SVGID_26_);fill:#FFFFFF;}
	.st20{fill:#7C6EAF;}
	.st21{fill:none;stroke:#1D1D1B;stroke-width:1.0319;}
	.st22{clip-path:url(#SVGID_28_);fill:#FFFFFF;}
	.st23{clip-path:url(#SVGID_28_);fill:#7C6EAF;}
	.st24{fill:#F29100;}
	.st25{clip-path:url(#SVGID_30_);fill:#FFFFFF;}
	.st26{fill:#009CC4;}
	.st27{clip-path:url(#SVGID_32_);fill:#FFFFFF;}
	.st28{fill:#AEC90B;}
	.st29{clip-path:url(#SVGID_34_);fill:#FFFFFF;}
</style>
<g>
	<defs>
		<path id="SVGID_1_" d="M0.516,307.015c0,169.274,137.224,306.498,306.498,306.498c169.275,0,306.5-137.224,306.5-306.498
			c0-169.275-137.225-306.5-306.5-306.5C137.74,0.515,0.516,137.74,0.516,307.015"/>
	</defs>
	<clipPath id="SVGID_2_">
		<use xlink:href="#SVGID_1_"  style="overflow:visible;"/>
	</clipPath>
	<polygon class="st0" points="-11.696,236.109 194.735,280.407 307.53,197.59 307.014,-14.035 97.952,13.158 	"/>
</g>
<g>
	<defs>
		<path id="SVGID_3_" d="M7.799,240.292l186.936,40.114L307.53,197.59L307.05,0.515c-0.011,0-0.025,0-0.036,0
			C160.655,0.515,38.257,103.102,7.799,240.292"/>
	</defs>
	<clipPath id="SVGID_4_">
		<use xlink:href="#SVGID_3_"  style="overflow:visible;"/>
	</clipPath>
	<polygon class="st1" points="140.949,314.599 150.16,331.612 326.068,206.139 313.931,189.125 	"/>
</g>
<g>
	<defs>
		<path id="SVGID_5_" d="M0.516,307.015c0,169.274,137.224,306.498,306.498,306.498c169.275,0,306.5-137.224,306.5-306.498
			c0-169.275-137.225-306.5-306.5-306.5C137.74,0.515,0.516,137.74,0.516,307.015"/>
	</defs>
	<clipPath id="SVGID_6_">
		<use xlink:href="#SVGID_5_"  style="overflow:visible;"/>
	</clipPath>
	<polygon class="st2" points="-11.696,236.109 194.735,280.407 307.53,197.59 307.014,-14.035 97.952,13.158 	"/>
	<polygon class="st3" points="629.624,235.865 418.933,280.337 376.094,411.415 491.155,596.416 654.535,438.978 	"/>
</g>
<g>
	<defs>
		<path id="SVGID_7_" d="M418.933,280.338l-42.839,131.077l95.793,154.022c85.159-54.449,141.627-149.846,141.627-258.422
			c0-22.74-2.478-44.906-7.176-66.235L418.933,280.338z"/>
	</defs>
	<clipPath id="SVGID_8_">
		<use xlink:href="#SVGID_7_"  style="overflow:visible;"/>
	</clipPath>
	<polygon class="st4" points="349.865,449.672 368.336,452.883 433.753,249.151 413.037,243.042 	"/>
</g>
<g>
	<defs>
		<path id="SVGID_9_" d="M0.516,307.015c0,169.274,137.224,306.498,306.498,306.498c169.275,0,306.5-137.224,306.5-306.498
			c0-169.275-137.225-306.5-306.5-306.5C137.74,0.515,0.516,137.74,0.516,307.015"/>
	</defs>
	<clipPath id="SVGID_10_">
		<use xlink:href="#SVGID_9_"  style="overflow:visible;"/>
	</clipPath>
	<polygon class="st5" points="629.624,235.865 418.933,280.337 376.094,411.415 491.155,596.416 654.535,438.978 	"/>
	<polygon class="st6" points="305.776,-15.859 307.53,197.589 418.641,280.922 627.703,236.77 530.976,23.095 	"/>
</g>
<g>
	<defs>
		<path id="SVGID_11_" d="M305.911,0.517l1.62,197.073l111.109,83.332l187.804-39.662C576.345,103.59,453.714,0.515,307.014,0.515
			C306.642,0.515,306.282,0.516,305.911,0.517"/>
	</defs>
	<clipPath id="SVGID_12_">
		<use xlink:href="#SVGID_11_"  style="overflow:visible;"/>
	</clipPath>
	<polygon class="st7" points="461.701,306.192 449.553,321.744 273.645,196.27 285.774,178.525 	"/>
</g>
<g>
	<defs>
		<path id="SVGID_13_" d="M0.516,307.015c0,169.274,137.224,306.498,306.498,306.498c169.275,0,306.5-137.224,306.5-306.498
			c0-169.275-137.225-306.5-306.5-306.5C137.74,0.515,0.516,137.74,0.516,307.015"/>
	</defs>
	<clipPath id="SVGID_14_">
		<use xlink:href="#SVGID_13_"  style="overflow:visible;"/>
	</clipPath>
	<polygon class="st8" points="305.776,-15.859 307.53,197.589 418.641,280.922 627.703,236.77 530.976,23.095 	"/>
	<polygon class="st9" points="491.224,595.511 377.157,412.367 238.542,412.132 124.756,585.764 298.371,685.463 	"/>
</g>
<g>
	<defs>
		<path id="SVGID_15_" d="M139.287,563.589c48.189,31.564,105.82,49.924,167.727,49.924c60.875,0,117.613-17.752,165.306-48.354
			l-95.163-152.792l-138.616-0.235L139.287,563.589z"/>
	</defs>
	<clipPath id="SVGID_16_">
		<use xlink:href="#SVGID_15_"  style="overflow:visible;"/>
	</clipPath>
	<rect x="202.874" y="394.056" class="st10" width="216.072" height="22.36"/>
</g>
<g>
	<defs>
		<path id="SVGID_17_" d="M0.516,307.015c0,169.274,137.224,306.498,306.498,306.498c169.275,0,306.5-137.224,306.5-306.498
			c0-169.275-137.225-306.5-306.5-306.5C137.74,0.515,0.516,137.74,0.516,307.015"/>
	</defs>
	<clipPath id="SVGID_18_">
		<use xlink:href="#SVGID_17_"  style="overflow:visible;"/>
	</clipPath>
	<polygon class="st11" points="491.224,595.511 377.157,412.367 238.542,412.132 124.756,585.764 298.371,685.463 	"/>
	<polygon class="st12" points="119.882,594.536 237.739,413.483 194.081,280.045 -11.696,235.865 -46.337,422.944 	"/>
</g>
<g>
	<defs>
		<path id="SVGID_19_" d="M0.516,307.015c0,107.584,55.432,202.223,139.291,256.914l97.933-150.446l-43.659-133.438L7.85,240.062
			C3.048,261.613,0.516,284.016,0.516,307.015"/>
	</defs>
	<clipPath id="SVGID_20_">
		<use xlink:href="#SVGID_19_"  style="overflow:visible;"/>
	</clipPath>
	<polygon class="st13" points="263.33,433.349 243.455,440.538 175.954,234.31 196.56,227.853 	"/>
</g>
<g>
	<defs>
		<path id="SVGID_21_" d="M0.516,307.015c0,169.274,137.224,306.498,306.498,306.498c169.275,0,306.5-137.224,306.5-306.498
			c0-169.275-137.225-306.5-306.5-306.5C137.74,0.515,0.516,137.74,0.516,307.015"/>
	</defs>
	<clipPath id="SVGID_22_">
		<use xlink:href="#SVGID_21_"  style="overflow:visible;"/>
	</clipPath>
	<polygon class="st14" points="119.882,594.536 237.739,413.483 194.081,280.045 -11.696,235.865 -46.337,422.944 	"/>
</g>
<g>
	<defs>
		<rect id="SVGID_23_" width="614.029" height="614.029"/>
	</defs>
	<clipPath id="SVGID_24_">
		<use xlink:href="#SVGID_23_"  style="overflow:visible;"/>
	</clipPath>
	<circle class="st15" cx="307.015" cy="307.014" r="306.499"/>
</g>
<polygon class="st16" points="307.53,197.545 194.126,279.937 237.443,413.251 377.617,413.251 420.934,279.937 "/>
<polygon class="st17" points="307.53,197.545 194.126,279.937 237.443,413.251 377.617,413.251 420.934,279.937 "/>
<polygon class="st18" points="165.208,307.03 132.223,372.226 197.519,405.015 192.603,390.108 237.408,375.333 214.692,306.444 
	169.887,321.219 "/>
<polygon class="st17" points="165.208,307.03 132.223,372.226 197.519,405.015 192.603,390.108 237.408,375.333 214.692,306.444 
	169.887,321.219 "/>
<g>
	<defs>
		<rect id="SVGID_25_" width="614.029" height="614.029"/>
	</defs>
	<clipPath id="SVGID_26_">
		<use xlink:href="#SVGID_25_"  style="overflow:visible;"/>
	</clipPath>
	<path class="st19" d="M179.454,337.168L179.454,337.168l6.142-1.996l0.703,1.01l4.876-1.584c9.049-2.94,18.802,2.03,21.743,11.078
		c2.939,9.048-2.03,18.802-11.079,21.742l-20.003,6.499c-1.315,0.428-2.734-0.295-3.161-1.611c-0.428-1.315,0.295-2.734,1.61-3.161
		c0.619-0.201,0.957-0.865,0.756-1.484c-0.201-0.618-0.865-0.957-1.483-0.756l-6.568,2.134c-1.316,0.428-2.734-0.295-3.162-1.611
		c-0.427-1.315,0.295-2.733,1.611-3.161c0.619-0.201,0.957-0.865,0.756-1.484c-0.201-0.618-0.865-0.957-1.483-0.756l-3.46,1.124
		c-1.315,0.428-2.733-0.295-3.161-1.611s0.295-2.734,1.61-3.161l3.46-1.124c0.618-0.201,0.957-0.865,0.756-1.484
		c-0.201-0.618-0.865-0.957-1.484-0.756c-1.316,0.428-2.734-0.295-3.161-1.61c-0.428-1.316,0.295-2.734,1.611-3.162l16.333-5.307
		c0.618-0.201,0.957-0.865,0.756-1.484l-4.792,1.557c-1.099,0.297-2.045,0.121-2.787-0.332l-10.238,3.326
		c-2.551,0.829-3.952,3.579-3.123,6.129c0.287,0.883,0.804,1.628,1.463,2.191c-2.243,0.999-3.419,3.559-2.644,5.945
		c0.776,2.386,3.232,3.766,5.634,3.256c-0.203,0.843-0.183,1.749,0.103,2.632c0.829,2.551,3.579,3.952,6.13,3.123l2.606-0.847
		c-0.195,0.834-0.172,1.73,0.111,2.602c0.829,2.551,3.578,3.952,6.129,3.123l20.003-6.499c10.283-3.342,15.931-14.426,12.59-24.71
		c-3.341-10.283-14.426-15.931-24.71-12.59l-10.237,3.326C179.591,335.885,179.253,336.549,179.454,337.168"/>
	<path class="st19" d="M191.117,341.131c0.201,0.619-0.137,1.283-0.756,1.484l-10.817,3.515c-0.019,0.006-0.038,0.011-0.057,0.017
		c-2.949,0.795-5.154-1.047-5.828-3.289c-0.68-2.286,0.182-5.104,3.145-6.066l8.428-2.739c0.619-0.201,1.283,0.137,1.484,0.756
		c0.201,0.619-0.138,1.283-0.756,1.484l-8.429,2.738c-1.838,0.597-1.88,2.265-1.615,3.156c0.298,1.048,1.268,2.127,2.93,1.693
		l10.787-3.505C190.252,340.174,190.916,340.513,191.117,341.131"/>
	<path class="st19" d="M192.319,363.997c0.201,0.619-0.137,1.283-0.756,1.484l-12.68,4.12c-0.618,0.201-1.283-0.138-1.484-0.756
		c-0.201-0.619,0.138-1.283,0.756-1.484l12.68-4.12C191.454,363.041,192.118,363.38,192.319,363.997"/>
	<path class="st19" d="M188.529,357.477c0.201,0.619-0.137,1.283-0.756,1.484l-16.334,5.307c-0.618,0.201-1.282-0.138-1.483-0.756
		c-0.201-0.619,0.137-1.283,0.756-1.484l16.333-5.307C187.664,356.52,188.328,356.858,188.529,357.477"/>
	<path class="st19" d="M186.327,350.44c0.201,0.619-0.137,1.283-0.756,1.484l-16.411,5.332c-0.618,0.201-1.282-0.138-1.483-0.756
		c-0.201-0.619,0.137-1.283,0.756-1.484l16.41-5.332C185.462,349.483,186.126,349.821,186.327,350.44"/>
	<path class="st19" d="M200.41,350.357c0.058,0.179,0.074,0.374,0.039,0.572c-0.116,0.64-0.728,1.065-1.368,0.95
		c-4.505-0.812-8.502-4.68-10.184-9.853c-0.201-0.619,0.138-1.283,0.756-1.484c0.619-0.201,1.283,0.137,1.484,0.756
		c1.395,4.292,4.755,7.613,8.361,8.263C199.94,349.641,200.279,349.958,200.41,350.357"/>
</g>
<polygon class="st20" points="269.678,396.307 269.678,443.485 253.981,443.485 305.569,495.228 357.156,443.485 342.215,443.485 
	342.215,396.307 "/>
<polygon class="st21" points="357.156,443.485 305.569,495.228 253.982,443.485 269.678,443.485 269.678,396.306 342.216,396.306 
	342.216,443.485 "/>
<g>
	<defs>
		<rect id="SVGID_27_" width="614.029" height="614.029"/>
	</defs>
	<clipPath id="SVGID_28_">
		<use xlink:href="#SVGID_27_"  style="overflow:visible;"/>
	</clipPath>
	<path class="st22" d="M329.289,416.816c-3.098,4.287-10.498,8.149-23.448,8.149c-12.95,0-19.075-3.878-23.448-8.214
		c0,0,10.498,2.315,23.448,2.315C318.791,419.066,329.289,416.816,329.289,416.816"/>
	<path class="st22" d="M306.076,438.74h-0.471c-9.786,0-22.289-9.265-24.374-21.663l2.323-0.39
		c1.865,11.093,13.386,19.698,22.051,19.698h0.471c8.666,0,20.186-8.605,22.051-19.698l2.323,0.39
		C328.365,429.474,315.862,438.74,306.076,438.74"/>
	<path class="st23" d="M318.145,435.665c0,7.088-5.799,12.888-12.888,12.888c-6.473,0-11.721-5.248-11.721-11.721V423.43
		c0-1.942,6.757-3.58,12.252-1.401c5.338-1.865,12.357-0.788,12.357,1.401V435.665z"/>
	<path class="st22" d="M294.714,423.504v13.328c0,5.813,4.73,10.543,10.543,10.543c6.457,0,11.71-5.253,11.71-11.71v-12.201
		c-0.469-0.866-5.787-2.071-10.791-0.324c-0.268,0.093-0.559,0.087-0.822-0.017C300.658,421.261,295.321,422.565,294.714,423.504
		 M305.257,449.73c-7.112,0-12.898-5.786-12.898-12.898v-13.403c0-0.555,0.227-1.372,1.312-2.108
		c2.336-1.587,7.692-2.148,12.142-0.542c4.28-1.359,9.925-1.12,12.293,0.562c1.005,0.713,1.216,1.529,1.216,2.088v12.236
		C319.322,443.42,313.013,449.73,305.257,449.73"/>
	<path class="st22" d="M305.841,441.751c-0.65,0-1.178-0.527-1.178-1.178v-20.017c0-0.65,0.528-1.178,1.178-1.178
		c0.65,0,1.178,0.528,1.178,1.178v20.017C307.019,441.224,306.491,441.751,305.841,441.751"/>
	<path class="st22" d="M305.935,419.143c0.012,0,0.025,0,0.037,0.001c12.178,0.393,18.043-1.051,20.638-2.09
		c-0.948-0.429-1.954-0.919-2.991-1.425c-3.837-1.87-8.186-3.99-11.539-3.99c-1.343,0-2.192,0.414-3.092,0.852
		c-0.862,0.421-1.84,0.898-3.148,0.898c-1.307,0-2.285-0.477-3.148-0.898c-0.899-0.438-1.749-0.852-3.091-0.852
		c-3.354,0-7.703,2.12-11.54,3.99c-1.026,0.501-2.023,0.986-2.962,1.412c2.633,1.04,8.548,2.491,20.651,2.103L305.935,419.143z
		 M301.785,421.565c-16.063,0-19.844-3.45-20.246-3.872c-0.275-0.289-0.385-0.699-0.292-1.087c0.094-0.389,0.378-0.704,0.755-0.836
		c1.41-0.495,3.167-1.351,5.027-2.258c4.066-1.982,8.675-4.228,12.572-4.228c1.886,0,3.127,0.605,4.123,1.091
		c0.756,0.368,1.352,0.659,2.116,0.659c0.764,0,1.361-0.291,2.116-0.659c0.997-0.486,2.237-1.091,4.124-1.091
		c3.896,0,8.505,2.246,12.571,4.228c1.86,0.907,3.617,1.763,5.027,2.258c0.376,0.132,0.66,0.445,0.754,0.832
		c0.095,0.388-0.013,0.796-0.287,1.086c-0.429,0.456-4.751,4.435-24.229,3.81h-0.129
		C304.376,421.544,303.042,421.565,301.785,421.565"/>
</g>
<polygon class="st24" points="272.99,176.409 200.841,164.87 189.52,237.054 202.219,227.827 229.949,265.995 288.634,223.359 
	260.903,185.191 "/>
<polygon class="st17" points="272.99,176.409 200.841,164.87 189.52,237.054 202.219,227.827 229.949,265.995 288.634,223.359 
	260.903,185.191 "/>
<g>
	<defs>
		<rect id="SVGID_29_" width="614.029" height="614.029"/>
	</defs>
	<clipPath id="SVGID_30_">
		<use xlink:href="#SVGID_29_"  style="overflow:visible;"/>
	</clipPath>
	<path class="st25" d="M238.943,233.613c0.034,1.13-1.401,2.091-3.205,2.146c-1.805,0.054-3.295-0.818-3.33-1.948
		c-0.034-1.131,1.401-2.092,3.205-2.146C237.418,231.61,238.909,232.482,238.943,233.613"/>
	<path class="st25" d="M240.789,237.765c-2.967,1.927-6.148,2.796-9.042,2.417c-2.782-0.365-5.096-1.856-6.69-4.311
		c-1.943-2.992-1.823-7.091,0.305-10.44c1.243-1.956,1.659-3.585,0.299-6.588c-6.359-14.05-2.737-18.504,0.54-20.633
		c6.504-4.223,13.183,1.689,18.86,8.03c2.177,2.433,4.03,2.723,6.142,2.409c3.926-0.582,7.718,0.976,9.662,3.968
		c1.594,2.455,2.015,5.175,1.216,7.865c-1.071,3.611-4.237,6.815-8.688,8.791c-0.594,0.263-1.29-0.004-1.554-0.599
		c-0.263-0.594,0.005-1.292,0.599-1.554c3.762-1.67,6.523-4.402,7.385-7.308c0.605-2.037,0.291-4.026-0.934-5.912
		c-1.442-2.222-4.324-3.368-7.34-2.921c-3.347,0.496-5.812-0.451-8.243-3.168c-8.93-9.975-13.009-9.452-15.822-7.626
		c-5.263,3.418-2.592,11.247,0.323,17.687c1.777,3.927,1.103,6.367-0.457,8.822c-1.636,2.574-1.761,5.673-0.318,7.894
		c1.225,1.886,2.914,2.982,5.021,3.258c3.006,0.394,6.624-1.017,9.681-3.775c0.478-0.435,1.227-0.397,1.663,0.086
		c0.435,0.483,0.397,1.227-0.086,1.663C242.497,236.555,241.652,237.205,240.789,237.765"/>
	<path class="st25" d="M253.154,224.384c1.018,0.491,2.48-0.429,3.264-2.055c0.784-1.627,0.593-3.343-0.425-3.834
		c-1.019-0.492-2.481,0.428-3.264,2.055C251.945,222.176,252.135,223.892,253.154,224.384"/>
	<path class="st25" d="M249.467,234.327c-0.041,0.027-0.081,0.052-0.123,0.078c-2.507,1.575-5.531,1.876-8.296,0.826l-0.535-0.206
		c-1.732-0.671-3.368-1.304-5.675-0.974c-0.643,0.092-1.24-0.356-1.332-0.999c-0.092-0.644,0.355-1.24,1-1.333
		c2.915-0.416,5.009,0.395,6.857,1.109l0.521,0.201c2.069,0.786,4.331,0.561,6.208-0.618c0.03-0.019,0.061-0.039,0.091-0.058
		c1.803-1.171,2.939-3.058,3.123-5.194c0.026-0.294,0.046-0.587,0.068-0.881c0.142-1.99,0.303-4.246,1.856-6.718
		c0.347-0.552,1.073-0.717,1.624-0.371c0.55,0.345,0.716,1.072,0.37,1.623c-1.24,1.975-1.367,3.752-1.501,5.634
		c-0.022,0.305-0.044,0.61-0.071,0.915C253.404,230.228,251.882,232.759,249.467,234.327"/>
</g>
<polygon class="st26" points="447.862,308.996 480.847,374.193 415.551,406.982 420.467,392.074 375.662,377.299 398.378,308.41 
	443.183,323.186 "/>
<polygon class="st17" points="447.862,308.996 480.847,374.193 415.551,406.982 420.467,392.074 375.662,377.299 398.378,308.41 
	443.183,323.186 "/>
<g>
	<defs>
		<rect id="SVGID_31_" width="614.029" height="614.029"/>
	</defs>
	<clipPath id="SVGID_32_">
		<use xlink:href="#SVGID_31_"  style="overflow:visible;"/>
	</clipPath>
	<path class="st27" d="M435.153,363.226c-0.261,0.716-0.696,1.204-1.263,1.78c-1.435,1.461-3.744,1.359-5.283,0.504
		c-0.984-0.547-1.643-1.302-2.224-1.968c-0.561-0.643-1.046-1.198-1.742-1.496c-1.422-0.609-2.866-0.674-3.862-0.175
		c-2.726,1.369-4.66,0.784-5.878,0.224c-3.262-1.496-5.588-3.854-6.549-6.637c-1.215-3.52-0.541-7.445,1.76-10.244
		c1.039-1.264,2.375-2.275,3.863-2.922c4.333-1.883,10.737-0.299,13.985,3.458c0.468,0.541,0.409,1.358-0.132,1.827
		c-0.541,0.468-1.359,0.408-1.827-0.133c-2.529-2.924-7.666-4.222-10.993-2.776c-1.113,0.484-2.115,1.242-2.894,2.19
		c-1.708,2.078-2.222,5.121-1.313,7.754c0.728,2.108,2.568,3.93,5.18,5.129c0.887,0.407,1.941,0.666,3.636-0.185
		c1.694-0.85,3.897-0.81,6.044,0.109c1.239,0.53,2.001,1.403,2.673,2.173c0.506,0.58,0.943,1.08,1.532,1.407
		c0.675,0.375,1.674,0.457,2.177-0.055c0.618-0.628,0.71-0.754,0.769-1.304c0.064-0.59-0.158-1.218-0.578-1.638
		c-0.505-0.506-0.506-1.327,0-1.832c0.505-0.506,1.325-0.506,1.831,0c0.977,0.975,1.471,2.377,1.322,3.748
		C435.343,362.576,435.264,362.921,435.153,363.226"/>
	<path class="st27" d="M446.712,368.289c-0.691,1.899-2.242,3.874-4.994,4.821c-2.529,0.87-4.785,0.423-7.173-0.05
		c-0.701-0.14-1.157-0.821-1.018-1.523c0.141-0.702,0.821-1.158,1.522-1.018c2.454,0.486,4.048,0.753,5.825,0.142
		c2.528-0.87,3.563-2.961,3.679-4.487c0.257-3.326-1.21-5.697-2.909-8.443c-0.71-1.149-1.446-2.336-2.09-3.658
		c-4.259-8.73-10.238-14.728-16.405-16.456c-4.65-1.303-9.402-0.808-13.041,1.359c-5.223,3.11-7.065,8.039-7.691,11.624
		c-2.117,12.13,10.923,16.24,14.971,17.21c0.695,0.167,1.124,0.866,0.957,1.562c-0.168,0.695-0.866,1.124-1.561,0.957
		c-12.102-2.902-18.585-10.632-16.919-20.174c1.017-5.825,4.184-10.585,8.918-13.405c4.245-2.527,9.736-3.121,15.065-1.628
		c6.878,1.928,13.451,8.421,18.034,17.815c0.588,1.205,1.288,2.337,1.965,3.431c1.775,2.869,3.611,5.836,3.289,10.005
		C447.09,366.971,446.953,367.626,446.712,368.289"/>
	<path class="st27" d="M420.689,351.729c-0.245,0.672-0.988,1.019-1.66,0.774c-1.753-0.638-3.349-0.351-4.496,0.808
		c-1.239,1.252-1.673,3.276-1.054,4.921c0.252,0.67-0.087,1.417-0.757,1.669c-0.669,0.251-1.416-0.088-1.668-0.757
		c-0.977-2.601-0.319-5.677,1.638-7.655c1.872-1.892,4.505-2.41,7.223-1.42C420.587,350.313,420.934,351.057,420.689,351.729"/>
</g>
<polygon class="st28" points="428.109,239.971 416.788,167.788 344.639,179.326 357.338,188.553 329.607,226.721 388.291,269.357 
	416.022,231.189 "/>
<polygon class="st17" points="428.109,239.971 416.788,167.788 344.639,179.326 357.338,188.553 329.607,226.721 388.291,269.357 
	416.022,231.189 "/>
<g>
	<defs>
		<rect id="SVGID_33_" width="614.029" height="614.029"/>
	</defs>
	<clipPath id="SVGID_34_">
		<use xlink:href="#SVGID_33_"  style="overflow:visible;"/>
	</clipPath>
	<path class="st29" d="M360.627,205.74c-0.379,3.136-1.245,16.676,10.652,24.402c11.801,7.664,23.758,1.265,26.412-0.35
		c0.109-2.883-0.169-14.933-11.646-22.387C374.724,200.053,363.27,204.529,360.627,205.74 M369.868,232.315
		c-14.687-9.538-11.734-27.481-11.702-27.661c0.068-0.388,0.309-0.724,0.655-0.913c0.584-0.319,14.469-7.708,28.635,1.492
		c14.177,9.206,12.84,24.764,12.776,25.422c-0.037,0.383-0.242,0.729-0.559,0.945C399.522,231.703,384.425,241.769,369.868,232.315"
		/>
	<path class="st29" d="M385.662,207.995c-5.142-3.339-12.041-1.872-15.38,3.27c-3.339,5.141-1.873,12.04,3.269,15.379
		c5.142,3.34,12.041,1.873,15.38-3.268C392.27,218.234,390.803,211.335,385.662,207.995 M372.14,228.817
		c-6.339-4.117-8.148-12.624-4.031-18.963c4.117-6.34,12.624-8.148,18.964-4.031c6.339,4.117,8.148,12.624,4.031,18.963
		C386.987,231.126,378.48,232.934,372.14,228.817"/>
	<path class="st29" d="M382.884,212.273c-0.309-0.201-0.631-0.364-0.96-0.502c0.15,0.895-0.018,1.846-0.551,2.667
		c-1.131,1.742-3.461,2.237-5.203,1.105c-0.672-0.436-1.156-1.052-1.435-1.743c-0.059,0.081-0.121,0.158-0.176,0.242
		c-1.81,2.787-1.017,6.515,1.77,8.325c2.787,1.81,6.515,1.018,8.324-1.769C386.464,217.81,385.671,214.083,382.884,212.273"/>
</g>
</svg>
