<?xml version="1.0" encoding="utf-8"?>
<!-- Generator: Adobe Illustrator 23.0.3, SVG Export Plug-In . SVG Version: 6.00 Build 0)  -->
<svg version="1.1" id="Capa_1" xmlns="http://www.w3.org/2000/svg" xmlns:xlink="http://www.w3.org/1999/xlink" x="0px" y="0px"
	 viewBox="0 0 820 1060" style="enable-background:new 0 0 820 1060;" xml:space="preserve">
<style type="text/css">
	.st0{fill:#E95153;}
	.st1{clip-path:url(#SVGID_2_);}
	.st2{fill:#FFDD7E;}
	.st3{fill:none;stroke:#1D1D1B;stroke-width:1.28;stroke-miterlimit:10;}
	.st4{fill:none;}
	.st5{clip-path:url(#SVGID_4_);}
	.st6{fill:none;stroke:#FFFFFF;stroke-width:1.28;stroke-dasharray:3.83,2.55;}
	.st7{clip-path:url(#SVGID_6_);}
	.st8{fill:#FFFFFF;}
	.st9{clip-path:url(#SVGID_8_);}
	.st10{clip-path:url(#SVGID_10_);}
</style>
<title>fondo_003</title>
<rect class="st0" width="820" height="1060"/>
<g>
	<defs>
		<rect id="SVGID_1_" width="820" height="1060"/>
	</defs>
	<clipPath id="SVGID_2_">
		<use xlink:href="#SVGID_1_"  style="overflow:visible;"/>
	</clipPath>
	<g class="st1">
		<path class="st2" d="M73.6,71.4c18.1-1.8,362.8,0,399.1,0S742,60,744.8,80.1c6,43.8,6,709.2,6,782.4c0,52.8-2.4,119.2-6,119.2
			s-601.1,23.5-676.1,6c-6-84.2-3.6-397-3.6-560.2C65.2,376.1,64,121,73.6,71.4"/>
	</g>
</g>
<path class="st3" d="M752.7,1001.7V111.4 M734.7,69.1H567.8 M73.2,86.5v890.3 M76.3,994.1h667.4"/>
<rect class="st4" width="820" height="1060"/>
<rect class="st4" width="820" height="1060"/>
<line class="st3" x1="247.2" y1="69.1" x2="76.3" y2="69.1"/>
<g>
	<defs>
		<rect id="SVGID_3_" width="820" height="1060"/>
	</defs>
	<clipPath id="SVGID_4_">
		<use xlink:href="#SVGID_3_"  style="overflow:visible;"/>
	</clipPath>
	<g class="st5">
		<line class="st6" x1="0" y1="43.5" x2="820" y2="43.5"/>
	</g>
</g>
<g>
	<defs>
		<rect id="SVGID_5_" width="820" height="1060"/>
	</defs>
	<clipPath id="SVGID_6_">
		<use xlink:href="#SVGID_5_"  style="overflow:visible;"/>
	</clipPath>
	<g class="st7">
		<path class="st8" d="M32.4,37.2l1.4,2.3l7.8-1.4c0.1,0,0.1-0.1,0.2-0.1v-0.2c-0.2-0.3-0.4-0.6-0.6-0.8c-0.7-0.7-1.7-1.1-2.7-0.9
			L32.4,37.2z"/>
	</g>
</g>
<g>
	<defs>
		<rect id="SVGID_7_" width="820" height="1060"/>
	</defs>
	<clipPath id="SVGID_8_">
		<use xlink:href="#SVGID_7_"  style="overflow:visible;"/>
	</clipPath>
	<g class="st9">
		<path class="st8" d="M23.9,43.2c-0.8,0-1.5-0.5-1.7-1.2v-0.2c0-0.2,0-0.4,0.1-0.5c0.3-0.6,0.9-0.9,1.5-0.9c0.8,0,1.5,0.5,1.7,1.2
			v0.2c0,0.2,0,0.4-0.1,0.5C25.1,42.9,24.5,43.2,23.9,43.2 M26.9,41.8v-0.4c0-0.1-0.1-0.2-0.1-0.4s-0.1-0.3-0.2-0.5
			s-0.1-0.1-0.1-0.2h2.8l-0.6-1c-0.2-0.3-0.3-0.6-0.4-1c-0.3,0.1-0.6,0.3-0.9,0.4c-0.6,0.2-1.2,0.3-1.8,0.3c-0.5,0-0.9,0-1.4-0.1
			h-0.5c-1.2,0-2.2,0.6-2.7,1.7c-0.2,0.4-0.3,0.8-0.2,1.2v0.4c0.3,1.5,1.6,2.5,3.1,2.5c1.2,0,2.2-0.6,2.7-1.7
			C26.8,42.6,26.9,42.2,26.9,41.8"/>
	</g>
</g>
<g>
	<defs>
		<rect id="SVGID_9_" width="820" height="1060"/>
	</defs>
	<clipPath id="SVGID_10_">
		<use xlink:href="#SVGID_9_"  style="overflow:visible;"/>
	</clipPath>
	<g class="st10">
		<path class="st8" d="M27.6,32.3c-0.4-0.5-0.5-1.1-0.3-1.7c0.1-0.2,0.2-0.3,0.3-0.4l0.1-0.1c0.7-0.3,1.5-0.1,2,0.5
			c0.4,0.5,0.5,1.1,0.3,1.7c-0.1,0.2-0.2,0.3-0.3,0.4l-0.1,0.1C28.9,33.1,28.1,32.9,27.6,32.3 M30.3,38.5c0.2-0.3,0.6-0.5,0.9-0.3
			c0.3,0.2,0.5,0.6,0.3,0.9c-0.2,0.3-0.6,0.5-0.9,0.3C30.3,39.2,30.1,38.8,30.3,38.5 M28.7,36.1c0.2,0.5,0.3,1.1,0.4,1.6
			c0.1,0.4,0.2,0.8,0.4,1.2l2.4,4.1h2.9l-3.3-5.6l-0.5-1c-0.1-0.1-0.4-0.5-1.1-1.3l-0.6-0.6l0,0c0.1,0,0.1,0,0.2-0.1
			s0.3-0.1,0.5-0.2s0.2-0.1,0.3-0.2s0.2-0.1,0.3-0.2c0.3-0.3,0.6-0.6,0.8-1c0.5-1,0.3-2.3-0.5-3.1c-0.9-1.1-2.5-1.5-3.8-0.8
			C27,29,26.9,29,26.8,29.1c-0.3,0.3-0.6,0.6-0.8,1c-0.5,1-0.3,2.3,0.5,3.1l0.3,0.3l0,0l1,1C28.1,35,28.4,35.5,28.7,36.1"/>
	</g>
</g>
</svg>
