<?xml version="1.0" encoding="utf-8"?>
<!-- Generator: Adobe Illustrator 26.0.1, SVG Export Plug-In . SVG Version: 6.00 Build 0)  -->
<svg version="1.1" id="Capa_1" xmlns="http://www.w3.org/2000/svg" xmlns:xlink="http://www.w3.org/1999/xlink" x="0px" y="0px"
	 viewBox="0 0 820 1059.2" style="enable-background:new 0 0 820 1059.2;" xml:space="preserve">
<style type="text/css">
	.st0{fill:#AEC90B;}
	.st1{clip-path:url(#SVGID_00000023277886011284946210000013624995713075138966_);fill:#F0F4D9;}
</style>
<rect class="st0" width="820" height="1059.2"/>
<g>
	<g>
		<defs>
			<rect id="SVGID_1_" width="820" height="1060"/>
		</defs>
		<clipPath id="SVGID_00000006668132866733167750000004161987333616647041_">
			<use xlink:href="#SVGID_1_"  style="overflow:visible;"/>
		</clipPath>
		<path style="clip-path:url(#SVGID_00000006668132866733167750000004161987333616647041_);fill:#F0F4D9;" d="M84.8,64.2
			c17.9-1.9,358.5,0,394.3,0S745.3,52.1,748,73.4c6,46.3,6,749.1,6,826.5c0,55.7-2.4,125.9-6,125.9c-3.6,0-593.9,24.8-668,6.3
			c-6-89-3.6-419.4-3.6-591.8C76.5,386,75.3,116.6,84.8,64.2"/>
	</g>
</g>
<polygon class="st0" points="0,1036 0,1060 820,1060 820,1023.8 "/>
<polygon class="st0" points="0,0 0,55.8 820,78.4 820,0 "/>
</svg>
