<svg id="Capa_1" data-name="Capa 1" xmlns="http://www.w3.org/2000/svg" viewBox="0 0 413.6 103.76"><defs><style>.cls-1{fill:#e95153;}.cls-2{fill:#fff;}</style></defs><title>fondo_002</title><polygon class="cls-1" points="21.5 -0.14 25.3 69.46 74.4 75.26 74.6 -0.14 21.5 -0.14"/><polygon class="cls-1" points="74.6 -1.54 81.2 75.26 129.8 71.26 129.8 -1.54 74.6 -1.54"/><polygon class="cls-1" points="182.3 -0.14 185.1 75.26 206 71.36 206 -0.14 182.3 -0.14"/><polygon class="cls-1" points="129.8 -3.74 134.5 70.06 175.8 71.36 185 -3.74 129.8 -3.74"/><polygon class="cls-1" points="206 -3.74 208.9 72.66 254.9 75.26 250.9 -3.74 206 -3.74"/><polygon class="cls-1" points="252.9 -3.74 257.8 73.86 301.5 75.26 311.2 -3.74 252.9 -3.74"/><path class="cls-1" d="M259.9,86a28.1,28.1,0,0,1,.1,2.9,14.79,14.79,0,0,1-.1,2.2,2.2,2.2,0,0,1-.6,1.2,2.92,2.92,0,0,1-1.1.9l-.1-4.1c0-.2,0-.9.1-2.2,0-.4.1-1.1.1-2.2,1.1.1,1.6.5,1.6,1.3m4.5,16a11.89,11.89,0,0,0-.6-1.4c-.4-.9-.8-2.1-1.4-3.7a6.85,6.85,0,0,0-1.6-2.3,4.93,4.93,0,0,0,1.7-1.8,5.12,5.12,0,0,0,.7-1.8,8.81,8.81,0,0,0,.2-1.7,9.51,9.51,0,0,0-.1-1.4v-2.5a5,5,0,0,0-.2-1.2,2.8,2.8,0,0,0-.8-1.2,3.77,3.77,0,0,0-1.5-.9,5.26,5.26,0,0,0-1.7-.4,9.74,9.74,0,0,0-1.6.1h-.9c-.2,0-.6.1-1.1.1a8.11,8.11,0,0,0-1.1.3v3.9c0,1.8.1,3.1.1,3.8l.1,2.8c0,.2,0,.9-.1,2.4a33.6,33.6,0,0,0-.1,4.2c0,.4.1,1.1.1,1.9v.8a1.14,1.14,0,0,0,.3.8.86.86,0,0,0,.6.3h1.8a5.58,5.58,0,0,0,.8-.5,1,1,0,0,0,.3-.8v-6l.7,1.4a21.73,21.73,0,0,1,1.1,3.4l.5,1.7a1.56,1.56,0,0,0,.6.8,1.33,1.33,0,0,0,.8.3,6.53,6.53,0,0,0,1.1-.2c.4-.1.7-.2.7-.2a.85.85,0,0,0,.7-.8c0,.2-.1,0-.1-.2m-15.9-1.4a.55.55,0,0,1-.5-.3,2,2,0,0,1-.2-.9c-.1-1.1-.1-2.2-.1-3.5s0-2.7.1-3.9a24.51,24.51,0,0,0,.1-2.5l-.1-2c0-1.5.2-2.2.6-2.2a.63.63,0,0,1,.6.5,10.61,10.61,0,0,1,.3,1.8c.1,1.1.1,2,.1,2.9a8.64,8.64,0,0,1-.1,1.5v7.2a2,2,0,0,1-.3,1.1c0,.2-.2.3-.5.3m-.1,3a3.43,3.43,0,0,0,2.9-1.2,7.57,7.57,0,0,0,1.2-3.5,18.76,18.76,0,0,0,.1-2.9v-2.7q0-3-.3-6.6a4.39,4.39,0,0,0-1.3-3,4.08,4.08,0,0,0-3.2-1.2,3.33,3.33,0,0,0-2.5.9,5.68,5.68,0,0,0-1.1,3.2q-.15,1.5-.3,2.4c0,.7-.1,1.6-.1,2.9s-.1,2-.1,2.4a24.52,24.52,0,0,0,.2,2.7,26.24,26.24,0,0,0,.6,3,6,6,0,0,0,1.5,2.9,4.27,4.27,0,0,0,2.4.7m-11.8-7.2a.22.22,0,0,0-.2-.2h-1.1a4.59,4.59,0,0,1-1-.1,1.27,1.27,0,0,0-.6.1c-.2.1-.3.1-.3.2a6.15,6.15,0,0,0-.1,1.3,10.32,10.32,0,0,0,.4,2.7,4.12,4.12,0,0,0,.9,2.1,2.8,2.8,0,0,0,1.2.8,9.76,9.76,0,0,0,1.9.1,3.75,3.75,0,0,0,3-1,6.35,6.35,0,0,0,1.2-3.3,18.76,18.76,0,0,0,.1-2.9v-2.6c0-1.2-.1-3.5-.3-6.7v-2a4.12,4.12,0,0,0-.1-1.2,1.63,1.63,0,0,0-.3-.6,7.38,7.38,0,0,0-1.2-.2,6.13,6.13,0,0,0-1.6.3v1c-.1,1.9-.1,3.2-.1,3.7.1,1.2.1,2.2.1,3.1v5.1c0,1-.1,1.8-.1,2.4a4.46,4.46,0,0,1-.3,1.6.68.68,0,0,1-.6.4.86.86,0,0,1-.6-.3,1,1,0,0,1-.3-.8v-1.7a2.63,2.63,0,0,0,0-1.3m-4.6,4.8-.1-.9a12.31,12.31,0,0,0-2.4-.1h-2.3l-.1-5,1.2-.1h1a6.05,6.05,0,0,0,1.5-.2v-2c0-.6-.2-.8-.7-.8a5.74,5.74,0,0,1-1.2.1l-1,.1c-.3,0-.5.1-.7.1v-.7a9.15,9.15,0,0,1,.1-1.7v-3.7l.9-.1a4.51,4.51,0,0,0,1.3-.1c.3,0,.8-.1,1.3-.1s.7,0,.8-.1v-2.3a.37.37,0,0,0-.1-.3c-.1-.3-.3-.4-.7-.4s-1.3.1-2.9.2l-2,.1c-.2,0-.6.1-1.2.1h-1.4v2l.1,1.4v1.2a2.25,2.25,0,0,0,.1.7l.1.7c0,.6,0,1.7.1,3.5v.9l-.1,2.1a31.29,31.29,0,0,0-.1,4.1,16.22,16.22,0,0,1,.1,2.3v.9c0,.2.3.3.8.3h.6a.9.9,0,0,0,.5-.1,4.4,4.4,0,0,1,.9-.1,8.47,8.47,0,0,0,1.3-.1l.7-.1a19.71,19.71,0,0,1,2.1.1c.4,0,.6.1.8.1a.84.84,0,0,0,.7-.2,1,1,0,0,0,.3-.8,1.27,1.27,0,0,0-.1-.6c-.1-.2-.2-.3-.2-.4m-10.9-12.6c0-.3,0-1.1-.1-2.5v-3.2a1.55,1.55,0,0,0-.2-.8.73.73,0,0,0-.6-.2c-.2,0-.3.1-.4.1h-.3a2,2,0,0,0-.9.2,2.09,2.09,0,0,0-.6.4,14,14,0,0,0-.5,2.3l-.2,1.2-1.5,6-.4-1.3c-.8-2.8-1.3-4.4-1.4-5-.1-.3-.2-.7-.3-1.1l-.3-.9a.92.92,0,0,0-.4-.6,1.48,1.48,0,0,0-.7-.1,10.61,10.61,0,0,0-2.1.2c0,.9,0,2.2.1,3.9a7.6,7.6,0,0,1,.1,1.4v12.1l.1,1.5v.5a.75.75,0,0,0,.1.5c0,.1.1.2.3.2h1.4a2.13,2.13,0,0,0,1.2-.3,1.05,1.05,0,0,0,.4-1c0-1,0-2.5-.1-4.4,0-1.3-.1-2.6-.1-3.7v-.6c.2.6.6,1.9,1.1,3.7a1.63,1.63,0,0,0,.3.6,1.08,1.08,0,0,0,.6.1,1.06,1.06,0,0,0,1.2-1l.3-1.1a15.37,15.37,0,0,1,.7-2.4l.4-.9V95c-.1,4.2-.1,6.5-.1,7v1.4l1.1.1a3.34,3.34,0,0,0,1.5-.3,1.06,1.06,0,0,0,.6-1.1v-8c0-1.1,0-2.2-.1-3.3a10.77,10.77,0,0,1-.2-2.2m-20.4,14.9a5.07,5.07,0,0,0,1.3-.2,7.46,7.46,0,0,0,1.2-.7,1.6,1.6,0,0,0,.7-.9,2.77,2.77,0,0,0,.3-1.3c0-.3.1-.5.1-.7a6.15,6.15,0,0,0-.1-1.3c-.1-.4-.2-.8-.3-1.1a5.77,5.77,0,0,0-.8-1.4c-.2-.3-.7-.9-1.4-1.7a4.85,4.85,0,0,1-.9-1.3,3,3,0,0,1-.5-1.4,3.46,3.46,0,0,1,.3-1.2,1.07,1.07,0,0,1,.9-.7.75.75,0,0,1,.7.4,1.49,1.49,0,0,1,.2.9,2,2,0,0,0,.2.9.55.55,0,0,0,.5.3l1-.2v-1.3a1.93,1.93,0,0,0-.3-1,2.7,2.7,0,0,0-.7-.8,3.55,3.55,0,0,0-.9-.4,3,3,0,0,0-1-.2,2.41,2.41,0,0,0-1.8.7,3.1,3.1,0,0,0-.9,1.9,2.77,2.77,0,0,0-.1.9,5.37,5.37,0,0,0,.5,2.1,10.89,10.89,0,0,0,1.9,2.8,7.55,7.55,0,0,1,1.1,1.4,3.43,3.43,0,0,1,.4,1.6,2.46,2.46,0,0,1-.5,1.5,1.38,1.38,0,0,1-.9.5.67.67,0,0,1-.7-.4,2.3,2.3,0,0,1-.4-1.1c-.1-.5-.1-.8-.2-.9s-.1-.4-.2-.4a.75.75,0,0,0-.5-.1l-.8.4a1.17,1.17,0,0,0-.2.7,1.76,1.76,0,0,0,.1.6,4.46,4.46,0,0,0,1,2.3,2.25,2.25,0,0,0,1.7.8m-6.1-4.6a4.92,4.92,0,0,1-.3,2,.93.93,0,0,1-.9.7c-.4,0-.7-.3-.9-1a11.71,11.71,0,0,1-.3-3.2v-3.3c.1-1,.2-1.7.3-2.2a6.21,6.21,0,0,1,.3-1,.71.71,0,0,1,.6-.3,1,1,0,0,1,.9.6,6,6,0,0,1,.3,2.3v5.4m-.9,4.6a2.46,2.46,0,0,0,1.7-.8,4.57,4.57,0,0,0,1.1-2.2,7.13,7.13,0,0,0,.2-1.9,21.05,21.05,0,0,0,.1-2.3v-1.6a11.41,11.41,0,0,0-.7-4.1,3,3,0,0,0-1.1-1.5,3.06,3.06,0,0,0-1.7-.4,2.45,2.45,0,0,0-1.6.6,7,7,0,0,0-1.2,1.8,11.47,11.47,0,0,0-.7,4v1a43.37,43.37,0,0,0,.5,5.5,2.45,2.45,0,0,0,1.1,1.6,9.08,9.08,0,0,0,2.3.3m-5.3-11.6v-.6a3.75,3.75,0,0,0-.1-1,4.15,4.15,0,0,0-.4-1.2,1.58,1.58,0,0,0-.7-.7,2,2,0,0,0-1.1-.3q-1.35,0-2.1,1.8l-.2-.5a2,2,0,0,0-.8-.8,2.28,2.28,0,0,0-1.1-.3c-.7,0-1.4.5-2,1.6a11.73,11.73,0,0,0-.5-1.1,5.76,5.76,0,0,0-1.5.1V103a.22.22,0,0,0,.2.2h.8a1.88,1.88,0,0,0,.8-.2,1.22,1.22,0,0,0,.3-.9v-5.9c0-1.2,0-2.6.1-4.1.3-1.1.7-1.6,1.2-1.6s.7.8.7,2.3a7.57,7.57,0,0,1-.1,1.5V95c0,4.9,0,7.6.1,8.3l.6.1a2,2,0,0,0,.9-.1c.2,0,.3-.2.4-.3a2.22,2.22,0,0,0,.1-.9v-9.6c.3-1.5.8-2.3,1.3-2.3s.7.8.7,2.4a9.15,9.15,0,0,1-.1,1.6v.7c0,4.9,0,7.6.1,8.3l.6.1a2.79,2.79,0,0,0,1-.1c.2,0,.3-.2.4-.3a2.22,2.22,0,0,0,.1-.9v-7.9a7.3,7.3,0,0,0,.3-2.2M173,90.26c.4,0,.7.3.8.8a9.68,9.68,0,0,1,.4,2.2v.9c0,.7-.1,1-.2,1h-2.3v-.5a12.18,12.18,0,0,1,.4-3.3c.3-.8.5-1.1.9-1.1m2.4,8.4c-.2-.1-.3-.2-.5-.2s-.2.1-.3.2a3.68,3.68,0,0,0-.4,1,6.45,6.45,0,0,1-.6,1.4c-.2.3-.4.5-.7.5s-.6-.3-.8-.8a8.54,8.54,0,0,1-.4-2.7v-.9c.5,0,.9.1,1.2.1a8.52,8.52,0,0,0,2.3-.3l.8-.1a3.23,3.23,0,0,0,.3-1.6,19.42,19.42,0,0,0-.2-2.4,6.55,6.55,0,0,0-1.1-3.2,2.66,2.66,0,0,0-2.1-1,2.39,2.39,0,0,0-1.8,1,5.08,5.08,0,0,0-1.1,2.2,16.34,16.34,0,0,0-.5,3.6v.9a24.61,24.61,0,0,0,.5,4.9,2.58,2.58,0,0,0,1.1,1.9,3.15,3.15,0,0,0,2,.5,2.23,2.23,0,0,0,1.7-.9,7.34,7.34,0,0,0,1.3-2.5.76.76,0,0,0,.1-.4.9.9,0,0,0-.1-.5c-.1-.1-.2-.3-.3-.4s-.4-.2-.4-.3m-9-5.4c0,.3.2.5.6.5a1.93,1.93,0,0,0,1-.3,2.49,2.49,0,0,0,.1-.8v-.4a5.66,5.66,0,0,0-1.1-2.9,2.79,2.79,0,0,0-2-.8,2.72,2.72,0,0,0-1.7.6,6.47,6.47,0,0,0-1.4,2.7,5.62,5.62,0,0,0-.3,2,13.18,13.18,0,0,0,0,2,26.89,26.89,0,0,0,.2,3.1q.15,1.35.3,2.1a2.61,2.61,0,0,0,1,1.8,3.83,3.83,0,0,0,1.9.5,2.5,2.5,0,0,0,1.8-.8,5.68,5.68,0,0,0,1.2-2.7,1.27,1.27,0,0,0,.1-.6c0-.2,0-.3-.1-.4a2.74,2.74,0,0,0-.5-.4.76.76,0,0,0-.5-.2.51.51,0,0,0-.5.4l-.2.6a10.72,10.72,0,0,1-.6,1.7.87.87,0,0,1-.9.5c-.8,0-1.2-1.5-1.2-4.4v-2.7q0-3.9,1.2-3.9a1,1,0,0,1,1,.6,4.75,4.75,0,0,1,.6,2.2m-9.8,8a1,1,0,0,1-.7-.5,3.23,3.23,0,0,1-.3-1.6,11.15,11.15,0,0,1,.3-2.7q.3-1.2.9-1.2c.5,0,.8.4,1,1.1V100c-.3.9-.7,1.3-1.2,1.3m2.9-11.1a3.32,3.32,0,0,0-1-1.4,2.79,2.79,0,0,0-1.8-.6,3.75,3.75,0,0,0-1.1.1,3.55,3.55,0,0,0-.9.4,6.53,6.53,0,0,0-.8.7,1.88,1.88,0,0,0-.2.8c.1.2.1.4.3.6a2.18,2.18,0,0,0,.5.4,2.85,2.85,0,0,1,.8-.7,2.13,2.13,0,0,1,1.2-.3,1.17,1.17,0,0,1,.9.9,4.67,4.67,0,0,1,.3,1.7v1.6a1.61,1.61,0,0,0-1.3-.6,2.81,2.81,0,0,0-1.5.3,4.47,4.47,0,0,0-1.1,1.4,4.58,4.58,0,0,0-.4,1.5,14.92,14.92,0,0,0-.2,2.1,7.65,7.65,0,0,0,.3,2.5,3.35,3.35,0,0,0,.9,1.4,2.12,2.12,0,0,0,1.4.4c.6,0,1.3-.5,2.1-1.4q.15,1.2.3,1.2h.8a.85.85,0,0,0,.6-.2,2,2,0,0,0,.2-.9v-4.8c0-.8.1-1.7.1-2.4a12.78,12.78,0,0,0-.4-4.7m-7.9,2v-.7a3.75,3.75,0,0,0-.1-1,4.15,4.15,0,0,0-.4-1.2,1.55,1.55,0,0,0-.8-.8,2.77,2.77,0,0,0-1.3-.3,2.28,2.28,0,0,0-1.9,1.5c0-3.2.1-5.3.1-6.2,0-.2-.3-.4-.7-.4a4.87,4.87,0,0,0-1.5.2v10.2l-.1,6.3v3.3a.22.22,0,0,0,.2.2h.8a1.88,1.88,0,0,0,.8-.2,1.22,1.22,0,0,0,.3-.9v-9.5c.3-1.4.8-2.1,1.4-2.1s1,.8,1,2.4a7.08,7.08,0,0,1-.1,1.4V95c0,5,0,7.9.1,8.6l.6.1a2.79,2.79,0,0,0,1-.1c.2,0,.3-.2.4-.3a2.22,2.22,0,0,0,.1-.9v-8.1a19.71,19.71,0,0,0,.1-2.1m-14.8,6.7a4.92,4.92,0,0,1-.3,2,.93.93,0,0,1-.9.7c-.4,0-.7-.3-.9-1a11.71,11.71,0,0,1-.3-3.2v-3.3c.1-1,.2-1.7.3-2.2a6.21,6.21,0,0,1,.3-1,.71.71,0,0,1,.6-.3,1,1,0,0,1,.9.6,6,6,0,0,1,.3,2.3v5.4m-.8,4.6a2.46,2.46,0,0,0,1.7-.8,4.57,4.57,0,0,0,1.1-2.2,7.13,7.13,0,0,0,.2-1.9,21.05,21.05,0,0,0,.1-2.3v-1.6a11.41,11.41,0,0,0-.7-4.1,3,3,0,0,0-1.1-1.5,3.06,3.06,0,0,0-1.7-.4,2.45,2.45,0,0,0-1.6.6,7,7,0,0,0-1.2,1.8,11.47,11.47,0,0,0-.7,4v1a43.37,43.37,0,0,0,.5,5.5,2.45,2.45,0,0,0,1.1,1.6,8,8,0,0,0,2.3.3m-7.3-.2h.8c.7,0,1-.2,1-.5v-5.3c0-1.5.1-3.2.1-5.3v-3.8a32.72,32.72,0,0,1,.1-4.2c0-.4-.1-.7-.3-.8a2,2,0,0,0-.9-.2h-.6a4.33,4.33,0,0,1-.5.1v19.8c0,.1.1.2.3.2m-7.1-4.7a13.57,13.57,0,0,0,.1-1.8,6,6,0,0,0-.5-2.4,7.44,7.44,0,0,0-1.4-2.2c-.6-.7-1.3-1.6-2.2-2.6a5.13,5.13,0,0,1-.9-3.4,2.81,2.81,0,0,1,.3-1.5.91.91,0,0,1,.8-.4.63.63,0,0,1,.6.5,8.09,8.09,0,0,1,.2,2,3.71,3.71,0,0,0,.2,1.4c.1.3.3.4.7.4l2-.3-.1-2.2a4.46,4.46,0,0,0-4.8-4.5,3.37,3.37,0,0,0-2.8,1.4,6.29,6.29,0,0,0-1,3.5,5.41,5.41,0,0,0,.3,1.9c.2.5.5,1.3,1,2.3a4.05,4.05,0,0,0,.5.9l.6.9a22.19,22.19,0,0,1,1.3,1.9,6,6,0,0,1,.9,2.1,8.75,8.75,0,0,1,.2,1.6v1.7a.91.91,0,0,1-.3.7,1.29,1.29,0,0,1-.8.2,1.45,1.45,0,0,1-.7-.2c-.2-.1-.3-.4-.3-.8a8.12,8.12,0,0,1-.1-1.7v-.8a3.59,3.59,0,0,0-.2-1.1c-.1-.3-.4-.4-.7-.5l-2.2-.1a15,15,0,0,0-.2,2,9.69,9.69,0,0,0,.3,2.3A5.66,5.66,0,0,0,114,103a3.85,3.85,0,0,0,2.6.8,4.8,4.8,0,0,0,3-1.2,3.27,3.27,0,0,0,1.1-1.5,4.76,4.76,0,0,0,.9-2.5m-14.8,2a.55.55,0,0,1-.5-.3,2,2,0,0,1-.2-.9c-.1-1.1-.1-2.2-.1-3.5s0-2.7.1-3.9a24.51,24.51,0,0,0,.1-2.5l-.1-2c0-1.5.2-2.2.6-2.2a.63.63,0,0,1,.6.5,10.61,10.61,0,0,1,.3,1.8c.1,1.1.1,2,.1,2.9a8.64,8.64,0,0,1-.1,1.5v7.2a2,2,0,0,1-.3,1.1c0,.2-.2.3-.5.3m-.1,3a3.43,3.43,0,0,0,2.9-1.2,7.57,7.57,0,0,0,1.2-3.5,18.76,18.76,0,0,0,.1-2.9v-2.7q0-3-.3-6.6a4.39,4.39,0,0,0-1.3-3,4.08,4.08,0,0,0-3.2-1.2,3.33,3.33,0,0,0-2.5.9,5.68,5.68,0,0,0-1.1,3.2q-.15,1.5-.3,2.4c0,.7-.1,1.6-.1,2.9s-.1,2-.1,2.4a24.52,24.52,0,0,0,.2,2.7,26.24,26.24,0,0,0,.6,3,6,6,0,0,0,1.5,2.9,4.27,4.27,0,0,0,2.4.7M101,83.46a.85.85,0,0,0-.2-.6.76.76,0,0,0-.5-.2,4.91,4.91,0,0,0-1.1.1c-1.1.1-1.8.1-2.2.1H95.9c-.5,0-.9.1-1.1.1a7.12,7.12,0,0,1-1.6.1H91.7a1.63,1.63,0,0,0-.3.6,3.08,3.08,0,0,0-.1,1,4.31,4.31,0,0,0,.3,1.7h2.6c0,.8.1,1.8.1,3.1.1,1.9.1,3.1.1,3.7l-.1,2.2a36.24,36.24,0,0,0-.1,4.4,13.4,13.4,0,0,1,.1,2v.7a1.14,1.14,0,0,0,.3.8.86.86,0,0,0,.6.3h1.2a4.87,4.87,0,0,0,1.5-.2c.2-.1.2-.2.2-.4v-.7l-.1-2.7V98c0-.7,0-1.6.1-2.7s.1-2.1.1-2.9v-6.2h.2c.3,0,.8-.1,1.4-.1A3.45,3.45,0,0,0,101,86v-2.5M90,96.26c-.1-1.8-.2-4.4-.2-7.7,0-.7-.1-1.6-.1-2.8v-2.9c0-.7-.3-1.1-.9-1.1a5.31,5.31,0,0,0-1.4.1.9.9,0,0,0-.6.6c0,1.1,0,3.5.1,7.4l.1,2.7v1.2a33.54,33.54,0,0,0-1.3-5c-.1-.2-.2-.6-.4-1.2s-.3-1.1-.4-1.4c-.4-1.5-.6-2.3-.7-2.6-.2-.5-.4-.7-.8-.7h-.3c-.2.1-.5.1-.8.2s-.5.1-.7.1-.6.1-.9.1c0,1.2,0,2.4.1,3.8a8.17,8.17,0,0,1,.1,1.4v2.2c0,2.9-.1,5.3-.1,7.3v1.4a8.17,8.17,0,0,0,.1,1.4v1.8c0,.2,0,.3.1.4s.1.2.3.2h1.3c1.2,0,1.8-.2,1.8-.5v-.8a16.67,16.67,0,0,0-.1-1.9v-2.4a9.15,9.15,0,0,0-.1-1.6v-3.3c.2.6.3.9.3.8,1,4,1.7,6.3,1.9,6.9a16.56,16.56,0,0,1,.5,1.6l.2.7a1.54,1.54,0,0,0,.3.7c.1.1.2.1.5.1a4.31,4.31,0,0,0,1.7-.3,1.06,1.06,0,0,0,.6-1.1v-3.3a9,9,0,0,1-.2-2.5m-15.5,6.5a3.75,3.75,0,0,0,3-1,6.35,6.35,0,0,0,1.2-3.3,18.76,18.76,0,0,0,.1-2.9V93c0-1.2-.1-3.5-.3-6.7v-2a4.12,4.12,0,0,0-.1-1.2,1.63,1.63,0,0,0-.3-.6,7.38,7.38,0,0,0-1.2-.2,5.16,5.16,0,0,0-1.1.2l-.2.2v1c-.1,1.9-.1,3.2-.1,3.7.1,1.2.1,2.2.1,3.1v4a6.15,6.15,0,0,1-.1,1.4L75.4,98c0,1.3-.3,1.9-.7,1.9a.63.63,0,0,1-.6-.5,3.59,3.59,0,0,1-.2-1.1l.1-2.4v-9.3c0-.6.1-1,.1-1.4,0-.8-.1-1.3-.3-1.4a3.13,3.13,0,0,0-1-.5,3.75,3.75,0,0,0-1.1-.1,2.35,2.35,0,0,0-.8.2c-.3.1-.5.2-.5.3a2,2,0,0,0-.2.9v1.2a2,2,0,0,1-.1.7,8.6,8.6,0,0,0-.1,1.6v1.1c0,.7.1,1.2.1,1.7v.9c0,1.2-.1,2-.1,2.4a21.12,21.12,0,0,0,.2,2.6,26.24,26.24,0,0,0,.6,3,4.12,4.12,0,0,0,.9,2.1,2.37,2.37,0,0,0,1.2.9,7.88,7.88,0,0,1,1.6,0m-11.9-6.4a.22.22,0,0,0-.2-.2H61.3a4.59,4.59,0,0,1-1-.1,1.27,1.27,0,0,0-.6.1c-.2.1-.3.1-.3.2a6.15,6.15,0,0,0-.1,1.3,10.32,10.32,0,0,0,.4,2.7,4.12,4.12,0,0,0,.9,2.1,2.8,2.8,0,0,0,1.2.8,9.76,9.76,0,0,0,1.9.1,3.75,3.75,0,0,0,3-1,6.35,6.35,0,0,0,1.2-3.3,18.76,18.76,0,0,0,.1-2.9v-2.6c0-1.2-.1-3.5-.3-6.7v-2a4.12,4.12,0,0,0-.1-1.2,1.63,1.63,0,0,0-.3-.6,7.38,7.38,0,0,0-1.2-.2,6.13,6.13,0,0,0-1.6.3v1c-.1,1.9-.1,3.2-.1,3.7.1,1.2.1,2.2.1,3.1v5.1c0,1-.1,1.8-.1,2.4a4.46,4.46,0,0,1-.3,1.6.68.68,0,0,1-.6.4.86.86,0,0,1-.6-.3,1,1,0,0,1-.3-.8v-3"/><rect class="cls-1" x="287" y="24.66" width="126.6" height="31.1"/><path class="cls-2" d="M34.4,63.56v-.5l.3-.4.1.5Zm-1.3-.9.1-.4.3-.8V62l.1.5Zm1.6-2.1-.1-.5.5-.2.1.7Zm3-.5-.3-.1-.3-.3.3.2.4.2.1.3Zm19.9-1.7.5-.8.1,1.6Zm-24.9-.6v-.4h.6l.1.4Zm1,.9-.3-.5.6-.5.3-.5.3.6-.1.4-.2.4Zm19.7-1.2-.6-.3.4-.2.3.3Zm3.9.6-.3.4-.2-.4.1-.4-.2-.8-.7-.4-.3.1.1.4.6.6-.3.4-.4-.1-.2-.6-.4-.4.2-.3.4-.1.3-.3-.1-.4.8-.5.8,1.7-.5.4ZM39,56.26h-.4l-.6-.6.2-.3.4.4v.4l.3-.1v.2Zm21-.1.3-.1.4.5,1-.6.1-.6-1.4-.5Zm-23.1-.5h-.4l-.3-.3-.3-.4-.3-.4h.5l.2.4.3-.3.1-.2.3.3v.9Zm22.5-1.9-.1.2.4.6-.1.5.6-.7Zm-3.8,0-.5-.2.1-.4.1-.2.2.3Zm-23.1,5.7-.3.5-.8-.5.3-1.1-.2-.5-.1-1.1.3-.6.1-.7.8.4.3-.3-.7-.9.5-.7-.4-.6.4-.6.1.3.4-.5.4.1-.2.4.3.1-.2.1.4.1.8.3-.3.2-.5-.4-.6.1.4.9.6.2h.4l-.2.3-1.6-.3-.1.6h.9l.3.3.4-.3.3.2v1.3l-.8-.3-.5.4.1-.4-.3-.4-1.1.7-.5.9.7.4-.6.6ZM31.2,53l.2-.9L32,52l.1.4-.8,1.2Zm26.2-1,.4-.8.8.3-.1.3-.4-.1-.4.5Zm7.4-1.9-.3.4.7.4.1-.2Zm-27.5,0,.2-.8.7.5L38,50Zm2.2-.3-.1-.4.4-.1.1.8Zm-4.7,1.8.3-.1.3-.5-.4-.2-.1-.4-.8-.3.3-.4.7-.2.4-.3.2.2-.3.6.3.6.2.8Zm26-3h-.5v-.7l.4.3Zm1.4-.5.4-.2-.1.6-.6.1Zm-28.5,1,.4.1-.5.4-.1.4-.3-.1-.3-.2-.4.2-.3-.6.6-.3-1-.4-.2-.8.7.1.8-.3.3.1.2.1-.5.8Zm32.4.2-.8.4.1.4h.4l.1.4-.4.3-.2.2H65l-.2,1.8-.8-.2-.2.3.7.4.1,1.1-.6.1-.4.4.4.4-.1.3-.4-.3-1-.3.4.6.1,1.1-.4-.4-.4.5-.4-.1.5.3-.3.4-.3.4-.3-.3-.2-.4-.9.4-.4-.4.1-.3.5.1-.4-.4-.6-.1-.4-.3-.1.6-.4-.2-.6-.4-.8-.5.3-.7.9.5.4.4.3-.3-.4-.5-1-.4-1,.5-.6-.5.3-.9-.6-.6.4-1.1.6.3-.1.5h-.4l.8.9,1.6.6.1-.7-.5-.9.7-.3.4-.6V51l.3-.1.6,1.7.3.2.2-.9.3-1-.8.1-.5-.6-.3-.3H58.1l-.4-1.3.6-.2.1.5.1-.4.7-.8.2.4-.5.1.3.4-.8.5.1.4.9-.2.6.5h.3l-.1.2.4.1.8-.4.6-.4.1-.2.4.2.2-.6.5.3.3-.4.4.3-.2.5-.5-.3-.2.2.4.6-.3-.2-.3.3-1,.6.6,1,.4-.4.4.2.8-.5-.1-.9.4-.3.3-.1-.2.3-.1.2.6-.6.6-.9h.7v.5Zm-31.4-2.1.5.4.2.3-.4-.1-.6-.3-.3-.3Zm27-.1-.2-.8.3-.5h.3l.2.8Zm-26.4-.5-.2-.3.6-.5.3.2-.2-.1-.1.4Zm-2.2-.3-.3-.7h.5l.2.4Zm26.3.6.6.2.1.6-.4-.3-.3-.1-.3-.3.1-.5.3-.3.3-.1.1-.6.3-.1v1l-.3.1-.4-.3-.1.3Zm6.7-1.5-.2.3-.1-.4.3-.6.1.5Zm-.6,1.5-.3.3.5.4-.1.6-.7-.3-.3-.6v1.2l-.8.2-.4-.7.3-.8-.3-1.4.7-1.3v1l.2.7-.5.6.3.4.7-.5.5-.4-.4-.5.5.1.6.4Zm.2-2.4.3-.1.1.2-.3.1ZM38,44.36l-.1.4-.1.6-.1-.6Zm21.6.5-.4.3-.2-.3-.2-.2-.2-.2.6-.1Zm-23-1H37l.4.2h-.6l-.2-.2Zm-.6.5v.3l-.2-.1-.1.6-.6.5v-.6l.4-.6-.1-.4.4-.3.1.3.3-.1Zm26.2.6-.7.3-.8-.3-.3-.7-.4-.1.6-.2.7.8.1.4.7-.5.4-1.1h.4V45l.3.7-.6-.1-.2-.3Zm3.9-1.2-.2-.6-.6-.3-.5.4.5-.6.8.4.3.4Zm-4.8-.4-.3-.5v-.3l.5.1.5.6.2.7-.5.2-.3-.3.1-.6Zm-23.5-.2h-.6l-.3-.7.9.7.4.3Zm21.5-.6.3-.5.3-.3v.6Zm3.9-1.2.3.6-.4.3-.2-.5Zm.8.8.3-.7.3-.2,1-.1-.9.7v.6l-.4.6-.3-.4.4-.1Zm-3.7-2,.3.1.1.6.3.2.8.2.4.5.2.2-.3.4.4.1H63l-.6.4-1.1-1.3-.7.1.1.4-.6-.4.3-.8Zm-2.3.2.4-.4.6.1-.3.6-.8.1v-.4Zm-26.5.8-.3-.1v-.4l.4-.6.3.1.1.5.4-.4.1.3-.4.6v1.1l.5.9-.3.2-.4.2-.2.6-.1-.3-.2-.6.3-.9ZM63,39l.3.2.2.3.3.4-.3.3-.5-.4Zm-.7-.1L62,39l.2.4.4.6-.4.2-.4-.4-.4-.2-.3.4.1-.2.2-.3-.1-.3.4-.6Zm-24.4-1.2.4-.1.4.3-.5-.1Zm-1.7.1-.3.3-.3.1,1.1-1,.1.6Zm-2.1-.4.3-.3.4-.2.3.1-.4.8ZM56,36.16l-.2-.2h.6l-.8.9-.1-.4Zm-21.2-.9-.4.6-.7-.2.4-.1.2-.5Zm-1.2-.7-.1-.3.4-.3.2.4Zm20,19.7-.8,1-1,.6-1.3.6-2.3.6-5.2.3-1.5-.6-.6-1.4.1-1.3L40.7,53l.2-1.3v-16l.8-1.1,1.8-.7,1.3.1,1.3-.1L48,34l2.5.8,2.1,1.4L54.2,38l.7,1.2.8,1,.8,3.7.2,1.9-.3,3.1-.4,1.2-.9,2.3-.8,1.1ZM37.3,33.86l.2-.4.3-.1-.1.5-.1.5-.2-.1Zm-6.3,0,.2-.7,1.7-.1-.3.4-1,.2h.6l.8.1-.3.6.8.6-.6.4-.3.4.8.5.3.8-.4.9.2,1.5-.8.4.3-.6L32.6,38l-.5.5v-.8h.8l-.6-.8-.1-.8-.7.3.2-.9-.3-.1.3-.4.4-.3-.8-.1Zm30.6-.4-.6-.1-.4-.4h-.3l.3-.1Zm-8.6-1,.6.3.3.3.1.2-.9.8L51.9,34v-.5l.4-.2.8.5.5-.4Zm7.3.5-.3-.1-.5.4-.1-.8.6-.1Zm-24.7.2-.9.5.4-.8.8-.5ZM32.9,33l-.1-.6.2.2Zm15.2-.5.3-.4.6.1-.5.5-.6-.2.1-.3Zm9.1-1.2.5.3-.1.3-.6-.1Zm-1.9.7-.1-.7.6.1-.3.7Zm3.9-1.1.4.4-.4.6-.3-.2Zm-7.4.4-.3.3-.6-.3.2-.4Zm-11.9.4-.9-.3-.2-.4.3-.3h.5l.8.4Zm16.4-.9-.3-.3.3.1.3-.1.3-.1Zm-10.5-.5-.1,1.3-.1-.6Zm-7.3,1.5-.4.4-.8.2-1.6-1.6-.4-.6,1.1.6.4.1.2.8.3.3v-.6l.5.1Zm2.2-1.4.4-.3-.1.6-.4.1Zm12.9.7v.4l-.8.2-.8-.9.1-.8.6.6ZM50,29.86l.9-.3.8.4-.8.1-.8.9-.6.1-.3-.5Zm8.8-.3.2.3-.3.1-.3-.3Zm-27.4,1.5-.1-.4.1-.8-.1-.2.6-.4.7.4.9.8.1,1.1.2-.5.5.1-.1.8-.2.4-.4.2v-.4l-.1-.6-.4-.1-.3.3-.4-.3-.4-.3-.4.1.4.5.1.4-.3-.3-.2-.4-.4-.1-.3-.1Zm16.1-2.3-.1.4-.3.4-.4-.1.1-.7Zm4.6-.5.6-.3-.2.8-.8.1Zm-20.9.3.3-.7.5-.3-.2.4.5.3.7.2-.3.6-.6-.4-.3-.4-.1.6-.8-.1Zm16.7-.3-.5-.2-.1-.6.6.1Zm6.3-.5.3-.6.3-.1.2.6.3.1.6-.4.4.6-.6-.3-.5.4.5.1-.1.5.3.5.9-.2-.3.7-1.3-.5h-.3v.4l-.3.2-.3-.3.6-.8-.7-.4-.9-.3-.1-.3h1Zm-10.8-1.3.6.4.1.6-.8-.4v-.6Zm-1.6.2h.3l.4-.3.4-.1-.2.4-.4.4-.6-.1Zm5-.8-.1.3.7.3-.2.3-.9-.6-.4-.5Zm-13.9-.5.7,1.3.3-.1-.3-.4.3-.3.5.2v.6l-.2.9.6.3.4-.4.6-.2-.4-.6h-.7l.2-.6h.9l.8-.4-.3.4v1.2l-1.3.9-.4.3.3.4-.7.1-.3-1.5-.5-.9-.4.2-.2.7v.4l-.4-.3-.2-.4-.2-1.1Zm6.9.6-.6-.5.2-.5.6.1v.6l.4.2.1.4Zm4.2-1.1.6.3.3.4-.4-.1-.2.5-.4.1Zm-6.9,0,.6.6-.5.6v-.4l-.3-.6Zm30.8,18.8-.9-3.6-.1-1.3-.3-1.1-.9-2.5-1.4-2.1L63.8,32l-1.6-1.9-1.1-.8-1.8-1.7L57,26.16l-1.3-.6-3.4-1.1L49.7,24l-8.9-.1-1.3-.1-4,.1-1.3-.1-1.1.1-1.3-.1-1.1.7-.9,1.2v2.6l.1,1.3-.1,1.3.1,2.4-.2,1.4.2,1.3-.2,1.3.3,5-.2,2.4.2,2.7-.2,1.2.2,1.3-.2,2.4.1,5-.1,1.3.2,5L29.9,66l.8,1.4,1,.6h1.4l1.3.2h1.3L37,68l11.3-.1,4-.6,3.6-1.1,5.3-3.6,2.5-2.9,1.9-3.1.3-1.2.6-1.2.3-1.3.4-1.1.2-1.3.3-1.3-.1-1.1Z"/><path class="cls-2" d="M88.8,63l-.1-.1.3.2Zm-.2-.2.2-.3-.2.3Zm-.9,0-.4.4-.1-.6.6-.6Zm31.8-2.3v-.4l.3-.1.1.4Zm1.4-.4.3-.7v.3l.1.5Zm-28.8-.5-.8-.2.4.1.6-.2.4.3Zm-7.1-.3-.1-.5h.5l.1.4Zm34.7-.7-.2-.3.4-.1.1.3ZM89.4,59l-.8-.5.1-.3,1.1.2.1.7Zm29.3-.5-.4.1-.1-.6.4-.1v.6Zm-5.6-.1.1-.6.3.3.1.4Zm9.1.4-.5-.3-.4.1-.2-.2.5-.4.6-.4.1.8Zm-4.9-.7-.4-.2v-.4l.4.3Zm-1.7-.6h-.7l.3-.4.8.3Zm-25.9-.3-.1.4-.6.1.2-.6Zm-2.1.2-.4.1-.4.6-.4-.4-.3.1-.3-.1-.5.1-.4-.6.3-.3.4.4.4.3.6-.2.8-.3.3-.1Zm2.5-.6-.1-.3.7.3Zm.6.5.6-.4.3-.1.2-.6.4.4-.5.2-.3.2.4.4-.1.3-.5.1Zm-7.2-.1-.3.1.1-.3-.4-.7,1-.1.3.5Zm2-1.3.1.3-.6.2-.2-.3Zm6.2-.5h.7l-.1.4-.6-.1Zm22.8.2-.4-.3.4-.4.3.4Zm-26.3-.5.4-.2-.1.6-.4.2v-.6Zm-3.8.1-.4.1.1-.3.4-.4Zm-2-.4.1-.3.5.1.1.7.1.2-.3-.1-.3-.4Zm4.3-1-.2-.2-.2-.1-.1.4Zm34.8,0,1.1.3.1-.4-.9-.4Zm-2.2-1,.5.1.2-.4-.6-.2Zm-34.6-.2.3-.4.2.4-.4.4v-.4Zm37.3-.4-.2-.4-.4.1.1.4Zm.4-.6-.5.2.7.2Zm-2.7-.2.1.4.4-.1.4-.2-.1-.4Zm-32.6,2.9-.4-.2-.7.4v.6l-.3.2-.3-1.2.3-.8-.2-.3.4.4.4-.2h.1l.2.2.2-.9,1.1-.8.2-1,.3.3.7-.4.4.6-.9.8-.4.4-.4.3-.5.3,1.2.1,1.1,1.2.4-.4-.4-.4.4-.4.3-.4-.3-.6.1-.6.6.1.4.4-.6.4.4.4.7.6-.1.1-.7-.1-.4.4.4.5.8-.2v.4l-.6.3-1.4,1.1-.4.1v.4l-.4-.3.6-.8.6-.4-.7-.4-.6-.6-.9-.3.1.9Zm28.9-4.2.5.3v.3l-.3-.2-.6.5-.1-.4Zm-26.1,0v.4l-.5-.3Zm28-.2.1.7-.7-.2-.1-.6Zm-1.4-.7v.4h-.4l-.1-.4Zm6.7,0-.4-.3-.2.2-.1.5.6-.1ZM88,50l-.3.3-.3-.5.6-.5.1-.4.7.1v.7h-1Zm2.1-2.1.7.3-.7.5-.1-.4Zm-1.4,0-.6-.1.3-.2.3.3.3.3Zm-5.9,0-.4.4v-.8h.4Zm33.8-.6.5.1-.2.4-.6.3.3.6.6-.4.1.6-1.4-.1-.1-1.3h.8Zm-32.3,6.3-.3-.2.4-.3-.3-.1-1.3.1-.5-1.4.4-.7.3.1.3-.4-.8-.2-.6.1-.1-.3.5-.2-.3-.5h-.6l.8-.7h1.3l-.1.4-.5-.1v.4l.6.4.6-.1.4-.8.9.3.4-.6-.2-.6-.7.6-.8-1,.4-.8.3.1.7.3.4.5.3,1.1.7.7.1.6-.8.2-.4-.6-.9-.3-.6.8-.5.3-.4.5.1.4-.7.2v.4h.7l.9-.8.5-.7.7.2.8.3-.3.4-1.1-.3-.8.5-.3.1-.1.6.7.3-.1.3Zm39.2.5.9.3-.8.6-.8,1.1-.1.4.6.6-.1.2-.2.3-.7-.6-.5-.2-.4.3-.5-.4.5-.4.4.1.3-.3.1-.3.3-.6-.6.1.2-.4-1.2-.9-.9.3.3.1.6.3-.7.9-.5.1.4.3-.9.1-1.4.1-.5.1-.4-.2h.4l.3-.1h.4l.2-.4v-.4l.7.3,1.1-.4-.1-.8-.3.6-.5.4.2-.6-.2-.7-1.4-.2.2.9-.4.6-.6.1-.8-.3-.7-.7V54l.6-.1.5.9.3-.4.1-.6-.9-.5-.9.1-.2-.6,1,.1h1.2l.9.3.3-.4-.1-.6-.4-.1-.6.2-.2-.4.4-.4-.1-.2-.5.1.6-.6,1.1.6.9-.8-.3-.8v-.6h-.9l-.3-.1v-.3l1-.1.7-.8.3-.3.4-.1-.1-.6.1-.6.4-.1.1.6-.1.3.5,1.1-.3-.3-.6.6-.7.6.9.5,1.3-.5.2-.7.3-.3.6-.1.3-.6.5-.8.7-.1-.2.8-.6.4.1.4.8.3-.4.8h-.6l-.4.9.9,1.3.8.9-.6.4-.4-.4-.3-.5-.1-.6-.5.7Zm-34.3-6.6.1-.7.5.1.9-.4V47l-.8.4.1.3Zm-1-.8-.3.1v-.4l.3-.2Zm31.7-.8-.1.1-.2-.2Zm-1.9.4-.4.1-.5-.4v-.3l.3.1.5.3Zm-32.6-1.2.3.4h-.3Zm2.2,1-.5.4-.3-.1.3-.7.5-.6.6-.1v.6Zm32.3-.2-.3-.6.4-.5.4.8ZM90.6,45l-.4-.4.5-.3v.4Zm-6.3-1.7h-.4l-.2.4.4.2Zm33,.3-.4-.2-.2-.4.6.2Zm-35.1,1.6.1-.5.4-.2.6-.1-.3-1.3,1.5-.3.6.6-.4.7,1,.3.4.5.5.3-.6.2-.7-.4.1-.4-1.1.4-.5.6.6-.1-.1.2.3.4-.9.2-1.1.7-.2-.8-.5-.3.8-.2.1-.4ZM124,45l.3.3-.6.5.1.6.3.5-.6.3-.3-.7-.4-.2.3.8-.9.3-.4-.5.3-.4-.1-.6.7.2.9-.5.4-.1-.7-.5-.6-.1-.4.1-.7-.3-.4-.2-.7-.6-.4-.3-.3.4-.9-.3V43l-.5-.2.5-.2.6.6.3.5.4-.2.3-.5.2-.8.5.3-.2,1,.9.3.4-.5.4.1-.3.9.3.3.8-.1Zm-5-3.1v-.7l.4.1.5.6-.1.8-.1-.5Zm-30.4.5-.4.2-.5-.4-.1-.8.6-.2.6.8.6-.1.1-.2.2.2-.4.1v.4Zm3-1.3-.1.3-.5.2.2-.1.2-.2Zm29.6-.1-.3.6h-.7l.3-.4ZM89.4,41l-.3.2-.1-.4.1-.3Zm-5.7.2,1.4.5.4-.5.1-.8h-.3l-.4.1.1.4-.2.3-.4-.6-.4-.1Zm39.1-.4v.5l-.3.3-.2-.3.5-.1-.8-.4-.8-.6h.8Zm-38.4-.5-.1-.3-.9.3.2.3Zm33.3.2.5-.5.2-.1,1.1-.1.6.7-.3-.3-.8-.3-.8.6-.8.8Zm.8-1.8h.6l-.3.4-.5.1Zm-2.4.3.3-.3.5.1-.3.5-.7.1Zm-30.3.9.8-.8-.6-.4-.6.1-.2.4.5.1-.5.5Zm35.1-1.5.1-.5.3.4-.5.3Zm-8.5-.4.4-.1-.1.4h-.4Zm-21.8-.3.1.3-.3.4-.1-.4v-.4Zm29.2-.4.4.3-.5.2h-.3Zm-6.6,16.6-.7,1.1-.4.9-.9,1-3,2.1-1.1.3-.9.4-1.3.3h-3.4l-1.4-.2-2.3-.9-1-.6-1.7-1.4-.8-.9-.9-1.2-.3-1-.6-1.1-.5-2.3v-3.8l.3-1.1.2-1.2.5-1.1.4-1.1,1.5-2L98,38l.8-.3,2.4-.6L103,37l3,.4,1.1.3,1.1.5,1.9,1.4,2.4,2.6.8,2.4.6,1.2.2,1.1-.1,3.8-.5,2.3Zm4.1-17.3.2.2-.4.5Zm-26.9.3L90,37l.1-.4.4-.1v.4Zm-2.7.6,1.3-.7.3-.5.3.1-.4.9-.5.4-.6.5.4.3.5.2.2.6.6-.2-.2.6-.8.4-.3-.4-.1-.7-1.4-.8-.4-.8V37l.3.3-.3.3Zm-4.4,2,.6-.6.6-.5.1-.8.6.1.3-.4-.5-.4.6-.4.6-.3.1.6.2,1.4,1.2,1.4.3.6-.6.9-1.1.4.4.3.6.5-.4.4-.1.6h-.6l-1.3-.7-1.1-.1-.1-.4-.5.1v-.6l-.1-1.4Zm8.3-3.6.4-.2.5-.6-.1.8Zm2.3-1.2-.2.3-.5-.1.3-.3Zm17,.2-.6-.4-.1-.5.6.3Zm-19.2-.8.4-.4.1.3-.3.3h-.6Zm-4-.3h.6l.3.1.6-.5.7-.1-.3-.1-.6-.1-.3-.4.8-.4.5.5.1.4.6.2-.3.4-.4-.3-.2.7.4.5,1.1.5-.1.4-.9.4-.5-.4.5.1v-.6l-.7-.3-.6.3v-.5l.1-.4h-1l.1,1.4-.5,1-.6-.1-.7-1.6ZM95.3,32l-.1.5-.4.3.1-.5Zm11.8-.1.4.1.1.4-.4-.1v-.4Zm3.2-.2.3.4.5.1-.1.4-.9.1-.3-.6Zm-6.2-.1-.2.2-.2-.1.3-.4Zm8.7-.2.1.3-.4-.1-.1-.3Zm-12.6-.5h.3l-.3.3-.4-.2Zm-7.7.8.3-.3.4-.5.2.3-.4.6-.7.2Zm13.6-.9v.4l-.4-.1-.1-.3ZM94.9,30l.8.1-.2.6-.7-.1Zm-.5-.6.1.4-.4.1-.1-.4Zm2.8-.1.8.4-.3.6-.9-.4-.2-.6Zm12.9-.4.8.4.6.4-.1.3-.6.1-.7-.4v-.8Zm-9.9,0,.4.3-.5.1-.2-.2Zm3.7-.3-.4.2v.3l-.1-.3Zm3.8-.1.8-.2-.1.6.4.4.3.5-.4-.3-.6-.2-.6.2-.4-.2Zm18,16.9-.4-2.6-1.6-4.7-1.2-2.3-1.4-1.9L119.3,32l-1.8-1.6-1.4-1-1.9-.8-.9-.7-4.8-1.5-3.6-.6-1.7-.1-6.6.9-4.7,1.8-.9.7-1.1.6-2.1,1.6-3.1,3.6-1.9,3.3-.9,2.4-1.1,4.8-.2,5.1.2,1.3.3,1.1.1,1.2.6,2.4,2.9,5.7.8.8.8,1,.9.9.7.8,2.1,1.6,4.9,2.5,1.8.6,1.4.1,2.3.5,1.3.1,3.5-.1,3.8-.5,4.7-1.6,2.1-1.1.9-.8,1.2-.6,1.8-1.5.8-1.1.9-.9,2.8-4.2.9-2.4.5-2.4.1-1.1.3-1.3.1-1.3.3-1.8Z"/><path class="cls-2" d="M186,66.56l-.6.3.1-.5.6-.3Zm3.3-.2-.2-.9.1.2h.4l.2.3ZM186.2,65h-.3l.2-.1.1-.3.3-.1.1.4Zm-1.3.8h-.8l-.2-.9.6-.9.9-.3.4-.4.4.2-.7.6.1.7-.5-.4-.4-.3-.1.8Zm1.6-3.5-.5.1h-.4l-.4-.1-.3.5-.3.1-.3-.7-.3-.3.1-.3.9.2.8.4.2-.5-.3-.5.6.4.8.1.1.3Zm4.3-.6-.1-.4-.5-.1-.3-.5.6.1.3.6Zm-.8-1.8.2-.3.3.1.3.3-.3.2Zm-2.9,1.3-.1-.5-.3-.1-.5.1v-.3l.6-.3-.1-.5.3-.1.1.4.1.8.5.5Zm7.7-1.6-.4-.3.3-.1.4.2Zm-6.4,1.3.1-.3.3-.6-.1-.8.3-.1.2,1-.4.7Zm8.8-1.8-.1-.4.4.2.3.2Zm-4.6-1.2-.5,1.1-.9-.2.8-.2.4-1,.6-.4h.3Zm.4-1-.1-.4.6.1.4-.6.4.2.1.6-.7.1Zm3.4-.7-.3-.3.1-.3.6.3.2.3Zm1.4-2.4H197l-.5.4v.5l-.3-.3.1-.5.5-.4.7-.3.4.2ZM195,53l-.3-.4.4-.2.1.4Zm2.3-1-.5-.5.8.1.5.7Zm-6.9-.8.6.4.2-.4-.5-.2Zm5.2-.2-.2.3-.5.5-.6.1-.2,1.1-1,.1-.3-.5-.2-.3-.7.5v.4l.3.6-.2.3-.6-.3.2-.5-.4.1-.3.7.4.4-.3.5-.7.2.1.3.4-.2h.7l1-.9,1-.8.1.4-.1.4-.2.6-.9.1-1.3.4v.8l-.8-.3-.9-.4.1-.6.8-.3-.4-.9-.5-.9.4-.7.3.2-.2.6.3.2.4-.6-.2-.8-.6-.2-.6-.8.5-.3.4.6h.4l.6-.4.4-.1-.1-.4-.3-.3.3-.6.9-.5.5.2-.1.6,1.4-.2h1l.3.2-.4.3-.9-.2-.6.1.2.4-.6-.3-.1.9,1,.2-.1.3-.8.1-.7-.1-.4.3.4.4.7-.2h1.3l.8-.1-.4-.6.4.2.4-.4.4.1Zm-1.5-2.5-.5.1-.3-.3h.4Zm1.9.2h.4l.3-.4.3-.2-.3.5-.4.4-.4-.1Zm-6.7.3.3-.9.5.1.8-.4.3.6-.9,1-1,.6-.4-.1h.3Zm1.5-1.9.8-.1.4.5.4.3-.3-.2-.3-.1h-.6Zm1.3-.7.5-.1.3.6-.4-.1Zm-1.7.2h-.9v-.7l.8-.1Zm6.1-.7-.5-.4.6-.2.6.4-.1.3Zm-2.7,1.7.1-.3-.1-.3.1-.4v-.3l-.3-.2-.5-.1v-.3l.6-.2.9-.3-.1.8.4,1.1Zm-3.7-2.7-.3-.3.4.1.3.2Zm5.7-.8.4.3-.6-.1-.8-.1v-.3Zm-3.3,1.3-.9.3-.2-.6-.2-.4-.8-.4.1-.8.2.3.4.1.8-.4.2.6-.4.4.1.3.4.1.7-.1.1.3Zm2.5-1.8.1-.2.3-.1-.1.3Zm-1.1-.7.3.6-.6-.1-.4-.4Zm-4.1-.4-.2.3-.5-.3.4-.6.2.1-.2.1Zm2-1.3.5-.1.2.6-.6.2Zm-1.4-.1.1-.4.2-.4h.3l-.1.5-.2.6Zm6.3-1.7-.1.3.1.4-.6-.3-.6-.4-.4.3v.6l-.3-.1v1.3l.1.5-.4.4-.2-.4.2-.4-.2-.3-.3-.4.4-.4.4-.4-.1-.5.8-.1h1.2Zm-.3-1,.2.1.2.1h-.5l-.2-.2ZM193,38l-.2.4-.4.2.1-.6.6-.2Zm.1-2.3-.1.5-.4-.1.1-.4Zm.1-2.1-.2.3-.5.1.1-.4Zm2-.2-.3-.3.6-.2.1.3Zm2.6-.1-.6-.1-.4-.4.5.1Zm-1.2-.8.1.3-.4-.1Zm-7.4-.2-.5-.3-.2.2.4.4Zm4,.7-.1-.3.5-.3.2-.6.3.3-.1.9Zm4.1-1.4h.4v.6h-.4Zm-6.2,1.5.1-.7.7-.1-.4-.6-.4.3-.9-.1.1-.8-.3-.3-.6.2.2.9-.1,1.1.3.3.4-.2.3-.2Zm-5.9-2.8.7.1-1-.5Zm7.9-.6-.4.1-.2-.4h.4Zm-4.2-.3-.1.3.9-.4-.4-.2Zm8-.1-.4.3v-.5l.3-.5.2.3Zm2-.7.4-.1.1.3-.2.2-.3-.1Zm-10-.2-1.4.3-.3.6-.2,1.2.4.9.6-.4v-1.8l1.4-.3Zm7.3.4-.4.2.1-.4.3-.2Zm-1.9-.8,1-.3-.6.7-.9.4Zm-8.6-.1-.1.4.4-.1-.1-.6Zm14.8.2-.8-.4.1-.4.6.4.6.2ZM188,27l-.3.4.3.1Zm-3.7.2.2-.3v.4l-.3.3-.3-.1Zm3,5.3-1.3.6-.9-.5-1-.9.3-1.3-.4-.9-.1-.6.2-.1-.1-.5,1.3-.8,1.5-.4.3.7.4.2-.1-.4.2-.2-.1-.3.4-.2.8.6,1,.3,1.4.7.8-.7-.1.8-.9.6.8.1.4,1,.6.8h.6l.4-.6.2.3-.5.6-.9-.2-.4-.3-.8.3-.2.2.8.4.6.4.4.2-.3.1-.5.9-.3,1.3.5.6-.6.3-.3-.6-.6.3-.1-.4.3-.4v-.2l-.9.8-.3.8.8.1v.6l.4-.1.2.4-.6,1.1.5,1.4-.6.2v.5l-.3.1-.4-.4-.4.3-.4-.5.2-.8,1.1-.6-.6-.7-.1-1L189,36h-.3l-.3-.8,1.5-.7.1-.8-.2.1-.3.3-.1-.1-.3.2-1-.1Zm10.8-5.9-.5.6-.3.4-.6.1-.8-.4-.6-.4.1-.6.6-.2.3.7,1.1.1.7-.3-.1-.4.2-.3.4-.2.5-.1-.1.3.6.5-.3.5-.8-.4Zm4-1-.3.2-.3-.3Zm-1.9-.1.3-.1-.2.4-.6-.1-.3-.1.3-.1Zm-11.2-.1.8.3,1.6-.4,1.3.7.4-.1.1.4v.5l.4.2-.5.3-.4.4-.1-.8.5-.6-.4-.1-.4.2-.3.8-.7-.6.1-.5-.4.2-.3.8-1.3-.5-.3-.7-.1.8-.4-.1-.2-.9Zm-2.9-.3.5.4.3-.2.3.7-.8.6-.5-.6h-.4l-.1-.7Zm3.6-.3.1.3-.4.2-.2-.4Zm15.1,35-.9-1.1-4.2-1.3-.7-1.3.1-5.1-.3-2.5.3-2.6L199,44l.1-1.9-.1-1.2.1-1.3-.1-1.3v-2.6l.7-1.1,1.2-.7,1.4-.1,1.2-.7.7-1.2v-3.7l.1-1.1-.1-1.3-.5-1.3-2-.6-8-.1-1.4.1-3.8-.1-1.2.1-2.4-.1-1.4.6-.7,1.3v1.2l-.1,1.1v1.4l.1,1.3V32l.6,1.2,3.8,1.3.8,1.1-.2,5.3.1,1.1.2,1.4L188,46l-.1,1.3.3,2.4-.3,1.3.2,2.7-.1,2.4-.6,1.4-4.1,1.3-.8,1.2-.1,1.2V66l.6,1.3,1.3.4,18.6.1,1.2-.6.7-1.1v-1.4l-.1-1.1Z"/><path class="cls-2" d="M151.7,65.56l-.4-.1-.6.1-.6-.1-.6.6.7.4.5-.1-.1-.5.6.1-.3.3,1.1.2-.4-.5v-.4Zm4.6-.1-.3-.3-.2.2.1.3.4.4.3.1.8-.1-.3-.3Zm-12.7-.2-.2.3-.6.3h.8l.9-.4-.2-.4Zm14,1-.9.2-.3-.1-.2-.3h-.4l-.3-.4.3-.6.1-.6.3.1.9.6.6.2Zm1.4-1.8-.6.3-.1-.4.1.3.3-.4.4-.3Zm-18.1,0,.3.2v-.6l-.5-.1Zm9.4.5.4.3.5-.3.3-.3-.5-.2.1-.4-.4-.6-.5.3.4.6Zm11.3-.9-.4-.2-.7.3-.7-.5.4-.1-.1-.3.2.2-.3.2.4.1.8-.2.8.3Zm-21-.5-.3-.1-.6-.1-.3.4v.1l.5-.2Zm6.3-.3.5.8.2-.1v-.3l-.1-.3Zm10.4,1.3.1.3-.3-.3-.3-.8-.5.6-.4-.6.2-.5.9.4Zm-3.4-.8-.3-.3-.4.1-.4.3-.9-.1-.3-.6-.4.3.4.6,1.3.4.6-.5Zm-9.3.4.3-.3-.1-.6-.3-.3-.7.5.6.9.8.9h.4l.2-.3v-.3l-.4-.7Zm3.3-1.3.6.3.6.1.2-.2-.6-.3Zm10,.4-.3.3.2.7-.4-.7v-.9l.6.1v.5Zm-2-1,.1.3-.4-.2v.4l-.3.1v-.8l.3-.3Zm-1.2-.5.3.1v.6l-.4-.1Zm8.9.6-.5-.6-.6.1.2-.1.4-.1.6.3Zm-24.1-.6-.3-.1-.1.4.6.2.1-.4h-.4Zm8.8.5h.8l-.4-.6-.5-.2v.4l.6.2Zm-4.1-.7-.6-.1.4.4Zm17.1-.1.2.3-.1.1-.4-.1-.4-.2.1-.3Zm-19.5,2,.3-.5.6.3-.1-.6.3-.1-.6-.1-.3-.6h.3l.1-.6-.9-.1.3.8-.2.5-.2.2-.6-.1-.2.3.3.4-.1.2,1.3.6.7,1.1.2-.4-.3-.6Zm20-2-.3.2.1-.2-.3-.4L161,61l.1-.2.4.2.6.1.1.4Zm-6.1-.1.6-.4.3-.4.4.3-.1.3-.3.3-.2-.3-.4.6Zm-2.8-.3h.4l-.6-.6h-.6l.3.3Zm-10.4-.8.3.4.1.6.6.2-.2-1.1h-.8Zm-3.3-.3-.3.2.1.4h.4Zm13.1.9-.3-.4-.1-.5-.3-.4-.1.4-.1.9.8.8v-.1l.1.1.3-.3Zm-8.2.4.8.1.3-.5L145,60l-.5-.5-.3.6-.1.4.1.3-.2.2Zm4.7-1.6.5-.1.6-.1-.1.4.3.1h.8l.3.2.1-.3.3-.3.9.4,1.4-.1-.1.6.2.4h.5v.4l-.6-.1-.3-.3-.4.7.4.5.4-.3-.1.5-.6.3.1-.4-.3-.4-.4-.2-.4.2-.1-.1h-.1l-.1.4-.4.4-.1-.4-.1-.4-.4-1.2-.8-.1-.7-.4-.1.6-.6.3-.5-.6Zm9.3-.3v.8l.6.8.3.3-.3.3-.2-.4-.6-.5-.6-.7.3-.3Zm3.9-.2-.3.8-.4-.4Zm-15.7.4-.4-.6-.6.3-.1.8.4-.3Zm14-.7.3.4.3.3-.4.1-.2-.2-.4-.3-.1-.4h.5Zm-19,1.8.7-.6.5-.1v-.3l.9.1-.2-.5-.6-.1-.8-.3-.6.6.1.6Zm14.5-1.3,1.1-.8.1.5-.3-.2-.3.6-.4.4-.5,1.1.1.3-.4-.6Zm3-1-.3.6-.3.1Zm.3.3.6-.3-.2-.2.3.2-.6.6Zm-19,.9.7-.5.1-.3-.5-.1-.4-.5-.1-.2-.4-.1-.2.4-.1.4.5-.1.3.3v.4l-.4.2.1-.2-.8.2-.3-.2-.1-.6-.5.4-.6.2.4.2.6.4.3.2.3-.2.3.2.2-.3Zm23.9-2-.2.3-.1.4-.3-.1.3-.3-.3-.4.8.1Zm-23,.3-.4-.5-.3.3.6.4Zm19.6-1h.3l.3.1.3.3-.4.5-.6.3-.6-.2.1-.4.4.3.1.1.2-.3Zm-22.1,0,.3-.1-.4-.3-.8.9-1.2-.1-.2.5.8-.3.4.3,1.3-.1.2-.4-.4-.1Zm15.4,8.8.9.1.1.2.2.6-.4.5-.4.3-.3-.2.4-.4.4-.6h-.6l-.1-.3-.4.4-.2-.4-.8-.3-.3-.6-.2.2-.3.1-.4-.3.1.4,1.5,1.3-.1.1-.3.2-.3.7-.6.1.3-.3.1-.6-.4.3-.5-.2-.3.4-.1.6-.6-.3-1.1.1-.2-.2.4-.2v-.3h-.9l-.2.6-.4-.1.1-.6-.3-.3-.2.5-.3.4-.8.1-.3-.4.1-.8.6-.2-.7-.2-.8.9v-.5l-1.1.2.1-.5-.8-.1-.1.4.3.1-.3.1-.9-.8h-.8l-.7-1-.4.2.2.2.1.4-.3-.3-.1-.3-.2-.2V65l-.7-.3v-.8h-.1l.1-.1-.2-.1-.2.2-.3.7-.4-.6-.3-.1-.7-.7.6-1.1.3.4.3-.5-.7-.4.8-.4.2-.7-.3-.3-.3-.3-.1.5-.2.6-.5.2-.3.1-.5.3-.3.1.1-.5.5-.2-.2-.2v-.5l.2-.3-.6.1-.5.3h.5l.1.3h-.3l-.1-.3-.4.2-.3-.6v-.4l-.4.2v-.6l.4-.3-.4-.5.5-.4.1-.3-.6-.6.4-.9-.3-.4v-.3l1-.1v.5l.4-.1.5-.6.7-.1.1.6.7-.5.6.7-.3.4.4.1.5.2-.2-.6-.3-.5.3-.4.1.1,1.4,1.4v-.3l.3-.8.8.2-.6.2.1.6.6.1.2.6-.5.5-.4-.1.6.6.7.1.2-.4-.3-.3.6-.2.3-.3.1-.2.1.4-.2.3.3.4-.4.3-.5.3-.3.3.5.1.4.1.4-.6.3-.3.1-.6.9.2.8.8.8.4.3.4V60l-.4.4-.3-.1-.3.6-.2.8.9-.1-.4.4.4.4.6-.4.2-.4-.3-.4-.4-.1.1-.4.7-.3-.2-.5.8.1.7.8.5.4.8.4-.3.2v.1l.2-.1-.3.3.6.1.3-.7.3-.1-.1.3.5.6.1.8.5-.3.8.4.3.5.7-.8.1-.3.3.5.4.2,1.1.3.3.5.2-.1.1.4-.6.1-1.1-.6-.3.5.2.3-.3.2.6.1.6-.4.6.6-.3-.1-.4-.1-.3.4h-.9Zm7.9-9.9-.4.6-.5-.6-.7-.1-.3-.2-.1.3-.3.1.2-.5.9-.2-.1-.7-.1-.3,1.6,1.3Zm-3.1-2-.2.2-.1-.2-.4-.4h.3l.4.2.3.4Zm-.9-1.5h.6l-.1.4.4-.1-.2.3-.8-.2Zm2.9-1.6.5.1v.3h-.7Zm2.7-.4.4.4.2-.2.3-.1-.2.2-.8.4-.1-.4Zm-7.2-.6-.1.2-.1.6-.3.3-.1.4-.3-.3.4-.3v-.3l-.2-.1.1-.4.6-.4.3.3Zm-1.3-.4.4-.4.2.4-.2.3-.6.2Zm2.1-.1-.4-.1.3-.3.4-.2Zm-11.4-.9-.2.5-.3-.6.6-.3Zm-.7,0-.5.2-.3.1-.1.2-.2.3,1-.1.2.4-.8.2-.6-.6,1-1,.5-.1Zm2.7-.3-.2.4.1.6-.4-.1-.2-.5.3-.6.4-.2V48Zm8.5-.1-.5-.3.4-.3.1.6.2-.3h.3l.1.3Zm-7.1-.3v-.3l.3.4Zm4.5.7-.3-.1.1-.6.4-.4-.1.8.4.3Zm-1.4-.5-.3.3-.2-.3-.3-.6v-.6l.5.4-.3.4,1.1-.1.1.5Zm-1.3-1.3-.5.4-.6-.5.4-.4.8.1.2.3Zm6,0-.3-.3.1-.3.1.2Zm-7.8.1-.2-.3.2-.4.5.4Zm-3,.3.3.5-.3-.1-.9-.7.3-.5.1-.4.9.2.2.8-.3-.4-.4.1Zm8.8-1.4.6.2.3.4-.1.2-.4.2-.1-.6-.6-.3-.1-.4Zm3,0,.2-.4.1.3.4.2.3.1-.2.3-.3-.2-.1.3-.6.5.2-.8.3-.3Zm-1.4-.5.6.3-.2.5-.7-.4-.3-.1Zm-3,1.5-.9-1.3.8-.3.2.5-.3.1.5.5.6.7.4.4-.6-.3Zm-7.5-2.1-.2.5-.9-.4-.5-.5.8.1Zm6.7-.8v.3l.3.2.4.3-.3.1-.2.2-.3-.3-.3-.5Zm-9.7,4.9-.1-.8-.9-.2.1.8-.4.1-.3.2V48l.3-.2-.5-.5-.1-.6-.3-.4-.1-.3-.3-.2-.2.2-.3.4.2.1.1.3-.6.1.1.3.1.4-.6-.5v-.4l.4-.1v-.9l.6-.9.5.2-.2-.6-1.3-.1v.6l-.1.8-.8.2-.4-.4.4.3.3-.4.4-.8.1-.9.6-.4-.3.4.3.3.4-.1-.2-.2.4-.4h.4l-.3.3-.3.1,1,.4,1.1.4.2.9.3.3-.3.8-.4-.4.3-.4-.1-.2-.3-.4-.9.1-.4.4.1.1.8.1-.1,1,1.1.1.6-1.4.2,1.1.3.6.3-.1.3.3.9.1-.4.3-1.2.1-.2.4-.1.6Zm5.6-2.5-.4.3v.4l.5.1.4.5-.4-.2-1.1-.1.2-.3v-.4l.1-.2.2.3.2-.2v-.3l-.3-.2-.2-.6.9.6.6-.3.6-.7-.5-.4.1-.4-.2-.5.6.1.8.7-.3.4-.3-.1-.2.9Zm-6.4-2.9.2.6-.6-.4Zm-3.9,1-.2-.4-.1.4-.6.3-.4.1.1.3.5.4-.3.4-.4-.5-.2-.7-.6-.3.2.1.6-.5v-.4l.3-.3.1.6-.2.3.5-.1.9-.1.1.3Zm8.6-1.5.2.3-.5.4-.3-.3Zm-5.7-.2-.3.5-.6.3.1-.1.3-.7Zm.6-.1.1-.4h.3l.1.5.1.4-.4-.1Zm-4.3-.5.6.2-.1.3.1.6.5-.3V43l-.6.1-.2-.8-.1-.4-.4.4-.2-.4Zm2.9-2.6-.2.2-.3.3-.3.6.4.1.6-.3V40h.1l-.1-.4Zm4.7,2.9.5-.2.1,1-.9.9-.5-.4-.4.3-.3.6-.4-.3-.2-.4.7-.3h.4l.5-.7-.9-.4-.8.3-.3-.3.7.1.4-.1v-.3h-.8l-.3-.1-.7-.4-.1-.6-.2.9-.6.2-.5.1.1-.8.9-.8,1.1-.3v-.6l-.3-.2.3-.2.8.8v.7l.3-.1.2-.9.3.3.6.4-.8-.1-.1.3v.4l-.5.1-.2.5-.3.1.3.1.3-.3.4.2.5.3Zm-7.9-2.5.6-.4.1-.4.3.3-.4.6-.6.2Zm-1.9-.2.1-.8.2-.1h.3l-.2.6-.1.3.4.1.3.4-.4.1Zm1-1.9.4-.3.3.3-.3.2-.3.2-.3-.2Zm3.3-.4-.3-.3.3-.3.1.3Zm-.4-.4-.3-.2.3.2Zm1.2-.2v-.9l.4-.4-.3.4.4.4.4.1-1.1,1.5-.2-.2Zm-.9,3.7.4-.6.1-.3.3-.8,1.2-1.4,1.4-1.1v-.7l.7-.2-.2.7.2.5-.4-.1-.2.1.3.3.4.6-.3.5h.4l-.2.3-.6-.9-.2.2-.6.1,1,.6-.1.4.1-.3-.3-.1-.1.4-.3.2-.7-.6-.8.3.1.4-.4.9.1.5-.2.1v.1l-.1.1-.1.3-.1.4-.4-.1-.4-.3h-.8l.4-.6-.5-.6.3-.3h.8v-.4l.3.1-.2.4-.3.3Zm2.4-5.3.5-.1-.1,1-.6.4.1-.6.1-.6Zm-5.3-.2-.2.2-.2-.3.1-.2v.1Zm3.9-.4.6-.2.5-.1.3.5-.1.4-.1-.3-.1-.4-.2.4-.3.4-.6-.3.6.1.1-.3Zm2.9-.3.2-.4v.3l.2.1.2.1h-.6Zm-7.3-.6.2.2V34l-.3-.3Zm8.4-.4.8.2.3.6-.4-.1-.5.1-.3-.2Zm-2.1,1.3-.9-1,.4-.3.6.2.4-.2-.1.6-.6.3Zm19-1.8.3-.2v.4l-.3.2Zm-19-.3-.2-.3.6-.1Zm-2.8-.4v1l-.2-.5-.1-.3Zm-.8-.3-.3.1.3-.3Zm6.1-.2-.3.1-.1-.4Zm7.5-.3.2.2.1.5-.4-.4Zm-11-.2.2.3.2.5-.2.1-.4.3.4.2-.1.3-.3-.5.3-.6H141l-.1-.3Zm6,.3.4-.4.1.3-.2-.2-.2.4.4.1.4.5-.5-.1-.5-.3Zm-8.9-.6.1.3.2.5-.3-.1-.2-.4Zm5.2-.1.3-.3h.1l-.3.5-.6-.2L143,30l.3.2Zm15.9-.1.3-.7.4-.1-.7,1.1-.2-.5Zm-16.4-.8-.3.3-.1-.6Zm2.2-.5h.5l.3.3-.6.4-.1-.6-.3.3-.2-.2Zm6.1-.3.2.3-.2.5.2.1-.5-.1-.3-.4Zm-9.6,0,.4.3.4-.1-.4.3-.1.4-.2.4-.1-.4-.3-.4-.1-.4h.4Zm4.5-.7.1.4-.6.1-.2-.3Zm6.9,0,.1.3-.3-.1-.2-.4Zm3.2-.3.8-.1-.5.3.3.3-.3.2-.2-.4-.4.1Zm-8.1.3.3-.4.2.2-.7.5ZM168,51.76l-.3-1.2-1.3-2.3-1.5-1.9-1.1-.9L160.5,44l-5.1-1.3-6.3-.8-2.6-.9-.9-.5-1-1-.1-1.7.2-1.6.7-.9,1.1-.8.9-.4,1.1-.3,4-.1,1.4.5.9.8,2.1,2.2,1.9.6,4.1.1,1.1-.1,1.2.1,1.2-.8.6-1.2-.5-2.4-1-2.3-.8-1-.6-1-.8-.9-4-2.8-3.4-1.2-1.3-.3h-1.3l-1.4-.3-3.5.1-5,1-1.1.4-1,.6-1,.4L139,27l-.9.8-1.1.8-.7,1.1-.8.8-.4,1.1-.6,1-.9,3.6.1,4.2.4,1.8.8,2.2,1.6,2.1,1.8,1.6,2.2,1.3,3.6,1.2,2.3.5,5.1.4,1.1.2,1.3.1,2.3.9.9.8.3,1.6-.4,1.6-1,.9-1,.6-2.3.7-1.8.1-1.9-.1-1.4-.4-.9-.4-1.1-.7-.9-.9-.9-1.3-1.3-.5-4.8-.1-1.3.1-1.3-.1-1.3.6-.4,1.3.1,1.4.2,1.1,1,2.5,1.6,1.9,1.8,1.8,1.1.7,4.5,2.1,1.4.2,1.2.4,2.6.2,1.8.2,2-.1,6.1-1.2,3.3-1.8,2-1.4,1.8-2,1.3-2,.5-1.1.4-1.3.2-1.1.1-3.9Z"/><path class="cls-2" d="M237,66.56h-.4v-.2l.2-.3.2.1Zm-16.7,0-.4-.1v-.3l.3-.3.2.3Zm2.6-.2-.6.3-.4-.6.7-.4.5.4Zm9.2-.4-.1-.4.3.3.1.3Zm-1.8-.4-.3-.2.2-.3.3.2Zm8.6-.5-.3.1.2-.2.4-.3.1.2Zm-14.8.5.1.3h-.3l-.3-.8.6-.4.1.4-.4.3Zm-5.5.2-.3-.4.8-.4-.3-.6.3-.2,1.2.8v.2l-.8-.1Zm16-1.3-.1-.3.3.1.1.2Zm-3.3.1h-.6l.2-.3.6-.2Zm-3.4-.5-.4.3-.1-.2.3-.3.3-.1Zm1,.2-.4.6-.4-.3.6-.6.6-.3.1.3Zm-8.4-.3h-.6l.1-.2.5-.2Zm17,1.1-.8-.6-.6-.8-.4.2-.3-.3.2-.3,1.2.6.8.6Zm-10.7-1.3-.1-.4.4.2.1.3Zm-4-.1-.2-.4.6.1.1.4Zm19.3.4v-.4l-.5-.2-.5.1.3.5-.4.1-.2-.6.6-.3.7-.2.3.5.1.4h-.4Zm-4.6-.7.1.6-.3-.3-.1-.4Zm-12.8.3-.2-.1.2.1v-.3l-.2-.3.4.2Zm13.8-.8.3-.3h.3l-.1.3-.5.2Zm-11.3-.4-.2-.2-.2-.3-.4.4-.8.3-.4-.4.3-.4.7.2.6-.1.4.2Zm2,.7.1-.3.4-.3.4-.4.3-.2-.2.4-.2.5-.6.3Zm-4.7-1.4-.3.4-.5.1.2-.4Zm3.6.5-.3-.1-.1-.5.4.1Zm11.7-.5.1-.3.6.1.5.7-.2.2-.4-.6Zm-7.9.6.1-.5-.3-.1-.3.1.3-.6.6.6Zm3-1-.6.2.2-.1.1-.3.4-.1Zm-5.1-.6.3.2-.3.3Zm-5.4.3-.1-.4.4-.3.1.5Zm-1.3-.7h.6v.4l-.5.3-.5.2-.1-.5Zm-4.8-.1h.6l.1.5-.6-.1Zm21-.2h.4l.1.4-.4-.1Zm-12.6,1.5-.6-.3-.4-.3.5-.6.8-.5.2.3-.7.6ZM222.3,60l.3-.6.4.1-.3.4Zm-1.9-1.4.5-.1-.5-.3Zm1.9-.7.7-.2-.1-.6Zm-3.3-2.2.3.3.4-.2-.2-.1Zm5.5.5.7-.7-.6-.3-.4.6-.6-.3-.1.5.5.1Zm-2,0-.4-.5-.2-.8-.9.4-.2.7H220l.1.6,1.1-.3.9.3Zm-1.2-1.6.1-.3-.4.1-.1.3h.4Zm1-.7-.2.3.4-.2Zm4.5-.1-.5.2.5.2Zm-4.8-2-.4.2.6.1Zm-1.2,0-.4.1-.6-.2-.6.3.5.3,1.1-.1Zm3.2.3.4.1-.1-.4-.4-.1Zm-1.5-.1h.6l-.3-.4Zm-.4-1.3.5-.4.2-.5-.4-.1-.4.2.1.3-.1.2-.1-.6.2-.3-.4-.1-1.4.4.3.6Zm1.9-1.5-.1.3.3.2Zm-2.8,0-.4-.1.1.5Zm4-.4-.1-.3-.5.3.2.2Zm10.9.4-.4-.3.2-.5.4.4Zm-1.3-.7-.3.2-.4.4-.7-.1.6-.1.5-.3.2-.4.3.1Zm2.7.1-.2-.4.5.2.1.3Zm-2.2-.5-.4-.1v-.3l.4.1Zm-10-.5-.6.1-.1.5.7-.1Zm7.6.4.6-.6.3.6-.5.3Zm-7-.5h.4l-.1-.3Zm-6.1-.5-.4.1-.3-.3.5-.1Zm15.8-.2.6-.1.1.7-.6.1Zm-9.4-.4h-.6l.3.4Zm2.3.9-.6-.1-.3-.8-.3-.1-.4.8,1.1.3Zm7.6-1.2-.1-.2.3-.1.2.3Zm-3.6-.3-.3-.1-.3-.1.2.1h.4l.1.1Zm2.4.5-.3-.5-.4-.1-.1-.2.3.1.4-.1.4.4Zm-16.1-1,.4.4.1.6-.6-.4-.3-.6Zm7.6-.4v.4l.4-.3Zm10.2-.1,1.4.1,1.1-.1-.9.5L237,45l-.4.5-.6-.3-.1-.7Zm-3.5-.2v-.4l.3.1.1.4Zm-13-.7-.1.3.5-.1Zm16.7-.5.3.2.2.5.3.1-.4.2-.4-.4Zm4.4.5-.6-.1v-.5l.5.1Zm-1.5-.6.4.7.1.4.6-.1-.3,1.3.9.9-.8.2-.9.4-.4.6h.5l.3.1-.3.1-.3.1.1.2-.4-.1-.3-.5-.1-.4-.4-.3-.4.3-.1.3.1.4-.5-.4-.8.2-.2-.4.2-.4.6.2.7-.1.4-.2.6-.1-.2-.6h-.9l-.1-.4.9-.2.5-.1v.5l.4.6.4-1.1-.6-1.5-.3-.4-.2-.5Zm-4.3,0,.4.1.1-.3.3-.1-.1.3-.4.1-.3.2-.3-.2Zm3.1-.4.1.3-.4.2-.3-.4h.6Zm-19.4,1.4-.5-1,.6-.3v.3l.2.6.3-.6h.9l.7.8.7-.2h.6v.6l-1-.1-.9.8-.9.1.1-.7Zm7.4-.9-.4.3-.8-.3v-.5l.8.1Zm7.9-.1-.8.5-.6-.5.8-.6Zm2.7-1.2v.6l-.3-.4-.1-.5Zm2.7-.3.9.5.6.4.3.3-.4-.2-.8-.1-.9-.2Zm-5,.1.2.3h-.7l-.1-.4Zm-13.9,18.5-.8-.8.7-.3-1.4-.5-.3.4-.6.3-.3-.4.7-.9.5-.2-1-.2.3-.8-.9-.8.5-.8-.4-1v-1l.6-.2.2-1.3.3-.8-.4.3-.1-.8.3-.7-.6-.3.2-.4.6-.1h.4l.6-.3.3.3.2-.7-.7-.4.2-.4.6.3.8-.1,1,.6.3,1.1.6-.4.9-.6-.9-.4-.6-.8h-.9l-.8-.1.2-.4.1-.4-.5-.4-.3-.1.2-.1.3.2h.6l.6.6.7-.7.4-.3-.6-.3.1-.4.5.1.9.3-.1.8-1,.7.8.7.3-.4.8-1.4-.4-1.3-.1.3-.2.1-.3-.4.3-.1,1.5.1,2.4-.7.4.3-.3.1-.8.4.4.7-.4.1-.3.5.8.3,1.3-1,.4-.9.1-.2-.1.2.3.4v.9l1.3-.7,1-1.1.4-.3-.6-.4-.1-.4.3.2.4-.2.6-.8.7.6-.9,1.1-1.1,1.1-.2,1-.4.6-.6.6.8.4-.1.3h-.9l-.1-1-1.2-.5-.3,1.4.3.1.8-.1-.2.9-.6.4-.4.1.1-.3.5-.4-.2-.4-.7.3-.9.1-.3.2.3.1h-1l.4.9h.2l-.2.1v.4l-.6.3-.3-.1.2-.2-.5-.2-.4.6,1,.4-.1.4-.6-.1.1.6,1.3-.5.8-.9-.4-.7.7-.3h.9l.6-.5.6.1.8-.7.6.6.4.2-.1.3-.8-.2-1.4.8-.9.6-.2-.5-.5.1-.1.8-.3.9-.9.5.5.7-.5.6h-.7v.2l.9.6-.3,1.1.3.1-.1.8-.9-.1-.8.5-.9-.1-.5.2v.6l.5.3.2-.7,1.5.1.2.7-.6.1.1.6h-1l-.9-.1-.1.5.6.2.3.3.3.3,1-.7.9-.9h.3l.5.4.3,1.4.3.8.3.2-.3.2-.2-.3-.5-.3.1-1.1-.2-.6-1-.1-.6.9-1.4.5-1.1-.1.2-.8-1.4-.4-.6,1-.1,1.3.5.8-.8-.1Zm1.1-17.3-.4-.6-.5-.3-.5-.4-.1-.1.1.1.6-.1.7.2.1.8.5-.1.1-.4.2-.3.5.4-.3.9Zm-2.4-.6.1-.7.5-.3h.1l-.1.3v.7l-.8.3Zm.2-1.9-.1.3-.1-.2-.1-.3Zm3-.4-.2.5-.7.3.2-.5Zm-2.2.3v-.8h.4l.1.8Zm-1.4-1-.1.2-.2.1.1.3-.1.3-.1-.4.2-.4h.2Zm7.5.4.4-.6.4.4-.4.4Zm-2.5.2-.3.1-.3-.1-.2-.3-.2-.3.3-.1.1.4.3.2Zm5.2,1.2.9.6-.3.4.3.1.5-.3.3.5h-.4l-.4.1.2.7.5.4h-.9l-.5-1.2-.9.4-.7.1h-.7v-.3h.5l.4-.4.3-.3-.8-.3-.9-.4-.4-.4h-.7v.6l.3.2.1.3h.4v.3l-.8.1-.6-.6h-.4l.1-.4.4-.4.3.1.4-.2.2-.3-.6-1.1-.1-1,.4-.1h.6v.2l-.4.3.3.9.3.8.7.3.2-.4.5.1v.8Zm-7.6-4.2h.4l-.1.3h-.4v-.3Zm-3.2-.2.3.4-.1.3-.3-.1Zm3.9-.2.2-.8.6.7Zm1.8.3,1.1.2.9-.5-.3-.5-.3.3-.2-.3.4-.5.6-.3.3.9-.4,1.1.3.2-.8.6-.9-.6h-.7Zm-3.8-1.5.6-.2.1-.3.4-.3.1.5-.6.3-.5.3h-.4Zm.3-1.5.2.6-.8.1-.1-.4Zm5.1.2-.4-.1-.1-.4.3.1Zm1.9-.3-.1-.3.3.1.1.3Zm-4.5-.5V33l.3.1.1.4Zm-4.6-.2.2-.1.6.6-.6.4.3-.4Zm14.8-.9-.6.4-.5-.4.7-.1Zm-7.8,0-.3-.1.3-.1h.3Zm11.5.5-.4-.2-.1-.5.4.2Zm-1.4-1.3.2.3-.1.3-.4-.4Zm-6.4,1.8h-1.3l-.9-.3-.2-.2-.4.2v-.4l.3.1.6-.4v-.4l.2-.9.7.4-.3.6-.3.5.6.4.9-.2v.6Zm-4.6-2.2-.3.4-.2-.5Zm5.6-.6-.6.7.1.6.1.3.4-.3.3-.6-.1.2.1.4-.5.5-.3-.1-.4-.4-.6-.4-.3-.6.1-.5.4.2.5.1Zm5.9-.4.6.1-.3.4-.4-.1Zm-16.8.2-.1.3-.1-.2-.1-.3Zm5.3.2.4-.3.4-.1-.3.4ZM235,30l-.4-.1.3-.5.5.2Zm-2.6-.9.3.4h-.4l-.3-.4Zm-1.3-.7.4-.1-.2.3-.3.1Zm-4,.1.4-.3h.3l-.1.2-.6.1v.4l1.1-.4,1.1-.5.1.3-1.1.7-.4,1.2h-.2l-.1-.8h-.9l-.3-.6Zm-6.3-1.1.1.3-.4.1-.1-.4Zm13.8-.1.6-.1.3.3-.3.2-.4-.3-.4.1Zm-9.9.1.3.1.2.2.4.1.1-.4.3-.3.2.5-.3.6-.4-.2-.4-.4-.6-.1v-.1Zm4.5-.3.2.2v.2l-.4-.1Zm-2.2,0h.2l.3-.4.4.1-.4.4h-.9Zm-8.5-.3.4-.1-.1.5-.4.2v-.6Zm3.4.1.3-.3.3-.1.3.1.2-.2.6.3.2.6-.8-.1-.6-.5-.1.4-.3.2v-.4Zm8.5-1.6v.4l.1.3-.2.2.1-.2-.3-.6ZM245,60.16l-.8-1.3-1.9-.6-8.3-.1-1.2.2-1.4-.1-1.4.1-1.3-.8-.6-1.9.1-3.1.6-1.3,1.1-.7h2.4l1.3-.1,3.3.2,1.7-.1,1.3.1,1.1-.1,1.3-.7.6-1.2.1-5-.1-1.3-.6-1.2-1.1-.7-2.5-.1-1.3.1h-1.1l-1.4-.1-5,.1-1.1-.7-.8-1.1-.1-1.9.6-1.8,1.9-.6,12-.1,1.3-.7.7-1.1-.1-2.6-.2-1.2.1-1.4.2-1.2-.6-1.3-1.3-.6-5-.1-1.1.1-1.3-.2-2.8.1L231,24l-2.4.1-1.1-.1-8.2.2-1.8.4-.6,1.4.1,2.5-.3,1.8.3,3.2-.1,1.3.1,1.1v11.2l-.2,1.3.2,2.4-.1,2.5.2,1.3L217,56l.1,1.2-.2,1.1.1,1.4V61l.1,2.4-.1,1.3-.3,1.3.8,1.2,1.2.7,14.2-.1,1.1.2,3.8-.2,3.8.3,1.2-.1,1.3-.6.6-1.2.1-1.2-.1-3.9Z"/><path class="cls-2" d="M288.6,66.76l.3-.4.1.6Zm6.8-.7H295l-.4.3-.1.3-.3-.1.2-.3.1-.4.6-.4.3.3v.3Zm-9.4-.5-.1-.6.6.1Zm1.4.6-.4-.1.3-.6-.3-.6.4-.1.3-.4.1.8Zm-2.7-1.1-.3-.4.1-.4.3.4Zm2-.9-.3-.1.4-.1.1-.5.6.3-.3.2-.3.2Zm4.1-.4.3.1.3-.3.1-.4-.6-.1v.7Zm.6-.5.3.2.4-.3-.3-.3Zm-.1-.2.2-.6h-.4ZM268.2,63l-.8-.2-.9.2-.5.1.3-.4-.2-.4-.3-.4.4.2.6.4h.9l.4.4.3-.2.2.1Zm-4.2.3-.5.4-.3-.6.3-.9-.4-.7.3-.1.6.2.1.8-.3.5Zm22-2.5-.3,1.1.8-.1.5-.4.1.4h.3l-.3-.8Zm-24.1.6-.4.2-.1-.5-.3-.1.3-.3.4-.2v.9Zm29.7-.3.3-.3-.4-.2-.3.2Zm-8-.3.4.7.4-.4-.5-.6Zm-18.1-.4h.4l.2.6h-.6Zm23.6,0,.8.7.2-.3-.8-.6Zm-3.7-1v1.1l.2.3.3-1.1Zm5.8.9-.4-.7-.3-.6v.8l.4.6Zm-26.7-.2-.3-.3.2-.9v.3l.3.5Zm4.5-1v-.6l.6.1.1.5Zm18.6-.7.6.4.1-.6-.4-.1Zm-25.1,0,.1-.4h.4l-.2.3Zm2.7-.5-.1.4-.4-.1.2-.2.1-.3.3-.2Zm20.8.5.3-.3.1-.7-.3-.8-.4.2.2.7Zm2.1-1.6-.4-.8-.4.4.4.4Zm-4.7.1.1-.4.2-.5.4.4.1.7-.1.5-.5-.2-.3.6-.5-.4ZM267,55.26l.1.3.3.1-.4-.1-.3-.2Zm-4.9-.1.9.1.4.4-.4.1h-.8v-.6Zm2.7-.4.3.6-.4.3-.3-.6Zm4.8-.1-.3.1.1-.5.3-.1Zm10.1.9-.3-.2.3-.3-.5.1.1-.5.3-.2-.1-.4.5.1-.3.7.1.4Zm-17.8-1.1-.3-.3.3-.3h.4l.1.3Zm15.4-.3.2-.4.3.4Zm4.4-.5-.1.3-.4.1.1-.4Zm4.8.3-.6.2.1-.6Zm-13-.7.3-.1.2.4Zm-6.7,0,.4-.3.1.4v.4l-.3-.1Zm26.8,13.8h-.9L292,67l-.2-1.1-.1-1.2h-.5l-.3.7.3.4.4.2-.3.4h-.6l-.3.2-.5.3-.2-.2.6-.2.3-.4.1-1.3-.4-.1V66l-1.1-.6.7-.8v-.9l-.6.4-.3-.3.2-.6.6.1.1-.3.5.1-.1-.6-.1-.5-.4.4-.4-1.1-.9-.8-.4.4.7.8.1.9-.6.2-.1.5-.3-.1-.9-.3-.1-.6-.3.8-1.1.1-.4-.9-.4-.1.2.5-.1.4-.1-.3.2-.3-1.2-.6-.8-1.1-.8-.2.1-1.3-.6-.6.3-1-.9-.3-.3-.1v.6l.6.9.3.6-.3.3-.4-.8-.7-1,.1-.8.1.3.4-.6,1.1-.7-.6-.6-.1-.3-.3-.1-.1-.3h.2l.3.3.3.1.4.3.3.2v.5l.2.8.3-.5.1.4-.3.5-.1.6.3.6-.3.7.4.3.6.4,1,.2.1-.6.5-.4-.3-.5-.4.1.1-.4.9-.4-.4-.9.4-1-1.6-.3-.2-1.3h.4l.1.7.8.2-.6-.6.5-1.1.6-.4-.3-.1.1-.5.3.3h.4l.1.6-.5.2-.4.6.3.9.6.1.4.2-.2.3.4.5.9-.6.2-.6-.2-.5V54l.3.4.3-.4.3-.4.3-.1.1,1.1.5,1.1-.4.6-.2.6.4.2.8-.3.5-.1-.1.5.3.3.6.9.6.6.9,1.6v.6l.3,1-.2.6-.1.4.4-.1-.1.6.4.3.2-.6.6.1.1,1.7Zm-13.8-14.8-.1-.3.5.1.3.4-.1.3-.3.3-.3-.1.4-.3ZM264.2,52l.4-.1.2.4-.4-.1Zm23.9-.2-.2.9-.8.2.1-.9Zm-4.1,0,.4-.2-.1.4-.1.6-.3.4-.3-.4Zm-9.2.6-.3-.5.2-.6V51l-.4-.1-.1-.2h.2l.3.2.2.5-.2.6ZM262.3,51l-.3.3-.1-.3.2-.2Zm21.9-1.2.8.1.1.7-.6-.3Zm-5.6.6-.1-.3.4-.3Zm4.2,1.2-.3-.4.6-.3-.1-1.2.5-.1-.1,1.6-.2.6Zm2.6-2.4.1-.4.3-.2-.1.3Zm-23.4-.7-.1-.5.3.1.3.4Zm18.2-.4-.4.1-.2-.4.1-.4.2-.4.3.1-.2.5Zm9.7-.7,1.1-.6.8-.8-.5.9-.9.6-.2.8-.5-.1Zm-1.3.9-1.1.3.2.6-.6.5-.2.3.9.3.2-1.1.8.1.3.7-.1-.3-.5.4.5.8-.4.4-.8-.6-.6.4v-.3l-.6-.1-.4.8-.6.6-.4-.6.5-.4.3.5.3-1.1-.5-.8.5-.1.8-.3.1-.4-.6-.1-.1-.6.4-.2.3.4.4-.1-.1-.5-.5-.6-1.1.2-.3.3-.3.7-.4-.2.3-.6.6-.6.1-.5-.4-.5.2-.2.5.1-.1.7.9.3.6.6.3.2-.2.3.2.1h.6l-.1-.6h.6l.3.3Zm-4.4-2.9.3.4-.8.5-.1-.5Zm2.2-1-.1.1-.2.2Zm-22.3.7-.3-.5.1-.4.3-.2-.3.5.1.3v.3Zm23.9-.8-.4.3.6.4.9-.1.3.7-.9.1-.9-.5-.3-.1-.3.6-.1.3-.1-.3.2-.9.8-.5Zm4-.7V44l-.2.3.2.3h-.3l-.1-.3h-.3l-.4-.6Zm-28.4-.5-.3.3-.3-.1.1-.3Zm23-.2.2.2-.3.5-.4-.3Zm-24.8-.4v.4l-.2-.1-.1-.5Zm25.1-1.4h.6l-.5.3-.4.3-.2.4-.1-.4Zm5.7-.5.3.3-.5.1-.1-.4Zm-30.3-1-.8-.7.3-.4.3.4v.4l.4-.4.4.2Zm23.4-1-.2.3-.4-.3v-.5l.2-.4h.5l-.1.3-.3.3Zm-17.5-1.1-.1.2-.3-.1Zm-2.5-.3.6-.1v.3l-.1.4-.4.1v-.7Zm19-.3.1-.7.6.1-.1.6Zm-21.4.8-.4-.1-.5.2-.6-.6-.6-.6.1-.3.1-.2.6-.1.1.9.2.3.3-.6.7.2.3.6Zm1.1-1.2-.4-.3.2-.3.5.1.4.3.4-.1.1.5-.6.3Zm-1.3-.8.1-.3h.3Zm25,.2.1-.6.6.1-.1.3.3.1.4-.1-.4.2-.4.1-.6.3Zm-2.6-.7-.6.3-.8-.4.1-.5.7.3.7.1Zm3.7-.8.4-.1-.1.4-.5-.1Zm-13.4,10.9-1.3-.2h-1.4l-1.1-.6-.6-1.3-.2-7,.8-1.3,1.3-.6,1-.1,3.5.1,2.9.4,1.9,1.2.6.9.4,1,.1,1.8-.2,1.7-.5,1.3-.7,1.1-.8.8-.9.4ZM290.4,34l.1.3h-.4l-.1-.4Zm-25,.2.1-.4.5-.1-.2.4Zm-2.6-.1-.5-.1-.1-.6.4.2Zm23.2-.8v.8h-.3l-.1-.5.2-.7.3.1Zm-6-1,.4.1.1.3.9-.3v.5l-.5.5-.6.3L280,33l-.2-.3Zm-2.1.1-.1.3-.2-.5Zm8.7-.2h.5v.5l-.5.1Zm-12-.6-.3.4-.1-.5Zm-6.8.2-.4.4v-.3l.3-.4h.4Zm.9.4.1-.8.6.6-.3,1.1-.4-.2.3-.3.3-.2Zm4.6-.1v.7l-.3.3-.2-.1v-.5h.5l-.1-.3-.4-.4-.4.1v-.4l.4.1.3-.3v.3ZM265.2,31h.6l-.1.7-.3-.1Zm11.5.4.4-.4.6-.1-.3.4-.2.7-.4.1-.1-.3Zm7.3.6.3-.8.4-.4.4.2-.1.6-.6-.2-.1.3.6.5-.4.6h-.6Zm-23-.5.1-.6.5-.2-.1.3-.4.3.2.2.1.6h-.3v-.6Zm18.6-.5-.3.4-.3-.3.3-.6.6-.3.1.4-.1.3h-.3Zm-16.9-.2-.1.6-.3.1-.1-.9-.5-.4.1-.4.6.2.3.6Zm25.7-1.2.3.4-.3.1Zm-4.6.1-.3.2-.2-.1.2-.3.3.2.3.5-.3,1-.5.6-.3-.3.9-1.3Zm.2-.5.5.1.3.8-.5-.1Zm-22.7.3H261V29h.3Zm17.2-.7-.1.6.6-.1.2.4h-.8l-.4-.5-.1-.4Zm-5.6,0,.2.5-.1.4-.3-.1.3-.3-.3-.2-.2.5-.2.8-.3-.8-.4.5-.3-.6-.1-.6.8.1.5.1Zm8.3,2v.5l-.1.3-.2-.2v-.7l.1-.8-.5-.4-.2-.8.6-.4-.3.7.4.5.7.7-.3.2Zm-6.1-3.4-.6,1.1.7.5v-.4l.1.4-.4.7-.6-.7-.7-.7-.1-.4.7-.4Zm1.9.1.1.4-.3-.1-.1-.5Zm4.7-.6.3.5.3.5.6.4.5-.6.6-.8,1.3.2.4-.4.1.4.2.4-.4.6-.6-.2h-.4l-.7.2-1.1.7-.9.2-.1.3.1-.4.2-.6-.1-.4-.4-.4Zm-13,.2.4.1-.1-.6Zm-7.7.3.3.1.2.4.3-.1-.2-.6-.1-1,.8.1.1.8-.4,1.2-1.1-.2Zm17.1-1.1v-.4l.4.3.1,1-.3-.1-.1-.4-.2-.2Zm-4.6-.5.3-.1-.1.4-.3.1Zm6.5-.2,1,.6.1.7-.8.3-.4-.7-.3.1v.8l.3.8.2.3-.4-.1-.4-.3-.2.3-.2-.8.3-1.1-.3-.6-.1-.3Zm-4.4-.1v.4l-.5-.3ZM271.2,31l-.6.6.1.9-.1.4-.1-.4-.4-1-.3-.9-.4.2-.3.3-.4-1.4.1-1.4-.5-.5.1-.5-.3-.4.3-.3.2-.4-.1-.8h.6l.2.4.3.2.5.1.1-.6.3.2.1.7.3.1-.4.4.4.4.5-.6.7.3.2.7-.6-.4-.4.9-.6.4-.6.1-.1-.3.3-.4-.4.2-.2.9-.4.6.8.4.4.8.3-.1-.1-.6.6.4.4.5Zm-8.1-4.6-.2-.3.8-.9,1.1.1.2.8.7-.6-.2-.4-.3.2.2-.3.8.6.6.4.6-.2.2-.7.4.1-.1.7-.4.4-.2.3-.1,1,.7.8.2,1.3-.4.4.5-.1.2.4-.6.3-.4-.6-.4-.4-.2-1.3-.1-1.4-.3.3.2.6-1.3.6.4.9.6.3.4.5v.4l-.2.3-.3.1.1-.8-.2-.4-.4-.4-.4.1-.2.2-.1.4-.6.7-.3.9-.6-.9-.8-1.4.3-.9.3.1.3.9.2,1.1.4-.8.9-.1-.1-.8.4-1.1.6-.9-.3-.3.4-.2-.4-.1-1.4.5-.3-.7-.3.8v.6l.3.4-.4-.1h-.4l-.6-.2.6-.8Zm33.2,38.5-2-3.1-.6-1.1-.8-1.1-.6-1.1-.8-1-1.9-3.3-.2-1.5.7-1.3,1.8-1.7.8-1.1.4-1.2.7-1.1.4-1.1.7-2.4.1-5-.3-1.2-.2-1.2-.3-1.3-1.7-3.4-.9-.9-.6-.9-3.1-2.4-2.2-1.1-5.2-1.1-1.6-.1-1.8.1-1.4-.1-1.3.1-1.4-.1-1.1.1-3.8-.1-1.2.2-2.6-.3-1.2.2-1.4-.1-1.2.6-.5,1.3-.2,17.6.2,1.8v3.1l-.1,1.3-.1,2.4.2,1.4-.2,2.6.3,3.6-.1,1.3.2,4.9.4,1.4,1.3.6,1.2.1,2.6-.2,1.3.1h1.9l1.9-.6.4-1.2.1-1.3-.3-1.3.2-2.7-.1-3.9.6-1.3,1.3-.6h1.1l1.1-.1,1.6.5,1,1.1,1.6,2.2.4,1.2,1.8,3.1.8,1.2.6,1.1.8,1,1.3,1.1,1.6.4,2.3.1,1.4-.1,1.3.1h2.5l1.4-.1,1.3-.3.3-1.3Z"/><path class="cls-2" d="M386.9,43.56a2.65,2.65,0,0,1-.5,1.7,1.38,1.38,0,0,1-1.1.6c-1.1,0-1.6-1.2-1.7-3.5v-2.7a5,5,0,0,1,.6-2.3,1.17,1.17,0,0,1,1.1-.7,1.43,1.43,0,0,1,1.2.6,4,4,0,0,1,.5,1.9v1.2c0,.9-.1,2-.1,3.2M385.6,48a3.14,3.14,0,0,0,2.1-.7,5.52,5.52,0,0,0,1.4-2.1c.1-.3.2-.9.4-1.7a19.09,19.09,0,0,0,.2-2v-1a9.46,9.46,0,0,0-.8-3.7,3.63,3.63,0,0,0-1.5-1.7,5.19,5.19,0,0,0-2.4-.4,3.74,3.74,0,0,0-3.4,2.5,10.24,10.24,0,0,0-.7,4.2,15.86,15.86,0,0,0,.8,4.7,2.59,2.59,0,0,0,1.4,1.5,6,6,0,0,0,2.5.4m-8.7-5.3a5.84,5.84,0,0,1-.6,2.3c-.3.5-.6.8-1,.8s-.6-.2-.9-.7a5.93,5.93,0,0,1-.7-1.6v-1.4c.1-2.2.1-3.5.1-3.8a4.44,4.44,0,0,1,.8-1.1,1.22,1.22,0,0,1,.9-.4c.9,0,1.4.9,1.6,2.7,0,.3.1.7.1,1.1a15.17,15.17,0,0,0-.3,2.1m2-5.8a5.65,5.65,0,0,0-.9-1.4,1.56,1.56,0,0,0-.8-.6,3.09,3.09,0,0,0-3.8,1.4c-.3-.9-.4-1.4-.6-1.4h-.9a1.45,1.45,0,0,0-.7.2c-.2.1-.2.4-.2.8v1.8a9.89,9.89,0,0,0,.1,1.5v12.4a1.13,1.13,0,0,0,1.2.7h.6c.2,0,.3-.1.5-.2a.6.6,0,0,0,.3-.6v-4.9a2.75,2.75,0,0,0,1.9,1.3,3.94,3.94,0,0,0,2-.5,3.55,3.55,0,0,0,1.3-1.9,14,14,0,0,0,.6-4.3c0-.5-.1-1.3-.2-2.3a4.64,4.64,0,0,0-.4-2m-12.5,10.9h1.1c.8,0,1.2-.2,1.2-.7V42c0-1.7.1-3.4.1-5.2a3.81,3.81,0,0,0-.1-1.3c-.1-.2-.4-.3-1-.3a10.4,10.4,0,0,0-1.5.2v1a10.28,10.28,0,0,0,.1,1.7v2.5c-.1,2-.1,3.3-.1,4v3c-.1.2,0,.2.2.2m1-14.6a1.61,1.61,0,0,0,1.1-.5,2.2,2.2,0,0,0,.5-1.2,2,2,0,0,0-.1-.7,1,1,0,0,0-.4-.5l-.4-.2a1.45,1.45,0,0,0-.7-.2,2.1,2.1,0,0,0-1.1.4,1.38,1.38,0,0,0-.5.9,1.57,1.57,0,0,0,.3,1.4,1.29,1.29,0,0,0,1.3.6m-3.8,4.9v-3c0-.1-.1-.2-.3-.2h-1.1a2,2,0,0,0-.9.2c-.2.1-.3.4-.3.8V43a6.55,6.55,0,0,1-.7,2c-.3.5-.6.8-1,.8a1.05,1.05,0,0,1-1-.8,5.41,5.41,0,0,1-.3-1.9v-1.3c0-4.1,0-6.5-.1-7.1l-.7-.1a4.64,4.64,0,0,0-1.4.2c-.3.1-.4.5-.4.9v2.2c0,.6,0,1.5-.1,2.8v4c0,.5.1,1,.1,1.3s.2.7.4,1.2a2.36,2.36,0,0,0,.9.8,3.19,3.19,0,0,0,1.4.3,3,3,0,0,0,1.5-.5,3.33,3.33,0,0,0,1.2-1.4,5.29,5.29,0,0,0,.7,1.5,8.66,8.66,0,0,0,1.8-.1V42a15.53,15.53,0,0,0,.3-3.9M349,45.76a1.4,1.4,0,0,1-1.1-.8,4.62,4.62,0,0,1-.5-2.3,15.56,15.56,0,0,1-.1-2,2.51,2.51,0,0,1,.1-1,5.25,5.25,0,0,1,.6-2.1,1.4,1.4,0,0,1,1.1-.8,1,1,0,0,1,.8.4,3,3,0,0,1,.7,1.1c0,.8,0,2.4.1,5.1a9.76,9.76,0,0,1-.7,1.7c-.4.4-.7.7-1,.7m4.3.6c0-1.1,0-2.5-.1-4.2v-2.9c0-.4.1-1,.1-1.8V36a1.29,1.29,0,0,0-.2-.8,1.42,1.42,0,0,0-.6-.2h-.9c-.1,0-.1.1-.2.4a6.89,6.89,0,0,0-.3.8,2.68,2.68,0,0,0-2.3-1.5,3.73,3.73,0,0,0-1.2.2,2.76,2.76,0,0,0-.9.7,4.89,4.89,0,0,0-.9,1.5,9.3,9.3,0,0,0-.6,2.1c-.1,1-.2,1.7-.2,2.2a18.36,18.36,0,0,0,.2,2.6,5.28,5.28,0,0,0,.4,1.7,3.17,3.17,0,0,0,1.2,1.8,3.94,3.94,0,0,0,2,.5c.6,0,1.3-.5,2-1.4l-.1,5c.1.2.1.4.3.5a.76.76,0,0,0,.5.2h.7a1.13,1.13,0,0,0,1.2-.7v-5.2Zm-13.8-10c.9,0,1.4.9,1.6,2.6v.5c0,.5-.1.8-.3.8h-3v-.1a7,7,0,0,1,.6-2.9c.4-.6.7-.9,1.1-.9m2.8,7.3a.76.76,0,0,0-.4-.2.52.52,0,0,0-.4.2l-.4.6a6.23,6.23,0,0,1-.9,1.2.91.91,0,0,1-.8.4,1.4,1.4,0,0,1-1.1-.8,6.06,6.06,0,0,1-.5-2.3v-.5c.6,0,1,.1,1.3.1a13.58,13.58,0,0,0,2.9-.3l1.1-.1a3.23,3.23,0,0,0,.3-1.6,13.55,13.55,0,0,0-.2-2,6,6,0,0,0-1.4-2.9,3.43,3.43,0,0,0-2.5-.8,2.93,2.93,0,0,0-2,1,5.11,5.11,0,0,0-1.5,2.1,11.27,11.27,0,0,0-.5,3.2,14.87,14.87,0,0,0,.7,4.9,3,3,0,0,0,1.4,1.8,4.29,4.29,0,0,0,2.4.5,2.81,2.81,0,0,0,1.9-.7,7,7,0,0,0,1.4-2.1.6.6,0,0,0,.1-.4c0-.2,0-.3-.1-.4s-.2-.3-.4-.4a2.74,2.74,0,0,0-.4-.5m-16.6-7.3c.9,0,1.4.9,1.6,2.6v.5c0,.5-.1.8-.3.8h-3v-.1a7,7,0,0,1,.6-2.9c.4-.7.7-.9,1.1-.9m2.8,7.3a.76.76,0,0,0-.4-.2.52.52,0,0,0-.4.2l-.4.6a6.23,6.23,0,0,1-.9,1.2.91.91,0,0,1-.8.4,1.4,1.4,0,0,1-1.1-.8,6.06,6.06,0,0,1-.5-2.3v-.5c.6,0,1,.1,1.3.1a13.58,13.58,0,0,0,2.9-.3l1.1-.1a3.23,3.23,0,0,0,.3-1.6,13.55,13.55,0,0,0-.2-2,6,6,0,0,0-1.4-2.9,3.43,3.43,0,0,0-2.5-.8,2.93,2.93,0,0,0-2,1,5.11,5.11,0,0,0-1.5,2.1,11.27,11.27,0,0,0-.5,3.2,14.87,14.87,0,0,0,.7,4.9,3,3,0,0,0,1.4,1.8,4.29,4.29,0,0,0,2.4.5,2.81,2.81,0,0,0,1.9-.7,7,7,0,0,0,1.4-2.1.6.6,0,0,0,.1-.4c0-.2,0-.3-.1-.4s-.2-.3-.4-.4a2.74,2.74,0,0,0-.4-.5m-13,2.1a1.4,1.4,0,0,1-1.1-.8,4.62,4.62,0,0,1-.5-2.3,15.56,15.56,0,0,1-.1-2,2.51,2.51,0,0,1,.1-1,5.25,5.25,0,0,1,.6-2.1,1.4,1.4,0,0,1,1.1-.8,1.38,1.38,0,0,1,.9.5,3.46,3.46,0,0,1,.7,1.2v2c-.1,2-.1,3.1-.1,3.3a5.23,5.23,0,0,1-.7,1.5c-.4.3-.6.5-.9.5m4.2-15.5a1.59,1.59,0,0,0-1.6-.5c-.3,0-.6,0-.7.1a.7.7,0,0,0-.4.5v5.3a2.33,2.33,0,0,0-2-1,3.73,3.73,0,0,0-1.2.2,2.76,2.76,0,0,0-.9.7,4.89,4.89,0,0,0-.9,1.5,9.3,9.3,0,0,0-.6,2.1c-.1,1-.2,1.7-.2,2.2a18.36,18.36,0,0,0,.2,2.6,5.28,5.28,0,0,0,.4,1.7,3.17,3.17,0,0,0,1.2,1.8,3.94,3.94,0,0,0,2,.5c.7,0,1.5-.6,2.3-1.7a3,3,0,0,0,.4,1c.2.3.2.5.3.5h.9a.85.85,0,0,0,.6-.2,1.29,1.29,0,0,0,.2-.8v-6.4c0-1.7.1-3.1.1-4.2v-4.3a12.65,12.65,0,0,1-.1-1.6"/></svg>