<?xml version="1.0" encoding="utf-8"?>
<!-- Generator: Adobe Illustrator 24.2.3, SVG Export Plug-In . SVG Version: 6.00 Build 0)  -->
<svg version="1.1" id="Capa_1" xmlns="http://www.w3.org/2000/svg" xmlns:xlink="http://www.w3.org/1999/xlink" x="0px" y="0px"
	 viewBox="0 0 141.4 111.4" style="enable-background:new 0 0 141.4 111.4;" xml:space="preserve">
<style type="text/css">
	.st0{fill:none;stroke:#1D1D1B;stroke-linecap:round;stroke-dasharray:2.904,1.904;}
	.st1{fill:none;stroke:#1D1D1B;stroke-linecap:round;stroke-dasharray:2.946,1.946;}
	.st2{fill:none;stroke:#1D1D1B;stroke-linecap:round;stroke-dasharray:2.953,1.953;}
	.st3{fill:none;stroke:#1D1D1B;stroke-linecap:round;stroke-dasharray:2.938,1.938;}
	.st4{fill:none;stroke:#1D1D1B;stroke-linecap:round;}
	.st5{clip-path:url(#SVGID_2_);}
</style>
<g>
	<path class="st0" d="M44.3,70.6c4.9-7.3,19.5-26.3,41.5-28.4"/>
	<path class="st1" d="M91.7,42c24.8,0.6,37.6,18.3,28.6,26.6"/>
	<path class="st2" d="M115,71.1c-12.5,0.7-27.8-32.3-6.4-52.1"/>
	<path class="st3" d="M113.1,15.2c9-6.8,17.8-10.3,25.4-12"/>
	<path class="st4" d="M139.4,3c0.5-0.1,1-0.2,1.4-0.3 M109.3,18.3c0.4-0.3,0.7-0.6,1.1-1c0.4-0.3,0.8-0.6,1.1-0.9 M119.5,69.2
		c-0.4,0.3-0.8,0.6-1.2,0.8c-0.4,0.3-0.9,0.5-1.3,0.6 M86.8,42.1c0.5,0,1-0.1,1.4-0.1c0.5,0,1,0,1.5,0 M42.6,73.4
		c0,0,0.3-0.5,0.7-1.2"/>
</g>
<g>
	<defs>
		<rect id="SVGID_1_" x="6.7" y="58.2" width="58.1" height="46.1"/>
	</defs>
	<clipPath id="SVGID_2_">
		<use xlink:href="#SVGID_1_"  style="overflow:visible;"/>
	</clipPath>
	<g class="st5">
		<defs>
			<rect id="SVGID_3_" x="6.7" y="58.2" width="58.1" height="46.1"/>
		</defs>
		<clipPath id="SVGID_4_">
			<use xlink:href="#SVGID_3_"  style="overflow:visible;"/>
		</clipPath>
		<g style="clip-path:url(#SVGID_4_);">
			
				<image style="overflow:visible;" width="242" height="192" xlink:href="E7183DCA6C4517AA.png"  transform="matrix(0.24 0 0 0.24 6.6517 58.1595)">
			</image>
		</g>
	</g>
</g>
</svg>
