<?xml version="1.0" encoding="utf-8"?>
<!-- Generator: Adobe Illustrator 25.4.1, SVG Export Plug-In . SVG Version: 6.00 Build 0)  -->
<svg version="1.1" id="Capa_1" xmlns="http://www.w3.org/2000/svg" xmlns:xlink="http://www.w3.org/1999/xlink" x="0px" y="0px"
	 viewBox="0 0 466.7 482.8" style="enable-background:new 0 0 466.7 482.8;" xml:space="preserve">
<style type="text/css">
	.st0{fill:none;stroke:#C7E8F0;stroke-width:2;stroke-linecap:round;stroke-linejoin:round;}
	.st1{fill:none;stroke:#C7E8F0;stroke-width:2;stroke-linecap:round;stroke-linejoin:round;stroke-dasharray:5.9959,4.9966;}
	.st2{fill:#C7E8F0;}
</style>
<g id="Capa_2_00000102541553840838895490000007648914504371732911_">
	<g>
		<g>
			<path class="st0" d="M196.1,1.4c0,0,0.4,0.8,2.1,2.1"/>
			<path class="st1" d="M202.5,5.9c11.3,5.2,41.8,13.3,123.4,14.2c143.6,1.7,128.4,57.8,128.4,57.8s8.3,38.9-209.8,29.7
				c-229.3-9.7-219.6,30-220,37.6c-0.4,6.5-19.3,51.9,223,48.9C350.2,192.9,397,196,400.8,234c1.7,17-8.1,40.6-58.6,35.3
				C166,251.1,33.4,273.6,30.5,306.6c-2.2,26.4,23.8,36.6,72.4,51.6c26.7,8.2,35.8,25.3,38.8,33.9"/>
			<path class="st0" d="M142.5,394.4c0.5,1.8,0.6,2.9,0.6,2.9"/>
		</g>
	</g>
	<g>
		<path class="st2" d="M57.6,341.9L46,346.2c-0.5,0.2-1.1-0.1-1.3-0.6s0.1-1.1,0.6-1.3l9.9-3.7l-2.4-9.6c-0.1-0.5,0.2-1.1,0.7-1.2
			s1.1,0.2,1.2,0.7L57.6,341.9L57.6,341.9z"/>
	</g>
	<g>
		<path class="st2" d="M81.7,194.3c-0.3,0-0.5-0.1-0.7-0.3c-0.4-0.4-0.4-1,0-1.4l7-7l-6.2-7.5c-0.4-0.4-0.3-1.1,0.1-1.4
			c0.4-0.4,1.1-0.3,1.4,0.1l7.4,8.9l-8.2,8.3C82.3,194.2,82,194.3,81.7,194.3L81.7,194.3z"/>
	</g>
	<g>
		<path class="st2" d="M405.2,112.4c-0.3,0-0.5-0.1-0.7-0.3l-8.2-8.3l7.4-8.9c0.4-0.4,1-0.5,1.4-0.1s0.5,1,0.1,1.4l-6.2,7.5l7,7
			c0.4,0.4,0.4,1,0,1.4C405.7,112.3,405.5,112.4,405.2,112.4L405.2,112.4z"/>
	</g>
	<g>
		<path class="st2" d="M351.1,279.2c-0.2-0.1-0.3-0.2-0.4-0.3l-6.9-9.4l8.7-7.7c0.4-0.4,1-0.3,1.4,0.1s0.3,1-0.1,1.4l-7.3,6.5l5.8,8
			c0.3,0.4,0.2,1.1-0.2,1.4C351.8,279.3,351.5,279.3,351.1,279.2L351.1,279.2z"/>
	</g>
</g>
</svg>
