<svg id="Capa_1" data-name="Capa 1" xmlns="http://www.w3.org/2000/svg" viewBox="0 0 130.5 56.73"><defs><style>.cls-1{fill:#fff;}.cls-2{fill:#1d1d1b;}</style></defs><path class="cls-1" d="M53.73.51S116.32-.8,122.89.78,128,17,128,29.63a110.11,110.11,0,0,0,2.5,23,290.2,290.2,0,0,1-35.62,3.73c-20.44.93-75.17,0-84.52-2.55C2.64,51.73-3.76,10.47,2.58,5,7.52.78,53.73.51,53.73.51"/><path class="cls-2" d="M130.17,51.43l0-.2c0-.26-.08-.52-.11-.78l-.24-1.6c-.15-1.06-.52-4.82-.72-5.88-.09-.51-1.14-.49-1.11,0,.06,1.06.32,4.83.42,5.89l.15,1.56c0,.26.05.52.07.78,0,0,0,0,0,0-1,0-2.07,0-3.09.08-1.39.06-7.23.31-8.61.43-.82.06-.76,1,.07.94,1.38-.09,7.23-.31,8.61-.33s2.52,0,3.77.05h.4c.42,0,.76-.3.74-.6a.56.56,0,0,0-.33-.43"/><path class="cls-2" d="M2.87,2.75c0,.07,0,.14,0,.21,0,.26,0,.52.06.78l.11,1.61c.08,1.06.18,4.83.3,5.89.06.52,1.11.54,1.12,0,0-1.06,0-4.83,0-5.89l0-1.56c0-.27,0-.53,0-.79V3c1,0,2.07,0,3.09,0,1.39,0,7.24,0,8.63-.09.82,0,.84-1,0-.95C14.75,2,8.9,2,7.51,2S5,1.81,3.75,1.76a1,1,0,0,0-.25,0H3.36a.7.7,0,0,0-.78.57.5.5,0,0,0,.29.43"/></svg>