<?xml version="1.0" encoding="utf-8"?>
<!-- Generator: Adobe Illustrator 21.1.0, SVG Export Plug-In . SVG Version: 6.00 Build 0)  -->
<svg version="1.1" id="Capa_1" xmlns="http://www.w3.org/2000/svg" xmlns:xlink="http://www.w3.org/1999/xlink" x="0px" y="0px"
	 viewBox="0 0 86.329 35.625" style="enable-background:new 0 0 86.329 35.625;" xml:space="preserve">
<style type="text/css">
	.st0{clip-path:url(#SVGID_2_);}
	.st1{clip-path:url(#SVGID_4_);fill:#005CA8;}
	.st2{filter:url(#Adobe_OpacityMaskFilter);}
	.st3{clip-path:url(#SVGID_4_);}
	.st4{clip-path:url(#SVGID_4_);mask:url(#SVGID_5_);}
	.st5{opacity:0.2;clip-path:url(#SVGID_9_);fill:#1D1D1B;}
	.st6{clip-path:url(#SVGID_2_);fill:#FFFFFF;}
	.st7{clip-path:url(#SVGID_11_);fill:none;stroke:#005CA8;stroke-width:1.777;stroke-linecap:round;}
	.st8{clip-path:url(#SVGID_2_);fill:none;stroke:#005CA8;stroke-width:1.185;stroke-linecap:round;}
	.st9{clip-path:url(#SVGID_13_);fill:#005CA8;}
	.st10{clip-path:url(#SVGID_15_);fill:#FFFFFF;}
</style>
<g>
	<defs>
		<rect id="SVGID_1_" y="-0.674" width="86.6" height="36.641"/>
	</defs>
	<clipPath id="SVGID_2_">
		<use xlink:href="#SVGID_1_"  style="overflow:visible;"/>
	</clipPath>
	<g class="st0">
		<defs>
			<rect id="SVGID_3_" y="-0.673" width="86.6" height="36.641"/>
		</defs>
		<clipPath id="SVGID_4_">
			<use xlink:href="#SVGID_3_"  style="overflow:visible;"/>
		</clipPath>
		<path class="st1" d="M25.225,12.507c0,0-1.805,0-1.805,1.805v14.401c0,0,0,1.805,1.805,1.805h59.299c0,0,1.805,0,1.805-1.805
			V14.312c0,0,0-1.805-1.805-1.805H25.225z"/>
		<defs>
			<filter id="Adobe_OpacityMaskFilter" filterUnits="userSpaceOnUse" x="2.987" y="0.058" width="25.92" height="33.36">
				<feColorMatrix  type="matrix" values="1 0 0 0 0  0 1 0 0 0  0 0 1 0 0  0 0 0 1 0"/>
			</filter>
		</defs>
		<mask maskUnits="userSpaceOnUse" x="2.987" y="0.058" width="25.92" height="33.36" id="SVGID_5_">
			<g class="st2">
				<g>
					<defs>
						<rect id="SVGID_6_" x="-5.893" y="-6.902" width="44.16" height="41.28"/>
					</defs>
					<clipPath id="SVGID_7_" class="st3">
						<use xlink:href="#SVGID_6_"  style="overflow:visible;"/>
					</clipPath>
					<g transform="matrix(1 0 0 1 0 0)" style="clip-path:url(#SVGID_7_);">
						
							<image style="overflow:visible;" width="184" height="172" xlink:href="8C89B03E7E838E1C.jpg"  transform="matrix(0.24 0 0 0.24 -5.8926 -6.902)">
						</image>
					</g>
				</g>
			</g>
		</mask>
		<g class="st4">
			<g>
				<defs>
					<rect id="SVGID_8_" x="2.987" y="0.058" width="25.92" height="33.36"/>
				</defs>
				<clipPath id="SVGID_9_">
					<use xlink:href="#SVGID_8_"  style="overflow:visible;"/>
				</clipPath>
				<rect x="2.987" y="0.058" class="st5" width="25.92" height="33.36"/>
			</g>
		</g>
	</g>
	<rect x="1.473" y="1.732" class="st6" width="25.605" height="33.132"/>
	<g class="st0">
		<defs>
			<rect id="SVGID_10_" y="-0.673" width="86.6" height="36.641"/>
		</defs>
		<clipPath id="SVGID_11_">
			<use xlink:href="#SVGID_10_"  style="overflow:visible;"/>
		</clipPath>
		<path class="st7" d="M0.929,1.94v29.778c0,0,0.45,3.058,1.609,3.058h25.42c-1.223,0-1.609-3.058-1.609-3.058V1.94H0.929z"/>
	</g>
	<rect x="4.632" y="11.682" class="st8" width="7.776" height="7.696"/>
	<g class="st0">
		<defs>
			<rect id="SVGID_12_" y="-0.673" width="86.6" height="36.641"/>
		</defs>
		<clipPath id="SVGID_13_">
			<use xlink:href="#SVGID_12_"  style="overflow:visible;"/>
		</clipPath>
		<path class="st9" d="M21.562,7.037l0.462-1.552l0.47,1.552H21.562z M22.962,8.623h0.836l-1.313-3.957h-0.882l-1.296,3.957h0.794
			l0.275-0.93h1.307L22.962,8.623z M20.488,4.666h-2.884v0.689h1.054v3.268h0.775V5.355h1.055V4.666z M14.932,7.587l-0.341,0.548
			c0.376,0.324,0.845,0.544,1.393,0.544c0.744,0,1.344-0.399,1.344-1.215c0-1.436-1.866-0.919-1.866-1.709
			c0-0.29,0.249-0.458,0.587-0.458c0.285,0,0.62,0.118,0.891,0.309l0.335-0.532c-0.343-0.287-0.811-0.465-1.277-0.465
			c-0.716,0-1.299,0.415-1.299,1.204c0,1.397,1.849,0.917,1.849,1.709c0,0.299-0.26,0.452-0.607,0.452
			C15.598,7.974,15.243,7.824,14.932,7.587 M13.258,8.623h0.777V4.666h-0.777V8.623z M10.425,4.666H9.596l1.265,3.957h0.667
			l1.27-3.957H12.01l-0.796,2.74L10.425,4.666z M6.927,8.623h2.414V7.937H7.695V6.97H9.09V6.286H7.695V5.352h1.607V4.666H6.927
			V8.623z M4.342,6.501V5.345h0.495c0.386,0,0.635,0.196,0.635,0.581c0,0.368-0.227,0.575-0.635,0.575H4.342z M3.579,8.623h0.763
			V7.182h0.425l0.751,1.441h0.9L5.537,7.061c0.446-0.195,0.71-0.613,0.71-1.146c0-0.729-0.496-1.249-1.333-1.249H3.579V8.623z"/>
	</g>
	<line class="st8" x1="14.713" y1="12.973" x2="22.731" y2="12.973"/>
	<line class="st8" x1="14.713" y1="16.104" x2="22.731" y2="16.104"/>
	<line class="st8" x1="14.713" y1="19.378" x2="22.731" y2="19.378"/>
	<line class="st8" x1="4.3" y1="23.789" x2="23.61" y2="23.789"/>
	<line class="st8" x1="4.3" y1="26.92" x2="23.61" y2="26.92"/>
	<line class="st8" x1="4.3" y1="30.194" x2="23.61" y2="30.194"/>
	<g class="st0">
		<defs>
			<rect id="SVGID_14_" y="-0.673" width="86.6" height="36.641"/>
		</defs>
		<clipPath id="SVGID_15_">
			<use xlink:href="#SVGID_14_"  style="overflow:visible;"/>
		</clipPath>
		<path class="st10" d="M78.565,23.893c-0.277,0.328-0.614,0.591-1.01,0.789c-0.396,0.198-0.854,0.339-1.374,0.424
			c-0.52,0.085-1.102,0.133-1.747,0.144c0.023,0.362,0.045,0.713,0.068,1.052c0.022,0.339,0.039,0.69,0.051,1.052
			c1.289-0.012,2.403-0.167,3.342-0.467c0.938-0.299,1.71-0.738,2.315-1.315c0.605-0.576,1.052-1.289,1.34-2.137
			c0.289-0.848,0.433-1.826,0.433-2.935c0-1.685-0.371-2.977-1.111-3.876c-0.741-0.899-1.841-1.349-3.3-1.349
			c-0.712,0-1.32,0.128-1.823,0.382c-0.504,0.254-0.919,0.577-1.247,0.967c-0.328,0.39-0.568,0.823-0.721,1.298
			c-0.153,0.475-0.229,0.939-0.229,1.391c0,0.543,0.079,1.04,0.237,1.493c0.159,0.452,0.405,0.839,0.738,1.162
			c0.334,0.322,0.761,0.571,1.281,0.746c0.52,0.176,1.148,0.263,1.883,0.263c0.204,0,0.45-0.025,0.738-0.076
			c0.288-0.051,0.551-0.133,0.789-0.246C79.059,23.152,78.842,23.565,78.565,23.893 M76.512,20.568
			c-0.3-0.294-0.449-0.746-0.449-1.357c0-0.204,0.031-0.413,0.093-0.628c0.062-0.214,0.155-0.412,0.28-0.593
			c0.124-0.181,0.288-0.328,0.492-0.441c0.203-0.113,0.441-0.17,0.712-0.17c0.34,0,0.625,0.076,0.857,0.229
			c0.232,0.153,0.416,0.362,0.551,0.628c0.136,0.265,0.232,0.576,0.289,0.933c0.056,0.356,0.09,0.738,0.101,1.145
			c0,0.034-0.002,0.073-0.008,0.118c-0.006,0.046-0.009,0.091-0.009,0.136v0.153c-0.135,0.09-0.345,0.161-0.627,0.212
			c-0.283,0.051-0.554,0.076-0.814,0.076C77.301,21.009,76.812,20.862,76.512,20.568 M69.413,19.646
			c-0.193,0.293-0.47,0.552-0.831,0.778c-0.645-0.226-1.1-0.496-1.366-0.812s-0.399-0.654-0.399-1.015
			c0-0.135,0.028-0.276,0.085-0.423s0.144-0.285,0.263-0.414c0.119-0.13,0.269-0.235,0.45-0.314c0.18-0.079,0.395-0.118,0.644-0.118
			c0.26,0,0.481,0.042,0.662,0.127c0.181,0.085,0.331,0.189,0.449,0.313c0.119,0.124,0.204,0.257,0.255,0.398
			c0.051,0.141,0.076,0.273,0.076,0.397C69.701,18.992,69.605,19.353,69.413,19.646 M66.885,23.005
			c0.215-0.318,0.481-0.596,0.798-0.834c0.316,0.102,0.613,0.213,0.89,0.332c0.277,0.119,0.518,0.255,0.721,0.408
			c0.204,0.153,0.365,0.332,0.484,0.536c0.118,0.204,0.178,0.436,0.178,0.697c0,0.352-0.136,0.669-0.407,0.952
			c-0.272,0.284-0.702,0.426-1.29,0.426c-0.305,0-0.565-0.046-0.78-0.136c-0.215-0.091-0.39-0.204-0.526-0.34
			c-0.136-0.136-0.235-0.287-0.297-0.451c-0.062-0.164-0.093-0.315-0.093-0.451C66.563,23.702,66.67,23.322,66.885,23.005
			 M72.017,22.436c-0.277-0.459-0.738-0.897-1.383-1.317c0.43-0.27,0.789-0.64,1.077-1.109c0.289-0.469,0.433-0.974,0.433-1.516
			c0-0.373-0.071-0.748-0.212-1.127c-0.142-0.378-0.371-0.719-0.687-1.024c-0.317-0.305-0.721-0.556-1.213-0.754
			s-1.083-0.297-1.773-0.297c-0.588,0-1.122,0.094-1.603,0.28c-0.481,0.186-0.89,0.435-1.23,0.745
			c-0.339,0.311-0.602,0.675-0.789,1.093c-0.186,0.418-0.279,0.853-0.279,1.304c0,0.599,0.115,1.09,0.347,1.474
			c0.232,0.384,0.591,0.774,1.078,1.169c-0.227,0.17-0.439,0.351-0.637,0.544c-0.198,0.192-0.376,0.404-0.534,0.637
			c-0.158,0.232-0.283,0.489-0.373,0.772c-0.091,0.284-0.136,0.595-0.136,0.935c0,0.328,0.068,0.688,0.204,1.078
			c0.135,0.391,0.364,0.751,0.687,1.079c0.322,0.329,0.746,0.603,1.272,0.824c0.526,0.221,1.185,0.331,1.976,0.331
			c0.69,0,1.298-0.088,1.824-0.263c0.526-0.175,0.964-0.422,1.315-0.739c0.35-0.317,0.613-0.688,0.789-1.112
			c0.175-0.425,0.262-0.892,0.262-1.402C72.432,23.43,72.294,22.895,72.017,22.436 M55.46,18.202
			c-0.288,0.028-0.563,0.062-0.823,0.101c-0.26,0.04-0.5,0.085-0.721,0.136c-0.22,0.051-0.404,0.099-0.551,0.144l0.322,2.036
			c0.306-0.113,0.668-0.201,1.086-0.263s0.842-0.093,1.272-0.093c0.645,0,1.097,0.13,1.357,0.39c0.26,0.26,0.391,0.605,0.391,1.035
			v0.237c-0.159-0.045-0.365-0.082-0.62-0.11c-0.254-0.028-0.545-0.042-0.873-0.042c-0.487,0-0.956,0.048-1.408,0.144
			c-0.453,0.096-0.854,0.252-1.205,0.466c-0.35,0.215-0.63,0.504-0.839,0.865c-0.21,0.362-0.314,0.804-0.314,1.324
			c0,0.542,0.09,1,0.271,1.374c0.181,0.373,0.441,0.676,0.781,0.907c0.339,0.232,0.743,0.399,1.212,0.501
			c0.47,0.101,0.993,0.152,1.57,0.152c0.916,0,1.696-0.053,2.341-0.161c0.644-0.107,1.147-0.2,1.509-0.28v-5.259
			c0-0.554-0.062-1.057-0.186-1.509c-0.125-0.453-0.337-0.837-0.636-1.154c-0.3-0.316-0.699-0.56-1.196-0.729
			c-0.498-0.17-1.12-0.255-1.866-0.255C56.04,18.159,55.748,18.174,55.46,18.202 M55.443,25.327
			c-0.266-0.153-0.399-0.427-0.399-0.823c0-0.204,0.046-0.373,0.136-0.509c0.091-0.136,0.215-0.243,0.373-0.322
			c0.159-0.079,0.342-0.133,0.552-0.162c0.209-0.028,0.432-0.042,0.67-0.042c0.169,0,0.356,0.011,0.56,0.034
			c0.203,0.023,0.356,0.045,0.458,0.068v1.917c-0.136,0.022-0.317,0.039-0.543,0.051c-0.227,0.011-0.464,0.017-0.713,0.017
			C56.073,25.556,55.709,25.479,55.443,25.327 M45.155,27.32c0.067-1.018,0.246-2.036,0.534-3.054
			c0.288-1.018,0.628-1.97,1.018-2.858c0.39-0.888,0.803-1.682,1.238-2.384c0.435-0.701,0.834-1.249,1.196-1.645v-1.832h-8.227
			v2.154h5.106c-0.396,0.554-0.786,1.213-1.171,1.977c-0.384,0.763-0.732,1.574-1.043,2.434c-0.311,0.859-0.574,1.736-0.789,2.629
			c-0.215,0.894-0.356,1.753-0.424,2.579H45.155z M36.52,19.646c-0.192,0.293-0.469,0.552-0.831,0.778
			c-0.645-0.226-1.1-0.496-1.366-0.812c-0.266-0.316-0.398-0.654-0.398-1.015c0-0.135,0.028-0.276,0.084-0.423
			c0.057-0.147,0.145-0.285,0.263-0.414c0.119-0.13,0.269-0.235,0.45-0.314c0.181-0.079,0.396-0.118,0.644-0.118
			c0.261,0,0.481,0.042,0.662,0.127c0.181,0.085,0.331,0.189,0.45,0.313c0.118,0.124,0.203,0.257,0.254,0.398
			c0.051,0.141,0.076,0.273,0.076,0.397C36.808,18.992,36.712,19.353,36.52,19.646 M33.992,23.005
			c0.215-0.318,0.481-0.596,0.798-0.834c0.316,0.102,0.613,0.213,0.89,0.332c0.277,0.119,0.518,0.255,0.721,0.408
			c0.204,0.153,0.365,0.332,0.484,0.536s0.178,0.436,0.178,0.697c0,0.352-0.136,0.669-0.407,0.952
			c-0.272,0.284-0.702,0.426-1.29,0.426c-0.305,0-0.565-0.046-0.78-0.136c-0.215-0.091-0.39-0.204-0.526-0.34
			c-0.135-0.136-0.235-0.287-0.297-0.451s-0.093-0.315-0.093-0.451C33.67,23.702,33.777,23.322,33.992,23.005 M39.124,22.436
			c-0.277-0.459-0.738-0.897-1.383-1.317c0.43-0.27,0.789-0.64,1.078-1.109c0.288-0.469,0.432-0.974,0.432-1.516
			c0-0.373-0.071-0.748-0.212-1.127c-0.141-0.378-0.37-0.719-0.687-1.024c-0.317-0.305-0.721-0.556-1.213-0.754
			s-1.083-0.297-1.773-0.297c-0.588,0-1.122,0.094-1.603,0.28c-0.48,0.186-0.89,0.435-1.23,0.745
			c-0.339,0.311-0.602,0.675-0.788,1.093c-0.187,0.418-0.28,0.853-0.28,1.304c0,0.599,0.116,1.09,0.348,1.474
			c0.231,0.384,0.59,0.774,1.077,1.169c-0.227,0.17-0.439,0.351-0.636,0.544c-0.198,0.192-0.377,0.404-0.535,0.637
			c-0.158,0.232-0.283,0.489-0.373,0.772c-0.091,0.284-0.136,0.595-0.136,0.935c0,0.328,0.068,0.688,0.204,1.078
			c0.136,0.391,0.365,0.751,0.687,1.079c0.322,0.329,0.746,0.603,1.272,0.824c0.526,0.221,1.185,0.331,1.977,0.331
			c0.689,0,1.297-0.088,1.823-0.263c0.526-0.175,0.964-0.422,1.315-0.739c0.35-0.317,0.613-0.688,0.789-1.112
			c0.175-0.425,0.263-0.892,0.263-1.402C39.54,23.43,39.401,22.895,39.124,22.436"/>
	</g>
</g>
</svg>
