<?xml version="1.0" encoding="utf-8"?>
<!-- Generator: Adobe Illustrator 24.2.3, SVG Export Plug-In . SVG Version: 6.00 Build 0)  -->
<svg version="1.1" id="Capa_3" xmlns="http://www.w3.org/2000/svg" xmlns:xlink="http://www.w3.org/1999/xlink" x="0px" y="0px"
	 viewBox="0 0 466.7 607.9" style="enable-background:new 0 0 466.7 607.9;" xml:space="preserve">
<style type="text/css">
	.st0{fill:none;stroke:#D7D2EA;stroke-width:2;stroke-linecap:round;stroke-dasharray:6,5;}
	.st1{fill:#D7D2EA;}
</style>
<path class="st0" d="M146.1,359.9c0,0-66.3-19.1-68-57.1s30.8-67.9,105.4-64.5c74.6,3.5,166.3,19.4,167.4-35.3
	c1.1-54.7-81.5-37.4-129.1-35.5s-135.8,6-139.4-45.2c-3-43.6,162-29.9,162-29.9s96.1-3.6,94.5-35.1c-0.7-20-34.9-31-55.8-34.2
	c-31.6-5.9-116.5-8.6-145.3-4.5"/>
<g>
	<path class="st1" d="M214.9,98.1c-0.3,0-0.4-0.1-0.6-0.3l-7-7.1l6.3-7.6c0.3-0.3,0.9-0.4,1.2-0.1s0.4,0.9,0.1,1.2l-5.3,6.4l6,6
		c0.3,0.3,0.3,0.9,0,1.2C215.3,98,215.1,98.1,214.9,98.1L214.9,98.1z"/>
</g>
<g>
	<path class="st1" d="M234.9,159.3c0.3,0,0.4,0.1,0.6,0.2l7.2,6.9l-6.1,7.8c-0.3,0.4-0.8,0.5-1.2,0.1c-0.4-0.3-0.5-0.8-0.1-1.2
		l5.1-6.6l-6.2-5.8c-0.4-0.3-0.4-0.8,0-1.2C234.4,159.4,234.6,159.3,234.9,159.3L234.9,159.3z"/>
</g>
<g>
	<path class="st1" d="M217.2,248.3c-0.3-0.1-0.4-0.1-0.5-0.4l-5.5-8.4l7.7-6.2c0.4-0.3,0.9-0.2,1.2,0.2s0.2,0.9-0.2,1.2l-6.5,5.2
		l4.8,7.1c0.3,0.4,0.2,0.9-0.3,1.2C217.6,248.3,217.5,248.3,217.2,248.3L217.2,248.3z"/>
</g>
<g>
	<path class="st1" d="M85.6,302.3c0,0.3,0,0.4-0.2,0.6l-6.3,7.7l-8.3-5.5c-0.4-0.3-0.5-0.8-0.2-1.2c0.3-0.4,0.8-0.5,1.2-0.2l7,4.6
		l5.3-6.6c0.3-0.4,0.8-0.4,1.2-0.1C85.5,301.9,85.6,302.1,85.6,302.3L85.6,302.3z"/>
</g>
<g>
	<path class="st1" d="M270,13.6c0.3,0,0.4,0.1,0.6,0.3l6.6,7.6l-6.8,7.2c-0.4,0.3-0.9,0.4-1.2,0c-0.3-0.4-0.4-0.9,0-1.2l5.7-6.1
		l-5.6-6.4c-0.3-0.4-0.3-0.9,0.1-1.2C269.5,13.7,269.7,13.6,270,13.6L270,13.6z"/>
</g>
</svg>
