<?xml version="1.0" encoding="utf-8"?>
<!-- Generator: Adobe Illustrator 26.0.1, SVG Export Plug-In . SVG Version: 6.00 Build 0)  -->
<svg version="1.1" id="Capa_1" xmlns="http://www.w3.org/2000/svg" xmlns:xlink="http://www.w3.org/1999/xlink" x="0px" y="0px"
	 viewBox="0 0 41.7 140" style="enable-background:new 0 0 41.7 140;" xml:space="preserve">
<style type="text/css">
	.st0{fill:#504F4E;}
	.st1{fill:none;stroke:#FFCC00;stroke-width:3;stroke-linecap:round;}
</style>
<g>
	<path class="st0" d="M3.7,7.2c2,0,3.6-1.6,3.6-3.6C7,1.6,5.1,0.2,3,0.6C1.5,0.8,0.3,2,0,3.6C0.1,5.6,1.7,7.2,3.7,7.2"/>
	<path class="st0" d="M38.2,7.2c2,0,3.6-1.6,3.6-3.6c-0.3-2-2.2-3.4-4.3-3c-1.6,0.3-2.8,1.5-3,3C34.6,5.6,36.2,7.2,38.2,7.2"/>
	<line class="st1" x1="5.1" y1="3.6" x2="37.4" y2="3.6"/>
	<path class="st0" d="M3.7,29.4c2-0.1,3.6-1.7,3.5-3.7c-0.1-2-1.7-3.6-3.7-3.5C1.6,22.3,0,23.9,0,25.8c0,2,1.6,3.6,3.6,3.6
		C3.6,29.4,3.7,29.4,3.7,29.4"/>
	<path class="st0" d="M38.2,29.4c2-0.1,3.6-1.7,3.5-3.7c-0.1-2-1.7-3.6-3.7-3.5c-1.9,0.1-3.5,1.6-3.5,3.6c0,2,1.6,3.6,3.6,3.6
		C38.1,29.4,38.2,29.4,38.2,29.4"/>
	<line class="st1" x1="5.1" y1="25.8" x2="37.4" y2="25.8"/>
</g>
<g>
	<path class="st0" d="M3.7,117.8c2,0,3.6-1.6,3.6-3.6c-0.3-2-2.2-3.4-4.3-3c-1.6,0.3-2.8,1.5-3,3C0,116.2,1.6,117.8,3.7,117.8"/>
	<path class="st0" d="M38.2,117.8c2,0,3.6-1.6,3.6-3.6c-0.3-2-2.2-3.4-4.3-3c-1.6,0.3-2.8,1.5-3,3C34.5,116.2,36.1,117.8,38.2,117.8
		"/>
	<line class="st1" x1="5.1" y1="114.2" x2="37.4" y2="114.2"/>
	<path class="st0" d="M3.7,140c2-0.1,3.6-1.7,3.5-3.7c-0.1-2-1.7-3.6-3.7-3.5c-1.9,0.1-3.5,1.6-3.5,3.6c0,2,1.6,3.6,3.6,3.6
		C3.6,140,3.6,140,3.7,140"/>
	<path class="st0" d="M38.2,140c2-0.1,3.6-1.7,3.5-3.7c-0.1-2-1.7-3.6-3.7-3.5c-1.9,0.1-3.5,1.6-3.5,3.6c0,2,1.6,3.6,3.6,3.6
		C38.1,140,38.1,140,38.2,140"/>
	<line class="st1" x1="5.1" y1="136.4" x2="37.4" y2="136.4"/>
</g>
</svg>
