<?xml version="1.0" encoding="utf-8"?>
<!-- Generator: Adobe Illustrator 14.0.0, SVG Export Plug-In . SVG Version: 6.00 Build 43363)  -->
<!DOCTYPE svg PUBLIC "-//W3C//DTD SVG 1.1//EN" "http://www.w3.org/Graphics/SVG/1.1/DTD/svg11.dtd">
<svg version="1.1" id="Layer_1" xmlns="http://www.w3.org/2000/svg" xmlns:xlink="http://www.w3.org/1999/xlink" x="0px" y="0px"
	 width="32.187px" height="17.963px" viewBox="0 0 32.187 17.963" enable-background="new 0 0 32.187 17.963" xml:space="preserve">
<g>
	<path fill="#FFFFFF" d="M4.549,0.935c0,0-3.628,0-3.628,3.629v8.986c0,0,0,3.629,3.628,3.629h22.846c0,0,3.629,0,3.629-3.629V4.563
		c0,0,0-3.629-3.629-3.629H4.549z"/>
</g>
<g>
	<path fill="#F6921E" d="M27.396,17.553H4.549c-3.958,0-4.003-3.964-4.003-4.004V4.563c0-3.958,3.963-4.004,4.003-4.004h22.846
		c3.959,0,4.004,3.964,4.004,4.004v8.986C31.399,17.507,27.437,17.553,27.396,17.553L27.396,17.553z M4.549,1.31
		c-0.132,0-3.253,0.051-3.253,3.254v8.986c0,0.132,0.051,3.254,3.253,3.254h22.846c0.133-0.001,3.254-0.052,3.254-3.254V4.563
		c0-0.132-0.051-3.254-3.254-3.254H4.549L4.549,1.31z"/>
</g>
<g>
	<path fill="#F6921E" d="M12.762,17.547c-0.047,0-0.095-0.009-0.141-0.027c-0.192-0.078-0.284-0.297-0.207-0.488l3.233-7.975
		l-3.233-7.976c-0.078-0.192,0.015-0.411,0.207-0.489c0.191-0.079,0.411,0.014,0.489,0.207l3.347,8.257l-3.347,8.256
		C13.05,17.459,12.91,17.547,12.762,17.547L12.762,17.547z"/>
</g>
<g>
	<path fill="#F6921E" d="M9.425,6.338c-0.93,0-1.603,0.258-2.016,0.774C6.995,7.629,6.788,8.335,6.788,9.231
		c0,0.435,0.051,0.83,0.154,1.184c0.103,0.354,0.256,0.659,0.461,0.915c0.205,0.256,0.46,0.454,0.768,0.596
		c0.307,0.141,0.666,0.211,1.075,0.211c0.222,0,0.412-0.004,0.569-0.013s0.296-0.025,0.416-0.052V8.988h1.997v4.39
		c-0.239,0.095-0.623,0.194-1.152,0.301s-1.182,0.16-1.958,0.16c-0.666,0-1.269-0.103-1.811-0.307
		c-0.542-0.205-1.005-0.504-1.389-0.896c-0.384-0.393-0.681-0.875-0.89-1.446S4.715,9.965,4.715,9.231
		c0-0.743,0.115-1.399,0.346-1.971c0.23-0.572,0.546-1.056,0.947-1.453C6.409,5.41,6.88,5.109,7.422,4.904
		C7.964,4.7,8.542,4.597,9.156,4.597c0.418,0,0.796,0.028,1.133,0.083c0.337,0.056,0.627,0.12,0.871,0.192
		c0.243,0.072,0.443,0.147,0.602,0.224c0.158,0.077,0.271,0.137,0.339,0.179l-0.576,1.6c-0.273-0.145-0.587-0.271-0.941-0.377
		C10.229,6.392,9.843,6.338,9.425,6.338z"/>
</g>
<g>
	<path fill="#F6921E" d="M20.738,4.802h1.997v8.871h-1.997V4.802z"/>
</g>
</svg>
