<?xml version="1.0" encoding="utf-8"?>
<!-- Generator: Adobe Illustrator 21.1.0, SVG Export Plug-In . SVG Version: 6.00 Build 0)  -->
<svg version="1.1" id="Capa_1" xmlns="http://www.w3.org/2000/svg" xmlns:xlink="http://www.w3.org/1999/xlink" x="0px" y="0px"
	 viewBox="0 0 28.798 14.882" style="enable-background:new 0 0 28.798 14.882;" xml:space="preserve">
<style type="text/css">
	.st0{fill:#FFFFFF;}
	.st1{clip-path:url(#SVGID_2_);fill:none;stroke:#AEC90B;stroke-width:0.954;stroke-linecap:round;}
	.st2{clip-path:url(#SVGID_4_);fill:none;stroke:#AEC90B;stroke-width:0.954;stroke-linecap:round;}
	.st3{clip-path:url(#SVGID_4_);fill:#AEC90B;}
	.st4{fill:#AEC90B;}
</style>
<rect x="14.392" y="0.477" class="st0" width="13.928" height="13.928"/>
<g>
	<defs>
		<rect id="SVGID_1_" width="28.798" height="14.882"/>
	</defs>
	<clipPath id="SVGID_2_">
		<use xlink:href="#SVGID_1_"  style="overflow:visible;"/>
	</clipPath>
	<rect x="14.392" y="0.476" class="st1" width="13.929" height="13.929"/>
</g>
<polygon class="st0" points="0.477,0.477 0.477,14.405 14.405,14.405 16.208,8.032 14.405,0.477 "/>
<g>
	<defs>
		<rect id="SVGID_3_" width="28.798" height="14.882"/>
	</defs>
	<clipPath id="SVGID_4_">
		<use xlink:href="#SVGID_3_"  style="overflow:visible;"/>
	</clipPath>
	<polygon class="st2" points="0.477,0.477 0.477,14.406 14.406,14.406 16.208,8.031 14.406,0.477 	"/>
	<path class="st3" d="M9.519,10.37c-0.102,0.031-0.269,0.065-0.501,0.1c-0.232,0.036-0.513,0.053-0.843,0.053
		c-0.464,0-0.867-0.078-1.208-0.236C6.625,10.13,6.338,9.908,6.106,9.621C5.874,9.335,5.701,8.991,5.587,8.59
		S5.416,7.745,5.416,7.257c0-0.502,0.067-0.956,0.201-1.361c0.133-0.405,0.32-0.749,0.56-1.032c0.239-0.283,0.53-0.499,0.872-0.648
		C7.391,4.067,7.77,3.992,8.187,3.992c0.393,0,0.778,0.049,1.155,0.147c0.377,0.098,0.68,0.222,0.908,0.371l0.365-0.954
		c-0.047-0.032-0.135-0.079-0.265-0.142c-0.13-0.063-0.297-0.126-0.501-0.189C9.645,3.163,9.399,3.108,9.112,3.06
		C8.825,3.013,8.497,2.99,8.128,2.99c-0.543,0-1.052,0.094-1.527,0.283c-0.476,0.188-0.89,0.463-1.244,0.825
		C5.004,4.459,4.722,4.905,4.514,5.436C4.306,5.967,4.202,6.574,4.202,7.257c0,0.684,0.092,1.29,0.277,1.816
		c0.184,0.527,0.446,0.971,0.784,1.332c0.338,0.362,0.743,0.637,1.214,0.826c0.472,0.188,0.994,0.283,1.568,0.283
		c0.283,0,0.562-0.014,0.837-0.042c0.275-0.027,0.529-0.061,0.761-0.1c0.232-0.039,0.436-0.078,0.613-0.118
		c0.177-0.039,0.312-0.074,0.407-0.106v-3.82H9.519V10.37z"/>
</g>
<rect x="20.823" y="3.178" class="st4" width="1.144" height="8.17"/>
</svg>
