<?xml version="1.0" encoding="utf-8"?>
<!-- Generator: Adobe Illustrator 21.1.0, SVG Export Plug-In . SVG Version: 6.00 Build 0)  -->
<svg version="1.1" id="Capa_1" xmlns="http://www.w3.org/2000/svg" xmlns:xlink="http://www.w3.org/1999/xlink" x="0px" y="0px"
	 viewBox="0 0 95.286 35.5" style="enable-background:new 0 0 95.286 35.5;" xml:space="preserve">
<style type="text/css">
	.st0{clip-path:url(#SVGID_2_);}
	.st1{clip-path:url(#SVGID_4_);fill:#005CA8;}
	.st2{filter:url(#Adobe_OpacityMaskFilter);}
	.st3{clip-path:url(#SVGID_4_);}
	.st4{clip-path:url(#SVGID_4_);mask:url(#SVGID_5_);}
	.st5{opacity:0.2;clip-path:url(#SVGID_9_);fill:#1D1D1B;}
	.st6{clip-path:url(#SVGID_2_);fill:#FFFFFF;}
	.st7{clip-path:url(#SVGID_11_);fill:none;stroke:#005CA8;stroke-width:1.777;stroke-linecap:round;}
	.st8{clip-path:url(#SVGID_2_);fill:none;stroke:#005CA8;stroke-width:1.185;stroke-linecap:round;}
	.st9{clip-path:url(#SVGID_13_);fill:#005CA8;}
	.st10{clip-path:url(#SVGID_15_);fill:#FFFFFF;}
</style>
<g>
	<defs>
		<rect id="SVGID_1_" x="-2" y="-2.788" width="100" height="40.913"/>
	</defs>
	<clipPath id="SVGID_2_">
		<use xlink:href="#SVGID_1_"  style="overflow:visible;"/>
	</clipPath>
	<g class="st0">
		<defs>
			<rect id="SVGID_3_" x="-2" y="-2.788" width="100" height="40.913"/>
		</defs>
		<clipPath id="SVGID_4_">
			<use xlink:href="#SVGID_3_"  style="overflow:visible;"/>
		</clipPath>
		<path class="st1" d="M25.157,12.408c0,0-1.805,0-1.805,1.805v14.401c0,0,0,1.805,1.805,1.805h68.324c0,0,1.805,0,1.805-1.805
			V14.213c0,0,0-1.805-1.805-1.805H25.157z"/>
		<defs>
			<filter id="Adobe_OpacityMaskFilter" filterUnits="userSpaceOnUse" x="2.92" y="-0.041" width="25.92" height="33.36">
				<feColorMatrix  type="matrix" values="1 0 0 0 0  0 1 0 0 0  0 0 1 0 0  0 0 0 1 0"/>
			</filter>
		</defs>
		<mask maskUnits="userSpaceOnUse" x="2.92" y="-0.041" width="25.92" height="33.36" id="SVGID_5_">
			<g class="st2">
				<g>
					<defs>
						<rect id="SVGID_6_" x="-5.96" y="-7.001" width="44.16" height="41.28"/>
					</defs>
					<clipPath id="SVGID_7_" class="st3">
						<use xlink:href="#SVGID_6_"  style="overflow:visible;"/>
					</clipPath>
					<g transform="matrix(1 0 0 1 0 0)" style="clip-path:url(#SVGID_7_);">
						
							<image style="overflow:visible;" width="184" height="172" xlink:href="DCD0ED02F56EB7D.jpg"  transform="matrix(0.24 0 0 0.24 -5.9603 -7.0006)">
						</image>
					</g>
				</g>
			</g>
		</mask>
		<g class="st4">
			<g>
				<defs>
					<rect id="SVGID_8_" x="2.92" y="-0.041" width="25.92" height="33.36"/>
				</defs>
				<clipPath id="SVGID_9_">
					<use xlink:href="#SVGID_8_"  style="overflow:visible;"/>
				</clipPath>
				<rect x="2.92" y="-0.041" class="st5" width="25.92" height="33.36"/>
			</g>
		</g>
	</g>
	<rect x="1.405" y="1.634" class="st6" width="25.605" height="33.132"/>
	<g class="st0">
		<defs>
			<rect id="SVGID_10_" x="-2" y="-2.788" width="100" height="40.913"/>
		</defs>
		<clipPath id="SVGID_11_">
			<use xlink:href="#SVGID_10_"  style="overflow:visible;"/>
		</clipPath>
		<path class="st7" d="M0.861,1.841v29.778c0,0,0.45,3.058,1.609,3.058h25.42c-1.223,0-1.609-3.058-1.609-3.058V1.841H0.861z"/>
	</g>
	<rect x="4.564" y="11.583" class="st8" width="7.776" height="7.696"/>
	<g class="st0">
		<defs>
			<rect id="SVGID_12_" x="-2" y="-2.788" width="100" height="40.913"/>
		</defs>
		<clipPath id="SVGID_13_">
			<use xlink:href="#SVGID_12_"  style="overflow:visible;"/>
		</clipPath>
		<path class="st9" d="M21.495,6.938l0.462-1.552l0.47,1.552H21.495z M22.895,8.524h0.836l-1.313-3.957h-0.882L20.24,8.524h0.794
			l0.275-0.93h1.307L22.895,8.524z M20.421,4.567h-2.884v0.689h1.054v3.268h0.775V5.256h1.055V4.567z M14.865,7.488l-0.341,0.548
			C14.9,8.36,15.369,8.58,15.917,8.58c0.744,0,1.344-0.399,1.344-1.215c0-1.436-1.867-0.919-1.867-1.709
			c0-0.29,0.25-0.458,0.588-0.458c0.285,0,0.62,0.118,0.891,0.309l0.335-0.532c-0.343-0.287-0.811-0.465-1.277-0.465
			c-0.716,0-1.299,0.415-1.299,1.204c0,1.397,1.849,0.917,1.849,1.709c0,0.299-0.26,0.452-0.607,0.452
			C15.531,7.875,15.176,7.725,14.865,7.488 M13.191,8.524h0.777V4.567h-0.777V8.524z M10.358,4.567H9.529l1.265,3.957h0.667
			l1.27-3.957h-0.789l-0.795,2.74L10.358,4.567z M6.86,8.524h2.414V7.838H7.628V6.871h1.395V6.187H7.628V5.253h1.607V4.567H6.86
			V8.524z M4.275,6.402V5.246H4.77c0.386,0,0.635,0.196,0.635,0.581c0,0.368-0.227,0.575-0.635,0.575H4.275z M3.512,8.524h0.763
			V7.083H4.7l0.751,1.441h0.9L5.47,6.962c0.446-0.195,0.71-0.613,0.71-1.146c0-0.729-0.496-1.249-1.333-1.249H3.512V8.524z"/>
	</g>
	<line class="st8" x1="14.645" y1="12.874" x2="22.663" y2="12.874"/>
	<line class="st8" x1="14.645" y1="16.005" x2="22.663" y2="16.005"/>
	<line class="st8" x1="14.645" y1="19.279" x2="22.663" y2="19.279"/>
	<line class="st8" x1="4.232" y1="23.69" x2="23.542" y2="23.69"/>
	<line class="st8" x1="4.232" y1="26.822" x2="23.542" y2="26.822"/>
	<line class="st8" x1="4.232" y1="30.096" x2="23.542" y2="30.096"/>
	<g class="st0">
		<defs>
			<rect id="SVGID_14_" x="-2" y="-2.788" width="100" height="40.913"/>
		</defs>
		<clipPath id="SVGID_15_">
			<use xlink:href="#SVGID_14_"  style="overflow:visible;"/>
		</clipPath>
		<path class="st10" d="M80.519,27.492c0.624-0.197,1.138-0.47,1.542-0.821c0.404-0.351,0.701-0.768,0.891-1.25
			s0.286-1.009,0.286-1.58c0-0.726-0.176-1.348-0.526-1.865c-0.351-0.518-0.847-0.908-1.489-1.17
			c0.464-0.237,0.832-0.584,1.105-1.041c0.274-0.457,0.411-0.929,0.411-1.416c0-0.498-0.084-0.958-0.25-1.379
			c-0.167-0.421-0.422-0.789-0.767-1.104c-0.345-0.314-0.781-0.558-1.31-0.73c-0.529-0.172-1.156-0.258-1.881-0.258
			c-0.392,0-0.764,0.036-1.115,0.107c-0.35,0.071-0.68,0.16-0.989,0.267s-0.591,0.226-0.847,0.357s-0.479,0.256-0.669,0.374
			l0.945,1.944c0.357-0.226,0.752-0.416,1.186-0.571c0.434-0.154,0.906-0.232,1.418-0.232c0.201,0,0.401,0.027,0.597,0.081
			c0.196,0.053,0.368,0.133,0.517,0.24c0.148,0.107,0.27,0.244,0.365,0.41c0.095,0.167,0.143,0.363,0.143,0.589
			c0,0.297-0.057,0.544-0.169,0.74c-0.114,0.196-0.265,0.35-0.455,0.463c-0.19,0.113-0.407,0.194-0.651,0.241
			c-0.244,0.048-0.496,0.071-0.758,0.071h-1.176v2.14h1.034c0.368,0,0.716,0.027,1.043,0.08c0.327,0.053,0.609,0.149,0.847,0.285
			c0.237,0.137,0.425,0.315,0.561,0.535c0.137,0.22,0.205,0.49,0.205,0.811c0,0.524-0.19,0.939-0.57,1.248
			c-0.381,0.31-0.981,0.464-1.801,0.464c-0.713,0-1.31-0.074-1.792-0.223c-0.481-0.148-0.876-0.288-1.185-0.419l-0.517,2.211
			c0.154,0.071,0.368,0.149,0.641,0.232c0.274,0.083,0.577,0.16,0.91,0.232c0.332,0.071,0.677,0.127,1.034,0.169
			c0.356,0.041,0.695,0.062,1.016,0.062C79.155,27.786,79.895,27.688,80.519,27.492 M70.382,19.453
			c-0.202,0.308-0.493,0.581-0.874,0.818c-0.677-0.237-1.156-0.521-1.435-0.853c-0.279-0.332-0.419-0.688-0.419-1.067
			c0-0.142,0.03-0.29,0.089-0.444c0.06-0.154,0.152-0.3,0.277-0.436c0.124-0.136,0.282-0.246,0.472-0.329
			c0.19-0.083,0.416-0.125,0.678-0.125c0.273,0,0.505,0.045,0.695,0.134c0.19,0.089,0.348,0.198,0.472,0.329
			c0.125,0.13,0.214,0.27,0.268,0.418c0.053,0.148,0.08,0.287,0.08,0.417C70.686,18.766,70.584,19.145,70.382,19.453 M67.726,22.984
			c0.226-0.334,0.505-0.626,0.838-0.876c0.333,0.107,0.645,0.223,0.936,0.348c0.292,0.126,0.544,0.268,0.758,0.429
			c0.214,0.161,0.383,0.349,0.508,0.563c0.125,0.215,0.187,0.459,0.187,0.733c0,0.37-0.142,0.703-0.427,1.001
			c-0.286,0.298-0.738,0.447-1.355,0.447c-0.321,0-0.595-0.048-0.821-0.143c-0.226-0.095-0.41-0.214-0.552-0.357
			c-0.143-0.143-0.247-0.301-0.312-0.474c-0.066-0.173-0.098-0.331-0.098-0.474C67.387,23.717,67.499,23.317,67.726,22.984
			 M73.119,22.386c-0.292-0.482-0.776-0.943-1.453-1.384c0.451-0.284,0.829-0.673,1.132-1.166c0.303-0.492,0.454-1.023,0.454-1.593
			c0-0.392-0.074-0.787-0.222-1.184c-0.149-0.398-0.39-0.757-0.722-1.077c-0.333-0.32-0.758-0.585-1.275-0.792
			c-0.517-0.208-1.139-0.312-1.863-0.312c-0.619,0-1.18,0.098-1.685,0.294c-0.506,0.196-0.936,0.457-1.293,0.783
			c-0.357,0.327-0.633,0.709-0.829,1.148c-0.196,0.44-0.294,0.897-0.294,1.371c0,0.629,0.122,1.146,0.365,1.549
			c0.244,0.404,0.621,0.814,1.132,1.229c-0.237,0.178-0.46,0.369-0.668,0.571c-0.208,0.203-0.395,0.426-0.562,0.67
			c-0.166,0.244-0.297,0.515-0.392,0.812c-0.095,0.298-0.143,0.625-0.143,0.982c0,0.345,0.072,0.723,0.214,1.134
			c0.143,0.41,0.384,0.788,0.722,1.133c0.339,0.346,0.785,0.634,1.338,0.867c0.552,0.231,1.245,0.347,2.077,0.347
			c0.725,0,1.364-0.092,1.916-0.276c0.553-0.185,1.014-0.444,1.382-0.777c0.368-0.333,0.645-0.723,0.829-1.169
			c0.184-0.446,0.277-0.937,0.277-1.473C73.556,23.43,73.41,22.868,73.119,22.386 M58.491,23.4h5.171v-2.407h-5.171V23.4z
			 M56.521,16.937c-0.161-0.434-0.41-0.802-0.749-1.105c-0.339-0.303-0.77-0.538-1.293-0.704c-0.523-0.167-1.147-0.25-1.872-0.25
			c-0.796,0-1.542,0.158-2.237,0.472c-0.696,0.315-1.305,0.717-1.828,1.204l1.32,1.854c0.083-0.083,0.207-0.193,0.374-0.33
			c0.166-0.136,0.366-0.273,0.597-0.41c0.232-0.136,0.488-0.255,0.767-0.356c0.279-0.101,0.579-0.152,0.9-0.152
			c0.44,0,0.809,0.107,1.106,0.321c0.297,0.214,0.445,0.582,0.445,1.105c0,0.238-0.053,0.473-0.16,0.705
			c-0.107,0.231-0.256,0.463-0.446,0.695s-0.41,0.47-0.659,0.713c-0.25,0.244-0.517,0.502-0.803,0.776
			c-0.368,0.356-0.74,0.713-1.114,1.07c-0.374,0.356-0.71,0.739-1.007,1.15c-0.298,0.41-0.538,0.853-0.722,1.328
			c-0.185,0.475-0.277,0.998-0.277,1.569v0.428c0,0.202,0.012,0.368,0.036,0.499h8.237V25.29h-5.313
			c0.035-0.118,0.127-0.27,0.276-0.454c0.149-0.185,0.318-0.384,0.508-0.598c0.19-0.214,0.39-0.425,0.598-0.633
			c0.207-0.207,0.401-0.395,0.579-0.561c0.345-0.321,0.695-0.66,1.052-1.017c0.357-0.356,0.678-0.727,0.963-1.114
			c0.285-0.386,0.517-0.787,0.695-1.203s0.268-0.85,0.268-1.302C56.762,17.862,56.681,17.371,56.521,16.937 M44.066,19.453
			c-0.202,0.308-0.493,0.581-0.873,0.818c-0.678-0.237-1.157-0.521-1.436-0.853c-0.279-0.332-0.419-0.688-0.419-1.067
			c0-0.142,0.03-0.29,0.089-0.444c0.06-0.154,0.152-0.3,0.277-0.436c0.125-0.136,0.282-0.246,0.472-0.329
			c0.19-0.083,0.416-0.125,0.678-0.125c0.273,0,0.505,0.045,0.695,0.134c0.19,0.089,0.348,0.198,0.473,0.329
			c0.124,0.13,0.214,0.27,0.267,0.418c0.054,0.148,0.08,0.287,0.08,0.417C44.369,18.766,44.268,19.145,44.066,19.453 M41.41,22.984
			c0.225-0.334,0.505-0.626,0.838-0.876c0.332,0.107,0.644,0.223,0.936,0.348c0.291,0.126,0.543,0.268,0.757,0.429
			c0.214,0.161,0.384,0.349,0.509,0.563c0.124,0.215,0.187,0.459,0.187,0.733c0,0.37-0.143,0.703-0.428,1.001
			s-0.737,0.447-1.355,0.447c-0.321,0-0.595-0.048-0.82-0.143c-0.226-0.095-0.41-0.214-0.553-0.357
			c-0.143-0.143-0.247-0.301-0.312-0.474c-0.066-0.173-0.098-0.331-0.098-0.474C41.071,23.717,41.184,23.317,41.41,22.984
			 M46.804,22.386c-0.291-0.482-0.776-0.943-1.453-1.384c0.451-0.284,0.829-0.673,1.132-1.166c0.303-0.492,0.455-1.023,0.455-1.593
			c0-0.392-0.075-0.787-0.223-1.184c-0.149-0.398-0.39-0.757-0.722-1.077c-0.333-0.32-0.758-0.585-1.275-0.792
			c-0.517-0.208-1.138-0.312-1.863-0.312c-0.618,0-1.18,0.098-1.685,0.294c-0.505,0.196-0.936,0.457-1.293,0.783
			c-0.356,0.327-0.633,0.709-0.829,1.148c-0.196,0.44-0.294,0.897-0.294,1.371c0,0.629,0.122,1.146,0.366,1.549
			c0.243,0.404,0.621,0.814,1.132,1.229c-0.238,0.178-0.461,0.369-0.669,0.571c-0.208,0.203-0.395,0.426-0.562,0.67
			c-0.166,0.244-0.297,0.515-0.392,0.812c-0.095,0.298-0.142,0.625-0.142,0.982c0,0.345,0.071,0.723,0.214,1.134
			c0.142,0.41,0.383,0.788,0.722,1.133c0.338,0.346,0.784,0.634,1.337,0.867c0.553,0.231,1.245,0.347,2.077,0.347
			c0.725,0,1.364-0.092,1.917-0.276c0.552-0.185,1.013-0.444,1.381-0.777c0.369-0.333,0.645-0.723,0.829-1.169
			c0.185-0.446,0.277-0.937,0.277-1.473C47.24,23.43,47.094,22.868,46.804,22.386"/>
	</g>
</g>
</svg>
