<?xml version="1.0" encoding="utf-8"?>
<!-- Generator: Adobe Illustrator 14.0.0, SVG Export Plug-In . SVG Version: 6.00 Build 43363)  -->
<!DOCTYPE svg PUBLIC "-//W3C//DTD SVG 1.1//EN" "http://www.w3.org/Graphics/SVG/1.1/DTD/svg11.dtd">
<svg version="1.1" id="Layer_1" xmlns="http://www.w3.org/2000/svg" xmlns:xlink="http://www.w3.org/1999/xlink" x="0px" y="0px"
	 width="24.491px" height="25.398px" viewBox="0 0 24.491 25.398" enable-background="new 0 0 24.491 25.398" xml:space="preserve">
<g>
	<path fill="#7670B2" d="M0.281,0.57c0,0-0.276,6.568-0.281,14.366s0.281,9.326,0.281,9.326s8.729,1.332,9.758,1.111
		c1.027-0.223,14.297-1.111,14.297-1.111s0.138-1.854,0.153-9.24c0.02-8.502-0.153-14.452-0.153-14.452S11.249,0.049,9.839,0.002
		C8.428-0.045,0.281,0.57,0.281,0.57"/>
	<g>
		<path fill="#FFFFFF" d="M10.917,19.92c-0.322,0-0.663-0.021-1.021-0.063c-0.358-0.042-0.705-0.099-1.039-0.171
			c-0.335-0.071-0.64-0.148-0.914-0.232c-0.275-0.084-0.49-0.161-0.646-0.233l0.52-2.222c0.311,0.132,0.708,0.271,1.192,0.421
			c0.483,0.149,1.084,0.225,1.801,0.225c0.824,0,1.427-0.155,1.81-0.467c0.382-0.311,0.573-0.729,0.573-1.254
			c0-0.322-0.068-0.594-0.206-0.815c-0.138-0.221-0.325-0.4-0.564-0.537c-0.239-0.137-0.522-0.233-0.851-0.287
			c-0.329-0.054-0.679-0.081-1.049-0.081H9.483v-2.15h1.183c0.263,0,0.517-0.024,0.762-0.072c0.244-0.047,0.463-0.128,0.654-0.242
			c0.19-0.113,0.343-0.269,0.457-0.466c0.113-0.197,0.17-0.445,0.17-0.744c0-0.227-0.048-0.424-0.144-0.591
			c-0.096-0.167-0.218-0.305-0.367-0.413c-0.149-0.107-0.322-0.188-0.52-0.242s-0.397-0.081-0.601-0.081
			c-0.514,0-0.988,0.078-1.425,0.233S8.82,9.784,8.462,10.01l-0.95-1.953c0.191-0.119,0.415-0.245,0.672-0.376
			C8.44,7.549,8.725,7.43,9.035,7.322s0.643-0.197,0.994-0.269c0.353-0.072,0.727-0.107,1.12-0.107c0.729,0,1.359,0.086,1.891,0.259
			c0.531,0.173,0.971,0.417,1.317,0.734c0.347,0.316,0.604,0.686,0.771,1.109s0.251,0.885,0.251,1.386
			c0,0.489-0.138,0.963-0.412,1.423c-0.275,0.459-0.646,0.808-1.111,1.046c0.646,0.263,1.144,0.655,1.496,1.176
			c0.353,0.52,0.529,1.145,0.529,1.874c0,0.575-0.096,1.104-0.287,1.588s-0.49,0.903-0.896,1.257
			c-0.406,0.353-0.923,0.628-1.551,0.825C12.521,19.821,11.777,19.92,10.917,19.92z"/>
	</g>
</g>
</svg>
