<?xml version="1.0" encoding="utf-8"?>
<!-- Generator: Adobe Illustrator 14.0.0, SVG Export Plug-In . SVG Version: 6.00 Build 43363)  -->
<!DOCTYPE svg PUBLIC "-//W3C//DTD SVG 1.1//EN" "http://www.w3.org/Graphics/SVG/1.1/DTD/svg11.dtd">
<svg version="1.1" id="Layer_1" xmlns="http://www.w3.org/2000/svg" xmlns:xlink="http://www.w3.org/1999/xlink" x="0px" y="0px"
	 width="820px" height="1060px" viewBox="0 0 820 1060" enable-background="new 0 0 820 1060" xml:space="preserve">
<g>
	<defs>
		<rect id="SVGID_1_" width="820" height="1060"/>
	</defs>
	<clipPath id="SVGID_2_">
		<use xlink:href="#SVGID_1_"  overflow="visible"/>
	</clipPath>
	<g clip-path="url(#SVGID_2_)">
		<rect x="-16.449" y="-14.312" fill="#F6921E" width="852.661" height="1088.505"/>
		<polygon fill="#F6921E" points="-16.449,-14.312 -16.449,52.88 836.213,76.396 836.213,-14.312 		"/>
		<polygon fill="#F6921E" points="-16.449,1074.193 836.213,1074.193 836.213,1034.662 -16.449,1025.59 		"/>
		<g>
			<defs>
				<rect id="SVGID_3_" x="-16.448" y="-14.313" width="852.662" height="1088.504"/>
			</defs>
			<clipPath id="SVGID_4_">
				<use xlink:href="#SVGID_3_"  overflow="visible"/>
			</clipPath>
			<path clip-path="url(#SVGID_4_)" fill="#FFE5CA" d="M53.291,61.693c20.023-1.929,400.471,0,440.519,0
				c40.047,0,297.282-12.158,300.353,9.248c6.675,46.53,6.675,753.02,6.675,830.813c0,56.033-2.67,126.535-6.675,126.535
				s-663.446,24.971-746.211,6.344c-6.674-89.414-4.004-421.578-4.004-594.855C43.947,385.231,42.612,114.406,53.291,61.693"/>
		</g>
		<g>
			<defs>
				<rect id="SVGID_5_" x="-16.448" y="-14.313" width="852.662" height="1088.504"/>
			</defs>
			<clipPath id="SVGID_6_">
				<use xlink:href="#SVGID_5_"  overflow="visible"/>
			</clipPath>
		</g>
		<g>
			<defs>
				<rect id="SVGID_7_" x="-16.448" y="-14.313" width="852.662" height="1088.504"/>
			</defs>
			<clipPath id="SVGID_8_">
				<use xlink:href="#SVGID_7_"  overflow="visible"/>
			</clipPath>
		</g>
		<g>
			<defs>
				<rect id="SVGID_9_" x="-16.448" y="-14.313" width="852.662" height="1088.504"/>
			</defs>
			<clipPath id="SVGID_10_">
				<use xlink:href="#SVGID_9_"  overflow="visible"/>
			</clipPath>
		</g>
		<g>
			<defs>
				<rect id="SVGID_11_" x="-16.448" y="-14.313" width="852.662" height="1088.504"/>
			</defs>
			<clipPath id="SVGID_12_">
				<use xlink:href="#SVGID_11_"  overflow="visible"/>
			</clipPath>
		</g>
		<g>
			<defs>
				<rect id="SVGID_13_" x="-16.448" y="-14.313" width="852.662" height="1088.504"/>
			</defs>
			<clipPath id="SVGID_14_">
				<use xlink:href="#SVGID_13_"  overflow="visible"/>
			</clipPath>
		</g>
		<g>
			<defs>
				<rect id="SVGID_15_" x="-16.448" y="-14.313" width="852.662" height="1088.504"/>
			</defs>
			<clipPath id="SVGID_16_">
				<use xlink:href="#SVGID_15_"  overflow="visible"/>
			</clipPath>
		</g>
		<g>
			<defs>
				<rect id="SVGID_17_" x="-16.448" y="-14.313" width="852.662" height="1088.504"/>
			</defs>
			<clipPath id="SVGID_18_">
				<use xlink:href="#SVGID_17_"  overflow="visible"/>
			</clipPath>
		</g>
	</g>
</g>
</svg>
