<?xml version="1.0" encoding="utf-8"?>
<!-- Generator: Adobe Illustrator 21.1.0, SVG Export Plug-In . SVG Version: 6.00 Build 0)  -->
<svg version="1.1" id="Capa_1" xmlns="http://www.w3.org/2000/svg" xmlns:xlink="http://www.w3.org/1999/xlink" x="0px" y="0px"
	 viewBox="0 0 17.362 17.116" style="enable-background:new 0 0 17.362 17.116;" xml:space="preserve">
<style type="text/css">
	.st0{clip-path:url(#SVGID_2_);fill:#FFFFFF;}
	.st1{clip-path:url(#SVGID_2_);fill:none;stroke:#AEC90B;stroke-width:0.955;stroke-linecap:round;}
	.st2{clip-path:url(#SVGID_2_);fill:#AEC90B;}
</style>
<g>
	<defs>
		<rect id="SVGID_1_" width="17.362" height="17.116"/>
	</defs>
	<clipPath id="SVGID_2_">
		<use xlink:href="#SVGID_1_"  style="overflow:visible;"/>
	</clipPath>
	<path class="st0" d="M4.088,0.478c0,0-3.61,0-3.61,3.61v8.941c0,0,0,3.61,3.61,3.61l9.449-0.003l3.309-8.078l-3.346-8.077
		L4.088,0.478z"/>
	<path class="st1" d="M4.088,0.478c0,0-3.61,0-3.61,3.61v8.941c0,0,0,3.61,3.61,3.61l9.449-0.003l3.309-8.078l-3.346-8.077
		L4.088,0.478z"/>
	<path class="st2" d="M10.09,5.833c0.352,0.106,0.664,0.231,0.936,0.376l0.573-1.592c-0.068-0.043-0.18-0.102-0.337-0.179
		c-0.158-0.076-0.357-0.15-0.599-0.222c-0.242-0.072-0.531-0.136-0.866-0.191C9.462,3.969,9.086,3.942,8.67,3.942
		c-0.611,0-1.187,0.102-1.726,0.305C6.405,4.451,5.936,4.751,5.537,5.145C5.138,5.54,4.824,6.022,4.595,6.591
		S4.251,7.813,4.251,8.552c0,0.73,0.104,1.38,0.312,1.948c0.208,0.569,0.503,1.049,0.885,1.44c0.382,0.39,0.843,0.687,1.382,0.891
		c0.539,0.204,1.14,0.306,1.802,0.306c0.772,0,1.422-0.053,1.948-0.16c0.527-0.106,0.909-0.205,1.146-0.299V8.31H9.74v3.069
		c-0.119,0.026-0.257,0.043-0.414,0.051c-0.157,0.009-0.346,0.013-0.567,0.013c-0.407,0-0.764-0.07-1.07-0.21
		c-0.305-0.14-0.56-0.338-0.764-0.592c-0.203-0.255-0.356-0.559-0.458-0.911C6.365,9.378,6.314,8.985,6.314,8.552
		c0-0.892,0.206-1.594,0.618-2.108c0.411-0.513,1.08-0.77,2.005-0.77C9.353,5.674,9.738,5.727,10.09,5.833"/>
</g>
</svg>
