<svg id="Capa_1" data-name="Capa 1" xmlns="http://www.w3.org/2000/svg" xmlns:xlink="http://www.w3.org/1999/xlink" viewBox="0 0 26.36 30.46"><defs><style>.cls-1{fill:none;}.cls-2{fill:#d6d2e8;}.cls-3{clip-path:url(#clip-path);}.cls-4{fill:#fff;}</style><clipPath id="clip-path" transform="translate(0 0)"><rect class="cls-1" width="26.36" height="30.46"/></clipPath></defs><polygon class="cls-2" points="12.47 11.71 0.58 1.62 0.22 19.28 4.54 21.81 12.83 29.74 19.68 22.89 25.44 16.76 25.8 0.54 12.47 11.71"/><g class="cls-3"><path class="cls-4" d="M23.08,17.53a2.33,2.33,0,0,0,1-1.77c0-3.77.06-7.54.09-11.31,0-.36,0-.72-.07-1.26a19.46,19.46,0,0,0-3.55,2.95,29.67,29.67,0,0,1-5.12,4.64,7.62,7.62,0,0,0-1.1,1.1,1.33,1.33,0,0,1-1.68.29,9.55,9.55,0,0,1-1.52-1L2.47,3.78c-.23,2.55-.06,4.82-.06,7.08s.06,4.52.11,7A89.37,89.37,0,0,1,12.7,28.09c1.87-1.92,3.64-3.74,5.41-5.54s3.28-3.38,5-5m-8.6,12.06c-1.21,1.09-2,1.19-3.18.11-.83-.76-1.59-1.61-2.38-2.42-2.18-2.21-4.36-4.44-6.56-6.64a5.93,5.93,0,0,0-1.39-1,1.84,1.84,0,0,1-1-1.87c.07-3.58.1-7.17.15-10.75,0-1.7,0-3.4.12-5.09C.35.77,1.14.42,2.12,1.09A21.56,21.56,0,0,1,3.88,2.52l9,7.46a38,38,0,0,0,4.09-3.4A47.79,47.79,0,0,1,24.35.3c.68-.49,1.3-.39,1.59.37a5.82,5.82,0,0,1,.39,1.93c0,4.67,0,9.34,0,14a1.85,1.85,0,0,1-1.09,1.83,3.87,3.87,0,0,0-1,.81c-3.39,3.34-6.29,7.15-9.83,10.35" transform="translate(0 0)"/></g></svg>