<?xml version="1.0" encoding="utf-8"?>
<!-- Generator: Adobe Illustrator 21.1.0, SVG Export Plug-In . SVG Version: 6.00 Build 0)  -->
<svg version="1.1" id="Capa_1" xmlns="http://www.w3.org/2000/svg" xmlns:xlink="http://www.w3.org/1999/xlink" x="0px" y="0px"
	 viewBox="0 0 50.2 32.8" style="enable-background:new 0 0 50.2 32.8;" xml:space="preserve">
<style type="text/css">
	.st0{clip-path:url(#SVGID_2_);}
	.st1{clip-path:url(#SVGID_4_);fill:#005CA8;}
	.st2{filter:url(#Adobe_OpacityMaskFilter);}
	.st3{clip-path:url(#SVGID_4_);}
	.st4{clip-path:url(#SVGID_4_);mask:url(#SVGID_5_);}
	.st5{opacity:0.2;clip-path:url(#SVGID_9_);fill:#1D1D1B;}
	.st6{clip-path:url(#SVGID_2_);fill:#FFFFFF;}
	.st7{clip-path:url(#SVGID_11_);fill:none;stroke:#005CA8;stroke-width:1.686;stroke-linecap:round;}
	.st8{clip-path:url(#SVGID_2_);fill:none;stroke:#005CA8;stroke-width:1.124;stroke-linecap:round;}
	.st9{clip-path:url(#SVGID_13_);fill:#005CA8;}
	.st10{clip-path:url(#SVGID_15_);fill:#FFFFFF;}
</style>
<g>
	<defs>
		<rect id="SVGID_1_" width="50.2" height="32.8"/>
	</defs>
	<clipPath id="SVGID_2_">
		<use xlink:href="#SVGID_1_"  style="overflow:visible;"/>
	</clipPath>
	<g class="st0">
		<defs>
			<rect id="SVGID_3_" y="0" width="50.2" height="32.8"/>
		</defs>
		<clipPath id="SVGID_4_">
			<use xlink:href="#SVGID_3_"  style="overflow:visible;"/>
		</clipPath>
		<path class="st1" d="M23.9,10.9c0,0-1.7,0-1.7,1.7v13.7c0,0,0,1.7,1.7,1.7h24.6c0,0,1.7,0,1.7-1.7V12.6c0,0,0-1.7-1.7-1.7H23.9z"
			/>
		<defs>
			<filter id="Adobe_OpacityMaskFilter" filterUnits="userSpaceOnUse" x="2.9" y="-1.1" width="24.5" height="31.7">
				<feColorMatrix  type="matrix" values="1 0 0 0 0  0 1 0 0 0  0 0 1 0 0  0 0 0 1 0"/>
			</filter>
		</defs>
		<mask maskUnits="userSpaceOnUse" x="2.9" y="-1.1" width="24.5" height="31.7" id="SVGID_5_">
			<g class="st2">
				<g>
					<defs>
						<rect id="SVGID_6_" x="-6" y="-8" width="42.2" height="39.6"/>
					</defs>
					<clipPath id="SVGID_7_" class="st3">
						<use xlink:href="#SVGID_6_"  style="overflow:visible;"/>
					</clipPath>
					<g style="clip-path:url(#SVGID_7_);">
						
							<image style="overflow:visible;" width="176" height="165" xlink:href="16632B42EB854E94.jpg"  transform="matrix(0.24 0 0 0.24 -5.9737 -8.0201)">
						</image>
					</g>
				</g>
			</g>
		</mask>
		<g class="st4">
			<g>
				<defs>
					<rect id="SVGID_8_" x="2.9" y="-1.1" width="24.5" height="31.7"/>
				</defs>
				<clipPath id="SVGID_9_">
					<use xlink:href="#SVGID_8_"  style="overflow:visible;"/>
				</clipPath>
				<rect x="2.9" y="-1.1" class="st5" width="24.5" height="31.7"/>
			</g>
		</g>
	</g>
	<rect x="1.4" y="0.6" class="st6" width="24.3" height="31.4"/>
	<g class="st0">
		<defs>
			<rect id="SVGID_10_" y="0" width="50.2" height="32.8"/>
		</defs>
		<clipPath id="SVGID_11_">
			<use xlink:href="#SVGID_10_"  style="overflow:visible;"/>
		</clipPath>
		<path class="st7" d="M0.8,0.8v28.3c0,0,0.4,2.9,1.5,2.9h24.1c-1.2,0-1.5-2.9-1.5-2.9V0.8H0.8z"/>
	</g>
	<rect x="4.4" y="10.1" class="st8" width="7.4" height="7.3"/>
	<g class="st0">
		<defs>
			<rect id="SVGID_12_" y="0" width="50.2" height="32.8"/>
		</defs>
		<clipPath id="SVGID_13_">
			<use xlink:href="#SVGID_12_"  style="overflow:visible;"/>
		</clipPath>
		<path class="st9" d="M20.4,5.7l0.4-1.5l0.4,1.5H20.4z M21.7,7.2h0.8l-1.2-3.8h-0.8l-1.2,3.8H20l0.3-0.9h1.2L21.7,7.2z M19.4,3.4
			h-2.7v0.7h1v3.1h0.7V4.1h1V3.4z M14.1,6.2l-0.3,0.5c0.4,0.3,0.8,0.5,1.3,0.5c0.7,0,1.3-0.4,1.3-1.2c0-1.4-1.8-0.9-1.8-1.6
			c0-0.3,0.2-0.4,0.6-0.4c0.3,0,0.6,0.1,0.8,0.3l0.3-0.5c-0.3-0.3-0.8-0.4-1.2-0.4c-0.7,0-1.2,0.4-1.2,1.1c0,1.3,1.8,0.9,1.8,1.6
			c0,0.3-0.2,0.4-0.6,0.4C14.8,6.6,14.4,6.4,14.1,6.2 M12.5,7.2h0.7V3.4h-0.7V7.2z M9.9,3.4H9.1l1.2,3.8h0.6l1.2-3.8h-0.7L10.6,6
			L9.9,3.4z M6.5,7.2h2.3V6.5H7.3V5.6h1.3V5H7.3V4.1h1.5V3.4H6.5V7.2z M4.1,5.2V4.1h0.5c0.4,0,0.6,0.2,0.6,0.6
			c0,0.4-0.2,0.5-0.6,0.5H4.1z M3.4,7.2h0.7V5.8h0.4l0.7,1.4h0.9L5.2,5.7c0.4-0.2,0.7-0.6,0.7-1.1c0-0.7-0.5-1.2-1.3-1.2H3.4V7.2z"
			/>
	</g>
	<line class="st8" x1="13.9" y1="11.3" x2="21.5" y2="11.3"/>
	<line class="st8" x1="13.9" y1="14.3" x2="21.5" y2="14.3"/>
	<line class="st8" x1="13.9" y1="17.4" x2="21.5" y2="17.4"/>
	<line class="st8" x1="4" y1="21.6" x2="22.4" y2="21.6"/>
	<line class="st8" x1="4" y1="24.5" x2="22.4" y2="24.5"/>
	<line class="st8" x1="4" y1="27.7" x2="22.4" y2="27.7"/>
	<g class="st0">
		<defs>
			<rect id="SVGID_14_" y="0" width="50.2" height="32.8"/>
		</defs>
		<clipPath id="SVGID_15_">
			<use xlink:href="#SVGID_14_"  style="overflow:visible;"/>
		</clipPath>
		<path class="st10" d="M43.8,25.2c0.6-0.2,1.1-0.4,1.5-0.8c0.4-0.3,0.7-0.7,0.8-1.2c0.2-0.5,0.3-1,0.3-1.5c0-0.7-0.2-1.3-0.5-1.8
			c-0.3-0.5-0.8-0.9-1.4-1.1c0.4-0.2,0.8-0.6,1-1c0.3-0.4,0.4-0.9,0.4-1.3c0-0.5-0.1-0.9-0.2-1.3c-0.2-0.4-0.4-0.7-0.7-1
			c-0.3-0.3-0.7-0.5-1.2-0.7c-0.5-0.2-1.1-0.2-1.8-0.2c-0.4,0-0.7,0-1.1,0.1c-0.3,0.1-0.6,0.2-0.9,0.3c-0.3,0.1-0.6,0.2-0.8,0.3
			c-0.2,0.1-0.5,0.2-0.6,0.4l0.9,1.8c0.3-0.2,0.7-0.4,1.1-0.5c0.4-0.1,0.9-0.2,1.3-0.2c0.2,0,0.4,0,0.6,0.1c0.2,0.1,0.4,0.1,0.5,0.2
			c0.1,0.1,0.3,0.2,0.3,0.4c0.1,0.2,0.1,0.3,0.1,0.6c0,0.3-0.1,0.5-0.2,0.7c-0.1,0.2-0.3,0.3-0.4,0.4c-0.2,0.1-0.4,0.2-0.6,0.2
			C42,18,41.7,18,41.5,18h-1.1v2h1c0.4,0,0.7,0,1,0.1c0.3,0.1,0.6,0.1,0.8,0.3c0.2,0.1,0.4,0.3,0.5,0.5c0.1,0.2,0.2,0.5,0.2,0.8
			c0,0.5-0.2,0.9-0.5,1.2c-0.4,0.3-0.9,0.4-1.7,0.4c-0.7,0-1.2-0.1-1.7-0.2c-0.5-0.1-0.8-0.3-1.1-0.4l-0.5,2.1
			c0.1,0.1,0.3,0.1,0.6,0.2c0.3,0.1,0.5,0.2,0.9,0.2c0.3,0.1,0.6,0.1,1,0.2c0.3,0,0.7,0.1,1,0.1C42.5,25.5,43.2,25.4,43.8,25.2
			 M33.7,21.8c-0.3,0.3-0.6,0.6-1,0.8c-0.4,0.2-0.9,0.3-1.4,0.4c-0.5,0.1-1.1,0.1-1.7,0.1c0,0.4,0,0.7,0.1,1c0,0.3,0,0.7,0.1,1
			c1.3,0,2.4-0.2,3.3-0.5c0.9-0.3,1.7-0.7,2.3-1.3c0.6-0.6,1-1.3,1.3-2.1c0.3-0.8,0.4-1.8,0.4-2.9c0-1.7-0.4-3-1.1-3.9
			c-0.7-0.9-1.8-1.3-3.3-1.3c-0.7,0-1.3,0.1-1.8,0.4c-0.5,0.3-0.9,0.6-1.2,1s-0.6,0.8-0.7,1.3c-0.2,0.5-0.2,0.9-0.2,1.4
			c0,0.5,0.1,1,0.2,1.5c0.2,0.5,0.4,0.8,0.7,1.2c0.3,0.3,0.8,0.6,1.3,0.7c0.5,0.2,1.1,0.3,1.9,0.3c0.2,0,0.4,0,0.7-0.1
			c0.3-0.1,0.5-0.1,0.8-0.2C34.2,21.1,34,21.5,33.7,21.8 M31.7,18.5c-0.3-0.3-0.4-0.7-0.4-1.4c0-0.2,0-0.4,0.1-0.6
			c0.1-0.2,0.2-0.4,0.3-0.6c0.1-0.2,0.3-0.3,0.5-0.4c0.2-0.1,0.4-0.2,0.7-0.2c0.3,0,0.6,0.1,0.9,0.2s0.4,0.4,0.5,0.6
			c0.1,0.3,0.2,0.6,0.3,0.9c0.1,0.4,0.1,0.7,0.1,1.1c0,0,0,0.1,0,0.1c0,0,0,0.1,0,0.1v0.2c-0.1,0.1-0.3,0.2-0.6,0.2
			c-0.3,0-0.6,0.1-0.8,0.1C32.5,18.9,32,18.8,31.7,18.5"/>
	</g>
</g>
</svg>
