<?xml version="1.0" encoding="utf-8"?>
<!-- Generator: Adobe Illustrator 14.0.0, SVG Export Plug-In . SVG Version: 6.00 Build 43363)  -->
<!DOCTYPE svg PUBLIC "-//W3C//DTD SVG 1.1//EN" "http://www.w3.org/Graphics/SVG/1.1/DTD/svg11.dtd">
<svg version="1.1" id="Layer_1" xmlns="http://www.w3.org/2000/svg" xmlns:xlink="http://www.w3.org/1999/xlink" x="0px" y="0px"
	 width="15.699px" height="18.805px" viewBox="0 0 15.699 18.805" enable-background="new 0 0 15.699 18.805" xml:space="preserve">
<polygon fill="#EC1C24" points="7.723,14.374 7.673,14.52 7.601,14.727 7.558,14.852 7.508,14.985 7.455,15.129 7.4,15.283 
	7.341,15.443 7.279,15.609 7.214,15.78 7.146,15.953 7.114,16.042 7.078,16.13 7.044,16.22 7.007,16.31 6.971,16.397 6.933,16.488 
	6.896,16.575 6.86,16.665 6.823,16.754 6.784,16.84 6.747,16.928 6.708,17.014 6.668,17.099 6.629,17.184 6.591,17.266 
	6.551,17.349 6.511,17.43 6.469,17.51 6.428,17.588 6.388,17.665 6.346,17.739 6.323,17.779 6.301,17.815 6.278,17.852 6.257,17.89 
	6.232,17.926 6.209,17.963 6.186,17.999 6.159,18.036 6.133,18.073 6.106,18.108 6.08,18.147 6.051,18.184 6.021,18.221 
	5.988,18.258 5.953,18.297 5.918,18.334 5.877,18.375 5.834,18.417 5.788,18.458 5.736,18.501 5.679,18.542 5.615,18.586 
	5.543,18.63 5.459,18.672 5.368,18.713 5.275,18.745 5.208,18.764 5.146,18.78 5.083,18.79 5.018,18.799 4.948,18.803 4.875,18.805 
	4.801,18.803 4.709,18.796 4.594,18.778 4.476,18.745 4.373,18.708 4.285,18.667 4.21,18.624 4.15,18.584 4.096,18.543 4.04,18.501 
	3.972,18.44 3.912,18.379 3.863,18.325 3.823,18.276 3.785,18.23 3.757,18.186 3.728,18.145 3.703,18.105 3.678,18.071 
	3.655,18.032 3.636,17.995 3.613,17.959 3.593,17.924 3.573,17.886 3.535,17.818 3.511,17.772 3.5,17.747 3.463,17.675 
	3.429,17.604 3.396,17.53 3.36,17.459 3.329,17.387 3.298,17.317 3.268,17.245 3.238,17.175 3.208,17.108 3.154,16.981 
	3.106,16.866 3.03,16.685 3.014,16.644 2.941,16.497 2.875,16.358 2.87,16.35 2.798,16.207 2.726,16.061 2.65,15.917 2.615,15.846 
	2.578,15.778 2.54,15.704 2.503,15.633 2.467,15.565 2.429,15.495 2.391,15.426 2.353,15.356 2.314,15.288 2.278,15.22 
	2.238,15.151 2.199,15.083 2.159,15.015 2.12,14.946 2.08,14.88 2.043,14.811 2,14.745 1.989,14.724 1.96,14.68 1.92,14.614 
	1.881,14.547 1.839,14.483 1.801,14.417 1.758,14.352 1.717,14.287 1.676,14.22 1.633,14.157 1.593,14.092 1.548,14.029 
	1.504,13.965 1.462,13.901 1.42,13.838 1.375,13.774 1.33,13.713 1.287,13.651 1.24,13.586 1.196,13.524 1.153,13.463 1.105,13.401 
	1.058,13.338 1.013,13.279 0.967,13.217 0.918,13.155 0.87,13.094 0.821,13.036 0.774,12.975 0.726,12.915 0.676,12.858 
	0.625,12.795 0.575,12.735 0.525,12.678 0.476,12.62 0.423,12.559 0.4,12.534 0.373,12.501 0.318,12.439 0.313,12.438 0,11.524 
	0.418,10.653 0.423,10.649 1.339,10.333 2.208,10.751 2.21,10.754 2.27,10.821 2.304,10.86 2.33,10.893 2.393,10.961 2.453,11.034 
	2.513,11.104 2.571,11.172 2.629,11.247 2.688,11.317 2.745,11.387 2.803,11.459 2.86,11.532 2.915,11.602 2.971,11.675 
	3.025,11.748 3.08,11.821 3.136,11.893 3.188,11.965 3.243,12.038 3.295,12.114 3.346,12.186 3.397,12.258 3.45,12.334 3.5,12.407 
	3.551,12.481 3.601,12.557 3.649,12.631 3.7,12.706 3.749,12.779 3.797,12.855 3.844,12.93 3.893,13.006 3.94,13.082 3.985,13.155 
	4.033,13.233 4.078,13.307 4.123,13.385 4.155,13.436 4.169,13.459 4.213,13.538 4.258,13.616 4.301,13.69 4.346,13.769 
	4.389,13.844 4.433,13.922 4.476,13.999 4.518,14.078 4.56,14.155 4.6,14.234 4.643,14.311 4.683,14.39 4.726,14.466 4.764,14.545 
	4.806,14.625 4.846,14.703 4.886,14.784 4.964,14.94 5.006,15.026 5.056,14.905 5.125,14.749 5.188,14.595 5.25,14.446 
	5.311,14.303 5.365,14.167 5.417,14.04 5.466,13.922 5.543,13.721 5.604,13.573 5.627,13.512 5.647,13.465 5.748,13.234 
	5.848,13.01 5.948,12.786 5.971,12.739 6.049,12.564 6.153,12.34 6.254,12.12 6.36,11.897 6.464,11.675 6.57,11.453 6.677,11.233 
	6.783,11.013 6.892,10.792 6.999,10.571 7.11,10.35 7.219,10.131 7.33,9.914 7.387,9.8 7.445,9.694 7.503,9.584 7.558,9.474 
	7.615,9.366 7.673,9.256 7.73,9.149 7.788,9.039 7.846,8.932 7.905,8.823 7.963,8.715 8.021,8.606 8.082,8.499 8.141,8.39 
	8.2,8.281 8.261,8.175 8.32,8.069 8.383,7.961 8.443,7.853 8.503,7.747 8.565,7.639 8.604,7.57 8.628,7.533 8.688,7.426 8.752,7.32 
	8.814,7.215 8.877,7.109 8.94,7.004 9.006,6.897 9.068,6.794 9.133,6.688 9.198,6.583 9.263,6.479 9.328,6.373 9.393,6.27 
	9.46,6.164 9.525,6.06 9.593,5.958 9.659,5.853 9.727,5.751 9.793,5.647 9.86,5.544 9.929,5.441 9.997,5.338 10.065,5.235 
	10.101,5.185 10.136,5.135 10.204,5.031 10.275,4.93 10.346,4.829 10.417,4.727 10.485,4.628 10.558,4.526 10.629,4.426 
	10.703,4.325 10.772,4.224 10.847,4.124 10.92,4.025 10.993,3.928 11.065,3.825 11.141,3.729 11.214,3.63 11.29,3.53 11.365,3.433 
	11.44,3.334 11.516,3.236 11.592,3.14 11.668,3.042 11.747,2.945 11.825,2.849 11.901,2.751 11.98,2.658 12.06,2.56 12.138,2.465 
	12.216,2.369 12.295,2.274 12.378,2.18 12.457,2.085 12.538,1.991 12.62,1.896 12.701,1.803 12.783,1.71 12.865,1.616 12.95,1.524 
	13.033,1.432 13.115,1.34 13.2,1.249 13.285,1.155 13.37,1.065 13.457,0.974 13.543,0.884 13.629,0.794 13.717,0.704 13.803,0.614 
	13.892,0.525 13.98,0.435 14.07,0.347 14.16,0.259 14.801,0 15.437,0.265 15.441,0.27 15.699,0.909 15.436,1.548 15.433,1.549 
	15.348,1.634 15.266,1.716 15.186,1.799 15.102,1.884 15.021,1.968 14.94,2.051 14.86,2.136 14.779,2.219 14.7,2.305 14.622,2.393 
	14.543,2.478 14.464,2.564 14.386,2.65 14.31,2.738 14.232,2.824 14.155,2.913 14.08,3.001 14.006,3.089 13.928,3.178 13.853,3.268 
	13.779,3.359 13.705,3.446 13.633,3.537 13.558,3.628 13.485,3.718 13.413,3.809 13.343,3.9 13.33,3.913 13.271,3.994 13.198,4.083 
	13.129,4.176 13.058,4.269 12.986,4.363 12.919,4.455 12.848,4.55 12.78,4.644 12.712,4.738 12.646,4.833 12.575,4.926 
	12.509,5.021 12.443,5.118 12.378,5.213 12.311,5.309 12.245,5.405 12.179,5.503 12.115,5.599 12.051,5.695 11.985,5.792 
	11.922,5.89 11.857,5.988 11.795,6.088 11.732,6.185 11.7,6.235 11.67,6.284 11.607,6.381 11.545,6.481 11.484,6.58 11.422,6.68 
	11.36,6.779 11.303,6.88 11.24,6.981 11.183,7.083 11.122,7.182 11.063,7.283 11.003,7.384 10.945,7.486 10.888,7.589 10.83,7.689 
	10.772,7.792 10.716,7.894 10.658,7.997 10.601,8.1 10.543,8.203 10.49,8.305 10.433,8.408 10.377,8.511 10.357,8.549 10.32,8.615 
	10.267,8.719 10.212,8.825 10.158,8.929 10.103,9.033 10.049,9.138 9.995,9.241 9.94,9.347 9.888,9.453 9.835,9.557 9.783,9.663 
	9.73,9.769 9.677,9.874 9.625,9.98 9.574,10.085 9.525,10.191 9.473,10.298 9.42,10.405 9.37,10.511 9.32,10.62 9.271,10.728 
	9.221,10.834 9.12,11.048 9.022,11.264 8.927,11.48 8.83,11.696 8.735,11.915 8.641,12.13 8.548,12.349 8.454,12.567 8.363,12.786 
	8.272,13.006 8.182,13.225 8.093,13.446 8.024,13.62 8.006,13.665 7.915,13.885 7.828,14.105 7.74,14.329 7.749,14.31 7.739,14.334 
	"/>
</svg>
