<?xml version="1.0" encoding="utf-8"?>
<!-- Generator: Adobe Illustrator 26.0.0, SVG Export Plug-In . SVG Version: 6.00 Build 0)  -->
<svg version="1.1" id="Capa_3" xmlns="http://www.w3.org/2000/svg" xmlns:xlink="http://www.w3.org/1999/xlink" x="0px" y="0px"
	 viewBox="0 0 466.7 607.9" style="enable-background:new 0 0 466.7 607.9;" xml:space="preserve">
<style type="text/css">
	.st0{fill:none;stroke:#C7E8F0;stroke-width:2;stroke-linecap:round;stroke-dasharray:6,5;}
	.st1{fill:#C7E8F0;}
</style>
<path class="st0" d="M146.8,359.9c0,0-67-19.1-68.7-57.1s35.1-47.5,110.4-44.1c75.4,3.5,191.7,1.4,192.8-53.3s-110-39.7-158.1-37.8
	c-48.1,1.9-137.2,6-140.8-45.2c-3-43.6,163.7-29.9,163.7-29.9s150.8,7.4,149.2-24.1c-1.7-31.5-74.1-42-110.1-45.2
	c-26.2-2.4-76.6-3.9-102.9-4.5"/>
<g>
	<path class="st1" d="M214.9,98.1c-0.3,0-0.4-0.1-0.6-0.3l-7-7.1l6.3-7.6c0.3-0.3,0.9-0.4,1.2-0.1c0.3,0.3,0.4,0.9,0.1,1.2l-5.3,6.4
		l6,6c0.3,0.3,0.3,0.9,0,1.2C215.3,98,215.1,98.1,214.9,98.1L214.9,98.1z"/>
</g>
<g>
	<path class="st1" d="M234.9,159.3c0.3,0,0.4,0.1,0.6,0.2l7.2,6.9l-6.1,7.8c-0.3,0.4-0.8,0.5-1.2,0.1c-0.4-0.3-0.5-0.8-0.1-1.2
		l5.1-6.6l-6.2-5.8c-0.4-0.3-0.4-0.8,0-1.2C234.4,159.4,234.6,159.3,234.9,159.3L234.9,159.3z"/>
</g>
<g>
	<path class="st1" d="M285.2,264.8c-0.3,0-0.4,0-0.6-0.2l-7.7-6.4l5.6-8.2c0.3-0.4,0.8-0.5,1.2-0.2s0.5,0.8,0.2,1.2l-4.7,6.9
		l6.6,5.4c0.4,0.3,0.4,0.8,0.1,1.2C285.6,264.7,285.5,264.8,285.2,264.8L285.2,264.8z"/>
</g>
<g>
	<path class="st1" d="M85.6,302.3c0,0.3,0,0.4-0.2,0.6l-6.3,7.7l-8.3-5.5c-0.4-0.3-0.5-0.8-0.2-1.2c0.3-0.4,0.8-0.5,1.2-0.2l7,4.6
		l5.3-6.6c0.3-0.4,0.8-0.4,1.2-0.1C85.5,301.9,85.6,302.1,85.6,302.3L85.6,302.3z"/>
</g>
<g>
	<path class="st1" d="M270,14.6c0.3,0,0.4,0.1,0.6,0.3l6.6,7.6l-6.8,7.2c-0.4,0.3-0.9,0.4-1.2,0c-0.3-0.4-0.4-0.9,0-1.2l5.7-6.1
		l-5.6-6.4c-0.3-0.4-0.3-0.9,0.1-1.2C269.5,14.7,269.7,14.6,270,14.6L270,14.6z"/>
</g>
</svg>
