<?xml version="1.0" encoding="utf-8"?>
<!-- Generator: Adobe Illustrator 26.0.1, SVG Export Plug-In . SVG Version: 6.00 Build 0)  -->
<svg version="1.1" id="Capa_1" xmlns="http://www.w3.org/2000/svg" xmlns:xlink="http://www.w3.org/1999/xlink" x="0px" y="0px"
	 viewBox="0 0 53.1 315.9" style="enable-background:new 0 0 53.1 315.9;" xml:space="preserve">
<style type="text/css">
	.st0{clip-path:url(#SVGID_00000031187689675989209340000005444992874230585774_);fill:#4F4F4E;}
	.st1{clip-path:url(#SVGID_00000131325900988220859000000009970542321408498078_);fill:#4F4F4E;}
	
		.st2{clip-path:url(#SVGID_00000035522005810685406390000012436032669372399518_);fill:none;stroke:#FFCB00;stroke-width:3.821;stroke-linecap:round;}
	.st3{clip-path:url(#SVGID_00000060711919624498896470000005062092048019930032_);fill:#4F4F4E;}
	.st4{clip-path:url(#SVGID_00000176009145773195268260000006760956763639995020_);fill:#4F4F4E;}
	
		.st5{clip-path:url(#SVGID_00000139257708836679922070000013287185891267605647_);fill:none;stroke:#FFCB00;stroke-width:3.821;stroke-linecap:round;}
	.st6{clip-path:url(#SVGID_00000008829653436314981200000007844765650335842228_);fill:#4F4F4E;}
	.st7{clip-path:url(#SVGID_00000049193667201971403050000007926459214678783381_);fill:#4F4F4E;}
	
		.st8{clip-path:url(#SVGID_00000119079986804482371010000002447691659765012142_);fill:none;stroke:#FFCB00;stroke-width:3.821;stroke-linecap:round;}
	.st9{clip-path:url(#SVGID_00000098205480244816283740000000009865202283362745_);fill:#4F4F4E;}
	.st10{clip-path:url(#SVGID_00000043450456452968947650000004877163420472169918_);fill:#4F4F4E;}
	
		.st11{clip-path:url(#SVGID_00000135681291654607565080000014073845037463072926_);fill:none;stroke:#FFCB00;stroke-width:3.821;stroke-linecap:round;}
	.st12{clip-path:url(#SVGID_00000116231440936538334720000003644475428813783951_);fill:#4F4F4E;}
	.st13{clip-path:url(#SVGID_00000031915436294674172720000005843038168860584067_);fill:#4F4F4E;}
	
		.st14{clip-path:url(#SVGID_00000028322838544515965300000007326287315279796927_);fill:none;stroke:#FFCB00;stroke-width:3.821;stroke-linecap:round;}
	.st15{clip-path:url(#SVGID_00000150088651287366778780000016536673642501921456_);fill:#4F4F4E;}
	.st16{clip-path:url(#SVGID_00000157988298888095188980000013050066379282575746_);fill:#4F4F4E;}
	
		.st17{clip-path:url(#SVGID_00000021808035824909752290000015761751888858248354_);fill:none;stroke:#FFCB00;stroke-width:3.821;stroke-linecap:round;}
</style>
<g>
	<g>
		<g>
			<g>
				<g>
					<defs>
						<rect id="SVGID_1_" x="-0.1" y="0" width="53.1" height="9.2"/>
					</defs>
					<clipPath id="SVGID_00000042018302796002124050000010329850084520628158_">
						<use xlink:href="#SVGID_1_"  style="overflow:visible;"/>
					</clipPath>
					<path style="clip-path:url(#SVGID_00000042018302796002124050000010329850084520628158_);fill:#4F4F4E;" d="M4.5,9.2
						c2.5,0,4.6-2.1,4.6-4.6S7,0,4.5,0s-4.6,2.1-4.6,4.6S2,9.2,4.5,9.2"/>
				</g>
			</g>
		</g>
	</g>
	<g>
		<g>
			<g>
				<g>
					<defs>
						<rect id="SVGID_00000160168902334976130400000009350937447095624090_" x="-0.1" y="0" width="53.1" height="9.2"/>
					</defs>
					<clipPath id="SVGID_00000006677420449228210330000007855987802376929981_">
						<use xlink:href="#SVGID_00000160168902334976130400000009350937447095624090_"  style="overflow:visible;"/>
					</clipPath>
					<path style="clip-path:url(#SVGID_00000006677420449228210330000007855987802376929981_);fill:#4F4F4E;" d="M48.4,9.2
						c2.5,0,4.6-2.1,4.6-4.6S51,0,48.4,0s-4.6,2.1-4.6,4.6S45.9,9.2,48.4,9.2"/>
				</g>
			</g>
		</g>
	</g>
	<g>
		<g>
			<g>
				<g>
					<defs>
						<rect id="SVGID_00000081610073392182758570000010804859924895200431_" x="-0.1" y="0" width="53.1" height="9.2"/>
					</defs>
					<clipPath id="SVGID_00000155844970945713313970000008912632946091232185_">
						<use xlink:href="#SVGID_00000081610073392182758570000010804859924895200431_"  style="overflow:visible;"/>
					</clipPath>
					
						<line style="clip-path:url(#SVGID_00000155844970945713313970000008912632946091232185_);fill:none;stroke:#FFCB00;stroke-width:3.821;stroke-linecap:round;" x1="6.4" y1="4.6" x2="47.5" y2="4.6"/>
				</g>
			</g>
		</g>
	</g>
</g>
<g>
	<g>
		<g>
			<g>
				<g>
					<defs>
						<rect id="SVGID_00000000928512513526187040000014739317731337305532_" x="-0.1" y="60.8" width="53.1" height="9.2"/>
					</defs>
					<clipPath id="SVGID_00000085222226891671518590000008344926915049488285_">
						<use xlink:href="#SVGID_00000000928512513526187040000014739317731337305532_"  style="overflow:visible;"/>
					</clipPath>
					<path style="clip-path:url(#SVGID_00000085222226891671518590000008344926915049488285_);fill:#4F4F4E;" d="M4.5,69.9
						c2.5,0,4.6-2.1,4.6-4.6c0-2.5-2.1-4.6-4.6-4.6s-4.6,2.1-4.6,4.6C-0.1,67.8,2,69.9,4.5,69.9"/>
				</g>
			</g>
		</g>
	</g>
	<g>
		<g>
			<g>
				<g>
					<defs>
						<rect id="SVGID_00000078032090184914102120000007804647452000650641_" x="-0.1" y="60.8" width="53.1" height="9.2"/>
					</defs>
					<clipPath id="SVGID_00000031928039308099600770000005865384022088726193_">
						<use xlink:href="#SVGID_00000078032090184914102120000007804647452000650641_"  style="overflow:visible;"/>
					</clipPath>
					<path style="clip-path:url(#SVGID_00000031928039308099600770000005865384022088726193_);fill:#4F4F4E;" d="M48.4,69.9
						c2.5,0,4.6-2.1,4.6-4.6c0-2.5-2.1-4.6-4.6-4.6s-4.6,2.1-4.6,4.6C43.8,67.8,45.9,69.9,48.4,69.9"/>
				</g>
			</g>
		</g>
	</g>
	<g>
		<g>
			<g>
				<g>
					<defs>
						<rect id="SVGID_00000080886306676808930390000002289156615442313347_" x="-0.1" y="60.8" width="53.1" height="9.2"/>
					</defs>
					<clipPath id="SVGID_00000055686197734763919950000016010549449407723180_">
						<use xlink:href="#SVGID_00000080886306676808930390000002289156615442313347_"  style="overflow:visible;"/>
					</clipPath>
					
						<line style="clip-path:url(#SVGID_00000055686197734763919950000016010549449407723180_);fill:none;stroke:#FFCB00;stroke-width:3.821;stroke-linecap:round;" x1="6.4" y1="65.3" x2="47.5" y2="65.3"/>
				</g>
			</g>
		</g>
	</g>
</g>
<g>
	<g>
		<g>
			<g>
				<g>
					<defs>
						<rect id="SVGID_00000044863949030636147950000000414857302332570261_" x="-0.1" y="121.6" width="53.1" height="9.2"/>
					</defs>
					<clipPath id="SVGID_00000171689390588478750450000008384574580438139319_">
						<use xlink:href="#SVGID_00000044863949030636147950000000414857302332570261_"  style="overflow:visible;"/>
					</clipPath>
					<path style="clip-path:url(#SVGID_00000171689390588478750450000008384574580438139319_);fill:#4F4F4E;" d="M4.5,130.8
						c2.5,0,4.6-2.1,4.6-4.6c0-2.5-2.1-4.6-4.6-4.6s-4.6,2.1-4.6,4.6C-0.1,128.7,2,130.8,4.5,130.8"/>
				</g>
			</g>
		</g>
	</g>
	<g>
		<g>
			<g>
				<g>
					<defs>
						<rect id="SVGID_00000013185915979771524490000002236586120365960840_" x="-0.1" y="121.6" width="53.1" height="9.2"/>
					</defs>
					<clipPath id="SVGID_00000016773440693950724510000006686318152754289812_">
						<use xlink:href="#SVGID_00000013185915979771524490000002236586120365960840_"  style="overflow:visible;"/>
					</clipPath>
					<path style="clip-path:url(#SVGID_00000016773440693950724510000006686318152754289812_);fill:#4F4F4E;" d="M48.4,130.8
						c2.5,0,4.6-2.1,4.6-4.6c0-2.5-2.1-4.6-4.6-4.6s-4.6,2.1-4.6,4.6S45.9,130.8,48.4,130.8"/>
				</g>
			</g>
		</g>
	</g>
	<g>
		<g>
			<g>
				<g>
					<defs>
						<rect id="SVGID_00000103973086429867186950000004076494582437418918_" x="-0.1" y="121.6" width="53.1" height="9.2"/>
					</defs>
					<clipPath id="SVGID_00000176041701042445560370000012666274682798023580_">
						<use xlink:href="#SVGID_00000103973086429867186950000004076494582437418918_"  style="overflow:visible;"/>
					</clipPath>
					
						<line style="clip-path:url(#SVGID_00000176041701042445560370000012666274682798023580_);fill:none;stroke:#FFCB00;stroke-width:3.821;stroke-linecap:round;" x1="6.4" y1="126.2" x2="47.5" y2="126.2"/>
				</g>
			</g>
		</g>
	</g>
</g>
<g>
	<g>
		<g>
			<g>
				<g>
					<defs>
						<rect id="SVGID_00000119075391391983257200000000769970869364909489_" x="-0.1" y="182.5" width="53.1" height="9.2"/>
					</defs>
					<clipPath id="SVGID_00000001623422248467887310000011198255185384134063_">
						<use xlink:href="#SVGID_00000119075391391983257200000000769970869364909489_"  style="overflow:visible;"/>
					</clipPath>
					<path style="clip-path:url(#SVGID_00000001623422248467887310000011198255185384134063_);fill:#4F4F4E;" d="M4.5,191.7
						c2.5,0,4.6-2.1,4.6-4.6s-2.1-4.6-4.6-4.6s-4.6,2.1-4.6,4.6S2,191.7,4.5,191.7"/>
				</g>
			</g>
		</g>
	</g>
	<g>
		<g>
			<g>
				<g>
					<defs>
						<rect id="SVGID_00000170998777720092786500000011491261646090270109_" x="-0.1" y="182.5" width="53.1" height="9.2"/>
					</defs>
					<clipPath id="SVGID_00000013194948157027825890000006063560204680742828_">
						<use xlink:href="#SVGID_00000170998777720092786500000011491261646090270109_"  style="overflow:visible;"/>
					</clipPath>
					<path style="clip-path:url(#SVGID_00000013194948157027825890000006063560204680742828_);fill:#4F4F4E;" d="M48.4,191.7
						c2.5,0,4.6-2.1,4.6-4.6s-2-4.6-4.6-4.6s-4.6,2.1-4.6,4.6S45.9,191.7,48.4,191.7"/>
				</g>
			</g>
		</g>
	</g>
	<g>
		<g>
			<g>
				<g>
					<defs>
						<rect id="SVGID_00000171689926418069974360000005757927116784277936_" x="-0.1" y="182.5" width="53.1" height="9.2"/>
					</defs>
					<clipPath id="SVGID_00000051347202726876465580000014899557955442761634_">
						<use xlink:href="#SVGID_00000171689926418069974360000005757927116784277936_"  style="overflow:visible;"/>
					</clipPath>
					
						<line style="clip-path:url(#SVGID_00000051347202726876465580000014899557955442761634_);fill:none;stroke:#FFCB00;stroke-width:3.821;stroke-linecap:round;" x1="6.4" y1="187.1" x2="47.5" y2="187.1"/>
				</g>
			</g>
		</g>
	</g>
</g>
<g>
	<g>
		<g>
			<g>
				<g>
					<defs>
						<rect id="SVGID_00000018225683899680810950000017719578918562039194_" x="-0.1" y="243.3" width="53.1" height="9.2"/>
					</defs>
					<clipPath id="SVGID_00000145781262622228008600000003339876496139571123_">
						<use xlink:href="#SVGID_00000018225683899680810950000017719578918562039194_"  style="overflow:visible;"/>
					</clipPath>
					<path style="clip-path:url(#SVGID_00000145781262622228008600000003339876496139571123_);fill:#4F4F4E;" d="M4.5,252.4
						c2.5,0,4.6-2.1,4.6-4.6s-2.1-4.6-4.6-4.6s-4.6,2.1-4.6,4.6S2,252.4,4.5,252.4"/>
				</g>
			</g>
		</g>
	</g>
	<g>
		<g>
			<g>
				<g>
					<defs>
						<rect id="SVGID_00000106829623781488993680000006449613984821419198_" x="-0.1" y="243.3" width="53.1" height="9.2"/>
					</defs>
					<clipPath id="SVGID_00000074401807463440924490000003348398549354226331_">
						<use xlink:href="#SVGID_00000106829623781488993680000006449613984821419198_"  style="overflow:visible;"/>
					</clipPath>
					<path style="clip-path:url(#SVGID_00000074401807463440924490000003348398549354226331_);fill:#4F4F4E;" d="M48.4,252.4
						c2.5,0,4.6-2.1,4.6-4.6s-2.1-4.6-4.6-4.6s-4.6,2.1-4.6,4.6S45.9,252.4,48.4,252.4"/>
				</g>
			</g>
		</g>
	</g>
	<g>
		<g>
			<g>
				<g>
					<defs>
						<rect id="SVGID_00000016064377350831930930000005563311766901012872_" x="-0.1" y="243.3" width="53.1" height="9.2"/>
					</defs>
					<clipPath id="SVGID_00000036935010692396755280000014159662840569433500_">
						<use xlink:href="#SVGID_00000016064377350831930930000005563311766901012872_"  style="overflow:visible;"/>
					</clipPath>
					
						<line style="clip-path:url(#SVGID_00000036935010692396755280000014159662840569433500_);fill:none;stroke:#FFCB00;stroke-width:3.821;stroke-linecap:round;" x1="6.4" y1="247.8" x2="47.5" y2="247.8"/>
				</g>
			</g>
		</g>
	</g>
</g>
<g>
	<g>
		<g>
			<g>
				<g>
					<defs>
						<rect id="SVGID_00000000189537382213983660000009290244066516280500_" x="-0.1" y="304.1" width="53.1" height="9.2"/>
					</defs>
					<clipPath id="SVGID_00000106830107795376302160000002854505667841809564_">
						<use xlink:href="#SVGID_00000000189537382213983660000009290244066516280500_"  style="overflow:visible;"/>
					</clipPath>
					<path style="clip-path:url(#SVGID_00000106830107795376302160000002854505667841809564_);fill:#4F4F4E;" d="M4.5,313.3
						c2.5,0,4.6-2.1,4.6-4.6c0-2.5-2.1-4.6-4.6-4.6s-4.6,2.1-4.6,4.6S2,313.3,4.5,313.3"/>
				</g>
			</g>
		</g>
	</g>
	<g>
		<g>
			<g>
				<g>
					<defs>
						<rect id="SVGID_00000126320068173991249970000004208409405504088196_" x="-0.1" y="304.1" width="53.1" height="9.2"/>
					</defs>
					<clipPath id="SVGID_00000031183956816088513770000011156500647820610479_">
						<use xlink:href="#SVGID_00000126320068173991249970000004208409405504088196_"  style="overflow:visible;"/>
					</clipPath>
					<path style="clip-path:url(#SVGID_00000031183956816088513770000011156500647820610479_);fill:#4F4F4E;" d="M48.4,313.3
						c2.5,0,4.6-2.1,4.6-4.6c0-2.5-2.1-4.6-4.6-4.6s-4.6,2.1-4.6,4.6C43.8,311.2,45.9,313.3,48.4,313.3"/>
				</g>
			</g>
		</g>
	</g>
	<g>
		<g>
			<g>
				<g>
					<defs>
						<rect id="SVGID_00000072998165211759346370000013936394183178965945_" x="-0.1" y="304.1" width="53.1" height="9.2"/>
					</defs>
					<clipPath id="SVGID_00000147204838669024038520000014404252035294502535_">
						<use xlink:href="#SVGID_00000072998165211759346370000013936394183178965945_"  style="overflow:visible;"/>
					</clipPath>
					
						<line style="clip-path:url(#SVGID_00000147204838669024038520000014404252035294502535_);fill:none;stroke:#FFCB00;stroke-width:3.821;stroke-linecap:round;" x1="6.4" y1="308.7" x2="47.5" y2="308.7"/>
				</g>
			</g>
		</g>
	</g>
</g>
</svg>
