<?xml version="1.0" encoding="utf-8"?>
<!-- Generator: Adobe Illustrator 26.0.3, SVG Export Plug-In . SVG Version: 6.00 Build 0)  -->
<svg version="1.1" id="Capa_1" xmlns="http://www.w3.org/2000/svg" xmlns:xlink="http://www.w3.org/1999/xlink" x="0px" y="0px"
	 width="41.7px" height="60.4px" viewBox="0 0 41.7 60.4" style="enable-background:new 0 0 41.7 60.4;" xml:space="preserve">
<style type="text/css">
	.st0{fill:#504F4E;}
	.st1{fill:none;stroke:#FFCC00;stroke-width:3;stroke-linecap:round;}
</style>
<g>
	<path class="st0" d="M3.7,11.7c2,0,3.6-1.6,3.6-3.6C7,6.1,5.1,4.7,3,5.1c-1.5,0.2-2.7,1.4-3,3C0.1,10.1,1.7,11.7,3.7,11.7"/>
	<path class="st0" d="M38.2,11.7c2,0,3.6-1.6,3.6-3.6c-0.3-2-2.2-3.4-4.3-3c-1.6,0.3-2.8,1.5-3,3C34.5,10.1,36.2,11.7,38.2,11.7"/>
	<line class="st1" x1="5.1" y1="8.1" x2="37.4" y2="8.1"/>
	<path class="st0" d="M3.7,33.9c2-0.1,3.6-1.7,3.5-3.7c-0.1-2-1.7-3.6-3.7-3.5C1.6,26.8,0,28.4,0,30.3c0,2,1.6,3.6,3.6,3.6H3.7"/>
	<path class="st0" d="M38.2,33.9c2-0.1,3.6-1.7,3.5-3.7S40,26.6,38,26.7c-1.9,0.1-3.5,1.6-3.5,3.6s1.6,3.6,3.6,3.6H38.2"/>
	<line class="st1" x1="5.1" y1="30.3" x2="37.4" y2="30.3"/>
</g>
<g>
	<path class="st0" d="M3.7,55.1c2,0,3.6-1.6,3.6-3.6c-0.3-2-2.2-3.4-4.3-3c-1.5,0.2-2.7,1.4-3,3C0.1,53.5,1.7,55.1,3.7,55.1"/>
	<path class="st0" d="M38.2,55.1c2,0,3.6-1.6,3.6-3.6c-0.3-2-2.2-3.4-4.3-3c-1.6,0.3-2.8,1.5-3,3C34.5,53.5,36.2,55.1,38.2,55.1"/>
	<line class="st1" x1="5.1" y1="51.5" x2="37.4" y2="51.5"/>
</g>
</svg>
