<?xml version="1.0" encoding="utf-8"?>
<!-- Generator: Adobe Illustrator 14.0.0, SVG Export Plug-In . SVG Version: 6.00 Build 43363)  -->
<!DOCTYPE svg PUBLIC "-//W3C//DTD SVG 1.1//EN" "http://www.w3.org/Graphics/SVG/1.1/DTD/svg11.dtd">
<svg version="1.1" id="Layer_1" xmlns="http://www.w3.org/2000/svg" xmlns:xlink="http://www.w3.org/1999/xlink" x="0px" y="0px"
	 width="69.136px" height="67.505px" viewBox="0 0 69.136 67.505" enable-background="new 0 0 69.136 67.505" xml:space="preserve">
<g>
	<rect x="0" fill="none" width="69.137" height="67.503"/>
	<rect x="0" fill="none" width="69.137" height="67.503"/>
	<rect x="0" fill="none" width="69.137" height="67.503"/>
	<rect x="0" fill="none" width="69.137" height="67.503"/>
	<rect x="0" fill="none" width="69.137" height="67.503"/>
	<path fill="#63BF89" d="M67.503,33.751c0,18.645-15.109,33.752-33.754,33.752c-18.639,0-33.746-15.107-33.746-33.752
		C0.003,15.117,15.111,0,33.75,0C52.394,0,67.503,15.117,67.503,33.751"/>
	<path fill="#FFFFFF" d="M20.625,17.572c-0.135-0.005-0.271-0.023-0.406-0.023c-6.381,0-11.556,5.172-11.556,11.555
		c0,6.377,5.175,11.544,11.556,11.544c0.75,0,1.482-0.075,2.199-0.212c5.324-1.024,9.347-5.708,9.347-11.332
		C31.764,22.862,26.812,17.793,20.625,17.572"/>
	<path fill="#0B0204" d="M20.603,20.714c-0.1-0.004-0.199-0.017-0.299-0.017c-4.641,0-8.406,3.763-8.406,8.405
		c0,4.64,3.766,8.398,8.406,8.398c0.547,0,1.078-0.057,1.602-0.154c3.875-0.747,6.799-4.153,6.799-8.244
		C28.705,24.561,25.105,20.873,20.603,20.714"/>
	<g>
		<defs>
			<path id="SVGID_1_" d="M3.99,39.975C2.948,44.897,7.5,50.082,14.16,51.538c6.666,1.459,12.92-1.362,13.963-6.29
				c1.048-4.921-3.509-10.1-10.172-11.559c-1.189-0.26-2.365-0.384-3.5-0.384C9.225,33.306,4.85,35.927,3.99,39.975"/>
		</defs>
		<clipPath id="SVGID_2_">
			<use xlink:href="#SVGID_1_"  overflow="visible"/>
		</clipPath>
		
			<radialGradient id="SVGID_3_" cx="-292.4126" cy="523.5596" r="1.2803" gradientTransform="matrix(8.3956 -1.1305 -0.9453 -6.7283 2965.9614 3234.7124)" gradientUnits="userSpaceOnUse">
			<stop  offset="0" style="stop-color:#209C80"/>
			<stop  offset="0.3023" style="stop-color:#30A582"/>
			<stop  offset="0.8932" style="stop-color:#5BBB88"/>
			<stop  offset="1" style="stop-color:#63BF89"/>
		</radialGradient>
		<polygon clip-path="url(#SVGID_2_)" fill="url(#SVGID_3_)" points="0.233,33.672 28.684,29.841 31.885,52.632 3.434,56.464 		"/>
	</g>
	<g>
		<defs>
			<rect id="SVGID_4_" x="0" width="69.137" height="67.503"/>
		</defs>
		<clipPath id="SVGID_5_">
			<use xlink:href="#SVGID_4_"  overflow="visible"/>
		</clipPath>
		<path clip-path="url(#SVGID_5_)" fill="#FFFFFF" d="M47.108,17.572c-0.136-0.005-0.272-0.023-0.409-0.023
			c-6.376,0-11.554,5.172-11.554,11.555c0,6.377,5.178,11.544,11.554,11.544c0.752,0,1.482-0.075,2.199-0.212
			c5.326-1.024,9.348-5.708,9.348-11.332C58.246,22.862,53.295,17.793,47.108,17.572"/>
		<path clip-path="url(#SVGID_5_)" fill="#0B0204" d="M46.996,20.714c-0.101-0.004-0.197-0.017-0.298-0.017
			c-4.64,0-8.403,3.763-8.403,8.405c0,4.64,3.764,8.398,8.403,8.398c0.548,0,1.08-0.057,1.601-0.154
			c3.875-0.747,6.802-4.153,6.802-8.244C55.1,24.561,51.498,20.873,46.996,20.714"/>
	</g>
	<g>
		<defs>
			<path id="SVGID_6_" d="M49.42,33.689c-6.664,1.459-11.22,6.638-10.173,11.559c1.047,4.928,7.297,7.749,13.961,6.29
				c6.662-1.456,11.215-6.641,10.172-11.563c-0.863-4.048-5.232-6.669-10.459-6.669C51.785,33.306,50.611,33.43,49.42,33.689"/>
		</defs>
		<clipPath id="SVGID_7_">
			<use xlink:href="#SVGID_6_"  overflow="visible"/>
		</clipPath>
		
			<radialGradient id="SVGID_8_" cx="-329.6694" cy="529.8213" r="1.2796" gradientTransform="matrix(-8.3956 -1.1305 0.9453 -6.7282 -3217.2917 3234.7009)" gradientUnits="userSpaceOnUse">
			<stop  offset="0" style="stop-color:#209C80"/>
			<stop  offset="0.3023" style="stop-color:#30A582"/>
			<stop  offset="0.8932" style="stop-color:#5BBB88"/>
			<stop  offset="1" style="stop-color:#63BF89"/>
		</radialGradient>
		<polygon clip-path="url(#SVGID_7_)" fill="url(#SVGID_8_)" points="67.138,33.672 38.687,29.841 35.486,52.632 63.937,56.464 		
			"/>
	</g>
	<rect x="0" fill="none" width="69.137" height="67.503"/>
	<g>
		<g>
			<defs>
				<rect id="SVGID_9_" x="30.541" y="0.001" width="36.963" height="67.502"/>
			</defs>
			<clipPath id="SVGID_10_">
				<use xlink:href="#SVGID_9_"  overflow="visible"/>
			</clipPath>
			<g clip-path="url(#SVGID_10_)">
				<defs>
					<rect id="SVGID_11_" x="30.541" y="0.001" width="36.961" height="67.502"/>
				</defs>
				<clipPath id="SVGID_12_">
					<use xlink:href="#SVGID_11_"  overflow="visible"/>
				</clipPath>
				<path clip-path="url(#SVGID_12_)" fill="#CAD6DC" d="M33.75,0c-1.076,0-2.152,0.063-3.207,0.165
					C47.68,1.783,61.09,16.194,61.09,33.751s-13.41,31.978-30.548,33.59c1.055,0.103,2.131,0.164,3.207,0.164
					c18.646,0,33.754-15.109,33.754-33.754C67.503,15.118,52.395,0,33.75,0"/>
			</g>
		</g>
	</g>
	<path fill="#FFFFFF" d="M48.843,42.605c0,8.881-7.198,16.082-16.08,16.082s-16.08-7.201-16.08-16.082H48.843z"/>
	<rect x="0" fill="none" width="69.137" height="67.503"/>
	<rect x="0" fill="none" width="69.137" height="67.503"/>
	<rect x="0" fill="none" width="69.137" height="67.503"/>
	<rect x="0" fill="none" width="69.137" height="67.503"/>
	<rect x="0" fill="none" width="69.137" height="67.503"/>
	<rect x="0" fill="none" width="69.137" height="67.503"/>
	<rect x="0" fill="none" width="69.137" height="67.503"/>
	<rect x="0" fill="none" width="69.137" height="67.503"/>
	<rect x="0" fill="none" width="69.137" height="67.503"/>
	<rect x="0" fill="none" width="69.137" height="67.503"/>
	<rect x="0" fill="none" width="69.137" height="67.503"/>
	<rect x="0" fill="none" width="69.137" height="67.503"/>
	<rect x="0" fill="none" width="69.137" height="67.503"/>
	<rect x="0" fill="none" width="69.137" height="67.503"/>
</g>
</svg>
