<?xml version="1.0" encoding="utf-8"?>
<!-- Generator: Adobe Illustrator 14.0.0, SVG Export Plug-In . SVG Version: 6.00 Build 43363)  -->
<!DOCTYPE svg PUBLIC "-//W3C//DTD SVG 1.1//EN" "http://www.w3.org/Graphics/SVG/1.1/DTD/svg11.dtd">
<svg version="1.1" id="Layer_1" xmlns="http://www.w3.org/2000/svg" xmlns:xlink="http://www.w3.org/1999/xlink" x="0px" y="0px"
	 width="74.246px" height="67.504px" viewBox="0 0 74.246 67.504" enable-background="new 0 0 74.246 67.504" xml:space="preserve">
<g>
	<path fill="#F58921" d="M70.939,33.751c0,18.644-15.109,33.753-33.752,33.753c-18.639,0-33.75-15.109-33.75-33.753
		C3.438,15.116,18.549,0,37.188,0C55.83,0,70.939,15.116,70.939,33.751"/>
	<path fill="#FFFFFF" d="M22.525,17.571c-0.139-0.005-0.275-0.022-0.41-0.022c-6.379,0-11.553,5.172-11.553,11.555
		c0,6.376,5.174,11.544,11.553,11.544c0.754,0,1.482-0.075,2.199-0.211c5.326-1.025,9.35-5.709,9.35-11.333
		C33.664,22.862,28.711,17.792,22.525,17.571"/>
	<path fill="#0B0204" d="M22.393,21.236c-0.094-0.004-0.184-0.016-0.279-0.016c-4.352,0-7.879,3.528-7.879,7.882
		c0,4.35,3.527,7.875,7.879,7.875c0.516,0,1.012-0.052,1.502-0.146c3.633-0.698,6.377-3.893,6.377-7.729
		C29.992,24.845,26.615,21.388,22.393,21.236"/>
	<g>
		<g>
			<defs>
				<path id="SVGID_1_" d="M7.428,39.975c-1.043,4.923,3.51,10.106,10.168,11.564c6.668,1.457,12.92-1.364,13.967-6.29
					c1.047-4.923-3.512-10.102-10.18-11.561c-1.186-0.259-2.361-0.382-3.496-0.382C12.662,33.307,8.289,35.928,7.428,39.975"/>
			</defs>
			<clipPath id="SVGID_2_">
				<use xlink:href="#SVGID_1_"  overflow="visible"/>
			</clipPath>
			<g clip-path="url(#SVGID_2_)">
				<defs>
					<polygon id="SVGID_3_" points="3.67,33.673 32.123,29.841 35.324,52.631 6.873,56.463 					"/>
				</defs>
				<clipPath id="SVGID_4_">
					<use xlink:href="#SVGID_3_"  overflow="visible"/>
				</clipPath>
				
					<radialGradient id="SVGID_5_" cx="-312.7217" cy="527.7666" r="1.2803" gradientTransform="matrix(8.3956 -1.1305 -0.9453 -6.7283 3143.8801 3240.0569)" gradientUnits="userSpaceOnUse">
					<stop  offset="0" style="stop-color:#EF503C"/>
					<stop  offset="0.3465" style="stop-color:#F16034"/>
					<stop  offset="1" style="stop-color:#F58921"/>
				</radialGradient>
				<polygon clip-path="url(#SVGID_4_)" fill="url(#SVGID_5_)" points="0,30.336 34.736,25.658 38.994,55.969 4.258,60.646 				"/>
			</g>
		</g>
	</g>
	<g>
		<path fill="#FFFFFF" d="M50.545,17.571c-0.135-0.005-0.273-0.022-0.408-0.022c-6.377,0-11.555,5.172-11.555,11.555
			c0,6.376,5.178,11.544,11.555,11.544c0.752,0,1.482-0.075,2.201-0.211c5.322-1.025,9.346-5.709,9.346-11.333
			C61.684,22.862,56.732,17.792,50.545,17.571"/>
		<path fill="#0B0204" d="M50.414,21.236c-0.094-0.004-0.184-0.016-0.279-0.016c-4.35,0-7.881,3.528-7.881,7.882
			c0,4.35,3.531,7.875,7.881,7.875c0.516,0,1.012-0.052,1.502-0.146c3.631-0.698,6.377-3.893,6.377-7.729
			C58.014,24.845,54.637,21.388,50.414,21.236"/>
	</g>
	<g>
		<g>
			<defs>
				<path id="SVGID_6_" d="M52.859,33.688c-6.664,1.459-11.223,6.638-10.174,11.561c1.045,4.926,7.295,7.747,13.961,6.29
					c6.66-1.458,11.215-6.642,10.17-11.564c-0.859-4.047-5.232-6.668-10.459-6.668C55.223,33.307,54.047,33.43,52.859,33.688"/>
			</defs>
			<clipPath id="SVGID_7_">
				<use xlink:href="#SVGID_6_"  overflow="visible"/>
			</clipPath>
			<g clip-path="url(#SVGID_7_)">
				<defs>
					<polygon id="SVGID_8_" points="70.576,33.673 42.123,29.841 38.922,52.631 67.375,56.463 					"/>
				</defs>
				<clipPath id="SVGID_9_">
					<use xlink:href="#SVGID_8_"  overflow="visible"/>
				</clipPath>
				
					<radialGradient id="SVGID_10_" cx="-304.7588" cy="526.4307" r="1.2796" gradientTransform="matrix(-8.3956 -1.1305 0.9453 -6.7282 -3001.5144 3240.0476)" gradientUnits="userSpaceOnUse">
					<stop  offset="0" style="stop-color:#EF503C"/>
					<stop  offset="0.3465" style="stop-color:#F16034"/>
					<stop  offset="1" style="stop-color:#F58921"/>
				</radialGradient>
				<polygon clip-path="url(#SVGID_9_)" fill="url(#SVGID_10_)" points="74.246,30.336 39.508,25.658 35.25,55.969 69.988,60.646 
									"/>
			</g>
		</g>
	</g>
	<path fill="#0B0204" d="M31.225,46.866c-0.012,0.001-0.033,0.026-0.033,0.06c-0.012-0.005-0.02,0.047-0.035,0.04
		c-0.008-0.006-0.014-0.021-0.021-0.031c-0.006,0.003-0.014,0.009-0.025,0.016c0.002-0.024,0.01-0.05,0.006-0.054
		c-0.018-0.024-0.023,0.086-0.035,0.058c-0.002-0.007-0.01-0.018-0.014-0.018c-0.037,0.006-0.063-0.076-0.104-0.06
		c-0.01,0.002-0.025-0.033-0.025-0.031c-0.027,0.046-0.033-0.012-0.049-0.022c-0.014,0.026-0.027,0.043-0.051,0.042
		c-0.031-0.004-0.063,0-0.098,0.002c-0.01,0-0.021,0.004-0.023,0.013c-0.018,0.036-0.041,0.028-0.061,0.03
		c-0.029,0.002-0.057,0.156-0.086,0.167c-0.018,0.008-0.029,0.024-0.053,0.021c-0.035-0.008-0.061,0-0.09-0.022
		c-0.014,0.026-0.025,0.052-0.037,0.082c-0.01-0.005-0.02-0.015-0.031-0.018c-0.012-0.006-0.023-0.005-0.035-0.005V47.09
		c-0.008-0.008-0.02-0.013-0.021-0.021c-0.01-0.045-0.008-0.049-0.021-0.047c-0.01,0.002-0.02,0.005-0.027,0.011
		c-0.041,0.018-0.08,0.032-0.111,0.087c-0.004,0.002-0.008,0.006-0.012,0.007c-0.037,0.001-0.082,0.021-0.113,0
		c-0.041-0.026-0.066-0.001-0.09,0.029c0.004,0.023,0.008,0.051,0.004,0.055c-0.021,0.019-0.014-0.027-0.025-0.037
		c-0.002,0.011-0.002,0.031-0.006,0.033c-0.035,0.022-0.07,0.049-0.102,0.027c-0.02-0.015-0.039-0.01-0.059-0.013
		c-0.004,0-0.006,0.007-0.01,0.009c0.004,0.006,0.01,0.013,0.014,0.024c-0.014,0.004-0.025,0.009-0.039,0.015
		c0.006,0.019,0.01,0.032,0.014,0.048c-0.014,0.015-0.029,0.046-0.043,0.042c-0.027-0.006-0.029,0.027-0.033,0.049
		c-0.006,0.027-0.014,0.053-0.029,0.071c-0.008,0.008-0.016,0.038-0.012,0.049c0.008,0.025-0.018,0.032-0.006,0.059
		c0.006,0.007-0.004,0.03-0.004,0.049c0.002,0.101-0.018,0.194-0.039,0.288c-0.004,0.007-0.006,0.019-0.006,0.025
		c0,0.052,0.012,0.457-0.023,0.494v0.009c0.018,0.025,0.008,0.065,0.027,0.091c0.02,0.028,0.025-0.034,0.039-0.021
		c0.039,0.09,0.096,0.145,0.127,0.241c0.012-0.002,0.033,0.002,0.037-0.008c0.014-0.042,0.045-0.028,0.059-0.055
		c0.004-0.005,0.012,0.001,0.02,0.004c0,0.028,0,0.059,0.002,0.083c0.016,0.013,0.025,0.021,0.041,0.031
		c0.006-0.016,0.014-0.029,0.018-0.047c0.01-0.031,0.031-0.021,0.031-0.013c0.016,0.056,0.035,0.032,0.059,0.019
		c0.008-0.006,0.025-0.014,0.033-0.008c0.031,0.033,0.061,0.011,0.096,0.018c0.012-0.049,0.057-0.058,0.057-0.125
		c0.008-0.001,0.018-0.001,0.027-0.001V48.61c0.018-0.038,0.033-0.062,0.045-0.088c0.031,0.017,0.063,0.049,0.094,0.036
		c0.02-0.067,0.047-0.098,0.088-0.103c0.002,0.022,0.002,0.041,0.006,0.057c0.014,0.002,0.025,0,0.029,0.009
		c0.031,0.043,0.063,0.083,0.078,0.144c0.006,0.014,0.012,0.036,0.018,0.039c0.027,0.007,0.031-0.226,0.039-0.189
		c0.01,0.045,0.043-0.216,0.049-0.165c0,0.004,0.006,0.008,0.01,0.007c0.02-0.008,0.027,0.019,0.039,0.033
		c0.02,0.025,0.039,0.05,0.059,0.075c0.006,0.003,0.008,0.003,0.012,0c0.02-0.013,0.033,0.003,0.051,0.018
		c0.014,0.018,0.027,0.045,0.037,0.071c0.006,0.019,0.014,0.013,0.023,0.006v-0.001c0.002-0.004,0.004-0.006,0.004,0
		c0.004-0.006,0.008-0.004,0.008-0.004c-0.002,0.005-0.004,0.009-0.008,0.013c0-0.001,0-0.003,0-0.004
		c-0.004,0.018-0.004,0.03-0.004,0.047c0.008-0.008,0.012-0.013,0.012-0.015c0.021-0.006,0.041-0.011,0.059-0.016
		c0.002-0.016,0.004-0.031,0.004-0.048c0.01-0.005,0.027-0.004,0.031-0.018c0.014-0.036,0.037-0.031,0.059-0.031
		c0.031-0.001,0.066-0.001,0.098-0.005c0.035-0.002,0.092-0.158,0.092-0.158V46.866z"/>
	<path fill="#0B0204" d="M40.764,46.866c0.008-0.003,0.016,0,0.02,0.004v1.444c-0.002,0-0.004,0-0.004,0.002
		c-0.018,0.016-0.031,0.019-0.045,0.018c-0.027-0.002-0.035,0.023-0.041,0.063c-0.006,0-0.016,0.002-0.021,0
		c-0.014-0.009-0.025-0.036-0.039-0.002c-0.002,0.003-0.014-0.005-0.021-0.009c-0.023-0.007-0.045,0.091-0.068,0.124
		c-0.018,0.03-0.051,0.008-0.07,0.04c-0.006,0.007-0.02,0.007-0.025-0.001c-0.02-0.031-0.039-0.005-0.064-0.017
		c0.006,0.022,0.01,0.036,0.018,0.063c-0.057,0.001-0.102,0.005-0.15-0.019c-0.039-0.02-0.076-0.063-0.121-0.05
		c-0.014,0.004-0.033-0.01-0.043,0.018c-0.012-0.021-0.029-0.018-0.043-0.014c-0.021,0.003-0.045,0.027-0.055,0.015
		c-0.023-0.025-0.043-0.003-0.059-0.014c-0.012,0.014-0.02,0.026-0.027,0.039c-0.002-0.003-0.006-0.007-0.006-0.009
		c-0.018-0.044-0.035-0.066-0.055-0.044c-0.037,0.037-0.074,0.015-0.109,0.019c-0.018,0.003-0.037-0.025-0.055-0.035
		c-0.014-0.006-0.035-0.001-0.051-0.009c-0.014-0.007-0.029-0.023-0.035-0.042c-0.008-0.025-0.018-0.034-0.033-0.048
		c-0.01-0.008-0.01-0.041-0.033-0.036c-0.012,0.001-0.014-0.045-0.035-0.046c0.004-0.007,0.01-0.017,0.014-0.025
		c-0.029-0.014-0.061-0.028-0.088-0.039c-0.006-0.005-0.014,0.004-0.02,0.008c-0.014,0.005-0.029,0.018-0.035,0.009
		c-0.035-0.039-0.066,0-0.1,0.006c-0.033,0.009-0.063,0.043-0.1,0.045c-0.012,0-0.025,0.011-0.027,0.021
		c-0.018,0.059-0.043,0.043-0.068,0.03c-0.02-0.01-0.035-0.014-0.055,0.009c-0.014,0.015-0.033,0.032-0.055,0.024
		c-0.004-0.001-0.012,0.011-0.012,0.016c0,0.023-0.006,0.024-0.018,0.026c-0.027,0.004-0.053,0.013-0.078,0.013
		c-0.027,0-0.053-0.008-0.084-0.013c-0.002-0.007-0.002-0.016-0.004-0.029c-0.037-0.006-0.076-0.02-0.113-0.02
		c-0.063,0.002-0.064,0.007-0.117-0.026c-0.014-0.01-0.023-0.008-0.037,0c-0.063,0.035-0.129,0.071-0.199,0.059
		c-0.01-0.002-0.02,0.006-0.023,0c-0.037-0.049-0.066-0.006-0.096,0.032c-0.006-0.019-0.008-0.032-0.016-0.047
		c-0.039,0.016-0.078,0.049-0.121,0.044c-0.01,0-0.021,0.016-0.031,0.019c-0.004,0.004-0.018-0.012-0.021-0.007
		c-0.027,0.022-0.004-0.032-0.02-0.031c-0.021,0.017-0.041,0.026-0.066,0.009c-0.025-0.015-0.057-0.018-0.082,0.017
		c-0.006,0.006-0.018-0.003-0.025-0.008c0,0.018-0.008,0.021-0.018,0.033c-0.027,0.027-0.053,0.042-0.086,0.042
		c-0.025,0-0.053-0.019-0.074,0.021c-0.006,0.007-0.014,0.008-0.018,0.019c-0.016,0.051-0.025,0.058-0.051,0.064
		c-0.031,0.011-0.063-0.006-0.092-0.024c-0.041-0.021-0.082-0.014-0.121-0.002c-0.025,0.011-0.049,0.03-0.068-0.005
		c-0.025,0.019-0.045-0.021-0.066,0.002c-0.002,0.003-0.01,0.002-0.012-0.003c-0.018-0.039-0.037-0.031-0.064-0.017
		c-0.031,0.013-0.063,0.013-0.1-0.01c-0.02-0.017-0.047-0.031-0.074-0.022c-0.018,0.009-0.035-0.009-0.045-0.033
		c-0.006-0.012-0.014-0.021-0.016-0.021c-0.043,0.021-0.086,0.022-0.127,0.06c-0.035,0.038-0.074,0.093-0.125,0.057
		c-0.008-0.005-0.021,0.013-0.031,0.013c-0.025-0.001-0.049,0.031-0.078,0.023c-0.027-0.005-0.053,0.001-0.078,0.001
		c-0.004-0.011-0.008-0.021-0.012-0.034c-0.025,0.034-0.025,0.036-0.064,0.038c-0.029,0.002-0.055,0-0.063,0.054
		c-0.029,0.018-0.055,0.031-0.08,0.047c-0.027-0.042-0.039,0.016-0.059,0.026c-0.01,0.006-0.016,0.028-0.025,0.043
		c-0.031-0.007-0.066-0.006-0.092-0.022c-0.023-0.012-0.043-0.01-0.063-0.015c-0.029-0.008-0.055-0.021-0.084-0.028
		c-0.014-0.006-0.029-0.012-0.041-0.007c-0.041,0.021-0.039,0.021-0.115,0.005c-0.027-0.006-0.061,0.002-0.09,0.002
		c-0.012-0.03-0.02-0.07-0.051-0.057c-0.021,0.01-0.043-0.014-0.064-0.018c-0.02-0.003-0.025-0.028-0.031-0.058
		c-0.021,0.003-0.045,0.003-0.064,0.004c-0.004,0.013-0.008,0.023-0.012,0.036c-0.012,0-0.025-0.002-0.039,0.003
		c-0.012,0.002-0.025,0.009-0.031,0.02c-0.01,0.014-0.018,0.026-0.033,0.022c-0.02-0.01-0.035,0.022-0.055,0.021
		c-0.02-0.004-0.033,0.023-0.053,0.03c-0.047,0.018-0.092,0.064-0.145,0.055c-0.066-0.01-0.129,0.034-0.197,0.03
		c-0.008,0-0.018,0.014-0.027,0.023c-0.006-0.017-0.008-0.026-0.012-0.039c-0.041-0.012-0.078,0.007-0.113,0.039
		c-0.008,0.006-0.016,0.012-0.02,0.021c-0.008,0.012-0.012,0.033-0.02,0.038c-0.059,0.047-0.059,0.045-0.098,0.045
		c-0.012,0-0.027,0.007-0.031-0.001c-0.031-0.071-0.066-0.017-0.1-0.006c-0.01,0.002-0.021,0.012-0.031,0.014
		c-0.021,0.004-0.045-0.012-0.061,0.006c-0.023,0.025-0.035-0.008-0.051-0.005c-0.035,0.005-0.07-0.003-0.105-0.015
		c-0.014-0.006-0.035-0.006-0.035-0.049c0-0.016-0.01-0.04-0.018-0.047c-0.033-0.02-0.043-0.077-0.07-0.107
		c-0.008-0.009-0.021-0.009-0.031-0.014c0-0.046,0.029-0.056,0.047-0.091c-0.014,0-0.023-0.005-0.031-0.003
		c-0.01,0.004-0.02,0.038-0.033,0.009c-0.002-0.004-0.029-0.041-0.031-0.046c-0.002-0.009-0.004-0.019-0.008-0.026
		c0-0.003-0.002-0.008-0.002-0.007l-0.02,0.006c-0.002-0.058-0.023-0.034-0.045-0.033c-0.02,0.002-0.041,0.013-0.061,0.026
		c-0.021,0.019-0.051,0.012-0.072,0.021c-0.055,0.031-0.113,0.011-0.168,0.06c-0.029,0.026-0.064,0.022-0.098,0.028
		c-0.031,0.006-0.063-0.015-0.094-0.029c-0.021-0.009-0.043-0.019-0.061-0.022c-0.029-0.002-0.055,0.004-0.08-0.033
		c-0.016-0.023-0.051-0.02-0.078-0.02c-0.031,0-0.063-0.01-0.094-0.037c-0.008-0.006-0.025-0.035-0.037,0
		c-0.016-0.008-0.033-0.014-0.047-0.025c-0.014-0.005-0.021-0.024-0.031-0.031c-0.016-0.009-0.031-0.012-0.049-0.019
		c-0.006-0.001-0.016,0.004-0.018-0.001c-0.02-0.047-0.049-0.034-0.072-0.034c-0.01-0.023-0.018-0.044-0.02-0.051
		c-0.127-0.03-0.25-0.017-0.377-0.063c-0.006,0.019-0.018,0.041-0.025,0.063c-0.037,0.068-0.082,0.086-0.131,0.059
		c-0.018-0.01-0.016,0.017-0.023,0.025c0.008,0.003,0.014,0.009,0.021,0.014c0,0.005-0.004,0.012-0.004,0.012
		c-0.018-0.006-0.035-0.017-0.053-0.016c-0.027,0.002-0.061,0.002-0.084,0.024c-0.039,0.037-0.076,0-0.113,0.002
		c-0.018-0.036-0.053-0.03-0.074-0.067c-0.006-0.013-0.01-0.03-0.02-0.052c-0.023,0.031-0.049,0.034-0.072,0.001
		c-0.021-0.034-0.051-0.002-0.078-0.028c-0.02-0.022-0.051-0.001-0.076,0.027c-0.012,0.019-0.023,0.021-0.033-0.001
		c-0.008-0.012-0.031,0.001-0.025-0.03c0.008-0.031,0.018-0.006,0.027-0.004c0.012,0.004,0.027-0.01,0.045-0.02
		c0-0.036-0.063-0.036-0.031-0.061c-0.033-0.012-0.033-0.123-0.037-0.069c-0.01,0.094-0.043,0.065-0.045,0.063
		c-0.031-0.075-0.053,0.063-0.09,0.026c-0.012-0.014-0.033,0.028-0.053,0.032c-0.045,0.003-0.09,0.001-0.133,0.006
		c-0.033,0.003-0.063-0.028-0.096-0.017c-0.02,0.006-0.039-0.006-0.059-0.018V46.87c0.016-0.008,0.029-0.018,0.039-0.039
		c0.002-0.009,0.027-0.004,0.029-0.004c0.029,0.043,0.037-0.005,0.049-0.032c0.006-0.013,0.014-0.025,0.014-0.026
		c0.043-0.014,0.08-0.02,0.111-0.032c0.068-0.026,0.082-0.029,0.162-0.007c0.018-0.032,0.035,0.015,0.049,0.002
		c0.018-0.012,0.035-0.003,0.053-0.021c0.018-0.02,0.051,0.012,0.07-0.026c0.027,0.013,0.037-0.023,0.055-0.05
		c0.012,0.03,0.033,0.039,0.037,0.083c0.004,0.021,0.021,0.043,0.035,0.063c0.004,0.007,0.014,0.009,0.018,0.019
		c0.004,0.006,0.008,0.023,0.006,0.03c-0.002,0.01-0.014,0.011-0.023,0.02c0.025,0.027,0.053,0.054,0.074,0.08
		c-0.002,0.004-0.004,0.006-0.01,0.018c0.031,0.027,0.043,0.085,0.061,0.127c0.016,0.044,0.027,0.021,0.045,0.018
		c0,0.02-0.006,0.045,0,0.053c0.012,0.021,0.027,0.044,0.041,0.044c0.047,0,0.096,0.019,0.133-0.049
		c0.006-0.01,0.018-0.015,0.027-0.014c0.014,0,0.023-0.008,0.031-0.023c0.004-0.009,0.012-0.017,0.021-0.02
		c0.031-0.01,0.064-0.011,0.096-0.023c0.027-0.013,0.057-0.037,0.084-0.059c0.031-0.021,0.066-0.04,0.102-0.049
		c0.025-0.005,0.053-0.009,0.072-0.025c0.029-0.032,0.057-0.014,0.084,0.003c0.014,0.006,0.023,0.022,0.039,0.035
		c0.008-0.025,0.025-0.012,0.035-0.021c0.029-0.026,0.063-0.017,0.1-0.021c0.006-0.019,0.018-0.042,0.027-0.063
		c0.02,0.022,0.037,0.038,0.051,0.057s0.023,0.04,0.033,0.063c0.004,0.002,0.01,0.002,0.01,0.006
		c0.021,0.075,0.021,0.075,0.049,0.094c0.002,0,0.002,0.008,0.002,0.008c-0.012,0.017-0.012,0.039-0.006,0.06
		c0,0.006,0.012,0.002,0.014,0.008c0.035,0.052,0.088,0.068,0.113,0.137c0.002,0.007-0.002,0.02-0.002,0.027
		c0.02,0.014,0.041,0.029,0.064,0.046c0.029,0.029,0.066,0.017,0.098,0.038c0.051,0.029,0.102,0.017,0.152,0.012
		c0.025-0.001,0.051-0.012,0.076-0.02c0.023-0.007,0.045-0.012,0.068-0.013c0.016-0.001,0.035,0.014,0.047,0.006
		c0.043-0.024,0.084-0.021,0.123-0.045c0.01-0.006,0.021-0.005,0.035-0.002c0.045,0.007,0.086-0.005,0.125-0.052
		c0.018-0.021,0.041-0.022,0.061-0.045c0.004-0.005,0.018,0.01,0.025,0.017c0.01-0.03,0.018-0.057,0.025-0.083
		c0.014,0.025,0.031,0.03,0.045,0.002c0.029-0.061,0.068-0.073,0.109-0.067c0.031,0.003,0.064-0.016,0.096,0.006
		c0.01,0.008,0.031-0.005,0.033-0.027c0.008-0.045,0.025-0.045,0.047-0.045c0.014,0,0.027,0,0.041-0.002
		c0.006,0,0.014-0.003,0.018,0c0.031,0.024,0.061,0.069,0.096,0.018c0,0,0.008,0.007,0.01,0.012c0.02,0.053,0.047,0.021,0.064-0.003
		c0.02-0.024,0.033-0.037,0.059-0.036c0.008,0,0.018-0.015,0.025-0.02c0.014-0.009,0.029,0.023,0.029,0.024
		c-0.023,0.058,0.02,0.04,0.025,0.066c-0.006,0.004-0.014,0.008-0.027,0.017c0.016,0.014,0.027,0.018,0.035,0.03
		c0.014,0.027,0.025,0.059,0.02,0.096c-0.01,0.055,0.021,0.068,0.037,0.1c0.008,0.015,0.033,0.004,0.016,0.046
		c0.012,0.01,0.023,0.022,0.037,0.031c0.014,0.007,0.025-0.007,0.029-0.022c0.006-0.028,0.012-0.047,0.033-0.039
		c0.004,0.001,0.012,0,0.018-0.005c0.039-0.043,0.084-0.039,0.131-0.04c0.014-0.045,0.041-0.058,0.068-0.081
		c0.023-0.021,0.047-0.034,0.074-0.044c0.047-0.021,0.092-0.058,0.143-0.066c0.012-0.001,0.023-0.026,0.037-0.039
		c0.043-0.036,0.09-0.019,0.135-0.024c0.008-0.03,0.014-0.067,0.043-0.062c0.02,0.002,0.041-0.003,0.061-0.001
		c0.035,0.003,0.061-0.021,0.09-0.039c0.053,0.068,0.053,0.068,0.061,0.106c0.031,0.019,0.051-0.014,0.078-0.034
		c0.061-0.041,0.121-0.086,0.189-0.066c0.01,0.04,0.016,0.088,0.023,0.134c0.004,0.034,0.021,0.071,0.031,0.104
		c0.008,0.017-0.008,0.051,0.016,0.055c-0.008,0.042,0.02,0.056,0.027,0.077c0.016,0.041,0.023,0.096,0.061,0.107
		c0.008,0.004,0.021,0.024,0.021,0.033c0,0.051,0.027,0.024,0.037,0.041c-0.002,0.015-0.006,0.028-0.014,0.063
		c0.043-0.032,0.076-0.039,0.102-0.099c0.023-0.06,0.064-0.093,0.113-0.099c0.025-0.005,0.051-0.038,0.072-0.019
		c0.023,0.02,0.043,0.009,0.064,0.016c0.006-0.04,0.014-0.077,0.02-0.121c0.023,0,0.051,0.004,0.074-0.005
		c0.027-0.006,0.057-0.006,0.07-0.055c0.014-0.038,0.037-0.036,0.059-0.017c0.006,0.006,0.018,0.006,0.02,0
		c0.012-0.028,0.031-0.031,0.049-0.041c0.012-0.007,0.025-0.017,0.033-0.009c0.023,0.023,0.043,0.018,0.068,0.002
		c0.002-0.002,0.008,0.002,0.012,0.003c0.029,0.01,0.061,0.02,0.086-0.027c0.006-0.013,0.027-0.04,0.043-0.01
		c0.002,0.002,0.008-0.002,0.012-0.004c0.02-0.024,0.037-0.039,0.066-0.022c0.018,0.014,0.049,0,0.064,0.024
		c0.016,0.021,0.029,0.013,0.045,0.017c0.027,0.003,0.053-0.013,0.082,0.014c0.014,0.013,0.041,0.013,0.041-0.037
		c0.023,0.005,0.045-0.025,0.061-0.021c0.02,0.001,0.033,0.032,0.049,0.053c0.006,0.005,0.006,0.012,0.006,0.022
		c0,0.002-0.004,0.004-0.006,0.005c0,0.001,0.002,0.007,0.002,0.013c0.004-0.003,0.004-0.007,0.006-0.014
		c0.029,0.033,0.068,0.052,0.076,0.122c0.025,0.023,0.045,0.076,0.074,0.063c0.029-0.012,0.02,0.053,0.041,0.042
		c0.01-0.006,0.004-0.05,0.027-0.043c0.033,0.007,0.055-0.024,0.07-0.063c0.018-0.053,0.049-0.071,0.078-0.096
		c0.021-0.019,0.047-0.038,0.07-0.056c0.014-0.01,0.021-0.013,0.029,0.005c0.002-0.008,0.006-0.015,0.016-0.034
		c0.043,0.002,0.088-0.018,0.127-0.06c0.041,0.033,0.064-0.052,0.107-0.032c0.008,0.003,0.02-0.021,0.033-0.04
		c0.025-0.007,0.057,0.019,0.078-0.035c0.004-0.009,0.016-0.004,0.023-0.008c0.035-0.008,0.07-0.015,0.104-0.022
		c0.004-0.002,0.012-0.005,0.018-0.011c0.014-0.031,0.029-0.047,0.053-0.013c0.006,0.009,0.018-0.008,0.021-0.034
		c0-0.004,0.002-0.005,0.002-0.009c0.004-0.011,0.008-0.022,0.012-0.033l0.059,0.013c0.02,0.007,0.041,0.027,0.055,0.016
		c0.033-0.026,0.066-0.015,0.098-0.022c0.014,0,0.031,0,0.033,0.021c0.006,0.049,0.031,0.033,0.047,0.035
		c0.021,0.001,0.018,0.026,0.023,0.033c0.025,0.024,0.057-0.023,0.076,0.044c0.004,0,0.012,0.001,0.018,0
		c0.033-0.006,0.063,0.006,0.086,0.046c0.01,0.015,0.021,0.021,0.025-0.01c0.01-0.005,0.021,0.009,0.021-0.022
		c0.008-0.006,0.016-0.013,0.025-0.02c0,0.032,0.002,0.064,0.002,0.091c0.01,0.005,0.016,0.008,0.023,0.012l-0.01,0.036
		c0.016,0.011,0.004,0.058,0.029,0.063c0.016,0.001,0.006,0.028,0,0.04c0.014,0.022,0.027,0.044,0.047,0.072
		c0.023-0.001,0.059-0.004,0.092-0.004c0.006-0.015,0.01-0.028,0.016-0.041c0.006-0.014,0.016-0.039,0.018-0.038
		c0.039,0.021,0.063-0.032,0.092-0.045c0.031-0.012,0.061-0.041,0.088-0.059c0.016-0.009,0.029,0.019,0.045-0.001
		c0.016-0.017,0.037-0.006,0.057-0.021s0.055,0.009,0.07-0.014c0.018-0.02,0.037-0.028,0.055-0.045
		c0.008-0.008,0.018-0.014,0.021-0.009c0.039,0.037,0.064-0.006,0.096-0.023c0.035-0.018,0.074-0.034,0.109-0.044
		c0.023-0.006,0.051-0.046,0.076-0.004c0.004,0.004,0.018-0.01,0.025-0.015c0.025-0.016,0.055-0.033,0.08-0.048
		c0.002-0.002,0.01,0.001,0.012,0.003c0.012,0.074,0.039,0.023,0.057,0.012c0.029-0.02,0.053-0.014,0.076,0.021
		c0.01,0.019,0.014,0.018,0.041-0.005c0.002,0.008,0.006,0.018,0.012,0.027c0.025,0.071,0.047-0.012,0.086-0.043
		c0.035-0.025,0.059-0.008,0.08,0.021c0.01,0.018,0.014,0.011,0.025,0.003C40.734,46.858,40.748,46.866,40.764,46.866 M36.305,47.5
		c0.008,0.014,0.014,0.023,0.023,0.036C36.334,47.49,36.324,47.487,36.305,47.5"/>
	<path fill="#0B0204" d="M42.109,47.723c-0.039-0.04-0.045-0.083-0.027-0.155c-0.023-0.019-0.023-0.019-0.021-0.063
		c0-0.007,0-0.016-0.002-0.021c-0.023-0.058-0.01-0.119-0.016-0.18c0-0.005-0.004-0.012-0.004-0.016
		c-0.008-0.004-0.014-0.006-0.021-0.011c0.006-0.009,0.008-0.018,0.018-0.035c-0.035,0.011-0.059-0.032-0.092-0.01
		c-0.002,0.007-0.002,0.01-0.004,0.014c-0.002-0.005-0.004-0.012-0.004-0.013c0.004-0.004,0.006-0.005,0.008-0.006v0.005
		c0.008-0.048-0.025-0.045-0.027-0.081c-0.004,0.005-0.006,0.007-0.01,0.01c-0.01,0.007-0.006,0.002-0.014-0.018
		c-0.006-0.021-0.01-0.04-0.014-0.059c0-0.013-0.014-0.021-0.025-0.03c-0.023-0.019-0.047-0.023-0.072-0.021
		c-0.043,0.003-0.09,0.017-0.127-0.034c-0.004,0.018-0.004,0.031-0.006,0.032c-0.023,0.013-0.041-0.094-0.064-0.119
		c-0.004-0.005-0.01-0.012-0.014-0.01c-0.016,0.029-0.035,0.008-0.055,0.017c-0.02,0.006-0.039,0.007-0.057,0.022
		c-0.02,0.02-0.039,0.019-0.063,0.02c-0.02,0.003-0.045,0.013-0.059-0.001c-0.021-0.021-0.035,0.013-0.053,0.006
		s-0.023,0.025-0.037,0.04c-0.012-0.027-0.029-0.018-0.043-0.018c-0.004,0-0.008,0.004-0.012,0.008
		c-0.031,0.044-0.055-0.023-0.092-0.005c-0.018,0.008-0.061-0.143-0.072-0.156c-0.021-0.022-0.029,0.011-0.047,0.008
		c-0.014-0.004-0.027,0.015-0.043,0.019s-0.033,0.01-0.049,0.02c-0.031,0.014-0.055,0.058-0.088,0.064
		c-0.006,0.001-0.014,0.006-0.02,0.01v1.442c0.006,0.01,0.014,0.018,0.023,0.02c0.002,0,0,0.024,0.002,0.038
		c0.008,0.067,0.035,0.104,0.07,0.126c0.021,0.013,0.016-0.042,0.039-0.017c0.002,0.003,0.016-0.025,0.023-0.029
		c0.012-0.007,0.027-0.013,0.035-0.004c0.023,0.026,0.074,0.215,0.096,0.215c0.043,0,0.084,0.031,0.129,0.015
		c0.004-0.001,0.006,0.007,0.01,0.008c0.031,0.015,0.031,0.015,0.051-0.028c0.004-0.008,0.01-0.017,0.014-0.02
		c0.016-0.007,0.031,0.03,0.045-0.003c0.018,0.015,0.029,0.027,0.045,0.04c0.014,0.014,0.025,0.027,0.039,0.041
		c0.016,0.016,0.064,0.021,0.072,0.006c0.004-0.011,0.006-0.021,0.008-0.038c0.014,0.009,0.023,0.017,0.037,0.027
		c0.02-0.039,0.043-0.071,0.078-0.066c0.006,0,0.012-0.007,0.012-0.013c0.008-0.066,0.053-0.057,0.076-0.09
		c0.027-0.043,0.07-0.001,0.098-0.044c0.018,0.026,0.035,0.032,0.051-0.001c0.002-0.004,0.01-0.004,0.012,0
		c0.055,0.045,0.102,0.009,0.146-0.019c0.004,0.002,0.01,0.009,0.014,0.014c0-0.036,0.008-0.074,0.021-0.11
		C42.119,48.224,42.121,47.988,42.109,47.723"/>
	<rect x="9.625" y="16.145" fill="#F58921" width="53.605" height="8.123"/>
	<path fill="#DD711F" d="M37.188,0c-1.078,0-2.152,0.063-3.207,0.165c17.137,1.617,30.545,16.028,30.545,33.586
		c0,17.557-13.408,31.977-30.545,33.589c1.055,0.103,2.129,0.164,3.207,0.164c18.643,0,33.752-15.109,33.752-33.753
		C70.939,15.117,55.83,0,37.188,0"/>
</g>
</svg>
