<?xml version="1.0" encoding="utf-8"?>
<!-- Generator: Adobe Illustrator 14.0.0, SVG Export Plug-In . SVG Version: 6.00 Build 43363)  -->
<!DOCTYPE svg PUBLIC "-//W3C//DTD SVG 1.1//EN" "http://www.w3.org/Graphics/SVG/1.1/DTD/svg11.dtd">
<svg version="1.1" id="Layer_1" xmlns="http://www.w3.org/2000/svg" xmlns:xlink="http://www.w3.org/1999/xlink" x="0px" y="0px"
	 width="71.843px" height="67.506px" viewBox="0 0 71.843 67.506" enable-background="new 0 0 71.843 67.506" xml:space="preserve">
<g>
	<rect x="0" fill="none" width="71.844" height="67.504"/>
	<rect x="0" fill="none" width="71.844" height="67.504"/>
	<rect x="0" fill="none" width="71.844" height="67.504"/>
	<rect x="0" fill="none" width="71.844" height="67.504"/>
	<rect x="0" fill="none" width="71.844" height="67.504"/>
	<rect x="0" fill="none" width="71.844" height="67.504"/>
	<rect x="0" fill="none" width="71.844" height="67.504"/>
	<rect x="0" fill="none" width="71.844" height="67.504"/>
	<rect x="0" fill="none" width="71.844" height="67.504"/>
	<rect x="0" fill="none" width="71.844" height="67.504"/>
	<rect x="0" fill="none" width="71.844" height="67.504"/>
	<rect x="0" fill="none" width="71.844" height="67.504"/>
	<rect x="0" fill="none" width="71.844" height="67.504"/>
	<rect x="0" fill="none" width="71.844" height="67.504"/>
	<rect x="0" fill="none" width="71.844" height="67.504"/>
	<rect x="0" fill="none" width="71.844" height="67.504"/>
	<rect x="0" fill="none" width="71.844" height="67.504"/>
	<rect x="0" fill="none" width="71.844" height="67.504"/>
	<rect x="0" fill="none" width="71.844" height="67.504"/>
	<path fill="#0B0204" d="M21.128,45.325l0.031,0.039C21.175,45.319,21.16,45.315,21.128,45.325"/>
	<path fill="#D31B5E" d="M69.251,33.752c0,18.644-15.109,33.752-33.752,33.752c-18.641,0-33.75-15.108-33.75-33.752
		C1.75,15.118,16.859,0,35.5,0C54.142,0,69.251,15.118,69.251,33.752"/>
	<path fill="#FFFFFF" d="M20.835,17.573c-0.137-0.007-0.273-0.024-0.41-0.024c-6.377,0-11.553,5.173-11.553,11.556
		c0,6.376,5.176,11.544,11.553,11.544c0.754,0,1.484-0.075,2.201-0.212c5.324-1.024,9.348-5.709,9.348-11.332
		C31.974,22.863,27.023,17.794,20.835,17.573"/>
	<path fill="#0B0204" d="M20.705,21.236c-0.094-0.003-0.186-0.015-0.279-0.015c-4.352,0-7.881,3.527-7.881,7.881
		c0,4.351,3.529,7.875,7.881,7.875c0.514,0,1.012-0.051,1.502-0.145c3.631-0.7,6.375-3.893,6.375-7.73
		C28.302,24.846,24.925,21.388,20.705,21.236"/>
	<g>
		<defs>
			<path id="SVGID_1_" d="M5.74,39.976c-1.045,4.921,3.51,10.106,10.168,11.563c6.668,1.458,12.916-1.363,13.963-6.29
				c1.047-4.922-3.508-10.1-10.174-11.56c-1.188-0.259-2.365-0.383-3.5-0.383C10.972,33.307,6.599,35.928,5.74,39.976"/>
		</defs>
		<clipPath id="SVGID_2_">
			<use xlink:href="#SVGID_1_"  overflow="visible"/>
		</clipPath>
		
			<radialGradient id="SVGID_3_" cx="-330.7744" cy="529.4521" r="1.2799" gradientTransform="matrix(8.3956 -1.1305 -0.9453 -6.7283 3295.3491 3230.9885)" gradientUnits="userSpaceOnUse">
			<stop  offset="0" style="stop-color:#9F0945"/>
			<stop  offset="0.0034" style="stop-color:#9F0945"/>
			<stop  offset="0.3766" style="stop-color:#AF0F4D"/>
			<stop  offset="1" style="stop-color:#D31B5E"/>
		</radialGradient>
		<polygon clip-path="url(#SVGID_2_)" fill="url(#SVGID_3_)" points="1.98,33.673 30.431,29.842 33.632,52.632 5.183,56.463 		"/>
	</g>
	<g>
		<defs>
			<rect id="SVGID_4_" x="0" width="71.844" height="67.504"/>
		</defs>
		<clipPath id="SVGID_5_">
			<use xlink:href="#SVGID_4_"  overflow="visible"/>
		</clipPath>
		<path clip-path="url(#SVGID_5_)" fill="#FFFFFF" d="M48.857,17.573c-0.137-0.007-0.273-0.024-0.41-0.024
			c-6.377,0-11.555,5.173-11.555,11.556c0,6.376,5.178,11.544,11.555,11.544c0.752,0,1.482-0.075,2.199-0.212
			c5.326-1.024,9.35-5.709,9.35-11.332C59.996,22.863,55.042,17.794,48.857,17.573"/>
		<path clip-path="url(#SVGID_5_)" fill="#0B0204" d="M48.724,21.236c-0.094-0.003-0.186-0.015-0.279-0.015
			c-4.348,0-7.879,3.527-7.879,7.881c0,4.351,3.531,7.875,7.879,7.875c0.514,0,1.012-0.051,1.502-0.145
			c3.633-0.7,6.377-3.893,6.377-7.73C56.324,24.846,52.947,21.388,48.724,21.236"/>
	</g>
	<g>
		<defs>
			<path id="SVGID_6_" d="M51.169,33.689c-6.666,1.46-11.223,6.638-10.174,11.56c1.047,4.927,7.299,7.748,13.963,6.29
				c6.658-1.457,11.213-6.643,10.17-11.563c-0.861-4.048-5.234-6.669-10.459-6.669C53.533,33.307,52.359,33.431,51.169,33.689"/>
		</defs>
		<clipPath id="SVGID_7_">
			<use xlink:href="#SVGID_6_"  overflow="visible"/>
		</clipPath>
		
			<radialGradient id="SVGID_8_" cx="-289.5591" cy="522.5293" r="1.28" gradientTransform="matrix(-8.3956 -1.1305 0.9453 -6.7283 -2871.9023 3230.9817)" gradientUnits="userSpaceOnUse">
			<stop  offset="0" style="stop-color:#9F0945"/>
			<stop  offset="0.0034" style="stop-color:#9F0945"/>
			<stop  offset="0.3766" style="stop-color:#AF0F4D"/>
			<stop  offset="1" style="stop-color:#D31B5E"/>
		</radialGradient>
		<polygon clip-path="url(#SVGID_7_)" fill="url(#SVGID_8_)" points="68.886,33.673 40.435,29.842 37.232,52.632 65.685,56.463 		
			"/>
	</g>
	<rect x="7.937" y="16.145" fill="#D31B5E" width="53.604" height="12.308"/>
	<g>
		<defs>
			<rect id="SVGID_9_" x="0" width="71.844" height="67.504"/>
		</defs>
		<clipPath id="SVGID_10_">
			<use xlink:href="#SVGID_9_"  overflow="visible"/>
		</clipPath>
		<path clip-path="url(#SVGID_10_)" fill="#BA1453" d="M35.498,0c-1.078,0-2.15,0.063-3.207,0.165
			c17.137,1.618,30.547,16.03,30.547,33.587c0,17.556-13.41,31.976-30.547,33.59c1.057,0.102,2.129,0.164,3.207,0.164
			c18.645,0,33.752-15.11,33.752-33.754C69.25,15.118,54.142,0,35.498,0"/>
		<path clip-path="url(#SVGID_10_)" fill="#0B0204" d="M29.996,46.752c0,0.02,0.014,0.058,0.049,0.063
			c-0.01,0.02,0.041,0.04,0.027,0.059c-0.006,0.013-0.023,0.019-0.037,0.031c0.002,0.009,0.006,0.023,0.008,0.039
			c-0.023-0.008-0.045-0.021-0.053-0.016c-0.027,0.021,0.08,0.053,0.047,0.063c-0.008,0.003-0.02,0.014-0.02,0.014
			c-0.004,0.064-0.092,0.084-0.088,0.154c0.002,0.013-0.035,0.032-0.035,0.032c0.037,0.049-0.023,0.05-0.037,0.071
			c0.027,0.023,0.037,0.049,0.031,0.082c-0.008,0.062-0.01,0.091-0.021,0.15c0,0.015-0.004,0.034,0.008,0.043
			c0.031,0.028,0.02,0.063,0.018,0.094c-0.004,0.043,0.145,0.105,0.148,0.149c0.004,0.026,0.018,0.048,0.008,0.08
			c-0.014,0.052-0.01,0.092-0.035,0.134l0.074,0.066l-0.023,0.041c-0.006,0.017-0.006,0.035-0.01,0.05
			c-0.02-0.001-0.031-0.002-0.045-0.005c-0.008,0.012-0.014,0.031-0.023,0.035c-0.049,0.008-0.051,0.006-0.051,0.025
			c0,0,0.002,0.022,0.006,0.042c0.012,0.063,0.021,0.125,0.068,0.174l0.008,0.015c-0.004,0.06,0.01,0.123-0.016,0.171
			c-0.035,0.059-0.01,0.095,0.018,0.128c0.021,0,0.053,0.002,0.053,0.002c0.016,0.036-0.027,0.019-0.039,0.037
			c0.012,0.005,0.033,0.013,0.033,0.013c0.016,0.05,0.039,0.103,0.014,0.148c-0.018,0.029-0.014,0.056-0.02,0.084l0.008,0.014
			l0.025-0.019l0.01,0.06c0.021-0.007,0.035-0.013,0.051-0.019c0.012,0.025,0.039,0.05,0.035,0.067
			c-0.01,0.04,0.025,0.047,0.045,0.054c0.029,0.012,0.053,0.021,0.068,0.047c0.008,0.01,0.037,0.023,0.047,0.02
			c0.025-0.011,0.031,0.031,0.061,0.013c0.006-0.004,0.027,0.01,0.045,0.01c0.104,0.004,0.193,0.043,0.283,0.081l0.025,0.009
			c0.053,0.007,0.457,0.019,0.488,0.07h0.012c0.025-0.022,0.066-0.006,0.094-0.032c0.029-0.025-0.031-0.038-0.018-0.053
			c0.094-0.053,0.154-0.128,0.254-0.165c0-0.018,0.008-0.048-0.002-0.054c-0.041-0.022-0.023-0.063-0.049-0.088
			c0,0,0.002-0.018,0.006-0.026l0.086,0.006l0.033-0.057c-0.016-0.01-0.027-0.022-0.043-0.028c-0.031-0.015-0.02-0.044-0.008-0.047
			c0.055-0.018,0.035-0.045,0.025-0.076c-0.006-0.015-0.012-0.037-0.004-0.046c0.035-0.04,0.018-0.088,0.029-0.132
			c-0.047-0.021-0.049-0.083-0.117-0.091l0.004-0.041c-0.025-0.002-0.055-0.003-0.055-0.003c-0.031-0.032-0.055-0.051-0.076-0.073
			c0.018-0.043,0.057-0.08,0.047-0.128c-0.063-0.032-0.09-0.074-0.086-0.13c0.021-0.001,0.041-0.001,0.057-0.004
			c0.004-0.015,0.004-0.034,0.014-0.039c0.045-0.037,0.094-0.074,0.156-0.091c0.014-0.004,0.035-0.006,0.039-0.018
			c0.014-0.036-0.217-0.071-0.18-0.076c0.047-0.006-0.207-0.09-0.154-0.088l0.01-0.014c-0.006-0.027,0.021-0.037,0.039-0.05
			l0.086-0.071l0.002-0.013c-0.008-0.027,0.008-0.047,0.027-0.064c0.018-0.019,0.051-0.033,0.078-0.042
			c0.02-0.006,0.014-0.017,0.01-0.033v0.001v-0.004c-0.006-0.009-0.002-0.011-0.002-0.011l0.012,0.009l-0.006,0.002
			c0.02,0.004,0.031,0.008,0.045,0.011c-0.004-0.011-0.01-0.02-0.01-0.02l-0.002-0.08l-0.047-0.012
			c-0.002-0.013,0.004-0.036-0.008-0.044c-0.033-0.026-0.025-0.057-0.02-0.086c0.006-0.042,0.012-0.074,0.02-0.131
			c0.006-0.043-0.129-0.152-0.129-0.152L29.996,46.752z"/>
		<path clip-path="url(#SVGID_10_)" fill="#0B0204" d="M40.72,47.293c0.002,0.012,0.002,0.021-0.002,0.03l-1.426,0.223l-0.004-0.006
			c-0.02-0.016-0.025-0.034-0.027-0.057c-0.004-0.034-0.031-0.042-0.07-0.043c0-0.01-0.008-0.021-0.004-0.031
			c0.004-0.019,0.025-0.041-0.012-0.054c0,0,0.004-0.02,0.006-0.028c0.004-0.034-0.102-0.048-0.137-0.068
			c-0.037-0.02-0.023-0.065-0.063-0.09c-0.006-0.005-0.01-0.023-0.004-0.031c0.027-0.031-0.006-0.056,0-0.09
			c-0.021,0.013-0.035,0.021-0.055,0.035c-0.016-0.071-0.035-0.13-0.025-0.197c0.008-0.056,0.035-0.112,0.012-0.167
			c-0.01-0.02-0.002-0.046-0.035-0.052c0.018-0.021,0.01-0.043,0-0.059c-0.008-0.024-0.041-0.051-0.033-0.064
			c0.02-0.036-0.012-0.055-0.006-0.082c-0.02-0.007-0.033-0.012-0.049-0.018l0.006-0.013c0.037-0.032,0.051-0.063,0.023-0.081
			c-0.049-0.035-0.045-0.089-0.063-0.134c-0.012-0.019,0.01-0.046,0.01-0.072c0-0.022-0.014-0.045-0.01-0.067
			c0-0.021,0.006-0.044,0.02-0.058c0.021-0.021,0.027-0.034,0.031-0.057c0.002-0.017,0.033-0.028,0.02-0.054
			c-0.008-0.015,0.037-0.036,0.027-0.059l0.025,0.008c0-0.046-0.002-0.091-0.002-0.128c0-0.008-0.012-0.017-0.018-0.023
			c-0.014-0.012-0.033-0.026-0.029-0.038c0.016-0.058-0.037-0.081-0.061-0.117c-0.023-0.039-0.07-0.062-0.094-0.102
			c-0.008-0.011-0.023-0.026-0.035-0.024c-0.064,0.007-0.063-0.031-0.066-0.067c-0.002-0.028-0.01-0.046-0.039-0.058
			c-0.023-0.008-0.051-0.021-0.059-0.047l-0.02-0.006c-0.02,0.011-0.025,0.005-0.031-0.008c-0.018-0.02-0.051-0.064-0.061-0.078
			c-0.018-0.029-0.029-0.061-0.045-0.097c0,0,0.012-0.009,0.021-0.02c-0.018-0.042-0.031-0.092-0.063-0.129
			c-0.049-0.064-0.053-0.062-0.063-0.136c-0.004-0.022-0.01-0.031-0.027-0.041c-0.078-0.044-0.16-0.085-0.205-0.16
			c-0.004-0.007-0.018-0.015-0.018-0.024c0.004-0.065-0.051-0.063-0.105-0.065c0.01-0.019,0.016-0.031,0.021-0.045
			c-0.045-0.024-0.098-0.042-0.137-0.077c-0.008-0.01-0.029-0.007-0.039-0.017c-0.008-0.004-0.016-0.024-0.016-0.024
			c-0.037-0.004,0.018-0.025,0.006-0.037c-0.031-0.009-0.057-0.017-0.066-0.054c-0.012-0.029-0.041-0.057-0.088-0.051
			c-0.008,0-0.014-0.019-0.021-0.03c-0.012,0.017-0.02,0.016-0.033,0.016c-0.043-0.003-0.078-0.012-0.107-0.038
			c-0.025-0.016-0.043-0.051-0.084-0.035c-0.01,0.004-0.02-0.002-0.025,0.003c-0.049,0.027-0.061,0.027-0.088,0.017
			c-0.035-0.016-0.055-0.049-0.074-0.078c-0.027-0.046-0.072-0.066-0.115-0.078c-0.031-0.011-0.063-0.004-0.068-0.046
			c-0.029,0.004-0.031-0.045-0.064-0.031l-0.01-0.011c0-0.044-0.023-0.046-0.057-0.05c-0.037-0.002-0.072-0.019-0.1-0.056
			c-0.014-0.023-0.033-0.049-0.064-0.052c-0.025-0.007-0.035-0.026-0.039-0.058c0-0.008-0.008-0.021-0.008-0.021
			c-0.051,0.004-0.1-0.014-0.156,0.011c-0.047,0.02-0.104,0.064-0.148,0.016c-0.006-0.009-0.02,0.005-0.031,0.001
			c-0.029-0.009-0.057,0.017-0.086,0.006c-0.023-0.009-0.055-0.008-0.084-0.013v-0.034c-0.035,0.03-0.035,0.03-0.076,0.024
			c-0.027,0-0.057-0.004-0.07,0.051l-0.08,0.04c-0.023-0.045-0.037,0.009-0.057,0.02c-0.012,0.007-0.02,0.03-0.029,0.046
			c-0.035-0.007-0.072-0.003-0.102-0.021c-0.027-0.013-0.049-0.01-0.072-0.014c-0.031-0.008-0.094-0.021-0.137-0.028
			c-0.023-0.004-0.047-0.011-0.064-0.007c-0.07,0.022-0.07,0.021-0.188,0.005c-0.049-0.006-0.1,0.002-0.15,0.002
			c-0.018-0.029-0.027-0.07-0.063-0.058c-0.025,0.01-0.047-0.014-0.07-0.017c-0.027-0.005-0.033-0.031-0.041-0.06L34.8,43.61
			l-0.006,0.039c-0.014,0.001-0.029,0-0.041,0.005c-0.012,0.002-0.023,0.01-0.031,0.022s-0.016,0.028-0.029,0.023
			c-0.023-0.007-0.033,0.025-0.051,0.025c-0.023-0.004-0.033,0.027-0.049,0.037c-0.045,0.026-0.078,0.08-0.129,0.079
			c-0.064,0.006-0.115,0.063-0.178,0.076c-0.008,0.004-0.014,0.02-0.02,0.032l-0.021-0.033c-0.043,0.002-0.072,0.032-0.094,0.076
			l-0.01,0.022c-0.004,0.015,0.002,0.036-0.004,0.046c-0.031,0.063-0.031,0.062-0.068,0.08c-0.008,0.005-0.02,0.017-0.025,0.01
			c-0.059-0.054-0.068,0.013-0.09,0.035l-0.023,0.03c-0.016,0.013-0.047,0.014-0.049,0.033c-0.006,0.031-0.033,0.008-0.047,0.021
			c-0.027,0.022-0.063,0.036-0.098,0.045c-0.014,0.003-0.033,0.014-0.059-0.02c-0.01-0.016-0.029-0.029-0.041-0.029
			c-0.039-0.001-0.082-0.04-0.121-0.046c-0.014-0.003-0.025,0.008-0.039,0.01c-0.027-0.04-0.006-0.064-0.008-0.104
			c-0.014,0.006-0.023,0.009-0.029,0.019c-0.008,0.01,0.004,0.041-0.027,0.031l-0.057-0.018l-0.021-0.017l-0.008-0.003
			c-0.006,0.009-0.016,0.019-0.016,0.019c-0.037-0.044-0.043-0.01-0.059,0.006c-0.02,0.019-0.031,0.04-0.041,0.066
			c-0.008,0.032-0.037,0.048-0.051,0.075c-0.031,0.06-0.096,0.096-0.104,0.178c-0.006,0.04-0.041,0.064-0.063,0.097
			c-0.021,0.031-0.063,0.045-0.098,0.063c-0.023,0.012-0.045,0.021-0.064,0.038c-0.025,0.02-0.037,0.05-0.086,0.05
			c-0.029,0.001-0.055,0.035-0.074,0.06c-0.027,0.031-0.059,0.053-0.098,0.068c-0.014,0.003-0.047,0.003-0.029,0.038
			c-0.016,0.01-0.029,0.019-0.055,0.033c-0.014,0.006-0.031,0.002-0.045,0.012c-0.02,0.009-0.035,0.025-0.053,0.039l-0.012,0.018
			c-0.053-0.008-0.063,0.031-0.076,0.058c-0.027-0.004-0.047-0.005-0.057-0.007c-0.113,0.122-0.174,0.261-0.287,0.392l0.039,0.058
			c0.043,0.072,0.035,0.13-0.014,0.182c-0.02,0.019,0.006,0.024,0.008,0.037l0.023-0.021l0.01,0.012
			c-0.014,0.018-0.033,0.031-0.039,0.052c-0.012,0.034-0.033,0.073-0.02,0.11c0.018,0.062-0.037,0.092-0.051,0.135
			c-0.045,0.014-0.057,0.058-0.098,0.07c-0.018,0.001-0.035,0.006-0.055,0.009c0.018,0.039,0.008,0.073-0.031,0.09
			c-0.043,0.019-0.021,0.063-0.061,0.088c-0.027,0.02-0.02,0.068,0,0.106c0.012,0.021,0.008,0.037-0.016,0.046
			c-0.016,0.006-0.008,0.039-0.039,0.02c-0.025-0.015,0-0.021,0.008-0.033c0.008-0.014,0-0.039,0-0.063
			c-0.037-0.012-0.061,0.069-0.07,0.021c-0.027,0.043-0.135,0.012-0.086,0.033c0.09,0.036,0.047,0.074,0.047,0.074
			c-0.084,0.021,0.045,0.084-0.006,0.124c-0.016,0.012,0.018,0.054,0.014,0.079c-0.016,0.077-0.021,0.103-0.035,0.179
			c-0.008,0.042-0.049,0.075-0.045,0.118c0,0.029-0.02,0.054-0.035,0.079L30,46.75c-0.008-0.023-0.01-0.045-0.027-0.068
			c-0.006-0.008,0.008-0.042,0.008-0.042c0.053-0.04,0.008-0.062-0.014-0.087l-0.021-0.027c0.002-0.068,0.006-0.108,0.01-0.183
			c0-0.115,0.004-0.136,0.057-0.255c-0.023-0.036,0.029-0.046,0.025-0.08c-0.002-0.026,0.014-0.053,0.004-0.084
			c-0.008-0.038,0.033-0.078,0.012-0.123c0.02-0.035-0.01-0.063-0.023-0.097c0.033-0.015,0.055-0.045,0.098-0.039
			c0.023,0.003,0.053-0.017,0.076-0.032c0.012-0.005,0.02-0.019,0.029-0.023s0.027-0.007,0.033,0
			c0.006,0.008,0.004,0.023,0.004,0.045l0.115-0.093c0,0,0.008,0.012,0.012,0.025c0.045-0.041,0.104-0.038,0.154-0.05
			c0.047-0.012,0.035-0.035,0.041-0.065c0.016,0.01,0.037,0.028,0.049,0.025c0.023-0.012,0.057-0.028,0.064-0.048
			c0.023-0.068,0.072-0.137,0.035-0.216c-0.008-0.013-0.004-0.033,0.002-0.044c0.012-0.021,0.008-0.038-0.002-0.058
			c-0.004-0.009-0.008-0.023-0.004-0.036c0.018-0.054,0.02-0.072,0.045-0.154c0.006-0.047,0.006-0.096,0.01-0.146
			c0-0.06,0.01-0.119,0.033-0.178c0.016-0.038,0.035-0.081,0.035-0.121c0-0.06,0.035-0.092,0.072-0.122
			c0.02-0.016,0.045-0.025,0.064-0.038c-0.01-0.025,0.016-0.044,0.02-0.063c0.004-0.058,0.039-0.1,0.07-0.153
			c-0.008-0.022-0.018-0.052-0.023-0.074c0.037-0.018,0.064-0.028,0.098-0.043c0.027-0.008,0.055-0.006,0.082-0.01l0.016-0.009
			C31.339,44,31.335,44,31.384,43.973h0.008c-0.002,0.029,0.018,0.04,0.037,0.048c0,0,0.014-0.015,0.025-0.018
			c0.072-0.015,0.141-0.066,0.217-0.059l0.02,0.02c0.031-0.015,0.063-0.028,0.1-0.046c0.053-0.021,0.08-0.072,0.131-0.097
			c0.074-0.036,0.119-0.105,0.176-0.167c0.025-0.027,0.043-0.065,0.064-0.097c0.033-0.036,0.061-0.071,0.074-0.086
			c0.018-0.018,0.045-0.026,0.059-0.045c0.031-0.062,0.084-0.105,0.121-0.162c0.008-0.015,0.021-0.022,0.039-0.035
			c0.057-0.043,0.105-0.092,0.127-0.167c0.012-0.031,0.043-0.06,0.057-0.095c0,0,0.025-0.007,0.041-0.013l-0.014-0.091
			c0.035,0.006,0.063-0.003,0.066-0.039c0.006-0.077,0.057-0.122,0.121-0.158c0.047-0.024,0.086-0.065,0.146-0.075
			c0.016-0.004,0.041-0.029,0.035-0.05c-0.012-0.045,0.016-0.063,0.047-0.08l0.066-0.034c0.012-0.005,0.02-0.014,0.029-0.014
			c0.059,0,0.123,0.019,0.158-0.054l0.02,0.005c0.057,0.033,0.086-0.018,0.105-0.046c0.021-0.036,0.043-0.058,0.084-0.07
			c0.014-0.005,0.023-0.023,0.037-0.035c0.021-0.019,0.057,0.005,0.057,0.005c-0.021,0.069,0.049,0.026,0.064,0.046
			c-0.01,0.011-0.02,0.019-0.041,0.034c0.029,0.003,0.053,0,0.07,0.009c0.027,0.018,0.059,0.043,0.059,0.079
			c0.004,0.058,0.057,0.054,0.088,0.076c0.016,0.012,0.059-0.01,0.039,0.04c0.023,0.004,0.051,0.01,0.068,0.014
			c0.021,0.001,0.035-0.017,0.039-0.037c0.002-0.026,0.008-0.049,0.043-0.05c0.008,0,0.02-0.006,0.025-0.012
			c0.053-0.062,0.131-0.065,0.209-0.08c0.018-0.049,0.064-0.071,0.104-0.099c0.037-0.031,0.08-0.045,0.125-0.059
			c0.08-0.026,0.156-0.071,0.246-0.084c0.023-0.001,0.039-0.026,0.063-0.039c0.072-0.033,0.152-0.014,0.229-0.02
			c0.018-0.03,0.021-0.066,0.063-0.062c0.059,0,0.031,0,0.076-0.001c0.043,0.004,0.078-0.022,0.115-0.039
			c0.068,0.066,0.07,0.066,0.078,0.107c0.041,0.016,0.068-0.016,0.104-0.035c0.078-0.042,0.201-0.09,0.314-0.071
			c0.014,0.044,0.025,0.087,0.033,0.134c0.01,0.034,0.033,0.073,0.057,0.109c0.012,0.018-0.018,0.05,0.021,0.056
			c-0.014,0.039,0.025,0.058,0.043,0.083c0.023,0.04,0.033,0.096,0.09,0.113c0.014,0.005,0.031,0.022,0.031,0.035
			c-0.004,0.05,0.041,0.029,0.057,0.045c-0.008,0.016-0.014,0.03-0.029,0.062c0.07-0.023,0.121-0.019,0.17-0.07
			c0.049-0.054,0.121-0.077,0.201-0.063c0.039,0.006,0.09-0.018,0.119,0.013c0.031,0.026,0.066,0.024,0.1,0.044
			c0.021-0.038,0.043-0.07,0.068-0.11c0.039,0.01,0.078,0.03,0.123,0.037c0.041,0.009,0.088,0.025,0.131-0.014
			c0.033-0.024,0.068-0.011,0.098,0.022c0.006,0.009,0.029,0.016,0.029,0.016c0.031-0.021,0.064-0.007,0.096-0.005
			c0.018,0.001,0.047,0.003,0.055,0.014c0.025,0.04,0.061,0.049,0.102,0.052l0.02,0.011c0.043,0.035,0.084,0.066,0.146,0.045
			c0.016-0.004,0.057-0.013,0.066,0.027l0.02,0.005c0.041-0.004,0.076-0.005,0.109,0.037c0.021,0.029,0.07,0.044,0.084,0.083
			c0.01,0.03,0.035,0.036,0.055,0.054c0.035,0.027,0.086,0.04,0.105,0.086c0.012,0.025,0.049,0.052,0.08,0.014
			c0.027,0.025,0.072,0.024,0.096,0.048c0.021,0.018,0.025,0.058,0.033,0.085c0,0,0,0.019-0.002,0.03l-0.018-0.005l-0.002,0.012
			c0,0,0.01,0,0.018-0.005c0.016,0.056,0.053,0.114,0.018,0.176c0.018,0.043,0.006,0.104,0.051,0.123
			c0.045,0.024-0.01,0.059,0.021,0.072c0.02,0.009,0.039-0.031,0.066,0.002c0.027,0.041,0.078,0.044,0.119,0.029
			c0.057-0.017,0.109,0.004,0.16,0.021l0.121,0.045c0.025,0.01,0.031,0.019,0.029,0.039c0.01,0,0.02-0.002,0.043-0.005
			c0.043,0.051,0.109,0.099,0.189,0.118c0.016,0.074,0.107,0.054,0.135,0.119c0.006,0.013,0.041,0.013,0.072,0.022
			c0.027,0.027,0.045,0.085,0.105,0.084c0.01,0,0.02,0.018,0.031,0.028l0.121,0.131c0.008,0.007,0.018,0.016,0.025,0.016
			c0.043,0.004,0.072,0.019,0.064,0.071c-0.004,0.015,0.018,0.02,0.047,0.011l0.01,0.002l0.035-0.007
			c0.016,0.034,0.029,0.061,0.047,0.099c0.012,0.03,0.016,0.075,0.039,0.092c0.051,0.035,0.068,0.092,0.102,0.139
			c0.014,0.019,0.023,0.042,0.008,0.059c-0.035,0.031,0,0.065,0.01,0.085c0.018,0.034-0.008,0.043-0.012,0.051
			c-0.002,0.051,0.064,0.078,0.018,0.138c0,0,0,0.002,0.014,0.026c0.031,0.045,0.039,0.097,0.023,0.147
			c-0.006,0.021-0.006,0.04,0.021,0.032c0.012,0.013,0.012,0.039,0.037,0.029c0.012,0.006,0.02,0.014,0.035,0.026l-0.086,0.038
			c0.002,0.017,0.004,0.026,0.006,0.038l-0.039,0.001c0,0.029-0.049,0.027-0.035,0.069c0.006,0.024-0.025,0.021-0.039,0.016
			c-0.012,0.027-0.023,0.056-0.037,0.093c0.014,0.039,0.037,0.088,0.057,0.139l0.047,0.008c0.018,0.001,0.043,0.011,0.043,0.011
			c0.002,0.063,0.066,0.079,0.096,0.123c0.029,0.04,0.068,0.074,0.102,0.113c0.018,0.019-0.004,0.046,0.023,0.067
			c0.025,0.017,0.025,0.054,0.049,0.079c0.027,0.024,0.018,0.082,0.045,0.102c0.027,0.021,0.045,0.047,0.07,0.072
			c0.008,0.007,0.02,0.023,0.018,0.031c-0.021,0.066,0.033,0.095,0.063,0.139c0.031,0.051,0.063,0.104,0.086,0.16
			c0.016,0.038,0.066,0.064,0.033,0.116c0,0,0.014,0.024,0.021,0.037l0.074,0.112l0.002,0.017c-0.072,0.036-0.008,0.07,0.008,0.093
			c0.029,0.044,0.031,0.08,0.002,0.122c-0.014,0.023-0.012,0.023,0.02,0.059l-0.025,0.024c-0.063,0.056,0.025,0.071,0.066,0.128
			c0.035,0.051,0.025,0.087,0,0.125c-0.014,0.021-0.006,0.025,0.006,0.04C40.714,47.245,40.712,47.271,40.72,47.293 M36.037,42.485
			l0.031,0.039C36.085,42.48,36.068,42.476,36.037,42.485"/>
		<path clip-path="url(#SVGID_10_)" fill="#0B0204" d="M40.078,49.364c0.035-0.058,0.076-0.068,0.15-0.046
			c0.016-0.04,0.016-0.038,0.061-0.04l0.023-0.003c0.051-0.036,0.117-0.023,0.176-0.033l0.016-0.009l0.008-0.033
			c0.012,0.007,0.018,0.012,0.037,0.025c-0.018-0.05,0.027-0.09,0-0.134c-0.008-0.001-0.016-0.008-0.016-0.008l0.012-0.005
			l0.006,0.013h-0.002c0.047,0.006,0.043-0.045,0.076-0.05l-0.012-0.011c-0.006-0.015-0.002-0.011,0.018-0.022l0.061-0.021
			c0.01-0.004,0.016-0.029,0.021-0.044c0.016-0.034,0.016-0.071,0.012-0.108c-0.01-0.063-0.027-0.128,0.021-0.189
			c-0.02-0.002-0.037-0.005-0.037-0.005c-0.014-0.032,0.09-0.068,0.113-0.104l0.008-0.021c-0.031-0.022-0.014-0.056-0.025-0.082
			c-0.008-0.029-0.012-0.058-0.029-0.082c-0.023-0.025-0.025-0.059-0.029-0.088c-0.006-0.031-0.023-0.066-0.01-0.091
			c0.018-0.033-0.02-0.05-0.014-0.077c0.004-0.031-0.029-0.035-0.047-0.05c0.025-0.021,0.014-0.048,0.012-0.069l-0.012-0.014
			c-0.045-0.042,0.016-0.089-0.012-0.14c-0.012-0.025,0.133-0.112,0.141-0.129c0.021-0.035-0.016-0.045-0.014-0.068
			c0-0.024-0.021-0.043-0.029-0.065c-0.006-0.018-0.016-0.037-0.029-0.073c-0.023-0.045-0.07-0.073-0.086-0.121l-0.012-0.033
			L39.21,47.56c-0.01,0.01-0.018,0.022-0.018,0.037c0,0-0.023,0.005-0.037,0.009c-0.063,0.02-0.096,0.062-0.109,0.115
			c-0.008,0.028,0.045,0.014,0.023,0.047c0,0,0.029,0.02,0.037,0.03c0.006,0.014,0.016,0.038,0.008,0.048
			c-0.021,0.029-0.201,0.127-0.197,0.156c0.008,0.059-0.016,0.12,0.008,0.178l-0.008,0.014c-0.008,0.043-0.008,0.043,0.039,0.065
			c0.008,0.006,0.016,0.011,0.021,0.018c0.008,0.02-0.027,0.045,0.008,0.062l-0.033,0.065l-0.035,0.058
			c-0.012,0.021-0.01,0.09,0.002,0.102c0.014,0.002,0.025,0.004,0.043,0.007c-0.008,0.019-0.016,0.031-0.021,0.051
			c0.039,0.025,0.074,0.053,0.074,0.103l0.016,0.02c0.066,0.006,0.063,0.064,0.098,0.095c0.045,0.037,0.01,0.1,0.053,0.138
			c-0.02,0.024-0.025,0.049,0.01,0.071l0.002,0.019c-0.037,0.075,0,0.14,0.035,0.203l-0.014,0.017
			c0.037,0.003,0.074,0.009,0.113,0.025C39.578,49.415,39.812,49.403,40.078,49.364"/>
	</g>
</g>
</svg>
