<svg version="1.2" xmlns="http://www.w3.org/2000/svg" viewBox="0 0 30 42" width="30" height="42"><style>.a{fill:#504f4e}.b{fill:none;stroke:#fc0;stroke-linecap:round;stroke-width:3}</style><path class="a" d="m23.1 2.3q0.2-0.7 0.7-1.2 0.6-0.5 1.2-0.8 0.7-0.3 1.4-0.3c0.9 0.1 1.6 0.6 2.2 1.3 0.6 0.6 0.9 1.5 0.9 2.3 0 0.9-0.3 1.8-0.9 2.4-0.6 0.7-1.3 1.2-2.2 1.3q-0.7 0-1.4-0.3-0.6-0.2-1.1-0.8-0.6-0.5-0.8-1.1-0.3-0.7-0.3-1.4 0-0.7 0.3-1.4z"/><path class="a" d="m23.1 36.8q0.2-0.7 0.7-1.2 0.6-0.5 1.2-0.8 0.7-0.3 1.4-0.3c0.9 0.1 1.6 0.6 2.2 1.3 0.6 0.6 0.9 1.5 0.9 2.4 0 0.8-0.3 1.7-0.9 2.3-0.6 0.7-1.3 1.2-2.2 1.3q-0.7 0-1.4-0.3-0.6-0.2-1.1-0.8-0.6-0.5-0.8-1.1-0.3-0.7-0.3-1.4 0-0.7 0.3-1.4z"/><path class="b" d="m26.4 5.1v32.3"/><path class="a" d="m0.8 2.3q0.3-0.7 0.8-1.2 0.5-0.5 1.2-0.8 0.7-0.3 1.4-0.3c1.4 0 2.8 0.9 3.3 2.2 0.6 1.3 0.3 2.9-0.7 3.9-1 1-2.6 1.4-3.9 0.9-1.4-0.6-2.3-1.9-2.3-3.3q0-0.7 0.2-1.4z"/><path class="a" d="m0.8 36.8q0.3-0.7 0.8-1.2 0.5-0.5 1.2-0.8 0.7-0.3 1.4-0.3c1.4 0 2.8 0.9 3.3 2.2 0.6 1.3 0.3 2.9-0.7 3.9-1 1-2.6 1.4-3.9 0.9-1.4-0.6-2.3-1.9-2.3-3.3q0-0.7 0.2-1.4z"/><path class="b" d="m4.2 5.1v32.3"/></svg>