<?xml version="1.0" encoding="utf-8"?>
<!-- Generator: Adobe Illustrator 21.1.0, SVG Export Plug-In . SVG Version: 6.00 Build 0)  -->
<svg version="1.1" id="Capa_1" xmlns="http://www.w3.org/2000/svg" xmlns:xlink="http://www.w3.org/1999/xlink" x="0px" y="0px"
	 viewBox="0 0 52.934 35.98" style="enable-background:new 0 0 52.934 35.98;" xml:space="preserve">
<style type="text/css">
	.st0{clip-path:url(#SVGID_2_);}
	.st1{clip-path:url(#SVGID_4_);fill:#005CA8;}
	.st2{filter:url(#Adobe_OpacityMaskFilter);}
	.st3{clip-path:url(#SVGID_4_);}
	.st4{clip-path:url(#SVGID_4_);mask:url(#SVGID_5_);}
	.st5{opacity:0.2;clip-path:url(#SVGID_9_);fill:#1D1D1B;}
	.st6{clip-path:url(#SVGID_2_);fill:#FFFFFF;}
	.st7{clip-path:url(#SVGID_11_);fill:none;stroke:#005CA8;stroke-width:1.777;stroke-linecap:round;}
	.st8{clip-path:url(#SVGID_2_);fill:none;stroke:#005CA8;stroke-width:1.185;stroke-linecap:round;}
	.st9{clip-path:url(#SVGID_13_);fill:#005CA8;}
	.st10{clip-path:url(#SVGID_15_);fill:#FFFFFF;}
</style>
<g>
	<defs>
		<rect id="SVGID_1_" x="-2.688" y="-2.173" width="60.094" height="41.528"/>
	</defs>
	<clipPath id="SVGID_2_">
		<use xlink:href="#SVGID_1_"  style="overflow:visible;"/>
	</clipPath>
	<g class="st0">
		<defs>
			<rect id="SVGID_3_" x="-2.688" y="-2.173" width="60.094" height="41.528"/>
		</defs>
		<clipPath id="SVGID_4_">
			<use xlink:href="#SVGID_3_"  style="overflow:visible;"/>
		</clipPath>
		<path class="st1" d="M25.222,12.826c0,0-1.805,0-1.805,1.805v14.401c0,0,0,1.805,1.805,1.805h25.907c0,0,1.805,0,1.805-1.805
			V14.631c0,0,0-1.805-1.805-1.805H25.222z"/>
		<defs>
			<filter id="Adobe_OpacityMaskFilter" filterUnits="userSpaceOnUse" x="3.361" y="0" width="25.92" height="33.36">
				<feColorMatrix  type="matrix" values="1 0 0 0 0  0 1 0 0 0  0 0 1 0 0  0 0 0 1 0"/>
			</filter>
		</defs>
		<mask maskUnits="userSpaceOnUse" x="3.361" y="0" width="25.92" height="33.36" id="SVGID_5_">
			<g class="st2">
				<g>
					<defs>
						<rect id="SVGID_6_" x="-5.518" y="-6.96" width="44.16" height="41.28"/>
					</defs>
					<clipPath id="SVGID_7_" class="st3">
						<use xlink:href="#SVGID_6_"  style="overflow:visible;"/>
					</clipPath>
					<g transform="matrix(1 0 0 1 0 0)" style="clip-path:url(#SVGID_7_);">
						
							<image style="overflow:visible;" width="184" height="172" xlink:href="7BE0273730C8CE94.jpg"  transform="matrix(0.24 0 0 0.24 -5.5183 -6.96)">
						</image>
					</g>
				</g>
			</g>
		</mask>
		<g class="st4">
			<g>
				<defs>
					<rect id="SVGID_8_" x="3.362" width="25.92" height="33.36"/>
				</defs>
				<clipPath id="SVGID_9_">
					<use xlink:href="#SVGID_8_"  style="overflow:visible;"/>
				</clipPath>
				<rect x="3.361" y="0" class="st5" width="25.92" height="33.36"/>
			</g>
		</g>
	</g>
	<rect x="1.47" y="2.052" class="st6" width="25.605" height="33.132"/>
	<g class="st0">
		<defs>
			<rect id="SVGID_10_" x="-2.688" y="-2.173" width="60.094" height="41.528"/>
		</defs>
		<clipPath id="SVGID_11_">
			<use xlink:href="#SVGID_10_"  style="overflow:visible;"/>
		</clipPath>
		<path class="st7" d="M0.926,2.259v29.778c0,0,0.45,3.058,1.609,3.058h25.42c-1.223,0-1.609-3.058-1.609-3.058V2.259H0.926z"/>
	</g>
	<rect x="4.628" y="12.002" class="st8" width="7.776" height="7.696"/>
	<g class="st0">
		<defs>
			<rect id="SVGID_12_" x="-2.688" y="-2.173" width="60.094" height="41.528"/>
		</defs>
		<clipPath id="SVGID_13_">
			<use xlink:href="#SVGID_12_"  style="overflow:visible;"/>
		</clipPath>
		<path class="st9" d="M21.559,7.356l0.462-1.552l0.47,1.552H21.559z M22.959,8.942h0.836l-1.313-3.957H21.6l-1.296,3.957h0.794
			l0.275-0.93h1.307L22.959,8.942z M20.485,4.985h-2.884v0.689h1.054v3.268h0.775V5.674h1.055V4.985z M14.929,7.906l-0.341,0.548
			c0.376,0.324,0.845,0.544,1.393,0.544c0.744,0,1.344-0.399,1.344-1.215c0-1.436-1.866-0.919-1.866-1.709
			c0-0.29,0.249-0.458,0.587-0.458c0.285,0,0.62,0.118,0.891,0.309l0.335-0.532c-0.343-0.287-0.811-0.465-1.277-0.465
			c-0.716,0-1.299,0.415-1.299,1.204c0,1.397,1.849,0.917,1.849,1.709c0,0.299-0.26,0.452-0.607,0.452
			C15.595,8.293,15.24,8.143,14.929,7.906 M13.255,8.942h0.777V4.985h-0.777V8.942z M10.422,4.985H9.593l1.265,3.957h0.667
			l1.27-3.957h-0.788l-0.796,2.74L10.422,4.985z M6.924,8.942h2.414V8.256H7.692V7.289h1.395V6.605H7.692V5.671h1.607V4.985H6.924
			V8.942z M4.339,6.82V5.664h0.495c0.386,0,0.635,0.196,0.635,0.581c0,0.368-0.227,0.575-0.635,0.575H4.339z M3.576,8.942h0.763
			V7.501h0.425l0.751,1.441h0.9L5.534,7.38c0.446-0.195,0.71-0.613,0.71-1.146c0-0.729-0.496-1.249-1.333-1.249H3.576V8.942z"/>
	</g>
	<line class="st8" x1="14.71" y1="13.292" x2="22.728" y2="13.292"/>
	<line class="st8" x1="14.71" y1="16.424" x2="22.728" y2="16.424"/>
	<line class="st8" x1="14.71" y1="19.697" x2="22.728" y2="19.697"/>
	<line class="st8" x1="4.297" y1="24.108" x2="23.607" y2="24.108"/>
	<line class="st8" x1="4.297" y1="27.24" x2="23.607" y2="27.24"/>
	<line class="st8" x1="4.297" y1="30.514" x2="23.607" y2="30.514"/>
	<g class="st0">
		<defs>
			<rect id="SVGID_14_" x="-2.688" y="-2.173" width="60.094" height="41.528"/>
		</defs>
		<clipPath id="SVGID_15_">
			<use xlink:href="#SVGID_14_"  style="overflow:visible;"/>
		</clipPath>
		<path class="st10" d="M46.609,23.426c-0.06,0.511-0.155,0.951-0.285,1.319c-0.131,0.369-0.31,0.654-0.535,0.856
			c-0.226,0.202-0.506,0.303-0.838,0.303c-0.333,0-0.61-0.101-0.829-0.303c-0.22-0.202-0.399-0.487-0.535-0.856
			c-0.137-0.368-0.235-0.808-0.294-1.319c-0.06-0.511-0.09-1.076-0.09-1.694s0.03-1.179,0.09-1.685
			c0.059-0.505,0.157-0.941,0.294-1.31c0.136-0.368,0.315-0.654,0.535-0.856c0.219-0.202,0.496-0.303,0.829-0.303
			c0.332,0,0.612,0.101,0.838,0.303c0.225,0.202,0.404,0.488,0.535,0.856c0.13,0.369,0.225,0.805,0.285,1.31
			c0.059,0.506,0.089,1.067,0.089,1.685S46.668,22.915,46.609,23.426 M48.222,16.963c-0.79-1.111-1.881-1.667-3.271-1.667
			c-0.678,0-1.29,0.143-1.837,0.428c-0.547,0.285-1.016,0.701-1.408,1.248c-0.392,0.547-0.693,1.218-0.901,2.015
			c-0.208,0.796-0.312,1.711-0.312,2.745c0,2.08,0.395,3.676,1.186,4.787c0.79,1.112,1.881,1.668,3.272,1.668
			c1.39,0,2.481-0.556,3.271-1.668c0.791-1.111,1.186-2.707,1.186-4.787C49.408,19.664,49.013,18.074,48.222,16.963 M36.036,19.871
			c-0.202,0.308-0.493,0.581-0.873,0.818c-0.678-0.237-1.157-0.521-1.436-0.853c-0.279-0.332-0.419-0.688-0.419-1.067
			c0-0.142,0.03-0.29,0.089-0.444c0.06-0.154,0.152-0.3,0.277-0.436s0.282-0.246,0.472-0.329c0.19-0.083,0.416-0.125,0.678-0.125
			c0.273,0,0.505,0.045,0.695,0.134c0.19,0.089,0.348,0.199,0.473,0.329c0.124,0.13,0.214,0.27,0.267,0.418
			c0.054,0.148,0.08,0.287,0.08,0.417C36.339,19.184,36.238,19.563,36.036,19.871 M33.38,23.402
			c0.225-0.334,0.505-0.626,0.838-0.876c0.332,0.107,0.644,0.223,0.936,0.348c0.291,0.126,0.543,0.268,0.757,0.429
			c0.214,0.161,0.384,0.349,0.509,0.563c0.124,0.215,0.187,0.459,0.187,0.733c0,0.37-0.143,0.703-0.428,1.001
			s-0.737,0.447-1.355,0.447c-0.321,0-0.595-0.048-0.82-0.143c-0.226-0.095-0.41-0.214-0.553-0.357
			c-0.143-0.143-0.247-0.301-0.312-0.474c-0.066-0.173-0.098-0.331-0.098-0.474C33.041,24.135,33.154,23.735,33.38,23.402
			 M38.773,22.804c-0.291-0.482-0.776-0.943-1.453-1.384c0.452-0.284,0.829-0.673,1.132-1.166c0.303-0.492,0.455-1.023,0.455-1.593
			c0-0.392-0.075-0.787-0.223-1.184c-0.149-0.398-0.39-0.757-0.722-1.077c-0.333-0.32-0.758-0.585-1.275-0.792
			c-0.517-0.208-1.138-0.312-1.863-0.312c-0.618,0-1.18,0.098-1.685,0.294c-0.505,0.196-0.936,0.457-1.293,0.783
			c-0.356,0.327-0.633,0.709-0.829,1.149c-0.196,0.439-0.294,0.896-0.294,1.37c0,0.629,0.122,1.146,0.366,1.549
			c0.243,0.404,0.621,0.814,1.132,1.229c-0.238,0.178-0.461,0.369-0.669,0.571c-0.208,0.203-0.395,0.426-0.561,0.67
			c-0.167,0.244-0.298,0.515-0.393,0.812c-0.095,0.298-0.142,0.625-0.142,0.982c0,0.345,0.071,0.723,0.214,1.134
			c0.142,0.41,0.383,0.788,0.722,1.133c0.338,0.346,0.784,0.634,1.337,0.867c0.553,0.231,1.245,0.348,2.077,0.348
			c0.725,0,1.364-0.093,1.917-0.277c0.552-0.185,1.013-0.444,1.381-0.777c0.369-0.333,0.645-0.723,0.829-1.169
			c0.185-0.446,0.277-0.937,0.277-1.473C39.21,23.848,39.064,23.286,38.773,22.804"/>
	</g>
</g>
</svg>
