<?xml version="1.0" encoding="utf-8"?>
<!-- Generator: Adobe Illustrator 21.1.0, SVG Export Plug-In . SVG Version: 6.00 Build 0)  -->
<svg version="1.1" id="Capa_1" xmlns="http://www.w3.org/2000/svg" xmlns:xlink="http://www.w3.org/1999/xlink" x="0px" y="0px"
	 viewBox="0 0 40.032 28.042" style="enable-background:new 0 0 40.032 28.042;" xml:space="preserve">
<style type="text/css">
	.st0{clip-path:url(#SVGID_2_);fill:#00A3B1;}
	.st1{clip-path:url(#SVGID_2_);fill:#FFFFFF;}
</style>
<g>
	<defs>
		<rect id="SVGID_1_" width="40.032" height="28.042"/>
	</defs>
	<clipPath id="SVGID_2_">
		<use xlink:href="#SVGID_1_"  style="overflow:visible;"/>
	</clipPath>
	<path class="st0" d="M27.198,4.084l-22.02,11.22c-2.899,1.477-1.217,4.777-1.217,4.777l1.529,3.001
		c1.682,3.3,4.58,1.823,4.58,1.823l22.02-11.22c2.899-1.476,1.217-4.777,1.217-4.777l-1.529-3.001
		C30.097,2.607,27.198,4.084,27.198,4.084 M37.643,2.816l1.799,3.531c0,0,2.313,4.539-2.226,6.851L9.239,27.453
		c0,0-4.539,2.313-6.851-2.226l-1.799-3.531c0,0-2.313-4.539,2.226-6.851L30.791,0.59C30.791,0.59,35.33-1.723,37.643,2.816"/>
	<path class="st1" d="M35.405,5.421c0.483,0.125,0.772,0.617,0.648,1.1c-0.125,0.483-0.617,0.773-1.1,0.648
		c-0.483-0.125-0.773-0.617-0.648-1.1C34.43,5.587,34.922,5.296,35.405,5.421"/>
	<path class="st0" d="M18.593,19.537l13.416-6.797c0,0,2.723-1.388,1.335-4.111l-1.315-2.582c0,0-1.388-2.723-4.111-1.335
		l-8.802,4.484L18.593,19.537z"/>
</g>
</svg>
