<?xml version="1.0" encoding="utf-8"?>
<!-- Generator: Adobe Illustrator 14.0.0, SVG Export Plug-In . SVG Version: 6.00 Build 43363)  -->
<!DOCTYPE svg PUBLIC "-//W3C//DTD SVG 1.1//EN" "http://www.w3.org/Graphics/SVG/1.1/DTD/svg11.dtd">
<svg version="1.1" id="Layer_1" xmlns="http://www.w3.org/2000/svg" xmlns:xlink="http://www.w3.org/1999/xlink" x="0px" y="0px"
	 width="33.21px" height="18.558px" viewBox="0 0 33.21 18.558" enable-background="new 0 0 33.21 18.558" xml:space="preserve">
<g>
	<path fill="#FFFFFF" d="M5.463,1.525c0,0-3.629,0-3.629,3.63v8.985c0,0,0,3.629,3.629,3.629h22.848c0,0,3.629,0,3.629-3.629V5.155
		c0,0,0-3.63-3.629-3.63H5.463z"/>
</g>
<g>
	<path fill="#F6921E" d="M28.311,18.144H5.463c-3.958,0-4.004-3.964-4.004-4.004V5.155c0-3.959,3.964-4.005,4.004-4.005h22.848
		c3.958,0,4.004,3.965,4.004,4.005v8.985C32.315,18.098,28.351,18.144,28.311,18.144L28.311,18.144z M5.463,1.9
		c-0.132,0-3.254,0.051-3.254,3.255v8.985c0,0.132,0.051,3.254,3.254,3.254H28.31c0.133-0.001,3.255-0.052,3.255-3.254V5.155
		C31.564,5.022,31.513,1.9,28.311,1.9H5.463L5.463,1.9z"/>
</g>
<g>
	<path fill="#F6921E" d="M14.995,18.137c-0.047,0-0.095-0.009-0.141-0.027c-0.192-0.078-0.284-0.297-0.207-0.488l3.234-7.975
		l-3.234-7.975c-0.078-0.192,0.015-0.411,0.207-0.489c0.191-0.078,0.411,0.015,0.489,0.207l3.347,8.257l-3.347,8.256
		C15.284,18.049,15.143,18.137,14.995,18.137L14.995,18.137z"/>
</g>
<g>
	<path fill="#F6921E" d="M10.339,6.929c-0.93,0-1.603,0.258-2.016,0.774C7.909,8.22,7.702,8.926,7.702,9.822
		c0,0.435,0.051,0.83,0.154,1.183c0.103,0.355,0.256,0.66,0.461,0.916c0.205,0.256,0.46,0.454,0.768,0.596
		c0.307,0.141,0.666,0.211,1.075,0.211c0.222,0,0.412-0.004,0.569-0.014c0.158-0.008,0.296-0.025,0.416-0.051V9.579h1.997v4.39
		c-0.239,0.095-0.623,0.194-1.152,0.301s-1.182,0.16-1.958,0.16c-0.666,0-1.269-0.103-1.811-0.308s-1.005-0.503-1.389-0.896
		c-0.384-0.393-0.681-0.875-0.89-1.446c-0.209-0.572-0.313-1.225-0.313-1.958c0-0.743,0.115-1.399,0.346-1.971
		c0.23-0.572,0.546-1.056,0.947-1.453c0.401-0.396,0.873-0.697,1.415-0.902c0.542-0.205,1.12-0.307,1.734-0.307
		c0.418,0,0.796,0.028,1.133,0.083c0.337,0.056,0.627,0.12,0.871,0.192c0.243,0.072,0.443,0.147,0.602,0.224
		c0.158,0.077,0.271,0.137,0.339,0.179l-0.576,1.6c-0.273-0.145-0.587-0.271-0.941-0.377C11.143,6.983,10.757,6.929,10.339,6.929z"
		/>
</g>
<g>
	<path fill="#F6921E" d="M22.972,5.393h1.997v8.87h-1.997V5.393z"/>
</g>
</svg>
