<svg xmlns="http://www.w3.org/2000/svg" xmlns:xlink="http://www.w3.org/1999/xlink" viewBox="0 0 25.12 38.15"><defs><style>.cls-1{fill:none;}.cls-2{isolation:isolate;}.cls-3{clip-path:url(#clip-path);}.cls-4{clip-path:url(#clip-path-2);}.cls-5{opacity:0.57;mix-blend-mode:multiply;}.cls-6{clip-path:url(#clip-path-3);}.cls-7{fill:#b2b2b2;}.cls-8{fill:#3c383d;}.cls-9{fill:#ea5153;}.cls-10{fill:#ef7a72;}</style><clipPath id="clip-path" transform="translate(0 0)"><rect class="cls-1" width="25.12" height="38.15"/></clipPath><clipPath id="clip-path-2" transform="translate(0 0)"><rect class="cls-1" width="25.12" height="38.15"/></clipPath><clipPath id="clip-path-3" transform="translate(0 0)"><rect class="cls-1" x="-9.17" y="17.45" width="38.91" height="21.81"/></clipPath></defs><g class="cls-2"><g id="Capa_1" data-name="Capa 1"><g class="cls-3"><g class="cls-4"><g class="cls-5"><g class="cls-6"><path class="cls-7" d="M9.56,28.76c-1.55.91-2.18,2-1.8,2.85a3.12,3.12,0,0,1-.66.6A10.27,10.27,0,0,1,4.25,33.6h0a11.33,11.33,0,0,0-2.65,1.11h0C-.24,35.82-.54,37.21.93,37.84s4.08.28,5.91-.78h0a6.93,6.93,0,0,0,2.66-2.7h0a3.52,3.52,0,0,1,2.14-1.55A10.35,10.35,0,0,0,15.9,31.5c2.19-1.29,2.55-3,.8-3.71l-.1,0c1.57-1.21,3.69-2.86,4-3.22A33.09,33.09,0,0,0,16,27.39l-.19.14a9.92,9.92,0,0,0-6.28,1.23" transform="translate(0 0)"/></g></g><path class="cls-8" d="M18.2,16.6s1.83,7,2.39,7.87c0,0,.38-1.38-.36-5.44s-2.46-3.3-2-2.43" transform="translate(0 0)"/><path class="cls-9" d="M22.47,3.77C22.45,1.66,20,0,17,0s-5.45,1.76-5.43,3.86S14,7.65,17,7.63s5.44-1.76,5.43-3.86" transform="translate(0 0)"/><path class="cls-9" d="M23.26,11.75c-.59-.66-1.83-.85-2.21-2.47a3.84,3.84,0,0,1,.56-2.95h0a4,4,0,0,0,.85-2.87c-.25-1.9-10.89.34-10.89.34a5.85,5.85,0,0,0,2.31,4.3h0c1.31,1.24,1,2.26.5,3-.16.19-.34.4-.51.62l-.05.07a2.94,2.94,0,0,0-.26.39A4.11,4.11,0,0,0,13,13.26l0,0h0a.93.93,0,0,0,0,.13,3,3,0,0,0-.12.85c0,2.24,2.64,4,5.84,4s5.8-1.87,5.78-4.11a3.33,3.33,0,0,0-1.19-2.43" transform="translate(0 0)"/><path class="cls-10" d="M22,3.18c0-1.69-2.28-3-5.06-3s-5,1.4-5,3.08,2.29,3,5.07,3,5-1.4,5-3.08" transform="translate(0 0)"/><path class="cls-9" d="M25.12,14.32c0-2.52-3-4.54-6.56-4.5s-6.51,2.09-6.49,4.61,3,4.53,6.57,4.5,6.5-2.1,6.48-4.61" transform="translate(0 0)"/><path class="cls-10" d="M13.59,13.62a3.06,3.06,0,0,0-.37,2.71c.63,1.2,3.44,2.28,5.88,2.1s5.94-1.88,5.49-4.32a3.73,3.73,0,0,0-3-3.26c-1.08-.35-1.26-2.88-.72-4a3.6,3.6,0,0,0,.51-1.53s-2.45,2.3-7.28.88a2,2,0,0,0,0,1.4c.33.55,4,.65,5.83-.09,0,0-.56,2.81,1.07,3.57a2,2,0,0,1,0,3.58c-2.87,1.44-6.63.74-7.46-1" transform="translate(0 0)"/></g></g></g></g></svg>