<svg id="Capa_1" data-name="Capa 1" xmlns="http://www.w3.org/2000/svg" xmlns:xlink="http://www.w3.org/1999/xlink" viewBox="0 0 420 165.9"><defs><style>.cls-1{fill:none;}.cls-2{fill:#f39200;}.cls-3{fill:#fff;}.cls-4{clip-path:url(#clip-path);}.cls-5{fill:#1d1d1b;opacity:0.2;isolation:isolate;}</style><clipPath id="clip-path"><polyline class="cls-1" points="553.15 86.1 553.15 -29 -118.85 -29 -118.85 86.1"/></clipPath></defs><g id="Capa_1-2" data-name="Capa 1-2"><path class="cls-2" d="M282.05,140a.86.86,0,0,1,1.07.55v.15a1.72,1.72,0,0,1-1.3,1.8c-.1,0-.2.1-.3.1v-2.4l.5-.2m5.2,9.4a58.86,58.86,0,0,1-3.5-4.8,4.1,4.1,0,0,0,2.2-4.1c-.1-2.2-1.6-3.4-4-3.1h-.4v-.3l-3,.5c.1,4.2.2,8.6,0,12.7,1-.2,2-.3,3-.4v-3.8c.8,1.2,1.6,2.4,2.4,3.8Zm-14.5-1.6c-1.1,0-1.3-1.7-1.3-3.5,0-2.3.4-4.3,1.6-4.3,1,0,1.3,1.5,1.3,3.4s-.3,4.4-1.6,4.4m-.1,2.8c2.6,0,4.2-2.1,4.5-6.2.2-3.4-.6-7.3-4.1-7.3-3,0-4.6,2.9-4.6,7,0,3.6,1.2,6.5,4.2,6.5m-5-10.7-.2-2.7a2,2,0,0,1-.8.1v-.1c-.3,0-2.8.2-3.1.2v.1l-1.3.1.2,2.7c.3-.1.8-.1,1.3-.2a45.69,45.69,0,0,1,.1,5.1c-.1,1.4,0,2.4-.6,2.4s-.7-1.7-.6-2.4l-2.7.3c0,1.9.5,4.9,3.5,4.8,2.3-.1,3-1.6,3.2-3.8.1-1.3,0-4.3,0-6.6h1m-8.6,6.4a5.23,5.23,0,0,1-1.8,1c-1,.4-1.6.1-1.8-1.1v-1.9l2.5-.4c0-.9-.1-1.8-.1-2.6-.8.2-1.5.3-2.3.5,0-.6.1-1.1.1-1.6a20.59,20.59,0,0,1,3.5-.3v-2.8a26.61,26.61,0,0,1-3.2.5v-.2l-3.1.2c.1.8-.6,9.4.1,11.2s2.8,1.8,3.5,1.7a7.41,7.41,0,0,0,2.8-1Zm-7.1,3.2c-.8-4.1-1.5-7.8-2-11.9h-.2l-2.7-.1q-.3,2.7-.9,5.7c-.3-1.7-.6-3.4-.9-5.3h0l-2.6-.4a6.59,6.59,0,0,1-.3,1.4h0v.1c-.5,2.5-1.5,7.3-2.3,10.4l2.8.8c.2-1.7.5-3.6.9-5.5.3,1.6.6,3.2.9,5h2.7c0-.1.4-2.3.9-4.9.3,1.8.6,3.6.8,5.4Zm-17.5.7.3-.1h.2l.3-.1h.4l.1-.2.2-.2h.1l.2-.2.2-.1v-.2l.1-.2.2-.2-.1-.1.2-.1v-.2l.1-.2-.1-.2.2-.3v-.2l-.1-.3v-.2l-.1-.1v-.5l-.1-.2h0l-.1-.2-.1-.3-.3-.1-.2-.2-.2-.2v-.2h-.4v-.2h-.3l-.3-.2-.1.1-.4-.1-.1-.1-.1-.2-.2-.1-.2-.1.1-.1.1-.4v-.2l.1-.1V143l.2-.2h0l.3-.1.5-.1.1.1.2.1v.1l.2.1.4.1v-.3l.2-.1.1-.2v-.1l.3-.2-.1-.2-.2-.2H236l-.3-.1h-.3v-.1l-.3-.1-.2.1-.5-.1h-.1l-.2.1-.2.1-.2.1h0l-.4.1-.2.2-.1.1v.2l-.2.1v.3l-.1.2h0v.4l-.2.4.1.3.1.2.1.2-.1.1.1.2-.1.1.1.2.2.2.1.3.3.2.1.2h.2l.1.2h.3l.1.1.2-.1.3.2h0l.4.3h.1l.1.2.1.1.1.1v.3l.1.5-.1.2-.1.2.1.2-.1.1-.1.2-.2.2-.2.1v.2h-.2l-.6-.1-.1-.1-.1-.1-.2-.1h0l.1-.2-.3-.1v-.1l-.1-.2-.3-.1-.2.2h0l-.1.3h-.3l-.1.1v.3l.3.2-.1.1.3.2v.1l.2.2v.1l.3.2.1.1.2.1h.4l.2.1Zm-5-1.4-.7.2-.1-.1-.2-.1-.1-.1-.1-.2h.1l-.2-.2V148l-.1-.2.1-.2-.2-.2.2-.1-.1-.4-.1-.1-.1-.2-.1-.3.1-.1.1-.3-.1-.3.1-.2-.2-.1v-.4l.2-.3-.1-.1.1-.3h0l.1-.3.1-.2v-.1l.2-.3.2-.1V143h1l.2.2v.2l.2.1.1.3v.4l.1.2.2.2v.1l-.1.3.1.2-.1.2.2.3h0l-.1.4.1.3-.2.2v.3l.1.1-.1.2v.2l-.1.2-.2.2-.1.2.1.1-.1.3-.2.2v.2Zm-.5,1.3h.4l.1-.1.1.1h.2l.2-.2.2-.1h.2l-.1-.2.3-.1.1-.2.2-.2V149l.1-.2.3-.2-.1-.1.2-.1.1-.3v-.7l.1-.2h.1l-.1-.3.1-.2v-.1l-.2-.3v-.1l.1-.4-.1-.4.1-.1-.2-.2V145l.1-.2v-.2l-.1-.1.2-.2-.1-.2v-.2l-.2-.2-.1-.2-.1-.2v-.2l.1-.1-.3-.1v-.3h-.1v-.3l-.4-.2-.1-.1H230l-.4-.2-.1-.1h-.1l-.1.1h-.5l-.1-.1-.2.1h-.3l-.1.2h0l-.2.1-.2.1-.1.1-.2.2v.2l-.2.1-.2.2h.1l-.2.2v.3l-.1.2-.1.2-.1.1.1.2-.2.1.1.3v.1l-.1.1v.1l-.1.2v.2l-.1.2.1.2-.1.4v.4h.1l-.1.3v.2l.2.1v.3l-.2.2.2.1v.2l-.1.1.2.2.1.2v.2l.2.2h-.1l.2.2v.2l.2.2h.1l.1.2.2.2h.2l.4.1.1.1h0Zm-3.6-6.1-.2-.4.1-.3V143l-.1-.3v-.2l-.1-.2-.2-.2.1-.1-.3-.2v-.1l-.2-.2-.2-.1-.2-.1-.2-.1-.1-.1h-.5l-.4.2h-.3l-.1.2-.2.1v.3H222l-.2-.1v-.2l-.3-.2h-.1l-.1-.1h-.7l-.4.2-.2-.1v.1l-.1.3-.4-.2.2-.1v-.2l-.3-.1h-.3l-.1-.1-.2.1h-.2v.1l-.2.2-.3.1.1.2.1.3h-.1v.4l.1.3.1.1-.1.2v.3h0l.2.2-.1.3h-.1v.2l.2.3-.2.2v.4l.1.1-.2.3.2.1v.1l-.1.2v.6l.1.2.1.1-.1.3v.1l.1.2-.1.2h-.1l.2.2v.2l-.2.2v.2l.2.2v.1l-.1.2.1.2-.2.3.1.2-.1.3h.6l.1.1h.2l.3-.1h0l.4-.3v-.1l-.2-.3.1-.2v-.2l-.2-.2h.1l.1-.3V148h0l-.2-.2.1-.2-.1-.2-.1-.1.2-.3-.1-.2v-.2l.1-.1v-.6l-.1-.1v-.3h.1l-.1-.2v-.4l.1-.2-.1-.3v-.5l.3.1-.2-.3.2-.3.1-.2.1-.2.1-.1.1-.1h.4l.1.1.2.2h.2l.2.2-.1.1.1.2-.1.2.1.3-.1.2.2.4-.1.2-.1.2.1.1.1.1-.2.2.2.2v.3l-.2.1.2.2-.2.2.1.3v.2l.1.2-.1.1v.3l-.1.1.1.2-.1.3.1.1.1.2-.2.1.1.1-.1.3v.2l.2.2v.5l.4-.1v.1l.3.1.3-.1v-.1l.2-.2.2-.1v-.3l-.1-.1.1-.2v-.2l-.2-.3v-.2l.1-.1V148l.1-.2v-.2l-.2-.1v-.7l.1-.3v-.1l-.1-.1.2-.3-.2-.2.2-.2-.1-.1v-.3l.1-.1-.1-.3.1-.1-.1-.2v-.2l.1-.2-.1-.2.1-.3.2-.1v-.3h.1l.3-.2.1-.2.3-.2.1.1.2.2.1.1.1.3v.2h.1v.3l.2.1-.1.5.1.1v.6l-.1.2.1.2v.3h0l.1.2v.2l-.1.3v.3l-.1.1.2.1-.2.2.2.1-.1.4h-.1v.3l.1.2v.2l.2.2-.1.2.1.2h-.1v.3l.1.1-.1.3.2.2h.1l.4-.1h.1l.3-.2.2-.1.2-.1-.1-.3.1-.1v-.3h-.2l.1-.2.1-.3-.1-.1V148l.2-.2-.1-.2.1-.1v-.2l-.1-.2.1-.3-.2-.1.1-.3v-.2l.1-.2.1-.2-.1-.3v-.2l-.2-.2.1-.1v-.5l-.1-.1v-.2Zm-10.9-1.1.3-.2.2.1.2.2.1.1.1.2.2.1v.3l.2.2.1.2-.1.1v.2l.1.2-.1.2.1.1-.1.3h-.3l-.2.1-.1-.1-.1.1-.1-.1-.4.2v-.1l-.5.1-.2-.1v.1l-.2-.3-.1-.1-.1-.2.1-.2-.1-.2.2-.1.1-.2v-.2l-.1-.2.2-.2.1-.2v-.2l.1-.1.4-.1Zm.3-1.3h-.4l-.1.1-.3.1-.2.1-.1.1-.1.1-.2.1-.2.2h0l-.2.3-.1.1-.1.2-.1.1-.1.2-.1.2.1.1-.2.2.1.2v.2l-.1.2-.1.1.1.2-.1.1-.1.3h.1l-.2.3v.5l.1.2v.5l.1.3-.1.1.1.2v.3l.1.2.1.2.1.2-.1.2.1.2h.1l.1.2.1.2.1.2.1.1.1.1.3.2-.1.2.2.1h.2l.2.2.3.1h.3l.2-.1.2.1.3-.1h.5l.2-.1.1-.1.2-.1h.2l.1-.1.1-.2.1-.1.3-.2.1-.2-.1-.2h.2l-.2-.3-.2-.2.1-.1-.2-.1h-.3l-.1-.2h-.6l.2.1-.3.2-.1.2-.1.2.1.1-.3.2H215v.2h-.2l-.4.1-.1-.2h-.2v-.3H214l-.1-.2-.2-.3-.1-.1.2-.1-.1-.2v-.3h0l-.2-.3.2-.2v-.1l.2-.1h.5l.3-.1h.4l.2-.1v.1l.3-.2h.6l.2-.2.2.1.1-.1.4-.1.1-.3h0l-.1-.3.1-.3H217V145l-.1-.3-.1-.1.1-.2v-.2l-.1-.1-.2-.2.1-.2-.1-.3-.1-.1-.1-.4v-.1l-.2-.2.1-.1-.3-.2-.1-.2-.1-.1.1-.1-.2-.1-.3-.2v-.1h-.2l-.1-.1-.2.1Zm-5.7,8.5.4.1h.4l.3-.1h.1l.1-.2.2-.1h.1l.2-.1.1-.2.2-.2.1-.1.1-.3.2-.2v-.8h-.2l-.4-.1v-.2l-.3-.2-.1.1-.1.1.1.3v.1l-.1.2-.1.3-.1.1-.2.2-.2.2h-.1l-.3.1h-.3V149l-.3-.2-.1-.1-.1-.1v-.3l-.3-.2h-.1l.1-.2-.2-.2-.1-.1.1-.1-.1-.3h0v-.3l-.1-.2.1-.1-.1-.2V146l.2-.3v-.1l-.1-.3.1-.2-.1-.2.2-.1.1-.3v-.1l.1-.3.1-.1-.1-.3.3-.1v-.1l.2-.1.2-.1.1-.2.1-.1h.4l.1.2.2.1h.1l.2.2.3.1h.2l.1-.2.2-.1h.1l.1-.2.1-.2-.1-.2-.3-.2-.1-.2h-.1l-.1-.1-.4-.2h-.2l-.1-.2h-.5l-.4.1-.3-.1-.2.1-.1.1H208l-.2.1h0l-.1.2-.2.2-.2.2-.2.2h0l-.1.3-.1.1-.1.1v.3l-.2.2.1.2v.2l-.2.2-.1.1v.2l-.1.2.1.3v.2l-.1.1v.2l.2.3-.1.2-.1.3.2.1v.4l.1.1-.1.2.1.2-.1.2v.3l.2.2h.2v.3l.1.1.2.2v.2l.3.2.2.1.2.1v.2h.3l.1.2.2-.1h0Zm-5.6-1.2h-.7v-.1l-.3-.3v-.1l-.2-.3h.1l-.1-.3-.2-.1v-.2l-.1-.2.1-.2-.1-.2-.1-.2.1-.3.1-.2V146l-.1-.4.1-.2-.1-.2h0l.1-.2-.1-.3.1-.2.1-.2-.1-.2.1-.2.2-.1v-.4l.1-.2.2-.1h.2l.3-.2v.1l.4.1h.4l.1.1v.1l.3.4-.2.2v.5l.2.3-.1.1v1l-.1.2.1.3-.2.1v.4l.1.1-.1.2.2.2v.4l-.1.2-.1.4-.2.1-.2.2h-.3Zm2.4.9.1-.3-.2-.2v-.1l-.2-.2.1-.3-.2-.1v-.2l.1-.3-.2-.5.1-.1v-.1l-.1-.2V147l-.1-.2v-.2l.1-.2.1-.3h-.2l.2-.2-.2-.2.1-.2.1-.2-.2-.2V145l-.1-.2.2-.2-.2-.2v-.2l.1-.2-.2-.3.2-.2v-.1l-.1-.3V143l-.1-.1.1-.1v-.4l.1-.2-.2-.2.2-.2-.2-.3-.4.1v-.1l-.4.1-.1-.1H204l-.2.2v.2l-.1.1-.2-.2H203l-.1-.1h-.7l-.1.2h-.4v.2l-.2.1-.1.1-.1.2H201l.1.3-.3.1.1.1-.2.2-.1.2.1.1-.2.3-.1.2h0l.1.2-.1.2-.1.3.1.1-.1.2.1.2h-.2l.1.2.1.3.1.2-.1.2-.1.3.2.2v.1l-.1.3.2.1v.2l-.1.2.1.2.1.2v.3l.1.1.1.2.1.2.2.2-.1.2h.1l.3.3v.1l.3.1h.2l.3.1.2.1.2.1h.4l.2.1.1-.2h.2l.1-.1.1-.2.3-.2.3.1-.1.3.4.1.2-.2v.1l.4-.1.6.2Zm-8.3-8.5H197v.1h-.3v.2h-.2l-.1.2h-.3l-.1-.3.1-.1-.1-.3-.1-.2.2-.2v-.4l-.2-.1.2-.3-.1-.2-.1-.3.2-.1V139l-.1-.1v-.5l-.1-.1v-.6l.1-.1-.1-.2V137h-.2l-.2-.1v.1h-.4l-.2.2-.2.1v.3l.1.3h0v.3l-.1.1v.6l.1.1.2.3v.2l-.1.1.1.2-.1.3v.1l.2.3-.1.1v.2l.2.3-.2.1.2.1-.2.3.1.1-.1.4v.1l.1.2-.1.2.1.3-.1.1.1.3v.5l.1.2-.2.1.1.1v.5l.1.2-.1.1-.1.3.1.3.2.2-.1.2.1.2-.1.1-.1.2.2.1v.4l-.1.2v.2l-.1.1.2.3-.1.2.1.1v.5l-.1.2v.1l.2.3-.1.2-.1.1.1.2-.1.3v.2l.1.2h.4l.1-.2.2.1.2-.1.1-.1h.2l.1-.1.2-.2-.1-.2-.1-.3-.1-.1.1-.1.1-.3-.1-.1.1-.3-.1-.1.1-.3-.1-.2-.2-.2v-.3l.1-.1-.1-.2.1-.2v-.3l-.2-.2V146l.1-.2-.1-.2v-.4l-.1-.3.1-.2h0l.1-.3-.1-.1-.1-.1.2-.2v-.5h.2l.1-.2h.1V143l.3-.1.2-.1.2-.1h.2l.1.2h.1l.1.2.1.3v.3l.1.2.2.2-.1.1.1.1-.1.2v.3l.1.1-.2.2.3.2-.1.2v.6l-.1.1.1.2v.2l-.1.1-.1.2.2.3-.1.2v.2l.1.1-.1.1-.1.3v.6l.1.1-.1.2v.3l.1.1v.2l.3.3.1-.1.4-.1h.2l.1-.2h0l.2-.1v-.1l.1-.2-.1-.3-.2-.1.1-.2V148h-.1l.1-.2.1-.2v-.5l.1-.2-.1-.2-.2-.2.1-.2v-.2l-.1-.2v-.2l.2-.1-.1-.3-.2-.1v-.3h.1l.1-.3-.1-.2-.1-.3.1-.2.3.1.1-.3-.1-.1-.1-.2.1-.3-.3-.2.1-.2-.2-.1.1-.2-.2-.1-.1-.3-.2-.2-.1-.1-.1-.2-.2-.1v-.1Zm-9.2,7.5-.6.2v-.1l-.2-.1-.1-.1-.1-.2h.1l-.2-.2V148l-.1-.2.1-.2-.2-.2.2-.1-.1-.4-.1-.1-.1-.2-.1-.3.1-.1.1-.3v-.3l.1-.2-.2-.1V145l.3-.3-.1-.1.1-.3h0l.1-.3.1-.2-.1-.1.2-.3.2-.1V143h1l.2.2v.2l.2.1v.9l.2.2v.1l-.1.3.1.2-.2.2.2.3h0l-.1.4.1.3-.2.2v.3l.1.1-.1.2v.2l-.1.2-.2.2-.1.2.1.1-.1.3-.2.2v.2Zm-.4,1.3h.4l.1-.1v.1h.2l.2-.2.2-.1h.2v-.2l.3-.1v-.2l.2-.2-.1-.1.1-.2.3-.2-.1-.1.2-.1.1-.3.1-.2v-.6l.1-.2h.1l-.1-.3.1-.2v-.1l-.2-.3v-.1l.1-.4-.1-.3.1-.1-.2-.2V145l.1-.2v-.2l-.1-.1.2-.2-.1-.2v-.2l-.2-.2-.1-.2-.1-.2v-.2l.1-.1-.3-.1v-.3h-.1l.1-.3-.3-.1-.1-.1h-.2l-.4-.2-.1-.1h0l-.1.1H188l-.1-.1-.2.1h-.3l-.1.2h0l-.2.1-.2.1-.2.1-.2.2v.2l-.2.1-.2.2h.1l-.2.2v.3l-.1.2-.1.2-.1.1.1.2-.2.1.1.3v.1l-.1.1v.1l-.1.2v.2l-.1.2.1.2-.1.4v.4h.1l-.1.3v.2l.2.1v.3l-.2.2.2.1v.3l.3.2.1.2v.2l.2.2h-.1l.2.2v.2l.2.2h.1l.1.2.2.2h.2l.3.1.1.1Zm-5.1-.2.1.2.4-.1h.1l.3-.2h0l.2.1.2-.3.1-.3-.1-.2-.1-.2v.1l.2-.1-.1-.2.1-.3-.1-.2-.1-.2.1-.1.1-.4v-.2l-.1-.1V147h0l-.2-.3v-.2h.1v-.3l-.1-.2v-.1l.1-.3h0v-.3l.2-.1-.1-.2.1-.3-.2-.2.1-.3h.1l-.1-.4h0l-.1-.2.1-.3v-.2l.1-.2V142l-.1-.2v-.1l.1-.2v-.2l.1-.2v-.8l.1-.3v-.2l-.1-.4V139l.1-.2.1-.1v-.4l-.1-.1.1-.3v-.3h-.2l.1-.2.1-.2-.3-.2H184l-.3.1h-.1l-.2-.1-.1.1-.3.1-.1.1.1.2-.2.1.2.3-.1.1.1.4v.4l.1.1-.2.2.2.3-.2.1.1.2.1.2-.2.2v.1l.1.3.2.1-.4.4.1.1v1l.2.2-.1.1-.1.2.2.2v.2l-.2.2.2.3v.1l.1.2-.2.3v.2l.1.1-.1.2.1.2-.1.2v.2l.2.2-.2.1.1.3.1.2v.4l-.1.2v.4l.1.2-.1.3v.2l.1.1-.1.2.1.2-.1.2v.2l.1.2-.2.2v.2l.1.3v.4l.1.1Zm-8.2.7a4.36,4.36,0,0,0,4.1-4.6,4.21,4.21,0,0,0-2-3.4c-1.3-.8-2.6-.9-2.6-1.9a1,1,0,0,1,1-1h.11c.5,0,1,.6,1.5,1,.4-.9.8-1.9,1.2-2.8a5.58,5.58,0,0,0-3.1-.9,3.64,3.64,0,0,0-3.7,3.4,3,3,0,0,0,1,2.5,9.79,9.79,0,0,0,2.4,1.4,2,2,0,0,1,1.2,1.9c0,.9-.5,1.5-1.1,1.5s-1.2-1-1.6-1.7c-.6.6-1.8,1.8-2.2,2.1a4.57,4.57,0,0,0,3.8,2.5m-9-2.9c-1.1,0-1.3-1.7-1.3-3.5,0-2.3.4-4.3,1.6-4.3,1,0,1.3,1.5,1.3,3.4s-.3,4.4-1.6,4.4m-.1,2.8c2.6,0,4.2-2.1,4.5-6.2.2-3.4-.6-7.3-4.1-7.3-3,0-4.6,2.9-4.6,7,0,3.6,1.2,6.5,4.2,6.5m-4.9-10.3-.2-3.1a13.53,13.53,0,0,1-2.2.2V137l-3,.3v.1l-2.3.1v3.1c.7-.1,1.5-.1,2.3-.2,0,3.2-.1,6.4-.2,9.6l3.2-.2c-.1-3.1-.2-6.3-.2-9.6h2.6m-8.6,9.2c0-4.1-.2-8.2-.1-12.3l-2.9.4c.2,2.1.3,4.3.4,6.4a51.9,51.9,0,0,1-2.8-6.4h-2.9c.1,4.1.2,8.3.1,12.3l3,.3c-.1-2-.1-4.2-.2-6.3.9,1.9,1.8,3.9,2.7,5.8v.1Zm-13.7.8c3.3-.2,3.6-3.4,3.8-5.2a26.23,26.23,0,0,0-.6-7.9l-2.9.5a33.19,33.19,0,0,1,.4,6.3c0,2-.3,3.5-.9,3.5s-.9-1.7-1-3.7a41.42,41.42,0,0,1,.2-6.1l-3.1-.3c-.1,2.5-.1,4.9,0,7.4.4,3.3,1.3,5.6,4.1,5.5m-5.2-10.3-.2-2.7a2,2,0,0,1-.8.1v-.1c-.3,0-2.8.2-3.1.2v.1l-1.3.1.2,2.7c.3-.1.8-.1,1.3-.2a45.69,45.69,0,0,1,.1,5.1c0,1.4,0,2.4-.6,2.4s-.7-1.7-.6-2.4l-2.7.3c0,1.9.5,4.9,3.5,4.8,2.3-.1,3-1.7,3.2-3.8.1-1.3,0-4.3,0-6.6h1"/><rect class="cls-2" x="164.35" y="103.9" width="81" height="22.2"/><polygon class="cls-2" points="103.75 37.3 106.55 97.7 141.55 101.8 141.75 37.3 103.75 37.3"/><polygon class="cls-2" points="141.25 36.3 146.25 101.8 183.55 98.9 183.55 36.3 141.25 36.3"/><polygon class="cls-2" points="183.45 34.8 186.75 98.1 216.25 99 219.55 34.8 183.45 34.8"/><polygon class="cls-2" points="218.55 37.3 220.05 101.8 241.65 99 243.15 38.5 218.55 37.3"/><polygon class="cls-2" points="242.15 34.8 244.05 99.9 274.25 101.8 274.95 36.3 242.15 34.8"/><polygon class="cls-2" points="273.95 34.8 277.55 100.8 309.15 101.8 316.25 34.8 273.95 34.8"/><path class="cls-3" d="M229.35,120.6c-.8,0-1.1-.8-1.1-2.3,0-2.8,1-4.9,2.2-5,.7,0,1.1.8,1.1,2.5,0,2.8-1,4.8-2.2,4.8m-.2,1.3c2.5,0,3.7-2.3,3.9-6.1.1-2.2-.7-3.9-2.3-3.9-2.4,0-4,3-4,6.3,0,2.2.7,3.7,2.4,3.7m-6.6-1.7a1.11,1.11,0,0,1-1.3-.8c.3-1.9.6-3.9.8-5.4a1.9,1.9,0,0,1,1.4-.9c.9-.1,1.2,1.1,1.2,2.4-.1,3.1-1.1,4.6-2.1,4.7m1-8.5a2.51,2.51,0,0,0-1.2.5c0-.2.1-.4.1-.6l-1.7.2c-.6,5-1.3,10.2-2.1,15.2l1.6-.1c.1-1.2.4-3.4.8-5.6a2,2,0,0,0,1.5.4c1.8-.2,3.7-2.2,3.7-6.3-.2-3.2-1.6-3.8-2.7-3.7m-7.7,10.3,1.7-.1c.4-3.4.8-6.6,1.3-10l-1.7.1c-.2,2.5-.8,7.6-1.3,10m2.4-11.8a1.19,1.19,0,0,0,1-1.2c0-.6-.2-.9-.7-.9a.63.63,0,0,0-.4.1,1.14,1.14,0,0,0-.6,1.2c0,.6.3.8.7.8m-4.4,1.7c-.2,2.6-.5,5-.9,7.5a1.78,1.78,0,0,1-1.5,1.1c-.5.1-.9-.2-.9-1.1.2-2.5.5-5,.9-7.4h-1.6c-.2,1.2-.8,6.6-.8,8a1.68,1.68,0,0,0,1.43,1.9h0a1.85,1.85,0,0,0,.47,0,2.6,2.6,0,0,0,1.6-.7c0,.2-.1.4-.1.6l1.5-.1c.4-3.3.7-6.5,1.3-9.9Zm-9.4,8.2c-.8.1-1.2-.9-1.2-2.4,0-3,1.1-4.3,2.1-4.5a1.11,1.11,0,0,1,1.3.8c-.2,1.7-.5,3.5-.7,5.2a3,3,0,0,1-1.5.9m2.4-8.3v.2a1.71,1.71,0,0,0-1.4-.3c-2.2.3-3.6,2.6-3.8,6.3-.1,2.8,1.1,3.9,2.5,3.7a3.32,3.32,0,0,0,1.4-.5c-.3,2-.6,4-.9,5.9l1.7-.1c.4-3.4,1.8-12.6,2.2-15.2Zm-10.3,4.2a3.78,3.78,0,0,1,1.6-2.5c.7-.4,1.3-.2,1.5.5a1.32,1.32,0,0,1-.67,1.73h0l-.22.07a3.4,3.4,0,0,1-2.2.2m-1.8,1.4c-.2,3.2,1.3,5,3.5,4.4a3.7,3.7,0,0,0,2.4-2l-1-1.2a2.69,2.69,0,0,1-1.7,1.9c-1.3.2-1.8-1.3-1.7-3.1a5.71,5.71,0,0,0,2.6,0,3.15,3.15,0,0,0,2.2-3.8,2.16,2.16,0,0,0-2.46-1.81h0a.37.37,0,0,0-.3.1c-2,.4-3.3,2.7-3.5,5.5m-9.4-1.5a3.78,3.78,0,0,1,1.6-2.5c.7-.4,1.3-.2,1.5.5a1.36,1.36,0,0,1-.8,1.76h-.1a2.48,2.48,0,0,1-2.2.2m-1.6,1.5c-.2,3.2,1.3,5,3.5,4.4a3.7,3.7,0,0,0,2.4-2l-1-1.2a3,3,0,0,1-1.7,1.9c-1.3.2-1.8-1.3-1.7-3.1a5.71,5.71,0,0,0,2.6,0,3.15,3.15,0,0,0,2.2-3.8,2.16,2.16,0,0,0-2.46-1.81h0a.37.37,0,0,0-.3.1c-2,.4-3.4,2.8-3.5,5.5m-4.5,3.2c-.8,0-1.3-1-1.1-3.3s1-4,2.2-4a1,1,0,0,1,1,.7c-.3,2-.5,4-.6,5.4a2,2,0,0,1-1.5,1.2m4.9-14h-1.7c-.1.7-.5,3.1-.8,5.7a2.4,2.4,0,0,0-1.2-.3c-1.5,0-3.2,1.5-3.6,5.2-.4,3,.5,4.9,2.2,4.9a2.32,2.32,0,0,0,1.7-.7,1.33,1.33,0,0,0,.2.8l1.5-.6a4.69,4.69,0,0,1-.3-1.7,116.9,116.9,0,0,1,2-13.3"/><path class="cls-3" d="M301.45,95.1l.3-.4v.5Zm5.6-.6h-.3l-.3.2V95h-.2l.1-.3.1-.4.5-.4.3.2Zm-7.7-.4-.1-.5.5.1Zm1.2.5-.3-.1.2-.5-.2-.5.3-.1.3-.3.1.7Zm-2.2-.9-.2-.3.1-.3.3.3Zm1.6-.8-.2-.1.3-.1.1-.4.5.2-.2.2-.2.2Zm3.3-.3.2.1.2-.2.1-.3-.5-.1v.5Zm.6-.4.2.2.4-.3-.2-.2Zm-.1-.2.2-.5h-.3ZM285,92l-.6-.2-.8.2h-.4l.2-.3-.1-.3L283,91l.4.2.5.4h.7l.3.4.3-.2.1.1Zm-3.5.3-.4.4-.2-.5.2-.8-.4-.6.2-.1.5.2.1.7-.3.4Zm18-2.1-.2.9h.7l.4-.3v.4h.2l-.2-.7Zm-19.7.5-.3.2v-.4h-.2l.2-.2.3-.3Zm24.2-.3.2-.3-.3-.2-.2.2Zm-6.5-.3.3.6.4-.3-.4-.5Zm-14.7-.2h.4l.2.5h-.5Zm19.2,0,.7.6.2-.3-.7-.5Zm-3-.8V90l.1.2.3-.9Zm4.7.7-.3-.6-.2-.5v.7l.4.5Zm-21.8-.2-.3-.2.2-.8v.2l.2.4Zm3.7-.8v-.5l.5.1.1.4Zm15.2-.6.5.4v-.5l-.4-.1Zm-20.5,0,.1-.3h.4l-.1.3Zm2.2-.4v.4l-.3-.1.2-.2.1-.1.2-.2Zm17,.4.2-.2v-.6l-.2-.7-.3.2.2.6Zm1.7-1.3-.3-.6-.3.3.3.4Zm-3.8.1v-.3l.2-.4.4.3.1.6-.1.4-.4-.2-.3.5-.4-.4ZM284,85.7l.1.3.3.1-.3-.1-.2-.2Zm-4,0,.7.1.3.3h-1.1v-.4Zm2.2-.4.2.5-.4.3-.2-.5Zm3.9-.1-.2.1.1-.4.2-.1Zm8.3.8-.2-.2.2-.2H294l.1-.4.2-.2-.1-.4.4.1-.2.6.1.3Zm-14.6-1-.2-.3.2-.2h.3l.1.2Zm12.6-.2.1-.3.3.3Zm3.5-.4-.1.3h-.4l.1-.4Zm3.9.2-.5.2v-.5ZM289.3,84l.3-.1.2.3Zm-5.5,0,.3-.3v.7h-.2Zm21.8,11.3h-.8l-.6-.1-.2-.9-.1-1h-.4l-.3.6.2.3.3.2-.2.3H303l-.3.2-.4.2h-.2l.5-.2.3-.3.1-1.1h-.2v1l-.9-.5.6-.7v-.7l-.5.3-.2-.3V92l.5.1.1-.2.4.1-.1-.5v-.4l-.4.3-.3-.9-.7-.6-.3.3.6.6.1.7-.5.2-.1.4-.2-.1-.7-.2-.1-.5-.2.7-.9.1-.4-.7-.4-.1.2.4-.1.4-.1-.2.1-.2-1-.5-.7-.9-.6-.2v-1l-.5-.5.2-.8-.8-.3-.2-.1v.5l.5.7.2.5-.2.2-.4-.7-.6-.8.1-.7.1.2.3-.5.9-.6-.5-.5-.1-.2-.3-.1v-.3h.2l.2.2h.2l.3.2.2.2v.4l.2.7.2-.4.1.3-.2.4v.5l.3.5-.3.6.7.3.5.3.8.2V89l.4-.4-.2-.4h-.4v-.3l.8-.4-.4-.7.3-.8-1.3-.2-.1-1h.4v.6l.6.2-.4-.6.4-.9.5-.4h-.2v-.4l.2.2h.4V84l-.4.2-.4.5.3.7.5.1.4.2-.2.3.3.4.8-.5.1-.5-.1-.4v-.2l.2.3.3-.3.2-.4.2-.1.1.9.4.8-.3.5-.1.5.3.2.6-.2.4-.1-.1.4.2.2.5.8.5.5.8,1.3v.5l.2.8-.2.5v.4h.4v.5l.3.2.2-.5h.5l.1,1.4ZM294.4,83.2V83h.4l.3.4v.3l-.3.2-.2-.1.3-.3ZM281.7,83h.3l.1.3h-.3Zm19.5-.2-.2.7-.6.2.1-.8Zm-3.4,0,.4-.2-.1.3-.1.5-.2.3-.3-.3Zm-7.5.6-.2-.4.1-.5v-.3h-.3l-.1-.2h.2l.2.2.2.4-.2.5Zm-10.2-1.2-.3.2v-.3l.1-.2Zm17.9-.9.6.1V82l-.5-.2Zm-4.6.4-.1-.2.3-.3Zm3.5,1-.2-.3.5-.2-.1-1,.4-.1-.1,1.3-.1.5Zm2-1.9.1-.4.2-.2-.1.2Zm-19-.6v-.4l.3.1.2.3Zm14.8-.3h-.3l-.1-.4.1-.3.2-.3.2.1-.1.4Zm8-.6.9-.5.7-.6-.4.7-.8.5-.2.7-.4-.1Zm-1.1.7-.9.3.1.5-.5.4-.2.3.8.2.2-.9h.6l.2.6-.1-.2-.4.3.4.7-.3.4-.6-.5-.5.3V82l-.5-.1-.4.7-.5.5-.3-.5.4-.4.2.4.2-.9-.4-.6.4-.1.7-.2.1-.4-.5-.1v-.5l.3-.2.2.3.3-.1-.1-.4-.4-.5-.9.2-.3.2-.2.6-.3-.2.3-.5.5-.5.1-.4-.3-.4.2-.2.4.1-.1.6.8.2.5.5.2.2-.2.2.2.1h.5v-.5h.5l.2.2Zm-3.7-2.3.3.4-.6.4-.1-.4Zm1.9-.8h0l-.2.2Zm-18.2.6-.2-.4.1-.3.2-.2-.2.4.1.2Zm19.5-.8-.3.2.5.3.7-.1.2.6h-.7l-.7-.4-.3-.1-.2.5-.1.2v-.3l.2-.8.6-.4Zm3.2-.5v.3l-.2.2.2.3h-.2v-.3h-.2l-.3-.5Zm-23.1-.4-.2.2h-.3v-.2Zm18.7-.2.2.2-.2.4-.3-.2Zm-20.2-.3v.3l-.1-.1-.1-.4Zm20.5-1.1h.5l-.4.2-.3.2-.1.3-.1-.3Zm4.7-.4.2.2h-.4v-.3Zm-24.7-.9-.6-.6.2-.3.2.3v.3l.4-.3.3.2Zm19-.8-.1.3-.3-.2v-.4l.1-.4h.4l-.1.2-.2.2Zm-14.3-.9-.1.2-.2-.1Zm-2-.2.5-.1v.2l-.1.3h-.4Zm15.5-.3.1-.6.5.1-.1.5Zm-17.4.7-.3-.1-.4.2-.5-.5-.5-.5v-.2l.1-.2.5-.1.1.8.1.2.2-.5.6.2.2.5Zm.9-1-.3-.2.2-.3h.4l.4.2.2-.1.1.4-.5.3Zm-1.1-.7.1-.3h.2Zm20.4.2.1-.5.5.1-.1.3.2.1.3-.1-.3.2h-.4l-.5.3Zm-2-.6-.5.2-.7-.4.1-.4.6.2h.6Zm3-.6h.4l-.1.4h-.4Zm-11,8.9-1-.2h-1.1l-.9-.5-.5-1.1-.2-5.7.6-1,1-.5h3.6l2.4.3,1.6,1,.5.8.4.8.1,1.5-.2,1.4-.4,1-.6.9-.6.6-.8.3Zm11.9-9.3.1.2h-.4l-.1-.4Zm-20.4.2.1-.4h.4l-.2.4Zm-2.2,0-.4-.1v-.5l.3.2Zm18.9-.7v.6h-.2l-.1-.4.1-.6h.3Zm-4.9-.8.4.1v.2l.8-.2v.4l-.4.4-.5.3-.2-.6-.1-.2Zm-1.7,0v.2l-.1-.4Zm7.1-.2h.4v.4h-.4Zm-9.8-.5-.2.4-.1-.4Zm-5.5.2-.4.3v-.2l.2-.3h.4Zm.7.3.1-.6.5.5-.3.9-.4-.2.2-.2.2-.2Zm3.7-.1v.6l-.3.2-.2-.1V67h.4l-.1-.3-.3-.4-.3.1v-.3h.4l.2-.2v.2Zm-6.5-.9h.5l-.1.6h-.2Zm9.3.4.4-.4h.5l-.3.4-.2.6-.4.1-.1-.2Zm6,.4.2-.6.3-.3.3.2v.5l-.5-.2-.1.2.5.4-.3.5h-.5ZM279,66.3l.1-.5.4-.2-.1.2-.4.5.2.1.1.5H279Zm15.2-.4-.2.3-.2-.2.3-.5.5-.2.1.3-.1.2Zm-13.8-.2-.1.5-.2.1v-.8l-.4-.3.1-.3.5.2.2.5Zm21-1,.2.3-.2.1Zm-3.8.1-.3.2h-.2l.1-.3.4.1.2.5-.2.8-.4.5-.2-.3.7-1.1Zm.1-.4h.4l.2.6-.4-.1Zm-18.5.2h-.3v-.5h.3Zm14.1-.5-.1.5.5-.1.2.4h-.6l-.3-.4-.1-.4Zm-4.6,0,.1.4v.4h-.2l.2-.3-.2-.2-.2.4-.1.6-.2-.6-.3.4-.3-.5-.1-.5h.7l.4.1Zm6.8,1.6v.4l-.1.2-.1-.2v-.5l.1-.6-.4-.3-.1-.7.5-.3-.2.6.3.4.6.6-.2.2Zm-5-2.8-.5.9.6.4V64l.1.2-.3.6-.5-.6-.6-.6-.1-.4.6-.2Zm1.6,0,.1.3-.3-.1-.1-.4Zm3.8-.5.2.4.2.4.5.3.4-.5.5-.6,1,.2.3-.3.1.3.1.4-.3.5-.5-.2h-.3l-.6.2-.9.6-.7.2-.1.2.1-.4.1-.5-.1-.3-.3-.4Zm-10.6.2h.3l-.1-.5Zm-6.3.3h.3l.1.3.3-.1-.1-.5-.1-.8.6.1.1.7-.3,1-.9-.2Zm14-.9v-.3l.3.3v.8l-.2-.1v-.3l-.2-.2Zm-3.8-.4h.2l-.1.3-.2.1Zm5.3-.3.8.5.1.6-.6.2-.4-.6-.3.1v.7l.3.7.1.3-.3-.1-.3-.2-.2.2v-.6l.2-.9-.2-.5-.1-.2Zm-3.6,0v.4l-.4-.3Zm-3.6,4.5-.5.5.1.8-.1.4v-.3l-.3-.8-.2-.8-.4.2-.3.2-.3-1.1.1-1.1-.4-.4.1-.4-.2-.3.2-.2.1-.4v-.7h.5l.2.4.2.2h.4l.1-.5.3.2v.6h.3l-.4.4.4.3.4-.5.6.2.1.6-.5-.3-.4.8-.5.3-.5.1V64l.1-.4-.3.2-.2.8-.3.5.7.4.4.6h.2l-.1-.5.5.3.4.1Zm-6.5-3.7-.2-.3.7-.7.9.1.2.6.6-.5-.1-.3-.2.2.2-.3.7.5.5.3.5-.2.2-.6h.3l-.1.6-.3.3-.2.2v.8l.6.6.2,1.1-.3.4.4-.1.1.3-.5.2-.3-.5-.3-.4-.2-1.1-.1-1.2-.2.2.2.5-1,.5.4.7.5.3.3.4V65l-.1.3-.2.1.1-.6-.2-.3-.3-.4h-.4l-.2.2-.1.4-.5.6-.2.7-.5-.8-.7-1.1.2-.7.3.1.2.8.2.9.3-.6h.7V64l.3-.9.5-.8-.3-.3.3-.2-.3-.1-1.2.4-.2-.6-.2.7V63l.2.4-.3-.1h-.4l-.5-.2.5-.7Zm27.1,31.4L306.2,91l-.5-.9-.6-.9-.5-.9-.7-.8-1.5-2.7-.2-1.2.6-1.1,1.4-1.4.6-.9.4-1,.6-.9.4-.9.6-1.9v-4l-.3-1-.1-1-.2-1-1.3-2.8-.7-.8-.5-.8-2.6-1.9-1.8-.9-4.2-.9-1.3-.1h-2.6l-1,.1-1.1-.1-.9.1-3.1-.1-1,.2-2.1-.2-1,.2h-1.2l-1,.5-.4,1.1-.1,14.3.1,1.5v2.6l-.1,1.1v1.9l.1,1.1-.1,2.1.2,3-.1,1.1.1,4,.4,1.1,1,.5h1l2.1-.2,1.1.1h1.5l1.6-.5.4-1,.1-1.1-.2-1.1.1-2.2-.1-3.2.5-1,1-.5h1.8l1.3.4.8.9,1.3,1.8.4,1,1.4,2.6.7,1,.5.9.6.7,1,.9,1.3.3,1.8.1,1.1-.1,1,.1h2.1l1.1-.1,1.1-.2.2-1.1Z"/><path class="cls-3" d="M264.45,94.9h-.3v-.2l.2-.2h.2Zm-13.6,0-.3-.1v-.2l.2-.3.2.2Zm2.1-.2-.5.2-.4-.5.6-.4.4.4Zm7.5-.3-.1-.3.2.2.1.2Zm-1.5-.3-.2-.2.1-.2.2.2Zm7-.4-.3.1.3-.1.2-.3.1.2Zm-12.1.4.1.2h-.2l-.2-.7.5-.3.1.4-.4.3Zm-4.4.2-.2-.3.6-.3-.2-.5.1-.2,1,.7v.2h-.7Zm13-1.1-.1-.3h.3l.1.2Zm-2.7.1h-.5l.1-.3.5-.2Zm-2.8-.5-.3.3-.1-.2.3-.2.2-.1Zm.8.2-.3.5-.3-.3.5-.5.5-.3.1.3Zm-6.9-.2h-.5l.1-.2.4-.2Zm13.9.9-.6-.5-.5-.6-.3.2-.2-.2.2-.2,1,.5.6.5Zm-8.7-1.1v-.3l.3.2.1.3Zm-3.3,0-.2-.3.5.1.1.3Zm15.8.3v-.3l-.4-.2-.4.1.2.4-.3.1-.2-.5.5-.2.6-.2.2.4.1.3h-.3Zm-3.8-.6.1.5-.3-.3-.1-.4Zm-10.5.3-.1-.1.1.1v-.2l-.1-.3.4.2Zm11.3-.6.2-.2h.2l-.1.3-.4.2Zm-9.2-.4-.2-.2-.2-.2-.3.4-.6.2-.4-.3.2-.3.6.2.5-.1.4.2Zm1.6.6V92l.3-.3.4-.4.2-.2-.1.3-.1.4-.5.2Zm-3.8-1.2-.2.4h-.4l.2-.3Zm3,.4-.2-.1-.1-.4.3.1Zm9.6-.4v-.3h.5l.4.6-.2.2-.4-.5Zm-6.4.5v-.4h-.2l-.3.1.3-.5.5.5Zm2.4-.8-.5.2.1-.1.1-.2h.3Zm-4.2-.5.3.2-.3.2Zm-4.4.2V90l.3-.2v.4Zm-1-.5h.5v.4l-.4.2-.4.2-.1-.4Zm-4-.2h.5l.1.4h-.5Zm17.2-.1h.3l.1.3-.3-.1ZM256,90.8l-.5-.2-.3-.2.4-.5.7-.4.2.3-.6.5Zm-3.6-1.3.2-.5.3.1-.2.3Zm-1.5-1.1h.4l-.4-.3Zm1.6-.6.6-.2-.1-.5Zm-2.7-1.7.2.2.3-.2-.2-.1Zm4.5.3.6-.6-.5-.2-.3.5-.5-.2v.4l.4.1Zm-1.7,0-.3-.4-.2-.6-.8.4-.1.6h-.6v.5l.9-.2.8.2Zm-1-1.3v-.3h-.3l-.1.2Zm.8-.6-.2.3.4-.2Zm3.7,0-.4.2.4.2Zm-3.9-1.6-.3.2.5.1Zm-1,0-.4.1-.5-.2-.5.2.4.3.9-.1v-.3Zm2.7.2h.4l-.1-.3h-.4Zm-1.2,0h.5l-.2-.3Zm-.4-1.1.4-.4.2-.4h-.4l-.3.2.1.3-.1.2-.1-.5.2-.2-.3-.1-1.2.4.3.5Zm1.5-1.3v.2l.2.2Zm-2.2,0-.4-.1.1.4Zm3.2-.3-.1-.2-.4.2.1.2Zm8.9.4-.3-.2.2-.4.4.4Zm-1-.6-.3.2-.4.4-.6-.1.5-.1.4-.2.1-.3.2.1Zm2.2,0-.1-.4.4.2.1.3Zm-1.9-.4h-.4v-.2l.4.1Zm-8.1-.4-.5.1-.1.4h.6Zm6.2.4.5-.5.2.5-.4.2Zm-5.7-.5h.3l-.1-.3Zm-5-.4h-.3l-.3-.2.4-.1Zm12.9-.2h.5l.1.6h-.5Zm-7.7-.3h-.5l.2.4Zm1.9.8L257,79l-.3-.6-.2-.1-.3.7.9.3Zm6.2-1-.1-.2h.2l.1.2Zm-2.9-.2-.2-.1-.3-.1.2.1h.3l.1.1Zm2,.4-.2-.4-.3-.1-.1-.2.2.1.4-.1.3.3Zm-13.1-.9.3.4.1.5-.5-.4-.2-.5Zm6.1-.3v.3l.3-.2Zm8.4-.1,1.1.1.9-.1-.7.4-1-.2-.4.4-.5-.2-.1-.6Zm-2.9-.1v-.3h.3l.1.3Zm-10.6-.6v.3l.4-.1Zm13.6-.4.2.2.2.4h.2l-.4.2-.4-.4Zm3.6.4h-.5V76h.3Zm-1.2-.5.4.6.1.3h.5l-.3,1.1.7.8-.6.2-.7.1-.3.5h.6l-.2.1h-.3l.1.2-.4-.1-.2-.4V79l-.3-.2-.3.2-.1.3.1.4-.4-.3-.7.2-.2-.3.2-.3.5.2.6-.1.3-.2.5-.1-.2-.5h-.8l-.1-.3.8-.2h.4V78l.3.5.4-.9-.5-1.2-.3-.4-.1-.4Zm-3.5,0,.3.1.1-.2.3-.1V76l-.3.1-.2.2-.2-.2Zm2.5-.3v.2l-.3.2-.3-.4Zm-15.8,1-.4-.8.5-.2v.2l.2.5.2-.5h.7l.6.6.6-.2h.5v.5H252l-.7.6h-.8l.1-.6Zm6-.7-.3.2-.7-.2v-.4l.7.1Zm6.5,0-.6.4-.5-.4.7-.5Zm2.2-1v.5l-.2-.3-.1-.4Zm2.2-.2.7.4.5.3.3.3-.3-.2-.7-.1-.7-.2Zm-4.1.1.1.2h-.6l-.1-.3ZM251.3,89.9l-.7-.7.6-.3-1.2-.4-.2.4-.5.3-.3-.4.6-.7.4-.2-.8-.2.2-.7-.7-.6.4-.7-.4-.8v-.8l.5-.2.2-1,.2-.7-.4.2v-.7l.2-.6-.5-.2.2-.4h.8l.5-.2.3.2.2-.6-.6-.4.1-.4.5.2.6-.1.8.5.2.9.5-.3.8-.3-.7-.3-.5-.6h-1.4l.1-.3.1-.4L251,78h-.2l.2-.1.2.2h.5l.5.5.6-.6.4-.2-.5-.2.1-.4h.4l.7.2-.1.7-.8.6.7.6.2-.3.7-1.2-.4-1-.1.2-.1.1-.2-.3h1.4l2-.6.3.2-.2.1-.7.3.3.6h-.4l-.3.4.6.2,1-.8.3-.7.1-.2-.1.2.2.3v.7l1-.6.8-.9.3-.3-.5-.3-.1-.4.2.2.4-.2.5-.7.6.5-.8.9-.9.9-.2.8-.4.5-.5.5.6.4-.1.2h-.4l-.1-.8-1-.4-.2,1.2.3.1h.6l-.2.7-.5.3-.3.1.1-.3.4-.3-.2-.3-.6.2h-.8l-.2.2.2.1h-.8l.4.7h.1v.3l-.5.3h-.3l.1-.2-.4-.2-.3.5.8.3-.1.4h-.5l.1.5L256,82l.7-.8-.3-.6.6-.2h.8l.5-.4.5.1.6-.6.5.5.4.2-.1.2-.7-.2-1.2.6-.7.5-.1-.4-.4.1-.1.7-.3.8-.7.4.4.6-.4.5h-.4v.2l.7.5-.2.9.2.1-.1.6-.7-.1-.6.4-.7-.1-.4.2v.5l.4.3.2-.6,1.2.1.1.6-.5.1v.5h-.8l-.7-.1-.1.4.5.2.2.3h.5l.8-.6.8-.7h.3l.4.3.3,1.2.2.6.2.2-.3.2-.2-.2-.4-.2.1-.9-.1-.5h-.8l-.5.8-1.2.4-.9-.1.2-.6-1.1-.3-.5.8-.1,1.1.4.7h-.6Zm.9-14.2-.3-.5-.4-.3-.4-.4h.1l.5-.1.6.2.1.7.4-.1v-.3l.2-.2.4.3-.2.7Zm-1.9-.4.1-.6.4-.2h.1l-.1.2v.6l-.6.2Zm.2-1.6V74l-.1-.2v-.2Zm2.4-.3-.2.4-.6.2.2-.4Zm-1.8.2V73h.4l.1.7Zm-1.1-.8-.2.2-.1.1.1.2-.1.3-.1-.4.2-.4Zm6.1.3.3-.5.3.3-.3.4Zm-2,.2-.2.1-.2-.1-.2-.2-.1-.3.2-.1v.4l.3.2Zm4.2,1,.7.5-.2.4.2.1.4-.2.3.4H259l.2.6.4.3h-.8l-.4-1-.7.3-.6.1h-.5v-.2h.4l.4-.3.2-.2-.7-.2-.7-.3-.3-.3h-.6v.5l.2.2.1.2h.4v.3l-.7.1-.6-.4h-.4v-.4l.3-.3.2.1.3-.2.2-.2-.5-.9-.1-.8.4-.1h.5v.2l-.4.2.3.8.2.7.6.2.1-.4h.4v.7Zm-6.1-3.4h.4v.2h-.3v-.2Zm-2.6-.2.2.3-.1.3-.2-.1Zm3.1-.2.2-.6.5.6Zm1.5.3.9.2.7-.4-.2-.4-.3.3-.1-.2.3-.4.5-.3.2.8-.4.9.3.2-.6.5-.7-.5h-.6ZM251,69.6l.5-.2.1-.3.4-.2.1.4-.5.2-.4.3h-.4Zm.3-1.3.2.5h-.6v-.3Zm4.1.2-.4-.1-.1-.3h.3Zm1.6-.2-.1-.3h.2l.1.2Zm-3.7-.4v-.3h.2v.3Zm-3.7-.2.2-.1.5.5-.5.4.2-.4Zm12-.7-.5.3-.4-.3.6-.1Zm-6.4,0-.3-.1.2-.1h.2Zm9.4.3-.4-.2-.1-.4.3.2Zm-1.2-1,.2.3-.1.2-.3-.3Zm-5.1,1.5h-1l-.8-.2-.2-.2-.3.2v-.3l.2.1.6-.4v-.4l.2-.7.6.4-.2.5-.3.4.5.3.7-.2ZM254.5,66l-.2.3-.2-.4Zm4.6-.5-.5.6.1.5.1.2.4-.2.2-.5-.1.2.1.3-.4.4h-.2l-.3-.4-.5-.4-.2-.5.1-.4.3.2.4.1Zm4.8-.3h.5l-.2.3-.4-.1Zm-13.7.2v.2l-.1-.2-.1-.2Zm4.3.1.3-.2.3-.1-.2.3Zm8.3-.5h-.3l.2-.4.4.2Zm-2.1-.7.3.3h-.4l-.2-.3Zm-1.1-.6h.4l-.2.3-.3.1Zm-3.2,0,.3-.2h.2l-.1.2h-.4v.4l.9-.3.9-.4.1.2-.9.5-.3,1h-.2l-.1-.7h-.7l-.2-.5Zm-5.1-.7.1.2-.3.1L251,63Zm11.2-.1.5-.1.2.3-.3.2-.4-.2h-.4Zm-8.1.1.3.1.2.2.4.1.1-.3.3-.2.1.4-.2.5-.3-.2-.4-.3h-.5Zm3.7-.3.2.2V63l-.3-.1Zm-1.8,0h.2l.2-.3h.4l-.3.4h-.7Zm-6.9-.2.4-.1v.4l-.3.2v-.5Zm2.7.1.2-.3h.2l.2.1.1-.2.5.3.2.5-.7-.1-.5-.4-.1.3-.3.2v-.4Zm7-1.3v.6l-.2.2.1-.2-.3-.5ZM271,89.7l-.7-1-1.6-.6-6.7-.2-1,.2-1.1-.1-1.1.1-1-.6-.5-1.6V83.4l.5-1.1.9-.6h2l1-.1,2.7.2,1.4-.1,1.1.1h.9l1-.6.5-1,.1-4-.1-1-.5-1-.9-.6-2-.1-1,.1h-1.1l-1.2-.1-4,.1-.9-.6-.6-.9-.1-1.6.5-1.5,1.6-.5h9.8l1.1-.6.6-.9-.1-2.1-.1-1V62.8l.2-1-.5-1-1.1-.5h-4.1l-.9.1-1-.2-2.2.1-1-.1h-2l-.9-.1-6.7.2-1.5.4-.6,1.1.1,2-.2,1.5.2,2.6-.1,1.1.1.9v9.2l-.2,1.1.2,2-.1,2,.2,1.1-.1,1.1.1,1-.2.9.1,1.2v1l.1,2-.1,1-.2,1,.7,1,1,.6,11.5-.1.9.2,3.1-.2,3.1.2,1-.1,1.1-.5.5-1,.1-1V89.7Z"/><path class="cls-3" d="M224.65,95.2l-.5.2V95l.5-.3Zm2.7-.2-.1-.7.1.2h.3l.1.2Zm-2.5-1.1h0v-.3l.2-.1.1.3Zm-1,.7h-.7l-.1-.7.5-.7.8-.3.4-.3.3.2-.6.5.1.6-.4-.4-.4-.2-.1.6Zm1.3-2.9-.4.1h-.3l-.3-.1-.3.4-.2.1-.3-.6-.2-.2.1-.2.8.2.6.3.1-.4-.2-.4.5.3.6.1.1.2Zm3.4-.4-.1-.3-.4-.1-.2-.4h.5l.2.5Zm-.6-1.6.1-.2.2.1.2.2-.2.2Zm-2.4,1.2v-.4h-.2l-.4.1v-.3l.5-.2-.1-.4.2-.1v.3l.1.7.4.4Zm6.4-1.4-.3-.2.2-.1.4.2Zm-5.3,1.1v-.3l.2-.5-.1-.7.3-.1.1.8-.4.6Zm7.2-1.5-.1-.3.3.2.2.2Zm-3.7-1-.4.9-.7-.2.6-.2.4-.8.5-.3h.3Zm.2-.8v-.4h.5l.3-.5.3.2V87h-.6Zm2.8-.6-.2-.2.1-.2.5.2.1.3Zm1.2-2h-.6l-.4.3v.4l-.2-.3.1-.4.4-.3.6-.2.3.2Zm-2.3-.6-.2-.3.4-.2.1.3Zm1.9-.8-.4-.4h.7l.4.6Zm-5.6-.7.4.4.2-.4-.4-.2Zm4.2-.2-.2.2-.4.4h-.5l-.1.9h-.8l-.2-.4-.2-.3-.6.4V84l.3.5-.2.2-.5-.3.2-.4-.4.1-.3.6.4.4-.2.4-.6.2.1.3.4-.2h.6l.8-.8.8-.6.1.4v.3l-.1.5-.7.1-1.1.4v.7l-.6-.2-.8-.6.1-.5.6-.3-.4-.8-.4-.8.3-.6.2.2-.1.5.2.2.3-.5-.2-.6-.5-.2-.5-.6h.4l.3.5h.4l.5-.4.4-.1-.1-.4-.2-.2.2-.5.7-.4.4.2v.5l1.1-.2h.8l.2.2-.4.2-.7-.2h-.5l.1.4-.5-.2-.1.7.8.2-.1.3h-.6l-.6-.1-.4.2.3.4.6-.2h1.7l-.4-.5.3.2.4-.3.4.1Zm-1.2-2H231l-.2-.3h.3Zm1.5.2h.3l.3-.4.2-.2-.2.4-.4.3-.4-.1Zm-5.5.2.3-.8h.4l.6-.3.3.5-.8.8-.8.5-.3-.1h.2Zm1.3-1.6.6-.1.4.4.3.2-.3-.2H229Zm1.1-.5.4-.1.2.5L230,79Zm-1.4.2h-.8v-.6h.6Zm5-.6L233,78l.5-.2.5.4-.1.2Zm-2.2,1.4.1-.3-.1-.2.1-.4v-.2l-.3-.2-.4-.1V78l.5-.2.7-.3-.1.6.3.9Zm-3.1-2.2-.3-.2.3.2.2.1Zm4.7-.7.4.3h-.5l-.6-.1v-.2Zm-2.7,1.1-.7.2-.2-.5-.1-.3-.7-.4.1-.6.1.2h.4l.7-.3.2.5-.4.3.1.3h.3l.6-.1.1.2Zm2-1.5.1-.2h.2l-.1.3Zm-.9-.6.2.5-.5-.1-.3-.3Zm-3.3-.3-.1.2-.4-.2.3-.5.2.1-.2.1Zm1.6-1,.4-.1.1.5-.5.2Zm-1.1-.1.1-.4.1-.3h.2l-.1.4-.1.5Zm5.1-1.4-.1.2.1.3-.5-.2-.5-.3-.3.2v.5l-.3-.1v1l.1.4-.4.3-.1-.3.2-.3-.2-.3-.2-.3.3-.4.3-.3-.1-.4.7-.1Zm-.2-.8.2.1.1.1h-.5l-.1-.2Zm-2.8-.3-.1.3-.3.2.1-.5.5-.2Zm.1-2v.4l-.3-.1.1-.4Zm.1-1.7-.1.3-.4.1.1-.3Zm1.6-.1-.2-.2.5-.2.1.2Zm2.1-.1h-.5l-.4-.3h.4Zm-1-.6.1.2-.3-.1Zm-6-.2L227,67l-.1.2.4.4Zm3.3.5-.1-.2.4-.2.2-.5.2.2-.1.7Zm3.4-1.1h.3v.5h-.3Zm-5.2,1.2.1-.6.6-.1-.3-.5-.3.3-.7-.1.1-.6-.2-.2-.5.2.1.7-.1.9.2.2.3-.2.2-.2Zm-4.7-2.2h.6l-.8-.4Zm6.4-.5-.4.1-.1-.4h.4Zm-3.4-.3-.1.2.7-.3-.3-.2Zm6.5,0-.3.2v-.4l.3-.4.1.2Zm1.6-.6.4-.1.1.3-.2.2h-.2v-.4Zm-8.1-.2-1.2.2-.2.5-.2,1,.3.8.5-.3V64.8l1.2-.3Zm5.9.3-.4.2.1-.4.3-.2Zm-1.5-.6.8-.2-.5.6-.7.3Zm-7,0-.1.3h.2l-.1-.5Zm12.1.1-.7-.3v-.4l.5.3.5.2Zm-10.3-.8-.2.3h.2Zm-3,.1.2-.3v.4l-.3.3-.2-.1Zm2.4,4.3-1,.5-.8-.4-.8-.7.2-1-.3-.8-.1-.5.2-.1-.1-.4,1.1-.6,1.2-.3.2.6.4.2-.1-.4.1-.2-.1-.3.3-.2.7.5.8.2,1.1.6.6-.6-.1.7-.7.5.6.1.4.8.5.6h.5l.4-.5.2.2-.4.5-.8-.2-.3-.3-.6.2-.1.2.6.3.5.3.3.2h-.3l-.4.7-.2,1,.4.5-.5.2-.2-.5-.5.2v-.3l.3-.4v-.2l-.8.6-.2.7h.7v.5l.4-.1.1.4-.5.9.4,1.2-.5.2V73l-.2.1-.4-.3-.3.2-.3-.4.2-.7.9-.5-.5-.6-.1-.8-.5-.4h-.2L227,69l1.2-.6.1-.6h-.1l-.2.2-.1-.1-.2.2-.8-.1Zm8.8-4.8-.4.5-.2.3h-.5l-.7-.4-.5-.4.1-.5.5-.2.2.6h1.5v-.4l.2-.2.3-.2h.4l-.1.2.5.4-.2.4-.7-.3h-.4Zm3.3-.8-.2.2-.2-.2Zm-1.6-.1.2-.1-.2.3h-.5l-.2-.1.2-.1Zm-9.1-.1.7.2,1.3-.4,1,.6.3-.1v.8l.4.2-.4.2-.3.3-.1-.7.4-.5h-.4l-.4.2-.2.6-.6-.5.1-.4-.4.2-.2.7-1.1-.4-.2-.6-.1.6h-.4l-.2-.7Zm-2.4-.3.4.4.2-.2.2.6-.7.5-.4-.5h-.4l-.1-.6Zm2.9-.2.1.2-.3.2-.2-.3ZM240,89.7l-.7-.9-3.4-1.1-.6-1,.1-4.2-.2-2,.2-2.2-.1-1.5.1-1.6-.1-1,.1-1-.1-1.1V70l.6-.9,1-.6,1.1-.1,1-.6.6-1v-3l.1-.9-.1-1-.4-1-1.6-.5h-6.5l-1.1.1-3.1-.2h-1l-2-.1-1.1.5-.6,1.1v1l-.1.9V65l.1,1v1l.5,1,3.2,1,.7.9-.1,4.3v.9l.1,1.2v2.1l-.1,1,.2,2-.2,1,.2,2.2-.1,2-.5,1.1-3.4,1.1-.6,1-.1,1v3.9l.5,1.1,1,.3,15.2.1,1-.5.6-.9V93.7l-.1-.9Z"/><path class="cls-3" d="M202.25,94.1h-.4l-.5.1-.5-.1-.5.5.6.3h.4l-.1-.4.5.1-.2.2.9.2-.4-.4ZM206,94l-.2-.2-.2.2.1.2.3.3h.3l.6-.1-.2-.2Zm-10.3-.1-.1.3-.5.2h.6l.8-.3-.1-.3Zm11.4.7-.7.2h-.2l-.1-.2h-.3l-.2-.3.2-.5.1-.5.2.1.7.5.5.2Zm1.1-1.4-.5.2-.1-.3.1.2.3-.3.3-.2Zm-14.7,0,.2.2v-.5l-.4-.1Zm7.6.4.3.2.4-.2.2-.3-.4-.2.1-.3-.3-.5-.4.3.4.5Zm9.2-.7-.4-.2-.6.2-.6-.4.4-.1-.1-.2.2.2-.2.2.3.1.6-.2.6.3Zm-17-.5-.2-.1h-.5l-.2.3v.1l.4-.2Zm5.1-.2.4.6.1-.1v-.2l-.1-.2Zm8.5,1,.1.2-.1-.2-.4-.7-.4.5-.3-.5.1-.4.7.4Zm-2.8-.6-.3-.3h-.3l-.3.3h-.7l-.2-.5-.3.2.4.5,1.1.4.5-.4Zm-7.6.3.2-.2-.1-.5-.2-.3-.6.4.5.8.7.8h.3l.1-.2v-.3l-.4-.6Zm2.7-1,.5.2.5.1.1-.2-.5-.2Zm8.2.3-.2.2.1.6-.4-.6v-.7l.5.1Zm-1.6-.8.1.2-.3-.2v.3l-.2.1v-.6l.2-.2Zm-1-.4.3.1v.5l-.4-.1Zm7.3.5-.4-.5h-.5l.1-.1h.4l.5.2ZM192.4,91l-.3-.1-.1.3.5.2.1-.3h-.3Zm7.1.5h.7l-.4-.5-.4-.2v.4l.5.2Zm-3.3-.6-.5-.1.3.4Zm13.9-.1.2.2-.1.1-.3-.1-.3-.2.1-.2Zm-15.9,1.6.2-.4.5.2v-.5l.2-.1-.5-.1-.2-.5h.2l.1-.5-.8-.1.2.6-.2.4-.2.2-.5-.1-.2.3.2.3-.1.2,1,.5.6.9.2-.4-.2-.5Zm16.3-1.6-.2.2.1-.2-.2-.3-.2-.1v-.2l.3.2h.5l.1.3Zm-5-.1.5-.4.2-.3.4.2-.1.3-.2.2-.2-.2-.3.5Zm-2.3-.2h.4l-.5-.5h-.5l.2.2Zm-8.4-.8.2.3.1.5.5.2-.2-.9h-.6Zm-2.7-.2-.2.2.1.3h.4Zm10.7.8-.3-.3-.1-.4-.2-.3-.1.3-.1.7.6.7h0l.3-.2Zm-6.7.3.6.1.3-.4-.1-.7-.4-.4-.2.5-.1.4.1.2-.1.2Zm3.9-1.3.4-.1.5-.1-.1.3h1l.3.2.1-.2.3-.2.7.3h1.2l-.1.5.1.3h.4v.4h-.5l-.2-.3-.3.6.3.4.4-.2-.1.4-.5.2v-.3l-.2-.4-.3-.2-.4.2-.1-.1h0l-.1.3-.4.3-.1-.4-.1-.4-.4-1-.6-.1-.6-.3-.1.5-.5.2-.4-.5Zm7.5-.3v.7l.5.7.3.3-.3.2-.1-.3-.5-.4-.5-.5.2-.3Zm3.2-.1-.2.6-.4-.4Zm-12.8.3-.3-.5-.5.2-.1.6.4-.3Zm11.4-.5.2.3.2.3-.3.1-.2-.2-.3-.2-.1-.3Zm-15.5,1.4.6-.5h.4v-.3l.8.1-.2-.4h-.5l-.6-.2-.5.5.1.5ZM205.6,89l.9-.6.1.4-.2-.2-.2.5-.4.3-.4.9.1.3-.4-.5Zm2.5-.8-.3.5h-.2Zm.3.3.5-.2-.1-.2.2.2-.5.5Zm-15.5.7.6-.4.1-.2-.4-.1-.4-.4-.1-.2-.3-.1-.2.3-.1.4.4-.1.3.2v.3l-.4.2.1-.2-.7.1-.3-.2-.1-.5-.4.4-.5.2.3.2.5.4.2.2.3-.2.2.2.2-.2Zm19.4-1.6-.1.2-.1.4-.2-.1.3-.2-.2-.4h.7Zm-18.7.2-.3-.4-.2.2.5.4Zm15.9-.8h.5l.3.3-.3.4-.5.2-.5-.2.1-.3.3.2.1.1.2-.2Zm-18,0,.2-.1-.3-.2-.7.8-1-.1-.2.4.6-.2.4.2,1.1-.1.2-.3h-.4Zm12.6,7.2h.7l.1.2.1.5-.3.4-.3.3-.2-.2.4-.4.3-.5h-.5l-.1-.2-.3.3-.2-.3-.6-.2-.2-.5-.1.2h-.3l-.3-.2.1.3,1.2,1-.1.1-.2.2-.3.6-.5.1.2-.3.1-.5-.3.2-.5-.1-.2.4-.1.5-.5-.2-.9.1-.1-.2.4-.2v-.1h-.8l-.1.5-.4-.1.1-.5-.3-.2-.2.4-.2.3-.7.1-.2-.3v-.6l.5-.2-.6-.2-.6.8v-.4l-.9.2.1-.4h-.6l-.1.4h.2l-.2.1-.7-.7h-.6l-.6-.8-.3.2.2.2.1.3-.3-.2-.1-.3-.1-.2-.3-.1-.6-.3v-.7h0v-.1h-.1l-.2.2-.2.6-.4-.5h-.3l-.6-.6.5-.9.3.4.2-.4-.6-.3.7-.4.1-.6-.2-.2-.3-.2-.1.4-.2.5-.4.2-.2.1-.4.3h-.3l.1-.4.4-.2-.2-.2V90l.2-.2-.5.1-.4.3h.4l.1.2h-.3l-.1-.2-.3.2-.2-.5v-.3l-.4.2v-.5l.4-.3-.2-.5.4-.4.1-.2-.5-.5.3-.8-.3-.4V86h.8v.4l.3-.1.4-.5h.6v.5l.6-.4.5.6-.3.3.4.1.4.2-.1-.5-.3-.4.3-.3.1.1,1.1,1.1v-.2l.2-.7.6.2-.5.2.1.5h.5l.1.5-.4.4-.4-.1.5.5h.6l.2-.3-.3-.3.5-.2.2-.2.1-.2.1.3-.1.3.2.3-.4.2-.4.2-.2.2.4.1.3.1.3-.5.2-.3.1-.5.7.2.6.6.6.4.3.3v.5l-.4.3h-.3l-.2.5-.1.6.8-.1-.3.3.3.3.5-.3.2-.3-.2-.3-.3-.1.1-.3.6-.2-.1-.4h.6l.6.7.4.3.7.3-.3.2V91h.1l-.2.2.5.1.2-.6.3-.1v.2l.4.5V92l.4-.2.6.3.2.4.6-.6.1-.3.2.4.3.2.9.2.2.4.2-.1.1.4-.5.1-.9-.5-.3.4.2.2-.3.2.5.1.5-.4.5.5h-.2l-.3-.1-.2.3h-.7Zm6.5-8.1-.3.5-.4-.5h-.6l-.2-.2-.1.2-.3.1.1-.4.8-.2-.1-.6v-.3l1.3,1ZM208,84.4l-.2.2v-.2l-.3-.3h.2l.4.2.2.3Zm-.7-1.1h.5l-.1.4.3-.1-.1.3-.6-.2Zm2.3-1.4.4.1v.2h-.6Zm2.2-.3.3.3.1-.2h.3l-.2.2-.7.2-.1-.3Zm-5.9-.5-.1.2-.1.5-.2.2-.1.4-.3-.2.3-.2v-.2l-.1-.1.1-.4.5-.3.2.3Zm-1-.3.4-.3.2.3-.2.2-.5.2Zm1.7-.1h-.3l.2-.3.3-.2Zm-9.2-.7-.1.4-.2-.5.5-.2Zm-.6,0-.4.2h-.3l-.1.2-.2.2h.8l.2.3-.6.2-.5-.5.8-.8.4-.1Zm2.2-.3-.2.3v.5l-.3-.1-.2-.4.3-.5.3-.2Zm6.9,0-.4-.3.4-.2v.5l.1-.3h.2l.1.3Zm-5.7-.3v-.2l.3.3Zm3.6.6-.2-.1v-.5l.3-.4-.1.7.3.2Zm-1.2-.5-.2.2-.1-.3-.3-.5v-.5l.4.3-.2.3.9-.1.1.4Zm-1-1-.4.4-.5-.4.3-.4.6.1.2.2Zm4.9,0-.2-.2.1-.3.1.2Zm-6.4,0-.1-.2.1-.3.4.3Zm-2.5.2.3.4-.3-.1-.7-.6.2-.4.1-.3.7.2.1.7-.2-.3h-.3Zm7.2-1,.5.2.2.4-.1.2-.3.2-.1-.5-.5-.2-.1-.3Zm2.5,0,.2-.3.1.2.3.2.3.1-.1.3-.3-.2-.1.3-.5.4.1-.6.3-.2Zm-1.2-.4.5.3-.2.4-.6-.4h-.2Zm-2.4,1.2-.7-1,.7-.3.2.4h-.2l.4.4.5.6.2.4-.5-.2Zm-6.2-1.7-.1.4-.8-.3-.4-.5.6.1Zm5.5-.6v.2l.2.2.3.2-.2.1-.1.2-.2-.3-.2-.4Zm-7.9,3.9-.1-.7-.7-.2.1.6h-.3l-.2.2v-.5l.3-.2-.4-.3-.1-.5-.2-.3-.1-.3-.2-.2-.2.2-.2.4.2.1.1.3-.5.1.1.2.1.4-.5-.4v-.4h.4v-.7l.5-.8.4.2-.2-.5h-1.1v.5l-.1.7-.6.2-.3-.4.3.3.2-.3.4-.6.1-.7.5-.3-.2.3.2.3h.3l-.1-.2.3-.3h.3l-.2.2h-.2l.8.4.8.1.2.8.2.2-.2.6-.3-.3.2-.3v-.2l-.2-.3-.8.1-.4.3.1.1h.6v.8l.9.1.5-1.1.1.9.2.5.2-.1.3.3h.8l-.4.2h-1l-.2.4-.1.5Zm4.5-2-.4.2v.3l.4.1.4.4-.4-.2-.9-.1.1-.2v-.3l.1-.2.1.3.1-.2V78l-.2-.2-.2-.5.7.5.5-.2.5-.6-.4-.4.1-.4-.1-.4.5.1.6.6-.2.3-.2-.1-.1.7Zm-5.1-2.3.1.5-.5-.4Zm-3.3.8-.1-.3-.1.4-.5.3-.3.1.1.2.4.4-.2.3-.3-.4-.1-.6-.5-.3h.2l.5-.4V76l.2-.2.1.5-.2.2.4-.1.8-.1v.3Zm7-1.2.1.3-.4.3-.2-.2Zm-4.6-.2-.3.4-.5.2.1-.1.2-.6Zm.5,0v-.3h.2l.1.4.1.3-.3-.1Zm-3.5-.5.5.2-.1.3.1.5.4-.3v.4l-.5.1-.2-.6-.1-.4-.4.4-.1-.3Zm2.3-2.1-.1.2-.3.2-.2.5.3.1.5-.2v-.1h.1l-.1-.3Zm3.9,2.3.4-.2.1.8-.8.7-.4-.3-.3.2-.3.5-.4-.3L195,76l.6-.2h.4l.4-.6-.7-.3-.7.2-.2-.3h.6l.4-.1v-.3h-.6l-.3-.1-.6-.3-.1-.5-.2.7-.5.2-.4.1.1-.6.7-.6.9-.3v-.5l-.2-.2.2-.2.6.7v.6l.2-.1.1-.7.2.2.5.4-.6-.1-.1.2v.3l-.4.1-.2.4-.2.1.2.1.2-.2.4.2.4.3Zm-6.4-2,.5-.3.1-.3.2.3-.3.5-.5.2Zm-1.6-.2.1-.6.2-.1h.2l-.1.5v.2h.3l.3.4h-.3Zm.8-1.5.3-.3.3.3-.3.2-.2.2-.3-.2Zm2.7-.3-.3-.2.3-.2Zm-.3-.3-.3-.2Zm1-.2v-.8l.3-.3-.2.3.3.3h.4l-.9,1.3-.2-.2Zm-.7,3,.3-.5.1-.3.3-.6,1-1.2,1.1-.9v-.6l.6-.2-.1.6.1.4-.3-.1-.2.1.2.2.3.5-.3.4h.3l-.1.3-.5-.8-.2.2h-.5l.8.5-.1.3v-.2l-.2-.1-.1.3-.2.2-.6-.5-.6.3.1.3-.4.7.1.4-.1.1v.1H193l-.1.2-.1.3-.4-.1-.4-.2h-.7l.4-.5-.4-.5.2-.3h.6v-.3h.2l-.1.3-.3.2Zm1.9-4.4.4-.1-.1.8-.5.3.1-.5Zm-4.3-.2-.1.2-.2-.2.1-.2v.1Zm3.2-.3.5-.2.4-.1.3.4-.1.3-.1-.2-.1-.3-.2.4-.3.3-.5-.2.5.1.1-.2Zm2.3-.2.2-.4v.2h.1l.2.1Zm-5.9-.5.2.2v.3l-.2-.2Zm6.8-.3.7.2.2.5-.3-.1h-.4l-.2-.2Zm-1.7,1-.7-.8.4-.2.5.2.3-.2V68l-.5.2ZM210.1,67l.2-.2v.4l-.2.2Zm-15.5-.2-.2-.2.5-.1Zm-2.3-.3v.8l-.2-.4-.1-.2Zm-.6-.2-.2.1Zm5-.2-.2.1-.1-.3Zm6.1-.3.1.2.1.4-.4-.4Zm-9-.1.2.2.2.4-.2.1-.3.3.3.2-.1.3-.2-.4.2-.5h-.3l-.1-.2Zm5,.2.4-.4v.3l-.1-.2-.3.3.3.2.4.4-.4-.1-.4-.2Zm-7.3-.5.1.2.1.4-.2-.1-.2-.3Zm4.2-.1.2-.3h0l-.3.4-.5-.2V65l.3.2Zm13-.1.2-.6.4-.1-.6.9-.1-.4Zm-13.3-.6-.2.2-.1-.5Zm1.8-.4h.4l.2.2-.5.3-.1-.5-.1.3-.1-.2Zm5-.2.2.2-.2.4.2.1-.4-.1-.2-.3Zm-7.8,0,.3.2.3-.1-.3.2-.1.3-.2.3-.1-.3-.2-.3L194,64Zm3.6-.6.1.3h-.5l-.1-.2Zm5.6,0,.1.2h-.2l-.1-.3Zm2.6-.3.7-.1-.4.2.2.3-.2.2-.2-.3h-.4Zm-6.5.3.1-.4.2.2-.6.4Zm16,19.4-.2-1-1-1.9-1.2-1.6-.9-.7-2.7-1.2-4.2-1-5.2-.7-2.3-.8-.8-.4-.8-.8V71.3l.1-1.3.6-.7.9-.7.7-.3.9-.2,3.3-.1,1.1.4.8.6,1.7,1.8,1.6.5,3.4.1.9-.1,1,.1,1-.6.5-1-.4-2-.8-1.8-.7-.8-.5-.8-.7-.8-3.3-2.2-2.8-1-1.1-.2-.9-.1-1.1-.2h-2.9l-4,.8-.9.3-.8.5-.8.3-1,.6-.7.7-.9.6-.6.9-.7.7-.4.9-.5.8-.7,3,.1,3.4.4,1.4.7,1.8,1.3,1.7,1.4,1.3,1.8,1.1,2.9,1,1.8.4,4.2.3.9.2,1,.1,1.8.8.7.6.3,1.3-.3,1.3-.8.7-.8.5-1.9.6h-1.4l-1.5-.1-1.2-.3-.8-.4-.9-.6-.8-.7-.8-1-1-.4-3.9-.1-1,.1h-1l-1,.5-.4,1.1.1,1.1.2.9.8,2,1.3,1.6,1.5,1.5.9.6,3.5,1.8,1.1.2,1,.4,2.1.2,1.5.2,1.6-.1,5-1,2.7-1.4,1.6-1.1,1.4-1.6,1-1.6.4-.9.3-1,.2-.9.1-3.2Z"/><path class="cls-3" d="M152.25,90.2h0l.2.1Zm-.2-.1.1-.2Zm-.7,0-.4.3-.1-.5.5-.5Zm25.9-1.9v-.4h.3v.3Zm1.1-.3.2-.6v.2l.2.5ZM155,87.5l-.6-.2h.3l.5-.2.3.2Zm-5.8-.3v-.4h.4l.1.3Zm28.3-.6-.2-.2.4-.1.1.3Zm-24.7.3-.7-.4.1-.3.9.2V87Zm23.9-.3-.3.1v-.5h.4Zm-4.5-.1V86l.2.2v.3Zm7.3.3-.4-.2h-.3l-.2-.2.4-.3.5-.3.1.6Zm-4-.6-.3-.2v-.3l.4.3Zm-1.3-.5h-.6l.3-.4.6.2Zm-21.1-.2-.1.3h-.5l.2-.5Zm-1.7.1-.3.1-.3.5-.3-.3-.3.1h-.6l-.3-.5.3-.2.3.4.3.2.5-.2.6-.2.2-.1Zm2-.5-.1-.2.6.2Zm.5.5.5-.3h.2l.2-.5.3.4-.4.2-.2.2.3.3-.1.3h-.4Zm-5.9-.1-.2.1v-.3l-.3-.6.8-.1.2.4Zm1.7-1,.1.3-.5.2-.2-.2Zm5-.5h.6v.3h-.5V84Zm18.6.2-.3-.3.3-.3.2.3Zm-21.5-.4.4-.2-.1.5-.3.2Zm-3.1,0-.4.1.1-.2.3-.3Zm-1.6-.3v-.2l.4.1.1.6.1.2-.1-.1-.2-.3Zm3.5-.8-.2-.2-.2-.1-.1.4Zm28.4,0,.9.2.1-.3-.7-.3Zm-1.8-.8.4.1.2-.4-.5-.2Zm-28.3-.2.2-.3.1.3-.4.3v-.3Zm30.5-.3-.1-.3-.3.1v.4Zm.3-.5-.4.2.6.2Zm-2.2-.1v.3h.3l.3-.2v-.3Zm-26.6,2.3-.4-.1-.6.3v.5l-.1.2-.2-1,.2-.6-.2-.2.4.4.3-.2h0l.1.2.1-.7.9-.6.2-.8.2.3.6-.3.3.5-.8.6-.3.4-.4.2-.4.2,1,.1.9,1,.4-.4-.4-.3.3-.3.2-.3-.2-.5.1-.5.5.1.3.3-.5.3.3.3.6.5-.1.1-.6-.1-.3.4.3.4.6-.2v.3l-.5.2-1.2.9-.4.1v.4l-.3-.3.5-.7.5-.3-.6-.3-.5-.5-.7-.2v.8Zm23.6-3.4.4.2v.3l-.2-.2-.5.4-.1-.3Zm-21.3,0V80l-.4-.2Zm22.8-.1.1.6-.6-.2-.1-.5Zm-1.1-.7v.4h-.3l-.1-.3Zm5.5,0-.4-.2-.2.2v.4h.5Zm-28.7.7-.2.2-.2-.4.5-.4.1-.3.6.1v.6h-.8Zm1.6-1.7.6.2-.6.4-.1-.4Zm-1,0-.5-.1.2-.2.3.3.2.2Zm-4.8,0-.4.3v-.6h.3Zm27.5-.4h.4l-.2.3-.4.2.2.5.5-.4.1.5-1.1-.1-.1-1Zm-26.4,5.1-.3-.2.3-.3-.2-.1h-1l-.4-1.1.3-.6.2.1.3-.3-.6-.2-.5.1v-.3l.4-.2-.2-.4h-.5l.7-.6h1.1l-.1.4-.4-.1v.4l.5.4.5-.1.3-.7.7.2.3-.5-.2-.5-.6.5-.6-.8.3-.7.3.1.6.2.3.4.2.9.6.6V80l-.6.2-.3-.5-.8-.2-.5.6-.4.2-.4.4.1.3-.6.2v.3h.6l.8-.6.4-.6.6.2.6.3-.2.3-.9-.2-.6.4-.3.1-.1.5.6.2-.1.3Zm32,.4.7.3-.7.5-.7.9-.1.4.5.5v.2l-.2.2-.5-.6-.4-.2-.3.2-.4-.3.4-.3.4.1.2-.2v-.2l.2-.5-.5.1.1-.4-1-.7-.8.2.3.1.5.2-.6.8-.4.1.3.2-.8.1-1.1.1-.4.1-.3-.2h.3l.2-.1h.4l.1-.3V84l.6.3.9-.4v-.6l-.2.5-.4.3.1-.5-.1-.6-1.2-.2.1.7-.3.5-.5.1-.6-.2-.6-.6v-.2h.5l.4.8.3-.3v-.5l-.8-.4-.7.1-.1-.5.8.1h1l.8.3.2-.3-.1-.5-.3-.1-.5.2-.2-.3.3-.3-.1-.2-.4.1.5-.5.9.5.7-.6-.2-.6v-.5h-.7l-.2-.1v-.3l.8-.1.6-.7.2-.2.4-.1-.1-.5.1-.5.4-.1v.5l-.1.2.4.9-.2-.2-.5.5-.6.5.7.4,1.1-.4.1-.6.2-.2h.5l.2-.5.4-.6h.6l-.1.7-.5.4.1.3.6.3-.3.7h-.5l-.3.7.8,1.1.6.8-.5.4-.4-.3-.3-.4-.1-.5-.4.6Zm-28-5.4V77l.4.1.7-.3v.4l-.6.3v.3Zm-.8-.6h-.3v-.3l.2-.2Zm25.9-.7h0l-.2-.2Zm-1.6.3-.3.1-.4-.3v-.2l.3.1.4.2Zm-26.6-1,.2.3h-.2Zm1.8.9-.4.3h-.3l.2-.6.4-.5.5-.1V76Zm26.4-.2-.2-.5.4-.4.3.6Zm-23.9-.8-.3-.3.4-.3v.3Zm-5.1-1.3h-.3l-.2.3.4.2Zm26.9.2-.4-.2-.2-.3.5.2Zm-28.7,1.3v-.4l.4-.2h.5l-.2-1,1.2-.3.5.5-.3.6.8.3.4.4.4.2-.5.2-.6-.4.1-.3-.9.3-.4.5.5-.1v.2l.3.3-.7.2-.9.6-.1-.7-.5-.2.6-.2v-.3Zm34.1-.2.2.2-.5.4v.5l.3.4-.5.2-.3-.6-.4-.2.2.6-.7.2-.4-.4.3-.3-.1-.5.6.2.8-.4.4-.1-.5-.2-.5-.1-.3.1-.6-.2-.3-.2-.6-.5-.4-.3-.3.3-.8-.3v-.5l-.4-.2.4-.2.5.5.3.4.3-.2.2-.4.1-.7.4.2-.1.8.7.3.4-.4.3.1-.3.7.3.2.6-.1ZM177,73v-.6l.3.1.4.5v.6l-.1-.4Zm-24.8.4-.4.2-.4-.3-.1-.7.5-.2.5.6h.5l.1-.2.1.2h-.3v.3Zm2.4-1v.2l-.4.2.2-.1Zm24.2-.2-.3.5h-.6l.2-.3Zm-26,0-.2.2V72l.1-.2Zm-4.6.2,1.2.4.4-.4v-.7h-.3l-.3.1.1.3-.1.2-.2-.5-.3-.1Zm31.8-.3v.4l-.3.2-.2-.2h.4l-.7-.4-.7-.5h.6Zm-31.3-.4v-.2l-.7.2.2.2Zm27.2.2.4-.4.2-.1.9-.1.5.6-.2-.2-.7-.2-.6.5-.7.7Zm.6-1.5h.5l-.3.3-.4.1Zm-1.9.3.3-.3h.4l-.3.4h-.6Zm-24.8.7.7-.7-.5-.3h-.5l-.2.4.4.1-.4.4Zm28.6-1.3v-.4l.3.4-.4.2Zm-6.8-.3.3-.1V70h-.3Zm-17.8-.2.1.3-.2.3-.1-.3v-.4Zm23.9-.4.4.2-.4.2h-.3Zm-5.4,13.6-.6.9-.3.8-.7.8L168.2,87l-.9.3-.8.3-1,.2h-2.8l-1.1-.2-1.8-.8-.8-.5-1.4-1.1-.7-.7-.7-1-.2-.8-.5-.9-.4-1.8V76.8l.2-.9.2-1,.3-.9.3-.9,1.2-1.6,2.6-1.7.7-.3,2-.5,1.4-.1,2.4.3.9.2.9.4,1.6,1.1,2,2.1.6,1.9.5,1,.2.9-.1,3.1-.4,1.9Zm3.3-14.1.2.2-.3.4Zm-22,.2-.4.1v-.3l.3-.1Zm-2.2.5,1.1-.6.2-.4.2.1-.3.7-.4.3-.4.5.3.3.4.2.2.5.5-.2-.2.5-.6.4-.2-.3-.1-.6-1.2-.7-.3-.6v-.3l.3.2-.2.2ZM147.8,71l.5-.5.5-.4v-.6h.5l.2-.3-.3-.2.5-.4.5-.2v.5l.2,1.1,1,1.1.2.5-.5.8-.9.3.4.2.5.4-.3.3v.5h-.5l-1-.6-.9-.1-.1-.4-.4.1v-.5l-.1-1.1Zm6.8-2.9.4-.2.4-.5-.1.7Zm1.8-1-.2.2-.4-.1.2-.2Zm14,.2-.5-.3v-.4l.5.2Zm-15.7-.6.4-.3.1.3-.2.2h-.5Zm-3.3-.3h.5l.3.1.5-.4.6-.1-.3-.1-.5-.1-.2-.3.7-.3.4.4.1.3.5.2-.2.3-.3-.2-.1.6.3.4.9.4V68l-.8.3-.4-.3.4.1v-.5l-.6-.2-.5.3v-.4l.1-.4H152l.1,1.2-.4.8-.5-.1-.6-1.3Zm6.2-1.5v.4l-.3.2v-.4Zm9.6-.1h.3v.4h-.4Zm2.6-.1.2.3h.4v.4l-.8.1-.2-.4Zm-5,0-.2.2-.2-.1.2-.3Zm7-.2.1.2h-.4v-.2Zm-10.2-.4h.2l-.2.2-.3-.2Zm-6.3.6.2-.2.4-.4.1.2-.3.5-.6.2Zm11.1-.7v.4l-.3-.1v-.2Zm-9.1-.6.6.1-.2.5-.6-.1Zm-.4-.5.1.3-.3.1-.1-.3Zm2.3-.1.6.2-.3.5-.7-.3-.1-.5Zm10.4-.3.6.3.6.2-.1.2-.5.1-.6-.4Zm-8-.1.3.2h-.4l-.1-.2Zm3-.2-.3.2v.3l-.1-.3Zm3.2,0,.7-.2v.5l.3.3.2.4-.4-.2-.5-.2-.5.2-.3-.2Zm14.6,13.7-.4-2.1-1.3-3.9-1-1.9-1.1-1.5-1.4-1.6-1.4-1.3-1.2-.8-1.5-.7-.8-.6-3.9-1.2-3-.5H164l-5.4.8L154.8,62l-.8.6-.9.5-1.7,1.3-2.6,2.9L147.2,70l-.8,1.9-.9,3.9-.1,4.2.2,1,.3.9.1,1,.5,1.9,2.4,4.7.6.6.7.8.8.7.6.7,1.7,1.3,4,2,1.5.5,1.1.1,1.8.4,1.1.1h2.9l3.1-.4,3.8-1.3,1.7-.9.8-.6,1-.5,1.4-1.2.7-.9.7-.7,2.2-3.4.8-1.9.4-1.9V82l.3-1V79.9l.2-1.5Z"/><path class="cls-3" d="M112.65,93.1v-.4l.3-.3.1.4Zm-1-.8.1-.3.3-.7v.4l.1.4Zm1.3-1.7v-.4l.4-.2.1.6Zm2.4-.4-.2-.1-.2-.3.2.2.2.2.1.2Zm16.2-1.4.4-.6.1,1.3Zm-20.3-.5v-.4h.5v.3Zm.9.8-.2-.4.5-.4.2-.4.3.5-.1.4-.2.3Zm16-1-.5-.2.4-.2.3.2Zm3.1.4-.2.4-.1-.3.1-.3-.2-.6-.6-.3-.3.1.1.4.5.5-.2.4-.4-.1-.1-.5-.3-.3.2-.3.3-.1.2-.2V87l.7-.4.7,1.4-.4.3Zm-14.8-1.4h-.3l-.5-.5.2-.2.4.3V87l.2-.1Zm17.1-.1.3-.1.3.4.8-.5.1-.5-1.2-.4Zm-18.9-.4h-.4l-.3-.2-.2-.3-.2-.3h.4l.2.3.2-.2.1-.2.2.3Zm18.4-1.5-.1.2.4.5v.4l.5-.6Zm-3.1,0-.4-.2v-.3l.1-.2.2.2Zm-18.8,4.6-.3.4-.7-.4.2-.9-.2-.4v-.9l.2-.5v-.6l.6.4.2-.3-.6-.8.4-.6-.3-.5.4-.5.1.2.6-.3.3.1-.2.3.2.1-.1.1.4.1.7.2-.3.2-.4-.3-.5.1.3.8.5.2h.4l-.1.3-1.2-.2-.1.5h.8l.3.2.4-.2.2.2v1.1l-.6-.2-.4.3v-.4l-.2-.4-.9.6-.4.7.6.3-.5.5Zm-1.1-5.3.2-.8.5-.1.1.4-.6,1Zm21.4-.9.4-.6.6.3-.1.2-.4-.1-.4.4Zm6-1.5-.2.4.6.4.1-.2ZM115,82l.2-.6.6.4-.2.2Zm1.8-.2v-.3l.4-.1.1.7ZM113,83.2l.2-.1.2-.4-.3-.2-.1-.4-.6-.2.3-.4.6-.2.3-.3.2.2-.2.5.2.5.2.7Zm21.2-2.4h-.4v-.6l.4.3Zm1.1-.4.3-.2v.5l-.5.1Zm-23.2.8.4.1-.4.4V82h-.3l-.3-.2-.4.2-.3-.5.5-.3-.8-.3-.2-.6h.6l.6-.2.2.1.2.1-.4.7Zm26.4.1-.7.3.1.4h.4l.1.4-.3.2-.3.1h-.3l-.2,1.5-.6-.2-.2.2.6.4v.9l-.5.1-.3.4.4.3-.1.2-.3-.3-.8-.2.3.5.1.9-.4-.3-.3.4-.4-.1.4.2-.2.4-.2.4-.2-.3-.2-.3-.8.3-.4-.3v-.2h.4l-.3-.4-.5-.1-.3-.2-.1.5-.3-.2-.5-.3-.6-.4.3-.6.7.4.4.3.3-.2-.4-.4-.8-.4-.7.4-.5-.4.3-.7-.5-.5.4-.9.5.3-.1.4h-.4l.7.7,1.3.5.1-.6-.4-.8.6-.2.3-.5v-.6l.3-.1.5,1.4.2.2.2-.8.2-.8h-.7l-.4-.5-.3-.2H132l-.3-1.1.5-.2.1.4.1-.4.6-.6.1.3-.4.1.3.3-.7.4v.3l.7-.2.5.4h.2l-.1.2.4.1.7-.4.5-.3V81l.3.2.1-.5.4.2.2-.4.4.2-.2.4-.4-.2-.2.2.3.5-.2-.2-.3.2-.8.5.5.8.3-.3.3.2.6-.4v-.7l.4-.2.2-.1-.1.2V82l.5-.5.5-.8h.6ZM113,79.7l.4.4.2.2h-.4l-.5-.2-.2-.3Zm22,0-.2-.7.3-.4h.2l.2.7Zm-21.6-.5-.2-.3.5-.4.2.2-.2-.1-.1.3Zm-1.8-.3-.3-.6h.4l.2.3Zm21.5.5.5.2V80l-.3-.2-.2-.1-.2-.2.1-.4.2-.2.3-.1.1-.5.3-.1V79h-.3l-.4-.2-.1.2Zm5.4-1.2-.1.3-.1-.4.2-.5.1.4Zm-.4,1.2-.2.2.4.3v.5l-.6-.2-.3-.5v1l-.6.2-.4-.6.2-.6-.2-1.1.6-1v.8l.2.6-.5.4.2.4.6-.4.4-.3-.4-.4.4.1.5.4Zm.1-1.9h.2v.2h-.2Zm-22.6,0-.1.3-.1.5-.1-.5Zm17.6.3-.4.2-.1-.2-.2-.2-.2-.2.5-.1ZM114.5,77h.3l.3.2h-.5Zm-.5.4v.2h-.1l-.1.5-.5.4V78l.4-.5-.1-.3.3-.2.1.2h.2Zm21.4.5-.6.2-.6-.2-.2-.6-.3-.1.5-.2.6.6v.3l.6-.4.3-.9h.3v1.2l.2.6h-.4l-.2-.3Zm3.1-1-.1-.5-.5-.3-.4.3.4-.5.7.3.2.4Zm-3.9-.4-.3-.4v-.3l.5.2.4.5.1.6-.4.2-.1-.3.1-.5Zm-19.2-.2h-.5l-.2-.6.7.6.3.2Zm17.6-.4.2-.4.2-.2v.5Zm3.2-1,.3.5-.3.3-.1-.4Zm.7.7.2-.6.3-.2.8-.1-.8.6v.5l-.4.5-.2-.3.3-.1Zm-3-1.7h.3v.5l.2.2.7.2.3.4.2.2-.2.3.4.1h.4l-.5.4-.9-1-.6.1v.3l-.5-.3.2-.7Zm-1.9.2.3-.3h.5l-.2.5H132Zm-21.6.6-.3-.1v-.4l.3-.5.2.1.1.4.3-.3.1.2-.4.5v.9l.4.8-.3.2-.4.2-.2.5V77l-.2-.5.2-.7ZM136,73l.2.2.2.3.2.3-.2.2-.4-.3Zm-.5-.2-.3.1.2.3.4.5-.3.2-.4-.3-.3-.1-.2.3.1-.2.2-.2-.1-.2.3-.5Zm-20-.9.3-.1.3.3h-.4Zm-1.3.1-.2.2h-.3l.9-.8v.5Zm-1.8-.3.3-.3.4-.2h.2l-.3.7Zm17.9-1-.2-.2h.5l-.6.8-.1-.4ZM113,70l-.3.5-.6-.2h.4l.2-.4Zm-1-.6v-.3l.3-.2.2.4Zm16.3,16-.6.8-.8.5-1,.5-1.8.5-4.3.3-1.2-.5-.5-1.1.1-1-.2-.9.2-1V70.3l.6-.9,1.5-.6,1.1.1,1.1-.1,1.5.1,2.1.6,1.7,1.1,1.3,1.4.6,1,.7.8.6,3,.2,1.6-.3,2.5-.3,1-.8,1.8-.7.9ZM115.1,68.8l.2-.4h.2l-.1.4v.4l-.2-.1Zm-5.2,0,.2-.6,1.4-.1-.2.4-.8.2h.4l.7.1-.2.5.6.5-.5.3-.2.3.6.4.3.7-.4.7.2,1.2-.7.4.2-.5-.4-1.1-.4.4V72h.7l-.4-.6v-.7l-.6.2.2-.8-.3-.1.3-.3.3-.3h-.7Zm25-.3-.5-.1-.4-.3-.2-.1h.3Zm-7-.8.5.2.2.2.1.2-.7.6-1-.1v-.4l.4-.2.7.4.4-.4Zm5.9.4h-.2l-.4.4-.1-.6.5-.1Zm-20.1.1-.7.4.3-.7.7-.4Zm-2.2-.1-.1-.5.2.2Zm12.4-.4.2-.4h.5l-.4.4-.5-.2.1-.2Zm7.4-1,.4.2v.3h-.5Zm-1.5.5v-.6l.5.1-.2.6Zm3.2-.8.4.3-.3.5-.3-.2Zm-6,.3-.2.2-.5-.2.2-.4Zm-9.8.3-.8-.3-.2-.4.2-.2h.4l.7.4Zm13.3-.8-.3-.2.3.1.3-.1h.3Zm-8.5-.4v1.1l-.1-.5Zm-6,1.3-.3.4-.6.2-1.3-1.3-.3-.5.9.5h.4l.2.7.3.2v-.5l.4.1Zm1.8-1.1.4-.2-.1.5-.4.1Zm10.5.6v.3l-.5.1-.6-.8v-.7l.5.5Zm-2.9-1,.8-.2.7.4h-.7l-.6.7-.5.1-.3-.4Zm7.1-.3.2.2-.2.1-.3-.2Zm-22.3,1.3-.1-.4v-.8l.5-.3.6.3.7.6.1.9.2-.4.4.1v.7l-.2.3-.3.2v-.3l-.1-.4-.3-.1-.3.3-.3-.3-.3-.2-.3.1.4.4v.3l-.2-.2-.1-.3-.3-.1-.2-.1Zm13.2-1.9-.1.3-.2.3-.4-.1.1-.6Zm3.7-.5.5-.2-.2.6-.6.1Zm-17,.3.3-.6.4-.2-.2.4.4.3.6.2-.2.5-.5-.3-.2-.3-.1.5-.6-.1Zm13.5-.2-.4-.2-.1-.5.5.1Zm5.3-.4.2-.5.2-.1.1.5h.3l.5-.3.4.5-.5-.2-.4.4.4.1v.4l.2.4.8-.2-.3.6-1-.3h-.2v.4l-.3.2-.3-.2.5-.6-.6-.3-.7-.3-.1-.2ZM120,62.8l.5.3.1.5-.6-.3Zm-1.3.2h.2l.4-.3h.3l-.2.3-.3.3h-.5Zm4.1-.7-.1.3.6.2-.2.3-.7-.5-.3-.4Zm-11.3-.4.6,1h.2l-.2-.3.2-.3.4.2V63l-.2.8.5.3.4-.3.5-.2-.3-.5H113l.2-.5h.7l.7-.3-.2.4v1l-1,.8-.4.2.3.3-.6.1-.3-1.2-.4-.7-.4.2-.2.6h0l-.3-.3-.2-.3-.2-1Zm5.6.5-.5-.4.2-.4h.5v.5l.4.2.1.3Zm3.4-.9.5.3.3.4-.3-.1-.1.3-.4.1Zm-5.6,0,.5.5-.4.5v-.4l-.2-.5ZM140,76.8l-.8-2.9-.1-1.1-.3-.9-.8-2-1.2-1.8-.4-.9-1.3-1.6-.9-.6-1.4-1.4-1.9-1.2-1-.5-2.8-.9-2.1-.4h-7.2l-1-.1-3.3.1-1-.1h-2l-1,.5-.8,1v2.1l.1,1v1l.1,1.9-.2,1.1.2,1-.2,1,.2,4.1-.2,1.9.2,2.2-.2,1,.2,1.1-.2,2,.1,4.1-.1,1,.2,4.1-.1,1.9.6,1.1.8.5h1.2l1.1.2h1l1.1-.2,9.2-.1,3.3-.5,3-.9,4.3-2.9,2-2.3,1.7-2.5.2-1,.5-1,.2-1,.4-.9.2-1.1.2-1.1v-.9Z"/><g class="cls-4"><polyline class="cls-5" points="-125.15 58 -124.85 -29 547.15 -29 559.85 44"/></g><path class="cls-2" d="M305.85,45c-17,0-425.7,7-425.7,7l2.3-82.2h663.8V42.1L493,43.8Z"/></g></svg>