<?xml version="1.0" encoding="utf-8"?>
<!-- Generator: Adobe Illustrator 24.2.3, SVG Export Plug-In . SVG Version: 6.00 Build 0)  -->
<svg version="1.1" id="Capa_1" xmlns="http://www.w3.org/2000/svg" xmlns:xlink="http://www.w3.org/1999/xlink" x="0px" y="0px"
	 viewBox="0 0 673 132" style="enable-background:new 0 0 673 132;" xml:space="preserve">
<style type="text/css">
	.st0{fill:#F39200;}
	.st1{fill:#FFFFFF;}
	.st2{filter:url(#Adobe_OpacityMaskFilter);}
	.st3{mask:url(#SVGID_1_);}
	.st4{opacity:0.2;clip-path:url(#SVGID_5_);fill:#1D1D1B;}
</style>
<g>
	<rect x="252.1" y="95.8" class="st0" width="81" height="22.2"/>
	<polygon class="st0" points="56.8,67.5 59.5,127.8 94.5,132 94.7,67.5 	"/>
	<polygon class="st0" points="94.2,66.5 99.2,132 136.5,129.1 136.5,66.5 	"/>
	<polygon class="st0" points="136.4,64.9 139.7,128.3 169.2,129.2 172.5,64.9 	"/>
	<polygon class="st0" points="173,132 194.7,129.2 196.1,68.7 171.5,67.5 	"/>
	<polygon class="st0" points="197.1,130.1 227.3,132 227.9,66.5 195.1,64.9 	"/>
	<polygon class="st0" points="226.9,64.9 230.5,131 262.2,132 269.2,64.9 	"/>
	<g>
		<path class="st1" d="M320.3,112.6c-0.8,0-1.1-0.8-1.1-2.4c0-2.8,1-4.9,2.2-5c0.7,0,1.1,0.8,1.1,2.5
			C322.5,110.6,321.5,112.6,320.3,112.6 M320.1,113.9c2.5,0,3.7-2.3,3.9-6.1c0.1-2.1-0.7-4-2.3-4c-2.4,0-4,3-4,6.3
			C317.8,112.4,318.5,113.9,320.1,113.9 M313.5,112.2c-0.6,0.1-1.1-0.2-1.3-0.8c0.3-1.9,0.6-3.9,0.8-5.4c0.3-0.5,0.8-0.9,1.3-0.9
			c0.9-0.1,1.2,1.1,1.2,2.5C315.6,110.6,314.5,112.1,313.5,112.2 M314.5,103.7c-0.5,0.1-0.9,0.2-1.3,0.5c0-0.2,0.1-0.4,0.1-0.6
			l-1.7,0.2c-0.6,5-1.3,10.2-2.1,15.3l1.6-0.1c0.1-1.3,0.4-3.4,0.8-5.6c0.3,0.3,0.8,0.5,1.5,0.4c1.7-0.2,3.7-2.2,3.7-6.3
			C317.1,104.2,315.7,103.5,314.5,103.7 M306.9,114l1.7-0.1c0.4-3.4,0.8-6.6,1.3-10l-1.7,0.1C308,106.5,307.3,111.6,306.9,114
			 M309.3,102.2c0.5,0,1-0.5,1-1.2c0-0.6-0.2-0.9-0.7-0.9c-0.1,0-0.2,0-0.4,0.1c-0.4,0.2-0.6,0.6-0.6,1.2
			C308.6,102,308.9,102.2,309.3,102.2 M304.9,103.9c-0.2,2.6-0.6,5-0.9,7.5c-0.5,0.9-1,1.1-1.4,1.1c-0.5,0.1-0.9-0.2-0.9-1.1
			c0-1.4,0.6-5.7,0.9-7.4l-1.6,0c-0.2,1.2-0.8,6.6-0.8,8c0.1,1.4,0.9,2,1.9,1.9c0.7-0.1,1.2-0.3,1.6-0.7c0,0.2-0.1,0.4-0.1,0.6
			l1.6-0.1c0.3-3.3,0.7-6.5,1.3-9.9L304.9,103.9z M295.4,112.1c-0.8,0.1-1.2-0.9-1.2-2.4c0-3,1.1-4.3,2.1-4.5c0.6-0.1,1,0.2,1.3,0.8
			c-0.2,1.7-0.5,3.5-0.7,5.2C296.4,111.7,295.9,112.1,295.4,112.1 M297.8,103.8c0,0.1,0,0.2,0,0.2c-0.4-0.2-0.8-0.4-1.3-0.3
			c-2.2,0.3-3.6,2.6-3.8,6.3c-0.1,2.8,1.1,3.9,2.5,3.7c0.6-0.1,1-0.3,1.4-0.5c-0.3,2-0.6,4-0.9,5.9l1.7-0.1
			c0.4-3.4,1.7-12.6,2.2-15.2L297.8,103.8z M287.5,108c0.2-1,0.8-2,1.6-2.5c0.7-0.4,1.3-0.2,1.5,0.5c0.3,0.8-0.1,1.5-0.9,1.8
			C289.3,108.2,288.2,108.1,287.5,108 M285.8,109.3c-0.2,3.2,1.3,5,3.5,4.4c1.1-0.2,1.8-0.9,2.4-2l-0.9-1.2
			c-0.3,0.8-0.9,1.7-1.7,1.9c-1.3,0.2-1.8-1.3-1.7-3.1c0.6,0.2,1.7,0.3,2.6,0.1c1.8-0.4,2.5-2.3,2.2-3.8c-0.3-1.6-1.7-2-2.8-1.7
			C287.3,104.3,286,106.6,285.8,109.3 M276.4,108c0.2-1,0.8-2,1.6-2.5c0.7-0.4,1.3-0.2,1.5,0.5c0.3,0.8-0.1,1.5-0.9,1.8
			C278.1,108.2,277.1,108.1,276.4,108 M274.7,109.3c-0.2,3.2,1.3,5,3.5,4.4c1.1-0.2,1.8-0.9,2.4-2l-1-1.2c-0.3,0.8-0.9,1.7-1.7,1.9
			c-1.3,0.2-1.8-1.3-1.7-3.1c0.6,0.2,1.7,0.3,2.6,0.1c1.8-0.4,2.5-2.3,2.2-3.8c-0.3-1.6-1.7-2-2.8-1.7
			C276.1,104.3,274.9,106.6,274.7,109.3 M270.2,112.6c-0.8,0-1.3-1-1.1-3.3c0.2-2.4,1-4,2.2-4c0.5,0,0.8,0.3,1,0.7
			c-0.3,2-0.5,4-0.6,5.4C271.3,112.1,270.8,112.6,270.2,112.6 M275,98.6h-1.7c-0.1,0.7-0.5,3.1-0.8,5.7c-0.3-0.2-0.6-0.3-1.2-0.3
			c-1.5,0-3.2,1.5-3.6,5.2c-0.4,3,0.5,4.9,2.2,4.9c0.7,0,1.3-0.3,1.7-0.7c0,0.4,0.1,0.7,0.2,0.8l1.5-0.6c-0.2-0.3-0.2-1.2-0.3-1.7
			C273,110.3,274.3,102,275,98.6"/>
	</g>
	<path class="st1" d="M65.6,123.2v-0.4l0.3-0.3l0.1,0.4L65.6,123.2z M64.6,122.5l0.1-0.4l0.3-0.7v0.4l0.1,0.4L64.6,122.5z
		 M65.9,120.8l-0.1-0.4l0.4-0.2l0.1,0.6H65.9z M68.3,120.4l-0.2-0.1l-0.2-0.3l0.2,0.2l0.3,0.2l0.1,0.2L68.3,120.4z M84.5,119
		l0.4-0.6l0.1,1.3L84.5,119z M64.2,118.5v-0.4h0.5l0.1,0.3L64.2,118.5z M65.1,119.2l-0.2-0.4l0.5-0.4l0.3-0.4l0.3,0.5l-0.1,0.4
		l-0.2,0.4L65.1,119.2z M81.1,118.3l-0.5-0.3l0.4-0.2l0.3,0.2L81.1,118.3z M84.3,118.7l-0.3,0.4l-0.2-0.3l0.1-0.3l-0.2-0.6l-0.6-0.3
		l-0.3,0.1L83,118l0.5,0.5l-0.2,0.4l-0.4-0.1l-0.2-0.5l-0.3-0.4l0.2-0.3l0.3-0.1l0.2-0.2L83,117l0.7-0.4l0.7,1.4l-0.4,0.3
		L84.3,118.7z M69.4,117.3h-0.3l-0.5-0.5l0.2-0.3l0.4,0.3v0.3l0.3-0.1V117.3z M86.5,117.2l0.3-0.1l0.3,0.4l0.8-0.5l0.1-0.5l-1.2-0.4
		L86.5,117.2z M67.6,116.8h-0.4l-0.3-0.3l-0.3-0.4l-0.2-0.3H67l0.2,0.3l0.2-0.2l0.1-0.2l0.2,0.3V116.8z M86,115.2l-0.1,0.2l0.4,0.5
		l-0.1,0.4l0.5-0.6L86,115.2z M82.9,115.2l-0.4-0.2l0.1-0.4l0.1-0.2l0.2,0.2L82.9,115.2z M64.1,119.9l-0.3,0.4l-0.7-0.4l0.3-0.9
		l-0.2-0.4l-0.1-0.9l0.3-0.5l0.1-0.6l0.6,0.4l0.3-0.3l-0.6-0.8l0.4-0.6l-0.3-0.5l0.4-0.5l0.1,0.3l0.4-0.4l0.3,0.1l-0.2,0.3l0.3,0.1
		l-0.2,0.1l0.4,0.1l0.7,0.2l-0.3,0.2l-0.4-0.3l-0.5,0.1l0.3,0.8l0.5,0.2h0.4l-0.2,0.3l-1.3-0.2l-0.1,0.5h0.8l0.3,0.2l0.4-0.2
		l0.3,0.2v1.1l-0.6-0.2l-0.4,0.3l0.1-0.4l-0.3-0.4l-0.9,0.6l-0.4,0.7l0.6,0.3l-0.5,0.5L64.1,119.9z M63,114.6l0.2-0.8l0.5-0.1
		l0.1,0.4l-0.6,1L63,114.6z M84.4,113.7l0.4-0.6l0.6,0.3l-0.1,0.2l-0.4-0.1l-0.4,0.4L84.4,113.7z M90.4,112.2l-0.2,0.4l0.6,0.4
		l0.1-0.2L90.4,112.2z M67.9,112.2l0.2-0.6l0.6,0.4l-0.2,0.2L67.9,112.2z M69.8,112l-0.1-0.4l0.4-0.1l0.1,0.7L69.8,112z M66,113.4
		l0.2-0.1l0.2-0.4l-0.3-0.2l-0.1-0.4l-0.6-0.2l0.3-0.4l0.6-0.2l0.3-0.3l0.2,0.2l-0.2,0.5l0.3,0.5l0.2,0.7L66,113.4z M87.1,111h-0.4
		v-0.6l0.4,0.3L87.1,111z M88.2,110.5l0.3-0.2l-0.1,0.5L88,111L88.2,110.5z M65,111.4l0.4,0.1l-0.4,0.4l-0.1,0.4l-0.3-0.1l-0.3-0.2
		l-0.4,0.2l-0.3-0.5l0.5-0.3l-0.8-0.3l-0.2-0.6l0.6,0.1l0.6-0.3l0.2,0.1l0.2,0.1l-0.4,0.7L65,111.4z M91.5,111.5l-0.7,0.3l0.1,0.4
		h0.4l0.1,0.4l-0.3,0.3l-0.3,0.1h-0.3l-0.2,1.5l-0.6-0.2l-0.2,0.2l0.6,0.4l0.1,0.9l-0.5,0.1l-0.3,0.4l0.4,0.3l-0.1,0.2l-0.4-0.3
		l-0.8-0.3l0.3,0.5l0.1,0.9l-0.4-0.3l-0.3,0.4l-0.4-0.1l0.4,0.2l-0.3,0.4l-0.2,0.4l-0.3-0.3l-0.2-0.4l-0.8,0.4l-0.4-0.4l0.1-0.2
		l0.4,0.1l-0.3-0.4l-0.5-0.1l-0.3-0.3l-0.1,0.5l-0.3-0.2l-0.5-0.4l-0.6-0.4l0.3-0.6l0.7,0.4l0.4,0.3l0.3-0.3l-0.4-0.4l-0.8-0.4
		l-0.8,0.4l-0.5-0.4l0.3-0.7l-0.5-0.5l0.4-0.9l0.5,0.3l-0.1,0.4h-0.4l0.7,0.7l1.3,0.5l0.1-0.6l-0.4-0.8l0.6-0.3l0.3-0.5v-0.6
		l0.3-0.1l0.5,1.4l0.3,0.2l0.2-0.8l0.2-0.8l-0.7,0.1l-0.4-0.5L86,112h-1.1l-0.3-1.1l0.5-0.2l0.1,0.4l0.1-0.4l0.6-0.6l0.2,0.4
		l-0.4,0.1l0.3,0.4l-0.7,0.4l0.1,0.3l0.7-0.2l0.5,0.4h0.2l-0.1,0.2l0.4,0.1l0.7-0.4l0.5-0.4l0.1-0.2l0.3,0.2l0.2-0.5l0.4,0.2
		l0.3-0.4l0.4,0.2l-0.2,0.4l-0.4-0.2l-0.2,0.2l0.3,0.5l-0.2-0.2l-0.3,0.2l-0.8,0.5l0.5,0.8l0.3-0.3l0.3,0.2l0.6-0.4l-0.1-0.7
		l0.4-0.2l0.3-0.1l-0.2,0.3l-0.1,0.2l0.5-0.5l0.5-0.8h0.6V111.5z M65.9,109.8l0.4,0.4l0.2,0.3l-0.4-0.1l-0.5-0.2l-0.2-0.3
		L65.9,109.8z M87.9,109.8l-0.2-0.6l0.3-0.4h0.3l0.2,0.7L87.9,109.8z M66.4,109.4l-0.2-0.3l0.5-0.4l0.2,0.2l-0.2-0.1l-0.1,0.3
		L66.4,109.4z M64.6,109.1l-0.3-0.6h0.4l0.2,0.3L64.6,109.1z M86,109.6l0.5,0.2l0.1,0.5l-0.4-0.2l-0.2-0.1l-0.3-0.2l0.1-0.4l0.2-0.2
		l0.3-0.1l0.1-0.5l0.3-0.1v0.8l-0.3,0.1l-0.4-0.2l-0.1,0.2L86,109.6z M91.5,108.3l-0.2,0.3l-0.1-0.4l0.3-0.5l0.1,0.4L91.5,108.3z
		 M91,109.6l-0.2,0.2l0.4,0.3l-0.1,0.5l-0.6-0.3l-0.3-0.5v1l-0.6,0.2l-0.4-0.6l0.3-0.6l-0.2-1.1l0.6-1v0.8l0.2,0.6l-0.4,0.5l0.3,0.4
		l0.6-0.4l0.4-0.3l-0.4-0.4l0.4,0.1l0.5,0.4L91,109.6z M91.2,107.6l0.3-0.1l0.1,0.2l-0.3,0.1L91.2,107.6z M68.6,107.6l-0.1,0.3
		l-0.1,0.5l-0.1-0.5L68.6,107.6z M86.2,107.9l-0.4,0.3l-0.2-0.3l-0.2-0.2l-0.2-0.2l0.5-0.1L86.2,107.9z M67.4,107.2h0.3l0.4,0.2
		h-0.5L67.4,107.2L67.4,107.2z M66.9,107.6v0.3l-0.2-0.1l-0.1,0.5l-0.5,0.4v-0.5l0.4-0.5l-0.1-0.3l0.3-0.3l0.1,0.3l0.2-0.1
		L66.9,107.6z M88.3,108l-0.6,0.3l-0.6-0.2l-0.2-0.6l-0.3-0.1l0.5-0.2l0.6,0.6l0.1,0.3l0.6-0.4l0.3-0.9h0.3v1.2l0.3,0.6l-0.5-0.1
		l-0.2-0.3L88.3,108z M91.5,107.1l-0.2-0.5l-0.5-0.3l-0.4,0.3l0.4-0.5l0.7,0.4l0.2,0.4L91.5,107.1z M87.5,106.7l-0.3-0.4V106
		l0.4,0.1l0.4,0.5l0.2,0.6l-0.4,0.2l-0.2-0.3l0.1-0.5L87.5,106.7z M68.4,106.6h-0.5l-0.2-0.6L68.4,106.6l0.3,0.2L68.4,106.6z
		 M85.9,106.1l0.2-0.4l0.3-0.2v0.5L85.9,106.1z M89.1,105.1l0.3,0.5l-0.3,0.3l-0.2-0.4L89.1,105.1z M89.8,105.8l0.3-0.6l0.3-0.2
		l0.8-0.1l-0.8,0.6v0.5l-0.4,0.5l-0.2-0.3l0.3-0.1L89.8,105.8z M86.8,104.1l0.3,0.1l0.1,0.5l0.2,0.2l0.7,0.2l0.4,0.4l0.2,0.2
		l-0.2,0.3l0.4,0.1H89l-0.5,0.4l-0.9-1l-0.6,0.1l0.1,0.4l-0.5-0.4l0.2-0.7L86.8,104.1z M84.9,104.3l0.3-0.3l0.5,0.1l-0.2,0.5
		l-0.6,0.1V104.3z M63.3,105l-0.3-0.1v-0.4l0.3-0.5l0.2,0.1l0.1,0.4l0.3-0.3l0.1,0.2l-0.4,0.5v0.9l0.4,0.8l-0.3,0.2l-0.4,0.2
		l-0.2,0.5l-0.1-0.2l-0.2-0.5l0.3-0.7L63.3,105z M89,103.2l0.2,0.2l0.2,0.3l0.2,0.3l-0.2,0.2l-0.4-0.3L89,103.2z M88.4,103l-0.3,0.1
		l0.2,0.3l0.4,0.5l-0.3,0.2l-0.4-0.3l-0.3-0.2l-0.2,0.3l0.1-0.2l0.2-0.2l-0.1-0.2l0.3-0.5L88.4,103z M68.5,102.1l0.3-0.1l0.3,0.3
		l-0.4-0.1L68.5,102.1z M67.1,102.2l-0.3,0.2l-0.3,0.1l0.9-0.8l0.1,0.5L67.1,102.2z M65.3,101.9l0.3-0.3l0.4-0.2l0.3,0.1l-0.3,0.7
		L65.3,101.9z M83.2,100.8l-0.2-0.2h0.5l-0.6,0.8l-0.1-0.4L83.2,100.8z M66,100.1l-0.3,0.5l-0.6-0.2l0.4-0.1l0.2-0.4L66,100.1z
		 M65,99.6l-0.1-0.3l0.4-0.2l0.2,0.4L65,99.6z M81.2,115.6l-0.6,0.8l-0.8,0.5l-1,0.5l-1.8,0.5l-4.2,0.2l-1.2-0.5l-0.5-1.1l0.1-1
		l-0.2-0.9l0.2-1v-13.1l0.6-0.9l1.5-0.6l1.1,0.1l1.1-0.1l1.5,0.1l2,0.6l1.7,1.1l1.3,1.4l0.6,1l0.7,0.8l0.6,3l0.2,1.6l-0.3,2.5
		l-0.3,1l-0.8,1.8l-0.7,0.9L81.2,115.6z M68,99l0.2-0.4l0.3-0.1L68.3,99l-0.1,0.4l-0.2-0.1L68,99z M62.8,99l0.2-0.6l1.4-0.1
		l-0.3,0.4l-0.8,0.2h0.5l0.7,0.1l-0.2,0.5l0.6,0.5l-0.5,0.3l-0.3,0.3l0.6,0.4l0.3,0.7l-0.4,0.7l0.2,1.2l-0.7,0.4l0.2-0.5l-0.4-1.1
		l-0.4,0.4v-0.7h0.7l-0.5-0.6l-0.1-0.7l-0.6,0.2l0.2-0.8l-0.2-0.1l0.3-0.3l0.3-0.3l-0.7-0.1L62.8,99z M87.8,98.7l-0.5-0.1L87,98.3
		l-0.2-0.1l0.3-0.1L87.8,98.7z M80.8,97.9l0.5,0.2l0.3,0.2l0.1,0.2L80.9,99l-1-0.1v-0.4l0.4-0.2l0.7,0.4l0.4-0.4L80.8,97.9z
		 M86.7,98.2l-0.2-0.1l-0.4,0.4L86,97.9l0.5-0.1L86.7,98.2z M66.6,98.4l-0.7,0.4l0.3-0.7l0.7-0.4L66.6,98.4z M64.4,98.3l-0.1-0.5
		l0.2,0.2L64.4,98.3z M76.8,97.9l0.2-0.4l0.5,0.1L77,98l-0.5-0.2l0.1-0.2L76.8,97.9z M84.2,96.8l0.4,0.2l-0.1,0.3l-0.5-0.1
		L84.2,96.8z M82.7,97.4l-0.1-0.6l0.5,0.1l-0.2,0.6L82.7,97.4z M85.8,96.5l0.4,0.3l-0.3,0.5l-0.2-0.2L85.8,96.5z M79.8,96.9
		l-0.2,0.2l-0.5-0.3l0.2-0.4L79.8,96.9z M70.1,97.2l-0.8-0.3l-0.2-0.4l0.2-0.2h0.4l0.7,0.4L70.1,97.2z M83.4,96.4l-0.3-0.3l0.3,0.1
		l0.3-0.1l0.3-0.1L83.4,96.4z M75,96l-0.1,1.1l-0.1-0.5L75,96z M69,97.2l-0.3,0.4L68,97.8l-1.3-1.3L66.4,96l0.9,0.5l0.4,0.1l0.2,0.7
		l0.3,0.3V97l0.4,0.1L69,97.2z M70.8,96.1l0.4-0.3L71,96.3l-0.4,0.1L70.8,96.1z M81.3,96.7V97l-0.6,0.2l-0.6-0.8l0.1-0.7l0.5,0.5
		L81.3,96.7z M78.4,95.8l0.8-0.2l0.7,0.4L79.1,96l-0.6,0.7L78,96.8l-0.3-0.4L78.4,95.8z M85.5,95.5l0.2,0.2l-0.2,0.1l-0.3-0.2
		L85.5,95.5z M63.1,96.7L63,96.4l0.1-0.6L63,95.6l0.5-0.3l0.6,0.3l0.7,0.6l0.1,0.9l0.2-0.4l0.4,0.1l-0.1,0.7l-0.2,0.3L64.9,98v-0.4
		l-0.1-0.5L64.5,97l-0.3,0.3L64,97l-0.4-0.2l-0.3,0.1l0.4,0.4l0.1,0.3l-0.2-0.2l-0.2-0.3L63,97l-0.2-0.1L63.1,96.7z M76.3,94.8
		l-0.1,0.3L76,95.5l-0.4-0.1l0.1-0.6H76.3z M80,94.4l0.5-0.2l-0.2,0.6l-0.6,0.1L80,94.4z M63,94.7l0.3-0.6l0.4-0.2l-0.2,0.4l0.4,0.3
		l0.6,0.2l-0.2,0.5l-0.5-0.3l-0.2-0.3L63.5,95l-0.6-0.1L63,94.7z M76.6,94.4l-0.4-0.2l-0.1-0.5l0.5,0.1V94.4z M81.8,94l0.2-0.5
		l0.2-0.1l0.2,0.5l0.3,0.1l0.5-0.3l0.4,0.5L83,93.9l-0.4,0.4l0.4,0.1L83,94.7l0.3,0.4L84,95l-0.3,0.6l-1-0.4h-0.2v0.4l-0.3,0.2
		L82,95.5l0.5-0.6L82,94.5l-0.7-0.3L81.1,94H81.8z M73,93l0.5,0.3l0.1,0.5L73,93.5V93z M71.6,93.2h0.2l0.4-0.3l0.3-0.1l-0.2,0.3
		L72,93.5l-0.5-0.1L71.6,93.2z M75.7,92.4l-0.1,0.3l0.6,0.2L76,93.2l-0.7-0.5L75,92.2L75.7,92.4z M64.4,92l0.6,1l0.2-0.1l-0.2-0.4
		l0.3-0.3l0.4,0.2V93l-0.2,0.8L66,94l0.4-0.3l0.5-0.2l-0.3-0.5h-0.6l0.2-0.5h0.7l0.7-0.3l-0.3,0.4v1l-1,0.8l-0.4,0.2l0.3,0.3
		L65.5,95l-0.3-1.2l-0.4-0.7l-0.4,0.2l-0.2,0.6v0.4L64,93.9l-0.2-0.3l-0.2-0.9L64.4,92z M70,92.5l-0.5-0.4l0.2-0.4l0.5,0.1v0.5
		l0.4,0.2l0.1,0.3L70,92.5z M73.4,91.7l0.5,0.3l0.3,0.4l-0.3-0.1l-0.1,0.4l-0.4,0.1L73.4,91.7z M67.8,91.7l0.5,0.5l-0.4,0.5v-0.4
		l-0.3-0.5L67.8,91.7z M93,107l-0.8-2.9l-0.1-1.1l-0.3-0.9l-0.8-2l-1.2-1.7l-0.4-0.9l-1.3-1.6l-0.9-0.7l-1.4-1.4L84,92.6l-1-0.5
		l-2.8-0.9L78,90.8l-7.3-0.1l-1-0.1l-3.3,0.1l-1-0.1l-0.9,0.1l-1.1-0.1l-0.9,0.6l-0.8,1v2.1l0.1,1l-0.1,1l0.1,1.9l-0.2,1.1l0.2,1
		l-0.2,1l0.2,4.1l-0.2,1.9l0.2,2.2l-0.2,1l0.2,1.1l-0.2,2l0.1,4.1l-0.1,1l0.2,4.1l-0.1,1.9l0.6,1.1l0.8,0.5h1.2l1.1,0.2h1l1.1-0.2
		l9.2-0.1l3.3-0.5l3-0.9l4.3-2.9l2-2.4l1.6-2.6l0.3-1l0.5-1l0.2-1l0.4-0.9l0.2-1.1l0.3-1.1l-0.1-0.9L93,107z"/>
	<path class="st1" d="M105.2,120.4l-0.1-0.1l0.3,0.2L105.2,120.4z M105,120.3l0.2-0.2L105,120.3L105,120.3z M104.3,120.3l-0.4,0.3
		l-0.1-0.5l0.5-0.5L104.3,120.3z M130.2,118.4V118l0.3-0.1l0.1,0.3L130.2,118.4z M131.4,118.1l0.2-0.6v0.3l0.1,0.4L131.4,118.1z
		 M108,117.7l-0.6-0.2l0.3,0.1l0.5-0.2l0.3,0.3H108z M102.2,117.4l-0.1-0.4h0.4l0.1,0.4L102.2,117.4z M130.4,116.8l-0.2-0.3l0.4-0.1
		l0.1,0.3L130.4,116.8z M105.7,117.1l-0.7-0.4l0.1-0.3l0.9,0.2l0.1,0.6L105.7,117.1z M129.6,116.7l-0.3,0.1l-0.1-0.5l0.4-0.1V116.7z
		 M125.1,116.6l0.1-0.5l0.2,0.3l0.1,0.3L125.1,116.6z M132.4,116.9l-0.4-0.2l-0.3,0.1l-0.2-0.2l0.4-0.3l0.5-0.3l0.1,0.6L132.4,116.9
		z M128.5,116.4l-0.3-0.2v-0.3l0.4,0.3L128.5,116.4z M127.1,115.9h-0.6l0.3-0.4l0.6,0.2L127.1,115.9z M106,115.7l-0.1,0.3l-0.5,0.1
		l0.2-0.5L106,115.7z M104.3,115.8l-0.3,0.1l-0.3,0.5l-0.3-0.3l-0.3,0.1l-0.2-0.1l-0.4,0.1l-0.3-0.5l0.3-0.2l0.3,0.4l0.3,0.2
		l0.5-0.2l0.6-0.2l0.2-0.1L104.3,115.8z M106.3,115.3l-0.1-0.2l0.6,0.2H106.3z M106.8,115.8l0.5-0.3l0.2-0.1l0.2-0.5l0.3,0.4
		l-0.4,0.2l-0.2,0.2l0.3,0.3l-0.1,0.3l-0.4,0.1L106.8,115.8z M100.9,115.7l-0.3,0.1l0.1-0.3l-0.3-0.6l0.8-0.1l0.2,0.4L100.9,115.7z
		 M102.6,114.6l0.1,0.3l-0.5,0.2l-0.2-0.3L102.6,114.6z M107.6,114.2h0.6l-0.1,0.3l-0.5-0.1V114.2z M126.2,114.3l-0.3-0.3l0.3-0.3
		l0.2,0.3L126.2,114.3z M104.7,113.9l0.4-0.2l-0.1,0.5l-0.3,0.2V113.9z M101.7,114l-0.4,0.1l0.1-0.3l0.3-0.3L101.7,114z M100,113.7
		l0.1-0.3l0.4,0.1l0.1,0.6l0.1,0.2l-0.2-0.1l-0.3-0.3L100,113.7z M103.6,112.9l-0.2-0.2l-0.2-0.1l-0.1,0.4L103.6,112.9z
		 M131.9,112.9l0.9,0.2l0.1-0.3l-0.7-0.3L131.9,112.9z M130.1,112.1l0.4,0.1l0.2-0.4l-0.5-0.2L130.1,112.1z M101.9,111.9l0.2-0.3
		l0.2,0.3l-0.4,0.3V111.9z M132.3,111.6l-0.2-0.3l-0.3,0.1l0.1,0.4L132.3,111.6z M132.6,111.1l-0.4,0.2l0.6,0.2L132.6,111.1z
		 M130.5,111l0.1,0.3l0.3-0.1l0.3-0.2l-0.1-0.4L130.5,111z M103.9,113.3l-0.4-0.2l-0.6,0.3v0.5l-0.3,0.2l-0.2-1l0.3-0.6l-0.2-0.2
		l0.4,0.4l0.3-0.2h0.1l0.2,0.2l0.2-0.7l0.9-0.6l0.2-0.8l0.3,0.3l0.6-0.3l0.3,0.5l-0.8,0.6l-0.3,0.4l-0.4,0.3l-0.4,0.2l1,0.1l0.9,1
		l0.4-0.4l-0.4-0.3l0.3-0.3l0.3-0.3l-0.3-0.5l0.1-0.5l0.5,0.1l0.3,0.3l-0.5,0.3l0.3,0.4l0.6,0.5l-0.1,0.1l-0.6-0.1l-0.3,0.4l0.4,0.4
		l0.6-0.2v0.4l-0.5,0.2l-1.2,0.9l-0.4,0.1v0.4l-0.3-0.3l0.5-0.7l0.5-0.3l-0.6-0.3l-0.5-0.5l-0.7-0.2l0.1,0.8L103.9,113.3z
		 M127.4,109.8l0.4,0.2v0.3l-0.3-0.2l-0.5,0.4l-0.1-0.3L127.4,109.8z M106.1,109.8v0.3l-0.4-0.2L106.1,109.8z M129,109.7l0.1,0.6
		l-0.6-0.2l-0.1-0.5L129,109.7z M127.8,109.1v0.4h-0.3l-0.1-0.3L127.8,109.1z M133.3,109.1l-0.4-0.2l-0.2,0.2l-0.1,0.4l0.5-0.1
		L133.3,109.1z M104.6,109.8l-0.2,0.3l-0.3-0.4l0.5-0.4l0.1-0.3l0.6,0.1v0.6h-0.8L104.6,109.8z M106.3,108.1l0.6,0.2l-0.6,0.4
		l-0.1-0.4L106.3,108.1z M105.2,108.1l-0.5-0.1l0.2-0.2L105.2,108.1l0.2,0.2L105.2,108.1z M100.4,108l-0.4,0.3v-0.6h0.3L100.4,108z
		 M127.9,107.6l0.4,0.1l-0.2,0.3l-0.5,0.2l0.2,0.5l0.5-0.4l0.1,0.5l-1.1-0.1l-0.1-1H127.9z M101.6,112.7l-0.3-0.2l0.3-0.3l-0.2-0.1
		l-1,0.1l-0.4-1.1l0.3-0.6l0.2,0.1l0.3-0.3l-0.6-0.2l-0.5,0.1l-0.1-0.3l0.4-0.2l-0.2-0.4h-0.5l0.7-0.6h1.1l-0.1,0.4l-0.4-0.1v0.4
		l0.5,0.4l0.5-0.1l0.3-0.7l0.7,0.2l0.3-0.5l-0.2-0.5l-0.6,0.5l-0.6-0.8l0.3-0.7l0.3,0.1l0.6,0.3l0.3,0.4l0.2,0.9l0.6,0.6l0.1,0.5
		l-0.6,0.2l-0.3-0.5l-0.8-0.2l-0.5,0.6l-0.4,0.2l-0.4,0.4l0.1,0.3l-0.6,0.2v0.3h0.6l0.8-0.6l0.4-0.6l0.6,0.2l0.6,0.3l-0.2,0.3
		l-0.9-0.2l-0.6,0.4l-0.3,0.1l-0.1,0.5l0.6,0.3l-0.1,0.3L101.6,112.7z M133.5,113.2l0.7,0.3l-0.7,0.5l-0.7,0.9l-0.1,0.4l0.5,0.5
		l-0.1,0.2l-0.2,0.3l-0.5-0.6l-0.4-0.2l-0.3,0.3l-0.4-0.3l0.4-0.3l0.4,0.1l0.3-0.3l0.1-0.2l0.2-0.5l-0.5,0.1l0.2-0.4l-1-0.7
		l-0.8,0.3l0.3,0.1l0.5,0.2l-0.6,0.8l-0.4,0.1l0.3,0.2l-0.8,0.1l-1.1,0.1l-0.4,0.1l-0.4-0.2h0.3l0.2-0.1h0.4l0.2-0.3V114l0.6,0.3
		l0.9-0.4l-0.1-0.6l-0.2,0.5l-0.4,0.3l0.2-0.5l-0.2-0.6l-1.2-0.2l0.2,0.7l-0.4,0.5l-0.5,0.1l-0.6-0.3l-0.6-0.6v-0.3l0.5-0.1l0.4,0.8
		l0.3-0.3l0.1-0.5l-0.8-0.4l-0.7,0.1l-0.2-0.5l0.8,0.1h1l0.8,0.3l0.2-0.3l-0.1-0.5l-0.3-0.1l-0.5,0.2l-0.2-0.4l0.3-0.3l-0.1-0.2
		l-0.4,0.1l0.5-0.5l0.9,0.5l0.7-0.6l-0.2-0.6v-0.5h-0.7l-0.2-0.1v-0.3l0.8-0.1l0.6-0.7l0.2-0.3l0.4-0.1l-0.1-0.5l0.1-0.5l0.4-0.1
		l0.1,0.5l-0.1,0.3l0.4,0.9l-0.2-0.2l-0.5,0.5l-0.6,0.5l0.7,0.4l1.1-0.4l0.2-0.6l0.2-0.2l0.5-0.1l0.3-0.5l0.4-0.6l0.6-0.1l-0.2,0.7
		l-0.5,0.4l0.1,0.3l0.6,0.3l-0.3,0.7h-0.5l-0.3,0.7l0.8,1.1l0.6,0.8l-0.5,0.4l-0.4-0.3l-0.3-0.4l-0.1-0.5l-0.4,0.6L133.5,113.2z
		 M105.6,107.8l0.1-0.6l0.4,0.1l0.7-0.3v0.4l-0.6,0.3l0.1,0.3L105.6,107.8z M104.7,107.1l-0.3,0.1v-0.3l0.2-0.2L104.7,107.1z
		 M130.6,106.5l-0.1,0.1l-0.2-0.2L130.6,106.5z M129.1,106.8l-0.3,0.1l-0.4-0.3v-0.3l0.3,0.1l0.4,0.2L129.1,106.8z M102.4,105.8
		l0.2,0.3h-0.2V105.8z M104.3,106.6l-0.4,0.3l-0.3-0.1l0.2-0.6l0.4-0.5l0.5-0.1v0.5L104.3,106.6z M130.6,106.5l-0.3-0.5l0.4-0.4
		l0.3,0.6L130.6,106.5z M106.7,105.7l-0.3-0.3l0.4-0.3v0.3L106.7,105.7z M101.6,104.4h-0.3l-0.2,0.3l0.4,0.2L101.6,104.4z
		 M128.5,104.6l-0.4-0.2l-0.2-0.3l0.5,0.2L128.5,104.6z M99.9,105.9l0.1-0.4l0.4-0.2l0.5-0.1l-0.2-1l1.2-0.3l0.5,0.5l-0.3,0.6
		l0.8,0.3l0.4,0.4l0.4,0.2l-0.5,0.2l-0.6-0.4l0.1-0.3l-0.9,0.3l-0.4,0.5l0.5-0.1l-0.1,0.2l0.3,0.3l-0.7,0.2l-0.9,0.6l-0.2-0.7
		l-0.4-0.3l0.6-0.2l0.1-0.3L99.9,105.9z M133.9,105.7l0.3,0.2l-0.5,0.4l0.1,0.5l0.3,0.4l-0.5,0.3l-0.3-0.6l-0.4-0.2l0.2,0.6
		l-0.7,0.2l-0.4-0.4l0.3-0.3l-0.1-0.5l0.6,0.2l0.8-0.4l0.4-0.1l-0.5-0.3l-0.5-0.1l-0.3,0.1l-0.6-0.2l-0.4-0.2l-0.6-0.5l-0.4-0.3
		l-0.3,0.3l-0.8-0.3v-0.5l-0.4-0.2l0.4-0.2l0.5,0.5l0.3,0.4l0.3-0.2l0.3-0.4l0.2-0.7l0.4,0.3l-0.2,0.8l0.7,0.3l0.4-0.4l0.3,0.1
		l-0.3,0.7l0.3,0.3l0.6-0.1L133.9,105.7z M129.9,103.2v-0.6l0.4,0.1l0.4,0.5l-0.1,0.6l-0.1-0.4L129.9,103.2z M105,103.6l-0.4,0.2
		l-0.4-0.3l-0.1-0.7l0.5-0.2l0.5,0.6l0.5-0.1l0.1-0.2l0.2,0.2l-0.3,0.1v0.3L105,103.6z M107.5,102.5l-0.1,0.2l-0.4,0.2l0.2-0.1
		l0.2-0.2L107.5,102.5z M131.7,102.4l-0.3,0.5h-0.6l0.3-0.4L131.7,102.4z M105.8,102.4l-0.2,0.2l-0.1-0.4l0.1-0.2L105.8,102.4z
		 M101.1,102.6l1.2,0.4l0.4-0.4l0.1-0.7h-0.3l-0.3,0.1l0.1,0.3l-0.2,0.2l-0.3-0.5l-0.3-0.1L101.1,102.6z M133,102.3v0.4l-0.3,0.3
		l-0.2-0.2l0.4-0.1l-0.7-0.4l-0.7-0.5h0.6L133,102.3z M101.7,101.9l-0.1-0.3l-0.7,0.2l0.2,0.2L101.7,101.9z M128.8,102.1l0.4-0.4
		l0.2-0.1l0.9-0.1l0.5,0.6l-0.2-0.2l-0.7-0.2l-0.6,0.5l-0.7,0.7L128.8,102.1z M129.4,100.6h0.5l-0.3,0.3l-0.4,0.1L129.4,100.6z
		 M127.5,100.8l0.3-0.3l0.4,0.1l-0.3,0.4l-0.6,0.1L127.5,100.8z M102.8,101.5l0.7-0.7l-0.5-0.3l-0.5,0.1l-0.2,0.4l0.4,0.1l-0.4,0.4
		L102.8,101.5z M131.4,100.3l0.1-0.4l0.3,0.4l-0.4,0.3L131.4,100.3z M124.5,100l0.3-0.1l-0.1,0.3h-0.3L124.5,100z M106.7,99.8
		l0.1,0.3l-0.3,0.3l-0.1-0.3v-0.4L106.7,99.8z M130.6,99.4l0.4,0.2l-0.4,0.2h-0.3L130.6,99.4z M125.1,112.9l-0.6,0.9l-0.3,0.8
		l-0.7,0.8l-2.5,1.7l-0.9,0.3l-0.8,0.4l-1,0.2h-2.8l-1.1-0.2l-1.8-0.8l-0.8-0.5l-1.4-1.1l-0.7-0.7l-0.7-1l-0.3-0.8l-0.5-0.9
		l-0.4-1.9V107l0.3-0.9l0.2-1l0.4-0.9l0.3-0.9l1.2-1.6l2.6-1.7l0.7-0.3l2-0.5l1.4-0.1l2.5,0.3l0.9,0.2l0.9,0.4l1.6,1.1l2,2.1
		l0.6,1.9l0.5,1l0.2,0.9l-0.1,3.1l-0.4,1.9L125.1,112.9z M128.5,98.9l0.2,0.2l-0.3,0.4L128.5,98.9z M106.5,99.1l-0.4,0.1l0.1-0.3
		l0.3-0.1V99.1z M104.3,99.6l1.1-0.6l0.2-0.4l0.3,0.1l-0.3,0.7l-0.4,0.4l-0.5,0.4l0.3,0.3l0.4,0.2l0.2,0.5l0.5-0.2l-0.2,0.5
		l-0.6,0.4l-0.2-0.3l-0.1-0.6l-1.1-0.7l-0.3-0.6v-0.3l0.3,0.2l-0.2,0.2L104.3,99.6z M100.7,101.2l0.5-0.5l0.5-0.4l0.1-0.6l0.5,0.1
		l0.2-0.3l-0.4-0.3l0.5-0.4l0.5-0.2L103,99l0.2,1.2l1,1.1l0.2,0.5l-0.5,0.8l-0.9,0.3l0.4,0.2l0.5,0.4l-0.3,0.3l-0.1,0.5h-0.5l-1-0.6
		l-0.9-0.1l-0.1-0.4l-0.4,0.1v-0.5l-0.1-1.1L100.7,101.2z M107.5,98.3l0.4-0.2l0.4-0.5l-0.1,0.7L107.5,98.3z M109.4,97.3l-0.2,0.3
		l-0.4-0.1l0.2-0.3L109.4,97.3z M123.3,97.5l-0.5-0.3l-0.1-0.4l0.5,0.2L123.3,97.5z M107.6,96.8l0.4-0.3l0.1,0.3l-0.3,0.2h-0.5
		L107.6,96.8z M104.3,96.6h0.5l0.3,0.1l0.5-0.4l0.6-0.1l-0.3-0.1l-0.5-0.1l-0.2-0.3l0.7-0.4l0.4,0.4l0.1,0.3l0.5,0.2l-0.3,0.3
		l-0.3-0.3l-0.2,0.6l0.3,0.4l0.9,0.4l-0.1,0.4l-0.8,0.3L106,98l0.4,0.1v-0.5l-0.6-0.2l-0.5,0.3v-0.4l0.1-0.4h-0.8l0.1,1.2l-0.4,0.8
		l-0.5-0.1l-0.6-1.3L104.3,96.6z M110.6,95.1l-0.1,0.4l-0.3,0.2l0.1-0.4L110.6,95.1z M120.2,95l0.3,0.1l0.1,0.4l-0.4-0.1V95z
		 M122.8,94.8l0.3,0.3l0.4,0.1l-0.1,0.4l-0.8,0.1l-0.2-0.5L122.8,94.8z M117.7,94.8l-0.2,0.2l-0.2-0.1l0.3-0.3L117.7,94.8z
		 M124.8,94.6l0.1,0.3l-0.4-0.1l-0.1-0.3L124.8,94.6z M114.6,94.2h0.2l-0.3,0.2l-0.3-0.2L114.6,94.2z M108.3,94.8l0.3-0.2l0.4-0.4
		l0.2,0.2l-0.3,0.5l-0.6,0.2L108.3,94.8z M119.4,94.1v0.4l-0.3-0.1l-0.1-0.2L119.4,94.1z M110.2,93.5l0.6,0.1l-0.2,0.5l-0.6-0.1
		L110.2,93.5z M109.8,93l0.1,0.3l-0.3,0.1l-0.1-0.3L109.8,93z M112.1,92.9l0.6,0.3l-0.3,0.5l-0.7-0.3l-0.2-0.5L112.1,92.9z
		 M122.6,92.6l0.6,0.3l0.5,0.3l-0.1,0.2l-0.5,0.1l-0.6-0.4V92.6z M114.6,92.5l0.3,0.2l-0.4,0.1l-0.2-0.2L114.6,92.5z M117.6,92.3
		l-0.3,0.2v0.3l-0.1-0.3L117.6,92.3z M120.7,92.3l0.7-0.2l-0.1,0.5l0.3,0.3l0.2,0.4l-0.4-0.3L121,93l-0.5,0.2l-0.3-0.2L120.7,92.3z
		 M135.4,106l-0.4-2.1l-1.3-3.8l-1-1.9l-1.1-1.5l-1.4-1.6l-1.5-1.3l-1.2-0.8l-1.5-0.7l-0.8-0.6l-3.9-1.2l-3-0.5L117,90l-5.4,0.8
		l-3.8,1.4l-0.8,0.6l-0.9,0.5l-1.7,1.3l-2.5,2.9l-1.6,2.7l-0.8,1.9l-0.9,3.9l-0.2,4.1l0.2,1.1l0.3,0.9l0.1,1l0.5,1.9l2.4,4.7
		l0.6,0.6l0.7,0.8l0.8,0.7l0.6,0.7l1.7,1.3l4,2l1.5,0.5l1.1,0.1l1.8,0.4l1.1,0.1l2.9-0.1l3.1-0.4l3.8-1.3l1.7-0.9l0.8-0.6l1-0.5
		l1.4-1.2l0.7-0.9l0.7-0.7l2.2-3.4l0.8-1.9l0.4-1.9l0.1-0.9l0.3-1l0.1-1.1l0.2-1.5L135.4,106z"/>
	<path class="st1" d="M155.2,124.3l-0.4-0.1l-0.5,0.1l-0.5-0.1l-0.5,0.5l0.6,0.3l0.4-0.1l-0.1-0.4l0.5,0.1l-0.2,0.3l0.9,0.2
		l-0.4-0.4V124.3z M159,124.1l-0.2-0.2l-0.2,0.2l0.1,0.2l0.3,0.3l0.3,0.1l0.6-0.1l-0.3-0.3L159,124.1z M148.6,124l-0.2,0.3l-0.5,0.3
		h0.6l0.8-0.3l-0.2-0.3L148.6,124z M160,124.8l-0.7,0.2l-0.2-0.1l-0.2-0.3h-0.3l-0.3-0.3l0.2-0.5l0.1-0.5l0.3,0.1l0.7,0.5l0.5,0.2
		L160,124.8z M161.2,123.4l-0.5,0.3l-0.1-0.3l0.1,0.2l0.3-0.3l0.3-0.2L161.2,123.4z M146.4,123.4l0.2,0.2V123l-0.4-0.1L146.4,123.4z
		 M154.1,123.7l0.3,0.2l0.4-0.2l0.3-0.3l-0.4-0.2l0.1-0.3l-0.3-0.5l-0.4,0.3l0.4,0.5L154.1,123.7z M163.3,123.1l-0.4-0.2l-0.6,0.3
		l-0.6-0.4l0.4-0.1l-0.1-0.2l0.2,0.2l-0.3,0.2l0.3,0.1l0.6-0.2l0.6,0.3L163.3,123.1z M146.2,122.6l-0.2-0.1l-0.5-0.1l-0.2,0.3v0.1
		l0.4-0.2L146.2,122.6z M151.3,122.4l0.4,0.6l0.2-0.1v-0.2l-0.1-0.2L151.3,122.4z M159.8,123.4l0.1,0.2l-0.2-0.3l-0.3-0.6l-0.4,0.5
		l-0.3-0.5l0.2-0.4l0.7,0.4L159.8,123.4z M157,122.8l-0.3-0.3l-0.3,0.1l-0.3,0.3l-0.7-0.1l-0.3-0.5l-0.3,0.2l0.4,0.5l1.1,0.4
		l0.5-0.4L157,122.8z M149.4,123.1l0.2-0.2l-0.1-0.5l-0.2-0.3l-0.6,0.4l0.5,0.8l0.7,0.8h0.3l0.2-0.3v-0.3l-0.4-0.6L149.4,123.1z
		 M152.1,122.1l0.5,0.2l0.5,0.1l0.2-0.2l-0.5-0.2L152.1,122.1z M160.3,122.4l-0.3,0.3l0.2,0.6l-0.4-0.6v-0.7l0.5,0.1V122.4z
		 M158.7,121.6l0.1,0.3l-0.3-0.2v0.3l-0.2,0.1v-0.6l0.2-0.2L158.7,121.6z M157.7,121.1l0.3,0.1v0.5l-0.4-0.1L157.7,121.1z
		 M165,121.6l-0.4-0.5l-0.5,0.1l0.2-0.1l0.4-0.1l0.5,0.3L165,121.6z M145.3,121.1L145,121l-0.1,0.4l0.5,0.2l0.1-0.3h-0.3
		L145.3,121.1z M152.4,121.6h0.7l-0.4-0.5l-0.4-0.2v0.4l0.5,0.2L152.4,121.6z M149.1,121l-0.5-0.1l0.3,0.4L149.1,121z M163,120.9
		l0.2,0.2l-0.1,0.1l-0.3-0.1l-0.3-0.2l0.1-0.3L163,120.9z M147.1,122.6l0.3-0.4l0.5,0.2l-0.1-0.5l0.2-0.1l-0.5-0.1l-0.2-0.5h0.2
		l0.1-0.5l-0.8-0.1l0.2,0.6l-0.2,0.4l-0.2,0.2l-0.5-0.1l-0.2,0.3l0.2,0.3l-0.1,0.2l1,0.5l0.6,0.9l0.2-0.4l-0.3-0.5L147.1,122.6z
		 M163.4,120.9l-0.2,0.2l0.1-0.2l-0.2-0.4l-0.3-0.1l0.1-0.2l0.3,0.2l0.5,0.1l0.1,0.3L163.4,120.9z M158.5,120.8l0.5-0.4l0.2-0.3
		l0.4,0.2l-0.1,0.3l-0.3,0.3l-0.2-0.3l-0.3,0.5L158.5,120.8z M156.2,120.6h0.4l-0.5-0.5h-0.5l0.3,0.3L156.2,120.6z M147.7,119.9
		l0.2,0.3l0.1,0.5l0.5,0.2l-0.2-0.9H147.7z M145.1,119.7l-0.3,0.2l0.1,0.3h0.4L145.1,119.7z M155.7,120.5l-0.3-0.4l-0.1-0.4
		l-0.2-0.3l-0.1,0.3l-0.1,0.7l0.6,0.7V121l0.1,0.1l0.3-0.2L155.7,120.5z M149,120.7l0.6,0.1l0.3-0.4l-0.2-0.7l-0.4-0.4l-0.2,0.5
		l-0.1,0.4l0.1,0.2l-0.2,0.2L149,120.7z M152.9,119.4l0.4-0.1l0.5-0.1l-0.1,0.4l0.3,0.1h0.7l0.3,0.2l0.1-0.2l0.3-0.3l0.7,0.3
		l1.2-0.1l-0.1,0.5l0.2,0.3h0.4v0.4l-0.5-0.1l-0.2-0.3l-0.3,0.6l0.3,0.4l0.4-0.2l-0.1,0.4l-0.5,0.2l0.1-0.3l-0.2-0.4l-0.3-0.2
		l-0.4,0.2l-0.1-0.1h-0.1l-0.1,0.3l-0.4,0.3l-0.1-0.4l-0.1-0.4l-0.4-1l-0.6-0.1l-0.6-0.3l-0.1,0.5l-0.5,0.2l-0.4-0.5L152.9,119.4z
		 M160.4,119.2v0.7l0.5,0.7l0.3,0.3l-0.3,0.2l-0.2-0.4l-0.5-0.4l-0.5-0.5l0.2-0.3L160.4,119.2z M163.6,119.1l-0.2,0.6l-0.4-0.4
		L163.6,119.1z M150.8,119.3l-0.3-0.5l-0.5,0.2l-0.1,0.6l0.4-0.3L150.8,119.3z M162.2,118.8l0.2,0.3l0.3,0.3l-0.3,0.1l-0.2-0.2
		l-0.3-0.2l-0.1-0.3H162.2z M146.7,120.3l0.6-0.5l0.4-0.1v-0.3l0.8,0.1l-0.2-0.4l-0.5-0.1l-0.6-0.3l-0.5,0.5l0.1,0.5L146.7,120.3z
		 M158.6,119.2l0.9-0.6l0.1,0.4l-0.2-0.2l-0.3,0.5l-0.4,0.3l-0.4,0.9l0.1,0.3l-0.4-0.5L158.6,119.2z M161,118.4l-0.3,0.5l-0.3,0.1
		L161,118.4z M161.3,118.7l0.5-0.2l-0.2-0.2l0.2,0.2l-0.5,0.5L161.3,118.7z M145.8,119.4l0.6-0.4l0.1-0.2l-0.4-0.1l-0.4-0.4
		l-0.1-0.2l-0.3-0.1l-0.2,0.3l-0.1,0.4l0.4-0.1l0.3,0.2v0.3l-0.4,0.2l0.1-0.2l-0.6,0.2l-0.3-0.2l-0.1-0.5l-0.4,0.4l-0.5,0.2l0.3,0.2
		l0.5,0.4l0.2,0.2l0.3-0.2l0.2,0.2l0.2-0.2L145.8,119.4z M165.2,117.8l-0.2,0.2l-0.1,0.4l-0.2-0.1l0.3-0.3l-0.2-0.4l0.7,0.1
		L165.2,117.8z M146.5,118l-0.3-0.4l-0.2,0.3l0.5,0.4L146.5,118z M162.5,117.2h0.3l0.2,0.1l0.3,0.3l-0.3,0.4l-0.5,0.2l-0.5-0.2
		l0.1-0.3l0.3,0.2l0.1,0.1l0.2-0.2L162.5,117.2z M144.5,117.2l0.2-0.1l-0.3-0.2l-0.7,0.8l-1-0.1l-0.2,0.4l0.6-0.2l0.4,0.2l1.1-0.1
		l0.2-0.3l-0.4-0.1L144.5,117.2z M157,124.4l0.7,0.1l0.1,0.2l0.2,0.5l-0.3,0.4l-0.3,0.3l-0.2-0.2l0.4-0.4l0.3-0.5h-0.5l-0.1-0.2
		l-0.3,0.3l-0.2-0.3l-0.6-0.3l-0.2-0.5l-0.2,0.2l-0.3,0.1l-0.3-0.3l0.1,0.4l1.2,1l-0.1,0.1l-0.3,0.2l-0.3,0.6l-0.5,0.1l0.2-0.3
		l0.1-0.5l-0.3,0.2l-0.5-0.1l-0.3,0.4l-0.1,0.5l-0.5-0.2l-0.9,0.1l-0.2-0.2l0.4-0.2v-0.3h-0.7l-0.2,0.5l-0.4-0.1l0.1-0.5l-0.3-0.3
		l-0.2,0.4l-0.3,0.3l-0.7,0.1l-0.2-0.3l0.1-0.6l0.5-0.2l-0.6-0.2l-0.6,0.8V125l-0.9,0.2l0.1-0.4l-0.6-0.1l-0.1,0.4l0.2,0.1l-0.2,0.1
		l-0.7-0.7h-0.6l-0.6-0.8l-0.3,0.2l0.2,0.2l0.1,0.3l-0.3-0.2l-0.1-0.3l-0.2-0.2l-0.3-0.1l-0.6-0.3v-0.7h-0.1l0.1-0.1l-0.2-0.1
		l-0.2,0.2l-0.2,0.6l-0.4-0.5l-0.3-0.1l-0.6-0.6l0.5-0.9l0.3,0.4l0.3-0.4l-0.6-0.3l0.7-0.4l0.2-0.6l-0.2-0.2l-0.3-0.2l-0.1,0.4
		l-0.2,0.5l-0.4,0.2l-0.3,0.1l-0.4,0.3l-0.3,0.1l0.1-0.4l0.4-0.2l-0.2-0.2v-0.4l0.2-0.3l-0.5,0.1l-0.4,0.3h0.4l0.1,0.3h-0.3
		l-0.1-0.2l-0.3,0.2l-0.3-0.5v-0.3l-0.4,0.2v-0.5l0.4-0.3l-0.3-0.4l0.4-0.4l0.1-0.3l-0.5-0.5l0.3-0.8l-0.3-0.4v-0.2l0.8-0.1v0.4
		l0.3-0.1l0.4-0.5l0.6-0.1l0.1,0.5l0.6-0.4l0.5,0.6l-0.3,0.3l0.4,0.1l0.4,0.2l-0.2-0.5l-0.3-0.4l0.3-0.3l0.1,0.1l1.1,1.2v-0.2
		l0.2-0.7l0.6,0.2l-0.5,0.2l0.1,0.5l0.5,0.1l0.2,0.5l-0.4,0.4l-0.4-0.1l0.5,0.5l0.6,0.1l0.2-0.3l-0.3-0.3l0.5-0.2l0.2-0.2l0.1-0.2
		l0.1,0.3l-0.2,0.3l0.2,0.3l-0.4,0.2l-0.4,0.2l-0.3,0.2l0.4,0.1l0.3,0.1l0.3-0.5l0.2-0.3l0.1-0.5l0.7,0.2l0.6,0.6l0.6,0.4l0.3,0.3
		v0.5l-0.4,0.3l-0.3-0.1l-0.2,0.5l-0.2,0.6l0.8-0.1l-0.3,0.3l0.3,0.3l0.5-0.3l0.2-0.3l-0.2-0.3l-0.3-0.1l0.1-0.3l0.6-0.2l-0.2-0.4
		l0.6,0.1l0.6,0.7l0.4,0.3l0.7,0.4l-0.3,0.2v0.1l0.2-0.1l-0.3,0.2l0.5,0.1l0.3-0.6l0.3-0.1l-0.1,0.2l0.4,0.5l0.1,0.7l0.4-0.2
		l0.6,0.3l0.2,0.4l0.6-0.6l0.1-0.3l0.2,0.4l0.3,0.2l0.9,0.2l0.2,0.4l0.2-0.1l0.1,0.4l-0.5,0.1l-0.9-0.5l-0.3,0.4l0.2,0.3l-0.3,0.2
		l0.5,0.1l0.5-0.4l0.5,0.5l-0.3-0.1l-0.3-0.1l-0.3,0.4h-0.7L157,124.4z M163.5,116.3l-0.3,0.5l-0.4-0.5l-0.6-0.1l-0.3-0.2l-0.1,0.2
		l-0.3,0.1l0.2-0.4l0.8-0.2l-0.1-0.6l-0.1-0.3l1.3,1.1L163.5,116.3z M160.9,114.6l-0.2,0.2l-0.1-0.2l-0.3-0.3h0.2l0.4,0.2l0.2,0.3
		L160.9,114.6z M160.2,113.5h0.5l-0.1,0.4l0.3-0.1l-0.2,0.3l-0.6-0.2L160.2,113.5z M162.6,112.1l0.4,0.1v0.3h-0.6L162.6,112.1z
		 M164.8,111.8l0.3,0.3l0.2-0.2l0.3-0.1l-0.2,0.2l-0.7,0.3l-0.1-0.3L164.8,111.8z M158.9,111.3l-0.1,0.2l-0.1,0.5l-0.2,0.2l-0.1,0.4
		l-0.3-0.2l0.3-0.3v-0.2l-0.2-0.1l0.1-0.4l0.5-0.3l0.2,0.3H158.9z M157.9,111l0.4-0.4l0.2,0.4l-0.2,0.2l-0.5,0.2L157.9,111z
		 M159.5,110.9l-0.3-0.1l0.3-0.3l0.3-0.2L159.5,110.9z M150.3,110.2l-0.2,0.4l-0.2-0.5l0.5-0.2L150.3,110.2z M149.7,110.2l-0.4,0.2
		l-0.3,0.1l-0.1,0.2l-0.2,0.2l0.8-0.1l0.2,0.3l-0.6,0.2l-0.5-0.5l0.8-0.8l0.4-0.1L149.7,110.2z M151.9,109.9l-0.2,0.3l0.1,0.5
		l-0.3-0.1l-0.2-0.4l0.3-0.5l0.3-0.2V109.9z M158.8,109.8l-0.4-0.3l0.4-0.2L158.8,109.8l0.2-0.3h0.2l0.1,0.3H158.8z M153,109.6v-0.2
		l0.3,0.3L153,109.6z M156.7,110.2l-0.2-0.1l0.1-0.5l0.3-0.4l-0.1,0.7l0.3,0.3H156.7z M155.6,109.7l-0.2,0.2l-0.2-0.3l-0.3-0.5v-0.5
		l0.4,0.3l-0.3,0.3l0.9-0.1l0.1,0.4L155.6,109.7z M154.5,108.7l-0.4,0.4l-0.5-0.4l0.3-0.4l0.6,0.1l0.2,0.2L154.5,108.7z
		 M159.4,108.7l-0.3-0.3l0.1-0.3l0.1,0.2L159.4,108.7z M153,108.8l-0.2-0.3l0.2-0.3l0.4,0.3L153,108.8z M150.5,109l0.3,0.4l-0.3-0.1
		l-0.7-0.6l0.3-0.4l0.1-0.4l0.7,0.2l0.2,0.7l-0.3-0.3l-0.3,0.1L150.5,109z M157.8,107.9l0.5,0.2l0.3,0.4l-0.1,0.2l-0.3,0.2l-0.1-0.5
		l-0.5-0.2l-0.1-0.3L157.8,107.9z M160.2,107.9l0.2-0.3l0.1,0.3l0.3,0.2l0.3,0.1l-0.2,0.3l-0.3-0.2l-0.1,0.3l-0.5,0.4l0.2-0.6
		l0.3-0.2L160.2,107.9z M159.1,107.5l0.5,0.3l-0.2,0.4l-0.6-0.4l-0.2-0.1L159.1,107.5z M156.6,108.7l-0.7-1l0.7-0.3l0.2,0.4
		l-0.3,0.1l0.4,0.4l0.5,0.6l0.4,0.4l-0.5-0.2L156.6,108.7z M150.5,107l-0.2,0.4l-0.8-0.3l-0.4-0.5l0.6,0.1L150.5,107z M156,106.4
		v0.2l0.2,0.2l0.3,0.2l-0.2,0.1l-0.2,0.2l-0.2-0.3l-0.3-0.4L156,106.4z M148.1,110.3l-0.1-0.7l-0.7-0.2l0.1,0.6l-0.3,0.1l-0.2,0.2
		v-0.5l0.3-0.2l-0.4-0.4l-0.1-0.5l-0.2-0.4l-0.1-0.3l-0.3-0.2l-0.2,0.2l-0.3,0.4l0.2,0.1l0.1,0.3l-0.5,0.1l0.1,0.3l0.1,0.4l-0.5-0.4
		v-0.4l0.4-0.1V108l0.5-0.8l0.4,0.2l-0.2-0.5l-1.1-0.1v0.5l-0.1,0.7l-0.6,0.2l-0.3-0.4l0.3,0.3l0.2-0.3l0.4-0.6l0.1-0.7l0.5-0.3
		l-0.2,0.3l0.2,0.3l0.3-0.1l-0.2-0.2l0.3-0.3h0.3l-0.3,0.2l-0.2,0.1l0.8,0.4l0.9,0.4l0.2,0.8l0.2,0.2l-0.2,0.6l-0.3-0.3l0.3-0.3
		l-0.1-0.2l-0.3-0.3l-0.8,0.1l-0.4,0.3l0.1,0.1l0.6,0.1l-0.1,0.8l0.9,0.1l0.5-1.1l0.2,0.9l0.2,0.5l0.3-0.1l0.3,0.3l0.8,0.1l-0.4,0.2
		l-1,0.1l-0.2,0.4l-0.1,0.5L148.1,110.3z M152.6,108.3l-0.4,0.2v0.3l0.4,0.1l0.4,0.4l-0.4-0.2l-0.9-0.1l0.2-0.2v-0.3l0.1-0.2
		l0.2,0.3l0.2-0.2v-0.3L152,108l-0.2-0.5l0.7,0.5l0.5-0.2l0.5-0.6l-0.4-0.4l0.1-0.4l-0.2-0.4l0.5,0.1l0.6,0.6l-0.2,0.3l-0.2-0.1
		l-0.2,0.7L152.6,108.3z M147.4,105.9l0.2,0.5l-0.5-0.4L147.4,105.9z M144.2,106.8l-0.2-0.3l-0.1,0.4l-0.5,0.3l-0.3,0.1l0.1,0.2
		l0.4,0.4l-0.2,0.3l-0.3-0.4l-0.2-0.6l-0.5-0.3l0.2,0.1l0.5-0.4v-0.3l0.2-0.2l0.1,0.5l-0.2,0.2l0.4-0.1l0.8-0.1l0.1,0.3L144.2,106.8
		z M151.2,105.5l0.2,0.3l-0.4,0.3l-0.2-0.3L151.2,105.5z M146.6,105.3l-0.3,0.4l-0.5,0.2l0.1-0.1l0.2-0.6L146.6,105.3z M147.1,105.3
		l0.1-0.3h0.2l0.1,0.4l0.1,0.3l-0.3-0.1L147.1,105.3z M143.5,104.9l0.5,0.2l-0.1,0.3l0.1,0.5l0.4-0.3v0.4l-0.5,0.1l-0.2-0.6
		l-0.1-0.4l-0.4,0.4l-0.2-0.3L143.5,104.9z M145.9,102.7l-0.2,0.2l-0.3,0.2l-0.2,0.5l0.3,0.1l0.5-0.3v-0.1h0.1L146,103L145.9,102.7z
		 M149.7,105.1l0.4-0.2l0.1,0.8l-0.8,0.7l-0.4-0.3l-0.3,0.2l-0.3,0.5l-0.4-0.3l-0.2-0.4l0.6-0.2h0.4l0.4-0.6l-0.7-0.3l-0.7,0.2
		l-0.3-0.3l0.6,0.1l0.4-0.1v-0.3H148l-0.3-0.1l-0.6-0.3l-0.1-0.5l-0.2,0.7l-0.5,0.2l-0.4,0.1l0.1-0.6l0.7-0.6l0.9-0.3v-0.5l-0.3-0.2
		l0.2-0.2l0.6,0.7v0.6l0.2-0.1l0.2-0.7l0.2,0.3l0.5,0.4l-0.6-0.1l-0.1,0.2v0.3l-0.4,0.1l-0.2,0.4l-0.2,0.1l0.2,0.1l0.3-0.3l0.4,0.2
		l0.4,0.3L149.7,105.1z M143.3,103.1l0.5-0.3l0.1-0.3l0.3,0.3l-0.3,0.5l-0.5,0.2L143.3,103.1z M141.7,102.9l0.1-0.6l0.2-0.1h0.2
		l-0.2,0.5l-0.1,0.2l0.3,0.1l0.3,0.4l-0.3,0.1L141.7,102.9z M142.6,101.3l0.3-0.3l0.3,0.3l-0.3,0.2l-0.2,0.2l-0.3-0.2L142.6,101.3z
		 M145.3,101l-0.3-0.2l0.3-0.2l0.1,0.3L145.3,101z M144.9,100.7l-0.3-0.2L144.9,100.7L144.9,100.7z M145.9,100.6v-0.8l0.3-0.3
		l-0.2,0.3l0.3,0.3l0.4,0.1l-0.9,1.2l-0.2-0.2L145.9,100.6z M145.2,103.5l0.3-0.5l0.1-0.3l0.3-0.6l1-1.2l1.1-0.9v-0.6l0.6-0.2
		l-0.2,0.6l0.2,0.4l-0.3-0.1l-0.2,0.1l0.3,0.2l0.3,0.5l-0.3,0.4h0.3l-0.2,0.3l-0.5-0.8l-0.2,0.2l-0.5,0.1l0.8,0.5l-0.1,0.3l0.1-0.3
		l-0.3-0.1l-0.1,0.3l-0.3,0.2l-0.6-0.5l-0.6,0.3l0.1,0.3l-0.4,0.7l0.1,0.4l-0.2,0.1v0.1l-0.1,0.1l-0.1,0.3l-0.1,0.3l-0.4-0.1
		l-0.4-0.2h-0.7l0.4-0.5l-0.4-0.5l0.2-0.3h0.6v-0.4l0.2,0.1l-0.2,0.4l-0.3,0.2L145.2,103.5z M147.1,99.2l0.4-0.1l-0.1,0.8l-0.5,0.4
		l0.1-0.5l0.1-0.5L147.1,99.2z M142.8,99l-0.2,0.2l-0.2-0.3l0.1-0.2v0.1L142.8,99z M146,98.7l0.5-0.2l0.4-0.1l0.3,0.4l-0.1,0.3
		l-0.1-0.3l-0.1-0.3l-0.2,0.4l-0.3,0.4l-0.5-0.3l0.5,0.1l0.1-0.3L146,98.7z M148.3,98.5l0.2-0.4v0.2l0.2,0.1l0.2,0.1H148.3z
		 M142.5,98l0.2,0.2v0.3l-0.2-0.3L142.5,98z M149.3,97.7l0.7,0.2l0.2,0.5l-0.3-0.1l-0.4,0.1l-0.2-0.2L149.3,97.7z M147.6,98.7
		l-0.7-0.8l0.4-0.3l0.5,0.2l0.3-0.2l-0.1,0.5l-0.5,0.2L147.6,98.7z M163,97.2l0.2-0.2v0.4l-0.2,0.2V97.2z M147.5,97l-0.2-0.2
		l0.5-0.1L147.5,97z M145.3,96.7v0.8l-0.2-0.4l-0.1-0.3L145.3,96.7z M144.7,96.5l-0.3,0.1l0.2-0.2L144.7,96.5z M149.6,96.3l-0.2,0.1
		l-0.1-0.3L149.6,96.3z M155.7,96l0.2,0.2l0.1,0.4l-0.4-0.4L155.7,96z M146.7,95.9l0.2,0.2l0.2,0.4l-0.2,0.1l-0.3,0.3l0.3,0.2
		l-0.1,0.3l-0.3-0.4l0.2-0.5h-0.3l-0.1-0.2L146.7,95.9z M151.7,96.1l0.4-0.4l0.1,0.3l-0.2-0.2l-0.2,0.3l0.3,0.1l0.4,0.4l-0.4-0.1
		l-0.4-0.3L151.7,96.1z M144.4,95.7l0.1,0.2l0.2,0.4l-0.3-0.1l-0.2-0.4L144.4,95.7z M148.6,95.6l0.2-0.3h0.1l-0.3,0.4l-0.5-0.2
		l-0.1-0.4l0.3,0.2L148.6,95.6z M161.6,95.5l0.2-0.6l0.4-0.1l-0.6,0.9l-0.2-0.4L161.6,95.5z M148.2,94.8l-0.2,0.2l-0.1-0.5
		L148.2,94.8z M150,94.4h0.4l0.2,0.3l-0.5,0.3l-0.1-0.5l-0.2,0.2l-0.2-0.2L150,94.4z M155,94.2l0.2,0.2l-0.2,0.4l0.2,0.1l-0.4-0.1
		l-0.2-0.4L155,94.2z M147.2,94.2l0.3,0.2l0.3-0.1l-0.3,0.2l-0.1,0.4l-0.2,0.3l-0.1-0.3l-0.2-0.4l-0.1-0.3H147.2z M150.8,93.6
		l0.1,0.4l-0.5,0.1l-0.2-0.3L150.8,93.6z M156.4,93.6l0.1,0.3l-0.2-0.1l-0.2-0.3L156.4,93.6z M159,93.4l0.7-0.1l-0.4,0.2l0.2,0.3
		l-0.3,0.2l-0.2-0.3l-0.4,0.1L159,93.4z M152.5,93.6l0.2-0.4l0.2,0.2l-0.6,0.4L152.5,93.6z M168.5,113.1l-0.3-1l-1-1.9l-1.2-1.6
		l-0.9-0.7l-2.7-1.2l-4.2-1l-5.2-0.7l-2.1-0.8l-0.8-0.4l-0.8-0.8l-0.1-1.4l0.2-1.3l0.6-0.7l0.9-0.7l0.7-0.3l0.9-0.2l3.3-0.1l1.1,0.4
		l0.8,0.6l1.7,1.8l1.6,0.5l3.4,0.1l0.9-0.1l1,0.1l1-0.6l0.5-1l-0.4-2l-0.8-1.8l-0.7-0.8l-0.5-0.8l-0.7-0.8l-3.3-2.2l-2.8-1l-1.1-0.2
		l-0.9-0.1l-1.1-0.3l-2.9,0.1l-4,0.8l-0.9,0.4l-0.8,0.5l-0.8,0.3l-1,0.6l-0.7,0.7l-0.9,0.6l-0.6,0.9l-0.7,0.7l-0.4,0.9l-0.5,0.8
		l-0.7,3l0.1,3.4l0.4,1.4l0.7,1.8l1.3,1.7l1.4,1.3l1.8,1.1l2.9,1l1.8,0.4l4.2,0.3l0.9,0.2l1,0.1l1.8,0.8l0.7,0.6l0.3,1.3l-0.3,1.3
		l-0.8,0.7l-0.8,0.5l-1.9,0.6l-1.4,0.1l-1.5-0.1l-1.2-0.3L151,118l-0.9-0.6l-0.8-0.7l-0.8-1l-1-0.4l-3.9-0.1l-1,0.1l-1-0.1l-1,0.5
		l-0.4,1.1l0.1,1.1l0.2,0.9l0.8,2l1.3,1.6l1.5,1.5l0.9,0.6l3.7,1.7l1.1,0.2l1,0.4l2.1,0.2l1.5,0.2l1.6-0.1l5-1l2.7-1.4l1.6-1.1
		l1.4-1.6l1-1.6l0.4-0.9l0.3-1l0.2-0.9l0.1-3.2L168.5,113.1z"/>
	<path class="st1" d="M177.6,125.4l-0.5,0.2l0.1-0.4l0.5-0.3L177.6,125.4z M180.3,125.2l-0.2-0.7l0.1,0.2h0.3l0.2,0.3L180.3,125.2z
		 M177.8,124.1h-0.2l0.2-0.1l0.1-0.2l0.2-0.1l0.1,0.3L177.8,124.1z M176.8,124.8h-0.7L176,124l0.5-0.7l0.8-0.3l0.4-0.3l0.3,0.2
		l-0.6,0.5l0.1,0.6l-0.4-0.4l-0.4-0.2l-0.1,0.6L176.8,124.8z M178.1,121.9l-0.4,0.1h-0.3l-0.3-0.1l-0.3,0.4l-0.3,0.1l-0.3-0.6
		l-0.3-0.3l0.1-0.2l0.8,0.2l0.6,0.4l0.2-0.4l-0.2-0.4l0.5,0.4l0.6,0.1l0.1,0.3L178.1,121.9z M181.5,121.4l-0.1-0.3l-0.4-0.1
		l-0.2-0.4l0.5,0.1l0.3,0.5L181.5,121.4z M180.9,119.9l0.2-0.2l0.2,0.1l0.2,0.3l-0.2,0.2L180.9,119.9z M178.5,121l-0.1-0.4l-0.2-0.1
		l-0.4,0.1v-0.3l0.5-0.2l-0.1-0.4l0.2-0.1l0.1,0.4l0.1,0.7l0.4,0.4L178.5,121z M184.9,119.6l-0.3-0.3l0.3-0.1l0.4,0.2L184.9,119.6z
		 M179.6,120.8l0.1-0.3l0.2-0.5l-0.1-0.7l0.3-0.1l0.2,0.8l-0.4,0.6L179.6,120.8z M186.8,119.3l-0.1-0.3l0.3,0.2l0.2,0.2H186.8z
		 M183.1,118.3l-0.4,0.9l-0.7-0.2l0.6-0.2l0.4-0.8l0.5-0.3h0.3L183.1,118.3z M183.3,117.5l-0.1-0.4l0.5,0.1l0.3-0.5l0.3,0.2l0.1,0.5
		l-0.6,0.1L183.3,117.5z M186.1,116.9l-0.2-0.2l0.1-0.2l0.5,0.3l0.2,0.3L186.1,116.9z M187.3,114.9h-0.6l-0.4,0.3v0.4l-0.3-0.3
		l0.1-0.4l0.4-0.3l0.6-0.3l0.3,0.2L187.3,114.9z M185,114.3l-0.2-0.3l0.4-0.2l0.1,0.4L185,114.3z M186.9,113.5l-0.4-0.4l0.7,0.1
		l0.4,0.6L186.9,113.5z M181.3,112.8l0.5,0.3l0.2-0.4l-0.4-0.2L181.3,112.8z M185.5,112.6l-0.2,0.2l-0.4,0.4l-0.5,0.1l-0.2,0.9
		l-0.8,0.1l-0.2-0.4l-0.2-0.3l-0.6,0.4v0.3l0.3,0.5l-0.2,0.2l-0.5-0.3l0.2-0.4l-0.4,0.1l-0.3,0.6l0.4,0.4l-0.2,0.4l-0.6,0.2l0.1,0.3
		l0.4-0.2h0.6l0.8-0.8l0.8-0.6l0.1,0.4l-0.1,0.3l-0.2,0.5l-0.7,0.1l-1.1,0.4v0.7l-0.6-0.3l-0.7-0.4l0.1-0.5l0.6-0.3l-0.4-0.8
		l-0.4-0.8l0.3-0.6l0.2,0.2l-0.2,0.5l0.2,0.2l0.3-0.5l-0.2-0.6l-0.5-0.2l-0.5-0.6l0.4-0.3l0.3,0.5h0.4l0.5-0.4l0.4-0.1l-0.1-0.4
		l-0.3-0.2l0.2-0.5l0.7-0.4l0.4,0.2l-0.1,0.5l1.1-0.2h0.8l0.3,0.2l-0.4,0.2l-0.7-0.2l-0.5,0.1l0.2,0.4l-0.5-0.2l-0.1,0.7l0.8,0.2
		l-0.1,0.3l-0.6,0.1l-0.6-0.1l-0.4,0.2l0.3,0.4l0.6-0.2h1.1l0.6-0.1l-0.4-0.5l0.3,0.2l0.4-0.3l0.4,0.1L185.5,112.6z M184.3,110.6
		l-0.4,0.1l-0.2-0.3h0.3L184.3,110.6z M185.8,110.8h0.3l0.3-0.4l0.3-0.2l-0.2,0.4L186,111l-0.4-0.1L185.8,110.8z M180.3,111.1
		l0.3-0.8l0.4,0.1l0.6-0.3l0.3,0.5l-0.8,0.8l-0.8,0.5l-0.3-0.1h0.2L180.3,111.1z M181.6,109.5l0.6-0.1l0.4,0.4l0.3,0.2l-0.3-0.2
		l-0.3-0.1h-0.5L181.6,109.5z M182.7,108.9l0.4-0.1l0.2,0.5l-0.4-0.1L182.7,108.9z M181.3,109.1h-0.8v-0.6l0.6-0.1L181.3,109.1z
		 M186.2,108.5l-0.4-0.3l0.5-0.2l0.5,0.4l-0.1,0.2L186.2,108.5z M184,109.9l0.1-0.3l-0.1-0.3l0.1-0.4v-0.2l-0.3-0.2l-0.4-0.1v-0.3
		l0.5-0.2l0.7-0.3l-0.1,0.6l0.3,0.9L184,109.9z M181,107.7l-0.3-0.2l0.4,0.1l0.2,0.2L181,107.7z M185.7,107l0.4,0.3l-0.5-0.1
		l-0.6-0.1v-0.2L185.7,107z M183,108.1l-0.7,0.3l-0.2-0.5l-0.2-0.3l-0.7-0.4l0.1-0.6l0.2,0.2l0.4,0.1l0.7-0.3l0.2,0.5l-0.4,0.3
		l0.1,0.3l0.3,0.1l0.6-0.1l0.1,0.2L183,108.1z M185,106.6l0.1-0.2l0.3-0.1l-0.1,0.3L185,106.6z M184.1,106l0.3,0.5l-0.5-0.1
		l-0.3-0.3L184.1,106z M180.7,105.7l-0.2,0.3l-0.4-0.3l0.3-0.5l0.2,0.1l-0.2,0.1L180.7,105.7z M182.4,104.7l0.4-0.1l0.2,0.5
		l-0.5,0.2L182.4,104.7z M181.3,104.6l0.1-0.4l0.2-0.4h0.2l-0.1,0.4l-0.2,0.5L181.3,104.6z M186.3,103.2l-0.1,0.2l0.1,0.3l-0.5-0.2
		l-0.5-0.3l-0.3,0.2v0.5l-0.3-0.1v1l0.1,0.4l-0.4,0.3l-0.2-0.3l0.2-0.3l-0.2-0.3l-0.2-0.3l0.3-0.4l0.3-0.3l-0.1-0.4l0.7-0.1H186.3z
		 M186.1,102.4l0.2,0.1l0.2,0.1H186l-0.2-0.2L186.1,102.4z M183.3,102.1l-0.2,0.4l-0.3,0.2l0.1-0.5l0.5-0.2L183.3,102.1z
		 M183.4,100.2l-0.1,0.4l-0.3-0.1l0.1-0.4L183.4,100.2z M183.5,98.5l-0.2,0.3l-0.4,0.1l0.1-0.3L183.5,98.5z M185.2,98.3l-0.2-0.3
		l0.5-0.2l0.1,0.2L185.2,98.3z M187.3,98.2l-0.5-0.1l-0.4-0.3l0.4,0.1L187.3,98.2z M186.3,97.6l0.1,0.2l-0.3-0.1L186.3,97.6z
		 M180.3,97.5l-0.4-0.2l-0.2,0.2l0.4,0.4L180.3,97.5z M183.5,98l-0.1-0.3l0.4-0.2L184,97l0.3,0.2l-0.1,0.7H183.5z M186.9,96.8h0.3
		v0.5h-0.3V96.8z M181.8,98.1l0.1-0.6l0.6-0.1l-0.3-0.5l-0.3,0.3l-0.7-0.1l0.1-0.6l-0.2-0.2l-0.5,0.2l0.2,0.7l-0.1,0.9l0.2,0.2
		l0.3-0.2l0.2-0.2L181.8,98.1z M177,95.8l0.6,0.1l-0.8-0.4L177,95.8z M183.4,95.3l-0.4,0.1l-0.2-0.4h0.4L183.4,95.3z M180,95.1
		l-0.1,0.2l0.7-0.3l-0.3-0.2L180,95.1z M186.5,95l-0.3,0.2v-0.4l0.3-0.4l0.2,0.2L186.5,95z M188.1,94.4l0.4-0.1l0.1,0.3l-0.2,0.2
		l-0.3-0.1V94.4z M180.1,94.2l-1.2,0.2l-0.2,0.5l-0.2,1l0.3,0.8l0.5-0.3v-1.4l1.2-0.3L180.1,94.2z M185.9,94.5l-0.4,0.2l0.1-0.4
		l0.3-0.2V94.5z M184.4,93.9l0.8-0.2l-0.5,0.6l-0.7,0.3L184.4,93.9z M177.4,93.9l-0.1,0.3l0.3-0.1l-0.1-0.5L177.4,93.9z M189.5,94
		l-0.7-0.3l0.1-0.4l0.5,0.3l0.5,0.2L189.5,94z M179.3,93.1l-0.2,0.3l0.3,0.1L179.3,93.1z M176.3,93.3l0.2-0.3v0.4l-0.3,0.3l-0.2-0.1
		L176.3,93.3z M178.7,97.6l-1,0.5l-0.8-0.4l-0.8-0.7l0.2-1l-0.3-0.8l-0.1-0.5l0.2-0.1l-0.1-0.4l1.1-0.6l1.2-0.4l0.3,0.6l0.4,0.2
		l-0.1-0.4l0.2-0.2l-0.1-0.3l0.3-0.2l0.7,0.5l0.8,0.2l1.1,0.6l0.6-0.6l-0.1,0.7l-0.7,0.5l0.6,0.1l0.4,0.8l0.5,0.6h0.5l0.4-0.5
		l0.2,0.2l-0.4,0.5l-0.8-0.2l-0.3-0.3l-0.6,0.2l-0.2,0.2l0.6,0.3L183,97l0.3,0.2l-0.3,0.1l-0.4,0.7l-0.2,1l0.4,0.5l-0.5,0.2
		l-0.2-0.5l-0.5,0.2l-0.1-0.3l0.3-0.4v-0.2l-0.8,0.6l-0.2,0.7l0.7,0.1v0.5l0.4-0.1l0.2,0.4l-0.5,0.9l0.4,1.2l-0.5,0.2v0.4l-0.2,0.1
		l-0.4-0.3l-0.3,0.2l-0.3-0.4l0.2-0.7l0.9-0.5l-0.5-0.6l-0.1-0.8l-0.5-0.4h-0.2l-0.2-0.6l1.2-0.6l0.1-0.6l-0.2,0.1l-0.3,0.2
		l-0.1-0.1l-0.2,0.2l-0.8-0.1L178.7,97.6z M187.5,92.8l-0.4,0.5l-0.2,0.3l-0.5,0.1l-0.7-0.4l-0.5-0.4l0.1-0.5l0.5-0.2l0.2,0.6
		l0.9,0.1L187.5,92.8l-0.1-0.4l0.2-0.2l0.3-0.2l0.4-0.1l-0.1,0.2l0.5,0.4l-0.3,0.4l-0.7-0.3L187.5,92.8z M190.8,92l-0.2,0.2
		l-0.3-0.3L190.8,92z M189.2,91.9l0.2-0.1l-0.2,0.4l-0.5-0.1l-0.3-0.1l0.3-0.1H189.2z M180.1,91.8l0.7,0.2l1.3-0.4l1,0.6l0.3-0.1
		l0.1,0.4v0.4l0.4,0.2l-0.4,0.2l-0.3,0.3L183,93l0.4-0.5l-0.4-0.1l-0.4,0.2l-0.2,0.6l-0.6-0.5l0.1-0.4l-0.4,0.2l-0.3,0.7l-1.1-0.4
		l-0.3-0.6l-0.1,0.6l-0.4-0.1l-0.2-0.7L180.1,91.8z M177.8,91.5l0.4,0.4l0.2-0.2l0.2,0.6l-0.7,0.5l-0.4-0.5h-0.4l-0.1-0.6
		L177.8,91.5z M180.7,91.3l0.1,0.2l-0.3,0.2l-0.2-0.3L180.7,91.3z M193,119.9l-0.7-0.9l-3.4-1.1l-0.6-1l0.1-4.2l-0.2-2l0.2-2.1
		l-0.1-1.5l0.1-1.6l-0.1-1l0.1-1l-0.1-1.1v-2.1l0.6-0.9l1-0.6l1.1-0.1l1-0.6l0.6-1v-3l0.1-0.9l-0.1-1l-0.4-1l-1.6-0.5l-6.5-0.1
		l-1.1,0.1l-3.1-0.1l-1,0.1l-2-0.1l-1.1,0.5l-0.6,1.1v1l-0.1,0.9v1.1l0.1,1v1l0.5,1l3.1,1.1l0.7,0.9l-0.2,4.3l0.1,0.9l0.2,1.2
		l-0.1,2.1l-0.1,1l0.2,2l-0.3,1l0.2,2.2l-0.1,2l-0.5,1.1l-3.4,1.1l-0.6,1l-0.1,1v3.9l0.5,1.1l1,0.4l15.2,0.1l1-0.5l0.6-0.9v-1.1
		l-0.1-0.9L193,119.9z"/>
	<path class="st1" d="M254.5,125.3l0.3-0.4l0.1,0.5L254.5,125.3z M260,124.7h-0.4l-0.3,0.2l-0.1,0.3l-0.3-0.1l0.2-0.3l0.1-0.4
		l0.5-0.4l0.3,0.2V124.7z M252.4,124.2l-0.1-0.5l0.5,0.1L252.4,124.2z M253.5,124.8l-0.3-0.1l0.3-0.5l-0.3-0.5l0.3-0.1l0.3-0.3
		l0.1,0.7L253.5,124.8z M251.3,123.9l-0.2-0.3l0.1-0.3l0.3,0.4L251.3,123.9z M253,123.1l-0.3-0.1l0.3-0.1l0.1-0.4l0.5,0.2l-0.3,0.2
		l-0.2,0.2L253,123.1z M256.2,122.8l0.2,0.1l0.2-0.2l0.1-0.3l-0.5-0.1V122.8z M256.8,122.4l0.2,0.2l0.4-0.3l-0.2-0.3L256.8,122.4z
		 M256.7,122.2l0.2-0.5h-0.3L256.7,122.2z M237.9,122.2l-0.6-0.2l-0.8,0.2l-0.4,0.1l0.2-0.3l-0.2-0.4l-0.3-0.4l0.4,0.2l0.5,0.4h0.7
		l0.3,0.4l0.3-0.2l0.2,0.1L237.9,122.2z M234.4,122.4l-0.4,0.4l-0.2-0.5l0.2-0.8l-0.4-0.6l0.2-0.1l0.5,0.2l0.1,0.7l-0.3,0.4
		L234.4,122.4z M252.4,120.3l-0.2,0.9l0.7-0.1l0.4-0.3l0.1,0.4h0.3l-0.3-0.7L252.4,120.3z M232.7,120.9l-0.3,0.2l-0.1-0.4l-0.2-0.1
		l0.3-0.2l0.3-0.2V120.9z M256.9,120.6l0.2-0.3l-0.3-0.2l-0.2,0.2L256.9,120.6z M250.4,120.3l0.3,0.6l0.4-0.3l-0.4-0.5L250.4,120.3z
		 M235.7,120.1h0.4l0.2,0.5h-0.5L235.7,120.1z M254.9,120.1l0.7,0.6l0.2-0.3l-0.7-0.5L254.9,120.1z M251.9,119.2v0.9l0.2,0.3
		l0.3-0.9L251.9,119.2z M256.6,120l-0.3-0.6l-0.3-0.5v0.7l0.4,0.5L256.6,120z M234.8,119.7l-0.3-0.2l0.2-0.8v0.3l0.3,0.4
		L234.8,119.7z M238.5,118.9v-0.5l0.5,0.1l0.1,0.4L238.5,118.9z M253.7,118.4l0.5,0.4l0.1-0.5l-0.4-0.1L253.7,118.4z M233.2,118.4
		l0.1-0.3h0.4l-0.2,0.3L233.2,118.4z M235.4,118l-0.1,0.4l-0.3-0.1l0.2-0.2l0.1-0.2l0.3-0.2L235.4,118z M252.4,118.4l0.3-0.2
		l0.1-0.6l-0.3-0.7l-0.3,0.2l0.2,0.6L252.4,118.4z M254.1,117.1l-0.3-0.6l-0.3,0.4l0.3,0.4L254.1,117.1z M250.3,117.2l0.1-0.3
		l0.2-0.4l0.4,0.3l0.1,0.6l-0.1,0.4l-0.4-0.2l-0.3,0.5l-0.4-0.4L250.3,117.2z M236.9,115.9l0.1,0.3l0.3,0.1l-0.3-0.1l-0.3-0.2
		L236.9,115.9z M232.9,115.8l0.7,0.1l0.3,0.3l-0.4,0.1h-0.7V115.8z M235.1,115.5l0.2,0.5l-0.4,0.3l-0.2-0.5L235.1,115.5z M239,115.4
		l-0.3,0.1l0.1-0.4l0.3-0.1L239,115.4z M247.2,116.1l-0.2-0.2l0.2-0.2l-0.4,0.1l0.1-0.4l0.3-0.2l-0.1-0.4l0.4,0.1l-0.2,0.6l0.1,0.3
		L247.2,116.1z M232.7,115.2l-0.2-0.3l0.2-0.2h0.3l0.1,0.3L232.7,115.2z M245.3,115l0.2-0.3l0.3,0.4L245.3,115z M248.8,114.6
		l-0.1,0.3l-0.4,0.1l0.1-0.4L248.8,114.6z M252.8,114.8l-0.5,0.2l0.1-0.5L252.8,114.8z M242.2,114.2l0.3-0.1l0.2,0.3L242.2,114.2z
		 M236.7,114.2l0.3-0.3l0.1,0.4v0.3l-0.2-0.1L236.7,114.2z M258.6,125.5h-0.8l-0.6-0.1l-0.2-0.9l-0.1-1h-0.4l-0.3,0.6l0.2,0.3
		l0.3,0.2l-0.2,0.3h-0.5l-0.3,0.2l-0.4,0.2l-0.2-0.2l0.5-0.2l0.3-0.4l0.1-1.1l-0.3-0.1v1l-0.9-0.5l0.6-0.7v-0.7l-0.5,0.3l-0.3-0.3
		l0.2-0.5l0.5,0.1l0.1-0.2l0.4,0.1l-0.1-0.5l-0.1-0.4l-0.4,0.3l-0.3-0.9l-0.7-0.6l-0.3,0.3l0.6,0.6l0.1,0.7l-0.5,0.2l-0.1,0.4
		l-0.2-0.1l-0.7-0.2l-0.1-0.5l-0.3,0.7l-0.9,0.1l-0.4-0.7l-0.4-0.1l0.2,0.4l-0.1,0.4l-0.1-0.2l0.2-0.2l-1-0.5l-0.7-0.9l-0.6-0.2
		l0.1-1l-0.5-0.5l0.2-0.8l-0.8-0.3l-0.2-0.1v0.5l0.5,0.7l0.2,0.5l-0.2,0.2l-0.4-0.7l-0.6-0.8l0.1-0.7l0.1,0.2l0.3-0.5l0.9-0.6
		l-0.5-0.5l-0.1-0.2l-0.3-0.1l-0.1-0.3h0.2l0.2,0.2l0.2,0.1l0.3,0.2l0.3,0.2v0.4l0.2,0.7l0.3-0.4l0.1,0.3l-0.2,0.4l-0.1,0.5l0.3,0.5
		l-0.3,0.6l0.4,0.3l0.5,0.3l0.8,0.2l0.1-0.5l0.4-0.4l-0.2-0.4l-0.4,0.1l0.1-0.3l0.8-0.4l-0.4-0.7l0.3-0.8l-1.3-0.3l-0.2-1h0.4
		l0.1,0.6l0.6,0.2l-0.5-0.5l0.4-0.9l0.5-0.4l-0.3-0.1l0.1-0.4l0.2,0.3h0.4l0.1,0.5l-0.4,0.2l-0.4,0.5l0.3,0.7l0.5,0.1l0.4,0.2
		l-0.2,0.3l0.3,0.4l0.8-0.5l0.2-0.5l-0.2-0.4v-0.3l0.2,0.3l0.3-0.3l0.3-0.4l0.2-0.1l0.1,0.9l0.4,0.9l-0.3,0.5l-0.2,0.5l0.3,0.2
		l0.6-0.2l0.4-0.1l-0.1,0.4l0.2,0.2l0.5,0.8l0.5,0.5l0.8,1.3v0.5l0.2,0.8l-0.2,0.5l-0.1,0.4l0.4-0.1l-0.1,0.5l0.3,0.2l0.2-0.5
		l0.5,0.1l0.1,1.4L258.6,125.5z M247.3,113.4l-0.1-0.3l0.4,0.1l0.3,0.4l-0.1,0.3l-0.3,0.2l-0.2-0.1l0.3-0.3L247.3,113.4z
		 M234.6,113.2l0.3-0.1l0.2,0.3l-0.4-0.1L234.6,113.2z M254.1,113l-0.2,0.7l-0.6,0.2l0.1-0.8L254.1,113z M250.7,113l0.4-0.2
		l-0.1,0.3l-0.1,0.5l-0.2,0.3l-0.3-0.3L250.7,113z M243.3,113.5l-0.2-0.4l0.2-0.5v-0.3l-0.4-0.1l-0.1-0.2h0.2l0.2,0.2l0.2,0.4
		l-0.2,0.5L243.3,113.5z M233,112.3l-0.3,0.2l-0.1-0.3l0.2-0.2L233,112.3z M250.9,111.4l0.6,0.1l0.1,0.6l-0.5-0.2L250.9,111.4z
		 M246.4,111.9l-0.1-0.2l0.3-0.3L246.4,111.9z M249.8,112.8l-0.2-0.4l0.5-0.2l-0.1-1l0.4-0.1l-0.1,1.3l-0.2,0.5L249.8,112.8z
		 M251.9,110.9l0.1-0.4l0.3-0.2l-0.1,0.2L251.9,110.9z M232.8,110.3l-0.1-0.4l0.3,0.1l0.2,0.3H232.8z M247.6,110l-0.3,0.1l-0.2-0.4
		l0.1-0.4l0.2-0.3l0.2,0.1l-0.2,0.4L247.6,110z M255.6,109.4l0.9-0.5l0.7-0.6l-0.4,0.7l-0.8,0.5l-0.2,0.7l-0.4-0.1L255.6,109.4z
		 M254.5,110.1l-0.9,0.3l0.2,0.5l-0.5,0.4l-0.2,0.3l0.8,0.2l0.2-0.9l0.6,0.1l0.2,0.6l-0.1-0.2l-0.4,0.3l0.4,0.7l-0.3,0.4l-0.6-0.5
		l-0.5,0.3v-0.3l-0.5-0.1l-0.4,0.7l-0.5,0.5l-0.3-0.5l0.4-0.4l0.2,0.4l0.2-0.9l-0.4-0.6l0.4-0.1l0.7-0.2l0.1-0.4l-0.5-0.1l-0.1-0.5
		l0.3-0.2l0.3,0.3l0.3-0.1l-0.1-0.4l-0.4-0.5l-0.9,0.2l-0.3,0.2l-0.3,0.6l-0.3-0.2l0.3-0.5l0.5-0.5l0.1-0.4l-0.3-0.4l0.2-0.2
		l0.4,0.1l-0.1,0.6l0.8,0.3l0.5,0.5l0.2,0.2l-0.2,0.3l0.2,0.1h0.5l-0.1-0.5h0.5l0.2,0.3L254.5,110.1z M250.9,107.8l0.3,0.4l-0.6,0.4
		l-0.1-0.4L250.9,107.8z M252.7,107l-0.1,0.1l-0.2,0.2L252.7,107z M234.5,107.6l-0.2-0.4l0.1-0.3l0.3-0.2l-0.3,0.4l0.1,0.2V107.6z
		 M254,106.9l-0.3,0.2l0.5,0.3l0.7-0.1l0.2,0.6l-0.7,0.1l-0.7-0.4l-0.3-0.1l-0.2,0.5l-0.1,0.2l-0.1-0.3l0.2-0.8l0.6-0.4L254,106.9z
		 M257.3,106.4v0.3l-0.2,0.3l0.2,0.3h-0.2l-0.1-0.3h-0.2l-0.3-0.5L257.3,106.4z M234.1,105.9l-0.2,0.2l-0.3-0.1l0.1-0.3L234.1,105.9
		z M252.9,105.7l0.2,0.2l-0.2,0.4l-0.3-0.2L252.9,105.7z M232.6,105.4v0.3l-0.2-0.1l-0.1-0.4L232.6,105.4z M253.1,104.3h0.5
		l-0.4,0.3l-0.3,0.2l-0.2,0.3l-0.1-0.3L253.1,104.3z M257.8,103.9l0.3,0.3l-0.4,0.1l-0.1-0.3H257.8z M233.1,103l-0.6-0.6l0.3-0.4
		l0.2,0.3v0.3l0.4-0.3l0.3,0.2L233.1,103z M252.1,102.3l-0.2,0.3l-0.3-0.2v-0.4l0.2-0.4h0.4l-0.1,0.2l-0.2,0.2L252.1,102.3z
		 M237.9,101.3l-0.1,0.2l-0.2-0.1L237.9,101.3z M235.8,101.1l0.5-0.1v0.2l-0.1,0.3l-0.4,0.1V101.1z M251.3,100.8l0.1-0.6l0.5,0.1
		l-0.1,0.5L251.3,100.8z M233.9,101.5l-0.3-0.1l-0.4,0.2l-0.5-0.5l-0.5-0.5l0.1-0.2l0.1-0.2l0.5-0.1l0.1,0.8l0.2,0.2l0.2-0.5
		l0.6,0.2l0.3,0.5L233.9,101.5z M234.8,100.5l-0.3-0.2l0.2-0.3l0.4,0.1l0.4,0.2l0.3-0.1l0.1,0.4l-0.5,0.3L234.8,100.5z M233.7,99.9
		l0.1-0.3h0.2L233.7,99.9z M254.1,100.1l0.1-0.5l0.5,0.1l-0.1,0.3l0.2,0.1l0.3-0.1l-0.3,0.2l-0.4,0.1l-0.5,0.3L254.1,100.1z
		 M252,99.4l-0.5,0.3l-0.7-0.4l0.1-0.4l0.6,0.3l0.6,0.1L252,99.4z M255,98.8l0.4-0.1l-0.1,0.4l-0.4-0.1L255,98.8z M244.1,107.7
		l-1-0.2h-1.1l-0.9-0.5l-0.5-1.1l-0.2-5.7l0.6-1l1-0.5l0.8-0.1l2.8,0.1l2.4,0.3l1.6,1l0.5,0.8l0.4,0.8l0.1,1.5l-0.2,1.4l-0.4,1
		l-0.6,0.9l-0.6,0.6l-0.8,0.4L244.1,107.7z M256,98.5l0.1,0.3h-0.4l-0.1-0.4L256,98.5z M235.6,98.6l0.1-0.4l0.4-0.1l-0.2,0.4
		L235.6,98.6z M233.4,98.6l-0.4-0.1L233,98l0.4,0.2L233.4,98.6z M252.4,98v0.6h-0.2l-0.1-0.4l0.2-0.6l0.3,0.1L252.4,98z M247.5,97.1
		l0.4,0.1l0.1,0.3l0.8-0.3v0.4l-0.4,0.4l-0.5,0.3l-0.3-0.6l-0.2-0.2L247.5,97.1z M245.8,97.2l-0.1,0.3l-0.2-0.4L245.8,97.2z
		 M252.8,97h0.4v0.4l-0.4,0.1V97z M243.1,96.5l-0.2,0.4l-0.1-0.4L243.1,96.5z M237.5,96.7l-0.4,0.3v-0.3l0.2-0.3h0.3L237.5,96.7z
		 M238.2,97l0.1-0.6l0.5,0.5l-0.3,0.9l-0.4-0.2l0.2-0.2l0.2-0.2L238.2,97z M242,96.9v0.6l-0.3,0.2l-0.2-0.1v-0.4h0.4l-0.1-0.3
		l-0.3-0.4l-0.3,0.1v-0.3l0.4,0.1l0.2-0.2v0.2L242,96.9z M235.4,96h0.5l-0.1,0.6l-0.2-0.1L235.4,96z M244.8,96.4l0.4-0.4l0.5-0.1
		l-0.3,0.4l-0.2,0.6l-0.4,0.1l-0.1-0.3L244.8,96.4z M250.7,96.8l0.2-0.6l0.3-0.3l0.3,0.2l-0.1,0.5l-0.5-0.2l-0.1,0.3l0.5,0.4
		l-0.3,0.5h-0.5L250.7,96.8z M232,96.5l0.1-0.5l0.4-0.2l-0.1,0.3l-0.4,0.3l0.2,0.2l0.1,0.5H232V96.5z M247.1,96.1l-0.3,0.3l-0.2-0.2
		l0.3-0.5l0.5-0.2l0.1,0.3l-0.1,0.3H247.1z M233.3,95.9l-0.1,0.5l-0.3,0.1l-0.1-0.8l-0.4-0.4l0.1-0.3l0.5,0.2l0.3,0.5V95.9z
		 M254.4,94.9l0.2,0.4l-0.2,0.1V94.9z M250.6,95l-0.3,0.2l-0.2-0.1l0.2-0.3L250.6,95l0.2,0.4l-0.3,0.8l-0.4,0.5l-0.2-0.3l0.7-1.1
		L250.6,95z M250.7,94.6l0.4,0.1l0.2,0.6l-0.4-0.1L250.7,94.6z M232.2,94.8H232v-0.5h0.3V94.8z M246.3,94.3l-0.1,0.5l0.5-0.1
		l0.2,0.4h-0.6l-0.3-0.4l-0.1-0.4L246.3,94.3z M241.7,94.3l0.2,0.4l-0.1,0.4l-0.3-0.1l0.3-0.3l-0.3-0.2l-0.2,0.4l-0.2,0.6L241,95
		l-0.3,0.4l-0.3-0.5l-0.1-0.5l0.7,0.1l0.4,0.1L241.7,94.3z M248.5,95.9v0.4l-0.1,0.3l-0.2-0.2v-0.6l0.1-0.6l-0.4-0.4l-0.2-0.7
		l0.5-0.3l-0.2,0.6l0.3,0.4l0.6,0.6l-0.3,0.2L248.5,95.9z M243.5,93.2L243,94l0.6,0.4v-0.3l0.1,0.3l-0.3,0.6l-0.5-0.6l-0.6-0.6
		l-0.1-0.4l0.6-0.4L243.5,93.2z M245.1,93.2l0.1,0.3l-0.3-0.1l-0.1-0.4L245.1,93.2z M248.8,92.7l0.3,0.4l0.2,0.4l0.5,0.4l0.4-0.5
		l0.5-0.6l1,0.2l0.3-0.3l0.1,0.3l0.2,0.4l-0.3,0.5l-0.5-0.2h-0.3l-0.6,0.2l-0.9,0.6l-0.7,0.2l-0.1,0.3l0.1-0.4l0.2-0.5l-0.1-0.3
		l-0.3-0.4L248.8,92.7z M238.2,92.9l0.3,0.1l-0.1-0.5L238.2,92.9z M232,93.2l0.3,0.1l0.2,0.3l0.3-0.1l-0.2-0.5l-0.1-0.8l0.6,0.1
		l0.1,0.7l-0.3,1l-0.9-0.2L232,93.2z M246,92.2v-0.3l0.3,0.3l0.1,0.8l-0.3-0.1l-0.1-0.3l-0.2-0.2L246,92.2z M242.2,91.8l0.2-0.1
		l-0.1,0.4l-0.3,0.1L242.2,91.8z M247.5,91.6l0.8,0.5l0.1,0.6l-0.6,0.2l-0.4-0.6l-0.3,0.1v0.7l0.3,0.7l0.2,0.3l-0.3-0.1l-0.3-0.3
		l-0.2,0.2l-0.2-0.7l0.2-0.9l-0.2-0.5l-0.1-0.2L247.5,91.6z M243.9,91.6v0.4l-0.4-0.3L243.9,91.6z M240.3,96.1l-0.5,0.5l0.1,0.8
		l-0.1,0.4l-0.1-0.3l-0.3-0.8l-0.3-0.8l-0.4,0.2l-0.3,0.2l-0.3-1.1l0.1-1.1l-0.4-0.4l0.1-0.4l-0.3-0.3l0.2-0.3l0.2-0.4l-0.1-0.7h0.5
		l0.2,0.4l0.3,0.2l0.4,0.1l0.1-0.5l0.3,0.2l0.1,0.6l0.3,0.1l-0.4,0.4l0.4,0.3l0.4-0.5l0.6,0.3l0.2,0.6l-0.5-0.4l-0.4,0.8l-0.5,0.3
		l-0.5,0.1l-0.1-0.3l0.1-0.4l-0.3,0.2l-0.2,0.8l-0.3,0.5l0.7,0.4l0.4,0.6l0.2-0.1l-0.1-0.5l0.5,0.3l0.3,0.4L240.3,96.1z M233.7,92.3
		l-0.2-0.3l0.7-0.7l0.9,0.1l0.2,0.6l0.6-0.5l-0.2-0.3l-0.2,0.2l0.2-0.3l0.7,0.5l0.5,0.4l0.5-0.2l0.2-0.6l0.3,0.1l-0.1,0.6l-0.3,0.3
		l-0.2,0.3l-0.1,0.8l0.6,0.6l0.2,1.1l-0.3,0.4l0.4-0.1l0.2,0.3l-0.5,0.2l-0.3-0.5l-0.3-0.4l-0.2-1.1l-0.1-1.2l-0.2,0.3l0.2,0.5
		l-1,0.5l0.4,0.7l0.5,0.3l0.3,0.4v0.4l-0.2,0.3l-0.2,0.1l0.1-0.6l-0.2-0.3l-0.3-0.4l-0.4,0.1l-0.2,0.2l-0.1,0.4l-0.5,0.6l-0.3,0.7
		l-0.5-0.8l-0.7-1.1l0.2-0.7l0.3,0.1l0.2,0.8l0.2,0.9l0.3-0.6l0.7-0.1l-0.1-0.6l0.3-0.9l0.5-0.8l-0.3-0.3l0.3-0.2l-0.3-0.1l-1.2,0.4
		l-0.2-0.6l-0.3,0.7v0.5l0.2,0.4l-0.3-0.1h-0.4l-0.5-0.2l0.5-0.7L233.7,92.3z M260.8,123.7l-1.6-2.5l-0.5-0.9l-0.6-0.9l-0.5-0.9
		l-0.7-0.8l-1.5-2.7l-0.2-1.2l0.6-1.1l1.4-1.4l0.6-0.9l0.4-1l0.6-0.9l0.4-0.9l0.6-1.9l0.1-4l-0.3-1l-0.2-1l-0.3-1l-1.4-2.8l-0.7-0.8
		l-0.5-0.8l-2.6-1.9l-1.8-0.9l-4.2-0.9l-1.3-0.1l-1.5,0.1l-1.1-0.1l-1,0.1l-1.1-0.1l-0.9,0.1l-3.1-0.1l-1,0.2l-2.1-0.2l-1,0.2
		l-1.1-0.1l-1,0.5l-0.4,1.1l-0.2,14.3l0.2,1.5v2.6l-0.1,1.1l-0.1,1.9l0.2,1.1l-0.2,2.1l0.2,3l-0.1,1.1l0.2,4l0.4,1.1l1,0.5l1,0.1
		l2.1-0.2l1.1,0.1h1.5l1.6-0.5l0.4-1l0.1-1.1l-0.2-1.1l0.2-2.2l-0.1-3.2l0.5-1l1-0.5h0.9l0.9-0.1l1.3,0.4l0.8,0.9l1.3,1.8l0.4,1
		l1.4,2.6l0.7,1l0.5,0.9l0.6,0.8l1,0.9l1.3,0.3l1.8,0.1l1.1-0.1l1,0.1h2l1.1-0.1l1.1-0.3l0.2-1.1L260.8,123.7z"/>
	<path class="st1" d="M217.4,125.1h-0.3v-0.2l0.2-0.3l0.2,0.1L217.4,125.1z M203.8,125.1l-0.3-0.1v-0.3l0.3-0.3l0.2,0.2L203.8,125.1
		z M205.9,124.9l-0.5,0.2l-0.4-0.5l0.6-0.4l0.4,0.4L205.9,124.9z M213.4,124.6l-0.1-0.4l0.2,0.2l0.1,0.2L213.4,124.6z M211.9,124.2
		l-0.3-0.2l0.2-0.2l0.2,0.2L211.9,124.2z M218.9,123.9l-0.3,0.1l0.2-0.2l0.3-0.3l0.1,0.2L218.9,123.9z M206.9,124.3l0.1,0.3h-0.3
		l-0.2-0.7l0.5-0.3l0.1,0.4l-0.4,0.3L206.9,124.3z M202.4,124.5l-0.2-0.3l0.6-0.4l-0.3-0.5l0.2-0.2l1,0.7v0.2l-0.7-0.1L202.4,124.5z
		 M215.4,123.3l-0.1-0.3l0.3,0.1l0.1,0.2L215.4,123.3z M212.7,123.4h-0.5l0.2-0.3l0.5-0.2L212.7,123.4z M210,123l-0.3,0.3l-0.1-0.2
		l0.3-0.2l0.2-0.1L210,123z M210.7,123.2l-0.3,0.5l-0.3-0.3l0.5-0.5l0.5-0.3l0.1,0.3L210.7,123.2z M203.9,123h-0.5l0.1-0.2l0.4-0.2
		L203.9,123z M217.8,123.9l-0.6-0.5l-0.5-0.6l-0.3,0.2l-0.3-0.2l0.2-0.2l1,0.5l0.6,0.5L217.8,123.9z M209.1,122.8l-0.1-0.4l0.3,0.2
		l0.1,0.3L209.1,122.8z M205.8,122.7l-0.2-0.3l0.5,0.1l0.1,0.3L205.8,122.7z M221.5,123v-0.3l-0.4-0.2l-0.4,0.1l0.2,0.4l-0.4,0.1
		l-0.2-0.5l0.5-0.2l0.6-0.2l0.2,0.4l0.1,0.3H221.5z M217.8,122.5l0.1,0.5l-0.3-0.3l-0.1-0.4L217.8,122.5z M207.3,122.7l-0.2-0.1
		L207.3,122.7v-0.3l-0.2-0.3l0.4,0.2L207.3,122.7z M218.6,122.1l0.2-0.2h0.3l-0.1,0.3l-0.4,0.2L218.6,122.1z M209.4,121.7l-0.2-0.2
		l-0.2-0.2l-0.3,0.4l-0.6,0.2l-0.4-0.3l0.2-0.3l0.6,0.2l0.5-0.1l0.4,0.2L209.4,121.7z M211,122.3l0.1-0.3l0.3-0.3l0.4-0.4l0.3-0.2
		l-0.2,0.3l-0.2,0.4l-0.5,0.2L211,122.3z M207.2,121.2l-0.2,0.4l-0.4,0.1l0.2-0.3L207.2,121.2z M210.1,121.5l-0.3-0.1l-0.1-0.4
		l0.3,0.1L210.1,121.5z M219.6,121.2l0.1-0.3l0.5,0.1l0.4,0.6l-0.2,0.2l-0.4-0.5L219.6,121.2z M213.2,121.7l0.1-0.4l-0.2-0.1
		l-0.3,0.1l0.3-0.5l0.5,0.5L213.2,121.7z M215.7,120.9l-0.5,0.2l0.2-0.1l0.1-0.3l0.3-0.1L215.7,120.9z M211.5,120.4l0.3,0.2
		l-0.3,0.2V120.4z M207.1,120.6l-0.1-0.4l0.3-0.2l0.1,0.4L207.1,120.6z M206,120.1h0.5v0.4l-0.4,0.2l-0.4,0.2l-0.1-0.4L206,120.1z
		 M202.1,119.9h0.5l0.1,0.4l-0.5-0.1L202.1,119.9z M219.2,119.8h0.4l0.1,0.3l-0.3-0.1L219.2,119.8z M209,121l-0.5-0.2l-0.3-0.2
		l0.4-0.5l0.7-0.4l0.2,0.3l-0.6,0.5L209,121z M205.4,119.7l0.2-0.5l0.3,0.1l-0.2,0.3L205.4,119.7z M203.8,118.5l0.4-0.1l-0.4-0.3
		V118.5z M205.4,118l0.6-0.2l-0.1-0.5L205.4,118z M202.7,116.2l0.2,0.2l0.3-0.2l-0.2-0.1L202.7,116.2z M207.2,116.6l0.6-0.6
		l-0.5-0.2l-0.3,0.5l-0.5-0.2l-0.1,0.4l0.4,0.1L207.2,116.6z M205.5,116.6l-0.3-0.4l-0.2-0.6l-0.8,0.4l-0.2,0.6h-0.6l0.1,0.5
		l0.9-0.2l0.8,0.2L205.5,116.6z M204.6,115.3l0.1-0.3l-0.3,0.1l-0.1,0.2H204.6z M205.4,114.7l-0.2,0.3l0.4-0.2L205.4,114.7z
		 M209.1,114.6l-0.4,0.2l0.4,0.2V114.6z M205.2,113.1l-0.3,0.2l0.5,0.1L205.2,113.1z M204.1,113.1l-0.4,0.1l-0.5-0.2l-0.5,0.3
		l0.4,0.3l0.9-0.1V113.1z M206.8,113.3l0.4,0.1l-0.1-0.4l-0.3-0.1L206.8,113.3z M205.6,113.2h0.5l-0.3-0.3L205.6,113.2z
		 M205.2,112.1l0.4-0.4l0.2-0.4l-0.4-0.1l-0.3,0.2l0.1,0.3l-0.1,0.2l-0.1-0.5l0.2-0.3l-0.3-0.1l-1.2,0.4l0.3,0.5L205.2,112.1z
		 M206.8,110.9l-0.1,0.2l0.3,0.2L206.8,110.9z M204.5,110.9l-0.4-0.1l0.1,0.4L204.5,110.9z M207.8,110.5l-0.1-0.2l-0.4,0.2l0.2,0.2
		L207.8,110.5z M216.6,110.9l-0.3-0.2l0.2-0.4l0.4,0.4L216.6,110.9z M215.6,110.3l-0.3,0.2l-0.4,0.4l-0.6-0.1l0.5-0.1l0.4-0.2
		l0.2-0.3l0.2,0.1L215.6,110.3z M217.8,110.4l-0.2-0.4l0.4,0.2l0.1,0.3L217.8,110.4z M216,110l-0.4-0.1v-0.2l0.4,0.1V110z
		 M207.9,109.6l-0.5,0.1l-0.1,0.4l0.6-0.1L207.9,109.6z M214.1,109.9l0.5-0.5l0.2,0.5l-0.4,0.3L214.1,109.9z M208.3,109.5h0.3
		l-0.1-0.3L208.3,109.5z M203.4,109.1l-0.3,0.1l-0.3-0.2l0.4-0.1L203.4,109.1z M216.3,108.9l0.5-0.1l0.1,0.6l-0.5,0.1L216.3,108.9z
		 M208.5,108.6h-0.5l0.3,0.4L208.5,108.6z M210.4,109.3l-0.5-0.1l-0.3-0.6l-0.3-0.1l-0.3,0.7l0.9,0.3L210.4,109.3z M216.7,108.4
		l-0.1-0.2l0.2-0.1l0.2,0.2H216.7z M213.7,108.1l-0.2-0.1l-0.3-0.1l0.2,0.1h0.3l0.1,0.1L213.7,108.1z M215.7,108.6l-0.2-0.4
		l-0.3-0.1l-0.1-0.2l0.2,0.1l0.4-0.1l0.4,0.3L215.7,108.6z M202.5,107.7l0.3,0.4l0.1,0.5l-0.5-0.4l-0.2-0.5L202.5,107.7z
		 M208.7,107.4v0.3l0.3-0.2L208.7,107.4z M217.1,107.3l1.1,0.1l0.9-0.1l-0.7,0.4l-1-0.2l-0.4,0.4l-0.5-0.3l-0.1-0.6L217.1,107.3z
		 M214.2,107.2v-0.3l0.3,0.1l0.1,0.3L214.2,107.2z M203.6,106.6l-0.1,0.3l0.4-0.1L203.6,106.6z M217.2,106.1l0.2,0.2l0.2,0.4
		l0.2,0.1l-0.4,0.2l-0.4-0.4L217.2,106.1z M220.8,106.6l-0.5-0.1v-0.4l0.4,0.1L220.8,106.6z M219.6,106l0.4,0.6l0.1,0.3l0.5-0.1
		l-0.3,1.1l0.7,0.8l-0.6,0.2l-0.7,0.3l-0.3,0.5h0.4l0.3,0.1l-0.2,0.1l-0.3,0.1l0.1,0.2l-0.4-0.1l-0.2-0.4l-0.1-0.3l-0.3-0.2
		l-0.3,0.2l-0.1,0.3l0.1,0.4l-0.4-0.3l-0.7,0.2l-0.2-0.3l0.2-0.3l0.5,0.2l0.6-0.1l0.3-0.2l0.5-0.1l-0.2-0.5h-0.8l-0.1-0.3l0.8-0.2
		l0.4-0.1v0.4l0.3,0.5l0.4-0.9l-0.5-1.2l-0.3-0.4l-0.2-0.4L219.6,106z M216.1,106.1l0.3,0.1l0.1-0.2l0.3-0.1l-0.1,0.3l-0.3,0.1
		l-0.2,0.2l-0.2-0.2L216.1,106.1z M218.6,105.8l0.1,0.2l-0.3,0.2l-0.3-0.4H218.6z M202.8,106.9l-0.4-0.8l0.5-0.3v0.3l0.2,0.5
		l0.3-0.5h0.7l0.6,0.6l0.6-0.2h0.5v0.5l-0.8-0.1l-0.7,0.6l-0.8,0.1l0.1-0.6L202.8,106.9z M208.8,106.1l-0.4,0.3l-0.6-0.3v-0.4
		l0.7,0.1L208.8,106.1z M215.2,106.1l-0.6,0.4l-0.5-0.4l0.7-0.5L215.2,106.1z M217.4,105.1v0.5l-0.2-0.3l-0.1-0.4L217.4,105.1z
		 M219.7,104.9l0.7,0.4l0.5,0.4l0.3,0.3l-0.3-0.2l-0.7-0.1l-0.7-0.2L219.7,104.9z M215.5,105l0.2,0.3h-0.6l-0.1-0.4L215.5,105z
		 M204.2,120.1l-0.7-0.7l0.6-0.3l-1.2-0.4l-0.2,0.4l-0.5,0.3L202,119l0.6-0.7l0.4-0.2l-0.8-0.2l0.3-0.7l-0.7-0.6l0.4-0.7l-0.4-0.8
		v-0.8l0.5-0.2l0.2-1l0.2-0.7l-0.4,0.2l-0.1-0.7l0.3-0.6l-0.5-0.2l0.2-0.4l0.5-0.1h0.3l0.5-0.3l0.3,0.3l0.2-0.6l-0.6-0.4l0.2-0.4
		l0.5,0.2l0.6-0.1l0.8,0.5l0.2,0.9l0.5-0.4l0.8-0.5l-0.7-0.3l-0.5-0.6h-0.7l-0.6-0.1l0.2-0.3l0.1-0.4l-0.4-0.4l-0.3-0.1l0.2-0.1
		l0.2,0.2h0.5l0.5,0.5l0.6-0.6l0.4-0.2l-0.5-0.2l0.1-0.4l0.4,0.1l0.7,0.2l-0.1,0.7l-0.8,0.6l0.7,0.6l0.2-0.3l0.7-1.2l-0.4-1
		l-0.1,0.2l-0.2,0.1l-0.2-0.3l0.2-0.1l1.2,0.1l2-0.6l0.3,0.2l-0.2,0.1l-0.7,0.4l0.3,0.6l-0.4,0.1l-0.3,0.4l0.7,0.3l1-0.8l0.3-0.7
		l0.1-0.2l-0.1,0.2l0.2,0.3v0.7l1-0.6l0.8-0.9l0.3-0.3l-0.5-0.3l-0.1-0.4l0.3,0.2l0.4-0.2l0.5-0.7l0.6,0.5l-0.8,0.9l-0.9,0.9
		l-0.2,0.8l-0.4,0.5l-0.5,0.5l0.6,0.4l-0.1,0.2h-0.8l-0.1-0.8l-1-0.4l-0.3,1.1l0.3,0.1l0.6-0.1l-0.2,0.7l-0.5,0.3l-0.3,0.1l0.1-0.3
		l0.4-0.3l-0.2-0.3l-0.6,0.3l-0.8,0.1l-0.2,0.2l0.2,0.1h-0.8l0.4,0.7h0.2l-0.2,0.1v0.4l-0.5,0.3l-0.3-0.1l0.2-0.2l-0.4-0.2l-0.3,0.5
		l0.8,0.3l-0.1,0.4l-0.5-0.1l0.1,0.5l1.1-0.4l0.7-0.8l-0.3-0.6l0.6-0.2h0.8l0.5-0.4l0.5,0.1l0.6-0.6l0.5,0.5l0.4,0.2l-0.1,0.3
		l-0.7-0.2l-1.2,0.6l-0.7,0.5l-0.2-0.4l-0.4,0.1l-0.1,0.7l-0.3,0.8l-0.7,0.4l0.4,0.6l-0.4,0.5h-0.4v0.2l0.7,0.5l-0.2,0.9l0.2,0.1
		l-0.1,0.6l-0.7-0.1l-0.6,0.4l-0.7-0.1l-0.4,0.2v0.5l0.4,0.3l0.2-0.6l1.2,0.1l0.2,0.6l-0.5,0.1l0.1,0.5h-0.8l-0.7-0.1l-0.1,0.4
		l0.5,0.2l0.3,0.3l0.2,0.3l0.8-0.6l0.8-0.7h0.3l0.4,0.4l0.3,1.2l0.3,0.6l0.2,0.2l-0.3,0.2l-0.2-0.2l-0.4-0.2l0.1-0.9l-0.2-0.5
		l-0.8-0.1l-0.5,0.8l-1.2,0.4l-0.9-0.1l0.2-0.6l-1.1-0.3l-0.5,0.8l-0.1,1.1l0.4,0.7l-0.6-0.1L204.2,120.1z M205.1,105.9l-0.3-0.5
		l-0.4-0.3l-0.4-0.4l-0.1-0.1l0.1,0.1l0.5-0.1l0.6,0.2l0.1,0.7l0.4-0.1l0.1-0.3l0.2-0.3l0.4,0.3l-0.2,0.7L205.1,105.9z M203.2,105.4
		l0.1-0.6l0.4-0.2h0.1l-0.1,0.2v0.6l-0.6,0.2L203.2,105.4z M203.4,103.8l-0.1,0.3l-0.1-0.2l-0.1-0.2L203.4,103.8z M205.8,103.5
		l-0.2,0.4l-0.6,0.2l0.2-0.4L205.8,103.5z M204,103.8v-0.6h0.4l0.1,0.7L204,103.8z M202.9,103l-0.1,0.2l-0.2,0.1l0.1,0.3l-0.1,0.3
		l-0.1-0.4l0.2-0.4H202.9z M209,103.3l0.3-0.5l0.3,0.3l-0.3,0.4L209,103.3z M206.9,103.5l-0.2,0.1l-0.2-0.1l-0.2-0.3l-0.2-0.3
		l0.3-0.1l0.1,0.4l0.3,0.2L206.9,103.5z M211.2,104.5l0.7,0.5l-0.3,0.4l0.2,0.1l0.4-0.2l0.3,0.4h-0.4l-0.3,0.1l0.2,0.6l0.4,0.4h-0.8
		l-0.4-1l-0.7,0.3l-0.6,0.1h-0.5v-0.3h0.4l0.4-0.3l0.3-0.2l-0.7-0.3l-0.7-0.3l-0.3-0.3h-0.6v0.5l0.2,0.2l0.1,0.2h0.4v0.3l-0.7,0.1
		l-0.5-0.5h-0.4l0.1-0.4l0.3-0.3l0.2,0.1l0.3-0.2l0.2-0.2l-0.5-0.9l-0.1-0.8l0.4-0.1h0.5v0.2l-0.4,0.2l0.3,0.8l0.3,0.7l0.6,0.2
		l0.2-0.4l0.4,0.1v0.7L211.2,104.5z M205,101h0.4l-0.1,0.2H205V101z M202.4,100.8l0.2,0.3l-0.1,0.3l-0.3-0.1L202.4,100.8z
		 M205.5,100.7l0.2-0.6l0.5,0.6L205.5,100.7z M207.1,100.9l0.9,0.2l0.7-0.4l-0.3-0.4l-0.3,0.3l-0.2-0.2l0.3-0.4l0.5-0.3l0.2,0.8
		l-0.4,0.9l0.3,0.2l-0.6,0.5l-0.7-0.5H207L207.1,100.9z M203.9,99.7l0.5-0.2l0.1-0.3l0.4-0.3l0.1,0.4l-0.5,0.2l-0.4,0.3h-0.3
		L203.9,99.7z M204.2,98.5l0.2,0.5l-0.6,0.1l-0.1-0.3L204.2,98.5z M208.3,98.7l-0.4-0.1l-0.1-0.3l0.3,0.1L208.3,98.7z M209.9,98.4
		l-0.1-0.3l0.3,0.1l0.1,0.3L209.9,98.4z M206.2,98v-0.3l0.3,0.1l0.1,0.3L206.2,98z M202.5,97.8l0.2-0.1l0.5,0.5l-0.5,0.4l0.2-0.4
		L202.5,97.8z M214.5,97.1l-0.5,0.4l-0.4-0.4l0.6-0.1L214.5,97.1z M208.1,97.1l-0.3-0.1l0.2-0.1h0.3L208.1,97.1z M217.5,97.5
		l-0.4-0.2l-0.1-0.4l0.3,0.2L217.5,97.5z M216.4,96.4l0.2,0.3l-0.1,0.3l-0.3-0.3L216.4,96.4z M211.2,97.9h-1l-0.8-0.3l-0.2-0.2
		l-0.3,0.2v-0.3l0.3,0.1l0.5-0.3v-0.4l0.2-0.7l0.6,0.4l-0.2,0.5l-0.3,0.4l0.5,0.3l0.7-0.2V97.9z M207.4,96.1l-0.3,0.3l-0.2-0.4
		L207.4,96.1z M212,95.7l-0.5,0.6l0.1,0.5l0.1,0.3l0.4-0.2l0.3-0.5l-0.1,0.2l0.1,0.3l-0.4,0.4l-0.3-0.1l-0.3-0.4l-0.5-0.4l-0.2-0.5
		l0.1-0.4l0.3,0.2l0.4,0.1L212,95.7z M216.8,95.4l0.5,0.1l-0.3,0.3l-0.4-0.1L216.8,95.4z M203.1,95.5l-0.1,0.2l-0.1-0.2l-0.1-0.2
		L203.1,95.5z M207.5,95.6l0.3-0.2l0.3-0.1l-0.2,0.3H207.5z M215.8,95.2l-0.3-0.1l0.2-0.4l0.4,0.2L215.8,95.2z M213.7,94.5l0.3,0.3
		h-0.4l-0.2-0.3H213.7z M212.5,93.9l0.4-0.1l-0.2,0.3l-0.3,0.1L212.5,93.9z M209.3,94l0.3-0.2h0.2l-0.1,0.2L209.3,94v0.4l0.9-0.3
		l0.9-0.4l0.1,0.3l-0.9,0.5l-0.3,1h-0.2l-0.1-0.7H209l-0.2-0.5L209.3,94z M204.2,93.2l0.1,0.3l-0.3,0.1l-0.1-0.4H204.2z M215.4,93.1
		l0.5-0.1l0.2,0.3l-0.3,0.2l-0.4-0.2l-0.4,0.1L215.4,93.1z M207.3,93.2l0.3,0.1l0.2,0.2l0.4,0.1l0.1-0.4l0.3-0.2l0.2,0.4l-0.2,0.5
		l-0.3-0.2l-0.4-0.3l-0.5-0.1V93.2z M211,92.9l0.2,0.2v0.2l-0.3-0.1L211,92.9z M209.3,92.9h0.2l0.3-0.3l0.4,0.1l-0.3,0.4H209
		L209.3,92.9z M202.3,92.6l0.4-0.1l-0.1,0.4l-0.3,0.2V92.6z M205.1,92.7l0.2-0.3l0.2-0.1l0.2,0.1l0.2-0.2l0.5,0.3l0.2,0.5l-0.7-0.1
		l-0.5-0.4l-0.1,0.3l-0.3,0.2V92.7z M212,91.4v0.3l0.1,0.3l-0.2,0.2l0.1-0.2l-0.3-0.5L212,91.4z M223.9,119.9l-0.7-1l-1.5-0.5
		l-6.8-0.1l-1,0.2l-1.1-0.1l-1.1,0.1l-1.1-0.6l-0.5-1.6l0.1-2.5l0.5-1.1l0.9-0.6h2l1-0.1l2.7,0.2l1.4-0.1l1.1,0.1l0.9-0.1l1-0.6
		l0.5-1l0.1-4l-0.1-1l-0.5-1l-0.9-0.6l-2-0.1l-1,0.1h-1.1l-1.2-0.1l-4,0.1l-0.9-0.6l-0.6-0.9l-0.1-1.6l0.5-1.5l1.6-0.5l9.8-0.1
		l1.1-0.6l0.6-0.9l-0.1-2.1l-0.2-1l0.1-1.1l0.2-1l-0.5-1l-1.1-0.5l-4.1-0.1l-0.9,0.1l-1-0.2l-2.2,0.1l-1-0.1l-2,0.1l-0.9-0.1
		l-6.7,0.2l-1.5,0.4l-0.5,1.1l0.1,2l-0.2,1.5l0.2,2.6l-0.1,1.1l0.1,0.9v9.2l-0.2,1.1l0.2,2l-0.1,2l0.2,1.1l-0.1,1.1l0.1,1l-0.2,0.9
		l0.1,1.2v1l0.1,2l-0.1,1l-0.2,1l0.7,1l1,0.6l11.6-0.1l0.9,0.2l3.1-0.2l3.1,0.2l1-0.1l1.1-0.5l0.5-1l0.1-1l-0.1-3.2L223.9,119.9z"/>
	<g>
		<defs>
			<filter id="Adobe_OpacityMaskFilter" filterUnits="userSpaceOnUse" x="-5" y="1.1" width="690" height="115.2">
				<feColorMatrix  type="matrix" values="1 0 0 0 0  0 1 0 0 0  0 0 1 0 0  0 0 0 1 0"/>
			</filter>
		</defs>
		<mask maskUnits="userSpaceOnUse" x="-5" y="1.1" width="690" height="115.2" id="SVGID_1_">
			<g class="st2">
				<g>
					<defs>
						<rect id="SVGID_2_" x="-8.6" y="-6.6" width="691.2" height="125.8"/>
					</defs>
					<clipPath id="SVGID_3_">
						<use xlink:href="#SVGID_2_"  style="overflow:visible;"/>
					</clipPath>
					<g style="clip-path:url(#SVGID_3_);">
						
							<image style="overflow:visible;" width="1440" height="262" xlink:href="EAED3B0C20CA19D3.jpg"  transform="matrix(0.48 0 0 0.48 -8.5624 -6.5634)">
						</image>
					</g>
				</g>
			</g>
		</mask>
		<g class="st3">
			<g>
				<defs>
					<polygon id="SVGID_4_" points="-1,116.3 685,116.3 685,1.1 -5,1.1 					"/>
				</defs>
				<clipPath id="SVGID_5_">
					<use xlink:href="#SVGID_4_"  style="overflow:visible;"/>
				</clipPath>
				<polygon class="st4" points="-5,1.1 685,1.1 685,116.3 -1,116.3 				"/>
			</g>
		</g>
		<path class="st0" d="M678.1,72.3V0H-1.7L-2,82.2c0,0,404.2-9.6,417.3-5.4c-0.3,5.1-4.5,22.5,3.3,26.6c7.8,4.2,66.1,4.6,66.1,4.6
			s113.2,5.2,127-6.7c8.7-7.5-1.8-14.9,1.1-27.4L678.1,72.3z"/>
		<path class="st1" d="M589,84.2c0.5-0.1,1,0.1,1.1,0.7c0,0.6-0.2,1.5-1.3,1.8c-0.1,0-0.2,0-0.3,0.1v-2.4
			C588.7,84.2,588.8,84.2,589,84.2 M594.3,93.6c-1.1-1.3-2.4-3.1-3.5-4.8c1.5-0.7,2.3-2.1,2.2-4.1c-0.1-2.2-1.6-3.3-4-3.1
			c-0.1,0-0.3,0-0.4,0v-0.3l-3,0.5c0.1,4.2,0.2,8.6,0,12.7c1-0.3,2.3-0.3,3-0.4c0-1.2,0-2.5,0-3.8c0.8,1.2,1.6,2.4,2.4,3.8
			L594.3,93.6z M579.7,92c-1.1,0-1.3-1.7-1.3-3.5c0-2.3,0.4-4.3,1.6-4.3c1,0,1.3,1.5,1.3,3.4C581.3,89.7,581,92,579.7,92
			 M579.6,94.8c2.6,0,4.2-2.1,4.5-6.2c0.2-3.4-0.6-7.3-4.1-7.3c-3,0-4.6,2.9-4.6,7.1C575.4,91.9,576.6,94.8,579.6,94.8 M574.7,84.1
			l-0.2-2.7c-0.2,0-0.5,0.1-0.8,0.1v-0.1c-0.3,0-2.8,0.2-3.1,0.2c0,0,0,0.1,0,0.1c-0.6,0-1,0-1.3,0.1l0.2,2.7
			c0.3-0.1,0.8-0.1,1.3-0.2c0.1,1.8,0.2,3.7,0.1,5.1c0,1.3,0,2.4-0.6,2.4c-0.6,0-0.7-1.6-0.6-2.4l-2.7,0.3c0,1.9,0.5,4.9,3.5,4.8
			c2.3-0.1,3-1.6,3.2-3.8c0.1-1.3,0-4.3,0-6.6C574.1,84.1,574.4,84.1,574.7,84.1 M566,90.5c-0.3,0.3-1.1,0.8-1.7,1
			c-1,0.4-1.6,0.1-1.8-1.1c0-0.3,0-1,0-1.9c0.9-0.1,1.9-0.3,2.5-0.4c0-0.9-0.1-1.8-0.1-2.7c-0.6,0.2-1.5,0.3-2.3,0.5
			c0-0.6,0.1-1.1,0.1-1.6c1.1-0.2,2.3-0.4,3.5-0.3c0-0.8,0-1.7,0-2.8c-0.9,0.2-2.1,0.4-3.2,0.5c0-0.1,0-0.2,0-0.3l-3.1,0.2
			c0.1,0.8-0.6,9.4,0.1,11.2c0.7,1.9,2.8,1.8,3.5,1.7c1.1-0.1,2.3-0.6,2.8-1L566,90.5z M558.9,93.6c-0.8-4.1-1.5-7.8-2-11.9l-0.2,0
			l-2.7-0.1c-0.2,1.8-0.5,3.7-0.9,5.7c-0.3-1.7-0.6-3.4-0.9-5.3v0l-2.6-0.4c0,0.2-0.1,0.7-0.3,1.4l0,0l0,0.1
			c-0.5,2.5-1.5,7.3-2.3,10.4l2.8,0.8c0.2-1.6,0.5-3.6,0.9-5.5c0.3,1.6,0.6,3.2,0.8,5v0h2.7c0-0.1,0.4-2.3,0.9-4.9
			c0.3,1.8,0.6,3.6,0.8,5.4L558.9,93.6z M541.4,94.4l0.3-0.1h0.2l0.3-0.1l0.2,0h0.2l0.1-0.2l0.2-0.2l0.1,0l0.2-0.2l0.2-0.1l0-0.2
			l0.1-0.2l0.2-0.2l-0.1-0.1l0.2-0.1v-0.2l0.1-0.2l-0.1-0.3l0.2-0.3l0-0.2l0-0.3l0-0.2l-0.1-0.1l0-0.2l0-0.3l-0.1-0.2l0,0l-0.1-0.2
			l-0.1-0.3l-0.3-0.1l-0.2-0.2l-0.2-0.2l0-0.1h-0.4V89l-0.2,0l-0.1,0l-0.3-0.2l0,0.1l-0.4-0.1l-0.1-0.1l-0.1-0.2l-0.2-0.1l-0.2-0.3
			l0.1-0.1l0.1-0.4l0-0.3l0.1-0.1l0-0.1l0.3-0.2v0l0.3-0.1l0.5-0.1l0.1,0.1l0.2,0.1l0,0.1l0.2,0.1l0.4,0.1V87l0.2-0.1l0-0.2l0-0.1
			l0.3-0.2l-0.1-0.2l-0.2-0.2l-0.2,0l-0.3-0.1l-0.1,0l-0.2,0l0-0.1l-0.3-0.1l-0.2,0.1l-0.5-0.1l-0.1,0l-0.2,0.1l-0.2,0.1l-0.2,0.1
			l0,0l-0.4,0.1l-0.2,0.2l-0.1,0.1l0,0.2l-0.2,0.1v0.3l-0.1,0.1v0l0,0.2l0,0.2l-0.2,0.4l0.1,0.3l0.1,0.2l0.1,0.2l-0.1,0.1l0.1,0.2
			l-0.1,0.1l0.1,0.2l0.3,0.2l0.1,0.3l0.3,0.1l0.1,0.2l0.2,0l0.1,0.1l0.3,0l0.1,0.1l0.2-0.1l0.3,0.2l0,0l0.4,0.3l0.1,0l0.1,0.2
			l0.1,0.1l0.1,0.1v0.2l0.1,0.5l0,0.2l-0.1,0.2l0.1,0.2l-0.1,0.1l-0.1,0.2l-0.2,0.2l-0.2,0.1l0,0.2h-0.2l-0.6-0.1l-0.1-0.1l-0.1-0.1
			l-0.2-0.1l-0.2,0l0.1-0.2l-0.3-0.1l0-0.1l-0.1-0.2l-0.3-0.1l-0.2,0.2l0,0l-0.1,0.3l-0.3,0l-0.1,0.1l0,0.4l0.3,0.2l-0.1,0.1
			l0.3,0.2l0,0.1l0.3,0.2l0,0.1l0.3,0.2l0.1,0.1l0.2,0.1l0.2,0l0.2,0l0.2,0.1L541.4,94.4z M536.4,93l-0.7,0.2l0-0.1l-0.2-0.1
			l-0.1-0.1l-0.1-0.2l0.1,0l-0.2-0.2v-0.2L535,92l0.1-0.2l-0.2-0.2l0.2-0.1l-0.1-0.4l-0.1-0.1l-0.1-0.2l-0.1-0.3l0.1-0.1l0.1-0.3
			l0-0.3l0.1-0.2l-0.2-0.1l0-0.1V89l0.3-0.3l-0.1-0.1l0.1-0.3v0l0.1-0.3l0.1-0.2l0-0.1l0.2-0.3l0.2-0.1v-0.1l0.2-0.1l0.1,0l0.5,0
			l0.2,0l0.1,0l0.2,0.2l0,0.2l0.2,0.1l0,0.3l0,0.2l0,0.2l0,0.2l0.2,0.2l0,0.1l-0.1,0.3l0.1,0.2l-0.1,0.2l0.2,0.3l0,0l-0.1,0.4
			l0.1,0.3l-0.2,0.2l0,0.1l0,0.2l0.1,0.1l-0.1,0.2l0,0.2l-0.1,0.3l-0.2,0.2l-0.1,0.2l0.1,0.1l-0.1,0.3l-0.2,0.2l0,0.2l-0.2,0
			L536.4,93z M536,94.3l0.4,0l0.1-0.1l0,0.1l0.2,0L537,94l0.2-0.1h0.2l0-0.1l0.3-0.1l0-0.2l0.2-0.2l0-0.1L538,93l0.3-0.2l-0.1-0.1
			l0.2-0.1l0.1-0.3l0-0.2l0-0.2l0-0.1v-0.3l0.1-0.2l0.1,0l-0.1-0.3l0.1-0.2l0-0.1l-0.2-0.3v-0.1l0.1-0.4l-0.1-0.4l0.1-0.1l-0.2-0.2
			l0-0.1l0.1-0.2l0-0.2l-0.1-0.1l0.2-0.2l-0.1-0.2l0-0.2l-0.2-0.2l-0.1-0.2l-0.1-0.2l0-0.2l0.1-0.1l-0.3-0.1l0-0.3l-0.1,0l0-0.3
			l-0.4-0.1l-0.1-0.1h-0.1l-0.1,0l-0.4-0.2l-0.1-0.1l0,0l-0.1,0.1l-0.5,0l-0.1-0.1l-0.2,0.1h-0.3l-0.1,0.2l0,0l-0.2,0.1l-0.2,0.1
			l-0.1,0.1l-0.2,0.1l0,0.2l-0.2,0.1l-0.2,0.2h0.1l-0.2,0.2l0,0.3l-0.1,0.2l-0.1,0.2l-0.1,0.1l0.1,0.2l-0.2,0.1l0.1,0.3v0.1
			l-0.1,0.1v0.2l-0.1,0.2l0,0.2l-0.1,0.2l0.1,0.2l-0.1,0.4l0,0l0,0.3l0.1,0l-0.1,0.3l0,0.2l0.2,0.1l0,0.3l-0.2,0.2l0.2,0.1l0,0.2
			l0,0.1l0.3,0.2l0.1,0.2l0,0.2l0.2,0.2l-0.1,0l0.2,0.2l0,0.2l0.2,0.2l0.1,0l0.1,0.2l0.2,0.2l0.2,0l0.4,0.1l0.1,0.1l0,0L536,94.3z
			 M532.4,88.2l-0.2-0.4l0.1-0.3l0-0.1l0-0.2l-0.1-0.3v-0.2l-0.1-0.2l-0.2-0.2l0.1-0.1l-0.3-0.2l0-0.1l-0.2-0.2l-0.2-0.1l-0.2-0.1
			l-0.2-0.1l-0.1-0.1l-0.2,0l-0.3,0l-0.4,0.2l-0.2,0h-0.2l-0.1,0.2l-0.2,0.1l0,0.1l0,0.2l-0.2,0l-0.2-0.1l0-0.2l-0.3-0.2h-0.1
			l-0.1-0.1l-0.3,0l-0.1,0l-0.3,0l-0.4,0.2l-0.2-0.1v0.1l-0.1,0.3l-0.4-0.2l0.2-0.1l0-0.2l-0.3-0.1l-0.3,0l-0.1-0.1l-0.2,0.1l-0.2,0
			v0.1l-0.2,0.2l-0.3,0.1l0.1,0.2l0.1,0.3l-0.1,0v0.2l0,0.2l0,0.3l0.1,0.1l-0.1,0.2l0,0.3l0,0l0.2,0.2l-0.1,0.3l-0.1,0l0,0.2
			l0.2,0.3l-0.2,0.2l0,0.3l0,0.1l0.1,0.1l-0.2,0.3l0.2,0.1l0,0.1l-0.1,0.2l0,0.4v0.2l0.1,0.2l0.1,0.1l-0.1,0.3l0,0.1l0.1,0.2
			l-0.1,0.2l-0.1,0l0.2,0.2l0,0.2l-0.2,0.2v0.2l0.2,0.2v0.1l-0.1,0.2l0.1,0.2l-0.2,0.3l0.1,0.2l-0.1,0.3l0.3,0l0.1,0h0.2l0.1,0.1
			h0.2l0.3-0.1l0,0l0.4-0.3l0-0.1l-0.2-0.3l0.1-0.2l0-0.2l-0.2-0.2l0.1,0l0.1-0.4l0-0.2l0,0l-0.2-0.2l0.1-0.2l-0.1-0.3l-0.1-0.1
			l0.2-0.3l-0.1-0.2l0-0.2l0.1-0.1l0-0.2v-0.3l0-0.1l-0.1-0.1l0-0.4l0.1,0l-0.1-0.2l0-0.2l0-0.1l0.1-0.2l-0.1-0.3l0-0.2v-0.2
			l0.2-0.1l-0.2-0.3l0.2-0.3l0.1-0.2l0.1-0.1l0.1-0.1l0.1-0.1l0.4,0l0.1,0.1l0.2,0.2l0.2,0l0.2,0.3l-0.1,0.1l0.1,0.2l-0.1,0.2
			l0.1,0.3l-0.1,0.2l0.2,0.4l-0.1,0.2l-0.1,0.3l0.1,0.1l0.1,0.1l-0.2,0.2l0.2,0.2l0,0.3l-0.2,0.1l0.2,0.2l-0.2,0.2l0.1,0.3l0,0.2
			l0.1,0.2l-0.1,0.1l0,0.3l-0.1,0.1l0.1,0.2l-0.1,0.3l0.1,0.1l0.1,0.2l-0.2,0.1l0.1,0.1l-0.1,0.3l0,0.2l0.2,0.2v0.1v0.4v0l0.4-0.1
			l0,0.1l0.3,0.1l0.3-0.1l0-0.1l0.2-0.2l0.2-0.1l0-0.3l-0.1-0.1l0.1-0.2l0-0.2l-0.2-0.3l0-0.2l0.1-0.1l0-0.2l0.1-0.1l0-0.2l-0.2-0.1
			l0-0.3l0-0.2l0-0.2l0-0.3l0-0.1l-0.1-0.1l0.2-0.3l-0.2-0.1l0.2-0.2l-0.1-0.1l0-0.3l0.1-0.1l-0.1-0.3l0.1-0.1l-0.1-0.2l0-0.2
			l0.1-0.2l-0.1-0.2l0.1-0.3l0.2-0.1l0-0.3l0.1,0l0.3-0.2l0.1-0.2l0.3-0.2l0.1,0.1l0.2,0.2l0.1,0.1l0.1,0.4l0,0.2l0.1,0l0,0.3
			l0.2,0.1l-0.1,0.5l0.1,0.1l0,0.2l0,0.3l0,0.1l-0.1,0.2l0.1,0.2l0,0.3l0,0l0.1,0.2l0,0.2l0,0.3l0,0.3l0,0.1l0.2,0.1l-0.2,0.2
			l0.2,0.1l0,0.4l-0.1,0l0,0.3l0.1,0.2l0,0.2l0.2,0.2l-0.1,0.2l0.1,0.2l-0.1,0l0,0.3l0.1,0.1l-0.1,0.3l0.2,0.2h0.1l0.4-0.1l0.1,0
			l0.3-0.1l0.2-0.1l0.2-0.1l-0.1-0.3l0.1-0.1l0-0.3l-0.2,0l0-0.2l0.1-0.3l-0.1-0.1l0-0.2l0.2-0.2l-0.1-0.2l0.1-0.1l0-0.2l-0.1-0.2
			l0.1-0.3l-0.2-0.1l0.1-0.3l0-0.2l0.1-0.2l0.1-0.2l0-0.3v-0.2l-0.2-0.2l0.1-0.1l0-0.1l0-0.3v-0.2l-0.1-0.1v-0.2L532.4,88.2z
			 M521.4,87.1l0.3-0.2l0.2,0.1l0.2,0.2l0.1,0.1l0.1,0.2l0.2,0.1l0,0.3l0.2,0.2l0.1,0.2l-0.1,0.1l0,0.2l0.1,0.2l-0.1,0.2l0.1,0.1
			l-0.1,0.3l-0.3,0l-0.2,0.1l-0.1,0l-0.1,0.1l-0.1-0.1l-0.4,0.2l0-0.1l-0.5,0.1l-0.2-0.1l0,0.1l-0.2-0.3l-0.1-0.1l0-0.2l0.1-0.3
			l-0.1-0.2l0.2-0.1l0.1-0.2l0-0.2l-0.1-0.1l0.2-0.2l0.1-0.2v-0.2l0.1-0.1l0.4,0L521.4,87.1z M521.8,85.8l-0.4,0l-0.1,0.1l-0.3,0.1
			l-0.2,0.1l-0.1,0.1l-0.1,0.1l-0.2,0.1l-0.2,0.2h0l-0.2,0.3l-0.1,0.1l-0.1,0.2l-0.1,0.1l-0.1,0.2l-0.1,0.2l0.1,0.1l-0.2,0.2
			l0.1,0.2l0,0.3l-0.1,0.2l-0.1,0.1l0.1,0.2l-0.1,0.1l-0.1,0.3l0.1,0l-0.2,0.3l0,0.3l0,0.2l0.1,0.2l0,0.3l0,0.2l0.1,0.3l-0.1,0.1
			l0,0.2v0.3l0.1,0.2l0.1,0.2l0.1,0.2l-0.1,0.2l0.1,0.2l0,0l0.1,0.2l0.1,0.2l0.1,0.2l0.1,0.1l0.1,0.1l0.3,0.2l-0.1,0.2l0.2,0.1
			l0.2,0l0.2,0.2l0.3,0.1l0.1,0h0.2l0.2-0.1l0.3,0.1l0.3-0.1l0.2,0l0.3,0l0.2-0.1l0.1-0.1l0.2-0.1l0.2,0l0.1-0.1l0.1-0.2l0.1-0.1
			l0.3-0.3l0.1-0.2l-0.1-0.2l0.2,0l-0.2-0.3l-0.2-0.2l0.1-0.1l-0.2-0.1l-0.3,0l-0.1-0.1l-0.3,0l0.2,0.1l-0.3,0.2l-0.1,0.2l-0.1,0.2
			l0,0.1l-0.3,0.2l-0.2,0l0,0.2h-0.2l-0.4,0.1l-0.1-0.2l-0.2,0l0-0.3l-0.1,0l-0.1-0.2l-0.2-0.3l-0.1-0.1l0.2-0.1l-0.1-0.2l0-0.3l0,0
			l-0.2-0.3l0.2-0.2l0-0.1l0.2-0.1l0.3,0l0.2,0l0,0l0.3-0.1l0.1,0h0.3l0.2-0.1l0,0.1l0.3-0.2l0.1,0l0.3,0h0.1l0.1,0l0.2-0.2l0.2,0.1
			l0.1-0.1l0.4-0.1l0-0.3v0l-0.1-0.3l0.1-0.3l-0.2,0l0-0.2l-0.1-0.4l-0.1-0.1l0.1-0.2l0-0.2l-0.1-0.1l-0.2-0.2l0.1-0.2l-0.1-0.3
			l-0.1-0.1l-0.1-0.4l0-0.1l-0.2-0.2l0-0.1l-0.3-0.2l-0.1-0.2l-0.1-0.1l0.1-0.1l-0.2-0.1l-0.3-0.1l0-0.1l-0.3,0l-0.1-0.1l-0.2,0.1
			L521.8,85.8z M516.1,94.3l0.4,0.1l0.3,0l0.1,0l0.3-0.1l0.1,0l0.1-0.3l0.2-0.1l0.1,0l0.2-0.1l0.1-0.2l0.2-0.2l0.1-0.1l0.1-0.3
			l0.2-0.2l0-0.2l0-0.2l0-0.1l0-0.3l-0.2,0l-0.4-0.1l0-0.2l-0.3-0.2l-0.1,0.1l-0.1,0.1l0.1,0.3l0,0.1l-0.1,0.2l-0.1,0.3l0,0.1
			l-0.2,0.2l-0.2,0.2l-0.1,0l-0.3,0.1l-0.3,0l0-0.1l-0.3-0.2l-0.1-0.1l-0.1-0.1l0-0.3l-0.3-0.2l-0.1,0l0.1-0.2l-0.2-0.2l-0.1-0.1
			l0.1-0.1l0-0.3l-0.1,0l0-0.4l-0.1-0.2l0.1-0.1l-0.1-0.2l0-0.4l0.2-0.3l0-0.1l-0.1-0.3l0.1-0.2l-0.1-0.2l0.2-0.1l0.1-0.3l0-0.1
			l0.1-0.3l0.1-0.1l-0.1-0.3l0.3-0.1l0-0.1l0.2-0.1l0.2-0.1l0.1-0.1l0.1-0.1l0.4,0l0.1,0.2l0.2,0.1l0.1,0l0.2,0.2l0.3,0.1l0.2,0
			l0.1-0.2l0.2-0.1l0.1,0l0.1-0.2l0.1-0.2l-0.1-0.2l-0.3-0.2l-0.1-0.2l-0.1,0l0-0.1l-0.4-0.2l-0.2,0l0-0.1H517l-0.1,0l-0.2,0
			l-0.4,0.1l-0.3-0.1l-0.2,0.1l-0.1,0.1l-0.2,0l-0.3,0l-0.2,0.1v0l-0.1,0.3l-0.2,0.1l-0.2,0.2l-0.2,0.1l0,0l-0.1,0.4l-0.1,0.1
			l-0.1,0.1l0,0.2l0,0.1l-0.2,0.2l0.1,0.2l0,0.2l-0.2,0.2l-0.1,0.1l0,0.2l-0.1,0.2l0,0.3l0,0.2l-0.1,0.1l0,0.3l0.2,0.3l-0.1,0.2
			l-0.1,0.3l0.2,0.1v0.2l0,0.2l0.1,0.1l0,0.2l0.1,0.2l-0.1,0.2l0,0.1v0.2l0.2,0.2l0.2,0l0,0.3l0,0.1l0.2,0.2l0,0.2l0.3,0.2l0.2,0.1
			l0.2,0.1l0,0.1l0.3,0l0.1,0.2l0.2-0.1l0,0L516.1,94.3z M510.4,93.1l-0.5,0l-0.2,0l0-0.1l-0.3-0.3l0-0.1l-0.2-0.3l0.1,0l-0.1-0.3
			L509,92v-0.2l-0.1-0.2l0.1-0.2l0-0.2l-0.1-0.2l0.1-0.3l0-0.2v-0.2l0-0.4l0.1-0.2l-0.1-0.2l0,0l0.1-0.2l0-0.3l0.1-0.2l0.1-0.2
			l-0.1-0.2l0.1-0.2l0.2-0.1v-0.2l0-0.2l0.1-0.2l0.2-0.1l0.1,0l0.3-0.2l0,0l0.4,0.1l0.2,0l0.3,0l0.1,0.1l0,0.1l0.3,0.4l-0.2,0.2
			l0,0.2l0,0.1v0.2l0.2,0.3l0,0.1l0,0.3l0,0.1v0.2l0,0.3l0,0l0,0.2l0.1,0.4l-0.2,0.1v0.1l0,0.3l0.1,0.1l-0.1,0.2l0.2,0.2v0.2l0,0.2
			l-0.1,0.2l-0.1,0.4l-0.2,0.1l-0.2,0.2l0,0l-0.3,0L510.4,93.1z M512.9,93.9l0.1-0.3l-0.2-0.1l0-0.1l-0.2-0.2l0.1-0.3l-0.2-0.1
			l0-0.2l0.1-0.3l-0.2-0.4l0.1-0.1l0-0.1l-0.1-0.2l0-0.2l-0.1-0.2l0-0.2l0.1-0.2l0-0.3l-0.2,0l0.2-0.3l-0.2-0.2l0.1-0.2l0-0.2
			l-0.2-0.2l0-0.1l0-0.2l0.2-0.2l-0.2-0.2l0-0.2l0.1-0.2l-0.2-0.3l0.2-0.2l0-0.1l-0.1-0.3l0-0.2l-0.1-0.1l0.1-0.1l0-0.3l0-0.1
			l0.1-0.2l-0.2-0.2l0.2-0.2l-0.2-0.3l-0.4,0.1l0-0.1l-0.4,0.1l-0.1-0.1l-0.2,0l-0.2,0.2l0,0.2l-0.1,0.1l-0.2-0.2l-0.2,0l-0.3,0
			l-0.1-0.1h-0.4h-0.2l-0.1,0.2l-0.1,0l-0.3,0l0,0.2l-0.2,0.1l-0.1,0.1l-0.1,0.2l-0.3,0l0.1,0.3l-0.3,0.1l0.1,0.1l-0.2,0.2l-0.1,0.2
			l0.1,0.1l-0.2,0.3l-0.1,0.2l0,0l0.1,0.3l-0.1,0.2l-0.1,0.3l0,0.1l-0.1,0.2l0.1,0.2l-0.2,0l0.1,0.3l0,0.3l0.1,0.2l-0.1,0.2
			l-0.1,0.3l0.2,0.2l0,0.1l-0.1,0.3l0.2,0.1l0,0.3l-0.1,0.2l0.1,0.2l0.1,0.2l0,0.3l0.1,0.1l0.1,0.2l0,0.2l0.2,0.2l-0.1,0.2l0.1,0
			l0.3,0.3l0,0.1l0.3,0.1l0.2,0l0,0l0.3,0.1l0.2,0.1l0.2,0.1l0.4,0l0.2,0.1l0.1-0.2h0.2l0.1-0.1l0.1-0.1l0.3-0.2l0.3,0.1l-0.1,0.3
			l0.4,0.1l0.2-0.2v0.1l0.4-0.1l0.2-0.2H512.9z M504.6,85.5l-0.5,0l0,0.1l-0.3,0l0,0.2l-0.2,0l-0.1,0.2h-0.3l-0.1-0.3l0.1-0.1
			l-0.1-0.3L503,85l0.2-0.2l0-0.1l0-0.3l-0.2-0.1l0.2-0.3l-0.1-0.2l-0.1-0.3l0.2-0.1l0-0.1l0-0.3l0-0.1l0-0.2l0-0.3l-0.1-0.1l0-0.3
			l0-0.2l0-0.1l0-0.1l-0.1-0.3l0-0.2l0-0.2l-0.4,0.2l-0.2-0.1l0,0.1l-0.4,0l-0.2,0.1l-0.2,0.1l0,0.2l0,0.1l0.1,0.3v0l0,0.3l-0.1,0.1
			l0,0.2l0,0.1l0,0.3l0.1,0.1l0.2,0.3l0,0.2l-0.1,0.1l0.1,0.2l-0.1,0.3l0,0.1l0.2,0.3l-0.1,0.1l0,0.2l0.2,0.3l-0.2,0.1l0.2,0.1
			l-0.2,0.3l0.1,0.1l-0.1,0.4v0.1l0.1,0.2l-0.1,0.2l0.1,0.3l-0.1,0.1l0.1,0.3l0,0.2l0,0.1l0,0.2l0.1,0.2l-0.2,0.1l0.1,0.1l0,0.3
			l0,0.2l0.1,0.3l-0.1,0.1l-0.1,0.3l0.1,0.3l0.2,0.2l-0.1,0.2l0,0.2l-0.1,0.1l-0.1,0.2l0.2,0.1v0.3l0,0.1l-0.1,0.3l0,0.2l-0.1,0.1
			l0.2,0.3l-0.1,0.2l0.1,0.1l0,0.2l0,0.3l-0.1,0.2l0,0.1l0.2,0.3l0,0.2l-0.1,0.1l0.1,0.2l-0.1,0.3v0.1l0.1,0.2l0.4,0l0.1-0.2
			l0.2,0.1l0.2-0.1l0.1-0.1l0.2,0l0.1-0.1l0.2-0.2l-0.1-0.2l-0.1-0.3l-0.1-0.1l0.1-0.1l0.1-0.3l-0.1-0.1l0.1-0.3l-0.1-0.1l0.1-0.3
			l-0.1-0.2l-0.2-0.2l0-0.3l0.1,0l-0.1-0.3l0.1-0.2l0-0.3l-0.2-0.2l0-0.1l0-0.1l0.1-0.2l-0.1-0.2l0-0.3l0-0.1l-0.1-0.3l0.1-0.2l0,0
			l0-0.3l-0.1-0.1l-0.1-0.1l0.2-0.2l0-0.5h0.2l0.1-0.2l0.1,0l0-0.2l0.3-0.1l0.2-0.1l0.2-0.1l0.2,0l0.1,0.2l0.1,0l0.1,0.2l0.1,0.3
			l0,0.1l0,0.2l0.1,0.2l0.2,0.2l-0.1,0.1l0.1,0.1l-0.1,0.2l0,0.3l0.1,0.1l-0.2,0.2l0.3,0.2l-0.1,0.1v0.3l0,0.2l-0.1,0.1l0.1,0.2
			l0,0.2l-0.1,0.1l-0.1,0.2l0.2,0.3l-0.1,0.2l0,0.2l0.1,0.1l-0.1,0.1l-0.1,0.3l0,0.2l0,0.3v0.1l0.1,0.1l-0.1,0.2v0.3l0.1,0.1l0,0.2
			l0.3,0.3l0.1-0.1L506,94l0.2,0l0.1-0.2l0,0l0.3-0.1v-0.1l0.1-0.2l0-0.3l-0.2-0.1l0.1-0.2l0-0.2l0-0.4l-0.1,0l0.1-0.2l0.1-0.2
			l0-0.3v-0.3l0.1-0.2l0-0.2l-0.2-0.1l0.1-0.2v-0.2l-0.1-0.2l0-0.2l0.2-0.1l0-0.3l-0.2-0.1l0-0.3l0,0l0.1-0.3l-0.1-0.2l-0.1-0.3
			l0.1-0.2l0-0.1l0.1-0.3l-0.1-0.1l-0.1-0.2l0.1-0.3l-0.3-0.2l0.1-0.2l-0.2-0.1l0.1-0.2l-0.2-0.1l-0.1-0.3l-0.2-0.2l-0.1-0.1
			l-0.1-0.1l-0.2-0.1l0-0.1l-0.3,0l0,0l-0.2,0L504.6,85.5z M495.4,93l-0.7,0.2l0-0.1l-0.2-0.1l-0.1-0.1l-0.1-0.2l0.1,0l-0.2-0.2
			v-0.2l-0.1-0.2l0.1-0.2l-0.2-0.2l0.2-0.1l-0.1-0.4l-0.1-0.1l-0.1-0.2l-0.1-0.3l0.1-0.1l0.1-0.3l0-0.3l0.1-0.2l-0.2-0.1l0-0.1V89
			l0.3-0.3l-0.1-0.1l0.1-0.3v0l0.1-0.3l0.1-0.2l0-0.1l0.2-0.3l0.2-0.1v-0.1l0.2-0.1l0.1,0l0.5,0l0.2,0l0.1,0l0.2,0.2l0,0.2l0.2,0.1
			l0,0.3l0,0.2l0,0.2l0,0.2l0.2,0.2l0,0.1l-0.1,0.3l0.1,0.2l-0.1,0.2l0.2,0.3l0,0l-0.1,0.4l0.1,0.3l-0.2,0.2l0,0.1l0,0.2l0.1,0.1
			l-0.1,0.2l0,0.2l-0.1,0.3l-0.2,0.2l-0.1,0.2l0.1,0.1l-0.1,0.3l-0.2,0.2l0,0.2l-0.2,0L495.4,93z M494.9,94.3l0.4,0l0.1-0.1l0,0.1
			l0.2,0l0.2-0.2l0.2-0.1h0.2l0-0.1l0.3-0.1l0-0.2l0.2-0.2l0-0.1l0.1-0.2l0.3-0.2l-0.1-0.1l0.2-0.1l0.1-0.3l0-0.2l0-0.2l0-0.1v-0.3
			l0.1-0.2l0.1,0l-0.1-0.3l0.1-0.2l0-0.1l-0.2-0.3v-0.1l0.1-0.4l-0.1-0.4l0.1-0.1l-0.2-0.2l0-0.1l0.1-0.2l0-0.2l-0.1-0.1l0.2-0.2
			l-0.1-0.2l0-0.2l-0.2-0.2l-0.1-0.2l-0.1-0.2l0-0.2l0.1-0.1l-0.3-0.1l0-0.3l-0.1,0l0-0.3l-0.4-0.1l-0.1-0.1h-0.1l-0.1,0l-0.4-0.2
			l-0.1-0.1l0,0l-0.1,0.1l-0.5,0l-0.1-0.1l-0.2,0.1h-0.3l-0.1,0.2l0,0l-0.2,0.1l-0.2,0.1l-0.1,0.1l-0.2,0.1l0,0.2l-0.2,0.1l-0.2,0.2
			h0.1l-0.2,0.2l0,0.3l-0.1,0.2l-0.1,0.2l-0.1,0.1l0.1,0.2l-0.2,0.1l0.1,0.3v0.1l-0.1,0.1v0.2l-0.1,0.2l0,0.2l-0.1,0.2l0.1,0.2
			l-0.1,0.4l0,0l0,0.3l0.1,0l-0.1,0.3l0,0.2l0.2,0.1l0,0.3l-0.2,0.2l0.2,0.1l0,0.2l0,0.1l0.3,0.2l0.1,0.2l0,0.2l0.2,0.2l-0.1,0
			l0.2,0.2l0,0.2l0.2,0.2l0.1,0l0.1,0.2l0.2,0.2l0.2,0l0.4,0.1l0.1,0.1l0,0L494.9,94.3z M489.8,94.1l0.1,0.2l0.4-0.1l0.1,0l0,0
			l0.3-0.2l0,0l0.2,0.1l0.2-0.3l0.1-0.3l-0.1-0.2l-0.1-0.2v-0.2l0.2-0.1l-0.1-0.2l0.1-0.3l-0.1-0.2l-0.1-0.1l0.1-0.1l0.1-0.4l0-0.2
			l-0.1-0.1l0-0.2v-0.1l-0.2-0.3l0-0.2l0.1,0l0-0.3l-0.1-0.2l0-0.1l0.1-0.3l-0.1,0l0-0.3l0.2-0.1l-0.1-0.2l0.1-0.3l-0.2-0.2l0.1-0.3
			l0.1,0l-0.1-0.4l0,0l-0.1-0.2l0.1-0.3l0-0.2l0.1-0.2l0-0.1l0-0.3l0-0.1l0-0.2l0-0.2l-0.1-0.2l0-0.1l0.1-0.2l0-0.2l0.1-0.2l0-0.2
			l0-0.1l0-0.4l0-0.1l0.1-0.3v-0.1l0-0.1l-0.1-0.4l0-0.2v-0.2l0.1-0.2l0.1-0.1v-0.4l-0.1,0l0.1-0.3v-0.3l-0.2,0l0.1-0.2l0.1-0.2
			l-0.3-0.1l-0.2,0l-0.3,0.1l-0.1,0l-0.2-0.1l-0.1,0.1l-0.3,0.1l-0.1,0.1l0.1,0.2l-0.2,0.1l0.2,0.3l-0.1,0.1l0.1,0.4l0,0.1l0,0.3
			l0.1,0.1l-0.2,0.2l0.2,0.3l-0.2,0.1l0.1,0.2l0.1,0.2l-0.2,0.2v0.1l0.1,0.3l0.2,0.1l-0.2,0.3l0.1,0.1l0,0.4l0,0.1l0,0.2v0.2l0,0.1
			l0.2,0.2l-0.1,0.1l-0.1,0.2L490,87l0,0.1l-0.2,0.2l0.2,0.3l0,0.1L490,88l-0.2,0.3v0.2l0.1,0.1l-0.1,0.2l0.1,0.2l-0.1,0.2l0,0.2
			l0.2,0.2l-0.2,0.1l0.1,0.3l0.1,0.2l0,0.2l0,0.2l-0.1,0.2l0,0.1l0,0.2l0.1,0.2l-0.1,0.3l0,0.2l0.1,0.1l-0.1,0.2l0.1,0.2l-0.1,0.2
			l0,0.2l0.1,0.2l-0.2,0.2l0,0.3l0.1,0.3l0,0.1l0,0.3l0.1,0.1L489.8,94.1z M481.6,94.7c2.5,0,4-1.8,4-4.3c0-2.1-1.2-3.1-2-3.6
			c-1.3-0.8-2.6-0.9-2.6-1.9c0-0.7,0.7-1.1,1.1-1c0.5,0,1,0.6,1.5,1.1c0.3-0.9,0.8-1.8,1.2-2.8c-0.5-0.3-1.7-0.9-3.1-0.9
			c-2,0-3.6,1.4-3.7,3.5c-0.1,1.2,0.4,2,1,2.5c0.7,0.7,1.7,1,2.4,1.4c0.6,0.4,1.2,0.9,1.2,1.9c0,0.9-0.5,1.5-1.1,1.5
			c-0.8,0-1.2-1-1.6-1.7c-0.6,0.5-1.8,1.8-2.2,2.1C478.8,94,480.1,94.7,481.6,94.7 M472.6,92c-1.1,0-1.3-1.7-1.3-3.5
			c0-2.3,0.4-4.3,1.6-4.3c1,0,1.3,1.5,1.3,3.4C474.2,89.7,473.9,92,472.6,92 M472.5,94.8c2.6,0,4.2-2.1,4.5-6.2
			c0.2-3.4-0.6-7.3-4.1-7.3c-3,0-4.6,2.9-4.6,7.1C468.3,91.9,469.5,94.8,472.5,94.8 M467.6,84.5l-0.2-3.1c-0.6,0.1-1.4,0.2-2.2,0.2
			v-0.3l-3,0.3v0.1c-0.8,0-1.6,0-2.3,0.1l0,3.1c0.7-0.1,1.5-0.1,2.3-0.2c0,3.2-0.1,6.4-0.2,9.6l3.2-0.2c-0.1-3.1-0.2-6.4-0.2-9.6
			C466.1,84.5,466.9,84.5,467.6,84.5 M459,93.7c0-4.1-0.2-8.2-0.1-12.3l-2.9,0.4c0.2,2.1,0.3,4.3,0.4,6.4c-1.1-2-1.9-4.1-2.8-6.4h0
			l-2.8,0c0.1,4.1,0.2,8.4,0.1,12.3l3,0.3c-0.1-2-0.1-4.2-0.2-6.3c0.9,1.9,1.8,3.9,2.7,5.8v0v0.1L459,93.7z M445.3,94.5
			c3.3-0.2,3.6-3.4,3.8-5.2c0.2-1.8,0-5.7-0.6-7.9l-2.9,0.5c0.4,2.7,0.5,4.6,0.4,6.3c0,2-0.4,3.5-0.9,3.5c-0.7,0-0.9-1.7-1-3.7
			c-0.1-2.4,0-3.8,0.2-6.1l-3.1-0.3c0,1.1-0.2,5,0,7.4C441.7,92.2,442.5,94.6,445.3,94.5 M440.1,84.1l-0.2-2.7
			c-0.2,0-0.5,0.1-0.8,0.1v-0.1c-0.3,0-2.8,0.2-3.1,0.2c0,0,0,0.1,0,0.1c-0.6,0-1,0-1.3,0.1l0.2,2.7c0.3-0.1,0.8-0.1,1.3-0.2
			c0.1,1.8,0.2,3.7,0.1,5.1c0,1.3,0,2.4-0.6,2.4c-0.6,0-0.7-1.6-0.6-2.4l-2.7,0.3c0,1.9,0.5,4.9,3.5,4.8c2.3-0.1,3-1.6,3.2-3.8
			c0.1-1.3,0-4.3,0-6.6C439.6,84.1,439.9,84.1,440.1,84.1"/>
	</g>
</g>
</svg>
