<svg id="Capa_1" data-name="Capa 1" xmlns="http://www.w3.org/2000/svg" xmlns:xlink="http://www.w3.org/1999/xlink" viewBox="0 0 600.27 165.88"><defs><style>.cls-1{fill:none;}.cls-2{fill:#f39200;}.cls-3{fill:#fff;}.cls-4{clip-path:url(#clip-path);}.cls-5{fill:#1d1d1b;opacity:0.2;isolation:isolate;}</style><clipPath id="clip-path"><polyline class="cls-1" points="658.31 86.14 658.31 -29.05 -13.69 -29.05 -13.69 86.14"/></clipPath></defs><g id="Capa_1-2" data-name="Capa 1"><rect class="cls-2" x="252.62" y="103.85" width="81.01" height="22.18"/><polygon class="cls-2" points="192.03 37.33 194.78 97.66 229.8 101.81 229.96 37.33 192.03 37.33"/><polygon class="cls-2" points="229.47 36.29 234.51 101.81 271.78 98.94 271.78 36.29 229.47 36.29"/><polygon class="cls-2" points="271.68 34.75 275 98.09 304.47 99.03 307.82 34.75 271.68 34.75"/><polygon class="cls-2" points="306.81 37.33 308.27 101.81 329.94 98.99 331.41 38.51 306.81 37.33"/><polygon class="cls-2" points="330.4 34.75 332.33 99.92 362.54 101.81 363.19 36.29 330.4 34.75"/><polygon class="cls-2" points="362.18 34.75 365.75 100.83 397.43 101.81 404.5 34.75 362.18 34.75"/><path class="cls-3" d="M317.61,120.64c-.78,0-1.08-.83-1.08-2.35,0-2.76,1-4.94,2.22-5,.7,0,1.06.84,1.06,2.53,0,2.79-1,4.8-2.2,4.8m-.17,1.3c2.47,0,3.7-2.26,3.88-6.1.11-2.15-.67-3.95-2.3-3.95-2.44,0-4,3-4,6.34,0,2.19.71,3.71,2.38,3.71m-6.64-1.68a1.15,1.15,0,0,1-1.31-.76c.28-1.93.59-3.87.81-5.41a2,2,0,0,1,1.35-.95c.93-.1,1.22,1.12,1.22,2.45,0,3-1,4.54-2.07,4.67m1-8.55a3.07,3.07,0,0,0-1.25.48,5.58,5.58,0,0,0,.09-.59l-1.67.25c-.61,5-1.31,10.22-2.14,15.25l1.59-.11c.13-1.25.44-3.36.76-5.64a1.88,1.88,0,0,0,1.5.36c1.75-.23,3.67-2.17,3.67-6.35,0-3.17-1.43-3.78-2.55-3.65M304.09,122l1.71-.07c.36-3.39.77-6.64,1.29-10l-1.67.06c-.19,2.49-.86,7.64-1.33,10m2.39-11.76a1.15,1.15,0,0,0,1-1.2c0-.55-.25-.87-.71-.87a1.24,1.24,0,0,0-.38.09,1.19,1.19,0,0,0-.62,1.16c0,.57.3.82.7.82m-4.33,1.69c-.25,2.57-.55,5-.93,7.51a1.78,1.78,0,0,1-1.45,1.1c-.45.07-.89-.19-.89-1.1a66.38,66.38,0,0,1,.93-7.41h-1.58c-.2,1.18-.81,6.61-.77,8a1.76,1.76,0,0,0,1.91,1.94,2.55,2.55,0,0,0,1.58-.66,3.75,3.75,0,0,1-.09.57l1.55-.1c.35-3.34.71-6.46,1.3-9.88Zm-9.48,8.19c-.78.06-1.23-.89-1.23-2.37,0-3,1.06-4.32,2.09-4.53a1.08,1.08,0,0,1,1.27.78c-.23,1.71-.45,3.46-.72,5.19a2.16,2.16,0,0,1-1.41.93m2.4-8.32V112a1.86,1.86,0,0,0-1.35-.33c-2.22.29-3.65,2.61-3.8,6.29-.13,2.8,1.1,3.86,2.47,3.69a2.93,2.93,0,0,0,1.42-.53c-.28,2-.6,4-.93,5.92l1.71-.11c.36-3.36,1.75-12.62,2.19-15.18ZM284.76,116a3.56,3.56,0,0,1,1.6-2.47c.7-.36,1.29-.19,1.48.47a1.47,1.47,0,0,1-.87,1.85,3,3,0,0,1-2.21.15m-1.71,1.39c-.19,3.23,1.33,5,3.54,4.42a3.44,3.44,0,0,0,2.35-2l-.95-1.18a2.7,2.7,0,0,1-1.73,1.88c-1.27.25-1.84-1.31-1.69-3.11a6,6,0,0,0,2.59,0,3.1,3.1,0,0,0,2.18-3.76,2.19,2.19,0,0,0-2.5-1.8l-.31.07c-2,.44-3.31,2.76-3.48,5.46m-9.44-1.39a3.58,3.58,0,0,1,1.59-2.47c.71-.36,1.3-.19,1.49.47a1.48,1.48,0,0,1-.88,1.85,3,3,0,0,1-2.2.15M272,117.38c-.19,3.23,1.33,5,3.53,4.42a3.42,3.42,0,0,0,2.36-2l-1-1.18c-.31.8-.86,1.71-1.73,1.88-1.27.25-1.84-1.31-1.69-3.11a5.91,5.91,0,0,0,2.58,0,3.09,3.09,0,0,0,2.19-3.76,2.19,2.19,0,0,0-2.5-1.8l-.31.07c-2,.44-3.31,2.76-3.48,5.46m-4.52,3.25c-.8,0-1.31-1-1.06-3.33s1-4,2.18-4a1,1,0,0,1,1,.74c-.26,2-.51,4-.62,5.44a1.92,1.92,0,0,1-1.47,1.14m4.87-14h-1.69c-.1.73-.46,3.06-.84,5.68a2,2,0,0,0-1.16-.3c-1.54,0-3.23,1.5-3.65,5.19-.38,3,.5,4.86,2.21,4.86a2.39,2.39,0,0,0,1.69-.68,1,1,0,0,0,.23.78l1.52-.59a5.89,5.89,0,0,1-.27-1.67,117.06,117.06,0,0,1,2-13.27"/><path class="cls-3" d="M389.73,95.1l.26-.36v.46Zm5.58-.61H395l-.31.2V95h-.25l.15-.26.1-.36.46-.36.26.21Zm-7.67-.41-.11-.51.47.1Zm1.12.51-.3-.1.25-.46-.25-.46.3-.11.26-.3.1.66Zm-2.15-.87-.2-.31.1-.3.26.35Zm1.64-.77-.25-.1.3-.1.1-.41.46.2-.25.16-.21.15Zm3.27-.35.21.1.2-.21.1-.3-.51-.11Zm.57-.36.2.15.36-.26-.21-.25ZM392,92l.16-.46h-.31Zm-18.81,0-.62-.2-.76.15h-.41l.2-.31-.15-.35-.26-.36.36.15.51.36h.72l.3.36.26-.16.15.11Zm-3.48.26-.41.36-.21-.52.21-.76-.36-.57.21-.1.51.16,0,.66-.26.41Zm18-2.1-.21.92h.67l.41-.31.05.36h.25l-.25-.66ZM368,90.7l-.31.16-.05-.41h-.2l.25-.21L368,90Zm24.19-.3.2-.26-.3-.2-.21.15Zm-6.5-.26.31.56.36-.3-.41-.52ZM371,89.88h.35l.21.52h-.46Zm19.22,0,.67.57.2-.26-.66-.51Zm-3-.81V90l.15.25.26-.92Zm4.7.71-.31-.56-.25-.51v.66l.36.51Zm-21.78-.2-.26-.21.16-.76v.25l.25.41Zm3.68-.82V88.3l.46.1.1.41ZM389,88.25l.46.36v-.46l-.36-.05Zm-20.46,0,.1-.31H369l-.15.26Zm2.15-.46v.36l-.31-.05.16-.16.1-.2.25-.16Zm17,.41.25-.21.05-.56-.25-.66-.31.15.15.56Zm1.74-1.28-.31-.61-.31.35.31.36Zm-3.84.1.05-.31.16-.4.35.3.11.56-.06.41-.4-.2-.26.46-.41-.36Zm-13.4-1.33.05.26.26.1-.31-.1-.25-.21Zm-4,0,.72.1.31.31h-1Zm2.2-.36.21.46-.36.26-.2-.46Zm3.94-.1-.25.1.1-.41.25,0Zm8.23.77-.2-.21.2-.2h-.41l.06-.41.25-.15-.1-.36.41.1-.21.56.11.31ZM368,85l-.2-.26.2-.2h.31l.1.25Zm12.58-.21.15-.3.26.35Zm3.53-.41-.1.26h-.36l.1-.36Zm3.94.21-.46.15v-.51ZM377.46,84l.26-.06.2.31ZM372,84l.31-.26v.66h-.21Zm21.83,11.25h-.76l-.56-.06-.16-.92-.1-1h-.41l-.26.56.21.31.31.15-.21.31h-.51l-.26.21-.4.2-.21,0,.46-.16.26-.35,0-1.08H391v1L390,94l.56-.66v-.72l-.51.31-.25-.26L390,92l.51.1.1-.2.41.1-.1-.51v-.41l-.36.31-.31-.87-.71-.61-.31.3.56.62.11.71-.46.16-.06.4-.2-.1-.72-.2-.1-.51-.25.66-.92.1-.36-.71-.36-.1.15.4-.1.36-.1-.2.15-.21-1-.51-.66-.92-.62-.15,0-1-.46-.52.21-.81-.77-.26-.2-.1v.51l.51.72.2.51-.2.2-.36-.66-.56-.82.1-.67.1.21.31-.51.87-.57-.46-.51-.1-.2-.26,0,0-.26h.2l.21.21h.2l.31.2.25.16v.4l.16.67.25-.41.11.31-.21.41v.51l.26.46-.26.56.3.3.51.3.82.16.05-.46.41-.36-.21-.41h-.35v-.31l.76-.36-.35-.71.3-.82-1.33-.25-.15-1h.36l.05.56.61.16L386,85l.41-.92.46-.36h-.25l.05-.41.2.25h.36l.05.46-.41.16-.36.51.26.71.51.06.36.15-.16.26.31.4.77-.51.15-.46-.15-.41v-.25l.2.3.26-.3.25-.36.21,0,.1.87.4.91-.31.46-.15.46.31.15.61-.2.41-.11-.1.41.2.21.51.77.46.51.77,1.27v.47l.21.81-.16.51-.05.36h.36l-.05.51.3.21.16-.51H394l.1,1.38Zm-11.25-12V83H383l.26.36-.05.26-.26.2-.2-.1.3-.26ZM369.89,83h.31l.15.31H370Zm19.49-.15-.16.71-.61.16.1-.77Zm-3.38,0,.36-.16-.1.31-.11.51-.2.31-.26-.31Zm-7.47.51-.2-.41.15-.46v-.31h-.35l-.06-.2h.21l.2.2.16.41-.16.46Zm-10.22-1.18-.26.21-.05-.26.15-.2Zm17.9-.92.61.11.05.56-.46-.21Zm-4.56.46-.1-.2.31-.26Zm3.43,1-.2-.35.51-.21-.11-1,.41-.1-.1,1.33-.15.51Zm2-1.94.05-.36.25-.15-.05.2Zm-19-.61v-.41l.26.1.2.31Zm14.78-.31h-.31l-.15-.36.1-.35.16-.31.2.1-.15.41Zm8-.56.92-.51.66-.62-.41.72-.76.51-.16.67-.4-.11Zm-1.08.71-.86.26.15.46-.46.41-.15.26.76.2.16-.87H390l.2.56-.1-.2-.41.31.41.66-.31.36-.61-.46-.46.31V82l-.46,0-.36.66-.46.46-.3-.51.4-.36.21.41.2-.92-.41-.61.41-.1.67-.21.1-.36-.46-.1-.05-.51.31-.15.25.3.31-.1-.1-.41-.41-.46-.87.16-.26.2-.25.56-.31-.15.26-.51.51-.51.1-.41-.31-.41.16-.21.41.06-.06.56.77.25.46.52.21.15-.16.25.21.11h.46v-.51h.46l.2.25Zm-3.63-2.35.26.36-.61.41-.11-.41ZM388,76.9l-.06.1-.15.15Zm-18.21.56-.2-.41.1-.31.25-.15-.25.41.1.2Zm19.48-.72L389,77l.51.3.71-.1.21.56h-.72l-.71-.4-.26-.11-.2.46-.11.21,0-.26.16-.76.61-.41Zm3.28-.51v.31l-.16.25.16.26h-.21l0-.26h-.2l-.31-.46Zm-23.17-.46-.2.2h-.26l.05-.25Zm18.77-.15.15.15-.2.41-.31-.21Zm-20.25-.31v.31l-.15-.11-.11-.4Zm20.5-1.12h.52l-.41.25-.31.21-.15.3-.11-.3Zm4.66-.41.25.25h-.41l0-.3Zm-24.7-.87-.61-.57L368,72l.21.3v.31l.35-.31.31.16Zm19-.77-.15.26-.31-.21v-.41l.15-.36h.41l-.1.21-.2.2Zm-14.21-.92-.11.15-.2-.1Zm-2-.21.46-.1v.21l-.1.3h-.36Zm15.44-.3.11-.56.46,0-.06.46Zm-17.38.66-.31-.1-.41.15L368,71l-.46-.46v-.2l.1-.21.46,0,.11.77.15.2.2-.46.57.16.25.51Zm.87-1-.31-.2.15-.26h.41l.36.21L371,70l.1.41-.51.26ZM369,69.74l.1-.26h.21Zm20.35.15.11-.51.46.1-.11.26.21.05.31-.1-.31.15h-.36l-.46.26Zm-2-.61-.51.25-.67-.36.11-.4.56.25h.56Zm3-.62h.35l-.1.36h-.41Zm-11,8.9-1-.15h-1.12l-.87-.46-.52-1.08-.15-5.72.62-1,1-.51h3.63l2.35.31,1.59,1,.51.77.36.82.1,1.48-.16,1.38-.41,1-.56.87-.61.62-.77.35Zm11.92-9.25.1.25H391l-.1-.36Zm-20.41.15.06-.36h.4l-.15.36Zm-2.14,0-.41-.1-.05-.46.35.15Zm18.92-.62v.62h-.21l-.1-.41.15-.56h.26ZM382.73,67l.36.06v.25l.76-.25v.41l-.4.4-.47.26-.25-.56-.15-.21ZM381,67v.25l-.15-.41Zm7.06-.21h.41v.41h-.41Zm-9.77-.46-.2.36-.06-.41Zm-5.52.21-.36.3v-.25l.2-.31H373Zm.71.3.11-.61.51.51-.26.87-.36-.15.21-.21.2-.15Zm3.74-.1v.56l-.26.21-.2-.05v-.41h.41l-.06-.26-.3-.36-.31.11v-.31h.36l.2-.2v.2Zm-6.55-.92h.46l-.1.56h-.21Zm9.36.36.36-.36h.46l-.26.36-.15.56-.36.1-.1-.25Zm5.93.46.21-.61.3-.31.31.15v.46l-.51-.15-.11.25.52.41-.31.52h-.46Zm-18.77-.36.11-.46.41-.15-.11.25-.35.26.15.2.05.51h-.26Zm15.19-.41-.25.31L382,66l.26-.46.51-.2.1.31-.1.25Zm-13.81-.2-.1.51-.25,0v-.77l-.41-.35.1-.31.46.15.25.46Zm21-1,.21.35-.21.06Zm-3.78.1-.26.15h-.2l.15-.26.31.16.2.41-.25.82-.41.51-.21-.26.72-1.07Zm.15-.41h.41l.2.61-.4-.1Zm-18.51.25h-.26v-.46h.26Zm14.06-.56-.1.51.51,0,.15.36h-.61l-.31-.41-.1-.36Zm-4.6,0,.15.41v.36h-.25l.25-.26-.25-.15-.16.41-.15.61-.2-.61-.31.41-.26-.51-.1-.46h.67l.4,0Zm6.8,1.64v.41l-.05.25-.15-.15v-.5l.1-.62-.41-.35-.15-.67.51-.31-.21.57.31.41.56.56-.25.2Zm-5-2.76-.46.87.56.41V64l.1.25-.3.57-.51-.57-.57-.56-.05-.36L378,63Zm1.58,0,.11.31-.26-.06-.1-.4Zm3.79-.51.25.41.21.41.46.35.41-.46.46-.61,1,.15.31-.3.1.3.15.36-.3.46-.51-.15h-.31l-.56.15-.87.56-.72.16-.1.25.1-.36.15-.46-.05-.3-.3-.36Zm-10.59.15h.31l-.1-.46Zm-6.29.31h.26l.15.31.26-.11-.15-.46-.06-.82.62.06.1.66-.31,1-.92-.15Zm14-.92v-.31l.3.26v.81l-.25-.1v-.3l-.16-.16Zm-3.79-.41h.21l-.11.35-.25.06Zm5.32-.21.82.51.1.57-.61.2-.36-.56-.26.1v.67l.26.66.15.26-.31-.11-.3-.25-.16.2,0-.59.21-.87-.21-.46-.1-.21Zm-3.63-.05v.36l-.41-.26Zm-3.53,4.5-.46.51.1.77-.1.36v-.31l-.31-.82-.25-.76-.36.2-.26.21-.3-1.13.1-1.12-.41-.41.1-.41-.25-.31.2-.25.15-.36-.05-.67h.46l.16.36.25.15.41.05.1-.46.26.16v.56l.26,0-.36.36.36.31.4-.51.57.25.15.56-.46-.35-.36.76-.46.31-.46.1-.05-.25.1-.36-.3.15-.16.77-.3.46.66.36.36.61h.2l-.1-.51.51.3L376,66ZM369,62.12l-.2-.26.66-.71.92.1.16.61.56-.46-.15-.3-.21.2.15-.26.67.52.51.35.51-.15.16-.56h.3l-.1.56-.31.31-.15.25v.82l.56.62.21,1.07-.31.36.41-.1.15.3-.46.21-.31-.51-.3-.36-.16-1.08-.1-1.17-.2.25.15.51-1,.52.36.71.46.26.3.41v.35l-.15.26-.2.1.1-.61-.21-.31-.3-.36h-.36l-.16.16-.1.36-.51.56-.25.71-.52-.76-.66-1.13.2-.71.26.1.2.77.16.87.3-.62h.72v-.61l.31-.92.51-.77-.26-.26.31-.15-.31-.1-1.17.41-.21-.57-.25.67V63l.2.36-.31-.1h-.36l-.51-.16.51-.66Zm27.1,31.4L394.44,91l-.46-.87-.62-.92-.51-.92-.66-.82-1.54-2.66-.15-1.22.56-1.08,1.44-1.38.61-.87.36-1,.56-.92.36-.87.56-1.94.05-4-.26-1-.15-1-.25-1L393,65.75l-.72-.77-.46-.77-2.56-1.94-1.79-.92-4.24-.87-1.28-.1h-2.61l-1,.1-1.13-.1-.86.1-3.07-.1-1,.15-2.1-.2-1,.15h-1.13l-1,.46L366.67,62l-.15,14.32.15,1.49v2.55l-.1,1.08v1.94l.15,1.12-.15,2.1.2,3-.1,1.07.15,4,.36,1.12,1,.52h1l2.09-.16,1.08.11h1.53l1.59-.52.35-1,.11-1.07-.21-1.07.15-2.2-.1-3.17.46-1,1-.51h1.84l1.27.41.82.87,1.33,1.79.36,1,1.43,2.56.67,1,.46.87L386,95l1,.92,1.28.3,1.84.11,1.13-.11,1,.11h2.05l1.12-.11,1.07-.25.21-1.08Z"/><path class="cls-3" d="M352.67,94.9h-.31v-.21l.2-.25h.16Zm-13.61,0-.3-.11v-.25l.25-.26.21.21Zm2.1-.16-.51.21-.36-.46.56-.36.41.36Zm7.52-.36-.11-.35.21.2.1.21Zm-1.49-.3-.25-.16.15-.2.21.15Zm7-.36-.26.1.16-.15.3-.26.11.16Zm-12.07.41.1.25H342l-.21-.66.46-.31.11.36L342,94Zm-4.45.15-.2-.31.61-.35-.25-.51L338,93l1,.67v.15h-.66Zm13-1.12-.1-.26h.26l.1.16Zm-2.71.1h-.46l.15-.26.47-.15Zm-2.76-.41-.31.26-.05-.16.26-.2.2-.1Zm.77.2-.31.52-.31-.26.46-.51.52-.26.1.26Zm-6.85-.25h-.46l.1-.15.41-.16Zm13.9.92-.61-.46-.46-.61-.31.15-.25-.21.2-.2,1,.51.62.51Zm-8.74-1.13,0-.35.31.15.1.26Zm-3.27,0-.16-.3.46,0,.11.3Zm15.75.31v-.31l-.41-.15-.41.1.2.41-.35.1-.16-.51.51-.2.57-.16.2.41.1.31ZM353,92.34l.06.46-.26-.26-.1-.36Zm-10.48.25-.15,0h.15v-.2l-.15-.26.36.16Zm11.3-.61.21-.21h.25l-.1.26-.41.15Zm-9.25-.36-.16-.15-.15-.21-.31.36-.61.21-.36-.31.21-.31.56.16.51-.11.36.16Zm1.63.56v-.25l.31-.26.36-.36.25-.15-.15.31-.15.41-.46.2ZM342.44,91l-.21.36h-.41l.16-.31Zm3,.36-.25-.11-.1-.4.3.1ZM355,91l.05-.26h.46l.41.57-.16.15-.36-.46Zm-6.4.51V91.1h-.2l-.26.1.26-.51.51.51Zm2.41-.82-.46.16.15-.11.1-.25h.31Zm-4.15-.51.26.15-.26.21Zm-4.39.26v-.36l.3-.21,0,.41Zm-1.08-.57h.46v.36l-.41.21-.4.15-.06-.41Zm-3.93-.15h.51l.1.41h-.51Zm17.13-.1h.35l.11.31-.31-.06ZM344.23,90.8l-.51-.2-.31-.2.41-.52.66-.41.16.26-.57.46Zm-3.58-1.27.2-.46.31.05-.2.3Zm-1.54-1.18h.41l-.41-.26Zm1.59-.56.56-.16-.1-.51ZM338,86.05l.2.2.31-.15-.2-.1Zm4.45.36.56-.57-.46-.2-.31.51-.46-.2,0,.41.41.1Zm-1.64,0L340.5,86l-.2-.62-.77.36-.15.56h-.61l.05.52.92-.21.76.21Zm-1-1.28v-.26h-.31l-.1.21Zm.82-.62-.16.26.36-.15Zm3.68-.05-.41.16.41.15Zm-3.89-1.58-.3.15.51.1Zm-1,0-.36.05-.46-.15-.46.25.41.26.87-.05Zm2.66.2h.36l-.1-.35H342Zm-1.23,0h.46l-.25-.3ZM340.49,82l.41-.36.16-.41h-.36l-.31.15.1.26-.1.15-.1-.46.2-.25-.3-.11-1.18.36.26.51ZM342,80.73l-.05.21.25.15Zm-2.25,0-.36-.1.1.41Zm3.27-.31-.1-.2-.41.2.15.16Zm8.85.36-.31-.2.15-.41.36.36Zm-1-.56-.26.15-.36.36-.56,0,.51-.1.41-.21.15-.31.21.06Zm2.19,0-.15-.36.41.15.1.26Zm-1.84-.41h-.35V79.6l.35.06Zm-8.08-.41-.51.1-.1.41h.56Zm6.19.36.51-.46.21.46-.41.25Zm-5.78-.41h.31l-.1-.26Zm-4.91-.41h-.3l-.26-.2.41,0Zm12.89-.2H352l.05.56h-.46Zm-7.72-.31h-.46l.25.36Zm1.89.72-.5-.15-.26-.61-.25-.1-.31.66.92.26Zm6.24-.92-.1-.16h.2l.15.21ZM349,78l-.2-.1-.26-.11.21.06h.3l.11.1Zm2,.41-.21-.41-.3-.1-.11-.16.21.11.36-.06.35.31Zm-13.15-.87.31.36.1.51-.51-.36-.2-.46ZM344,77.2v.31l.31-.21Zm8.39-.1,1.12.05.87-.05-.71.41-1-.21-.36.41-.51-.25-.06-.56Zm-2.87-.1v-.31h.26l.05.31Zm-10.58-.62v.26l.41-.1Zm13.6-.4.21.15.15.41h.2l-.35.15-.36-.36Zm3.58.4h-.46V76l.34,0Zm-1.23-.51.36.57.1.3h.52l-.26,1.07.72.77-.62.16L355,79l-.31.51h.66l-.2.11h-.26l.11.15-.36-.1-.21-.41-.05-.31-.3-.2-.31.2-.1.26.1.36-.41-.31-.66.15-.16-.3.16-.31.51.15.56-.1.31-.15.46,0-.16-.51h-.76l-.06-.31.77-.21h.41V78l.31.51.36-.87L355,76.45l-.26-.36-.15-.41Zm-3.52,0,.3.11.05-.21.26-.1v.26l-.31.1-.2.15-.21-.15Zm2.5-.3v.2l-.3.16-.26-.36Zm-15.75,1.07-.41-.82.51-.25v.25l.16.46.25-.46h.72l.56.62.56-.16H341v.51h-.82l-.72.62h-.77l.11-.56Zm6-.71-.35.25L343.1,76v-.41l.67,0Zm6.45-.06-.62.41-.46-.41.67-.51Zm2.2-1v.51l-.21-.3-.1-.41ZM355,74.7l.71.41.51.35.26.26-.31-.15-.66-.11-.72-.15Zm-4.15.1.16.25h-.56l-.11-.35Zm-11.3,15.08-.66-.66.56-.26-1.18-.41-.2.36-.46.26-.26-.36.57-.72.41-.15-.82-.15.25-.67-.71-.61.41-.67L337.1,85v-.82l.46-.16.15-1,.21-.66-.36.2-.05-.66.25-.57-.46-.2.16-.36h.76l.46-.25.26.25.15-.56-.56-.36.15-.36.46.21.62-.11.82.46.2.87.46-.35L342,80l-.72-.3-.51-.62h-1.38l.15-.3.11-.36-.41-.36L339,78l.16-.1.2.15h.46l.51.51.56-.56.36-.21-.51-.2.1-.36h.41l.72.21-.1.66-.82.57.66.56.21-.31.66-1.18-.36-1-.1.21-.15.1-.21-.31h1.44l2-.56.31.2-.21.06-.66.35.3.57h-.35l-.26.41L345,78l1-.82.3-.71.11-.16,0,.16.2.3v.72l1-.56.82-.87.31-.26-.51-.3-.05-.36.25.15.36-.15.46-.67.56.46-.77.87-.86.87-.16.82-.36.46-.46.51.62.36-.05.2H347l-.1-.81-1-.41L345.66,79l.26.1h.61l-.21.72-.46.31-.3.05.1-.26.41-.31-.15-.3-.57.25h-.76l-.21.16.21,0h-.82l.36.72h.05v.35l-.46.26h-.26l.15-.15-.4-.16-.31.51.82.31-.11.36h-.46l.06.51,1.07-.41.66-.77-.3-.56.56-.2h.8l.51-.41.51.05.61-.57.51.46.36.16-.05.25-.66-.15-1.18.61-.72.52-.15-.41-.41,0-.05.66-.26.77-.71.41.41.56-.41.51H344v.16l.72.46-.21.92.21,0-.11.61-.71,0-.61.41-.72,0-.41.15v.46l.41.26.15-.57,1.23.11.15.56-.46.1.05.46h-.81l-.72-.1-.1.41.51.2.25.26L343,89l.82-.56.76-.71h.26l.41.35.26,1.18.25.61L346,90l-.26.15-.15-.2-.41-.21.1-.87-.15-.46h-.82l-.46.77-1.18.41-.87-.11.16-.61-1.13-.31-.51.82-.1,1.08.41.66H340Zm.87-14.16-.3-.51-.41-.26-.41-.36h.05l.46-.1.56.16.1.66.41-.1.05-.31.16-.25.41.3-.21.72Zm-1.89-.46.1-.56.41-.21h0l-.1.21v.56l-.61.2Zm.15-1.59-.05.26-.1-.15,0-.21Zm2.46-.3-.15.41-.57.2.16-.41Zm-1.84.25V73h.36l.1.66Zm-1.13-.82L338,73l-.15,0,0,.25-.1.26-.11-.36.21-.36Zm6.09.31.3-.46.31.31-.31.36Zm-2,.21-.2.05-.21-.11-.2-.25-.15-.26.25-.1.05.36.26.15Zm4.25,1,.71.46-.25.36.2.1.41-.21.26.41h-.67l.15.57.41.35H347l-.41-1-.72.31-.56.1h-.46v-.25h.41l.36-.31.25-.21-.66-.25-.72-.31-.31-.3h-.56v.46l.21.15.1.2h.36v.26l-.67.1L343,74.9h-.36l.05-.36.31-.3.21.1.3-.15.16-.21-.46-.87-.11-.82.36-.1h.46v.15l-.36.21.26.77.25.66.57.21.15-.36h.41v.66Zm-6.14-3.43h.36l-.05.21h-.31Zm-2.61-.2.21.3-.11.26-.25-.1Zm3.12-.16.16-.61.46.56Zm1.54.26.92.15.71-.41-.25-.41-.26.26-.15-.2.3-.41.46-.26.21.77-.36.87.26.15-.62.46-.71-.46h-.57Zm-3.17-1.23.51-.15.1-.26.36-.25,0,.41-.51.2-.41.26H339Zm.3-1.23.16.47h-.62v-.31Zm4.09.21-.35-.05-.11-.31h.26Zm1.59-.26L345.1,68h.25l0,.25Zm-3.68-.41v-.3h.25l.05.31Zm-3.74-.2.16-.1.46.51-.51.36.2-.36Zm12-.67-.51.35-.41-.35.56-.11Zm-6.39,0-.26-.06.21-.1h.25Zm9.41.35-.36-.15,0-.41.31.15Zm-1.18-1.07.16.26-.06.25-.3-.31Zm-5.16,1.48h-1l-.77-.25-.16-.16-.3.16V67.2l.25.1.5-.3v-.36l.16-.72.56.36-.2.46-.26.41.51.31.72-.16ZM342.69,66l-.25.31-.16-.36Zm4.61-.46-.46.56.1.52.1.25.36-.2.25-.46,0,.15.1.31-.4.41L347,67l-.31-.36-.46-.36-.2-.51.05-.41.31.15.41.1Zm4.8-.3h.46l-.25.3-.36-.1Zm-13.75.15v.2l-.11-.15-.1-.2Zm4.39.1.31-.2.31-.11-.21.31ZM351,65h-.31l.21-.41.41.16Zm-2.1-.71.26.3h-.36l-.2-.3Zm-1.12-.57h.36L348,64l-.26,0Zm-3.22,0,.3-.2h.21l-.11.15-.35.11v.3l.92-.3.87-.41.1.25-.92.51-.31,1h-.15l-.11-.67h-.71l-.21-.51ZM339.47,63l.1.25-.3.1-.1-.35Zm11.25-.11.46-.1.21.26-.26.15-.36-.2h-.35Zm-8.13.11.26.1.2.15.36.1.1-.35.26-.21.15.41-.2.51-.31-.15-.36-.31-.46,0Zm3.73-.26.21.15V63l-.31-.1Zm-1.79,0h.16l.25-.31.36,0-.31.36h-.71Zm-6.95-.26.36-.1-.05.41-.31.15Zm2.76.16.21-.26h.2l.21.1.15-.15.46.26.2.46-.66-.11-.46-.41,0,.31-.26.15Zm7-1.38v.56l-.16.15.11-.15-.26-.51Zm11.91,28.48-.66-1L357,88.15,350.26,88l-1,.16-1.12-.11L347,88.2l-1-.62L345.51,86l.05-2.51.46-1.07.92-.56h2l1-.11,2.72.16L354,81.8l1.07.11H356l1-.57.51-1,.11-4-.11-1-.46-1-.87-.56-2-.06-1,.11H352.1l-1.17-.11-4,.06-.87-.57-.62-.92-.1-1.58.51-1.49,1.59-.46h9.82l1.07-.56.56-.92-.1-2.1-.15-1,.05-1.12.15-1-.51-1-1.07-.46-4.09-.05-.93.1-1-.15-2.25.1-1-.1h-2l-.93-.1-6.69.15-1.49.36L336.3,62l.1,2-.2,1.48.2,2.61-.1,1.08.1.92V79.3l-.15,1.07.15,2-.1,2,.16,1.08-.11,1.12,0,1-.15.92.1,1.18v1l.11,2-.06,1-.2,1,.66,1,1,.57,11.55-.11.92.16,3.12-.16,3.12.21,1-.1,1.08-.52.46-1,.1-1V90.55Z"/><path class="cls-3" d="M312.92,95.2l-.46.21V95l.52-.26Zm2.66-.15-.15-.72.1.21h.31l.15.25Zm-2.5-1.13h-.21l.16-.1.05-.2.2-.05.05.3Zm-1,.67h-.66l-.15-.72.46-.71.76-.26.36-.31.31.16-.56.46,0,.56-.41-.36-.36-.2-.1.61Zm1.28-2.87-.41.06h-.3l-.31-.06-.26.41-.25.11-.26-.57-.25-.25.1-.21.77.16.61.35.15-.4-.2-.41.51.35.61.06.06.25Zm3.48-.46,0-.3-.41-.1-.2-.41h.46l.25.51Zm-.61-1.53.15-.2.2.1.21.25-.21.16Zm-2.41,1.13v-.41h-.2l-.41.1v-.26l.51-.2-.1-.41.2-.1v.35l.05.67.41.41Zm6.34-1.39-.3-.25.25-.1.36.15ZM314.9,90.6v-.26l.2-.51-.05-.66.26-.1.15.81-.36.57Zm7.21-1.48-.11-.31.31.15.21.16Zm-3.74-1L318,89l-.72-.15.61-.15.36-.82.46-.31h.26Zm.26-.82v-.36h.46l.31-.51.3.15V87h-.56Zm2.81-.57-.2-.2.1-.2.46.25.15.26Zm1.13-2H322l-.41.31v.41l-.25-.26.1-.41.41-.31.56-.25.31.15Zm-2.3-.61-.21-.31.36-.15.1.35Zm1.94-.82-.41-.41h.67l.4.56Zm-5.63-.67L317,83l.21-.36-.41-.15Zm4.2-.2-.16.2-.4.41h-.52l-.15.87h-.82l-.2-.4-.21-.26-.56.41V84l.26.46-.16.2-.46-.26.16-.4-.36.1-.26.56.36.36-.2.41-.57.15.11.26.35-.16h.57l.81-.76.82-.62.1.36v.31l-.15.51-.72.1-1.07.36v.66l-.61-.25L316,86l.05-.51.62-.26-.36-.76-.41-.77.31-.56.2.15-.15.51.2.15.31-.46-.16-.61-.51-.15-.46-.62L316,82l.31.46h.36l.46-.36.35-.1-.1-.36-.25-.2.2-.52.72-.4.41.15v.46l1.12-.15h.82l.25.15-.35.2-.72-.15h-.51l.15.36-.51-.21-.1.72.82.15-.05.26h-.62l-.56-.1-.36.2.31.36.56-.15h1.69l-.36-.46.31.15.36-.31.35.1Zm-1.18-2h-.41l-.2-.26h.3Zm1.54.15h.3l.26-.36.25-.15-.2.41-.41.3-.36-.1Zm-5.53.25.26-.76h.41l.61-.31.26.46-.77.82-.82.51-.31,0h.21Zm1.28-1.58.61-.1.36.41.31.2-.26-.15h-.76Zm1.08-.56.4-.11.21.46-.36-.1Zm-1.39.2h-.76v-.56h.61Zm5-.61-.4-.31.51-.15.51.36-.1.2Zm-2.19,1.38.05-.26-.11-.25.11-.36v-.21l-.26-.2-.41,0v-.26l.51-.15.72-.26-.1.62.3.92Zm-3.07-2.2L316,77.3l.36.11.2.15Zm4.7-.67.36.26h-.51l-.61-.1v-.21Zm-2.71,1.08-.71.25-.16-.46-.15-.3-.67-.36.11-.61.15.2h.36l.66-.31.16.46-.36.31.05.26h.31l.56-.1.1.2Zm2-1.48.1-.16h.25l-.05.26Zm-.87-.57.25.46-.51-.1-.31-.31Zm-3.38-.3-.15.25-.41-.25.31-.52.2.11-.2.1Zm1.64-1,.41-.1.15.46-.46.15Zm-1.08-.1.11-.36.15-.35h.2l-.1.4-.15.46ZM321.69,73l-.11.2.11.31-.51-.2-.52-.31-.3.2v.47l-.26-.06v1l0,.41-.36.3-.15-.3.21-.31-.16-.26-.2-.3.3-.36.31-.31-.1-.41.66-.1Zm-.21-.82.21.1.15.11h-.46l-.15-.16Zm-2.81-.3-.15.35-.31.16.1-.51.46-.16Zm.1-2v.41l-.31-.1.06-.36Zm.1-1.69-.15.26-.41.1.1-.3Zm1.64-.15-.2-.25.46-.16.1.21Zm2.1-.1h-.46l-.36-.31h.41Zm-1-.61.1.2-.31-.1Zm-6-.16-.41-.2-.15.15.36.36Zm3.27.51-.05-.25.41-.21.16-.46.25.21-.1.71Zm3.38-1.12h.31v.46h-.31Zm-5.11,1.23.05-.57.56-.1-.31-.51-.3.26-.72-.06.1-.61-.2-.2-.46.15.15.72,0,.92.2.2.31-.15.21-.16Zm-4.76-2.25H313l-.82-.41Zm6.39-.52-.36.06-.15-.36h.36Zm-3.42-.25-.06.2.72-.3-.31-.16Zm6.54,0-.31.2V64.6l.26-.41.15.21Zm1.59-.62.35-.1.06.26-.16.2h-.25ZM315.41,64l-1.18.21-.2.51-.21,1,.31.77.51-.31V64.78l1.18-.26Zm5.88.31-.36.15.1-.36.26-.15Zm-1.54-.62.82-.2-.46.56-.71.31Zm-6.95,0-.05.31.25,0-.05-.46Zm12.07.1-.67-.3v-.36l.46.31.46.15ZM314.64,63l-.2.3h.25Zm-3,.15.21-.26v.36l-.26.26-.2-.11ZM314,67.38l-1,.46-.76-.4-.82-.72.2-1-.3-.77-.1-.51.2-.1-.1-.41,1.07-.62,1.23-.35.25.56.36.15-.1-.36.15-.15,0-.26.31-.15.66.46.82.21,1.13.56.61-.56-.1.66-.72.46.62.1.35.82.46.61h.52l.35-.46.21.21-.41.51-.77-.15-.3-.26-.62.21-.15.15.61.31.46.3.31.16h-.26l-.41.71-.2,1,.41.51-.46.2-.21-.51-.51.21v-.31l.26-.36v-.15l-.77.61-.2.67h.66v.46l.36-.11.15.36-.51.87.41,1.18-.46.15V73l-.21.1-.35-.3L316,73l-.31-.41.16-.66.87-.51-.46-.57-.06-.82-.46-.4h-.2L315.3,69l1.23-.56.1-.61h-.15l-.25.2-.06,0-.2.15-.82-.1Zm8.79-4.75-.41.46-.2.31-.46.05-.67-.36-.51-.36.11-.51.46-.15.2.56h1.48v-.36l.16-.2.3-.16h.41l-.05.21.51.41-.25.4-.67-.3Zm3.28-.82-.21.15-.25-.25Zm-1.59-.1.21-.1-.16.35-.46-.05-.25-.1.25-.1Zm-9.1-.1.66.2,1.28-.36,1,.57.31-.06v.77l.36.21-.41.2-.31.31,0-.67.41-.46h-.36l-.35.15-.21.62-.56-.46.05-.41-.36.15-.25.67-1.08-.41-.25-.56-.11.61-.35,0-.16-.72ZM313,61.35l.41.36.2-.16.2.57-.66.51-.41-.46h-.36l-.1-.56Zm2.91-.2.1.2-.3.15-.16-.3Zm12.32,28.53-.71-.87-3.43-1.07-.56-1,.1-4.19-.2-2,.2-2.15-.1-1.54.1-1.58-.1-1,.1-1-.1-1.07V70l.56-.92,1-.56,1.13,0,1-.56.56-1v-3l.11-.92-.11-1-.41-1-1.63-.46h-6.5l-1.12.1L315,60.48l-1,.05-2-.1-1.12.51L310.32,62v1l-.11.87V65l.11,1v1l.51,1L314,69l.66.92-.15,4.35v.87l.15,1.17v2.1l-.1,1,.2,2-.25,1,.2,2.2-.1,2-.51,1.13-3.38,1.07-.61,1-.1,1v3.94l.51,1.08,1,.35,15.19.11,1-.52.56-.92V93.72l-.1-.92Z"/><path class="cls-3" d="M290.47,94.13h-.36l-.51.1-.46-.1-.46.46.56.3h.41l0-.41.51.11-.2.25.92.16-.36-.41Zm3.78-.16-.2-.2-.16.15.11.21.3.31h.26l.61-.11-.25-.25Zm-10.38-.1-.15.26-.46.25h.61l.77-.3-.15-.31Zm11.4.77-.71.2h-.21l-.15-.25h-.31l-.25-.31.2-.46.11-.51.25.1.72.51.46.16Zm1.18-1.43-.46.25-.05-.3.1.2.26-.31.3-.2Zm-14.78,0,.21.15v-.51l-.41-.1Zm7.67.36.31.2.41-.2.25-.26-.4-.15,0-.31-.31-.46-.41.26.36.46Zm9.21-.67-.36-.15-.56.25-.57-.41.36-.1-.1-.2.2.15-.25.21.31.1.61-.16.61.26Zm-17.08-.46-.21-.1h-.46l-.2.3v.06l.41-.16Zm5.11-.2.41.61.15-.1v-.21l-.1-.2Zm8.49,1,.1.2-.2-.25-.26-.62-.41.46-.3-.51.15-.41.72.36Zm-2.81-.61-.26-.26h-.3l-.31.26h-.72l-.25-.52-.31.21.36.51,1.07.36.51-.41Zm-7.57.3.2-.2-.1-.46-.2-.26-.56.41.46.77.66.76h.31l.15-.25v-.26l-.36-.56Zm2.71-1,.51.2.46.06.15-.16-.51-.2Zm8.18.31-.25.25.15.56-.36-.56v-.71l.46.1ZM294,91.42l.1.25-.31-.15v.31l-.2.1v-.61l.2-.21ZM293,91l.26.1v.51l-.36-.1Zm7.27.51-.41-.46h-.46l.15-.1h.36l.46.25ZM280.55,91l-.26-.1-.1.35.51.16.05-.31h-.3Zm7.16.46h.66L288,91l-.41-.16v.36l.46.15Zm-3.33-.56-.51-.11.31.36Zm13.91-.11.16.21-.06,0-.3,0-.31-.16.1-.25Zm-15.9,1.64.25-.41.46.21v-.47l.21-.1-.46,0-.21-.51h.21l.1-.51-.77-.1.21.61-.16.41-.2.15-.51-.1-.16.26.21.3-.05.16,1,.51.56.87.16-.36-.24-.5Zm16.31-1.64-.2.16.05-.16-.21-.35-.25-.11v-.2l.31.2h.46l.1.31Zm-5-.1.46-.36.21-.3.35.2-.1.26-.25.25-.16-.25-.3.46Zm-2.3-.2h.36L291.3,90h-.51l.25.25Zm-8.4-.76.21.31.1.46.51.15-.2-.92Zm-2.66-.2-.25.15.1.31h.36Zm10.64.76-.26-.35-.05-.41-.2-.31-.05.31-.11.71.62.67h0l.26-.21Zm-6.7.26.61.1.26-.41-.15-.71-.41-.41-.21.46-.1.36.1.2-.15.15Zm3.89-1.28.41-.1.46-.1-.11.35h.92l.26.16.1-.21.26-.25.71.3h1.18l-.1.46.15.31h.41v.36h-.46l-.2-.26-.31.56.31.41.35-.2-.1.41-.51.2v-.3l-.2-.36-.31-.16-.36.21-.1-.1h0l-.05.3-.36.31,0-.36-.1-.36-.36-1-.62-.1-.56-.31-.05.46-.51.21-.41-.46Zm7.51-.26v.67l.46.66.26.26-.26.2-.15-.35-.46-.41-.46-.51.2-.26Zm3.23-.1-.21.62-.36-.36Zm-12.79.26-.31-.46-.51.2-.1.62.36-.26Zm11.35-.51.21.3.25.26-.3.1-.16-.15-.3-.21-.11-.3ZM282,90.09l.56-.51H283v-.26l.77.1-.16-.41h-.51l-.61-.25-.51.46.1.46ZM293.84,89l.92-.61.11.41-.21-.15-.25.51-.36.3-.41.87.1.26-.36-.46Zm2.46-.81-.26.46h-.25Zm.25.3.46-.2-.15-.15.2.15-.46.46Zm-15.49.72.56-.41.1-.2-.41-.11-.35-.41-.11-.2-.3-.1-.21.3-.1.36.41-.1.26.2v.31l-.36.15.1-.2L280,89l-.26-.15-.05-.51-.41.36-.46.15.31.15.51.36.2.16.26-.16.2.16.21-.21Zm19.43-1.64-.15.21,0,.36-.21-.11.26-.25-.21-.36h.67Zm-18.71.21-.31-.41-.21.25.46.36Zm16-.78h.47l.26.26-.31.41-.51.2-.46-.15.1-.31.31.21.1.1.2-.21Zm-18,0,.2-.1-.3-.21-.67.77-1-.1-.2.41.61-.21.36.21,1.07-.1.16-.31h-.36Zm12.53,7.16H293l.11.15.15.52-.31.4-.3.26-.21-.15.36-.36.31-.46h-.52l-.1-.21-.3.31-.16-.31-.61-.25-.21-.51-.15.15h-.26l-.3-.25,0,.35,1.23,1-.11.1-.25.15-.26.56-.46.06.21-.26L291,95l-.31.2-.51-.1-.25.36-.06.46-.51-.2-.87.1-.15-.16.36-.2V95.3H288l-.15.46-.36-.05.1-.51-.29-.2-.16.41-.25.3-.67.1-.2-.3v-.62l.51-.2-.56-.15-.61.76v-.41l-.92.16.1-.41h-.62l-.1.36H284l-.21.1-.71-.67h-.62l-.56-.81-.31.15.16.2.1.31-.26-.2-.1-.26-.15-.15-.26,0-.56-.26V92.7h0v-.06h-.15l-.16.16-.2.56-.36-.46h-.26l-.56-.56.51-.93.26.36.25-.41-.56-.3.67-.36.15-.56-.2-.21-.26-.2-.1.41-.16.46-.41.2-.25.1-.41.26h-.26l.11-.41.41-.2-.16-.16V90l.16-.25-.52.1-.4.26h.4l.11.25h-.31l-.1-.2-.31.15-.25-.46v-.31l-.36.16v-.51l.36-.26L277,88.4l.41-.36.1-.25-.51-.51.31-.77-.26-.36V86h.82v.4l.3-.1.41-.46h.57v.46l.56-.41.46.56-.26.31.36.1.41.16-.15-.46-.26-.41.26-.31.1.1L281.78,87v-.21l.2-.66.61.15-.46.16.11.46h.46l.15.46-.41.41-.36-.1.46.46h.56l.16-.31-.26-.26.46-.15.21-.2.05-.16.1.31-.15.26.2.3-.36.21-.41.2-.25.21.41.1.3.1.31-.46.21-.26.1-.51.71.16.62.61.61.36.26.3v.46l-.36.31h-.26l-.2.51-.15.62.76-.11-.3.31.3.31.46-.31.16-.31-.21-.3-.31-.11.06-.3.56-.21-.15-.41h.61l.56.67.41.31.67.35-.26.16V91h.15l-.25.2.46.11.25-.57.26-.1v.21l.41.51V92l.41-.2.61.3.21.41.56-.61.1-.26.2.41.31.16.87.2.21.41.2-.1.05.36-.46.1-.92-.51-.26.41.16.25-.26.21.46,0,.51-.36.46.46h-.25l-.31-.1-.25.35h-.72Zm6.49-8.08-.3.51L298,86.1h-.57l-.25-.15-.05.2-.26.1.15-.41.77-.15-.1-.56v-.26l1.31,1Zm-2.55-1.64-.16.16v-.16l-.31-.3h.21l.36.15.2.31Zm-.72-1.17h.46l-.1.36.3-.06-.15.26-.61-.15Zm2.35-1.38.41.1v.25h-.56Zm2.2-.26.31.31.15-.16h.26l-.16.16-.66.25-.1-.3Zm-5.88-.51-.1.15-.1.46-.21.21-.05.36-.26-.21.31-.25v-.21l-.15-.1.1-.36.46-.31.2.26Zm-1-.31.36-.35.2.35-.2.21-.47.15Zm1.68-.1h-.3l.25-.26.31-.2ZM285.56,80l-.15.41-.21-.51.51-.2ZM285,80l-.41.16h-.26l-.1.2-.21.21h.82l.16.3-.62.16-.46-.46.82-.82.41-.1Zm2.19-.3L287,80v.47l-.3-.11-.16-.41.26-.46.3-.15Zm6.91,0-.41-.26.36-.2.05.46.15-.26h.21l.05.26Zm-5.73-.26v-.2l.26.3ZM292,80l-.2,0v-.51l.31-.36-.11.67.31.25Zm-1.17-.46-.21.21-.15-.26-.26-.46v-.51l.41.31-.25.31.92-.11.1.41Zm-1.08-1.07-.41.36-.51-.41.31-.36.61,0,.16.21Zm4.91,0-.25-.25,0-.26.1.21Zm-6.39,0-.15-.25.15-.31.41.31Zm-2.46.26.26.41-.26-.1-.71-.57.25-.41.06-.35.71.15.15.66-.25-.3h-.31Zm7.19-1,.47.16.25.36-.05.15-.31.15-.1-.51-.51-.2-.05-.31Zm2.46,0,.2-.3.11.25.3.21.26.1-.15.26-.26-.16-.05.26-.51.41.15-.62.26-.2Zm-1.13-.41.52.26-.16.41-.56-.36h-.2Zm-2.45,1.18-.72-1,.67-.26.2.41h-.25l.41.41.46.56.35.4-.46-.2Zm-6.14-1.64-.15.41-.77-.3-.35-.46.61.1Zm5.48-.66v.2l.2.21.31.2-.21.11-.15.15-.21-.26-.25-.41Zm-7.88,3.94,0-.67-.72-.15.11.61h-.31l-.21.16v-.51l.26-.16L282,79l-.05-.46-.2-.35-.06-.26-.25-.15-.16.15-.25.36.2.1,0,.26-.46.1.06.25.1.36-.46-.41v-.36h.36v-.71l.46-.77.41.15-.16-.51h-1.07v.46l-.1.67-.62.15-.3-.36.3.26.21-.31.35-.61.11-.72.46-.31-.21.31.21.26h.3l-.15-.16.31-.3h.3l-.25.2h-.21l.82.36L283,77l.16.76.2.21-.2.61-.31-.3.25-.31v-.16l-.25-.3-.77,0-.36.31.11,0h.61v.82l.92.05.46-1.13.15.87.21.46.25-.1.26.26h.76l-.35.2h-1l-.16.36-.1.46Zm4.5-2-.36.21v.3l.41.06.36.4-.36-.15-.92-.1.15-.21v-.3l.11-.16.15.26.15-.15V78l-.25-.15-.21-.51.72.46.46-.21.46-.56-.41-.36.05-.36-.15-.41.51.11.61.56-.2.31-.21-.11-.15.72Zm-5.16-2.35.15.51-.46-.36Zm-3.23.82-.15-.31-.1.36-.46.26-.31.1.1.2.41.36-.2.31-.31-.41-.15-.56-.51-.26h.2l.46-.41V76l.21-.21.05.46-.21.21.41-.11.77-.1v.26Zm7-1.23.15.26-.41.3-.2-.25Zm-4.6-.2-.26.41-.51.2.1-.1.21-.56Zm.46,0v-.31h.2l.11.41.1.3-.31,0Zm-3.53-.41.51.15-.1.26.1.51.41-.26v.36l-.51.1-.16-.61-.1-.36-.36.36-.15-.31Zm2.35-2.15-.15.2-.26.21-.2.51.3.1.46-.25v-.11h.06l-.11-.35ZM285,74.9l.41-.15.1.82-.77.71-.41-.3-.3.2-.26.46-.36-.26-.15-.35.56-.21h.36l.41-.56-.72-.31-.66.21L283,74.9h.56l.36-.1v-.26h-.61l-.26-.1-.56-.3-.1-.46-.16.71-.46.15-.41.11.06-.62.71-.61.87-.26V72.7l-.25-.15.2-.15.61.66v.56l.21-.1.15-.71.21.25.51.36-.62-.1-.1.2v.31l-.41.1-.2.41-.21.1.21.1.25-.25.36.15.41.26Zm-6.4-2,.46-.31.06-.31.25.26-.31.46-.51.15Zm-1.6-.2.1-.61.16-.1h.2l-.15.46v.2h.3l.26.36h-.31Zm.82-1.53.3-.26.26.26-.26.15-.2.16-.26-.21Zm2.71-.31-.26-.2.26-.21v.41Zm-.36-.31-.26-.2.21.15Zm1-.15v-.77l.31-.3-.21.3.31.31h.36L281,71.22l-.16-.15Zm-.71,3,.3-.51.1-.26.26-.61,1-1.18,1.13-.92v-.56l.56-.16-.15.57.15.41-.31-.11-.2.11.25.2.31.51-.26.41h.31l-.15.26-.46-.77-.16.15h-.46l.82.52-.1.3v-.25l-.25-.11-.06.31-.25.15-.56-.46-.62.26.11.31-.36.71.1.41-.15.1v.06h-.06l-.05.25-.1.31-.36-.1-.35-.21h-.67l.36-.51-.41-.51.2-.26h.62v-.35h.2l-.15.35-.26.21Zm1.93-4.4.41-.1-.05.82-.46.35,0-.46.1-.51Zm-4.3-.15-.15.15-.15-.25.1-.16v.1Zm3.17-.31.52-.2.4-.06.26.41-.05.31-.1-.25-.11-.31-.2.36-.26.35-.46-.25.46.1.11-.25Zm2.36-.2.2-.36v.2H284l.21.11Zm-5.88-.52.15.16v.3l-.21-.25Zm6.8-.3.66.15.21.46-.31-.1h-.41l-.2-.15Zm-1.69,1-.72-.82.36-.25.46.15.31-.2v.46l-.51.2ZM298.29,67l.21-.16v.36l-.21.16Zm-15.49-.26-.16-.2.52,0Zm-2.25-.3v.81l-.16-.41-.1-.25Zm-.62-.21-.25.1.2-.2Zm5-.2-.2.1-.1-.31Zm6.09-.26.15.15.11.41-.36-.36Zm-9-.1.2.2.16.41-.16.1-.3.26.3.15-.05.26-.25-.41.2-.51h-.3l-.06-.21Zm5,.2.36-.36v.26l-.15-.15L287,66l.31.11.36.41-.41-.06-.41-.25Zm-7.31-.46.1.21.15.41-.25-.06-.21-.35Zm4.24-.1.21-.26h0l-.26.41-.46-.15V65l.26.16Zm13-.1.2-.56.36-.06-.56.87-.15-.41Zm-13.35-.62-.2.21,0-.46Zm1.79-.4h.41l.21.25-.51.31-.06-.46-.2.2-.15-.15Zm5-.26.16.2-.16.41.16.11-.41-.06-.21-.35Zm-7.82,0,.31.2.3-.1-.3.21-.05.35-.16.31-.1-.31-.2-.35-.11-.31Zm3.63-.61.05.35h-.51l-.15-.25Zm5.63,0,.1.25h-.21l-.15-.31Zm2.6-.21.67-.1-.41.2.2.26-.25.15-.16-.3-.35,0Zm-6.54.21L288,63l.16.15-.57.41Zm16.05,19.48-.25-1-1-1.9-1.23-1.58-.87-.72-2.71-1.22-4.19-1-5.17-.66-2.3-.76-.76-.41-.82-.82V71.39l.15-1.33.56-.71.87-.67.72-.3.92-.21,3.27-.1,1.13.41.76.61,1.69,1.79,1.59.51,3.37.11.92-.11,1,.11,1-.62.47-1-.41-2L301.83,66l-.67-.82-.51-.82-.66-.77-3.28-2.25-2.81-1-1.07-.2-.92-.11-1.13-.25h-2.86l-4,.82L283,61l-.82.51-.82.3-1,.62-.72.66-.92.62-.56.87-.66.66-.36.92-.51.82-.72,3,0,3.43.36,1.43.66,1.79,1.28,1.69,1.44,1.33,1.78,1.07,2.92,1,1.84.41,4.19.31.92.15,1,.06,1.84.76.71.62.26,1.33-.31,1.32-.82.72-.81.46-1.9.56h-1.43l-1.53-.1-1.18-.3-.77-.36-.92-.56-.76-.72-.77-1L283,85l-3.89-.1-1,.1h-1l-1,.46-.35,1.07.1,1.13.2.92.82,2,1.28,1.59,1.48,1.48.87.56L283.92,96l1.13.15,1,.36,2.15.15,1.48.16,1.64,0,5-1L299,94.33l1.63-1.12L302,91.57l1-1.63.41-.93.3-1,.16-.92L304,83.9Z"/><path class="cls-3" d="M240.52,90.24l-.1-.1.25.15Zm-.2-.15.15-.21-.1.26Zm-.72,0-.36.31-.1-.46.51-.46Zm25.92-1.89v-.36h.26v.3Zm1.13-.31.2-.56v.25L267,88Zm-23.42-.41-.61-.15h.3l.51-.15.31.25Zm-5.78-.25v-.41h.41l.1.35Zm28.23-.62-.16-.25.36-.11.11.26ZM241,86.92l-.66-.41,0-.26.92.16V87Zm23.88-.36-.31.1V86.2h.36Zm-4.5-.1V86l.21.25v.31Zm7.36.31-.41-.21H267l-.16-.15.41-.31.51-.31.11.62Zm-4-.57-.31-.2v-.31l.36.26Zm-1.39-.46h-.56l.26-.36.61.21Zm-21.06-.25-.11.3h-.46l.16-.46Zm-1.74.15-.31.1-.31.51-.3-.3-.26.1h-.61l-.31-.51.26-.21.3.36.31.21.51-.16.62-.2.2-.1Zm2-.51-.1-.21.56.21Zm.56.46.47-.31h.2l.2-.46.31.36-.41.15-.2.16.3.3-.1.26h-.41Zm-5.88-.1-.25.05v-.26l-.31-.56.82-.1.21.41Zm1.64-1,.1.26-.46.2-.15-.25Zm5-.46h.56l-.05.31h-.51Zm18.62.16-.31-.26.31-.31.2.31ZM240,83.75l.36-.16-.05.47-.31.15Zm-3.07.1-.36.1.1-.25.31-.31Zm-1.64-.36v-.25l.41.1.11.56.1.16-.15-.06-.25-.3Zm3.53-.76-.15-.21-.15-.1-.06.36Zm28.38,0,.87.2.1-.31-.71-.3Zm-1.84-.82.41.1.15-.36-.46-.15Zm-28.22-.21.21-.3.15.3-.36.31Zm30.48-.25-.15-.31-.31.1v.36Zm.26-.51-.41.15.56.15Zm-2.15-.16v.31H266l.3-.16v-.35Zm-26.59,2.35-.36-.13-.56.31v.51L238,84l-.2-1,.25-.61-.15-.21.36.36.31-.15h0l.15.15.15-.71.92-.62.16-.82.25.26.57-.31.3.51-.76.62-.31.36-.36.25-.41.21,1,.1.87,1,.36-.36-.36-.3.31-.31.25-.31-.25-.51.1-.51.51.1.31.31-.51.31.3.35.57.46-.1.11-.59-.11-.3.36.35.41.62-.15v.35l-.46.21-1.21.87-.36.1v.36l-.3-.26.46-.66.51-.31-.56-.31-.46-.46-.72-.2.05.77Zm23.57-3.47.41.2v.26l-.25-.16-.46.41-.11-.3Zm-21.32,0V80l-.41-.2Zm22.86-.1.1.56-.56-.16-.11-.51Zm-1.18-.62v.36h-.31l-.05-.31Zm5.52,0-.35-.2-.16.15v.41h.46Zm-28.68.67-.21.25-.25-.41.46-.41.1-.3.56.05v.56h-.82Zm1.63-1.69.56.2-.56.41,0-.36Zm-1.07,0-.46-.1.2-.16.31.21.15.25Zm-4.81,0-.36.3v-.61h.31Zm27.56-.46h.41l-.15.31L263,78l.2.46.46-.36.11.46-1.13-.1-.1-1Zm-26.38,5.11-.26-.15.31-.26-.21-.1h-1L235.25,81l.31-.57.2.06.26-.31-.61-.18-.52.1v-.26l.41-.15-.2-.41h-.46l.66-.56h1.08l-.11.36-.4-.06v.36l.51.36.51-.1.3-.67.72.21.31-.51-.22-.5-.56.52-.61-.82.3-.67.26.11.56.25.31.41.2.92.57.56V80l-.62.16-.3-.46-.77-.21-.46.62-.41.2-.36.41.11.31-.57.15v.31h.57l.76-.62.41-.56.56.15.62.26-.21.31-.87-.21-.61.41-.26.1-.1.52.56.25-.1.26Zm32,.41.71.26-.66.51-.67.87-.1.36.46.46-.05.15-.15.25-.51-.56-.41-.2-.31.25-.41-.3.41-.31.36.1.25-.25v-.21l.21-.51-.51.1.15-.36-1-.71-.77.25.26.06.51.2-.56.77-.41.1.31.2-.77.11-1.13.05-.41.1-.35-.15h.3l.21-.11h.36l.15-.3v-.31l.56.26.92-.36v-.62l-.2.46-.41.31.15-.51-.15-.56L264,82.67l.15.72-.35.46-.46.1-.62-.25-.56-.57v-.25h.51l.41.76.26-.3v-.46l-.77-.41-.72.1-.15-.46.82.1h1l.77.26.2-.31-.1-.46-.31,0-.46.15-.15-.35.31-.31-.11-.21-.41.11.47-.51.86.51.72-.62-.2-.61V79.3h-.72l-.2-.1v-.26l.81-.1.57-.67.2-.25.36,0-.1-.46.1-.46.36,0v.51l-.1.25.4.87-.2-.2-.46.46-.56.51.71.41,1.08-.41.15-.56.2-.21h.52l.25-.46.41-.61h.56l-.15.66-.51.36,0,.3.61.26-.3.67h-.51l-.31.71.77,1.07.61.77-.51.36-.36-.31-.26-.41-.1-.51-.41.57Zm-28-5.37v-.56l.41.1.71-.3v.4l-.61.31v.26ZM240,77h-.26v-.31l.21-.15Zm25.87-.67h-.1l-.15-.2Zm-1.53.31-.31.1-.41-.31v-.25l.26,0,.41.2Zm-26.64-1,.2.3h-.2Zm1.84.82-.41.3h-.26l.21-.56.41-.51.51,0V76Zm26.33-.16-.25-.46.36-.41.3.62ZM242,75.52l-.3-.31.4-.26v.31Zm-5.11-1.33h-.31l-.2.3.36.21Zm26.9.2-.36-.15-.21-.31.46.15Zm-28.64,1.33v-.41l.36-.15H236l-.2-1,1.23-.33.46.51-.3.56.81.26.36.41.41.2-.51.21-.56-.36.05-.31-.87.31-.41.46L237,76v.15l.26.31-.72.2-.92.56-.15-.66-.47-.23.61-.15v-.31Zm34.06-.2.25.2-.51.41v.46l.26.41-.46.25-.26-.56-.36-.2.21.61-.72.21-.36-.41.26-.31-.1-.46.56.15.77-.41.36-.1-.52-.25-.51-.06-.3.06-.57-.21-.35-.15-.57-.51-.35-.26-.26.31-.77-.26v-.51l-.41-.15.41-.16.46.51.26.41.31-.15.25-.41.15-.66.41.25-.15.82.72.26.35-.41.31.1-.26.72.26.25.61-.1Zm-4-2.51v-.56l.35.1.41.51-.05.61-.1-.4Zm-24.85.41-.36.15-.41-.3-.1-.67.51-.15.46.61H241l.1-.15.15.15h-.3v.31Zm2.45-1.07v.2l-.41.15.15-.1.16-.15ZM267,72.24l-.26.46h-.56l.25-.35Zm-26,0-.2.16V72l.1-.21Zm-4.65.21,1.17.41.36-.41v-.67h-.3l-.31.1.1.31-.15.21-.22-.46-.31-.06Zm31.86-.36v.41l-.26.25-.15-.2h.41l-.67-.36-.66-.51h.61Zm-31.3-.36v-.25l-.72.2.16.2Zm27.15.15.41-.4.21-.06.87-.1.51.56-.21-.2-.66-.2-.62.46-.66.66Zm.62-1.48h.51l-.26.31-.41.05Zm-1.9.26.26-.26h.41l-.26.41h-.56ZM238,71.37l.66-.66-.51-.31h-.46l-.16.36.41.1-.41.41Zm28.58-1.22v-.41l.26.36-.41.25Zm-6.85-.31.3-.1V70h-.3ZM242,69.58l.1.26-.25.31-.1-.31v-.36Zm23.88-.35.36.2-.41.15h-.26Zm-5.42,13.55-.56.92-.31.76-.71.82L256.37,87l-.92.26-.77.35-1,.21h-2.81l-1.13-.16-1.84-.76-.82-.46-1.38-1.13-.7-.74-.72-1-.25-.81-.46-.92L243.18,80V76.85l.25-.93.16-1L244,74l.3-.92,1.23-1.63,2.56-1.74.66-.26,2-.51,1.43-.1,2.45.3.92.21.92.41,1.59,1.12,2,2.1.62,1.94.46,1,.15.93-.1,3.11-.41,1.9Zm3.38-14.07.2.16-.31.41Zm-22,.21-.36.1v-.31l.31-.1Zm-2.2.51,1.07-.56.21-.41.25.05-.3.72-.41.35L240,70l.3.26.41.15.16.46.46-.15-.16.46-.61.36-.2-.31-.06-.56L239.14,70l-.31-.61v-.31l.26.21-.21.2ZM236,71l.46-.46.46-.41v-.62h.46l.21-.3-.34-.21.51-.36.51-.2v.46l.2,1.1,1,1.13.2.51-.51.77-.87.3.36.21.46.41-.31.3v.46h-.51l-1-.56-.92-.1-.11-.36-.41.1v-.46l-.1-1.12Zm6.75-2.87.36-.15.41-.46-.11.66Zm1.89-1-.15.25-.41-.1.2-.25Zm13.91.2-.46-.3v-.41l.46.2Zm-15.7-.66.36-.31.1.26-.25.2h-.51Zm-3.27-.26H240l.26.11.51-.41.56-.11-.26-.1-.51-.05-.2-.31.66-.35.41.41.05.3.46.16-.25.3-.31-.25-.15.56.3.41.87.41v.36l-.77.3-.4-.3.4.05v-.46l-.56-.21-.51.26v-.41l.1-.36h-.82L240,67.9l-.41.81-.51-.1-.57-1.33Zm6.24-1.48v.41l-.31.2v-.4Zm9.61-.1h.31v.36h-.36Zm2.61-.16.25.31h.41v.36l-.76.1L257.7,65Zm-5.06,0-.16.21-.2-.1.25-.31Zm7-.2.11.25h-.36v-.25Zm-10.22-.36h.2l-.25.21-.31-.16Zm-6.29.61.25-.2.36-.41.15.21-.3.46-.57.15ZM254.63,64v.36l-.3-.11v-.2Zm-9.15-.61.61.1-.2.46-.56-.1Zm-.41-.52.05.31-.3.1-.06-.3Zm2.3-.1L248,63l-.26.46-.74-.27-.15-.51Zm10.48-.31.62.31L259,63l-.1.2-.46.11-.57-.36Zm-8-.05.3.21-.41.05-.15-.15Zm3-.2-.3.15v.26l-.11-.26Zm3.12-.05.67-.16v.52l.3.3.21.41-.36-.25-.46-.16-.46.16-.31-.16Zm14.68,13.75-.36-2.09L269,69.94l-1-1.89-1.12-1.53-1.44-1.59L264,63.65l-1.18-.82-1.53-.66-.77-.56-3.93-1.23-3-.51h-1.38l-5.42.76L243,62l-.76.56-.92.46-1.74,1.28L237,67.23l-1.58,2.71-.77,1.94-.87,3.94L233.67,80l.15,1,.26.92.1,1,.46,1.94L237,89.53l.61.61.67.82.77.71.56.67,1.69,1.33,4,2,1.48.52,1.12.1,1.84.41,1.08.1h2.86l3.07-.41,3.83-1.28,1.69-.92.77-.61,1-.46,1.43-1.23.67-.92.71-.72,2.25-3.42.77-2,.41-1.94V82l.26-1V79.94l.2-1.48Z"/><path class="cls-3" d="M200.87,93.05v-.4l.26-.31.1.41Zm-1-.71L200,92l.26-.66v.41l.1.4Zm1.33-1.74v-.41l.4-.15.11.56Zm2.4-.41-.2-.1-.21-.26.21.16.3.15v.2Zm16.21-1.38.41-.61.1,1.28Zm-20.3-.51v-.36H200v.31Zm.87.77-.21-.41.52-.41.25-.41.26.46-.11.36-.15.35Zm16-1-.51-.25.36-.15.26.2Zm3.17.46-.25.36-.15-.3,0-.31-.2-.59-.56-.31-.26.1.06.36.46.46-.21.36-.36-.11-.13-.46-.31-.35.16-.26.3-.1.21-.21v-.35l.66-.41.67,1.38-.41.3Zm-14.9-1.41h-.3l-.46-.46.15-.25.36.3V87l.25-.1ZM221.78,87l.26-.1.31.41.82-.46.1-.46L222.09,86Zm-18.86-.41h-.36l-.26-.25-.25-.34-.21-.31h.41l.15.31.21-.21.1-.15.21.26Zm18.35-1.53-.1.15.36.51v.41l.46-.56Zm-3.07,0-.4-.16v-.35l0-.16.2.21Zm-18.81,4.67-.26.41-.66-.41.25-.92-.15-.41v-.87l.25-.51v-.56l.62.36.25-.26-.56-.77.41-.56-.31-.51.36-.51.1.25.36-.41.31.11-.15.3.25.11-.15.1.36.1.66.21-.26.15-.4-.31-.46.05.3.77.51.2h.36l-.15.26L200,85.9l-.1.51h.76l.26.2.36-.2.25.15v1.07l-.61-.2-.41.31v-.36l-.25-.38-.92.56-.41.72.56.31-.46.51Zm-1.08-5.32.16-.76.51-.11.05.36-.61,1Zm21.38-.87.36-.61.61.26-.1.2-.36-.1-.36.41Zm6-1.53-.2.36.56.36.1-.16Zm-22.5,0,.16-.61.56.41-.16.15Zm1.84-.26,0-.3.36-.11,0,.67Zm-3.83,1.44.2-.11.21-.4-.31-.16-.1-.36-.62-.2.26-.36.56-.15.31-.26.15.16-.2.51.25.46.16.66Zm21.2-2.36H222v-.56l.36.26Zm1.12-.46.31-.2v.51l-.46.1Zm-23.21.82.36.1-.41.36V82H200l-.26-.16-.35.21-.26-.46.51-.26-.82-.3-.15-.62h.56l.62-.25.2.1.15.1-.41.67Zm26.43.15-.66.31.1.36h.36l.1.36-.3.25-.26.11h-.26l-.15,1.48-.61-.16-.21.21.57.36v.92l-.52.1-.3.36.36.3-.11.21-.35-.26-.77-.25.3.46.11.87-.36-.33-.31.41-.36,0,.41.2-.25.36-.21.36-.25-.28-.16-.35-.76.35-.36-.35v-.21h.41l-.31-.36-.46-.1-.3-.25-.06.51-.3-.16-.51-.35-.62-.41.26-.57.71.41.36.31.29-.17-.36-.4-.82-.36L219,86l-.46-.41.26-.72-.46-.46.36-.87.46.26,0,.41h-.36l.66.71,1.28.46.1-.56L220.4,84l.57-.25.3-.51v-.62l.26-.1L222,83.9l.25.15.16-.76.2-.82H222l-.41-.46-.26-.2h-1.13l-.31-1.08.46-.15.1.41.11-.36.56-.61.15.35-.41.06.26.35-.67.41v.31l.72-.15.51.4h.21l-.11.21.36.1.67-.36.46-.35v-.16l.31.16.15-.46.41.2.25-.36.36.21-.15.41-.41-.21-.15.15.3.46-.2-.15-.26.21-.82.46.46.81.31-.3.31.15.61-.41v-.71l.36-.21.25-.1-.15.25V82l.51-.51.51-.77h.56Zm-25.56-1.68.41.36.15.25h-.36l-.46-.2-.2-.26Zm22,0L223,79l.26-.41h.25l.16.67Zm-21.54-.46-.16-.26.51-.41.21.16-.15-.06-.11.31Zm-1.79-.31-.26-.56H200l.21.3Zm21.42.51.46.15V80l-.35-.21-.21-.1L221,79.5l.1-.41.2-.2.26-.1.1-.46.26-.1V79h-.26l-.36-.2-.1.2Zm5.47-1.23-.15.26-.1-.36.25-.51.11.41Zm-.46,1.23-.2.21.41.3v.51l-.56-.25-.26-.51v1l-.61.15-.36-.56.25-.61-.2-1.13.56-1v.82l.16.56-.47.41.25.36.56-.41.41-.31-.35-.41.4.1.52.36Zm.16-1.94h.25v.15h-.25Zm-22.6,0-.11.3-.1.46-.1-.46Zm17.59.36-.36.25-.15-.25-.16-.16-.15-.2.46-.11ZM202.66,77H203l.35.15h-.51l-.2-.1Zm-.46.41v.25h-.15l-.11.51-.46.41V78l.36-.51-.1-.31.31-.25,0,.25h.2Zm21.37.46-.56.25-.61-.2-.21-.56-.3-.11.51-.2.56.61,0,.34.56-.41.31-.92h.31v1.18l.25.56H224l-.15-.26Zm3.17-1-.15-.46-.51-.26-.41.31.41-.46.66.35.21.36Zm-3.93-.36-.26-.41v-.26L223,76l.41.51.15.56-.41.15L223,77l.1-.46Zm-19.18-.16h-.46l-.2-.56.66.51.31.26Zm17.59-.46.21-.4.25-.21v.46Zm3.17-1,.26.46-.31.26-.15-.41Zm.67.67.25-.57.26-.15.82-.1-.77.56v.46l-.36.46-.2-.3.3-.11Zm-3-1.69h.26v.46l.2.15.67.16.35.41.16.15-.21.31.36.1h.41l-.46.36-.87-1-.56.06v.35l-.51-.35.2-.67Zm-1.89.2.3-.3H221l-.21.51h-.61Zm-21.58.67-.26-.1v-.36l.31-.51.2.1.11.41.3-.31.11.21-.36.52v.87l.41.76-.26.16-.36.15-.15.51V77l-.15-.51.25-.72ZM224.24,73l.2.15.16.26.2.31-.2.2-.41-.31Zm-.56-.15-.26.1.15.31.36.51-.3.15-.36-.31-.27-.14-.2.31.1-.21.15-.2-.05-.21.31-.51Zm-20-.92.31-.06.31.26h-.41ZM202.4,72l-.25.2h-.26l.87-.82.05.46Zm-1.79-.31.26-.26.36-.2h.25l-.3.67Zm17.9-1-.15-.16h.46l-.62.77-.1-.36ZM201.23,70l-.31.46-.56-.15h.36l.15-.41Zm-1-.56v-.26l.35-.2.16.36Zm16.29,16-.62.81-.81.51-1,.52-1.84.51L208,88l-1.23-.46-.46-1.12.1-1-.2-.92.15-1V70.3l.62-.92,1.48-.56,1.07.05,1.08-.05,1.53.1,2.05.61,1.73,1.13,1.28,1.43.56,1,.67.82.61,3,.16,1.58L218.92,81l-.31,1-.76,1.84-.67.92ZM203.27,68.82l.16-.36h.25l-.1.41v.41l-.15-.11Zm-5.16,0,.15-.57,1.38-.1-.25.36-.82.15H199l.66.11-.2.51.61.51-.51.3-.25.31.61.41.26.67-.36.71.18,1.23-.66.36.2-.46-.36-1.08-.41.41V72h.67l-.44-.63v-.66l-.57.2.16-.76-.28-.15.26-.3.31-.26h-.67Zm25-.31-.51-.05-.36-.31L222,68.1h.26Zm-7-.82.46.21.25.2.11.15-.72.62-1-.1v-.41l.36-.16.66.41.41-.36Zm5.93.36h-.21l-.4.36-.06-.62.46-.1Zm-20.1.2-.71.41.3-.66.67-.41Zm-2.2-.15-.1-.51.15.15Zm12.38-.41.2-.36h.46l-.41.41-.51-.15.11-.2Zm7.41-1,.41.2v.26h-.46Zm-1.53.54v-.56l.51.1-.21.56Zm3.17-.87.36.31-.31.46L221,67Zm-6,.36-.21.2-.46-.25.21-.36Zm-9.8.28-.77-.26-.15-.36.2-.2h.41l.67.36Zm13.35-.77-.26-.23.26.06L219,66h.26Zm-8.49-.41v1.07l-.11-.46Zm-6,1.23-.3.36-.62.15L202,66.31l-.3-.46.92.46H203l.15.67.26.25v-.46l.4.1ZM206,66l.36-.25-.1.46-.36.1Zm10.54.57v.35L216,67l-.61-.77v-.67l.51.52Zm-2.92-.93.77-.2.67.36h-.67l-.61.72-.51.1-.27-.41Zm7.11-.3.16.2-.21,0-.26-.2Zm-22.31,1.23-.11-.36v-.77l.46-.31.57.31.71.62.1.92.16-.41.41.1v.66l-.16.31-.3.15v-.35l-.11-.44-.35-.11-.26.26-.31-.26-.35-.2-.31.1.36.41v.31l-.21-.21-.15-.3-.31-.11-.2-.1Zm13.14-1.9-.05.31-.21.31-.36-.05.11-.57Zm3.73-.46.51-.2-.15.61-.62.11Zm-17,.31.26-.56.41-.21-.16.36.41.26.57.15-.21.46-.51-.31-.2-.3-.06.46-.61-.1Zm13.55-.25-.4-.16-.06-.51.46.1Zm5.22-.41.2-.52.21-.1.15.46h.26l.51-.3.36.46-.46-.21-.41.36.41.1v.41l.25.41.77-.15-.26.56L218,65h-.2v.36l-.26.15-.26-.2.52-.62-.57-.3-.71-.26-.1-.25Zm-8.85-1.08.51.31.11.51-.62-.31ZM206.9,63h.21l.36-.26h.3l-.15.31-.31.3h-.51Zm4.1-.73-.1.26.57.2-.17.27-.71-.51-.31-.41Zm-11.35-.41.57,1,.2,0-.2-.35.25-.26.41.15v.46l-.15.77.51.26.36-.31.46-.15-.31-.52h-.56l.15-.46h.72l.66-.3-.25.36v1l-1,.76-.36.21.26.31-.56.1-.26-1.23-.41-.72-.36.16-.15.56V64l-.31-.26-.15-.3-.17-1Zm5.68.51-.47-.37.15-.4h.46v.51l.36.15,0,.31Zm3.37-.87.46.26.26.36L209.1,62l-.1.35-.36.11Zm-5.62,0,.51.52-.41.51v-.36l-.25-.46Zm25.15,15.29-.77-2.91-.1-1.08-.26-.92-.76-2-1.18-1.78-.41-.87-1.33-1.58-.87-.65-1.43-1.4-1.89-1.18-1-.51L215.39,61l-2.09-.41H206l-1-.1-3.27.1-1-.1h-2l-1,.51-.8,1v2.1l.11,1v1l.1,1.94L197,69.17l.16,1-.16,1,.21,4.09-.15,1.94.15,2.2-.15,1,.15,1.08-.15,2,.1,4.09-.1,1,.15,4.09-.1,1.94.61,1.12.82.47h1.17l1.08.15h1l1.08-.15,9.2-.06,3.27-.46,3-.92,4.34-2.91,2-2.35L226.34,87l.25-1,.51-1,.21-1,.36-.92.15-1.08.25-1.07v-.87Z"/><g class="cls-4"><polyline class="cls-5" points="-20 58 -19.69 -29.05 652.31 -29.05 665 44"/></g><path class="cls-2" d="M411,45c-17,0-425.73,7-425.73,7l2.33-82.2H651.42V42.11l-53.29,1.7Z"/><path class="cls-2" d="M370.26,140c.5-.08,1,.06,1.09.72a1.69,1.69,0,0,1-1.28,1.79,1.36,1.36,0,0,1-.29.06v-2.44l.48-.13m5.28,9.42a56.39,56.39,0,0,1-3.47-4.81,4,4,0,0,0,2.16-4.13c-.08-2.18-1.6-3.35-4-3.07h-.42v-.32l-3,.48c.1,4.16.22,8.58,0,12.74a25.08,25.08,0,0,1,3-.37v-3.79c.8,1.2,1.56,2.43,2.38,3.82ZM361,147.79c-1.09,0-1.34-1.74-1.34-3.47,0-2.26.45-4.26,1.6-4.26s1.31,1.47,1.31,3.44-.3,4.29-1.57,4.29m-.08,2.82c2.58,0,4.24-2.12,4.5-6.24.19-3.41-.64-7.28-4.15-7.28-3,0-4.57,2.88-4.57,7,0,3.62,1.18,6.47,4.22,6.47m-5-10.71-.17-2.69c-.21.05-.5.08-.83.12v-.07c-.29,0-2.79.19-3.09.23v.09l-1.32.07.2,2.7c.31-.06.77-.13,1.32-.19.09,1.76.16,3.74.12,5.12s0,2.38-.59,2.38-.72-1.65-.61-2.4l-2.7.34c0,1.87.48,4.86,3.5,4.75,2.26-.1,3-1.65,3.22-3.78.14-1.31,0-4.27,0-6.62h1m-8.63,6.39a5.85,5.85,0,0,1-1.75,1c-1,.36-1.63.12-1.76-1.13a14.43,14.43,0,0,1,0-1.86l2.53-.37c0-.89-.08-1.76-.07-2.65a23.39,23.39,0,0,1-2.33.46c0-.56.08-1.1.11-1.63a17.8,17.8,0,0,1,3.49-.34c-.05-.75,0-1.72,0-2.81-.92.17-2.06.37-3.2.49v-.25l-3.09.16c.11.83-.58,9.42.09,11.17s2.76,1.82,3.54,1.72a6.18,6.18,0,0,0,2.75-1Zm-7.12,3.18c-.83-4.11-1.5-7.84-2-11.9H338l-2.68-.09c-.2,1.77-.51,3.74-.88,5.71-.31-1.7-.59-3.43-.87-5.31h0L331,137.5a11.82,11.82,0,0,1-.26,1.39h0V139c-.47,2.48-1.48,7.33-2.26,10.37l2.8.78c.17-1.65.53-3.55.93-5.52.33,1.6.61,3.23.85,5h2.72c0-.08.38-2.31.88-5q.48,2.67.83,5.43Zm-17.55.75.31-.06h.17l.26-.08h.41l.15-.23.21-.16h.11l.17-.16.21-.13v-.18l.06-.22.24-.21-.06-.13.16-.11v-.19l.13-.21-.07-.25.23-.32v-.21l-.05-.26v-.17l-.13-.13v-.43l-.13-.24H325l-.14-.17-.08-.27-.29-.08-.18-.18-.22-.19v-.15h-.42v-.19h-.32l-.32-.19,0,.08-.38-.1-.07-.11-.06-.16-.16-.09L322,144l.08-.11.06-.4v-.25l.13-.13V143l.25-.16h0l.28-.1.48-.1.14.1.16.13v.06l.21.08.35.1v-.29l.21-.08,0-.22v-.13l.26-.19-.15-.18-.16-.22h-.22l-.29-.1h-.3v-.11l-.29-.11-.16.08-.46-.1h-.08l-.24.08-.24.11-.18.08h0l-.37.1-.18.17-.14.08v.16l-.2.1v.3l-.08.15h0v.36l-.21.36.12.32.08.23.09.19-.06.08.13.22-.07.13.15.16.25.16.13.27.26.15.11.17h.24l.13.15h.27l.13.14.24-.06.27.17h0l.35.26h.07l.08.24.08.08.11.15V147l.11.54-.05.21-.06.19.08.16-.1.07-.06.17-.19.24-.23.13v.16h-.17l-.61-.08-.14-.08-.13-.08-.21-.06H322l.06-.19-.3-.14v-.15l-.09-.24-.29-.08-.18.21h0l-.14.27h-.29l-.15.1v.35l.32.16-.11.11.28.24v.08l.25.16v.1l.32.21.08.06.22.13h.4l.2.13Zm-5-1.41L317,149l0-.12-.22-.1-.13-.13-.15-.24h.07l-.16-.2V148l-.15-.16.12-.21-.23-.17.16-.15-.08-.37-.06-.11-.08-.17-.07-.29.07-.13.13-.32-.05-.29.09-.24-.16-.09v-.37l.25-.31-.09-.11.13-.29h0l.14-.27.06-.21v-.06l.17-.32.16-.13V143h1l.17.17v.21l.19.07,0,.27v.43l.05.16.18.19v.11l-.1.34.11.16-.14.16.18.29h0l-.12.44.14.27-.19.24v.3l.14.13-.08.22v.2l-.08.25-.2.18-.08.19.07.11-.15.26-.16.16v.22h-.21Zm-.43,1.3h.39l.12-.06.05.09H318l.21-.23.19-.06h.24l-.05-.15.31-.11.05-.16.2-.21v-.09l.09-.18.29-.19-.1-.14.18-.1.1-.32v-.72l.14-.24h.1l-.1-.26.14-.21v-.14l-.16-.3v-.12l.1-.35-.08-.35.14-.11-.19-.24V145l.08-.19v-.24l-.13-.13.16-.19-.13-.19v-.18l-.18-.19-.11-.18-.11-.22v-.24l.1-.11-.34-.1v-.29H319v-.27l-.36-.15-.08-.14h-.2l-.36-.22-.14-.06h0l-.14.06h-.53l-.13-.09-.16.12h-.32l-.08.21h0l-.18.13-.24.08-.14.08-.16.15v.24l-.23.14-.21.16h.08l-.19.19v.29l-.1.21-.09.19-.15.08.08.24-.22.14.14.26v.13l-.06.13V145l-.1.22v.21l-.11.21.13.16-.07.45v.38h.09l-.14.28v.24l.21.11v.29l-.16.22.18.11v.23l-.05.09.25.19.08.24v.2l.16.17h-.06l.24.19v.19l.16.19h.08l.09.16.2.19h.16l.35.09.14.1h.59Zm-3.62-6.06-.16-.4.09-.31v-.22l-.11-.27v-.2l-.11-.22-.21-.21.08-.11-.29-.18v-.06l-.16-.22-.21-.07-.18-.06-.19-.08-.09-.1h-.5l-.37.2h-.38l-.1.22-.19.12v.28h-.23l-.24-.1v-.16l-.3-.2h-.12l-.09-.1h-.71l-.38.16-.18-.08v.07l-.12.27-.37-.19.16-.13v-.24l-.26-.11h-.3l-.13-.07-.21.1h-.17v.06l-.23.18-.3.14.08.22.06.26h-.14v.38l.05.32.08.08-.12.24v.26h0l.16.2-.11.33h-.09v.22l.18.28-.16.16v.4l.12.11-.17.33.19.12v.12l-.15.16v.52l.06.17.08.13-.11.29v.14l.09.24-.08.21h-.13l.21.17V148l-.21.24v.24l.19.21v.1l-.11.2.06.16-.17.26.14.19-.14.26h.57l.1.08h.21l.33-.06h0l.38-.29v-.11l-.16-.27.11-.18v-.18l-.17-.24h.13l.11-.35v-.21h0l-.21-.19.14-.18-.06-.25-.1-.15.16-.29-.13-.19v-.16l.08-.14v-.61l-.06-.13v-.35h.13l-.14-.24v-.32l.11-.22-.06-.26v-.46l.31.06-.18-.34.24-.3.08-.19.07-.15.11-.12.14-.12h.35l.12.09.16.16h.17l.16.25-.08.1.11.19-.09.18.06.33-.08.16.23.39-.13.16-.07.25.1.13.14.1-.22.2.22.24V146l-.21.08.19.2-.2.2.12.32V147l.12.16-.08.09v.31l-.15.06.1.21-.1.32.1.14.08.23-.19.14.06.15-.09.3v.21l.16.21V150l.42-.08V150l.34.07.27-.1v-.08l.24-.17.17-.08v-.29l-.14-.11.1-.24v-.18l-.19-.29v-.22l.14-.13V148l.09-.15v-.24l-.21-.14v-.62l.05-.28v-.12l-.09-.15.19-.33-.21-.15.22-.24-.12-.06v-.32l.15-.07-.15-.33.1-.07-.08-.24v-.2l.08-.2-.13-.17.08-.32.17-.13v-.27h.1l.32-.23.09-.16.32-.16.08.07.21.16.13.09.14.35v.2h.06v.29l.17.09-.09.53.09.08v.59l-.06.19.12.24v.26h0l.1.21v.19l-.05.27v.28l-.05.14.18.08-.16.22.18.15-.05.38h-.11V148l.08.19v.24l.18.21-.15.17.1.23h-.07v.32l.14.07-.11.3.24.16h.11l.35-.06h.13l.27-.15.19-.08.16-.09-.14-.29.1-.11v-.29h-.23l.05-.2.08-.32-.13-.11V148l.16-.19-.15-.21.15-.11v-.23l-.13-.2.13-.28-.24-.09.13-.26v-.16l.06-.21.07-.16-.05-.27v-.21l-.21-.2.08-.13v-.56l-.08-.15v-.22Zm-10.93-1.16.34-.19.16.1.17.17.07.12.09.16.18.09v.31l.17.17.15.19-.1.1v.18l.14.24-.08.2.07.07-.08.29h-.29l-.23.06-.12-.05-.13.12-.08-.13-.4.19v-.11l-.51.13-.22-.08v.08l-.21-.26-.08-.06-.05-.2.1-.25-.07-.24.23-.1L302,144v-.21l-.1-.15.21-.17.13-.23v-.2l.09-.08h.36Zm.35-1.31h-.43l-.14.06-.28.07-.24.14-.06.08-.13.15-.19.08-.19.22h0l-.21.26-.15.12L301,143l-.11.1-.1.21-.06.16.08.14-.24.22.09.2v.25l-.12.23-.12.11.12.24-.12.11-.07.27h.08l-.17.27v.45l.13.24v.48l.06.26-.14.08.05.17v.29l.14.24.1.16.08.19-.08.19.06.23h.05l.08.21.13.22.06.24.08.07.11.09.31.19-.07.24.24.07h.16l.16.18.26.1h.29l.16-.06.25.11.31-.13h.49l.16-.14.15-.08.19-.14.19,0,.1-.07.09-.24.07-.11.33-.25.07-.18-.1-.18h.24l-.21-.26-.16-.22.08-.07-.17-.14h-.34l-.06-.15H304l.17.13-.27.22-.08.21-.08.17.05.08-.31.23h-.17v.18h-.24l-.36.14-.14-.21h-.22v-.29h-.14l-.07-.17-.17-.28-.15-.12.16-.1-.12-.22v-.34h0l-.24-.27.21-.21v-.15l.18-.12h.54l.31-.11h.43l.22-.07v.07l.32-.21h.62l.24-.19.21.11.13-.14.35-.1.05-.32h0l-.13-.27.14-.29h-.16v-.19l-.08-.35-.08-.06.13-.18v-.21l-.11-.14-.16-.19.11-.21-.11-.29-.13-.06-.07-.36v-.11l-.21-.16.05-.08-.29-.17-.12-.16-.15-.13.08-.11-.17-.08-.29-.15v-.09h-.25l-.13-.12-.16.14Zm-5.73,8.55.35.06h.46l.28-.11h.11l.14-.25.16-.11h.11l.16-.09.08-.21.23-.21.09-.09.1-.32.21-.18v-.75h-.16l-.37-.1v-.19l-.32-.19-.11.14-.14.14.06.34v.06l-.15.18-.11.26-.05.06-.17.21-.16.19H298l-.29.15h-.32v-.06l-.32-.21-.13-.1-.09-.06v-.26l-.28-.22h-.11l.1-.22-.19-.22-.08-.15.14-.14-.05-.34h-.09v-.35l-.06-.16.08-.11-.12-.2V146l.19-.3v-.13l-.14-.29.09-.24-.08-.17.19-.08.1-.31v-.09l.07-.26.11-.11-.11-.29.29-.14v-.08l.18-.13.17-.11.07-.15.14-.13h.37l.06.16.18.11h.11l.21.24.32.08h.21l.11-.2.24-.12h.11l.15-.23.09-.17-.13-.16-.28-.23-.08-.17H299l-.05-.13-.35-.22h-.16l-.05-.15h-.54l-.42.11-.29-.11-.16.13-.09.14h-.45l-.21.13h0l-.11.25-.19.15-.16.17-.19.15h0l-.1.35-.08.08-.09.13v.34l-.16.17.11.23v.2l-.16.2-.07.12v.21l-.1.19,0,.34v.21l-.07.13V146l.19.3-.1.21-.06.26.21.14v.43l.08.11,0,.21.13.24-.08.19v.36l.21.19h.17v.27l.05.08.18.22v.18l.3.19.2.06.16.15V150h.26l.09.21.24-.07h.18Zm-5.66-1.19h-.73v-.07l-.29-.27v-.08l-.23-.26h.13l-.08-.27-.17-.08v-.21l-.15-.22.08-.21,0-.19-.06-.16.06-.32,0-.16v-.16l0-.45.08-.19-.14-.24h0l.15-.22-.05-.27.06-.23.1-.21-.13-.17.13-.19.17-.1v-.38l.1-.2.19-.11H291l.26-.21v0l.38.06h.45l.15.15v.14l.27.42-.16.2v.48l.16.26-.05.13v.88l0,.21.1.35-.19.11v.4l.08.13-.08.19.16.18v.43l-.06.21-.07.38-.16.08-.24.18h-.26Zm2.47.82.09-.32-.17-.15v-.09l-.19-.18.13-.29-.21-.12v-.18l.13-.27-.17-.45.09-.1v-.14l-.1-.22v-.16l-.08-.24v-.16l.13-.18.05-.32h-.2l.16-.25-.16-.24.15-.21.05-.16-.2-.21V145l-.05-.21.21-.22-.16-.19v-.21l.13-.16-.18-.27.18-.16v-.1l-.1-.33V143l-.09-.15.12-.13v-.4l.11-.2-.19-.21.21-.21-.18-.26-.38.12v-.12l-.4.07-.11-.07h-.21l-.22.22v.2l-.06.11-.16-.16-.18,0h-.32l-.08-.06h-.67l-.13.19h-.41v.19l-.24.1-.1.11-.08.23h-.32l.1.27-.32.1.06.14-.22.21-.06.21.11.06-.18.32-.11.2h0l.13.25-.1.2-.11.27.05.11-.06.24.14.22h-.22l.09.25.05.34.06.24-.14.21-.08.3.19.18v.09l-.07.27.21.12v.25l-.11.16.14.21.08.22v.26l.12.08.08.19.05.16.16.18-.11.22h.11l.29.29v.13l.32.13h.19l.34.09.19.11.22.07h.44l.24.07.14-.18h.19l.11-.11.12-.15.28-.17.29.14-.08.31.4.11.18-.23V150l.4-.08.19-.21Zm-8.28-8.45h-.51v.06H285v.2h-.19l-.14.16h-.28l-.08-.28.15-.13-.08-.29-.1-.18.18-.16v-.38l-.17-.08.22-.3-.14-.16-.07-.26.2-.1v-.36l-.05-.13v-.5l-.07-.06v-.7l.05-.13-.11-.25v-.4l-.35.17-.19-.11v.11h-.42l-.19.15-.19.06v.3l.08.32h0v.33l-.09.11V139l.08.08.18.29v.19l-.15.1.13.21-.06.32v.06l.16.31-.12.11v.16l.16.3-.18.11.16.13-.17.27.14.08-.11.36v.11l.08.22-.1.16.07.26-.07.11.12.3v.53l.11.21-.18.1.07.12v.44l.09.25-.09.1-.07.27.07.26.16.16-.08.19.05.22-.12.15-.09.16.17.11v.4l-.08.25v.18l-.08.11.21.26-.07.22.07.15v.51l-.14.16v.08l.18.29-.05.16-.15.14.13.16-.11.3V150l.1.2h.38l.06-.2.21.13.21-.09.11-.1h.18l.13-.12.22-.16-.1-.23-.06-.32-.06-.13.08-.11.08-.27-.13-.1.06-.28-.06-.08.14-.28-.06-.17-.16-.24v-.26l.13-.05-.09-.25.14-.16v-.27l-.16-.23V146l.13-.17-.09-.18v-.43l-.06-.26.12-.22h0l.05-.27-.13-.15-.11-.14.17-.19v-.51h.21l.11-.24h.13V143l.32-.08.18-.11.16-.08h.24l.11.18h.1l.09.2.11.27v.35l.06.24.22.24-.09.08.11.14-.08.18v.27l.09.13-.19.22.26.21-.1.15v.6l-.1.11.14.21v.24l-.06.06-.08.18.19.33-.14.21v.19l.15.13-.11.11-.08.29v.53l.08.13-.13.24v.3l.1.07v.19l.29.29.15-.07.38-.11h.19l.15-.16h0l.25-.14v-.14l.13-.24,0-.31-.16-.06.12-.21V148h-.07l.08-.19.08-.21v-.53l.06-.17-.05-.21-.17-.15.11-.2v-.21l-.1-.23v-.2l.16-.08,0-.32-.17-.13v-.26h.05l.07-.28-.13-.18-.11-.26.08-.16,0-.09.08-.32-.15-.1-.09-.22.13-.26-.28-.22.13-.18-.22-.08.08-.22-.16-.08-.13-.26-.16-.17-.08-.08-.11-.15-.16-.08v-.14h-.43Zm-9.24,7.5-.6.19v-.12l-.22-.1-.13-.13-.14-.24h.06l-.16-.2V148l-.14-.16.11-.21-.23-.17.16-.15-.08-.37-.06-.11-.08-.17-.06-.29.06-.13.13-.32v-.29l.1-.24-.16-.09v-.37l.26-.31-.1-.11.13-.29h0l.14-.27.07-.21-.05-.06.17-.32.16-.13V143h.93l.17.17v.21l.19.07v.86l.18.19v.11l-.1.34.12.16-.15.16.18.29h0l-.13.44.14.27-.19.24v.3l.14.13-.08.22v.2l-.08.25-.19.18L277,148l.06.11-.14.26-.16.16v.22h-.2Zm-.44,1.3h.39l.13-.06v.09h.24l.21-.23.19-.06h.24v-.15l.3-.11v-.16l.21-.21-.05-.09.09-.18.29-.19-.09-.14.17-.1.1-.32.05-.18v-.54l.14-.24h.1l-.1-.26.15-.21v-.14l-.16-.3v-.12l.1-.35-.08-.35.14-.11-.19-.24V145l.08-.19v-.24l-.13-.13.16-.19-.12-.19v-.18l-.18-.19-.11-.18-.11-.22v-.24l.09-.11-.33-.1v-.29h-.14l.05-.27-.35-.15-.08-.14h-.21l-.35-.22-.15-.06h0l-.14.06h-.53l-.13-.09-.16.12h-.32l-.08.21h0l-.17.13-.24.08-.15.08-.16.15v.24l-.23.14-.2.16h.08l-.2.19v.29l-.09.21-.1.19-.14.08.08.24-.23.14.15.26v.13l-.07.13V145l-.09.22v.21l-.11.21.13.16-.07.45v.38h.09l-.14.28v.24l.21.11v.29l-.16.22.17.11v.32l.26.19.08.24v.2l.16.17h-.06l.24.19v.19l.16.19h.08l.1.16.19.19h.16l.35.09.14.1h.45Zm-5.08-.16.1.22.4-.12h.14l.32-.16h0l.17.12.23-.29.08-.29-.13-.16-.07-.16V149l.21-.15-.06-.17.08-.31-.1-.17-.14-.15.08-.12.08-.36,0-.16-.12-.12V147l-.16-.32v-.22h.07v-.32l-.13-.18v-.14l.08-.32h-.13v-.28l.16-.1-.06-.19.06-.26-.19-.17.09-.31h.1l-.11-.37v-.05l-.11-.21.06-.3v-.16l.09-.21v-1l-.1-.21v-.11l.15-.18v-.2l.12-.23v-.77l.1-.27v-.22l-.11-.35V139l.06-.17.08-.08v-.35l-.08,0,.07-.29v-.27h-.16l.14-.22.08-.19-.27-.15h-.23l-.27.06h-.11l-.22-.08-.1.11-.29.1-.08.13.08.2-.17.13.17.27-.06.13.06.35V139l.07.06-.16.21.19.32-.16.13.08.2.09.21-.2.21v.08l.09.29.16.13L271,141l.1.06v1.08l.19.21-.06.11-.11.16.17.24V143l-.2.22.21.34v.14l.1.16-.18.26v.17l.07.07-.13.21.11.19-.08.21v.22l.22.21-.16.13.07.3.06.21v.33l-.12.21v.35l.08.18-.13.29v.17l.09.07-.12.21.14.24-.08.17v.16l.13.18-.16.21V149l.12.29v.38l.11.1Zm-8.21.61a4.34,4.34,0,0,0,2.08-8c-1.26-.82-2.57-.91-2.57-1.89a1.05,1.05,0,0,1,1.1-1h0c.53,0,1,.62,1.46,1a27,27,0,0,1,1.21-2.75,6.12,6.12,0,0,0-3.09-.86,3.57,3.57,0,0,0-3.66,3.45,3.18,3.18,0,0,0,1,2.52,10.9,10.9,0,0,0,2.38,1.39,2,2,0,0,1,1.2,1.92c0,.86-.46,1.53-1.12,1.53s-1.23-1-1.58-1.71c-.59.55-1.84,1.76-2.19,2.1a4.37,4.37,0,0,0,3.82,2.24m-9-2.77c-1.09,0-1.34-1.74-1.34-3.47,0-2.26.45-4.26,1.6-4.26s1.31,1.47,1.31,3.44-.3,4.29-1.57,4.29m-.08,2.82c2.58,0,4.24-2.12,4.5-6.24.19-3.41-.64-7.28-4.15-7.28-3,0-4.57,2.88-4.57,7,0,3.62,1.18,6.47,4.22,6.47m-4.9-10.28-.21-3.12c-.64.1-1.39.16-2.17.21V137l-3,.3v.11l-2.28.07v3c.67-.06,1.47-.12,2.33-.17,0,3.21-.09,6.38-.17,9.58l3.23-.16c-.11-3.1-.18-6.35-.16-9.57h2.43m-8.63,9.16c0-4.12-.2-8.23-.14-12.34l-2.9.45c.21,2.14.34,4.29.4,6.43a55.59,55.59,0,0,1-2.76-6.45H232c.08,4.11.19,8.35.11,12.32l3,.27c-.07-2-.13-4.18-.18-6.31.91,1.91,1.82,3.86,2.67,5.8v.12Zm-13.67.8c3.29-.16,3.63-3.41,3.8-5.24a28.19,28.19,0,0,0-.56-7.88l-2.86.46a35.18,35.18,0,0,1,.45,6.32c0,2-.35,3.49-.93,3.5s-.86-1.68-1-3.74a51.9,51.9,0,0,1,.19-6.11l-3.09-.34a69.87,69.87,0,0,0,0,7.38c.3,3.44,1.13,5.77,4,5.65m-5.21-10.28-.17-2.69c-.21,0-.5.08-.83.12v-.07c-.29,0-2.79.19-3.09.23v.09l-1.32.07.2,2.7c.31-.06.77-.13,1.32-.19.09,1.76.16,3.74.12,5.12s0,2.38-.59,2.38-.72-1.65-.61-2.4l-2.7.34c0,1.87.48,4.86,3.5,4.75,2.26-.1,3-1.65,3.22-3.78.14-1.31,0-4.27,0-6.62h1"/></g></svg>