<svg id="Capa_1" data-name="Capa 1" xmlns="http://www.w3.org/2000/svg" xmlns:xlink="http://www.w3.org/1999/xlink" viewBox="0 0 600.3 165.9"><defs><style>.cls-1{fill:none;}.cls-2{fill:#f39200;}.cls-3{fill:#fff;}.cls-4{clip-path:url(#clip-path);}.cls-5{fill:#1d1d1b;opacity:0.2;isolation:isolate;}</style><clipPath id="clip-path"><polyline class="cls-1" points="658.3 86.1 658.3 -29 -13.7 -29 -13.7 86.1"/></clipPath></defs><g id="Capa_1-2" data-name="Capa 1"><rect class="cls-2" x="122.6" y="103.9" width="81" height="22.2"/><polygon class="cls-2" points="62 37.3 64.8 97.7 99.8 101.8 100 37.3 62 37.3"/><polygon class="cls-2" points="99.5 36.3 104.5 101.8 141.8 98.9 141.8 36.3 99.5 36.3"/><polygon class="cls-2" points="141.7 34.8 145 98.1 174.5 99 177.8 34.8 141.7 34.8"/><polygon class="cls-2" points="176.8 37.3 178.3 101.8 199.9 99 201.4 38.5 176.8 37.3"/><polygon class="cls-2" points="200.4 34.8 202.3 99.9 232.5 101.8 233.2 36.3 200.4 34.8"/><polygon class="cls-2" points="232.2 34.8 235.8 100.8 267.4 101.8 274.5 34.8 232.2 34.8"/><path class="cls-3" d="M187.6,120.6c-.8,0-1.1-.8-1.1-2.3,0-2.8,1-4.9,2.2-5,.7,0,1.1.8,1.1,2.5,0,2.8-1,4.8-2.2,4.8m-.2,1.3c2.5,0,3.7-2.3,3.9-6.1.1-2.2-.7-3.9-2.3-3.9-2.4,0-4,3-4,6.3,0,2.2.7,3.7,2.4,3.7m-6.6-1.7a1.11,1.11,0,0,1-1.3-.8c.3-1.9.6-3.9.8-5.4a1.94,1.94,0,0,1,1.4-.9c.9-.1,1.2,1.1,1.2,2.4-.1,3.1-1.1,4.6-2.1,4.7m1-8.5a2.57,2.57,0,0,0-1.2.5c0-.2.1-.4.1-.6l-1.7.2c-.6,5-1.3,10.2-2.1,15.2l1.6-.1c.1-1.2.4-3.4.8-5.6a2,2,0,0,0,1.5.4c1.8-.2,3.7-2.2,3.7-6.3-.2-3.2-1.6-3.8-2.7-3.7M174.1,122l1.7-.1c.4-3.4.8-6.6,1.3-10l-1.7.1c-.2,2.5-.8,7.6-1.3,10m2.4-11.8a1.19,1.19,0,0,0,1-1.2c0-.6-.2-.9-.7-.9a.6.6,0,0,0-.4.1,1.14,1.14,0,0,0-.6,1.2c0,.6.3.8.7.8m-4.4,1.7c-.2,2.6-.5,5-.9,7.5a1.78,1.78,0,0,1-1.5,1.1c-.5.1-.9-.2-.9-1.1.2-2.5.5-5,.9-7.4h-1.6c-.2,1.2-.8,6.6-.8,8a1.68,1.68,0,0,0,1.9,1.9,2.57,2.57,0,0,0,1.6-.7c0,.2-.1.4-.1.6l1.5-.1c.4-3.3.7-6.5,1.3-9.9Zm-9.4,8.2c-.8.1-1.2-.9-1.2-2.4,0-3,1.1-4.3,2.1-4.5a1.11,1.11,0,0,1,1.3.8c-.2,1.7-.5,3.5-.7,5.2a3,3,0,0,1-1.5.9m2.4-8.3v.2a1.74,1.74,0,0,0-1.4-.3c-2.2.3-3.6,2.6-3.8,6.3-.1,2.8,1.1,3.9,2.5,3.7a3.36,3.36,0,0,0,1.4-.5c-.3,2-.6,4-.9,5.9l1.7-.1c.4-3.4,1.8-12.6,2.2-15.2ZM154.8,116a3.8,3.8,0,0,1,1.6-2.5c.7-.4,1.3-.2,1.5.5a1.31,1.31,0,0,1-.9,1.8,3.36,3.36,0,0,1-2.2.2m-1.8,1.4c-.2,3.2,1.3,5,3.5,4.4a3.7,3.7,0,0,0,2.4-2l-1-1.2a2.72,2.72,0,0,1-1.7,1.9c-1.3.2-1.8-1.3-1.7-3.1a5.71,5.71,0,0,0,2.6,0,3.14,3.14,0,0,0,2.2-3.8,2.16,2.16,0,0,0-2.5-1.8.37.37,0,0,0-.3.1c-2,.4-3.3,2.7-3.5,5.5m-9.4-1.5a3.8,3.8,0,0,1,1.6-2.5c.7-.4,1.3-.2,1.5.5a1.38,1.38,0,0,1-.9,1.8,2.46,2.46,0,0,1-2.2.2m-1.6,1.5c-.2,3.2,1.3,5,3.5,4.4a3.7,3.7,0,0,0,2.4-2l-1-1.2a3,3,0,0,1-1.7,1.9c-1.3.2-1.8-1.3-1.7-3.1a5.71,5.71,0,0,0,2.6,0,3.14,3.14,0,0,0,2.2-3.8,2.16,2.16,0,0,0-2.5-1.8.37.37,0,0,0-.3.1c-2,.4-3.4,2.8-3.5,5.5m-4.5,3.2c-.8,0-1.3-1-1.1-3.3s1-4,2.2-4a1,1,0,0,1,1,.7c-.3,2-.5,4-.6,5.4a2,2,0,0,1-1.5,1.2m4.9-14h-1.7c-.1.7-.5,3.1-.8,5.7a2.38,2.38,0,0,0-1.2-.3c-1.5,0-3.2,1.5-3.6,5.2-.4,3,.5,4.9,2.2,4.9a2.34,2.34,0,0,0,1.7-.7,1.29,1.29,0,0,0,.2.8l1.5-.6a4.67,4.67,0,0,1-.3-1.7,118.48,118.48,0,0,1,2-13.3"/><path class="cls-3" d="M259.7,95.1l.3-.4v.5Zm5.6-.6H265l-.3.2V95h-.2l.1-.3.1-.4.5-.4.3.2Zm-7.7-.4-.1-.5.5.1Zm1.2.5-.3-.1.2-.5-.2-.5.3-.1.3-.3.1.7Zm-2.2-.9-.2-.3.1-.3.3.3Zm1.6-.8-.2-.1.3-.1.1-.4.5.2-.2.2-.2.2Zm3.3-.3.2.1.2-.2.1-.3-.5-.1v.5Zm.6-.4.2.2.4-.3-.2-.2ZM262,92l.2-.5h-.3Zm-18.8,0-.6-.2-.8.2h-.4l.2-.3-.1-.3-.3-.4.4.2.5.4h.7l.3.4.3-.2.1.1Zm-3.5.3-.4.4-.2-.5.2-.8-.4-.6.2-.1.5.2.1.7-.3.4Zm18-2.1-.2.9h.7l.4-.3v.4h.2l-.2-.7Zm-19.7.5-.3.2v-.4h-.2l.2-.2.3-.3Zm24.2-.3.2-.3-.3-.2-.2.2Zm-6.5-.3.3.6.4-.3-.4-.5ZM241,89.9h.4l.2.5h-.5Zm19.2,0,.7.6.2-.3-.7-.5Zm-3-.8V90l.1.2.3-.9Zm4.7.7-.3-.6-.2-.5v.7l.4.5Zm-21.8-.2-.3-.2.2-.8v.2l.2.4Zm3.7-.8v-.5l.5.1.1.4Zm15.2-.6.5.4v-.5l-.4-.1Zm-20.5,0,.1-.3h.4l-.1.3Zm2.2-.4v.4l-.3-.1.2-.2.1-.1.2-.2Zm17,.4.2-.2v-.6l-.2-.7-.3.2.2.6Zm1.7-1.3-.3-.6-.3.3.3.4Zm-3.8.1v-.3l.2-.4.4.3.1.6-.1.4-.4-.2-.3.5-.4-.4Zm-13.4-1.3.1.3.3.1-.3-.1-.2-.2Zm-4,0,.7.1.3.3h-1.1v-.4Zm2.2-.4.2.5-.4.3-.2-.5Zm3.9-.1-.2.1.1-.4.2-.1Zm8.3.8-.2-.2.2-.2h-.4l.1-.4.2-.2-.1-.4.4.1-.2.6.1.3ZM238,85l-.2-.3.2-.2h.3l.1.2Zm12.6-.2.1-.3.3.3Zm3.5-.4-.1.3h-.4l.1-.4Zm3.9.2-.5.2v-.5ZM247.5,84l.3-.1.2.3ZM242,84l.3-.3v.7h-.2Zm21.8,11.3H263l-.6-.1-.2-.9-.1-1h-.4l-.3.6.2.3.3.2-.2.3h-.5l-.3.2-.4.2h-.2l.5-.2.3-.3.1-1.1H261v1l-.9-.5.6-.7v-.7l-.5.3-.2-.3V92l.5.1.1-.2.4.1-.1-.5v-.4l-.4.3-.3-.9-.7-.6-.3.3.6.6.1.7-.5.2-.1.4-.2-.1-.7-.2-.1-.5-.2.7-.9.1-.4-.7-.4-.1.2.4-.1.4-.1-.2.1-.2-1-.5-.7-.9-.6-.2v-1l-.5-.5.2-.8-.8-.3-.2-.1v.5l.5.7.2.5-.2.2-.4-.7-.6-.8.1-.7.1.2.3-.5.9-.6-.5-.5-.1-.2-.3-.1v-.3h.2l.2.2h.2l.3.2.2.2v.4l.2.7.2-.4.1.3-.2.4v.5l.3.5-.3.6.7.3.5.3.8.2V89l.4-.4-.2-.4h-.4v-.3l.8-.4-.4-.7.3-.8-1.3-.2-.1-1h.4v.6l.6.2L256,85l.4-.9.5-.4h-.2v-.4l.2.2h.4V84l-.4.2-.4.5.3.7.5.1.4.2-.2.3.3.4.8-.5.1-.5-.1-.4v-.2l.2.3.3-.3.2-.4.2-.1.1.9.4.8-.3.5-.1.5.3.2.6-.2.4-.1-.1.4.2.2.5.8.5.5.8,1.3v.5l.2.8-.2.5v.4h.4v.5l.3.2.2-.5h.5l.1,1.4ZM252.6,83.2V83h.4l.3.4v.3l-.3.2-.2-.1.3-.3ZM239.9,83h.3l.1.3H240Zm19.5-.2-.2.7-.6.2.1-.8Zm-3.4,0,.4-.2-.1.3-.1.5-.2.3-.3-.3Zm-7.5.6-.2-.4.1-.5v-.3h-.3L248,82h.2l.2.2.2.4-.2.5Zm-10.2-1.2-.3.2v-.3l.1-.2Zm17.9-.9.6.1V82l-.5-.2Zm-4.6.4-.1-.2.3-.3Zm3.5,1-.2-.3.5-.2-.1-1,.4-.1-.1,1.3-.1.5Zm2-1.9.1-.4.2-.2-.1.2Zm-19-.6v-.4l.3.1.2.3Zm14.8-.3h-.3l-.1-.4.1-.3.2-.3.2.1-.1.4Zm8-.6.9-.5.7-.6-.4.7-.8.5-.2.7-.4-.1Zm-1.1.7-.9.3.1.5-.5.4-.2.3.8.2.2-.9h.6l.2.6-.1-.2-.4.3.4.7-.3.4-.6-.5-.5.3V82l-.5-.1-.4.7-.5.5-.3-.5.4-.4.2.4.2-.9-.4-.6.4-.1.7-.2.1-.4-.5-.1v-.5l.3-.2.2.3.3-.1-.1-.4-.4-.5-.9.2-.3.2-.2.6-.3-.2.3-.5.5-.5.1-.4-.3-.4.2-.2.4.1-.1.6.8.2.5.5.2.2-.2.2.2.1h.5v-.5h.5l.2.2Zm-3.7-2.3.3.4-.6.4-.1-.4Zm1.9-.8h0l-.2.2Zm-18.2.6-.2-.4.1-.3.2-.2-.2.4.1.2Zm19.5-.8-.3.2.5.3.7-.1.2.6h-.7l-.7-.4-.3-.1-.2.5-.1.2v-.3l.2-.8.6-.4Zm3.2-.5v.3l-.2.2.2.3h-.2v-.3h-.2l-.3-.5Zm-23.1-.4-.2.2h-.3v-.2Zm18.7-.2.2.2-.2.4-.3-.2Zm-20.2-.3v.3l-.1-.1-.1-.4Zm20.5-1.1h.5l-.4.2-.3.2-.1.3-.1-.3Zm4.7-.4.2.2h-.4v-.3Zm-24.7-.9-.6-.6.2-.3.2.3v.3l.4-.3.3.2Zm19-.8-.1.3-.3-.2v-.4l.1-.4h.4l-.1.2-.2.2Zm-14.3-.9-.1.2-.2-.1Zm-2-.2.5-.1v.2l-.1.3h-.4Zm15.5-.3.1-.6.5.1-.1.5Zm-17.4.7-.3-.1-.4.2L238,71l-.5-.5v-.2l.1-.2.5-.1.1.8.1.2.2-.5.6.2.2.5Zm.9-1-.3-.2.2-.3h.4l.4.2.2-.1.1.4-.5.3Zm-1.1-.7.1-.3h.2Zm20.4.2.1-.5.5.1-.1.3.2.1.3-.1-.3.2h-.4l-.5.3Zm-2-.6-.5.2-.7-.4.1-.4.6.2h.6Zm3-.6h.4l-.1.4h-.4Zm-11,8.9-1-.2h-1.1l-.9-.5-.5-1.1-.2-5.7.6-1,1-.5h3.6l2.4.3,1.6,1,.5.8.4.8.1,1.5-.2,1.4-.4,1-.6.9-.6.6-.8.3Zm11.9-9.3.1.2H261l-.1-.4Zm-20.4.2.1-.4h.4l-.2.4Zm-2.2,0-.4-.1v-.5l.3.2Zm18.9-.7v.6h-.2l-.1-.4.1-.6h.3Zm-4.9-.8.4.1v.2l.8-.2v.4l-.4.4-.5.3-.2-.6-.1-.2ZM251,67v.2l-.1-.4Zm7.1-.2h.4v.4h-.4Zm-9.8-.5-.2.4-.1-.4Zm-5.5.2-.4.3v-.2l.2-.3h.4Zm.7.3.1-.6.5.5-.3.9-.4-.2.2-.2.2-.2Zm3.7-.1v.6l-.3.2-.2-.1V67h.4l-.1-.3-.3-.4-.3.1v-.3h.4l.2-.2v.2Zm-6.5-.9h.5l-.1.6h-.2Zm9.3.4.4-.4h.5l-.3.4-.2.6-.4.1-.1-.2Zm6,.4.2-.6.3-.3.3.2v.5l-.5-.2-.1.2.5.4-.3.5h-.5Zm-18.8-.3.1-.5.4-.2-.1.2-.4.5.2.1.1.5h-.3v-.6Zm15.2-.4-.2.3L252,66l.3-.5.5-.2.1.3-.1.2Zm-13.8-.2-.1.5-.2.1v-.8l-.4-.3.1-.3.5.2.2.5Zm21-1,.2.3-.2.1Zm-3.8.1-.3.2h-.2l.1-.3.4.1.2.5-.2.8-.4.5-.2-.3.7-1.1Zm.1-.4h.4l.2.6-.4-.1Zm-18.5.2h-.3v-.5h.3Zm14.1-.5-.1.5.5-.1.2.4h-.6l-.3-.4-.1-.4Zm-4.6,0,.1.4v.4h-.2l.2-.3-.2-.2-.2.4-.1.6-.2-.6-.3.4-.3-.5-.1-.5h.7l.4.1Zm6.8,1.6v.4l-.1.2-.1-.2v-.5l.1-.6-.4-.3-.1-.7.5-.3-.2.6.3.4.6.6-.2.2Zm-5-2.8-.5.9.6.4V64l.1.2-.3.6-.5-.6-.6-.6-.1-.4.6-.2Zm1.6,0,.1.3-.3-.1-.1-.4Zm3.8-.5.2.4.2.4.5.3.4-.5.5-.6,1,.2.3-.3.1.3.1.4-.3.5-.5-.2h-.3l-.6.2-.9.6-.7.2-.1.2.1-.4.1-.5-.1-.3-.3-.4Zm-10.6.2h.3l-.1-.5Zm-6.3.3h.3l.1.3.3-.1-.1-.5-.1-.8.6.1.1.7-.3,1-.9-.2Zm14-.9v-.3l.3.3v.8l-.2-.1v-.3l-.2-.2Zm-3.8-.4h.2l-.1.3-.2.1Zm5.3-.3.8.5.1.6-.6.2-.4-.6-.3.1v.7l.3.7.1.3-.3-.1-.3-.2-.2.2v-.6l.2-.9-.2-.5-.1-.2Zm-3.6,0v.4l-.4-.3Zm-3.6,4.5-.5.5.1.8-.1.4v-.3l-.3-.8-.2-.8-.4.2-.3.2-.3-1.1.1-1.1-.4-.4.1-.4-.2-.3.2-.2.1-.4v-.7h.5l.2.4.2.2h.4l.1-.5.3.2v.6h.3l-.4.4.4.3.4-.5.6.2.1.6L246,63l-.4.8-.5.3-.5.1V64l.1-.4-.3.2-.2.8-.3.5.7.4.4.6h.2l-.1-.5.5.3.4.1ZM239,62.1l-.2-.3.7-.7.9.1.2.6.6-.5-.1-.3-.2.2.2-.3.7.5.5.3.5-.2.2-.6h.3l-.1.6-.3.3-.2.2v.8l.6.6.2,1.1-.3.4.4-.1.1.3-.5.2-.3-.5-.3-.4-.2-1.1-.1-1.2-.2.2.2.5-1,.5.4.7.5.3.3.4V65l-.1.3-.2.1.1-.6-.2-.3-.3-.4h-.4l-.2.2-.1.4-.5.6-.2.7-.5-.8-.7-1.1.2-.7.3.1.2.8.2.9.3-.6h.7V64l.3-.9.5-.8-.3-.3.3-.2-.3-.1-1.2.4-.2-.6-.2.7V63l.2.4-.3-.1h-.4l-.5-.2.5-.7Zm27.1,31.4L264.4,91l-.5-.9-.6-.9-.5-.9-.7-.8-1.5-2.7-.2-1.2.6-1.1,1.4-1.4.6-.9.4-1,.6-.9.4-.9.6-1.9v-4l-.3-1-.1-1-.2-1-1.3-2.8-.7-.8-.5-.8-2.6-1.9-1.8-.9-4.2-.9-1.3-.1h-2.6l-1,.1-1.1-.1-.9.1-3.1-.1-1,.2-2.1-.2-1,.2H238l-1,.5-.4,1.1-.1,14.3.1,1.5v2.6l-.1,1.1v1.9l.1,1.1-.1,2.1.2,3-.1,1.1.1,4,.4,1.1,1,.5h1l2.1-.2,1.1.1h1.5l1.6-.5.4-1,.1-1.1-.2-1.1.1-2.2-.1-3.2.5-1,1-.5H249l1.3.4.8.9,1.3,1.8.4,1,1.4,2.6.7,1,.5.9.6.7,1,.9,1.3.3,1.8.1,1.1-.1,1,.1h2.1l1.1-.1,1.1-.2.2-1.1Z"/><path class="cls-3" d="M222.7,94.9h-.3v-.2l.2-.2h.2Zm-13.6,0-.3-.1v-.2l.2-.3.2.2Zm2.1-.2-.5.2-.4-.5.6-.4.4.4Zm7.5-.3-.1-.3.2.2.1.2Zm-1.5-.3-.2-.2.1-.2.2.2Zm7-.4-.3.1.3-.1.2-.3.1.2Zm-12.1.4.1.2H212l-.2-.7.5-.3.1.4-.4.3Zm-4.4.2-.2-.3.6-.3-.2-.5.1-.2,1,.7v.2h-.7Zm13-1.1-.1-.3h.3l.1.2Zm-2.7.1h-.5l.1-.3.5-.2Zm-2.8-.5-.3.3-.1-.2.3-.2.2-.1Zm.8.2-.3.5-.3-.3.5-.5.5-.3.1.3Zm-6.9-.2h-.5l.1-.2.4-.2Zm13.9.9-.6-.5-.5-.6-.3.2-.2-.2.2-.2,1,.5.6.5Zm-8.7-1.1v-.3l.3.2.1.3Zm-3.3,0-.2-.3.5.1.1.3Zm15.8.3v-.3l-.4-.2-.4.1.2.4-.3.1-.2-.5.5-.2.6-.2.2.4.1.3h-.3Zm-3.8-.6.1.5-.3-.3-.1-.4Zm-10.5.3-.1-.1.1.1v-.2l-.1-.3.4.2Zm11.3-.6.2-.2h.2l-.1.3-.4.2Zm-9.2-.4-.2-.2-.2-.2-.3.4-.6.2-.4-.3.2-.3.6.2.5-.1.4.2Zm1.6.6V92l.3-.3.4-.4.2-.2-.1.3-.1.4-.5.2ZM212.4,91l-.2.4h-.4l.2-.3Zm3,.4-.2-.1-.1-.4.3.1ZM225,91v-.3h.5l.4.6-.2.2-.4-.5Zm-6.4.5v-.4h-.2l-.3.1.3-.5.5.5Zm2.4-.8-.5.2.1-.1.1-.2h.3Zm-4.2-.5.3.2-.3.2Zm-4.4.2V90l.3-.2v.4Zm-1-.5h.5v.4l-.4.2-.4.2-.1-.4Zm-4-.2h.5l.1.4h-.5Zm17.2-.1h.3l.1.3-.3-.1Zm-10.4,1.2-.5-.2-.3-.2.4-.5.7-.4.2.3-.6.5Zm-3.6-1.3.2-.5.3.1-.2.3Zm-1.5-1.1h.4l-.4-.3Zm1.6-.6.6-.2-.1-.5ZM208,86.1l.2.2.3-.2-.2-.1Zm4.5.3.6-.6-.5-.2-.3.5-.5-.2v.4l.4.1Zm-1.7,0-.3-.4-.2-.6-.8.4-.1.6h-.6v.5l.9-.2.8.2Zm-1-1.3v-.3h-.3l-.1.2Zm.8-.6-.2.3.4-.2Zm3.7,0-.4.2.4.2Zm-3.9-1.6-.3.2.5.1Zm-1,0-.4.1-.5-.2-.5.2.4.3.9-.1v-.3Zm2.7.2h.4l-.1-.3H212Zm-1.2,0h.5l-.2-.3Zm-.4-1.1.4-.4.2-.4h-.4l-.3.2.1.3-.1.2-.1-.5.2-.2-.3-.1-1.2.4.3.5Zm1.5-1.3v.2l.2.2Zm-2.2,0-.4-.1.1.4Zm3.2-.3-.1-.2-.4.2.1.2Zm8.9.4-.3-.2.2-.4.4.4Zm-1-.6-.3.2-.4.4-.6-.1.5-.1.4-.2.1-.3.2.1Zm2.2,0-.1-.4.4.2.1.3Zm-1.9-.4h-.4v-.2l.4.1Zm-8.1-.4-.5.1-.1.4h.6Zm6.2.4.5-.5.2.5-.4.2Zm-5.7-.5h.3l-.1-.3Zm-5-.4h-.3l-.3-.2.4-.1Zm12.9-.2h.5l.1.6h-.5Zm-7.7-.3h-.5l.2.4Zm1.9.8-.5-.2-.3-.6-.2-.1-.3.7.9.3Zm6.2-1-.1-.2h.2l.1.2ZM219,78l-.2-.1-.3-.1.2.1h.3l.1.1Zm2,.4-.2-.4-.3-.1-.1-.2.2.1.4-.1.3.3Zm-13.1-.9.3.4.1.5-.5-.4-.2-.5Zm6.1-.3v.3l.3-.2Zm8.4-.1,1.1.1.9-.1-.7.4-1-.2-.4.4-.5-.2-.1-.6Zm-2.9-.1v-.3h.3l.1.3Zm-10.6-.6v.3l.4-.1Zm13.6-.4.2.2.2.4h.2l-.4.2-.4-.4Zm3.6.4h-.5V76h.3Zm-1.2-.5.4.6.1.3h.5l-.3,1.1.7.8-.6.2-.7.1-.3.5h.6l-.2.1h-.3l.1.2-.4-.1-.2-.4V79l-.3-.2-.3.2-.1.3.1.4-.4-.3-.7.2-.2-.3.2-.3.5.2.6-.1.3-.2.5-.1-.2-.5h-.8l-.1-.3.8-.2h.4V78l.3.5.4-.9-.5-1.2-.3-.4-.1-.4Zm-3.5,0,.3.1.1-.2.3-.1V76l-.3.1-.2.2-.2-.2Zm2.5-.3v.2l-.3.2-.3-.4Zm-15.8,1-.4-.8.5-.2v.2l.2.5.2-.5h.7l.6.6.6-.2h.5v.5h-.8l-.7.6h-.8l.1-.6Zm6-.7-.3.2-.7-.2v-.4l.7.1Zm6.5,0-.6.4-.5-.4.7-.5Zm2.2-1v.5l-.2-.3-.1-.4Zm2.2-.2.7.4.5.3.3.3-.3-.2-.7-.1-.7-.2Zm-4.1.1.1.2h-.6l-.1-.3ZM209.5,89.9l-.7-.7.6-.3-1.2-.4-.2.4-.5.3-.3-.4.6-.7.4-.2-.8-.2.2-.7-.7-.6.4-.7-.4-.8v-.8l.5-.2.2-1,.2-.7-.4.2v-.7l.2-.6-.5-.2.2-.4h.8l.5-.2.3.2.2-.6-.6-.4.1-.4.5.2.6-.1.8.5.2.9.5-.3.8-.3-.7-.3-.5-.6h-1.4l.1-.3.1-.4-.4-.4H209l.2-.1.2.2h.5l.5.5.6-.6.4-.2-.5-.2.1-.4h.4l.7.2-.1.7-.8.6.7.6.2-.3.7-1.2-.4-1-.1.2-.1.1-.2-.3h1.4l2-.6.3.2-.2.1-.7.3.3.6h-.4l-.3.4.6.2,1-.8.3-.7.1-.2-.1.2.2.3v.7l1-.6.8-.9.3-.3-.5-.3L218,75l.2.2.4-.2.5-.7.6.5-.8.9-.9.9-.2.8-.4.5-.5.5.6.4-.1.2H217l-.1-.8-1-.4-.2,1.2.3.1h.6l-.2.7-.5.3-.3.1.1-.3.4-.3-.2-.3-.6.2h-.8l-.2.2.2.1h-.8l.4.7h.1v.3l-.5.3h-.3l.1-.2-.4-.2-.3.5.8.3-.1.4H213l.1.5,1.1-.4.7-.8-.3-.6.6-.2h.8l.5-.4.5.1.6-.6.5.5.4.2-.1.2-.7-.2-1.2.6-.7.5-.1-.4-.4.1-.1.7-.3.8-.7.4.4.6-.4.5h-.4v.2l.7.5-.2.9.2.1-.1.6-.7-.1-.6.4-.7-.1-.4.2v.5l.4.3.2-.6,1.2.1.1.6-.5.1v.5h-.8l-.7-.1-.1.4.5.2.2.3h.5l.8-.6.8-.7h.3l.4.3.3,1.2.2.6.2.2-.3.2-.2-.2-.4-.2.1-.9-.1-.5h-.8l-.5.8-1.2.4-.9-.1.2-.6-1.1-.3-.5.8-.1,1.1.4.7H210Zm.9-14.2-.3-.5-.4-.3-.4-.4h.1l.5-.1.6.2.1.7.4-.1v-.3l.2-.2.4.3-.2.7Zm-1.9-.4.1-.6.4-.2h.1l-.1.2v.6l-.6.2Zm.2-1.6V74l-.1-.2v-.2Zm2.4-.3-.2.4-.6.2.2-.4Zm-1.8.2V73h.4l.1.7Zm-1.1-.8-.2.2-.1.1.1.2-.1.3-.1-.4.2-.4Zm6.1.3.3-.5.3.3-.3.4Zm-2,.2-.2.1-.2-.1-.2-.2-.1-.3.2-.1v.4l.3.2Zm4.2,1,.7.5-.2.4.2.1.4-.2.3.4h-.7l.2.6.4.3H217l-.4-1-.7.3-.6.1h-.5v-.2h.4l.4-.3.2-.2-.7-.2-.7-.3-.3-.3h-.6v.5l.2.2.1.2h.4v.3l-.7.1-.6-.4h-.4v-.4l.3-.3.2.1.3-.2.2-.2-.5-.9-.1-.8.4-.1h.5v.2l-.4.2.3.8.2.7.6.2.1-.4h.4v.7Zm-6.1-3.4h.4v.2h-.3v-.2Zm-2.6-.2.2.3-.1.3-.2-.1Zm3.1-.2.2-.6.5.6Zm1.5.3.9.2.7-.4-.2-.4-.3.3-.1-.2.3-.4.5-.3.2.8-.4.9.3.2-.6.5-.7-.5h-.6Zm-3.2-1.2.5-.2.1-.3.4-.2.1.4-.5.2-.4.3H209Zm.3-1.3.2.5h-.6v-.3Zm4.1.2-.4-.1-.1-.3h.3Zm1.6-.2-.1-.3h.2l.1.2Zm-3.7-.4v-.3h.2v.3Zm-3.7-.2.2-.1.5.5-.5.4.2-.4Zm12-.7-.5.3-.4-.3.6-.1Zm-6.4,0-.3-.1.2-.1h.2Zm9.4.3-.4-.2-.1-.4.3.2Zm-1.2-1,.2.3-.1.2-.3-.3Zm-5.1,1.5h-1l-.8-.2-.2-.2-.3.2v-.3l.2.1.6-.4v-.4l.2-.7.6.4-.2.5-.3.4.5.3.7-.2ZM212.7,66l-.2.3-.2-.4Zm4.6-.5-.5.6.1.5.1.2.4-.2.2-.5-.1.2.1.3-.4.4H217l-.3-.4-.5-.4-.2-.5.1-.4.3.2.4.1Zm4.8-.3h.5l-.2.3-.4-.1Zm-13.7.2v.2l-.1-.2-.1-.2Zm4.3.1.3-.2.3-.1-.2.3ZM221,65h-.3l.2-.4.4.2Zm-2.1-.7.3.3h-.4l-.2-.3Zm-1.1-.6h.4l-.2.3-.3.1Zm-3.2,0,.3-.2h.2l-.1.2h-.4v.4l.9-.3.9-.4.1.2-.9.5-.3,1h-.2l-.1-.7h-.7l-.2-.5Zm-5.1-.7.1.2-.3.1-.1-.3Zm11.2-.1.5-.1.2.3-.3.2-.4-.2h-.4Zm-8.1.1.3.1.2.2.4.1.1-.3.3-.2.1.4-.2.5-.3-.2-.4-.3h-.5Zm3.7-.3.2.2V63l-.3-.1Zm-1.8,0h.2l.2-.3h.4l-.3.4h-.7Zm-6.9-.2.4-.1v.4l-.3.2v-.5Zm2.7.1.2-.3h.2l.2.1.1-.2.5.3.2.5-.7-.1-.5-.4-.1.3-.3.2v-.4Zm7-1.3v.6l-.2.2.1-.2-.3-.5Zm11.9,28.4-.7-1-1.6-.6-6.7-.2-1,.2-1.1-.1-1.1.1-1-.6-.5-1.6V83.4l.5-1.1.9-.6h2l1-.1,2.7.2,1.4-.1,1.1.1h.9l1-.6.5-1,.1-4-.1-1-.5-1-.9-.6-2-.1-1,.1H222l-1.2-.1-4,.1-.9-.6-.6-.9-.1-1.6.5-1.5,1.6-.5h9.8l1.1-.6.6-.9-.1-2.1-.1-1V62.8l.2-1-.5-1-1.1-.5h-4.1l-.9.1-1-.2-2.2.1-1-.1h-2l-.9-.1-6.7.2-1.5.4-.6,1.1.1,2-.2,1.5.2,2.6-.1,1.1.1.9v9.2l-.2,1.1.2,2-.1,2,.2,1.1-.1,1.1.1,1-.2.9.1,1.2v1l.1,2-.1,1-.2,1,.7,1,1,.6,11.5-.1.9.2,3.1-.2,3.1.2,1-.1,1.1-.5.5-1,.1-1V89.7Z"/><path class="cls-3" d="M182.9,95.2l-.5.2V95l.5-.3Zm2.7-.2-.1-.7.1.2h.3l.1.2Zm-2.5-1.1h0v-.3l.2-.1.1.3Zm-1,.7h-.7l-.1-.7.5-.7.8-.3.4-.3.3.2-.6.5.1.6-.4-.4-.4-.2-.1.6Zm1.3-2.9-.4.1h-.3l-.3-.1-.3.4-.2.1-.3-.6-.2-.2.1-.2.8.2.6.3.1-.4-.2-.4.5.3.6.1.1.2Zm3.4-.4-.1-.3-.4-.1-.2-.4h.5l.2.5Zm-.6-1.6.1-.2.2.1.2.2-.2.2Zm-2.4,1.2v-.4h-.2l-.4.1v-.3l.5-.2-.1-.4.2-.1v.3l.1.7.4.4Zm6.4-1.4-.3-.2.2-.1.4.2Zm-5.3,1.1v-.3l.2-.5-.1-.7.3-.1.1.8-.4.6Zm7.2-1.5-.1-.3.3.2.2.2Zm-3.7-1-.4.9-.7-.2.6-.2.4-.8.5-.3h.3Zm.2-.8v-.4h.5l.3-.5.3.2V87h-.6Zm2.8-.6-.2-.2.1-.2.5.2.1.3Zm1.2-2H192l-.4.3v.4l-.2-.3.1-.4.4-.3.6-.2.3.2Zm-2.3-.6-.2-.3.4-.2.1.3Zm1.9-.8-.4-.4h.7l.4.6Zm-5.6-.7.4.4.2-.4-.4-.2Zm4.2-.2-.2.2-.4.4h-.5l-.1.9h-.8l-.2-.4-.2-.3-.6.4V84l.3.5-.2.2-.5-.3.2-.4-.4.1-.3.6.4.4-.2.4-.6.2.1.3.4-.2h.6l.8-.8.8-.6.1.4v.3l-.1.5-.7.1-1.1.4v.7l-.6-.2L186,86l.1-.5.6-.3-.4-.8-.4-.8.3-.6.2.2-.1.5.2.2.3-.5-.2-.6-.5-.2-.5-.6h.4l.3.5h.4l.5-.4.4-.1-.1-.4-.2-.2.2-.5.7-.4.4.2v.5l1.1-.2h.8l.2.2-.4.2-.7-.2h-.5l.1.4-.5-.2-.1.7.8.2-.1.3h-.6l-.6-.1-.4.2.3.4.6-.2h1.7l-.4-.5.3.2.4-.3.4.1Zm-1.2-2h-.4l-.2-.3h.3Zm1.5.2h.3l.3-.4.2-.2-.2.4-.4.3-.4-.1Zm-5.5.2.3-.8h.4l.6-.3.3.5-.8.8-.8.5-.3-.1h.2Zm1.3-1.6.6-.1.4.4.3.2-.3-.2h-.7Zm1.1-.5.4-.1.2.5-.4-.1Zm-1.4.2h-.8v-.6h.6Zm5-.6-.4-.3.5-.2.5.4-.1.2Zm-2.2,1.4.1-.3-.1-.2.1-.4v-.2l-.3-.2-.4-.1V78l.5-.2.7-.3-.1.6.3.9Zm-3.1-2.2-.3-.2.3.2.2.1Zm4.7-.7.4.3h-.5l-.6-.1v-.2Zm-2.7,1.1-.7.2-.2-.5-.1-.3-.7-.4.1-.6.1.2h.4l.7-.3.2.5-.4.3.1.3h.3l.6-.1.1.2Zm2-1.5.1-.2h.2l-.1.3Zm-.9-.6.2.5-.5-.1-.3-.3Zm-3.3-.3-.1.2-.4-.2.3-.5.2.1-.2.1Zm1.6-1,.4-.1.1.5-.5.2Zm-1.1-.1.1-.4.1-.3h.2l-.1.4-.1.5Zm5.1-1.4-.1.2.1.3-.5-.2-.5-.3-.3.2v.5l-.3-.1v1l.1.4-.4.3-.1-.3.2-.3-.2-.3-.2-.3.3-.4.3-.3L190,73l.7-.1Zm-.2-.8.2.1.1.1h-.5l-.1-.2Zm-2.8-.3-.1.3-.3.2.1-.5.5-.2Zm.1-2v.4l-.3-.1.1-.4Zm.1-1.7-.1.3-.4.1.1-.3Zm1.6-.1-.2-.2.5-.2.1.2Zm2.1-.1h-.5l-.4-.3h.4Zm-1-.6.1.2-.3-.1Zm-6-.2-.4-.2-.1.2.4.4Zm3.3.5-.1-.2.4-.2.2-.5.2.2-.1.7Zm3.4-1.1h.3v.5h-.3Zm-5.2,1.2.1-.6.6-.1-.3-.5-.3.3-.7-.1.1-.6-.2-.2-.5.2.1.7-.1.9.2.2.3-.2.2-.2Zm-4.7-2.2h.6l-.8-.4Zm6.4-.5-.4.1-.1-.4h.4Zm-3.4-.3-.1.2.7-.3-.3-.2Zm6.5,0-.3.2v-.4l.3-.4.1.2Zm1.6-.6.4-.1.1.3-.2.2h-.2v-.4Zm-8.1-.2-1.2.2-.2.5-.2,1,.3.8.5-.3V64.8l1.2-.3Zm5.9.3-.4.2.1-.4.3-.2v.4Zm-1.5-.6.8-.2-.5.6-.7.3Zm-7,0-.1.3h.2l-.1-.5Zm12.1.1-.7-.3v-.4l.5.3.5.2ZM184.6,63l-.2.3h.2Zm-3,.1.2-.3v.4l-.3.3-.2-.1Zm2.4,4.3-1,.5-.8-.4-.8-.7.2-1-.3-.8-.1-.5.2-.1-.1-.4,1.1-.6,1.2-.3.2.6.4.2-.1-.4.1-.2-.1-.3.3-.2.7.5.8.2,1.1.6.6-.6-.1.7-.7.5.6.1.4.8.5.6h.5l.4-.5.2.2-.4.5-.8-.2-.3-.3-.6.2-.1.2.6.3.5.3.3.2h-.3l-.4.7-.2,1,.4.5-.5.2-.2-.5-.5.2v-.3l.3-.4v-.2l-.8.6-.2.7h.7v.5l.4-.1.1.4-.5.9.4,1.2-.5.2V73l-.2.1-.4-.3-.3.2-.3-.4.2-.7.9-.5-.5-.6-.1-.8-.5-.4h-.2l-.2-.6,1.2-.6.1-.6h-.1l-.2.2-.1-.1-.2.2-.8-.1Zm8.8-4.8-.4.5-.2.3h-.5L191,63l-.5-.4.1-.5.5-.2.2.6h1.5v-.4l.2-.2.3-.2h.4l-.1.2.5.4-.2.4-.7-.3h-.4Zm3.3-.8-.2.2-.2-.2Zm-1.6-.1.2-.1-.2.3H194l-.2-.1.2-.1Zm-9.1-.1.7.2,1.3-.4,1,.6.3-.1v.8l.4.2-.4.2-.3.3-.1-.7.4-.5h-.4l-.4.2-.2.6-.6-.5.1-.4-.4.2-.2.7-1.1-.4-.2-.6-.1.6h-.4l-.2-.7Zm-2.4-.3.4.4.2-.2.2.6-.7.5-.4-.5h-.4l-.1-.6Zm2.9-.2.1.2-.3.2-.2-.3Zm12.3,28.6-.7-.9-3.4-1.1-.6-1,.1-4.2-.2-2,.2-2.2-.1-1.5.1-1.6-.1-1,.1-1-.1-1.1V70l.6-.9,1-.6,1.1-.1,1-.6.6-1v-3l.1-.9-.1-1-.4-1-1.6-.5h-6.5l-1.1.1-3.1-.2h-1l-2-.1-1.1.5-.6,1.1v1l-.1.9V65l.1,1v1l.5,1,3.2,1,.7.9-.1,4.3v.9l.1,1.2v2.1l-.1,1,.2,2-.2,1,.2,2.2-.1,2-.5,1.1-3.4,1.1-.6,1-.1,1v3.9l.5,1.1,1,.3,15.2.1,1-.5.6-.9V93.7l-.1-.9Z"/><path class="cls-3" d="M160.5,94.1h-.4l-.5.1-.5-.1-.5.5.6.3h.4l-.1-.4.5.1-.2.2.9.2-.4-.4Zm3.7-.1-.2-.2-.2.2.1.2.3.3h.3l.6-.1-.2-.2Zm-10.3-.1-.1.3-.5.2h.6l.8-.3-.1-.3Zm11.4.7-.7.2h-.2l-.1-.2H164l-.2-.3.2-.5.1-.5.2.1.7.5.5.2Zm1.1-1.4-.5.2-.1-.3.1.2.3-.3.3-.2Zm-14.7,0,.2.2v-.5l-.4-.1Zm7.6.4.3.2.4-.2.2-.3-.4-.2.1-.3-.3-.5-.4.3.4.5Zm9.2-.7-.4-.2-.6.2-.6-.4.4-.1-.1-.2.2.2-.2.2.3.1.6-.2.6.3Zm-17-.5-.2-.1h-.5l-.2.3v.1l.4-.2Zm5.1-.2.4.6.1-.1v-.2l-.1-.2Zm8.5,1,.1.2-.1-.2-.4-.7-.4.5-.3-.5.1-.4.7.4Zm-2.8-.6-.3-.3h-.3l-.3.3h-.7l-.2-.5-.3.2.4.5,1.1.4.5-.4Zm-7.6.3.2-.2-.1-.5-.2-.3-.6.4.5.8.7.8h.3l.1-.2v-.3l-.4-.6Zm2.7-1,.5.2.5.1.1-.2-.5-.2Zm8.2.3-.2.2.1.6-.4-.6v-.7l.5.1v.4Zm-1.6-.8.1.2-.3-.2v.3l-.2.1v-.6l.2-.2Zm-1-.4.3.1v.5l-.4-.1Zm7.3.5-.4-.5h-.5l.1-.1h.4l.5.2ZM150.6,91l-.3-.1-.1.3.5.2.1-.3h-.3Zm7.1.5h.7L158,91l-.4-.2v.4l.5.2Zm-3.3-.6-.5-.1.3.4Zm13.9-.1.2.2-.1.1-.3-.1-.3-.2.1-.2Zm-15.9,1.6.2-.4.5.2v-.5l.2-.1-.5-.1-.2-.5h.2l.1-.5-.8-.1.2.6-.2.4-.2.2-.5-.1-.2.3.2.3-.1.2,1,.5.6.9.2-.4-.2-.5Zm16.3-1.6-.2.2.1-.2-.2-.3-.2-.1v-.2l.3.2h.5l.1.3Zm-5-.1.5-.4.2-.3.4.2-.1.3-.2.2-.2-.2-.3.5Zm-2.3-.2h.4l-.5-.5h-.5l.2.2Zm-8.4-.8.2.3.1.5.5.2-.2-.9H153Zm-2.7-.2-.2.2.1.3h.4Zm10.7.8-.3-.3-.1-.4-.2-.3-.1.3-.1.7.6.7h0l.3-.2Zm-6.7.3.6.1.3-.4-.1-.7-.4-.4-.2.5-.1.4.1.2-.1.2Zm3.9-1.3.4-.1.5-.1-.1.3h1l.3.2.1-.2.3-.2.7.3h1.2l-.1.5.1.3h.4v.4h-.5l-.2-.3-.3.6.3.4.4-.2-.1.4-.5.2v-.3l-.2-.4-.3-.2-.4.2-.1-.1h0l-.1.3-.4.3-.1-.4-.1-.4-.4-1-.6-.1-.6-.3-.1.5-.5.2-.4-.5Zm7.5-.3v.7l.5.7.3.3-.3.2-.1-.3-.5-.4-.5-.5.2-.3Zm3.2-.1-.2.6-.4-.4Zm-12.8.3-.3-.5-.5.2-.1.6.4-.3Zm11.4-.5.2.3.2.3-.3.1-.2-.2-.3-.2-.1-.3ZM152,90.1l.6-.5h.4v-.3l.8.1-.2-.4h-.5l-.6-.2-.5.5.1.5ZM163.8,89l.9-.6.1.4-.2-.2-.2.5-.4.3-.4.9.1.3-.4-.5Zm2.5-.8-.3.5h-.2Zm.3.3.5-.2-.1-.2.2.2-.5.5Zm-15.5.7.6-.4.1-.2-.4-.1-.4-.4-.1-.2-.3-.1-.2.3-.1.4.4-.1.3.2v.3l-.4.2.1-.2-.7.1-.3-.2-.1-.5-.4.4-.5.2.3.2.5.4.2.2.3-.2.2.2.2-.2Zm19.4-1.6-.1.2-.1.4-.2-.1.3-.2-.2-.4h.7Zm-18.7.2-.3-.4-.2.2.5.4Zm15.9-.8h.5l.3.3-.3.4-.5.2-.5-.2.1-.3.3.2.1.1.2-.2Zm-18,0,.2-.1-.3-.2-.7.8-1-.1-.2.4.6-.2.4.2,1.1-.1.2-.3h-.4Zm12.6,7.2h.7l.1.2.1.5-.3.4-.3.3-.2-.2.4-.4.3-.5h-.5l-.1-.2-.3.3-.2-.3-.6-.2-.2-.5-.1.2h-.3l-.3-.2.1.3,1.2,1-.1.1-.2.2-.3.6-.5.1.2-.3.1-.5-.3.2-.5-.1-.2.4-.1.5-.5-.2-.9.1-.1-.2.4-.2v-.1H158l-.1.5-.4-.1.1-.5-.3-.2-.2.4-.2.3-.7.1-.2-.3v-.6l.5-.2-.6-.2-.6.8v-.4l-.9.2.1-.4h-.6l-.1.4h.2l-.2.1-.7-.7h-.6l-.6-.8-.3.2.2.2.1.3-.3-.2-.1-.3-.1-.2-.3-.1-.6-.3v-.7h0v-.1h-.1l-.2.2-.2.6-.4-.5h-.3l-.6-.6.5-.9.3.4.2-.4-.6-.3.7-.4.1-.6-.2-.2-.3-.2-.1.4-.2.5-.4.2-.2.1-.4.3h-.3l.1-.4.4-.2-.2-.2V90l.2-.2-.5.1-.4.3h.4l.1.2h-.3l-.1-.2-.3.2-.2-.5v-.3l-.4.2v-.5l.4-.3-.2-.5.4-.4.1-.2-.5-.5.3-.8-.3-.4V86h.8v.4l.3-.1.4-.5h.6v.5l.6-.4.5.6-.3.3.4.1.4.2-.1-.5-.3-.4.3-.3.1.1,1.1,1.1v-.2l.2-.7.6.2-.5.2.1.5h.5l.1.5-.4.4-.4-.1.5.5h.6l.2-.3-.3-.3.5-.2.2-.2.1-.2.1.3-.1.3.2.3-.4.2-.4.2-.2.2.4.1.3.1.3-.5.2-.3.1-.5.7.2.6.6.6.4.3.3v.5l-.4.3h-.3l-.2.5-.1.6.8-.1-.3.3.3.3.5-.3.2-.3-.2-.3-.3-.1.1-.3.6-.2-.1-.4h.6l.6.7.4.3.7.3-.3.2V91h.1l-.2.2.5.1.2-.6.3-.1v.2l.4.5V92l.4-.2.6.3.2.4.6-.6.1-.3.2.4.3.2.9.2.2.4.2-.1.1.4-.5.1-.9-.5-.3.4.2.2-.3.2.5.1.5-.4.5.5h-.2l-.3-.1-.2.3h-.7Zm6.5-8.1-.3.5-.4-.5h-.6l-.2-.2-.1.2-.3.1.1-.4.8-.2-.1-.6v-.3l1.3,1Zm-2.6-1.7-.2.2v-.2l-.3-.3h.2l.4.2.2.3Zm-.7-1.1h.5l-.1.4.3-.1-.1.3-.6-.2Zm2.3-1.4.4.1v.2h-.6Zm2.2-.3.3.3.1-.2h.3l-.2.2-.7.2-.1-.3Zm-5.9-.5-.1.2-.1.5-.2.2-.1.4-.3-.2.3-.2v-.2l-.1-.1.1-.4.5-.3.2.3Zm-1-.3.4-.3.2.3-.2.2-.5.2Zm1.7-.1h-.3l.2-.3.3-.2Zm-9.2-.7-.1.4-.2-.5.5-.2Zm-.6,0-.4.2h-.3l-.1.2-.2.2h.8l.2.3-.6.2-.5-.5.8-.8.4-.1Zm2.2-.3-.2.3v.5l-.3-.1-.2-.4.3-.5.3-.2Zm6.9,0-.4-.3.4-.2v.5l.1-.3h.2l.1.3Zm-5.7-.3v-.2l.3.3Zm3.6.6-.2-.1v-.5l.3-.4-.1.7.3.2Zm-1.2-.5-.2.2-.1-.3-.3-.5v-.5l.4.3-.2.3.9-.1.1.4Zm-1-1-.4.4-.5-.4.3-.4.6.1.2.2Zm4.9,0-.2-.2.1-.3.1.2Zm-6.4,0-.1-.2.1-.3.4.3Zm-2.5.2.3.4-.3-.1-.7-.6.2-.4.1-.3.7.2.1.7-.2-.3h-.3Zm7.2-1,.5.2.2.4-.1.2-.3.2-.1-.5-.5-.2-.1-.3Zm2.5,0,.2-.3.1.2.3.2.3.1-.1.3L166,78l-.1.3-.5.4.1-.6.3-.2Zm-1.2-.4.5.3-.2.4-.6-.4h-.2Zm-2.4,1.2-.7-1,.7-.3.2.4h-.2l.4.4.5.6.2.4-.5-.2Zm-6.2-1.7-.1.4-.8-.3-.4-.5.6.1Zm5.5-.6v.2l.2.2.3.2-.2.1-.1.2-.2-.3-.2-.4Zm-7.9,3.9-.1-.7-.7-.2.1.6h-.3l-.2.2v-.5l.3-.2L152,79l-.1-.5-.2-.3-.1-.3-.2-.2-.2.2-.2.4.2.1.1.3-.5.1.1.2.1.4-.5-.4v-.4h.4v-.7l.5-.8.4.2-.2-.5h-1.1v.5l-.1.7-.6.2-.3-.4.3.3.2-.3.4-.6.1-.7.5-.3-.2.3.2.3h.3l-.1-.2.3-.3h.3l-.2.2h-.2l.8.4.8.1.2.8.2.2-.2.6-.3-.3.2-.3v-.2l-.2-.3-.8.1-.4.3.1.1h.6v.8l.9.1.5-1.1.1.9.2.5.2-.1.3.3h.8l-.4.2h-1l-.2.4-.1.5Zm4.5-2-.4.2v.3l.4.1.4.4-.4-.2-.9-.1.1-.2v-.3l.1-.2.1.3.1-.2V78l-.2-.2-.2-.5.7.5.5-.2.5-.6-.4-.4.1-.4-.1-.4.5.1.6.6-.2.3-.2-.1-.1.7Zm-5.1-2.3.1.5-.5-.4Zm-3.3.8-.1-.3-.1.4-.5.3-.3.1.1.2.4.4-.2.3-.3-.4-.1-.6-.5-.3h.2l.5-.4V76l.2-.2.1.5-.2.2.4-.1.8-.1v.3Zm7-1.2.1.3-.4.3-.2-.2Zm-4.6-.2-.3.4-.5.2.1-.1.2-.6Zm.5,0v-.3h.2l.1.4.1.3-.3-.1Zm-3.5-.5.5.2-.1.3.1.5.4-.3v.4l-.5.1-.2-.6-.1-.4-.4.4-.1-.3Zm2.3-2.1-.1.2-.3.2-.2.5.3.1.5-.2v-.1h.1l-.1-.3Zm3.9,2.3.4-.2.1.8-.8.7-.4-.3-.3.2-.3.5-.4-.3-.1-.3.6-.2h.4l.4-.6-.7-.3-.7.2-.2-.3h.6l.4-.1v-.3h-.6l-.3-.1-.6-.3-.1-.5-.2.7-.5.2-.4.1.1-.6.7-.6.9-.3v-.5l-.2-.2.2-.2.6.7v.6l.2-.1.1-.7.2.2.5.4-.6-.1-.1.2v.3l-.4.1-.2.4-.2.1.2.1.2-.2.4.2.4.3Zm-6.4-2,.5-.3.1-.3.2.3-.3.5-.5.2Zm-1.6-.2.1-.6.2-.1h.2l-.1.5v.2h.3l.3.4h-.3Zm.8-1.5.3-.3.3.3-.3.2-.2.2-.3-.2Zm2.7-.3-.3-.2.3-.2v.4Zm-.3-.3-.3-.2.3.2Zm1-.2v-.8l.3-.3-.2.3.3.3h.4l-.9,1.3-.2-.2Zm-.7,3,.3-.5.1-.3.3-.6,1-1.2,1.1-.9v-.6l.6-.2-.1.6.1.4-.3-.1-.2.1.2.2.3.5-.3.4h.3l-.1.3-.5-.8-.2.2h-.5l.8.5-.1.3v-.2l-.2-.1-.1.3-.2.2-.6-.5-.6.3.1.3-.4.7.1.4-.1.1v.1h-.1l-.1.2-.1.3-.4-.1-.4-.2h-.7l.4-.5-.4-.5.2-.3h.6v-.3h.2l-.1.3-.3.2Zm1.9-4.4.4-.1-.1.8-.5.3.1-.5.1-.5Zm-4.3-.2-.1.2-.2-.2.1-.2v.1Zm3.2-.3.5-.2.4-.1.3.4-.1.3-.1-.2-.1-.3-.2.4-.3.3-.5-.2.5.1.1-.2Zm2.3-.2.2-.4v.2h.1l.2.1Zm-5.9-.5.2.2v.3l-.2-.2Zm6.8-.3.7.2.2.5-.3-.1h-.4l-.2-.2Zm-1.7,1-.7-.8.4-.2.5.2.3-.2V68l-.5.2ZM168.3,67l.2-.2v.4l-.2.2Zm-15.5-.2-.2-.2.5-.1Zm-2.3-.3v.8l-.2-.4-.1-.2Zm-.6-.2-.2.1.2-.1Zm5-.2-.2.1-.1-.3Zm6.1-.3.1.2.1.4-.4-.4Zm-9-.1.2.2.2.4-.2.1-.3.3.3.2-.1.3-.2-.4.2-.5h-.3l-.1-.2Zm5,.2.4-.4v.3l-.1-.2-.3.3.3.2.4.4-.4-.1-.4-.2Zm-7.3-.5.1.2.1.4-.2-.1-.2-.3Zm4.2-.1.2-.3h0l-.3.4-.5-.2V65l.3.2Zm13-.1.2-.6.4-.1-.6.9-.1-.4Zm-13.3-.6-.2.2-.1-.5Zm1.8-.4h.4l.2.2-.5.3-.1-.5-.1.3-.1-.2Zm5-.2.2.2-.2.4.2.1-.4-.1-.2-.3Zm-7.8,0,.3.2.3-.1-.3.2-.1.3-.2.3-.1-.3-.2-.3-.1-.3Zm3.6-.6.1.3h-.5l-.1-.2Zm5.6,0,.1.2h-.2l-.1-.3Zm2.6-.3.7-.1-.4.2.2.3-.2.2-.2-.3h-.4Zm-6.5.3.1-.4.2.2-.6.4Zm16,19.4-.2-1-1-1.9-1.2-1.6-.9-.7-2.7-1.2-4.2-1-5.2-.7-2.3-.8-.8-.4-.8-.8V71.3l.1-1.3.6-.7.9-.7.7-.3.9-.2,3.3-.1,1.1.4.8.6,1.7,1.8,1.6.5,3.4.1.9-.1,1,.1,1-.6.5-1-.4-2-.8-1.8-.7-.8-.5-.8-.7-.8-3.3-2.2-2.8-1-1.1-.2-.9-.1-1.1-.2h-2.9l-4,.8-.9.3-.8.5-.8.3-1,.6-.7.7-.9.6-.6.9-.7.7-.4.9-.5.8-.7,3,.1,3.4.4,1.4.7,1.8,1.3,1.7,1.4,1.3,1.8,1.1,2.9,1,1.8.4,4.2.3.9.2,1,.1,1.8.8.7.6.3,1.3-.3,1.3-.8.7-.8.5-1.9.6H160l-1.5-.1-1.2-.3-.8-.4-.9-.6-.8-.7-.8-1-1-.4-3.9-.1-1,.1h-1l-1,.5-.4,1.1.1,1.1.2.9.8,2,1.3,1.6,1.5,1.5.9.6,3.5,1.8,1.1.2,1,.4,2.1.2,1.5.2,1.6-.1,5-1,2.7-1.4,1.6-1.1,1.4-1.6,1-1.6.4-.9.3-1,.2-.9.1-3.2Z"/><path class="cls-3" d="M110.5,90.2h0l.2.1Zm-.2-.1.1-.2-.1.2Zm-.7,0-.4.3-.1-.5.5-.5Zm25.9-1.9v-.4h.3v.3Zm1.1-.3.2-.6v.2l.2.5Zm-23.4-.4-.6-.2h.3l.5-.2.3.2Zm-5.8-.3v-.4h.4l.1.3Zm28.3-.6-.2-.2.4-.1.1.3Zm-24.7.3-.7-.4.1-.3.9.2V87Zm23.9-.3-.3.1v-.5h.4Zm-4.5-.1V86l.2.2v.3Zm7.3.3-.4-.2H137l-.2-.2.4-.3.5-.3.1.6Zm-4-.6-.3-.2v-.3l.4.3Zm-1.3-.5h-.6l.3-.4.6.2Zm-21.1-.2-.1.3h-.5l.2-.5Zm-1.7.1-.3.1-.3.5-.3-.3-.3.1h-.6l-.3-.5.3-.2.3.4.3.2.5-.2.6-.2.2-.1Zm2-.5-.1-.2.6.2Zm.5.5.5-.3h.2l.2-.5.3.4-.4.2-.2.2.3.3-.1.3h-.4Zm-5.9-.1-.2.1v-.3l-.3-.6.8-.1.2.4Zm1.7-1,.1.3-.5.2-.2-.2Zm5-.5h.6v.3H113V84Zm18.6.2-.3-.3.3-.3.2.3ZM110,83.8l.4-.2-.1.5-.3.2v-.5Zm-3.1,0-.4.1.1-.2.3-.3Zm-1.6-.3v-.2l.4.1.1.6.1.2-.1-.1-.2-.3Zm3.5-.8-.2-.2-.2-.1-.1.4Zm28.4,0,.9.2.1-.3-.7-.3Zm-1.8-.8.4.1.2-.4-.5-.2Zm-28.3-.2.2-.3.1.3-.4.3v-.3Zm30.5-.3-.1-.3-.3.1v.4Zm.3-.5-.4.2.6.2Zm-2.2-.1v.3h.3l.3-.2v-.3Zm-26.6,2.3-.4-.1-.6.3v.5l-.1.2-.2-1,.2-.6-.2-.2.4.4.3-.2h0l.1.2.1-.7.9-.6.2-.8.2.3.6-.3.3.5-.8.6-.3.4-.4.2-.4.2,1,.1.9,1,.4-.4-.4-.3.3-.3.2-.3-.2-.5.1-.5.5.1.3.3-.5.3.3.3.6.5-.1.1-.6-.1-.3.4.3.4.6-.2v.3l-.5.2-1.2.9-.4.1v.4l-.3-.3.5-.7.5-.3-.6-.3-.5-.5-.7-.2v.8Zm23.6-3.4.4.2v.3l-.2-.2-.5.4-.1-.3Zm-21.3,0V80l-.4-.2Zm22.8-.1.1.6-.6-.2-.1-.5Zm-1.1-.7v.4h-.3l-.1-.3Zm5.5,0-.4-.2-.2.2v.4h.5Zm-28.7.7-.2.2-.2-.4.5-.4.1-.3.6.1v.6h-.8Zm1.6-1.7.6.2-.6.4-.1-.4Zm-1,0-.5-.1.2-.2.3.3.2.2Zm-4.8,0-.4.3v-.6h.3Zm27.5-.4h.4l-.2.3-.4.2.2.5.5-.4.1.5-1.1-.1-.1-1Zm-26.4,5.1-.3-.2.3-.3-.2-.1h-1l-.4-1.1.3-.6.2.1.3-.3-.6-.2-.5.1v-.3l.4-.2-.2-.4h-.5l.7-.6h1.1l-.1.4-.4-.1v.4l.5.4.5-.1.3-.7.7.2.3-.5L108,78l-.6.5-.6-.8.3-.7.3.1.6.2.3.4.2.9.6.6V80l-.6.2-.3-.5-.8-.2-.5.6-.4.2-.4.4.1.3-.6.2v.3h.6l.8-.6.4-.6.6.2.6.3-.2.3-.9-.2-.6.4-.3.1-.1.5.6.2-.1.3Zm32,.4.7.3-.7.5-.7.9-.1.4.5.5v.2l-.2.2-.5-.6-.4-.2-.3.2-.4-.3.4-.3.4.1.2-.2v-.2l.2-.5-.5.1.1-.4-1-.7-.8.2.3.1.5.2-.6.8-.4.1.3.2-.8.1-1.1.1-.4.1-.3-.2h.3l.2-.1h.4l.1-.3V84l.6.3.9-.4v-.6l-.2.5-.4.3.1-.5-.1-.6-1.2-.2.1.7-.3.5-.5.1-.6-.2-.6-.6v-.2h.5l.4.8.3-.3v-.5l-.8-.4-.7.1-.1-.5.8.1h1l.8.3.2-.3-.1-.5-.3-.1-.5.2-.2-.3.3-.3-.1-.2-.4.1.5-.5.9.5.7-.6-.2-.6v-.5h-.7l-.2-.1v-.3l.8-.1.6-.7.2-.2.4-.1-.1-.5.1-.5.4-.1v.5l-.1.2.4.9-.2-.2-.5.5-.6.5.7.4,1.1-.4.1-.6.2-.2h.5l.2-.5.4-.6h.6l-.1.7-.5.4.1.3.6.3-.3.7h-.5l-.3.7.8,1.1.6.8-.5.4-.4-.3-.3-.4-.1-.5-.4.6Zm-28-5.4V77l.4.1.7-.3v.4l-.6.3v.3ZM110,77h-.3v-.3l.2-.2Zm25.9-.7h0l-.2-.2Zm-1.6.3-.3.1-.4-.3v-.2l.3.1.4.2Zm-26.6-1,.2.3h-.2Zm1.8.9-.4.3h-.3l.2-.6.4-.5.5-.1V76Zm26.4-.2-.2-.5.4-.4.3.6ZM112,75.5l-.3-.3.4-.3v.3Zm-5.1-1.3h-.3l-.2.3.4.2Zm26.9.2-.4-.2-.2-.3.5.2Zm-28.7,1.3v-.4l.4-.2h.5l-.2-1,1.2-.3.5.5-.3.6.8.3.4.4.4.2-.5.2-.6-.4.1-.3-.9.3-.4.5.5-.1v.2l.3.3-.7.2-.9.6-.1-.7-.5-.2.6-.2v-.3Zm34.1-.2.2.2-.5.4v.5l.3.4-.5.2-.3-.6-.4-.2.2.6-.7.2-.4-.4.3-.3-.1-.5.6.2.8-.4.4-.1-.5-.2-.5-.1-.3.1-.6-.2-.3-.2-.6-.5-.4-.3-.3.3-.8-.3v-.5l-.4-.2.4-.2.5.5.3.4.3-.2.2-.4.1-.7.4.2-.1.8.7.3.4-.4.3.1-.3.7.3.2.6-.1Zm-4-2.5v-.6l.3.1.4.5v.6l-.1-.4Zm-24.8.4-.4.2-.4-.3-.1-.7.5-.2.5.6h.5l.1-.2.1.2h-.3v.3Zm2.4-1v.2l-.4.2.2-.1.2-.3Zm24.2-.2-.3.5h-.6l.2-.3Zm-26,0-.2.2V72l.1-.2Zm-4.6.2,1.2.4.4-.4v-.7h-.3l-.3.1.1.3-.1.2-.2-.5-.3-.1Zm31.8-.3v.4l-.3.2-.2-.2h.4l-.7-.4-.7-.5h.6Zm-31.3-.4v-.2l-.7.2.2.2Zm27.2.2.4-.4.2-.1.9-.1.5.6-.2-.2-.7-.2-.6.5-.7.7Zm.6-1.5h.5l-.3.3-.4.1Zm-1.9.3.3-.3h.4l-.3.4h-.6Zm-24.8.7.7-.7-.5-.3h-.5l-.2.4.4.1-.4.4Zm28.6-1.3v-.4l.3.4-.4.2Zm-6.8-.3.3-.1V70h-.3ZM112,69.6l.1.3-.2.3-.1-.3v-.4Zm23.9-.4.4.2-.4.2h-.3Zm-5.4,13.6-.6.9-.3.8-.7.8L126.4,87l-.9.3-.8.3-1,.2h-2.8l-1.1-.2-1.8-.8-.8-.5-1.4-1.1-.7-.7-.7-1-.2-.8-.5-.9-.4-1.8V76.8l.2-.9.2-1,.3-.9.3-.9,1.2-1.6,2.6-1.7.7-.3,2-.5,1.4-.1,2.4.3.9.2.9.4,1.6,1.1,2,2.1.6,1.9.5,1,.2.9-.1,3.1-.4,1.9Zm3.3-14.1.2.2-.3.4Zm-22,.2-.4.1v-.3l.3-.1Zm-2.2.5,1.1-.6.2-.4.2.1-.3.7-.4.3-.4.5.3.3.4.2.2.5.5-.2-.2.5-.6.4-.2-.3-.1-.6-1.2-.7-.3-.6v-.3l.3.2-.2.2ZM106,71l.5-.5.5-.4v-.6h.5l.2-.3-.3-.2.5-.4.5-.2v.5l.2,1.1,1,1.1.2.5-.5.8-.9.3.4.2.5.4-.3.3v.5h-.5l-1-.6-.9-.1-.1-.4-.4.1v-.5l-.1-1.1Zm6.8-2.9.4-.2.4-.5-.1.7Zm1.8-1-.2.2-.4-.1.2-.2Zm14,.2-.5-.3v-.4l.5.2Zm-15.7-.6.4-.3.1.3-.2.2h-.5Zm-3.3-.3h.5l.3.1.5-.4.6-.1-.3-.1-.5-.1-.2-.3.7-.3.4.4.1.3.5.2-.2.3-.3-.2-.1.6.3.4.9.4V68l-.8.3-.4-.3.4.1v-.5l-.6-.2-.5.3v-.4l.1-.4h-.8l.1,1.2-.4.8-.5-.1-.6-1.3Zm6.2-1.5v.4l-.3.2v-.4Zm9.6-.1h.3v.4h-.4Zm2.6-.1.2.3h.4v.4l-.8.1-.2-.4Zm-5,0-.2.2-.2-.1.2-.3Zm7-.2.1.2h-.4v-.2Zm-10.2-.4h.2l-.2.2-.3-.2Zm-6.3.6.2-.2.4-.4.1.2-.3.5-.6.2Zm11.1-.7v.4l-.3-.1v-.2Zm-9.1-.6.6.1-.2.5-.6-.1Zm-.4-.5.1.3-.3.1-.1-.3Zm2.3-.1.6.2-.3.5-.7-.3-.1-.5Zm10.4-.3.6.3.6.2-.1.2-.5.1-.6-.4Zm-8-.1.3.2h-.4l-.1-.2Zm3-.2-.3.2v.3l-.1-.3Zm3.2,0,.7-.2v.5l.3.3.2.4-.4-.2-.5-.2-.5.2-.3-.2Zm14.6,13.7-.4-2.1-1.3-3.9-1-1.9-1.1-1.5-1.4-1.6L134,63.6l-1.2-.8-1.5-.7-.8-.6-3.9-1.2-3-.5h-1.4l-5.4.8L113,62l-.8.6-.9.5-1.7,1.3L107,67.3,105.4,70l-.8,1.9-.9,3.9-.1,4.2.2,1,.3.9.1,1,.5,1.9,2.4,4.7.6.6.7.8.8.7.6.7,1.7,1.3,4,2,1.5.5,1.1.1,1.8.4,1.1.1h2.9l3.1-.4,3.8-1.3,1.7-.9.8-.6,1-.5,1.4-1.2.7-.9.7-.7,2.2-3.4.8-1.9.4-1.9V82l.3-1V79.9l.2-1.5Z"/><path class="cls-3" d="M70.9,93.1v-.4l.3-.3.1.4Zm-1-.8L70,92l.3-.7v.4l.1.4Zm1.3-1.7v-.4l.4-.2.1.6Zm2.4-.4-.2-.1-.2-.3.2.2.2.2.1.2Zm16.2-1.4.4-.6.1,1.3Zm-20.3-.5v-.4H70v.3Zm.9.8-.2-.4.5-.4.2-.4.3.5-.1.4-.2.3Zm16-1-.5-.2.4-.2.3.2Zm3.1.4-.2.4-.1-.3.1-.3-.2-.6-.6-.3-.3.1.1.4.5.5-.2.4-.4-.1-.1-.5-.3-.3.2-.3.3-.1.2-.2V87l.7-.4.7,1.4-.4.3ZM74.7,87.1h-.3l-.5-.5.2-.2.4.3V87l.2-.1ZM91.8,87l.3-.1.3.4.8-.5.1-.5-1.2-.4Zm-18.9-.4h-.4l-.3-.2-.2-.3-.2-.3h.4l.2.3.2-.2.1-.2.2.3Zm18.4-1.5-.1.2.4.5v.4l.5-.6Zm-3.1,0-.4-.2v-.3l.1-.2.2.2ZM69.4,89.7l-.3.4-.7-.4.2-.9-.2-.4v-.9l.2-.5v-.6l.6.4.2-.3-.6-.8.4-.6-.3-.5.4-.5.1.2L70,84l.3.1-.2.3.2.1-.1.1.4.1.7.2-.3.2-.4-.3-.5.1.3.8.5.2h.4l-.1.3L70,86l-.1.5h.8l.3.2.4-.2.2.2v1.1l-.6-.2-.4.3v-.4l-.2-.4-.9.6-.4.7.6.3-.5.5Zm-1.1-5.3.2-.8.5-.1.1.4-.6,1Zm21.4-.9.4-.6.6.3-.1.2-.4-.1-.4.4Zm6-1.5-.2.4.6.4.1-.2ZM73.2,82l.2-.6.6.4-.2.2Zm1.8-.2v-.3l.4-.1.1.7Zm-3.8,1.4.2-.1.2-.4-.3-.2-.1-.4-.6-.2.3-.4.6-.2.3-.3.2.2-.2.5.2.5.2.7Zm21.2-2.4H92v-.6l.4.3Zm1.1-.4.3-.2v.5l-.5.1Zm-23.2.8.4.1-.4.4V82H70l-.3-.2-.4.2-.3-.5.5-.3-.8-.3-.2-.6h.6l.6-.2.2.1.2.1-.4.7Zm26.4.1-.7.3.1.4h.4l.1.4-.3.2-.3.1h-.3l-.2,1.5-.6-.2-.2.2.6.4v.9l-.5.1-.3.4.4.3-.1.2-.3-.3-.8-.2.3.5.1.9-.4-.3-.3.4-.4-.1.4.2-.2.4-.2.4-.2-.3-.2-.3-.8.3-.4-.3v-.2h.4l-.3-.4-.5-.1-.3-.2-.1.5-.3-.2-.5-.3-.6-.4.3-.6.7.4.4.3.3-.2-.4-.4-.8-.4L89,86l-.5-.4.3-.7-.5-.5.4-.9.5.3-.1.4h-.4l.7.7,1.3.5.1-.6-.4-.8.6-.2.3-.5v-.6l.3-.1.5,1.4.2.2.2-.8.2-.8H92l-.4-.5-.3-.2H90.2l-.3-1.1.5-.2.1.4.1-.4.6-.6.1.3-.4.1.3.3-.7.4v.3l.7-.2.5.4h.2l-.1.2.4.1.7-.4.5-.3V81l.3.2.1-.5.4.2.2-.4.4.2-.2.4-.4-.2-.2.2.3.5-.2-.2-.3.2-.8.5.5.8.3-.3.3.2.6-.4v-.7l.4-.2.2-.1-.1.2V82l.5-.5.5-.8h.6ZM71.2,79.7l.4.4.2.2h-.4l-.5-.2-.2-.3Zm22,0L93,79l.3-.4h.2l.2.7Zm-21.6-.5-.2-.3.5-.4.2.2-.2-.1-.1.3Zm-1.8-.3-.3-.6h.4l.2.3Zm21.5.5.5.2V80l-.3-.2-.2-.1-.2-.2.1-.4.2-.2.3-.1.1-.5.3-.1V79h-.3l-.4-.2-.1.2Zm5.4-1.2-.1.3-.1-.4.2-.5.1.4Zm-.4,1.2-.2.2.4.3v.5l-.6-.2-.3-.5v1l-.6.2-.4-.6.2-.6-.2-1.1.6-1v.8l.2.6-.5.4.2.4.6-.4.4-.3-.4-.4.4.1.5.4Zm.1-1.9h.2v.2h-.2Zm-22.6,0-.1.3-.1.5-.1-.5Zm17.6.3L91,78l-.1-.2-.2-.2-.2-.2.5-.1ZM72.7,77H73l.3.2h-.5l-.1-.2Zm-.5.4v.2h-.1l-.1.5-.5.4V78l.4-.5-.1-.3.3-.2.1.2h.2Zm21.4.5-.6.2-.6-.2-.2-.6-.3-.1.5-.2.6.6v.3l.6-.4.3-.9h.3v1.2l.2.6H94l-.2-.3Zm3.1-1-.1-.5-.5-.3-.4.3.4-.5.7.3.2.4Zm-3.9-.4-.3-.4v-.3l.5.2.4.5.1.6-.4.2L93,77l.1-.5Zm-19.2-.2h-.5l-.2-.6.7.6.3.2Zm17.6-.4.2-.4.2-.2v.5Zm3.2-1,.3.5-.3.3-.1-.4Zm.7.7.2-.6.3-.2.8-.1-.8.6v.5l-.4.5L95,76l.3-.1Zm-3-1.7h.3v.5l.2.2.7.2.3.4.2.2-.2.3.4.1h.4l-.5.4-.9-1-.6.1v.3l-.5-.3.2-.7v-.7Zm-1.9.2.3-.3H91l-.2.5h-.6Zm-21.6.6-.3-.1v-.4l.3-.5.2.1.1.4.3-.3.1.2-.4.5v.9l.4.8-.3.2-.4.2-.2.5V77l-.2-.5.2-.7ZM94.2,73l.2.2.2.3.2.3-.2.2-.4-.3Zm-.5-.2-.3.1.2.3.4.5-.3.2-.4-.3-.3-.1-.2.3.1-.2.2-.2-.1-.2.3-.5Zm-20-.9.3-.1.3.3h-.4Zm-1.3.1-.2.2h-.3l.9-.8v.5Zm-1.8-.3.3-.3.4-.2h.2l-.3.7Zm17.9-1-.2-.2h.5l-.6.8-.1-.4ZM71.2,70l-.3.5-.6-.2h.4l.2-.4Zm-1-.6v-.3l.3-.2.2.4Zm16.3,16-.6.8-.8.5-1,.5-1.8.5L78,88l-1.2-.5-.5-1.1.1-1-.2-.9.2-1V70.3l.6-.9,1.5-.6,1.1.1,1.1-.1,1.5.1,2.1.6L86,70.6,87.3,72l.6,1,.7.8.6,3,.2,1.6-.3,2.5-.3,1L88,83.7l-.7.9ZM73.3,68.8l.2-.4h.2l-.1.4v.4l-.2-.1Zm-5.2,0,.2-.6,1.4-.1-.2.4-.8.2h.4l.7.1-.2.5.6.5-.5.3-.2.3.6.4.3.7-.4.7.2,1.2-.7.4.2-.5-.4-1.1-.4.4V72h.7l-.4-.6v-.7l-.6.2.2-.8-.3-.1.3-.3.3-.3h-.7Zm25-.3-.5-.1-.4-.3L92,68h.3Zm-7-.8.5.2.2.2.1.2-.7.6-1-.1v-.4l.4-.2.7.4.4-.4Zm5.9.4h-.2l-.4.4-.1-.6.5-.1Zm-20.1.1-.7.4.3-.7.7-.4Zm-2.2-.1-.1-.5.2.2Zm12.4-.4.2-.4h.5l-.4.4-.5-.2.1-.2Zm7.4-1,.4.2v.3h-.5Zm-1.5.5v-.6l.5.1-.2.6Zm3.2-.8.4.3-.3.5L91,67Zm-6,.3-.2.2-.5-.2.2-.4Zm-9.8.3-.8-.3-.2-.4.2-.2H75l.7.4Zm13.3-.8-.3-.2.3.1L89,66h.3Zm-8.5-.4v1.1l-.1-.5Zm-6,1.3-.3.4-.6.2L72,66.4l-.3-.5.9.5H73l.2.7.3.2v-.5l.4.1ZM76,66l.4-.2-.1.5-.4.1Zm10.5.6v.3L86,67l-.6-.8v-.7l.5.5Zm-2.9-1,.8-.2.7.4h-.7l-.6.7-.5.1-.3-.4Zm7.1-.3.2.2-.2.1-.3-.2ZM68.4,66.6l-.1-.4v-.8l.5-.3.6.3.7.6.1.9.2-.4.4.1v.7l-.2.3-.3.2v-.3l-.1-.4-.3-.1-.3.3-.3-.3-.3-.2-.3.1.4.4v.3l-.2-.2-.1-.3-.3-.1-.2-.1Zm13.2-1.9-.1.3-.2.3-.4-.1.1-.6Zm3.7-.5.5-.2-.2.6-.6.1Zm-17,.3.3-.6.4-.2-.2.4.4.3.6.2-.2.5-.5-.3-.2-.3-.1.5-.6-.1Zm13.5-.2-.4-.2-.1-.5.5.1Zm5.3-.4.2-.5.2-.1.1.5h.3l.5-.3.4.5-.5-.2-.4.4.4.1v.4l.2.4.8-.2-.3.6-1-.3h-.2v.4l-.3.2-.3-.2.5-.6-.6-.3-.7-.3-.1-.2Zm-8.9-1.1.5.3.1.5-.6-.3Zm-1.3.2h.2l.4-.3h.3l-.2.3-.3.3h-.5Zm4.1-.7-.1.3.6.2-.2.3-.7-.5-.3-.4Zm-11.3-.4.6,1h.2l-.2-.3.2-.3.4.2V63l-.2.8.5.3.4-.3.5-.2-.3-.5h-.6l.2-.5h.7l.7-.3-.2.4v1l-1,.8-.4.2.3.3-.6.1-.3-1.2-.4-.7-.4.2-.2.6h0l-.3-.3-.2-.3-.2-1Zm5.6.5-.5-.4.2-.4h.5v.5l.4.2.1.3Zm3.4-.9.5.3.3.4-.3-.1-.1.3-.4.1Zm-5.6,0,.5.5-.4.5v-.4l-.2-.5ZM98.2,76.8l-.8-2.9-.1-1.1-.3-.9-.8-2L95,68.1l-.4-.9-1.3-1.6-.9-.6L91,63.6l-1.9-1.2-1-.5L85.3,61l-2.1-.4H76l-1-.1-3.3.1-1-.1h-2l-1,.5-.8,1v2.1l.1,1v1l.1,1.9-.2,1.1.2,1-.2,1,.2,4.1-.2,1.9.2,2.2-.2,1,.2,1.1-.2,2,.1,4.1-.1,1,.2,4.1L67,94.5l.6,1.1.8.5h1.2l1.1.2h1l1.1-.2L82,96l3.3-.5,3-.9,4.3-2.9,2-2.3,1.7-2.5.2-1,.5-1,.2-1,.4-.9.2-1.1.2-1.1v-.9Z"/><g class="cls-4"><polyline class="cls-5" points="-20 58 -19.7 -29 652.3 -29 665 44"/></g><path class="cls-2" d="M411,45c-17,0-425.7,7-425.7,7l2.3-82.2H651.4V42.1l-53.3,1.7Z"/><path class="cls-2" d="M240.3,140a.85.85,0,0,1,1.1.7,1.72,1.72,0,0,1-1.3,1.8c-.1,0-.2.1-.3.1v-2.4l.5-.2m5.2,9.4a59.25,59.25,0,0,1-3.5-4.8,4.11,4.11,0,0,0,2.2-4.1c-.1-2.2-1.6-3.4-4-3.1h-.4v-.3l-3,.5c.1,4.2.2,8.6,0,12.7,1-.2,2-.3,3-.4v-3.8c.8,1.2,1.6,2.4,2.4,3.8ZM231,147.8c-1.1,0-1.3-1.7-1.3-3.5,0-2.3.4-4.3,1.6-4.3,1,0,1.3,1.5,1.3,3.4s-.3,4.4-1.6,4.4m-.1,2.8c2.6,0,4.2-2.1,4.5-6.2.2-3.4-.6-7.3-4.1-7.3-3,0-4.6,2.9-4.6,7,0,3.6,1.2,6.5,4.2,6.5m-5-10.7-.2-2.7a2,2,0,0,1-.8.1v-.1c-.3,0-2.8.2-3.1.2v.1l-1.3.1.2,2.7c.3-.1.8-.1,1.3-.2a45,45,0,0,1,.1,5.1c-.1,1.4,0,2.4-.6,2.4s-.7-1.7-.6-2.4l-2.7.3c0,1.9.5,4.9,3.5,4.8,2.3-.1,3-1.6,3.2-3.8.1-1.3,0-4.3,0-6.6h1m-8.6,6.4a5.24,5.24,0,0,1-1.8,1c-1,.4-1.6.1-1.8-1.1v-1.9l2.5-.4c0-.9-.1-1.8-.1-2.6-.8.2-1.5.3-2.3.5,0-.6.1-1.1.1-1.6a19.83,19.83,0,0,1,3.5-.3v-2.8a26.94,26.94,0,0,1-3.2.5v-.2l-3.1.2c.1.8-.6,9.4.1,11.2s2.8,1.8,3.5,1.7a7.26,7.26,0,0,0,2.8-1Zm-7.1,3.2c-.8-4.1-1.5-7.8-2-11.9H208l-2.7-.1q-.3,2.7-.9,5.7c-.3-1.7-.6-3.4-.9-5.3h0l-2.6-.4a7,7,0,0,1-.3,1.4h0v.1c-.5,2.5-1.5,7.3-2.3,10.4l2.8.8c.2-1.7.5-3.6.9-5.5.3,1.6.6,3.2.9,5h2.7c0-.1.4-2.3.9-4.9.3,1.8.6,3.6.8,5.4Zm-17.5.7.3-.1h.2l.3-.1h.4l.1-.2.2-.2h.1l.2-.2.2-.1v-.2l.1-.2.2-.2-.1-.1.2-.1v-.2l.1-.2-.1-.2.2-.3v-.2l-.1-.3v-.2l-.1-.1v-.5l-.1-.2h0l-.1-.2-.1-.3-.3-.1-.2-.2-.2-.2v-.2h-.4v-.2h-.3l-.3-.2-.1.1-.4-.1-.1-.1-.1-.2-.2-.1-.2-.1.1-.1.1-.4v-.2l.1-.1V143l.2-.2h0l.3-.1.5-.1.1.1.2.1v.1l.2.1.4.1v-.3l.2-.1.1-.2v-.1l.3-.2-.1-.2-.2-.2h-.2l-.3-.1h-.3v-.1l-.3-.1-.2.1-.5-.1h-.1l-.2.1-.2.1-.2.1h0l-.4.1-.2.2-.1.1v.2l-.2.1v.3l-.1.2h0v.4l-.2.4.1.3.1.2.1.2-.1.1.1.2-.1.1.1.2.2.2.1.3.3.2.1.2h.2l.1.2h.3l.1.1.2-.1.3.2h0l.4.3h.1l.1.2.1.1.1.1v.3l.1.5-.1.2-.1.2.1.2-.1.1-.1.2-.2.2-.2.1v.2H193l-.6-.1-.1-.1-.1-.1-.2-.1h0l.1-.2-.3-.1v-.1l-.1-.2-.3-.1-.2.2h0l-.1.3h-.3l-.1.1v.3l.3.2-.1.1.3.2v.1l.2.2v.1l.3.2.1.1.2.1h.4l.2.1Zm-5-1.4-.7.2-.1-.1-.2-.1-.1-.1-.1-.2h.1l-.2-.2V148l-.1-.2.1-.2-.2-.2.2-.1-.1-.4-.1-.1-.1-.2-.1-.3.1-.1.1-.3-.1-.3.1-.2-.2-.1v-.4l.2-.3-.1-.1.1-.3h0l.1-.3.1-.2v-.1l.2-.3.2-.1V143h1l.2.2v.2l.2.1.1.3v.4l.1.2.2.2v.1l-.1.3.1.2-.1.2.2.3h0l-.1.4.1.3-.2.2v.3l.1.1-.1.2v.2l-.1.2-.2.2-.1.2.1.1-.1.3-.2.2v.2Zm-.5,1.3h.4l.1-.1.1.1h.2l.2-.2.2-.1h.2l-.1-.2.3-.1.1-.2.2-.2V149l.1-.2.3-.2-.1-.1.2-.1.1-.3v-.7l.1-.2h.1l-.1-.3.1-.2v-.1l-.2-.3v-.1l.1-.4-.1-.4.1-.1-.2-.2V145l.1-.2v-.2l-.1-.1.2-.2-.1-.2v-.2l-.2-.2-.1-.2-.1-.2v-.2l.1-.1-.3-.1v-.3H189v-.3l-.4-.2-.1-.1h-.2l-.4-.2-.1-.1h-.1l-.1.1h-.5l-.1-.1-.2.1h-.3l-.1.2h0l-.2.1-.2.1-.1.1-.2.2v.2l-.2.1-.2.2h.1l-.2.2v.3l-.1.2-.1.2-.1.1.1.2-.2.1.1.3v.1l-.1.1v.1l-.1.2v.2l-.1.2.1.2-.1.4v.4h.1l-.1.3v.2l.2.1v.3l-.2.2.2.1v.2l-.1.1.2.2.1.2v.2l.2.2h-.1l.2.2v.2l.2.2h.1l.1.2.2.2h.2l.4.1.1.1h0Zm-3.6-6.1-.2-.4.1-.3V143l-.1-.3v-.2l-.1-.2-.2-.2.1-.1-.3-.2v-.1l-.2-.2-.2-.1-.2-.1-.2-.1-.1-.1h-.5l-.4.2h-.3l-.1.2-.2.1v.3h-.2l-.2-.1v-.2l-.3-.2h-.1l-.1-.1h-.7l-.4.2-.2-.1v.1l-.1.3-.4-.2.2-.1v-.2l-.3-.1h-.3l-.1-.1-.2.1h-.2v.1l-.2.2-.3.1.1.2.1.3h-.1v.4l.1.3.1.1-.1.2v.3h0l.2.2-.1.3h-.1v.2l.2.3-.2.2v.4l.1.1-.2.3.2.1v.1l-.1.2v.6l.1.2.1.1-.1.3v.1l.1.2-.1.2h-.1l.2.2v.2l-.2.2v.2l.2.2v.1l-.1.2.1.2-.2.3.1.2-.1.3h.6l.1.1h.2l.3-.1h0l.4-.3v-.1l-.2-.3.1-.2v-.2l-.2-.2h.1l.1-.3V148h0l-.2-.2.1-.2-.1-.2-.1-.1.2-.3-.1-.2v-.2l.1-.1v-.6l-.1-.1v-.3h.1l-.1-.2v-.4l.1-.2-.1-.3v-.5l.3.1-.2-.3.2-.3.1-.2.1-.2.1-.1.1-.1h.4l.1.1.2.2h.2l.2.2-.1.1.1.2-.1.2.1.3-.1.2.2.4-.1.2-.1.2.1.1.1.1-.2.2.2.2v.3l-.2.1.2.2-.2.2.1.3v.2l.1.2-.1.1v.3l-.1.1.1.2-.1.3.1.1.1.2-.2.1.1.1-.1.3v.2l.2.2v.5l.4-.1v.1l.3.1.3-.1v-.1l.2-.2.2-.1v-.3l-.1-.1.1-.2v-.2l-.2-.3v-.2l.1-.1V148l.1-.2v-.2l-.2-.1v-.7l.1-.3v-.1l-.1-.1.2-.3-.2-.2.2-.2-.1-.1v-.3l.1-.1-.1-.3.1-.1-.1-.2v-.2l.1-.2-.1-.2.1-.3.2-.1v-.3h.1l.3-.2.1-.2.3-.2.1.1.2.2.1.1.1.3v.2h.1v.3l.2.1-.1.5.1.1v.6l-.1.2.1.2v.3h0l.1.2v.2l-.1.3v.3l-.1.1.2.1-.2.2.2.1-.1.4h-.1v.3l.1.2v.2l.2.2-.1.2.1.2h-.1v.3l.1.1-.1.3.2.2h.1l.4-.1h.1l.3-.2.2-.1.2-.1-.1-.3.1-.1v-.3h-.2l.1-.2.1-.3-.1-.1V148l.2-.2-.1-.2.1-.1v-.2l-.1-.2.1-.3-.2-.1.1-.3v-.2l.1-.2.1-.2-.1-.3v-.2l-.2-.2.1-.1v-.5l-.1-.1v-.2Zm-10.9-1.1.3-.2.2.1.2.2.1.1.1.2.2.1v.3l.2.2.1.2-.1.1v.2l.1.2-.1.2.1.1-.1.3h-.3l-.2.1-.1-.1-.1.1-.1-.1-.4.2v-.1l-.5.1-.2-.1v.1l-.2-.3-.1-.1-.1-.2.1-.2-.1-.2.2-.1.1-.2v-.2l-.1-.2.2-.2.1-.2v-.2l.1-.1.4-.1Zm.3-1.3h-.4l-.1.1-.3.1-.2.1-.1.1-.1.1-.2.1-.2.2h0l-.2.3-.1.1-.1.2-.1.1-.1.2-.1.2.1.1-.2.2.1.2v.2l-.1.2-.1.1.1.2-.1.1-.1.3h.1l-.2.3v.5l.1.2v.5l.1.3-.1.1.1.2v.3l.1.2.1.2.1.2-.1.2.1.2h.1l.1.2.1.2.1.2.1.1.1.1.3.2-.1.2.2.1h.2l.2.2.3.1h.3l.2-.1.2.1.3-.1h.5l.2-.1.1-.1.2-.1h.2l.1-.1.1-.2.1-.1.3-.2.1-.2-.1-.2h.2l-.2-.3-.2-.2.1-.1-.2-.1h-.3l-.1-.2H174l.2.1-.3.2-.1.2-.1.2.1.1-.3.2h-.2v.2h-.2l-.4.1-.1-.2h-.2v-.3h-.1l-.1-.2-.2-.3-.1-.1.2-.1-.1-.2v-.3h0l-.2-.3.2-.2v-.1l.2-.1h.5l.3-.1h.4l.2-.1v.1l.3-.2h.6l.2-.2.2.1.1-.1.4-.1.1-.3h0l-.1-.3.1-.3h-.2V145l-.1-.3-.1-.1.1-.2v-.2l-.1-.1-.2-.2.1-.2-.1-.3-.1-.1-.1-.4v-.1l-.2-.2.1-.1-.3-.2-.1-.2-.1-.1.1-.1-.2-.1-.3-.2v-.1h-.2l-.1-.1-.2.1Zm-5.7,8.5.4.1h.4l.3-.1h.1l.1-.2.2-.1h.1l.2-.1.1-.2.2-.2.1-.1.1-.3.2-.2v-.8h-.2l-.4-.1v-.2l-.3-.2-.1.1-.1.1.1.3v.1l-.1.2-.1.3-.1.1-.2.2-.2.2H168l-.3.1h-.3V149l-.3-.2-.1-.1-.1-.1v-.3l-.3-.2h-.1l.1-.2-.2-.2-.1-.1.1-.1-.1-.3h-.1v-.3l-.1-.2.1-.1-.1-.2V146l.2-.3v-.1l-.1-.3.1-.2-.1-.2.2-.1.1-.3v-.1l.1-.3.1-.1-.1-.3.3-.1v-.1l.2-.1.2-.1.1-.2.1-.1h.4l.1.2.2.1h.1l.2.2.3.1h.2l.1-.2.2-.1h.1l.1-.2.1-.2-.1-.2-.3-.2-.1-.2H169l-.1-.1-.4-.2h-.2l-.1-.2h-.5l-.4.1-.3-.1-.2.1-.1.1h-.5l-.2.1h0l-.1.2-.2.2-.2.2-.2.2h0l-.1.3-.1.1-.1.1v.3l-.2.2.1.2v.2l-.2.2-.1.1v.2l-.1.2.1.3v.2l-.1.1v.2l.2.3-.1.2-.1.3.2.1v.4l.1.1-.1.2.1.2-.1.2v.3l.2.2h.2v.3l.1.1.2.2v.2l.3.2.2.1.2.1v.2h.3l.1.2.2-.1h0Zm-5.6-1.2H161v-.1l-.3-.3v-.1l-.2-.3h.1l-.1-.3-.2-.1v-.2l-.1-.2.1-.2-.1-.2-.1-.2.1-.3.1-.2V146l-.1-.4.1-.2-.1-.2h0l.1-.2-.1-.3.1-.2.1-.2-.1-.2.1-.2.2-.1v-.4l.1-.2.2-.1h.2l.3-.2v.1l.4.1h.4l.1.1v.1l.3.4-.2.2v.5l.2.3-.1.1v1l-.1.2.1.3-.2.1v.4l.1.1-.1.2.2.2v.4l-.1.2-.1.4-.2.1-.2.2h-.3Zm2.4.9.1-.3-.2-.2v-.1l-.2-.2.1-.3-.2-.1v-.2l.1-.3-.2-.5.1-.1v-.1l-.1-.2V147l-.1-.2v-.2l.1-.2.1-.3h-.2l.2-.2-.2-.2.1-.2.1-.2-.2-.2V145l-.1-.2.2-.2-.2-.2v-.2l.1-.2-.2-.3.2-.2v-.1l-.1-.3V143l-.1-.1.1-.1v-.4l.1-.2-.2-.2.2-.2-.2-.3-.4.1v-.1l-.4.1-.1-.1h-.2l-.2.2v.2l-.1.1-.2-.2h-.5l-.1-.1h-.7l-.1.2h-.4v.2l-.2.1-.1.1-.1.2h-.3l.1.3-.3.1.1.1-.2.2-.1.2.1.1-.2.3-.1.2h0l.1.2-.1.2-.1.3.1.1-.1.2.1.2h-.2l.1.2.1.3.1.2-.1.2-.1.3.2.2v.1l-.1.3.2.1v.2l-.1.2.1.2.1.2v.3l.1.1.1.2.1.2.2.2-.1.2h.1l.3.3v.1l.3.1h.2l.3.1.2.1.2.1h.4l.2.1.1-.2h.2l.1-.1.1-.2.3-.2.3.1-.1.3.4.1.2-.2v.1l.4-.1.6.2Zm-8.3-8.5h-.5v.1H155v.2h-.2l-.1.2h-.3l-.1-.3.1-.1-.1-.3-.1-.2.2-.2v-.4l-.2-.1.2-.3-.1-.2-.1-.3.2-.1V139l-.1-.1v-.5l-.1-.1v-.6l.1-.1-.1-.2V137H154l-.2-.1v.1h-.4l-.2.2-.2.1v.3l.1.3h0v.3l-.1.1v.6l.1.1.2.3v.2l-.1.1.1.2-.1.3v.1l.2.3-.1.1v.2l.2.3-.2.1.2.1-.2.3.1.1-.1.4v.1l.1.2-.1.2.1.3-.1.1.1.3v.5l.1.2-.2.1.1.1v.5l.1.2-.1.1-.1.3.1.3.2.2-.1.2.1.2-.1.1-.1.2.2.1v.4l-.1.2v.2l-.1.1.2.3-.1.2.1.1v.5l-.1.2v.1l.2.3-.1.2-.1.1.1.2-.1.3v.2l.1.2h.4l.1-.2.2.1.2-.1.1-.1h.2l.1-.1.2-.2-.1-.2-.1-.3-.1-.1.1-.1.1-.3-.1-.1.1-.3-.1-.1.1-.3-.1-.2-.2-.2v-.3l.1-.1-.1-.2.1-.2v-.3l-.2-.2V146l.1-.2-.1-.2v-.4l-.1-.3.1-.2h0l.1-.3-.1-.1-.1-.1.2-.2v-.5h.2l.1-.2h.1V143l.3-.1.2-.1.2-.1h.2l.1.2h.1l.1.2.1.3v.3l.1.2.2.2-.1.1.1.1-.1.2v.3l.1.1-.2.2.3.2-.1.2v.6l-.1.1.1.2v.2l-.1.1-.1.2.2.3-.1.2v.2l.1.1-.1.1-.1.3v.6l.1.1-.1.2v.3l.1.1v.2l.3.3.1-.1.4-.1h.2l.1-.2h0l.2-.1v-.1l.1-.2-.1-.3-.2-.1.1-.2V148h-.1l.1-.2.1-.2v-.5l.1-.2-.1-.2-.2-.2.1-.2v-.2l-.1-.2v-.2l.2-.1-.1-.3-.2-.1v-.3h.1l.1-.3-.1-.2-.1-.3.1-.2.3.1.1-.3-.1-.1-.1-.2.1-.3-.3-.2.1-.2-.2-.1.1-.2-.2-.1-.1-.3-.2-.2-.1-.1-.1-.2-.2-.1v-.1h-1Zm-9.2,7.5-.6.2v-.1l-.2-.1-.1-.1-.1-.2h.1l-.2-.2V148l-.1-.2.1-.2-.2-.2.2-.1-.1-.4-.1-.1-.1-.2-.1-.3.1-.1.1-.3v-.3l.1-.2-.2-.1V145l.3-.3-.1-.1.1-.3h0l.1-.3.1-.2-.1-.1.2-.3.2-.1V143h1l.2.2v.2l.2.1v.9l.2.2v.1l-.1.3.1.2-.2.2.2.3h0l-.1.4.1.3-.2.2v.3l.1.1-.1.2v.2l-.1.2-.2.2-.1.2.1.1-.1.3-.2.2v.2Zm-.4,1.3h.4l.1-.1v.1h.2l.2-.2.2-.1h.2v-.2l.3-.1v-.2l.2-.2-.1-.1.1-.2.3-.2-.1-.1.2-.1.1-.3.1-.2v-.6l.1-.2h.1l-.1-.3.1-.2v-.1l-.2-.3v-.1l.1-.4-.1-.3.1-.1-.2-.2V145l.1-.2v-.2l-.1-.1.2-.2-.1-.2v-.2l-.2-.2-.1-.2-.1-.2v-.2l.1-.1-.3-.1v-.3h-.1l.1-.3-.3-.1-.1-.1h-.2l-.4-.2-.1-.1h0l-.1.1h-.5l-.1-.1-.2.1h-.3l-.1.2h0l-.2.1-.2.1-.2.1-.2.2v.2l-.2.1-.2.2h.1l-.2.2v.3l-.1.2-.1.2-.1.1.1.2-.2.1.1.3v.1l-.1.1v.1l-.1.2v.2l-.1.2.1.2-.1.4v.4h.1l-.1.3v.2l.2.1v.3l-.2.2.2.1v.3l.3.2.1.2v.2l.2.2h-.1l.2.2v.2l.2.2h.1l.1.2.2.2h.2l.3.1.1.1h.4Zm-5.1-.2.1.2.4-.1h.1l.3-.2h0l.2.1.2-.3.1-.3-.1-.2-.1-.2v.1l.2-.1-.1-.2.1-.3-.1-.2-.1-.2.1-.1.1-.4v-.2l-.1-.1V147h0l-.2-.3v-.2h.1v-.3l-.1-.2v-.1l.1-.3h-.1v-.3l.2-.1-.1-.2.1-.3-.2-.2.1-.3h.1l-.1-.4h0l-.1-.2.1-.3v-.2l.1-.2V142l-.1-.2v-.1l.1-.2v-.2l.1-.2v-.8l.1-.3v-.2l-.1-.4V139l.1-.2.1-.1v-.4l-.1-.1.1-.3v-.3h-.2l.1-.2.1-.2-.3-.2h-.2l-.3.1h-.1l-.2-.1-.1.1-.3.1-.1.1.1.2-.2.1.2.3-.1.1.1.4v.4l.1.1-.2.2.2.3-.2.1.1.2.1.2-.2.2v.1l.1.3.2.1-.4.4.1.1v1l.2.2-.1.1-.1.2.2.2v.2l-.2.2.2.3v.1l.1.2-.2.3v.2l.1.1-.1.2.1.2-.1.2v.2l.2.2-.2.1.1.3.1.2v.4l-.1.2v.4l.1.2-.1.3v.2l.1.1-.1.2.1.2-.1.2v.2l.1.2-.2.2v.2l.1.3v.4l.1.1Zm-8.2.7A4.36,4.36,0,0,0,137,146a4.22,4.22,0,0,0-2-3.4c-1.3-.8-2.6-.9-2.6-1.9a1,1,0,0,1,1.1-1h0c.5,0,1,.6,1.5,1,.4-.9.8-1.9,1.2-2.8a5.61,5.61,0,0,0-3.1-.9,3.64,3.64,0,0,0-3.7,3.4,3,3,0,0,0,1,2.5,9.46,9.46,0,0,0,2.4,1.4,2,2,0,0,1,1.2,1.9c0,.9-.5,1.5-1.1,1.5s-1.2-1-1.6-1.7c-.6.6-1.8,1.8-2.2,2.1a4.59,4.59,0,0,0,3.8,2.5m-9-2.9c-1.1,0-1.3-1.7-1.3-3.5,0-2.3.4-4.3,1.6-4.3,1,0,1.3,1.5,1.3,3.4s-.3,4.4-1.6,4.4m-.1,2.8c2.6,0,4.2-2.1,4.5-6.2.2-3.4-.6-7.3-4.1-7.3-3,0-4.6,2.9-4.6,7,0,3.6,1.2,6.5,4.2,6.5m-4.9-10.3-.2-3.1a13.79,13.79,0,0,1-2.2.2V137l-3,.3v.1l-2.3.1v3.1c.7-.1,1.5-.1,2.3-.2,0,3.2-.1,6.4-.2,9.6l3.2-.2c-.1-3.1-.2-6.3-.2-9.6h2.6m-8.6,9.2c0-4.1-.2-8.2-.1-12.3l-2.9.4c.2,2.1.3,4.3.4,6.4a51.71,51.71,0,0,1-2.8-6.4H102c.1,4.1.2,8.3.1,12.3l3,.3c-.1-2-.1-4.2-.2-6.3.9,1.9,1.8,3.9,2.7,5.8v.1Zm-13.7.8c3.3-.2,3.6-3.4,3.8-5.2a26.38,26.38,0,0,0-.6-7.9l-2.9.5a33.35,33.35,0,0,1,.4,6.3c0,2-.3,3.5-.9,3.5s-.9-1.7-1-3.7a41.47,41.47,0,0,1,.2-6.1l-3.1-.3c-.1,2.5-.1,4.9,0,7.4.4,3.3,1.3,5.6,4.1,5.5m-5.2-10.3-.2-2.7a2,2,0,0,1-.8.1v-.1c-.3,0-2.8.2-3.1.2v.1l-1.3.1.2,2.7c.3-.1.8-.1,1.3-.2a45,45,0,0,1,.1,5.1c0,1.4,0,2.4-.6,2.4s-.7-1.7-.6-2.4l-2.7.3c0,1.9.5,4.9,3.5,4.8,2.3-.1,3-1.7,3.2-3.8.1-1.3,0-4.3,0-6.6h1"/></g></svg>