<svg id="Capa_1" data-name="Capa 1" xmlns="http://www.w3.org/2000/svg" viewBox="0 0 637.8 822"><defs><style>.cls-1{fill:#f39208;}.cls-2{fill:#feebd4;}.cls-3{fill:#fff;}.cls-4,.cls-5,.cls-6{fill:none;}.cls-4{stroke:#010101;stroke-width:0.5px;}.cls-5{stroke:#9e9d9c;stroke-dasharray:2.88 1.88;}</style></defs><rect class="cls-1" x="-14.2" y="-14.2" width="666.1" height="850.39"/><path class="cls-2" d="M40.3,45.2c15.7-1.5,312.9,0,344.2,0s232.2-9.5,234.6,7.2c5.2,36.4,5.2,588.3,5.2,649.1,0,43.8-2.1,98.9-5.2,98.9s-518.3,19.5-583,4.9C30.9,735.5,33,476,33,340.6,33,298,32,86.4,40.3,45.2"/><path class="cls-3" d="M22.2,304.2a7.6,7.6,0,1,0-7.5-7.6,7.6,7.6,0,0,0,7.5,7.6"/><path class="cls-4" d="M22.2,304.2a7.6,7.6,0,1,0-7.5-7.6A7.6,7.6,0,0,0,22.2,304.2Z"/><path class="cls-3" d="M22.2,532.9a7.5,7.5,0,1,0-7.5-7.5,7.5,7.5,0,0,0,7.5,7.5"/><path class="cls-4" d="M22.2,532.9a7.5,7.5,0,1,0-7.5-7.5A7.5,7.5,0,0,0,22.2,532.9Z"/><line class="cls-5" x1="17.3" y1="411" x2="-14.2" y2="411"/><rect class="cls-6" width="637.8" height="822.05"/></svg>