<?xml version="1.0" encoding="utf-8"?>
<!-- Generator: Adobe Illustrator 21.1.0, SVG Export Plug-In . SVG Version: 6.00 Build 0)  -->
<svg version="1.1" id="Capa_1" xmlns="http://www.w3.org/2000/svg" xmlns:xlink="http://www.w3.org/1999/xlink" x="0px" y="0px"
	 viewBox="0 0 14.2 54.2" style="enable-background:new 0 0 14.2 54.2;" xml:space="preserve">
<style type="text/css">
	.st0{clip-path:url(#SVGID_2_);fill:#FFFFFF;}
</style>
<g>
	<defs>
		<rect id="SVGID_1_" width="14.2" height="54.2"/>
	</defs>
	<clipPath id="SVGID_2_">
		<use xlink:href="#SVGID_1_"  style="overflow:visible;"/>
	</clipPath>
	<path class="st0" d="M3.9,0.3c6.9,5.8,8.3,17.4,7.9,25.9C11.4,34.9,7.4,41.5,3.6,49c-0.2,0.3,0.3,0.6,0.5,0.4
		c8.4-5.2,10.5-17.2,10.1-26.3C13.8,16.3,12.3,2.1,4,0C3.9,0,3.8,0.2,3.9,0.3"/>
	<path class="st0" d="M1.9,39.1c0.2,2.4,0.4,4.6-0.2,7c-0.5,2.3-1.2,4.5-1.7,6.8c-0.2,0.9,0.9,1.8,1.7,1.3c1.1-0.6,2.2-1.2,3.2-1.9
		c1.5-0.9,3-2.3,4.8-2.6c3.6-0.5,0.1-5.6-1.6-2.9c-1.4,2.3-5.1,3.7-7.4,5c0.6,0.4,1.1,0.9,1.7,1.3c0.8-3.6,3.8-11.7-0.3-14.2
		C2.1,38.9,1.9,38.9,1.9,39.1"/>
</g>
</svg>
