<?xml version="1.0" encoding="utf-8"?>
<!-- Generator: Adobe Illustrator 21.1.0, SVG Export Plug-In . SVG Version: 6.00 Build 0)  -->
<svg version="1.1" id="Capa_1" xmlns="http://www.w3.org/2000/svg" xmlns:xlink="http://www.w3.org/1999/xlink" x="0px" y="0px"
	 viewBox="0 0 52.95 35.571" style="enable-background:new 0 0 52.95 35.571;" xml:space="preserve">
<style type="text/css">
	.st0{clip-path:url(#SVGID_2_);}
	.st1{clip-path:url(#SVGID_4_);fill:#005CA8;}
	.st2{filter:url(#Adobe_OpacityMaskFilter);}
	.st3{clip-path:url(#SVGID_4_);}
	.st4{clip-path:url(#SVGID_4_);mask:url(#SVGID_5_);}
	.st5{opacity:0.2;clip-path:url(#SVGID_9_);fill:#1D1D1B;}
	.st6{clip-path:url(#SVGID_2_);fill:#FFFFFF;}
	.st7{clip-path:url(#SVGID_11_);fill:none;stroke:#005CA8;stroke-width:1.777;stroke-linecap:round;}
	.st8{clip-path:url(#SVGID_2_);fill:none;stroke:#005CA8;stroke-width:1.185;stroke-linecap:round;}
	.st9{clip-path:url(#SVGID_13_);fill:#005CA8;}
	.st10{clip-path:url(#SVGID_15_);fill:#FFFFFF;}
</style>
<g>
	<defs>
		<rect id="SVGID_1_" x="-3.125" y="-1.967" width="59" height="38.693"/>
	</defs>
	<clipPath id="SVGID_2_">
		<use xlink:href="#SVGID_1_"  style="overflow:visible;"/>
	</clipPath>
	<g class="st0">
		<defs>
			<rect id="SVGID_3_" x="-3.125" y="-1.967" width="59" height="38.693"/>
		</defs>
		<clipPath id="SVGID_4_">
			<use xlink:href="#SVGID_3_"  style="overflow:visible;"/>
		</clipPath>
		<path class="st1" d="M25.238,12.448c0,0-1.805,0-1.805,1.805v14.401c0,0,0,1.805,1.805,1.805h25.907c0,0,1.805,0,1.805-1.805
			V14.253c0,0,0-1.805-1.805-1.805H25.238z"/>
		<defs>
			<filter id="Adobe_OpacityMaskFilter" filterUnits="userSpaceOnUse" x="3.001" y="0" width="25.92" height="33.36">
				<feColorMatrix  type="matrix" values="1 0 0 0 0  0 1 0 0 0  0 0 1 0 0  0 0 0 1 0"/>
			</filter>
		</defs>
		<mask maskUnits="userSpaceOnUse" x="3.001" y="0" width="25.92" height="33.36" id="SVGID_5_">
			<g class="st2">
				<g>
					<defs>
						<rect id="SVGID_6_" x="-5.879" y="-6.96" width="44.16" height="41.28"/>
					</defs>
					<clipPath id="SVGID_7_" class="st3">
						<use xlink:href="#SVGID_6_"  style="overflow:visible;"/>
					</clipPath>
					<g transform="matrix(1 0 0 1 0 0)" style="clip-path:url(#SVGID_7_);">
						
							<image style="overflow:visible;" width="184" height="172" xlink:href="BDCAD99FD466E7F0.jpg"  transform="matrix(0.24 0 0 0.24 -5.8792 -6.9602)">
						</image>
					</g>
				</g>
			</g>
		</mask>
		<g class="st4">
			<g>
				<defs>
					<rect id="SVGID_8_" x="3.001" y="0" width="25.92" height="33.36"/>
				</defs>
				<clipPath id="SVGID_9_">
					<use xlink:href="#SVGID_8_"  style="overflow:visible;"/>
				</clipPath>
				<rect x="3.001" class="st5" width="25.92" height="33.36"/>
			</g>
		</g>
	</g>
	<rect x="1.486" y="1.674" class="st6" width="25.605" height="33.132"/>
	<g class="st0">
		<defs>
			<rect id="SVGID_10_" x="-3.125" y="-1.967" width="59" height="38.693"/>
		</defs>
		<clipPath id="SVGID_11_">
			<use xlink:href="#SVGID_10_"  style="overflow:visible;"/>
		</clipPath>
		<path class="st7" d="M0.942,1.881v29.778c0,0,0.45,3.058,1.609,3.058h25.42c-1.223,0-1.609-3.058-1.609-3.058V1.881H0.942z"/>
	</g>
	<rect x="4.645" y="11.624" class="st8" width="7.776" height="7.696"/>
	<g class="st0">
		<defs>
			<rect id="SVGID_12_" x="-3.125" y="-1.967" width="59" height="38.693"/>
		</defs>
		<clipPath id="SVGID_13_">
			<use xlink:href="#SVGID_12_"  style="overflow:visible;"/>
		</clipPath>
		<path class="st9" d="M21.576,6.979l0.462-1.552l0.47,1.552H21.576z M22.976,8.565h0.836l-1.313-3.957h-0.882l-1.296,3.957h0.794
			l0.275-0.93h1.307L22.976,8.565z M20.502,4.608h-2.884v0.689h1.054v3.268h0.775V5.297h1.055V4.608z M14.946,7.529l-0.341,0.548
			c0.376,0.324,0.845,0.544,1.393,0.544c0.744,0,1.344-0.399,1.344-1.215c0-1.436-1.867-0.919-1.867-1.709
			c0-0.29,0.25-0.458,0.588-0.458c0.285,0,0.62,0.118,0.891,0.309l0.335-0.532c-0.343-0.287-0.811-0.465-1.277-0.465
			c-0.716,0-1.299,0.415-1.299,1.204c0,1.397,1.849,0.917,1.849,1.709c0,0.299-0.26,0.452-0.607,0.452
			C15.612,7.916,15.257,7.766,14.946,7.529 M13.272,8.565h0.777V4.608h-0.777V8.565z M10.439,4.608H9.61l1.265,3.957h0.667
			l1.27-3.957h-0.789l-0.795,2.74L10.439,4.608z M6.941,8.565h2.414V7.879H7.709V6.912h1.395V6.228H7.709V5.294h1.607V4.608H6.941
			V8.565z M4.356,6.443V5.287h0.495c0.386,0,0.635,0.196,0.635,0.581c0,0.368-0.227,0.575-0.635,0.575H4.356z M3.593,8.565h0.763
			V7.124h0.425l0.751,1.441h0.9L5.551,7.003c0.446-0.195,0.71-0.613,0.71-1.146c0-0.729-0.496-1.249-1.333-1.249H3.593V8.565z"/>
	</g>
	<line class="st8" x1="14.726" y1="12.914" x2="22.744" y2="12.914"/>
	<line class="st8" x1="14.726" y1="16.046" x2="22.744" y2="16.046"/>
	<line class="st8" x1="14.726" y1="19.32" x2="22.744" y2="19.32"/>
	<line class="st8" x1="4.313" y1="23.731" x2="23.623" y2="23.731"/>
	<line class="st8" x1="4.313" y1="26.862" x2="23.623" y2="26.862"/>
	<line class="st8" x1="4.313" y1="30.136" x2="23.623" y2="30.136"/>
	<g class="st0">
		<defs>
			<rect id="SVGID_14_" x="-3.125" y="-1.967" width="59" height="38.693"/>
		</defs>
		<clipPath id="SVGID_15_">
			<use xlink:href="#SVGID_14_"  style="overflow:visible;"/>
		</clipPath>
		<path class="st10" d="M45.172,27.559c0.071-1.07,0.258-2.14,0.562-3.209c0.303-1.07,0.659-2.071,1.069-3.005
			c0.41-0.932,0.844-1.767,1.302-2.505c0.457-0.736,0.876-1.313,1.257-1.729v-1.926h-8.647v2.265h5.366
			c-0.416,0.582-0.826,1.275-1.23,2.077s-0.77,1.655-1.096,2.558c-0.328,0.904-0.604,1.825-0.83,2.764
			c-0.225,0.939-0.374,1.842-0.445,2.71H45.172z M35.045,27.559c0.071-1.07,0.259-2.14,0.562-3.209
			c0.303-1.07,0.659-2.071,1.069-3.005c0.41-0.932,0.844-1.767,1.302-2.505c0.457-0.736,0.876-1.313,1.257-1.729v-1.926h-8.647
			v2.265h5.366c-0.416,0.582-0.826,1.275-1.23,2.077s-0.77,1.655-1.096,2.558c-0.327,0.904-0.604,1.825-0.829,2.764
			c-0.226,0.939-0.375,1.842-0.446,2.71H35.045z"/>
	</g>
</g>
</svg>
