<?xml version="1.0" encoding="utf-8"?>
<!-- Generator: Adobe Illustrator 21.1.0, SVG Export Plug-In . SVG Version: 6.00 Build 0)  -->
<svg version="1.1" id="Capa_1" xmlns="http://www.w3.org/2000/svg" xmlns:xlink="http://www.w3.org/1999/xlink" x="0px" y="0px"
	 viewBox="0 0 25.119 13.91" style="enable-background:new 0 0 25.119 13.91;" xml:space="preserve">
<style type="text/css">
	.st0{clip-path:url(#SVGID_2_);fill:#FFFFFF;}
	.st1{clip-path:url(#SVGID_2_);fill:none;stroke:#7C6EAF;stroke-width:0.776;stroke-linecap:round;}
	.st2{clip-path:url(#SVGID_2_);fill:#7C6EAF;}
	.st3{fill:#7C6EAF;}
</style>
<g>
	<defs>
		<rect id="SVGID_1_" width="25.119" height="13.91"/>
	</defs>
	<clipPath id="SVGID_2_">
		<use xlink:href="#SVGID_1_"  style="overflow:visible;"/>
	</clipPath>
	<path class="st0" d="M3.322,0.388c0,0-2.934,0-2.934,2.934v7.266c0,0,0,2.934,2.934,2.934h18.475c0,0,2.934,0,2.934-2.934V3.322
		c0,0,0-2.934-2.934-2.934H3.322z"/>
	<path class="st1" d="M3.322,0.388c0,0-2.934,0-2.934,2.934v7.266c0,0,0,2.934,2.934,2.934h18.475c0,0,2.934,0,2.934-2.934V3.322
		c0,0,0-2.934-2.934-2.934H3.322z"/>
	<polyline class="st1" points="11.029,13.517 13.69,6.955 11.029,0.392 	"/>
	<path class="st2" d="M8.201,4.887c0.286,0.086,0.54,0.188,0.761,0.305l0.465-1.293C9.372,3.864,9.281,3.816,9.153,3.754
		s-0.29-0.123-0.486-0.181C8.47,3.514,8.235,3.462,7.963,3.417C7.69,3.373,7.385,3.35,7.047,3.35c-0.497,0-0.964,0.083-1.402,0.248
		c-0.439,0.166-0.82,0.409-1.144,0.73c-0.325,0.321-0.58,0.713-0.766,1.175S3.456,6.496,3.456,7.097
		c0,0.593,0.084,1.121,0.253,1.583c0.169,0.463,0.409,0.853,0.719,1.17c0.311,0.317,0.685,0.559,1.123,0.724
		c0.438,0.166,0.927,0.249,1.465,0.249c0.628,0,1.156-0.043,1.583-0.13c0.428-0.086,0.739-0.167,0.932-0.243V6.9H7.916v2.494
		C7.82,9.415,7.708,9.429,7.58,9.436c-0.128,0.007-0.281,0.01-0.461,0.01c-0.331,0-0.621-0.057-0.869-0.171
		C6.002,9.162,5.795,9.001,5.629,8.794c-0.166-0.207-0.29-0.453-0.373-0.74C5.174,7.768,5.132,7.449,5.132,7.097
		c0-0.725,0.167-1.296,0.502-1.713c0.335-0.418,0.878-0.626,1.63-0.626C7.602,4.758,7.915,4.801,8.201,4.887"/>
</g>
<rect x="17.475" y="3.515" class="st3" width="1.615" height="7.173"/>
</svg>
