<svg id="Capa_1" data-name="Capa 1" xmlns="http://www.w3.org/2000/svg" viewBox="0 0 570.47 537.5"><defs><style>.cls-1,.cls-10,.cls-3,.cls-5,.cls-7,.cls-9{fill:none;}.cls-1{stroke:#d898c3;}.cls-1,.cls-10,.cls-3,.cls-5,.cls-7{stroke-width:1.5px;}.cls-2{fill:#b80e80;}.cls-3{stroke:#85cee4;}.cls-4{fill:#009dc5;}.cls-5{stroke:#bdd396;}.cls-6{fill:#3fa535;}.cls-7{stroke:#fccb8d;}.cls-8{fill:#f18700;}.cls-9{stroke:#95a6b1;}.cls-10{stroke:#fbc68c;}.cls-11{fill:#fff;}.cls-12{fill:#f39200;}.cls-13{fill:#95a6b1;}</style></defs><path class="cls-1" d="M415.76,288.81s-3.2,38.57-3.28,75.37a600,600,0,0,0,3.28,64.91,504.7,504.7,0,0,0,58,4.14c54,.52,94.08-3.09,94.08-3.09s1.66-46.57,1.91-81.42c.28-40.12-3.17-58.49-3.17-58.49s-48.93-2.62-69.94-2.84S415.76,288.81,415.76,288.81Z"/><path class="cls-2" d="M456.29,274.68v8.09h-1v-8.09Z"/><path class="cls-2" d="M458.07,278.53c0-.6,0-1.09-.05-1.57H459l0,.94h0a2,2,0,0,1,1.82-1.07A1.74,1.74,0,0,1,462.5,278h0a2.42,2.42,0,0,1,.65-.75,1.93,1.93,0,0,1,1.28-.41c.77,0,1.91.5,1.91,2.52v3.42h-1v-3.29c0-1.11-.41-1.79-1.26-1.79a1.38,1.38,0,0,0-1.25,1,1.74,1.74,0,0,0-.08.53v3.59h-1v-3.48c0-.92-.4-1.6-1.21-1.6a1.43,1.43,0,0,0-1.3,1.06,1.46,1.46,0,0,0-.09.52v3.5h-1Z"/><path class="cls-2" d="M471.2,282.77l-.09-.73h0a2.19,2.19,0,0,1-1.78.86,1.65,1.65,0,0,1-1.77-1.67c0-1.4,1.24-2.17,3.49-2.16V279a1.2,1.2,0,0,0-1.32-1.34,3,3,0,0,0-1.52.43l-.23-.69a3.49,3.49,0,0,1,1.9-.52c1.78,0,2.21,1.21,2.21,2.37v2.18a8.47,8.47,0,0,0,.09,1.39Zm-.16-3c-1.15,0-2.46.17-2.46,1.3a.94.94,0,0,0,1,1,1.45,1.45,0,0,0,1.4-1,1,1,0,0,0,.06-.34Z"/><path class="cls-2" d="M478.78,277c0,.42,0,.89,0,1.6v3.37a3.32,3.32,0,0,1-.83,2.65,3.06,3.06,0,0,1-2.11.69,3.68,3.68,0,0,1-1.93-.48l.27-.8a3.25,3.25,0,0,0,1.7.46c1.08,0,1.87-.57,1.87-2v-.65h0a2.05,2.05,0,0,1-1.84,1,2.59,2.59,0,0,1-2.47-2.83,2.79,2.79,0,0,1,2.61-3.08,1.92,1.92,0,0,1,1.81,1h0l0-.88Zm-1.09,2.29a1.8,1.8,0,0,0-.06-.48,1.53,1.53,0,0,0-1.48-1.11c-1,0-1.73.85-1.73,2.19,0,1.14.58,2.09,1.72,2.09a1.53,1.53,0,0,0,1.46-1.08,1.82,1.82,0,0,0,.09-.56Z"/><path class="cls-2" d="M481.09,280.06a1.85,1.85,0,0,0,2,2,3.75,3.75,0,0,0,1.6-.3l.18.76a4.8,4.8,0,0,1-1.93.36,2.7,2.7,0,0,1-2.85-2.93c0-1.75,1-3.13,2.72-3.13a2.46,2.46,0,0,1,2.4,2.73,4.36,4.36,0,0,1,0,.5Zm3.09-.76a1.5,1.5,0,0,0-1.46-1.71,1.74,1.74,0,0,0-1.62,1.71Z"/><path class="cls-2" d="M486.51,278.53c0-.6,0-1.09-.05-1.57h.94l.06,1h0a2.14,2.14,0,0,1,1.92-1.09c.8,0,2.05.48,2.05,2.47v3.47H490.4v-3.35c0-.93-.35-1.71-1.35-1.71a1.5,1.5,0,0,0-1.41,1.08,1.44,1.44,0,0,0-.08.49v3.49h-1.05Z"/><path class="cls-2" d="M499.85,282.55a4,4,0,0,1-1.67.34,2.76,2.76,0,0,1-2.89-3,3,3,0,0,1,3.12-3.08,3.56,3.56,0,0,1,1.46.3l-.24.82a2.35,2.35,0,0,0-1.22-.28,2,2,0,0,0-2.05,2.2,2,2,0,0,0,2,2.17,3,3,0,0,0,1.29-.29Z"/><path class="cls-2" d="M500.91,274.25h1v8.52h-1Z"/><path class="cls-2" d="M506.74,282.77l-.08-.73h0a2.18,2.18,0,0,1-1.78.86,1.65,1.65,0,0,1-1.77-1.67c0-1.4,1.25-2.17,3.49-2.16V279a1.19,1.19,0,0,0-1.32-1.34,2.93,2.93,0,0,0-1.51.43l-.24-.69a3.52,3.52,0,0,1,1.91-.52c1.77,0,2.2,1.21,2.2,2.37v2.18a8.4,8.4,0,0,0,.1,1.39Zm-.16-3c-1.15,0-2.45.17-2.45,1.3a.93.93,0,0,0,1,1,1.43,1.43,0,0,0,1.4-1,1,1,0,0,0,.06-.34Z"/><path class="cls-2" d="M509.42,277l1.14,3.26a15.54,15.54,0,0,1,.46,1.49h0c.13-.48.3-1,.49-1.49l1.13-3.26h1.1l-2.28,5.81h-1L508.29,277Z"/><path class="cls-2" d="M515.13,280.06a1.85,1.85,0,0,0,2,2,3.8,3.8,0,0,0,1.61-.3l.18.76a4.88,4.88,0,0,1-1.93.36,2.7,2.7,0,0,1-2.86-2.93c0-1.75,1-3.13,2.72-3.13a2.46,2.46,0,0,1,2.4,2.73,4.92,4.92,0,0,1,0,.5Zm3.09-.76a1.5,1.5,0,0,0-1.46-1.71,1.74,1.74,0,0,0-1.62,1.71Z"/><path class="cls-3" d="M4.1,288.81S.83,327.38.75,364.18A588,588,0,0,0,4.1,429.09a527.55,527.55,0,0,0,59.27,4.14c55.25.52,96.2-3.09,96.2-3.09s1.7-46.57,2-81.42c.29-40.12-3.24-58.49-3.24-58.49s-50-2.62-71.51-2.84S4.1,288.81,4.1,288.81Z"/><path class="cls-4" d="M46.33,274.68v8.09h-1v-8.09Z"/><path class="cls-4" d="M48.11,278.53c0-.6,0-1.09,0-1.57H49l.05.94h0a2,2,0,0,1,1.82-1.07A1.74,1.74,0,0,1,52.54,278h0a2.42,2.42,0,0,1,.65-.75,1.93,1.93,0,0,1,1.28-.41c.77,0,1.91.5,1.91,2.52v3.42h-1v-3.29c0-1.11-.41-1.79-1.26-1.79a1.38,1.38,0,0,0-1.25,1,1.74,1.74,0,0,0-.08.53v3.59h-1v-3.48c0-.92-.4-1.6-1.21-1.6a1.45,1.45,0,0,0-1.31,1.06,1.72,1.72,0,0,0-.08.52v3.5h-1Z"/><path class="cls-4" d="M61.24,282.77l-.09-.73h0a2.19,2.19,0,0,1-1.78.86,1.65,1.65,0,0,1-1.77-1.67c0-1.4,1.24-2.17,3.49-2.16V279a1.2,1.2,0,0,0-1.32-1.34,2.9,2.9,0,0,0-1.51.43l-.24-.69a3.51,3.51,0,0,1,1.9-.52c1.78,0,2.21,1.21,2.21,2.37v2.18a7.44,7.44,0,0,0,.1,1.39Zm-.16-3c-1.15,0-2.46.17-2.46,1.3a.94.94,0,0,0,1,1,1.45,1.45,0,0,0,1.4-1,1,1,0,0,0,.06-.34Z"/><path class="cls-4" d="M68.82,277c0,.42,0,.89,0,1.6v3.37a3.32,3.32,0,0,1-.83,2.65,3.06,3.06,0,0,1-2.11.69,3.68,3.68,0,0,1-1.93-.48l.27-.8a3.25,3.25,0,0,0,1.7.46c1.08,0,1.87-.57,1.87-2v-.65h0a2.08,2.08,0,0,1-1.85,1,2.59,2.59,0,0,1-2.47-2.83A2.79,2.79,0,0,1,66,276.83a1.92,1.92,0,0,1,1.81,1h0l.05-.88Zm-1.09,2.29a1.47,1.47,0,0,0-.06-.48,1.52,1.52,0,0,0-1.48-1.11c-1,0-1.73.85-1.73,2.19,0,1.14.58,2.09,1.72,2.09a1.53,1.53,0,0,0,1.46-1.08,1.82,1.82,0,0,0,.09-.56Z"/><path class="cls-4" d="M71.13,280.06a1.85,1.85,0,0,0,2,2,3.75,3.75,0,0,0,1.6-.3l.18.76a4.8,4.8,0,0,1-1.93.36A2.69,2.69,0,0,1,70.12,280c0-1.75,1-3.13,2.72-3.13a2.46,2.46,0,0,1,2.4,2.73,4.36,4.36,0,0,1,0,.5Zm3.09-.76a1.5,1.5,0,0,0-1.46-1.71,1.74,1.74,0,0,0-1.62,1.71Z"/><path class="cls-4" d="M76.55,278.53c0-.6,0-1.09,0-1.57h.94l.06,1h0a2.14,2.14,0,0,1,1.92-1.09c.8,0,2,.48,2,2.47v3.47h-1v-3.35c0-.93-.35-1.71-1.35-1.71a1.5,1.5,0,0,0-1.41,1.08,1.45,1.45,0,0,0-.07.49v3.49H76.55Z"/><path class="cls-4" d="M89.89,282.55a4,4,0,0,1-1.67.34,2.76,2.76,0,0,1-2.89-3,3,3,0,0,1,3.12-3.08,3.52,3.52,0,0,1,1.46.3l-.24.82a2.35,2.35,0,0,0-1.22-.28,2,2,0,0,0-2,2.2,2,2,0,0,0,2,2.17,3,3,0,0,0,1.29-.29Z"/><path class="cls-4" d="M91,274.25h1v8.52H91Z"/><path class="cls-4" d="M96.78,282.77,96.7,282h0a2.18,2.18,0,0,1-1.78.86,1.65,1.65,0,0,1-1.77-1.67c0-1.4,1.25-2.17,3.49-2.16V279a1.19,1.19,0,0,0-1.32-1.34,2.93,2.93,0,0,0-1.51.43l-.24-.69a3.52,3.52,0,0,1,1.91-.52c1.77,0,2.2,1.21,2.2,2.37v2.18a8.4,8.4,0,0,0,.1,1.39Zm-.16-3c-1.15,0-2.46.17-2.46,1.3a.94.94,0,0,0,1,1,1.43,1.43,0,0,0,1.4-1,1,1,0,0,0,.06-.34Z"/><path class="cls-4" d="M99.46,277l1.14,3.26a15.54,15.54,0,0,1,.46,1.49h0c.13-.48.3-1,.49-1.49l1.13-3.26h1.1l-2.28,5.81h-1L98.33,277Z"/><path class="cls-4" d="M105.17,280.06a1.85,1.85,0,0,0,2,2,3.83,3.83,0,0,0,1.61-.3l.18.76a4.88,4.88,0,0,1-1.93.36,2.7,2.7,0,0,1-2.86-2.93c0-1.75,1-3.13,2.72-3.13a2.46,2.46,0,0,1,2.4,2.73,4.92,4.92,0,0,1,0,.5Zm3.09-.76a1.5,1.5,0,0,0-1.46-1.71,1.74,1.74,0,0,0-1.62,1.71Z"/><path class="cls-5" d="M415.76,123.57s-3.2,37.34-3.28,72.88a562.13,562.13,0,0,0,3.28,62.77,534,534,0,0,0,58,3.94c54,.49,94.08-3,94.08-3s1.66-45,1.91-78.66c.28-38.75-3.17-56.52-3.17-56.52s-48.93-2.51-69.94-2.72S415.76,123.57,415.76,123.57Z"/><path class="cls-6" d="M456.29,109.57v8.08h-1v-8.08Z"/><path class="cls-6" d="M458.07,113.42c0-.6,0-1.1-.05-1.58H459l0,.94h0a2,2,0,0,1,1.82-1.07,1.73,1.73,0,0,1,1.65,1.17h0a2.35,2.35,0,0,1,.65-.76,2,2,0,0,1,1.28-.41c.77,0,1.91.51,1.91,2.52v3.42h-1v-3.29c0-1.11-.41-1.78-1.26-1.78a1.36,1.36,0,0,0-1.25,1,1.62,1.62,0,0,0-.08.52v3.59h-1v-3.48c0-.92-.4-1.59-1.21-1.59a1.42,1.42,0,0,0-1.3,1,1.5,1.5,0,0,0-.09.52v3.5h-1Z"/><path class="cls-6" d="M471.2,117.65l-.09-.73h0a2.19,2.19,0,0,1-1.78.86,1.65,1.65,0,0,1-1.77-1.67c0-1.4,1.24-2.17,3.49-2.15v-.13a1.2,1.2,0,0,0-1.32-1.34,3,3,0,0,0-1.52.43l-.23-.69a3.57,3.57,0,0,1,1.9-.52c1.78,0,2.21,1.21,2.21,2.38v2.17a8.47,8.47,0,0,0,.09,1.39Zm-.16-3c-1.15,0-2.46.18-2.46,1.3a.94.94,0,0,0,1,1,1.45,1.45,0,0,0,1.4-1,1,1,0,0,0,.06-.34Z"/><path class="cls-6" d="M478.78,111.84c0,.42,0,.89,0,1.6v3.37a3.31,3.31,0,0,1-.83,2.65,3.06,3.06,0,0,1-2.11.7,3.78,3.78,0,0,1-1.93-.48l.27-.81a3.25,3.25,0,0,0,1.7.46c1.08,0,1.87-.57,1.87-2v-.65h0a2.05,2.05,0,0,1-1.84,1,2.59,2.59,0,0,1-2.47-2.83,2.79,2.79,0,0,1,2.61-3.08,1.92,1.92,0,0,1,1.81,1h0l0-.88Zm-1.09,2.29a1.73,1.73,0,0,0-.06-.47,1.53,1.53,0,0,0-1.48-1.12c-1,0-1.73.85-1.73,2.19,0,1.14.58,2.09,1.72,2.09a1.53,1.53,0,0,0,1.46-1.08,1.82,1.82,0,0,0,.09-.56Z"/><path class="cls-6" d="M481.09,114.94a1.85,1.85,0,0,0,2,2,3.75,3.75,0,0,0,1.6-.3l.18.76a4.63,4.63,0,0,1-1.93.36,2.7,2.7,0,0,1-2.85-2.93c0-1.75,1-3.13,2.72-3.13a2.46,2.46,0,0,1,2.4,2.74,4.35,4.35,0,0,1,0,.49Zm3.09-.76a1.5,1.5,0,0,0-1.46-1.71,1.74,1.74,0,0,0-1.62,1.71Z"/><path class="cls-6" d="M486.51,113.42c0-.6,0-1.1-.05-1.58h.94l.06,1h0a2.14,2.14,0,0,1,1.92-1.09c.8,0,2.05.48,2.05,2.47v3.47H490.4V114.3c0-.93-.35-1.71-1.35-1.71a1.5,1.5,0,0,0-1.41,1.08,1.44,1.44,0,0,0-.08.49v3.49h-1.05Z"/><path class="cls-6" d="M499.85,117.43a3.81,3.81,0,0,1-1.67.34,2.76,2.76,0,0,1-2.89-3,3,3,0,0,1,3.12-3.09,3.56,3.56,0,0,1,1.46.3l-.24.82a2.45,2.45,0,0,0-1.22-.28,2,2,0,0,0-2.05,2.2,2,2,0,0,0,2,2.17,3,3,0,0,0,1.29-.29Z"/><path class="cls-6" d="M500.91,109.13h1v8.52h-1Z"/><path class="cls-6" d="M506.74,117.65l-.08-.73h0a2.18,2.18,0,0,1-1.78.86,1.65,1.65,0,0,1-1.77-1.67c0-1.4,1.25-2.17,3.49-2.15v-.13a1.2,1.2,0,0,0-1.32-1.34,2.93,2.93,0,0,0-1.51.43l-.24-.69a3.61,3.61,0,0,1,1.91-.52c1.77,0,2.2,1.21,2.2,2.38v2.17a8.4,8.4,0,0,0,.1,1.39Zm-.16-3c-1.15,0-2.45.18-2.45,1.3a.93.93,0,0,0,1,1,1.43,1.43,0,0,0,1.4-1,1,1,0,0,0,.06-.34Z"/><path class="cls-6" d="M509.42,111.84l1.14,3.27a14.56,14.56,0,0,1,.46,1.48h0c.13-.48.3-1,.49-1.48l1.13-3.27h1.1l-2.28,5.81h-1l-2.21-5.81Z"/><path class="cls-6" d="M515.13,114.94a1.85,1.85,0,0,0,2,2,3.8,3.8,0,0,0,1.61-.3l.18.76a4.71,4.71,0,0,1-1.93.36,2.7,2.7,0,0,1-2.86-2.93c0-1.75,1-3.13,2.72-3.13a2.46,2.46,0,0,1,2.4,2.74,4.88,4.88,0,0,1,0,.49Zm3.09-.76a1.5,1.5,0,0,0-1.46-1.71,1.74,1.74,0,0,0-1.62,1.71Z"/><path class="cls-7" d="M4.1,122.87s-3.27,38-3.35,73.58A572.29,572.29,0,0,0,4.1,259.93s28,2.95,59.27,3.23c55.25.49,96.2-3,96.2-3s1.7-45,2-78.66c.29-38.75-3.24-56.52-3.24-56.52s-50-2.5-71.51-2.72S4.1,122.87,4.1,122.87Z"/><path class="cls-8" d="M46.33,109.57v8.08h-1v-8.08Z"/><path class="cls-8" d="M48.11,113.42c0-.6,0-1.1,0-1.58H49l.05.94h0a2,2,0,0,1,1.82-1.07,1.73,1.73,0,0,1,1.65,1.17h0a2.35,2.35,0,0,1,.65-.76,2,2,0,0,1,1.28-.41c.77,0,1.91.51,1.91,2.52v3.42h-1v-3.29c0-1.11-.41-1.78-1.26-1.78a1.36,1.36,0,0,0-1.25,1,1.62,1.62,0,0,0-.08.52v3.59h-1v-3.48c0-.92-.4-1.59-1.21-1.59a1.44,1.44,0,0,0-1.31,1,1.77,1.77,0,0,0-.08.52v3.5h-1Z"/><path class="cls-8" d="M61.24,117.65l-.09-.73h0a2.19,2.19,0,0,1-1.78.86,1.65,1.65,0,0,1-1.77-1.67c0-1.4,1.24-2.17,3.49-2.15v-.13a1.2,1.2,0,0,0-1.32-1.34,2.9,2.9,0,0,0-1.51.43l-.24-.69a3.6,3.6,0,0,1,1.9-.52c1.78,0,2.21,1.21,2.21,2.38v2.17a7.44,7.44,0,0,0,.1,1.39Zm-.16-3c-1.15,0-2.46.18-2.46,1.3a.94.94,0,0,0,1,1,1.45,1.45,0,0,0,1.4-1,1,1,0,0,0,.06-.34Z"/><path class="cls-8" d="M68.82,111.84c0,.42,0,.89,0,1.6v3.37a3.31,3.31,0,0,1-.83,2.65,3.06,3.06,0,0,1-2.11.7,3.78,3.78,0,0,1-1.93-.48l.27-.81a3.25,3.25,0,0,0,1.7.46c1.08,0,1.87-.57,1.87-2v-.65h0a2.08,2.08,0,0,1-1.85,1,2.59,2.59,0,0,1-2.47-2.83A2.79,2.79,0,0,1,66,111.71a1.92,1.92,0,0,1,1.81,1h0l.05-.88Zm-1.09,2.29a1.41,1.41,0,0,0-.06-.47,1.52,1.52,0,0,0-1.48-1.12c-1,0-1.73.85-1.73,2.19,0,1.14.58,2.09,1.72,2.09a1.53,1.53,0,0,0,1.46-1.08,1.82,1.82,0,0,0,.09-.56Z"/><path class="cls-8" d="M71.13,114.94a1.85,1.85,0,0,0,2,2,3.75,3.75,0,0,0,1.6-.3l.18.76a4.63,4.63,0,0,1-1.93.36,2.69,2.69,0,0,1-2.85-2.93c0-1.75,1-3.13,2.72-3.13a2.47,2.47,0,0,1,2.4,2.74,4.35,4.35,0,0,1,0,.49Zm3.09-.76a1.5,1.5,0,0,0-1.46-1.71,1.74,1.74,0,0,0-1.62,1.71Z"/><path class="cls-8" d="M76.55,113.42c0-.6,0-1.1,0-1.58h.94l.06,1h0a2.14,2.14,0,0,1,1.92-1.09c.8,0,2,.48,2,2.47v3.47h-1V114.3c0-.93-.35-1.71-1.35-1.71a1.5,1.5,0,0,0-1.41,1.08,1.45,1.45,0,0,0-.07.49v3.49H76.55Z"/><path class="cls-8" d="M89.89,117.43a3.81,3.81,0,0,1-1.67.34,2.76,2.76,0,0,1-2.89-3,3,3,0,0,1,3.12-3.09,3.52,3.52,0,0,1,1.46.3l-.24.82a2.45,2.45,0,0,0-1.22-.28,2,2,0,0,0-2,2.2,2,2,0,0,0,2,2.17,3,3,0,0,0,1.29-.29Z"/><path class="cls-8" d="M91,109.13h1v8.52H91Z"/><path class="cls-8" d="M96.78,117.65l-.08-.73h0a2.18,2.18,0,0,1-1.78.86,1.65,1.65,0,0,1-1.77-1.67c0-1.4,1.25-2.17,3.49-2.15v-.13a1.2,1.2,0,0,0-1.32-1.34,2.93,2.93,0,0,0-1.51.43l-.24-.69a3.61,3.61,0,0,1,1.91-.52c1.77,0,2.2,1.21,2.2,2.38v2.17a8.4,8.4,0,0,0,.1,1.39Zm-.16-3c-1.15,0-2.46.18-2.46,1.3a.94.94,0,0,0,1,1,1.43,1.43,0,0,0,1.4-1,1,1,0,0,0,.06-.34Z"/><path class="cls-8" d="M99.46,111.84l1.14,3.27a14.56,14.56,0,0,1,.46,1.48h0c.13-.48.3-1,.49-1.48l1.13-3.27h1.1l-2.28,5.81h-1l-2.21-5.81Z"/><path class="cls-8" d="M105.17,114.94a1.85,1.85,0,0,0,2,2,3.83,3.83,0,0,0,1.61-.3l.18.76a4.71,4.71,0,0,1-1.93.36,2.7,2.7,0,0,1-2.86-2.93c0-1.75,1-3.13,2.72-3.13a2.46,2.46,0,0,1,2.4,2.74,4.88,4.88,0,0,1,0,.49Zm3.09-.76a1.5,1.5,0,0,0-1.46-1.71,1.74,1.74,0,0,0-1.62,1.71Z"/><path class="cls-9" d="M311.92,258.79s20.67-2.12,20-36.22"/><polyline class="cls-9" points="335.73 226.5 331.92 222.57 328.28 226.65"/><path class="cls-9" d="M308.88,283.51s20.72,5.58,26,39.28"/><polyline class="cls-9" points="337.93 318.25 334.87 322.79 330.57 319.4"/><path class="cls-3" d="M239.81,378s-.22,25-8.31,69.82"/><polyline class="cls-3" points="228.15 442.62 231.5 447.84 236.47 444.12"/><path class="cls-10" d="M230.9,168a523.62,523.62,0,0,0-7.67-66.59"/><polyline class="cls-10" points="219.86 106.65 223.23 101.43 228.18 105.17"/><path class="cls-1" d="M338.16,377.35s.44,25.07,8.83,69.95"/><polyline class="cls-1" points="350.31 442.06 346.99 447.3 342.01 443.61"/><path class="cls-5" d="M335.9,167.45s-1.18-27.37,2.82-65.46"/><polyline class="cls-5" points="342.45 106.95 338.72 101.99 334.05 106.07"/><path class="cls-1" d="M382.72,352.58a111.88,111.88,0,0,1,17.89,1"/><polyline class="cls-1" points="395.57 357.17 400.61 353.54 396.63 348.79"/><path class="cls-3" d="M184.09,350.21a111.18,111.18,0,0,0-17.88,1"/><polyline class="cls-3" points="171.24 354.81 166.21 351.18 170.19 346.43"/><path class="cls-5" d="M384.84,195.25a111.28,111.28,0,0,1,17.89,1"/><polyline class="cls-5" points="397.7 199.85 402.73 196.22 398.75 191.47"/><path class="cls-10" d="M185.51,192.42a111.31,111.31,0,0,0-17.89,1"/><polyline class="cls-10" points="172.66 197.01 167.62 193.39 171.6 188.63"/><path class="cls-4" d="M234,376.63c26.14,0,47.33-10.68,47.33-23.85S260.14,328.93,234,328.93s-47.33,10.68-47.33,23.85,21.19,23.85,47.33,23.85"/><ellipse class="cls-3" cx="232.84" cy="349.63" rx="47.13" ry="23.71"/><path class="cls-11" d="M199.27,347a5.08,5.08,0,0,1,2.86.67,2.3,2.3,0,0,1,1,2.07,2.32,2.32,0,0,1-.4,1.42,2.74,2.74,0,0,1-1.16.86c.17.21.34.44.53.71s.36.55.54.84.36.6.53.91.32.63.46.93h-2.09c-.15-.27-.31-.54-.46-.82s-.32-.56-.48-.82l-.49-.75a7.11,7.11,0,0,0-.48-.64h-.93v3h-1.87v-8.19a10.23,10.23,0,0,1,1.27-.17C198.53,347,198.92,347,199.27,347Zm.1,1.6H199l-.31,0v2.26h.53a3.26,3.26,0,0,0,1.51-.26,1,1,0,0,0,.46-.9.92.92,0,0,0-.46-.87A2.8,2.8,0,0,0,199.37,348.61Z"/><path class="cls-11" d="M204.87,355.42v-8.31h5.62v1.57h-3.75v1.63h3.33v1.54h-3.33v2h4v1.57Z"/><path class="cls-11" d="M214.78,347a5.19,5.19,0,0,1,2.86.66,2.82,2.82,0,0,1,0,4.3,5.2,5.2,0,0,1-2.88.67h-.59v2.78h-1.87v-8.19a10.06,10.06,0,0,1,1.29-.17C214,347,214.44,347,214.78,347Zm.12,1.6h-.4l-.34,0V351h.59a3.15,3.15,0,0,0,1.46-.26,1,1,0,0,0,.49-1,1.22,1.22,0,0,0-.12-.58,1.16,1.16,0,0,0-.36-.37,1.82,1.82,0,0,0-.57-.19A5.78,5.78,0,0,0,214.9,348.61Z"/><path class="cls-11" d="M228,351.26a5,5,0,0,1-.32,1.88,3.75,3.75,0,0,1-.87,1.35,3.49,3.49,0,0,1-1.31.83,4.86,4.86,0,0,1-1.64.27,4.77,4.77,0,0,1-1.61-.27,3.7,3.7,0,0,1-2.2-2.18,5,5,0,0,1-.33-1.88,4.78,4.78,0,0,1,.34-1.88,3.94,3.94,0,0,1,.9-1.36,3.79,3.79,0,0,1,1.32-.83,4.64,4.64,0,0,1,1.58-.27,4.73,4.73,0,0,1,1.61.27,3.79,3.79,0,0,1,1.32.83,3.92,3.92,0,0,1,.89,1.36A5.18,5.18,0,0,1,228,351.26Zm-6.35,0a3.7,3.7,0,0,0,.15,1.1,2.54,2.54,0,0,0,.44.85,1.78,1.78,0,0,0,.69.55,2.37,2.37,0,0,0,1.86,0,1.89,1.89,0,0,0,.7-.55,2.52,2.52,0,0,0,.43-.85,3.7,3.7,0,0,0,.15-1.1,3.82,3.82,0,0,0-.15-1.11,2.43,2.43,0,0,0-.43-.85,1.89,1.89,0,0,0-.7-.55,2.32,2.32,0,0,0-1.86,0,1.78,1.78,0,0,0-.69.55,2.54,2.54,0,0,0-.44.85A3.8,3.8,0,0,0,221.63,351.26Z"/><path class="cls-11" d="M232,347a5.1,5.1,0,0,1,2.87.67,2.65,2.65,0,0,1,.59,3.49,2.65,2.65,0,0,1-1.15.86c.16.21.34.44.52.71s.37.55.55.84.35.6.52.91.33.63.47.93h-2.09l-.47-.82c-.15-.28-.31-.56-.48-.82s-.33-.51-.49-.75a7.11,7.11,0,0,0-.48-.64h-.92v3h-1.87v-8.19a10.07,10.07,0,0,1,1.26-.17C231.27,347,231.66,347,232,347Zm.11,1.6h-.37l-.3,0v2.26H232a3.29,3.29,0,0,0,1.51-.26,1,1,0,0,0,.45-.9.91.91,0,0,0-.46-.87A2.76,2.76,0,0,0,232.11,348.61Z"/><path class="cls-11" d="M243.8,347.11v1.59h-2.51v6.72h-1.87V348.7h-2.51v-1.59Z"/><path class="cls-11" d="M249.77,355.42c-.09-.28-.19-.58-.3-.89s-.21-.6-.31-.91h-3.25l-.32.92-.29.88h-2c.32-.89.61-1.72.89-2.48s.56-1.48.83-2.15.53-1.31.79-1.91.54-1.2.82-1.77h1.77q.41.86.81,1.77c.26.6.53,1.24.8,1.91s.54,1.39.83,2.15.57,1.59.89,2.48ZM247.52,349c0,.12-.1.29-.18.49l-.27.73c-.11.27-.22.57-.35.9s-.25.67-.39,1h2.38c-.12-.36-.25-.71-.37-1s-.23-.63-.34-.9-.2-.51-.28-.72S247.57,349.11,247.52,349Z"/><path class="cls-11" d="M257.83,352.63a4.71,4.71,0,0,1-.14,1.15,2.27,2.27,0,0,1-.48.94,2.37,2.37,0,0,1-.93.64,4,4,0,0,1-1.47.23,4.18,4.18,0,0,1-1.4-.2,3.65,3.65,0,0,1-1-.46l.62-1.45a4.33,4.33,0,0,0,.75.36,2.39,2.39,0,0,0,.86.16,1.26,1.26,0,0,0,1-.34,1.68,1.68,0,0,0,.3-1.13v-5.42h1.88Z"/><path class="cls-11" d="M259.72,355.42v-8.31h5.62v1.57h-3.75v1.63h3.33v1.54h-3.33v2h4v1.57Z"/><path class="cls-12" d="M234,221.88c26.14,0,47.33-10.83,47.33-24.18S260.14,173.51,234,173.51s-47.33,10.83-47.33,24.19,21.19,24.18,47.33,24.18"/><path class="cls-7" d="M232.85,218.56c26,0,47.13-10.77,47.13-24.06s-21.1-24.05-47.13-24.05-47.14,10.77-47.14,24.05S206.81,218.56,232.85,218.56Z"/><path class="cls-11" d="M215.8,200.25l-.3-.89c-.11-.3-.22-.61-.32-.91h-3.25c-.1.3-.21.61-.32.91s-.2.6-.29.89h-1.94c.31-.9.61-1.72.89-2.48s.55-1.48.82-2.15.53-1.31.8-1.92.53-1.19.81-1.77h1.77q.42.87.81,1.77c.27.61.53,1.25.8,1.92s.55,1.39.83,2.15.58,1.58.89,2.48Zm-2.25-6.43-.19.49-.27.72c-.11.27-.22.57-.35.9l-.38,1h2.37c-.12-.36-.25-.7-.37-1s-.23-.63-.34-.9-.2-.52-.28-.72Z"/><path class="cls-11" d="M218.93,200.25v-8.32h5.57v1.58h-3.7v1.74h3.29v1.57H220.8v3.43Z"/><path class="cls-11" d="M225.83,191.93h1.87v8.32h-1.87Z"/><path class="cls-11" d="M233.46,200.42a4.06,4.06,0,0,1-3.09-1.13,4.48,4.48,0,0,1-1.06-3.2,5.09,5.09,0,0,1,.32-1.85,3.92,3.92,0,0,1,.89-1.36,3.61,3.61,0,0,1,1.34-.85,4.93,4.93,0,0,1,1.7-.29,5.64,5.64,0,0,1,1,.08,5.53,5.53,0,0,1,.75.18,3.83,3.83,0,0,1,.54.21,2.36,2.36,0,0,1,.31.17l-.54,1.51a4.35,4.35,0,0,0-.89-.35,4.55,4.55,0,0,0-1.16-.14,2.64,2.64,0,0,0-.84.14,2,2,0,0,0-.74.46,2.43,2.43,0,0,0-.51.83,3.59,3.59,0,0,0-.19,1.22,4.08,4.08,0,0,0,.13,1.07,2.15,2.15,0,0,0,.41.86,1.9,1.9,0,0,0,.73.57,2.68,2.68,0,0,0,1.11.21,4.12,4.12,0,0,0,.73,0c.22,0,.41-.07.58-.11a2.52,2.52,0,0,0,.44-.15l.35-.16.51,1.5a4.32,4.32,0,0,1-1.11.44A6.91,6.91,0,0,1,233.46,200.42Z"/><path class="cls-11" d="M242.48,191.93h1.88v8.32h-1.88v-3.53h-3.14v3.53h-1.87v-8.32h1.87v3.18h3.14Z"/><path class="cls-11" d="M246.32,200.25v-8.32h5.62v1.58H248.2v1.63h3.32v1.53H248.2v2h4v1.57Z"/><path class="cls-2" d="M338.06,376.63c26.14,0,47.33-10.68,47.33-23.85s-21.19-23.85-47.33-23.85-47.33,10.68-47.33,23.85,21.19,23.85,47.33,23.85"/><ellipse class="cls-1" cx="336.91" cy="349.63" rx="47.13" ry="23.71"/><path class="cls-11" d="M311.68,355.42q-.8-1.43-1.74-2.82a29.07,29.07,0,0,0-2-2.62v5.44H306.1v-8.31h1.53c.26.26.55.59.87,1s.65.79,1,1.23.66.89,1,1.36.64.91.92,1.35v-4.91h1.86v8.31Z"/><path class="cls-11" d="M323.13,351.26a5.18,5.18,0,0,1-.32,1.88,3.75,3.75,0,0,1-.87,1.35,3.57,3.57,0,0,1-1.31.83,4.91,4.91,0,0,1-1.64.27,4.77,4.77,0,0,1-1.61-.27,3.79,3.79,0,0,1-1.32-.83,3.92,3.92,0,0,1-.89-1.35,5.18,5.18,0,0,1-.32-1.88,4.78,4.78,0,0,1,.34-1.88,3.94,3.94,0,0,1,.9-1.36,3.79,3.79,0,0,1,1.32-.83,4.64,4.64,0,0,1,1.58-.27,4.77,4.77,0,0,1,1.61.27,3.79,3.79,0,0,1,1.32.83,4.07,4.07,0,0,1,.89,1.36A5.18,5.18,0,0,1,323.13,351.26Zm-6.35,0a3.7,3.7,0,0,0,.15,1.1,2.72,2.72,0,0,0,.43.85,1.94,1.94,0,0,0,.69.55,2.4,2.4,0,0,0,1.87,0,1.89,1.89,0,0,0,.7-.55,2.72,2.72,0,0,0,.43-.85,3.7,3.7,0,0,0,.15-1.1,3.82,3.82,0,0,0-.15-1.11,2.61,2.61,0,0,0-.43-.85,1.89,1.89,0,0,0-.7-.55,2.34,2.34,0,0,0-1.87,0,1.94,1.94,0,0,0-.69.55,2.72,2.72,0,0,0-.43.85A3.8,3.8,0,0,0,316.78,351.26Z"/><path class="cls-11" d="M330.79,347.11v1.59h-2.51v6.72h-1.87V348.7H323.9v-1.59Z"/><path class="cls-11" d="M332,347.11h1.87v8.31H332Z"/><path class="cls-11" d="M339.62,355.59a4,4,0,0,1-3.09-1.13,4.48,4.48,0,0,1-1.07-3.2,4.83,4.83,0,0,1,.33-1.84,4,4,0,0,1,.89-1.37,3.79,3.79,0,0,1,1.34-.85,4.91,4.91,0,0,1,1.69-.28,5.61,5.61,0,0,1,1,.07l.76.18a3.83,3.83,0,0,1,.54.21l.31.17-.54,1.51a4.35,4.35,0,0,0-.89-.34,4.13,4.13,0,0,0-1.16-.15,2.5,2.5,0,0,0-.85.15,1.88,1.88,0,0,0-.73.46,2.3,2.3,0,0,0-.51.82,3.4,3.4,0,0,0-.19,1.22,4.1,4.1,0,0,0,.13,1.08,2.35,2.35,0,0,0,.4.86,2,2,0,0,0,.74.57,2.65,2.65,0,0,0,1.11.21,5.35,5.35,0,0,0,.73-.05,4.06,4.06,0,0,0,.57-.12,2.37,2.37,0,0,0,.45-.15l.34-.15.52,1.5a4.35,4.35,0,0,1-1.11.43A6.45,6.45,0,0,1,339.62,355.59Z"/><path class="cls-11" d="M343.65,347.11h1.87v8.31h-1.87Z"/><path class="cls-11" d="M353.08,355.42c-.09-.28-.19-.58-.3-.89s-.21-.6-.32-.91h-3.24l-.32.92c-.11.3-.2.6-.29.88h-1.95c.31-.89.61-1.72.89-2.48s.56-1.48.83-2.15.53-1.31.79-1.91.53-1.2.81-1.77h1.78q.4.86.81,1.77c.26.6.53,1.24.8,1.91s.54,1.39.82,2.15.58,1.59.9,2.48ZM350.83,349c0,.12-.1.29-.18.49l-.28.73c-.1.27-.21.57-.34.9s-.26.67-.39,1H352l-.37-1c-.12-.33-.23-.63-.34-.9s-.2-.51-.28-.72S350.88,349.11,350.83,349Z"/><path class="cls-11" d="M364,349.29a2.38,2.38,0,0,1-.18.88,4.15,4.15,0,0,1-.47.81,6.46,6.46,0,0,1-.65.75c-.24.24-.48.47-.71.68l-.39.38c-.14.14-.27.28-.4.43s-.24.27-.34.4a1.1,1.1,0,0,0-.19.3h3.58v1.5h-5.55a2.77,2.77,0,0,1,0-.33v-.29a2.81,2.81,0,0,1,.19-1.06,3.83,3.83,0,0,1,.48-.89,5.51,5.51,0,0,1,.68-.77l.75-.72.54-.53a3.84,3.84,0,0,0,.44-.48,2,2,0,0,0,.3-.46,1.05,1.05,0,0,0,.11-.48.84.84,0,0,0-.3-.74,1.2,1.2,0,0,0-.74-.22,2,2,0,0,0-.61.1,3,3,0,0,0-.51.24l-.41.28-.25.22-.89-1.25a5,5,0,0,1,1.23-.81,3.64,3.64,0,0,1,1.51-.31,4.24,4.24,0,0,1,1.26.16,2.43,2.43,0,0,1,.87.48,1.71,1.71,0,0,1,.5.74A2.78,2.78,0,0,1,364,349.29Z"/><path class="cls-6" d="M338.06,221.88c26.14,0,47.33-10.83,47.33-24.18s-21.19-24.19-47.33-24.19-47.33,10.83-47.33,24.19,21.19,24.18,47.33,24.18"/><path class="cls-5" d="M336.91,218.56c26,0,47.13-10.77,47.13-24.06s-21.1-24.05-47.13-24.05-47.14,10.77-47.14,24.05S310.88,218.56,336.91,218.56Z"/><path class="cls-11" d="M311.68,200.25q-.8-1.42-1.74-2.82a29.23,29.23,0,0,0-2-2.63v5.45H306.1v-8.32h1.53c.26.27.55.59.87,1s.65.79,1,1.23.66.88,1,1.35.64.92.92,1.35v-4.91h1.86v8.32Z"/><path class="cls-11" d="M323.13,196.09a5.12,5.12,0,0,1-.32,1.87,3.79,3.79,0,0,1-.87,1.36,3.55,3.55,0,0,1-1.31.82,4.67,4.67,0,0,1-1.64.28,4.54,4.54,0,0,1-1.61-.28,3.76,3.76,0,0,1-1.32-.82,4,4,0,0,1-.89-1.36,5.12,5.12,0,0,1-.32-1.87,4.74,4.74,0,0,1,.34-1.88,3.85,3.85,0,0,1,.9-1.36,3.65,3.65,0,0,1,1.32-.83,4.42,4.42,0,0,1,1.58-.28,4.54,4.54,0,0,1,1.61.28,3.65,3.65,0,0,1,1.32.83,4,4,0,0,1,.89,1.36A5.14,5.14,0,0,1,323.13,196.09Zm-6.35,0a3.8,3.8,0,0,0,.15,1.1,2.72,2.72,0,0,0,.43.85,2,2,0,0,0,.69.54,2.4,2.4,0,0,0,1.87,0,2,2,0,0,0,.7-.54,2.72,2.72,0,0,0,.43-.85,4.15,4.15,0,0,0,0-2.21,2.67,2.67,0,0,0-.43-.86,2,2,0,0,0-.7-.54,2.4,2.4,0,0,0-1.87,0,2.08,2.08,0,0,0-.69.56,2.61,2.61,0,0,0-.43.85A3.8,3.8,0,0,0,316.78,196.09Z"/><path class="cls-11" d="M330.79,191.93v1.6h-2.51v6.72h-1.87v-6.72H323.9v-1.6Z"/><path class="cls-11" d="M332,191.93h1.87v8.32H332Z"/><path class="cls-11" d="M339.62,200.42a4.06,4.06,0,0,1-3.09-1.13,4.48,4.48,0,0,1-1.07-3.2,4.88,4.88,0,0,1,.33-1.85,3.92,3.92,0,0,1,.89-1.36A3.53,3.53,0,0,1,338,192a4.92,4.92,0,0,1,1.69-.29,5.56,5.56,0,0,1,1,.08,5.7,5.7,0,0,1,.76.18,3.83,3.83,0,0,1,.54.21l.31.17-.54,1.51a4.35,4.35,0,0,0-.89-.35,4.55,4.55,0,0,0-1.16-.14,2.75,2.75,0,0,0-.85.14,2,2,0,0,0-.73.46,2.43,2.43,0,0,0-.51.83,3.36,3.36,0,0,0-.19,1.22,4.08,4.08,0,0,0,.13,1.07,2.28,2.28,0,0,0,.4.86,2,2,0,0,0,.74.57,2.65,2.65,0,0,0,1.11.21,4.12,4.12,0,0,0,.73,0c.21,0,.4-.07.57-.11a2.37,2.37,0,0,0,.45-.15l.34-.16.52,1.5a4.32,4.32,0,0,1-1.11.44A6.91,6.91,0,0,1,339.62,200.42Z"/><path class="cls-11" d="M343.65,191.93h1.87v8.32h-1.87Z"/><path class="cls-11" d="M353.08,200.25c-.09-.29-.19-.59-.3-.89s-.21-.61-.32-.91h-3.24c-.11.3-.21.61-.32.91s-.2.6-.29.89h-1.95c.31-.9.61-1.72.89-2.48s.56-1.48.83-2.15.53-1.31.79-1.92.53-1.19.81-1.77h1.78q.4.87.81,1.77c.26.61.53,1.25.8,1.92s.54,1.39.82,2.15.58,1.58.9,2.48Zm-2.25-6.43c0,.12-.1.28-.18.49s-.17.45-.28.72-.21.57-.34.9-.26.67-.39,1H352l-.37-1c-.12-.33-.23-.63-.34-.9l-.28-.72C351,194.1,350.88,193.94,350.83,193.82Z"/><path class="cls-11" d="M358.91,193.66a6.62,6.62,0,0,0,.73-.33,7.68,7.68,0,0,0,.74-.41,8.27,8.27,0,0,0,.69-.46,4.35,4.35,0,0,0,.59-.53h1.25v8.32h-1.79v-6a5.52,5.52,0,0,1-.8.44c-.3.13-.59.25-.87.34Z"/><path class="cls-9" d="M255.12,259.28S230.2,247.64,236.5,223.7"/><polyline class="cls-9" points="231.88 226.63 236.5 223.7 239.08 228.52"/><path class="cls-9" d="M255.12,280.71s-24.92,18.72-18.62,42.66"/><polyline class="cls-9" points="231.88 320.44 236.5 323.37 239.08 318.55"/><path class="cls-6" d="M363.46,8.25a5.26,5.26,0,0,1-2.14.39,3.77,3.77,0,0,1-4-4.09A4,4,0,0,1,361.55.3a4.4,4.4,0,0,1,1.92.36l-.25.85a3.85,3.85,0,0,0-1.63-.33,3,3,0,0,0-3.16,3.33,2.94,2.94,0,0,0,3.11,3.25,4.08,4.08,0,0,0,1.7-.34Z"/><path class="cls-6" d="M369.92,5.56A2.84,2.84,0,0,1,367,8.65a2.76,2.76,0,0,1-2.78-3,2.83,2.83,0,0,1,2.88-3.08A2.74,2.74,0,0,1,369.92,5.56Zm-4.6.06c0,1.28.73,2.24,1.76,2.24s1.76-1,1.76-2.26c0-1-.49-2.23-1.73-2.23S365.32,4.52,365.32,5.62Z"/><path class="cls-6" d="M371.27,4.28c0-.6,0-1.09,0-1.57h.94l.06,1h0a2.14,2.14,0,0,1,1.92-1.09c.8,0,2,.48,2,2.47V8.52h-1V5.17c0-.94-.35-1.72-1.35-1.72a1.51,1.51,0,0,0-1.41,1.08,1.53,1.53,0,0,0-.07.49v3.5h-1.06Z"/><path class="cls-6" d="M382.14,8.3a4,4,0,0,1-1.67.34,2.76,2.76,0,0,1-2.89-3,3,3,0,0,1,3.12-3.08,3.56,3.56,0,0,1,1.46.3l-.24.82a2.35,2.35,0,0,0-1.22-.28,2,2,0,0,0-2.05,2.19,2,2,0,0,0,2,2.18A3,3,0,0,0,382,7.51Z"/><path class="cls-6" d="M383.88,5.8a1.87,1.87,0,0,0,2,2,3.8,3.8,0,0,0,1.61-.3l.18.76a4.84,4.84,0,0,1-1.93.36,2.69,2.69,0,0,1-2.85-2.93c0-1.75,1-3.13,2.72-3.13A2.46,2.46,0,0,1,388,5.31a4,4,0,0,1,0,.49Zm3.1-.75a1.51,1.51,0,0,0-1.47-1.72,1.77,1.77,0,0,0-1.62,1.72Z"/><path class="cls-6" d="M389.31,4.61c0-.75,0-1.35-.05-1.9h.95l0,1h0a2.27,2.27,0,0,1,2.06-1.13c1.4,0,2.46,1.19,2.46,3,0,2.09-1.27,3.12-2.64,3.12a2.05,2.05,0,0,1-1.79-.91h0v3.15h-1Zm1,1.54a1.88,1.88,0,0,0,0,.43A1.62,1.62,0,0,0,392,7.82c1.12,0,1.76-.91,1.76-2.24,0-1.17-.61-2.16-1.72-2.16a1.69,1.69,0,0,0-1.6,1.31,1.93,1.93,0,0,0-.07.43Z"/><path class="cls-6" d="M397.18,1V2.71h1.51v.8h-1.51V6.64c0,.72.2,1.13.79,1.13a2.15,2.15,0,0,0,.61-.07l.05.79a2.44,2.44,0,0,1-.94.15,1.47,1.47,0,0,1-1.14-.45,2.2,2.2,0,0,1-.4-1.51V3.51h-.9v-.8h.9V1.32Z"/><path class="cls-6" d="M404.87,5.56A2.84,2.84,0,0,1,402,8.65a2.76,2.76,0,0,1-2.78-3,2.83,2.83,0,0,1,2.87-3.08A2.75,2.75,0,0,1,404.87,5.56Zm-4.61.06c0,1.28.73,2.24,1.77,2.24s1.76-1,1.76-2.26c0-1-.49-2.23-1.74-2.23S400.26,4.52,400.26,5.62Z"/><path class="cls-6" d="M406,7.44a2.82,2.82,0,0,0,1.39.42c.77,0,1.13-.39,1.13-.87s-.3-.78-1.08-1.07c-1-.37-1.53-.94-1.53-1.64a1.79,1.79,0,0,1,2-1.7,2.94,2.94,0,0,1,1.43.36l-.27.77a2.22,2.22,0,0,0-1.19-.34c-.62,0-1,.36-1,.79s.35.7,1.11,1c1,.38,1.52.88,1.52,1.75s-.79,1.74-2.17,1.74a3.3,3.3,0,0,1-1.63-.4Z"/><path class="cls-6" d="M417.54,8.3a4,4,0,0,1-1.67.34,2.76,2.76,0,0,1-2.89-3,3,3,0,0,1,3.12-3.08,3.56,3.56,0,0,1,1.46.3l-.24.82a2.35,2.35,0,0,0-1.22-.28,2,2,0,0,0-2.05,2.19,2,2,0,0,0,2,2.18,3,3,0,0,0,1.3-.29Z"/><path class="cls-6" d="M418.6,0h1V8.52h-1Z"/><path class="cls-6" d="M424.43,8.52l-.09-.74h0a2.17,2.17,0,0,1-1.78.87A1.65,1.65,0,0,1,420.76,7c0-1.4,1.25-2.17,3.49-2.16V4.7a1.19,1.19,0,0,0-1.32-1.34,2.93,2.93,0,0,0-1.51.43l-.24-.7a3.61,3.61,0,0,1,1.91-.51c1.77,0,2.2,1.21,2.2,2.37V7.12a8.44,8.44,0,0,0,.1,1.4Zm-.16-3c-1.15,0-2.46.18-2.46,1.31a.94.94,0,0,0,1,1,1.43,1.43,0,0,0,1.4-1,1,1,0,0,0,.06-.34Z"/><path class="cls-6" d="M427.11,2.71,428.25,6a15.54,15.54,0,0,1,.46,1.49h0c.13-.48.3-1,.49-1.49l1.13-3.26h1.1l-2.28,5.81h-1L426,2.71Z"/><path class="cls-6" d="M432.83,5.8a1.86,1.86,0,0,0,2,2,3.8,3.8,0,0,0,1.61-.3l.18.76a4.84,4.84,0,0,1-1.93.36,2.7,2.7,0,0,1-2.86-2.93c0-1.75,1-3.13,2.73-3.13a2.46,2.46,0,0,1,2.39,2.73,4.49,4.49,0,0,1,0,.49Zm3.09-.75a1.5,1.5,0,0,0-1.46-1.72,1.76,1.76,0,0,0-1.62,1.72Z"/><path class="cls-5" d="M294.05,15.18s-4.59,21-4.69,42.29,4.69,36.26,4.69,36.26,39.29,3.45,83,3.62c77.41.3,134.78-1.79,134.78-1.79s2.38-26.89,2.73-47c.41-23.17-4.54-33.37-4.54-33.37s-70.09-1.92-100.19-2S294.05,15.18,294.05,15.18Z"/><path class="cls-2" d="M363.46,447.62a5.26,5.26,0,0,1-2.14.39,3.77,3.77,0,0,1-4-4.09,4,4,0,0,1,4.22-4.25,4.4,4.4,0,0,1,1.92.36l-.25.85a3.85,3.85,0,0,0-1.63-.33,3,3,0,0,0-3.16,3.33,2.94,2.94,0,0,0,3.11,3.25,4.08,4.08,0,0,0,1.7-.34Z"/><path class="cls-2" d="M369.92,444.94A2.84,2.84,0,0,1,367,448a2.76,2.76,0,0,1-2.78-3,2.83,2.83,0,0,1,2.88-3.08A2.74,2.74,0,0,1,369.92,444.94Zm-4.6.05c0,1.28.73,2.24,1.76,2.24s1.76-1,1.76-2.26c0-1-.49-2.23-1.73-2.23S365.32,443.89,365.32,445Z"/><path class="cls-2" d="M371.27,443.65c0-.6,0-1.09,0-1.57h.94l.06,1h0a2.14,2.14,0,0,1,1.92-1.09c.8,0,2,.48,2,2.47v3.47h-1v-3.35c0-.94-.35-1.72-1.35-1.72a1.51,1.51,0,0,0-1.41,1.08,1.55,1.55,0,0,0-.07.5v3.49h-1.06Z"/><path class="cls-2" d="M382.14,447.67a4,4,0,0,1-1.67.34,2.76,2.76,0,0,1-2.89-3A3,3,0,0,1,380.7,442a3.56,3.56,0,0,1,1.46.3l-.24.82a2.35,2.35,0,0,0-1.22-.28,2.19,2.19,0,0,0,0,4.37,3,3,0,0,0,1.29-.29Z"/><path class="cls-2" d="M383.88,445.17a1.87,1.87,0,0,0,2,2,3.8,3.8,0,0,0,1.61-.3l.18.76a4.84,4.84,0,0,1-1.93.36,2.69,2.69,0,0,1-2.85-2.93c0-1.75,1-3.13,2.72-3.13a2.46,2.46,0,0,1,2.4,2.73,4,4,0,0,1,0,.49Zm3.1-.75a1.51,1.51,0,0,0-1.47-1.72,1.77,1.77,0,0,0-1.62,1.72Z"/><path class="cls-2" d="M389.31,444c0-.75,0-1.35-.05-1.9h.95l0,1h0a2.27,2.27,0,0,1,2.06-1.13c1.4,0,2.46,1.19,2.46,2.95,0,2.09-1.27,3.12-2.64,3.12a2.05,2.05,0,0,1-1.79-.91h0v3.15h-1Zm1,1.54a1.88,1.88,0,0,0,0,.43,1.62,1.62,0,0,0,1.58,1.24c1.12,0,1.76-.91,1.76-2.24,0-1.17-.61-2.16-1.72-2.16a1.69,1.69,0,0,0-1.6,1.31,1.93,1.93,0,0,0-.07.43Z"/><path class="cls-2" d="M397.18,440.41v1.67h1.51v.8h-1.51V446c0,.72.2,1.13.79,1.13a2.15,2.15,0,0,0,.61-.07l.05.79a2.65,2.65,0,0,1-.94.15,1.47,1.47,0,0,1-1.14-.45,2.2,2.2,0,0,1-.4-1.51v-3.17h-.9v-.8h.9v-1.39Z"/><path class="cls-2" d="M404.87,444.94A2.84,2.84,0,0,1,402,448a2.76,2.76,0,0,1-2.78-3,2.83,2.83,0,0,1,2.87-3.08A2.75,2.75,0,0,1,404.87,444.94Zm-4.61.05c0,1.28.73,2.24,1.77,2.24s1.76-1,1.76-2.26c0-1-.49-2.23-1.74-2.23S400.26,443.89,400.26,445Z"/><path class="cls-2" d="M406,446.81a2.82,2.82,0,0,0,1.39.42c.77,0,1.13-.39,1.13-.87s-.3-.78-1.08-1.07c-1-.37-1.53-.94-1.53-1.64a1.79,1.79,0,0,1,2-1.7,2.94,2.94,0,0,1,1.43.36l-.27.77a2.22,2.22,0,0,0-1.19-.34c-.62,0-1,.36-1,.79s.35.7,1.11,1c1,.38,1.52.88,1.52,1.75,0,1-.79,1.74-2.17,1.74a3.3,3.3,0,0,1-1.63-.4Z"/><path class="cls-2" d="M417.54,447.67a4,4,0,0,1-1.67.34,2.76,2.76,0,0,1-2.89-3A3,3,0,0,1,416.1,442a3.56,3.56,0,0,1,1.46.3l-.24.82a2.35,2.35,0,0,0-1.22-.28,2.19,2.19,0,0,0,0,4.37,3,3,0,0,0,1.3-.29Z"/><path class="cls-2" d="M418.6,439.37h1v8.52h-1Z"/><path class="cls-2" d="M424.43,447.89l-.09-.74h0a2.17,2.17,0,0,1-1.78.87,1.65,1.65,0,0,1-1.77-1.67c0-1.4,1.25-2.17,3.49-2.16v-.12a1.19,1.19,0,0,0-1.32-1.34,2.93,2.93,0,0,0-1.51.43l-.24-.7a3.61,3.61,0,0,1,1.91-.51c1.77,0,2.2,1.21,2.2,2.37v2.17a8.44,8.44,0,0,0,.1,1.4Zm-.16-3c-1.15,0-2.46.18-2.46,1.31a.94.94,0,0,0,1,1,1.43,1.43,0,0,0,1.4-1,1,1,0,0,0,.06-.34Z"/><path class="cls-2" d="M427.11,442.08l1.14,3.26a15.54,15.54,0,0,1,.46,1.49h0c.13-.48.3-1,.49-1.49l1.13-3.26h1.1l-2.28,5.81h-1l-2.2-5.81Z"/><path class="cls-2" d="M432.83,445.17a1.86,1.86,0,0,0,2,2,3.8,3.8,0,0,0,1.61-.3l.18.76a4.84,4.84,0,0,1-1.93.36,2.7,2.7,0,0,1-2.86-2.93c0-1.75,1-3.13,2.73-3.13a2.46,2.46,0,0,1,2.39,2.73,4.49,4.49,0,0,1,0,.49Zm3.09-.75a1.5,1.5,0,0,0-1.46-1.72,1.76,1.76,0,0,0-1.62,1.72Z"/><path class="cls-1" d="M294.05,454.55s-4.59,21.05-4.69,42.29,4.69,36.26,4.69,36.26,39.29,3.45,83,3.62c77.41.3,134.78-1.79,134.78-1.79s2.38-26.89,2.73-47c.41-23.17-4.54-33.37-4.54-33.37s-70.09-1.92-100.19-2S294.05,454.55,294.05,454.55Z"/><path class="cls-8" d="M119.91,8.25a5.16,5.16,0,0,1-2.13.39,3.78,3.78,0,0,1-4-4.09A4,4,0,0,1,118,.3a4.44,4.44,0,0,1,1.92.36l-.26.85A3.82,3.82,0,0,0,118,1.18a3,3,0,0,0-3.15,3.33A2.94,2.94,0,0,0,118,7.76a4.1,4.1,0,0,0,1.71-.34Z"/><path class="cls-8" d="M126.38,5.56a2.84,2.84,0,0,1-2.89,3.09,2.76,2.76,0,0,1-2.78-3,2.83,2.83,0,0,1,2.88-3.08A2.75,2.75,0,0,1,126.38,5.56Zm-4.6.06c0,1.28.73,2.24,1.76,2.24s1.76-1,1.76-2.26c0-1-.49-2.23-1.74-2.23S121.78,4.52,121.78,5.62Z"/><path class="cls-8" d="M127.73,4.28c0-.6,0-1.09,0-1.57h.94l.06,1h0a2.14,2.14,0,0,1,1.92-1.09c.8,0,2,.48,2,2.47V8.52h-1.06V5.17c0-.94-.34-1.72-1.34-1.72a1.51,1.51,0,0,0-1.41,1.08,1.53,1.53,0,0,0-.08.49v3.5h-1Z"/><path class="cls-8" d="M138.6,8.3a4,4,0,0,1-1.67.34,2.76,2.76,0,0,1-2.89-3,3,3,0,0,1,3.12-3.08,3.6,3.6,0,0,1,1.46.3l-.24.82a2.37,2.37,0,0,0-1.22-.28,2,2,0,0,0-2,2.19,2,2,0,0,0,2,2.18,3,3,0,0,0,1.3-.29Z"/><path class="cls-8" d="M140.34,5.8a1.86,1.86,0,0,0,2,2,3.8,3.8,0,0,0,1.61-.3l.18.76a4.84,4.84,0,0,1-1.93.36,2.7,2.7,0,0,1-2.86-2.93c0-1.75,1-3.13,2.72-3.13a2.46,2.46,0,0,1,2.4,2.73,4.49,4.49,0,0,1,0,.49Zm3.09-.75A1.5,1.5,0,0,0,142,3.33a1.76,1.76,0,0,0-1.62,1.72Z"/><path class="cls-8" d="M145.76,4.61c0-.75,0-1.35,0-1.9h.94l.05,1h0a2.27,2.27,0,0,1,2.06-1.13c1.4,0,2.46,1.19,2.46,3,0,2.09-1.27,3.12-2.64,3.12a2.05,2.05,0,0,1-1.79-.91h0v3.15h-1.05Zm1.05,1.54a1.88,1.88,0,0,0,.05.43,1.61,1.61,0,0,0,1.58,1.24c1.11,0,1.76-.91,1.76-2.24,0-1.17-.61-2.16-1.73-2.16a1.68,1.68,0,0,0-1.59,1.31,1.49,1.49,0,0,0-.07.43Z"/><path class="cls-8" d="M153.64,1V2.71h1.51v.8h-1.51V6.64c0,.72.2,1.13.79,1.13A2.21,2.21,0,0,0,155,7.7l.05.79a2.48,2.48,0,0,1-.94.15A1.46,1.46,0,0,1,153,8.19a2.15,2.15,0,0,1-.41-1.51V3.51h-.9v-.8h.9V1.32Z"/><path class="cls-8" d="M161.32,5.56a2.84,2.84,0,0,1-2.89,3.09,2.76,2.76,0,0,1-2.78-3,2.83,2.83,0,0,1,2.88-3.08A2.74,2.74,0,0,1,161.32,5.56Zm-4.6.06c0,1.28.73,2.24,1.76,2.24s1.77-1,1.77-2.26c0-1-.5-2.23-1.74-2.23S156.72,4.52,156.72,5.62Z"/><path class="cls-8" d="M162.42,7.44a2.79,2.79,0,0,0,1.39.42c.77,0,1.13-.39,1.13-.87s-.3-.78-1.08-1.07c-1-.37-1.54-.94-1.54-1.64a1.8,1.8,0,0,1,2-1.7,2.9,2.9,0,0,1,1.42.36l-.26.77a2.22,2.22,0,0,0-1.19-.34c-.62,0-1,.36-1,.79s.35.7,1.11,1c1,.38,1.52.88,1.52,1.75s-.79,1.74-2.17,1.74a3.27,3.27,0,0,1-1.63-.4Z"/><path class="cls-8" d="M174,8.3a4,4,0,0,1-1.67.34,2.76,2.76,0,0,1-2.89-3,3,3,0,0,1,3.12-3.08,3.6,3.6,0,0,1,1.46.3l-.24.82a2.37,2.37,0,0,0-1.22-.28,2,2,0,0,0-2.05,2.19,2,2,0,0,0,2,2.18,3,3,0,0,0,1.3-.29Z"/><path class="cls-8" d="M175.06,0h1.05V8.52h-1.05Z"/><path class="cls-8" d="M180.89,8.52l-.09-.74h0a2.17,2.17,0,0,1-1.78.87A1.65,1.65,0,0,1,177.22,7c0-1.4,1.24-2.17,3.49-2.16V4.7a1.2,1.2,0,0,0-1.32-1.34,2.9,2.9,0,0,0-1.51.43l-.24-.7a3.6,3.6,0,0,1,1.9-.51c1.78,0,2.21,1.21,2.21,2.37V7.12a7.49,7.49,0,0,0,.1,1.4Zm-.16-3c-1.15,0-2.46.18-2.46,1.31a.94.94,0,0,0,1,1,1.45,1.45,0,0,0,1.4-1,1,1,0,0,0,.06-.34Z"/><path class="cls-8" d="M183.56,2.71,184.7,6c.19.53.35,1,.47,1.49h0c.13-.48.3-1,.49-1.49l1.13-3.26h1.1l-2.28,5.81h-1l-2.2-5.81Z"/><path class="cls-8" d="M189.29,5.8a1.86,1.86,0,0,0,2,2,3.75,3.75,0,0,0,1.6-.3l.19.76a4.9,4.9,0,0,1-1.94.36,2.7,2.7,0,0,1-2.85-2.93c0-1.75,1-3.13,2.72-3.13a2.46,2.46,0,0,1,2.4,2.73,2.63,2.63,0,0,1,0,.49Zm3.09-.75a1.5,1.5,0,0,0-1.46-1.72,1.75,1.75,0,0,0-1.62,1.72Z"/><path class="cls-7" d="M57.83,15.18s-4.58,21-4.68,42.29,4.68,36.26,4.68,36.26,39.3,3.45,83.05,3.62c77.41.3,134.78-1.79,134.78-1.79s2.38-26.89,2.73-47c.41-23.17-4.54-33.37-4.54-33.37s-70.09-1.92-100.19-2S57.83,15.18,57.83,15.18Z"/><path class="cls-4" d="M119.91,447.62a5.16,5.16,0,0,1-2.13.39,3.78,3.78,0,0,1-4-4.09,4,4,0,0,1,4.23-4.25,4.44,4.44,0,0,1,1.92.36l-.26.85a3.82,3.82,0,0,0-1.63-.33,3,3,0,0,0-3.15,3.33,2.94,2.94,0,0,0,3.1,3.25,4.1,4.1,0,0,0,1.71-.34Z"/><path class="cls-4" d="M126.38,444.94a2.84,2.84,0,0,1-2.89,3.08,2.76,2.76,0,0,1-2.78-3,2.83,2.83,0,0,1,2.88-3.08A2.75,2.75,0,0,1,126.38,444.94Zm-4.6.05c0,1.28.73,2.24,1.76,2.24s1.76-1,1.76-2.26c0-1-.49-2.23-1.74-2.23S121.78,443.89,121.78,445Z"/><path class="cls-4" d="M127.73,443.65c0-.6,0-1.09,0-1.57h.94l.06,1h0a2.14,2.14,0,0,1,1.92-1.09c.8,0,2,.48,2,2.47v3.47h-1.06v-3.35c0-.94-.34-1.72-1.34-1.72a1.51,1.51,0,0,0-1.41,1.08,1.54,1.54,0,0,0-.08.5v3.49h-1Z"/><path class="cls-4" d="M138.6,447.67a4,4,0,0,1-1.67.34,2.76,2.76,0,0,1-2.89-3,3,3,0,0,1,3.12-3.08,3.6,3.6,0,0,1,1.46.3l-.24.82a2.37,2.37,0,0,0-1.22-.28,2.19,2.19,0,0,0,0,4.37,3,3,0,0,0,1.3-.29Z"/><path class="cls-4" d="M140.34,445.17a1.86,1.86,0,0,0,2,2,3.8,3.8,0,0,0,1.61-.3l.18.76a4.84,4.84,0,0,1-1.93.36,2.7,2.7,0,0,1-2.86-2.93c0-1.75,1-3.13,2.72-3.13a2.46,2.46,0,0,1,2.4,2.73,4.49,4.49,0,0,1,0,.49Zm3.09-.75A1.5,1.5,0,0,0,142,442.7a1.76,1.76,0,0,0-1.62,1.72Z"/><path class="cls-4" d="M145.76,444c0-.75,0-1.35,0-1.9h.94l.05,1h0A2.27,2.27,0,0,1,148.8,442c1.4,0,2.46,1.19,2.46,2.95,0,2.09-1.27,3.12-2.64,3.12a2.05,2.05,0,0,1-1.79-.91h0v3.15h-1.05Zm1.05,1.54a1.88,1.88,0,0,0,.05.43,1.61,1.61,0,0,0,1.58,1.24c1.11,0,1.76-.91,1.76-2.24,0-1.17-.61-2.16-1.73-2.16a1.68,1.68,0,0,0-1.59,1.31,1.49,1.49,0,0,0-.07.43Z"/><path class="cls-4" d="M153.64,440.41v1.67h1.51v.8h-1.51V446c0,.72.2,1.13.79,1.13a2.21,2.21,0,0,0,.61-.07l.05.79a2.7,2.7,0,0,1-.94.15,1.46,1.46,0,0,1-1.14-.45,2.15,2.15,0,0,1-.41-1.51v-3.17h-.9v-.8h.9v-1.39Z"/><path class="cls-4" d="M161.32,444.94a2.84,2.84,0,0,1-2.89,3.08,2.76,2.76,0,0,1-2.78-3,2.83,2.83,0,0,1,2.88-3.08A2.74,2.74,0,0,1,161.32,444.94Zm-4.6.05c0,1.28.73,2.24,1.76,2.24s1.77-1,1.77-2.26c0-1-.5-2.23-1.74-2.23S156.72,443.89,156.72,445Z"/><path class="cls-4" d="M162.42,446.81a2.79,2.79,0,0,0,1.39.42c.77,0,1.13-.39,1.13-.87s-.3-.78-1.08-1.07c-1-.37-1.54-.94-1.54-1.64a1.8,1.8,0,0,1,2-1.7,2.9,2.9,0,0,1,1.42.36l-.26.77a2.22,2.22,0,0,0-1.19-.34c-.62,0-1,.36-1,.79s.35.7,1.11,1c1,.38,1.52.88,1.52,1.75,0,1-.79,1.74-2.17,1.74a3.27,3.27,0,0,1-1.63-.4Z"/><path class="cls-4" d="M174,447.67a4,4,0,0,1-1.67.34,2.76,2.76,0,0,1-2.89-3,3,3,0,0,1,3.12-3.08,3.6,3.6,0,0,1,1.46.3l-.24.82a2.37,2.37,0,0,0-1.22-.28,2.19,2.19,0,0,0,0,4.37,3,3,0,0,0,1.3-.29Z"/><path class="cls-4" d="M175.06,439.37h1.05v8.52h-1.05Z"/><path class="cls-4" d="M180.89,447.89l-.09-.74h0A2.17,2.17,0,0,1,179,448a1.65,1.65,0,0,1-1.77-1.67c0-1.4,1.24-2.17,3.49-2.16v-.12a1.2,1.2,0,0,0-1.32-1.34,2.9,2.9,0,0,0-1.51.43l-.24-.7a3.6,3.6,0,0,1,1.9-.51c1.78,0,2.21,1.21,2.21,2.37v2.17a7.49,7.49,0,0,0,.1,1.4Zm-.16-3c-1.15,0-2.46.18-2.46,1.31a.94.94,0,0,0,1,1,1.45,1.45,0,0,0,1.4-1,1,1,0,0,0,.06-.34Z"/><path class="cls-4" d="M183.56,442.08l1.14,3.26c.19.53.35,1,.47,1.49h0c.13-.48.3-1,.49-1.49l1.13-3.26h1.1l-2.28,5.81h-1l-2.2-5.81Z"/><path class="cls-4" d="M189.29,445.17a1.86,1.86,0,0,0,2,2,3.75,3.75,0,0,0,1.6-.3l.19.76a4.9,4.9,0,0,1-1.94.36,2.7,2.7,0,0,1-2.85-2.93c0-1.75,1-3.13,2.72-3.13a2.46,2.46,0,0,1,2.4,2.73,2.63,2.63,0,0,1,0,.49Zm3.09-.75a1.5,1.5,0,0,0-1.46-1.72,1.75,1.75,0,0,0-1.62,1.72Z"/><path class="cls-3" d="M57.83,454.55s-4.58,21.05-4.68,42.29,4.68,36.26,4.68,36.26,39.3,3.45,83.05,3.62c77.41.3,134.78-1.79,134.78-1.79s2.38-26.89,2.73-47c.41-23.17-4.54-33.37-4.54-33.37s-70.09-1.92-100.19-2S57.83,454.55,57.83,454.55Z"/><path class="cls-13" d="M233.4,251.1s-.9,10.59-1,23.15,1,23.31,1,23.31,42.43,2.14,53.11,1.79l52-1.79s1.43-11.27,1.6-23.17a129.17,129.17,0,0,0-1.6-23.29s-39.45-1.71-54.1-1.79-51,1.79-51,1.79"/><path class="cls-11" d="M256.22,266c-.09-.29-.19-.58-.3-.89s-.21-.6-.31-.91h-3.25l-.32.92-.29.88H249.8c.32-.89.61-1.72.89-2.48s.56-1.48.83-2.15.53-1.31.79-1.91.53-1.2.81-1.77h1.78q.4.85.81,1.77c.26.6.53,1.24.8,1.91s.54,1.39.82,2.15.58,1.59.9,2.48ZM254,259.58c0,.12-.1.29-.18.49s-.17.45-.28.72-.21.58-.34.9-.26.68-.39,1h2.38l-.37-1c-.12-.33-.23-.63-.34-.9s-.2-.51-.28-.72S254,259.7,254,259.58Z"/><path class="cls-11" d="M261.18,266c-.33-.7-.66-1.42-1-2.17s-.63-1.5-.92-2.23-.55-1.44-.8-2.11-.45-1.27-.63-1.8h2.07c.15.48.33,1,.52,1.55s.38,1.11.58,1.66l.57,1.59c.18.5.35.94.52,1.31.15-.37.33-.8.51-1.31s.38-1,.58-1.58.39-1.11.58-1.66.36-1.08.52-1.56h2l-.64,1.8c-.25.67-.51,1.37-.8,2.11s-.59,1.48-.91,2.23-.64,1.48-1,2.17Z"/><path class="cls-11" d="M272.34,266c-.1-.29-.19-.58-.3-.89s-.21-.6-.32-.91h-3.25c-.1.31-.21.61-.31.92s-.21.6-.3.88h-1.94c.31-.89.61-1.72.89-2.48s.55-1.48.82-2.15.54-1.31.8-1.91.53-1.2.81-1.77H271c.27.57.54,1.16.8,1.77s.54,1.24.8,1.91.55,1.39.83,2.15.58,1.59.89,2.48Zm-2.25-6.43a5.12,5.12,0,0,1-.19.49l-.27.72c-.1.28-.22.58-.34.9s-.26.68-.39,1h2.38l-.37-1c-.12-.33-.24-.63-.34-.9s-.2-.51-.29-.72Z"/><path class="cls-11" d="M281.05,266q-.81-1.42-1.74-2.82a30.72,30.72,0,0,0-2-2.63V266h-1.85V257.7H277a13.06,13.06,0,0,1,.88,1c.32.38.65.79,1,1.23s.66.89,1,1.36.63.91.92,1.34v-4.9h1.86V266Z"/><path class="cls-11" d="M288.37,266.18a4,4,0,0,1-3.09-1.13,4.48,4.48,0,0,1-1.06-3.2,5,5,0,0,1,.32-1.84,4,4,0,0,1,.89-1.37,3.74,3.74,0,0,1,1.34-.85,4.93,4.93,0,0,1,1.7-.28,5.69,5.69,0,0,1,1,.07,7.58,7.58,0,0,1,.75.18,3.83,3.83,0,0,1,.54.21l.31.17-.54,1.51a4.35,4.35,0,0,0-.89-.34,4.13,4.13,0,0,0-1.16-.15,2.4,2.4,0,0,0-.84.15,1.92,1.92,0,0,0-.74.46,2.3,2.3,0,0,0-.51.82,3.63,3.63,0,0,0-.19,1.22,4.1,4.1,0,0,0,.13,1.08,2.22,2.22,0,0,0,.41.86,1.88,1.88,0,0,0,.73.56,2.53,2.53,0,0,0,1.11.21,5.44,5.44,0,0,0,.73,0,5.85,5.85,0,0,0,.58-.12,2.52,2.52,0,0,0,.44-.15l.35-.15.51,1.5A4.35,4.35,0,0,1,290,266,6.45,6.45,0,0,1,288.37,266.18Z"/><path class="cls-11" d="M292.38,266V257.7H298v1.57h-3.74v1.63h3.32v1.54h-3.32v2h4V266Z"/><path class="cls-11" d="M302.09,264.59a2.87,2.87,0,0,0,.65-.07,1,1,0,0,0,.41-.18.61.61,0,0,0,.22-.27,1,1,0,0,0,.06-.35.82.82,0,0,0-.38-.68,5.74,5.74,0,0,0-1.32-.58,8.26,8.26,0,0,1-.82-.33,2.77,2.77,0,0,1-.73-.47,2.11,2.11,0,0,1-.53-.68,2.09,2.09,0,0,1-.2-1,2.51,2.51,0,0,1,.21-1,2.33,2.33,0,0,1,.61-.78,2.92,2.92,0,0,1,1-.5,4.22,4.22,0,0,1,1.28-.17,4.83,4.83,0,0,1,1.45.18,5.63,5.63,0,0,1,1,.39l-.54,1.48a5.07,5.07,0,0,0-.78-.32,3.35,3.35,0,0,0-1-.14,1.84,1.84,0,0,0-1,.19.61.61,0,0,0-.29.57.65.65,0,0,0,.1.38,1.05,1.05,0,0,0,.31.28,2.19,2.19,0,0,0,.46.23l.57.21a11.39,11.39,0,0,1,1.12.48,2.81,2.81,0,0,1,.8.54,2.11,2.11,0,0,1,.48.73,3,3,0,0,1,.15,1,2.18,2.18,0,0,1-.81,1.81,4,4,0,0,1-2.46.64,6.11,6.11,0,0,1-1-.07,5,5,0,0,1-.79-.16,4.31,4.31,0,0,1-.58-.2,4.27,4.27,0,0,1-.42-.2l.53-1.49a5.2,5.2,0,0,0,.92.36A4.65,4.65,0,0,0,302.09,264.59Z"/><path class="cls-11" d="M309.68,266V257.7h5.62v1.57h-3.75v1.63h3.33v1.54h-3.33v2h4V266Z"/><path class="cls-11" d="M322.68,266q-.81-1.42-1.74-2.82a32.94,32.94,0,0,0-2-2.63V266H317.1V257.7h1.52a13.06,13.06,0,0,1,.88,1c.32.38.64.79,1,1.23s.66.89,1,1.36l.92,1.34v-4.9h1.86V266Z"/><path class="cls-11" d="M265.67,280.41q-.81-1.43-1.74-2.82a31.23,31.23,0,0,0-2-2.63v5.45h-1.85V272.1h1.52a13.06,13.06,0,0,1,.88,1c.32.38.64.79,1,1.23s.67.89,1,1.35l.92,1.35v-4.9h1.86v8.31Z"/><path class="cls-11" d="M272.49,280.58a4.08,4.08,0,0,1-1.51-.25,2.85,2.85,0,0,1-1.05-.68,2.78,2.78,0,0,1-.61-1,4.38,4.38,0,0,1-.2-1.34V272.1H271v5a2.7,2.7,0,0,0,.12.86,1.52,1.52,0,0,0,.31.58,1.11,1.11,0,0,0,.48.31,1.75,1.75,0,0,0,.62.1,1.53,1.53,0,0,0,1.11-.42,2,2,0,0,0,.42-1.43v-5h1.88v5.17a4.09,4.09,0,0,1-.21,1.34,2.64,2.64,0,0,1-.62,1.05,2.85,2.85,0,0,1-1.07.68A4.41,4.41,0,0,1,272.49,280.58Z"/><path class="cls-11" d="M277.81,280.41V272.1h5.62v1.57h-3.75v1.63H283v1.54h-3.33v2h4v1.57Z"/><path class="cls-11" d="M287.52,279a2.93,2.93,0,0,0,.65-.06,1.65,1.65,0,0,0,.42-.18.66.66,0,0,0,.21-.27,1,1,0,0,0,.06-.35.82.82,0,0,0-.38-.68,5.74,5.74,0,0,0-1.32-.58l-.82-.33a2.94,2.94,0,0,1-.73-.47,2.23,2.23,0,0,1-.53-.68,2.25,2.25,0,0,1-.2-1,2.51,2.51,0,0,1,.21-1,2.24,2.24,0,0,1,.62-.78,2.58,2.58,0,0,1,1-.5,4.14,4.14,0,0,1,1.27-.18,5.17,5.17,0,0,1,1.45.18,5.58,5.58,0,0,1,1,.4l-.54,1.48a4.69,4.69,0,0,0-.78-.32,3.35,3.35,0,0,0-1-.14,1.84,1.84,0,0,0-1,.19.63.63,0,0,0-.29.57.59.59,0,0,0,.11.38,1,1,0,0,0,.3.28,2.47,2.47,0,0,0,.46.23l.57.21c.43.16.81.32,1.13.47a3,3,0,0,1,.79.55,1.86,1.86,0,0,1,.48.73,3,3,0,0,1,.16,1,2.19,2.19,0,0,1-.82,1.81,3.93,3.93,0,0,1-2.46.64,6.11,6.11,0,0,1-1-.07,4.85,4.85,0,0,1-.78-.16,4,4,0,0,1-.59-.2,3.27,3.27,0,0,1-.42-.21l.53-1.48a5.52,5.52,0,0,0,.92.36A4.73,4.73,0,0,0,287.52,279Z"/><path class="cls-11" d="M298.44,272.1v1.59h-2.51v6.72h-1.87v-6.72h-2.51V272.1Z"/><path class="cls-11" d="M302.08,272a5.08,5.08,0,0,1,2.86.67,2.3,2.3,0,0,1,1,2.07,2.41,2.41,0,0,1-.4,1.42,2.74,2.74,0,0,1-1.16.86c.17.21.34.44.53.71l.54.84c.18.29.36.6.52.91s.33.63.47.93h-2.09l-.46-.83c-.16-.28-.32-.55-.49-.81s-.32-.52-.48-.75a7.12,7.12,0,0,0-.49-.64h-.92v3h-1.87v-8.19a10.33,10.33,0,0,1,1.26-.17C301.34,272,301.73,272,302.08,272Zm.1,1.6h-.36l-.31,0v2.26H302a3.12,3.12,0,0,0,1.51-.27,1.08,1.08,0,0,0,0-1.77A2.94,2.94,0,0,0,302.18,273.6Z"/><path class="cls-11" d="M313.64,280.41c-.09-.29-.19-.58-.3-.89l-.31-.91h-3.25c-.11.31-.21.61-.32.91l-.29.89h-1.95c.32-.89.61-1.72.89-2.48s.56-1.48.83-2.15.53-1.31.79-1.91.53-1.2.82-1.77h1.77q.4.86.81,1.77c.26.6.53,1.24.8,1.91s.54,1.39.83,2.15.57,1.59.89,2.48ZM311.39,274c0,.12-.1.29-.18.49s-.17.45-.28.72-.21.58-.34.9-.26.68-.39,1h2.38l-.37-1c-.12-.33-.23-.63-.34-.9s-.2-.51-.28-.72S311.44,274.1,311.39,274Z"/><path class="cls-11" d="M265.67,286.4a5.12,5.12,0,0,1,2.87.67,2.31,2.31,0,0,1,1,2.07,2.34,2.34,0,0,1-.4,1.42,2.68,2.68,0,0,1-1.16.86c.17.21.35.44.53.71s.37.55.55.84.35.6.52.91l.47.93h-2.1c-.15-.27-.31-.54-.46-.83s-.32-.55-.48-.81-.33-.52-.49-.75a7.11,7.11,0,0,0-.48-.64h-.93v3h-1.87v-8.19a10.23,10.23,0,0,1,1.27-.17C264.93,286.42,265.32,286.4,265.67,286.4Zm.11,1.6h-.37l-.31,0v2.26h.53a3.09,3.09,0,0,0,1.51-.27.93.93,0,0,0,.46-.9.92.92,0,0,0-.46-.86A2.76,2.76,0,0,0,265.78,288Z"/><path class="cls-11" d="M271.26,294.81V286.5h5.62v1.57h-3.75v1.63h3.32v1.54h-3.32v2h4v1.57Z"/><path class="cls-11" d="M281.21,294.81c-.33-.7-.66-1.42-1-2.17s-.63-1.5-.92-2.23-.55-1.44-.8-2.11l-.63-1.8H280c.15.48.33,1,.52,1.55s.38,1.11.58,1.66l.57,1.59c.18.5.35.94.52,1.3.15-.36.32-.79.51-1.3s.38-1,.57-1.58.39-1.11.59-1.66l.52-1.56h2l-.64,1.8c-.25.67-.51,1.37-.8,2.11s-.59,1.48-.91,2.23-.65,1.48-1,2.17Z"/><path class="cls-11" d="M287.46,286.5h1.87v8.31h-1.87Z"/><path class="cls-11" d="M293.6,293.39a3,3,0,0,0,.66-.07,1.2,1.2,0,0,0,.41-.18.69.69,0,0,0,.22-.27,1,1,0,0,0,.06-.35.81.81,0,0,0-.39-.68,5.36,5.36,0,0,0-1.32-.58c-.27-.1-.54-.2-.81-.33a2.82,2.82,0,0,1-.74-.47,2.2,2.2,0,0,1-.52-.68,2.09,2.09,0,0,1-.21-1,2.36,2.36,0,0,1,.22-1,2.21,2.21,0,0,1,.61-.78,2.73,2.73,0,0,1,1-.5,4.2,4.2,0,0,1,1.27-.17,5.15,5.15,0,0,1,1.45.17,5.3,5.3,0,0,1,1,.4l-.54,1.48a5,5,0,0,0-.77-.32,3.47,3.47,0,0,0-1-.14,1.77,1.77,0,0,0-1,.19.62.62,0,0,0-.3.57.66.66,0,0,0,.11.38.85.85,0,0,0,.31.28,2.37,2.37,0,0,0,.45.23l.57.21c.43.16.81.32,1.13.47a3,3,0,0,1,.8.55,2,2,0,0,1,.47.73,2.8,2.8,0,0,1,.16,1,2.16,2.16,0,0,1-.82,1.81,3.91,3.91,0,0,1-2.46.64,5.9,5.9,0,0,1-1-.07,5,5,0,0,1-.79-.16,4.49,4.49,0,0,1-.59-.2l-.41-.2.53-1.49a5.07,5.07,0,0,0,.91.36A4.7,4.7,0,0,0,293.6,293.39Z"/><path class="cls-11" d="M304.52,286.5v1.59H302v6.72h-1.87v-6.72h-2.51V286.5Z"/><path class="cls-11" d="M310.5,294.81c-.1-.29-.2-.58-.3-.89s-.21-.61-.32-.91h-3.25c-.1.31-.21.61-.31.92s-.21.6-.3.88h-1.94c.31-.89.61-1.72.89-2.48s.55-1.48.82-2.15.54-1.31.8-1.91.53-1.2.81-1.77h1.77q.42.86.81,1.77c.27.6.53,1.24.8,1.91s.55,1.39.83,2.15.58,1.59.89,2.48Zm-2.25-6.43a5.12,5.12,0,0,1-.19.49l-.27.72c-.1.28-.22.58-.34.9s-.26.68-.39,1h2.38l-.37-1c-.12-.33-.24-.63-.34-.9s-.2-.51-.29-.72Z"/></svg>