<svg id="Capa_1" data-name="Capa 1" xmlns="http://www.w3.org/2000/svg" viewBox="0 0 196.15 205"><defs><style>.cls-1{fill:#f39200;}</style></defs><path class="cls-1" d="M147.78,21.45C158.06,10,181.18,4.32,196.6,4.32l2,4.57L172.05,40.3l-59.39,78.51L71.54,182.49l-10,17.13c-1.43,2.85-3.14,6.28-6,8-3.72,1.71-12.28,1.71-16.28,1.71-9.14,0-11.14,0-13.13-1.42-2.86-2-4.29-6-6.28-10-6.29-13.13-17.42-41.68-17.42-56,0-4.85,2.85-7.14,6.57-9.71,6-4.28,14.56-9.13,22-9.13,5.71,0,6.28,4.85,8,9.42l5.7,13.42c.86,2.28,3.43,10.28,6.57,10.28,2.86,0,6.28-6.57,7.43-8.57l66-97.93Z" transform="translate(-2.45 -4.32)"/></svg>