<?xml version="1.0" encoding="utf-8"?>
<!-- Generator: Adobe Illustrator 23.0.3, SVG Export Plug-In . SVG Version: 6.00 Build 0)  -->
<svg version="1.1" id="Capa_1" xmlns="http://www.w3.org/2000/svg" xmlns:xlink="http://www.w3.org/1999/xlink" x="0px" y="0px"
	 viewBox="0 0 820 1060" style="enable-background:new 0 0 820 1060;" xml:space="preserve">
<style type="text/css">
	.st0{fill:#E95153;}
	.st1{clip-path:url(#SVGID_2_);}
	.st2{fill:#FCDBD2;}
	.st3{fill:none;}
	.st4{fill:#8DC6D3;}
	.st5{fill:#B3E0EF;}
</style>
<title>fondo_007</title>
<rect class="st0" width="820" height="1060"/>
<g>
	<defs>
		<rect id="SVGID_1_" width="820" height="1060"/>
	</defs>
	<clipPath id="SVGID_2_">
		<use xlink:href="#SVGID_1_"  style="overflow:visible;"/>
	</clipPath>
	<g class="st1">
		<path class="st2" d="M73.6,71.4c18.1-1.8,362.8,0,399.1,0S742,60,744.8,80.1c6,43.8,6,709.2,6,782.4c0,52.8-2.4,119.2-6,119.2
			s-601.1,23.5-676.1,6c-6-84.2-3.6-397-3.6-560.2C65.2,376.1,64,121,73.6,71.4"/>
	</g>
</g>
<rect class="st3" width="820" height="1060"/>
<rect class="st3" width="820" height="1060"/>
<path class="st4" d="M690.6,605.2c0,0-202,27.6-269.9,27.8c-70,0.2-270-6-304.2-8c-2.8-0.2-5.1-2.6-5.1-5.5l1-550.3h604.6l-4,514.9
	C713.1,599.2,705.2,605.2,690.6,605.2z"/>
<path class="st5" d="M685.8,613.4c0,0-203.3,12.9-271.2,13c-73.1,0.2-285.1-11.8-305.3-13c-0.9,0-1.6-0.8-1.6-1.7V69.2h604.6v517
	C712.3,601.3,700.4,613.4,685.8,613.4L685.8,613.4z"/>
<path class="st0" d="M56.8,71.2c0,0,507.5-5.7,605.4-1.9c37.3,1.4,63.9,1.1,76.7,5.3c13.9,4.5,24.4,4.4,34.1-6.6l17.2-19.6l-64.6-36
	L45.9,43.1L56.8,71.2z"/>
</svg>
