<?xml version="1.0" encoding="utf-8"?>
<!-- Generator: Adobe Illustrator 26.0.3, SVG Export Plug-In . SVG Version: 6.00 Build 0)  -->
<svg version="1.1" id="Capa_1" xmlns="http://www.w3.org/2000/svg" xmlns:xlink="http://www.w3.org/1999/xlink" x="0px" y="0px"
	 width="377.5px" height="183.2px" viewBox="0 0 377.5 183.2" style="enable-background:new 0 0 377.5 183.2;" xml:space="preserve"
	>
<style type="text/css">
	.st0{clip-path:url(#SVGID_00000040556058206596799710000001153881354352596408_);fill:#FFFFFF;}
	.st1{fill:none;stroke:#FFFFFF;stroke-width:3;}
	.st2{clip-path:url(#SVGID_00000023989944886599747180000011120907060751156116_);fill:#FFFFFF;}
	.st3{clip-path:url(#SVGID_00000007402736703189758360000001628914045241679014_);fill:#FFFFFF;}
	.st4{clip-path:url(#SVGID_00000035488738840418944820000004831662316136453261_);fill:#FFFFFF;}
	.st5{clip-path:url(#SVGID_00000024683517533962724030000005080491725370786983_);fill:#FFFFFF;}
</style>
<g>
	<defs>
		<rect id="SVGID_1_" x="-99.1" y="-37.1" width="595.9" height="765.5"/>
	</defs>
	<clipPath id="SVGID_00000134953571884483765090000010028551151281695874_">
		<use xlink:href="#SVGID_1_"  style="overflow:visible;"/>
	</clipPath>
	<path style="clip-path:url(#SVGID_00000134953571884483765090000010028551151281695874_);fill:#FFFFFF;" d="M181.3,115.5
		c37.9-0.7,48.9-2.1,49.4-25.2c0.4-21.8-34.2-26.5-84.4-25.8c-42.3,0.6-68,0.7-68.8,25.8c-0.8,24.4,32.9,26.2,87.4,25.3
		c2.4,0,2.8-0.1,5.1-0.2"/>
</g>
<g>
	<path d="M100.4,87.2c-0.6,0-1.2-0.1-1.7-0.3c-0.5-0.2-1-0.5-1.3-0.9c-0.4-0.4-0.7-0.9-0.9-1.5c-0.2-0.6-0.3-1.3-0.3-2
		c0-0.8,0.1-1.4,0.3-2c0.2-0.6,0.5-1.1,0.9-1.5c0.4-0.4,0.8-0.7,1.4-0.9c0.5-0.2,1.1-0.3,1.7-0.3c0.4,0,0.7,0,1,0.1
		c0.3,0.1,0.6,0.1,0.8,0.2c0.2,0.1,0.4,0.1,0.5,0.2s0.2,0.1,0.3,0.2l-0.4,1c-0.1-0.1-0.2-0.1-0.3-0.2c-0.1-0.1-0.3-0.1-0.5-0.2
		c-0.2-0.1-0.4-0.1-0.6-0.1c-0.2,0-0.4-0.1-0.7-0.1c-0.5,0-0.9,0.1-1.3,0.2c-0.4,0.2-0.7,0.4-1,0.7s-0.5,0.7-0.6,1.1
		c-0.1,0.4-0.2,0.9-0.2,1.5c0,0.5,0.1,1,0.2,1.5s0.3,0.8,0.6,1.1s0.6,0.6,0.9,0.7s0.8,0.3,1.3,0.3c0.6,0,1.1-0.1,1.4-0.2
		c0.4-0.1,0.7-0.2,0.9-0.3l0.3,1c-0.1,0-0.2,0.1-0.3,0.2c-0.2,0.1-0.4,0.1-0.6,0.2c-0.2,0.1-0.5,0.1-0.8,0.2
		C101.1,87.2,100.7,87.2,100.4,87.2z"/>
	<path d="M106.5,80.1c0.5,0,0.9,0.1,1.2,0.2c0.3,0.1,0.6,0.3,0.8,0.5c0.2,0.2,0.3,0.5,0.4,0.8c0.1,0.3,0.1,0.7,0.1,1v4.2
		c-0.1,0-0.2,0-0.4,0.1c-0.2,0-0.4,0.1-0.6,0.1s-0.5,0-0.8,0.1c-0.3,0-0.5,0-0.8,0c-0.4,0-0.7,0-1.1-0.1c-0.3-0.1-0.6-0.2-0.8-0.4
		c-0.2-0.2-0.4-0.4-0.5-0.7c-0.1-0.3-0.2-0.6-0.2-1c0-0.4,0.1-0.7,0.2-1s0.4-0.5,0.6-0.6c0.3-0.2,0.6-0.3,0.9-0.4
		c0.3-0.1,0.7-0.1,1.1-0.1c0.1,0,0.2,0,0.4,0c0.1,0,0.3,0,0.4,0.1c0.1,0,0.2,0,0.3,0.1c0.1,0,0.1,0,0.2,0v-0.3c0-0.2,0-0.4-0.1-0.6
		c0-0.2-0.1-0.4-0.2-0.5c-0.1-0.2-0.3-0.3-0.5-0.4c-0.2-0.1-0.4-0.1-0.8-0.1c-0.4,0-0.7,0-1,0.1c-0.3,0.1-0.5,0.1-0.7,0.2l-0.1-1
		c0.2-0.1,0.4-0.1,0.8-0.2C105.7,80.1,106.1,80.1,106.5,80.1z M106.7,86.1c0.3,0,0.5,0,0.8,0c0.2,0,0.4,0,0.6-0.1v-2
		c-0.1,0-0.2-0.1-0.4-0.1c-0.2,0-0.4,0-0.7,0c-0.2,0-0.4,0-0.6,0c-0.2,0-0.4,0.1-0.6,0.2c-0.2,0.1-0.3,0.2-0.4,0.3
		c-0.1,0.1-0.2,0.3-0.2,0.6c0,0.4,0.1,0.7,0.4,0.9S106.2,86.1,106.7,86.1z"/>
	<path d="M113.7,80.1c0.1,0,0.2,0,0.4,0c0.1,0,0.3,0,0.4,0.1c0.1,0,0.2,0,0.4,0.1c0.1,0,0.2,0,0.2,0.1l-0.2,1.1
		c-0.1,0-0.3-0.1-0.5-0.1c-0.2,0-0.5-0.1-0.9-0.1c-0.2,0-0.4,0-0.7,0.1c-0.2,0-0.4,0.1-0.4,0.1V87h-1.2v-6.5
		c0.3-0.1,0.6-0.2,1.1-0.3C112.7,80.1,113.2,80.1,113.7,80.1z"/>
	<path d="M118.3,80.1c0.5,0,0.9,0.1,1.2,0.2c0.3,0.1,0.6,0.3,0.8,0.5c0.2,0.2,0.3,0.5,0.4,0.8c0.1,0.3,0.1,0.7,0.1,1v4.2
		c-0.1,0-0.2,0-0.4,0.1s-0.4,0.1-0.6,0.1c-0.2,0-0.5,0-0.8,0.1c-0.3,0-0.5,0-0.8,0c-0.4,0-0.7,0-1.1-0.1c-0.3-0.1-0.6-0.2-0.8-0.4
		c-0.2-0.2-0.4-0.4-0.5-0.7c-0.1-0.3-0.2-0.6-0.2-1c0-0.4,0.1-0.7,0.2-1c0.2-0.3,0.4-0.5,0.6-0.6s0.6-0.3,0.9-0.4
		c0.3-0.1,0.7-0.1,1.1-0.1c0.1,0,0.2,0,0.4,0c0.1,0,0.3,0,0.4,0.1c0.1,0,0.2,0,0.3,0.1c0.1,0,0.1,0,0.2,0v-0.3c0-0.2,0-0.4-0.1-0.6
		c0-0.2-0.1-0.4-0.2-0.5c-0.1-0.2-0.3-0.3-0.5-0.4s-0.4-0.1-0.8-0.1c-0.4,0-0.7,0-1,0.1c-0.3,0.1-0.5,0.1-0.7,0.2l-0.1-1
		c0.2-0.1,0.4-0.1,0.8-0.2S117.9,80.1,118.3,80.1z M118.4,86.1c0.3,0,0.5,0,0.8,0c0.2,0,0.4,0,0.6-0.1v-2c-0.1,0-0.2-0.1-0.4-0.1
		s-0.4,0-0.7,0c-0.2,0-0.4,0-0.6,0c-0.2,0-0.4,0.1-0.6,0.2c-0.2,0.1-0.3,0.2-0.4,0.3c-0.1,0.1-0.2,0.3-0.2,0.6
		c0,0.4,0.1,0.7,0.4,0.9S117.9,86.1,118.4,86.1z"/>
	<path d="M125.9,87.1c-0.5,0-1-0.1-1.4-0.3c-0.4-0.2-0.8-0.4-1-0.7c-0.3-0.3-0.5-0.7-0.6-1.1c-0.1-0.4-0.2-0.9-0.2-1.4
		s0.1-1,0.2-1.4c0.2-0.4,0.4-0.8,0.6-1.1c0.3-0.3,0.6-0.6,1-0.7c0.4-0.2,0.9-0.3,1.3-0.3c0.3,0,0.6,0,0.9,0.1
		c0.3,0.1,0.6,0.1,0.9,0.2l-0.3,1c-0.2-0.1-0.4-0.2-0.6-0.2c-0.2-0.1-0.5-0.1-0.8-0.1c-0.7,0-1.2,0.2-1.6,0.6
		c-0.4,0.4-0.5,1-0.5,1.9c0,0.4,0,0.7,0.1,1c0.1,0.3,0.2,0.6,0.4,0.8s0.4,0.4,0.7,0.5s0.6,0.2,1,0.2c0.3,0,0.6,0,0.9-0.1
		s0.5-0.1,0.6-0.2l0.2,1c-0.1,0-0.2,0.1-0.3,0.1c-0.1,0-0.3,0.1-0.4,0.1c-0.2,0-0.3,0.1-0.5,0.1C126.3,87.1,126.1,87.1,125.9,87.1z"
		/>
	<path d="M130,80.2h2.6v1H130v3.1c0,0.3,0,0.6,0.1,0.8c0.1,0.2,0.1,0.4,0.2,0.5c0.1,0.1,0.2,0.2,0.4,0.3c0.2,0.1,0.3,0.1,0.5,0.1
		c0.4,0,0.7,0,0.9-0.1s0.4-0.1,0.5-0.2l0.2,1c-0.1,0.1-0.3,0.1-0.6,0.2c-0.3,0.1-0.7,0.1-1,0.1c-0.5,0-0.8-0.1-1.1-0.2
		c-0.3-0.1-0.5-0.3-0.7-0.5c-0.2-0.2-0.3-0.5-0.4-0.9c-0.1-0.3-0.1-0.7-0.1-1.2v-6l1.2-0.2V80.2z"/>
	<path d="M133.6,83.6c0-0.6,0.1-1.1,0.3-1.6c0.2-0.4,0.4-0.8,0.7-1.1c0.3-0.3,0.6-0.5,1-0.7s0.8-0.2,1.1-0.2c0.9,0,1.6,0.3,2.1,0.9
		c0.5,0.6,0.7,1.4,0.7,2.6c0,0.1,0,0.1,0,0.2c0,0.1,0,0.2,0,0.2h-4.6c0.1,0.7,0.3,1.2,0.6,1.6c0.4,0.4,0.9,0.5,1.7,0.5
		c0.4,0,0.8,0,1.1-0.1c0.3-0.1,0.5-0.1,0.7-0.2l0.2,1c-0.1,0.1-0.4,0.2-0.8,0.2s-0.8,0.1-1.3,0.1c-0.6,0-1.1-0.1-1.5-0.3
		c-0.4-0.2-0.8-0.4-1.1-0.7s-0.5-0.7-0.6-1.1C133.6,84.6,133.6,84.1,133.6,83.6z M138.2,83c0-0.5-0.1-1-0.4-1.3
		c-0.3-0.4-0.7-0.5-1.2-0.5c-0.3,0-0.5,0.1-0.7,0.2c-0.2,0.1-0.4,0.2-0.5,0.4s-0.3,0.4-0.3,0.6c-0.1,0.2-0.1,0.5-0.2,0.7H138.2z"/>
	<path d="M143.8,80.1c0.1,0,0.2,0,0.4,0c0.1,0,0.3,0,0.4,0.1c0.1,0,0.2,0,0.4,0.1c0.1,0,0.2,0,0.2,0.1l-0.2,1.1
		c-0.1,0-0.3-0.1-0.5-0.1c-0.2,0-0.5-0.1-0.9-0.1c-0.2,0-0.4,0-0.7,0.1c-0.2,0-0.4,0.1-0.4,0.1V87h-1.2v-6.5
		c0.3-0.1,0.6-0.2,1.1-0.3C142.8,80.1,143.2,80.1,143.8,80.1z"/>
	<path d="M148.5,77.7l-1.8,1.8l-0.6-0.5l1.7-2L148.5,77.7z M147.5,87h-1.2v-6.8h1.2V87z"/>
	<path d="M151.1,86.1c0.5,0,0.9-0.1,1.1-0.2s0.4-0.3,0.4-0.6c0-0.3-0.1-0.5-0.4-0.7c-0.2-0.2-0.6-0.4-1.2-0.6
		c-0.3-0.1-0.5-0.2-0.7-0.3s-0.4-0.2-0.6-0.4c-0.2-0.1-0.3-0.3-0.4-0.5c-0.1-0.2-0.2-0.5-0.2-0.8c0-0.6,0.2-1.1,0.7-1.4
		c0.4-0.4,1-0.5,1.8-0.5c0.2,0,0.4,0,0.6,0s0.4,0,0.5,0.1s0.3,0.1,0.4,0.1c0.1,0,0.2,0.1,0.3,0.1l-0.2,1c-0.1-0.1-0.3-0.1-0.6-0.2
		c-0.3-0.1-0.6-0.1-1-0.1c-0.3,0-0.6,0.1-0.9,0.2c-0.3,0.1-0.4,0.3-0.4,0.6c0,0.1,0,0.3,0.1,0.4c0.1,0.1,0.1,0.2,0.3,0.3
		c0.1,0.1,0.3,0.2,0.4,0.3c0.2,0.1,0.4,0.2,0.6,0.2c0.3,0.1,0.6,0.2,0.9,0.4c0.3,0.1,0.5,0.3,0.6,0.4c0.2,0.2,0.3,0.3,0.4,0.6
		c0.1,0.2,0.1,0.5,0.1,0.8c0,0.6-0.2,1.1-0.7,1.4c-0.5,0.3-1.1,0.5-2,0.5c-0.6,0-1.1,0-1.4-0.1s-0.6-0.2-0.7-0.2l0.2-1
		c0.1,0.1,0.4,0.1,0.7,0.2C150.2,86.1,150.6,86.1,151.1,86.1z"/>
	<path d="M156.4,80.2h2.6v1h-2.6v3.1c0,0.3,0,0.6,0.1,0.8c0.1,0.2,0.1,0.4,0.2,0.5c0.1,0.1,0.2,0.2,0.4,0.3c0.2,0.1,0.3,0.1,0.5,0.1
		c0.4,0,0.7,0,0.9-0.1s0.4-0.1,0.5-0.2l0.2,1c-0.1,0.1-0.3,0.1-0.6,0.2c-0.3,0.1-0.7,0.1-1,0.1c-0.5,0-0.8-0.1-1.1-0.2
		c-0.3-0.1-0.5-0.3-0.7-0.5c-0.2-0.2-0.3-0.5-0.4-0.9c-0.1-0.3-0.1-0.7-0.1-1.2v-6l1.2-0.2V80.2z"/>
	<path d="M161,79c-0.2,0-0.4-0.1-0.6-0.2c-0.2-0.1-0.2-0.3-0.2-0.6s0.1-0.4,0.2-0.6c0.2-0.1,0.3-0.2,0.6-0.2c0.2,0,0.4,0.1,0.6,0.2
		s0.2,0.3,0.2,0.6s-0.1,0.4-0.2,0.6C161.4,78.9,161.2,79,161,79z M161.6,87h-1.2v-6.8h1.2V87z"/>
	<path d="M166.6,87.1c-0.5,0-1-0.1-1.4-0.3c-0.4-0.2-0.8-0.4-1-0.7c-0.3-0.3-0.5-0.7-0.6-1.1c-0.1-0.4-0.2-0.9-0.2-1.4
		s0.1-1,0.2-1.4c0.2-0.4,0.4-0.8,0.6-1.1s0.6-0.6,1-0.7c0.4-0.2,0.9-0.3,1.3-0.3c0.3,0,0.6,0,0.9,0.1c0.3,0.1,0.6,0.1,0.9,0.2
		l-0.3,1c-0.2-0.1-0.4-0.2-0.6-0.2c-0.2-0.1-0.5-0.1-0.8-0.1c-0.7,0-1.2,0.2-1.6,0.6c-0.4,0.4-0.5,1-0.5,1.9c0,0.4,0,0.7,0.1,1
		c0.1,0.3,0.2,0.6,0.4,0.8s0.4,0.4,0.7,0.5s0.6,0.2,1,0.2c0.3,0,0.6,0,0.9-0.1c0.3-0.1,0.5-0.1,0.6-0.2l0.2,1
		c-0.1,0-0.2,0.1-0.3,0.1s-0.3,0.1-0.4,0.1c-0.2,0-0.3,0.1-0.5,0.1C166.9,87.1,166.8,87.1,166.6,87.1z"/>
	<path d="M171.7,80.1c0.5,0,0.9,0.1,1.2,0.2c0.3,0.1,0.6,0.3,0.8,0.5c0.2,0.2,0.3,0.5,0.4,0.8c0.1,0.3,0.1,0.7,0.1,1v4.2
		c-0.1,0-0.2,0-0.4,0.1c-0.2,0-0.4,0.1-0.6,0.1s-0.5,0-0.8,0.1c-0.3,0-0.5,0-0.8,0c-0.4,0-0.7,0-1.1-0.1c-0.3-0.1-0.6-0.2-0.8-0.4
		c-0.2-0.2-0.4-0.4-0.5-0.7c-0.1-0.3-0.2-0.6-0.2-1c0-0.4,0.1-0.7,0.2-1s0.4-0.5,0.6-0.6c0.3-0.2,0.6-0.3,0.9-0.4
		c0.3-0.1,0.7-0.1,1.1-0.1c0.1,0,0.2,0,0.4,0c0.1,0,0.3,0,0.4,0.1c0.1,0,0.2,0,0.3,0.1c0.1,0,0.1,0,0.2,0v-0.3c0-0.2,0-0.4-0.1-0.6
		c0-0.2-0.1-0.4-0.2-0.5c-0.1-0.2-0.3-0.3-0.5-0.4c-0.2-0.1-0.4-0.1-0.8-0.1c-0.4,0-0.7,0-1,0.1c-0.3,0.1-0.5,0.1-0.7,0.2l-0.1-1
		c0.2-0.1,0.4-0.1,0.8-0.2C170.9,80.1,171.3,80.1,171.7,80.1z M171.8,86.1c0.3,0,0.5,0,0.8,0c0.2,0,0.4,0,0.6-0.1v-2
		c-0.1,0-0.2-0.1-0.4-0.1c-0.2,0-0.4,0-0.7,0c-0.2,0-0.4,0-0.6,0c-0.2,0-0.4,0.1-0.6,0.2c-0.2,0.1-0.3,0.2-0.4,0.3
		c-0.1,0.1-0.2,0.3-0.2,0.6c0,0.4,0.1,0.7,0.4,0.9S171.4,86.1,171.8,86.1z"/>
	<path d="M177.9,86.1c0.5,0,0.9-0.1,1.1-0.2s0.4-0.3,0.4-0.6c0-0.3-0.1-0.5-0.4-0.7s-0.6-0.4-1.2-0.6c-0.3-0.1-0.5-0.2-0.7-0.3
		s-0.4-0.2-0.6-0.4c-0.2-0.1-0.3-0.3-0.4-0.5c-0.1-0.2-0.2-0.5-0.2-0.8c0-0.6,0.2-1.1,0.7-1.4c0.4-0.4,1-0.5,1.8-0.5
		c0.2,0,0.4,0,0.6,0c0.2,0,0.4,0,0.5,0.1c0.2,0,0.3,0.1,0.4,0.1c0.1,0,0.2,0.1,0.3,0.1l-0.2,1c-0.1-0.1-0.3-0.1-0.6-0.2
		c-0.3-0.1-0.6-0.1-1-0.1c-0.3,0-0.6,0.1-0.9,0.2c-0.3,0.1-0.4,0.3-0.4,0.6c0,0.1,0,0.3,0.1,0.4s0.1,0.2,0.3,0.3
		c0.1,0.1,0.3,0.2,0.4,0.3c0.2,0.1,0.4,0.2,0.6,0.2c0.3,0.1,0.6,0.2,0.9,0.4c0.3,0.1,0.5,0.3,0.6,0.4c0.2,0.2,0.3,0.3,0.4,0.6
		c0.1,0.2,0.1,0.5,0.1,0.8c0,0.6-0.2,1.1-0.7,1.4c-0.5,0.3-1.1,0.5-2,0.5c-0.6,0-1.1,0-1.4-0.1s-0.6-0.2-0.7-0.2l0.2-1
		c0.1,0.1,0.4,0.1,0.7,0.2C177,86.1,177.4,86.1,177.9,86.1z"/>
	<path d="M185,83.6c0-0.5,0.1-1,0.2-1.5c0.2-0.4,0.4-0.8,0.7-1.1c0.3-0.3,0.7-0.5,1.1-0.7s0.9-0.2,1.4-0.2c0.6,0,1.1,0,1.5,0.1
		c0.4,0.1,0.8,0.2,1.1,0.2v9h-1.2v-2.7c-0.1,0.1-0.4,0.2-0.7,0.3c-0.3,0.1-0.6,0.2-1,0.2c-0.5,0-0.9-0.1-1.3-0.3s-0.7-0.4-1-0.7
		s-0.5-0.7-0.6-1.1C185.1,84.6,185,84.1,185,83.6z M186.3,83.6c0,0.3,0,0.7,0.1,1s0.2,0.6,0.3,0.8c0.2,0.2,0.4,0.4,0.6,0.5
		c0.2,0.1,0.5,0.2,0.9,0.2c0.3,0,0.6-0.1,0.9-0.2c0.3-0.1,0.5-0.2,0.6-0.4v-4.3c-0.1,0-0.3-0.1-0.5-0.1c-0.2,0-0.5,0-0.9,0
		c-0.7,0-1.2,0.2-1.6,0.6C186.5,82.2,186.3,82.8,186.3,83.6z"/>
	<path d="M198.6,86.8c-0.3,0.1-0.6,0.1-1.1,0.2c-0.5,0.1-1,0.1-1.6,0.1c-0.5,0-1-0.1-1.3-0.2c-0.4-0.2-0.6-0.4-0.9-0.6
		s-0.4-0.6-0.5-1c-0.1-0.4-0.1-0.8-0.1-1.3v-3.8h1.2v3.5c0,0.8,0.1,1.4,0.4,1.8c0.3,0.4,0.7,0.5,1.3,0.5c0.1,0,0.3,0,0.4,0
		c0.1,0,0.3,0,0.4,0c0.1,0,0.2,0,0.3,0c0.1,0,0.2,0,0.2,0v-5.7h1.2V86.8z"/>
	<path d="M200.4,83.6c0-0.6,0.1-1.1,0.3-1.6c0.2-0.4,0.4-0.8,0.7-1.1s0.6-0.5,1-0.7c0.4-0.1,0.8-0.2,1.1-0.2c0.9,0,1.6,0.3,2.1,0.9
		c0.5,0.6,0.7,1.4,0.7,2.6c0,0.1,0,0.1,0,0.2c0,0.1,0,0.2,0,0.2h-4.6c0.1,0.7,0.3,1.2,0.6,1.6c0.4,0.4,0.9,0.5,1.7,0.5
		c0.4,0,0.8,0,1.1-0.1s0.5-0.1,0.7-0.2l0.2,1c-0.1,0.1-0.4,0.2-0.8,0.2s-0.8,0.1-1.3,0.1c-0.6,0-1.1-0.1-1.5-0.3
		c-0.4-0.2-0.8-0.4-1.1-0.7c-0.3-0.3-0.5-0.7-0.6-1.1C200.5,84.6,200.4,84.1,200.4,83.6z M205.1,83c0-0.5-0.1-1-0.4-1.3
		c-0.3-0.4-0.7-0.5-1.2-0.5c-0.3,0-0.5,0.1-0.7,0.2c-0.2,0.1-0.4,0.2-0.5,0.4s-0.3,0.4-0.3,0.6c-0.1,0.2-0.1,0.5-0.2,0.7H205.1z"/>
</g>
<g>
	<path d="M99,97.2h2.6v1H99v3.1c0,0.3,0,0.6,0.1,0.8c0.1,0.2,0.1,0.4,0.2,0.5c0.1,0.1,0.2,0.2,0.4,0.3c0.2,0.1,0.3,0.1,0.5,0.1
		c0.4,0,0.7,0,0.9-0.1c0.2-0.1,0.4-0.1,0.5-0.2l0.2,1c-0.1,0.1-0.3,0.1-0.6,0.2c-0.3,0.1-0.6,0.1-1,0.1c-0.5,0-0.8-0.1-1.1-0.2
		c-0.3-0.1-0.5-0.3-0.7-0.5c-0.2-0.2-0.3-0.5-0.4-0.9c-0.1-0.3-0.1-0.7-0.1-1.2v-6l1.2-0.2V97.2z"/>
	<path d="M103.5,96c-0.2,0-0.4-0.1-0.6-0.2c-0.2-0.1-0.2-0.3-0.2-0.6s0.1-0.4,0.2-0.6s0.3-0.2,0.6-0.2s0.4,0.1,0.6,0.2
		c0.2,0.1,0.2,0.3,0.2,0.6s-0.1,0.4-0.2,0.6C103.9,95.9,103.7,96,103.5,96z M104.1,104h-1.2v-6.8h1.2V104z"/>
	<path d="M105.9,100.6c0-0.6,0.1-1.1,0.3-1.6c0.2-0.4,0.4-0.8,0.7-1.1c0.3-0.3,0.6-0.5,1-0.7s0.8-0.2,1.1-0.2c0.9,0,1.6,0.3,2.1,0.9
		c0.5,0.6,0.7,1.4,0.7,2.6c0,0.1,0,0.1,0,0.2c0,0.1,0,0.2,0,0.2h-4.6c0.1,0.7,0.3,1.2,0.6,1.6c0.4,0.4,0.9,0.5,1.7,0.5
		c0.4,0,0.8,0,1.1-0.1c0.3-0.1,0.5-0.1,0.7-0.2l0.2,1c-0.1,0.1-0.4,0.2-0.8,0.2s-0.8,0.1-1.3,0.1c-0.6,0-1.1-0.1-1.5-0.3
		c-0.4-0.2-0.8-0.4-1.1-0.7s-0.5-0.7-0.6-1.1C105.9,101.6,105.9,101.1,105.9,100.6z M110.5,100c0-0.5-0.1-1-0.4-1.3
		c-0.3-0.4-0.7-0.5-1.2-0.5c-0.3,0-0.5,0.1-0.7,0.2c-0.2,0.1-0.4,0.2-0.5,0.4s-0.3,0.4-0.3,0.6c-0.1,0.2-0.1,0.5-0.2,0.7H110.5z"/>
	<path d="M113.6,97.4c0.3-0.1,0.6-0.1,1.1-0.2c0.5-0.1,1-0.1,1.6-0.1c0.5,0,1,0.1,1.3,0.2c0.4,0.2,0.6,0.4,0.9,0.6
		c0.2,0.3,0.4,0.6,0.4,1c0.1,0.4,0.1,0.8,0.1,1.3v3.8h-1.2v-3.5c0-0.4,0-0.8-0.1-1.1c-0.1-0.3-0.1-0.5-0.3-0.7s-0.3-0.3-0.5-0.4
		c-0.2-0.1-0.5-0.1-0.8-0.1c-0.1,0-0.3,0-0.4,0c-0.1,0-0.3,0-0.4,0c-0.1,0-0.2,0-0.3,0c-0.1,0-0.2,0-0.2,0v5.7h-1.2V97.4z"/>
	<path d="M120.8,100.6c0-0.6,0.1-1.1,0.3-1.6c0.2-0.4,0.4-0.8,0.7-1.1s0.6-0.5,1-0.7c0.4-0.1,0.8-0.2,1.1-0.2c0.9,0,1.6,0.3,2.1,0.9
		c0.5,0.6,0.7,1.4,0.7,2.6c0,0.1,0,0.1,0,0.2c0,0.1,0,0.2,0,0.2h-4.6c0.1,0.7,0.3,1.2,0.6,1.6c0.4,0.4,0.9,0.5,1.7,0.5
		c0.4,0,0.8,0,1.1-0.1s0.5-0.1,0.7-0.2l0.2,1c-0.1,0.1-0.4,0.2-0.8,0.2c-0.4,0.1-0.8,0.1-1.3,0.1c-0.6,0-1.1-0.1-1.5-0.3
		c-0.4-0.2-0.8-0.4-1.1-0.7s-0.5-0.7-0.6-1.1C120.9,101.6,120.8,101.1,120.8,100.6z M125.4,100c0-0.5-0.1-1-0.4-1.3
		c-0.3-0.4-0.7-0.5-1.2-0.5c-0.3,0-0.5,0.1-0.7,0.2c-0.2,0.1-0.4,0.2-0.5,0.4s-0.3,0.4-0.3,0.6c-0.1,0.2-0.1,0.5-0.2,0.7H125.4z"/>
	<path d="M137.1,103.8c-0.3,0.1-0.6,0.1-1.1,0.2c-0.5,0.1-1,0.1-1.6,0.1c-0.5,0-1-0.1-1.3-0.2c-0.4-0.2-0.6-0.4-0.9-0.6
		s-0.4-0.6-0.5-1c-0.1-0.4-0.1-0.8-0.1-1.3v-3.8h1.2v3.5c0,0.8,0.1,1.4,0.4,1.8c0.3,0.4,0.7,0.5,1.3,0.5c0.1,0,0.3,0,0.4,0
		c0.1,0,0.3,0,0.4,0c0.1,0,0.2,0,0.3,0c0.1,0,0.2,0,0.2,0v-5.7h1.2V103.8z"/>
	<path d="M139.3,97.4c0.3-0.1,0.6-0.1,1.1-0.2c0.5-0.1,1-0.1,1.6-0.1c0.5,0,1,0.1,1.3,0.2c0.4,0.2,0.6,0.4,0.9,0.6
		c0.2,0.3,0.4,0.6,0.4,1c0.1,0.4,0.1,0.8,0.1,1.3v3.8h-1.2v-3.5c0-0.4,0-0.8-0.1-1.1c-0.1-0.3-0.1-0.5-0.3-0.7s-0.3-0.3-0.5-0.4
		c-0.2-0.1-0.5-0.1-0.8-0.1c-0.1,0-0.3,0-0.4,0c-0.1,0-0.3,0-0.4,0c-0.1,0-0.2,0-0.3,0c-0.1,0-0.2,0-0.2,0v5.7h-1.2V97.4z"/>
	<path d="M151.2,97.5c0.1-0.1,0.4-0.2,0.7-0.3s0.6-0.2,1-0.2c0.5,0,0.9,0.1,1.3,0.3s0.7,0.4,1,0.7s0.5,0.7,0.6,1.1
		c0.1,0.4,0.2,0.9,0.2,1.4c0,0.5-0.1,1-0.2,1.5s-0.4,0.8-0.7,1.1s-0.7,0.5-1.1,0.7s-0.9,0.2-1.4,0.2c-0.6,0-1.1,0-1.5-0.1
		c-0.4-0.1-0.8-0.2-1.1-0.2v-9.7l1.2-0.2V97.5z M151.2,102.9c0.1,0,0.3,0.1,0.5,0.1c0.2,0,0.5,0,0.8,0c0.7,0,1.2-0.2,1.6-0.6
		c0.4-0.4,0.6-1,0.6-1.8c0-0.3,0-0.7-0.1-1s-0.2-0.6-0.3-0.8c-0.2-0.2-0.4-0.4-0.6-0.5c-0.2-0.1-0.5-0.2-0.9-0.2
		c-0.3,0-0.6,0.1-0.9,0.2c-0.3,0.1-0.5,0.2-0.6,0.4V102.9z"/>
	<path d="M163.2,103.8c-0.3,0.1-0.6,0.1-1.1,0.2c-0.5,0.1-1,0.1-1.6,0.1c-0.5,0-1-0.1-1.3-0.2c-0.4-0.2-0.6-0.4-0.9-0.6
		s-0.4-0.6-0.5-1c-0.1-0.4-0.1-0.8-0.1-1.3v-3.8h1.2v3.5c0,0.8,0.1,1.4,0.4,1.8c0.3,0.4,0.7,0.5,1.3,0.5c0.1,0,0.3,0,0.4,0
		c0.1,0,0.3,0,0.4,0c0.1,0,0.2,0,0.3,0c0.1,0,0.2,0,0.2,0v-5.7h1.2V103.8z"/>
	<path d="M165,100.6c0-0.6,0.1-1.1,0.3-1.6c0.2-0.4,0.4-0.8,0.7-1.1s0.6-0.5,1-0.7c0.4-0.1,0.8-0.2,1.1-0.2c0.9,0,1.6,0.3,2.1,0.9
		c0.5,0.6,0.7,1.4,0.7,2.6c0,0.1,0,0.1,0,0.2c0,0.1,0,0.2,0,0.2h-4.6c0.1,0.7,0.3,1.2,0.6,1.6c0.4,0.4,0.9,0.5,1.7,0.5
		c0.4,0,0.8,0,1.1-0.1s0.5-0.1,0.7-0.2l0.2,1c-0.1,0.1-0.4,0.2-0.8,0.2c-0.4,0.1-0.8,0.1-1.3,0.1c-0.6,0-1.1-0.1-1.5-0.3
		c-0.4-0.2-0.8-0.4-1.1-0.7s-0.5-0.7-0.6-1.1C165.1,101.6,165,101.1,165,100.6z M169.6,100c0-0.5-0.1-1-0.4-1.3
		c-0.3-0.4-0.7-0.5-1.2-0.5c-0.3,0-0.5,0.1-0.7,0.2c-0.2,0.1-0.4,0.2-0.5,0.4s-0.3,0.4-0.3,0.6c-0.1,0.2-0.1,0.5-0.2,0.7H169.6z"/>
	<path d="M172.7,97.4c0.3-0.1,0.6-0.1,1.1-0.2c0.5-0.1,1-0.1,1.6-0.1c0.5,0,1,0.1,1.3,0.2c0.4,0.2,0.6,0.4,0.9,0.6
		c0.2,0.3,0.4,0.6,0.4,1c0.1,0.4,0.1,0.8,0.1,1.3v3.8H177v-3.5c0-0.4,0-0.8-0.1-1.1c-0.1-0.3-0.1-0.5-0.3-0.7
		c-0.1-0.2-0.3-0.3-0.5-0.4s-0.5-0.1-0.8-0.1c-0.1,0-0.3,0-0.4,0c-0.1,0-0.3,0-0.4,0s-0.2,0-0.3,0c-0.1,0-0.2,0-0.2,0v5.7h-1.2V97.4
		z"/>
	<path d="M185.5,104.1c-0.7,0-1.3-0.2-1.6-0.5c-0.3-0.3-0.5-0.8-0.5-1.4v-8.1l1.2-0.2v8.1c0,0.2,0,0.4,0.1,0.5
		c0,0.1,0.1,0.2,0.2,0.3c0.1,0.1,0.2,0.1,0.3,0.2s0.3,0.1,0.5,0.1L185.5,104.1z"/>
	<path d="M186.6,100.6c0-0.6,0.1-1.1,0.3-1.6c0.2-0.4,0.4-0.8,0.7-1.1c0.3-0.3,0.6-0.5,1-0.7s0.8-0.2,1.1-0.2c0.9,0,1.6,0.3,2.1,0.9
		c0.5,0.6,0.7,1.4,0.7,2.6c0,0.1,0,0.1,0,0.2c0,0.1,0,0.2,0,0.2h-4.6c0.1,0.7,0.3,1.2,0.6,1.6c0.4,0.4,0.9,0.5,1.7,0.5
		c0.4,0,0.8,0,1.1-0.1c0.3-0.1,0.5-0.1,0.7-0.2l0.2,1c-0.1,0.1-0.4,0.2-0.8,0.2s-0.8,0.1-1.3,0.1c-0.6,0-1.1-0.1-1.5-0.3
		c-0.4-0.2-0.8-0.4-1.1-0.7s-0.5-0.7-0.6-1.1C186.7,101.6,186.6,101.1,186.6,100.6z M191.3,100c0-0.5-0.1-1-0.4-1.3
		c-0.3-0.4-0.7-0.5-1.2-0.5c-0.3,0-0.5,0.1-0.7,0.2c-0.2,0.1-0.4,0.2-0.5,0.4s-0.3,0.4-0.3,0.6c-0.1,0.2-0.1,0.5-0.2,0.7H191.3z"/>
	<path d="M194.3,97.4c0.3-0.1,0.6-0.1,1.1-0.2c0.5-0.1,1-0.1,1.6-0.1c0.4,0,0.8,0.1,1.1,0.2s0.5,0.3,0.7,0.5c0.1,0,0.2-0.1,0.3-0.2
		s0.3-0.2,0.5-0.2c0.2-0.1,0.4-0.1,0.6-0.2c0.2-0.1,0.5-0.1,0.8-0.1c0.5,0,0.9,0.1,1.3,0.2c0.3,0.2,0.6,0.4,0.8,0.6
		c0.2,0.3,0.3,0.6,0.4,1c0.1,0.4,0.1,0.8,0.1,1.2v3.8h-1.2v-3.5c0-0.4,0-0.7-0.1-1s-0.1-0.5-0.2-0.7c-0.1-0.2-0.3-0.3-0.4-0.4
		c-0.2-0.1-0.4-0.1-0.7-0.1c-0.4,0-0.7,0.1-1,0.2s-0.4,0.2-0.5,0.3c0.1,0.2,0.1,0.5,0.2,0.7c0,0.3,0.1,0.6,0.1,0.8v3.8h-1.2v-3.5
		c0-0.4,0-0.7-0.1-1c0-0.3-0.1-0.5-0.2-0.7c-0.1-0.2-0.3-0.3-0.4-0.4c-0.2-0.1-0.4-0.1-0.7-0.1c-0.1,0-0.3,0-0.4,0
		c-0.1,0-0.3,0-0.4,0c-0.1,0-0.2,0-0.3,0c-0.1,0-0.2,0-0.2,0v5.7h-1.2V97.4z"/>
	<path d="M207.7,97.1c0.5,0,0.9,0.1,1.2,0.2c0.3,0.1,0.6,0.3,0.8,0.5c0.2,0.2,0.3,0.5,0.4,0.8c0.1,0.3,0.1,0.7,0.1,1v4.2
		c-0.1,0-0.2,0-0.4,0.1s-0.4,0.1-0.6,0.1c-0.2,0-0.5,0-0.8,0.1c-0.3,0-0.5,0-0.8,0c-0.4,0-0.7,0-1.1-0.1c-0.3-0.1-0.6-0.2-0.8-0.4
		c-0.2-0.2-0.4-0.4-0.5-0.7c-0.1-0.3-0.2-0.6-0.2-1c0-0.4,0.1-0.7,0.2-1c0.2-0.3,0.4-0.5,0.6-0.6c0.3-0.2,0.6-0.3,0.9-0.4
		c0.3-0.1,0.7-0.1,1.1-0.1c0.1,0,0.2,0,0.4,0c0.1,0,0.3,0,0.4,0.1c0.1,0,0.2,0,0.3,0.1c0.1,0,0.1,0,0.2,0v-0.3c0-0.2,0-0.4-0.1-0.6
		c0-0.2-0.1-0.4-0.2-0.5c-0.1-0.2-0.3-0.3-0.5-0.4c-0.2-0.1-0.4-0.1-0.8-0.1c-0.4,0-0.7,0-1,0.1c-0.3,0.1-0.5,0.1-0.7,0.2l-0.1-1
		c0.2-0.1,0.4-0.1,0.8-0.2S207.3,97.1,207.7,97.1z M207.8,103.1c0.3,0,0.5,0,0.8,0c0.2,0,0.4,0,0.6-0.1v-2c-0.1,0-0.2-0.1-0.4-0.1
		c-0.2,0-0.4,0-0.7,0c-0.2,0-0.4,0-0.6,0c-0.2,0-0.4,0.1-0.6,0.2c-0.2,0.1-0.3,0.2-0.4,0.3c-0.1,0.1-0.2,0.3-0.2,0.6
		c0,0.4,0.1,0.7,0.4,0.9S207.3,103.1,207.8,103.1z"/>
</g>
<line class="st1" x1="203.5" y1="80.1" x2="256.5" y2="43.6"/>
<line class="st1" x1="211.6" y1="107.7" x2="255.5" y2="140.7"/>
<line class="st1" x1="131.3" y1="113.2" x2="90.5" y2="138.5"/>
<line class="st1" x1="118.4" y1="73.9" x2="75.9" y2="35.6"/>
<g>
	<defs>
		<rect id="SVGID_00000016058301646561413460000011163715704314445503_" x="-99.1" y="-37.1" width="595.9" height="765.5"/>
	</defs>
	<clipPath id="SVGID_00000174593946327213200390000006167692671178504592_">
		<use xlink:href="#SVGID_00000016058301646561413460000011163715704314445503_"  style="overflow:visible;"/>
	</clipPath>
	<path style="clip-path:url(#SVGID_00000174593946327213200390000006167692671178504592_);fill:#FFFFFF;" d="M210.1,134
		c0,0-5.7,0-5.7,5.7v28.6c0,0,0,5.7,5.7,5.7H296c0,0,5.7,0,5.7-5.7v-28.6c0,0,0-5.7-5.7-5.7H210.1z"/>
</g>
<g>
	<path d="M221.2,149v-8.3h4.8v0.7h-4v2.9h3.6v0.7H222v3.3h4.3v0.7H221.2z"/>
	<path d="M229.3,148.4c0.4,0,0.8-0.1,1.1-0.2s0.4-0.4,0.4-0.8c0-0.2,0-0.3-0.1-0.4c-0.1-0.1-0.1-0.2-0.3-0.3
		c-0.1-0.1-0.3-0.2-0.5-0.3c-0.2-0.1-0.4-0.2-0.7-0.3c-0.2-0.1-0.5-0.2-0.7-0.3c-0.2-0.1-0.4-0.2-0.6-0.3c-0.2-0.1-0.3-0.3-0.4-0.5
		c-0.1-0.2-0.1-0.4-0.1-0.7c0-0.5,0.2-0.9,0.6-1.2c0.4-0.3,0.9-0.5,1.6-0.5c0.4,0,0.8,0,1,0.1c0.3,0.1,0.5,0.1,0.6,0.2l-0.2,0.7
		c-0.1,0-0.3-0.1-0.5-0.2c-0.2-0.1-0.6-0.1-1-0.1c-0.2,0-0.3,0-0.5,0.1c-0.2,0-0.3,0.1-0.4,0.2s-0.2,0.2-0.3,0.3
		c-0.1,0.1-0.1,0.3-0.1,0.4s0,0.3,0.1,0.4c0.1,0.1,0.2,0.2,0.3,0.3s0.3,0.2,0.5,0.3s0.4,0.2,0.6,0.3c0.2,0.1,0.5,0.2,0.7,0.3
		s0.4,0.2,0.6,0.4c0.2,0.1,0.3,0.3,0.4,0.5c0.1,0.2,0.2,0.4,0.2,0.7c0,0.6-0.2,1-0.6,1.3s-1,0.4-1.7,0.4c-0.5,0-1,0-1.2-0.1
		s-0.5-0.2-0.6-0.2l0.2-0.7c0,0,0.1,0,0.2,0.1s0.2,0.1,0.3,0.1s0.3,0.1,0.5,0.1C228.9,148.4,229.1,148.4,229.3,148.4z"/>
	<path d="M238.5,149.1c-0.5,0-0.9-0.1-1.3-0.2s-0.7-0.4-0.9-0.7c-0.2-0.3-0.4-0.6-0.6-1s-0.2-0.8-0.2-1.3c0-0.5,0.1-0.9,0.2-1.3
		c0.1-0.4,0.3-0.7,0.6-1c0.2-0.3,0.5-0.5,0.9-0.7c0.4-0.2,0.7-0.2,1.2-0.2c0.3,0,0.7,0,0.9,0.1c0.3,0.1,0.5,0.1,0.7,0.2l-0.2,0.7
		c-0.2-0.1-0.3-0.1-0.5-0.2c-0.2,0-0.5-0.1-0.8-0.1c-0.7,0-1.2,0.2-1.6,0.7c-0.4,0.4-0.5,1.1-0.5,1.9c0,0.4,0,0.7,0.1,1
		c0.1,0.3,0.2,0.6,0.4,0.8c0.2,0.2,0.4,0.4,0.7,0.5c0.3,0.1,0.6,0.2,1,0.2c0.3,0,0.6,0,0.8-0.1c0.2-0.1,0.4-0.1,0.5-0.2l0.2,0.7
		c-0.1,0.1-0.4,0.2-0.7,0.2C239.2,149.1,238.8,149.1,238.5,149.1z"/>
	<path d="M243.6,142.7c0.3,0,0.5,0,0.7,0.1c0.2,0,0.4,0.1,0.5,0.1l-0.2,0.7c-0.1,0-0.2-0.1-0.4-0.1c-0.2,0-0.5-0.1-0.8-0.1
		c-0.3,0-0.6,0-0.8,0.1c-0.2,0-0.3,0.1-0.4,0.1v5.4h-0.8v-5.9c0.2-0.1,0.5-0.2,0.8-0.3C242.6,142.7,243.1,142.7,243.6,142.7z"/>
	<path d="M245.5,145.9c0-0.5,0.1-1,0.2-1.4c0.2-0.4,0.4-0.7,0.6-1s0.5-0.5,0.9-0.6c0.3-0.1,0.7-0.2,1-0.2c0.8,0,1.4,0.2,1.8,0.7
		c0.5,0.5,0.7,1.3,0.7,2.3c0,0.1,0,0.1,0,0.2c0,0.1,0,0.1,0,0.2h-4.4c0,0.8,0.2,1.3,0.6,1.8c0.4,0.4,0.9,0.6,1.7,0.6
		c0.4,0,0.8,0,1-0.1s0.4-0.1,0.5-0.2l0.1,0.7c-0.1,0.1-0.3,0.1-0.6,0.2s-0.7,0.1-1.1,0.1c-0.5,0-1-0.1-1.4-0.2
		c-0.4-0.2-0.7-0.4-0.9-0.7c-0.2-0.3-0.4-0.6-0.5-1C245.5,146.8,245.5,146.3,245.5,145.9z M249.9,145.4c0-0.6-0.2-1.2-0.5-1.5
		c-0.3-0.4-0.7-0.5-1.2-0.5c-0.3,0-0.5,0.1-0.8,0.2s-0.4,0.3-0.6,0.4c-0.2,0.2-0.3,0.4-0.4,0.7s-0.1,0.5-0.2,0.8H249.9z"/>
	<path d="M254.2,142.6c0.4,0,0.8,0.1,1,0.2c0.3,0.1,0.5,0.3,0.7,0.5c0.2,0.2,0.3,0.4,0.4,0.7c0.1,0.3,0.1,0.6,0.1,0.9v3.9
		c-0.1,0-0.2,0.1-0.3,0.1c-0.2,0-0.3,0.1-0.5,0.1c-0.2,0-0.4,0.1-0.7,0.1c-0.2,0-0.5,0-0.8,0c-0.3,0-0.6,0-0.9-0.1
		c-0.3-0.1-0.5-0.2-0.7-0.3c-0.2-0.2-0.4-0.4-0.5-0.6s-0.2-0.5-0.2-0.9c0-0.3,0.1-0.6,0.2-0.9c0.1-0.2,0.3-0.4,0.5-0.6
		c0.2-0.2,0.5-0.3,0.8-0.3c0.3-0.1,0.7-0.1,1-0.1c0.1,0,0.2,0,0.4,0c0.1,0,0.2,0,0.4,0c0.1,0,0.2,0,0.3,0.1c0.1,0,0.1,0,0.2,0.1
		v-0.4c0-0.2,0-0.4,0-0.6c0-0.2-0.1-0.4-0.2-0.6c-0.1-0.2-0.3-0.3-0.5-0.4c-0.2-0.1-0.5-0.1-0.8-0.1c-0.5,0-0.8,0-1,0.1
		c-0.2,0.1-0.4,0.1-0.5,0.2l-0.1-0.7c0.1-0.1,0.3-0.1,0.6-0.2C253.4,142.7,253.8,142.6,254.2,142.6z M254.3,148.4c0.3,0,0.6,0,0.8,0
		c0.2,0,0.4,0,0.6-0.1v-2.2c-0.1,0-0.2-0.1-0.4-0.1c-0.2,0-0.5-0.1-0.8-0.1c-0.2,0-0.4,0-0.6,0c-0.2,0-0.4,0.1-0.6,0.2
		c-0.2,0.1-0.3,0.2-0.4,0.4c-0.1,0.2-0.2,0.4-0.2,0.6c0,0.2,0,0.4,0.1,0.6c0.1,0.2,0.2,0.3,0.3,0.4c0.1,0.1,0.3,0.2,0.5,0.2
		C253.8,148.4,254,148.4,254.3,148.4z"/>
	<path d="M259.1,142.8h2.5v0.7h-2.5v3.3c0,0.4,0,0.6,0.1,0.9c0.1,0.2,0.1,0.4,0.3,0.5c0.1,0.1,0.2,0.2,0.4,0.2
		c0.2,0,0.3,0.1,0.5,0.1c0.3,0,0.6,0,0.8-0.1s0.4-0.1,0.5-0.2l0.2,0.6c-0.1,0.1-0.3,0.2-0.6,0.2s-0.6,0.1-0.9,0.1
		c-0.4,0-0.7,0-1-0.1s-0.5-0.3-0.6-0.5s-0.3-0.5-0.3-0.8c-0.1-0.3-0.1-0.7-0.1-1.1V141l0.8-0.1V142.8z"/>
	<path d="M264,140.9c0,0.2-0.1,0.3-0.2,0.4c-0.1,0.1-0.2,0.2-0.4,0.2s-0.3-0.1-0.4-0.2c-0.1-0.1-0.2-0.3-0.2-0.4
		c0-0.2,0.1-0.3,0.2-0.4c0.1-0.1,0.2-0.2,0.4-0.2s0.3,0.1,0.4,0.2C264,140.6,264,140.7,264,140.9z M263.9,149h-0.8v-6.2h0.8V149z"/>
	<path d="M267.8,148.1c0.2-0.3,0.3-0.7,0.5-1.2s0.3-0.9,0.5-1.4c0.2-0.5,0.3-1,0.5-1.4c0.1-0.5,0.3-0.9,0.4-1.4h0.8
		c-0.1,0.6-0.3,1.1-0.5,1.7c-0.2,0.6-0.4,1.1-0.6,1.6c-0.2,0.5-0.4,1-0.6,1.5c-0.2,0.5-0.4,0.9-0.6,1.4h-0.7
		c-0.2-0.4-0.4-0.9-0.6-1.4s-0.4-1-0.6-1.5c-0.2-0.5-0.4-1.1-0.6-1.6c-0.2-0.6-0.3-1.1-0.5-1.7h0.8c0.1,0.4,0.2,0.9,0.4,1.4
		c0.1,0.5,0.3,1,0.5,1.4c0.2,0.5,0.3,0.9,0.5,1.4S267.7,147.8,267.8,148.1z"/>
	<path d="M276.9,145.9c0,0.5-0.1,0.9-0.2,1.3c-0.1,0.4-0.3,0.7-0.6,1c-0.3,0.3-0.6,0.5-0.9,0.7c-0.3,0.2-0.7,0.2-1.1,0.2
		s-0.8-0.1-1.1-0.2c-0.3-0.2-0.6-0.4-0.9-0.7c-0.3-0.3-0.4-0.6-0.6-1c-0.1-0.4-0.2-0.8-0.2-1.3c0-0.5,0.1-0.9,0.2-1.3
		c0.1-0.4,0.3-0.7,0.6-1c0.3-0.3,0.5-0.5,0.9-0.7c0.3-0.2,0.7-0.2,1.1-0.2s0.8,0.1,1.1,0.2c0.3,0.2,0.6,0.4,0.9,0.7
		c0.3,0.3,0.4,0.6,0.6,1C276.8,145,276.9,145.4,276.9,145.9z M276.1,145.9c0-0.8-0.2-1.4-0.5-1.9c-0.4-0.5-0.8-0.7-1.5-0.7
		s-1.1,0.2-1.5,0.7c-0.4,0.5-0.5,1.1-0.5,1.9c0,0.8,0.2,1.4,0.5,1.8c0.4,0.5,0.8,0.7,1.5,0.7s1.1-0.2,1.5-0.7
		S276.1,146.7,276.1,145.9z"/>
	<path d="M283,149.1c-0.3-0.5-0.5-1-0.8-1.5c-0.2-0.5-0.5-1.1-0.7-1.6s-0.4-1.1-0.6-1.6s-0.3-1.1-0.5-1.6h0.8
		c0.1,0.4,0.2,0.8,0.3,1.2c0.1,0.4,0.3,0.9,0.5,1.4c0.2,0.5,0.4,1,0.6,1.5c0.2,0.5,0.4,1,0.7,1.5c0.2-0.5,0.3-1,0.5-1.4
		c0.1-0.4,0.3-0.9,0.4-1.3c0.1-0.4,0.2-0.9,0.3-1.3c0.1-0.5,0.2-0.9,0.3-1.5h0.8c-0.3,1.2-0.6,2.3-0.9,3.4c-0.3,1.1-0.7,2.1-1.1,3
		c-0.2,0.4-0.3,0.7-0.5,0.9c-0.2,0.3-0.3,0.5-0.5,0.6c-0.2,0.2-0.4,0.3-0.7,0.4c-0.3,0.1-0.6,0.1-0.9,0.1c-0.2,0-0.4,0-0.5-0.1
		c-0.2,0-0.3-0.1-0.3-0.1l0.2-0.6c0,0,0.1,0.1,0.3,0.1s0.3,0.1,0.5,0.1c0.2,0,0.4,0,0.6-0.1c0.2,0,0.3-0.1,0.5-0.2
		c0.1-0.1,0.3-0.3,0.4-0.4C282.8,149.6,282.9,149.4,283,149.1z"/>
</g>
<g>
	<path d="M233,163.2c-0.2,0.1-0.5,0.2-0.9,0.2c-0.4,0.1-0.8,0.1-1.4,0.1c-0.5,0-0.9-0.1-1.2-0.2s-0.7-0.4-1-0.6
		c-0.3-0.3-0.5-0.6-0.6-1c-0.1-0.4-0.2-0.9-0.2-1.4c0-0.5,0.1-0.9,0.2-1.3s0.3-0.7,0.5-1c0.2-0.3,0.5-0.5,0.9-0.7
		c0.3-0.2,0.7-0.2,1.2-0.2c0.4,0,0.8,0.1,1.1,0.2c0.3,0.1,0.5,0.2,0.7,0.3v-3.3l0.8-0.1V163.2z M232.2,158.3
		c-0.1-0.1-0.2-0.1-0.3-0.2s-0.2-0.1-0.4-0.2c-0.1-0.1-0.3-0.1-0.5-0.1c-0.2,0-0.3-0.1-0.5-0.1c-0.4,0-0.7,0.1-1,0.2
		c-0.3,0.1-0.5,0.3-0.6,0.5c-0.2,0.2-0.3,0.5-0.3,0.8c-0.1,0.3-0.1,0.6-0.1,1c0,0.8,0.2,1.4,0.6,1.9c0.4,0.4,0.9,0.7,1.6,0.7
		c0.4,0,0.7,0,0.9-0.1c0.2,0,0.4-0.1,0.5-0.1V158.3z"/>
	<path d="M236,155.3c0,0.2-0.1,0.3-0.2,0.4c-0.1,0.1-0.2,0.2-0.4,0.2s-0.3-0.1-0.4-0.2c-0.1-0.1-0.2-0.3-0.2-0.4
		c0-0.2,0.1-0.3,0.2-0.4c0.1-0.1,0.2-0.2,0.4-0.2s0.3,0.1,0.4,0.2C235.9,155,236,155.1,236,155.3z M235.8,163.4H235v-6.2h0.8V163.4z
		"/>
	<path d="M240.1,154.1c0.3,0,0.6,0,0.8,0.1s0.3,0.1,0.4,0.1l-0.2,0.7c-0.1,0-0.2-0.1-0.4-0.1s-0.4-0.1-0.7-0.1
		c-0.6,0-0.9,0.1-1.2,0.4c-0.2,0.3-0.4,0.7-0.4,1.3v0.6h2.5v0.7h-2.5v5.5h-0.8v-6.9c0-0.8,0.2-1.4,0.6-1.8
		C238.7,154.3,239.3,154.1,240.1,154.1z"/>
	<path d="M241.8,160.3c0-0.5,0.1-1,0.2-1.4c0.2-0.4,0.4-0.7,0.6-1s0.5-0.5,0.9-0.6c0.3-0.1,0.7-0.2,1-0.2c0.8,0,1.4,0.2,1.8,0.7
		c0.5,0.5,0.7,1.3,0.7,2.3c0,0.1,0,0.1,0,0.2c0,0.1,0,0.1,0,0.2h-4.4c0,0.8,0.2,1.3,0.6,1.8c0.4,0.4,0.9,0.6,1.7,0.6
		c0.4,0,0.8,0,1-0.1s0.4-0.1,0.5-0.2l0.1,0.7c-0.1,0.1-0.3,0.1-0.6,0.2s-0.7,0.1-1.1,0.1c-0.5,0-1-0.1-1.4-0.2
		c-0.4-0.2-0.7-0.4-0.9-0.7c-0.2-0.3-0.4-0.6-0.5-1C241.9,161.2,241.8,160.7,241.8,160.3z M246.2,159.8c0-0.6-0.2-1.2-0.5-1.5
		c-0.3-0.4-0.7-0.5-1.2-0.5c-0.3,0-0.5,0.1-0.8,0.2s-0.4,0.3-0.6,0.4c-0.2,0.2-0.3,0.4-0.4,0.7s-0.1,0.5-0.2,0.8H246.2z"/>
	<path d="M250.8,157.1c0.3,0,0.5,0,0.7,0.1c0.2,0,0.4,0.1,0.5,0.1l-0.2,0.7c-0.1,0-0.2-0.1-0.4-0.1c-0.2,0-0.5-0.1-0.8-0.1
		c-0.3,0-0.6,0-0.8,0.1c-0.2,0-0.3,0.1-0.4,0.1v5.4h-0.8v-5.9c0.2-0.1,0.5-0.2,0.8-0.3C249.9,157.1,250.3,157.1,250.8,157.1z"/>
	<path d="M252.7,160.3c0-0.5,0.1-1,0.2-1.4c0.2-0.4,0.4-0.7,0.6-1s0.5-0.5,0.9-0.6c0.3-0.1,0.7-0.2,1-0.2c0.8,0,1.4,0.2,1.8,0.7
		c0.5,0.5,0.7,1.3,0.7,2.3c0,0.1,0,0.1,0,0.2c0,0.1,0,0.1,0,0.2h-4.4c0,0.8,0.2,1.3,0.6,1.8c0.4,0.4,0.9,0.6,1.7,0.6
		c0.4,0,0.8,0,1-0.1s0.4-0.1,0.5-0.2l0.1,0.7c-0.1,0.1-0.3,0.1-0.6,0.2s-0.7,0.1-1.1,0.1c-0.5,0-1-0.1-1.4-0.2
		c-0.4-0.2-0.7-0.4-0.9-0.7c-0.2-0.3-0.4-0.6-0.5-1C252.7,161.2,252.7,160.7,252.7,160.3z M257.1,159.8c0-0.6-0.2-1.2-0.5-1.5
		c-0.3-0.4-0.7-0.5-1.2-0.5c-0.3,0-0.5,0.1-0.8,0.2s-0.4,0.3-0.6,0.4c-0.2,0.2-0.3,0.4-0.4,0.7s-0.1,0.5-0.2,0.8H257.1z"/>
	<path d="M259.5,157.4c0.2-0.1,0.5-0.1,0.9-0.2c0.4-0.1,0.9-0.1,1.4-0.1c0.5,0,0.9,0.1,1.2,0.2c0.3,0.1,0.6,0.3,0.8,0.6
		c0.2,0.3,0.3,0.6,0.4,0.9s0.1,0.7,0.1,1.2v3.5h-0.8v-3.2c0-0.4,0-0.8-0.1-1.1c-0.1-0.3-0.2-0.6-0.3-0.7c-0.1-0.2-0.3-0.3-0.6-0.4
		c-0.2-0.1-0.5-0.1-0.9-0.1c-0.4,0-0.7,0-1,0.1c-0.3,0-0.4,0.1-0.5,0.1v5.4h-0.8V157.4z"/>
	<path d="M267,157.2h2.5v0.7H267v3.3c0,0.4,0,0.6,0.1,0.9c0.1,0.2,0.1,0.4,0.3,0.5c0.1,0.1,0.2,0.2,0.4,0.2c0.2,0,0.3,0.1,0.5,0.1
		c0.3,0,0.6,0,0.8-0.1s0.4-0.1,0.5-0.2l0.2,0.6c-0.1,0.1-0.3,0.2-0.6,0.2s-0.6,0.1-0.9,0.1c-0.4,0-0.7,0-1-0.1s-0.5-0.3-0.6-0.5
		s-0.3-0.5-0.3-0.8c-0.1-0.3-0.1-0.7-0.1-1.1v-5.7l0.8-0.1V157.2z"/>
	<path d="M270.5,160.3c0-0.5,0.1-1,0.2-1.4c0.2-0.4,0.4-0.7,0.6-1s0.5-0.5,0.9-0.6c0.3-0.1,0.7-0.2,1-0.2c0.8,0,1.4,0.2,1.8,0.7
		c0.5,0.5,0.7,1.3,0.7,2.3c0,0.1,0,0.1,0,0.2c0,0.1,0,0.1,0,0.2h-4.4c0,0.8,0.2,1.3,0.6,1.8c0.4,0.4,0.9,0.6,1.7,0.6
		c0.4,0,0.8,0,1-0.1s0.4-0.1,0.5-0.2l0.1,0.7c-0.1,0.1-0.3,0.1-0.6,0.2s-0.7,0.1-1.1,0.1c-0.5,0-1-0.1-1.4-0.2
		c-0.4-0.2-0.7-0.4-0.9-0.7c-0.2-0.3-0.4-0.6-0.5-1C270.6,161.2,270.5,160.7,270.5,160.3z M274.9,159.8c0-0.6-0.2-1.2-0.5-1.5
		c-0.3-0.4-0.7-0.5-1.2-0.5c-0.3,0-0.5,0.1-0.8,0.2s-0.4,0.3-0.6,0.4c-0.2,0.2-0.3,0.4-0.4,0.7s-0.1,0.5-0.2,0.8H274.9z"/>
	<path d="M278.3,162.9c0,0.2-0.1,0.3-0.2,0.5s-0.3,0.2-0.5,0.2s-0.4-0.1-0.5-0.2c-0.1-0.1-0.2-0.3-0.2-0.5c0-0.2,0.1-0.3,0.2-0.5
		c0.1-0.1,0.3-0.2,0.5-0.2s0.4,0.1,0.5,0.2S278.3,162.7,278.3,162.9z"/>
</g>
<g>
	<defs>
		<rect id="SVGID_00000081628196285954522980000006508264899578566798_" x="-99.1" y="-37.1" width="595.9" height="765.5"/>
	</defs>
	<clipPath id="SVGID_00000011711279306264868610000015811247398321031862_">
		<use xlink:href="#SVGID_00000081628196285954522980000006508264899578566798_"  style="overflow:visible;"/>
	</clipPath>
	<path style="clip-path:url(#SVGID_00000011711279306264868610000015811247398321031862_);fill:#FFFFFF;" d="M45.2,129
		c0,0-5.7,0-5.7,5.7v26.7c0,0,0,5.7,5.7,5.7h77.9c0,0,5.7,0,5.7-5.7v-26.7c0,0,0-5.7-5.7-5.7H45.2z"/>
</g>
<g>
	<path d="M58.3,144v-8.3h4.8v0.7h-4v2.9h3.6v0.7h-3.6v3.3h4.3v0.7H58.3z"/>
	<path d="M66.4,143.4c0.4,0,0.8-0.1,1.1-0.2s0.4-0.4,0.4-0.8c0-0.2,0-0.3-0.1-0.4c-0.1-0.1-0.1-0.2-0.3-0.3
		c-0.1-0.1-0.3-0.2-0.5-0.3c-0.2-0.1-0.4-0.2-0.7-0.3c-0.2-0.1-0.5-0.2-0.7-0.3c-0.2-0.1-0.4-0.2-0.6-0.3c-0.2-0.1-0.3-0.3-0.4-0.5
		s-0.1-0.4-0.1-0.7c0-0.5,0.2-0.9,0.6-1.2s0.9-0.5,1.6-0.5c0.4,0,0.8,0,1,0.1c0.3,0.1,0.5,0.1,0.6,0.2l-0.2,0.7
		c-0.1,0-0.3-0.1-0.5-0.2s-0.6-0.1-1-0.1c-0.2,0-0.3,0-0.5,0.1s-0.3,0.1-0.4,0.2s-0.2,0.2-0.3,0.3s-0.1,0.3-0.1,0.4s0,0.3,0.1,0.4
		c0.1,0.1,0.2,0.2,0.3,0.3s0.3,0.2,0.5,0.3c0.2,0.1,0.4,0.2,0.6,0.3c0.2,0.1,0.5,0.2,0.7,0.3s0.4,0.2,0.6,0.4
		c0.2,0.1,0.3,0.3,0.4,0.5c0.1,0.2,0.2,0.4,0.2,0.7c0,0.6-0.2,1-0.6,1.3s-1,0.4-1.7,0.4c-0.5,0-1,0-1.2-0.1s-0.5-0.2-0.6-0.2
		l0.2-0.7c0,0,0.1,0,0.2,0.1s0.2,0.1,0.3,0.1c0.1,0,0.3,0.1,0.5,0.1C65.9,143.4,66.1,143.4,66.4,143.4z"/>
	<path d="M75.3,134.7c0.3,0,0.6,0,0.8,0.1s0.3,0.1,0.4,0.1l-0.2,0.7c-0.1,0-0.2-0.1-0.4-0.1s-0.4-0.1-0.7-0.1
		c-0.6,0-0.9,0.1-1.2,0.4c-0.2,0.3-0.4,0.7-0.4,1.3v0.6h2.5v0.7h-2.5v5.5H73v-6.9c0-0.8,0.2-1.4,0.6-1.8
		C73.9,134.9,74.5,134.7,75.3,134.7z"/>
	<path d="M79.3,137.7c0.4,0,0.8,0.1,1,0.2c0.3,0.1,0.5,0.3,0.7,0.5c0.2,0.2,0.3,0.4,0.4,0.7c0.1,0.3,0.1,0.6,0.1,0.9v3.9
		c-0.1,0-0.2,0.1-0.3,0.1c-0.2,0-0.3,0.1-0.5,0.1s-0.4,0.1-0.7,0.1s-0.5,0-0.8,0c-0.3,0-0.6,0-0.9-0.1c-0.3-0.1-0.5-0.2-0.7-0.3
		c-0.2-0.2-0.4-0.4-0.5-0.6c-0.1-0.2-0.2-0.5-0.2-0.9c0-0.3,0.1-0.6,0.2-0.9c0.1-0.2,0.3-0.4,0.5-0.6c0.2-0.2,0.5-0.3,0.8-0.3
		c0.3-0.1,0.7-0.1,1-0.1c0.1,0,0.2,0,0.4,0c0.1,0,0.2,0,0.4,0s0.2,0,0.3,0.1c0.1,0,0.1,0,0.2,0.1v-0.4c0-0.2,0-0.4,0-0.6
		c0-0.2-0.1-0.4-0.2-0.6c-0.1-0.2-0.3-0.3-0.5-0.4c-0.2-0.1-0.5-0.1-0.8-0.1c-0.5,0-0.8,0-1,0.1c-0.2,0.1-0.4,0.1-0.5,0.2l-0.1-0.7
		c0.1-0.1,0.3-0.1,0.6-0.2C78.6,137.7,78.9,137.7,79.3,137.7z M79.4,143.4c0.3,0,0.6,0,0.8,0c0.2,0,0.4,0,0.6-0.1v-2.2
		c-0.1,0-0.2-0.1-0.4-0.1c-0.2,0-0.5-0.1-0.8-0.1c-0.2,0-0.4,0-0.6,0c-0.2,0-0.4,0.1-0.6,0.2c-0.2,0.1-0.3,0.2-0.4,0.4
		c-0.1,0.2-0.2,0.4-0.2,0.6c0,0.2,0,0.4,0.1,0.6c0.1,0.2,0.2,0.3,0.3,0.4c0.1,0.1,0.3,0.2,0.5,0.2C78.9,143.4,79.1,143.4,79.4,143.4
		z M81.2,135.3l-2.1,1.7l-0.4-0.5l1.9-1.8L81.2,135.3z"/>
	<path d="M86.1,144.1c-0.5,0-0.9-0.1-1.3-0.2c-0.4-0.2-0.7-0.4-0.9-0.7c-0.2-0.3-0.4-0.6-0.6-1s-0.2-0.8-0.2-1.3
		c0-0.5,0.1-0.9,0.2-1.3c0.1-0.4,0.3-0.7,0.6-1c0.2-0.3,0.5-0.5,0.9-0.7c0.4-0.2,0.7-0.2,1.2-0.2c0.3,0,0.7,0,0.9,0.1
		c0.3,0.1,0.5,0.1,0.7,0.2l-0.2,0.7c-0.2-0.1-0.3-0.1-0.5-0.2c-0.2,0-0.5-0.1-0.8-0.1c-0.7,0-1.2,0.2-1.6,0.7
		c-0.4,0.4-0.5,1.1-0.5,1.9c0,0.4,0,0.7,0.1,1s0.2,0.6,0.4,0.8c0.2,0.2,0.4,0.4,0.7,0.5c0.3,0.1,0.6,0.2,1,0.2c0.3,0,0.6,0,0.8-0.1
		c0.2-0.1,0.4-0.1,0.5-0.2l0.2,0.7c-0.1,0.1-0.4,0.2-0.7,0.2C86.8,144.1,86.4,144.1,86.1,144.1z"/>
	<path d="M90,135.9c0,0.2-0.1,0.3-0.2,0.4c-0.1,0.1-0.2,0.2-0.4,0.2s-0.3-0.1-0.4-0.2c-0.1-0.1-0.2-0.3-0.2-0.4
		c0-0.2,0.1-0.3,0.2-0.4c0.1-0.1,0.2-0.2,0.4-0.2s0.3,0.1,0.4,0.2C90,135.6,90,135.7,90,135.9z M89.8,144h-0.8v-6.2h0.8V144z"/>
	<path d="M93.4,144.1c-0.3,0-0.5,0-0.7-0.1c-0.2-0.1-0.4-0.2-0.5-0.3s-0.2-0.3-0.3-0.5c-0.1-0.2-0.1-0.4-0.1-0.7v-7.7l0.8-0.1v7.8
		c0,0.2,0,0.3,0.1,0.5c0,0.1,0.1,0.2,0.2,0.3s0.2,0.1,0.3,0.1c0.1,0,0.3,0.1,0.4,0.1L93.4,144.1z"/>
	<path d="M102.6,143.8c-0.2,0.1-0.5,0.2-0.9,0.2c-0.4,0.1-0.8,0.1-1.4,0.1c-0.5,0-0.9-0.1-1.2-0.2s-0.7-0.4-1-0.6
		c-0.3-0.3-0.5-0.6-0.6-1c-0.1-0.4-0.2-0.9-0.2-1.4c0-0.5,0.1-0.9,0.2-1.3s0.3-0.7,0.5-1c0.2-0.3,0.5-0.5,0.9-0.7
		c0.3-0.2,0.7-0.2,1.2-0.2c0.4,0,0.8,0.1,1.1,0.2c0.3,0.1,0.5,0.2,0.7,0.3v-3.3l0.8-0.1V143.8z M101.8,138.9
		c-0.1-0.1-0.2-0.1-0.3-0.2c-0.1-0.1-0.2-0.1-0.4-0.2c-0.1-0.1-0.3-0.1-0.5-0.1c-0.2,0-0.3-0.1-0.5-0.1c-0.4,0-0.7,0.1-1,0.2
		c-0.3,0.1-0.5,0.3-0.6,0.5s-0.3,0.5-0.3,0.8c-0.1,0.3-0.1,0.6-0.1,1c0,0.8,0.2,1.4,0.6,1.9s0.9,0.7,1.6,0.7c0.4,0,0.7,0,0.9-0.1
		c0.2,0,0.4-0.1,0.5-0.1V138.9z"/>
	<path d="M104.2,140.9c0-0.5,0.1-1,0.2-1.4c0.2-0.4,0.4-0.7,0.6-1s0.5-0.5,0.9-0.6c0.3-0.1,0.7-0.2,1-0.2c0.8,0,1.4,0.2,1.8,0.7
		s0.7,1.3,0.7,2.3c0,0.1,0,0.1,0,0.2c0,0.1,0,0.1,0,0.2h-4.4c0,0.8,0.2,1.3,0.6,1.8c0.4,0.4,0.9,0.6,1.7,0.6c0.4,0,0.8,0,1-0.1
		s0.4-0.1,0.5-0.2l0.1,0.7c-0.1,0.1-0.3,0.1-0.6,0.2c-0.3,0.1-0.7,0.1-1.1,0.1c-0.5,0-1-0.1-1.4-0.2c-0.4-0.2-0.7-0.4-0.9-0.7
		c-0.2-0.3-0.4-0.6-0.5-1S104.2,141.4,104.2,140.9z M108.6,140.4c0-0.6-0.2-1.2-0.5-1.5c-0.3-0.4-0.7-0.5-1.2-0.5
		c-0.3,0-0.5,0.1-0.8,0.2c-0.2,0.1-0.4,0.3-0.6,0.4c-0.2,0.2-0.3,0.4-0.4,0.7c-0.1,0.2-0.1,0.5-0.2,0.8H108.6z"/>
</g>
<g>
	<path d="M54.9,152.4c0.2-0.1,0.5-0.1,0.9-0.2c0.4-0.1,0.9-0.1,1.4-0.1c0.8,0,1.4,0.2,1.7,0.7c0,0,0.1-0.1,0.2-0.2
		c0.1-0.1,0.3-0.2,0.4-0.2c0.2-0.1,0.4-0.1,0.6-0.2c0.2-0.1,0.5-0.1,0.8-0.1c0.5,0,0.9,0.1,1.1,0.2c0.3,0.1,0.5,0.3,0.7,0.6
		s0.3,0.6,0.3,0.9s0.1,0.7,0.1,1.2v3.5h-0.8v-3.2c0-0.4,0-0.8-0.1-1.1c0-0.3-0.1-0.5-0.2-0.7c-0.1-0.2-0.3-0.3-0.5-0.4
		s-0.5-0.2-0.8-0.2c-0.2,0-0.5,0-0.7,0.1c-0.2,0-0.4,0.1-0.5,0.2c-0.1,0.1-0.3,0.1-0.4,0.2s-0.2,0.1-0.2,0.1
		c0.1,0.2,0.1,0.4,0.2,0.7c0,0.3,0.1,0.5,0.1,0.8v3.5h-0.8v-3.2c0-0.4,0-0.8-0.1-1.1c0-0.3-0.1-0.5-0.2-0.7
		c-0.1-0.2-0.3-0.3-0.5-0.4c-0.2-0.1-0.5-0.2-0.8-0.2c-0.4,0-0.7,0-1,0.1c-0.3,0-0.4,0.1-0.5,0.1v5.4h-0.8V152.4z"/>
	<path d="M64.9,155.3c0-0.5,0.1-1,0.2-1.4c0.2-0.4,0.4-0.7,0.6-1s0.5-0.5,0.9-0.6c0.3-0.1,0.7-0.2,1-0.2c0.8,0,1.4,0.2,1.8,0.7
		s0.7,1.3,0.7,2.3c0,0.1,0,0.1,0,0.2c0,0.1,0,0.1,0,0.2h-4.4c0,0.8,0.2,1.3,0.6,1.8c0.4,0.4,0.9,0.6,1.7,0.6c0.4,0,0.8,0,1-0.1
		c0.2-0.1,0.4-0.1,0.5-0.2l0.1,0.7c-0.1,0.1-0.3,0.1-0.6,0.2c-0.3,0.1-0.7,0.1-1.1,0.1c-0.5,0-1-0.1-1.4-0.2
		c-0.4-0.2-0.7-0.4-0.9-0.7c-0.2-0.3-0.4-0.6-0.5-1C64.9,156.2,64.9,155.8,64.9,155.3z M69.3,154.8c0-0.6-0.2-1.2-0.5-1.5
		c-0.3-0.4-0.7-0.5-1.2-0.5c-0.3,0-0.5,0.1-0.8,0.2s-0.4,0.3-0.6,0.4c-0.2,0.2-0.3,0.4-0.4,0.7s-0.1,0.5-0.2,0.8H69.3z"/>
	<path d="M71.7,152.4c0.2-0.1,0.5-0.1,0.9-0.2c0.4-0.1,0.9-0.1,1.4-0.1c0.8,0,1.4,0.2,1.7,0.7c0,0,0.1-0.1,0.2-0.2
		c0.1-0.1,0.3-0.2,0.4-0.2c0.2-0.1,0.4-0.1,0.6-0.2c0.2-0.1,0.5-0.1,0.8-0.1c0.5,0,0.9,0.1,1.1,0.2c0.3,0.1,0.5,0.3,0.7,0.6
		s0.3,0.6,0.3,0.9c0.1,0.4,0.1,0.7,0.1,1.2v3.5h-0.8v-3.2c0-0.4,0-0.8-0.1-1.1c0-0.3-0.1-0.5-0.2-0.7c-0.1-0.2-0.3-0.3-0.5-0.4
		c-0.2-0.1-0.5-0.2-0.8-0.2c-0.2,0-0.5,0-0.7,0.1s-0.4,0.1-0.5,0.2c-0.1,0.1-0.3,0.1-0.4,0.2s-0.2,0.1-0.2,0.1
		c0.1,0.2,0.1,0.4,0.2,0.7c0,0.3,0.1,0.5,0.1,0.8v3.5h-0.8v-3.2c0-0.4,0-0.8-0.1-1.1c0-0.3-0.1-0.5-0.2-0.7
		c-0.1-0.2-0.3-0.3-0.5-0.4s-0.5-0.2-0.8-0.2c-0.4,0-0.7,0-1,0.1c-0.3,0-0.4,0.1-0.5,0.1v5.4h-0.8V152.4z"/>
	<path d="M87.4,155.3c0,0.5-0.1,0.9-0.2,1.3c-0.1,0.4-0.3,0.7-0.6,1c-0.3,0.3-0.5,0.5-0.9,0.7c-0.3,0.2-0.7,0.2-1.1,0.2
		s-0.8-0.1-1.1-0.2c-0.3-0.2-0.6-0.4-0.9-0.7c-0.3-0.3-0.4-0.6-0.6-1c-0.1-0.4-0.2-0.8-0.2-1.3c0-0.5,0.1-0.9,0.2-1.3
		c0.1-0.4,0.3-0.7,0.6-1c0.3-0.3,0.5-0.5,0.9-0.7c0.3-0.2,0.7-0.2,1.1-0.2s0.8,0.1,1.1,0.2c0.3,0.2,0.6,0.4,0.9,0.7
		c0.3,0.3,0.4,0.6,0.6,1C87.3,154.4,87.4,154.8,87.4,155.3z M86.5,155.3c0-0.8-0.2-1.4-0.5-1.9c-0.4-0.5-0.8-0.7-1.5-0.7
		s-1.1,0.2-1.5,0.7c-0.4,0.5-0.5,1.1-0.5,1.9c0,0.8,0.2,1.4,0.5,1.8s0.8,0.7,1.5,0.7s1.1-0.2,1.5-0.7
		C86.4,156.7,86.5,156.1,86.5,155.3z"/>
	<path d="M91.1,152.1c0.3,0,0.5,0,0.7,0.1c0.2,0,0.4,0.1,0.5,0.1l-0.2,0.7c-0.1,0-0.2-0.1-0.4-0.1c-0.2,0-0.5-0.1-0.8-0.1
		c-0.3,0-0.6,0-0.8,0.1c-0.2,0-0.3,0.1-0.4,0.1v5.4H89v-5.9c0.2-0.1,0.5-0.2,0.8-0.3C90.2,152.1,90.6,152.1,91.1,152.1z"/>
	<path d="M94.5,150.3c0,0.2-0.1,0.3-0.2,0.4c-0.1,0.1-0.2,0.2-0.4,0.2s-0.3-0.1-0.4-0.2c-0.1-0.1-0.2-0.3-0.2-0.4
		c0-0.2,0.1-0.3,0.2-0.4c0.1-0.1,0.2-0.2,0.4-0.2s0.3,0.1,0.4,0.2C94.5,150,94.5,150.1,94.5,150.3z M94.4,158.4h-0.8v-6.2h0.8V158.4
		z"/>
	<path d="M100.2,152.8c-0.2,0.2-0.4,0.5-0.7,0.9c-0.3,0.4-0.6,0.8-0.9,1.2s-0.7,0.9-1,1.4c-0.3,0.5-0.6,1-0.9,1.4h3.6v0.7h-4.5v-0.6
		c0.2-0.4,0.5-0.8,0.8-1.3c0.3-0.5,0.6-0.9,1-1.4s0.7-0.9,1-1.3s0.6-0.7,0.8-1H96v-0.7h4.2V152.8z"/>
	<path d="M103.7,152.1c0.4,0,0.8,0.1,1,0.2c0.3,0.1,0.5,0.3,0.7,0.5c0.2,0.2,0.3,0.4,0.4,0.7c0.1,0.3,0.1,0.6,0.1,0.9v3.9
		c-0.1,0-0.2,0.1-0.3,0.1c-0.2,0-0.3,0.1-0.5,0.1s-0.4,0.1-0.7,0.1s-0.5,0-0.8,0c-0.3,0-0.6,0-0.9-0.1c-0.3-0.1-0.5-0.2-0.7-0.3
		c-0.2-0.2-0.4-0.4-0.5-0.6c-0.1-0.2-0.2-0.5-0.2-0.9c0-0.3,0.1-0.6,0.2-0.9c0.1-0.2,0.3-0.4,0.5-0.6c0.2-0.2,0.5-0.3,0.8-0.3
		c0.3-0.1,0.7-0.1,1-0.1c0.1,0,0.2,0,0.4,0c0.1,0,0.2,0,0.4,0s0.2,0,0.3,0.1c0.1,0,0.1,0,0.2,0.1v-0.4c0-0.2,0-0.4,0-0.6
		c0-0.2-0.1-0.4-0.2-0.6c-0.1-0.2-0.3-0.3-0.5-0.4c-0.2-0.1-0.5-0.1-0.8-0.1c-0.5,0-0.8,0-1,0.1c-0.2,0.1-0.4,0.1-0.5,0.2l-0.1-0.7
		c0.1-0.1,0.3-0.1,0.6-0.2C103,152.1,103.3,152.1,103.7,152.1z M103.8,157.8c0.3,0,0.6,0,0.8,0c0.2,0,0.4,0,0.6-0.1v-2.2
		c-0.1,0-0.2-0.1-0.4-0.1c-0.2,0-0.5-0.1-0.8-0.1c-0.2,0-0.4,0-0.6,0c-0.2,0-0.4,0.1-0.6,0.2c-0.2,0.1-0.3,0.2-0.4,0.4
		c-0.1,0.2-0.2,0.4-0.2,0.6c0,0.2,0,0.4,0.1,0.6c0.1,0.2,0.2,0.3,0.3,0.4c0.1,0.1,0.3,0.2,0.5,0.2
		C103.3,157.8,103.6,157.8,103.8,157.8z"/>
	<path d="M110,152.1c0.3,0,0.5,0,0.7,0.1c0.2,0,0.4,0.1,0.5,0.1l-0.2,0.7c-0.1,0-0.2-0.1-0.4-0.1c-0.2,0-0.5-0.1-0.8-0.1
		c-0.3,0-0.6,0-0.8,0.1c-0.2,0-0.3,0.1-0.4,0.1v5.4h-0.8v-5.9c0.2-0.1,0.5-0.2,0.8-0.3C109.1,152.1,109.5,152.1,110,152.1z"/>
	<path d="M112.7,157.9c0,0.2-0.1,0.3-0.2,0.5c-0.1,0.1-0.3,0.2-0.5,0.2s-0.4-0.1-0.5-0.2c-0.1-0.1-0.2-0.3-0.2-0.5
		c0-0.2,0.1-0.3,0.2-0.5c0.1-0.1,0.3-0.2,0.5-0.2s0.4,0.1,0.5,0.2C112.6,157.5,112.7,157.7,112.7,157.9z"/>
</g>
<g>
	<defs>
		<rect id="SVGID_00000022522714367052962620000014345435339199652752_" x="-99.1" y="-37.1" width="595.9" height="765.5"/>
	</defs>
	<clipPath id="SVGID_00000015340550930469323910000006458586644347534001_">
		<use xlink:href="#SVGID_00000022522714367052962620000014345435339199652752_"  style="overflow:visible;"/>
	</clipPath>
	<path style="clip-path:url(#SVGID_00000015340550930469323910000006458586644347534001_);fill:#FFFFFF;" d="M241.1,16.5
		c0,0-5.7,0-5.7,5.7v40.1c0,0,0,5.7,5.7,5.7h121c0,0,5.7,0,5.7-5.7V22.1c0,0,0-5.7-5.7-5.7H241.1z"/>
</g>
<g>
	<path d="M258.1,25.6c0,0.6-0.2,1.1-0.5,1.5c-0.3,0.4-0.8,0.6-1.3,0.8c0.1,0.2,0.3,0.4,0.5,0.6s0.4,0.6,0.6,0.9
		c0.2,0.3,0.4,0.7,0.6,1s0.4,0.7,0.5,1h-0.9c-0.2-0.3-0.3-0.6-0.5-1s-0.4-0.6-0.6-0.9c-0.2-0.3-0.4-0.6-0.6-0.8
		c-0.2-0.3-0.4-0.5-0.5-0.7c-0.3,0-0.5,0-0.8,0h-1.3v3.4h-0.8v-8.2c0.3-0.1,0.6-0.1,1-0.2c0.4,0,0.7-0.1,1.1-0.1
		c1.1,0,2,0.2,2.6,0.6C257.8,24.1,258.1,24.8,258.1,25.6z M254.7,23.8c-0.3,0-0.6,0-0.8,0c-0.2,0-0.4,0-0.6,0.1v3.5h1.1
		c0.4,0,0.7,0,1.1-0.1c0.3,0,0.6-0.1,0.9-0.2s0.4-0.3,0.6-0.5c0.1-0.2,0.2-0.5,0.2-0.9c0-0.4-0.1-0.7-0.2-0.9
		c-0.1-0.2-0.3-0.4-0.6-0.6c-0.2-0.1-0.5-0.2-0.8-0.3C255.3,23.8,255,23.8,254.7,23.8z"/>
	<path d="M259.5,28.3c0-0.5,0.1-1,0.2-1.4c0.2-0.4,0.4-0.7,0.6-1s0.5-0.5,0.9-0.6c0.3-0.1,0.7-0.2,1-0.2c0.8,0,1.4,0.2,1.8,0.7
		c0.5,0.5,0.7,1.3,0.7,2.3c0,0.1,0,0.1,0,0.2c0,0.1,0,0.1,0,0.2h-4.4c0,0.8,0.2,1.3,0.6,1.8c0.4,0.4,0.9,0.6,1.7,0.6
		c0.4,0,0.8,0,1-0.1s0.4-0.1,0.5-0.2l0.1,0.7c-0.1,0.1-0.3,0.1-0.6,0.2s-0.7,0.1-1.1,0.1c-0.5,0-1-0.1-1.4-0.2
		c-0.4-0.2-0.7-0.4-0.9-0.7c-0.2-0.3-0.4-0.6-0.5-1C259.5,29.2,259.5,28.8,259.5,28.3z M263.9,27.8c0-0.6-0.2-1.2-0.5-1.5
		c-0.3-0.4-0.7-0.5-1.2-0.5c-0.3,0-0.5,0.1-0.8,0.2s-0.4,0.3-0.6,0.4c-0.2,0.2-0.3,0.4-0.4,0.7s-0.1,0.5-0.2,0.8H263.9z"/>
	<path d="M267.7,30.9c0.4,0,0.8-0.1,1.1-0.2s0.4-0.4,0.4-0.8c0-0.2,0-0.3-0.1-0.4c-0.1-0.1-0.1-0.2-0.3-0.3
		c-0.1-0.1-0.3-0.2-0.5-0.3c-0.2-0.1-0.4-0.2-0.7-0.3c-0.2-0.1-0.5-0.2-0.7-0.3c-0.2-0.1-0.4-0.2-0.6-0.3c-0.2-0.1-0.3-0.3-0.4-0.5
		c-0.1-0.2-0.1-0.4-0.1-0.7c0-0.5,0.2-0.9,0.6-1.2c0.4-0.3,0.9-0.5,1.6-0.5c0.4,0,0.8,0,1,0.1c0.3,0.1,0.5,0.1,0.6,0.2l-0.2,0.7
		c-0.1,0-0.3-0.1-0.5-0.2c-0.2-0.1-0.6-0.1-1-0.1c-0.2,0-0.3,0-0.5,0.1c-0.2,0-0.3,0.1-0.4,0.2s-0.2,0.2-0.3,0.3
		c-0.1,0.1-0.1,0.3-0.1,0.4s0,0.3,0.1,0.4c0.1,0.1,0.2,0.2,0.3,0.3s0.3,0.2,0.5,0.3s0.4,0.2,0.6,0.3c0.2,0.1,0.5,0.2,0.7,0.3
		s0.4,0.2,0.6,0.4c0.2,0.1,0.3,0.3,0.4,0.5c0.1,0.2,0.2,0.4,0.2,0.7c0,0.6-0.2,1-0.6,1.3s-1,0.4-1.7,0.4c-0.5,0-1,0-1.2-0.1
		s-0.5-0.2-0.6-0.2l0.2-0.7c0,0,0.1,0,0.2,0.1s0.2,0.1,0.3,0.1s0.3,0.1,0.5,0.1C267.2,30.9,267.4,30.9,267.7,30.9z"/>
	<path d="M276.2,31.2c-0.2,0.1-0.5,0.1-0.9,0.2c-0.4,0.1-0.9,0.1-1.4,0.1c-0.5,0-0.9-0.1-1.2-0.2c-0.3-0.1-0.6-0.3-0.8-0.6
		c-0.2-0.2-0.3-0.5-0.4-0.9s-0.1-0.7-0.1-1.2v-3.5h0.8v3.2c0,0.4,0,0.8,0.1,1.1s0.2,0.5,0.3,0.7c0.1,0.2,0.3,0.3,0.6,0.4
		c0.2,0.1,0.5,0.1,0.8,0.1c0.4,0,0.7,0,1-0.1c0.3,0,0.4-0.1,0.5-0.1v-5.4h0.8V31.2z"/>
	<path d="M278.2,25.5c0.2-0.1,0.5-0.1,0.9-0.2c0.4-0.1,0.9-0.1,1.4-0.1c0.8,0,1.4,0.2,1.7,0.7c0,0,0.1-0.1,0.2-0.2
		c0.1-0.1,0.3-0.2,0.4-0.2c0.2-0.1,0.4-0.1,0.6-0.2c0.2-0.1,0.5-0.1,0.8-0.1c0.5,0,0.9,0.1,1.1,0.2c0.3,0.1,0.5,0.3,0.7,0.6
		c0.2,0.3,0.3,0.6,0.3,0.9c0.1,0.4,0.1,0.7,0.1,1.2v3.5h-0.8v-3.2c0-0.4,0-0.8-0.1-1.1c0-0.3-0.1-0.5-0.2-0.7
		c-0.1-0.2-0.3-0.3-0.5-0.4s-0.5-0.2-0.8-0.2c-0.2,0-0.5,0-0.7,0.1c-0.2,0-0.4,0.1-0.5,0.2c-0.1,0.1-0.3,0.1-0.4,0.2
		s-0.2,0.1-0.2,0.1c0.1,0.2,0.1,0.4,0.2,0.7c0,0.3,0.1,0.5,0.1,0.8v3.5H282v-3.2c0-0.4,0-0.8-0.1-1.1c0-0.3-0.1-0.5-0.2-0.7
		c-0.1-0.2-0.3-0.3-0.5-0.4s-0.5-0.2-0.8-0.2c-0.4,0-0.7,0-1,0.1c-0.3,0-0.4,0.1-0.5,0.1v5.4h-0.8V25.5z"/>
	<path d="M288.2,28.3c0-0.5,0.1-1,0.2-1.4c0.2-0.4,0.4-0.7,0.6-1s0.5-0.5,0.9-0.6c0.3-0.1,0.7-0.2,1-0.2c0.8,0,1.4,0.2,1.8,0.7
		c0.5,0.5,0.7,1.3,0.7,2.3c0,0.1,0,0.1,0,0.2c0,0.1,0,0.1,0,0.2H289c0,0.8,0.2,1.3,0.6,1.8c0.4,0.4,0.9,0.6,1.7,0.6
		c0.4,0,0.8,0,1-0.1s0.4-0.1,0.5-0.2l0.1,0.7c-0.1,0.1-0.3,0.1-0.6,0.2s-0.7,0.1-1.1,0.1c-0.5,0-1-0.1-1.4-0.2
		c-0.4-0.2-0.7-0.4-0.9-0.7c-0.2-0.3-0.4-0.6-0.5-1C288.2,29.2,288.2,28.8,288.2,28.3z M292.6,27.8c0-0.6-0.2-1.2-0.5-1.5
		c-0.3-0.4-0.7-0.5-1.2-0.5c-0.3,0-0.5,0.1-0.8,0.2s-0.4,0.3-0.6,0.4c-0.2,0.2-0.3,0.4-0.4,0.7s-0.1,0.5-0.2,0.8H292.6z"/>
	<path d="M303.2,28.4c0,0.5-0.1,0.9-0.2,1.3c-0.1,0.4-0.3,0.7-0.6,1c-0.3,0.3-0.6,0.5-0.9,0.7c-0.3,0.2-0.7,0.2-1.1,0.2
		s-0.8-0.1-1.1-0.2c-0.3-0.2-0.6-0.4-0.9-0.7c-0.3-0.3-0.4-0.6-0.6-1c-0.1-0.4-0.2-0.8-0.2-1.3c0-0.5,0.1-0.9,0.2-1.3
		c0.1-0.4,0.3-0.7,0.6-1c0.3-0.3,0.5-0.5,0.9-0.7c0.3-0.2,0.7-0.2,1.1-0.2s0.8,0.1,1.1,0.2c0.3,0.2,0.6,0.4,0.9,0.7
		c0.3,0.3,0.4,0.6,0.6,1C303.1,27.4,303.2,27.9,303.2,28.4z M302.3,28.4c0-0.8-0.2-1.4-0.5-1.9c-0.4-0.5-0.8-0.7-1.5-0.7
		s-1.1,0.2-1.5,0.7c-0.4,0.5-0.5,1.1-0.5,1.9c0,0.8,0.2,1.4,0.5,1.8c0.4,0.5,0.8,0.7,1.5,0.7s1.1-0.2,1.5-0.7S302.3,29.1,302.3,28.4
		z"/>
	<path d="M312.5,31.3c-0.2,0.1-0.5,0.2-0.9,0.2c-0.4,0.1-0.8,0.1-1.4,0.1c-0.5,0-0.9-0.1-1.2-0.2s-0.7-0.4-1-0.6
		c-0.3-0.3-0.5-0.6-0.6-1c-0.1-0.4-0.2-0.9-0.2-1.4c0-0.5,0.1-0.9,0.2-1.3s0.3-0.7,0.5-1c0.2-0.3,0.5-0.5,0.9-0.7
		c0.3-0.2,0.7-0.2,1.2-0.2c0.4,0,0.8,0.1,1.1,0.2c0.3,0.1,0.5,0.2,0.7,0.3v-3.3l0.8-0.1V31.3z M311.7,26.4c-0.1-0.1-0.2-0.1-0.3-0.2
		s-0.2-0.1-0.4-0.2c-0.1-0.1-0.3-0.1-0.5-0.1c-0.2,0-0.3-0.1-0.5-0.1c-0.4,0-0.7,0.1-1,0.2c-0.3,0.1-0.5,0.3-0.6,0.5
		c-0.2,0.2-0.3,0.5-0.3,0.8c-0.1,0.3-0.1,0.6-0.1,1c0,0.8,0.2,1.4,0.6,1.9c0.4,0.4,0.9,0.7,1.6,0.7c0.4,0,0.7,0,0.9-0.1
		c0.2,0,0.4-0.1,0.5-0.1V26.4z"/>
	<path d="M314.2,28.3c0-0.5,0.1-1,0.2-1.4c0.2-0.4,0.4-0.7,0.6-1s0.5-0.5,0.9-0.6c0.3-0.1,0.7-0.2,1-0.2c0.8,0,1.4,0.2,1.8,0.7
		c0.5,0.5,0.7,1.3,0.7,2.3c0,0.1,0,0.1,0,0.2c0,0.1,0,0.1,0,0.2H315c0,0.8,0.2,1.3,0.6,1.8c0.4,0.4,0.9,0.6,1.7,0.6
		c0.4,0,0.8,0,1-0.1s0.4-0.1,0.5-0.2l0.1,0.7c-0.1,0.1-0.3,0.1-0.6,0.2s-0.7,0.1-1.1,0.1c-0.5,0-1-0.1-1.4-0.2
		c-0.4-0.2-0.7-0.4-0.9-0.7c-0.2-0.3-0.4-0.6-0.5-1C314.3,29.2,314.2,28.8,314.2,28.3z M318.6,27.8c0-0.6-0.2-1.2-0.5-1.5
		c-0.3-0.4-0.7-0.5-1.2-0.5c-0.3,0-0.5,0.1-0.8,0.2s-0.4,0.3-0.6,0.4c-0.2,0.2-0.3,0.4-0.4,0.7s-0.1,0.5-0.2,0.8H318.6z"/>
	<path d="M322.4,30.9c0.4,0,0.8-0.1,1.1-0.2s0.4-0.4,0.4-0.8c0-0.2,0-0.3-0.1-0.4c-0.1-0.1-0.1-0.2-0.3-0.3
		c-0.1-0.1-0.3-0.2-0.5-0.3c-0.2-0.1-0.4-0.2-0.7-0.3c-0.2-0.1-0.5-0.2-0.7-0.3c-0.2-0.1-0.4-0.2-0.6-0.3c-0.2-0.1-0.3-0.3-0.4-0.5
		c-0.1-0.2-0.1-0.4-0.1-0.7c0-0.5,0.2-0.9,0.6-1.2c0.4-0.3,0.9-0.5,1.6-0.5c0.4,0,0.8,0,1,0.1c0.3,0.1,0.5,0.1,0.6,0.2l-0.2,0.7
		c-0.1,0-0.3-0.1-0.5-0.2c-0.2-0.1-0.6-0.1-1-0.1c-0.2,0-0.3,0-0.5,0.1c-0.2,0-0.3,0.1-0.4,0.2s-0.2,0.2-0.3,0.3
		c-0.1,0.1-0.1,0.3-0.1,0.4s0,0.3,0.1,0.4c0.1,0.1,0.2,0.2,0.3,0.3s0.3,0.2,0.5,0.3s0.4,0.2,0.6,0.3c0.2,0.1,0.5,0.2,0.7,0.3
		s0.4,0.2,0.6,0.4c0.2,0.1,0.3,0.3,0.4,0.5c0.1,0.2,0.2,0.4,0.2,0.7c0,0.6-0.2,1-0.6,1.3s-1,0.4-1.7,0.4c-0.5,0-1,0-1.2-0.1
		s-0.5-0.2-0.6-0.2l0.2-0.7c0,0,0.1,0,0.2,0.1s0.2,0.1,0.3,0.1s0.3,0.1,0.5,0.1C321.9,30.9,322.2,30.9,322.4,30.9z"/>
	<path d="M328.9,31.6c-0.5,0-0.9-0.1-1.3-0.2s-0.7-0.4-0.9-0.7c-0.2-0.3-0.4-0.6-0.6-1s-0.2-0.8-0.2-1.3c0-0.5,0.1-0.9,0.2-1.3
		c0.1-0.4,0.3-0.7,0.6-1c0.2-0.3,0.5-0.5,0.9-0.7c0.4-0.2,0.7-0.2,1.2-0.2c0.3,0,0.7,0,0.9,0.1c0.3,0.1,0.5,0.1,0.7,0.2l-0.2,0.7
		c-0.2-0.1-0.3-0.1-0.5-0.2c-0.2,0-0.5-0.1-0.8-0.1c-0.7,0-1.2,0.2-1.6,0.7c-0.4,0.4-0.5,1.1-0.5,1.9c0,0.4,0,0.7,0.1,1
		c0.1,0.3,0.2,0.6,0.4,0.8c0.2,0.2,0.4,0.4,0.7,0.5c0.3,0.1,0.6,0.2,1,0.2c0.3,0,0.6,0,0.8-0.1c0.2-0.1,0.4-0.1,0.5-0.2l0.2,0.7
		c-0.1,0.1-0.4,0.2-0.7,0.2C329.5,31.5,329.2,31.6,328.9,31.6z"/>
	<path d="M333.9,25.1c0.3,0,0.5,0,0.7,0.1c0.2,0,0.4,0.1,0.5,0.1L335,26c-0.1,0-0.2-0.1-0.4-0.1c-0.2,0-0.5-0.1-0.8-0.1
		c-0.3,0-0.6,0-0.8,0.1c-0.2,0-0.3,0.1-0.4,0.1v5.4h-0.8v-5.9c0.2-0.1,0.5-0.2,0.8-0.3C333,25.2,333.4,25.1,333.9,25.1z"/>
	<path d="M337.3,23.4c0,0.2-0.1,0.3-0.2,0.4c-0.1,0.1-0.2,0.2-0.4,0.2s-0.3-0.1-0.4-0.2c-0.1-0.1-0.2-0.3-0.2-0.4
		c0-0.2,0.1-0.3,0.2-0.4c0.1-0.1,0.2-0.2,0.4-0.2s0.3,0.1,0.4,0.2C337.3,23,337.3,23.2,337.3,23.4z M337.2,31.4h-0.8v-6.2h0.8V31.4z
		"/>
	<path d="M339.9,25.6c0.1-0.1,0.4-0.2,0.7-0.3c0.3-0.1,0.7-0.2,1.1-0.2c0.4,0,0.8,0.1,1.2,0.2c0.3,0.2,0.6,0.4,0.9,0.7
		c0.2,0.3,0.4,0.6,0.5,1c0.1,0.4,0.2,0.8,0.2,1.3c0,0.5-0.1,1-0.2,1.4c-0.1,0.4-0.4,0.7-0.6,1c-0.3,0.3-0.6,0.5-1,0.6
		s-0.8,0.2-1.2,0.2c-0.6,0-1,0-1.4-0.1c-0.4-0.1-0.7-0.1-0.9-0.2v-9l0.8-0.1V25.6z M339.9,30.7c0.1,0,0.3,0.1,0.5,0.1
		c0.2,0,0.5,0.1,0.9,0.1c0.7,0,1.2-0.2,1.6-0.7c0.4-0.4,0.6-1.1,0.6-1.9c0-0.3,0-0.7-0.1-1c-0.1-0.3-0.2-0.6-0.3-0.8
		s-0.4-0.4-0.6-0.5c-0.3-0.1-0.6-0.2-1-0.2c-0.2,0-0.4,0-0.5,0.1c-0.2,0-0.3,0.1-0.5,0.1c-0.1,0.1-0.3,0.1-0.4,0.2s-0.2,0.1-0.3,0.2
		V30.7z"/>
	<path d="M345.8,28.3c0-0.5,0.1-1,0.2-1.4c0.2-0.4,0.4-0.7,0.6-1s0.5-0.5,0.9-0.6c0.3-0.1,0.7-0.2,1-0.2c0.8,0,1.4,0.2,1.8,0.7
		c0.5,0.5,0.7,1.3,0.7,2.3c0,0.1,0,0.1,0,0.2c0,0.1,0,0.1,0,0.2h-4.4c0,0.8,0.2,1.3,0.6,1.8c0.4,0.4,0.9,0.6,1.7,0.6
		c0.4,0,0.8,0,1-0.1s0.4-0.1,0.5-0.2l0.1,0.7c-0.1,0.1-0.3,0.1-0.6,0.2s-0.7,0.1-1.1,0.1c-0.5,0-1-0.1-1.4-0.2
		c-0.4-0.2-0.7-0.4-0.9-0.7c-0.2-0.3-0.4-0.6-0.5-1C345.8,29.2,345.8,28.8,345.8,28.3z M350.2,27.8c0-0.6-0.2-1.2-0.5-1.5
		c-0.3-0.4-0.7-0.5-1.2-0.5c-0.3,0-0.5,0.1-0.8,0.2s-0.4,0.3-0.6,0.4c-0.2,0.2-0.3,0.4-0.4,0.7s-0.1,0.5-0.2,0.8H350.2z"/>
</g>
<g>
	<path d="M250.7,42.7c0-0.5,0.1-1,0.2-1.4c0.2-0.4,0.4-0.7,0.6-1s0.5-0.5,0.9-0.6c0.3-0.1,0.7-0.2,1-0.2c0.8,0,1.4,0.2,1.8,0.7
		c0.5,0.5,0.7,1.3,0.7,2.3c0,0.1,0,0.1,0,0.2c0,0.1,0,0.1,0,0.2h-4.4c0,0.8,0.2,1.3,0.6,1.8c0.4,0.4,0.9,0.6,1.7,0.6
		c0.4,0,0.8,0,1-0.1s0.4-0.1,0.5-0.2l0.1,0.7c-0.1,0.1-0.3,0.1-0.6,0.2s-0.7,0.1-1.1,0.1c-0.5,0-1-0.1-1.4-0.2
		c-0.4-0.2-0.7-0.4-0.9-0.7c-0.2-0.3-0.4-0.6-0.5-1C250.7,43.6,250.7,43.2,250.7,42.7z M255.1,42.2c0-0.6-0.2-1.2-0.5-1.5
		c-0.3-0.4-0.7-0.5-1.2-0.5c-0.3,0-0.5,0.1-0.8,0.2s-0.4,0.3-0.6,0.4c-0.2,0.2-0.3,0.4-0.4,0.7s-0.1,0.5-0.2,0.8H255.1z"/>
	<path d="M259.1,46c-0.3,0-0.5,0-0.7-0.1s-0.4-0.2-0.5-0.3s-0.2-0.3-0.3-0.5c-0.1-0.2-0.1-0.4-0.1-0.7v-7.7l0.8-0.1v7.8
		c0,0.2,0,0.3,0.1,0.5c0,0.1,0.1,0.2,0.2,0.3c0.1,0.1,0.2,0.1,0.3,0.1c0.1,0,0.3,0.1,0.4,0.1L259.1,46z"/>
	<path d="M268.6,42.8c0,0.5-0.1,0.9-0.2,1.3c-0.1,0.4-0.3,0.7-0.6,1c-0.3,0.3-0.6,0.5-0.9,0.7c-0.3,0.2-0.7,0.2-1.1,0.2
		s-0.8-0.1-1.1-0.2c-0.3-0.2-0.6-0.4-0.9-0.7c-0.3-0.3-0.4-0.6-0.6-1c-0.1-0.4-0.2-0.8-0.2-1.3c0-0.5,0.1-0.9,0.2-1.3
		c0.1-0.4,0.3-0.7,0.6-1c0.3-0.3,0.5-0.5,0.9-0.7c0.3-0.2,0.7-0.2,1.1-0.2s0.8,0.1,1.1,0.2c0.3,0.2,0.6,0.4,0.9,0.7
		c0.3,0.3,0.4,0.6,0.6,1C268.5,41.8,268.6,42.3,268.6,42.8z M267.8,42.8c0-0.8-0.2-1.4-0.5-1.9c-0.4-0.5-0.8-0.7-1.5-0.7
		s-1.1,0.2-1.5,0.7c-0.4,0.5-0.5,1.1-0.5,1.9c0,0.8,0.2,1.4,0.5,1.8c0.4,0.5,0.8,0.7,1.5,0.7s1.1-0.2,1.5-0.7S267.8,43.5,267.8,42.8
		z"/>
	<path d="M271.1,40c0.1-0.1,0.4-0.2,0.7-0.3c0.3-0.1,0.7-0.2,1.1-0.2c0.4,0,0.8,0.1,1.2,0.2c0.3,0.2,0.6,0.4,0.9,0.7
		c0.2,0.3,0.4,0.6,0.5,1c0.1,0.4,0.2,0.8,0.2,1.3c0,0.5-0.1,1-0.2,1.4c-0.1,0.4-0.4,0.7-0.6,1c-0.3,0.3-0.6,0.5-1,0.6
		S273,46,272.5,46c-0.6,0-1,0-1.4-0.1c-0.4-0.1-0.7-0.1-0.9-0.2v-9l0.8-0.1V40z M271.1,45.1c0.1,0,0.3,0.1,0.5,0.1
		c0.2,0,0.5,0.1,0.9,0.1c0.7,0,1.2-0.2,1.6-0.7c0.4-0.4,0.6-1.1,0.6-1.9c0-0.3,0-0.7-0.1-1c-0.1-0.3-0.2-0.6-0.3-0.8
		s-0.4-0.4-0.6-0.5c-0.3-0.1-0.6-0.2-1-0.2c-0.2,0-0.4,0-0.5,0.1c-0.2,0-0.3,0.1-0.5,0.1c-0.1,0.1-0.3,0.1-0.4,0.2s-0.2,0.1-0.3,0.2
		V45.1z"/>
	<path d="M276,48.1c-0.1,0-0.2,0-0.3,0s-0.2-0.1-0.3-0.1l0.1-0.6c0.1,0,0.1,0,0.2,0c0.1,0,0.2,0,0.3,0c0.5,0,0.8-0.1,0.9-0.4
		s0.2-0.7,0.2-1.2v-6.2h0.8v6.1c0,0.8-0.1,1.4-0.4,1.7C277.3,47.9,276.8,48.1,276,48.1z M278.2,37.8c0,0.2-0.1,0.3-0.2,0.4
		c-0.1,0.1-0.2,0.2-0.4,0.2s-0.3-0.1-0.4-0.2c-0.1-0.1-0.2-0.3-0.2-0.4c0-0.2,0.1-0.3,0.2-0.4c0.1-0.1,0.2-0.2,0.4-0.2
		s0.3,0.1,0.4,0.2C278.1,37.4,278.2,37.6,278.2,37.8z"/>
	<path d="M279.6,42.7c0-0.5,0.1-1,0.2-1.4c0.2-0.4,0.4-0.7,0.6-1s0.5-0.5,0.9-0.6c0.3-0.1,0.7-0.2,1-0.2c0.8,0,1.4,0.2,1.8,0.7
		c0.5,0.5,0.7,1.3,0.7,2.3c0,0.1,0,0.1,0,0.2c0,0.1,0,0.1,0,0.2h-4.4c0,0.8,0.2,1.3,0.6,1.8c0.4,0.4,0.9,0.6,1.7,0.6
		c0.4,0,0.8,0,1-0.1s0.4-0.1,0.5-0.2l0.1,0.7c-0.1,0.1-0.3,0.1-0.6,0.2s-0.7,0.1-1.1,0.1c-0.5,0-1-0.1-1.4-0.2
		c-0.4-0.2-0.7-0.4-0.9-0.7c-0.2-0.3-0.4-0.6-0.5-1C279.7,43.6,279.6,43.2,279.6,42.7z M284.1,42.2c0-0.6-0.2-1.2-0.5-1.5
		c-0.3-0.4-0.7-0.5-1.2-0.5c-0.3,0-0.5,0.1-0.8,0.2s-0.4,0.3-0.6,0.4c-0.2,0.2-0.3,0.4-0.4,0.7s-0.1,0.5-0.2,0.8H284.1z"/>
	<path d="M287.2,39.6h2.5v0.7h-2.5v3.3c0,0.4,0,0.6,0.1,0.9c0.1,0.2,0.1,0.4,0.3,0.5c0.1,0.1,0.2,0.2,0.4,0.2c0.2,0,0.3,0.1,0.5,0.1
		c0.3,0,0.6,0,0.8-0.1s0.4-0.1,0.5-0.2l0.2,0.6c-0.1,0.1-0.3,0.2-0.6,0.2s-0.6,0.1-0.9,0.1c-0.4,0-0.7,0-1-0.1s-0.5-0.3-0.6-0.5
		s-0.3-0.5-0.3-0.8c-0.1-0.3-0.1-0.7-0.1-1.1v-5.7l0.8-0.1V39.6z"/>
	<path d="M292.2,37.8c0,0.2-0.1,0.3-0.2,0.4c-0.1,0.1-0.2,0.2-0.4,0.2s-0.3-0.1-0.4-0.2c-0.1-0.1-0.2-0.3-0.2-0.4
		c0-0.2,0.1-0.3,0.2-0.4c0.1-0.1,0.2-0.2,0.4-0.2s0.3,0.1,0.4,0.2C292.1,37.4,292.2,37.6,292.2,37.8z M292,45.8h-0.8v-6.2h0.8V45.8z
		"/>
	<path d="M296,45c0.2-0.3,0.3-0.7,0.5-1.2s0.3-0.9,0.5-1.4c0.2-0.5,0.3-1,0.5-1.4c0.1-0.5,0.3-0.9,0.4-1.4h0.8
		c-0.1,0.6-0.3,1.1-0.5,1.7c-0.2,0.6-0.4,1.1-0.6,1.6c-0.2,0.5-0.4,1-0.6,1.5c-0.2,0.5-0.4,0.9-0.6,1.4h-0.7
		c-0.2-0.4-0.4-0.9-0.6-1.4s-0.4-1-0.6-1.5c-0.2-0.5-0.4-1.1-0.6-1.6c-0.2-0.6-0.3-1.1-0.5-1.7h0.8c0.1,0.4,0.2,0.9,0.4,1.4
		c0.1,0.5,0.3,1,0.5,1.4c0.2,0.5,0.3,0.9,0.5,1.4S295.8,44.7,296,45z"/>
	<path d="M305,42.8c0,0.5-0.1,0.9-0.2,1.3c-0.1,0.4-0.3,0.7-0.6,1c-0.3,0.3-0.6,0.5-0.9,0.7c-0.3,0.2-0.7,0.2-1.1,0.2
		s-0.8-0.1-1.1-0.2c-0.3-0.2-0.6-0.4-0.9-0.7c-0.3-0.3-0.4-0.6-0.6-1c-0.1-0.4-0.2-0.8-0.2-1.3c0-0.5,0.1-0.9,0.2-1.3
		c0.1-0.4,0.3-0.7,0.6-1c0.3-0.3,0.5-0.5,0.9-0.7c0.3-0.2,0.7-0.2,1.1-0.2s0.8,0.1,1.1,0.2c0.3,0.2,0.6,0.4,0.9,0.7
		c0.3,0.3,0.4,0.6,0.6,1C305,41.8,305,42.3,305,42.8z M304.2,42.8c0-0.8-0.2-1.4-0.5-1.9c-0.4-0.5-0.8-0.7-1.5-0.7s-1.1,0.2-1.5,0.7
		c-0.4,0.5-0.5,1.1-0.5,1.9c0,0.8,0.2,1.4,0.5,1.8c0.4,0.5,0.8,0.7,1.5,0.7s1.1-0.2,1.5-0.7S304.2,43.5,304.2,42.8z"/>
	<path d="M307.4,44.7c0,0.1,0,0.1,0,0.2c0,0.1,0,0.1,0,0.1c0,0.5-0.1,1-0.2,1.4c-0.1,0.5-0.3,0.9-0.6,1.3l-0.6-0.3
		c0.2-0.4,0.3-0.7,0.4-1.1c0.1-0.4,0.1-0.8,0.1-1.2c0-0.1,0-0.2,0-0.2c0-0.1,0-0.1,0-0.2H307.4z"/>
	<path d="M317.1,45.7c-0.2,0.1-0.5,0.2-0.9,0.2c-0.4,0.1-0.8,0.1-1.4,0.1c-0.5,0-0.9-0.1-1.2-0.2s-0.7-0.4-1-0.6
		c-0.3-0.3-0.5-0.6-0.6-1c-0.1-0.4-0.2-0.9-0.2-1.4c0-0.5,0.1-0.9,0.2-1.3s0.3-0.7,0.5-1c0.2-0.3,0.5-0.5,0.9-0.7
		c0.3-0.2,0.7-0.2,1.2-0.2c0.4,0,0.8,0.1,1.1,0.2c0.3,0.1,0.5,0.2,0.7,0.3v-3.3l0.8-0.1V45.7z M316.3,40.8c-0.1-0.1-0.2-0.1-0.3-0.2
		s-0.2-0.1-0.4-0.2c-0.1-0.1-0.3-0.1-0.5-0.1c-0.2,0-0.3-0.1-0.5-0.1c-0.4,0-0.7,0.1-1,0.2c-0.3,0.1-0.5,0.3-0.6,0.5
		c-0.2,0.2-0.3,0.5-0.3,0.8c-0.1,0.3-0.1,0.6-0.1,1c0,0.8,0.2,1.4,0.6,1.9c0.4,0.4,0.9,0.7,1.6,0.7c0.4,0,0.7,0,0.9-0.1
		c0.2,0,0.4-0.1,0.5-0.1V40.8z"/>
	<path d="M318.8,42.7c0-0.5,0.1-1,0.2-1.4c0.2-0.4,0.4-0.7,0.6-1s0.5-0.5,0.9-0.6c0.3-0.1,0.7-0.2,1-0.2c0.8,0,1.4,0.2,1.8,0.7
		c0.5,0.5,0.7,1.3,0.7,2.3c0,0.1,0,0.1,0,0.2c0,0.1,0,0.1,0,0.2h-4.4c0,0.8,0.2,1.3,0.6,1.8c0.4,0.4,0.9,0.6,1.7,0.6
		c0.4,0,0.8,0,1-0.1s0.4-0.1,0.5-0.2l0.1,0.7c-0.1,0.1-0.3,0.1-0.6,0.2s-0.7,0.1-1.1,0.1c-0.5,0-1-0.1-1.4-0.2
		c-0.4-0.2-0.7-0.4-0.9-0.7c-0.2-0.3-0.4-0.6-0.5-1C318.8,43.6,318.8,43.2,318.8,42.7z M323.2,42.2c0-0.6-0.2-1.2-0.5-1.5
		c-0.3-0.4-0.7-0.5-1.2-0.5c-0.3,0-0.5,0.1-0.8,0.2s-0.4,0.3-0.6,0.4c-0.2,0.2-0.3,0.4-0.4,0.7s-0.1,0.5-0.2,0.8H323.2z"/>
	<path d="M327,45.3c0.4,0,0.8-0.1,1.1-0.2s0.4-0.4,0.4-0.8c0-0.2,0-0.3-0.1-0.4c-0.1-0.1-0.1-0.2-0.3-0.3c-0.1-0.1-0.3-0.2-0.5-0.3
		c-0.2-0.1-0.4-0.2-0.7-0.3c-0.2-0.1-0.5-0.2-0.7-0.3c-0.2-0.1-0.4-0.2-0.6-0.3c-0.2-0.1-0.3-0.3-0.4-0.5c-0.1-0.2-0.1-0.4-0.1-0.7
		c0-0.5,0.2-0.9,0.6-1.2c0.4-0.3,0.9-0.5,1.6-0.5c0.4,0,0.8,0,1,0.1c0.3,0.1,0.5,0.1,0.6,0.2l-0.2,0.7c-0.1,0-0.3-0.1-0.5-0.2
		c-0.2-0.1-0.6-0.1-1-0.1c-0.2,0-0.3,0-0.5,0.1c-0.2,0-0.3,0.1-0.4,0.2s-0.2,0.2-0.3,0.3c-0.1,0.1-0.1,0.3-0.1,0.4s0,0.3,0.1,0.4
		c0.1,0.1,0.2,0.2,0.3,0.3s0.3,0.2,0.5,0.3s0.4,0.2,0.6,0.3c0.2,0.1,0.5,0.2,0.7,0.3s0.4,0.2,0.6,0.4c0.2,0.1,0.3,0.3,0.4,0.5
		c0.1,0.2,0.2,0.4,0.2,0.7c0,0.6-0.2,1-0.6,1.3s-1,0.4-1.7,0.4c-0.5,0-1,0-1.2-0.1s-0.5-0.2-0.6-0.2l0.2-0.7c0,0,0.1,0,0.2,0.1
		s0.2,0.1,0.3,0.1s0.3,0.1,0.5,0.1C326.5,45.3,326.8,45.3,327,45.3z"/>
	<path d="M330.5,42.7c0-0.5,0.1-1,0.2-1.4c0.2-0.4,0.4-0.7,0.6-1s0.5-0.5,0.9-0.6c0.3-0.1,0.7-0.2,1-0.2c0.8,0,1.4,0.2,1.8,0.7
		c0.5,0.5,0.7,1.3,0.7,2.3c0,0.1,0,0.1,0,0.2c0,0.1,0,0.1,0,0.2h-4.4c0,0.8,0.2,1.3,0.6,1.8c0.4,0.4,0.9,0.6,1.7,0.6
		c0.4,0,0.8,0,1-0.1s0.4-0.1,0.5-0.2l0.1,0.7c-0.1,0.1-0.3,0.1-0.6,0.2S334,46,333.6,46c-0.5,0-1-0.1-1.4-0.2
		c-0.4-0.2-0.7-0.4-0.9-0.7c-0.2-0.3-0.4-0.6-0.5-1C330.6,43.6,330.5,43.2,330.5,42.7z M334.9,42.2c0-0.6-0.2-1.2-0.5-1.5
		c-0.3-0.4-0.7-0.5-1.2-0.5c-0.3,0-0.5,0.1-0.8,0.2s-0.4,0.3-0.6,0.4c-0.2,0.2-0.3,0.4-0.4,0.7s-0.1,0.5-0.2,0.8H334.9z"/>
	<path d="M342.8,42.8c0,0.5-0.1,0.9-0.2,1.3c-0.1,0.4-0.3,0.7-0.6,1c-0.3,0.3-0.6,0.5-0.9,0.7c-0.3,0.2-0.7,0.2-1.1,0.2
		s-0.8-0.1-1.1-0.2c-0.3-0.2-0.6-0.4-0.9-0.7c-0.3-0.3-0.4-0.6-0.6-1c-0.1-0.4-0.2-0.8-0.2-1.3c0-0.5,0.1-0.9,0.2-1.3
		c0.1-0.4,0.3-0.7,0.6-1c0.3-0.3,0.5-0.5,0.9-0.7c0.3-0.2,0.7-0.2,1.1-0.2s0.8,0.1,1.1,0.2c0.3,0.2,0.6,0.4,0.9,0.7
		c0.3,0.3,0.4,0.6,0.6,1C342.7,41.8,342.8,42.3,342.8,42.8z M341.9,42.8c0-0.8-0.2-1.4-0.5-1.9c-0.4-0.5-0.8-0.7-1.5-0.7
		s-1.1,0.2-1.5,0.7c-0.4,0.5-0.5,1.1-0.5,1.9c0,0.8,0.2,1.4,0.5,1.8c0.4,0.5,0.8,0.7,1.5,0.7s1.1-0.2,1.5-0.7S341.9,43.5,341.9,42.8
		z"/>
	<path d="M352.5,42.8c0,0.5-0.1,0.9-0.2,1.3c-0.1,0.4-0.3,0.7-0.6,1c-0.3,0.3-0.6,0.5-0.9,0.7c-0.3,0.2-0.7,0.2-1.1,0.2
		s-0.8-0.1-1.1-0.2c-0.3-0.2-0.6-0.4-0.9-0.7c-0.3-0.3-0.4-0.6-0.6-1c-0.1-0.4-0.2-0.8-0.2-1.3c0-0.5,0.1-0.9,0.2-1.3
		c0.1-0.4,0.3-0.7,0.6-1c0.3-0.3,0.5-0.5,0.9-0.7c0.3-0.2,0.7-0.2,1.1-0.2s0.8,0.1,1.1,0.2c0.3,0.2,0.6,0.4,0.9,0.7
		c0.3,0.3,0.4,0.6,0.6,1C352.4,41.8,352.5,42.3,352.5,42.8z M351.6,42.8c0-0.8-0.2-1.4-0.5-1.9c-0.4-0.5-0.8-0.7-1.5-0.7
		s-1.1,0.2-1.5,0.7c-0.4,0.5-0.5,1.1-0.5,1.9c0,0.8,0.2,1.4,0.5,1.8c0.4,0.5,0.8,0.7,1.5,0.7s1.1-0.2,1.5-0.7S351.6,43.5,351.6,42.8
		z"/>
</g>
<g>
	<path d="M274.6,62.5h-0.8v-8.2c0.2-0.1,0.5-0.2,0.9-0.2c0.4-0.1,0.8-0.1,1.4-0.1c0.5,0,0.9,0.1,1.2,0.2s0.7,0.4,1,0.6
		c0.3,0.3,0.5,0.6,0.6,1c0.1,0.4,0.2,0.9,0.2,1.4c0,0.5-0.1,0.9-0.2,1.3c-0.1,0.4-0.3,0.7-0.5,1c-0.2,0.3-0.5,0.5-0.9,0.7
		c-0.3,0.2-0.7,0.2-1.2,0.2c-0.4,0-0.8-0.1-1.1-0.2c-0.3-0.1-0.5-0.2-0.7-0.3V62.5z M274.6,59.1c0.1,0.1,0.2,0.1,0.3,0.2
		s0.2,0.1,0.4,0.2s0.3,0.1,0.5,0.1c0.2,0,0.3,0.1,0.5,0.1c0.4,0,0.7-0.1,1-0.2c0.3-0.1,0.5-0.3,0.6-0.5c0.2-0.2,0.3-0.5,0.3-0.8
		c0.1-0.3,0.1-0.6,0.1-1c0-0.8-0.2-1.4-0.6-1.9c-0.4-0.4-0.9-0.7-1.6-0.7c-0.4,0-0.7,0-0.9,0.1c-0.2,0-0.4,0.1-0.5,0.1V59.1z"/>
	<path d="M282.9,53.9c0.3,0,0.5,0,0.7,0.1c0.2,0,0.4,0.1,0.5,0.1l-0.2,0.7c-0.1,0-0.2-0.1-0.4-0.1c-0.2,0-0.5-0.1-0.8-0.1
		c-0.3,0-0.6,0-0.8,0.1c-0.2,0-0.3,0.1-0.4,0.1v5.4h-0.8v-5.9c0.2-0.1,0.5-0.2,0.8-0.3C281.9,54,282.4,53.9,282.9,53.9z"/>
	<path d="M290.4,57.2c0,0.5-0.1,0.9-0.2,1.3c-0.1,0.4-0.3,0.7-0.6,1c-0.3,0.3-0.6,0.5-0.9,0.7c-0.3,0.2-0.7,0.2-1.1,0.2
		s-0.8-0.1-1.1-0.2c-0.3-0.2-0.6-0.4-0.9-0.7c-0.3-0.3-0.4-0.6-0.6-1c-0.1-0.4-0.2-0.8-0.2-1.3c0-0.5,0.1-0.9,0.2-1.3
		c0.1-0.4,0.3-0.7,0.6-1c0.3-0.3,0.5-0.5,0.9-0.7c0.3-0.2,0.7-0.2,1.1-0.2s0.8,0.1,1.1,0.2c0.3,0.2,0.6,0.4,0.9,0.7
		c0.3,0.3,0.4,0.6,0.6,1C290.3,56.2,290.4,56.7,290.4,57.2z M289.6,57.2c0-0.8-0.2-1.4-0.5-1.9c-0.4-0.5-0.8-0.7-1.5-0.7
		s-1.1,0.2-1.5,0.7c-0.4,0.5-0.5,1.1-0.5,1.9c0,0.8,0.2,1.4,0.5,1.8c0.4,0.5,0.8,0.7,1.5,0.7s1.1-0.2,1.5-0.7S289.6,57.9,289.6,57.2
		z"/>
	<path d="M292.9,62.5h-0.8v-8.2c0.2-0.1,0.5-0.2,0.9-0.2c0.4-0.1,0.8-0.1,1.4-0.1c0.5,0,0.9,0.1,1.2,0.2s0.7,0.4,1,0.6
		c0.3,0.3,0.5,0.6,0.6,1c0.1,0.4,0.2,0.9,0.2,1.4c0,0.5-0.1,0.9-0.2,1.3c-0.1,0.4-0.3,0.7-0.5,1c-0.2,0.3-0.5,0.5-0.9,0.7
		c-0.3,0.2-0.7,0.2-1.2,0.2c-0.4,0-0.8-0.1-1.1-0.2c-0.3-0.1-0.5-0.2-0.7-0.3V62.5z M292.9,59.1c0.1,0.1,0.2,0.1,0.3,0.2
		s0.2,0.1,0.4,0.2s0.3,0.1,0.5,0.1c0.2,0,0.3,0.1,0.5,0.1c0.4,0,0.7-0.1,1-0.2c0.3-0.1,0.5-0.3,0.6-0.5c0.2-0.2,0.3-0.5,0.3-0.8
		c0.1-0.3,0.1-0.6,0.1-1c0-0.8-0.2-1.4-0.6-1.9c-0.4-0.4-0.9-0.7-1.6-0.7c-0.4,0-0.7,0-0.9,0.1c-0.2,0-0.4,0.1-0.5,0.1V59.1z"/>
	<path d="M303.8,60c-0.2,0.1-0.5,0.1-0.9,0.2c-0.4,0.1-0.9,0.1-1.4,0.1c-0.5,0-0.9-0.1-1.2-0.2c-0.3-0.1-0.6-0.3-0.8-0.6
		c-0.2-0.2-0.3-0.5-0.4-0.9s-0.1-0.7-0.1-1.2V54h0.8v3.2c0,0.4,0,0.8,0.1,1.1s0.2,0.5,0.3,0.7c0.1,0.2,0.3,0.3,0.6,0.4
		c0.2,0.1,0.5,0.1,0.8,0.1c0.4,0,0.7,0,1-0.1c0.3,0,0.4-0.1,0.5-0.1V54h0.8V60z"/>
	<path d="M305.5,57.1c0-0.5,0.1-1,0.2-1.4c0.2-0.4,0.4-0.7,0.6-1s0.5-0.5,0.9-0.6c0.3-0.1,0.7-0.2,1-0.2c0.8,0,1.4,0.2,1.8,0.7
		c0.5,0.5,0.7,1.3,0.7,2.3c0,0.1,0,0.1,0,0.2c0,0.1,0,0.1,0,0.2h-4.4c0,0.8,0.2,1.3,0.6,1.8c0.4,0.4,0.9,0.6,1.7,0.6
		c0.4,0,0.8,0,1-0.1s0.4-0.1,0.5-0.2l0.1,0.7c-0.1,0.1-0.3,0.1-0.6,0.2s-0.7,0.1-1.1,0.1c-0.5,0-1-0.1-1.4-0.2
		c-0.4-0.2-0.7-0.4-0.9-0.7c-0.2-0.3-0.4-0.6-0.5-1C305.5,58,305.5,57.6,305.5,57.1z M309.9,56.6c0-0.6-0.2-1.2-0.5-1.5
		c-0.3-0.4-0.7-0.5-1.2-0.5c-0.3,0-0.5,0.1-0.8,0.2s-0.4,0.3-0.6,0.4c-0.2,0.2-0.3,0.4-0.4,0.7s-0.1,0.5-0.2,0.8H309.9z"/>
	<path d="M313.7,59.7c0.4,0,0.8-0.1,1.1-0.2s0.4-0.4,0.4-0.8c0-0.2,0-0.3-0.1-0.4c-0.1-0.1-0.1-0.2-0.3-0.3
		c-0.1-0.1-0.3-0.2-0.5-0.3c-0.2-0.1-0.4-0.2-0.7-0.3c-0.2-0.1-0.5-0.2-0.7-0.3c-0.2-0.1-0.4-0.2-0.6-0.3c-0.2-0.1-0.3-0.3-0.4-0.5
		c-0.1-0.2-0.1-0.4-0.1-0.7c0-0.5,0.2-0.9,0.6-1.2c0.4-0.3,0.9-0.5,1.6-0.5c0.4,0,0.8,0,1,0.1c0.3,0.1,0.5,0.1,0.6,0.2l-0.2,0.7
		c-0.1,0-0.3-0.1-0.5-0.2c-0.2-0.1-0.6-0.1-1-0.1c-0.2,0-0.3,0-0.5,0.1c-0.2,0-0.3,0.1-0.4,0.2s-0.2,0.2-0.3,0.3
		c-0.1,0.1-0.1,0.3-0.1,0.4s0,0.3,0.1,0.4c0.1,0.1,0.2,0.2,0.3,0.3s0.3,0.2,0.5,0.3s0.4,0.2,0.6,0.3c0.2,0.1,0.5,0.2,0.7,0.3
		s0.4,0.2,0.6,0.4c0.2,0.1,0.3,0.3,0.4,0.5c0.1,0.2,0.2,0.4,0.2,0.7c0,0.6-0.2,1-0.6,1.3s-1,0.4-1.7,0.4c-0.5,0-1,0-1.2-0.1
		s-0.5-0.2-0.6-0.2l0.2-0.7c0,0,0.1,0,0.2,0.1s0.2,0.1,0.3,0.1s0.3,0.1,0.5,0.1C313.2,59.7,313.5,59.7,313.7,59.7z"/>
	<path d="M318.2,54h2.5v0.7h-2.5V58c0,0.4,0,0.6,0.1,0.9c0.1,0.2,0.1,0.4,0.3,0.5c0.1,0.1,0.2,0.2,0.4,0.2c0.2,0,0.3,0.1,0.5,0.1
		c0.3,0,0.6,0,0.8-0.1s0.4-0.1,0.5-0.2L321,60c-0.1,0.1-0.3,0.2-0.6,0.2s-0.6,0.1-0.9,0.1c-0.4,0-0.7,0-1-0.1s-0.5-0.3-0.6-0.5
		s-0.3-0.5-0.3-0.8c-0.1-0.3-0.1-0.7-0.1-1.1v-5.7l0.8-0.1V54z"/>
	<path d="M324.2,53.9c0.4,0,0.8,0.1,1,0.2c0.3,0.1,0.5,0.3,0.7,0.5c0.2,0.2,0.3,0.4,0.4,0.7c0.1,0.3,0.1,0.6,0.1,0.9v3.9
		c-0.1,0-0.2,0.1-0.3,0.1s-0.3,0.1-0.5,0.1c-0.2,0-0.4,0.1-0.7,0.1c-0.2,0-0.5,0-0.8,0c-0.3,0-0.6,0-0.9-0.1
		c-0.3-0.1-0.5-0.2-0.7-0.3c-0.2-0.2-0.4-0.4-0.5-0.6s-0.2-0.5-0.2-0.9c0-0.3,0.1-0.6,0.2-0.9c0.1-0.2,0.3-0.4,0.5-0.6
		c0.2-0.2,0.5-0.3,0.8-0.3c0.3-0.1,0.7-0.1,1-0.1c0.1,0,0.2,0,0.4,0c0.1,0,0.2,0,0.4,0c0.1,0,0.2,0,0.3,0.1c0.1,0,0.1,0,0.2,0.1
		v-0.4c0-0.2,0-0.4,0-0.6c0-0.2-0.1-0.4-0.2-0.6c-0.1-0.2-0.3-0.3-0.5-0.4c-0.2-0.1-0.5-0.1-0.8-0.1c-0.5,0-0.8,0-1,0.1
		c-0.2,0.1-0.4,0.1-0.5,0.2l-0.1-0.7c0.1-0.1,0.3-0.1,0.6-0.2C323.4,53.9,323.8,53.9,324.2,53.9z M324.3,59.7c0.3,0,0.6,0,0.8,0
		c0.2,0,0.4,0,0.6-0.1v-2.2c-0.1,0-0.2-0.1-0.4-0.1c-0.2,0-0.5-0.1-0.8-0.1c-0.2,0-0.4,0-0.6,0c-0.2,0-0.4,0.1-0.6,0.2
		c-0.2,0.1-0.3,0.2-0.4,0.4c-0.1,0.2-0.2,0.4-0.2,0.6c0,0.2,0,0.4,0.1,0.6c0.1,0.2,0.2,0.3,0.3,0.4c0.1,0.1,0.3,0.2,0.5,0.2
		C323.8,59.7,324,59.7,324.3,59.7z"/>
	<path d="M329.6,59.7c0,0.2-0.1,0.3-0.2,0.5s-0.3,0.2-0.5,0.2s-0.4-0.1-0.5-0.2c-0.1-0.1-0.2-0.3-0.2-0.5c0-0.2,0.1-0.3,0.2-0.5
		c0.1-0.1,0.3-0.2,0.5-0.2s0.4,0.1,0.5,0.2S329.6,59.5,329.6,59.7z"/>
</g>
<g>
	<defs>
		<rect id="SVGID_00000018218468660694068640000003258115662376481930_" x="-99.1" y="-37.1" width="595.9" height="765.5"/>
	</defs>
	<clipPath id="SVGID_00000114775201606413605950000013487601857096210344_">
		<use xlink:href="#SVGID_00000018218468660694068640000003258115662376481930_"  style="overflow:visible;"/>
	</clipPath>
	<path style="clip-path:url(#SVGID_00000114775201606413605950000013487601857096210344_);fill:#FFFFFF;" d="M16.8,11.5
		c0,0-5.7,0-5.7,5.7v25.2c0,0,0,5.7,5.7,5.7h96.1c0,0,5.7,0,5.7-5.7V17.2c0,0,0-5.7-5.7-5.7H16.8z"/>
</g>
<g>
	<path d="M21.8,26.5v-8.3h4.8v0.7h-4v2.9h3.6v0.7h-3.6v3.3h4.3v0.7H21.8z"/>
	<path d="M29.9,26c0.4,0,0.8-0.1,1.1-0.2s0.4-0.4,0.4-0.8c0-0.2,0-0.3-0.1-0.4c-0.1-0.1-0.1-0.2-0.3-0.3c-0.1-0.1-0.3-0.2-0.5-0.3
		c-0.2-0.1-0.4-0.2-0.7-0.3c-0.2-0.1-0.5-0.2-0.7-0.3c-0.2-0.1-0.4-0.2-0.6-0.3c-0.2-0.1-0.3-0.3-0.4-0.5s-0.1-0.4-0.1-0.7
		c0-0.5,0.2-0.9,0.6-1.2s0.9-0.5,1.6-0.5c0.4,0,0.8,0,1,0.1c0.3,0.1,0.5,0.1,0.6,0.2l-0.2,0.7c-0.1,0-0.3-0.1-0.5-0.2
		s-0.6-0.1-1-0.1c-0.2,0-0.3,0-0.5,0.1s-0.3,0.1-0.4,0.2s-0.2,0.2-0.3,0.3S29,21.6,29,21.8s0,0.3,0.1,0.4c0.1,0.1,0.2,0.2,0.3,0.3
		s0.3,0.2,0.5,0.3c0.2,0.1,0.4,0.2,0.6,0.3c0.2,0.1,0.5,0.2,0.7,0.3s0.4,0.2,0.6,0.4c0.2,0.1,0.3,0.3,0.4,0.5
		c0.1,0.2,0.2,0.4,0.2,0.7c0,0.6-0.2,1-0.6,1.3c-0.4,0.3-1,0.4-1.7,0.4c-0.5,0-1,0-1.2-0.1s-0.5-0.2-0.6-0.2l0.2-0.7
		c0,0,0.1,0,0.2,0.1s0.2,0.1,0.3,0.1c0.1,0,0.3,0.1,0.5,0.1C29.4,26,29.7,26,29.9,26z"/>
	<path d="M39.1,26.7c-0.5,0-0.9-0.1-1.3-0.2c-0.4-0.2-0.7-0.4-0.9-0.7c-0.2-0.3-0.4-0.6-0.6-1s-0.2-0.8-0.2-1.3
		c0-0.5,0.1-0.9,0.2-1.3c0.1-0.4,0.3-0.7,0.6-1c0.2-0.3,0.5-0.5,0.9-0.7c0.4-0.2,0.7-0.2,1.2-0.2c0.3,0,0.7,0,0.9,0.1
		c0.3,0.1,0.5,0.1,0.7,0.2l-0.2,0.7c-0.2-0.1-0.3-0.1-0.5-0.2c-0.2,0-0.5-0.1-0.8-0.1c-0.7,0-1.2,0.2-1.6,0.7
		C37.1,22,37,22.6,37,23.4c0,0.4,0,0.7,0.1,1s0.2,0.6,0.4,0.8c0.2,0.2,0.4,0.4,0.7,0.5c0.3,0.1,0.6,0.2,1,0.2c0.3,0,0.6,0,0.8-0.1
		c0.2-0.1,0.4-0.1,0.5-0.2l0.2,0.7c-0.1,0.1-0.4,0.2-0.7,0.2C39.7,26.6,39.4,26.7,39.1,26.7z"/>
	<path d="M47.2,23.4c0,0.5-0.1,0.9-0.2,1.3c-0.1,0.4-0.3,0.7-0.6,1c-0.3,0.3-0.5,0.5-0.9,0.7c-0.3,0.2-0.7,0.2-1.1,0.2
		c-0.4,0-0.8-0.1-1.1-0.2c-0.3-0.2-0.6-0.4-0.9-0.7c-0.3-0.3-0.4-0.6-0.6-1c-0.1-0.4-0.2-0.8-0.2-1.3c0-0.5,0.1-0.9,0.2-1.3
		c0.1-0.4,0.3-0.7,0.6-1c0.3-0.3,0.5-0.5,0.9-0.7c0.3-0.2,0.7-0.2,1.1-0.2c0.4,0,0.8,0.1,1.1,0.2c0.3,0.2,0.6,0.4,0.9,0.7
		c0.3,0.3,0.4,0.6,0.6,1C47.1,22.5,47.2,22.9,47.2,23.4z M46.3,23.4c0-0.8-0.2-1.4-0.5-1.9c-0.4-0.5-0.8-0.7-1.5-0.7
		c-0.6,0-1.1,0.2-1.5,0.7c-0.4,0.5-0.5,1.1-0.5,1.9c0,0.8,0.2,1.4,0.5,1.8c0.4,0.5,0.8,0.7,1.5,0.7c0.6,0,1.1-0.2,1.5-0.7
		C46.2,24.8,46.3,24.2,46.3,23.4z"/>
	<path d="M51,20.2c0.3,0,0.5,0,0.7,0.1c0.2,0,0.4,0.1,0.5,0.1L52,21.1c-0.1,0-0.2-0.1-0.4-0.1c-0.2,0-0.5-0.1-0.8-0.1
		c-0.3,0-0.6,0-0.8,0.1c-0.2,0-0.3,0.1-0.4,0.1v5.4h-0.8v-5.9c0.2-0.1,0.5-0.2,0.8-0.3C50,20.2,50.5,20.2,51,20.2z"/>
	<path d="M54.2,20.3h2.5V21h-2.5v3.3c0,0.4,0,0.6,0.1,0.9c0.1,0.2,0.1,0.4,0.3,0.5s0.2,0.2,0.4,0.2c0.2,0,0.3,0.1,0.5,0.1
		c0.3,0,0.6,0,0.8-0.1c0.2-0.1,0.4-0.1,0.5-0.2l0.2,0.6c-0.1,0.1-0.3,0.2-0.6,0.2s-0.6,0.1-0.9,0.1c-0.4,0-0.7,0-1-0.1
		s-0.5-0.3-0.6-0.5s-0.3-0.5-0.3-0.8c-0.1-0.3-0.1-0.7-0.1-1.1v-5.7l0.8-0.1V20.3z"/>
	<path d="M63.3,23.4c0,0.5-0.1,0.9-0.2,1.3c-0.1,0.4-0.3,0.7-0.6,1c-0.3,0.3-0.5,0.5-0.9,0.7c-0.3,0.2-0.7,0.2-1.1,0.2
		c-0.4,0-0.8-0.1-1.1-0.2c-0.3-0.2-0.6-0.4-0.9-0.7c-0.3-0.3-0.4-0.6-0.6-1c-0.1-0.4-0.2-0.8-0.2-1.3c0-0.5,0.1-0.9,0.2-1.3
		c0.1-0.4,0.3-0.7,0.6-1c0.3-0.3,0.5-0.5,0.9-0.7c0.3-0.2,0.7-0.2,1.1-0.2c0.4,0,0.8,0.1,1.1,0.2c0.3,0.2,0.6,0.4,0.9,0.7
		c0.3,0.3,0.4,0.6,0.6,1C63.2,22.5,63.3,22.9,63.3,23.4z M62.4,23.4c0-0.8-0.2-1.4-0.5-1.9c-0.4-0.5-0.8-0.7-1.5-0.7
		c-0.6,0-1.1,0.2-1.5,0.7c-0.4,0.5-0.5,1.1-0.5,1.9c0,0.8,0.2,1.4,0.5,1.8c0.4,0.5,0.8,0.7,1.5,0.7c0.6,0,1.1-0.2,1.5-0.7
		C62.3,24.8,62.4,24.2,62.4,23.4z"/>
	<path d="M65.6,25.4c0,0.1,0,0.1,0,0.2c0,0.1,0,0.1,0,0.1c0,0.5-0.1,1-0.2,1.4s-0.3,0.9-0.6,1.3l-0.6-0.3c0.2-0.4,0.3-0.7,0.4-1.1
		c0.1-0.4,0.1-0.8,0.1-1.2c0-0.1,0-0.2,0-0.2c0-0.1,0-0.1,0-0.2H65.6z"/>
	<path d="M73,26.7c-0.5,0-0.9-0.1-1.3-0.2c-0.4-0.2-0.7-0.4-0.9-0.7c-0.2-0.3-0.4-0.6-0.6-1S70,23.9,70,23.4c0-0.5,0.1-0.9,0.2-1.3
		c0.1-0.4,0.3-0.7,0.6-1c0.2-0.3,0.5-0.5,0.9-0.7c0.4-0.2,0.7-0.2,1.2-0.2c0.3,0,0.7,0,0.9,0.1c0.3,0.1,0.5,0.1,0.7,0.2l-0.2,0.7
		C74.1,21.1,74,21,73.8,21c-0.2,0-0.5-0.1-0.8-0.1c-0.7,0-1.2,0.2-1.6,0.7c-0.4,0.4-0.5,1.1-0.5,1.9c0,0.4,0,0.7,0.1,1
		s0.2,0.6,0.4,0.8c0.2,0.2,0.4,0.4,0.7,0.5c0.3,0.1,0.6,0.2,1,0.2c0.3,0,0.6,0,0.8-0.1c0.2-0.1,0.4-0.1,0.5-0.2l0.2,0.7
		c-0.1,0.1-0.4,0.2-0.7,0.2C73.6,26.6,73.3,26.7,73,26.7z"/>
	<path d="M81.1,23.4c0,0.5-0.1,0.9-0.2,1.3c-0.1,0.4-0.3,0.7-0.6,1c-0.3,0.3-0.5,0.5-0.9,0.7c-0.3,0.2-0.7,0.2-1.1,0.2
		s-0.8-0.1-1.1-0.2c-0.3-0.2-0.6-0.4-0.9-0.7c-0.3-0.3-0.4-0.6-0.6-1c-0.1-0.4-0.2-0.8-0.2-1.3c0-0.5,0.1-0.9,0.2-1.3
		c0.1-0.4,0.3-0.7,0.6-1c0.3-0.3,0.5-0.5,0.9-0.7c0.3-0.2,0.7-0.2,1.1-0.2s0.8,0.1,1.1,0.2c0.3,0.2,0.6,0.4,0.9,0.7
		c0.3,0.3,0.4,0.6,0.6,1C81,22.5,81.1,22.9,81.1,23.4z M80.2,23.4c0-0.8-0.2-1.4-0.5-1.9c-0.4-0.5-0.8-0.7-1.5-0.7s-1.1,0.2-1.5,0.7
		c-0.4,0.5-0.5,1.1-0.5,1.9c0,0.8,0.2,1.4,0.5,1.8s0.8,0.7,1.5,0.7s1.1-0.2,1.5-0.7C80.1,24.8,80.2,24.2,80.2,23.4z"/>
	<path d="M82.7,20.5c0.2-0.1,0.5-0.1,0.9-0.2c0.4-0.1,0.9-0.1,1.4-0.1c0.5,0,0.9,0.1,1.2,0.2c0.3,0.1,0.6,0.3,0.8,0.6
		c0.2,0.3,0.3,0.6,0.4,0.9s0.1,0.7,0.1,1.2v3.5h-0.8v-3.2c0-0.4,0-0.8-0.1-1.1c-0.1-0.3-0.2-0.6-0.3-0.7c-0.1-0.2-0.3-0.3-0.6-0.4
		c-0.2-0.1-0.5-0.1-0.9-0.1c-0.4,0-0.7,0-1,0.1c-0.3,0-0.4,0.1-0.5,0.1v5.4h-0.8V20.5z"/>
	<path d="M92.1,26.7c-0.5,0-0.9-0.1-1.3-0.2c-0.4-0.2-0.7-0.4-0.9-0.7c-0.2-0.3-0.4-0.6-0.6-1s-0.2-0.8-0.2-1.3
		c0-0.5,0.1-0.9,0.2-1.3c0.1-0.4,0.3-0.7,0.6-1c0.2-0.3,0.5-0.5,0.9-0.7c0.4-0.2,0.7-0.2,1.2-0.2c0.3,0,0.7,0,0.9,0.1
		c0.3,0.1,0.5,0.1,0.7,0.2l-0.2,0.7c-0.2-0.1-0.3-0.1-0.5-0.2c-0.2,0-0.5-0.1-0.8-0.1c-0.7,0-1.2,0.2-1.6,0.7
		C90.2,22,90,22.6,90,23.4c0,0.4,0,0.7,0.1,1s0.2,0.6,0.4,0.8c0.2,0.2,0.4,0.4,0.7,0.5c0.3,0.1,0.6,0.2,1,0.2c0.3,0,0.6,0,0.8-0.1
		c0.2-0.1,0.4-0.1,0.5-0.2l0.2,0.7c-0.1,0.1-0.4,0.2-0.7,0.2C92.8,26.6,92.5,26.7,92.1,26.7z"/>
	<path d="M96,18.4c0,0.2-0.1,0.3-0.2,0.4C95.8,19,95.6,19,95.5,19s-0.3-0.1-0.4-0.2c-0.1-0.1-0.2-0.3-0.2-0.4c0-0.2,0.1-0.3,0.2-0.4
		c0.1-0.1,0.2-0.2,0.4-0.2s0.3,0.1,0.4,0.2C96,18.1,96,18.3,96,18.4z M95.9,26.5h-0.8v-6.2h0.8V26.5z"/>
	<path d="M99.1,26c0.4,0,0.8-0.1,1.1-0.2s0.4-0.4,0.4-0.8c0-0.2,0-0.3-0.1-0.4c-0.1-0.1-0.1-0.2-0.3-0.3c-0.1-0.1-0.3-0.2-0.5-0.3
		c-0.2-0.1-0.4-0.2-0.7-0.3c-0.2-0.1-0.5-0.2-0.7-0.3c-0.2-0.1-0.4-0.2-0.6-0.3c-0.2-0.1-0.3-0.3-0.4-0.5c-0.1-0.2-0.1-0.4-0.1-0.7
		c0-0.5,0.2-0.9,0.6-1.2s0.9-0.5,1.6-0.5c0.4,0,0.8,0,1.1,0.1c0.3,0.1,0.5,0.1,0.6,0.2l-0.2,0.7c-0.1,0-0.3-0.1-0.5-0.2
		c-0.2-0.1-0.6-0.1-1-0.1c-0.2,0-0.3,0-0.5,0.1c-0.2,0-0.3,0.1-0.4,0.2c-0.1,0.1-0.2,0.2-0.3,0.3c-0.1,0.1-0.1,0.3-0.1,0.4
		s0,0.3,0.1,0.4c0.1,0.1,0.2,0.2,0.3,0.3s0.3,0.2,0.5,0.3s0.4,0.2,0.6,0.3c0.2,0.1,0.5,0.2,0.7,0.3c0.2,0.1,0.4,0.2,0.6,0.4
		c0.2,0.1,0.3,0.3,0.4,0.5c0.1,0.2,0.2,0.4,0.2,0.7c0,0.6-0.2,1-0.6,1.3s-1,0.4-1.7,0.4c-0.5,0-1,0-1.2-0.1s-0.5-0.2-0.6-0.2
		l0.2-0.7c0,0,0.1,0,0.2,0.1s0.2,0.1,0.3,0.1s0.3,0.1,0.5,0.1C98.6,26,98.9,26,99.1,26z"/>
	<path d="M108.3,23.4c0,0.5-0.1,0.9-0.2,1.3c-0.1,0.4-0.3,0.7-0.6,1c-0.3,0.3-0.5,0.5-0.9,0.7c-0.3,0.2-0.7,0.2-1.1,0.2
		s-0.8-0.1-1.1-0.2c-0.3-0.2-0.6-0.4-0.9-0.7c-0.3-0.3-0.4-0.6-0.6-1c-0.1-0.4-0.2-0.8-0.2-1.3c0-0.5,0.1-0.9,0.2-1.3
		c0.1-0.4,0.3-0.7,0.6-1c0.3-0.3,0.5-0.5,0.9-0.7c0.3-0.2,0.7-0.2,1.1-0.2s0.8,0.1,1.1,0.2c0.3,0.2,0.6,0.4,0.9,0.7
		c0.3,0.3,0.4,0.6,0.6,1C108.2,22.5,108.3,22.9,108.3,23.4z M107.5,23.4c0-0.8-0.2-1.4-0.5-1.9c-0.4-0.5-0.8-0.7-1.5-0.7
		s-1.1,0.2-1.5,0.7c-0.4,0.5-0.5,1.1-0.5,1.9c0,0.8,0.2,1.4,0.5,1.8s0.8,0.7,1.5,0.7s1.1-0.2,1.5-0.7
		C107.3,24.8,107.5,24.2,107.5,23.4z"/>
</g>
<g>
	<path d="M33.7,37.8c0-0.5,0.1-1,0.2-1.4c0.2-0.4,0.4-0.7,0.6-1s0.5-0.5,0.9-0.6c0.3-0.1,0.7-0.2,1-0.2c0.8,0,1.4,0.2,1.8,0.7
		s0.7,1.3,0.7,2.3c0,0.1,0,0.1,0,0.2c0,0.1,0,0.1,0,0.2h-4.4c0,0.8,0.2,1.3,0.6,1.8c0.4,0.4,0.9,0.6,1.7,0.6c0.4,0,0.8,0,1-0.1
		s0.4-0.1,0.5-0.2l0.1,0.7c-0.1,0.1-0.3,0.1-0.6,0.2c-0.3,0.1-0.7,0.1-1.1,0.1c-0.5,0-1-0.1-1.4-0.2c-0.4-0.2-0.7-0.4-0.9-0.7
		c-0.2-0.3-0.4-0.6-0.5-1S33.7,38.3,33.7,37.8z M38.1,37.3c0-0.6-0.2-1.2-0.5-1.5c-0.3-0.4-0.7-0.5-1.2-0.5c-0.3,0-0.5,0.1-0.8,0.2
		c-0.2,0.1-0.4,0.3-0.6,0.4c-0.2,0.2-0.3,0.4-0.4,0.7c-0.1,0.2-0.1,0.5-0.2,0.8H38.1z"/>
	<path d="M44.3,32.8c0,0.2-0.1,0.3-0.2,0.4c-0.1,0.1-0.2,0.2-0.4,0.2s-0.3-0.1-0.4-0.2c-0.1-0.1-0.2-0.3-0.2-0.4
		c0-0.2,0.1-0.3,0.2-0.4c0.1-0.1,0.2-0.2,0.4-0.2s0.3,0.1,0.4,0.2C44.3,32.5,44.3,32.7,44.3,32.8z M44.1,40.9h-0.8v-6.2h0.8V40.9z"
		/>
	<path d="M46.1,34.9c0.2-0.1,0.5-0.1,0.9-0.2c0.4-0.1,0.9-0.1,1.4-0.1c0.5,0,0.9,0.1,1.2,0.2c0.3,0.1,0.6,0.3,0.8,0.6
		c0.2,0.3,0.3,0.6,0.4,0.9S51,37,51,37.5v3.5h-0.8v-3.2c0-0.4,0-0.8-0.1-1.1c-0.1-0.3-0.2-0.6-0.3-0.7c-0.1-0.2-0.3-0.3-0.6-0.4
		c-0.2-0.1-0.5-0.1-0.9-0.1c-0.4,0-0.7,0-1,0.1c-0.3,0-0.4,0.1-0.5,0.1v5.4h-0.8V34.9z"/>
	<path d="M57,40.2c0,0-0.1,0.1-0.2,0.1c-0.1,0.1-0.2,0.1-0.4,0.2c-0.1,0.1-0.3,0.1-0.5,0.1c-0.2,0-0.4,0.1-0.6,0.1
		c-0.4,0-0.7-0.1-1-0.2c-0.3-0.1-0.6-0.3-0.9-0.5c-0.3-0.2-0.5-0.6-0.6-0.9s-0.2-0.8-0.2-1.4c0-0.4,0.1-0.8,0.2-1.2
		c0.1-0.4,0.3-0.7,0.6-1c0.3-0.3,0.6-0.5,0.9-0.6c0.4-0.2,0.8-0.2,1.2-0.2c0.6,0,1,0,1.4,0.1c0.3,0.1,0.6,0.1,0.9,0.2v5.7
		c0,0.9-0.2,1.6-0.7,2c-0.5,0.4-1.2,0.6-2.2,0.6c-0.4,0-0.8,0-1.1-0.1c-0.3-0.1-0.6-0.1-0.8-0.2l0.2-0.7c0.2,0.1,0.5,0.2,0.8,0.2
		s0.7,0.1,1,0.1c0.7,0,1.3-0.1,1.6-0.4c0.3-0.3,0.5-0.8,0.5-1.5V40.2z M57,35.5c-0.1,0-0.3-0.1-0.5-0.1c-0.2,0-0.5-0.1-0.9-0.1
		c-0.3,0-0.6,0.1-0.9,0.2c-0.3,0.1-0.5,0.3-0.7,0.5c-0.2,0.2-0.3,0.5-0.4,0.8s-0.1,0.6-0.1,1c0,0.4,0.1,0.8,0.2,1
		c0.1,0.3,0.3,0.5,0.4,0.7s0.4,0.3,0.6,0.4c0.2,0.1,0.5,0.1,0.7,0.1c0.4,0,0.7-0.1,1-0.2s0.5-0.2,0.7-0.4V35.5z"/>
	<path d="M59.4,37.8c0-0.5,0.1-1,0.2-1.4c0.2-0.4,0.4-0.7,0.6-1s0.5-0.5,0.9-0.6c0.3-0.1,0.7-0.2,1-0.2c0.8,0,1.4,0.2,1.8,0.7
		c0.5,0.5,0.7,1.3,0.7,2.3c0,0.1,0,0.1,0,0.2c0,0.1,0,0.1,0,0.2h-4.4c0,0.8,0.2,1.3,0.6,1.8c0.4,0.4,0.9,0.6,1.7,0.6
		c0.4,0,0.8,0,1-0.1s0.4-0.1,0.5-0.2l0.1,0.7c-0.1,0.1-0.3,0.1-0.6,0.2c-0.3,0.1-0.7,0.1-1.1,0.1c-0.5,0-1-0.1-1.4-0.2
		c-0.4-0.2-0.7-0.4-0.9-0.7c-0.2-0.3-0.4-0.6-0.5-1S59.4,38.3,59.4,37.8z M63.8,37.3c0-0.6-0.2-1.2-0.5-1.5
		c-0.3-0.4-0.7-0.5-1.2-0.5c-0.3,0-0.5,0.1-0.8,0.2c-0.2,0.1-0.4,0.3-0.6,0.4c-0.2,0.2-0.3,0.4-0.4,0.7c-0.1,0.2-0.1,0.5-0.2,0.8
		H63.8z"/>
	<path d="M66.2,34.9c0.2-0.1,0.5-0.1,0.9-0.2c0.4-0.1,0.9-0.1,1.4-0.1c0.5,0,0.9,0.1,1.2,0.2c0.3,0.1,0.6,0.3,0.8,0.6
		c0.2,0.3,0.3,0.6,0.4,0.9s0.1,0.7,0.1,1.2v3.5h-0.8v-3.2c0-0.4,0-0.8-0.1-1.1c-0.1-0.3-0.2-0.6-0.3-0.7c-0.1-0.2-0.3-0.3-0.6-0.4
		c-0.2-0.1-0.5-0.1-0.9-0.1c-0.4,0-0.7,0-1,0.1c-0.3,0-0.4,0.1-0.5,0.1v5.4h-0.8V34.9z"/>
	<path d="M74,32.8c0,0.2-0.1,0.3-0.2,0.4c-0.1,0.1-0.2,0.2-0.4,0.2s-0.3-0.1-0.4-0.2c-0.1-0.1-0.2-0.3-0.2-0.4
		c0-0.2,0.1-0.3,0.2-0.4c0.1-0.1,0.2-0.2,0.4-0.2s0.3,0.1,0.4,0.2C73.9,32.5,74,32.7,74,32.8z M73.8,40.9H73v-6.2h0.8V40.9z"/>
	<path d="M81.1,37.8c0,0.5-0.1,0.9-0.2,1.3c-0.1,0.4-0.3,0.7-0.6,1c-0.3,0.3-0.5,0.5-0.9,0.7c-0.3,0.2-0.7,0.2-1.1,0.2
		s-0.8-0.1-1.1-0.2c-0.3-0.2-0.6-0.4-0.9-0.7c-0.3-0.3-0.4-0.6-0.6-1c-0.1-0.4-0.2-0.8-0.2-1.3c0-0.5,0.1-0.9,0.2-1.3
		c0.1-0.4,0.3-0.7,0.6-1c0.3-0.3,0.5-0.5,0.9-0.7c0.3-0.2,0.7-0.2,1.1-0.2s0.8,0.1,1.1,0.2c0.3,0.2,0.6,0.4,0.9,0.7
		c0.3,0.3,0.4,0.6,0.6,1C81,36.9,81.1,37.3,81.1,37.8z M80.2,37.8c0-0.8-0.2-1.4-0.5-1.9c-0.4-0.5-0.8-0.7-1.5-0.7s-1.1,0.2-1.5,0.7
		c-0.4,0.5-0.5,1.1-0.5,1.9c0,0.8,0.2,1.4,0.5,1.8s0.8,0.7,1.5,0.7s1.1-0.2,1.5-0.7C80.1,39.2,80.2,38.6,80.2,37.8z"/>
	<path d="M84,40.4c0.4,0,0.8-0.1,1.1-0.2s0.4-0.4,0.4-0.8c0-0.2,0-0.3-0.1-0.4c-0.1-0.1-0.1-0.2-0.3-0.3c-0.1-0.1-0.3-0.2-0.5-0.3
		c-0.2-0.1-0.4-0.2-0.7-0.3c-0.2-0.1-0.5-0.2-0.7-0.3c-0.2-0.1-0.4-0.2-0.6-0.3c-0.2-0.1-0.3-0.3-0.4-0.5c-0.1-0.2-0.1-0.4-0.1-0.7
		c0-0.5,0.2-0.9,0.6-1.2s0.9-0.5,1.6-0.5c0.4,0,0.8,0,1.1,0.1c0.3,0.1,0.5,0.1,0.6,0.2l-0.2,0.7c-0.1,0-0.3-0.1-0.5-0.2
		c-0.2-0.1-0.6-0.1-1-0.1c-0.2,0-0.3,0-0.5,0.1c-0.2,0-0.3,0.1-0.4,0.2c-0.1,0.1-0.2,0.2-0.3,0.3c-0.1,0.1-0.1,0.3-0.1,0.4
		s0,0.3,0.1,0.4c0.1,0.1,0.2,0.2,0.3,0.3s0.3,0.2,0.5,0.3s0.4,0.2,0.6,0.3c0.2,0.1,0.5,0.2,0.7,0.3c0.2,0.1,0.4,0.2,0.6,0.4
		c0.2,0.1,0.3,0.3,0.4,0.5c0.1,0.2,0.2,0.4,0.2,0.7c0,0.6-0.2,1-0.6,1.3s-1,0.4-1.7,0.4c-0.5,0-1,0-1.2-0.1s-0.5-0.2-0.6-0.2
		l0.2-0.7c0,0,0.1,0,0.2,0.1s0.2,0.1,0.3,0.1s0.3,0.1,0.5,0.1C83.6,40.4,83.8,40.4,84,40.4z"/>
	<path d="M93.2,37.8c0,0.5-0.1,0.9-0.2,1.3c-0.1,0.4-0.3,0.7-0.6,1c-0.3,0.3-0.5,0.5-0.9,0.7c-0.3,0.2-0.7,0.2-1.1,0.2
		s-0.8-0.1-1.1-0.2c-0.3-0.2-0.6-0.4-0.9-0.7c-0.3-0.3-0.4-0.6-0.6-1c-0.1-0.4-0.2-0.8-0.2-1.3c0-0.5,0.1-0.9,0.2-1.3
		c0.1-0.4,0.3-0.7,0.6-1c0.3-0.3,0.5-0.5,0.9-0.7c0.3-0.2,0.7-0.2,1.1-0.2s0.8,0.1,1.1,0.2c0.3,0.2,0.6,0.4,0.9,0.7
		c0.3,0.3,0.4,0.6,0.6,1C93.1,36.9,93.2,37.3,93.2,37.8z M92.4,37.8c0-0.8-0.2-1.4-0.5-1.9c-0.4-0.5-0.8-0.7-1.5-0.7
		s-1.1,0.2-1.5,0.7c-0.4,0.5-0.5,1.1-0.5,1.9c0,0.8,0.2,1.4,0.5,1.8s0.8,0.7,1.5,0.7s1.1-0.2,1.5-0.7C92.2,39.2,92.4,38.6,92.4,37.8
		z"/>
	<path d="M95.8,40.4c0,0.2-0.1,0.3-0.2,0.5s-0.3,0.2-0.5,0.2s-0.4-0.1-0.5-0.2s-0.2-0.3-0.2-0.5c0-0.2,0.1-0.3,0.2-0.5
		s0.3-0.2,0.5-0.2s0.4,0.1,0.5,0.2S95.8,40.2,95.8,40.4z"/>
</g>
<g>
</g>
<g>
</g>
<g>
</g>
<g>
</g>
<g>
</g>
<g>
</g>
</svg>
