<?xml version="1.0" encoding="utf-8"?>
<!-- Generator: Adobe Illustrator 21.1.0, SVG Export Plug-In . SVG Version: 6.00 Build 0)  -->
<svg version="1.1" id="Capa_1" xmlns="http://www.w3.org/2000/svg" xmlns:xlink="http://www.w3.org/1999/xlink" x="0px" y="0px"
	 viewBox="0 0 439.516 78.043" style="enable-background:new 0 0 439.516 78.043;" xml:space="preserve">
<style type="text/css">
	.st0{clip-path:url(#SVGID_2_);fill:#009EE2;}
	.st1{clip-path:url(#SVGID_2_);fill:#BCE3F9;}
	.st2{clip-path:url(#SVGID_2_);fill:#5BC4F1;}
	.st3{clip-path:url(#SVGID_2_);fill:#1D1D1B;}
</style>
<g>
	<defs>
		<rect id="SVGID_1_" width="439.516" height="78.043"/>
	</defs>
	<clipPath id="SVGID_2_">
		<use xlink:href="#SVGID_1_"  style="overflow:visible;"/>
	</clipPath>
	<path class="st0" d="M35.777,11.684c-1.295,2.262-2.609,3.905-3.805,6.002c-1.167,2.044-2.405,3.878-3.612,5.802
		c-1.208,1.928-2.497,3.629-3.629,6.7c3.919-0.191,7.585,1.019,11.254,0.613C36.319,26.729,36.219,15.408,35.777,11.684
		 M415.358,29.04c0.02-0.266,0.039-0.532,0.058-0.798c-4.573-4.797-9.187-9.414-13.481-15.471c-0.025-0.034-0.073,0-0.106,0.028
		c-0.029,0.026-0.053,0.088-0.08,0.134c-0.441,5.656-0.185,11.308-0.078,16.942c0.218,0.189,0.353,0.413,0.484,0.404
		c1.296-0.08,2.615,0.111,3.882-0.379c1.797-0.697,3.592-0.585,5.391-0.68c1.008-0.054,2.018,0.04,3.028,0.03
		C414.757,29.246,415.057,29.113,415.358,29.04 M426.137,29.124c0.367-1.186,0.608-2.098,0.906-2.902
		c1.06-2.876,2.197-5.614,3.198-8.595c1.34-3.985,2.612-8.097,3.59-12.632c0.084-0.39,0.083-0.874,0.118-1.277
		c-0.14-0.135-0.207-0.269-0.267-0.251c-1.388,0.397-2.771,0.94-4.164,1.196c-3.122,0.573-6.249,1.005-9.374,1.492
		c-1.005,0.156-2.013,0.249-3.015,0.469c-1.861,0.408-3.721,0.839-5.577,1.354c-1.997,0.553-3.992,1.169-5.982,1.851
		c-0.655,0.224-1.293,0.74-1.921,1.113c0.011,1.211,0.352,1.436,0.622,1.782c1.32,1.698,2.639,3.392,3.966,5.058
		c0.442,0.556,0.895,1.071,1.357,1.524c2.776,2.72,5.587,5.271,8.251,8.879c0.403,7.772,0.314,12.606,0.852,20.457
		c0.439,0.009,0.766,0.103,1.082,0.008c1.71-0.523,3.417-1.106,5.126-1.64c1.712-0.536,3.419-1.238,5.139-1.506
		c2.261-0.354,4.533-0.352,6.801-0.516c0.193-0.015,0.385-0.132,0.72-0.253c-0.993-3.198-2.319-2.013-3.483-4.259
		c-1.177-2.271-2.499-4.174-3.811-6.037C428.97,32.591,427.602,30.993,426.137,29.124 M21.363,47.313
		c0.295-6.998,0.571-10.452,0.839-16.83c0.537-0.968,0.947-1.774,1.385-2.491c1.668-2.739,3.335-5.486,5.023-8.158
		c1.39-2.199,2.833-4.223,4.204-6.483c0.428-0.707,0.995-1.348,1.15-3.048c-0.434-0.364-0.818-0.814-1.225-1.005
		c-1.374-0.649-2.747-1.412-4.137-1.752c-2.255-0.548-4.521-0.871-6.786-1.153c-2.626-0.326-5.256-0.484-7.884-0.755
		c-1.871-0.193-3.743-0.4-5.611-0.704C7.102,4.736,5.889,4.333,4.672,4.055C4.206,3.948,3.736,3.944,3.268,3.867
		C2.787,3.789,2.307,3.679,1.693,3.556c0.703,3.51,1.865,5.814,2.756,8.552c2.102,6.458,4.645,11.899,7.577,16.196
		c0.248,1.835-0.256,2.681-0.732,3.614c-1.123,2.196-2.306,4.265-3.322,6.697c-1.619,3.869-3.126,4.882-4.67,8.914
		c-0.152,0.397-0.234,0.934-0.35,1.411c0.133,0.156,0.197,0.299,0.258,0.291c1.689-0.196,3.377-0.413,5.065-0.618
		c1.474-0.178,2.948-0.353,4.422-0.514c0.427-0.047,0.865,0.082,1.283-0.079c2.075-0.802,4.166-0.687,6.256-0.727
		C20.589,47.286,20.942,47.304,21.363,47.313 M23.317,33.548c-0.143,3.648-0.316,3.973-0.404,7.415
		c-0.154,6.025-0.256,12.057-0.383,18.086c-0.007,0.328-0.037,0.654-0.056,0.981c-0.23,3.797-0.133,7.578,0.11,11.347
		c0.028,0.433,0.215,0.81,0.346,1.276c1.696,0.381,3.375,1.014,5.059,1.091c5.803,0.267,21.039,0.53,26.844,0.673
		c2.596,0.063,5.193,0.193,7.789,0.137c2.232-0.048,11.324-0.102,13.553-0.371c2.443-0.294,10.024-0.773,12.468-1.001
		c2.807-0.263,294.524-0.27,297.333-0.236c2.015,0.023,4.036,0.244,6.042,0.667c2.865,0.605,9.152,1.151,12.037,1.201
		c3.293,0.057,6.537-0.999,9.803-1.539c1.031-0.172,2.053-0.655,3.126-1.009c0.092-0.772,0.203-1.382,0.232-2.011
		c0.095-2.135,0.231-4.28,0.226-6.418c-0.012-5.952-0.032-11.91-0.153-17.854c-0.11-5.361-0.357-7.602-0.55-12.953
		c-0.011-0.303-0.096-0.594-0.174-1.055c-0.363-0.007-0.717-0.051-1.069-0.014c-0.971,0.104-1.94,0.247-2.91,0.364
		c-0.36,0.042-0.724-0.009-1.08,0.092c-3.037,0.859-6.09,1.279-9.144,1.525c-2.233,0.179-7.901-0.002-10.136-0.048
		c-1.334-0.028-2.668-0.11-3.999-0.293c-1.647-0.224-9.29-0.809-10.937-0.966c-1.945-0.185-286.798-0.178-288.746-0.203
		c-1.802-0.021-8.751-0.173-10.552-0.032c-2.121,0.165-4.239,0.565-6.359,0.778c-0.968,0.096-8.799-0.224-9.767-0.15
		c-2.373,0.179-4.746,0.542-7.12,0.632c-3.813,0.146-17.057,0.001-20.871-0.023c-2.449-0.016-4.898-0.269-7.348-0.335
		C25.493,33.275,24.458,33.454,23.317,33.548 M435.66,0.728c-0.08,0.734-0.105,1.588-0.26,2.291
		c-1.616,7.312-3.378,14.414-5.727,20.663c-0.442,1.174-0.818,2.476-1.268,3.852c0.171,0.433,0.307,0.913,0.494,1.232
		c2.11,3.596,4.28,7.021,6.327,10.796c1.427,2.631,2.695,2.612,4.02,5.531c0.294,0.65,0.264,0.721,0.27,2.276
		c-6.924,0.67-13.827,1.971-20.71,3.961c-0.38,2.754,0.035,5.296-0.048,7.827c-0.084,2.539,0.017,5.108-0.023,7.659
		c-0.039,2.538,0.245,5.105-0.081,7.78c-0.69,0.264-1.353,0.575-2.022,0.764c-1.857,0.519-3.731,0.8-5.571,1.524
		c-2.503,0.985-5.029,0.771-7.541,1.124c-1.177,0.167-2.37-0.314-3.556-0.486c-2.623-0.379-8.676-0.825-11.299-1.188
		c-1.511-0.209-3.023-0.551-4.533-0.54c-2.593,0.023-294.092,0.108-296.683,0.327c-2.267,0.192-9.674,0.478-11.94,0.658
		c-4.246,0.339-15.345,1.012-19.601,0.743c-1.574-0.099-12.586,0.115-14.159-0.024c-2.691-0.238-5.377,0.433-8.071-0.047
		c-3.517-0.625-7.043-1-10.565-1.486c-0.568-0.08-1.135-0.181-1.674-0.266c-0.624-2.388-0.435-4.817-0.399-7.185
		c0.041-2.724,0.146-5.444,0.181-8.168c0.039-3.05,0.029-6.101,0.042-9.424c-0.468-0.076-0.923-0.199-1.377-0.212
		c-1.182-0.035-2.363-0.026-3.545-0.026c-0.432,0-0.865-0.003-1.297,0.04c-2.516,0.249-5.031,0.512-7.547,0.769
		c-0.144,0.014-0.289,0.015-0.432,0.029C5.483,51.67,3.9,51.826,2.318,51.963c-0.348,0.03-0.696-0.008-1.085-0.016
		c-0.067-1.775,0.123-3.119,0.533-4.336c0.814-2.421,1.599-4.895,2.442-7.261c0.451-1.266,0.978,0.702,1.504-0.409
		c1.325-2.804,2.671-5.555,4.003-8.343c0.154-0.321,0.268-0.741,0.461-1.289c-0.263-0.628-0.481-1.265-0.748-1.767
		c-2.715-5.132-4.911-11.39-7.133-17.559c-0.952-2.644-1.809-5.58-2.209-9.015C0.041,1.583,0.033,1.178,0,0.673
		c0.702-0.456,1.378-0.434,2.043-0.296C3.404,0.658,4.759,1.096,6.12,1.366c2.978,0.59,5.957,1.132,8.937,1.656
		c0.754,0.133,1.514,0.104,2.27,0.178c2.267,0.22,4.54,0.28,6.799,0.723c3.759,0.736,7.536,1.276,11.206,3.549
		c0.448,0.277,0.892,0.596,1.289,0.864c0.825,4.48,1.117,12.498,0.824,22.249c0.227,0.068,0.46,0.205,0.692,0.195
		c1.945-0.089,13.321-0.039,15.266-0.12c2.991-0.124,5.983-0.102,8.97-0.361c2.046-0.174,10.942-0.664,12.986-0.932
		c1.364-0.18,2.734-0.043,4.101-0.127c1.043-0.062,7.229-0.251,8.272-0.252c1.15,0,285.203,0.251,286.355,0.328
		c1.545,0.105,9.093,0.212,10.638,0.347c3.491,0.305,6.98,0.688,10.472,0.989c0.529,0.046,4.492-0.104,5.077-0.21
		c0.251-7.53-0.312-15.042,0.698-22.48c1.392-1.088,2.754-2.469,4.314-2.475c1.036-0.005,2.07-0.508,3.106-0.749
		c1.18-0.275,2.36-0.555,3.544-0.745c2.297-0.366,4.597-0.723,6.898-0.989c2.769-0.32,5.546-0.374,8.309-0.853
		c2.541-0.44,5.112-0.445,7.596-2.046C435.061-0.102,435.066-0.058,435.66,0.728"/>
	<path class="st1" d="M23.317,33.549c1.141-0.095,2.176-0.274,3.21-0.247c2.449,0.067,4.899,0.32,7.348,0.335
		c3.813,0.025,17.058,0.17,20.871,0.024c2.374-0.09,4.746-0.453,7.119-0.633c0.969-0.073,8.8,0.247,9.767,0.151
		c2.121-0.213,4.238-0.614,6.359-0.779c1.802-0.141,291.655,0.011,293.457,0.033c1.948,0.024,3.896,0.017,5.841,0.203
		c1.648,0.157,9.291,0.742,10.937,0.966c1.331,0.183,2.665,0.265,3.999,0.293c2.236,0.046,7.903,0.227,10.136,0.047
		c3.055-0.245,6.108-0.666,9.145-1.524c0.356-0.102,0.72-0.05,1.08-0.093c0.97-0.117,1.939-0.26,2.909-0.363
		c0.353-0.037,0.707,0.007,1.07,0.014c0.077,0.46,0.162,0.751,0.173,1.055c0.194,5.35,0.44,7.591,0.55,12.952
		c0.122,5.944,0.141,11.902,0.154,17.854c0.004,2.139-0.131,4.283-0.227,6.419c-0.028,0.629-0.14,1.239-0.231,2.01
		c-1.073,0.355-2.095,0.838-3.127,1.009c-3.265,0.54-6.509,1.596-9.802,1.54c-2.885-0.05-9.172-0.597-12.037-1.201
		c-2.007-0.423-4.028-0.644-6.043-0.668c-2.808-0.033-294.526-0.026-297.333,0.237c-2.443,0.228-10.025,0.706-12.468,1.001
		c-2.229,0.269-11.321,0.323-13.553,0.371c-2.596,0.055-5.192-0.074-7.789-0.138c-5.804-0.142-21.04-0.405-26.844-0.672
		c-1.683-0.078-3.362-0.71-5.058-1.092c-0.131-0.465-0.319-0.843-0.346-1.276c-0.244-3.768-0.34-7.55-0.111-11.346
		c0.02-0.327,0.05-0.653,0.056-0.982c0.127-6.029,0.229-12.061,0.383-18.086C23.001,37.522,23.174,37.197,23.317,33.549"/>
	<path class="st1" d="M21.362,47.313c-0.42-0.008-0.773-0.027-1.126-0.02c-2.09,0.04-4.182-0.075-6.257,0.728
		c-0.418,0.161-0.856,0.032-1.283,0.078c-1.474,0.161-2.948,0.337-4.421,0.515c-1.689,0.204-3.377,0.421-5.066,0.618
		c-0.061,0.007-0.124-0.136-0.258-0.292c0.116-0.477,0.198-1.013,0.35-1.411c1.544-4.032,3.051-5.044,4.67-8.914
		c1.017-2.431,2.199-4.501,3.322-6.697c0.476-0.932,0.98-1.779,0.733-3.614c-2.933-4.296-5.476-9.738-7.578-16.196
		C3.557,9.37,2.395,7.066,1.692,3.556c0.614,0.123,1.094,0.233,1.576,0.312c0.467,0.076,0.937,0.08,1.404,0.187
		c1.217,0.279,2.429,0.681,3.649,0.88c1.868,0.304,3.739,0.51,5.611,0.703c2.627,0.271,5.257,0.429,7.883,0.756
		c2.265,0.281,4.532,0.604,6.786,1.153c1.391,0.339,2.763,1.102,4.137,1.751c0.408,0.191,0.792,0.642,1.225,1.005
		c-0.154,1.7-0.721,2.342-1.15,3.048c-1.37,2.26-2.813,4.284-4.203,6.483c-1.689,2.672-3.355,5.419-5.024,8.158
		c-0.437,0.718-0.848,1.523-1.384,2.491C21.933,36.862,21.657,40.316,21.362,47.313"/>
	<path class="st1" d="M426.137,29.124c1.465,1.869,2.833,3.467,4.134,5.315c1.312,1.863,2.634,3.766,3.811,6.037
		c1.164,2.246,2.49,1.061,3.483,4.259c-0.335,0.121-0.527,0.238-0.72,0.253c-2.268,0.164-4.54,0.162-6.802,0.516
		c-1.719,0.268-3.427,0.97-5.138,1.506c-1.709,0.534-3.416,1.117-5.126,1.64c-0.316,0.095-0.643,0.001-1.082-0.008
		c-0.538-7.851-0.449-12.685-0.852-20.457c-2.664-3.608-5.475-6.159-8.251-8.879c-0.462-0.453-0.915-0.968-1.357-1.524
		c-1.327-1.666-2.646-3.36-3.966-5.058c-0.27-0.346-0.612-0.571-0.622-1.782c0.628-0.373,1.266-0.889,1.921-1.113
		c1.99-0.682,3.985-1.298,5.982-1.851c1.856-0.515,3.716-0.946,5.577-1.354c1.002-0.22,2.01-0.312,3.015-0.469
		c3.125-0.487,6.252-0.919,9.374-1.492c1.393-0.256,2.776-0.799,4.164-1.196c0.06-0.018,0.127,0.116,0.267,0.251
		c-0.035,0.403-0.034,0.887-0.118,1.277c-0.978,4.535-2.25,8.647-3.59,12.632c-1.001,2.981-2.138,5.719-3.198,8.595
		C426.745,27.026,426.504,27.938,426.137,29.124"/>
	<path class="st2" d="M415.358,29.04c-0.301,0.073-0.601,0.206-0.903,0.21c-1.009,0.01-2.02-0.084-3.028-0.03
		c-1.798,0.095-3.593-0.017-5.39,0.68c-1.268,0.49-2.586,0.299-3.882,0.379c-0.132,0.009-0.266-0.215-0.484-0.404
		c-0.107-5.634-0.363-11.286,0.078-16.942c0.027-0.046,0.05-0.108,0.08-0.134c0.033-0.028,0.081-0.062,0.105-0.028
		c4.295,6.057,8.908,10.674,13.482,15.471C415.397,28.508,415.377,28.774,415.358,29.04"/>
	<path class="st2" d="M35.777,11.684c0.442,3.724,0.542,15.045,0.208,19.117c-3.669,0.406-7.335-0.804-11.255-0.613
		c1.132-3.072,2.422-4.772,3.63-6.7c1.207-1.924,2.444-3.758,3.611-5.802C33.168,15.589,34.481,13.946,35.777,11.684"/>
	<path class="st3" d="M388.073,54.357c-1.27,0.278-3.13,0.473-4.918,0.501c0.593-2.003,2.142-3.115,3.31-3.115
		C387.967,51.743,388.55,52.577,388.073,54.357 M391.076,54.775c0.977-3.644-0.396-5.785-3.623-5.785
		c-3.281,0-6.514,2.308-7.744,6.897c-1.192,4.45,0.811,6.731,4.566,6.731c1.891,0,2.926-0.334,3.655-0.668
		c0.348-0.779,0.722-1.863,1.061-2.92c-1.019,0.584-2.125,0.973-3.376,0.973c-2.169,0-3.246-0.862-2.982-2.781
		c2.824-0.056,5.788-0.528,8-1.001c0.125-0.362,0.324-1.001,0.436-1.419L391.076,54.775z M380.544,49.657
		c-1.157,0.167-2.431,0.25-4.037,0.223c0.54-1.808,0.996-3.199,1.748-5.173c-1.575,0.584-2.756,0.945-3.88,1.195
		c-0.254,1.363-0.634,2.782-1.025,4.033c-0.278,0-0.703,0.028-1.009,0.028c-0.411,0.807-0.756,1.474-1.436,2.559
		c0.508-0.028,1.183-0.056,1.711-0.056c-0.558,1.669-1.074,3.282-1.432,4.617c-0.991,3.699,0.57,5.451,4.792,5.368
		c0.507-0.751,1.061-1.78,1.615-2.809c-0.453,0.027-0.85,0.055-1.204,0.027c-1.959-0.055-2.532-0.723-1.861-3.226
		c0.231-0.862,0.726-2.503,1.19-3.921c0.986,0.055,2.286,0.083,3.031,0C379.232,51.854,379.847,50.909,380.544,49.657
		 M368.48,55.136c1.08-4.033,0.006-6.146-3.109-6.146c-1.447,0-2.819,0.556-3.727,1.14l0.436-1.419
		c-1.492,0.585-2.666,0.918-3.749,1.224c-0.282,1.78-1.17,5.924-2.087,9.345c-0.335,1.252-0.598,2.336-0.94,3.198
		c1.302-0.083,2.257-0.222,3.462-0.361c0.416-2.281,1.352-5.98,2.244-9.206c0.824-0.584,1.806-1.029,2.918-1.029
		c1.335,0,1.974,0.834,1.191,3.755c-0.708,2.642-1.651,5.228-2.306,6.841c1.252,0,2.296-0.055,3.362-0.194
		c0.467-1.224,1.492-4.116,2.297-7.12L368.48,55.136z M352.001,54.357c-1.27,0.278-3.13,0.473-4.918,0.501
		c0.593-2.003,2.142-3.115,3.31-3.115C351.895,51.743,352.478,52.577,352.001,54.357 M355.004,54.775
		c0.977-3.644-0.396-5.785-3.623-5.785c-3.281,0-6.514,2.308-7.744,6.897c-1.192,4.45,0.811,6.731,4.566,6.731
		c1.891,0,2.926-0.334,3.655-0.668c0.348-0.779,0.722-1.863,1.06-2.92c-1.018,0.584-2.124,0.973-3.375,0.973
		c-2.17,0-3.246-0.862-2.982-2.781c2.824-0.056,5.788-0.528,8-1.001c0.125-0.362,0.324-1.001,0.436-1.419L355.004,54.775z
		 M343.294,49.073c-1.371,0.445-2.565,0.751-3.717,1.001c-0.314,1.586-0.99,4.422-2.235,9.067c-0.335,1.252-0.648,2.42-0.95,3.337
		c1.224,0,2.22-0.083,3.251-0.194c0.352-1.419,0.557-2.392,1.131-4.534C341.549,54.858,342.641,50.992,343.294,49.073
		 M345.026,42.815c-1.118,0.334-2.242,0.584-3.294,0.668c-0.292,1.196-0.473,1.974-0.884,3.198c1.17-0.111,2.195-0.306,3.069-0.556
		C344.229,45.374,344.654,44.206,345.026,42.815 M332.708,55.47c-0.753,2.809-2.535,4.478-4.843,4.478
		c-0.501,0-1.07-0.056-1.553-0.223c0.471-1.863,1.426-5.117,2.061-7.175c0.59-0.334,1.534-0.64,2.48-0.64
		c1.669,0,2.429,1.418,1.863,3.532L332.708,55.47z M336.072,55.164c0.991-3.699-0.459-6.174-3.63-6.174
		c-1.363,0-2.524,0.389-3.387,0.806c0.93-3.365,1.764-6.063,2.417-7.982c-1.517,0.473-2.676,0.751-3.863,1.029
		c-0.538,2.837-1.851,7.843-2.917,11.82c-0.79,2.948-1.489,5.451-2.241,7.843c0.74-0.167,1.167-0.306,1.566-0.445
		c0.802,0.223,2.007,0.501,3.231,0.501c3.977,0,7.594-2.809,8.816-7.37L336.072,55.164z M321.274,55.692
		c1.185-4.422-0.064-6.508-3.012-6.508c-1.502,0-2.96,0.668-4.296,1.502c-0.407-0.973-1.194-1.669-2.919-1.669
		c-1.056,0-2.54,0.557-3.548,1.308l0.48-1.586c-1.519,0.584-2.792,0.974-3.832,1.224c-0.375,1.919-1.354,6.508-1.928,8.65
		c-0.403,1.501-0.695,2.697-1.22,4.032c1.33-0.083,2.186-0.167,3.533-0.417c0.466-2.364,1.374-6.063,2.325-9.094
		c0.728-0.64,1.795-1.196,2.768-1.196c1.363,0,1.696,0.834,0.779,4.255c-0.641,2.392-1.281,4.366-1.934,6.285
		c1.203-0.027,2.33-0.083,3.445-0.194c0.545-1.725,1.093-3.56,1.547-5.257c0.395-1.474,0.679-2.948,0.849-3.893
		c0.542-0.362,1.583-1.029,2.501-1.029c1.363,0,1.925,0.806,1.098,3.893c-0.723,2.698-1.629,5.145-2.274,6.62
		c1.357-0.084,2.325-0.167,3.49-0.362c0.574-1.418,1.455-3.977,2.14-6.536L321.274,55.692z M296.563,56.471
		c-0.254,0.946-0.654,2.336-0.954,3.143c-0.519,0.278-1.415,0.612-2.416,0.612c-1.391,0-1.794-0.779-1.518-1.808
		c0.335-1.252,1.58-2.058,3.137-2.058C295.397,56.36,296.057,56.388,296.563,56.471 M300.112,54.747
		c1.058-3.95-0.299-5.841-4.025-5.841c-1.113,0-2.042,0.25-2.608,0.39c-0.535,0.75-1.204,2.002-1.639,3.003
		c1.002-0.417,2.042-0.667,3.238-0.667c1.864,0,2.449,0.723,2.055,2.503c-0.43-0.056-0.964-0.139-1.687-0.139
		c-3.143,0-6.067,1.363-6.879,4.394c-0.693,2.587,0.655,4.2,3.352,4.2c1.53,0,2.539-0.445,3.079-0.696
		c-0.124,0.362-0.242,0.696-0.351,1.002c0.947-0.112,2.294-0.362,3.21-0.668c0.376-1.196,1.577-4.95,2.247-7.453L300.112,54.747z
		 M284.666,55.72c-0.708,2.642-2.275,4.339-3.749,4.339c-1.558,0-2.171-1.446-1.396-4.339c0.723-2.698,2.115-3.949,3.756-3.949
		c1.307,0,2.127,1.196,1.396,3.921L284.666,55.72z M287.989,55.359c1.058-3.95-0.685-6.369-3.967-6.369
		c-3.449,0-6.652,2.614-7.725,6.619c-1.282,4.784,0.701,7.036,3.871,7.036c3.199,0,6.509-2.391,7.814-7.259L287.989,55.359z
		 M275.879,49.073c-1.371,0.445-2.565,0.751-3.717,1.001c-0.314,1.586-0.99,4.422-2.235,9.067c-0.335,1.252-0.648,2.42-0.95,3.337
		c1.224,0,2.22-0.083,3.251-0.194c0.352-1.419,0.557-2.392,1.131-4.534C274.134,54.858,275.226,50.992,275.879,49.073
		 M277.611,42.815c-1.118,0.334-2.242,0.584-3.294,0.668c-0.292,1.196-0.473,1.974-0.884,3.198c1.17-0.111,2.195-0.306,3.069-0.556
		C276.814,45.374,277.239,44.206,277.611,42.815 M263.536,59.642c-0.51,0.139-1.2,0.222-1.562,0.222
		c-2.141,0-3.361-1.363-2.594-4.227c0.656-2.448,2.397-3.755,4.316-3.755c0.751,0,1.414,0.223,1.759,0.389
		C264.909,54.413,264.025,57.917,263.536,59.642 M271.554,41.758c-1.247,0.501-2.84,0.946-3.873,1.169
		c-0.271,1.529-0.609,3.309-1.396,6.452c-0.552-0.223-1.349-0.362-2.1-0.362c-3.921,0-7.09,3.004-8.104,6.787
		c-1.147,4.283,1.125,6.702,4.685,6.702c0.973,0,1.748-0.194,2.112-0.306c-0.082,0.306-0.207,0.668-0.309,0.946
		c1.215-0.278,2.394-0.528,3.338-0.834c0.323-1.725,0.828-3.505,1.26-5.118C268.606,51.826,270.662,44.567,271.554,41.758
		 M251.852,54.357c-1.27,0.278-3.13,0.473-4.918,0.501c0.593-2.003,2.142-3.115,3.31-3.115
		C251.746,51.743,252.329,52.577,251.852,54.357 M254.855,54.775c0.977-3.644-0.396-5.785-3.623-5.785
		c-3.281,0-6.514,2.308-7.744,6.897c-1.192,4.45,0.811,6.731,4.566,6.731c1.891,0,2.926-0.334,3.655-0.668
		c0.348-0.779,0.722-1.863,1.061-2.92c-1.019,0.584-2.125,0.973-3.376,0.973c-2.17,0-3.246-0.862-2.982-2.781
		c2.824-0.056,5.788-0.528,8-1.001c0.125-0.362,0.324-1.001,0.436-1.419L254.855,54.775z M241.343,55.692
		c1.185-4.422-0.064-6.508-3.012-6.508c-1.501,0-2.96,0.668-4.296,1.502c-0.406-0.973-1.194-1.669-2.918-1.669
		c-1.057,0-2.541,0.557-3.548,1.308l0.48-1.586c-1.519,0.584-2.792,0.974-3.832,1.224c-0.375,1.919-1.355,6.508-1.929,8.65
		c-0.402,1.501-0.695,2.697-1.219,4.032c1.329-0.083,2.186-0.167,3.532-0.417c0.467-2.364,1.375-6.063,2.326-9.094
		c0.728-0.64,1.795-1.196,2.768-1.196c1.363,0,1.695,0.834,0.779,4.255c-0.641,2.392-1.281,4.366-1.935,6.285
		c1.204-0.027,2.331-0.083,3.446-0.194c0.545-1.725,1.092-3.56,1.547-5.257c0.395-1.474,0.679-2.948,0.849-3.893
		c0.542-0.362,1.583-1.029,2.5-1.029c1.363,0,1.926,0.806,1.099,3.893c-0.723,2.698-1.629,5.145-2.275,6.62
		c1.358-0.084,2.326-0.167,3.49-0.362c0.575-1.418,1.455-3.977,2.141-6.536L241.343,55.692z M218.98,41.898
		c-1.567,0.556-2.736,0.973-3.923,1.251c-0.537,2.42-1.789,7.509-3.518,13.962c-0.679,2.531-1.064,3.866-1.572,5.451
		c1.287-0.028,2.242-0.167,3.315-0.334c0.345-1.39,0.779-3.115,1.256-4.895C216.468,50.13,217.934,45.179,218.98,41.898
		 M206.714,54.357c-1.27,0.278-3.13,0.473-4.918,0.501c0.592-2.003,2.142-3.115,3.31-3.115
		C206.608,51.743,207.191,52.577,206.714,54.357 M209.717,54.775c0.977-3.644-0.396-5.785-3.623-5.785
		c-3.282,0-6.514,2.308-7.744,6.897c-1.192,4.45,0.811,6.731,4.566,6.731c1.891,0,2.926-0.334,3.655-0.668
		c0.348-0.779,0.722-1.863,1.06-2.92c-1.018,0.584-2.124,0.973-3.375,0.973c-2.17,0-3.246-0.862-2.982-2.781
		c2.824-0.056,5.788-0.528,8-1.001c0.125-0.362,0.324-1.001,0.436-1.419L209.717,54.775z M192.032,59.642
		c-0.51,0.139-1.2,0.222-1.561,0.222c-2.142,0-3.362-1.363-2.594-4.227c0.655-2.448,2.396-3.755,4.315-3.755
		c0.751,0,1.415,0.223,1.759,0.389C193.405,54.413,192.522,57.917,192.032,59.642 M200.05,41.758
		c-1.246,0.501-2.84,0.946-3.873,1.169c-0.271,1.529-0.608,3.309-1.395,6.452c-0.552-0.223-1.349-0.362-2.1-0.362
		c-3.922,0-7.091,3.004-8.104,6.787c-1.148,4.283,1.124,6.702,4.684,6.702c0.974,0,1.749-0.194,2.112-0.306
		c-0.082,0.306-0.206,0.668-0.309,0.946c1.215-0.278,2.395-0.528,3.339-0.834c0.323-1.725,0.828-3.505,1.26-5.118
		C197.102,51.826,199.158,44.567,200.05,41.758 M177.596,58.613c0.574-2.142-0.647-3.088-2.172-4.144
		c-0.748-0.529-1.385-1.057-1.214-1.697c0.179-0.667,0.777-1.029,2.278-1.029c1.057,0,1.989,0.362,2.499,0.64
		c0.207-1.085,0.283-2.197,0.276-3.004c-0.511-0.167-1.321-0.362-2.461-0.362c-2.976,0-5.363,1.641-5.937,3.783
		c-0.469,1.752,0.375,2.753,1.616,3.727c1.538,1.112,2.128,1.502,1.92,2.28c-0.201,0.751-0.994,1.113-2.329,1.113
		c-1.307,0-2.38-0.251-3.356-0.862c-0.129,1.001-0.168,2.391-0.104,3.087c0.595,0.167,1.571,0.361,2.74,0.361
		c3.281,0,5.64-1.641,6.236-3.866L177.596,58.613z M165.414,54.357c-1.27,0.278-3.13,0.473-4.918,0.501
		c0.592-2.003,2.142-3.115,3.31-3.115C165.308,51.743,165.891,52.577,165.414,54.357 M168.417,54.775
		c0.977-3.644-0.397-5.785-3.623-5.785c-3.282,0-6.514,2.308-7.744,6.897c-1.192,4.45,0.811,6.731,4.566,6.731
		c1.891,0,2.926-0.334,3.655-0.668c0.348-0.779,0.722-1.863,1.06-2.92c-1.018,0.584-2.124,0.973-3.375,0.973
		c-2.17,0-3.246-0.862-2.982-2.781c2.824-0.056,5.788-0.528,8-1.001c0.125-0.362,0.324-1.001,0.436-1.419L168.417,54.775z
		 M152.034,55.72c-0.708,2.642-2.276,4.339-3.75,4.339c-1.557,0-2.171-1.446-1.396-4.339c0.723-2.698,2.115-3.949,3.756-3.949
		c1.307,0,2.127,1.196,1.397,3.921L152.034,55.72z M155.357,55.359c1.058-3.95-0.686-6.369-3.968-6.369
		c-3.448,0-6.652,2.614-7.725,6.619c-1.282,4.784,0.701,7.036,3.872,7.036c3.198,0,6.509-2.391,7.813-7.259L155.357,55.359z
		 M144.718,49.184c-0.311-0.083-0.595-0.167-1.179-0.167c-1.418,0-2.689,0.696-4.098,2.114h-0.028
		c0.259-0.862,0.551-1.641,0.742-2.253c-1.567,0.557-2.671,0.835-3.668,1.029c-0.851,4.005-2.193,9.429-3.183,12.711
		c1.008-0.028,2.171-0.112,3.391-0.306c0.478-2.615,1.309-5.924,2.034-8.316c0.915-1.029,1.936-1.725,3.132-1.725
		c0.5,0,1.014,0.056,1.379,0.251C143.851,51.381,144.404,50.046,144.718,49.184 M135.143,43.399
		c-1.484-0.166-2.438-0.139-3.522-0.139c-1.146,1.057-2.107,1.947-3.757,3.227l2.432,0.055
		C131.696,45.68,133.601,44.484,135.143,43.399 M129.982,54.357c-1.27,0.278-3.13,0.473-4.917,0.501
		c0.592-2.003,2.141-3.115,3.309-3.115C129.876,51.743,130.459,52.577,129.982,54.357 M132.986,54.775
		c0.976-3.644-0.397-5.785-3.623-5.785c-3.282,0-6.515,2.308-7.745,6.897c-1.192,4.45,0.811,6.731,4.566,6.731
		c1.891,0,2.926-0.334,3.655-0.668c0.348-0.779,0.722-1.863,1.061-2.92c-1.019,0.584-2.125,0.973-3.376,0.973
		c-2.169,0-3.246-0.862-2.982-2.781c2.824-0.056,5.788-0.528,8-1.001c0.125-0.362,0.324-1.001,0.436-1.419L132.986,54.775z
		 M122.788,43.427c-1.306,0.306-2.561,0.529-3.997,0.696c-0.516,2.447-1.193,5.284-1.998,8.287c-1.593,0.028-4.07,0.14-5.518,0.251
		c0.874-3.365,1.643-5.924,2.762-9.373c-1.475,0.417-2.584,0.612-3.936,0.779c-0.601,2.865-1.21,5.451-2.119,8.844
		c-0.46,0.056-0.781,0.111-1.122,0.139c-0.363,0.835-0.713,1.725-1.109,2.893c0.677-0.139,1.046-0.167,1.478-0.223
		c-0.636,2.475-1.429,5.229-1.976,7.064c1.301-0.083,2.297-0.166,3.512-0.445c0.351-1.724,1.083-4.561,1.757-6.869
		c1.984-0.139,3.953-0.223,5.518-0.25c-0.802,2.892-1.386,5.173-2.158,7.537c1.211-0.056,2.347-0.251,3.583-0.501
		c0.281-1.363,0.693-3.004,1.558-6.23C120.521,50.436,121.619,46.959,122.788,43.427 M94.103,56.471
		c0,0.946-0.028,2.336-0.111,3.143c-0.445,0.278-1.252,0.612-2.253,0.612c-1.391,0-2.003-0.779-2.003-1.808
		c0-1.252,1.029-2.058,2.587-2.058C92.907,56.36,93.574,56.388,94.103,56.471 M97.19,54.747c0-3.95-1.863-5.841-5.59-5.841
		c-1.113,0-1.975,0.25-2.503,0.39c-0.334,0.75-0.668,2.002-0.835,3.003c0.89-0.417,1.864-0.667,3.06-0.667
		c1.863,0,2.642,0.723,2.725,2.503c-0.445-0.056-1.001-0.139-1.724-0.139c-3.143,0-5.702,1.363-5.702,4.394
		c0,2.587,1.78,4.2,4.478,4.2c1.53,0,2.42-0.445,2.893-0.696c-0.028,0.362-0.056,0.696-0.084,1.002
		c0.918-0.112,2.197-0.362,3.032-0.668c0.055-1.196,0.25-4.95,0.25-7.453V54.747z M84.452,49.073
		c-1.251,0.445-2.364,0.751-3.448,1.001c0.111,1.586,0.194,4.422,0.194,9.067c0,1.252,0,2.42-0.055,3.337
		c1.223,0,2.197-0.083,3.198-0.194c-0.028-1.419-0.083-2.392-0.083-4.534C84.258,54.858,84.313,50.992,84.452,49.073 M84.508,42.815
		c-1.029,0.334-2.086,0.584-3.115,0.668c0.028,1.196,0.056,1.974-0.028,3.198c1.141-0.111,2.114-0.306,2.92-0.556
		C84.397,45.374,84.508,44.206,84.508,42.815 M79.28,49.184c-0.334-0.083-0.64-0.167-1.224-0.167c-1.418,0-2.503,0.696-3.532,2.114
		h-0.028c0.028-0.862,0.111-1.641,0.139-2.253c-1.418,0.557-2.447,0.835-3.393,1.029c0.223,4.005,0.334,9.429,0.223,12.711
		c1.001-0.028,2.141-0.112,3.309-0.306c-0.222-2.615-0.278-5.924-0.194-8.316c0.639-1.029,1.474-1.725,2.67-1.725
		c0.5,0,1.029,0.056,1.446,0.251C79.002,51.381,79.196,50.046,79.28,49.184 M65.93,54.357c-1.196,0.278-3.004,0.473-4.784,0.501
		c0.056-2.003,1.308-3.115,2.476-3.115C65.124,51.743,65.93,52.577,65.93,54.357 M69.045,54.775c0-3.644-1.947-5.785-5.173-5.785
		c-3.282,0-5.896,2.308-5.896,6.897c0,4.45,2.614,6.731,6.369,6.731c1.891,0,2.837-0.334,3.476-0.668
		c0.139-0.779,0.223-1.863,0.278-2.92c-0.862,0.584-1.863,0.973-3.114,0.973c-2.17,0-3.477-0.862-3.727-2.781
		c2.809-0.056,5.646-0.528,7.731-1.001c0.028-0.362,0.056-1.001,0.056-1.419V54.775z M57.559,43.9
		c-1.919,0.25-4.2,0.195-6.202,0.195l0.083-0.89c-1.418,0.5-2.614,0.834-3.726,1.112c0.139,2.114,0.278,5.785,0.25,7.954
		c-0.362,0-0.612,0.056-0.974,0.056c-0.083,0.779-0.306,2.003-0.556,3.004c0.723-0.111,1.085-0.167,1.53-0.195
		c0.028,2.42-0.111,6.313-0.223,8.093c1.308-0.166,2.337-0.417,3.393-0.667c-0.055-1.641-0.055-5.257,0-7.454
		c1.558,0.028,3.393,0,4.701-0.139c0.361-0.945,0.556-1.947,0.751-3.087c-1.53,0.278-3.616,0.389-5.452,0.389l0.167-5.423
		c1.919,0.084,3.727,0.111,5.396,0.028C57.142,45.68,57.336,44.985,57.559,43.9"/>
</g>
</svg>
