<svg id="Capa_1" data-name="Capa 1" xmlns="http://www.w3.org/2000/svg" xmlns:xlink="http://www.w3.org/1999/xlink" viewBox="0 0 190 32"><defs><style>.cls-1{fill:none;}.cls-2{clip-path:url(#clip-path);}.cls-3{fill:#ffeb92;}.cls-4{fill:#7c6eb0;}</style><clipPath id="clip-path"><rect class="cls-1" x="0.39" y="-0.32" width="189.39" height="32.42"/></clipPath></defs><g class="cls-2"><path class="cls-3" d="M5.48,2.16c-.18,0-.3.26-.26.57.67,5.1,2.71,11.73,2.46,12.66C7.48,16.14.17,27,.4,27.84a1.07,1.07,0,0,0,.9.83c12.4,3.53,25.54,3.47,38.63,3.41,17.63-.09,99-.18,116.67-.27,5.54,0,25.7-.51,27.77-1.64a.72.72,0,0,0,.24-.67c-.4-3.08-2.89-11.32-2.89-11.32s7.66-11,7.62-11.75c-.06-1.06-.47-1.13-.86-1.19C156,.42,45.33,6.3,12.59,2.7c0,0-4.93-.6-7.11-.54"/><path class="cls-4" d="M5.93-.32c-.18,0-.3.27-.26.57C6.34,5.35,8.38,12,8.13,12.91,7.93,13.66.62,24.47.85,25.36a1.07,1.07,0,0,0,.89.83c12.41,3.53,25.55,3.47,38.64,3.41,17.63-.09,99-.18,116.66-.27,5.55,0,25.71-.51,27.78-1.64a.72.72,0,0,0,.24-.67c-.4-3.08-2.89-11.32-2.89-11.32s7.66-11,7.61-11.75c-.06-1.06-.46-1.13-.85-1.19C156.42-2.06,45.78,3.82,13,.22c0,0-4.93-.59-7.11-.54"/></g></svg>