<?xml version="1.0" encoding="utf-8"?>
<!-- Generator: Adobe Illustrator 21.1.0, SVG Export Plug-In . SVG Version: 6.00 Build 0)  -->
<svg version="1.1" id="Capa_1" xmlns="http://www.w3.org/2000/svg" xmlns:xlink="http://www.w3.org/1999/xlink" x="0px" y="0px"
	 viewBox="0 0 51.1 33.5" style="enable-background:new 0 0 51.1 33.5;" xml:space="preserve">
<style type="text/css">
	.st0{clip-path:url(#SVGID_2_);}
	.st1{clip-path:url(#SVGID_4_);fill:#005CA8;}
	.st2{filter:url(#Adobe_OpacityMaskFilter);}
	.st3{clip-path:url(#SVGID_4_);}
	.st4{clip-path:url(#SVGID_4_);mask:url(#SVGID_5_);}
	.st5{opacity:0.2;clip-path:url(#SVGID_9_);fill:#1D1D1B;}
	.st6{clip-path:url(#SVGID_2_);fill:#FFFFFF;}
	.st7{clip-path:url(#SVGID_11_);fill:none;stroke:#005CA8;stroke-width:1.718;stroke-linecap:round;}
	.st8{clip-path:url(#SVGID_2_);fill:none;stroke:#005CA8;stroke-width:1.145;stroke-linecap:round;}
	.st9{clip-path:url(#SVGID_13_);fill:#005CA8;}
	.st10{clip-path:url(#SVGID_15_);fill:#FFFFFF;}
</style>
<g>
	<defs>
		<rect id="SVGID_1_" width="51.1" height="33.5"/>
	</defs>
	<clipPath id="SVGID_2_">
		<use xlink:href="#SVGID_1_"  style="overflow:visible;"/>
	</clipPath>
	<g class="st0">
		<defs>
			<rect id="SVGID_3_" y="0" width="51.1" height="33.5"/>
		</defs>
		<clipPath id="SVGID_4_">
			<use xlink:href="#SVGID_3_"  style="overflow:visible;"/>
		</clipPath>
		<path class="st1" d="M24.3,11.1c0,0-1.7,0-1.7,1.7v13.9c0,0,0,1.7,1.7,1.7h25c0,0,1.7,0,1.7-1.7V12.8c0,0,0-1.7-1.7-1.7H24.3z"/>
		<defs>
			<filter id="Adobe_OpacityMaskFilter" filterUnits="userSpaceOnUse" x="2.9" y="-1" width="25" height="32.2">
				<feColorMatrix  type="matrix" values="1 0 0 0 0  0 1 0 0 0  0 0 1 0 0  0 0 0 1 0"/>
			</filter>
		</defs>
		<mask maskUnits="userSpaceOnUse" x="2.9" y="-1" width="25" height="32.2" id="SVGID_5_">
			<g class="st2">
				<g>
					<defs>
						<rect id="SVGID_6_" x="-6" y="-8" width="43.2" height="40.3"/>
					</defs>
					<clipPath id="SVGID_7_" class="st3">
						<use xlink:href="#SVGID_6_"  style="overflow:visible;"/>
					</clipPath>
					<g transform="matrix(1 0 0 1 0 0)" style="clip-path:url(#SVGID_7_);">
						
							<image style="overflow:visible;" width="180" height="168" xlink:href="163E1B91FE48406D.jpg"  transform="matrix(0.24 0 0 0.24 -5.9819 -7.9744)">
						</image>
					</g>
				</g>
			</g>
		</mask>
		<g class="st4">
			<g>
				<defs>
					<rect id="SVGID_8_" x="2.9" y="-1" width="25" height="32.2"/>
				</defs>
				<clipPath id="SVGID_9_">
					<use xlink:href="#SVGID_8_"  style="overflow:visible;"/>
				</clipPath>
				<rect x="2.9" y="-1" class="st5" width="25" height="32.2"/>
			</g>
		</g>
	</g>
	<rect x="1.4" y="0.7" class="st6" width="24.7" height="32"/>
	<g class="st0">
		<defs>
			<rect id="SVGID_10_" y="0" width="51.1" height="33.5"/>
		</defs>
		<clipPath id="SVGID_11_">
			<use xlink:href="#SVGID_10_"  style="overflow:visible;"/>
		</clipPath>
		<path class="st7" d="M0.9,0.9v28.8c0,0,0.4,3,1.6,3H27c-1.2,0-1.6-3-1.6-3V0.9H0.9z"/>
	</g>
	<rect x="4.4" y="10.3" class="st8" width="7.5" height="7.4"/>
	<g class="st0">
		<defs>
			<rect id="SVGID_12_" y="0" width="51.1" height="33.5"/>
		</defs>
		<clipPath id="SVGID_13_">
			<use xlink:href="#SVGID_12_"  style="overflow:visible;"/>
		</clipPath>
		<path class="st9" d="M20.8,5.8l0.4-1.5l0.5,1.5H20.8z M22.2,7.3H23l-1.3-3.8h-0.9l-1.3,3.8h0.8l0.3-0.9h1.3L22.2,7.3z M19.8,3.5
			H17v0.7h1v3.2h0.7V4.2h1V3.5z M14.4,6.3l-0.3,0.5c0.4,0.3,0.8,0.5,1.3,0.5c0.7,0,1.3-0.4,1.3-1.2c0-1.4-1.8-0.9-1.8-1.7
			c0-0.3,0.2-0.4,0.6-0.4c0.3,0,0.6,0.1,0.9,0.3l0.3-0.5c-0.3-0.3-0.8-0.4-1.2-0.4c-0.7,0-1.3,0.4-1.3,1.2C14.2,6,16,5.5,16,6.3
			c0,0.3-0.3,0.4-0.6,0.4C15,6.7,14.7,6.5,14.4,6.3 M12.8,7.3h0.8V3.5h-0.8V7.3z M10,3.5H9.2l1.2,3.8h0.6l1.2-3.8h-0.8l-0.8,2.6
			L10,3.5z M6.7,7.3H9V6.7H7.4V5.7h1.3V5.1H7.4V4.2H9V3.5H6.7V7.3z M4.2,5.3V4.2h0.5c0.4,0,0.6,0.2,0.6,0.6c0,0.4-0.2,0.6-0.6,0.6
			H4.2z M3.4,7.3h0.7V5.9h0.4l0.7,1.4h0.9L5.3,5.8C5.7,5.6,6,5.2,6,4.7C6,4,5.5,3.5,4.7,3.5H3.4V7.3z"/>
	</g>
	<line class="st8" x1="14.2" y1="11.5" x2="21.9" y2="11.5"/>
	<line class="st8" x1="14.2" y1="14.5" x2="21.9" y2="14.5"/>
	<line class="st8" x1="14.2" y1="17.7" x2="21.9" y2="17.7"/>
	<line class="st8" x1="4.1" y1="22" x2="22.8" y2="22"/>
	<line class="st8" x1="4.1" y1="25" x2="22.8" y2="25"/>
	<line class="st8" x1="4.1" y1="28.2" x2="22.8" y2="28.2"/>
	<g class="st0">
		<defs>
			<rect id="SVGID_14_" y="0" width="51.1" height="33.5"/>
		</defs>
		<clipPath id="SVGID_15_">
			<use xlink:href="#SVGID_14_"  style="overflow:visible;"/>
		</clipPath>
		<path class="st10" d="M44.1,13.7c-0.5,0.5-1,1.1-1.6,1.7c-0.5,0.6-1,1.3-1.5,2c-0.5,0.7-0.9,1.3-1.3,2c-0.4,0.6-0.7,1.2-0.9,1.7
			V23h5.2v2.7h2.5V23h1.3v-2.1h-1.3v-7.2H44.1z M44.1,20.9h-2.7c0.3-0.7,0.8-1.4,1.3-2.1c0.5-0.7,1-1.3,1.4-1.9V20.9z M34.3,22.2
			c-0.3,0.3-0.6,0.6-1,0.8s-0.9,0.3-1.4,0.4c-0.5,0.1-1.1,0.1-1.8,0.1c0,0.4,0,0.7,0.1,1.1c0,0.3,0,0.7,0.1,1.1
			c1.3,0,2.4-0.2,3.4-0.5c1-0.3,1.7-0.7,2.4-1.3c0.6-0.6,1.1-1.3,1.4-2.2c0.3-0.9,0.4-1.9,0.4-3c0-1.7-0.4-3-1.1-3.9
			c-0.8-0.9-1.9-1.4-3.4-1.4c-0.7,0-1.3,0.1-1.9,0.4c-0.5,0.3-0.9,0.6-1.3,1c-0.3,0.4-0.6,0.8-0.7,1.3c-0.2,0.5-0.2,1-0.2,1.4
			c0,0.6,0.1,1.1,0.2,1.5c0.2,0.5,0.4,0.9,0.8,1.2c0.3,0.3,0.8,0.6,1.3,0.8c0.5,0.2,1.2,0.3,1.9,0.3c0.2,0,0.5,0,0.7-0.1
			c0.3-0.1,0.6-0.1,0.8-0.2C34.8,21.4,34.6,21.9,34.3,22.2 M32.3,18.8c-0.3-0.3-0.5-0.8-0.5-1.4c0-0.2,0-0.4,0.1-0.6
			c0.1-0.2,0.2-0.4,0.3-0.6c0.1-0.2,0.3-0.3,0.5-0.4s0.4-0.2,0.7-0.2c0.3,0,0.6,0.1,0.9,0.2c0.2,0.2,0.4,0.4,0.6,0.6
			c0.1,0.3,0.2,0.6,0.3,0.9c0.1,0.4,0.1,0.8,0.1,1.2c0,0,0,0.1,0,0.1s0,0.1,0,0.1V19c-0.1,0.1-0.3,0.2-0.6,0.2
			c-0.3,0.1-0.6,0.1-0.8,0.1C33.1,19.3,32.6,19.1,32.3,18.8"/>
	</g>
</g>
</svg>
