<svg id="Capa_1" data-name="Capa 1" xmlns="http://www.w3.org/2000/svg" xmlns:xlink="http://www.w3.org/1999/xlink" viewBox="0 0 24.27 13.44"><defs><style>.cls-1,.cls-4{fill:none;}.cls-2{clip-path:url(#clip-path);}.cls-3{fill:#fff;}.cls-4{stroke:#ea5153;stroke-linecap:round;stroke-width:0.75px;}.cls-5{font-size:10px;fill:#ea5153;font-family:Ubuntu-Bold, Ubuntu;font-weight:700;}</style><clipPath id="clip-path" transform="translate(-0.25 -0.24)"><rect class="cls-1" x="0.25" y="0.24" width="24.27" height="13.44"/></clipPath></defs><g class="cls-2"><path class="cls-3" d="M3.21.38H21.06a2.84,2.84,0,0,1,2.84,2.84v7a2.83,2.83,0,0,1-2.83,2.83H3.21A2.84,2.84,0,0,1,.38,10.23v-7A2.84,2.84,0,0,1,3.21.38Z"/><path class="cls-4" d="M3.21.38H21.06a2.84,2.84,0,0,1,2.84,2.84v7a2.83,2.83,0,0,1-2.83,2.83H3.21A2.84,2.84,0,0,1,.38,10.23v-7A2.84,2.84,0,0,1,3.21.38Z"/><polyline class="cls-4" points="10.66 13.06 13.23 6.72 10.66 0.38"/><text class="cls-5" transform="translate(4.77 10.33)">I</text><text class="cls-5" transform="translate(14.16 10.33)">G</text></g></svg>