<?xml version="1.0" encoding="utf-8"?>
<!-- Generator: Adobe Illustrator 16.2.1, SVG Export Plug-In . SVG Version: 6.00 Build 0)  -->
<!DOCTYPE svg PUBLIC "-//W3C//DTD SVG 1.1//EN" "http://www.w3.org/Graphics/SVG/1.1/DTD/svg11.dtd">
<svg version="1.1" id="Capa_1" xmlns="http://www.w3.org/2000/svg" xmlns:xlink="http://www.w3.org/1999/xlink" x="0px" y="0px"
	 width="50.781px" height="35.071px" viewBox="52.625 0.646 50.781 35.071" enable-background="new 52.625 0.646 50.781 35.071"
	 xml:space="preserve">
<g>
	<path fill="#504F4E" d="M57.12,8.747c2.43,0,4.374-1.944,4.374-4.374c-0.364-2.43-2.672-4.13-5.224-3.645
		c-1.822,0.243-3.28,1.701-3.645,3.645C52.747,6.803,54.69,8.747,57.12,8.747"/>
	<path fill="#504F4E" d="M99.033,8.747c2.43,0,4.373-1.944,4.373-4.374c-0.364-2.43-2.672-4.13-5.224-3.645
		c-1.944,0.364-3.401,1.822-3.645,3.645C94.659,6.803,96.604,8.747,99.033,8.747"/>
	<line fill="none" stroke="#FFCC00" stroke-width="3" stroke-linecap="round" x1="58.821" y1="4.374" x2="98.061" y2="4.374"/>
	<path fill="#504F4E" d="M57.12,35.717c2.43-0.122,4.374-2.065,4.252-4.495c-0.121-2.43-2.065-4.374-4.495-4.252
		c-2.309,0.122-4.252,2.065-4.252,4.374c0,2.43,1.943,4.374,4.374,4.374H57.12"/>
	<path fill="#504F4E" d="M99.033,35.717c2.43-0.122,4.373-2.065,4.252-4.495s-2.065-4.374-4.495-4.252
		c-2.309,0.122-4.252,1.944-4.252,4.374s1.943,4.374,4.373,4.374H99.033"/>
	<line fill="none" stroke="#FFCC00" stroke-width="3" stroke-linecap="round" x1="58.821" y1="31.343" x2="98.061" y2="31.343"/>
</g>
</svg>
