<svg id="Capa_1" data-name="Capa 1" xmlns="http://www.w3.org/2000/svg" viewBox="0 0 167.4 27.5"><defs><style>.cls-1{fill:#dfd7d5;}.cls-2{fill:none;stroke:#1d1d1b;stroke-miterlimit:10;}</style></defs><path class="cls-1" d="M148.4,2.3A3.9,3.9,0,0,0,145.3.8L76.4.5h-11L21.2.8a4,4,0,0,0-3.1,1.5L1,27H166.4ZM104.7,18.9h-42c-3.3,0-5.9-2.3-5.9-5.1s2.6-5.2,5.9-5.2h42c3.3,0,5.9,2.3,5.9,5.2s-2.6,5.1-5.9,5.1"/><path class="cls-2" d="M148.4,2.3A3.9,3.9,0,0,0,145.3.8L76.4.5h-11L21.2.8a4,4,0,0,0-3.1,1.5L1,27H166.4ZM104.7,18.9h-42c-3.3,0-5.9-2.3-5.9-5.1s2.6-5.2,5.9-5.2h42c3.3,0,5.9,2.3,5.9,5.2S108,18.9,104.7,18.9Z"/></svg>