<?xml version="1.0" encoding="utf-8"?>
<!-- Generator: Adobe Illustrator 14.0.0, SVG Export Plug-In . SVG Version: 6.00 Build 43363)  -->
<!DOCTYPE svg PUBLIC "-//W3C//DTD SVG 1.1//EN" "http://www.w3.org/Graphics/SVG/1.1/DTD/svg11.dtd">
<svg version="1.1" id="Layer_1" xmlns="http://www.w3.org/2000/svg" xmlns:xlink="http://www.w3.org/1999/xlink" x="0px" y="0px"
	 width="167.037px" height="72.619px" viewBox="0 0 167.037 72.619" enable-background="new 0 0 167.037 72.619"
	 xml:space="preserve">
<g>
	<path fill="#FFFFFF" d="M68.772,0.65c0,0,80.122-1.672,88.53,0.346c8.408,2.016,6.532,20.808,6.532,36.933
		c0,16.124,3.202,29.464,3.202,29.464s-19.42,3.578-45.585,4.772s-96.221,0-108.193-3.26C3.38,66.217-4.809,13.396,3.3,6.433
		C9.629,0.996,68.772,0.65,68.772,0.65"/>
	<path fill="#231F20" d="M166.62,65.836c-0.014-0.089-0.029-0.176-0.041-0.264c-0.044-0.332-0.096-0.666-0.145-0.998
		c-0.099-0.684-0.197-1.369-0.297-2.053c-0.195-1.354-0.676-6.17-0.923-7.518c-0.119-0.658-1.466-0.627-1.428,0.054
		c0.075,1.355,0.417,6.179,0.543,7.532l0.188,2c0.03,0.332,0.061,0.665,0.094,0.998c0.003,0.02,0.004,0.039,0.005,0.059
		c-1.318-0.006-2.649,0.059-3.952,0.11c-1.772,0.071-9.25,0.399-11.014,0.54c-1.056,0.083-0.984,1.277,0.087,1.21
		c1.77-0.114,9.247-0.397,11.021-0.417c1.61-0.018,3.218,0.05,4.825,0.053c0.106,0.013,0.215,0.014,0.32,0
		c0.06,0,0.121,0.002,0.182,0c0.542-0.003,0.976-0.385,0.949-0.768C167.018,66.129,166.854,65.952,166.62,65.836"/>
	<path fill="#231F20" d="M3.675,3.519c0.009,0.09,0.018,0.178,0.022,0.265c0.021,0.334,0.049,0.668,0.073,1.002
		c0.05,0.688,0.1,1.375,0.149,2.062c0.099,1.358,0.232,6.188,0.383,7.543c0.071,0.661,1.42,0.681,1.43,0
		c0.021-1.357,0.026-6.186-0.004-7.543L5.686,4.845C5.678,4.511,5.674,4.177,5.665,3.843c0-0.02,0-0.04,0-0.06
		c1.313,0.058,2.647,0.044,3.953,0.042c1.774-0.004,9.267-0.046,11.038-0.119c1.06-0.043,1.073-1.239,0-1.211
		C18.88,2.542,11.392,2.541,9.618,2.491C8.01,2.447,6.41,2.319,4.804,2.254C4.7,2.237,4.592,2.232,4.485,2.242
		C4.423,2.239,4.363,2.235,4.302,2.234C3.76,2.217,3.299,2.582,3.299,2.966C3.299,3.21,3.451,3.395,3.675,3.519"/>
</g>
</svg>
