<?xml version="1.0" encoding="utf-8"?>
<!-- Generator: Adobe Illustrator 14.0.0, SVG Export Plug-In . SVG Version: 6.00 Build 43363)  -->
<!DOCTYPE svg PUBLIC "-//W3C//DTD SVG 1.1//EN" "http://www.w3.org/Graphics/SVG/1.1/DTD/svg11.dtd">
<svg version="1.1" id="Layer_1" xmlns="http://www.w3.org/2000/svg" xmlns:xlink="http://www.w3.org/1999/xlink" x="0px" y="0px"
	 width="32.406px" height="49.218px" viewBox="0 0 32.406 49.218" enable-background="new 0 0 32.406 49.218" xml:space="preserve">
<g>
	<g opacity="0.57">
		<g>
			<path fill="#DAC2DF" d="M12.337,37.097c-2.003,1.182-2.812,2.6-2.32,3.674c-0.178,0.224-0.445,0.479-0.856,0.783
				c-1.648,1.213-3.677,1.795-3.677,1.795l0.021,0.004c-1.126,0.344-2.297,0.762-3.409,1.438c-0.01,0.005-0.021,0.011-0.031,0.016
				c-2.367,1.397-2.755,3.192-0.865,4.012c1.868,0.808,5.265,0.354,7.629-1.01h0.007c0,0,2.53-1.409,3.429-3.484l0.026,0.004
				c0.546-1.086,1.739-1.663,2.76-2.002c1.856-0.157,3.865-0.747,5.465-1.691c2.827-1.671,3.291-3.816,1.033-4.792
				c-0.04-0.018-0.087-0.03-0.127-0.048c2.024-1.559,4.758-3.69,5.174-4.155c0,0-1.786,0.807-5.913,3.696
				c-0.09,0.063-0.161,0.117-0.247,0.178C18.101,35.06,14.749,35.674,12.337,37.097"/>
		</g>
	</g>
	<path fill="#3C383D" d="M23.477,21.417c0,0,2.362,8.983,3.09,10.148c0,0,0.482-1.777-0.476-7.014
		C25.134,19.313,22.928,20.285,23.477,21.417"/>
	<path fill="#DD1D26" d="M28.981,4.858C28.958,2.142,25.786-0.034,21.898,0c-3.89,0.032-7.023,2.264-6.999,4.979
		c0.023,2.719,3.196,4.894,7.084,4.86C25.87,9.805,29.005,7.577,28.981,4.858"/>
	<path fill="#DD1D26" d="M30.001,15.152c-0.758-0.843-2.361-1.098-2.846-3.182c-0.501-2.159,0.724-3.806,0.724-3.806l-0.03,0.007
		c0.705-1.043,1.3-2.209,1.1-3.71c-0.329-2.446-14.05,0.437-14.05,0.437s-0.146,2.814,2.982,5.55l-0.036,0.008
		c1.686,1.601,1.246,2.921,0.638,3.81c-0.208,0.249-0.43,0.515-0.649,0.805c-0.027,0.031-0.052,0.061-0.074,0.089
		c-0.118,0.146-0.229,0.319-0.334,0.499c-0.263,0.422-0.496,0.898-0.657,1.448c-0.013,0.036-0.019,0.057-0.019,0.057l0.003-0.002
		c-0.016,0.055-0.029,0.107-0.044,0.161c-0.104,0.355-0.158,0.723-0.156,1.098c0.025,2.89,3.399,5.204,7.537,5.169
		c4.139-0.037,7.472-2.409,7.447-5.301C31.524,17.106,30.955,16.02,30.001,15.152"/>
	<path fill="#E3344E" d="M28.405,4.097c-0.019-2.169-2.944-3.9-6.533-3.87c-3.588,0.031-6.482,1.814-6.464,3.984
		c0.018,2.17,2.944,3.9,6.533,3.87C25.529,8.05,28.424,6.268,28.405,4.097"/>
	<path fill="#DD1D26" d="M32.406,18.467c-0.029-3.248-3.821-5.847-8.467-5.807c-4.648,0.041-8.394,2.706-8.366,5.954
		c0.029,3.246,3.818,5.848,8.47,5.807C28.688,24.38,32.434,21.715,32.406,18.467"/>
	<path fill="#E3344E" d="M17.528,17.576c0,0-1.283,1.942-0.474,3.488c0.811,1.546,4.432,2.941,7.581,2.704
		c3.146-0.236,7.661-2.417,7.087-5.561C31.15,15.063,29.256,14.45,27.866,14c-1.39-0.45-1.628-3.722-0.928-5.197
		c0.701-1.476,0.655-1.979,0.655-1.979S24.428,9.791,18.2,7.956c0,0-0.369,1.095,0.057,1.805s5.088,0.837,7.515-0.108
		c0,0-0.724,3.617,1.384,4.606c2.106,0.989,1.755,3.74-0.002,4.618C23.454,20.723,18.597,19.833,17.528,17.576"/>
</g>
</svg>
