<?xml version="1.0" encoding="utf-8"?>
<!-- Generator: Adobe Illustrator 21.1.0, SVG Export Plug-In . SVG Version: 6.00 Build 0)  -->
<svg version="1.1" id="Capa_1" xmlns="http://www.w3.org/2000/svg" xmlns:xlink="http://www.w3.org/1999/xlink" x="0px" y="0px"
	 viewBox="0 0 53.041 35.615" style="enable-background:new 0 0 53.041 35.615;" xml:space="preserve">
<style type="text/css">
	.st0{clip-path:url(#SVGID_2_);}
	.st1{clip-path:url(#SVGID_4_);fill:#005CA8;}
	.st2{filter:url(#Adobe_OpacityMaskFilter);}
	.st3{clip-path:url(#SVGID_4_);}
	.st4{clip-path:url(#SVGID_4_);mask:url(#SVGID_5_);}
	.st5{opacity:0.2;clip-path:url(#SVGID_9_);fill:#1D1D1B;}
	.st6{clip-path:url(#SVGID_2_);fill:#FFFFFF;}
	.st7{clip-path:url(#SVGID_11_);fill:none;stroke:#005CA8;stroke-width:1.777;stroke-linecap:round;}
	.st8{clip-path:url(#SVGID_2_);fill:none;stroke:#005CA8;stroke-width:1.185;stroke-linecap:round;}
	.st9{clip-path:url(#SVGID_13_);fill:#005CA8;}
	.st10{clip-path:url(#SVGID_15_);fill:#FFFFFF;}
</style>
<g>
	<defs>
		<rect id="SVGID_1_" x="-1.57" y="-2.007" width="58" height="40"/>
	</defs>
	<clipPath id="SVGID_2_">
		<use xlink:href="#SVGID_1_"  style="overflow:visible;"/>
	</clipPath>
	<g class="st0">
		<defs>
			<rect id="SVGID_3_" x="-1.57" y="-2.007" width="58" height="40"/>
		</defs>
		<clipPath id="SVGID_4_">
			<use xlink:href="#SVGID_3_"  style="overflow:visible;"/>
		</clipPath>
		<path class="st1" d="M25.33,12.448c0,0-1.805,0-1.805,1.805v14.4c0,0,0,1.805,1.805,1.805h25.906c0,0,1.805,0,1.805-1.805v-14.4
			c0,0,0-1.805-1.805-1.805H25.33z"/>
		<defs>
			<filter id="Adobe_OpacityMaskFilter" filterUnits="userSpaceOnUse" x="3.094" y="0" width="25.92" height="33.36">
				<feColorMatrix  type="matrix" values="1 0 0 0 0  0 1 0 0 0  0 0 1 0 0  0 0 0 1 0"/>
			</filter>
		</defs>
		<mask maskUnits="userSpaceOnUse" x="3.094" y="0" width="25.92" height="33.36" id="SVGID_5_">
			<g class="st2">
				<g>
					<defs>
						<rect id="SVGID_6_" x="-5.786" y="-6.96" width="44.16" height="41.28"/>
					</defs>
					<clipPath id="SVGID_7_" class="st3">
						<use xlink:href="#SVGID_6_"  style="overflow:visible;"/>
					</clipPath>
					<g transform="matrix(1 0 0 1 0 0)" style="clip-path:url(#SVGID_7_);">
						
							<image style="overflow:visible;" width="184" height="172" xlink:href="736872944538B377.jpg"  transform="matrix(0.24 0 0 0.24 -5.7864 -6.9599)">
						</image>
					</g>
				</g>
			</g>
		</mask>
		<g class="st4">
			<g>
				<defs>
					<rect id="SVGID_8_" x="3.094" y="0" width="25.92" height="33.36"/>
				</defs>
				<clipPath id="SVGID_9_">
					<use xlink:href="#SVGID_8_"  style="overflow:visible;"/>
				</clipPath>
				<rect x="3.094" class="st5" width="25.92" height="33.36"/>
			</g>
		</g>
	</g>
	<rect x="1.579" y="1.675" class="st6" width="25.604" height="33.13"/>
	<g class="st0">
		<defs>
			<rect id="SVGID_10_" x="-1.57" y="-2.007" width="58" height="40"/>
		</defs>
		<clipPath id="SVGID_11_">
			<use xlink:href="#SVGID_10_"  style="overflow:visible;"/>
		</clipPath>
		<path class="st7" d="M1.035,1.882v29.776c0,0,0.45,3.058,1.609,3.058h25.419c-1.223,0-1.609-3.057-1.609-3.057V1.882H1.035z"/>
	</g>
	<rect x="4.738" y="11.624" class="st8" width="7.776" height="7.695"/>
	<g class="st0">
		<defs>
			<rect id="SVGID_12_" x="-1.57" y="-2.007" width="58" height="40"/>
		</defs>
		<clipPath id="SVGID_13_">
			<use xlink:href="#SVGID_12_"  style="overflow:visible;"/>
		</clipPath>
		<path class="st9" d="M21.668,6.979l0.463-1.552L22.6,6.979H21.668z M23.068,8.565h0.836l-1.312-3.957h-0.883l-1.296,3.957h0.794
			l0.275-0.93h1.308L23.068,8.565z M20.594,4.608h-2.883v0.689h1.053v3.268h0.775V5.297h1.055V4.608z M15.039,7.529l-0.342,0.548
			c0.376,0.324,0.845,0.544,1.393,0.544c0.745,0,1.344-0.399,1.344-1.215c0-1.436-1.866-0.919-1.866-1.709
			c0-0.29,0.249-0.458,0.587-0.458c0.285,0,0.62,0.118,0.891,0.309l0.335-0.532c-0.343-0.287-0.811-0.464-1.277-0.464
			c-0.715,0-1.299,0.414-1.299,1.203c0,1.397,1.849,0.917,1.849,1.709c0,0.299-0.26,0.452-0.606,0.452
			C15.705,7.916,15.349,7.766,15.039,7.529 M13.364,8.565h0.777V4.608h-0.777V8.565z M10.532,4.608h-0.83l1.265,3.957h0.668
			l1.27-3.957h-0.789l-0.795,2.74L10.532,4.608z M7.034,8.565h2.414V7.879H7.802V6.912h1.395V6.228H7.802V5.294h1.606V4.608H7.034
			V8.565z M4.449,6.443V5.287h0.495c0.386,0,0.635,0.197,0.635,0.581c0,0.369-0.227,0.575-0.635,0.575H4.449z M3.686,8.565h0.763
			V7.124h0.425l0.751,1.441h0.9L5.644,7.003c0.446-0.195,0.71-0.613,0.71-1.146c0-0.729-0.497-1.249-1.333-1.249H3.686V8.565z"/>
	</g>
	<line class="st8" x1="14.819" y1="12.914" x2="22.837" y2="12.914"/>
	<line class="st8" x1="14.819" y1="16.045" x2="22.837" y2="16.045"/>
	<line class="st8" x1="14.819" y1="19.319" x2="22.837" y2="19.319"/>
	<line class="st8" x1="4.406" y1="23.73" x2="23.715" y2="23.73"/>
	<line class="st8" x1="4.406" y1="26.861" x2="23.715" y2="26.861"/>
	<line class="st8" x1="4.406" y1="30.135" x2="23.715" y2="30.135"/>
	<g class="st0">
		<defs>
			<rect id="SVGID_14_" x="-1.57" y="-2.007" width="58" height="40"/>
		</defs>
		<clipPath id="SVGID_15_">
			<use xlink:href="#SVGID_14_"  style="overflow:visible;"/>
		</clipPath>
		<path class="st10" d="M45.905,25.072c-0.369,0.327-0.963,0.49-1.783,0.49c-0.678,0-1.26-0.062-1.747-0.187
			c-0.488-0.125-0.88-0.253-1.177-0.384l-0.481,2.193c0.142,0.072,0.344,0.143,0.606,0.214c0.261,0.072,0.555,0.14,0.882,0.205
			c0.327,0.065,0.666,0.119,1.017,0.161c0.35,0.041,0.686,0.062,1.007,0.062c0.82,0,1.536-0.101,2.148-0.303
			c0.612-0.202,1.12-0.481,1.525-0.838c0.403-0.356,0.707-0.778,0.909-1.266c0.202-0.487,0.303-1.016,0.303-1.586
			c0-1.236-0.413-2.202-1.239-2.898c-0.826-0.695-2.107-1.102-3.842-1.221c0.035-0.297,0.068-0.644,0.098-1.043
			c0.029-0.398,0.056-0.811,0.08-1.239h4.457v-2.228h-6.686c-0.047,0.998-0.113,2.068-0.196,3.209
			c-0.083,1.141-0.19,2.264-0.321,3.369c0.975,0,1.783,0.048,2.425,0.143c0.642,0.095,1.153,0.232,1.533,0.41
			c0.381,0.178,0.648,0.401,0.803,0.669c0.154,0.267,0.231,0.573,0.231,0.918C46.457,24.362,46.273,24.745,45.905,25.072
			 M35.68,23.957c-0.291,0.345-0.645,0.622-1.061,0.829c-0.416,0.208-0.897,0.357-1.444,0.446c-0.546,0.089-1.159,0.14-1.836,0.152
			c0.024,0.38,0.047,0.748,0.071,1.105c0.024,0.357,0.042,0.725,0.054,1.105c1.355-0.012,2.525-0.175,3.512-0.49
			c0.986-0.315,1.798-0.775,2.434-1.382c0.635-0.606,1.105-1.355,1.408-2.246s0.455-1.919,0.455-3.084
			c0-1.771-0.39-3.129-1.168-4.074c-0.779-0.945-1.934-1.417-3.468-1.417c-0.749,0-1.388,0.133-1.916,0.401
			c-0.529,0.267-0.966,0.606-1.311,1.016c-0.345,0.41-0.597,0.865-0.757,1.364c-0.161,0.499-0.241,0.986-0.241,1.462
			c0,0.57,0.083,1.093,0.25,1.569c0.166,0.475,0.424,0.882,0.775,1.221c0.351,0.339,0.799,0.6,1.346,0.784
			c0.547,0.185,1.206,0.277,1.979,0.277c0.214,0,0.473-0.027,0.776-0.081c0.303-0.053,0.579-0.139,0.829-0.258
			C36.2,23.179,35.971,23.613,35.68,23.957 M33.523,20.463c-0.315-0.309-0.472-0.784-0.472-1.426c0-0.214,0.032-0.434,0.098-0.66
			c0.065-0.226,0.163-0.434,0.294-0.624c0.13-0.19,0.303-0.345,0.517-0.463c0.214-0.119,0.463-0.179,0.749-0.179
			c0.356,0,0.656,0.08,0.9,0.241c0.243,0.16,0.437,0.38,0.579,0.66c0.143,0.279,0.244,0.606,0.303,0.98
			c0.06,0.375,0.095,0.776,0.107,1.204c0,0.035-0.003,0.077-0.009,0.124c-0.006,0.048-0.008,0.096-0.008,0.143v0.16
			c-0.143,0.096-0.363,0.17-0.66,0.223c-0.297,0.054-0.583,0.081-0.856,0.081C34.352,20.927,33.838,20.772,33.523,20.463"/>
	</g>
</g>
</svg>
