<?xml version="1.0" encoding="utf-8"?>
<!-- Generator: Adobe Illustrator 21.1.0, SVG Export Plug-In . SVG Version: 6.00 Build 0)  -->
<svg version="1.1" id="Capa_1" xmlns="http://www.w3.org/2000/svg" xmlns:xlink="http://www.w3.org/1999/xlink" x="0px" y="0px"
	 viewBox="0 0 78.242 35.667" style="enable-background:new 0 0 78.242 35.667;" xml:space="preserve">
<style type="text/css">
	.st0{clip-path:url(#SVGID_2_);}
	.st1{clip-path:url(#SVGID_4_);fill:#005CA8;}
	.st2{filter:url(#Adobe_OpacityMaskFilter);}
	.st3{clip-path:url(#SVGID_4_);}
	.st4{clip-path:url(#SVGID_4_);mask:url(#SVGID_5_);}
	.st5{opacity:0.2;clip-path:url(#SVGID_9_);fill:#1D1D1B;}
	.st6{clip-path:url(#SVGID_2_);fill:#FFFFFF;}
	.st7{clip-path:url(#SVGID_11_);fill:none;stroke:#005CA8;stroke-width:1.777;stroke-linecap:round;}
	.st8{clip-path:url(#SVGID_2_);fill:none;stroke:#005CA8;stroke-width:1.185;stroke-linecap:round;}
	.st9{clip-path:url(#SVGID_13_);fill:#005CA8;}
	.st10{clip-path:url(#SVGID_15_);fill:#FFFFFF;}
</style>
<g>
	<defs>
		<rect id="SVGID_1_" x="-5.167" y="-9.65" width="92.171" height="54.15"/>
	</defs>
	<clipPath id="SVGID_2_">
		<use xlink:href="#SVGID_1_"  style="overflow:visible;"/>
	</clipPath>
	<g class="st0">
		<defs>
			<rect id="SVGID_3_" x="-5.167" y="-9.65" width="92.171" height="54.15"/>
		</defs>
		<clipPath id="SVGID_4_">
			<use xlink:href="#SVGID_3_"  style="overflow:visible;"/>
		</clipPath>
		<path class="st1" d="M25.26,12.594c0,0-1.805,0-1.805,1.805V28.8c0,0,0,1.805,1.805,1.805h51.177c0,0,1.805,0,1.805-1.805V14.399
			c0,0,0-1.805-1.805-1.805H25.26z"/>
		<defs>
			<filter id="Adobe_OpacityMaskFilter" filterUnits="userSpaceOnUse" x="3.022" y="0.146" width="25.92" height="33.36">
				<feColorMatrix  type="matrix" values="1 0 0 0 0  0 1 0 0 0  0 0 1 0 0  0 0 0 1 0"/>
			</filter>
		</defs>
		<mask maskUnits="userSpaceOnUse" x="3.022" y="0.146" width="25.92" height="33.36" id="SVGID_5_">
			<g class="st2">
				<g>
					<defs>
						<rect id="SVGID_6_" x="-5.857" y="-6.814" width="44.16" height="41.28"/>
					</defs>
					<clipPath id="SVGID_7_" class="st3">
						<use xlink:href="#SVGID_6_"  style="overflow:visible;"/>
					</clipPath>
					<g transform="matrix(1 0 0 1 0 0)" style="clip-path:url(#SVGID_7_);">
						
							<image style="overflow:visible;" width="184" height="172" xlink:href="3EAAE3E677EA49D3.jpg"  transform="matrix(0.24 0 0 0.24 -5.8573 -6.8142)">
						</image>
					</g>
				</g>
			</g>
		</mask>
		<g class="st4">
			<g>
				<defs>
					<rect id="SVGID_8_" x="3.023" y="0.146" width="25.92" height="33.36"/>
				</defs>
				<clipPath id="SVGID_9_">
					<use xlink:href="#SVGID_8_"  style="overflow:visible;"/>
				</clipPath>
				<rect x="3.022" y="0.146" class="st5" width="25.92" height="33.36"/>
			</g>
		</g>
	</g>
	<rect x="1.508" y="1.82" class="st6" width="25.605" height="33.132"/>
	<g class="st0">
		<defs>
			<rect id="SVGID_10_" x="-5.167" y="-9.65" width="92.171" height="54.15"/>
		</defs>
		<clipPath id="SVGID_11_">
			<use xlink:href="#SVGID_10_"  style="overflow:visible;"/>
		</clipPath>
		<path class="st7" d="M0.964,2.027v29.778c0,0,0.45,3.058,1.609,3.058h25.42c-1.223,0-1.609-3.058-1.609-3.058V2.027H0.964z"/>
	</g>
	<rect x="4.666" y="11.77" class="st8" width="7.776" height="7.696"/>
	<g class="st0">
		<defs>
			<rect id="SVGID_12_" x="-5.167" y="-9.65" width="92.171" height="54.15"/>
		</defs>
		<clipPath id="SVGID_13_">
			<use xlink:href="#SVGID_12_"  style="overflow:visible;"/>
		</clipPath>
		<path class="st9" d="M21.598,7.125l0.462-1.552l0.47,1.552H21.598z M22.998,8.71h0.836l-1.313-3.957h-0.882L20.343,8.71h0.794
			l0.275-0.93h1.307L22.998,8.71z M20.524,4.754H17.64v0.689h1.054V8.71h0.775V5.443h1.055V4.754z M14.968,7.674l-0.341,0.548
			c0.376,0.324,0.845,0.544,1.393,0.544c0.744,0,1.344-0.399,1.344-1.215c0-1.436-1.867-0.919-1.867-1.709
			c0-0.29,0.25-0.458,0.588-0.458c0.285,0,0.62,0.118,0.891,0.309l0.335-0.532c-0.343-0.287-0.811-0.465-1.277-0.465
			c-0.716,0-1.299,0.415-1.299,1.204c0,1.397,1.849,0.917,1.849,1.709c0,0.299-0.26,0.452-0.607,0.452
			C15.634,8.062,15.279,7.911,14.968,7.674 M13.294,8.71h0.777V4.754h-0.777V8.71z M10.461,4.754H9.632l1.265,3.957h0.667
			l1.27-3.957h-0.788l-0.796,2.74L10.461,4.754z M6.963,8.71h2.414V8.025H7.731V7.057h1.395V6.374H7.731V5.439h1.607V4.754H6.963
			V8.71z M4.378,6.589V5.432h0.495c0.386,0,0.635,0.196,0.635,0.581c0,0.368-0.227,0.575-0.635,0.575H4.378z M3.615,8.71h0.763V7.27
			h0.425L5.554,8.71h0.9L5.573,7.149c0.446-0.195,0.71-0.613,0.71-1.146c0-0.729-0.496-1.249-1.333-1.249H3.615V8.71z"/>
	</g>
	<line class="st8" x1="14.748" y1="13.06" x2="22.766" y2="13.06"/>
	<line class="st8" x1="14.748" y1="16.192" x2="22.766" y2="16.192"/>
	<line class="st8" x1="14.748" y1="19.466" x2="22.766" y2="19.466"/>
	<line class="st8" x1="4.335" y1="23.877" x2="23.645" y2="23.877"/>
	<line class="st8" x1="4.335" y1="27.008" x2="23.645" y2="27.008"/>
	<line class="st8" x1="4.335" y1="30.282" x2="23.645" y2="30.282"/>
	<g class="st0">
		<defs>
			<rect id="SVGID_14_" x="-5.167" y="-9.65" width="92.171" height="54.15"/>
		</defs>
		<clipPath id="SVGID_15_">
			<use xlink:href="#SVGID_14_"  style="overflow:visible;"/>
		</clipPath>
		<path class="st10" d="M71.629,25.218c-0.369,0.327-0.963,0.49-1.783,0.49c-0.678,0-1.26-0.062-1.747-0.187
			c-0.488-0.125-0.88-0.253-1.177-0.384L66.44,27.33c0.143,0.072,0.345,0.143,0.607,0.214c0.261,0.072,0.555,0.14,0.882,0.205
			c0.327,0.066,0.666,0.119,1.016,0.161c0.351,0.041,0.687,0.062,1.008,0.062c0.82,0,1.536-0.101,2.148-0.303
			c0.612-0.202,1.12-0.481,1.525-0.838c0.404-0.356,0.707-0.778,0.909-1.266c0.202-0.487,0.303-1.016,0.303-1.586
			c0-1.236-0.413-2.202-1.239-2.898c-0.826-0.695-2.107-1.102-3.842-1.221c0.035-0.297,0.068-0.645,0.098-1.043
			c0.029-0.398,0.056-0.811,0.08-1.239h4.457v-2.229h-6.686c-0.047,0.999-0.113,2.068-0.196,3.209
			c-0.083,1.142-0.19,2.265-0.321,3.37c0.975,0,1.783,0.048,2.425,0.143c0.642,0.095,1.153,0.232,1.533,0.41
			c0.381,0.178,0.648,0.401,0.803,0.669c0.154,0.267,0.232,0.573,0.232,0.918C72.182,24.508,71.997,24.891,71.629,25.218
			 M61.912,19.639c-0.202,0.308-0.493,0.581-0.874,0.818c-0.677-0.237-1.156-0.521-1.435-0.853
			c-0.279-0.332-0.419-0.688-0.419-1.067c0-0.142,0.03-0.29,0.089-0.444c0.06-0.154,0.152-0.3,0.277-0.436
			c0.124-0.136,0.282-0.246,0.472-0.329c0.19-0.083,0.416-0.125,0.678-0.125c0.273,0,0.505,0.045,0.695,0.134
			c0.19,0.089,0.348,0.199,0.472,0.329c0.125,0.13,0.214,0.27,0.268,0.418c0.053,0.148,0.08,0.287,0.08,0.417
			C62.215,18.952,62.114,19.331,61.912,19.639 M59.255,23.17c0.226-0.334,0.505-0.626,0.838-0.876
			c0.333,0.107,0.645,0.223,0.936,0.348c0.292,0.126,0.544,0.268,0.758,0.429c0.214,0.161,0.383,0.349,0.508,0.563
			c0.125,0.215,0.187,0.459,0.187,0.733c0,0.37-0.142,0.703-0.427,1.001c-0.286,0.298-0.738,0.447-1.355,0.447
			c-0.321,0-0.595-0.048-0.821-0.143c-0.226-0.095-0.41-0.214-0.552-0.357c-0.143-0.143-0.247-0.301-0.312-0.474
			c-0.066-0.173-0.098-0.331-0.098-0.474C58.917,23.903,59.029,23.503,59.255,23.17 M64.649,22.572
			c-0.292-0.482-0.776-0.943-1.453-1.384c0.451-0.284,0.829-0.673,1.132-1.166c0.303-0.492,0.454-1.023,0.454-1.593
			c0-0.392-0.074-0.787-0.222-1.184c-0.149-0.398-0.39-0.757-0.722-1.077c-0.333-0.32-0.758-0.585-1.275-0.792
			c-0.517-0.208-1.139-0.312-1.863-0.312c-0.619,0-1.18,0.098-1.685,0.294c-0.506,0.196-0.936,0.457-1.293,0.783
			c-0.357,0.327-0.633,0.709-0.829,1.149c-0.196,0.439-0.294,0.896-0.294,1.37c0,0.629,0.122,1.146,0.365,1.549
			c0.244,0.404,0.621,0.814,1.132,1.229c-0.237,0.178-0.46,0.369-0.668,0.571c-0.208,0.203-0.395,0.426-0.562,0.67
			c-0.166,0.244-0.297,0.515-0.392,0.812c-0.095,0.298-0.143,0.625-0.143,0.982c0,0.345,0.072,0.723,0.214,1.134
			c0.143,0.41,0.384,0.788,0.722,1.133c0.339,0.346,0.785,0.635,1.338,0.867c0.552,0.231,1.245,0.348,2.077,0.348
			c0.725,0,1.364-0.093,1.916-0.277c0.553-0.185,1.014-0.444,1.382-0.777c0.368-0.333,0.645-0.723,0.829-1.169
			c0.184-0.446,0.277-0.937,0.277-1.473C65.086,23.616,64.94,23.054,64.649,22.572 M50.02,23.586h5.171v-2.407H50.02V23.586z
			 M45.224,15.349c-0.535,0.535-1.07,1.135-1.605,1.801s-1.043,1.346-1.524,2.041c-0.482,0.696-0.918,1.373-1.311,2.033
			c-0.392,0.66-0.719,1.251-0.98,1.774v1.943h5.331v2.764h2.603v-2.764h1.319v-2.175h-1.319v-7.417H45.224z M45.135,22.766h-2.799
			c0.356-0.749,0.796-1.48,1.319-2.193c0.523-0.713,1.016-1.373,1.48-1.979V22.766z M35.596,19.639
			c-0.202,0.308-0.493,0.581-0.873,0.818c-0.678-0.237-1.157-0.521-1.436-0.853c-0.279-0.332-0.419-0.688-0.419-1.067
			c0-0.142,0.03-0.29,0.089-0.444c0.06-0.154,0.152-0.3,0.277-0.436s0.282-0.246,0.472-0.329c0.19-0.083,0.416-0.125,0.678-0.125
			c0.273,0,0.505,0.045,0.695,0.134c0.19,0.089,0.348,0.199,0.473,0.329c0.124,0.13,0.214,0.27,0.267,0.418
			c0.054,0.148,0.08,0.287,0.08,0.417C35.899,18.952,35.798,19.331,35.596,19.639 M32.94,23.17c0.225-0.334,0.505-0.626,0.838-0.876
			c0.332,0.107,0.644,0.223,0.936,0.348c0.291,0.126,0.543,0.268,0.757,0.429c0.214,0.161,0.384,0.349,0.509,0.563
			c0.124,0.215,0.187,0.459,0.187,0.733c0,0.37-0.143,0.703-0.428,1.001s-0.737,0.447-1.355,0.447c-0.321,0-0.595-0.048-0.82-0.143
			c-0.226-0.095-0.41-0.214-0.553-0.357c-0.143-0.143-0.247-0.301-0.312-0.474c-0.066-0.173-0.098-0.331-0.098-0.474
			C32.601,23.903,32.714,23.503,32.94,23.17 M38.333,22.572c-0.291-0.482-0.776-0.943-1.453-1.384
			c0.451-0.284,0.829-0.673,1.132-1.166c0.303-0.492,0.455-1.023,0.455-1.593c0-0.392-0.075-0.787-0.223-1.184
			c-0.149-0.398-0.39-0.757-0.722-1.077c-0.333-0.32-0.758-0.585-1.275-0.792c-0.517-0.208-1.138-0.312-1.863-0.312
			c-0.618,0-1.18,0.098-1.685,0.294c-0.505,0.196-0.936,0.457-1.293,0.783c-0.356,0.327-0.633,0.709-0.829,1.149
			c-0.196,0.439-0.294,0.896-0.294,1.37c0,0.629,0.122,1.146,0.366,1.549c0.243,0.404,0.621,0.814,1.132,1.229
			c-0.238,0.178-0.461,0.369-0.669,0.571c-0.208,0.203-0.395,0.426-0.562,0.67c-0.166,0.244-0.297,0.515-0.392,0.812
			c-0.095,0.298-0.142,0.625-0.142,0.982c0,0.345,0.071,0.723,0.214,1.134c0.142,0.41,0.383,0.788,0.722,1.133
			c0.338,0.346,0.784,0.635,1.337,0.867c0.553,0.231,1.245,0.348,2.077,0.348c0.725,0,1.364-0.093,1.917-0.277
			c0.552-0.185,1.013-0.444,1.381-0.777c0.369-0.333,0.645-0.723,0.829-1.169c0.185-0.446,0.277-0.937,0.277-1.473
			C38.77,23.616,38.624,23.054,38.333,22.572"/>
	</g>
</g>
</svg>
