<?xml version="1.0" encoding="utf-8"?>
<!-- Generator: Adobe Illustrator 21.1.0, SVG Export Plug-In . SVG Version: 6.00 Build 0)  -->
<svg version="1.1" id="Capa_1" xmlns="http://www.w3.org/2000/svg" xmlns:xlink="http://www.w3.org/1999/xlink" x="0px" y="0px"
	 viewBox="0 0 186.949 62.209" style="enable-background:new 0 0 186.949 62.209;" xml:space="preserve">
<style type="text/css">
	.st0{clip-path:url(#SVGID_2_);}
	.st1{filter:url(#Adobe_OpacityMaskFilter);}
	.st2{clip-path:url(#SVGID_4_);}
	.st3{clip-path:url(#SVGID_4_);mask:url(#SVGID_5_);}
	.st4{opacity:0.2;clip-path:url(#SVGID_9_);fill:#1D1D1B;}
	.st5{clip-path:url(#SVGID_2_);fill:#FFCB00;}
	.st6{clip-path:url(#SVGID_11_);fill:none;stroke:#FFFFFF;stroke-width:3.821;}
	.st7{clip-path:url(#SVGID_2_);fill:#3DA435;}
</style>
<g>
	<defs>
		<rect id="SVGID_1_" width="186.949" height="62.209"/>
	</defs>
	<clipPath id="SVGID_2_">
		<use xlink:href="#SVGID_1_"  style="overflow:visible;"/>
	</clipPath>
	<g class="st0">
		<defs>
			<rect id="SVGID_3_" y="0" width="186.949" height="62.209"/>
		</defs>
		<clipPath id="SVGID_4_">
			<use xlink:href="#SVGID_3_"  style="overflow:visible;"/>
		</clipPath>
		<defs>
			<filter id="Adobe_OpacityMaskFilter" filterUnits="userSpaceOnUse" x="10.954" y="9.034" width="167.04" height="52.32">
				<feColorMatrix  type="matrix" values="1 0 0 0 0  0 1 0 0 0  0 0 1 0 0  0 0 0 1 0"/>
			</filter>
		</defs>
		<mask maskUnits="userSpaceOnUse" x="10.954" y="9.034" width="167.04" height="52.32" id="SVGID_5_">
			<g class="st1">
				<g>
					<defs>
						<rect id="SVGID_6_" x="2.074" y="2.074" width="185.28" height="60.48"/>
					</defs>
					<clipPath id="SVGID_7_" class="st2">
						<use xlink:href="#SVGID_6_"  style="overflow:visible;"/>
					</clipPath>
					<g style="clip-path:url(#SVGID_7_);">
						
							<image style="overflow:visible;" width="772" height="252" xlink:href="680428CD81825BC6.jpg"  transform="matrix(0.24 0 0 0.24 2.0737 2.0741)">
						</image>
					</g>
				</g>
			</g>
		</mask>
		<g class="st3">
			<g>
				<defs>
					<rect id="SVGID_8_" x="10.954" y="9.034" width="167.04" height="52.32"/>
				</defs>
				<clipPath id="SVGID_9_">
					<use xlink:href="#SVGID_8_"  style="overflow:visible;"/>
				</clipPath>
				<rect x="10.954" y="9.034" class="st4" width="167.04" height="52.32"/>
			</g>
		</g>
	</g>
	<polygon class="st5" points="10.91,13.238 10.91,56.46 170.312,57.217 173.817,8.965 	"/>
	<g class="st0">
		<defs>
			<rect id="SVGID_10_" y="0" width="186.949" height="62.209"/>
		</defs>
		<clipPath id="SVGID_11_">
			<use xlink:href="#SVGID_10_"  style="overflow:visible;"/>
		</clipPath>
		<polygon class="st6" points="10.91,13.238 10.91,56.46 170.312,57.217 173.817,8.965 		"/>
	</g>
	<path class="st7" d="M145.046,44.702l0.14,0.252v-0.168L145.046,44.702z M144.289,44.954h-0.364l-0.168-0.364h0.42l0.252-0.112
		v0.168l0.028,0.168L144.289,44.954z M145.578,44.506l-0.056,0.252l0.364-0.28l0.056-0.476l-0.084,0.112L145.578,44.506z
		 M146.391,43.862l0.168,0.196l0.196-0.252l-0.14-0.085L146.391,43.862z M145.886,43.778l0.056,0.168l0.224,0.14V43.89l-0.196-0.197
		L145.886,43.778z M145.438,43.385l0.028,0.14l-0.168,0.084L145.438,43.385z M144.541,43.413l-0.056-0.112l-0.112,0.168l-0.364,0.14
		l0.084,0.337l-0.112,0.112l-0.168-0.196l-0.168,0.224l-0.224,0.252l0.168-0.224l0.196-0.449l-0.028-0.364h0.42l0.28-0.056
		l0.168,0.084l0.113,0.112l-0.085,0.14L144.541,43.413z M145.27,42.153l-0.112,0.224l-0.308-0.028l0.168-0.168L145.27,42.153z
		 M148.24,42.012l-0.196-0.028l-0.14,0.112l0.112-0.168l0.084-0.252l0.168,0.112L148.24,42.012z M145.438,42.629l0.056-0.252
		l0.112,0.168l0.14,0.14l0.168,0.196l0.056-0.336l-0.084-0.561l0.168-0.308l0.14-0.028l-0.028,0.14v0.336l0.084,0.589l0.141,0.084
		l-0.028-0.28l0.168-0.056l0.028,0.112l-0.112,0.224l-0.14,0.224l-0.225,0.112l-0.392-0.168L145.438,42.629z M144.513,41.648
		l0.14-0.084v0.224l-0.168,0.028L144.513,41.648z M145.914,41.284l0.196,0.028l-0.056,0.168h-0.224L145.914,41.284z M145.522,42.012
		l-0.112-0.14l-0.196-0.28l-0.028-0.336l0.252,0.168l0.168-0.196l-0.056,0.308l-0.112,0.308L145.522,42.012z M144.653,41.088
		l0.113-0.084l0.028-0.14l0.112,0.028l-0.056,0.14l-0.169,0.056l-0.084,0.084L144.653,41.088z M147.763,43.245l-0.056-0.196h-0.168
		l-0.28,0.616l0.028,0.561l-0.28,0.28l0.056,0.084l-0.224,0.084l-0.392,0.14l-0.253-0.364l-0.112-0.028l-0.028,0.112l0.084,0.28
		l-0.364,0.364l-0.476-0.196l-0.112-0.028l-0.112,0.14l-0.28-0.224l0.084-0.224l-0.197-0.308l0.393-0.056l-0.196-0.308l0.14-0.449
		l-0.056-0.336l-0.056-0.224l-0.281-0.14l0.225-0.252l0.168,0.084l0.056,0.168l0.112,0.224l-0.112,0.056l-0.112,0.084l0.196,0.448
		l0.308,0.421l0.056-0.224l0.252-0.533l0.645,0.308v-0.42l0.252-0.028l0.196-0.308l0.168-0.224l0.168,0.112l-0.112,0.224l0.14,0.084
		l0.252-0.14l0.112-0.14l0.056-0.308l-0.588-0.056l-0.196-0.393l0.14-0.14l0.028-0.364l-0.392,0.168l-0.252-0.084v-0.196
		l0.224-0.028l0.056-0.168l-0.308-0.252l0.168-0.392l0.42,0.532l0.28,0.672l-0.112,0.393l0.616,0.056l0.225,0.672L147.763,43.245z
		 M147.791,41.648l-0.252,0.028l-0.14-0.308l0.14-0.476l0.084-0.365l0.168,0.085l-0.14,0.336l-0.028,0.392L147.791,41.648z
		 M148.352,40.64l-0.252-0.056l0.056-0.309l-0.14-0.14l-0.112-0.196l-0.197-0.112l0.112-0.14l0.337,0.196l0.336-0.168l-0.196,0.392
		l0.252,0.392L148.352,40.64z M147.287,39.463l-0.112,0.168l-0.056,0.252l0.224-0.084L147.287,39.463z M145.186,40.191v-0.42
		l0.308-0.168l0.224-0.196l0.084,0.084l-0.112,0.336l-0.252,0.252l0.112,0.392l-0.196,0.113l-0.252-0.057L145.186,40.191z
		 M148.8,39.995l-0.056-0.448l0.308-0.28l-0.112,0.28v0.168l0.14-0.028l0.028,0.252L148.8,39.995z M148.604,39.295l-0.112-0.14
		l0.028-0.196l0.14,0.112L148.604,39.295z M146.335,39.743l-0.057-0.28l0.197-0.056v-0.336l-0.056-0.084l0.028,0.028l0.14-0.113
		l0.168-0.056l0.028,0.225l0.168,0.224l0.28,0.224l-0.028-0.308l0.168-0.14l0.056,0.28l0.028,0.28l-0.056,0.42l-0.28,0.084
		l-0.308,0.084l-0.168-0.504L146.335,39.743z M146.222,38.37l0.141,0.224l-0.197,0.084l-0.028,0.224l0.197,0.057l-0.085,0.084
		l-0.084,0.168l-0.14-0.056v-0.309l-0.084-0.196l-0.028-0.308L146.222,38.37z M149.444,38.538l-0.056-0.224l0.141-0.084l0.084,0.196
		L149.444,38.538z M148.492,38.426l-0.056-0.224l0.224,0.028l0.028,0.224L148.492,38.426z M148.184,38.51l-0.14,0.308l-0.225-0.084
		l-0.14,0.084l0.084,0.169l-0.196-0.113l-0.084-0.336v-0.14l-0.196,0.056l-0.14-0.14l0.28-0.112l0.224,0.168l0.253,0.112
		L148.184,38.51z M146.643,38.342l0.084-0.28l0.14,0.028l0.056,0.364l0.14,0.336l-0.224-0.14L146.643,38.342z M149.669,37.446
		l0.14,0.112l-0.028,0.14l-0.14-0.084L149.669,37.446z M148.996,37.165l0.028,0.225l-0.168,0.112l0.056-0.168L148.996,37.165z
		 M146.475,37.249v0.113l0.196-0.057l0.112-0.308l0.252-0.112l0.308,0.168l0.196,0.309l0.056-0.113l0.196-0.084l-0.028,0.197
		l-0.196,0.084l-0.14-0.056l-0.14,0.028l-0.28-0.197l-0.028-0.14l-0.308,0.365l-0.308,0.28l-0.197-0.364L146.475,37.249z
		 M150.005,36.857l-0.056,0.196l-0.224-0.224l0.168-0.196l-0.056-0.112l-0.056-0.14l0.056,0.112l0.168,0.028l-0.084,0.056
		l-0.028,0.14L150.005,36.857z M149.22,35.989l-0.084-0.253l0.056-0.14l0.14,0.225l0.112,0.196L149.22,35.989z M147.96,34.111v0.253
		l-0.169,0.028l-0.028-0.196L147.96,34.111z M150.761,32.739l-0.112,0.028l0.056-0.225h0.196L150.761,32.739z M149.585,31.758
		l-0.113,0.168l-0.168-0.112l-0.056-0.14l0.224-0.028l0.113-0.112l0.14-0.112l-0.112,0.14L149.585,31.758z M148.828,31.534
		l-0.14-0.084l0.14-0.112V31.17l0.14,0.168L148.828,31.534z M152.106,30.637l-0.252-0.252l0.252,0.028V30.637z M150.901,30.581
		l-0.084-0.196h0.252l0.057,0.224L150.901,30.581z M148.996,30.357l-0.308-0.112l0.112-0.196l0.28,0.112l0.14-0.14l0.084,0.084
		l-0.112,0.14l-0.084,0.168L148.996,30.357z M146.839,29.545h-0.28l0.056-0.14l0.252-0.085L146.839,29.545z M147.847,29.461
		l-0.084-0.169l0.141-0.112l0.084,0.084l0.084,0.169L147.847,29.461z M144.233,29.18l-0.196-0.056l0.196-0.112l0.112,0.168H144.233z
		 M143.645,29.012h-0.168l-0.112-0.112l0.168,0.084l0.168-0.084L143.645,29.012z M144.625,29.068l-0.084-0.196l0.14,0.028
		l0.085,0.112L144.625,29.068z M152.162,29.096l-0.056,0.196V29.04l0.168-0.252L152.162,29.096z M142.776,29.096l-0.28-0.028
		l-0.028,0.337l-0.14-0.253l-0.084-0.224l-0.196,0.196l-0.168-0.168l0.28-0.196l0.308,0.14l0.028-0.224l0.196,0.168l0.196,0.336
		L142.776,29.096z M150.901,28.592l-0.084,0.224l0.056-0.196l-0.028-0.14h0.028L150.901,28.592z M143.141,28.62h-0.197v-0.112
		l0.169,0.028l0.056-0.112l0.112,0.084L143.141,28.62z M147.679,28.928l-0.084,0.084l-0.056-0.14l0.056-0.28l0.224-0.28l0.169,0.14
		l-0.253,0.252l-0.168,0.14L147.679,28.928z M151.938,28.284l0.112,0.056l0.028,0.14l-0.14-0.028V28.284z M142.804,28.144
		l0.028,0.14l-0.112-0.028l-0.112-0.196L142.804,28.144z M151.406,27.836v-0.028l0.084,0.028H151.406z M143.841,28.2l-0.056-0.168
		l0.224-0.028l-0.028-0.281l0.168,0.057l0.056,0.42l-0.252,0.028L143.841,28.2z M148.24,27.752l-0.308,0.224l-0.141,0.14l0.113-0.14
		l0.112-0.281l0.14-0.252l0.336,0.393l-0.084,0.168v-0.196L148.24,27.752z M142.776,27.527l0.168-0.112L143,27.583l-0.168-0.056
		l-0.028,0.14l-0.112-0.056L142.776,27.527z M149.837,27.359l0.056-0.112l0.056-0.14l0.084,0.196L149.837,27.359z M150.229,27.892
		l0.056-0.365l0.112-0.448l0.392,0.056l0.028,0.28l-0.168-0.224l-0.224,0.448L150.229,27.892z M147.399,27.415l-0.056,0.365
		l-0.364-0.028l-0.28,0.112l-0.252-0.169l-0.365-0.112l0.168,0.421l0.169,0.168l-0.084,0.616l-0.309,0.532l-0.224,0.169l0.056,0.14
		l0.112,0.196l-0.224-0.084l-0.14-0.084l-0.056,0.168l-0.14-0.056l0.112-0.112l0.224-0.308l0.308-0.589l-0.112-0.616l-0.224,0.14
		l-0.224-0.056l-0.056,0.336l0.42,0.28l-0.14,0.168l-0.168-0.028l-0.308-0.364l-0.392-0.056l0.224-0.336l0.084-0.505l0.196-0.14
		l-0.028-0.224l0.196-0.252l0.168,0.084l-0.084,0.196l0.056,0.393l0.252-0.085l-0.056-0.364l0.336-0.084l0.281,0.084l0.168,0.196
		l0.224-0.112l-0.084-0.252l0.14-0.084l0.084,0.168l0.112,0.14l0.112-0.084v-0.14l0.084-0.112l0.168,0.112L147.399,27.415z
		 M151.49,27.359l-0.196-0.056v0.168l-0.084-0.252l0.084-0.224l0.224,0.196L151.49,27.359z M149.304,26.715l0.309,0.028v0.224
		l-0.197,0.14l0.056,0.14l-0.056,0.196l-0.168-0.14l0.168-0.252l-0.224-0.14L149.304,26.715z M148.576,26.995l0.084-0.224
		l0.168-0.112l0.112,0.056l-0.028,0.196l-0.196-0.028l-0.112,0.112l0.056,0.168l0.056,0.224l-0.168,0.196l-0.028-0.224
		L148.576,26.995z M146.867,26.631h0.224l-0.056,0.196h-0.224L146.867,26.631z M146.026,26.631h0.252v0.196h-0.252V26.631z
		 M147.875,26.575l0.365,0.168l0.084,0.224h-0.28l-0.337-0.252L147.875,26.575z M144.766,27.359l-0.253-0.14l0.056-0.476
		l0.365-0.168l0.028,0.14l-0.337,0.224l0.169,0.308l0.308-0.112l0.056,0.364l-0.196,0.084l0.028-0.196l-0.112-0.168L144.766,27.359z
		 M143.925,26.575l0.196,0.084l-0.084,0.084l-0.308-0.028L143.925,26.575z M145.55,26.547l-0.056,0.252l-0.112-0.14l-0.084-0.252
		L145.55,26.547z M155.02,26.07l-0.56-0.196l-1.569-0.028l-0.533-0.056l-10.506,0.084l-0.561,0.224l-0.28,0.533l-0.028,0.56
		l0.028,0.645l-0.028,0.476l0.084,0.588l-0.028,0.561l0.336,0.56l0.505,0.252l0.672,0.028l0.561-0.056l1.12,0.084l0.617-0.056
		l0.56,0.056l1.989-0.028l0.729,0.28l0.14,0.505l-0.28,0.56l-0.281,0.784l-0.56,1.233l-0.308,0.841l-0.42,0.756l-3.699,9.162v0.784
		l0.393,0.253l0.616-0.028l0.56,0.056l1.093-0.056l0.588,0.028l0.561-0.056l0.728-0.253l0.532-0.448l1.205-3.11l0.28-0.476
		l2.774-6.584l0.14-0.589l0.252-0.448l0.617-1.597l0.308-0.504l0.812-2.017l0.141-0.561l0.28-0.504l0.14-0.476l0.28-0.505
		l0.168-0.672L155.02,26.07z M128.263,44.394l-0.224,0.14l0.112-0.224l0.14-0.084L128.263,44.394z M115.039,43.609l-0.224,0.084
		h-0.168l0.196-0.14l0.028-0.308l0.168,0.14V43.609z M129.608,43.609l-0.336-0.14l-0.112-0.056l0.056-0.392l0.196,0.028l0.028,0.224
		l0.224,0.112L129.608,43.609z M128.095,43.217l0.084-0.28l0.14-0.168l0.113,0.364L128.095,43.217z M128.88,43.021l-0.252,0.028
		l0.028-0.308l0.252-0.028L128.88,43.021z M115.487,42.685l0.028-0.28l0.225,0.028l0.084,0.308L115.487,42.685z M116.776,42.461
		l-0.14-0.028l0.028-0.168l0.14,0.112l0.084,0.112l0.084,0.056L116.776,42.461z M114.507,42.461l-0.364-0.084v-0.281h0.364V42.461z
		 M128.207,42.096l0.393-0.168l0.224-0.028l-0.028,0.477l-0.364-0.028L128.207,42.096z M127.787,42.489h-0.252l-0.028-0.505
		l0.14-0.112l0.196,0.168L127.787,42.489z M125.826,41.76l0.14-0.42l0.112,0.056l-0.028,0.308l0.084,0.392L125.826,41.76z
		 M115.039,41.9v-0.252l0.224-0.196l0.168-0.196l0.112,0.168l0.029,0.196l-0.085,0.252L115.039,41.9z M114.619,41.284l0.14-0.168
		l0.168,0.308h-0.364L114.619,41.284z M117.477,40.836l-0.168-0.112l0.168-0.056V40.836z M117.225,40.668L117,40.556l0.14-0.113
		l0.253,0.113l-0.112,0.168L117.225,40.668z M125.63,41.62v0.168l-0.168-0.14l0.056-0.196l-0.14-0.364l-0.337-0.224l-0.084,0.084
		l-0.028,0.252l-0.112,0.112l0.056-0.364l0.14-0.056l-0.056-0.252l0.393-0.225l0.224,0.477l0.224,0.308l-0.224,0.14L125.63,41.62z
		 M124.369,40.331l-0.084-0.056l0.14-0.028l0.112,0.084H124.369z M126.891,40.752l0.14-0.084l0.224,0.168l0.448-0.112l0.056-0.365
		l-0.7-0.168L126.891,40.752z M116.3,40.499l-0.252-0.28l-0.112-0.252l0.364,0.168l0.056-0.112l0.112,0.14l0.056,0.308L116.3,40.499
		z M128.46,40.107l0.308,0.224l0.168-0.168l-0.392-0.252L128.46,40.107z M126.947,39.967l-0.14-0.14l-0.197-0.056l0.225,0.224
		l-0.113,0.28L126.947,39.967z M124.033,39.771h0.28v0.308l-0.084,0.14l-0.168-0.168L124.033,39.771z M114.423,41.76l-0.252,0.14
		l-0.056-0.336l-0.028-0.532l0.056-0.252l0.028-0.337l0.42,0.141l0.14,0.056v-0.141l-0.364-0.364l0.252-0.336l-0.112-0.308
		l0.196-0.14l0.168-0.196h0.168v0.168l0.056,0.14l0.477,0.14l0.028,0.196l-0.141-0.084l-0.196-0.14l-0.252,0.028l0.14,0.364
		l0.308,0.14l0.141-0.056l-0.028,0.168l-0.309,0.028l-0.42-0.084l-0.056,0.28l0.168,0.084l0.28-0.112l0.196,0.112l0.169-0.084
		l0.14,0.084l-0.028,0.477h-0.365l-0.14,0.196l0.028-0.224l-0.224-0.224l-0.504,0.336l-0.224,0.336l0.28,0.112L114.423,41.76z
		 M123.5,39.435l-0.056,0.28l-0.308,0.084l0.028-0.14l-0.168-0.112l-0.224-0.168l0.224-0.168l0.168,0.028l-0.168,0.056l0.168,0.084
		l0.336-0.196l0.113-0.028l-0.028,0.084l0.056,0.084L123.5,39.435z M113.946,39.491l0.028-0.196l0.141-0.364l0.196-0.085
		l0.084,0.169l-0.252,0.336l-0.112,0.196L113.946,39.491z M123.641,39.071l-0.028-0.225l-0.141-0.168l0.225-0.14l-0.056,0.084
		l0.112,0.309L123.641,39.071z M126.274,38.51l-0.028,0.28l-0.196-0.14l-0.14,0.252l-0.168-0.028l0.056-0.336L126.274,38.51z
		 M114.675,38.482l-0.056,0.168l-0.28,0.028v-0.224L114.675,38.482z M115.067,38.146l-0.028,0.168h-0.168l-0.028-0.168H115.067z
		 M129.216,38.118l-0.252,0.112l0.196,0.028l0.056,0.084l0.056,0.056l0.056-0.112L129.216,38.118z M116.944,37.978l-0.308,0.084
		l0.112-0.336L116.944,37.978z M117.869,37.838h-0.196v-0.252l0.224-0.028L117.869,37.838z M115.6,38.314v-0.168l-0.337-0.14
		l0.14-0.196l0.084,0.084l0.169-0.14l0.168-0.196l0.112,0.14l-0.056,0.196l0.084,0.252l0.028,0.42l-0.28,0.056l0.084-0.196
		L115.6,38.314z M123.949,37.558l0.28-0.084l-0.028-0.253l0.084-0.168l0.112,0.281l-0.364,0.364h-0.28L123.949,37.558z
		 M127.283,37.165l-0.028,0.169h-0.224l-0.056-0.309L127.283,37.165z M114.871,38.006l-0.14-0.112l-0.14,0.028l-0.14-0.168
		l0.252-0.084l-0.084-0.14l-0.392-0.112l-0.112-0.365l0.084-0.112l0.028,0.112l0.196,0.056l0.308-0.168l0.28,0.056l-0.028,0.168
		l-0.224,0.253l0.28,0.168l0.252-0.056L114.871,38.006z M127.871,37.109l0.224-0.196l-0.056,0.336l-0.252,0.056L127.871,37.109z
		 M129.16,39.575l-0.308-0.392l-0.252,0.084l0.196,0.028l0.252,0.504l0.364,0.42l0.308,0.112l0.028,0.505l-0.224,0.112l-0.112-0.252
		l-0.168,0.42l-0.084,0.42l0.42-0.084l0.112,0.252l0.028,0.392l-0.14,0.057l-0.112-0.337h-0.14l-0.14,0.168v0.169l-0.112,0.224
		l0.252-0.056l0.084,0.14l-0.14,0.196l-0.252-0.168l-0.056-0.757l-0.785-0.28l0.253-0.224h0.196l0.168-0.224l0.056-0.196
		l-0.196-0.028l0.056-0.168l-0.112-0.141l-0.589-0.28l0.056,0.168l0.196,0.421l-0.336,0.308l-0.252,0.392l-0.112-0.224l-0.168-0.14
		l-0.448,0.196l-0.14-0.168l0.056-0.14l0.168,0.028l-0.449-0.224l-0.112-0.196l0.028,0.532l-0.14-0.056l0.112-0.112l-0.224-0.112
		l-0.56-0.477l0.084-0.224l0.336,0.196l0.28,0.197l0.112-0.169l-0.168-0.224l-0.392-0.252l-0.476,0.308l-0.28-0.252l0.112-0.42
		l-0.281-0.308l0.169-0.308l-0.309-0.225l-0.252-0.168l-0.084,0.252l0.28,0.449l0.084,0.448l-0.364-0.084l0.14-0.28l-0.364-0.308
		l-0.28-0.225l-0.224-0.168l0.196,0.028l0.308-0.112h0.168l0.56-0.476l-0.308-0.336l-0.084-0.112l0.056-0.14l0.589,0.644
		l-0.505,0.392l0.533,0.028l0.14-0.14v0.168l-0.196,0.084l0.28,0.449l-0.112,0.252l0.308,0.336l0.588,0.196l0.028-0.392l0.224-0.14
		l-0.112-0.224l-0.28-0.084l0.308-0.112l0.112-0.337l-0.14-0.224l0.196-0.028l0.112-0.084l0.197,0.308v0.449l0.252,0.112
		l0.056-0.505l0.112-0.336l-0.42-0.028l-0.197-0.224l-0.14-0.112l-0.14,0.084l-0.476-0.14l-0.14-0.532l0.196-0.085l0.112,0.197
		l0.028-0.197l0.28-0.336l0.084,0.14l-0.224,0.112l0.196,0.197l-0.392,0.252l0.056,0.14l0.392-0.084l0.309,0.308l0.252,0.112
		l0.56-0.42l-0.056-0.14l0.168,0.028l0.084,0.14l0.112-0.28l0.505-0.028l-0.056,0.196l-0.197-0.056l-0.056,0.112l0.028,0.224
		l-0.168-0.028l-0.42,0.336l0.168,0.42l0.196-0.112l0.224,0.084l0.309-0.252v-0.42l0.224-0.084l0.056,0.196l0.252-0.28l0.112-0.392
		l0.336-0.085l0.168,0.309l-0.252,0.196l-0.028,0.14l0.336,0.196l-0.168,0.28l0.084,0.224l-0.196,0.14l-0.196-0.308l-0.028-0.028
		l-0.028,0.028l-0.028-0.084l-0.056-0.028v0.28l-0.056,0.308l0.28,0.169l0.224,0.168v-0.14l0.14,0.196l-0.14,0.168l0.084,0.168
		l0.252,0.28l-0.28,0.14h-0.196l-0.168-0.168l0.14-0.084L129.16,39.575z M115.824,37.053l-0.168-0.056l-0.225-0.14l0.112-0.168
		L115.824,37.053z M127.675,36.717l-0.084-0.336l0.084-0.28l0.196-0.028l0.14,0.448L127.675,36.717z M115.88,36.409l-0.14-0.112
		l0.168-0.14l0.084-0.112v0.224L115.88,36.409z M126.863,36.633l0.084,0.196l-0.225-0.028l-0.056-0.14l-0.224-0.084l0.112-0.196
		l0.224-0.28l0.057-0.168h0.112l0.028,0.224l0.224,0.112l-0.168,0.084l-0.224-0.028l-0.141-0.056l-0.084,0.112L126.863,36.633z
		 M121.203,35.793l-0.084-0.057l-0.056-0.168l0.168,0.084L121.203,35.793z M129.608,35.961l-0.028-0.14l0.084-0.197v-0.112
		l0.084,0.112L129.608,35.961z M114.115,35.989l0.196-0.505l0.028,0.421L114.115,35.989z M129.048,37.193l-0.336,0.141l-0.196-0.393
		l0.168-0.14l-0.028-0.14l-0.14-0.588l0.196-0.589l0.168-0.028v0.28l0.056,0.113l-0.14,0.056l0.196,0.336l-0.28,0.196l0.168,0.252
		l0.504-0.364l-0.224-0.14v-0.14l0.252,0.056l0.252,0.252l-0.252,0.196l0.084,0.252l0.196,0.28l-0.448,0.056l-0.14-0.392
		l-0.112,0.084L129.048,37.193z M129.468,35.512l0.14-0.084l0.056,0.056l-0.14,0.112L129.468,35.512z M126.498,35.428l0.196,0.196
		l-0.14,0.141l-0.168-0.197l-0.112-0.14H126.498z M116.356,35.26h-0.196v0.14l0.028,0.112l-0.14-0.028l-0.084,0.393l-0.252-0.084
		l0.252-0.281l-0.084-0.14l0.14-0.168h0.532l0.168,0.112l-0.196,0.028L116.356,35.26z M128.067,35.849l-0.196-0.141l-0.168,0.141
		l-0.392-0.084l-0.364-0.393l0.308-0.084l0.308,0.28l0.056,0.225l0.224-0.281l0.196-0.476l0.224,0.616l0.084,0.309l-0.14,0.028
		L128.067,35.849z M129.72,34.952l-0.028,0.196l-0.364-0.42L129.72,34.952z M125.798,35.708l-0.084-0.084l0.14-0.252l-0.14-0.42
		v-0.28l0.056,0.28l0.196,0.168v0.813l-0.14,0.28l-0.252-0.28l0.28-0.112L125.798,35.708z M127.451,34.952l-0.14-0.168v-0.196
		l0.252,0.028l0.224,0.336l0.028,0.252l-0.168,0.14l-0.112-0.224l0.112-0.168H127.451z M116.552,34.7l0.112-0.308l0.252,0.504
		L116.552,34.7z M128.488,34.308l-0.141,0.168l-0.084-0.252L128.488,34.308z M129.524,34.027l-0.196,0.169l-0.308,0.14l0.084,0.28
		l-0.308,0.168h-0.112l0.056-0.168h0.14l-0.168-0.28l0.308-0.225L129.524,34.027z M128.067,34.756l-0.336-0.308l-0.196-0.28h-0.252
		l-0.028,0.224l-0.308-0.253l0.14-0.364l-0.112-0.168l0.028-0.14l0.196,0.028v0.252l0.14,0.196l0.364,0.028l0.224,0.197l0.056,0.112
		l-0.112,0.196h0.448L128.067,34.756z M126.246,33.411l0.224,0.084l-0.084,0.224l-0.168,0.056h-0.168v-0.168L126.246,33.411z
		 M114.059,34.952v-0.953l-0.113-0.084l0.028-0.252l0.169-0.252l0.14,0.112l-0.084,0.168l0.224-0.084l0.112,0.196l-0.28,0.168
		l0.28,0.813l-0.308,0.252v0.224l-0.196-0.14l-0.225-0.168H114.059z M128.263,33.047l0.141,0.028l0.084,0.196l0.168,0.112
		l-0.168,0.084l-0.225-0.084V33.047z M127.983,32.907l-0.14,0.084l0.28,0.448l-0.112,0.028l-0.224-0.112l-0.28-0.056l0.084-0.196
		l0.168-0.28L127.983,32.907z M117.309,32.514h-0.197l-0.168-0.084l0.225-0.056L117.309,32.514z M116.048,32.486l0.196-0.084
		l0.168-0.224l0.028,0.252l-0.196,0.056l-0.28,0.169L116.048,32.486z M115.515,32.402l-0.252-0.084l0.14-0.14l0.14-0.168
		l0.225,0.056L115.515,32.402z M114.675,31.954l-0.168-0.056v0.196l0.28,0.056L114.675,31.954z M115.319,31.45l0.253-0.252
		l-0.113,0.392l-0.392-0.112L115.319,31.45z M114.507,32.879l-0.084-0.252l-0.196,0.196l-0.168-0.056l0.196-0.168l-0.112-0.169
		l0.392,0.056l-0.196-0.308l-0.084-0.364l-0.224,0.028l0.056-0.364l-0.141-0.084l0.085-0.084l0.168-0.224l-0.281-0.112v-0.477
		l0.561-0.168l0.224-0.056v0.056l-0.14,0.196l-0.476,0.112l0.644,0.056l-0.14,0.224l0.308,0.309l-0.224,0.196l-0.168,0.112
		l0.364,0.28l0.168,0.392l-0.28,0.336l0.168,0.673l-0.336,0.224l0.056-0.28L114.507,32.879z M127.675,30.329v0.112l-0.028,0.112
		l-0.252-0.028l-0.196-0.224l-0.252-0.084l-0.197,0.112l0.057,0.308l-0.197-0.196l0.112-0.112l-0.056-0.168l0.309-0.056l0.28,0.14
		l0.196,0.14L127.675,30.329z M114.703,30.245l-0.084-0.084l0.112-0.056L114.703,30.245z M115.572,30.553l0.168-0.364l0.336-0.168
		l-0.112,0.392L115.572,30.553z M126.778,29.517l-0.168,0.28l-0.14-0.084l0.028-0.336L126.778,29.517z M117.757,29.685l-0.308-0.112
		l-0.028-0.168l0.028-0.113l0.224,0.085l0.308,0.14L117.757,29.685z M116.524,29.32l0.084,0.393l0.056,0.14l0.14-0.224l0.224,0.084
		l0.056,0.196l-0.308,0.196l-0.756-0.785l-0.112-0.224l0.168,0.168L116.524,29.32z M128.067,28.984l0.168,0.224l-0.224,0.112
		l-0.084-0.224L128.067,28.984z M126.19,28.872l0.168-0.168l0.224,0.252l-0.224-0.084H126.19z M115.88,28.844l0.056-0.14
		l0.224,0.168l-0.056,0.168l-0.084-0.14l-0.056-0.112L115.88,28.844z M114.003,29.236l0.028-0.28l-0.028-0.168l0.196-0.112
		l0.336,0.14l0.336,0.364l0.028,0.309l0.056,0.224l0.28-0.224l-0.028,0.364l-0.168,0.28l-0.028-0.168l-0.056-0.252l-0.224-0.056
		l-0.14,0.14l-0.112-0.14l-0.224-0.14l-0.168,0.056l0.056,0.112l0.112,0.112l-0.112-0.084l-0.253-0.196l0.169-0.028L114.003,29.236z
		 M128.572,28.592l0.14,0.056l0.028-0.168l0.14-0.168l0.028,0.112l0.084,0.112l-0.112,0.028l-0.28,0.224l-0.14-0.056L128.572,28.592
		z M114.143,27.948l0.336,0.336l0.308,0.112l-0.14,0.168l-0.28-0.14l-0.14-0.168l-0.056,0.196l-0.281,0.112l-0.028-0.224
		L114.143,27.948z M126.947,28.06l0.364-0.28v-0.113l0.112,0.028v0.141l-0.336,0.336l-0.168,0.364L126.947,28.06z M126.218,27.443
		l0.056,0.112l0.224,0.112l-0.028,0.309h-0.224l-0.084-0.168l0.112-0.225l-0.112-0.084l-0.084-0.112L126.218,27.443z
		 M126.414,27.107l0.168-0.028v0.28l-0.224-0.056L126.414,27.107z M126.078,26.995l-0.028,0.364l-0.308,0.028L126.078,26.995z
		 M114.619,26.883l0.224,0.364l0.196,0.224l0.14-0.112l-0.14-0.168l0.252-0.084l0.168,0.252l-0.112,0.449l0.196,0.112l0.253-0.197
		h0.42l-0.196,0.225l-0.308,0.168l-0.197,0.112l0.141,0.196l-0.281,0.084l-0.168-0.7l-0.308-0.393l-0.168,0.112l-0.084,0.309v0.196
		l-0.112-0.14l-0.196-0.169l-0.056-0.42L114.619,26.883z M130.393,36.297l0.056-0.617l-0.112-3.362l0.084-1.12l-0.056-0.533v-1.12
		l0.112-0.561l-0.056-0.84l0.056-1.457l-0.336-0.504l-0.617-0.281l-0.56-0.056h-0.532l-0.617,0.056l-0.588-0.084l-0.505,0.056
		l-0.56-0.028l-0.672,0.28l-0.28,0.589l-0.028,5.099l0.112,0.588v0.533l-0.112,0.588l0.028,1.121l-0.141,0.448l-0.392-0.112
		l-1.233-1.261l-0.42-0.336l-0.98-1.009l-0.449-0.336l-0.308-0.392l-0.588-0.616l-0.869-0.729l-0.308-0.42l-0.532-0.364
		l-0.281-0.421l-0.476-0.336l-0.364-0.476l-1.513-1.541l-1.121-0.757l-0.756-0.224l-0.673,0.336l-0.364,0.533l0.056,3.922
		l-0.056,0.561l0.084,1.148l-0.056,0.505l0.028,0.588l-0.084,0.588l0.112,4.007l-0.056,0.504v0.533l-0.056,0.616v0.532l0.084,0.589
		l-0.028,1.148l0.056,0.561l-0.084,1.064l0.084,0.561v0.532l0.252,0.616l0.533,0.309l0.952-0.056l1.401,0.084l0.589-0.084
		l0.644,0.056l0.56-0.281l0.252-0.56l-0.084-0.56l0.084-6.865l-0.112-0.588l0.281-0.336l0.364,0.084l4.006,3.922l0.449,0.365
		l2.717,2.717l0.364,0.449l0.449,0.364l0.336,0.42l0.364,0.364l0.813,0.365l0.728,0.224l0.645-0.309l0.252-0.588l0.14-7.621
		L130.393,36.297z M93.766,42.181l-0.056-0.057l0.14,0.085L93.766,42.181z M93.654,42.096l0.084-0.112l-0.056,0.14L93.654,42.096z
		 M93.262,42.096l-0.197,0.169l-0.056-0.253l0.281-0.252L93.262,42.096z M107.466,41.06v-0.196l0.141-0.028l0.028,0.168
		L107.466,41.06z M108.083,40.892l0.112-0.308v0.14l0.056,0.224L108.083,40.892z M95.251,40.668l-0.336-0.084l0.168,0.028
		l0.28-0.085l0.168,0.141H95.251z M92.085,40.527l-0.028-0.224h0.224l0.056,0.196L92.085,40.527z M107.55,40.191l-0.084-0.14
		l0.197-0.056l0.056,0.14L107.55,40.191z M94.018,40.359l-0.364-0.224l0.028-0.14l0.504,0.084l0.028,0.308L94.018,40.359z
		 M107.102,40.163l-0.168,0.056l-0.028-0.252l0.196-0.028V40.163z M104.637,40.107l0.028-0.28l0.112,0.14l0.028,0.168
		L104.637,40.107z M108.671,40.275l-0.224-0.112l-0.168,0.028l-0.084-0.084l0.224-0.168l0.28-0.168l0.056,0.336L108.671,40.275z
		 M106.486,39.967l-0.168-0.112v-0.168l0.196,0.14L106.486,39.967z M105.729,39.715h-0.308l0.14-0.196l0.336,0.112L105.729,39.715z
		 M94.186,39.575l-0.056,0.168l-0.252,0.028l0.084-0.252L94.186,39.575z M93.234,39.659l-0.169,0.056l-0.168,0.28l-0.168-0.168
		l-0.14,0.056l-0.112-0.028l-0.224,0.028l-0.168-0.28l0.14-0.112l0.168,0.196l0.168,0.112l0.28-0.084l0.337-0.112l0.112-0.056
		L93.234,39.659z M94.326,39.379l-0.056-0.112l0.308,0.112H94.326z M94.634,39.631l0.253-0.168l0.112-0.028l0.112-0.252l0.168,0.196
		l-0.224,0.084l-0.112,0.084l0.168,0.168l-0.056,0.14l-0.224,0.028L94.634,39.631z M91.412,39.575l-0.14,0.028l0.028-0.14
		l-0.168-0.308l0.449-0.056l0.112,0.224L91.412,39.575z M92.309,39.015l0.056,0.14l-0.252,0.112l-0.084-0.14L92.309,39.015z
		 M95.055,38.762h0.308l-0.028,0.169l-0.28-0.029V38.762z M105.253,38.846l-0.168-0.14l0.168-0.168l0.112,0.168L105.253,38.846z
		 M93.486,38.622l0.196-0.084l-0.028,0.252l-0.168,0.084V38.622z M91.805,38.678l-0.196,0.056l0.056-0.14l0.168-0.168L91.805,38.678
		z M90.908,38.482l0.028-0.14l0.224,0.056l0.056,0.308l0.056,0.084l-0.112-0.056l-0.14-0.168L90.908,38.482z M92.841,38.062
		l-0.084-0.112l-0.084-0.056l-0.028,0.196L92.841,38.062z M108.391,38.062l0.476,0.112l0.056-0.168l-0.392-0.168L108.391,38.062z
		 M107.382,37.614l0.225,0.056l0.084-0.196l-0.253-0.084L107.382,37.614z M91.917,37.502l0.112-0.168l0.084,0.168l-0.196,0.168
		V37.502z M108.615,37.362l-0.084-0.169l-0.168,0.056l0.028,0.197L108.615,37.362z M108.755,37.081l-0.224,0.084l0.308,0.084
		L108.755,37.081z M107.578,36.997l0.029,0.168l0.168-0.028l0.168-0.084l-0.028-0.196L107.578,36.997z M93.009,38.286l-0.196-0.084
		l-0.308,0.168v0.28l-0.14,0.112l-0.112-0.532l0.14-0.336l-0.084-0.112l0.196,0.196l0.168-0.084h0.028l0.084,0.084l0.084-0.392
		l0.505-0.337l0.084-0.448l0.14,0.14l0.308-0.168l0.168,0.28l-0.42,0.337l-0.168,0.196l-0.196,0.14l-0.225,0.112l0.533,0.056
		l0.476,0.532l0.196-0.196l-0.196-0.168l0.168-0.168l0.14-0.168l-0.14-0.28l0.056-0.281l0.28,0.056l0.168,0.169l-0.28,0.168
		l0.168,0.196l0.309,0.252l-0.056,0.056l-0.309-0.056l-0.168,0.196l0.196,0.224l0.337-0.084v0.196L94.69,38.65l-0.644,0.477
		l-0.196,0.056v0.196l-0.168-0.14l0.252-0.365l0.28-0.168l-0.308-0.168l-0.252-0.252l-0.392-0.112l0.028,0.42L93.009,38.286z
		 M105.925,36.381l0.225,0.112v0.14l-0.14-0.084l-0.253,0.224l-0.056-0.168L105.925,36.381z M94.242,36.381v0.168l-0.224-0.112
		L94.242,36.381z M106.766,36.325l0.056,0.308l-0.308-0.084l-0.056-0.28L106.766,36.325z M106.122,35.989v0.196h-0.169l-0.028-0.168
		L106.122,35.989z M109.147,35.989l-0.196-0.112l-0.084,0.084l-0.028,0.224l0.252-0.028L109.147,35.989z M93.43,36.353l-0.112,0.14
		l-0.14-0.224l0.252-0.224l0.056-0.168l0.308,0.028v0.308h-0.448L93.43,36.353z M94.326,35.428l0.308,0.112l-0.308,0.225
		l-0.028-0.197L94.326,35.428z M93.738,35.428l-0.252-0.056l0.112-0.084l0.168,0.112l0.084,0.14L93.738,35.428z M91.104,35.4
		l-0.196,0.168v-0.336h0.168L91.104,35.4z M106.206,35.148l0.224,0.028l-0.084,0.168l-0.252,0.112l0.112,0.252l0.252-0.196
		l0.056,0.253l-0.617-0.057l-0.056-0.56H106.206z M91.749,37.978l-0.14-0.084l0.168-0.14l-0.112-0.056l-0.561,0.028l-0.224-0.617
		l0.168-0.308l0.112,0.028l0.14-0.168l-0.336-0.084l-0.28,0.056l-0.028-0.14l0.224-0.084l-0.112-0.224h-0.252l0.364-0.308h0.588
		l-0.056,0.196l-0.224-0.028v0.196l0.28,0.196l0.281-0.056l0.168-0.364l0.392,0.112l0.168-0.28l-0.084-0.281l-0.308,0.281
		L91.749,35.4l0.168-0.364l0.14,0.056l0.308,0.14l0.168,0.224l0.112,0.505l0.308,0.308l0.028,0.28l-0.336,0.084l-0.168-0.252
		l-0.42-0.112l-0.252,0.336l-0.224,0.112l-0.197,0.224l0.056,0.168l-0.308,0.084v0.169h0.308l0.421-0.337l0.224-0.308l0.308,0.084
		l0.336,0.14l-0.112,0.168l-0.476-0.112l-0.336,0.224l-0.14,0.056l-0.056,0.281l0.308,0.14l-0.056,0.14L91.749,37.978z
		 M109.26,38.202l0.392,0.14l-0.364,0.28l-0.365,0.477l-0.056,0.196l0.252,0.252l-0.028,0.084l-0.084,0.14l-0.28-0.308l-0.224-0.112
		l-0.168,0.14l-0.224-0.168l0.224-0.168l0.196,0.056l0.14-0.14l0.028-0.112l0.112-0.281l-0.28,0.056l0.084-0.196l-0.532-0.392
		l-0.42,0.14l0.14,0.028l0.28,0.112l-0.308,0.42l-0.225,0.056l0.169,0.113l-0.421,0.056l-0.616,0.028l-0.224,0.056l-0.196-0.084
		h0.168l0.112-0.056h0.196l0.084-0.169v-0.168l0.308,0.14l0.505-0.196l-0.028-0.336l-0.113,0.252l-0.224,0.168l0.084-0.28
		l-0.084-0.308l-0.644-0.084l0.084,0.392l-0.196,0.252l-0.252,0.056l-0.337-0.14l-0.308-0.308v-0.14l0.28-0.028l0.225,0.42
		l0.14-0.168l0.028-0.252l-0.421-0.224l-0.392,0.056l-0.084-0.252l0.448,0.056h0.533l0.42,0.14l0.112-0.168l-0.056-0.252
		l-0.168-0.028l-0.252,0.084l-0.084-0.196l0.168-0.169l-0.056-0.112l-0.224,0.056l0.252-0.28l0.476,0.28l0.392-0.336l-0.112-0.336
		v-0.28h-0.392l-0.112-0.056v-0.14l0.448-0.056l0.308-0.365l0.113-0.14l0.196-0.028l-0.056-0.252l0.056-0.252l0.196-0.028
		l0.028,0.28l-0.056,0.14l0.224,0.476l-0.112-0.112l-0.252,0.253l-0.309,0.28l0.393,0.224l0.588-0.224l0.084-0.308l0.112-0.113
		l0.28-0.028l0.14-0.252l0.225-0.336l0.308-0.028l-0.084,0.364l-0.28,0.196l0.028,0.169l0.336,0.14l-0.168,0.364h-0.28l-0.169,0.392
		l0.421,0.588l0.336,0.421l-0.28,0.196l-0.196-0.168l-0.141-0.224l-0.056-0.281l-0.224,0.309L109.26,38.202z M93.934,35.26
		l0.028-0.308l0.224,0.056l0.392-0.168v0.224l-0.336,0.168l0.028,0.14L93.934,35.26z M93.486,34.896l-0.14,0.028v-0.168l0.112-0.084
		L93.486,34.896z M107.663,34.532l-0.056,0.028l-0.085-0.112L107.663,34.532z M106.822,34.7l-0.168,0.056l-0.224-0.168v-0.14
		l0.14,0.028l0.224,0.112L106.822,34.7z M92.225,34.168l0.112,0.168h-0.112V34.168z M93.234,34.616l-0.225,0.168l-0.14-0.028
		l0.112-0.308l0.225-0.28l0.28-0.029v0.253L93.234,34.616z M107.663,34.532l-0.141-0.252l0.197-0.225l0.168,0.337L107.663,34.532z
		 M94.578,34.111l-0.168-0.168l0.224-0.14v0.168L94.578,34.111z M91.777,33.383h-0.168l-0.113,0.168l0.197,0.112L91.777,33.383z
		 M106.514,33.495l-0.196-0.084l-0.112-0.168l0.252,0.084L106.514,33.495z M90.824,34.224l0.028-0.225l0.196-0.084l0.252-0.028
		l-0.112-0.56l0.673-0.14l0.252,0.28l-0.168,0.308l0.448,0.14l0.196,0.224l0.224,0.113l-0.28,0.112l-0.308-0.196l0.028-0.169
		l-0.476,0.169l-0.225,0.252l0.281-0.028l-0.028,0.084l0.14,0.168l-0.393,0.112l-0.504,0.308L90.964,34.7l-0.224-0.14l0.336-0.084
		l0.028-0.168L90.824,34.224z M109.484,34.111l0.14,0.113l-0.28,0.224l0.028,0.252l0.14,0.224l-0.252,0.14l-0.141-0.308
		l-0.196-0.112l0.112,0.336l-0.392,0.112l-0.196-0.224l0.14-0.168l-0.056-0.252l0.308,0.084l0.421-0.224l0.196-0.056l-0.281-0.141
		l-0.28-0.028l-0.168,0.028l-0.308-0.112l-0.196-0.084l-0.308-0.28l-0.196-0.14l-0.141,0.168l-0.42-0.14v-0.28l-0.224-0.084
		l0.224-0.084l0.252,0.28l0.14,0.224l0.169-0.084l0.14-0.224l0.084-0.364l0.224,0.14l-0.084,0.448l0.392,0.14l0.196-0.224
		l0.168,0.056l-0.14,0.392l0.14,0.14l0.336-0.056L109.484,34.111z M107.27,32.739V32.43l0.196,0.056l0.225,0.281l-0.028,0.336
		l-0.056-0.224L107.27,32.739z M93.654,32.963l-0.196,0.084l-0.224-0.168l-0.056-0.365l0.28-0.084l0.252,0.337l0.28-0.028
		l0.056-0.084l0.084,0.084l-0.168,0.028v0.168L93.654,32.963z M94.999,32.374l-0.028,0.112l-0.225,0.085l0.085-0.057l0.084-0.084
		L94.999,32.374z M108.251,32.318l-0.14,0.253h-0.308l0.14-0.197L108.251,32.318z M94.046,32.318l-0.112,0.084l-0.028-0.196
		l0.056-0.112L94.046,32.318z M91.496,32.43l0.645,0.225l0.196-0.225l0.028-0.364h-0.168l-0.168,0.056l0.056,0.168l-0.084,0.112
		l-0.168-0.252l-0.168-0.028L91.496,32.43z M108.951,32.234v0.224l-0.14,0.141l-0.084-0.113l0.224-0.028l-0.364-0.196l-0.364-0.28
		h0.336L108.951,32.234z M91.805,32.038l-0.028-0.14l-0.393,0.112l0.084,0.112L91.805,32.038z M106.682,32.122l0.224-0.224
		l0.112-0.028l0.476-0.056l0.281,0.308l-0.112-0.112l-0.365-0.112l-0.336,0.252l-0.364,0.364L106.682,32.122z M107.018,31.31h0.28
		l-0.14,0.168l-0.224,0.028L107.018,31.31z M105.981,31.45l0.141-0.14l0.224,0.028l-0.14,0.224l-0.309,0.028L105.981,31.45z
		 M92.421,31.842l0.364-0.364l-0.28-0.168l-0.252,0.028l-0.084,0.196l0.224,0.056l-0.224,0.224L92.421,31.842z M108.083,31.17
		l0.028-0.225l0.14,0.197l-0.224,0.14L108.083,31.17z M104.328,31.002l0.169-0.057l-0.028,0.169H104.3L104.328,31.002z
		 M94.55,30.861l0.056,0.141l-0.14,0.168l-0.056-0.168v-0.197L94.55,30.861z M107.635,30.665l0.196,0.112l-0.224,0.084h-0.141
		L107.635,30.665z M104.665,38.09l-0.309,0.504l-0.168,0.421l-0.392,0.448l-1.345,0.924l-0.504,0.14l-0.42,0.197l-0.561,0.112
		h-1.541l-0.616-0.084L97.8,40.331l-0.448-0.252l-0.756-0.616l-0.365-0.392l-0.392-0.533l-0.14-0.448l-0.252-0.504l-0.224-1.037
		V34.84l0.14-0.504l0.084-0.533l0.224-0.504l0.168-0.504l0.673-0.897l1.4-0.953l0.365-0.14l1.092-0.28l0.785-0.056l1.345,0.168
		l0.504,0.112l0.504,0.225l0.869,0.616l1.093,1.149l0.336,1.064l0.252,0.533l0.084,0.504l-0.056,1.709l-0.224,1.037L104.665,38.09z
		 M106.514,30.385l0.112,0.084l-0.168,0.224L106.514,30.385z M94.466,30.497l-0.196,0.056l0.028-0.168l0.168-0.056V30.497z
		 M93.262,30.777l0.588-0.308l0.112-0.224l0.14,0.028l-0.168,0.392l-0.224,0.196l-0.252,0.225l0.168,0.14l0.224,0.084l0.084,0.252
		l0.252-0.084l-0.084,0.252l-0.336,0.196l-0.112-0.168l-0.028-0.308l-0.617-0.364l-0.168-0.337v-0.168l0.14,0.112l-0.112,0.112
		L93.262,30.777z M91.3,31.646l0.252-0.252l0.253-0.224l0.028-0.337l0.252,0.028l0.112-0.168l-0.224-0.168l0.28-0.196l0.28-0.112
		l0.028,0.252l0.084,0.645l0.533,0.616l0.112,0.28l-0.281,0.42l-0.476,0.169l0.196,0.112l0.252,0.224l-0.168,0.168l-0.028,0.252
		h-0.28l-0.56-0.308l-0.505-0.056l-0.056-0.196l-0.224,0.056v-0.252l-0.056-0.617L91.3,31.646z M94.999,30.077l0.196-0.084
		l0.224-0.252l-0.056,0.364L94.999,30.077z M96.035,29.517l-0.084,0.14l-0.224-0.056l0.112-0.14L96.035,29.517z M103.656,29.629
		l-0.252-0.168l-0.028-0.225l0.252,0.113L103.656,29.629z M95.055,29.264l0.196-0.168l0.056,0.14l-0.14,0.113h-0.28L95.055,29.264z
		 M93.262,29.124h0.252l0.14,0.056l0.28-0.224l0.308-0.056l-0.14-0.056l-0.28-0.028l-0.112-0.168l0.364-0.196l0.224,0.224
		l0.028,0.168l0.252,0.084l-0.14,0.168l-0.168-0.14l-0.084,0.308l0.168,0.225l0.477,0.224l-0.028,0.196l-0.421,0.168l-0.224-0.168
		l0.224,0.028v-0.252l-0.308-0.112l-0.28,0.14v-0.224l0.056-0.197h-0.448l0.056,0.645l-0.224,0.448l-0.281-0.056l-0.308-0.728
		L93.262,29.124z M96.68,28.312l-0.028,0.224l-0.168,0.112l0.028-0.224L96.68,28.312z M101.947,28.256l0.168,0.028l0.028,0.196
		l-0.196-0.028V28.256z M103.376,28.172l0.14,0.168l0.224,0.028l-0.028,0.196l-0.42,0.056l-0.112-0.28L103.376,28.172z
		 M100.602,28.144l-0.084,0.112l-0.112-0.056l0.14-0.168L100.602,28.144z M104.469,28.032l0.056,0.14l-0.197-0.028l-0.028-0.14
		L104.469,28.032z M98.865,27.836h0.112l-0.14,0.112l-0.168-0.084L98.865,27.836z M95.419,28.172l0.14-0.112l0.196-0.224
		l0.084,0.112L95.671,28.2l-0.308,0.084L95.419,28.172z M101.499,27.78v0.196l-0.168-0.056l-0.028-0.112L101.499,27.78z
		 M96.484,27.443l0.336,0.056l-0.112,0.253L96.4,27.695L96.484,27.443z M96.259,27.163l0.028,0.168l-0.168,0.056l-0.028-0.168
		L96.259,27.163z M97.52,27.107l0.336,0.168l-0.14,0.252l-0.392-0.168l-0.084-0.28L97.52,27.107z M103.264,26.939l0.336,0.168
		l0.28,0.168l-0.056,0.112l-0.252,0.056l-0.308-0.196V26.939z M98.865,26.911l0.168,0.112l-0.224,0.028l-0.084-0.084L98.865,26.911z
		 M100.518,26.799l-0.168,0.084v0.14l-0.056-0.14L100.518,26.799z M102.227,26.771l0.364-0.084l-0.028,0.28l0.168,0.168l0.113,0.224
		l-0.197-0.14l-0.252-0.084l-0.252,0.084l-0.168-0.084L102.227,26.771z M110.268,34.308l-0.196-1.149l-0.7-2.101l-0.533-1.037
		l-0.616-0.841l-0.785-0.868l-0.812-0.701l-0.645-0.448l-0.84-0.364l-0.42-0.308l-2.158-0.673l-1.625-0.28l-0.756-0.028l-2.97,0.42
		l-2.101,0.785l-0.421,0.308l-0.504,0.252l-0.952,0.701l-1.373,1.597l-0.869,1.485l-0.42,1.064l-0.476,2.158l-0.084,2.269
		l0.084,0.588l0.14,0.505l0.056,0.532l0.252,1.065l1.289,2.549l0.336,0.336l0.364,0.449l0.42,0.392l0.309,0.364l0.924,0.729
		l2.186,1.12l0.812,0.281l0.616,0.056l1.009,0.224l0.588,0.056l1.569-0.028l1.681-0.224l2.102-0.701l0.924-0.504l0.421-0.336
		l0.532-0.252l0.784-0.673l0.365-0.504l0.392-0.392l1.233-1.878l0.42-1.064l0.224-1.065l0.028-0.504l0.14-0.561l0.028-0.588
		l0.112-0.813L110.268,34.308z M100.378,22.484l-0.196-0.028v-0.252h0.196V22.484z M101.162,22.4l-0.056,0.028l0.028,0.084
		l-0.028,0.196l-0.28-0.112l0.056-0.14l-0.196-0.028v-0.224l0.168-0.028l0.056,0.196l0.056,0.084l0.112-0.056H101.162z
		 M101.667,22.54l-0.084-0.084l-0.084-0.196v-0.196h0.056l0.028,0.168l0.112,0.14L101.667,22.54z M101.162,22.092l0.057-0.028v0.084
		h-0.085L101.162,22.092z M98.921,22.064h0.196l-0.056,0.168h-0.168L98.921,22.064z M100.014,22.12l-0.056,0.28l-0.28-0.112
		l-0.141-0.448l0.253-0.112l0.336,0.028l0.196,0.056l-0.28,0.056L99.79,21.98L100.014,22.12z M101.134,21.532h0.085l0.028,0.112
		h-0.113V21.532z M100.63,21.728v-0.421h0.336l-0.028,0.421H100.63z M99.397,21.195l0.197,0.084l0.056,0.141l-0.197-0.028
		l-0.084-0.141L99.397,21.195z M102.759,21.027l-0.252-0.084l-0.224,0.168l0.252,0.028L102.759,21.027z M99.565,20.887l0.029,0.14
		h-0.197l-0.028-0.14H99.565z M102.507,20.691l-0.028-0.056l-0.056,0.056H102.507z M100.126,20.523l0.028,0.14h-0.196l-0.028-0.14
		H100.126z M99.93,20.887l0.28,0.308l0.14-0.28v-0.056l0.168-0.196l0.224-0.084l0.084-0.112l0.084-0.056v0.14l-0.168,0.084
		l0.14,0.056v0.224l-0.196,0.28l-0.224,0.112l-0.476,0.028l-0.224-0.308L99.93,20.887z M101.723,20.747l0.392-0.14l-0.056-0.308
		l-0.056,0.14l-0.252-0.028l-0.196,0.308l-0.028,0.308l0.252-0.028L101.723,20.747z M100.77,20.187l-0.168-0.028l-0.056-0.14
		l0.168,0.028L100.77,20.187z M102.395,19.851l-0.028,0.224l0.168-0.056L102.395,19.851z M103.124,19.57l0.084,0.084v0.056
		l-0.084-0.056V19.57z M101.134,19.879l0.113-0.028l0.084,0.112l0.364,0.084l0.084-0.224l-0.28-0.141l-0.308-0.056l0.084-0.196
		l0.252,0.056v-0.084l0.224-0.084l0.196,0.084l0.084,0.14l0.616-0.084l0.281,0.561l0.308,0.084l0.112,0.084l0.14-0.112l0.14-0.056
		l-0.056,0.14l-0.196,0.084l0.084,0.112h-0.224l-0.308,0.168l-0.14-0.308l-0.141,0.112l0.197,0.336l0.056,0.28l-0.393,0.421
		l-0.168,0.252l-0.252-0.084l0.028,0.364l-0.14-0.056l-0.252-0.112l0.14-0.252l-0.364-0.141l-0.308-0.448v-0.364l-0.057-0.028
		l0.057-0.28L101.134,19.879z M100.378,19.402l0.196-0.112l0.28-0.28l0.14,0.168l-0.252,0.224l-0.028,0.14l0.084,0.168l-0.168-0.028
		l-0.084-0.14l-0.056,0.225h-0.252l-0.084-0.225L100.378,19.402z M99.117,23.353l0.505-0.056l0.588,0.084l0.252-0.028l0.729-0.056
		l0.588-0.196l0.28-0.253l0.168-0.28l1.821-2.045l0.224-0.168l0.197-0.532l-0.337-0.337l-1.316-0.448l-0.309-0.028l-1.961-0.728
		l-0.448,0.196l-1.121,2.521l-0.196,0.28l-0.084,0.337l-0.196,0.336l-0.084,0.336l-0.168,0.308l-0.168,0.561l0.7,0.196H99.117z
		 M79.724,44.898l-0.252,0.112l0.028-0.224l0.28-0.14L79.724,44.898z M81.181,44.814l-0.084-0.392l0.056,0.112h0.168l0.084,0.14
		L81.181,44.814z M79.808,44.198h-0.112l0.084-0.056l0.028-0.112l0.112-0.028l0.028,0.168L79.808,44.198z M79.247,44.562h-0.364
		l-0.084-0.392l0.252-0.392l0.421-0.141l0.196-0.168l0.168,0.084l-0.308,0.253l0.028,0.308l-0.225-0.196l-0.196-0.112l-0.056,0.336
		L79.247,44.562z M79.948,42.993l-0.224,0.028h-0.168l-0.169-0.028l-0.14,0.224l-0.14,0.056l-0.14-0.308l-0.14-0.14l0.056-0.112
		l0.42,0.084l0.337,0.196l0.084-0.224l-0.112-0.224l0.28,0.196l0.336,0.028l0.028,0.14L79.948,42.993z M81.853,42.741l-0.028-0.168
		l-0.224-0.056l-0.112-0.224l0.252,0.028l0.14,0.28L81.853,42.741z M81.517,41.9l0.084-0.112l0.112,0.056l0.112,0.14l-0.112,0.084
		L81.517,41.9z M80.2,42.517l-0.028-0.224l-0.112-0.028l-0.224,0.056v-0.14l0.28-0.113l-0.056-0.224l0.112-0.056l0.028,0.196
		l0.028,0.365l0.224,0.224L80.2,42.517z M83.674,41.76l-0.168-0.14l0.14-0.056l0.196,0.084L83.674,41.76z M80.788,42.377l0.028-0.14
		l0.112-0.281L80.9,41.592l0.14-0.056l0.085,0.448l-0.197,0.309L80.788,42.377z M84.739,41.564l-0.056-0.168l0.168,0.084
		l0.112,0.084H84.739z M82.694,41.032l-0.225,0.476l-0.392-0.084l0.336-0.084l0.196-0.448l0.253-0.168h0.14L82.694,41.032z
		 M82.834,40.584l-0.028-0.197l0.252,0.028l0.168-0.28l0.168,0.084l0.028,0.252l-0.308,0.028L82.834,40.584z M84.375,40.275
		l-0.112-0.112l0.056-0.112l0.252,0.14l0.084,0.14L84.375,40.275z M84.991,39.183h-0.336l-0.224,0.168v0.224l-0.14-0.14l0.056-0.224
		l0.224-0.168l0.308-0.141l0.168,0.085L84.991,39.183z M83.73,38.846l-0.112-0.168l0.196-0.084l0.056,0.196L83.73,38.846z
		 M84.795,38.398l-0.224-0.224l0.364,0.028l0.224,0.308L84.795,38.398z M81.713,38.034l0.252,0.168l0.112-0.196l-0.224-0.084
		L81.713,38.034z M84.01,37.922l-0.084,0.112l-0.224,0.224l-0.28,0.028l-0.084,0.476L82.89,38.79l-0.112-0.224l-0.112-0.14
		l-0.309,0.224v0.168l0.14,0.253l-0.084,0.112l-0.252-0.14l0.084-0.225l-0.196,0.056l-0.14,0.309l0.196,0.196l-0.112,0.224
		l-0.308,0.084l0.056,0.14l0.196-0.084h0.308l0.449-0.42l0.448-0.336l0.056,0.196l-0.028,0.168l-0.084,0.28l-0.392,0.056
		l-0.589,0.196v0.364l-0.336-0.14l-0.392-0.196l0.028-0.28l0.336-0.14l-0.196-0.42l-0.224-0.421l0.168-0.308l0.112,0.084
		l-0.084,0.28l0.112,0.084l0.168-0.252l-0.084-0.336l-0.28-0.084l-0.252-0.336l0.224-0.14l0.168,0.252h0.196l0.252-0.196
		l0.196-0.056l-0.056-0.196l-0.14-0.112l0.112-0.281l0.392-0.224l0.225,0.084l-0.028,0.252l0.616-0.084h0.448l0.14,0.084
		l-0.196,0.112l-0.392-0.084l-0.28,0.028l0.084,0.197l-0.28-0.113l-0.056,0.393l0.448,0.084l-0.028,0.14L82.89,37.95l-0.309-0.056
		l-0.196,0.112l0.168,0.196l0.309-0.084h0.588l0.336-0.028l-0.196-0.252l0.168,0.084l0.196-0.168l0.196,0.056L84.01,37.922z
		 M83.366,36.829l-0.224,0.028l-0.112-0.14h0.168L83.366,36.829z M84.206,36.913h0.169l0.14-0.196l0.14-0.084l-0.112,0.224
		l-0.224,0.168l-0.197-0.056L84.206,36.913z M81.181,37.053l0.14-0.42l0.224,0.028l0.336-0.168l0.14,0.252l-0.42,0.448l-0.448,0.281
		l-0.169-0.028h0.113L81.181,37.053z M81.881,36.185l0.336-0.056l0.196,0.224l0.168,0.112l-0.14-0.084l-0.14-0.028h-0.28
		L81.881,36.185z M82.469,35.877l0.225-0.056l0.112,0.252l-0.197-0.056L82.469,35.877z M81.713,35.989h-0.42V35.68l0.336-0.028
		L81.713,35.989z M84.431,35.652l-0.225-0.168l0.281-0.084l0.28,0.196l-0.056,0.112L84.431,35.652z M83.226,36.409l0.028-0.14
		l-0.056-0.14l0.056-0.196v-0.112l-0.14-0.113L82.89,35.68v-0.14l0.28-0.084l0.392-0.14l-0.056,0.336l0.168,0.505L83.226,36.409z
		 M81.545,35.204l-0.14-0.112l0.196,0.056l0.112,0.084L81.545,35.204z M84.122,34.84l0.197,0.14l-0.281-0.028l-0.336-0.056v-0.112
		L84.122,34.84z M82.637,35.428l-0.392,0.14l-0.084-0.252l-0.084-0.168l-0.364-0.196l0.056-0.336l0.084,0.112l0.196,0.028
		l0.364-0.168l0.084,0.252l-0.196,0.168l0.028,0.14l0.168,0.028l0.309-0.056l0.056,0.112L82.637,35.428z M83.73,34.616l0.056-0.084
		l0.14-0.028l-0.028,0.14L83.73,34.616z M83.254,34.308l0.14,0.252l-0.28-0.056l-0.168-0.168L83.254,34.308z M81.405,34.139
		l-0.084,0.141l-0.224-0.141l0.168-0.28l0.112,0.056l-0.112,0.056L81.405,34.139z M82.301,33.579l0.224-0.056l0.084,0.252
		l-0.252,0.084L82.301,33.579z M81.713,33.523l0.056-0.196l0.084-0.196h0.112l-0.056,0.224l-0.084,0.252L81.713,33.523z
		 M84.487,32.767l-0.056,0.112l0.056,0.168l-0.281-0.112l-0.28-0.168l-0.168,0.112v0.252l-0.14-0.028v0.56l0.028,0.224l-0.196,0.168
		l-0.084-0.168l0.112-0.168l-0.084-0.14l-0.112-0.168l0.168-0.196l0.168-0.168l-0.056-0.224l0.364-0.056H84.487z M84.375,32.318
		l0.112,0.056l0.084,0.056h-0.252l-0.085-0.084L84.375,32.318z M82.834,32.15l-0.084,0.196l-0.169,0.084l0.056-0.28l0.253-0.084
		L82.834,32.15z M82.89,31.086l-0.028,0.224l-0.168-0.056l0.028-0.196L82.89,31.086z M82.946,30.161l-0.084,0.14l-0.225,0.056
		l0.057-0.168L82.946,30.161z M83.842,30.077l-0.112-0.14l0.252-0.084l0.056,0.112L83.842,30.077z M84.991,30.021l-0.252-0.028
		l-0.196-0.168l0.224,0.028L84.991,30.021z M84.459,29.685l0.056,0.112l-0.168-0.056L84.459,29.685z M81.153,29.601l-0.225-0.112
		l-0.084,0.084l0.196,0.196L81.153,29.601z M82.946,29.881l-0.028-0.14l0.224-0.112l0.084-0.252l0.14,0.112l-0.056,0.392H82.946z
		 M84.795,29.264h0.168v0.252h-0.168V29.264z M81.993,29.937l0.028-0.308l0.308-0.056l-0.168-0.281l-0.168,0.141l-0.392-0.028
		l0.056-0.337l-0.112-0.112l-0.252,0.084l0.084,0.393l-0.028,0.504l0.112,0.112l0.168-0.084l0.112-0.084L81.993,29.937z
		 M79.387,28.704l0.309,0.028l-0.449-0.224L79.387,28.704z M82.89,28.424l-0.196,0.028l-0.085-0.196h0.197L82.89,28.424z
		 M81.012,28.284l-0.028,0.112l0.393-0.168l-0.168-0.084L81.012,28.284z M84.599,28.256l-0.168,0.112v-0.224l0.14-0.224l0.084,0.112
		L84.599,28.256z M85.467,27.92l0.196-0.056l0.028,0.14l-0.084,0.112l-0.14-0.028V27.92z M81.04,27.836l-0.644,0.112l-0.112,0.28
		l-0.112,0.532l0.168,0.42l0.28-0.168v-0.784l0.645-0.14L81.04,27.836z M84.263,28.004l-0.197,0.084l0.056-0.196l0.141-0.084V28.004
		z M83.422,27.667l0.448-0.112l-0.252,0.309l-0.392,0.168L83.422,27.667z M79.612,27.639l-0.028,0.169l0.168-0.028l-0.028-0.253
		L79.612,27.639z M86.224,27.695l-0.365-0.168l0.029-0.196l0.252,0.168l0.252,0.084L86.224,27.695z M80.62,27.219l-0.112,0.168
		l0.14,0.028L80.62,27.219z M78.967,27.303l0.112-0.14v0.196l-0.14,0.14l-0.112-0.056L78.967,27.303z M80.312,29.657l-0.56,0.252
		l-0.421-0.224l-0.448-0.393l0.112-0.56l-0.168-0.42l-0.056-0.28l0.112-0.056l-0.056-0.224l0.588-0.337l0.673-0.196l0.14,0.308
		l0.196,0.084l-0.056-0.196l0.084-0.084l-0.028-0.14l0.168-0.084l0.364,0.252l0.449,0.112l0.616,0.309l0.336-0.309l-0.056,0.365
		l-0.392,0.252l0.336,0.056l0.196,0.448l0.253,0.336h0.28l0.196-0.252l0.112,0.112l-0.224,0.28l-0.421-0.084l-0.168-0.14
		l-0.336,0.112l-0.084,0.084l0.336,0.168l0.252,0.169l0.169,0.084l-0.14,0.028l-0.225,0.392l-0.112,0.56l0.224,0.28l-0.252,0.112
		l-0.112-0.28l-0.28,0.112l-0.028-0.168l0.14-0.196v-0.084l-0.42,0.336l-0.112,0.364l0.364,0.028v0.253l0.196-0.056l0.084,0.196
		l-0.28,0.476l0.224,0.644l-0.252,0.084v0.225l-0.112,0.056l-0.196-0.168l-0.168,0.112l-0.168-0.225l0.084-0.364l0.476-0.28
		l-0.252-0.308l-0.028-0.448l-0.252-0.225h-0.112l-0.113-0.336l0.673-0.308l0.056-0.336l-0.084,0.028l-0.14,0.112l-0.028-0.028
		l-0.112,0.084L80.9,30.077L80.312,29.657z M85.131,27.051l-0.224,0.252l-0.112,0.168l-0.252,0.028l-0.365-0.196l-0.28-0.196
		l0.056-0.28l0.252-0.084l0.113,0.308l0.504,0.028L85.131,27.051l-0.028-0.196l0.084-0.112l0.168-0.084l0.224-0.028l-0.028,0.112
		l0.28,0.224l-0.14,0.224l-0.364-0.168L85.131,27.051z M86.924,26.603l-0.112,0.084l-0.14-0.14L86.924,26.603z M86.056,26.547
		l0.112-0.056l-0.084,0.196l-0.253-0.028l-0.14-0.056l0.14-0.056H86.056z M81.069,26.491l0.364,0.112l0.7-0.196l0.561,0.308
		l0.168-0.028l0.028,0.196v0.224l0.196,0.112l-0.224,0.112l-0.168,0.168l-0.028-0.364l0.224-0.252l-0.196-0.028l-0.197,0.084
		l-0.112,0.336l-0.308-0.252l0.028-0.224l-0.196,0.084l-0.14,0.364l-0.588-0.224l-0.141-0.308l-0.056,0.336l-0.196-0.028
		l-0.084-0.392L81.069,26.491z M79.78,26.351l0.224,0.196l0.112-0.084l0.112,0.308l-0.364,0.28l-0.224-0.252h-0.197l-0.056-0.308
		L79.78,26.351z M81.377,26.239l0.056,0.112l-0.168,0.084l-0.084-0.168L81.377,26.239z M88.129,41.872l-0.392-0.476l-1.878-0.588
		l-0.308-0.561l0.056-2.297l-0.112-1.121l0.112-1.177l-0.056-0.84l0.056-0.869l-0.056-0.532l0.056-0.56l-0.056-0.589v-1.176
		l0.308-0.505l0.533-0.308l0.616-0.028l0.533-0.308l0.308-0.532v-1.653l0.056-0.505l-0.056-0.56l-0.224-0.561l-0.897-0.252
		l-3.558-0.028l-0.617,0.056l-1.709-0.028l-0.532,0.028l-1.093-0.056l-0.616,0.28l-0.308,0.589v0.532l-0.056,0.476v0.617l0.056,0.56
		v0.533l0.28,0.532l1.709,0.588l0.364,0.505l-0.084,2.381l0.028,0.476l0.084,0.645l-0.028,1.148l-0.056,0.561l0.112,1.093
		l-0.14,0.56l0.112,1.205l-0.056,1.092l-0.28,0.617l-1.849,0.588l-0.336,0.532l-0.056,0.533v2.157l0.28,0.588l0.56,0.197
		l8.321,0.056l0.533-0.281l0.308-0.504v-0.616l-0.056-0.505L88.129,41.872z M68.528,44.31l-0.196-0.028l-0.28,0.056L67.8,44.282
		l-0.252,0.252l0.308,0.168l0.224-0.028l-0.028-0.224l0.28,0.056l-0.112,0.14l0.504,0.084l-0.196-0.224V44.31z M70.602,44.226
		l-0.112-0.112l-0.085,0.084l0.057,0.112l0.168,0.168l0.14,0.028l0.336-0.056l-0.14-0.14L70.602,44.226z M64.914,44.17l-0.084,0.14
		l-0.252,0.14h0.336l0.42-0.168l-0.084-0.168L64.914,44.17z M71.162,44.59l-0.392,0.112l-0.112-0.028l-0.084-0.14h-0.169
		l-0.14-0.168l0.112-0.252l0.056-0.28l0.141,0.056l0.392,0.28l0.252,0.084L71.162,44.59z M71.806,43.806l-0.252,0.14l-0.028-0.168
		l0.056,0.112l0.14-0.169l0.168-0.112L71.806,43.806z M63.709,43.806l0.112,0.084v-0.281l-0.224-0.056L63.709,43.806z
		 M67.912,44.002l0.168,0.112l0.224-0.112l0.14-0.14l-0.224-0.084l0.028-0.169l-0.168-0.252l-0.224,0.14l0.196,0.253L67.912,44.002z
		 M72.955,43.637l-0.196-0.084l-0.308,0.14l-0.308-0.224l0.196-0.056l-0.056-0.112l0.112,0.084l-0.14,0.112l0.168,0.056l0.336-0.084
		l0.336,0.14L72.955,43.637z M63.597,43.385l-0.112-0.056l-0.252-0.028l-0.112,0.168v0.028l0.224-0.084L63.597,43.385z
		 M66.399,43.273l0.224,0.336l0.084-0.056v-0.112l-0.056-0.112L66.399,43.273z M71.05,43.834l0.056,0.112l-0.112-0.14l-0.14-0.337
		l-0.224,0.252l-0.168-0.28l0.084-0.224l0.392,0.196L71.05,43.834z M69.509,43.497l-0.14-0.14l-0.168,0.028l-0.168,0.14
		l-0.393-0.028l-0.14-0.28l-0.168,0.112l0.196,0.28l0.589,0.197l0.28-0.225L69.509,43.497z M65.362,43.665l0.112-0.112l-0.056-0.252
		l-0.112-0.14l-0.308,0.224l0.252,0.421l0.364,0.42h0.169l0.084-0.14v-0.14l-0.196-0.309L65.362,43.665z M66.847,43.105l0.28,0.112
		l0.253,0.028l0.084-0.084l-0.281-0.112L66.847,43.105z M71.33,43.273l-0.14,0.14l0.084,0.308l-0.196-0.308v-0.392l0.252,0.056
		V43.273z M70.433,42.825l0.057,0.14l-0.169-0.084v0.168l-0.112,0.056v-0.336l0.112-0.112L70.433,42.825z M69.901,42.573l0.14,0.056
		v0.28l-0.196-0.056L69.901,42.573z M73.88,42.853l-0.224-0.252l-0.253,0.028l0.084-0.056l0.197-0.028l0.252,0.14L73.88,42.853z
		 M63.093,42.573l-0.14-0.056l-0.056,0.196l0.28,0.084l0.028-0.168h-0.168L63.093,42.573z M67.015,42.825h0.365l-0.197-0.28
		l-0.224-0.084v0.196l0.252,0.084L67.015,42.825z M65.194,42.517l-0.28-0.056l0.168,0.196L65.194,42.517z M72.815,42.461
		l0.084,0.112l-0.028,0.028l-0.168-0.028l-0.168-0.084l0.056-0.14L72.815,42.461z M64.102,43.357l0.14-0.224l0.252,0.112
		l-0.028-0.252l0.112-0.056l-0.252-0.028l-0.112-0.28h0.112l0.056-0.28l-0.421-0.056l0.113,0.336l-0.085,0.224l-0.112,0.084
		l-0.28-0.056l-0.084,0.14l0.112,0.168l-0.028,0.084l0.561,0.28l0.308,0.477l0.084-0.196l-0.14-0.253L64.102,43.357z M73.039,42.461
		l-0.112,0.084l0.028-0.084l-0.112-0.196l-0.14-0.056l0.028-0.113l0.168,0.113l0.252,0.028l0.056,0.168L73.039,42.461z
		 M70.321,42.405l0.253-0.196l0.112-0.169l0.196,0.113l-0.056,0.14l-0.14,0.14l-0.084-0.14l-0.169,0.252L70.321,42.405z
		 M69.061,42.293h0.196l-0.252-0.281h-0.281l0.141,0.141L69.061,42.293z M64.438,41.9l0.112,0.168l0.056,0.253l0.28,0.084
		L64.774,41.9H64.438z M62.981,41.788l-0.14,0.084l0.056,0.168h0.196L62.981,41.788z M68.808,42.209l-0.14-0.197l-0.028-0.224
		l-0.112-0.168L68.5,41.788l-0.056,0.393l0.336,0.364v-0.028l0.028,0.028l0.141-0.112L68.808,42.209z M65.138,42.349l0.336,0.056
		l0.14-0.224l-0.084-0.393l-0.224-0.224l-0.112,0.252l-0.056,0.196l0.056,0.112l-0.084,0.085L65.138,42.349z M67.268,41.648
		l0.224-0.056l0.252-0.056l-0.056,0.196l0.14,0.028h0.364l0.14,0.084l0.056-0.112l0.14-0.14l0.393,0.168l0.644-0.028l-0.056,0.252
		l0.084,0.169h0.224v0.196l-0.252-0.028l-0.112-0.14l-0.168,0.308l0.168,0.224l0.196-0.112l-0.056,0.224l-0.28,0.112l0.028-0.168
		l-0.112-0.196l-0.168-0.084l-0.196,0.112l-0.057-0.056H68.78l-0.028,0.168l-0.196,0.168l-0.028-0.196l-0.056-0.196l-0.196-0.533
		L67.94,41.9l-0.308-0.168l-0.028,0.252l-0.28,0.112l-0.225-0.252L67.268,41.648z M71.386,41.508v0.364l0.252,0.365l0.14,0.14
		l-0.14,0.112l-0.084-0.196l-0.252-0.225l-0.252-0.28l0.112-0.14L71.386,41.508z M73.151,41.452l-0.112,0.336l-0.196-0.196
		L73.151,41.452z M66.147,41.592l-0.168-0.252l-0.28,0.112l-0.056,0.336l0.196-0.14L66.147,41.592z M72.367,41.312l0.112,0.168
		l0.14,0.14l-0.168,0.056l-0.084-0.084l-0.168-0.112l-0.056-0.168H72.367z M63.877,42.096l0.309-0.28l0.224-0.028v-0.14l0.42,0.056
		l-0.084-0.224l-0.28-0.028l-0.336-0.14l-0.281,0.252l0.056,0.252L63.877,42.096z M70.377,41.508l0.505-0.336l0.056,0.224
		l-0.112-0.084l-0.14,0.28L70.49,41.76l-0.225,0.477l0.056,0.14l-0.196-0.253L70.377,41.508z M71.722,41.06l-0.14,0.252l-0.14,0.028
		L71.722,41.06z M71.862,41.228l0.253-0.112l-0.085-0.084l0.113,0.084l-0.253,0.252L71.862,41.228z M63.373,41.62l0.308-0.224
		l0.056-0.112l-0.224-0.056l-0.196-0.224l-0.056-0.112l-0.168-0.056l-0.112,0.168L62.925,41.2l0.224-0.056l0.14,0.112v0.168
		l-0.196,0.084l0.056-0.112l-0.336,0.112l-0.14-0.084l-0.028-0.28L62.42,41.34l-0.252,0.084l0.168,0.084l0.281,0.196l0.112,0.084
		l0.14-0.084l0.112,0.084l0.112-0.112L63.373,41.62z M74.02,40.724l-0.084,0.112l-0.028,0.196l-0.112-0.056l0.14-0.14l-0.112-0.196
		l0.364,0.028L74.02,40.724z M63.765,40.836l-0.168-0.224l-0.112,0.14l0.252,0.196L63.765,40.836z M72.507,40.415h0.14l0.112,0.028
		l0.14,0.141l-0.168,0.224l-0.28,0.112l-0.252-0.084l0.056-0.168l0.168,0.112l0.056,0.056l0.112-0.112L72.507,40.415z
		 M62.645,40.415l0.112-0.056l-0.168-0.112l-0.365,0.421l-0.532-0.056l-0.112,0.224l0.336-0.112l0.196,0.112l0.589-0.056
		l0.084-0.168l-0.196-0.028L62.645,40.415z M69.509,44.338l0.392,0.028l0.056,0.084l0.084,0.28l-0.168,0.224l-0.168,0.14
		l-0.112-0.084l0.196-0.196l0.168-0.252h-0.28l-0.056-0.112l-0.168,0.168l-0.084-0.168l-0.336-0.14l-0.112-0.28l-0.085,0.084
		l-0.14,0.028l-0.168-0.14l0.028,0.196l0.673,0.56l-0.056,0.056l-0.14,0.084l-0.14,0.308l-0.253,0.028l0.112-0.14l0.056-0.252
		l-0.168,0.112l-0.28-0.056l-0.14,0.196l-0.028,0.253l-0.28-0.113l-0.476,0.056l-0.084-0.084l0.196-0.112v-0.14h-0.393l-0.084,0.252
		l-0.196-0.028l0.056-0.28l-0.14-0.14l-0.084,0.224l-0.14,0.168l-0.364,0.056l-0.112-0.168l0.028-0.336l0.28-0.112l-0.308-0.084
		l-0.336,0.42v-0.224l-0.505,0.084l0.056-0.224l-0.336-0.028l-0.056,0.196l0.112,0.028l-0.112,0.056l-0.392-0.364h-0.336
		l-0.309-0.448l-0.168,0.084l0.084,0.112l0.056,0.168l-0.14-0.112l-0.056-0.14l-0.084-0.084l-0.14-0.028l-0.308-0.14v-0.365h-0.028
		l0.028-0.028l-0.084-0.028l-0.084,0.084l-0.112,0.309l-0.196-0.253l-0.14-0.028l-0.309-0.308l0.281-0.504l0.14,0.196l0.14-0.224
		l-0.308-0.168l0.364-0.196l0.084-0.309l-0.112-0.112l-0.14-0.112l-0.056,0.224l-0.084,0.253l-0.225,0.112l-0.14,0.056l-0.224,0.14
		l-0.14,0.028l0.056-0.224l0.224-0.112l-0.084-0.084v-0.225l0.084-0.14l-0.28,0.056l-0.224,0.14h0.224l0.056,0.141h-0.168
		l-0.056-0.113l-0.168,0.085L61.3,41.9v-0.168l-0.196,0.084v-0.28l0.196-0.14l-0.168-0.224l0.224-0.196l0.056-0.14l-0.28-0.28
		l0.168-0.421l-0.14-0.196v-0.112l0.448-0.028v0.224l0.168-0.056L62,39.715l0.308-0.028l0.028,0.252l0.309-0.224l0.252,0.308
		l-0.14,0.168l0.196,0.056l0.224,0.084l-0.084-0.252l-0.14-0.224l0.14-0.168l0.056,0.056l0.616,0.644v-0.112l0.112-0.364
		l0.337,0.084l-0.253,0.084l0.056,0.252l0.253,0.028l0.084,0.253l-0.224,0.224l-0.197-0.056l0.253,0.252l0.308,0.028l0.084-0.168
		l-0.14-0.14l0.252-0.084l0.112-0.112l0.028-0.085l0.056,0.169l-0.084,0.14l0.112,0.168l-0.196,0.112l-0.224,0.112l-0.14,0.112
		l0.224,0.056l0.168,0.056l0.168-0.252l0.112-0.14l0.056-0.28l0.392,0.084l0.337,0.336l0.336,0.196l0.14,0.168v0.252l-0.196,0.168
		l-0.14-0.028l-0.112,0.281l-0.084,0.336l0.42-0.056l-0.168,0.168l0.168,0.168l0.252-0.168l0.084-0.168l-0.112-0.168l-0.168-0.056
		l0.028-0.169l0.308-0.112l-0.084-0.224l0.336,0.028l0.308,0.364l0.225,0.169l0.364,0.196l-0.14,0.084v0.056l0.084-0.028
		l-0.14,0.112l0.252,0.056l0.14-0.308l0.14-0.056l-0.028,0.112l0.224,0.28l0.028,0.364l0.224-0.112l0.336,0.168l0.113,0.224
		l0.308-0.336l0.056-0.14l0.112,0.224l0.168,0.084l0.476,0.112l0.112,0.224l0.112-0.056l0.028,0.197l-0.252,0.056l-0.504-0.281
		l-0.14,0.225l0.084,0.14l-0.14,0.112l0.252,0.028l0.28-0.196l0.252,0.252l-0.14-0.028l-0.168-0.056l-0.14,0.196h-0.392
		L69.509,44.338z M73.067,39.911l-0.168,0.28l-0.224-0.28l-0.308-0.028l-0.14-0.084l-0.028,0.112l-0.14,0.056l0.084-0.224
		l0.42-0.084l-0.056-0.308l-0.028-0.14l0.728,0.588L73.067,39.911z M71.666,39.015l-0.084,0.084l-0.028-0.084l-0.168-0.169h0.112
		l0.196,0.085l0.112,0.168L71.666,39.015z M71.274,38.37h0.252l-0.056,0.196l0.168-0.028l-0.084,0.14l-0.336-0.084L71.274,38.37z
		 M72.563,37.614l0.224,0.056v0.14h-0.308L72.563,37.614z M73.768,37.474l0.168,0.168l0.084-0.084l0.14-0.028l-0.084,0.084
		l-0.364,0.14l-0.056-0.168L73.768,37.474z M70.546,37.193l-0.056,0.084l-0.057,0.253l-0.112,0.112l-0.028,0.196l-0.14-0.112
		l0.168-0.14v-0.112l-0.084-0.056l0.056-0.197l0.253-0.168l0.112,0.14H70.546z M69.985,37.025l0.196-0.196l0.112,0.196l-0.112,0.112
		l-0.252,0.084L69.985,37.025z M70.91,36.969l-0.168-0.028l0.14-0.14l0.168-0.112L70.91,36.969z M65.839,36.577l-0.084,0.224
		l-0.112-0.28l0.28-0.112L65.839,36.577z M65.502,36.577l-0.224,0.084l-0.14,0.028l-0.056,0.112l-0.112,0.112l0.448-0.028
		l0.084,0.168l-0.336,0.084l-0.252-0.252l0.448-0.448l0.224-0.056L65.502,36.577z M66.707,36.409l-0.084,0.168l0.028,0.252
		l-0.168-0.056l-0.084-0.224l0.14-0.252l0.168-0.084V36.409z M70.49,36.381l-0.225-0.14l0.197-0.112L70.49,36.381l0.084-0.14h0.112
		l0.028,0.14H70.49z M67.352,36.241v-0.112l0.14,0.168L67.352,36.241z M69.369,36.577l-0.112-0.028l0.028-0.28l0.168-0.196
		l-0.056,0.364l0.168,0.14H69.369z M68.724,36.325l-0.112,0.112l-0.084-0.14l-0.14-0.252v-0.28l0.224,0.168l-0.14,0.168l0.505-0.056
		l0.056,0.224L68.724,36.325z M68.136,35.736l-0.224,0.197l-0.28-0.225l0.168-0.196l0.336,0.028l0.084,0.112L68.136,35.736z
		 M70.826,35.765l-0.14-0.141l0.028-0.14l0.056,0.112L70.826,35.765z M67.324,35.793l-0.085-0.141l0.085-0.168l0.224,0.168
		L67.324,35.793z M65.979,35.933l0.14,0.224l-0.14-0.056l-0.393-0.308l0.141-0.225l0.028-0.196l0.392,0.084l0.084,0.365l-0.14-0.169
		l-0.168,0.028L65.979,35.933z M69.929,35.316l0.252,0.084l0.14,0.196l-0.028,0.084l-0.168,0.085l-0.056-0.281l-0.28-0.112
		l-0.028-0.168L69.929,35.316z M71.274,35.316l0.112-0.168l0.056,0.14L71.61,35.4l0.14,0.056l-0.084,0.14l-0.14-0.084l-0.028,0.14
		l-0.28,0.225l0.084-0.337l0.14-0.112L71.274,35.316z M70.658,35.092l0.28,0.14l-0.084,0.224l-0.308-0.196l-0.113-0.028
		L70.658,35.092z M69.313,35.736l-0.392-0.56l0.364-0.14l0.112,0.224l-0.14,0.028l0.224,0.224l0.252,0.309l0.196,0.196l-0.252-0.112
		L69.313,35.736z M65.951,34.84l-0.084,0.224l-0.421-0.168l-0.196-0.252l0.336,0.056L65.951,34.84z M68.949,34.476v0.112
		l0.112,0.112l0.168,0.112l-0.112,0.056l-0.084,0.084l-0.112-0.14l-0.141-0.224L68.949,34.476z M64.634,36.633l-0.028-0.364
		l-0.392-0.084l0.056,0.336l-0.168,0.028l-0.113,0.084v-0.28l0.141-0.084l-0.225-0.224l-0.028-0.252l-0.112-0.197l-0.028-0.14
		l-0.14-0.084l-0.084,0.084l-0.14,0.196l0.112,0.056l0.028,0.141l-0.252,0.056l0.028,0.14l0.056,0.196l-0.252-0.224v-0.196
		l0.196-0.028V35.4l0.252-0.42l0.224,0.084l-0.084-0.28l-0.588-0.028v0.252l-0.056,0.364l-0.336,0.084l-0.168-0.196l0.168,0.14
		l0.112-0.168l0.196-0.336l0.056-0.392l0.252-0.168l-0.112,0.168l0.112,0.14l0.168-0.028l-0.084-0.084l0.168-0.168h0.168
		l-0.14,0.112l-0.112,0.028l0.448,0.196l0.505,0.196l0.084,0.42l0.112,0.112l-0.112,0.337l-0.168-0.169l0.14-0.168l-0.028-0.084
		l-0.14-0.168l-0.421,0.028l-0.196,0.168l0.056,0.028l0.337,0.028l-0.028,0.449l0.504,0.028l0.252-0.617l0.084,0.477l0.112,0.252
		l0.14-0.056l0.14,0.14l0.421,0.028l-0.197,0.112l-0.532,0.028l-0.084,0.196l-0.056,0.252L64.634,36.633z M67.099,35.54
		l-0.196,0.112v0.169l0.224,0.028l0.197,0.224l-0.197-0.084l-0.504-0.056l0.084-0.112v-0.169l0.056-0.084l0.084,0.14l0.084-0.084
		v-0.14l-0.14-0.084l-0.112-0.28l0.392,0.252l0.253-0.112l0.252-0.308l-0.224-0.196l0.028-0.196l-0.084-0.224l0.28,0.056
		l0.336,0.308L67.8,34.868l-0.112-0.056l-0.084,0.392L67.099,35.54z M64.27,34.252l0.084,0.28l-0.252-0.196L64.27,34.252z
		 M62.505,34.7l-0.085-0.168l-0.056,0.196l-0.252,0.14l-0.168,0.056L62,35.036l0.224,0.196L62.112,35.4l-0.168-0.224l-0.084-0.308
		l-0.28-0.14l0.112,0.028l0.252-0.224v-0.168l0.112-0.112l0.028,0.252l-0.112,0.112l0.224-0.056l0.421-0.056l0.028,0.14L62.505,34.7
		z M66.343,34.027l0.084,0.141l-0.224,0.168l-0.112-0.14L66.343,34.027z M63.821,33.915l-0.14,0.224l-0.28,0.113l0.056-0.056
		l0.112-0.309L63.821,33.915z M64.074,33.887l0.028-0.168h0.112l0.056,0.224l0.056,0.168l-0.168-0.028L64.074,33.887z M62.14,33.663
		l0.28,0.084l-0.056,0.14l0.056,0.281l0.225-0.141v0.197l-0.281,0.056l-0.084-0.337l-0.056-0.196l-0.196,0.196l-0.084-0.168
		L62.14,33.663z M63.429,32.486l-0.084,0.113l-0.14,0.112l-0.112,0.28l0.168,0.056l0.252-0.14v-0.056h0.028l-0.056-0.196
		L63.429,32.486z M65.53,33.775l0.225-0.084l0.056,0.448l-0.421,0.393l-0.224-0.168l-0.168,0.112l-0.14,0.252l-0.196-0.14
		l-0.084-0.196l0.308-0.112h0.196l0.224-0.309l-0.392-0.168l-0.364,0.112l-0.14-0.14l0.308,0.028l0.196-0.056v-0.14h-0.336
		l-0.14-0.056l-0.308-0.168l-0.056-0.252l-0.085,0.392l-0.252,0.084l-0.224,0.056l0.028-0.336l0.392-0.336l0.477-0.14v-0.252
		l-0.14-0.085l0.112-0.084l0.336,0.365v0.308l0.112-0.056l0.084-0.392l0.112,0.14l0.28,0.196l-0.336-0.056l-0.056,0.112v0.168
		l-0.224,0.056l-0.112,0.224l-0.112,0.056l0.112,0.056l0.14-0.14l0.196,0.084l0.224,0.14L65.53,33.775z M62.028,32.683l0.252-0.169
		l0.028-0.168l0.141,0.14l-0.169,0.253L62,32.823L62.028,32.683z M61.16,32.571l0.056-0.337l0.084-0.056h0.112l-0.084,0.252
		L61.3,32.542l0.168,0.029l0.14,0.196l-0.168,0.028L61.16,32.571z M61.608,31.73l0.168-0.14l0.14,0.14l-0.14,0.084l-0.112,0.084
		l-0.14-0.112L61.608,31.73z M63.093,31.562l-0.14-0.112l0.14-0.112l0.028,0.14L63.093,31.562z M62.897,31.394l-0.14-0.112
		l0.112,0.084L62.897,31.394z M63.429,31.31v-0.421l0.168-0.168l-0.112,0.168l0.168,0.169l0.196,0.028l-0.504,0.672l-0.084-0.084
		L63.429,31.31z M63.037,32.935l0.168-0.28l0.056-0.141l0.14-0.336l0.532-0.644l0.617-0.504v-0.309l0.308-0.084l-0.084,0.308
		l0.084,0.225l-0.168-0.056l-0.112,0.056l0.14,0.112l0.168,0.28l-0.14,0.224h0.168l-0.084,0.14l-0.252-0.42l-0.084,0.084
		l-0.252,0.028l0.448,0.28l-0.056,0.168l0.028-0.14l-0.14-0.056l-0.028,0.168l-0.14,0.084l-0.308-0.252l-0.337,0.14l0.056,0.168
		l-0.196,0.393l0.056,0.224l-0.084,0.056v0.028l-0.028,0.028l-0.028,0.14l-0.056,0.168l-0.196-0.056l-0.196-0.112h-0.364l0.196-0.28
		l-0.224-0.281l0.112-0.14h0.336V32.15l0.112,0.028l-0.084,0.196l-0.14,0.112L63.037,32.935z M64.102,30.553l0.224-0.056
		l-0.028,0.448l-0.252,0.197l0.028-0.253l0.056-0.28L64.102,30.553z M61.748,30.469l-0.084,0.084l-0.084-0.14l0.056-0.084v0.056
		L61.748,30.469z M63.485,30.301l0.28-0.112l0.224-0.028l0.141,0.224l-0.028,0.168l-0.056-0.14l-0.057-0.168l-0.112,0.196
		l-0.14,0.196l-0.252-0.14l0.252,0.056l0.056-0.14L63.485,30.301z M64.774,30.189l0.112-0.196v0.112l0.084,0.028l0.112,0.056H64.774
		z M61.552,29.909l0.084,0.084v0.168l-0.112-0.14L61.552,29.909z M65.278,29.741l0.365,0.084l0.112,0.252l-0.169-0.056l-0.224,0.028
		l-0.112-0.084L65.278,29.741z M64.354,30.301l-0.393-0.448l0.197-0.14l0.252,0.084l0.168-0.112l-0.028,0.252l-0.28,0.112
		L64.354,30.301z M72.815,29.489l0.112-0.084v0.196l-0.112,0.084V29.489z M64.326,29.349l-0.084-0.113l0.28-0.028L64.326,29.349z
		 M63.093,29.18v0.449l-0.084-0.224l-0.056-0.141L63.093,29.18z M62.757,29.068l-0.14,0.056l0.112-0.112L62.757,29.068z
		 M65.474,28.956l-0.112,0.056l-0.056-0.168L65.474,28.956z M68.808,28.816l0.085,0.084l0.056,0.224l-0.197-0.196L68.808,28.816z
		 M63.877,28.76l0.112,0.112l0.085,0.224l-0.085,0.056l-0.168,0.14l0.168,0.085l-0.028,0.14l-0.14-0.225l0.112-0.28h-0.168
		L63.737,28.9L63.877,28.76z M66.595,28.872l0.196-0.196l0.028,0.14l-0.084-0.084L66.651,28.9l0.168,0.056l0.196,0.224l-0.224-0.028
		l-0.224-0.14L66.595,28.872z M62.589,28.62l0.056,0.112l0.084,0.224l-0.14-0.028l-0.112-0.196L62.589,28.62z M64.914,28.564
		l0.112-0.14h0.028l-0.14,0.224l-0.252-0.084l-0.028-0.196l0.14,0.084L64.914,28.564z M72.03,28.508l0.113-0.308l0.196-0.028
		l-0.309,0.476l-0.084-0.224L72.03,28.508z M64.718,28.172l-0.112,0.112l-0.028-0.252L64.718,28.172z M65.699,27.948h0.224
		l0.112,0.14l-0.28,0.168l-0.028-0.252l-0.113,0.112l-0.084-0.084L65.699,27.948z M68.416,27.808L68.5,27.92l-0.084,0.224L68.5,28.2
		l-0.224-0.028l-0.112-0.196L68.416,27.808z M64.13,27.808l0.168,0.112l0.168-0.056l-0.168,0.112l-0.028,0.196l-0.084,0.168
		l-0.056-0.168l-0.113-0.196l-0.056-0.168H64.13z M66.119,27.471l0.028,0.196l-0.28,0.028l-0.084-0.14L66.119,27.471z
		 M69.201,27.471l0.056,0.14l-0.112-0.028l-0.084-0.168L69.201,27.471z M70.63,27.359l0.364-0.056l-0.224,0.112l0.112,0.14
		l-0.14,0.084l-0.084-0.168l-0.196,0.028L70.63,27.359z M67.043,27.471l0.112-0.196l0.084,0.084l-0.308,0.224L67.043,27.471z
		 M75.841,38.146l-0.14-0.532l-0.561-1.037l-0.672-0.869l-0.476-0.392l-1.485-0.672l-2.298-0.561l-2.829-0.364l-1.177-0.42
		l-0.42-0.224l-0.449-0.448l-0.028-0.757l0.084-0.728l0.309-0.393l0.476-0.364l0.392-0.168l0.504-0.112l1.794-0.056l0.616,0.224
		l0.42,0.336l0.925,0.981l0.868,0.28l1.849,0.056l0.505-0.056l0.532,0.056l0.532-0.336l0.253-0.532l-0.225-1.093l-0.448-1.009
		l-0.364-0.448l-0.28-0.448l-0.364-0.421l-1.794-1.232l-1.541-0.533l-0.588-0.112l-0.504-0.056l-0.617-0.14l-1.569,0.028
		l-2.213,0.448l-0.504,0.197l-0.449,0.28l-0.448,0.168l-0.56,0.336l-0.392,0.364L62,27.723L61.692,28.2l-0.364,0.364l-0.196,0.504
		l-0.28,0.449l-0.393,1.625l0.028,1.877l0.196,0.784l0.365,0.981l0.7,0.924l0.785,0.729l0.98,0.588l1.597,0.533l1.009,0.224
		l2.297,0.168l0.505,0.084l0.56,0.028l1.009,0.42l0.392,0.336l0.14,0.729l-0.168,0.728l-0.449,0.393l-0.448,0.252l-1.036,0.308
		l-0.785,0.028l-0.84-0.056l-0.645-0.168l-0.42-0.196l-0.504-0.309l-0.421-0.392l-0.42-0.56l-0.56-0.224l-2.13-0.056l-0.56,0.056
		l-0.56-0.028l-0.561,0.252l-0.196,0.588l0.056,0.617l0.112,0.504l0.449,1.121l0.7,0.868l0.813,0.813l0.476,0.308l2.017,0.924
		l0.616,0.085l0.533,0.196l1.177,0.084l0.812,0.084l0.897-0.028l2.745-0.533l1.457-0.784l0.897-0.616l0.784-0.897l0.561-0.897
		l0.224-0.504l0.168-0.56l0.084-0.505l0.028-1.737L75.841,38.146z M54.181,44.73h-0.168v-0.112l0.112-0.14l0.084,0.028L54.181,44.73
		z M46.728,44.73l-0.168-0.056v-0.14l0.14-0.14l0.112,0.112L46.728,44.73z M47.877,44.646l-0.28,0.112L47.4,44.506l0.309-0.196
		l0.224,0.196L47.877,44.646z M51.995,44.45l-0.056-0.196l0.112,0.112l0.056,0.112L51.995,44.45z M51.183,44.282l-0.14-0.084
		l0.084-0.112l0.112,0.084L51.183,44.282z M55.021,44.086l-0.14,0.056l0.084-0.084l0.168-0.14l0.056,0.084L55.021,44.086z
		 M48.409,44.31l0.056,0.14h-0.14l-0.112-0.364l0.252-0.168l0.056,0.196l-0.196,0.14L48.409,44.31z M45.971,44.394l-0.112-0.168
		l0.337-0.196l-0.14-0.28l0.112-0.085L46.7,44.03v0.084l-0.364-0.028L45.971,44.394z M53.116,43.778l-0.056-0.141l0.14,0.028
		l0.056,0.085L53.116,43.778z M51.631,43.834h-0.252l0.084-0.141l0.252-0.084L51.631,43.834z M50.118,43.609L49.95,43.75
		l-0.028-0.085l0.14-0.112l0.112-0.056L50.118,43.609z M50.538,43.721l-0.168,0.281l-0.168-0.14l0.252-0.281l0.28-0.14l0.057,0.14
		L50.538,43.721z M46.784,43.581h-0.252l0.056-0.084l0.224-0.084L46.784,43.581z M54.405,44.086l-0.336-0.252l-0.253-0.337
		l-0.168,0.084l-0.14-0.112l0.112-0.112l0.533,0.28l0.336,0.281L54.405,44.086z M49.614,43.469l-0.028-0.196l0.168,0.084l0.056,0.14
		L49.614,43.469z M47.821,43.441l-0.084-0.168l0.252,0.028l0.056,0.168L47.821,43.441z M56.45,43.609v-0.168l-0.224-0.084
		l-0.224,0.056l0.112,0.224l-0.196,0.056l-0.084-0.28l0.28-0.112l0.308-0.084l0.112,0.224l0.056,0.168H56.45z M54.405,43.301
		l0.028,0.252l-0.14-0.14l-0.056-0.196L54.405,43.301z M48.661,43.441l-0.084-0.028h0.084v-0.112l-0.084-0.14l0.196,0.084
		L48.661,43.441z M54.853,43.105l0.112-0.112h0.14l-0.056,0.14l-0.224,0.084L54.853,43.105z M49.782,42.909l-0.084-0.084
		l-0.084-0.112l-0.168,0.196l-0.337,0.112l-0.196-0.168l0.112-0.168l0.309,0.084l0.28-0.056l0.196,0.084L49.782,42.909z
		 M50.678,43.217l0.028-0.14l0.169-0.14l0.196-0.196l0.14-0.084l-0.084,0.168l-0.084,0.224l-0.252,0.112L50.678,43.217z
		 M48.577,42.601l-0.112,0.196l-0.224,0.028l0.084-0.168L48.577,42.601z M50.202,42.797l-0.14-0.056l-0.056-0.224l0.168,0.056
		L50.202,42.797z M55.413,42.601l0.028-0.14l0.253,0.028l0.224,0.308l-0.084,0.084l-0.196-0.252L55.413,42.601z M51.911,42.881
		l0.028-0.224l-0.112-0.028l-0.14,0.056l0.14-0.28l0.28,0.28L51.911,42.881z M53.228,42.433l-0.252,0.084l0.084-0.056l0.056-0.14
		l0.168-0.028L53.228,42.433z M50.959,42.153l0.14,0.084l-0.14,0.112V42.153z M48.549,42.293l-0.028-0.197l0.168-0.112l0.028,0.225
		L48.549,42.293z M47.961,41.984h0.252v0.197l-0.224,0.112l-0.224,0.084l-0.028-0.224L47.961,41.984z M45.803,41.9h0.281
		l0.056,0.224l-0.281-0.028L45.803,41.9z M55.189,41.844h0.196l0.056,0.168l-0.168-0.028L55.189,41.844z M49.558,42.489l-0.28-0.112
		l-0.169-0.112l0.225-0.281l0.364-0.224l0.084,0.14l-0.308,0.253L49.558,42.489z M47.597,41.788l0.112-0.252l0.168,0.028
		l-0.112,0.168L47.597,41.788z M46.756,41.144l0.224-0.028l-0.224-0.14V41.144z M47.625,40.836l0.308-0.084l-0.056-0.281
		L47.625,40.836z M46.14,39.883l0.112,0.112l0.168-0.084l-0.112-0.056L46.14,39.883z M48.577,40.079l0.308-0.308l-0.252-0.112
		l-0.168,0.28l-0.252-0.112l-0.028,0.224l0.224,0.056L48.577,40.079z M47.681,40.079l-0.169-0.224L47.4,39.519l-0.42,0.196
		l-0.084,0.308H46.56l0.028,0.28l0.504-0.112l0.42,0.112L47.681,40.079z M47.148,39.379l0.028-0.14l-0.168,0.028l-0.056,0.112
		H47.148z M47.597,39.043l-0.085,0.14l0.197-0.084L47.597,39.043z M49.614,39.015l-0.224,0.084l0.224,0.084V39.015z M47.484,38.146
		l-0.168,0.084l0.281,0.056L47.484,38.146z M46.924,38.146l-0.196,0.028l-0.252-0.084l-0.252,0.14l0.224,0.14l0.476-0.028V38.146z
		 M48.381,38.258l0.196,0.028l-0.056-0.196l-0.168-0.028L48.381,38.258z M47.709,38.23h0.252l-0.14-0.168L47.709,38.23z
		 M47.512,37.614l0.225-0.196l0.084-0.225l-0.196-0.028l-0.169,0.084l0.056,0.141l-0.056,0.084L47.4,37.221l0.112-0.14l-0.168-0.056
		L46.7,37.221l0.14,0.281L47.512,37.614z M48.353,36.969l-0.028,0.112l0.14,0.084L48.353,36.969z M47.12,36.941l-0.196-0.056
		l0.056,0.224L47.12,36.941z M48.913,36.773l-0.056-0.112l-0.224,0.112l0.084,0.084L48.913,36.773z M53.76,36.969l-0.168-0.112
		l0.084-0.224l0.196,0.196L53.76,36.969z M53.2,36.661l-0.14,0.084l-0.196,0.196l-0.308-0.028l0.28-0.056l0.224-0.112l0.084-0.168
		l0.112,0.028L53.2,36.661z M54.405,36.689l-0.084-0.196l0.224,0.084l0.056,0.14L54.405,36.689z M53.396,36.465L53.2,36.437v-0.112
		l0.196,0.028V36.465z M48.969,36.241l-0.28,0.056l-0.056,0.224l0.308-0.028L48.969,36.241z M52.359,36.437l0.281-0.252l0.112,0.252
		l-0.224,0.14L52.359,36.437z M49.194,36.213h0.168l-0.056-0.14L49.194,36.213z M46.504,35.989l-0.168,0.028l-0.14-0.112
		l0.224-0.028L46.504,35.989z M53.564,35.877l0.252-0.028l0.028,0.308l-0.252,0.028L53.564,35.877z M49.334,35.708h-0.253
		l0.141,0.197L49.334,35.708z M50.37,36.101l-0.28-0.056l-0.14-0.337l-0.14-0.056l-0.168,0.365l0.504,0.14L50.37,36.101z
		 M53.788,35.596l-0.056-0.084l0.112-0.028l0.084,0.112H53.788z M52.163,35.456L52.051,35.4l-0.14-0.056l0.112,0.028h0.168
		l0.056,0.056L52.163,35.456z M53.228,35.68l-0.112-0.224L52.948,35.4l-0.056-0.084l0.112,0.056l0.196-0.028l0.196,0.168
		L53.228,35.68z M46.028,35.204l0.168,0.196l0.056,0.28l-0.281-0.196l-0.112-0.252L46.028,35.204z M49.418,35.036v0.168l0.168-0.112
		L49.418,35.036z M54.013,34.98l0.616,0.028l0.476-0.028l-0.392,0.224l-0.532-0.112l-0.197,0.224l-0.28-0.14l-0.028-0.308
		L54.013,34.98z M52.444,34.924v-0.168l0.14,0.028l0.028,0.168L52.444,34.924z M46.644,34.588l-0.028,0.14l0.224-0.056
		L46.644,34.588z M54.097,34.364l0.112,0.084l0.084,0.224l0.112,0.028l-0.196,0.084l-0.196-0.196L54.097,34.364z M56.058,34.588
		l-0.252-0.028v-0.224l0.224,0.028L56.058,34.588z M55.385,34.308l0.196,0.308l0.057,0.168l0.28-0.028l-0.14,0.588l0.392,0.421
		l-0.336,0.084l-0.393,0.168l-0.168,0.28h0.224l0.141,0.028l-0.113,0.056l-0.14,0.028l0.056,0.084l-0.196-0.056l-0.112-0.224
		l-0.028-0.168l-0.168-0.112l-0.168,0.112l-0.056,0.14l0.056,0.196l-0.224-0.168l-0.364,0.084l-0.084-0.168l0.084-0.168l0.28,0.084
		l0.308-0.056l0.168-0.084l0.252-0.028l-0.084-0.281h-0.42l-0.028-0.168l0.42-0.112l0.224-0.028v0.224l0.168,0.281l0.197-0.477
		l-0.253-0.672l-0.14-0.196l-0.084-0.224L55.385,34.308z M53.452,34.336l0.168,0.056l0.028-0.112l0.14-0.056l-0.028,0.14
		l-0.168,0.056l-0.112,0.084l-0.112-0.084L53.452,34.336z M54.825,34.168l0.028,0.112l-0.168,0.084l-0.14-0.196H54.825z
		 M46.196,34.756l-0.225-0.448l0.281-0.14v0.14l0.084,0.252l0.14-0.252h0.392l0.308,0.336l0.308-0.084h0.281v0.28l-0.449-0.028
		l-0.392,0.336l-0.42,0.028l0.056-0.308L46.196,34.756z M49.474,34.364l-0.196,0.14l-0.337-0.14v-0.225l0.365,0.029L49.474,34.364z
		 M53.004,34.336l-0.336,0.224l-0.252-0.224l0.364-0.281L53.004,34.336z M54.209,33.803v0.28l-0.112-0.168l-0.056-0.224
		L54.209,33.803z M55.441,33.663l0.393,0.224l0.28,0.196l0.14,0.141l-0.168-0.085l-0.364-0.056l-0.393-0.084L55.441,33.663z
		 M53.172,33.719l0.084,0.14h-0.308l-0.056-0.196L53.172,33.719z M46.98,41.984l-0.364-0.364l0.308-0.14l-0.644-0.224l-0.112,0.196
		l-0.253,0.14l-0.14-0.196l0.309-0.392l0.224-0.084l-0.449-0.084L46,40.471l-0.393-0.336l0.224-0.364l-0.196-0.448v-0.449
		l0.252-0.084l0.084-0.56l0.113-0.364l-0.197,0.112l-0.028-0.364L46,37.305l-0.253-0.112l0.084-0.196l0.253-0.028h0.168l0.252-0.14
		l0.14,0.14l0.084-0.308l-0.308-0.196l0.084-0.196l0.252,0.112l0.336-0.056l0.448,0.252l0.113,0.476l0.252-0.196l0.42-0.28
		l-0.392-0.168l-0.28-0.336H47.26l-0.336-0.028l0.084-0.168l0.056-0.197l-0.224-0.196l-0.14-0.028l0.084-0.056l0.112,0.084h0.252
		l0.28,0.281l0.309-0.309l0.196-0.112l-0.28-0.112l0.056-0.196l0.224,0.028l0.392,0.112l-0.056,0.364l-0.448,0.309l0.364,0.308
		l0.112-0.168l0.364-0.645l-0.196-0.56l-0.056,0.112l-0.084,0.056l-0.112-0.168l0.112-0.028l0.672,0.028l1.093-0.308l0.168,0.112
		l-0.112,0.028l-0.364,0.196l0.168,0.308l-0.196,0.028l-0.14,0.224l0.364,0.14l0.56-0.448l0.168-0.392l0.056-0.084l-0.028,0.084
		l0.113,0.168v0.392l0.56-0.308l0.448-0.476l0.168-0.14l-0.28-0.169l-0.028-0.196l0.14,0.084l0.196-0.084l0.252-0.364l0.309,0.252
		l-0.421,0.477l-0.476,0.476l-0.084,0.448l-0.196,0.252l-0.252,0.281l0.336,0.196l-0.028,0.112h-0.42l-0.056-0.449L50.482,35.4
		l-0.14,0.617l0.14,0.056l0.337-0.028l-0.113,0.392l-0.252,0.168l-0.168,0.028l0.056-0.14l0.224-0.168l-0.084-0.168l-0.308,0.14
		l-0.42,0.028l-0.112,0.084l0.112,0.028h-0.448l0.196,0.392h0.112l-0.084,0.028v0.196l-0.252,0.14l-0.141-0.028l0.085-0.084
		l-0.225-0.084l-0.168,0.28l0.449,0.169l-0.056,0.196l-0.253-0.028l0.028,0.28l0.589-0.224l0.364-0.421l-0.168-0.308l0.308-0.112
		h0.42l0.281-0.224l0.28,0.028l0.336-0.308l0.28,0.252l0.196,0.084l-0.028,0.14l-0.364-0.084l-0.644,0.336l-0.393,0.281
		l-0.084-0.225l-0.224,0.028l-0.028,0.365l-0.14,0.42l-0.392,0.224l0.224,0.308l-0.224,0.28H49.39v0.084l0.392,0.253l-0.112,0.504
		l0.112,0.028l-0.056,0.336l-0.392-0.028l-0.337,0.224l-0.392-0.028l-0.224,0.084v0.252l0.224,0.141l0.084-0.309l0.673,0.056
		l0.084,0.309l-0.252,0.056l0.028,0.252h-0.449l-0.392-0.056l-0.056,0.224l0.28,0.112l0.14,0.14l0.112,0.14l0.449-0.308l0.42-0.392
		h0.14l0.224,0.196l0.14,0.644l0.14,0.336l0.112,0.084l-0.14,0.085l-0.084-0.113l-0.224-0.112l0.056-0.476L50.006,41.2l-0.448-0.028
		l-0.252,0.42l-0.645,0.224l-0.476-0.056l0.084-0.336l-0.616-0.168l-0.281,0.448l-0.056,0.589l0.224,0.364l-0.336-0.028
		L46.98,41.984z M47.456,34.224l-0.168-0.281l-0.224-0.14l-0.224-0.196l-0.028-0.028l0.056,0.028l0.252-0.056l0.308,0.084
		l0.056,0.364l0.225-0.056l0.028-0.168l0.084-0.14l0.224,0.168l-0.112,0.393L47.456,34.224z M46.42,33.971l0.056-0.308l0.224-0.112
		h0.028l-0.056,0.112v0.308l-0.336,0.112L46.42,33.971z M46.504,33.103l-0.028,0.14l-0.056-0.084l-0.028-0.112L46.504,33.103z
		 M47.849,32.935l-0.084,0.224l-0.309,0.112l0.084-0.224L47.849,32.935z M46.84,33.075v-0.336h0.196l0.056,0.364L46.84,33.075z
		 M46.224,32.627l-0.056,0.084l-0.084,0.028l0.028,0.14l-0.056,0.14L46,32.823l0.112-0.196H46.224z M49.558,32.795l0.168-0.253
		l0.168,0.169l-0.168,0.196L49.558,32.795z M48.437,32.907l-0.112,0.028l-0.112-0.056l-0.112-0.14l-0.084-0.14l0.14-0.057
		l0.028,0.197l0.14,0.084L48.437,32.907z M50.762,33.439l0.393,0.252l-0.14,0.196l0.112,0.056l0.224-0.112l0.14,0.224h-0.196
		l-0.168,0.028l0.084,0.309l0.224,0.196h-0.42l-0.224-0.533l-0.393,0.169L50.09,34.28h-0.252v-0.141h0.224l0.196-0.168l0.14-0.112
		l-0.364-0.14l-0.392-0.168l-0.168-0.168h-0.309v0.252l0.113,0.084l0.056,0.112h0.196v0.14l-0.365,0.056l-0.28-0.252h-0.196
		l0.028-0.196l0.168-0.168l0.112,0.056l0.168-0.084l0.085-0.112l-0.253-0.476l-0.056-0.449l0.196-0.056h0.253v0.084l-0.196,0.112
		l0.14,0.421l0.14,0.364l0.308,0.112l0.084-0.196l0.224,0.028v0.364L50.762,33.439z M47.4,31.562h0.197l-0.029,0.112H47.4V31.562z
		 M45.971,31.45l0.113,0.168l-0.056,0.14l-0.141-0.056L45.971,31.45z M47.681,31.366l0.084-0.336l0.252,0.308L47.681,31.366z
		 M48.521,31.506l0.504,0.084l0.393-0.224l-0.14-0.224l-0.141,0.14l-0.084-0.112l0.169-0.225l0.252-0.14l0.112,0.421l-0.196,0.476
		l0.14,0.084l-0.336,0.252l-0.393-0.252h-0.308L48.521,31.506z M46.784,30.833l0.28-0.084l0.056-0.14l0.196-0.14l0.028,0.224
		l-0.28,0.112l-0.224,0.14h-0.168L46.784,30.833z M46.952,30.161l0.084,0.252L46.7,30.441l-0.028-0.168L46.952,30.161z
		 M49.194,30.273l-0.197-0.028l-0.056-0.168l0.14,0.028L49.194,30.273z M50.062,30.133l-0.028-0.14l0.14,0.028l0.028,0.14
		L50.062,30.133z M48.045,29.909v-0.168l0.14,0.028l0.028,0.168L48.045,29.909z M46,29.797l0.084-0.056l0.252,0.28l-0.28,0.196
		l0.112-0.196L46,29.797z M52.612,29.433l-0.281,0.196l-0.224-0.196l0.309-0.056L52.612,29.433z M49.109,29.433l-0.14-0.028
		l0.112-0.056h0.141L49.109,29.433z M54.265,29.629l-0.196-0.084l-0.028-0.225l0.168,0.085L54.265,29.629z M53.62,29.04l0.084,0.14
		l-0.028,0.14l-0.168-0.168L53.62,29.04z M50.791,29.853H50.23l-0.42-0.14l-0.084-0.084l-0.168,0.084v-0.168l0.14,0.056l0.28-0.168
		v-0.197l0.084-0.392l0.308,0.196l-0.112,0.252l-0.14,0.225l0.28,0.168l0.393-0.084V29.853z M48.717,28.872l-0.14,0.168
		l-0.084-0.196L48.717,28.872z M51.239,28.62l-0.252,0.308l0.056,0.28l0.056,0.141l0.196-0.113l0.14-0.252l-0.028,0.084l0.056,0.168
		l-0.224,0.225l-0.14-0.028l-0.168-0.197l-0.253-0.196l-0.112-0.28l0.028-0.224l0.168,0.084l0.225,0.056L51.239,28.62z
		 M53.872,28.452l0.253,0.028l-0.141,0.168l-0.196-0.056L53.872,28.452z M46.336,28.536l-0.028,0.112l-0.056-0.084l-0.056-0.112
		L46.336,28.536z M48.745,28.592l0.168-0.112l0.168-0.056l-0.112,0.168H48.745z M53.284,28.368l-0.168-0.028l0.112-0.224
		l0.224,0.084L53.284,28.368z M52.135,27.976l0.14,0.168h-0.196l-0.112-0.168H52.135z M51.519,27.667l0.196-0.028l-0.112,0.141
		l-0.14,0.028L51.519,27.667z M49.754,27.695l0.168-0.112h0.112l-0.056,0.084l-0.196,0.056l-0.028,0.169l0.504-0.169l0.476-0.224
		l0.057,0.14l-0.505,0.281l-0.168,0.532h-0.084l-0.056-0.364h-0.392l-0.112-0.28L49.754,27.695z M46.952,27.247l0.056,0.14
		l-0.168,0.056l-0.056-0.196H46.952z M53.116,27.191l0.252-0.056l0.112,0.14l-0.14,0.084l-0.196-0.112l-0.196,0.028L53.116,27.191z
		 M48.661,27.247l0.14,0.056l0.112,0.084l0.196,0.056l0.056-0.196l0.141-0.112l0.084,0.224l-0.112,0.28l-0.169-0.084l-0.196-0.168
		l-0.252-0.028V27.247z M50.706,27.107l0.113,0.084v0.084l-0.169-0.056L50.706,27.107z M49.726,27.079h0.084l0.14-0.168l0.196,0.028
		l-0.168,0.196h-0.392L49.726,27.079z M45.915,26.939l0.197-0.056l-0.028,0.224l-0.169,0.084V26.939z M47.428,27.023l0.112-0.14
		l0.113-0.028l0.112,0.056l0.084-0.084l0.252,0.14l0.112,0.252l-0.364-0.056l-0.252-0.224l-0.029,0.168l-0.14,0.084V27.023z
		 M51.239,26.267v0.168l0.028,0.14l-0.084,0.084l0.056-0.084l-0.14-0.28L51.239,26.267z M57.767,41.872l-0.364-0.56l-0.841-0.28
		l-3.698-0.056l-0.533,0.084l-0.616-0.056l-0.616,0.056l-0.589-0.336l-0.252-0.869l0.028-1.373l0.252-0.588l0.505-0.308h1.092
		l0.561-0.056l1.485,0.084l0.756-0.056l0.588,0.056l0.505-0.028l0.56-0.309l0.28-0.532l0.056-2.213l-0.056-0.561l-0.252-0.532
		l-0.476-0.308l-1.121-0.028l-0.56,0.056h-0.589l-0.644-0.056l-2.213,0.028l-0.477-0.308l-0.336-0.505l-0.056-0.868l0.28-0.813
		l0.869-0.252l5.379-0.028l0.589-0.308l0.308-0.504l-0.056-1.149l-0.084-0.532l0.028-0.617l0.084-0.532l-0.28-0.56l-0.589-0.253
		l-2.241-0.028l-0.505,0.056l-0.56-0.084l-1.233,0.056l-0.56-0.056l-1.093,0.028l-0.504-0.056l-3.67,0.084l-0.813,0.196l-0.28,0.617
		l0.056,1.121l-0.112,0.812l0.112,1.429l-0.056,0.588l0.056,0.505v5.015l-0.084,0.588l0.084,1.093l-0.056,1.121l0.084,0.588
		l-0.056,0.616l0.028,0.533l-0.084,0.504l0.056,0.644v0.561l0.056,1.092l-0.028,0.561l-0.112,0.56l0.364,0.532l0.533,0.309
		l6.332-0.056l0.504,0.084l1.709-0.084l1.709,0.112l0.532-0.056l0.589-0.281l0.252-0.532l0.056-0.532l-0.028-1.737L57.767,41.872z
		 M34.63,44.31l-0.196-0.028l-0.28,0.056l-0.252-0.056l-0.252,0.252l0.308,0.168l0.224-0.028l-0.028-0.224l0.28,0.056l-0.112,0.14
		l0.505,0.084l-0.197-0.224V44.31z M36.704,44.226l-0.112-0.112l-0.084,0.084l0.056,0.112l0.168,0.168l0.14,0.028l0.336-0.056
		l-0.14-0.14L36.704,44.226z M31.016,44.17l-0.084,0.14l-0.252,0.14h0.336l0.42-0.168l-0.084-0.168L31.016,44.17z M37.264,44.59
		l-0.392,0.112l-0.112-0.028l-0.084-0.14h-0.168l-0.14-0.168l0.112-0.252l0.056-0.28l0.14,0.056l0.392,0.28l0.252,0.084
		L37.264,44.59z M37.908,43.806l-0.252,0.14l-0.028-0.168l0.056,0.112l0.14-0.169l0.169-0.112L37.908,43.806z M29.811,43.806
		l0.112,0.084v-0.281l-0.224-0.056L29.811,43.806z M34.014,44.002l0.168,0.112l0.224-0.112l0.14-0.14l-0.224-0.084l0.028-0.169
		l-0.168-0.252l-0.224,0.14l0.196,0.253L34.014,44.002z M39.057,43.637l-0.196-0.084l-0.308,0.14l-0.308-0.224l0.196-0.056
		l-0.056-0.112l0.112,0.084l-0.14,0.112l0.168,0.056l0.336-0.084l0.336,0.14L39.057,43.637z M29.699,43.385l-0.112-0.056
		l-0.252-0.028l-0.112,0.168v0.028l0.224-0.084L29.699,43.385z M32.501,43.273l0.224,0.336l0.084-0.056v-0.112l-0.056-0.112
		L32.501,43.273z M37.152,43.834l0.056,0.112l-0.112-0.14l-0.14-0.337l-0.224,0.252l-0.168-0.28l0.084-0.224l0.392,0.196
		L37.152,43.834z M35.611,43.497l-0.14-0.14l-0.168,0.028l-0.168,0.14l-0.392-0.028l-0.141-0.28l-0.168,0.112l0.196,0.28
		l0.589,0.197l0.28-0.225L35.611,43.497z M31.464,43.665l0.113-0.112l-0.057-0.252l-0.112-0.14L31.1,43.385l0.252,0.421l0.365,0.42
		h0.168l0.084-0.14v-0.14l-0.196-0.309L31.464,43.665z M32.949,43.105l0.281,0.112l0.252,0.028l0.084-0.084l-0.28-0.112
		L32.949,43.105z M37.432,43.273l-0.14,0.14l0.084,0.308l-0.196-0.308v-0.392l0.252,0.056V43.273z M36.536,42.825l0.056,0.14
		l-0.168-0.084v0.168l-0.113,0.056v-0.336l0.113-0.112L36.536,42.825z M36.003,42.573l0.14,0.056v0.28l-0.196-0.056L36.003,42.573z
		 M39.982,42.853l-0.224-0.252l-0.253,0.028l0.085-0.056l0.196-0.028l0.252,0.14L39.982,42.853z M29.195,42.573l-0.14-0.056
		l-0.056,0.196l0.28,0.084l0.028-0.168h-0.168L29.195,42.573z M33.117,42.825h0.365l-0.196-0.28l-0.225-0.084v0.196l0.253,0.084
		L33.117,42.825z M31.296,42.517l-0.28-0.056l0.168,0.196L31.296,42.517z M38.917,42.461l0.084,0.112l-0.028,0.028l-0.168-0.028
		l-0.168-0.084l0.056-0.14L38.917,42.461z M30.204,43.357l0.14-0.224l0.252,0.112l-0.028-0.252l0.112-0.056l-0.252-0.028
		l-0.112-0.28h0.112l0.056-0.28l-0.42-0.056l0.112,0.336l-0.084,0.224l-0.112,0.084l-0.281-0.056l-0.084,0.14l0.112,0.168
		l-0.028,0.084l0.561,0.28l0.308,0.477l0.084-0.196l-0.14-0.253L30.204,43.357z M39.141,42.461l-0.112,0.084l0.028-0.084
		l-0.112-0.196l-0.14-0.056l0.028-0.113l0.168,0.113l0.252,0.028l0.056,0.168L39.141,42.461z M36.424,42.405l0.252-0.196
		l0.112-0.169l0.196,0.113l-0.056,0.14l-0.14,0.14l-0.084-0.14l-0.168,0.252L36.424,42.405z M35.163,42.293h0.196l-0.252-0.281
		h-0.28l0.14,0.141L35.163,42.293z M30.54,41.9l0.112,0.168l0.056,0.253l0.28,0.084L30.876,41.9H30.54z M29.083,41.788l-0.14,0.084
		l0.056,0.168h0.196L29.083,41.788z M34.911,42.209l-0.14-0.197l-0.028-0.224L34.63,41.62l-0.028,0.168l-0.056,0.393l0.337,0.364
		v-0.028l0.028,0.028l0.14-0.112L34.911,42.209z M31.24,42.349l0.337,0.056l0.14-0.224l-0.084-0.393l-0.225-0.224l-0.112,0.252
		l-0.056,0.196l0.056,0.112l-0.084,0.085L31.24,42.349z M33.37,41.648l0.224-0.056l0.252-0.056l-0.056,0.196l0.14,0.028h0.364
		l0.14,0.084l0.056-0.112l0.14-0.14l0.393,0.168l0.644-0.028l-0.056,0.252l0.084,0.169h0.224v0.196l-0.252-0.028l-0.112-0.14
		l-0.168,0.308l0.168,0.224l0.196-0.112l-0.056,0.224l-0.28,0.112l0.028-0.168l-0.112-0.196l-0.168-0.084l-0.196,0.112l-0.056-0.056
		h-0.028l-0.028,0.168l-0.197,0.168l-0.028-0.196l-0.056-0.196l-0.196-0.533L34.042,41.9l-0.308-0.168l-0.028,0.252l-0.28,0.112
		l-0.224-0.252L33.37,41.648z M37.488,41.508v0.364l0.252,0.365l0.14,0.14l-0.14,0.112l-0.084-0.196l-0.252-0.225l-0.252-0.28
		l0.112-0.14L37.488,41.508z M39.253,41.452l-0.112,0.336l-0.196-0.196L39.253,41.452z M32.249,41.592l-0.168-0.252l-0.28,0.112
		l-0.056,0.336l0.196-0.14L32.249,41.592z M38.469,41.312l0.112,0.168l0.14,0.14l-0.168,0.056l-0.084-0.084l-0.168-0.112
		l-0.056-0.168H38.469z M29.98,42.096l0.308-0.28l0.224-0.028v-0.14l0.42,0.056l-0.084-0.224l-0.28-0.028l-0.336-0.14l-0.28,0.252
		l0.056,0.252L29.98,42.096z M36.48,41.508l0.504-0.336l0.056,0.224l-0.112-0.084l-0.14,0.28l-0.196,0.168l-0.224,0.477l0.056,0.14
		l-0.197-0.253L36.48,41.508z M37.824,41.06l-0.14,0.252l-0.14,0.028L37.824,41.06z M37.965,41.228l0.252-0.112l-0.084-0.084
		l0.112,0.084l-0.252,0.252L37.965,41.228z M29.475,41.62l0.308-0.224l0.056-0.112l-0.224-0.056l-0.196-0.224l-0.056-0.112
		l-0.168-0.056l-0.112,0.168L29.027,41.2l0.224-0.056l0.14,0.112v0.168l-0.196,0.084l0.056-0.112l-0.336,0.112l-0.14-0.084
		l-0.028-0.28l-0.224,0.196l-0.253,0.084l0.169,0.084l0.28,0.196l0.112,0.084l0.14-0.084l0.112,0.084l0.112-0.112L29.475,41.62z
		 M40.122,40.724l-0.084,0.112l-0.028,0.196l-0.112-0.056l0.14-0.14l-0.112-0.196l0.364,0.028L40.122,40.724z M29.867,40.836
		l-0.168-0.224l-0.112,0.14l0.252,0.196L29.867,40.836z M38.609,40.415h0.14l0.112,0.028l0.14,0.141l-0.168,0.224l-0.28,0.112
		l-0.252-0.084l0.056-0.168l0.168,0.112l0.056,0.056l0.112-0.112L38.609,40.415z M28.747,40.415l0.112-0.056l-0.168-0.112
		l-0.365,0.421l-0.532-0.056l-0.112,0.224l0.336-0.112l0.196,0.112l0.589-0.056l0.084-0.168l-0.196-0.028L28.747,40.415z
		 M35.611,44.338l0.392,0.028l0.056,0.084l0.084,0.28l-0.168,0.224l-0.168,0.14l-0.112-0.084l0.196-0.196l0.168-0.252h-0.28
		l-0.056-0.112l-0.168,0.168l-0.084-0.168l-0.336-0.14l-0.112-0.28l-0.084,0.084l-0.14,0.028l-0.169-0.14l0.028,0.196l0.673,0.56
		l-0.056,0.056l-0.14,0.084l-0.14,0.308l-0.252,0.028l0.112-0.14l0.056-0.252l-0.168,0.112l-0.281-0.056l-0.14,0.196l-0.028,0.253
		l-0.28-0.113l-0.476,0.056l-0.084-0.084l0.196-0.112v-0.14h-0.392l-0.084,0.252l-0.197-0.028l0.056-0.28l-0.14-0.14l-0.084,0.224
		l-0.14,0.168l-0.364,0.056l-0.112-0.168l0.028-0.336l0.28-0.112l-0.308-0.084l-0.336,0.42v-0.224l-0.505,0.084l0.056-0.224
		l-0.336-0.028l-0.056,0.196l0.112,0.028l-0.112,0.056l-0.392-0.364h-0.336l-0.308-0.448l-0.169,0.084l0.084,0.112l0.057,0.168
		l-0.141-0.112l-0.056-0.14l-0.084-0.084l-0.14-0.028l-0.308-0.14v-0.365h-0.028l0.028-0.028l-0.084-0.028l-0.084,0.084
		l-0.112,0.309l-0.196-0.253l-0.14-0.028l-0.309-0.308l0.281-0.504l0.14,0.196l0.14-0.224l-0.308-0.168l0.364-0.196l0.084-0.309
		l-0.112-0.112l-0.14-0.112l-0.056,0.224l-0.084,0.253l-0.224,0.112l-0.141,0.056l-0.224,0.14l-0.14,0.028l0.056-0.224l0.224-0.112
		l-0.084-0.084v-0.225l0.084-0.14l-0.28,0.056l-0.224,0.14h0.224l0.056,0.141h-0.168l-0.056-0.113l-0.168,0.085l-0.14-0.253v-0.168
		l-0.196,0.084v-0.28l0.196-0.14l-0.168-0.224l0.224-0.196l0.056-0.14l-0.28-0.28l0.168-0.421l-0.14-0.196v-0.112l0.448-0.028v0.224
		l0.168-0.056l0.224-0.252l0.309-0.028l0.028,0.252l0.308-0.224l0.252,0.308l-0.14,0.168l0.196,0.056l0.224,0.084l-0.084-0.252
		l-0.14-0.224l0.14-0.168l0.056,0.056l0.616,0.644v-0.112l0.113-0.364l0.336,0.084l-0.252,0.084l0.056,0.252l0.252,0.028
		l0.084,0.253l-0.224,0.224l-0.196-0.056l0.252,0.252l0.308,0.028l0.084-0.168l-0.14-0.14l0.252-0.084l0.112-0.112l0.028-0.085
		l0.056,0.169l-0.084,0.14l0.112,0.168L30.82,41.06l-0.224,0.112l-0.14,0.112l0.224,0.056l0.168,0.056l0.168-0.252l0.112-0.14
		l0.056-0.28l0.393,0.084l0.336,0.336l0.336,0.196l0.14,0.168v0.252l-0.196,0.168l-0.14-0.028l-0.112,0.281l-0.084,0.336l0.42-0.056
		l-0.168,0.168l0.168,0.168l0.252-0.168l0.084-0.168l-0.112-0.168l-0.168-0.056l0.028-0.169l0.308-0.112l-0.084-0.224l0.336,0.028
		l0.309,0.364l0.224,0.169l0.364,0.196l-0.14,0.084v0.056l0.084-0.028l-0.14,0.112l0.252,0.056l0.14-0.308l0.14-0.056l-0.028,0.112
		l0.224,0.28l0.028,0.364l0.224-0.112l0.337,0.168l0.112,0.224l0.308-0.336l0.056-0.14l0.112,0.224l0.168,0.084l0.476,0.112
		l0.112,0.224l0.113-0.056l0.028,0.197l-0.253,0.056l-0.504-0.281l-0.14,0.225l0.084,0.14l-0.14,0.112l0.252,0.028l0.28-0.196
		l0.252,0.252l-0.14-0.028l-0.168-0.056l-0.14,0.196h-0.392L35.611,44.338z M39.169,39.911l-0.168,0.28l-0.224-0.28l-0.308-0.028
		l-0.14-0.084l-0.028,0.112l-0.14,0.056l0.084-0.224l0.42-0.084l-0.056-0.308l-0.028-0.14l0.728,0.588L39.169,39.911z
		 M37.768,39.015l-0.084,0.084l-0.028-0.084l-0.168-0.169H37.6l0.196,0.085l0.112,0.168L37.768,39.015z M37.376,38.37h0.252
		l-0.056,0.196l0.168-0.028l-0.084,0.14l-0.336-0.084L37.376,38.37z M38.665,37.614l0.224,0.056v0.14h-0.308L38.665,37.614z
		 M39.87,37.474l0.168,0.168l0.084-0.084l0.14-0.028l-0.084,0.084l-0.364,0.14l-0.056-0.168L39.87,37.474z M36.648,37.193
		l-0.056,0.084l-0.056,0.253l-0.112,0.112l-0.028,0.196l-0.141-0.112l0.169-0.14v-0.112l-0.085-0.056l0.057-0.197l0.252-0.168
		l0.112,0.14H36.648z M36.087,37.025l0.196-0.196l0.113,0.196l-0.113,0.112l-0.252,0.084L36.087,37.025z M37.012,36.969
		l-0.168-0.028l0.14-0.14l0.168-0.112L37.012,36.969z M31.941,36.577l-0.084,0.224l-0.112-0.28l0.28-0.112L31.941,36.577z
		 M31.605,36.577l-0.225,0.084l-0.14,0.028l-0.056,0.112l-0.112,0.112l0.448-0.028l0.085,0.168l-0.337,0.084l-0.252-0.252
		l0.448-0.448l0.225-0.056L31.605,36.577z M32.809,36.409l-0.084,0.168l0.028,0.252l-0.168-0.056l-0.084-0.224l0.14-0.252
		l0.168-0.084V36.409z M36.592,36.381l-0.224-0.14l0.196-0.112L36.592,36.381l0.084-0.14h0.112l0.028,0.14H36.592z M33.454,36.241
		v-0.112l0.14,0.168L33.454,36.241z M35.471,36.577l-0.112-0.028l0.028-0.28l0.168-0.196l-0.056,0.364l0.168,0.14H35.471z
		 M34.827,36.325l-0.113,0.112l-0.084-0.14l-0.14-0.252v-0.28l0.224,0.168l-0.14,0.168l0.505-0.056l0.056,0.224L34.827,36.325z
		 M34.238,35.736l-0.224,0.197l-0.28-0.225l0.168-0.196l0.336,0.028l0.084,0.112L34.238,35.736z M36.928,35.765l-0.14-0.141
		l0.028-0.14l0.056,0.112L36.928,35.765z M33.426,35.793l-0.084-0.141l0.084-0.168l0.224,0.168L33.426,35.793z M32.081,35.933
		l0.14,0.224l-0.14-0.056l-0.392-0.308l0.14-0.225l0.028-0.196l0.392,0.084l0.084,0.365l-0.14-0.169l-0.168,0.028L32.081,35.933z
		 M36.031,35.316l0.252,0.084l0.141,0.196l-0.028,0.084l-0.169,0.085l-0.056-0.281l-0.28-0.112l-0.028-0.168L36.031,35.316z
		 M37.376,35.316l0.112-0.168l0.056,0.14l0.168,0.112l0.14,0.056l-0.084,0.14l-0.14-0.084l-0.028,0.14l-0.28,0.225l0.084-0.337
		l0.14-0.112L37.376,35.316z M36.76,35.092l0.28,0.14l-0.084,0.224l-0.308-0.196l-0.112-0.028L36.76,35.092z M35.415,35.736
		l-0.392-0.56l0.364-0.14l0.112,0.224l-0.14,0.028l0.224,0.224l0.252,0.309l0.196,0.196l-0.252-0.112L35.415,35.736z M32.053,34.84
		l-0.084,0.224l-0.42-0.168l-0.197-0.252l0.337,0.056L32.053,34.84z M35.051,34.476v0.112l0.112,0.112l0.168,0.112l-0.112,0.056
		l-0.084,0.084l-0.112-0.14l-0.14-0.224L35.051,34.476z M30.736,36.633l-0.028-0.364l-0.392-0.084l0.056,0.336l-0.168,0.028
		l-0.112,0.084v-0.28l0.14-0.084l-0.224-0.224l-0.028-0.252l-0.113-0.197l-0.028-0.14l-0.14-0.084l-0.084,0.084l-0.14,0.196
		l0.112,0.056l0.028,0.141l-0.252,0.056l0.028,0.14l0.056,0.196l-0.252-0.224v-0.196l0.196-0.028V35.4l0.252-0.42l0.224,0.084
		l-0.084-0.28l-0.588-0.028v0.252l-0.056,0.364l-0.336,0.084l-0.168-0.196l0.168,0.14l0.112-0.168l0.196-0.336l0.056-0.392
		l0.252-0.168l-0.112,0.168l0.112,0.14l0.168-0.028l-0.084-0.084l0.168-0.168h0.168l-0.14,0.112l-0.112,0.028l0.449,0.196
		l0.504,0.196l0.084,0.42l0.112,0.112l-0.112,0.337l-0.168-0.169l0.14-0.168l-0.028-0.084l-0.14-0.168l-0.42,0.028l-0.197,0.168
		l0.056,0.028l0.337,0.028l-0.028,0.449l0.504,0.028l0.252-0.617l0.084,0.477l0.112,0.252l0.14-0.056l0.14,0.14l0.421,0.028
		l-0.196,0.112L31.1,36.269l-0.084,0.196l-0.056,0.252L30.736,36.633z M33.202,35.54l-0.197,0.112v0.169l0.225,0.028l0.196,0.224
		l-0.196-0.084l-0.505-0.056l0.084-0.112v-0.169l0.056-0.084l0.084,0.14l0.084-0.084v-0.14l-0.14-0.084l-0.112-0.28l0.393,0.252
		l0.252-0.112l0.252-0.308l-0.224-0.196l0.028-0.196l-0.084-0.224l0.28,0.056l0.336,0.308l-0.112,0.168l-0.112-0.056l-0.084,0.392
		L33.202,35.54z M30.372,34.252l0.084,0.28l-0.252-0.196L30.372,34.252z M28.607,34.7l-0.084-0.168l-0.056,0.196l-0.253,0.14
		l-0.168,0.056l0.056,0.112l0.224,0.196L28.214,35.4l-0.168-0.224l-0.084-0.308l-0.28-0.14l0.112,0.028l0.252-0.224v-0.168
		l0.112-0.112l0.028,0.252l-0.112,0.112l0.224-0.056l0.421-0.056l0.028,0.14L28.607,34.7z M32.445,34.027l0.084,0.141l-0.224,0.168
		l-0.112-0.14L32.445,34.027z M29.923,33.915l-0.14,0.224l-0.28,0.113l0.056-0.056l0.112-0.309L29.923,33.915z M30.176,33.887
		l0.028-0.168h0.112l0.056,0.224l0.056,0.168l-0.168-0.028L30.176,33.887z M28.242,33.663l0.281,0.084l-0.056,0.14l0.056,0.281
		l0.224-0.141v0.197l-0.28,0.056l-0.084-0.337l-0.057-0.196l-0.196,0.196l-0.084-0.168L28.242,33.663z M29.531,32.486l-0.084,0.113
		l-0.14,0.112l-0.112,0.28l0.168,0.056l0.252-0.14v-0.056h0.028l-0.056-0.196L29.531,32.486z M31.633,33.775l0.224-0.084
		l0.056,0.448l-0.421,0.393l-0.224-0.168L31.1,34.476l-0.14,0.252l-0.196-0.14l-0.084-0.196l0.308-0.112h0.196l0.224-0.309
		l-0.392-0.168l-0.364,0.112l-0.14-0.14l0.308,0.028l0.196-0.056v-0.14H30.68l-0.14-0.056l-0.308-0.168l-0.056-0.252l-0.084,0.392
		l-0.253,0.084l-0.224,0.056l0.028-0.336l0.393-0.336l0.476-0.14v-0.252l-0.14-0.085l0.112-0.084l0.336,0.365v0.308l0.112-0.056
		l0.084-0.392l0.112,0.14l0.28,0.196l-0.336-0.056l-0.056,0.112v0.168l-0.224,0.056l-0.112,0.224l-0.112,0.056l0.112,0.056
		l0.14-0.14l0.196,0.084l0.224,0.14L31.633,33.775z M28.13,32.683l0.253-0.169l0.028-0.168l0.14,0.14l-0.168,0.253l-0.281,0.084
		L28.13,32.683z M27.262,32.571l0.056-0.337l0.084-0.056h0.112L27.43,32.43l-0.028,0.112l0.168,0.029l0.14,0.196l-0.168,0.028
		L27.262,32.571z M27.71,31.73l0.168-0.14l0.14,0.14l-0.14,0.084l-0.112,0.084l-0.14-0.112L27.71,31.73z M29.195,31.562l-0.14-0.112
		l0.14-0.112l0.028,0.14L29.195,31.562z M28.999,31.394l-0.14-0.112l0.112,0.084L28.999,31.394z M29.531,31.31v-0.421l0.168-0.168
		l-0.112,0.168l0.168,0.169l0.197,0.028l-0.505,0.672l-0.084-0.084L29.531,31.31z M29.139,32.935l0.168-0.28l0.056-0.141l0.14-0.336
		l0.533-0.644l0.616-0.504v-0.309l0.308-0.084l-0.084,0.308l0.084,0.225l-0.168-0.056L30.68,31.17l0.14,0.112l0.168,0.28
		l-0.14,0.224h0.168l-0.084,0.14l-0.252-0.42l-0.084,0.084l-0.252,0.028l0.448,0.28l-0.056,0.168l0.028-0.14l-0.14-0.056
		l-0.028,0.168l-0.14,0.084l-0.308-0.252l-0.337,0.14l0.056,0.168l-0.196,0.393l0.056,0.224l-0.084,0.056v0.028l-0.028,0.028
		l-0.028,0.14l-0.056,0.168l-0.196-0.056l-0.196-0.112h-0.364l0.196-0.28l-0.224-0.281l0.112-0.14h0.336V32.15l0.112,0.028
		l-0.084,0.196l-0.14,0.112L29.139,32.935z M30.204,30.553l0.224-0.056L30.4,30.945l-0.252,0.197l0.028-0.253l0.056-0.28
		L30.204,30.553z M27.85,30.469l-0.084,0.084l-0.084-0.14l0.056-0.084v0.056L27.85,30.469z M29.587,30.301l0.28-0.112l0.225-0.028
		l0.14,0.224l-0.028,0.168l-0.056-0.14l-0.056-0.168l-0.112,0.196l-0.141,0.196l-0.252-0.14l0.252,0.056l0.056-0.14L29.587,30.301z
		 M30.876,30.189l0.112-0.196v0.112l0.084,0.028l0.112,0.056H30.876z M27.654,29.909l0.084,0.084v0.168l-0.112-0.14L27.654,29.909z
		 M31.38,29.741l0.365,0.084l0.112,0.252l-0.168-0.056l-0.225,0.028l-0.112-0.084L31.38,29.741z M30.456,30.301l-0.392-0.448
		l0.196-0.14l0.252,0.084l0.168-0.112l-0.028,0.252l-0.28,0.112L30.456,30.301z M38.917,29.489l0.112-0.084v0.196l-0.112,0.084
		V29.489z M30.428,29.349l-0.084-0.113l0.28-0.028L30.428,29.349z M29.195,29.18v0.449l-0.084-0.224l-0.056-0.141L29.195,29.18z
		 M28.859,29.068l-0.14,0.056l0.112-0.112L28.859,29.068z M31.577,28.956l-0.113,0.056l-0.056-0.168L31.577,28.956z M34.911,28.816
		l0.084,0.084l0.056,0.224l-0.196-0.196L34.911,28.816z M29.98,28.76l0.112,0.112l0.084,0.224l-0.084,0.056l-0.169,0.14l0.169,0.085
		l-0.028,0.14l-0.141-0.225l0.113-0.28h-0.169L29.839,28.9L29.98,28.76z M32.697,28.872l0.196-0.196l0.028,0.14l-0.084-0.084
		L32.753,28.9l0.168,0.056l0.196,0.224l-0.224-0.028l-0.224-0.14L32.697,28.872z M28.691,28.62l0.056,0.112l0.084,0.224l-0.14-0.028
		l-0.112-0.196L28.691,28.62z M31.016,28.564l0.112-0.14h0.028l-0.14,0.224l-0.252-0.084l-0.028-0.196l0.14,0.084L31.016,28.564z
		 M38.133,28.508l0.112-0.308l0.196-0.028l-0.308,0.476l-0.084-0.224L38.133,28.508z M30.82,28.172l-0.112,0.112l-0.028-0.252
		L30.82,28.172z M31.801,27.948h0.224l0.112,0.14l-0.28,0.168l-0.028-0.252l-0.112,0.112l-0.084-0.084L31.801,27.948z
		 M34.518,27.808l0.084,0.112l-0.084,0.224l0.084,0.056l-0.224-0.028l-0.112-0.196L34.518,27.808z M30.232,27.808L30.4,27.92
		l0.168-0.056L30.4,27.976l-0.028,0.196l-0.084,0.168l-0.056-0.168l-0.112-0.196l-0.056-0.168H30.232z M32.221,27.471l0.028,0.196
		l-0.28,0.028l-0.084-0.14L32.221,27.471z M35.303,27.471l0.056,0.14l-0.112-0.028l-0.084-0.168L35.303,27.471z M36.732,27.359
		l0.364-0.056l-0.224,0.112l0.112,0.14l-0.14,0.084l-0.084-0.168l-0.196,0.028L36.732,27.359z M33.146,27.471l0.112-0.196
		l0.084,0.084l-0.309,0.224L33.146,27.471z M41.943,38.146l-0.14-0.532l-0.56-1.037l-0.673-0.869l-0.476-0.392l-1.485-0.672
		l-2.298-0.561l-2.829-0.364l-1.177-0.42l-0.42-0.224l-0.449-0.448l-0.028-0.757l0.084-0.728l0.309-0.393l0.476-0.364l0.392-0.168
		l0.505-0.112l1.793-0.056l0.616,0.224l0.42,0.336l0.925,0.981l0.868,0.28l1.85,0.056l0.504-0.056l0.532,0.056l0.533-0.336
		l0.252-0.532l-0.224-1.093l-0.449-1.009l-0.364-0.448l-0.28-0.448l-0.364-0.421l-1.793-1.232l-1.541-0.533l-0.589-0.112
		l-0.504-0.056l-0.616-0.14l-1.569,0.028l-2.214,0.448l-0.504,0.197l-0.448,0.28l-0.449,0.168l-0.56,0.336l-0.392,0.364
		l-0.505,0.336L27.794,28.2l-0.364,0.364l-0.196,0.504l-0.28,0.449l-0.393,1.625l0.028,1.877l0.197,0.784l0.364,0.981l0.7,0.924
		l0.785,0.729l0.98,0.588l1.597,0.533l1.009,0.224l2.297,0.168l0.505,0.084l0.56,0.028l1.009,0.42l0.392,0.336l0.14,0.729
		l-0.168,0.728l-0.448,0.393l-0.449,0.252l-1.036,0.308l-0.785,0.028l-0.84-0.056l-0.645-0.168l-0.42-0.196l-0.504-0.309
		l-0.421-0.392l-0.42-0.56l-0.56-0.224l-2.13-0.056l-0.56,0.056l-0.56-0.028l-0.561,0.252l-0.196,0.588l0.056,0.617l0.112,0.504
		l0.449,1.121l0.7,0.868l0.813,0.813l0.476,0.308l2.017,0.924l0.617,0.085l0.532,0.196l1.177,0.084l0.812,0.084l0.897-0.028
		l2.745-0.533l1.457-0.784l0.897-0.616l0.784-0.897l0.561-0.897l0.224-0.504l0.168-0.56l0.084-0.505l0.028-1.737L41.943,38.146z"/>
</g>
</svg>
