<?xml version="1.0" encoding="utf-8"?>
<!-- Generator: Adobe Illustrator 14.0.0, SVG Export Plug-In . SVG Version: 6.00 Build 43363)  -->
<!DOCTYPE svg PUBLIC "-//W3C//DTD SVG 1.1//EN" "http://www.w3.org/Graphics/SVG/1.1/DTD/svg11.dtd">
<svg version="1.1" id="Layer_1" xmlns="http://www.w3.org/2000/svg" xmlns:xlink="http://www.w3.org/1999/xlink" x="0px" y="0px"
	 width="71.843px" height="67.504px" viewBox="0 0 71.843 67.504" enable-background="new 0 0 71.843 67.504" xml:space="preserve">
<g>
	<g>
		<defs>
			<rect id="SVGID_1_" y="0.001" width="71.843" height="67.503"/>
		</defs>
		<clipPath id="SVGID_2_">
			<use xlink:href="#SVGID_1_"  overflow="visible"/>
		</clipPath>
		<path clip-path="url(#SVGID_2_)" fill="#FCB727" d="M70.375,33.751c0,18.644-15.108,33.753-33.753,33.753
			c-18.637,0-33.747-15.109-33.747-33.753C2.875,15.116,17.985,0,36.622,0C55.267,0,70.375,15.116,70.375,33.751"/>
		<path clip-path="url(#SVGID_2_)" fill="#FFFFFF" d="M18.024,27.465c0.178-4.897,2.549-7.966,5.475-9.894
			c-0.137-0.005-0.271-0.021-0.41-0.021c-6.377,0-11.554,5.169-11.554,11.552c0,6.377,5.177,11.548,11.554,11.548
			c0.754,0,1.484-0.077,2.201-0.214C21.024,38.12,17.788,33.954,18.024,27.465"/>
		<path clip-path="url(#SVGID_2_)" fill="#0B0204" d="M34.638,29.104c0-6.242-4.95-11.313-11.138-11.531
			c-2.927,1.928-5.298,4.995-5.476,9.894c-0.239,6.486,3,10.655,7.266,12.969C30.615,39.411,34.638,34.728,34.638,29.104"/>
	</g>
	<g>
		<defs>
			<path id="SVGID_3_" d="M6.864,39.975c-1.045,4.922,3.51,10.106,10.171,11.565c6.665,1.456,12.915-1.365,13.962-6.291
				c1.048-4.923-3.51-10.102-10.174-11.561c-1.188-0.259-2.365-0.382-3.498-0.382C12.098,33.307,7.726,35.928,6.864,39.975"/>
		</defs>
		<clipPath id="SVGID_4_">
			<use xlink:href="#SVGID_3_"  overflow="visible"/>
		</clipPath>
		
			<radialGradient id="SVGID_5_" cx="-304.5527" cy="526.0908" r="1.2804" gradientTransform="matrix(8.3956 -1.1305 -0.9453 -6.7283 3073.1443 3238.0012)" gradientUnits="userSpaceOnUse">
			<stop  offset="0" style="stop-color:#F1653E"/>
			<stop  offset="0.2549" style="stop-color:#F37539"/>
			<stop  offset="0.753" style="stop-color:#F9A02E"/>
			<stop  offset="1" style="stop-color:#FCB727"/>
		</radialGradient>
		<polygon clip-path="url(#SVGID_4_)" fill="url(#SVGID_5_)" points="3.104,33.673 31.558,29.841 34.761,52.631 6.308,56.463 		"/>
	</g>
	<g>
		<defs>
			<rect id="SVGID_6_" y="0.001" width="71.843" height="67.503"/>
		</defs>
		<clipPath id="SVGID_7_">
			<use xlink:href="#SVGID_6_"  overflow="visible"/>
		</clipPath>
		<path clip-path="url(#SVGID_7_)" fill="#FFFFFF" d="M44.505,27.465c0.18-4.897,2.551-7.966,5.475-9.894
			c-0.135-0.005-0.271-0.021-0.406-0.021c-6.379,0-11.556,5.169-11.556,11.552c0,6.377,5.177,11.548,11.556,11.548
			c0.752,0,1.482-0.077,2.199-0.214C47.507,38.12,44.269,33.954,44.505,27.465"/>
		<path clip-path="url(#SVGID_7_)" fill="#0B0204" d="M61.12,29.104c0-6.242-4.951-11.313-11.139-11.531
			c-2.926,1.928-5.297,4.995-5.477,9.894c-0.237,6.486,3.004,10.655,7.268,12.969C57.098,39.411,61.12,34.728,61.12,29.104"/>
	</g>
	<g>
		<defs>
			<path id="SVGID_8_" d="M52.296,33.688c-6.666,1.459-11.221,6.638-10.178,11.561c1.049,4.926,7.299,7.747,13.966,6.291
				c6.659-1.459,11.211-6.644,10.171-11.565c-0.859-4.047-5.234-6.668-10.46-6.668C54.657,33.307,53.485,33.43,52.296,33.688"/>
		</defs>
		<clipPath id="SVGID_9_">
			<use xlink:href="#SVGID_8_"  overflow="visible"/>
		</clipPath>
		
			<radialGradient id="SVGID_10_" cx="-315.4761" cy="527.9258" r="1.2803" gradientTransform="matrix(-8.3956 -1.1305 0.9453 -6.7282 -3093.4656 3237.9978)" gradientUnits="userSpaceOnUse">
			<stop  offset="0" style="stop-color:#F1653E"/>
			<stop  offset="0.2549" style="stop-color:#F37539"/>
			<stop  offset="0.753" style="stop-color:#F9A02E"/>
			<stop  offset="1" style="stop-color:#FCB727"/>
		</radialGradient>
		<polygon clip-path="url(#SVGID_9_)" fill="url(#SVGID_10_)" points="70.011,33.673 41.562,29.841 38.36,52.631 66.809,56.461 		
			"/>
	</g>
	<rect y="0.001" fill="none" width="71.843" height="67.503"/>
	<path fill="#F89F29" d="M36.622,0c-1.077,0-2.152,0.063-3.207,0.165c17.138,1.617,30.547,16.028,30.547,33.586
		c0,17.557-13.409,31.977-30.547,33.589c1.055,0.103,2.13,0.164,3.207,0.164c18.646,0,33.753-15.109,33.753-33.753
		C70.375,15.117,55.268,0,36.622,0"/>
	<path fill="#0B0204" d="M41.868,45.808c0.002-0.021-0.014-0.058-0.049-0.063c0.011-0.021-0.039-0.04-0.027-0.059
		c0.008-0.014,0.025-0.021,0.038-0.031c0-0.009-0.005-0.024-0.007-0.04c0.021,0.007,0.045,0.022,0.052,0.016
		c0.027-0.021-0.08-0.052-0.045-0.063c0.005-0.003,0.018-0.014,0.018-0.014c0.005-0.063,0.093-0.083,0.09-0.153
		c-0.003-0.012,0.032-0.031,0.032-0.031c-0.035-0.049,0.025-0.051,0.037-0.073c-0.025-0.022-0.037-0.049-0.031-0.082
		c0.01-0.062,0.015-0.089,0.02-0.15C41.997,45.05,42,45.03,41.99,45.022c-0.032-0.03-0.021-0.063-0.018-0.097
		c0.003-0.041-0.143-0.104-0.147-0.147c-0.006-0.026-0.02-0.047-0.009-0.081c0.014-0.053,0.011-0.091,0.036-0.133l-0.075-0.067
		l0.024-0.04c0.004-0.019,0.006-0.034,0.008-0.05c0.021,0.001,0.033,0.003,0.047,0.003c0.008-0.012,0.014-0.03,0.023-0.033
		c0.048-0.007,0.051-0.006,0.051-0.024c0,0-0.003-0.022-0.006-0.043c-0.012-0.063-0.022-0.126-0.07-0.176l-0.007-0.014
		c0.005-0.058-0.011-0.121,0.017-0.169c0.033-0.06,0.01-0.097-0.02-0.129c-0.021-0.001-0.053-0.002-0.053-0.002
		c-0.018-0.035,0.027-0.021,0.041-0.037c-0.014-0.005-0.033-0.012-0.033-0.012c-0.018-0.051-0.039-0.103-0.015-0.149
		c0.019-0.029,0.015-0.055,0.021-0.085l-0.008-0.012l-0.025,0.016l-0.012-0.059c-0.021,0.008-0.033,0.014-0.049,0.018
		c-0.014-0.022-0.039-0.048-0.037-0.066c0.01-0.039-0.025-0.045-0.045-0.054c-0.029-0.01-0.053-0.021-0.067-0.046
		c-0.007-0.013-0.038-0.022-0.048-0.021c-0.023,0.01-0.029-0.03-0.057-0.011c-0.01,0.004-0.03-0.011-0.048-0.013
		c-0.103-0.003-0.192-0.04-0.284-0.079l-0.025-0.009c-0.051-0.006-0.455-0.019-0.488-0.069h-0.01
		c-0.026,0.021-0.066,0.006-0.096,0.031s0.031,0.036,0.018,0.052c-0.094,0.053-0.156,0.129-0.253,0.165
		c0,0.02-0.008,0.048,0.003,0.054c0.039,0.022,0.023,0.065,0.049,0.089c0,0-0.004,0.017-0.007,0.026l-0.084-0.006L40.198,43.6
		c0.014,0.012,0.027,0.024,0.042,0.03c0.031,0.013,0.021,0.044,0.007,0.046c-0.055,0.014-0.033,0.045-0.024,0.075
		c0.005,0.017,0.013,0.039,0.005,0.049c-0.037,0.039-0.019,0.086-0.029,0.129c0.047,0.022,0.047,0.084,0.117,0.09l-0.004,0.044
		c0.025,0.001,0.054,0.002,0.054,0.002c0.032,0.033,0.055,0.052,0.077,0.074c-0.019,0.04-0.057,0.08-0.05,0.128
		c0.065,0.032,0.091,0.071,0.089,0.128c-0.023,0.002-0.041,0.002-0.057,0.002c-0.005,0.019-0.005,0.036-0.014,0.042
		c-0.046,0.038-0.094,0.075-0.156,0.092c-0.015,0.003-0.036,0.006-0.04,0.016c-0.014,0.038,0.218,0.073,0.181,0.078
		c-0.048,0.006,0.207,0.087,0.154,0.086l-0.01,0.014c0.005,0.028-0.021,0.037-0.04,0.05l-0.087,0.072v0.012
		c0.007,0.028-0.011,0.049-0.027,0.065c-0.018,0.02-0.051,0.032-0.078,0.042c-0.02,0.006-0.016,0.017-0.01,0.034v-0.002v0.004
		c0.005,0.009,0,0.012,0,0.012l-0.01-0.009L40.292,45c-0.018-0.003-0.031-0.006-0.047-0.009c0.008,0.009,0.012,0.019,0.012,0.019
		l0.004,0.079l0.047,0.013c0.001,0.014-0.004,0.036,0.008,0.043c0.032,0.028,0.024,0.058,0.02,0.085
		c-0.008,0.044-0.012,0.075-0.021,0.133c-0.005,0.043,0.131,0.151,0.131,0.151L41.868,45.808z"/>
	<path fill="#0B0204" d="M31.147,45.267c-0.002-0.013-0.002-0.022,0-0.031l1.428-0.223l0.002,0.005
		c0.018,0.019,0.025,0.037,0.027,0.058c0.004,0.035,0.033,0.041,0.069,0.044c0.001,0.008,0.009,0.021,0.007,0.029
		c-0.006,0.021-0.028,0.041,0.01,0.056c0,0-0.003,0.019-0.006,0.028c-0.002,0.032,0.101,0.045,0.137,0.066
		c0.036,0.02,0.023,0.068,0.061,0.09c0.008,0.005,0.01,0.025,0.006,0.031c-0.027,0.031,0.004,0.057-0.002,0.091
		c0.021-0.014,0.037-0.021,0.059-0.034c0.016,0.069,0.035,0.127,0.025,0.197c-0.01,0.056-0.039,0.113-0.012,0.166
		c0.007,0.019,0.002,0.046,0.033,0.053c-0.019,0.019-0.009,0.041-0.001,0.06c0.009,0.021,0.041,0.048,0.032,0.064
		c-0.018,0.034,0.014,0.054,0.009,0.082c0.019,0.004,0.031,0.01,0.046,0.015l-0.004,0.013c-0.037,0.034-0.051,0.062-0.023,0.083
		c0.051,0.033,0.045,0.087,0.065,0.131c0.007,0.021-0.011,0.049-0.011,0.075c-0.004,0.022,0.014,0.042,0.011,0.067
		c-0.003,0.018-0.009,0.044-0.024,0.058c-0.021,0.019-0.025,0.031-0.031,0.056c0,0.016-0.031,0.026-0.018,0.053
		c0.008,0.017-0.037,0.036-0.027,0.059l-0.025-0.006c0.001,0.046,0.002,0.091,0.002,0.126c0,0.009,0.012,0.017,0.02,0.024
		c0.01,0.012,0.031,0.025,0.027,0.036c-0.016,0.06,0.035,0.083,0.06,0.121c0.022,0.037,0.072,0.059,0.095,0.099
		c0.006,0.013,0.022,0.028,0.035,0.026c0.063-0.008,0.063,0.031,0.064,0.064c0.003,0.03,0.011,0.047,0.041,0.058
		c0.023,0.011,0.053,0.022,0.057,0.048l0.021,0.006c0.021-0.011,0.027-0.005,0.034,0.008c0.016,0.022,0.049,0.067,0.059,0.08
		c0.019,0.028,0.028,0.06,0.045,0.097c0,0-0.01,0.007-0.021,0.019c0.019,0.041,0.031,0.091,0.061,0.13
		c0.051,0.063,0.055,0.062,0.065,0.136c0.003,0.021,0.008,0.029,0.026,0.04c0.078,0.044,0.158,0.083,0.203,0.159
		c0.006,0.009,0.02,0.015,0.02,0.023c-0.005,0.067,0.051,0.066,0.105,0.067c-0.011,0.018-0.016,0.03-0.021,0.043
		c0.045,0.027,0.098,0.044,0.136,0.081c0.009,0.009,0.028,0.006,0.042,0.013c0.007,0.004,0.015,0.026,0.015,0.026
		c0.036,0.004-0.021,0.026-0.005,0.035c0.029,0.01,0.053,0.019,0.067,0.055c0.007,0.031,0.037,0.058,0.085,0.051
		c0.008-0.001,0.012,0.021,0.02,0.03c0.013-0.015,0.021-0.013,0.035-0.013c0.044,0,0.078,0.011,0.107,0.035
		c0.025,0.018,0.041,0.052,0.082,0.036c0.012-0.004,0.023,0.003,0.027-0.001c0.05-0.03,0.061-0.031,0.087-0.019
		c0.036,0.016,0.056,0.047,0.073,0.078c0.028,0.048,0.073,0.064,0.118,0.08c0.03,0.009,0.06,0.003,0.067,0.042
		c0.029-0.003,0.031,0.045,0.064,0.034l0.008,0.008c0.002,0.046,0.025,0.05,0.059,0.053c0.038,0.002,0.072,0.018,0.098,0.055
		c0.016,0.025,0.034,0.048,0.068,0.053c0.023,0.004,0.032,0.025,0.035,0.057c0.002,0.006,0.012,0.021,0.012,0.021
		c0.051-0.004,0.1,0.013,0.152-0.01c0.049-0.019,0.104-0.066,0.148-0.017c0.007,0.007,0.021-0.005,0.033-0.001
		c0.029,0.008,0.058-0.017,0.088-0.006c0.024,0.011,0.053,0.009,0.082,0.013l0.002,0.034c0.031-0.029,0.031-0.029,0.073-0.026
		c0.027,0.003,0.058,0.004,0.069-0.048l0.08-0.04c0.025,0.043,0.038-0.011,0.059-0.021c0.012-0.007,0.018-0.027,0.029-0.047
		c0.033,0.009,0.072,0.006,0.103,0.021c0.024,0.014,0.048,0.012,0.069,0.017c0.033,0.006,0.096,0.019,0.139,0.027
		c0.021,0.005,0.047,0.012,0.064,0.005c0.067-0.022,0.067-0.022,0.186-0.004c0.049,0.007,0.101-0.001,0.152-0.001
		c0.019,0.027,0.027,0.07,0.063,0.058c0.027-0.012,0.049,0.014,0.072,0.018c0.025,0.004,0.031,0.03,0.041,0.059l0.074-0.001
		l0.004-0.042c0.016-0.001,0.031-0.001,0.046-0.006c0.01-0.001,0.021-0.008,0.027-0.02c0.009-0.014,0.017-0.029,0.03-0.025
		c0.023,0.01,0.032-0.022,0.053-0.022c0.021,0.001,0.031-0.03,0.047-0.039c0.045-0.024,0.078-0.08,0.127-0.08
		c0.065-0.006,0.115-0.063,0.178-0.076c0.01-0.002,0.016-0.019,0.021-0.031l0.021,0.033c0.045-0.004,0.074-0.031,0.094-0.074
		l0.014-0.026c0-0.013-0.004-0.035,0-0.042c0.031-0.065,0.031-0.065,0.069-0.082c0.008-0.005,0.021-0.015,0.024-0.009
		c0.061,0.053,0.069-0.012,0.094-0.038l0.02-0.027c0.016-0.014,0.047-0.016,0.05-0.035c0.007-0.031,0.035-0.008,0.048-0.019
		c0.025-0.025,0.063-0.038,0.098-0.045c0.012-0.004,0.032-0.016,0.057,0.019c0.01,0.014,0.03,0.028,0.041,0.028
		c0.041,0.003,0.083,0.038,0.122,0.048c0.015,0.001,0.026-0.01,0.038-0.013c0.027,0.039,0.007,0.065,0.012,0.105
		c0.01-0.007,0.021-0.009,0.027-0.017c0.008-0.012-0.004-0.045,0.027-0.032l0.055,0.018l0.021,0.015l0.01,0.004
		c0.006-0.008,0.015-0.019,0.015-0.019c0.037,0.043,0.044,0.011,0.06-0.004c0.02-0.021,0.031-0.042,0.04-0.069
		c0.011-0.031,0.036-0.045,0.052-0.073c0.031-0.061,0.095-0.098,0.104-0.177c0.005-0.041,0.04-0.067,0.063-0.1
		c0.02-0.031,0.061-0.044,0.096-0.063c0.024-0.013,0.047-0.021,0.066-0.038c0.025-0.02,0.037-0.047,0.086-0.05
		c0.029,0,0.053-0.035,0.074-0.059c0.026-0.032,0.058-0.054,0.098-0.068c0.013-0.003,0.047-0.003,0.027-0.036
		c0.018-0.013,0.03-0.021,0.055-0.035c0.014-0.007,0.033-0.003,0.045-0.01c0.021-0.011,0.037-0.026,0.053-0.042l0.013-0.015
		c0.053,0.006,0.063-0.035,0.076-0.058c0.026,0.003,0.048,0.004,0.06,0.004c0.111-0.119,0.172-0.259,0.284-0.39l-0.038-0.06
		c-0.045-0.071-0.037-0.131,0.016-0.181c0.018-0.017-0.009-0.025-0.012-0.035l-0.023,0.02l-0.008-0.011
		c0.014-0.021,0.031-0.032,0.039-0.053c0.012-0.036,0.031-0.075,0.02-0.111c-0.016-0.06,0.035-0.09,0.049-0.136
		c0.046-0.012,0.059-0.054,0.098-0.067c0.018-0.003,0.034-0.007,0.059-0.009c-0.021-0.039-0.011-0.075,0.028-0.091
		c0.041-0.019,0.023-0.064,0.062-0.088c0.027-0.021,0.02-0.068,0-0.106c-0.013-0.021-0.008-0.038,0.015-0.045
		c0.015-0.008,0.01-0.04,0.038-0.022c0.027,0.015,0.002,0.023-0.006,0.036c-0.008,0.015,0,0.036,0,0.063
		c0.035,0.009,0.061-0.07,0.07-0.021c0.027-0.042,0.134-0.013,0.085-0.032c-0.09-0.037-0.046-0.075-0.046-0.075
		c0.084-0.021-0.045-0.085,0.008-0.126c0.014-0.009-0.02-0.053-0.016-0.076c0.016-0.08,0.02-0.103,0.036-0.18
		c0.005-0.04,0.048-0.073,0.045-0.118c0-0.03,0.018-0.055,0.035-0.078l1.413,0.29c0.002,0.025,0.007,0.047,0.024,0.068
		c0.007,0.01-0.007,0.045-0.007,0.045c-0.053,0.04-0.011,0.059,0.014,0.086c0.011,0.013,0.021,0.025,0.021,0.025
		c-0.003,0.07-0.005,0.108-0.007,0.185c-0.003,0.114-0.007,0.137-0.059,0.255c0.021,0.035-0.031,0.047-0.025,0.08
		c0.002,0.026-0.014,0.052-0.004,0.084c0.008,0.038-0.033,0.078-0.013,0.123c-0.021,0.036,0.011,0.063,0.024,0.099
		c-0.034,0.014-0.056,0.042-0.098,0.035c-0.024-0.003-0.055,0.02-0.076,0.032c-0.014,0.006-0.018,0.022-0.029,0.027
		c-0.012,0.004-0.029,0.004-0.033-0.003c-0.006-0.007-0.003-0.022-0.006-0.045l-0.115,0.093c0,0-0.006-0.011-0.011-0.025
		c-0.041,0.044-0.103,0.038-0.153,0.052c-0.048,0.011-0.035,0.035-0.041,0.063c-0.018-0.01-0.039-0.028-0.049-0.023
		c-0.024,0.011-0.056,0.026-0.064,0.049c-0.023,0.068-0.074,0.134-0.036,0.216c0.007,0.013,0.005,0.031-0.003,0.042
		c-0.01,0.022-0.007,0.037,0.003,0.057c0.005,0.011,0.007,0.024,0.005,0.035c-0.018,0.057-0.02,0.076-0.043,0.155
		c-0.01,0.049-0.01,0.097-0.012,0.147c-0.002,0.06-0.008,0.119-0.033,0.176c-0.018,0.039-0.035,0.083-0.035,0.12
		c0,0.063-0.037,0.092-0.073,0.123c-0.019,0.018-0.045,0.026-0.065,0.038c0.014,0.025-0.014,0.044-0.016,0.065
		c-0.008,0.057-0.043,0.098-0.072,0.151c0.008,0.023,0.018,0.051,0.022,0.075c-0.036,0.016-0.063,0.026-0.098,0.044
		c-0.027,0.007-0.056,0.006-0.083,0.011l-0.015,0.008c-0.077-0.017-0.077-0.018-0.125,0.011l-0.007-0.002
		c0-0.026-0.02-0.04-0.041-0.047c0,0-0.012,0.018-0.021,0.02c-0.073,0.014-0.143,0.064-0.219,0.059l-0.02-0.021
		c-0.031,0.015-0.063,0.031-0.102,0.046c-0.051,0.024-0.078,0.073-0.129,0.099c-0.076,0.035-0.121,0.104-0.174,0.164
		c-0.027,0.03-0.045,0.066-0.068,0.098c-0.032,0.036-0.057,0.071-0.072,0.086c-0.018,0.018-0.047,0.026-0.057,0.045
		c-0.033,0.062-0.087,0.105-0.123,0.163c-0.009,0.015-0.021,0.024-0.037,0.035c-0.059,0.042-0.107,0.092-0.131,0.167
		c-0.011,0.032-0.042,0.059-0.055,0.094c0,0-0.025,0.009-0.043,0.013l0.016,0.091c-0.035-0.006-0.063,0.004-0.066,0.04
		c-0.008,0.076-0.058,0.123-0.123,0.159c-0.046,0.023-0.083,0.064-0.145,0.075c-0.016,0.001-0.041,0.028-0.036,0.051
		c0.014,0.043-0.017,0.059-0.048,0.077l-0.064,0.034c-0.012,0.005-0.02,0.017-0.03,0.017c-0.059,0-0.122-0.022-0.159,0.051
		l-0.018-0.005c-0.056-0.031-0.087,0.018-0.105,0.046c-0.02,0.037-0.044,0.06-0.082,0.073c-0.015,0.003-0.025,0.021-0.038,0.032
		c-0.022,0.019-0.056-0.006-0.056-0.006c0.018-0.068-0.047-0.024-0.066-0.046c0.008-0.009,0.02-0.016,0.039-0.033
		c-0.027-0.001-0.051,0.002-0.066-0.009c-0.029-0.018-0.061-0.04-0.061-0.079c-0.006-0.056-0.058-0.054-0.088-0.075
		c-0.015-0.012-0.06,0.009-0.039-0.038c-0.023-0.005-0.051-0.012-0.068-0.016c-0.022-0.002-0.037,0.017-0.04,0.035
		c-0.003,0.027-0.007,0.05-0.042,0.052c-0.008,0-0.021,0.005-0.025,0.011c-0.055,0.064-0.133,0.066-0.21,0.083
		C37.545,50.27,37.5,50.29,37.46,50.32c-0.039,0.029-0.078,0.045-0.125,0.059c-0.08,0.024-0.157,0.069-0.246,0.081
		c-0.023,0.004-0.04,0.03-0.064,0.04c-0.069,0.035-0.15,0.015-0.227,0.022c-0.017,0.027-0.023,0.065-0.061,0.06h-0.078
		c-0.043-0.002-0.076,0.022-0.117,0.038c-0.066-0.065-0.066-0.065-0.077-0.105c-0.04-0.016-0.068,0.017-0.1,0.035
		c-0.083,0.043-0.202,0.089-0.317,0.07c-0.016-0.041-0.026-0.087-0.035-0.133c-0.006-0.035-0.031-0.072-0.055-0.11
		c-0.014-0.015,0.018-0.047-0.023-0.054c0.016-0.041-0.024-0.059-0.042-0.085c-0.024-0.038-0.032-0.096-0.09-0.112
		c-0.013-0.005-0.031-0.022-0.031-0.036c0.006-0.049-0.039-0.026-0.057-0.044c0.008-0.015,0.015-0.029,0.03-0.063
		c-0.07,0.025-0.123,0.021-0.17,0.071c-0.051,0.053-0.121,0.078-0.2,0.065c-0.041-0.007-0.091,0.015-0.12-0.013
		c-0.031-0.028-0.064-0.026-0.1-0.044c-0.023,0.035-0.043,0.069-0.065,0.107c-0.042-0.01-0.083-0.031-0.125-0.037
		c-0.042-0.008-0.09-0.023-0.13,0.014c-0.035,0.026-0.07,0.013-0.099-0.021c-0.009-0.009-0.031-0.015-0.031-0.015
		c-0.032,0.021-0.063,0.006-0.095,0.005c-0.018-0.001-0.045-0.005-0.055-0.014c-0.027-0.039-0.063-0.049-0.104-0.052l-0.019-0.011
		c-0.044-0.034-0.083-0.069-0.146-0.046c-0.017,0.006-0.056,0.012-0.068-0.026l-0.019-0.005c-0.04,0.002-0.076,0.005-0.108-0.039
		c-0.02-0.026-0.07-0.044-0.082-0.081c-0.014-0.031-0.035-0.039-0.059-0.056c-0.032-0.027-0.082-0.038-0.104-0.086
		c-0.011-0.023-0.049-0.051-0.08-0.013c-0.027-0.027-0.069-0.024-0.095-0.046c-0.021-0.018-0.025-0.059-0.034-0.089
		c0,0,0.001-0.017,0.007-0.027l0.012,0.005l0.003-0.013c0,0-0.008,0-0.015,0.005c-0.02-0.055-0.053-0.113-0.021-0.176
		c-0.018-0.044-0.005-0.104-0.05-0.125c-0.044-0.021,0.012-0.057-0.022-0.071c-0.021-0.008-0.039,0.032-0.065-0.001
		c-0.027-0.04-0.077-0.044-0.119-0.031c-0.059,0.02-0.111-0.003-0.159-0.02l-0.122-0.045c-0.024-0.009-0.031-0.016-0.027-0.04
		c-0.012,0.002-0.021,0.004-0.045,0.005c-0.045-0.051-0.109-0.095-0.188-0.118c-0.019-0.071-0.108-0.053-0.136-0.116
		c-0.006-0.014-0.043-0.014-0.07-0.024c-0.03-0.027-0.047-0.085-0.109-0.083c-0.008,0.001-0.018-0.018-0.028-0.027l-0.124-0.132
		c-0.006-0.006-0.016-0.014-0.023-0.015c-0.043-0.004-0.07-0.021-0.063-0.072c0-0.016-0.021-0.021-0.05-0.011l-0.008-0.004
		l-0.036,0.007c-0.016-0.031-0.029-0.059-0.047-0.098c-0.012-0.03-0.014-0.075-0.038-0.089c-0.052-0.036-0.069-0.094-0.104-0.14
		c-0.011-0.019-0.024-0.044-0.009-0.058c0.036-0.035,0.002-0.066-0.009-0.089c-0.018-0.031,0.009-0.039,0.013-0.051
		c0.001-0.049-0.064-0.077-0.018-0.134c0,0-0.002-0.003-0.016-0.029c-0.029-0.046-0.037-0.095-0.02-0.146
		c0.008-0.022,0.008-0.04-0.025-0.033c-0.01-0.012-0.008-0.039-0.036-0.027c-0.009-0.009-0.019-0.016-0.034-0.028l0.086-0.038
		c-0.003-0.017-0.006-0.025-0.006-0.038h0.038c0-0.028,0.05-0.027,0.038-0.069c-0.008-0.025,0.023-0.021,0.038-0.016
		c0.011-0.029,0.024-0.056,0.038-0.095c-0.017-0.037-0.038-0.084-0.059-0.138l-0.049-0.007c-0.014-0.002-0.041-0.011-0.041-0.011
		c-0.004-0.063-0.068-0.08-0.098-0.123c-0.028-0.042-0.066-0.073-0.101-0.111c-0.017-0.021,0.007-0.049-0.024-0.069
		c-0.021-0.018-0.023-0.052-0.046-0.08c-0.024-0.022-0.017-0.083-0.045-0.1c-0.03-0.022-0.048-0.049-0.071-0.072
		c-0.009-0.009-0.019-0.024-0.016-0.033c0.018-0.064-0.035-0.095-0.063-0.136c-0.033-0.054-0.064-0.106-0.086-0.162
		c-0.018-0.038-0.066-0.065-0.035-0.116c0,0-0.014-0.024-0.021-0.037l-0.075-0.111v-0.019c0.069-0.036,0.007-0.068-0.008-0.09
		c-0.03-0.046-0.03-0.081-0.003-0.125c0.016-0.021,0.012-0.023-0.02-0.06l0.025-0.021c0.063-0.058-0.027-0.072-0.066-0.131
		c-0.037-0.051-0.023-0.083,0-0.124c0.014-0.019,0.008-0.024-0.006-0.04C31.149,45.313,31.152,45.286,31.147,45.267 M35.83,50.071
		l-0.035-0.038C35.78,50.077,35.795,50.082,35.83,50.071"/>
	<path fill="#0B0204" d="M31.788,43.193c-0.035,0.058-0.076,0.069-0.152,0.047c-0.015,0.038-0.015,0.038-0.061,0.041l-0.02,0.002
		c-0.053,0.037-0.118,0.024-0.176,0.034l-0.019,0.006l-0.007,0.035c-0.01-0.007-0.018-0.013-0.037-0.024
		c0.016,0.05-0.025,0.09,0,0.132c0.008,0.003,0.016,0.009,0.016,0.009l-0.014,0.005l-0.007-0.012l0.005-0.002
		c-0.047-0.006-0.043,0.045-0.077,0.052l0.013,0.01c0.006,0.015,0.002,0.01-0.018,0.021l-0.058,0.022
		c-0.013,0.004-0.018,0.026-0.025,0.042c-0.015,0.035-0.017,0.073-0.011,0.109c0.008,0.063,0.028,0.129-0.02,0.189
		c0.018,0.003,0.034,0.005,0.034,0.005c0.014,0.033-0.089,0.068-0.112,0.105l-0.008,0.019c0.031,0.023,0.014,0.055,0.023,0.084
		c0.01,0.027,0.016,0.058,0.03,0.08c0.025,0.027,0.025,0.059,0.03,0.09s0.021,0.065,0.012,0.089c-0.02,0.033,0.016,0.05,0.014,0.077
		c-0.006,0.031,0.027,0.036,0.045,0.052c-0.025,0.021-0.013,0.045-0.01,0.067l0.01,0.015c0.047,0.043-0.016,0.088,0.011,0.139
		c0.014,0.026-0.132,0.112-0.142,0.13c-0.02,0.031,0.018,0.044,0.018,0.069c-0.001,0.02,0.02,0.04,0.025,0.063
		c0.008,0.019,0.018,0.04,0.033,0.075c0.021,0.043,0.069,0.073,0.082,0.122l0.012,0.031l1.428-0.225
		c0.008-0.009,0.016-0.021,0.016-0.036c0,0,0.021-0.006,0.037-0.011c0.063-0.02,0.096-0.061,0.109-0.114
		c0.008-0.028-0.045-0.015-0.023-0.049c0,0-0.028-0.017-0.035-0.028c-0.01-0.014-0.018-0.038-0.01-0.047
		c0.021-0.032,0.201-0.128,0.197-0.156c-0.008-0.061,0.016-0.12-0.006-0.178l0.006-0.017c0.01-0.042,0.01-0.041-0.038-0.063
		c-0.009-0.005-0.019-0.01-0.021-0.018c-0.012-0.019,0.023-0.046-0.01-0.062l0.033-0.065l0.035-0.06
		c0.012-0.019,0.011-0.087-0.002-0.101c-0.014-0.001-0.026-0.005-0.043-0.007c0.01-0.018,0.014-0.031,0.024-0.051
		c-0.042-0.023-0.077-0.053-0.077-0.105l-0.016-0.015c-0.067-0.006-0.063-0.067-0.098-0.097c-0.046-0.036-0.01-0.1-0.055-0.136
		c0.022-0.026,0.027-0.052-0.008-0.072l-0.002-0.018c0.039-0.075,0-0.142-0.037-0.205l0.014-0.018c-0.034,0-0.073-0.006-0.111-0.023
		C32.29,43.144,32.054,43.156,31.788,43.193"/>
	<rect y="0.001" fill="none" width="71.843" height="67.503"/>
	<rect y="0.001" fill="none" width="71.843" height="67.503"/>
	<rect y="0.001" fill="none" width="71.843" height="67.503"/>
	<rect y="0.001" fill="none" width="71.843" height="67.503"/>
	<rect y="0.001" fill="none" width="71.843" height="67.503"/>
	<rect y="0.001" fill="none" width="71.843" height="67.503"/>
	<rect y="0.001" fill="none" width="71.843" height="67.503"/>
	<rect y="0.001" fill="none" width="71.843" height="67.503"/>
	<rect y="0.001" fill="none" width="71.843" height="67.503"/>
	<rect y="0.001" fill="none" width="71.843" height="67.503"/>
	<rect y="0.001" fill="none" width="71.843" height="67.503"/>
	<rect y="0.001" fill="none" width="71.843" height="67.503"/>
	<rect y="0.001" fill="none" width="71.843" height="67.503"/>
	<rect y="0.001" fill="none" width="71.843" height="67.503"/>
	<rect y="0.001" fill="none" width="71.843" height="67.503"/>
	<rect y="0.001" fill="none" width="71.843" height="67.503"/>
	<rect y="0.001" fill="none" width="71.843" height="67.503"/>
	<rect y="0.001" fill="none" width="71.843" height="67.503"/>
</g>
</svg>
