<?xml version="1.0" encoding="utf-8"?>
<!-- Generator: Adobe Illustrator 14.0.0, SVG Export Plug-In . SVG Version: 6.00 Build 43363)  -->
<!DOCTYPE svg PUBLIC "-//W3C//DTD SVG 1.1//EN" "http://www.w3.org/Graphics/SVG/1.1/DTD/svg11.dtd">
<svg version="1.1" id="Layer_1" xmlns="http://www.w3.org/2000/svg" xmlns:xlink="http://www.w3.org/1999/xlink" x="0px" y="0px"
	 width="134.583px" height="75.433px" viewBox="-14.527 -8.475 134.583 75.433"
	 enable-background="new -14.527 -8.475 134.583 75.433" xml:space="preserve">
<path fill="#FFFFFF" d="M55.722-6.094c0,0,43.84-1.671,52.247,0.346c8.409,2.015,6.531,20.808,6.531,36.933
	s3.202,29.464,3.202,29.464s-28.491,3.58-54.653,4.772c-26.167,1.193-50.868,0-62.841-3.26C-9.669,59.473-17.86,6.651-9.75-0.312
	C-3.422-5.748,55.722-6.094,55.722-6.094"/>
<g>
	<path fill="#231F20" d="M9.427,25.799c0,0.167-0.039,0.301-0.115,0.404c-0.051,0.089-0.18,0.134-0.383,0.134
		c-0.09-0.012-0.267-0.031-0.529-0.058c-0.263-0.025-0.502-0.039-0.721-0.039c-0.167,0-0.288,0.007-0.364,0.02
		c-0.078,0-0.263,0.016-0.558,0.049c-0.294,0.031-0.493,0.034-0.595,0.009c-0.166,0-0.32,0.012-0.461,0.039
		c-0.255,0.025-0.474,0.038-0.653,0.038c-0.32,0-0.48-0.058-0.48-0.172c-0.026-0.665-0.039-1.51-0.039-2.534
		c0-0.793,0.02-1.6,0.058-2.42l0.021-1.286c0-0.217-0.007-0.422-0.021-0.614c-0.025-0.769-0.038-1.536-0.038-2.305l-0.02-0.402
		c-0.026-0.205-0.038-0.353-0.038-0.441c0-0.102,0.006-0.235,0.02-0.395c0.013-0.16,0.013-0.296,0-0.414
		c0-0.333-0.014-0.742-0.039-1.229l-0.019-1.133c0.255-0.012,0.563-0.019,0.921-0.019h0.576c0.14-0.026,0.323-0.045,0.547-0.058
		c0.225-0.014,0.425-0.02,0.605-0.02c0.205,0,0.381-0.006,0.528-0.019c0.145-0.013,0.265-0.026,0.354-0.039l0.73-0.037
		c0.204,0,0.339,0.07,0.401,0.21c0.014,0.027,0.021,0.077,0.021,0.154c0,0.077-0.007,0.166-0.021,0.269
		c-0.013,0.103-0.019,0.231-0.019,0.385l-0.02,0.499c-0.077,0.013-0.242,0.019-0.5,0.019c-0.293,0-0.537,0.014-0.729,0.039
		c-0.306,0.026-0.62,0.039-0.94,0.039l-0.519,0.019v1.057c0,0.23-0.003,0.48-0.01,0.749s-0.002,0.499,0.01,0.691
		c0,0.154-0.006,0.281-0.019,0.384c-0.027,0.41-0.039,0.838-0.039,1.286v0.576c0.346,0,0.576-0.006,0.691-0.019l0.576-0.078
		c0.064-0.013,0.138-0.022,0.22-0.027c0.083-0.006,0.195-0.018,0.336-0.029h0.059c0.204,0,0.306,0.135,0.306,0.404l0.02,0.998
		c-0.154,0.039-0.364,0.059-0.634,0.059c-0.255,0-0.46,0.006-0.614,0.019l-0.402,0.058l-0.538,0.058l0.058,4.166
		c0.191-0.012,0.429-0.019,0.711-0.019c0.179,0,0.336-0.006,0.47-0.02c0.134-0.013,0.259-0.019,0.375-0.019
		c0.716,0,1.158,0.019,1.324,0.058l0.058,0.404C9.4,25.499,9.427,25.684,9.427,25.799z"/>
	<path fill="#231F20" d="M11.143,26.125c-0.03-0.14-0.044-0.287-0.036-0.441c0.006-0.154,0.009-0.256,0.009-0.308v-0.864
		c0-0.486-0.006-0.825-0.019-1.018c-0.027-0.511-0.014-1.37,0.038-2.572l0.02-1.095l-0.02-1.574
		c-0.038-3.098-0.051-4.857-0.038-5.28c0.05-0.014,0.121-0.035,0.21-0.069c0.09-0.031,0.184-0.051,0.28-0.058
		s0.213-0.009,0.354-0.009c0.283,0,0.521,0.049,0.721,0.144c0.199,0.096,0.292,0.324,0.279,0.682
		c-0.039,0.243-0.058,1.292-0.058,3.149v2.092c0,0.833-0.007,1.544-0.02,2.131c-0.014,0.589-0.02,1.063-0.02,1.421l-0.02,0.518
		c0.014,0.384,0.02,0.992,0.02,1.824v1.076c0,0.32-0.262,0.48-0.786,0.48l-0.672-0.02C11.257,26.337,11.177,26.267,11.143,26.125z"
		/>
	<path fill="#231F20" d="M19.561,21.095c0,0.474-0.006,0.896-0.019,1.268s-0.019,0.589-0.019,0.652
		c0.012,0.755,0.019,1.619,0.019,2.593c0,0.293-0.058,0.496-0.172,0.604c-0.116,0.109-0.278,0.163-0.48,0.163
		c-0.103,0-0.211-0.006-0.326-0.019c-0.118-0.014-0.227-0.02-0.329-0.02c-0.063,0-0.151-0.275-0.269-0.825
		c-0.51,0.652-0.996,0.979-1.459,0.979c-0.435,0-0.784-0.086-1.046-0.26c-0.263-0.172-0.484-0.489-0.663-0.951
		c-0.154-0.409-0.23-0.966-0.23-1.67c0-0.499,0.036-0.973,0.115-1.421c0.077-0.448,0.19-0.786,0.345-1.018
		c0.308-0.499,0.576-0.821,0.806-0.969c0.232-0.147,0.57-0.22,1.019-0.22c0.409,0,0.729,0.147,0.96,0.441l0.037-0.998
		c0-0.385-0.057-0.736-0.172-1.056c-0.115-0.32-0.308-0.493-0.576-0.519c-0.359-0.025-0.663,0.041-0.911,0.201
		c-0.25,0.16-0.426,0.324-0.529,0.49c-0.23-0.141-0.384-0.256-0.459-0.345c-0.079-0.09-0.135-0.238-0.175-0.442
		c0-0.218,0.049-0.415,0.145-0.595c0.095-0.179,0.277-0.371,0.546-0.576c0.205-0.154,0.416-0.251,0.634-0.296
		c0.217-0.045,0.5-0.066,0.845-0.066c0.511,0,0.941,0.137,1.286,0.412c0.348,0.275,0.576,0.586,0.691,0.932
		C19.435,18.357,19.561,19.534,19.561,21.095z M17.797,24.014l-0.019-0.999l0.019-1.171c-0.154-0.41-0.372-0.615-0.653-0.615
		c-0.269-0.013-0.467,0.225-0.595,0.711c-0.13,0.486-0.192,1.03-0.192,1.631c0,0.423,0.075,0.74,0.221,0.952
		c0.146,0.211,0.292,0.317,0.431,0.317C17.317,24.839,17.579,24.564,17.797,24.014z"/>
	<path fill="#231F20" d="M26.438,19.732c0.05,0.73,0.078,1.319,0.078,1.768c0,0.704-0.035,1.295-0.106,1.775
		s-0.163,0.958-0.279,1.431c-0.191,0.678-0.451,1.145-0.776,1.401c-0.327,0.256-0.734,0.384-1.22,0.384
		c-0.41,0-0.819-0.377-1.229-1.132c-0.076,0.281-0.153,0.516-0.23,0.701c-0.077,0.186-0.135,0.277-0.173,0.277
		c-0.115,0-0.222,0.006-0.318,0.02c-0.095,0.013-0.188,0.019-0.277,0.019c-0.18,0-0.311-0.054-0.394-0.162
		c-0.084-0.107-0.126-0.318-0.126-0.624v-1.458v-1.153c0.014-0.115,0.007-1.087-0.02-2.917l-0.019-2.362v-0.71l0.019-2.804
		c0-0.499-0.006-0.825-0.019-0.979c0.088-0.141,0.23-0.244,0.422-0.307c0.191-0.064,0.409-0.083,0.652-0.058
		c0.205,0.012,0.369,0.042,0.49,0.086c0.121,0.045,0.208,0.158,0.259,0.336v0.826c0,1.395-0.006,2.464-0.019,3.207
		c0.358-0.513,0.813-0.769,1.363-0.769c0.269,0,0.489,0.042,0.663,0.126c0.173,0.083,0.333,0.24,0.48,0.469
		c0.146,0.231,0.317,0.583,0.507,1.056C26.297,18.484,26.385,19.003,26.438,19.732z M24.746,20.999c0-0.474-0.006-0.768-0.02-0.882
		c-0.037-0.679-0.108-1.191-0.21-1.537c-0.104-0.346-0.289-0.519-0.557-0.519c-0.154,0-0.304,0.1-0.453,0.297
		c-0.147,0.198-0.279,0.451-0.394,0.758v0.71c0,0.358,0.006,0.691,0.02,0.999c0.038,1.574,0.05,2.515,0.038,2.823
		c0.231,0.78,0.486,1.171,0.769,1.171c0.242,0,0.415-0.195,0.517-0.586c0.103-0.392,0.188-1.02,0.25-1.893
		C24.735,22.023,24.746,21.575,24.746,20.999z"/>
	<path fill="#231F20" d="M29.038,26.194c-0.402-0.199-0.669-0.555-0.796-1.066c-0.217-0.833-0.365-2.042-0.441-3.629l-0.021-0.558
		c0-1.101,0.166-2.029,0.501-2.784c0.499-1.089,1.145-1.632,1.939-1.632c0.55,0,0.999,0.1,1.344,0.297
		c0.348,0.199,0.621,0.541,0.828,1.027c0.356,0.884,0.538,1.818,0.538,2.804l-0.021,0.998c0,0.385-0.03,0.89-0.094,1.518
		c-0.066,0.627-0.13,1.056-0.192,1.286c-0.192,0.653-0.468,1.156-0.825,1.508c-0.359,0.353-0.77,0.529-1.23,0.529
		C29.95,26.49,29.44,26.39,29.038,26.194z M31.121,21.172c0.013-0.333,0.019-0.729,0.019-1.19c0-0.679-0.066-1.163-0.2-1.45
		c-0.135-0.289-0.331-0.431-0.585-0.431c-0.244,0-0.41,0.154-0.501,0.46c-0.089,0.308-0.179,0.903-0.269,1.787
		c-0.012,0.076-0.019,0.224-0.019,0.441l0.019,1.555c0.013,0.947,0.079,1.624,0.192,2.026c0.114,0.404,0.307,0.606,0.577,0.606
		c0.241,0,0.431-0.141,0.565-0.422s0.195-0.704,0.184-1.268C31.088,22.989,31.094,22.285,31.121,21.172z"/>
	<path fill="#231F20" d="M37.669,16.334c0.205,0,0.416,0.045,0.634,0.134v1.191c0,0.396-0.055,0.671-0.164,0.825
		s-0.208,0.224-0.297,0.211c-0.41-0.09-0.691-0.141-0.845-0.154c-0.306-0.051-0.543,0.166-0.71,0.652
		c-0.039,0.857-0.057,1.645-0.057,2.363c0,0.614,0.012,1.087,0.037,1.42c0.014,0.256,0.02,0.64,0.02,1.152l-0.02,1.459
		c0,0.307-0.077,0.516-0.231,0.624c-0.154,0.109-0.365,0.163-0.634,0.163c-0.127,0-0.251-0.006-0.374-0.019
		c-0.123-0.014-0.233-0.02-0.336-0.02c-0.09,0-0.147-0.042-0.173-0.125c-0.027-0.084-0.035-0.187-0.028-0.308
		c0.006-0.122,0.008-0.209,0.008-0.26l0.021-0.998c0-0.282-0.006-0.487-0.021-0.615c-0.012-0.103-0.019-0.359-0.019-0.768
		c0-0.627,0.013-1.44,0.039-2.438c0.013-0.308,0.019-0.64,0.019-0.999l-0.019-0.73c-0.027-0.563-0.039-1.069-0.039-1.516
		l0.019-0.788c0.27-0.064,0.685-0.096,1.25-0.096c0.139,0.27,0.256,0.506,0.345,0.711c0.399-0.652,0.815-1.005,1.25-1.056
		C37.419,16.341,37.528,16.334,37.669,16.334z"/>
	<path fill="#231F20" d="M44.368,21.095c0,0.474-0.006,0.896-0.019,1.268c-0.012,0.371-0.019,0.589-0.019,0.652
		c0.012,0.755,0.019,1.619,0.019,2.593c0,0.293-0.057,0.496-0.172,0.604c-0.115,0.109-0.276,0.163-0.48,0.163
		c-0.103,0-0.211-0.006-0.326-0.019c-0.118-0.014-0.227-0.02-0.328-0.02c-0.065,0-0.152-0.275-0.27-0.825
		c-0.51,0.652-0.996,0.979-1.458,0.979c-0.435,0-0.784-0.086-1.045-0.26c-0.262-0.172-0.485-0.489-0.664-0.951
		c-0.154-0.409-0.23-0.966-0.23-1.67c0-0.499,0.036-0.973,0.115-1.421c0.076-0.448,0.19-0.786,0.345-1.018
		c0.308-0.499,0.576-0.821,0.808-0.969c0.231-0.147,0.569-0.22,1.019-0.22c0.408,0,0.728,0.147,0.96,0.441l0.037-0.998
		c0-0.385-0.058-0.736-0.173-1.056c-0.115-0.32-0.307-0.493-0.576-0.519c-0.357-0.025-0.663,0.041-0.911,0.201
		c-0.249,0.16-0.426,0.324-0.529,0.49c-0.23-0.141-0.384-0.256-0.458-0.345c-0.079-0.09-0.135-0.238-0.175-0.442
		c0-0.218,0.049-0.415,0.145-0.595c0.095-0.179,0.277-0.371,0.546-0.576c0.205-0.154,0.416-0.251,0.634-0.296
		c0.217-0.045,0.501-0.066,0.845-0.066c0.511,0,0.941,0.137,1.287,0.412c0.347,0.275,0.576,0.586,0.691,0.932
		C44.241,18.357,44.368,19.534,44.368,21.095z M42.601,24.014l-0.019-0.999l0.019-1.171c-0.153-0.41-0.371-0.615-0.652-0.615
		c-0.269-0.013-0.467,0.225-0.595,0.711c-0.13,0.486-0.193,1.03-0.193,1.631c0,0.423,0.075,0.74,0.221,0.952
		c0.146,0.211,0.292,0.317,0.432,0.317C42.121,24.839,42.385,24.564,42.601,24.014z"/>
	<path fill="#231F20" d="M49.362,16.334c0.205,0,0.416,0.045,0.634,0.134v1.191c0,0.396-0.055,0.671-0.164,0.825
		c-0.108,0.154-0.208,0.224-0.297,0.211c-0.409-0.09-0.691-0.141-0.845-0.154c-0.305-0.051-0.544,0.166-0.71,0.652
		c-0.039,0.857-0.058,1.645-0.058,2.363c0,0.614,0.012,1.087,0.039,1.42c0.013,0.256,0.019,0.64,0.019,1.152l-0.019,1.459
		c0,0.307-0.079,0.516-0.232,0.624c-0.154,0.109-0.364,0.163-0.634,0.163c-0.127,0-0.251-0.006-0.374-0.019
		c-0.123-0.014-0.234-0.02-0.336-0.02c-0.09,0-0.147-0.042-0.172-0.125c-0.028-0.084-0.035-0.187-0.029-0.308
		c0.007-0.122,0.01-0.209,0.01-0.26l0.02-0.998c0-0.282-0.006-0.487-0.02-0.615c-0.014-0.103-0.02-0.359-0.02-0.768
		c0-0.627,0.013-1.44,0.039-2.438c0.012-0.308,0.019-0.64,0.019-0.999l-0.019-0.73c-0.028-0.563-0.039-1.069-0.039-1.516l0.02-0.788
		c0.27-0.064,0.684-0.096,1.249-0.096c0.14,0.27,0.256,0.506,0.345,0.711c0.399-0.652,0.815-1.005,1.25-1.056
		C49.11,16.341,49.219,16.334,49.362,16.334z"/>
	<path fill="#231F20" d="M59.479,20.385c0,0.743-0.006,1.266-0.02,1.574c-0.026,0.666-0.038,1.569-0.038,2.708v0.902
		c0,0.372-0.09,0.607-0.269,0.71c-0.181,0.103-0.493,0.154-0.941,0.154l-0.498-0.096c-0.039-0.447-0.058-2.195-0.058-5.241
		l0.019-0.422c0.039-0.294,0.058-0.622,0.058-0.979c0-1.025-0.224-1.536-0.672-1.536c-0.293,0-0.551,0.256-0.769,0.768
		c-0.037,0.922-0.058,1.766-0.058,2.535l0.021,1.516c0.013,0.256,0.02,0.64,0.02,1.152l-0.02,1.459c0,0.307-0.078,0.516-0.231,0.624
		c-0.153,0.109-0.365,0.163-0.634,0.163c-0.127,0-0.249-0.006-0.363-0.019c-0.116-0.014-0.226-0.02-0.328-0.02
		s-0.162-0.038-0.181-0.115c-0.021-0.076-0.028-0.176-0.021-0.297c0.006-0.122,0.01-0.214,0.01-0.279
		c0-0.678-0.013-1.216-0.037-1.613c0-0.127,0.013-1.068,0.037-2.822l0.021-1.382c0-0.308-0.007-0.569-0.021-0.788
		c-0.026-0.819-0.031-1.567-0.02-2.246c0.282-0.064,0.705-0.095,1.268-0.095c0.166,0.269,0.293,0.55,0.384,0.844
		c0.461-0.78,0.987-1.171,1.574-1.171c0.307,0,0.592,0.069,0.854,0.203c0.261,0.135,0.444,0.317,0.547,0.546
		c0.154,0.346,0.245,0.627,0.279,0.845c0.031,0.218,0.054,0.551,0.067,0.999C59.473,19.194,59.479,19.668,59.479,20.385z"/>
	<path fill="#231F20" d="M66.256,19.713c0,0.615-0.012,1.446-0.038,2.496c-0.013,0.333-0.019,0.691-0.019,1.075
		c0,0.269,0.006,0.492,0.019,0.672l0.02,1.382c0,0.421-0.007,0.749-0.02,0.979c-0.269,0.063-0.686,0.096-1.248,0.096
		c-0.166-0.244-0.301-0.558-0.403-0.941c-0.474,0.845-0.99,1.268-1.555,1.268c-0.308,0-0.593-0.066-0.854-0.201
		c-0.263-0.134-0.444-0.317-0.547-0.547c-0.154-0.347-0.247-0.628-0.28-0.845c-0.03-0.217-0.054-0.55-0.067-0.999l-0.019-1.42
		l0.019-1.575c0.027-0.948,0.038-1.651,0.038-2.113c0-0.575-0.002-0.985-0.008-1.229c-0.008-0.241-0.011-0.396-0.011-0.46
		c0-0.371,0.088-0.609,0.269-0.711c0.18-0.101,0.493-0.152,0.94-0.152l0.518,0.095c0.039,0.449,0.058,2.26,0.058,5.434
		c0,0.154-0.007,0.282-0.019,0.384c-0.028,0.333-0.039,0.621-0.039,0.865c0,1.036,0.231,1.555,0.691,1.555
		c0.179,0,0.33-0.144,0.451-0.431c0.122-0.289,0.229-0.683,0.317-1.18c0.014-0.41,0.02-0.967,0.02-1.671
		c0-0.78-0.006-1.248-0.02-1.401c-0.014-0.256-0.02-0.64-0.02-1.153l0.02-1.458c0-0.308,0.077-0.517,0.231-0.625
		c0.152-0.109,0.363-0.163,0.632-0.163c0.129,0,0.249,0.006,0.365,0.02c0.115,0.012,0.226,0.019,0.326,0.019
		c0.103,0,0.163,0.039,0.184,0.115c0.02,0.077,0.025,0.176,0.02,0.297c-0.007,0.121-0.011,0.214-0.011,0.277
		c0,0.679,0.007,1.216,0.021,1.613L66.256,19.713z"/>
	<path fill="#231F20" d="M72.314,23.506c0.107,0.108,0.195,0.213,0.259,0.317c0.064,0.104,0.097,0.217,0.097,0.346
		c0,0.089-0.021,0.191-0.058,0.306c-0.282,0.705-0.597,1.24-0.941,1.603c-0.345,0.365-0.742,0.549-1.189,0.549
		c-0.589,0-1.075-0.129-1.461-0.385c-0.385-0.255-0.659-0.698-0.826-1.324c-0.269-0.974-0.402-2.215-0.402-3.725
		c0-0.833,0.129-1.684,0.384-2.554c0.141-0.486,0.416-0.963,0.826-1.43s0.82-0.701,1.229-0.701c0.64-0.013,1.158,0.196,1.555,0.625
		c0.397,0.429,0.691,1.147,0.884,2.16c0.103,0.588,0.153,1.107,0.153,1.555c0,0.538-0.071,0.929-0.211,1.171l-0.576,0.096
		c-0.512,0.141-1.089,0.211-1.729,0.211c-0.307,0-0.544-0.006-0.712-0.019v0.384c0,0.781,0.069,1.354,0.201,1.719
		c0.136,0.365,0.312,0.546,0.529,0.546c0.191,0,0.349-0.089,0.47-0.269c0.121-0.179,0.267-0.447,0.433-0.806
		c0.115-0.269,0.211-0.467,0.287-0.595c0.091-0.115,0.181-0.173,0.27-0.173c0.064,0,0.159,0.051,0.29,0.154
		C72.125,23.317,72.204,23.397,72.314,23.506z M69.808,18.484c-0.154,0.461-0.237,1.178-0.249,2.15v0.115
		c0.32,0,0.563,0.007,0.729,0.02c0.116,0,0.241,0.002,0.375,0.01c0.134,0.006,0.259,0.002,0.374-0.01
		c0.103,0,0.154-0.205,0.154-0.615c0-0.205-0.007-0.345-0.02-0.422c-0.051-0.587-0.135-1.058-0.25-1.411
		c-0.114-0.353-0.293-0.527-0.537-0.527C70.156,17.793,69.961,18.023,69.808,18.484z"/>
	<path fill="#231F20" d="M74.849,26.01c-0.39-0.32-0.643-0.825-0.759-1.516c-0.037-0.193-0.058-0.346-0.058-0.461
		c0-0.256,0.052-0.433,0.152-0.529c0.103-0.096,0.296-0.203,0.577-0.317c0.18,0,0.307,0.024,0.383,0.066
		c0.079,0.045,0.136,0.151,0.174,0.317c0.116,0.474,0.238,0.83,0.365,1.066c0.128,0.237,0.333,0.356,0.614,0.356
		c0.19,0,0.386-0.106,0.585-0.317c0.198-0.211,0.297-0.482,0.297-0.816c0-0.32-0.104-0.646-0.316-0.98
		c-0.211-0.333-0.47-0.614-0.777-0.844c-0.269-0.192-0.537-0.464-0.806-0.817c-0.269-0.351-0.468-0.674-0.596-0.969
		c-0.219-0.474-0.327-0.941-0.327-1.401c0-0.103,0.013-0.269,0.037-0.5c0.065-0.601,0.293-1.1,0.682-1.498
		c0.393-0.396,0.855-0.595,1.393-0.595c0.461,0,0.923,0.147,1.383,0.442c0.217,0.127,0.387,0.315,0.509,0.565
		c0.121,0.25,0.188,0.509,0.201,0.777c0.026,0.435,0.031,0.743,0.02,0.921l-0.77,0.154c-0.167,0-0.293-0.078-0.384-0.23
		c-0.089-0.154-0.134-0.359-0.134-0.615c0-0.192-0.063-0.369-0.191-0.528c-0.129-0.16-0.294-0.24-0.499-0.24
		c-0.09,0-0.153,0.006-0.192,0.019c-0.205,0.077-0.354,0.247-0.451,0.508c-0.098,0.262-0.138,0.49-0.126,0.681
		c0.027,0.244,0.144,0.522,0.354,0.835c0.212,0.315,0.414,0.542,0.605,0.683c0.537,0.409,0.908,0.74,1.113,0.987
		c0.205,0.249,0.384,0.593,0.538,1.028c0.078,0.192,0.137,0.43,0.184,0.711c0.045,0.281,0.067,0.544,0.067,0.788
		c0,0.127-0.014,0.255-0.039,0.384c-0.114,0.845-0.396,1.42-0.845,1.728c-0.281,0.192-0.56,0.346-0.834,0.461
		c-0.274,0.115-0.592,0.173-0.95,0.173C75.633,26.49,75.239,26.33,74.849,26.01z"/>
	<path fill="#231F20" d="M84.439,25.703c0,0.167-0.045,0.295-0.135,0.385c-0.229,0.242-0.468,0.417-0.71,0.526
		c-0.244,0.109-0.582,0.165-1.018,0.165c-0.232,0-0.465-0.087-0.701-0.26c-0.237-0.174-0.432-0.471-0.585-0.894
		c-0.153-0.422-0.219-0.979-0.192-1.67l-0.058-1.614c0-0.037-0.004-0.142-0.01-0.317c-0.007-0.172-0.009-0.451-0.009-0.833
		c0-0.308,0.013-0.794,0.036-1.46c0-0.089,0.006-0.236,0.021-0.441c0.012-0.205,0.019-0.499,0.019-0.883
		c-0.115,0.013-0.281,0.019-0.499,0.019c-0.308,0-0.487-0.033-0.537-0.096c-0.09-0.103-0.136-0.25-0.136-0.441
		c0-0.09,0.007-0.16,0.02-0.211l0.078-0.845c0.27,0.012,0.634,0.019,1.093,0.019l-0.036-1.305l-0.021-0.827
		c0-0.486,0.052-0.772,0.154-0.863c0.281-0.256,0.634-0.384,1.056-0.384c0.09,0,0.275,0.026,0.557,0.076
		c0.015,0.231,0.021,0.558,0.021,0.98l-0.021,1.382c-0.013,0.179-0.019,0.402-0.019,0.671v0.269c0.986,0,1.497,0.02,1.536,0.058
		c0.051,0.039,0.076,0.174,0.076,0.404c0,0.154-0.013,0.384-0.036,0.691l-0.079,0.365c-0.64-0.026-1.126-0.039-1.459-0.039
		c0.052,1.229,0.064,2.049,0.039,2.458c-0.027,0.333-0.039,0.793-0.039,1.382l0.019,1.766c0,0.32,0.042,0.562,0.127,0.721
		c0.081,0.16,0.183,0.26,0.296,0.296c0.039,0.014,0.084,0.02,0.135,0.02c0.076,0,0.149-0.035,0.221-0.106
		c0.069-0.071,0.125-0.119,0.163-0.144c0.025-0.012,0.058-0.019,0.097-0.019c0.063,0,0.124,0.031,0.183,0.095
		c0.058,0.065,0.111,0.135,0.162,0.211C84.372,25.243,84.439,25.473,84.439,25.703z"/>
	<path fill="#231F20" d="M89.028,16.334c0.205,0,0.416,0.045,0.634,0.134v1.191c0,0.396-0.055,0.671-0.164,0.825
		c-0.108,0.154-0.207,0.224-0.297,0.211c-0.41-0.09-0.691-0.141-0.845-0.154c-0.307-0.051-0.544,0.166-0.711,0.652
		c-0.038,0.857-0.057,1.645-0.057,2.363c0,0.614,0.012,1.087,0.037,1.42c0.014,0.256,0.02,0.64,0.02,1.152l-0.02,1.459
		c0,0.307-0.077,0.516-0.231,0.624c-0.153,0.109-0.365,0.163-0.634,0.163c-0.127,0-0.251-0.006-0.373-0.019
		c-0.123-0.014-0.234-0.02-0.337-0.02c-0.09,0-0.147-0.042-0.172-0.125c-0.028-0.084-0.035-0.187-0.029-0.308
		c0.007-0.122,0.009-0.209,0.009-0.26l0.021-0.998c0-0.282-0.007-0.487-0.021-0.615c-0.013-0.103-0.019-0.359-0.019-0.768
		c0-0.627,0.013-1.44,0.039-2.438c0.012-0.308,0.019-0.64,0.019-0.999l-0.019-0.73c-0.028-0.563-0.039-1.069-0.039-1.516
		l0.019-0.788c0.271-0.064,0.686-0.096,1.25-0.096c0.139,0.27,0.256,0.506,0.345,0.711c0.399-0.652,0.814-1.005,1.25-1.056
		C88.778,16.341,88.887,16.334,89.028,16.334z"/>
	<path fill="#231F20" d="M91.878,26.194c-0.401-0.199-0.668-0.555-0.797-1.066c-0.218-0.833-0.365-2.042-0.441-3.629l-0.02-0.558
		c0-1.101,0.166-2.029,0.5-2.784c0.499-1.089,1.145-1.632,1.938-1.632c0.552,0,0.999,0.1,1.345,0.297
		c0.347,0.199,0.62,0.541,0.827,1.027c0.357,0.884,0.537,1.818,0.537,2.804l-0.021,0.998c0,0.385-0.031,0.89-0.095,1.518
		c-0.064,0.627-0.129,1.056-0.192,1.286c-0.191,0.653-0.466,1.156-0.825,1.508c-0.358,0.353-0.77,0.529-1.229,0.529
		C92.789,26.49,92.281,26.39,91.878,26.194z M93.961,21.172c0.013-0.333,0.021-0.729,0.021-1.19c0-0.679-0.067-1.163-0.201-1.45
		c-0.136-0.289-0.33-0.431-0.585-0.431c-0.244,0-0.41,0.154-0.502,0.46c-0.088,0.308-0.179,0.903-0.269,1.787
		c-0.013,0.076-0.019,0.224-0.019,0.441l0.019,1.555c0.014,0.947,0.079,1.624,0.192,2.026c0.114,0.404,0.307,0.606,0.576,0.606
		c0.241,0,0.432-0.141,0.565-0.422s0.195-0.704,0.184-1.268C93.929,22.989,93.935,22.285,93.961,21.172z"/>
</g>
<g>
	<path fill="#231F20" d="M12.22,40.237c0.057,0.742,0.085,1.324,0.085,1.747c0,1.14-0.134,2.208-0.403,3.208
		c-0.191,0.676-0.449,1.145-0.769,1.399c-0.32,0.258-0.723,0.385-1.209,0.385c-0.32,0-0.647-0.241-0.98-0.729
		c0.013,0.641,0.02,1.541,0.02,2.706v0.712c-0.037,0.229-0.112,0.377-0.221,0.442c-0.108,0.063-0.219,0.103-0.326,0.115
		c-0.11,0.012-0.183,0.019-0.221,0.019c-0.051,0.014-0.123,0.02-0.211,0.02c-0.449,0-0.729-0.18-0.845-0.537
		c0.014-0.18,0.02-0.53,0.02-1.055l-0.02-2.958l0.02-3.571l0.02-1.709c-0.013-0.255-0.02-0.634-0.02-1.134
		c0-0.46,0.003-0.793,0.01-0.997s0.01-0.327,0.01-0.364c0-0.307,0.051-0.516,0.154-0.625c0.102-0.108,0.249-0.162,0.441-0.162
		c0.09,0,0.189,0.006,0.298,0.019c0.108,0.014,0.213,0.021,0.317,0.021c0.036,0,0.092,0.082,0.163,0.248
		c0.07,0.168,0.136,0.378,0.201,0.634c0.385-0.703,0.902-1.056,1.556-1.056c0.269,0,0.486,0.042,0.652,0.126
		c0.167,0.083,0.323,0.24,0.47,0.47s0.317,0.583,0.507,1.056C12.069,38.97,12.163,39.496,12.22,40.237z M10.52,41.6
		c0-0.537-0.006-0.87-0.02-0.997c-0.038-0.69-0.105-1.203-0.2-1.535c-0.096-0.333-0.28-0.5-0.548-0.5c-0.14,0-0.279,0.08-0.412,0.24
		c-0.135,0.159-0.26,0.375-0.375,0.644c0.026,0.667,0.013,1.67-0.037,3.014l-0.021,1.113v0.326c0.244,0.91,0.513,1.363,0.808,1.363
		c0.255,0,0.435-0.191,0.538-0.576c0.103-0.384,0.18-1.004,0.231-1.863C10.507,42.548,10.52,42.139,10.52,41.6z"/>
	<path fill="#231F20" d="M13.985,46.612c-0.031-0.139-0.045-0.288-0.037-0.441c0.006-0.154,0.008-0.257,0.008-0.308v-0.864
		c0-0.485-0.006-0.824-0.019-1.017c-0.027-0.513-0.013-1.37,0.039-2.573l0.019-1.095l-0.019-1.574
		c-0.039-3.097-0.051-4.857-0.039-5.279c0.051-0.013,0.121-0.035,0.211-0.067c0.088-0.031,0.182-0.051,0.279-0.06
		c0.096-0.005,0.213-0.008,0.355-0.008c0.281,0,0.52,0.048,0.72,0.144c0.199,0.096,0.292,0.323,0.279,0.683
		c-0.038,0.241-0.058,1.292-0.058,3.147v2.092c0,0.833-0.007,1.544-0.02,2.133c-0.012,0.589-0.019,1.063-0.019,1.42l-0.021,0.518
		c0.014,0.385,0.021,0.991,0.021,1.825v1.075c0,0.319-0.263,0.479-0.788,0.479l-0.672-0.02
		C14.098,46.823,14.016,46.753,13.985,46.612z"/>
	<path fill="#231F20" d="M22.405,41.582c0,0.473-0.007,0.895-0.02,1.268c-0.013,0.37-0.019,0.587-0.019,0.652
		c0.013,0.755,0.019,1.619,0.019,2.593c0,0.292-0.058,0.495-0.173,0.604c-0.115,0.108-0.276,0.164-0.48,0.164
		c-0.103,0-0.211-0.008-0.326-0.021c-0.116-0.014-0.225-0.02-0.328-0.02c-0.065,0-0.152-0.275-0.269-0.826
		c-0.511,0.653-0.998,0.979-1.46,0.979c-0.435,0-0.783-0.085-1.045-0.26c-0.263-0.173-0.484-0.489-0.664-0.949
		c-0.154-0.409-0.23-0.967-0.23-1.671c0-0.5,0.038-0.973,0.115-1.42c0.078-0.449,0.191-0.786,0.346-1.018
		c0.306-0.5,0.575-0.822,0.806-0.97c0.231-0.146,0.569-0.222,1.019-0.222c0.407,0,0.727,0.146,0.96,0.441l0.036-0.996
		c0-0.385-0.058-0.737-0.172-1.058c-0.115-0.318-0.308-0.492-0.577-0.518c-0.357-0.025-0.662,0.041-0.911,0.201
		c-0.249,0.161-0.426,0.324-0.529,0.49c-0.23-0.14-0.384-0.257-0.458-0.347c-0.079-0.089-0.135-0.237-0.174-0.442
		c0-0.218,0.047-0.415,0.144-0.595c0.095-0.179,0.278-0.371,0.548-0.576c0.204-0.152,0.415-0.251,0.632-0.297
		c0.217-0.045,0.501-0.067,0.845-0.067c0.511,0,0.941,0.137,1.286,0.411c0.347,0.278,0.576,0.587,0.691,0.935
		C22.278,38.843,22.405,40.019,22.405,41.582z M20.638,44.499l-0.019-0.997l0.019-1.171c-0.153-0.41-0.372-0.614-0.653-0.614
		c-0.269-0.014-0.467,0.224-0.595,0.711c-0.129,0.486-0.192,1.03-0.192,1.632c0,0.421,0.075,0.737,0.222,0.95
		c0.145,0.21,0.292,0.316,0.431,0.316C20.158,45.326,20.42,45.051,20.638,44.499z"/>
	<path fill="#231F20" d="M29.22,40.872c0,0.742-0.006,1.267-0.019,1.572c-0.027,0.668-0.039,1.57-0.039,2.706v0.902
		c0,0.373-0.089,0.609-0.269,0.712c-0.18,0.103-0.492,0.153-0.94,0.153l-0.5-0.096c-0.037-0.449-0.057-2.195-0.057-5.241l0.02-0.423
		c0.037-0.294,0.057-0.621,0.057-0.98c0-1.022-0.225-1.534-0.671-1.534c-0.294,0-0.551,0.255-0.769,0.768
		c-0.038,0.923-0.058,1.766-0.058,2.534l0.02,1.517c0.013,0.256,0.019,0.64,0.019,1.151l-0.019,1.46
		c0,0.308-0.079,0.515-0.231,0.624c-0.154,0.108-0.365,0.163-0.634,0.163c-0.129,0-0.249-0.007-0.364-0.02
		c-0.116-0.014-0.225-0.021-0.328-0.021s-0.163-0.037-0.183-0.114c-0.02-0.076-0.026-0.177-0.02-0.297
		c0.006-0.121,0.01-0.214,0.01-0.279c0-0.677-0.013-1.214-0.039-1.613c0-0.127,0.014-1.068,0.039-2.822l0.019-1.383
		c0-0.306-0.006-0.568-0.019-0.786c-0.026-0.819-0.031-1.568-0.02-2.247c0.283-0.063,0.705-0.095,1.266-0.095
		c0.167,0.27,0.295,0.55,0.385,0.844c0.46-0.779,0.986-1.172,1.574-1.172c0.308,0,0.591,0.069,0.854,0.201
		c0.263,0.136,0.446,0.317,0.548,0.549c0.153,0.346,0.246,0.627,0.28,0.844c0.03,0.218,0.054,0.552,0.067,0.999
		C29.215,39.68,29.22,40.154,29.22,40.872z"/>
	<path fill="#231F20" d="M38.994,34.92l0.019,3.264c0,1.15-0.013,2.406-0.038,3.764l-0.02,1.516c0.026,0.668,0.039,1.151,0.039,1.46
		c0,0.386-0.003,0.663-0.011,0.834c-0.006,0.175-0.009,0.28-0.009,0.317c0,0.308-0.045,0.516-0.134,0.624
		c-0.09,0.108-0.224,0.164-0.402,0.164c-0.089,0-0.183-0.008-0.279-0.021c-0.096-0.014-0.201-0.02-0.316-0.02
		c-0.026,0-0.083-0.103-0.173-0.307c-0.089-0.204-0.173-0.437-0.249-0.691c-0.436,0.768-0.865,1.151-1.288,1.151
		c-0.486,0-0.882-0.118-1.19-0.354c-0.307-0.239-0.557-0.695-0.749-1.373c-0.205-0.781-0.328-1.869-0.365-3.265
		c0-0.346,0.045-0.89,0.134-1.633c0.089-0.741,0.198-1.272,0.326-1.592c0.205-0.486,0.392-0.852,0.558-1.094
		c0.167-0.243,0.348-0.413,0.547-0.509c0.2-0.097,0.453-0.144,0.759-0.144c0.397,0,0.743,0.186,1.038,0.559
		c-0.012-0.692-0.02-1.69-0.02-2.995v-0.828c0.039-0.166,0.116-0.274,0.231-0.326c0.115-0.051,0.228-0.08,0.336-0.087
		c0.109-0.005,0.176-0.009,0.202-0.009c0.55-0.052,0.909,0.072,1.075,0.365C39,33.894,38.994,34.305,38.994,34.92z M37.169,44.096
		c-0.013-0.308,0-1.241,0.039-2.801c0.013-0.295,0.019-0.621,0.019-0.981v-0.845c-0.101-0.281-0.221-0.505-0.354-0.672
		c-0.135-0.165-0.266-0.248-0.395-0.248c-0.269,0-0.462,0.188-0.586,0.558c-0.121,0.372-0.213,0.914-0.277,1.631l-0.02,0.634
		c0,0.229,0.013,0.718,0.039,1.46c0.038,0.82,0.115,1.429,0.23,1.834c0.117,0.402,0.301,0.604,0.558,0.604
		C36.664,45.268,36.914,44.877,37.169,44.096z"/>
	<path fill="#231F20" d="M45.052,43.992c0.107,0.107,0.195,0.214,0.259,0.316c0.063,0.103,0.096,0.217,0.096,0.347
		c0,0.088-0.021,0.19-0.058,0.306c-0.284,0.705-0.596,1.24-0.941,1.604c-0.344,0.364-0.743,0.548-1.19,0.548
		c-0.588,0-1.075-0.13-1.461-0.385c-0.384-0.255-0.659-0.699-0.825-1.325c-0.269-0.974-0.404-2.214-0.404-3.726
		c0-0.831,0.13-1.682,0.385-2.552c0.14-0.487,0.415-0.964,0.826-1.431c0.41-0.467,0.819-0.702,1.229-0.702
		c0.64-0.013,1.159,0.196,1.555,0.625c0.397,0.429,0.691,1.147,0.884,2.16c0.103,0.589,0.154,1.107,0.154,1.555
		c0,0.539-0.073,0.929-0.211,1.172L44.773,42.6c-0.512,0.14-1.089,0.211-1.729,0.211c-0.307,0-0.545-0.006-0.711-0.019v0.383
		c0,0.782,0.067,1.354,0.201,1.72c0.135,0.364,0.312,0.547,0.529,0.547c0.19,0,0.348-0.088,0.47-0.27
		c0.121-0.179,0.266-0.447,0.432-0.806c0.115-0.269,0.211-0.467,0.288-0.596c0.09-0.116,0.18-0.173,0.269-0.173
		c0.063,0,0.16,0.052,0.29,0.154C44.862,43.802,44.942,43.882,45.052,43.992z M42.545,38.97c-0.154,0.461-0.237,1.178-0.249,2.15
		v0.116c0.32,0,0.563,0.006,0.729,0.019c0.115,0,0.241,0.004,0.375,0.01c0.134,0.008,0.259,0.004,0.374-0.01
		c0.103,0,0.154-0.204,0.154-0.614c0-0.202-0.006-0.346-0.019-0.421c-0.051-0.589-0.135-1.059-0.25-1.412
		c-0.115-0.354-0.293-0.528-0.538-0.528C42.891,38.279,42.699,38.51,42.545,38.97z"/>
	<path fill="#231F20" d="M54.506,46.189c0,0.169-0.043,0.295-0.134,0.387c-0.229,0.241-0.467,0.417-0.71,0.527
		c-0.243,0.107-0.582,0.162-1.017,0.162c-0.232,0-0.465-0.086-0.703-0.259c-0.236-0.174-0.431-0.471-0.585-0.894
		c-0.152-0.421-0.219-0.978-0.191-1.67l-0.058-1.614c0-0.036-0.004-0.143-0.01-0.315c-0.007-0.174-0.01-0.452-0.01-0.836
		c0-0.306,0.014-0.792,0.038-1.458c0-0.089,0.006-0.237,0.02-0.442c0.014-0.205,0.02-0.5,0.02-0.882
		c-0.115,0.013-0.281,0.018-0.5,0.018c-0.307,0-0.488-0.031-0.538-0.095c-0.089-0.103-0.134-0.249-0.134-0.442
		c0-0.089,0.006-0.16,0.019-0.21l0.079-0.846c0.269,0.013,0.634,0.021,1.093,0.021l-0.036-1.308l-0.021-0.825
		c0-0.487,0.051-0.773,0.154-0.865c0.281-0.255,0.634-0.384,1.056-0.384c0.089,0,0.275,0.026,0.556,0.078
		c0.015,0.231,0.021,0.556,0.021,0.979l-0.021,1.383c-0.012,0.18-0.019,0.402-0.019,0.671v0.271c0.985,0,1.497,0.019,1.536,0.057
		c0.052,0.038,0.076,0.174,0.076,0.403c0,0.152-0.013,0.384-0.037,0.69l-0.078,0.364c-0.64-0.026-1.126-0.037-1.458-0.037
		c0.051,1.229,0.064,2.048,0.038,2.457c-0.026,0.334-0.038,0.794-0.038,1.383l0.019,1.766c0,0.32,0.041,0.562,0.125,0.722
		c0.083,0.16,0.184,0.259,0.298,0.296c0.038,0.016,0.082,0.021,0.133,0.021c0.078,0,0.15-0.035,0.222-0.105
		c0.07-0.069,0.125-0.117,0.164-0.144c0.024-0.014,0.058-0.019,0.095-0.019c0.065,0,0.125,0.03,0.184,0.095
		c0.058,0.065,0.111,0.134,0.163,0.211C54.442,45.729,54.506,45.959,54.506,46.189z"/>
	<path fill="#231F20" d="M59.094,36.819c0.205,0,0.416,0.045,0.634,0.134v1.191c0,0.397-0.055,0.671-0.164,0.826
		c-0.108,0.155-0.207,0.224-0.296,0.211c-0.41-0.09-0.691-0.141-0.845-0.153c-0.307-0.052-0.544,0.166-0.71,0.652
		c-0.039,0.858-0.06,1.646-0.06,2.362c0,0.614,0.015,1.089,0.039,1.42c0.013,0.257,0.021,0.641,0.021,1.151l-0.021,1.46
		c0,0.308-0.077,0.516-0.231,0.624c-0.153,0.108-0.364,0.164-0.634,0.164c-0.127,0-0.252-0.008-0.373-0.021
		c-0.123-0.014-0.234-0.02-0.337-0.02c-0.09,0-0.147-0.04-0.174-0.125c-0.025-0.084-0.033-0.186-0.027-0.307
		c0.007-0.122,0.009-0.209,0.009-0.26l0.021-0.996c0-0.284-0.007-0.488-0.021-0.615c-0.013-0.103-0.019-0.358-0.019-0.768
		c0-0.628,0.013-1.44,0.037-2.44c0.014-0.306,0.021-0.639,0.021-0.997l-0.021-0.729c-0.025-0.563-0.037-1.067-0.037-1.518
		l0.019-0.788c0.271-0.063,0.686-0.095,1.25-0.095c0.139,0.271,0.255,0.507,0.345,0.71c0.398-0.652,0.814-1.004,1.249-1.055
		C58.845,36.827,58.954,36.819,59.094,36.819z"/>
	<path fill="#231F20" d="M65.796,41.582c0,0.473-0.006,0.895-0.019,1.268c-0.013,0.37-0.02,0.587-0.02,0.652
		c0.014,0.755,0.02,1.619,0.02,2.593c0,0.292-0.058,0.495-0.172,0.604c-0.117,0.108-0.278,0.164-0.48,0.164
		c-0.103,0-0.211-0.008-0.327-0.021c-0.116-0.014-0.226-0.02-0.328-0.02c-0.063,0-0.152-0.275-0.269-0.826
		c-0.51,0.653-0.996,0.979-1.459,0.979c-0.435,0-0.783-0.085-1.046-0.26c-0.263-0.173-0.483-0.489-0.662-0.949
		c-0.154-0.409-0.23-0.967-0.23-1.671c0-0.5,0.036-0.973,0.115-1.42c0.076-0.449,0.189-0.786,0.345-1.018
		c0.308-0.5,0.576-0.822,0.807-0.97c0.232-0.146,0.569-0.222,1.019-0.222c0.408,0,0.729,0.146,0.96,0.441l0.037-0.996
		c0-0.385-0.058-0.737-0.172-1.058c-0.115-0.318-0.308-0.492-0.576-0.518c-0.359-0.025-0.663,0.041-0.912,0.201
		c-0.25,0.161-0.426,0.324-0.528,0.49c-0.229-0.14-0.384-0.257-0.46-0.347c-0.077-0.089-0.134-0.237-0.174-0.442
		c0-0.218,0.049-0.415,0.146-0.595c0.095-0.179,0.277-0.371,0.546-0.576c0.205-0.152,0.416-0.251,0.634-0.297
		c0.218-0.045,0.5-0.067,0.845-0.067c0.51,0,0.94,0.137,1.286,0.411c0.347,0.278,0.576,0.587,0.691,0.935
		C65.669,38.843,65.796,40.019,65.796,41.582z M64.031,44.499l-0.019-0.997l0.019-1.171c-0.154-0.41-0.371-0.614-0.652-0.614
		c-0.27-0.014-0.468,0.224-0.596,0.711c-0.13,0.486-0.192,1.03-0.192,1.632c0,0.421,0.074,0.737,0.222,0.95
		c0.146,0.21,0.292,0.316,0.431,0.316C63.55,45.326,63.813,45.051,64.031,44.499z"/>
	<path fill="#231F20" d="M72.67,40.219c0.05,0.729,0.076,1.317,0.076,1.766c0,0.705-0.033,1.297-0.106,1.776
		c-0.069,0.48-0.162,0.956-0.277,1.432c-0.191,0.676-0.451,1.145-0.776,1.399c-0.326,0.258-0.733,0.386-1.22,0.386
		c-0.41,0-0.82-0.378-1.229-1.133c-0.078,0.281-0.154,0.515-0.231,0.7c-0.076,0.188-0.134,0.278-0.173,0.278
		c-0.114,0-0.221,0.008-0.317,0.021c-0.096,0.013-0.188,0.02-0.277,0.02c-0.18,0-0.312-0.055-0.394-0.163
		c-0.084-0.109-0.126-0.316-0.126-0.624v-1.46v-1.151c0.014-0.115,0.006-1.088-0.021-2.918l-0.019-2.362v-0.711l0.019-2.802
		c0-0.5-0.006-0.826-0.019-0.979c0.089-0.141,0.229-0.242,0.423-0.308c0.19-0.063,0.408-0.083,0.652-0.058
		c0.205,0.014,0.368,0.041,0.489,0.086c0.122,0.045,0.208,0.158,0.259,0.337v0.827c0,1.396-0.006,2.463-0.02,3.205
		c0.358-0.512,0.813-0.769,1.363-0.769c0.27,0,0.489,0.042,0.662,0.126c0.175,0.081,0.335,0.24,0.479,0.47
		c0.147,0.23,0.317,0.583,0.509,1.056C72.528,38.97,72.617,39.489,72.67,40.219z M70.979,41.485c0-0.474-0.006-0.769-0.02-0.882
		c-0.038-0.678-0.109-1.191-0.21-1.535c-0.104-0.348-0.289-0.519-0.558-0.519c-0.154,0-0.304,0.099-0.453,0.297
		c-0.148,0.199-0.278,0.451-0.394,0.759v0.71c0,0.359,0.007,0.691,0.021,0.998c0.037,1.575,0.05,2.516,0.037,2.822
		c0.231,0.782,0.486,1.173,0.769,1.173c0.243,0,0.415-0.195,0.518-0.587c0.103-0.39,0.187-1.021,0.25-1.893
		C70.968,42.51,70.979,42.061,70.979,41.485z"/>
	<path fill="#231F20" d="M79.12,41.582c0,0.473-0.007,0.895-0.019,1.268c-0.014,0.37-0.021,0.587-0.021,0.652
		c0.014,0.755,0.021,1.619,0.021,2.593c0,0.292-0.058,0.495-0.174,0.604c-0.115,0.108-0.276,0.164-0.48,0.164
		c-0.103,0-0.211-0.008-0.326-0.021c-0.116-0.014-0.225-0.02-0.327-0.02c-0.063,0-0.152-0.275-0.269-0.826
		c-0.511,0.653-0.998,0.979-1.459,0.979c-0.436,0-0.784-0.085-1.047-0.26c-0.262-0.173-0.483-0.489-0.662-0.949
		c-0.153-0.409-0.231-0.967-0.231-1.671c0-0.5,0.038-0.973,0.116-1.42c0.076-0.449,0.19-0.786,0.346-1.018
		c0.307-0.5,0.576-0.822,0.806-0.97c0.231-0.146,0.57-0.222,1.019-0.222c0.409,0,0.729,0.146,0.96,0.441l0.038-0.996
		c0-0.385-0.058-0.737-0.173-1.058c-0.115-0.318-0.308-0.492-0.576-0.518c-0.358-0.025-0.664,0.041-0.911,0.201
		c-0.25,0.161-0.426,0.324-0.528,0.49c-0.23-0.14-0.384-0.257-0.46-0.347c-0.078-0.089-0.134-0.237-0.174-0.442
		c0-0.218,0.049-0.415,0.145-0.595c0.094-0.179,0.277-0.371,0.546-0.576c0.205-0.152,0.417-0.251,0.634-0.297
		c0.218-0.045,0.5-0.067,0.846-0.067c0.51,0,0.939,0.137,1.286,0.411c0.346,0.278,0.576,0.587,0.691,0.935
		C78.992,38.843,79.12,40.019,79.12,41.582z M77.354,44.499l-0.02-0.997l0.02-1.171c-0.153-0.41-0.371-0.614-0.652-0.614
		c-0.269-0.014-0.468,0.224-0.596,0.711c-0.129,0.486-0.191,1.03-0.191,1.632c0,0.421,0.073,0.737,0.221,0.95
		c0.146,0.21,0.291,0.316,0.432,0.316C76.874,45.326,77.137,45.051,77.354,44.499z"/>
	<path fill="#231F20" d="M82.731,47.957c-0.167,0.78-0.386,1.329-0.654,1.64c-0.269,0.315-0.646,0.472-1.133,0.472
		c-0.23,0-0.496-0.041-0.797-0.125c-0.299-0.084-0.527-0.195-0.682-0.336c-0.089-0.117-0.134-0.283-0.134-0.5
		c0-0.27,0.059-0.52,0.174-0.749c0.103-0.181,0.184-0.3,0.241-0.365s0.125-0.077,0.2-0.037c0.219,0.128,0.403,0.19,0.558,0.19
		c0.18,0,0.323-0.085,0.433-0.258c0.108-0.174,0.163-0.44,0.163-0.798c-0.014-0.191-0.016-0.39-0.01-0.595
		c0.007-0.205,0.01-0.391,0.01-0.558v-0.729c0-0.485-0.007-0.8-0.02-0.94c-0.026-0.562-0.014-1.542,0.037-2.938l0.021-1.113
		l-0.021-0.75c-0.037-0.972-0.051-1.67-0.037-2.092c0.371-0.103,0.723-0.154,1.057-0.154c0.383,0,0.619,0.078,0.71,0.232
		c0.051,0.153,0.077,0.396,0.077,0.728c0,0.335,0,0.531,0,0.597c-0.014,0.642-0.021,1.572-0.021,2.803v1.67
		c0.015,0.242,0.021,0.672,0.021,1.287l-0.021,1.882L82.731,47.957z M81.116,35.36c-0.152-0.202-0.218-0.531-0.191-0.979
		c0.026-0.27,0.146-0.505,0.355-0.71s0.483-0.308,0.816-0.308c0.128,0,0.239,0.025,0.336,0.076c0.096,0.052,0.214,0.123,0.354,0.212
		c0.115,0.078,0.209,0.198,0.279,0.364c0.07,0.167,0.093,0.326,0.067,0.48c-0.052,0.346-0.17,0.627-0.354,0.845
		c-0.188,0.218-0.434,0.326-0.74,0.326C81.566,35.668,81.259,35.565,81.116,35.36z"/>
	<path fill="#231F20" d="M85.715,46.68c-0.402-0.198-0.669-0.555-0.796-1.065c-0.218-0.832-0.365-2.043-0.442-3.63l-0.021-0.558
		c0-1.1,0.166-2.028,0.5-2.783c0.5-1.088,1.146-1.633,1.94-1.633c0.55,0,0.997,0.101,1.344,0.298
		c0.346,0.198,0.621,0.541,0.826,1.027c0.357,0.883,0.539,1.817,0.539,2.803l-0.021,0.999c0,0.383-0.03,0.889-0.096,1.516
		c-0.064,0.628-0.128,1.058-0.19,1.288c-0.192,0.652-0.468,1.154-0.826,1.507c-0.358,0.352-0.77,0.527-1.23,0.527
		C86.628,46.976,86.119,46.877,85.715,46.68z M87.799,41.659c0.013-0.333,0.019-0.729,0.019-1.191c0-0.679-0.066-1.161-0.201-1.449
		c-0.134-0.288-0.33-0.432-0.585-0.432c-0.242,0-0.409,0.152-0.5,0.46c-0.091,0.307-0.179,0.901-0.269,1.785
		c-0.013,0.077-0.019,0.225-0.019,0.442l0.019,1.555c0.013,0.948,0.077,1.624,0.192,2.025c0.115,0.403,0.305,0.606,0.575,0.606
		c0.242,0,0.431-0.141,0.566-0.423c0.132-0.28,0.194-0.702,0.182-1.267C87.767,43.478,87.773,42.771,87.799,41.659z"/>
	<path fill="#231F20" d="M91.044,46.534c-0.154-0.191-0.212-0.506-0.174-0.939c0.026-0.241,0.134-0.463,0.326-0.663
		c0.191-0.197,0.437-0.304,0.729-0.317c0.166,0,0.317,0.043,0.453,0.125c0.134,0.084,0.228,0.138,0.278,0.164
		c0.103,0.064,0.183,0.16,0.24,0.29c0.058,0.127,0.086,0.268,0.086,0.422c0,0.346-0.096,0.637-0.289,0.873
		c-0.19,0.238-0.448,0.354-0.769,0.354C91.479,46.843,91.184,46.739,91.044,46.534z"/>
</g>
<path fill="#231F20" d="M117.286,59.092c-0.017-0.087-0.03-0.178-0.041-0.263c-0.045-0.332-0.097-0.666-0.146-0.997
	c-0.099-0.684-0.197-1.369-0.295-2.054c-0.196-1.353-0.676-6.169-0.925-7.518c-0.118-0.657-1.465-0.626-1.429,0.055
	c0.079,1.356,0.418,6.178,0.546,7.534l0.187,1.999c0.031,0.333,0.061,0.667,0.094,1c0.003,0.017,0.003,0.038,0.005,0.057
	c-1.318-0.006-2.649,0.058-3.952,0.11c-1.771,0.071-9.253,0.398-11.014,0.54c-1.053,0.084-0.984,1.277,0.087,1.21
	c1.768-0.113,9.247-0.4,11.022-0.417c1.609-0.017,3.217,0.05,4.824,0.052c0.106,0.013,0.215,0.014,0.32,0.002
	c0.06,0,0.121,0,0.185,0c0.541-0.004,0.976-0.386,0.946-0.768C117.684,59.385,117.52,59.208,117.286,59.092"/>
<path fill="#231F20" d="M-9.373-3.224c0.007,0.09,0.016,0.177,0.021,0.265c0.02,0.334,0.049,0.667,0.073,1.003
	c0.05,0.688,0.1,1.375,0.15,2.061c0.099,1.359,0.235,6.188,0.382,7.544c0.074,0.66,1.42,0.681,1.43,0
	C-7.295,6.29-7.29,1.462-7.321,0.104L-7.366-1.9c-0.006-0.333-0.01-0.668-0.02-1.001c-0.001-0.019,0-0.04-0.001-0.059
	c1.316,0.058,2.649,0.042,3.955,0.042c1.774-0.003,9.267-0.046,11.038-0.12c1.06-0.042,1.074-1.239,0-1.21
	C5.831-4.201-1.658-4.202-3.432-4.252C-5.04-4.297-6.641-4.425-8.246-4.491c-0.105-0.015-0.212-0.021-0.319-0.011
	C-8.626-4.505-8.686-4.51-8.75-4.511c-0.541-0.015-1,0.349-1,0.734C-9.75-3.533-9.601-3.348-9.373-3.224"/>
</svg>
