<svg id="Capa_1" data-name="Capa 1" xmlns="http://www.w3.org/2000/svg" xmlns:xlink="http://www.w3.org/1999/xlink" viewBox="0 0 40.03 28.04"><defs><style>.cls-1{fill:none;}.cls-2{fill:#09a2a4;}.cls-3{clip-path:url(#clip-path);}.cls-4{fill:#fff;}.cls-5{fill:#09a2a5;}</style><clipPath id="clip-path" transform="translate(0)"><rect class="cls-1" width="40.03" height="28.04"/></clipPath></defs><rect class="cls-1" width="40.03" height="28.04"/><path class="cls-2" d="M27.2,4.08,5.18,15.3C2.28,16.78,4,20.08,4,20.08l1.53,3a3.35,3.35,0,0,0,4.58,1.83l22-11.22c2.9-1.48,1.22-4.78,1.22-4.78l-1.53-3A3.35,3.35,0,0,0,27.2,4.08M37.64,2.82l1.8,3.53s2.32,4.54-2.22,6.85l-28,14.25S4.7,29.77,2.39,25.23L.59,21.7s-2.31-4.54,2.23-6.86L30.79.59s4.54-2.31,6.85,2.23" transform="translate(0)"/><g class="cls-3"><path class="cls-4" d="M35.4,5.42a.9.9,0,1,1-1.09.65.9.9,0,0,1,1.09-.65" transform="translate(0)"/></g><rect class="cls-1" width="40.03" height="28.04"/><path class="cls-5" d="M18.59,19.54,32,12.74a3,3,0,0,0,1.33-4.11L32,6.05a3,3,0,0,0-4.11-1.34L19.12,9.2Z" transform="translate(0)"/></svg>