<?xml version="1.0" encoding="utf-8"?>
<!-- Generator: Adobe Illustrator 25.4.1, SVG Export Plug-In . SVG Version: 6.00 Build 0)  -->
<svg version="1.1" id="Capa_1" xmlns="http://www.w3.org/2000/svg" xmlns:xlink="http://www.w3.org/1999/xlink" x="0px" y="0px"
	 viewBox="0 0 80.9 80" style="enable-background:new 0 0 80.9 80;" xml:space="preserve">
<style type="text/css">
	.st0{clip-path:url(#SVGID_00000054245079902953796320000009079497496320711564_);fill:#FFFFFF;}
	.st1{clip-path:url(#SVGID_00000068664073761744766040000004926250802036891523_);fill:#1D1D1B;}
	.st2{clip-path:url(#SVGID_00000147217427963223895050000007191137637168680092_);fill:#1D1D1B;}
	.st3{clip-path:url(#SVGID_00000016052247236969488920000003573662696484614076_);fill:#1D1D1B;}
	.st4{clip-path:url(#SVGID_00000027583607755977881210000001830709672689968266_);fill:#1D1D1B;}
	.st5{clip-path:url(#SVGID_00000158726831335904544770000017617236106762286492_);fill:#1D1D1B;}
	.st6{clip-path:url(#SVGID_00000018202932454107958120000007018286119099283589_);fill:#1D1D1B;}
</style>
<g>
	<g>
		<defs>
			<path id="SVGID_1_" d="M0,40c0,22.1,18.1,40,40.4,40s40.4-17.9,40.4-40S62.8,0,40.4,0S0,17.9,0,40"/>
		</defs>
		<use xlink:href="#SVGID_1_"  style="overflow:visible;fill:#FFFFFF;"/>
		<clipPath id="SVGID_00000139283001902276746170000006809854529334168225_">
			<use xlink:href="#SVGID_1_"  style="overflow:visible;"/>
		</clipPath>
		<path style="clip-path:url(#SVGID_00000139283001902276746170000006809854529334168225_);fill:#FFFFFF;" d="M40.4,48.4
			c-3.9,0-7.1-3.2-7.1-7.1s3.2-7.1,7.1-7.1c3.9,0,7.1,3.2,7.1,7.1S44.3,48.4,40.4,48.4 M45.8,49.4c2.6-1.7,4.3-4.7,4.3-8.1
			c0-5.3-4.3-9.7-9.7-9.7c-5.3,0-9.7,4.3-9.7,9.7c0,3.4,1.7,6.3,4.3,8.1c-5.9,2.2-10.2,7.9-10.2,14.5h2.6c0-7.1,5.8-12.9,12.9-12.9
			c7.1,0,12.9,5.8,12.9,12.9h2.6C55.9,57.2,51.7,51.6,45.8,49.4"/>
	</g>
	<g>
		<defs>
			<path id="SVGID_00000039850088013451381030000016726065280967632527_" d="M0,40c0,22.1,18.1,40,40.4,40s40.4-17.9,40.4-40
				S62.8,0,40.4,0S0,17.9,0,40"/>
		</defs>
		<clipPath id="SVGID_00000047054730179739032040000013959132537055295417_">
			<use xlink:href="#SVGID_00000039850088013451381030000016726065280967632527_"  style="overflow:visible;"/>
		</clipPath>
	</g>
	<g>
		<defs>
			<path id="SVGID_00000155830476946634470400000013779059779994541204_" d="M0,40c0,22.1,18.1,40,40.4,40s40.4-17.9,40.4-40
				S62.8,0,40.4,0S0,17.9,0,40"/>
		</defs>
		<clipPath id="SVGID_00000019671237349263660850000010303321142464135598_">
			<use xlink:href="#SVGID_00000155830476946634470400000013779059779994541204_"  style="overflow:visible;"/>
		</clipPath>
	</g>
	<g>
		<defs>
			<path id="SVGID_00000017502388925136927830000002613032552543236485_" d="M0,40c0,22.1,18.1,40,40.4,40s40.4-17.9,40.4-40
				S62.8,0,40.4,0S0,17.9,0,40"/>
		</defs>
		<clipPath id="SVGID_00000168075984825708839070000014965644622617049478_">
			<use xlink:href="#SVGID_00000017502388925136927830000002613032552543236485_"  style="overflow:visible;"/>
		</clipPath>
	</g>
	<g>
		<defs>
			<path id="SVGID_00000080208169611573335770000013884004766634293888_" d="M0,40c0,22.1,18.1,40,40.4,40s40.4-17.9,40.4-40
				S62.8,0,40.4,0S0,17.9,0,40"/>
		</defs>
		<clipPath id="SVGID_00000065759451627980561770000007450074170254727075_">
			<use xlink:href="#SVGID_00000080208169611573335770000013884004766634293888_"  style="overflow:visible;"/>
		</clipPath>
	</g>
	<g>
		<defs>
			<path id="SVGID_00000059309790682596991550000002695320965228280198_" d="M0,40c0,22.1,18.1,40,40.4,40s40.4-17.9,40.4-40
				S62.8,0,40.4,0S0,17.9,0,40"/>
		</defs>
		<clipPath id="SVGID_00000158733775533850553710000007800700484247463302_">
			<use xlink:href="#SVGID_00000059309790682596991550000002695320965228280198_"  style="overflow:visible;"/>
		</clipPath>
	</g>
</g>
<g>
	<g>
		<defs>
			<path id="SVGID_00000103947335270523286790000014687708578623034032_" d="M0,40c0,22.1,18.1,40,40.4,40s40.4-17.9,40.4-40
				S62.8,0,40.4,0S0,17.9,0,40"/>
		</defs>
		<clipPath id="SVGID_00000108283394828315377130000015434276128970143105_">
			<use xlink:href="#SVGID_00000103947335270523286790000014687708578623034032_"  style="overflow:visible;"/>
		</clipPath>
		<path style="clip-path:url(#SVGID_00000108283394828315377130000015434276128970143105_);fill:#1D1D1B;" d="M40.4,48.4
			c-3.9,0-7.1-3.2-7.1-7.1s3.2-7.1,7.1-7.1c3.9,0,7.1,3.2,7.1,7.1S44.3,48.4,40.4,48.4 M45.8,49.4c2.6-1.7,4.3-4.7,4.3-8.1
			c0-5.3-4.3-9.7-9.7-9.7c-5.3,0-9.7,4.3-9.7,9.7c0,3.4,1.7,6.3,4.3,8.1c-5.9,2.2-10.2,7.9-10.2,14.5h2.6c0-7.1,5.8-12.9,12.9-12.9
			c7.1,0,12.9,5.8,12.9,12.9h2.6C55.9,57.2,51.7,51.6,45.8,49.4"/>
	</g>
	<g>
		<defs>
			<path id="SVGID_00000077290732365474680740000007835827483460286617_" d="M0,40c0,22.1,18.1,40,40.4,40s40.4-17.9,40.4-40
				S62.8,0,40.4,0S0,17.9,0,40"/>
		</defs>
		<clipPath id="SVGID_00000123426723861726105250000005262448813086679458_">
			<use xlink:href="#SVGID_00000077290732365474680740000007835827483460286617_"  style="overflow:visible;"/>
		</clipPath>
		<path style="clip-path:url(#SVGID_00000123426723861726105250000005262448813086679458_);fill:#1D1D1B;" d="M58.7,42.9
			c2.6-1.7,4.3-4.7,4.3-8.1c0-5.3-4.3-9.7-9.7-9.7c-2.6,0-4.9,1-6.7,2.7c-0.6,0.6-1.2,1.3-1.7,2.1c0.8,0.3,1.6,0.7,2.3,1.2
			c0.5-0.7,1-1.4,1.7-1.9c1.2-0.9,2.7-1.5,4.3-1.5c3.9,0,7.1,3.2,7.1,7.1c0,3.3-2.2,6-5.2,6.8c-0.6,0.2-1.3,0.3-1.9,0.3
			c-0.2,0-0.5,0-0.7,0c0,0.9-0.2,1.8-0.4,2.7c0.4,0,0.7-0.1,1.1-0.1c0.5,0,1,0,1.5,0.1c6.4,0.8,11.4,6.2,11.4,12.8h2.6
			C68.9,50.8,64.6,45.1,58.7,42.9"/>
	</g>
	<g>
		<defs>
			<path id="SVGID_00000009572437264566525530000003741248968971111330_" d="M0,40c0,22.1,18.1,40,40.4,40s40.4-17.9,40.4-40
				S62.8,0,40.4,0S0,17.9,0,40"/>
		</defs>
		<clipPath id="SVGID_00000150074246030834776090000008727137983751871925_">
			<use xlink:href="#SVGID_00000009572437264566525530000003741248968971111330_"  style="overflow:visible;"/>
		</clipPath>
		<path style="clip-path:url(#SVGID_00000150074246030834776090000008727137983751871925_);fill:#1D1D1B;" d="M27.5,44.5
			c0.4,0,0.7,0,1.1,0.1c-0.2-0.9-0.4-1.8-0.4-2.7c-0.2,0-0.4,0-0.7,0c-0.7,0-1.3-0.1-1.9-0.3c-3-0.8-5.2-3.6-5.2-6.8
			c0-3.9,3.2-7.1,7.1-7.1c1.6,0,3.1,0.6,4.3,1.5c0.7,0.5,1.3,1.2,1.7,1.9c0.7-0.5,1.5-0.9,2.3-1.2c-0.5-0.8-1-1.5-1.7-2.1
			c-1.7-1.7-4.1-2.7-6.7-2.7c-5.3,0-9.7,4.3-9.7,9.7c0,3.4,1.7,6.3,4.3,8.1C16.3,45.1,12,50.8,12,57.4h2.6c0-6.6,5-12,11.4-12.8
			C26.5,44.6,27,44.5,27.5,44.5"/>
	</g>
	<g>
		<defs>
			<path id="SVGID_00000147215791913453684530000012476462205746393480_" d="M0,40c0,22.1,18.1,40,40.4,40s40.4-17.9,40.4-40
				S62.8,0,40.4,0S0,17.9,0,40"/>
		</defs>
		<clipPath id="SVGID_00000078007485289549876590000004560189367342545821_">
			<use xlink:href="#SVGID_00000147215791913453684530000012476462205746393480_"  style="overflow:visible;"/>
		</clipPath>
		<path style="clip-path:url(#SVGID_00000078007485289549876590000004560189367342545821_);fill:#1D1D1B;" d="M67.7,33.9
			c2.6-1.7,4.3-4.7,4.3-8.1c0-5.3-4.3-9.7-9.7-9.7c-2.6,0-4.9,1-6.7,2.7c-0.6,0.6-1.2,1.3-1.7,2.1c0.8,0.3,1.6,0.7,2.3,1.2
			c0.5-0.7,1-1.4,1.7-1.9c1.2-0.9,2.7-1.5,4.3-1.5c3.9,0,7.1,3.2,7.1,7.1c0,2.9-1.7,5.3-4.2,6.4c0.1,0.6,0.2,1.2,0.2,1.9
			c0,0.6-0.1,1.2-0.2,1.7c5.7,1.3,9.9,6.5,9.9,12.6h2.6C77.9,41.7,73.7,36.1,67.7,33.9"/>
	</g>
	<g>
		<defs>
			<path id="SVGID_00000119105080224927700050000001628077364867599770_" d="M0,40c0,22.1,18.1,40,40.4,40s40.4-17.9,40.4-40
				S62.8,0,40.4,0S0,17.9,0,40"/>
		</defs>
		<clipPath id="SVGID_00000138549019653975255650000010104265753225376682_">
			<use xlink:href="#SVGID_00000119105080224927700050000001628077364867599770_"  style="overflow:visible;"/>
		</clipPath>
		<path style="clip-path:url(#SVGID_00000138549019653975255650000010104265753225376682_);fill:#1D1D1B;" d="M15.3,34.1
			c0-0.6,0.1-1.3,0.2-1.9c-2.4-1.1-4.2-3.6-4.2-6.4c0-3.9,3.2-7.1,7.1-7.1c1.6,0,3.1,0.6,4.3,1.5c0.7,0.5,1.3,1.2,1.7,1.9
			c0.7-0.5,1.5-0.9,2.3-1.2c-0.5-0.8-1-1.5-1.7-2.1c-1.7-1.7-4.1-2.7-6.7-2.7c-5.3,0-9.7,4.3-9.7,9.7c0,3.4,1.7,6.3,4.3,8.1
			C7.2,36.1,3,41.7,3,48.4h2.6c0-6.1,4.3-11.2,9.9-12.6C15.4,35.3,15.3,34.7,15.3,34.1"/>
	</g>
	<g>
		<defs>
			<path id="SVGID_00000167367573683581813090000015378050079275155857_" d="M0,40c0,22.1,18.1,40,40.4,40s40.4-17.9,40.4-40
				S62.8,0,40.4,0S0,17.9,0,40"/>
		</defs>
		<clipPath id="SVGID_00000015341127622990873820000010025911380861642669_">
			<use xlink:href="#SVGID_00000167367573683581813090000015378050079275155857_"  style="overflow:visible;"/>
		</clipPath>
		<path style="clip-path:url(#SVGID_00000015341127622990873820000010025911380861642669_);fill:#1D1D1B;" d="M40.4,18.7
			c3.5,0,6.3,2.5,6.9,5.8c1.4-0.9,2.4-1,2.4-1c-1.1-4.2-4.9-7.3-9.4-7.3s-8.3,3.1-9.4,7.3c0,0,1,0.2,2.4,1
			C34.1,21.2,37,18.7,40.4,18.7"/>
	</g>
</g>
</svg>
