<?xml version="1.0" encoding="utf-8"?>
<!-- Generator: Adobe Illustrator 26.0.2, SVG Export Plug-In . SVG Version: 6.00 Build 0)  -->
<svg version="1.1" id="Layer_1" xmlns="http://www.w3.org/2000/svg" xmlns:xlink="http://www.w3.org/1999/xlink" x="0px" y="0px"
	 viewBox="0 0 353.6 269.3" style="enable-background:new 0 0 353.6 269.3;" xml:space="preserve">
<style type="text/css">
	.st0{fill:#FFF4DA;}
	.st1{fill:#F9DDA5;}
	.st2{fill:none;stroke:#FFFFFF;stroke-linecap:round;stroke-linejoin:round;stroke-miterlimit:10;}
</style>
<g>
	<path class="st0" d="M6.3,261.6c0,0,0.1-27.4,0.1-31.9c0.1-4.5,1-22.2,1-28.2s-0.2-24.2-0.1-29.7c0-5.4,2.4-165.5,2.4-165.5
		s174,0.2,182.2,0.2c8.1,0,154.6-1.3,154.6-1.3s0.1,155.8,0.1,163.2c-0.1,7.5,1.2,34.6,1.2,39.7s1.1,37.7,1.1,37.7
		s-3.4,3.8-19.2,11.9c-16.9,8.6-50.6,5.9-50.6,5.9s-47.5-0.9-54.7-1c-7.2-0.1-91.9,0.1-96.5,0.1C123.1,262.6,6.3,261.6,6.3,261.6"/>
	<path class="st1" d="M291.6,263.8c0,0,11.7,1.8,21.1-10.2c9.4-11.9,6.9-14.8,6.9-14.8s9.9,4.3,16.9,7.4s12.3-0.3,12.3-0.3
		s-6.3,6.8-20.6,12.8C310.9,265.8,291.6,263.8,291.6,263.8z"/>
	<path class="st2" d="M291.6,263.8c0,0,11.7,1.8,21.1-10.2c9.4-11.9,6.9-14.8,6.9-14.8s9.9,4.3,16.9,7.4s12.3-0.3,12.3-0.3
		s-6.3,6.8-20.6,12.8C310.9,265.8,291.6,263.8,291.6,263.8z"/>
</g>
</svg>
