<?xml version="1.0" encoding="utf-8"?>
<!-- Generator: Adobe Illustrator 14.0.0, SVG Export Plug-In . SVG Version: 6.00 Build 43363)  -->
<!DOCTYPE svg PUBLIC "-//W3C//DTD SVG 1.1//EN" "http://www.w3.org/Graphics/SVG/1.1/DTD/svg11.dtd">
<svg version="1.1" id="Layer_1" xmlns="http://www.w3.org/2000/svg" xmlns:xlink="http://www.w3.org/1999/xlink" x="0px" y="0px"
	 width="28.976px" height="14.769px" viewBox="0 0 28.976 14.769" enable-background="new 0 0 28.976 14.769" xml:space="preserve">
<g>
	
		<rect x="0.375" y="0.375" fill="none" stroke="#00ABCC" stroke-width="0.75" stroke-linecap="round" width="14.018" height="14.019"/>
	<path fill="#00ABCC" d="M9.475,10.331c-0.102,0.032-0.271,0.066-0.504,0.102c-0.232,0.036-0.516,0.054-0.848,0.054
		c-0.469,0-0.873-0.078-1.217-0.238c-0.344-0.156-0.635-0.381-0.867-0.67C5.807,9.29,5.633,8.942,5.518,8.54
		C5.404,8.136,5.346,7.69,5.346,7.2c0-0.508,0.066-0.964,0.201-1.372C5.682,5.421,5.869,5.075,6.113,4.79
		C6.352,4.505,6.645,4.288,6.99,4.138c0.344-0.151,0.725-0.225,1.143-0.225c0.396,0,0.785,0.049,1.164,0.148
		C9.678,4.16,9.98,4.284,10.211,4.435l0.367-0.961c-0.047-0.032-0.135-0.08-0.266-0.144c-0.131-0.063-0.301-0.125-0.506-0.189
		c-0.205-0.063-0.451-0.12-0.742-0.167c-0.289-0.046-0.617-0.07-0.99-0.07c-0.545,0-1.059,0.095-1.535,0.284
		c-0.479,0.19-0.896,0.467-1.252,0.831C4.93,4.382,4.646,4.831,4.439,5.365C4.229,5.899,4.123,6.511,4.123,7.2
		c0,0.688,0.094,1.296,0.279,1.826s0.449,0.978,0.789,1.341c0.342,0.364,0.748,0.641,1.223,0.832c0.475,0.188,1,0.283,1.578,0.283
		c0.285,0,0.564-0.014,0.842-0.041C9.113,11.414,9.367,11.38,9.6,11.34c0.234-0.039,0.439-0.078,0.617-0.119
		c0.178-0.039,0.314-0.073,0.41-0.105V7.27H9.475V10.331z"/>
</g>
</svg>
