<?xml version="1.0" encoding="utf-8"?>
<!-- Generator: Adobe Illustrator 26.0.0, SVG Export Plug-In . SVG Version: 6.00 Build 0)  -->
<svg version="1.1" id="Capa_1" xmlns="http://www.w3.org/2000/svg" xmlns:xlink="http://www.w3.org/1999/xlink" x="0px" y="0px"
	 viewBox="0 0 124 44" style="enable-background:new 0 0 124 44;" xml:space="preserve">
<style type="text/css">
	.st0{clip-path:url(#SVGID_00000146467399993449818750000017542309226386668199_);}
	.st1{opacity:0.2;fill:#1D1D1B;enable-background:new    ;}
	.st2{fill:#DDDB00;}
	.st3{fill:none;stroke:#1D1D1B;stroke-width:0.75;}
</style>
<g>
	<g id="Capa_1_00000168817095991487581000000007432628024613727156_">
		<g>
			<g>
				<defs>
					<rect id="SVGID_1_" x="2.5" y="2.3" width="121.1" height="41.4"/>
				</defs>
				<clipPath id="SVGID_00000039841223565883699730000014210821034318712221_">
					<use xlink:href="#SVGID_1_"  style="overflow:visible;"/>
				</clipPath>
				<g style="clip-path:url(#SVGID_00000039841223565883699730000014210821034318712221_);">
					<rect x="2.5" y="2.3" class="st1" width="121.1" height="41.4"/>
				</g>
			</g>
		</g>
		<path class="st2" d="M3.4,0.3c-1.5,0-2.8,1.3-2.8,2.8c0,0,0,0.1,0,0.1v35.6c0,0,0,2.9,2.8,2.9h115.3c1.5,0,2.8-1.3,2.8-2.8
			c0,0,0-0.1,0-0.1V3.2c0,0,0-2.9-2.8-2.9L3.4,0.3z"/>
		<path class="st3" d="M14.1,0.3c0,0-12.5-0.3-13.2,0.5S0.3,40,1.3,41.4s39.9,0.7,71.3,0.5"/>
		<path class="st3" d="M85.7,41.8l35.4-0.5c1.1-0.5,1.2-40.4-0.4-40.7S23.9,0.3,23.9,0.3"/>
	</g>
</g>
</svg>
