<?xml version="1.0" encoding="utf-8"?>
<!-- Generator: Adobe Illustrator 21.1.0, SVG Export Plug-In . SVG Version: 6.00 Build 0)  -->
<svg version="1.1" id="Capa_1" xmlns="http://www.w3.org/2000/svg" xmlns:xlink="http://www.w3.org/1999/xlink" x="0px" y="0px"
	 viewBox="0 0 280.3 452.8" style="enable-background:new 0 0 280.3 452.8;" xml:space="preserve">
<style type="text/css">
	.st0{clip-path:url(#SVGID_2_);fill:none;stroke:#FCE2DC;stroke-width:2;stroke-linecap:round;stroke-dasharray:5.935,3.935;}
	.st1{clip-path:url(#SVGID_2_);fill:none;stroke:#FCE2DC;stroke-width:2;stroke-linecap:round;stroke-dasharray:5.982,3.982;}
	.st2{clip-path:url(#SVGID_2_);fill:none;stroke:#FCE2DC;stroke-width:2;stroke-linecap:round;stroke-dasharray:6.068,4.068;}
	.st3{clip-path:url(#SVGID_2_);fill:none;stroke:#FCE2DC;stroke-width:2;stroke-linecap:round;stroke-dasharray:5.913,3.913;}
	.st4{clip-path:url(#SVGID_2_);fill:none;stroke:#FCE2DC;stroke-width:2;stroke-linecap:round;}
	.st5{fill:none;stroke:#FCE2DC;stroke-width:2;stroke-linecap:round;}
</style>
<g>
	<defs>
		<rect id="SVGID_1_" width="280.3" height="452.8"/>
	</defs>
	<clipPath id="SVGID_2_">
		<use xlink:href="#SVGID_1_"  style="overflow:visible;"/>
	</clipPath>
	<path class="st0" d="M191.4,435.3c16.4,14.3,65.3,49.6,38.7-65.7"/>
	<path class="st1" d="M226.9,358.1C196.6,275.9-1.1,326.3,1,217.6"/>
	<path class="st2" d="M2.3,205.7c19.6-87.9,281.6-31.9,277-136.3"/>
	<path class="st3" d="M277.6,57.5C260.9-11.5,123.1,0.7,95.4,3.9"/>
	<path class="st4" d="M93.4,4.1c-1.9,0.2-2.9,0.4-2.9,0.4 M279.1,67.3c-0.1-1-0.2-2-0.3-3c-0.1-1-0.3-2-0.4-2.9 M1.1,215.7
		c0-1,0.1-2,0.2-3c0.1-1,0.2-2,0.3-3 M229.6,367.7c-0.2-1-0.5-1.9-0.7-2.9c-0.2-1-0.5-1.9-0.8-2.9 M186.3,430.7c0,0,0.8,0.8,2.1,2.1
		"/>
</g>
<polyline class="st5" points="160.3,147.6 153,143.7 156.3,135.4 "/>
<polyline class="st5" points="113.3,293.9 117.7,301 110.7,306.5 "/>
</svg>
