<?xml version="1.0" encoding="utf-8"?>
<!-- Generator: Adobe Illustrator 21.1.0, SVG Export Plug-In . SVG Version: 6.00 Build 0)  -->
<svg version="1.1" id="Capa_1" xmlns="http://www.w3.org/2000/svg" xmlns:xlink="http://www.w3.org/1999/xlink" x="0px" y="0px"
	 viewBox="0 0 204.471 153.667" style="enable-background:new 0 0 204.471 153.667;" xml:space="preserve">
<style type="text/css">
	.st0{clip-path:url(#SVGID_2_);fill:none;stroke:#9589C0;stroke-width:2.547;stroke-linecap:round;stroke-miterlimit:10;}
	.st1{clip-path:url(#SVGID_2_);fill:#FFFFFF;}
</style>
<g>
	<defs>
		<rect id="SVGID_1_" width="204.471" height="153.667"/>
	</defs>
	<clipPath id="SVGID_2_">
		<use xlink:href="#SVGID_1_"  style="overflow:visible;"/>
	</clipPath>
	<line class="st0" x1="176.812" y1="138.154" x2="177.558" y2="152.394"/>
	<line class="st0" x1="188.958" y1="124.41" x2="203.198" y2="125.156"/>
	<line class="st0" x1="183.673" y1="133.383" x2="202.139" y2="149.66"/>
	<path class="st1" d="M1.336,66.673c-1.92,54.974,40.271,71.597,105.087,73.86c64.817,2.264,89.038-15.73,90.458-78.001
		c0.898-39.314-45.253-59.405-95.564-61.162C51.006-0.387,2.898,21.938,1.336,66.673"/>
	<path class="st0" d="M1.336,66.673c-1.92,54.974,40.271,71.597,105.087,73.86c64.817,2.264,89.038-15.73,90.458-78.001
		c0.898-39.314-45.253-59.405-95.564-61.162C51.006-0.387,2.898,21.938,1.336,66.673z"/>
</g>
</svg>
