<?xml version="1.0" encoding="utf-8"?>
<!-- Generator: Adobe Illustrator 21.1.0, SVG Export Plug-In . SVG Version: 6.00 Build 0)  -->
<svg version="1.1" id="Capa_1" xmlns="http://www.w3.org/2000/svg" xmlns:xlink="http://www.w3.org/1999/xlink" x="0px" y="0px"
	 viewBox="0 0 708.46 257.342" style="enable-background:new 0 0 708.46 257.342;" xml:space="preserve">
<style type="text/css">
	.st0{clip-path:url(#SVGID_2_);fill:#9589C0;}
	.st1{clip-path:url(#SVGID_2_);fill:#F7C1B7;}
	.st2{clip-path:url(#SVGID_2_);fill:#FCD4A4;}
	.st3{clip-path:url(#SVGID_2_);fill:#E1E9B0;}
	.st4{clip-path:url(#SVGID_2_);fill:#A2D8EA;}
	.st5{clip-path:url(#SVGID_2_);fill:none;stroke:#1D1D1B;stroke-width:1.274;}
</style>
<g>
	<defs>
		<rect id="SVGID_1_" width="708.46" height="257.342"/>
	</defs>
	<clipPath id="SVGID_2_">
		<use xlink:href="#SVGID_1_"  style="overflow:visible;"/>
	</clipPath>
	<path class="st0" d="M333.924,223.994c48.495,0,87.808-39.313,87.808-87.808s-39.313-87.808-87.808-87.808
		s-87.808,39.313-87.808,87.808S285.429,223.994,333.924,223.994"/>
	<path class="st1" d="M468.886,3.886c0,0-15.282,0-15.282,15.282v37.654c0,0,0,15.283,15.282,15.283h221.808
		c0,0,15.283,0,15.283-15.283V19.168c0,0,0-15.282-15.283-15.282H468.886z"/>
	<path class="st2" d="M480.901,188.487c0,0-15.282,0-15.282,15.282v37.654c0,0,0,15.283,15.282,15.283h194.03
		c0,0,15.282,0,15.282-15.283v-37.654c0,0,0-15.282-15.282-15.282H480.901z"/>
	<path class="st3" d="M16.993,21.394c0,0-15.282,0-15.282,15.282V74.33c0,0,0,15.283,15.282,15.283h188.192
		c0,0,15.283,0,15.283-15.283V36.676c0,0,0-15.282-15.283-15.282H16.993z"/>
	<path class="st4" d="M19.014,172.919c0,0-15.282,0-15.282,15.282v37.654c0,0,0,15.283,15.282,15.283H204.39
		c0,0,15.282,0,15.282-15.283v-37.654c0,0,0-15.282-15.282-15.282H19.014z"/>
	<circle class="st5" cx="335.729" cy="134.381" r="89.613"/>
	<path class="st5" d="M467.167,0.637c0,0-15.282,0-15.282,15.282v40.903c0,0,0,15.283,15.282,15.283H692.54
		c0,0,15.283,0,15.283-15.283V15.919c0,0,0-15.282-15.283-15.282H467.167z"/>
	<path class="st5" d="M479.441,185.965c0,0-15.282,0-15.282,15.282v40.176c0,0,0,15.283,15.282,15.283h195.591
		c0,0,15.282,0,15.282-15.283v-40.176c0,0,0-15.282-15.282-15.282H479.441z"/>
	<path class="st5" d="M15.919,21.394c0,0-15.282,0-15.282,15.282v40.548c0,0,0,15.281,15.282,15.281h190.176
		c0,0,15.282,0,15.282-15.281V36.676c0,0,0-15.282-15.282-15.282H15.919z"/>
	<path class="st5" d="M17.363,171.209c0,0-15.282,0-15.282,15.283v39.363c0,0,0,15.283,15.282,15.283h188.732
		c0,0,15.282,0,15.282-15.283v-39.363c0,0,0-15.283-15.282-15.283H17.363z"/>
	<path class="st5" d="M396.271,66.988c0,0,6.969-27.24,54.944-27.24"/>
	<polyline class="st5" points="446.24,35.122 451.216,39.748 446.24,44.374 	"/>
	<path class="st5" d="M403.957,192.568c0,0,17.802,28.753,58.991,28.223"/>
	<polyline class="st5" points="457.913,216.228 462.948,220.79 458.032,225.479 	"/>
	<path class="st5" d="M273.067,197.609c0,0-19.959,15.414-50.479,15.098"/>
	<polyline class="st5" points="227.612,208.133 222.588,212.707 227.516,217.384 	"/>
	<path class="st5" d="M277.552,67.205c0,0-18.336-15.865-54.964-15.087"/>
	<polyline class="st5" points="227.465,47.387 222.588,52.118 227.661,56.637 	"/>
</g>
</svg>
