<svg id="Layer_1" data-name="Layer 1" xmlns="http://www.w3.org/2000/svg" viewBox="0 0 205 106"><title>img_007</title><path d="M81.93,1s95.46-2.44,105.47.5,7.79,30.38,7.79,53.91a250.1,250.1,0,0,0,3.81,43,365.3,365.3,0,0,1-54.31,7c-31.17,1.74-114.63,0-128.89-4.76C4,96.66-5.73,19.55,3.93,9.39c7.54-7.94,78-8.44,78-8.44" fill="#fff"/><path d="M198.5,96.1c0-.13,0-.26,0-.38l-.18-1.46c-.12-1-.23-2-.35-3-.23-2-.81-9-1.1-11-.14-1-1.75-.92-1.7.08.09,2,.49,9,.64,11l.23,2.92c0,.48.07,1,.11,1.46,0,0,0,.05,0,.08-1.57,0-3.16.09-4.71.16-2.11.11-11,.59-13.12.79a.89.89,0,1,0,.1,1.77c2.11-.17,11-.58,13.13-.61,1.92,0,3.83.07,5.75.08a1.21,1.21,0,0,0,.38,0h.22A1.15,1.15,0,0,0,199,96.89a1,1,0,0,0-.5-.79" fill="#231f20"/><path d="M4.38,5.14c0,.13,0,.26,0,.38L4.49,7l.18,3c.12,2,.28,9,.46,11,.08,1,1.69,1,1.7,0,0-2,0-9,0-11L6.77,7.07c0-.49,0-1,0-1.46V5.52c1.56.09,3.15.07,4.71.06,2.11,0,11-.06,13.15-.17a.89.89,0,1,0,0-1.77c-2.12.07-11,.07-13.15,0-1.92-.07-3.82-.25-5.74-.35a1.59,1.59,0,0,0-.38,0H5.13a1.16,1.16,0,0,0-1.2,1.07,1,1,0,0,0,.45.81" fill="#231f20"/></svg>