<?xml version="1.0" encoding="utf-8"?>
<!-- Generator: Adobe Illustrator 14.0.0, SVG Export Plug-In . SVG Version: 6.00 Build 43363)  -->
<!DOCTYPE svg PUBLIC "-//W3C//DTD SVG 1.1//EN" "http://www.w3.org/Graphics/SVG/1.1/DTD/svg11.dtd">
<svg version="1.1" id="Layer_1" xmlns="http://www.w3.org/2000/svg" xmlns:xlink="http://www.w3.org/1999/xlink" x="0px" y="0px"
	 width="42.424px" height="11.904px" viewBox="0 0 42.424 11.904" enable-background="new 0 0 42.424 11.904" xml:space="preserve">
<g>
	<path fill="#E0B9D7" d="M38.743,8.621c-3.872-6.697-13.169-8.693-20.321-8.619C13.006,0.057,1.884,0.872,0.004,7.289
		C-0.027,7.401,0.131,7.451,0.2,7.379c4.762-5.243,13.828-6.065,20.513-5.481c6.836,0.595,11.893,3.872,17.702,7.115
		C38.668,9.155,38.862,8.826,38.743,8.621z"/>
	<path fill="#E0B9D7" d="M42.344,10.586c-0.446-0.868-0.887-1.744-1.365-2.596c-0.688-1.223-1.723-2.397-1.867-3.847
		c-0.297-2.866-4.356-0.228-2.285,1.187c1.223,0.835,2.068,2.49,2.792,4.042c-3.104-0.939-7.459-2.092-9.162,0.454
		c-0.053,0.079-0.008,0.186,0.093,0.181c1.891-0.069,3.595-0.178,5.458,0.318c1.763,0.473,3.486,1.078,5.246,1.555
		C41.918,12.062,42.674,11.229,42.344,10.586z"/>
</g>
</svg>
