<?xml version="1.0" encoding="utf-8"?>
<!-- Generator: Adobe Illustrator 26.0.1, SVG Export Plug-In . SVG Version: 6.00 Build 0)  -->
<svg version="1.1" id="Capa_1" xmlns="http://www.w3.org/2000/svg" xmlns:xlink="http://www.w3.org/1999/xlink" x="0px" y="0px"
	 viewBox="0 0 820 1059.2" style="enable-background:new 0 0 820 1059.2;" xml:space="preserve">
<style type="text/css">
	.st0{fill:#AEC90B;}
	.st1{clip-path:url(#SVGID_00000042725280421033963080000001642381467823088547_);fill:#F0F4D9;}
</style>
<rect y="-0.4" class="st0" width="820" height="1059.2"/>
<g>
	<g>
		<g>
			<g>
				<g>
					<defs>
						<rect id="SVGID_1_" x="-21" y="-0.4" width="859" height="1060"/>
					</defs>
					<clipPath id="SVGID_00000145058839209830576690000009501813412343265463_">
						<use xlink:href="#SVGID_1_"  style="overflow:visible;"/>
					</clipPath>
					<path style="clip-path:url(#SVGID_00000145058839209830576690000009501813412343265463_);fill:#F0F4D9;" d="M53.5,17.6
						c19.2-2,384.4,0,422.8,0s285.4-12.7,288.2,9.6c6.5,48.5,6.5,784.6,6.5,865.7c0,58.3-2.5,131.9-6.5,131.9
						c-3.8,0-636.7,26-716.2,6.6c-6.5-93.2-3.8-439.3-3.8-619.9C44.6,354.6,43.3,72.5,53.5,17.6"/>
				</g>
			</g>
		</g>
	</g>
</g>
<polygon class="st0" points="0,1035.6 0,1059.6 820,1059.6 820,1023.4 "/>
<polygon class="st0" points="0,-0.4 0,27.5 820,38.8 820,-0.4 "/>
</svg>
