<?xml version="1.0" encoding="utf-8"?>
<!-- Generator: Adobe Illustrator 21.1.0, SVG Export Plug-In . SVG Version: 6.00 Build 0)  -->
<svg version="1.1" id="Capa_1" xmlns="http://www.w3.org/2000/svg" xmlns:xlink="http://www.w3.org/1999/xlink" x="0px" y="0px"
	 viewBox="0 0 459.783 492.313" style="enable-background:new 0 0 459.783 492.313;" xml:space="preserve">
<style type="text/css">
	.st0{clip-path:url(#SVGID_2_);fill:none;stroke:#D5D1E9;stroke-width:2.547;stroke-linecap:round;stroke-dasharray:7.628,5.081;}
	.st1{clip-path:url(#SVGID_2_);fill:none;stroke:#D5D1E9;stroke-width:2.547;stroke-linecap:round;stroke-dasharray:7.671,5.124;}
	.st2{clip-path:url(#SVGID_2_);fill:none;stroke:#D5D1E9;stroke-width:2.547;stroke-linecap:round;stroke-dasharray:7.58,5.033;}
	.st3{clip-path:url(#SVGID_2_);fill:none;stroke:#D5D1E9;stroke-width:2.547;stroke-linecap:round;stroke-dasharray:7.652,5.105;}
	.st4{clip-path:url(#SVGID_2_);fill:none;stroke:#D5D1E9;stroke-width:2.547;stroke-linecap:round;}
	.st5{fill:none;stroke:#E3E0F1;stroke-width:2.547;stroke-linecap:round;}
</style>
<g>
	<defs>
		<rect id="SVGID_1_" width="459.783" height="492.313"/>
	</defs>
	<clipPath id="SVGID_2_">
		<use xlink:href="#SVGID_1_"  style="overflow:visible;"/>
	</clipPath>
	<path class="st0" d="M185.805,490.477c46.64-3.367,261.621-24.008,272.291-119.088"/>
	<path class="st1" d="M458.15,356.102C443.562,210.077-10.106,536.52,1.492,262.081"/>
	<path class="st2" d="M4.208,247.262C40.136,179.16,464.024,263.619,450.15,86.553"/>
	<path class="st3" d="M447.163,71.684C429.169,28.391,321.48,8.319,225.41,1.696"/>
	<path class="st4" d="M222.864,1.522c-1.275-0.084-2.548-0.168-3.818-0.248 M449.926,84.046c-0.125-1.244-0.27-2.496-0.437-3.766
		c-0.168-1.269-0.407-2.521-0.717-3.756 M1.613,259.52c0.066-1.261,0.141-2.539,0.226-3.826c0.086-1.291,0.279-2.537,0.577-3.742
		 M458.33,368.86c0.091-1.256,0.148-2.529,0.168-3.81c0.021-1.311,0.013-2.586-0.023-3.834 M176.928,491.04
		c0,0,1.33-0.062,3.808-0.219"/>
</g>
<polyline class="st5" points="367.34,29.842 377.676,27.25 376.151,16.024 "/>
<polyline class="st5" points="265.5,197.846 259.4,206.582 267.917,214.055 "/>
<polyline class="st5" points="136.312,381.493 143.292,373.44 135.603,365.12 "/>
</svg>
