<?xml version="1.0" encoding="utf-8"?>
<!-- Generator: Adobe Illustrator 23.0.3, SVG Export Plug-In . SVG Version: 6.00 Build 0)  -->
<svg version="1.1" id="Layer_1" xmlns="http://www.w3.org/2000/svg" xmlns:xlink="http://www.w3.org/1999/xlink" x="0px" y="0px"
	 viewBox="0 0 167 106" style="enable-background:new 0 0 167 106;" xml:space="preserve">
<style type="text/css">
	.st0{fill:#FFFFFF;}
	.st1{fill:#231F20;}
</style>
<g>
	<path class="st0" d="M68.8,0.9c0,0,80.1-2.4,88.5,0.5c8.4,2.9,6.5,30.4,6.5,53.9c0,23.5,3.2,43,3.2,43s-19.4,5.2-45.6,7
		c-26.2,1.7-96.2,0-108.2-4.8c-9.9-3.9-18.1-81-10-91.2C9.6,1.5,68.8,0.9,68.8,0.9"/>
	<path class="st1" d="M166.6,96.1c0-0.1,0-0.3,0-0.4c0-0.5-0.1-1-0.1-1.5c-0.1-1-0.2-2-0.3-3c-0.2-2-0.7-9-0.9-11
		c-0.1-1-1.5-0.9-1.4,0.1c0.1,2,0.4,9,0.5,11l0.2,2.9c0,0.5,0.1,1,0.1,1.5c0,0,0,0.1,0,0.1c-1.3,0-2.6,0.1-4,0.2
		c-1.8,0.1-9.3,0.6-11,0.8c-1.1,0.1-1,1.9,0.1,1.8c1.8-0.2,9.2-0.6,11-0.6c1.6,0,3.2,0.1,4.8,0.1c0.1,0,0.2,0,0.3,0
		c0.1,0,0.1,0,0.2,0c0.5,0,1-0.6,0.9-1.1C167,96.5,166.9,96.3,166.6,96.1"/>
	<path class="st1" d="M3.7,5.1c0,0.1,0,0.3,0,0.4c0,0.5,0,1,0.1,1.5c0,1,0.1,2,0.1,3c0.1,2,0.2,9,0.4,11c0.1,1,1.4,1,1.4,0
		c0-2,0-9,0-11l0-2.9c0-0.5,0-1,0-1.5c0,0,0-0.1,0-0.1c1.3,0.1,2.6,0.1,4,0.1c1.8,0,9.3-0.1,11-0.2c1.1-0.1,1.1-1.8,0-1.8
		c-1.8,0.1-9.3,0.1-11,0C8,3.6,6.4,3.4,4.8,3.3c-0.1,0-0.2,0-0.3,0c-0.1,0-0.1,0-0.2,0c-0.5,0-1,0.5-1,1.1C3.3,4.7,3.5,5,3.7,5.1"/>
</g>
</svg>
