<?xml version="1.0" encoding="utf-8"?>
<!-- Generator: Adobe Illustrator 21.1.0, SVG Export Plug-In . SVG Version: 6.00 Build 0)  -->
<svg version="1.1" id="Capa_1" xmlns="http://www.w3.org/2000/svg" xmlns:xlink="http://www.w3.org/1999/xlink" x="0px" y="0px"
	 viewBox="0 0 42.2 11.8" style="enable-background:new 0 0 42.2 11.8;" xml:space="preserve">
<style type="text/css">
	.st0{clip-path:url(#SVGID_2_);fill:#E9EEC6;}
</style>
<g>
	<defs>
		<rect id="SVGID_1_" width="42.2" height="11.8"/>
	</defs>
	<clipPath id="SVGID_2_">
		<use xlink:href="#SVGID_1_"  style="overflow:visible;"/>
	</clipPath>
	<path class="st0" d="M0.2,4.5c4.7,5.2,13.8,6,20.4,5.5c6.8-0.6,11.8-3.8,17.6-7.1c0.3-0.1,0.4,0.2,0.3,0.4
		c-3.9,6.7-13.1,8.6-20.2,8.6C12.9,11.8,1.9,11,0,4.6C0,4.5,0.1,4.4,0.2,4.5"/>
	<path class="st0" d="M30.4,1.9C32.3,2,34,2.1,35.8,1.6C37.6,1.1,39.3,0.5,41,0c0.7-0.2,1.4,0.6,1.1,1.3c-0.4,0.9-0.9,1.7-1.4,2.6
		c-0.7,1.2-1.7,2.4-1.9,3.8c-0.3,2.9-4.3,0.2-2.3-1.2c1.7-1.2,2.7-4.1,3.7-5.9c0.4,0.4,0.7,0.9,1.1,1.3c-2.8,0.8-9,3.3-11.1,0.1
		C30.2,2,30.3,1.9,30.4,1.9"/>
</g>
</svg>
