<?xml version="1.0" encoding="utf-8"?>
<!-- Generator: Adobe Illustrator 21.1.0, SVG Export Plug-In . SVG Version: 6.00 Build 0)  -->
<svg version="1.1" id="Capa_1" xmlns="http://www.w3.org/2000/svg" xmlns:xlink="http://www.w3.org/1999/xlink" x="0px" y="0px"
	 viewBox="0 0 162.904 268.944" style="enable-background:new 0 0 162.904 268.944;" xml:space="preserve">
<style type="text/css">
	.st0{fill:#FFFFFF;}
	.st1{clip-path:url(#SVGID_2_);fill:#1D1D1B;}
	.st2{fill:#1D1D1B;}
	.st3{clip-path:url(#SVGID_4_);fill:#1D1D1B;}
</style>
<polygon class="st0" points="25.076,78.549 9.914,75.661 8.47,10.862 151.786,2.92 153.952,77.827 "/>
<g>
	<defs>
		<rect id="SVGID_1_" width="162.904" height="268.944"/>
	</defs>
	<clipPath id="SVGID_2_">
		<use xlink:href="#SVGID_1_"  style="overflow:visible;"/>
	</clipPath>
	<path class="st1" d="M156.216,78.596c0-0.027-0.006-0.053-0.008-0.079c0.206-0.812-0.765-9.449-0.852-11.41
		c-0.087-1.961-1.056-30.995-1.065-32.959c-0.009-1.964-0.076,24.059-0.013,22.094c0.18-5.554-0.713-5.499-1.121,0.076
		c-0.142,1.954-0.327-24.13-0.361-22.17c-0.034,1.992,0.866,31.066,0.946,33.058c0.078,1.96,0.286,10.33,0.338,10.753
		c-11.781-0.469-59.673-0.612-71.463-0.637c-6.037-0.014-12.074,0.103-18.11,0.207c-6.038,0.105-12.071,0.27-18.105,0.526
		c-4.229,0.18-8.457,0.389-12.685,0.617c-1.458,0.079-7.456,0.373-7.906,0.569c-0.928,0.405-14.139,0.093-13.898-0.692
		c0.211-0.691-0.302-2.488-0.43-3.181c-0.133-0.718-1.171-20.85-1.401-23.521c-0.455-5.274-0.871-27.7-1.211-32.984
		c-0.167-2.588-0.359-5.174-0.535-7.761c14.025-0.828,28.049-1.665,42.076-2.453C64.434,7.862,78.851,7.332,92.871,6.5
		c7.663-0.454,51.535-1.633,59.203-1.986c0.064,1.388,0.388,38.767,0.542,39.168c0.255,0.666,0.888,0.876,1.063,0.034
		c0.156-0.753,0.067-2.7-0.005-3.464c-0.073-0.792-0.113-36.395-0.241-36.816c-0.147-0.481-0.611-0.896-1.134-0.856
		c-14.084,1.05-64.469,2.8-78.562,3.739C59.722,7.253,45.882,7.093,31.862,7.957C24.388,8.418,8.304,9.415,7.765,9.463
		c-0.867,0.076-0.738,0.3-0.725,0.791C7.326,20.966,8.062,57.322,9.073,67.99c0.144,1.514,0.293,3.029,0.448,4.542
		c0.142,1.394,0.868,5.699,0.948,7.099c0,0,8.892,1.135,9.386,0.722c0.418-0.35,4.945,0.219,5.462,0.007
		c0.42-0.174,6.552-0.264,7.61-0.315c2.114-0.105,26.007-0.956,29.391-0.956c12.066-0.246,60.255-0.196,72.32,0.1
		c6.765,0.166,13.53,0.415,20.291,0.694C155.624,79.911,156.216,79.27,156.216,78.596"/>
	<path class="st1" d="M162.445,83.615c-0.01-0.15-0.021-0.298-0.027-0.443c-0.025-0.559-0.059-1.118-0.088-1.677
		c-0.062-1.15-0.123-2.301-0.184-3.451c-0.12-2.273-0.284-4.536-0.467-6.804c-0.088-1.107-0.831-1.142-0.844,0
		c-0.025,2.269-0.033,4.533,0.004,6.804l0.054,3.353c0.008,0.559,0.014,1.117,0.026,1.676c0.001,0.032,0,0.066,0.001,0.098
		c-1.607-0.095-3.237-0.073-4.832-0.069c-2.167,0.006-4.337,0.076-6.5,0.198c-1.295,0.073-1.312,1.171,0,1.125
		c2.167-0.078,4.333-0.075,6.5,0.007c1.965,0.074,3.018,0.289,4.979,0.397c0.129,0.028,0.26,0.037,0.39,0.022
		c0.074,0.004,0.149,0.01,0.223,0.012c0.661,0.027,1.224,0.321,1.224-0.321C162.904,84.131,162.721,83.823,162.445,83.615"/>
	<path class="st1" d="M3.06,14.845c-0.205-1.541-0.412-3.081-0.603-4.624C2.361,9.434,2.264,8.647,2.167,7.86
		c-0.06-0.488-0.148-0.994-0.201-1.497c0.71-0.131,1.423-0.373,2.093-0.557C4.991,5.549,5.926,5.3,6.864,5.059
		c1.906-0.488,3.821-0.942,5.744-1.36c1.923-0.419,3.854-0.802,5.79-1.152c1.908-0.345,3.835-0.727,5.767-0.89
		c0.815-0.068,1.458-0.25,1.341-1.113c-0.113-0.84-2.731-0.49-3.21-0.362c-1.951,0.419-2.426,0.392-4.386,0.771
		c-1.962,0.379-3.917,0.797-5.863,1.25C10.1,2.657,8.161,3.147,6.232,3.673C5.299,3.926,4.368,4.189,3.439,4.461
		C2.468,4.744,1.317,4.991,0.48,5.574C0.141,5.81-0.096,6.232,0.039,6.656c0.238,0.74,0.293,0.668,0.414,1.436
		c0.123,0.783,0.246,1.567,0.369,2.351c0.241,1.535,0.465,3.073,0.691,4.611c0.457,3.107,0.955,6.208,1.444,9.309
		c0.112,0.713,1.36,0.553,1.272-0.172C3.846,21.074,3.474,17.957,3.06,14.845"/>
</g>
<polyline class="st2" points="64.619,78.188 75.984,95.516 77.615,77.827 "/>
<polyline class="st0" points="66.048,75.779 75.238,91.737 76.998,75.36 "/>
<g>
	<defs>
		<rect id="SVGID_3_" width="162.904" height="268.944"/>
	</defs>
	<clipPath id="SVGID_4_">
		<use xlink:href="#SVGID_3_"  style="overflow:visible;"/>
	</clipPath>
	<path class="st3" d="M121.1,61.433c0.569,0,0.782-0.677,0.782-0.98c0-0.391-0.32-0.836-0.782-0.836
		c-0.409,0-0.782,0.267-0.782,0.89C120.318,61.041,120.673,61.433,121.1,61.433 M121.865,58.403c-0.232-3.138-0.285-6.739,0-10.803
		l-1.512-0.089c-0.017,2.727-0.089,7.362-0.035,10.785L121.865,58.403z M116.074,60.312c-1.071,0-1.392-1.373-1.392-3.353
		c0-2.497,0.553-3.442,1.534-3.442c0.447,0,0.839,0.285,1.089,0.642c-0.036,1.73-0.089,3.834,0.018,5.208
		C117.019,59.884,116.573,60.312,116.074,60.312 M119.099,61.077c-0.214-0.462-0.375-0.854-0.446-1.906
		c-0.142-1.98-0.054-5.244,0.089-7.257l-1.437,0.018c0,0.196,0.018,0.428,0.018,0.677c-0.286-0.249-0.678-0.427-1.267-0.409
		c-1.57,0.053-2.691,1.228-2.763,4.545c-0.053,3.032,0.855,4.884,2.691,4.884c0.714,0,1.214-0.338,1.551-0.747
		c0.071,0.284,0.16,0.533,0.249,0.694L119.099,61.077z M109.544,59.973c-0.589,0.089-1.036-0.214-1.339-0.713
		c0.018-1.819,0.035-3.639,0.035-5.083c0.25-0.464,0.625-0.821,1.161-0.892c1.089-0.107,1.446,1.534,1.518,3.157
		C111.025,58.69,110.347,59.866,109.544,59.973 M112.307,55.926c-0.267-3.477-1.799-4.119-2.924-3.976
		c-0.411,0.054-0.803,0.214-1.107,0.446v-0.553l-1.537,0.232c0.09,4.725,0.125,9.59,0,14.315l1.501-0.107
		c-0.035-1.177-0.035-3.156-0.035-5.295c0.357,0.249,0.839,0.427,1.464,0.338C111.15,61.13,112.592,59.474,112.307,55.926
		 M102.433,60.312c-1.071,0-1.392-1.373-1.392-3.353c0-2.497,0.553-3.442,1.535-3.442c0.446,0,0.838,0.285,1.088,0.642
		c-0.036,1.73-0.089,3.834,0.018,5.208C103.379,59.884,102.933,60.312,102.433,60.312 M105.458,61.077
		c-0.214-0.462-0.375-0.854-0.446-1.906c-0.142-1.98-0.053-5.244,0.089-7.257l-1.437,0.018c0,0.196,0.018,0.428,0.018,0.677
		c-0.286-0.249-0.678-0.427-1.267-0.409c-1.57,0.053-2.691,1.228-2.762,4.545c-0.054,3.032,0.854,4.884,2.691,4.884
		c0.713,0,1.213-0.338,1.551-0.747c0.071,0.284,0.159,0.533,0.248,0.694L105.458,61.077z M99.06,53.749l-0.089-1.531
		c-0.392,0.053-0.98,0.106-1.622,0.142c0-1.177,0.018-2.211,0.053-2.87l-1.524,0.285c0.018,0.463,0.053,1.444,0.071,2.656
		c-0.695,0.036-1.301,0.054-1.587,0.054l0.196,1.531c0.357-0.107,0.874-0.178,1.409-0.232c0.053,2.889,0.071,6.401,0,7.863
		l1.596-0.285c-0.107-1.159-0.196-4.636-0.214-7.649C98.115,53.677,98.775,53.695,99.06,53.749 M91.188,53.339
		c0.75-0.125,1.303,0.944,1.374,2.62c-0.91,0.161-1.856,0.268-2.766,0.339C89.868,54.622,90.332,53.517,91.188,53.339
		 M91.081,52.055c-1.747,0.285-2.691,2.175-2.691,5.028c0,2.888,1.068,4.724,3.048,4.51c1.195-0.142,1.961-1.141,2.317-2.05
		l-1.104-0.856c-0.214,0.642-0.517,1.534-1.427,1.658c-0.803,0.125-1.303-1.051-1.428-2.674c1.428-0.178,2.82-0.392,4.137-0.517
		C94.075,53.624,92.9,51.77,91.081,52.055 M81.276,60.312c-1.071,0-1.392-1.373-1.392-3.353c0-2.497,0.553-3.442,1.534-3.442
		c0.447,0,0.839,0.285,1.089,0.642c-0.036,1.73-0.089,3.834,0.018,5.208C82.221,59.884,81.775,60.312,81.276,60.312 M84.301,61.077
		c-0.214-0.462-0.375-0.854-0.446-1.906c-0.142-1.98-0.054-5.244,0.089-7.257l-1.437,0.018c0,0.196,0.018,0.428,0.018,0.677
		c-0.286-0.249-0.678-0.427-1.267-0.409c-1.57,0.053-2.691,1.228-2.763,4.545c-0.053,3.032,0.855,4.884,2.691,4.884
		c0.714,0,1.214-0.338,1.551-0.747c0.071,0.284,0.16,0.533,0.249,0.694L84.301,61.077z M74.87,53.023
		c0.018-0.396,0.018-0.734,0.018-1.002L73.353,52.2c0.16,3.173,0.196,7.593,0.107,9.447l1.535-0.178
		c-0.143-2.05-0.161-4.563-0.143-6.577c0.749-1.621,1.855-1.443,2.39-0.357l0.927-1.157C76.956,51.6,75.655,51.992,74.87,53.023
		 M69.523,53.339c0.749-0.125,1.302,0.944,1.374,2.62c-0.91,0.161-1.856,0.268-2.766,0.339
		C68.202,54.622,68.666,53.517,69.523,53.339 M69.416,52.055c-1.748,0.285-2.691,2.175-2.691,5.028c0,2.888,1.068,4.724,3.048,4.51
		c1.195-0.142,1.96-1.141,2.316-2.05l-1.103-0.856c-0.214,0.642-0.518,1.534-1.428,1.658c-0.803,0.125-1.302-1.051-1.427-2.674
		c1.427-0.178,2.819-0.392,4.136-0.517C72.41,53.624,71.235,51.77,69.416,52.055 M65.462,54.588
		c-0.142-2.281-1.103-2.923-2.264-2.781c-0.608,0.09-1.037,0.535-1.305,1.034c-0.303-0.641-0.804-0.873-1.516-0.784
		c-0.515,0.071-0.889,0.267-1.191,0.517c0.018-0.303,0.018-0.606,0.035-0.891l-1.548,0.41c0.124,3.297,0.124,6.452-0.036,9.536
		l1.531-0.071c-0.071-2.228-0.071-4.653-0.035-7.041c0.106-0.285,0.373-1.123,0.924-1.212c0.605-0.107,0.801,0.356,0.89,1.818
		c0.107,1.479,0,5.169-0.054,6.292l1.501-0.142c-0.108-2.05-0.018-4.564-0.108-6.453c0-0.054,0-0.125-0.017-0.178
		c0.196-0.589,0.553-1.355,0.982-1.48c0.554-0.125,0.858,0.232,0.929,1.676c0.09,1.479,0.09,5.276,0.09,6.452l1.424-0.16
		C65.622,59.062,65.551,56.389,65.462,54.588 M54.528,61.665l1.569-0.196c-0.107-3.173-0.143-6.221-0.107-9.376l-1.551,0.178
		C54.76,54.624,54.671,59.437,54.528,61.665 M55.029,50.593c0.41,0,0.819-0.41,0.819-0.908c0-0.659-0.302-1.033-0.783-1.033
		c-0.107,0-0.214,0.017-0.356,0.089c-0.338,0.142-0.445,0.534-0.445,0.908C54.264,50.308,54.62,50.593,55.029,50.593 M50.414,53.023
		c0.018-0.396,0.018-0.734,0.018-1.002L48.897,52.2c0.16,3.173,0.196,7.593,0.107,9.447l1.535-0.178
		c-0.143-2.05-0.161-4.563-0.143-6.577c0.749-1.621,1.855-1.443,2.389-0.357l0.928-1.157C52.5,51.6,51.199,51.992,50.414,53.023
		 M44.934,59.973c-0.59,0.089-1.036-0.214-1.339-0.713c0.017-1.819,0.035-3.639,0.035-5.083c0.25-0.464,0.625-0.821,1.161-0.892
		c1.089-0.107,1.446,1.534,1.518,3.157C46.415,58.69,45.737,59.866,44.934,59.973 M47.697,55.926
		c-0.267-3.477-1.799-4.119-2.924-3.976c-0.411,0.054-0.803,0.214-1.107,0.446v-0.553l-1.537,0.232c0.089,4.725,0.125,9.59,0,14.315
		l1.501-0.107c-0.035-1.177-0.035-3.156-0.035-5.295c0.357,0.249,0.839,0.427,1.464,0.338C46.54,61.13,47.982,59.474,47.697,55.926"
		/>
	<path class="st3" d="M133.971,38.916c-1.071,0-1.392-1.373-1.392-3.353c0-2.497,0.553-3.442,1.535-3.442
		c0.446,0,0.838,0.285,1.088,0.642c-0.035,1.73-0.089,3.835,0.018,5.208C134.917,38.488,134.471,38.916,133.971,38.916
		 M136.996,39.682c-0.214-0.463-0.374-0.855-0.446-1.907c-0.142-1.98-0.053-5.244,0.089-7.256l-1.437,0.018
		c0,0.196,0.018,0.427,0.018,0.676c-0.285-0.249-0.678-0.427-1.267-0.409c-1.57,0.053-2.691,1.228-2.762,4.545
		c-0.054,3.032,0.854,4.884,2.691,4.884c0.714,0,1.213-0.338,1.551-0.747c0.071,0.284,0.159,0.533,0.248,0.694L136.996,39.682z
		 M128.377,40.269l1.573-0.267c-0.161-4.885-0.179-9.573-0.054-14.458l-1.626,0.303C128.431,30.643,128.485,35.456,128.377,40.269
		 M120.904,38.934c-0.838,0.036-1.409-1.195-1.409-3.299c0-2.194,0.553-3.532,1.499-3.621c0.945-0.071,1.409,1.159,1.409,3.371
		C122.403,37.543,121.779,38.898,120.904,38.934 M120.904,40.162c1.98-0.053,2.923-1.906,2.923-4.706c0-2.889-0.872-4.83-2.78-4.759
		c-1.979,0.053-2.959,2.102-2.959,4.866C118.088,38.399,118.943,40.233,120.904,40.162 M114.182,38.916
		c-0.982,0-1.464-1.391-1.464-3.388c0-2.497,0.696-3.478,1.554-3.478c0.446,0,0.785,0.267,1.035,0.749
		c0,1.89,0.018,3.763,0.107,5.047C115.147,38.435,114.754,38.916,114.182,38.916 M116.806,38.167
		c-0.214-1.516-0.125-9.36,0.107-12.391l-1.57,0.268l-0.036,5.063c-0.268-0.178-0.643-0.303-1.178-0.303
		c-1.375,0-2.692,1.317-2.746,4.545c-0.036,3.014,1.033,4.884,2.728,4.884c0.678,0,1.161-0.267,1.5-0.64
		c0.089,0.373,0.196,0.623,0.321,0.73l1.356-0.553C117.091,39.45,116.877,38.631,116.806,38.167 M107.462,38.916
		c-1.071,0-1.392-1.373-1.392-3.353c0-2.497,0.553-3.442,1.534-3.442c0.447,0,0.839,0.285,1.089,0.642
		c-0.036,1.73-0.089,3.835,0.018,5.208C108.407,38.488,107.961,38.916,107.462,38.916 M110.487,39.682
		c-0.214-0.463-0.375-0.855-0.446-1.907c-0.142-1.98-0.054-5.244,0.089-7.256l-1.437,0.018c0,0.196,0.018,0.427,0.018,0.676
		c-0.286-0.249-0.678-0.427-1.267-0.409c-1.57,0.053-2.691,1.228-2.763,4.545c-0.053,3.032,0.855,4.884,2.691,4.884
		c0.714,0,1.214-0.338,1.551-0.747c0.071,0.284,0.16,0.533,0.249,0.694L110.487,39.682z M103.661,39.788
		c-0.124-1.817-0.196-5.273-0.267-6.413c-0.107-2.321-1.05-3.052-2.495-2.749c-0.482,0.089-0.875,0.321-1.178,0.606l0.054-0.802
		l-1.563,0.178c0.107,1.854,0.107,6.613,0.036,9.625l1.473-0.214c-0.107-1.71-0.125-4.417-0.071-6.697
		c0.25-0.552,0.731-1.176,1.285-1.372c1.106-0.354,1.124,1.016,1.177,1.675c0.107,1.514,0.143,5.041,0.072,6.359L103.661,39.788z
		 M95.084,40.269l1.569-0.196c-0.107-3.173-0.142-6.221-0.107-9.376l-1.551,0.178C95.316,33.228,95.227,38.041,95.084,40.269
		 M95.586,29.197c0.409,0,0.819-0.41,0.819-0.908c0-0.659-0.303-1.033-0.784-1.033c-0.106,0-0.213,0.018-0.356,0.089
		c-0.338,0.142-0.445,0.534-0.445,0.908C94.82,28.912,95.176,29.197,95.586,29.197 M93.46,33.193
		c-0.143-2.282-1.104-2.924-2.265-2.781c-0.607,0.089-1.036,0.535-1.304,1.034c-0.304-0.642-0.804-0.874-1.516-0.785
		c-0.516,0.072-0.889,0.268-1.192,0.517c0.018-0.303,0.018-0.606,0.036-0.891l-1.549,0.41c0.125,3.298,0.125,6.453-0.035,9.536
		l1.531-0.071c-0.072-2.228-0.072-4.652-0.036-7.041c0.107-0.285,0.374-1.123,0.925-1.212c0.605-0.107,0.8,0.357,0.889,1.818
		c0.107,1.48,0,5.17-0.053,6.292l1.5-0.142c-0.107-2.05-0.018-4.563-0.107-6.453c0-0.053,0-0.125-0.018-0.178
		c0.197-0.588,0.554-1.355,0.983-1.479c0.554-0.125,0.857,0.231,0.929,1.675c0.089,1.48,0.089,5.276,0.089,6.453l1.424-0.161
		C93.62,37.667,93.549,34.993,93.46,33.193 M81.58,31.627c0.018-0.395,0.018-0.734,0.018-1.001l-1.536,0.178
		c0.161,3.173,0.197,7.593,0.107,9.447l1.536-0.178c-0.143-2.05-0.161-4.563-0.143-6.577c0.749-1.62,1.854-1.443,2.389-0.357
		l0.927-1.157C83.666,30.204,82.364,30.597,81.58,31.627 M76.232,31.943c0.75-0.125,1.303,0.945,1.374,2.621
		c-0.91,0.16-1.855,0.267-2.765,0.338C74.912,33.227,75.376,32.121,76.232,31.943 M76.125,30.659
		c-1.747,0.285-2.691,2.175-2.691,5.028c0,2.888,1.068,4.725,3.048,4.511c1.196-0.143,1.961-1.141,2.317-2.051l-1.104-0.855
		c-0.214,0.641-0.517,1.533-1.427,1.658c-0.803,0.125-1.303-1.052-1.427-2.675c1.427-0.178,2.819-0.392,4.136-0.517
		C79.12,32.228,77.945,30.374,76.125,30.659 M72.913,32.353l-0.089-1.531c-0.392,0.053-0.98,0.107-1.622,0.142
		c0-1.176,0.018-2.21,0.053-2.87l-1.524,0.285c0.018,0.464,0.053,1.444,0.071,2.657c-0.695,0.035-1.301,0.053-1.587,0.053
		l0.197,1.531c0.356-0.107,0.873-0.178,1.408-0.231c0.053,2.888,0.071,6.4,0,7.862l1.596-0.285
		c-0.107-1.159-0.196-4.636-0.214-7.649C71.968,32.282,72.628,32.299,72.913,32.353 M62.306,40.233c1.427,0,2.531-1.263,2.638-2.779
		c0.089-0.91-0.214-1.873-1.033-2.497c-1.052-1.035-2.586-0.499-2.586-1.926c0-0.892,0.624-1.177,1.16-1.177
		c0.589,0,0.981,0.321,1.159,0.499c0.178-0.268,0.481-0.802,0.659-1.158c-0.356-0.285-1.158-0.694-1.979-0.658
		c-1.017,0.035-2.334,0.694-2.334,2.405c0,1.088,0.534,1.908,1.549,2.3c0.731,0.286,1.945,0.464,2.052,1.802
		c0.089,0.998-0.464,1.89-1.249,1.89c-0.589,0-1.231-0.517-1.534-1.391c-0.338,0.303-0.765,0.696-1.015,0.945
		C60.257,39.575,61.218,40.233,62.306,40.233 M56.25,38.934c-0.839,0.036-1.41-1.195-1.41-3.299c0-2.194,0.553-3.532,1.499-3.621
		c0.946-0.071,1.41,1.159,1.41,3.371C57.749,37.543,57.124,38.898,56.25,38.934 M56.25,40.162c1.979-0.053,2.923-1.906,2.923-4.706
		c0-2.889-0.873-4.83-2.781-4.759c-1.979,0.053-2.958,2.102-2.958,4.866C53.434,38.399,54.288,40.233,56.25,40.162 M52.136,33.193
		c-0.143-2.282-1.104-2.924-2.265-2.781c-0.607,0.089-1.036,0.535-1.304,1.034c-0.304-0.642-0.804-0.874-1.516-0.785
		c-0.516,0.072-0.889,0.268-1.192,0.517c0.018-0.303,0.018-0.606,0.036-0.891l-1.549,0.41c0.125,3.298,0.125,6.453-0.035,9.536
		l1.531-0.071c-0.072-2.228-0.072-4.652-0.036-7.041c0.107-0.285,0.374-1.123,0.925-1.212c0.605-0.107,0.8,0.357,0.889,1.818
		c0.107,1.48,0,5.17-0.053,6.292l1.5-0.142c-0.107-2.05-0.018-4.563-0.107-6.453c0-0.053,0-0.125-0.018-0.178
		c0.197-0.588,0.554-1.355,0.983-1.479c0.554-0.125,0.857,0.231,0.929,1.675c0.089,1.48,0.089,5.276,0.089,6.453l1.424-0.161
		C52.296,37.667,52.225,34.993,52.136,33.193 M40.439,31.943c0.749-0.125,1.303,0.945,1.374,2.621
		c-0.91,0.16-1.856,0.267-2.766,0.338C39.119,33.227,39.582,32.121,40.439,31.943 M40.332,30.659
		c-1.748,0.285-2.691,2.175-2.691,5.028c0,2.888,1.068,4.725,3.048,4.511c1.195-0.143,1.961-1.141,2.317-2.051l-1.104-0.855
		c-0.214,0.641-0.517,1.533-1.427,1.658c-0.803,0.125-1.303-1.052-1.428-2.675c1.428-0.178,2.819-0.392,4.137-0.517
		C43.326,32.228,42.151,30.374,40.332,30.659 M34.794,39.609c0.498-0.017,0.997-0.053,1.495-0.053
		c-0.071-4.547-0.142-11.569-0.142-13.655l-1.514,0.125c0.072,1.48,0.107,2.924,0.143,4.386c-1.106,0.107-2.212,0.196-3.336,0.232
		c0.018-1.534,0.018-3.085,0.035-4.636l-1.424,0.196c0.018,1.498,0.036,2.995,0.036,4.493c-0.125,0.018-0.25,0.018-0.375,0.018
		l0.197,1.575c0.053,0,0.107-0.017,0.16-0.017c0,2.531-0.036,5.063-0.107,7.595l1.585,0.018c-0.089-2.577-0.107-5.18-0.107-7.801
		c1.124-0.124,2.23-0.196,3.354-0.249C34.829,34.403,34.829,36.971,34.794,39.609 M26.733,43.906l1.444-0.267
		c0.036-2.728,0.125-7.382,0.036-10.805l-1.48,0.25C26.947,36.222,27.001,39.841,26.733,43.906 M27.376,31.818
		c0.57,0,0.783-0.677,0.783-0.979c0-0.392-0.32-0.837-0.783-0.837c-0.392,0-0.766,0.267-0.766,0.89
		C26.61,31.426,26.967,31.818,27.376,31.818"/>
</g>
<g>
	<defs>
		<rect id="SVGID_5_" x="43.32" y="90.563" width="112.783" height="171.161"/>
	</defs>
	<clipPath id="SVGID_6_">
		<use xlink:href="#SVGID_5_"  style="overflow:visible;"/>
	</clipPath>
	<g transform="matrix(1 0 0 1 0 0)" style="clip-path:url(#SVGID_6_);">
		
			<image style="overflow:visible;" width="369" height="560" xlink:href="36C4900F9EE9546E.png"  transform="matrix(0.3056 0 0 0.3056 43.3198 90.5626)">
		</image>
	</g>
</g>
</svg>
