<?xml version="1.0" encoding="utf-8"?>
<!-- Generator: Adobe Illustrator 21.1.0, SVG Export Plug-In . SVG Version: 6.00 Build 0)  -->
<svg version="1.1" id="Capa_1" xmlns="http://www.w3.org/2000/svg" xmlns:xlink="http://www.w3.org/1999/xlink" x="0px" y="0px"
	 viewBox="0 0 32 48.6" style="enable-background:new 0 0 32 48.6;" xml:space="preserve">
<style type="text/css">
	.st0{clip-path:url(#SVGID_2_);}
	.st1{opacity:0.57;clip-path:url(#SVGID_4_);}
	.st2{clip-path:url(#SVGID_6_);fill:#F6B07F;}
	.st3{clip-path:url(#SVGID_4_);fill:#3C383D;}
	.st4{clip-path:url(#SVGID_4_);fill:#FFCF00;}
	.st5{clip-path:url(#SVGID_4_);fill:#F8AD00;}
</style>
<g>
	<defs>
		<rect id="SVGID_1_" width="32" height="48.6"/>
	</defs>
	<clipPath id="SVGID_2_">
		<use xlink:href="#SVGID_1_"  style="overflow:visible;"/>
	</clipPath>
	<g class="st0">
		<defs>
			<rect id="SVGID_3_" y="0" width="32" height="48.6"/>
		</defs>
		<clipPath id="SVGID_4_">
			<use xlink:href="#SVGID_3_"  style="overflow:visible;"/>
		</clipPath>
		<g class="st1">
			<g>
				<defs>
					<rect id="SVGID_5_" x="-7.6" y="25.4" width="41.5" height="24.1"/>
				</defs>
				<clipPath id="SVGID_6_">
					<use xlink:href="#SVGID_5_"  style="overflow:visible;"/>
				</clipPath>
				<path class="st2" d="M12.2,36.6c-2,1.2-2.8,2.6-2.3,3.6c-0.2,0.2-0.4,0.5-0.8,0.8c-1.6,1.2-3.6,1.8-3.6,1.8l0,0
					c-1.1,0.3-2.3,0.8-3.4,1.4c0,0,0,0,0,0c-2.3,1.4-2.7,3.2-0.9,4c1.8,0.8,5.2,0.4,7.5-1l0,0c0,0,2.5-1.4,3.4-3.4l0,0
					c0.5-1.1,1.7-1.6,2.7-2c1.8-0.2,3.8-0.7,5.4-1.7c2.8-1.6,3.3-3.8,1-4.7c0,0-0.1,0-0.1,0c2-1.5,4.7-3.6,5.1-4.1
					c0,0-1.8,0.8-5.8,3.7c-0.1,0.1-0.2,0.1-0.2,0.2C17.9,34.6,14.6,35.2,12.2,36.6"/>
			</g>
		</g>
		<path class="st3" d="M23.2,21.2c0,0,2.3,8.9,3.1,10c0,0,0.5-1.8-0.5-6.9C24.8,19.1,22.7,20,23.2,21.2"/>
		<path class="st4" d="M28.6,4.8c0-2.7-3.2-4.8-7-4.8c-3.8,0-6.9,2.2-6.9,4.9c0,2.7,3.2,4.8,7,4.8C25.6,9.7,28.7,7.5,28.6,4.8"/>
		<path class="st4" d="M29.6,15c-0.8-0.8-2.3-1.1-2.8-3.1c-0.5-2.1,0.7-3.8,0.7-3.8l0,0c0.7-1,1.3-2.2,1.1-3.7
			C28.3,2,14.7,4.8,14.7,4.8s-0.1,2.8,2.9,5.5l0,0c1.7,1.6,1.2,2.9,0.6,3.8c-0.2,0.2-0.4,0.5-0.6,0.8c0,0-0.1,0.1-0.1,0.1
			c-0.1,0.1-0.2,0.3-0.3,0.5c-0.3,0.4-0.5,0.9-0.7,1.4c0,0,0,0.1,0,0.1l0,0c0,0.1,0,0.1,0,0.2c-0.1,0.4-0.2,0.7-0.2,1.1
			c0,2.9,3.4,5.1,7.4,5.1c4.1,0,7.4-2.4,7.4-5.2C31.1,16.9,30.6,15.8,29.6,15"/>
		<path class="st5" d="M28.1,4c0-2.1-2.9-3.9-6.5-3.8c-3.5,0-6.4,1.8-6.4,3.9c0,2.1,2.9,3.9,6.5,3.8C25.2,8,28.1,6.2,28.1,4"/>
		<path class="st4" d="M32,18.2c0-3.2-3.8-5.8-8.4-5.7c-4.6,0-8.3,2.7-8.3,5.9c0,3.2,3.8,5.8,8.4,5.7C28.3,24.1,32,21.5,32,18.2"/>
		<path class="st5" d="M17.3,17.4c0,0-1.3,1.9-0.5,3.4c0.8,1.5,4.4,2.9,7.5,2.7c3.1-0.2,7.6-2.4,7-5.5c-0.6-3.1-2.4-3.7-3.8-4.2
			c-1.4-0.4-1.6-3.7-0.9-5.1c0.7-1.5,0.6-2,0.6-2S24.1,9.7,18,7.9c0,0-0.4,1.1,0.1,1.8c0.4,0.7,5,0.8,7.4-0.1c0,0-0.7,3.6,1.4,4.6
			c2.1,1,1.7,3.7,0,4.6C23.2,20.5,18.4,19.6,17.3,17.4"/>
	</g>
</g>
</svg>
