<?xml version="1.0" encoding="utf-8"?>
<!-- Generator: Adobe Illustrator 21.1.0, SVG Export Plug-In . SVG Version: 6.00 Build 0)  -->
<svg version="1.1" id="Capa_1" xmlns="http://www.w3.org/2000/svg" xmlns:xlink="http://www.w3.org/1999/xlink" x="0px" y="0px"
	 viewBox="0 0 76.305 35.583" style="enable-background:new 0 0 76.305 35.583;" xml:space="preserve">
<style type="text/css">
	.st0{clip-path:url(#SVGID_2_);}
	.st1{clip-path:url(#SVGID_4_);fill:#005CA8;}
	.st2{filter:url(#Adobe_OpacityMaskFilter);}
	.st3{clip-path:url(#SVGID_4_);}
	.st4{clip-path:url(#SVGID_4_);mask:url(#SVGID_5_);}
	.st5{opacity:0.2;clip-path:url(#SVGID_9_);fill:#1D1D1B;}
	.st6{clip-path:url(#SVGID_2_);fill:#FFFFFF;}
	.st7{clip-path:url(#SVGID_11_);fill:none;stroke:#005CA8;stroke-width:1.777;stroke-linecap:round;}
	.st8{clip-path:url(#SVGID_2_);fill:none;stroke:#005CA8;stroke-width:1.185;stroke-linecap:round;}
	.st9{clip-path:url(#SVGID_13_);fill:#005CA8;}
	.st10{clip-path:url(#SVGID_15_);fill:#FFFFFF;}
</style>
<g>
	<defs>
		<rect id="SVGID_1_" x="-0.333" y="-0.803" width="78" height="37"/>
	</defs>
	<clipPath id="SVGID_2_">
		<use xlink:href="#SVGID_1_"  style="overflow:visible;"/>
	</clipPath>
	<g class="st0">
		<defs>
			<rect id="SVGID_3_" x="-0.333" y="-0.803" width="78" height="37"/>
		</defs>
		<clipPath id="SVGID_4_">
			<use xlink:href="#SVGID_3_"  style="overflow:visible;"/>
		</clipPath>
		<path class="st1" d="M25.128,12.537c0,0-1.805,0-1.805,1.805v14.401c0,0,0,1.805,1.805,1.805H74.5c0,0,1.805,0,1.805-1.805V14.342
			c0,0,0-1.805-1.805-1.805H25.128z"/>
		<defs>
			<filter id="Adobe_OpacityMaskFilter" filterUnits="userSpaceOnUse" x="2.89" y="0.089" width="25.92" height="33.36">
				<feColorMatrix  type="matrix" values="1 0 0 0 0  0 1 0 0 0  0 0 1 0 0  0 0 0 1 0"/>
			</filter>
		</defs>
		<mask maskUnits="userSpaceOnUse" x="2.89" y="0.089" width="25.92" height="33.36" id="SVGID_5_">
			<g class="st2">
				<g>
					<defs>
						<rect id="SVGID_6_" x="-5.99" y="-6.871" width="44.16" height="41.28"/>
					</defs>
					<clipPath id="SVGID_7_" class="st3">
						<use xlink:href="#SVGID_6_"  style="overflow:visible;"/>
					</clipPath>
					<g transform="matrix(1 0 0 1 0 0)" style="clip-path:url(#SVGID_7_);">
						
							<image style="overflow:visible;" width="184" height="172" xlink:href="70528ACD6E6ABF1D.jpg"  transform="matrix(0.24 0 0 0.24 -5.9895 -6.8715)">
						</image>
					</g>
				</g>
			</g>
		</mask>
		<g class="st4">
			<g>
				<defs>
					<rect id="SVGID_8_" x="2.89" y="0.089" width="25.92" height="33.36"/>
				</defs>
				<clipPath id="SVGID_9_">
					<use xlink:href="#SVGID_8_"  style="overflow:visible;"/>
				</clipPath>
				<rect x="2.891" y="0.089" class="st5" width="25.92" height="33.36"/>
			</g>
		</g>
	</g>
	<rect x="1.376" y="1.763" class="st6" width="25.605" height="33.132"/>
	<g class="st0">
		<defs>
			<rect id="SVGID_10_" x="-0.333" y="-0.803" width="78" height="37"/>
		</defs>
		<clipPath id="SVGID_11_">
			<use xlink:href="#SVGID_10_"  style="overflow:visible;"/>
		</clipPath>
		<path class="st7" d="M0.832,1.97v29.778c0,0,0.45,3.058,1.609,3.058h25.42c-1.223,0-1.609-3.058-1.609-3.058V1.97H0.832z"/>
	</g>
	<rect x="4.535" y="11.713" class="st8" width="7.776" height="7.696"/>
	<g class="st0">
		<defs>
			<rect id="SVGID_12_" x="-0.333" y="-0.803" width="78" height="37"/>
		</defs>
		<clipPath id="SVGID_13_">
			<use xlink:href="#SVGID_12_"  style="overflow:visible;"/>
		</clipPath>
		<path class="st9" d="M21.466,7.067l0.462-1.552l0.47,1.552H21.466z M22.866,8.653h0.836l-1.313-3.957h-0.882l-1.296,3.957h0.794
			l0.275-0.93h1.307L22.866,8.653z M20.392,4.696h-2.884v0.689h1.054v3.268h0.775V5.385h1.055V4.696z M14.836,7.617l-0.341,0.548
			c0.376,0.324,0.845,0.544,1.393,0.544c0.744,0,1.344-0.399,1.344-1.215c0-1.436-1.867-0.919-1.867-1.709
			c0-0.29,0.25-0.458,0.588-0.458c0.285,0,0.62,0.118,0.891,0.309l0.335-0.532c-0.343-0.287-0.811-0.465-1.277-0.465
			c-0.716,0-1.299,0.415-1.299,1.204c0,1.397,1.849,0.917,1.849,1.709c0,0.299-0.26,0.452-0.607,0.452
			C15.502,8.004,15.147,7.854,14.836,7.617 M13.162,8.653h0.777V4.696h-0.777V8.653z M10.329,4.696H9.5l1.265,3.957h0.667
			l1.27-3.957h-0.789l-0.795,2.74L10.329,4.696z M6.831,8.653h2.414V7.967H7.599V7h1.395V6.316H7.599V5.382h1.607V4.696H6.831V8.653
			z M4.246,6.531V5.375h0.495c0.386,0,0.635,0.196,0.635,0.581c0,0.368-0.227,0.575-0.635,0.575H4.246z M3.483,8.653h0.763V7.212
			h0.425l0.751,1.441h0.9L5.441,7.091c0.446-0.195,0.71-0.613,0.71-1.146c0-0.729-0.496-1.249-1.333-1.249H3.483V8.653z"/>
	</g>
	<line class="st8" x1="14.616" y1="13.003" x2="22.634" y2="13.003"/>
	<line class="st8" x1="14.616" y1="16.135" x2="22.634" y2="16.135"/>
	<line class="st8" x1="14.616" y1="19.409" x2="22.634" y2="19.409"/>
	<line class="st8" x1="4.203" y1="23.82" x2="23.513" y2="23.82"/>
	<line class="st8" x1="4.203" y1="26.951" x2="23.513" y2="26.951"/>
	<line class="st8" x1="4.203" y1="30.225" x2="23.513" y2="30.225"/>
	<g class="st0">
		<defs>
			<rect id="SVGID_14_" x="-0.333" y="-0.803" width="78" height="37"/>
		</defs>
		<clipPath id="SVGID_15_">
			<use xlink:href="#SVGID_14_"  style="overflow:visible;"/>
		</clipPath>
		<path class="st10" d="M73.33,17.066c-0.16-0.433-0.41-0.802-0.749-1.105c-0.338-0.303-0.769-0.538-1.292-0.704
			c-0.523-0.167-1.147-0.25-1.872-0.25c-0.797,0-1.542,0.158-2.238,0.472c-0.695,0.316-1.304,0.717-1.827,1.204l1.319,1.854
			c0.083-0.083,0.208-0.193,0.374-0.33c0.167-0.136,0.366-0.273,0.598-0.41c0.232-0.136,0.487-0.255,0.766-0.356
			c0.28-0.101,0.58-0.152,0.901-0.152c0.439,0,0.808,0.107,1.105,0.321c0.297,0.214,0.446,0.583,0.446,1.106
			c0,0.237-0.054,0.472-0.161,0.704c-0.106,0.232-0.255,0.463-0.445,0.695c-0.191,0.232-0.41,0.47-0.66,0.713
			c-0.25,0.244-0.517,0.503-0.802,0.776c-0.369,0.356-0.74,0.713-1.115,1.07c-0.374,0.356-0.71,0.74-1.007,1.15
			s-0.538,0.853-0.722,1.328c-0.184,0.475-0.276,0.998-0.276,1.569v0.428c0,0.202,0.011,0.368,0.035,0.499h8.237v-2.229h-5.313
			c0.036-0.118,0.128-0.27,0.277-0.454c0.148-0.184,0.318-0.384,0.508-0.598c0.19-0.214,0.389-0.424,0.597-0.633
			c0.208-0.207,0.401-0.395,0.58-0.561c0.344-0.321,0.695-0.66,1.051-1.016c0.357-0.357,0.678-0.728,0.963-1.115
			c0.286-0.386,0.517-0.787,0.696-1.203c0.178-0.416,0.267-0.85,0.267-1.302C73.571,17.991,73.491,17.5,73.33,17.066 M59.825,27.648
			c0.071-1.07,0.258-2.14,0.561-3.209c0.303-1.07,0.66-2.071,1.07-3.005c0.41-0.932,0.844-1.767,1.302-2.505
			c0.457-0.736,0.876-1.313,1.257-1.729v-1.926h-8.648v2.265h5.367c-0.416,0.582-0.826,1.275-1.23,2.077
			c-0.404,0.802-0.77,1.655-1.097,2.558c-0.327,0.904-0.603,1.825-0.829,2.764c-0.226,0.939-0.374,1.842-0.445,2.71H59.825z
			 M48.985,23.529h5.171v-2.407h-5.171V23.529z M40.462,19.91c0.416-0.143,0.844-0.312,1.284-0.508
			c0.44-0.196,0.838-0.413,1.195-0.651v8.897h2.656V15.292h-1.854c-0.262,0.274-0.556,0.532-0.883,0.776
			c-0.327,0.244-0.668,0.475-1.025,0.695c-0.356,0.22-0.722,0.422-1.096,0.606c-0.375,0.185-0.734,0.348-1.079,0.491L40.462,19.91z
			 M33.509,27.648c0.071-1.07,0.259-2.14,0.562-3.209c0.303-1.07,0.659-2.071,1.069-3.005c0.41-0.932,0.844-1.767,1.302-2.505
			c0.457-0.736,0.876-1.313,1.257-1.729v-1.926h-8.647v2.265h5.366c-0.416,0.582-0.826,1.275-1.23,2.077
			c-0.404,0.802-0.77,1.655-1.096,2.558c-0.327,0.904-0.604,1.825-0.829,2.764c-0.226,0.939-0.375,1.842-0.446,2.71H33.509z"/>
	</g>
</g>
</svg>
