<?xml version="1.0" encoding="utf-8"?>
<!-- Generator: Adobe Illustrator 14.0.0, SVG Export Plug-In . SVG Version: 6.00 Build 43363)  -->
<!DOCTYPE svg PUBLIC "-//W3C//DTD SVG 1.1//EN" "http://www.w3.org/Graphics/SVG/1.1/DTD/svg11.dtd">
<svg version="1.1" id="Layer_1" xmlns="http://www.w3.org/2000/svg" xmlns:xlink="http://www.w3.org/1999/xlink" x="0px" y="0px"
	 width="108.423px" height="33.773px" viewBox="0 0 108.423 33.773" enable-background="new 0 0 108.423 33.773"
	 xml:space="preserve">
<g>
	<g>
		<path fill="#F39200" d="M11.555,0c0,0-11.61-0.057-11.555,14.821l0.015,3.6c0,0,0.057,14.876,11.668,14.934l85.188,0.419
			c0,0,11.609,0.057,11.551-14.821l-0.012-3.601c0,0-0.056-14.876-11.668-14.933L11.555,0z"/>
	</g>
	<g>
		<path fill="#FFFFFF" d="M20.808,17.512c0,0.641-0.093,1.226-0.279,1.757c-0.186,0.532-0.454,0.986-0.805,1.362
			c-0.351,0.377-0.771,0.669-1.262,0.875s-1.04,0.31-1.648,0.31c-0.599,0-1.143-0.104-1.633-0.31s-0.911-0.498-1.262-0.875
			c-0.351-0.376-0.625-0.83-0.82-1.362c-0.196-0.531-0.294-1.116-0.294-1.757c0-0.64,0.101-1.223,0.302-1.749
			s0.48-0.976,0.836-1.347c0.356-0.372,0.779-0.66,1.269-0.867c0.49-0.206,1.024-0.31,1.603-0.31c0.588,0,1.127,0.104,1.618,0.31
			c0.49,0.207,0.911,0.495,1.261,0.867c0.351,0.371,0.625,0.82,0.821,1.347C20.71,16.29,20.808,16.873,20.808,17.512z
			 M18.455,17.512c0-0.712-0.142-1.271-0.426-1.68c-0.284-0.407-0.688-0.611-1.215-0.611s-0.934,0.204-1.223,0.611
			c-0.289,0.408-0.434,0.968-0.434,1.68s0.145,1.277,0.434,1.695s0.697,0.627,1.223,0.627s0.931-0.209,1.215-0.627
			S18.455,18.224,18.455,17.512z"/>
		<path fill="#FFFFFF" d="M27.496,15.5c-0.207-0.052-0.449-0.106-0.728-0.163s-0.578-0.085-0.898-0.085
			c-0.145,0-0.317,0.013-0.519,0.039c-0.201,0.025-0.354,0.054-0.457,0.085v6.223h-2.307V13.89c0.413-0.145,0.9-0.281,1.463-0.41
			s1.189-0.193,1.881-0.193c0.124,0,0.273,0.008,0.449,0.023c0.176,0.015,0.351,0.036,0.526,0.062s0.351,0.057,0.526,0.093
			s0.325,0.08,0.449,0.132L27.496,15.5z"/>
		<path fill="#FFFFFF" d="M36.133,20.578c0,1.331-0.338,2.319-1.014,2.964c-0.676,0.646-1.721,0.968-3.135,0.968
			c-0.496,0-0.991-0.044-1.486-0.132c-0.495-0.088-0.955-0.203-1.377-0.348l0.402-1.936c0.361,0.145,0.74,0.258,1.138,0.341
			c0.397,0.082,0.849,0.124,1.354,0.124c0.661,0,1.127-0.145,1.401-0.434c0.273-0.289,0.41-0.66,0.41-1.114v-0.295
			c-0.248,0.114-0.503,0.199-0.767,0.256s-0.549,0.085-0.859,0.085c-1.125,0-1.987-0.333-2.585-0.998
			c-0.599-0.666-0.897-1.597-0.897-2.794c0-0.599,0.093-1.144,0.278-1.634c0.186-0.49,0.457-0.91,0.813-1.262
			c0.356-0.351,0.792-0.621,1.308-0.813c0.516-0.19,1.099-0.286,1.749-0.286c0.279,0,0.565,0.013,0.859,0.039
			c0.294,0.025,0.585,0.059,0.875,0.101c0.289,0.041,0.565,0.09,0.828,0.146s0.498,0.116,0.704,0.178V20.578z M31.071,17.265
			c0,1.29,0.521,1.935,1.564,1.935c0.237,0,0.459-0.031,0.666-0.093c0.206-0.063,0.381-0.134,0.526-0.217v-3.685
			c-0.114-0.021-0.248-0.038-0.403-0.054s-0.335-0.023-0.542-0.023c-0.609,0-1.063,0.201-1.362,0.604S31.071,16.646,31.071,17.265z"
			/>
		<path fill="#FFFFFF" d="M41.257,13.24c0.681,0,1.249,0.077,1.703,0.232c0.454,0.154,0.818,0.377,1.091,0.666
			s0.467,0.64,0.581,1.052c0.114,0.413,0.17,0.873,0.17,1.378v4.799c-0.331,0.072-0.79,0.157-1.377,0.256
			c-0.588,0.098-1.301,0.146-2.137,0.146c-0.526,0-1.003-0.046-1.432-0.139s-0.797-0.245-1.107-0.457
			c-0.31-0.211-0.547-0.487-0.712-0.828s-0.248-0.759-0.248-1.254c0-0.475,0.095-0.877,0.286-1.207s0.446-0.594,0.766-0.79
			c0.32-0.195,0.687-0.338,1.099-0.426c0.413-0.087,0.841-0.131,1.285-0.131c0.299,0,0.565,0.013,0.797,0.038
			c0.232,0.026,0.42,0.06,0.565,0.101v-0.217c0-0.392-0.119-0.706-0.356-0.944c-0.237-0.237-0.65-0.355-1.238-0.355
			c-0.392,0-0.779,0.028-1.161,0.085s-0.712,0.137-0.991,0.24l-0.294-1.858c0.134-0.041,0.302-0.085,0.503-0.131
			c0.202-0.047,0.42-0.088,0.658-0.124c0.237-0.036,0.487-0.067,0.75-0.093S40.988,13.24,41.257,13.24z M41.443,19.989
			c0.227,0,0.443-0.005,0.65-0.015c0.207-0.011,0.372-0.026,0.496-0.047v-1.749c-0.093-0.021-0.232-0.041-0.418-0.063
			c-0.186-0.021-0.356-0.03-0.511-0.03c-0.216,0-0.42,0.013-0.611,0.038c-0.191,0.026-0.359,0.075-0.503,0.147
			c-0.145,0.072-0.258,0.17-0.341,0.294s-0.124,0.278-0.124,0.465c0,0.361,0.121,0.611,0.364,0.75
			C40.687,19.919,41.02,19.989,41.443,19.989z"/>
		<path fill="#FFFFFF" d="M46.938,13.735c0.392-0.113,0.898-0.219,1.517-0.317c0.619-0.098,1.27-0.146,1.951-0.146
			c0.691,0,1.267,0.091,1.726,0.271c0.459,0.181,0.823,0.437,1.091,0.767c0.268,0.33,0.459,0.723,0.573,1.177
			c0.113,0.454,0.17,0.959,0.17,1.517v4.598H51.66V17.28c0-0.742-0.098-1.269-0.294-1.578c-0.196-0.31-0.563-0.465-1.099-0.465
			c-0.165,0-0.34,0.008-0.526,0.023c-0.186,0.016-0.351,0.033-0.495,0.054v6.285h-2.307V13.735z"/>
		<path fill="#FFFFFF" d="M58.579,11.104c0,0.423-0.137,0.756-0.41,0.998c-0.273,0.243-0.596,0.364-0.968,0.364
			c-0.371,0-0.693-0.121-0.967-0.364c-0.273-0.242-0.41-0.575-0.41-0.998c0-0.424,0.137-0.756,0.41-0.999
			c0.273-0.242,0.596-0.363,0.967-0.363c0.372,0,0.694,0.121,0.968,0.363C58.442,10.348,58.579,10.68,58.579,11.104z M58.362,21.599
			h-2.307v-8.143h2.307V21.599z"/>
		<path fill="#FFFFFF" d="M66.706,15.004c-0.187,0.207-0.438,0.485-0.753,0.836c-0.315,0.352-0.654,0.738-1.016,1.161
			c-0.362,0.424-0.727,0.867-1.094,1.331c-0.367,0.465-0.7,0.914-1,1.347h3.939v1.92h-6.733v-1.362
			c0.216-0.371,0.477-0.771,0.781-1.199c0.305-0.429,0.624-0.859,0.96-1.293c0.335-0.434,0.668-0.854,0.998-1.262
			c0.33-0.407,0.635-0.776,0.914-1.106h-3.468v-1.92h6.471V15.004z"/>
		<path fill="#FFFFFF" d="M71.442,13.24c0.682,0,1.249,0.077,1.703,0.232c0.454,0.154,0.817,0.377,1.091,0.666
			s0.468,0.64,0.581,1.052c0.113,0.413,0.17,0.873,0.17,1.378v4.799c-0.33,0.072-0.789,0.157-1.377,0.256
			c-0.589,0.098-1.301,0.146-2.137,0.146c-0.526,0-1.004-0.046-1.432-0.139c-0.429-0.093-0.798-0.245-1.107-0.457
			c-0.31-0.211-0.547-0.487-0.712-0.828s-0.247-0.759-0.247-1.254c0-0.475,0.095-0.877,0.286-1.207
			c0.19-0.33,0.446-0.594,0.766-0.79c0.32-0.195,0.687-0.338,1.1-0.426c0.412-0.087,0.841-0.131,1.285-0.131
			c0.299,0,0.564,0.013,0.797,0.038c0.232,0.026,0.42,0.06,0.565,0.101v-0.217c0-0.392-0.119-0.706-0.356-0.944
			c-0.237-0.237-0.65-0.355-1.238-0.355c-0.393,0-0.779,0.028-1.161,0.085s-0.712,0.137-0.991,0.24l-0.294-1.858
			c0.134-0.041,0.302-0.085,0.503-0.131c0.202-0.047,0.421-0.088,0.658-0.124s0.487-0.067,0.751-0.093
			C70.908,13.253,71.173,13.24,71.442,13.24z M71.628,19.989c0.227,0,0.443-0.005,0.649-0.015c0.207-0.011,0.372-0.026,0.496-0.047
			v-1.749c-0.094-0.021-0.232-0.041-0.418-0.063c-0.187-0.021-0.356-0.03-0.512-0.03c-0.216,0-0.42,0.013-0.611,0.038
			c-0.19,0.026-0.358,0.075-0.503,0.147s-0.258,0.17-0.341,0.294c-0.082,0.124-0.123,0.278-0.123,0.465
			c0,0.361,0.121,0.611,0.363,0.75C70.872,19.919,71.205,19.989,71.628,19.989z"/>
		<path fill="#FFFFFF" d="M84.291,21.336c-0.207,0.062-0.444,0.121-0.712,0.178c-0.269,0.057-0.55,0.105-0.844,0.146
			c-0.294,0.042-0.594,0.075-0.898,0.101c-0.304,0.026-0.596,0.039-0.874,0.039c-0.671,0-1.27-0.098-1.796-0.294
			s-0.97-0.478-1.331-0.844s-0.638-0.81-0.828-1.331c-0.191-0.521-0.286-1.107-0.286-1.757c0-0.661,0.082-1.257,0.247-1.788
			s0.402-0.983,0.712-1.354c0.31-0.372,0.689-0.655,1.138-0.852c0.449-0.196,0.963-0.294,1.541-0.294
			c0.319,0,0.605,0.03,0.858,0.093c0.253,0.062,0.509,0.149,0.767,0.263V9.958l2.307-0.372V21.336z M79.074,17.466
			c0,0.712,0.16,1.284,0.479,1.718c0.32,0.434,0.795,0.65,1.425,0.65c0.206,0,0.396-0.008,0.572-0.023s0.32-0.033,0.434-0.054
			v-4.195c-0.145-0.093-0.333-0.17-0.564-0.232c-0.232-0.062-0.468-0.093-0.705-0.093C79.621,15.237,79.074,15.98,79.074,17.466z"/>
		<path fill="#FFFFFF" d="M89.429,13.24c0.682,0,1.249,0.077,1.703,0.232c0.454,0.154,0.817,0.377,1.091,0.666
			s0.468,0.64,0.581,1.052c0.113,0.413,0.17,0.873,0.17,1.378v4.799c-0.33,0.072-0.789,0.157-1.377,0.256
			c-0.589,0.098-1.301,0.146-2.137,0.146c-0.526,0-1.004-0.046-1.432-0.139c-0.429-0.093-0.798-0.245-1.107-0.457
			c-0.31-0.211-0.547-0.487-0.712-0.828s-0.247-0.759-0.247-1.254c0-0.475,0.095-0.877,0.286-1.207
			c0.19-0.33,0.446-0.594,0.766-0.79c0.32-0.195,0.687-0.338,1.1-0.426c0.412-0.087,0.841-0.131,1.285-0.131
			c0.299,0,0.564,0.013,0.797,0.038c0.232,0.026,0.42,0.06,0.565,0.101v-0.217c0-0.392-0.119-0.706-0.356-0.944
			c-0.237-0.237-0.65-0.355-1.238-0.355c-0.393,0-0.779,0.028-1.161,0.085s-0.712,0.137-0.991,0.24l-0.294-1.858
			c0.134-0.041,0.302-0.085,0.503-0.131c0.202-0.047,0.421-0.088,0.658-0.124s0.487-0.067,0.751-0.093
			C88.895,13.253,89.161,13.24,89.429,13.24z M89.616,19.989c0.227,0,0.443-0.005,0.649-0.015c0.207-0.011,0.372-0.026,0.496-0.047
			v-1.749c-0.094-0.021-0.232-0.041-0.418-0.063c-0.187-0.021-0.356-0.03-0.512-0.03c-0.216,0-0.42,0.013-0.611,0.038
			c-0.19,0.026-0.358,0.075-0.503,0.147s-0.258,0.17-0.341,0.294c-0.082,0.124-0.123,0.278-0.123,0.465
			c0,0.361,0.121,0.611,0.363,0.75C88.859,19.919,89.192,19.989,89.616,19.989z"/>
	</g>
</g>
</svg>
