<?xml version="1.0" encoding="utf-8"?>
<!-- Generator: Adobe Illustrator 14.0.0, SVG Export Plug-In . SVG Version: 6.00 Build 43363)  -->
<!DOCTYPE svg PUBLIC "-//W3C//DTD SVG 1.1//EN" "http://www.w3.org/Graphics/SVG/1.1/DTD/svg11.dtd">
<svg version="1.1" id="Layer_1" xmlns="http://www.w3.org/2000/svg" xmlns:xlink="http://www.w3.org/1999/xlink" x="0px" y="0px"
	 width="84.667px" height="33.153px" viewBox="0 0 84.667 33.153" enable-background="new 0 0 84.667 33.153" xml:space="preserve">
<g>
	<g>
		<path fill="#AFCA0B" d="M10.269,0c0,0-10.32-0.051-10.27,13.173l0.024,6.39c0,0,0.051,13.226,10.373,13.275l64,0.315
			c0,0,10.32,0.05,10.27-13.174l-0.024-6.391c0,0-0.05-13.224-10.371-13.274L10.269,0z"/>
	</g>
	<g>
		<path fill="#FFFFFF" d="M21.488,17.409c0,0.641-0.093,1.226-0.279,1.757c-0.186,0.532-0.454,0.986-0.805,1.362
			c-0.351,0.377-0.771,0.669-1.262,0.875s-1.04,0.31-1.648,0.31c-0.599,0-1.143-0.104-1.633-0.31s-0.911-0.498-1.262-0.875
			c-0.351-0.376-0.625-0.83-0.82-1.362c-0.196-0.531-0.294-1.116-0.294-1.757c0-0.64,0.101-1.223,0.302-1.749
			s0.48-0.976,0.836-1.347c0.356-0.372,0.779-0.66,1.269-0.867c0.49-0.206,1.024-0.31,1.603-0.31c0.588,0,1.127,0.104,1.618,0.31
			c0.49,0.207,0.911,0.495,1.261,0.867c0.351,0.371,0.625,0.82,0.821,1.347C21.39,16.187,21.488,16.77,21.488,17.409z
			 M19.135,17.409c0-0.712-0.142-1.271-0.426-1.68c-0.284-0.407-0.688-0.611-1.215-0.611s-0.934,0.204-1.223,0.611
			c-0.289,0.408-0.434,0.968-0.434,1.68s0.145,1.277,0.434,1.695s0.697,0.627,1.223,0.627s0.931-0.209,1.215-0.627
			S19.135,18.121,19.135,17.409z"/>
		<path fill="#FFFFFF" d="M28.175,15.397c-0.206-0.052-0.449-0.106-0.728-0.163s-0.578-0.085-0.897-0.085
			c-0.145,0-0.317,0.013-0.519,0.039c-0.201,0.025-0.354,0.054-0.457,0.085v6.223h-2.307v-7.709c0.413-0.145,0.9-0.281,1.463-0.41
			s1.189-0.193,1.881-0.193c0.124,0,0.273,0.008,0.449,0.023c0.175,0.015,0.351,0.036,0.526,0.062
			c0.175,0.025,0.351,0.057,0.526,0.093c0.175,0.036,0.325,0.08,0.448,0.132L28.175,15.397z"/>
		<path fill="#FFFFFF" d="M32.401,11.001c0,0.423-0.137,0.756-0.41,0.998c-0.273,0.243-0.596,0.364-0.967,0.364
			c-0.372,0-0.694-0.121-0.968-0.364c-0.273-0.242-0.41-0.575-0.41-0.998c0-0.424,0.137-0.756,0.41-0.999
			c0.273-0.242,0.596-0.363,0.968-0.363c0.371,0,0.693,0.121,0.967,0.363C32.264,10.245,32.401,10.577,32.401,11.001z
			 M32.184,21.496h-2.306v-8.143h2.306V21.496z"/>
		<path fill="#FFFFFF" d="M41.333,20.475c0,1.331-0.338,2.319-1.014,2.964c-0.676,0.646-1.721,0.968-3.135,0.968
			c-0.495,0-0.991-0.044-1.486-0.132s-0.954-0.203-1.378-0.348l0.403-1.936c0.36,0.145,0.74,0.258,1.138,0.341
			c0.396,0.082,0.849,0.124,1.354,0.124c0.66,0,1.127-0.145,1.4-0.434s0.41-0.66,0.41-1.114v-0.295
			c-0.247,0.114-0.503,0.199-0.766,0.256c-0.264,0.057-0.55,0.085-0.859,0.085c-1.125,0-1.987-0.333-2.585-0.998
			c-0.599-0.666-0.898-1.597-0.898-2.794c0-0.599,0.093-1.144,0.279-1.634c0.186-0.49,0.456-0.91,0.813-1.262
			c0.355-0.351,0.792-0.621,1.308-0.813c0.517-0.19,1.1-0.286,1.75-0.286c0.278,0,0.564,0.013,0.858,0.039
			c0.294,0.025,0.586,0.059,0.875,0.101c0.289,0.041,0.564,0.09,0.828,0.146c0.263,0.057,0.498,0.116,0.704,0.178V20.475z
			 M36.271,17.162c0,1.29,0.521,1.935,1.563,1.935c0.237,0,0.459-0.031,0.665-0.093c0.207-0.063,0.382-0.134,0.526-0.217v-3.685
			c-0.113-0.021-0.247-0.038-0.402-0.054c-0.154-0.016-0.335-0.023-0.542-0.023c-0.608,0-1.063,0.201-1.362,0.604
			C36.42,16.031,36.271,16.543,36.271,17.162z"/>
		<path fill="#FFFFFF" d="M46.039,11.001c0,0.423-0.137,0.756-0.41,0.998c-0.273,0.243-0.596,0.364-0.967,0.364
			c-0.372,0-0.694-0.121-0.968-0.364c-0.273-0.242-0.41-0.575-0.41-0.998c0-0.424,0.137-0.756,0.41-0.999
			c0.273-0.242,0.596-0.363,0.968-0.363c0.371,0,0.693,0.121,0.967,0.363C45.902,10.245,46.039,10.577,46.039,11.001z
			 M45.822,21.496h-2.306v-8.143h2.306V21.496z"/>
		<path fill="#FFFFFF" d="M48.02,13.632c0.392-0.113,0.897-0.219,1.517-0.317c0.619-0.098,1.27-0.146,1.95-0.146
			c0.691,0,1.267,0.091,1.727,0.271c0.459,0.181,0.822,0.437,1.091,0.767s0.459,0.723,0.573,1.177
			c0.113,0.454,0.17,0.959,0.17,1.517v4.598h-2.307v-4.319c0-0.742-0.098-1.269-0.294-1.578s-0.563-0.465-1.099-0.465
			c-0.165,0-0.341,0.008-0.526,0.023s-0.352,0.033-0.496,0.054v6.285H48.02V13.632z"/>
		<path fill="#FFFFFF" d="M60.079,13.137c0.681,0,1.248,0.077,1.702,0.232c0.454,0.154,0.818,0.377,1.092,0.666
			s0.467,0.64,0.58,1.052c0.113,0.413,0.171,0.873,0.171,1.378v4.799c-0.331,0.072-0.79,0.157-1.378,0.256
			c-0.589,0.098-1.301,0.146-2.137,0.146c-0.526,0-1.004-0.046-1.432-0.139c-0.429-0.093-0.797-0.245-1.106-0.457
			c-0.31-0.211-0.548-0.487-0.713-0.828s-0.247-0.759-0.247-1.254c0-0.475,0.095-0.877,0.286-1.207
			c0.19-0.33,0.446-0.594,0.767-0.79c0.319-0.195,0.686-0.338,1.099-0.426c0.413-0.087,0.841-0.131,1.285-0.131
			c0.299,0,0.564,0.013,0.797,0.038c0.232,0.026,0.421,0.06,0.565,0.101v-0.217c0-0.392-0.119-0.706-0.356-0.944
			c-0.237-0.237-0.65-0.355-1.238-0.355c-0.393,0-0.779,0.028-1.161,0.085s-0.712,0.137-0.99,0.24l-0.294-1.858
			c0.134-0.041,0.302-0.085,0.503-0.131c0.201-0.047,0.42-0.088,0.657-0.124s0.488-0.067,0.751-0.093
			C59.544,13.15,59.81,13.137,60.079,13.137z M60.264,19.886c0.227,0,0.443-0.005,0.65-0.015c0.206-0.011,0.371-0.026,0.495-0.047
			v-1.749c-0.093-0.021-0.232-0.041-0.418-0.063c-0.186-0.021-0.356-0.03-0.511-0.03c-0.217,0-0.421,0.013-0.611,0.038
			c-0.191,0.026-0.359,0.075-0.504,0.147s-0.258,0.17-0.34,0.294c-0.083,0.124-0.124,0.278-0.124,0.465
			c0,0.361,0.121,0.611,0.363,0.75C59.508,19.816,59.84,19.886,60.264,19.886z"/>
		<path fill="#FFFFFF" d="M68.963,21.651c-0.671-0.011-1.215-0.083-1.633-0.217c-0.418-0.135-0.748-0.323-0.99-0.565
			c-0.243-0.242-0.408-0.536-0.496-0.883c-0.088-0.345-0.131-0.734-0.131-1.168V9.855l2.306-0.372v8.87
			c0,0.207,0.016,0.393,0.047,0.558s0.09,0.305,0.178,0.418s0.215,0.206,0.38,0.278s0.387,0.119,0.665,0.14L68.963,21.651z"/>
	</g>
</g>
</svg>
