<?xml version="1.0" encoding="utf-8"?>
<!-- Generator: Adobe Illustrator 21.1.0, SVG Export Plug-In . SVG Version: 6.00 Build 0)  -->
<svg version="1.1" id="Capa_1" xmlns="http://www.w3.org/2000/svg" xmlns:xlink="http://www.w3.org/1999/xlink" x="0px" y="0px"
	 viewBox="0 0 318.927 243.121" style="enable-background:new 0 0 318.927 243.121;" xml:space="preserve">
<style type="text/css">
	.st0{fill:#F8F5C6;}
	.st1{fill:#ECECEC;}
	.st2{clip-path:url(#SVGID_2_);fill:#009992;}
</style>
<polygon class="st0" points="11.109,16.548 18.149,224.732 318.927,213.885 311.888,5.7 "/>
<polygon class="st1" points="0,243.121 318.927,213.885 18.148,224.732 11.109,16.548 "/>
<g>
	<defs>
		<rect id="SVGID_1_" width="318.927" height="243.121"/>
	</defs>
	<clipPath id="SVGID_2_">
		<use xlink:href="#SVGID_1_"  style="overflow:visible;"/>
	</clipPath>
	<path class="st2" d="M83.684,13.523l-0.111-3.176c-0.192-5.509,4.133-10.148,9.642-10.34c5.51-0.193,10.148,4.133,10.34,9.642
		l1.005,28.756c0.127,3.643-2.733,6.711-6.376,6.838c-3.643,0.127-6.71-2.733-6.837-6.376l-0.654-18.73l3.481-0.122l0.654,18.73
		c0.06,1.724,1.511,3.077,3.234,3.017c1.723-0.061,3.077-1.511,3.017-3.235l-1.004-28.756c-0.126-3.59-3.149-6.408-6.738-6.283
		c-3.589,0.125-6.408,3.148-6.282,6.737l0.111,3.176L83.684,13.523z"/>
</g>
</svg>
