<?xml version="1.0" encoding="utf-8"?>
<!-- Generator: Adobe Illustrator 21.1.0, SVG Export Plug-In . SVG Version: 6.00 Build 0)  -->
<svg version="1.1" id="Capa_1" xmlns="http://www.w3.org/2000/svg" xmlns:xlink="http://www.w3.org/1999/xlink" x="0px" y="0px"
	 viewBox="0 0 18.252 18.492" style="enable-background:new 0 0 18.252 18.492;" xml:space="preserve">
<style type="text/css">
	.st0{clip-path:url(#SVGID_2_);fill:none;stroke:#E20613;stroke-width:2.069;stroke-linecap:round;stroke-linejoin:round;}
</style>
<g>
	<defs>
		<rect id="SVGID_1_" width="18.252" height="18.492"/>
	</defs>
	<clipPath id="SVGID_2_">
		<use xlink:href="#SVGID_1_"  style="overflow:visible;"/>
	</clipPath>
	<path class="st0" d="M8.595,1.035C6.46,1.774,3.176,3.416,1.863,5.141c4.657-1.253,6.591-1.047,11.424-2.099
		C9.252,4.509,3.714,6.264,1.035,8.614c4.974-1.215,10.722-0.887,15.362-3.063c-4.214,1.728-10.241,4.885-14.288,6.98
		c5.513,0.542,9.738-3.054,15.109-3.285c-4.199,2.64-8.515,3.262-12.664,5.82c3.813,0.293,6.668-0.744,11.514-1.468
		c-2.053,2.135-4.105,3.695-7.472,3.86"/>
</g>
</svg>
