<?xml version="1.0" encoding="utf-8"?>
<!-- Generator: Adobe Illustrator 26.0.2, SVG Export Plug-In . SVG Version: 6.00 Build 0)  -->
<svg version="1.1" id="Capa_1" xmlns="http://www.w3.org/2000/svg" xmlns:xlink="http://www.w3.org/1999/xlink" x="0px" y="0px"
	 viewBox="0 0 41.7 158.2" style="enable-background:new 0 0 41.7 158.2;" xml:space="preserve">
<style type="text/css">
	.st0{fill:#504F4E;}
	.st1{fill:none;stroke:#FFCC00;stroke-width:3;stroke-linecap:round;}
</style>
<g>
	<path class="st0" d="M3.7,6.7c2,0,3.6-1.6,3.6-3.6C6.9,1.1,5-0.3,3,0.1c-1.6,0.3-2.8,1.5-3,3C0,5.1,1.6,6.7,3.7,6.7"/>
	<path class="st0" d="M38.2,6.7c2,0,3.6-1.6,3.6-3.6c-0.3-2-2.2-3.4-4.3-3c-1.6,0.3-2.8,1.5-3,3C34.5,5.1,36.1,6.7,38.2,6.7"/>
	<line class="st1" x1="5.1" y1="3.1" x2="37.4" y2="3.1"/>
</g>
<g>
	<path class="st0" d="M3.7,82.5c2-0.1,3.6-1.7,3.5-3.7c-0.1-2-1.7-3.6-3.7-3.5C1.6,75.4,0,77,0,78.9c0,2,1.6,3.6,3.6,3.6
		C3.6,82.6,3.7,82.5,3.7,82.5"/>
	<path class="st0" d="M38.2,82.5c2-0.1,3.6-1.7,3.5-3.7c-0.1-2-1.7-3.6-3.7-3.5c-1.9,0.1-3.5,1.6-3.5,3.6c0,2,1.6,3.6,3.6,3.6
		C38.1,82.6,38.2,82.5,38.2,82.5"/>
	<line class="st1" x1="5.1" y1="78.9" x2="37.4" y2="78.9"/>
</g>
<g>
	<path class="st0" d="M3.7,158.2c2-0.1,3.6-1.7,3.5-3.7c-0.1-2-1.7-3.6-3.7-3.5C1.6,151,0,152.6,0,154.6c0,2,1.6,3.6,3.6,3.6
		C3.6,158.2,3.7,158.2,3.7,158.2"/>
	<path class="st0" d="M38.2,158.2c2-0.1,3.6-1.7,3.5-3.7c-0.1-2-1.7-3.6-3.7-3.5c-1.9,0.1-3.5,1.6-3.5,3.6c0,2,1.6,3.6,3.6,3.6
		C38.1,158.2,38.2,158.2,38.2,158.2"/>
	<line class="st1" x1="5.1" y1="154.6" x2="37.4" y2="154.6"/>
</g>
</svg>
