<?xml version="1.0" encoding="utf-8"?>
<!-- Generator: Adobe Illustrator 26.2.1, SVG Export Plug-In . SVG Version: 6.00 Build 0)  -->
<svg version="1.1" id="Capa_1" xmlns="http://www.w3.org/2000/svg" xmlns:xlink="http://www.w3.org/1999/xlink" x="0px" y="0px"
	 viewBox="0 0 750 300" style="enable-background:new 0 0 750 300;" xml:space="preserve">
<style type="text/css">
	.st0{fill:#FFFFFF;}
	.st1{fill:none;}
	.st2{fill:#1E2229;}
	.st3{fill:#FFFFFF;stroke:#1E2229;stroke-width:2;stroke-miterlimit:10;}
	.st4{fill:#EBEBEB;stroke:#1E2229;stroke-width:2;stroke-miterlimit:10;}
	.st5{fill:none;stroke:#1E2229;stroke-width:2;stroke-miterlimit:10;}
</style>
<rect x="-6" y="-6" class="st0" width="761.5" height="312"/>
<rect x="240.8" y="70" class="st0" width="164.6" height="62.3"/>
<g>
	<g>
		<g>
			<rect x="230.4" y="68.8" class="st1" width="289.2" height="27.2"/>
			<path class="st2" d="M298.7,75.5c2.1,0.6,3.6,1.4,4.5,2.3c0.8,0.9,1.3,2,1.3,3.5c0,3.4-2.2,5.1-6.6,5.1c-1.4,0-2.7-0.2-3.8-0.7
				c-0.4-0.1-0.6-0.4-0.8-0.7c-0.2-0.4-0.3-0.7-0.3-1.2v-1.2c0-0.3,0.1-0.5,0.4-0.6c0.2-0.1,0.5-0.1,0.8,0c1.2,0.6,2.4,0.9,3.6,0.9
				c1.4,0,2.1-0.5,2.1-1.4c0-0.4-0.1-0.8-0.3-1c-0.2-0.2-0.6-0.4-1.2-0.6c-2-0.6-3.5-1.4-4.4-2.4s-1.3-2.1-1.3-3.5
				c0-1.5,0.5-2.7,1.6-3.5c1.1-0.9,2.6-1.3,4.7-1.3c1.5,0,2.8,0.2,3.9,0.5c0.4,0.1,0.7,0.3,0.9,0.7c0.2,0.3,0.3,0.7,0.3,1.1v1.1
				c0,0.3-0.1,0.5-0.4,0.7c-0.3,0.2-0.5,0.2-0.8,0.1c-1.4-0.4-2.6-0.7-3.7-0.7c-1.3,0-1.9,0.4-1.9,1.3
				C297.1,74.6,297.7,75.2,298.7,75.5z"/>
			<path class="st2" d="M318.8,69.3c0.4,0,0.7,0.1,0.9,0.4s0.4,0.6,0.4,0.9v9.3c0,2.1-0.6,3.8-1.7,4.8c-1.1,1.1-2.8,1.6-5,1.6
				s-3.8-0.5-5-1.6c-1.1-1.1-1.7-2.7-1.7-4.8v-9.3c0-0.4,0.1-0.7,0.4-0.9s0.6-0.4,0.9-0.4h2c0.4,0,0.7,0.1,0.9,0.4
				c0.3,0.3,0.4,0.6,0.4,0.9v9.6c0,0.9,0.2,1.5,0.5,1.9s0.9,0.5,1.6,0.5s1.3-0.2,1.6-0.5c0.3-0.4,0.5-1,0.5-1.9v-9.6
				c0-0.4,0.1-0.7,0.4-0.9s0.6-0.4,0.9-0.4H318.8z"/>
			<path class="st2" d="M331.8,77.2c1.2,0.2,2.1,0.6,2.8,1.4c0.7,0.8,1.1,1.6,1.1,2.6c0,1.7-0.6,3-1.7,3.8s-2.9,1.2-5.4,1.2
				c-1.3,0-2.6-0.1-4-0.2c-0.4,0-0.7-0.2-0.9-0.5c-0.3-0.3-0.4-0.6-0.4-1V70.6c0-0.4,0.1-0.7,0.4-1c0.2-0.3,0.6-0.5,0.9-0.5
				c1.3-0.1,2.6-0.2,3.8-0.2c4.6,0,6.9,1.5,6.9,4.4c0,1-0.3,1.8-0.9,2.5S332.8,77,331.8,77.2L331.8,77.2L331.8,77.2z M327.7,72.8
				v2.8c0,0.1,0.1,0.2,0.2,0.2h0.5c1.8,0,2.6-0.6,2.6-1.7c0-1.1-0.8-1.6-2.3-1.6c-0.3,0-0.6,0-0.9,0.1
				C327.8,72.6,327.7,72.7,327.7,72.8z M328.8,82.9c0.9,0,1.6-0.2,2-0.5s0.6-0.9,0.6-1.6c0-1.2-0.8-1.7-2.5-1.7H328
				c-0.1,0-0.2,0.1-0.2,0.2v3.3c0,0.1,0.1,0.2,0.2,0.3C328.2,82.8,328.5,82.9,328.8,82.9z"/>
			<path class="st2" d="M342,69.3c0.4,0,0.7,0.1,0.9,0.4s0.4,0.6,0.4,0.9v14.2c0,0.4-0.1,0.7-0.4,0.9s-0.6,0.4-0.9,0.4h-2.4
				c-0.4,0-0.7-0.1-0.9-0.4s-0.4-0.6-0.4-0.9V70.6c0-0.4,0.1-0.7,0.4-0.9s0.6-0.4,0.9-0.4H342z"/>
			<path class="st2" d="M358.6,81.5l1.2,3.4c0.1,0.3,0.1,0.6-0.1,0.8c-0.2,0.3-0.4,0.4-0.8,0.4h-2.1c-0.4,0-0.8-0.1-1.1-0.3
				s-0.5-0.5-0.6-0.9l-1-3.1c-0.2-0.5-0.4-0.9-0.6-1.2c-0.3-0.2-0.6-0.3-1-0.3h-0.8c-0.1,0-0.2,0.1-0.2,0.2v4.3
				c0,0.4-0.1,0.7-0.4,0.9c-0.3,0.3-0.6,0.4-0.9,0.4h-1.9c-0.4,0-0.7-0.1-0.9-0.4c-0.3-0.3-0.4-0.6-0.4-0.9V70.7
				c0-0.4,0.1-0.7,0.4-1c0.2-0.3,0.5-0.4,0.9-0.5c1.5-0.1,3.1-0.2,4.7-0.2c4.6,0,6.9,1.7,6.9,5.2c0,1-0.3,1.9-0.9,2.7
				s-1.4,1.4-2.3,1.8l0,0l0,0c0.5,0.3,0.8,0.6,1.1,1S358.3,80.7,358.6,81.5z M352.6,76.9c0.8,0,1.4-0.2,1.9-0.6s0.7-0.9,0.7-1.6
				c0-1.5-0.8-2.2-2.5-2.2c-0.4,0-0.7,0-1.1,0.1c-0.1,0-0.2,0.1-0.2,0.3v3.8c0,0.1,0.1,0.2,0.2,0.2H352.6z"/>
			<path class="st2" d="M373.1,69.3c0.4,0,0.7,0.1,0.9,0.4s0.4,0.6,0.4,0.9v14.2c0,0.4-0.1,0.7-0.4,0.9s-0.6,0.4-0.9,0.4h-2.4
				c-0.4,0-0.7-0.1-0.9-0.4s-0.4-0.6-0.4-0.9V70.6c0-0.4,0.1-0.7,0.4-0.9s0.6-0.4,0.9-0.4H373.1z"/>
			<path class="st2" d="M393.3,69.3c0.4,0,0.7,0.1,0.9,0.4c0.3,0.3,0.4,0.6,0.4,0.9v14.2c0,0.4-0.1,0.7-0.4,0.9
				c-0.3,0.3-0.6,0.4-0.9,0.4h-1.7c-0.4,0-0.7-0.1-0.9-0.4s-0.4-0.6-0.4-0.9v-7.9l0,0l0,0l-1.7,4.5c-0.1,0.4-0.4,0.7-0.7,0.9
				c-0.3,0.2-0.7,0.3-1.1,0.3h-1.1c-0.4,0-0.8-0.1-1.1-0.3c-0.3-0.2-0.6-0.5-0.7-0.9l-1.7-4.5l0,0l0,0v7.9c0,0.4-0.1,0.7-0.4,0.9
				c-0.3,0.3-0.6,0.4-0.9,0.4h-1.6c-0.4,0-0.7-0.1-0.9-0.4c-0.3-0.3-0.4-0.6-0.4-0.9V70.6c0-0.4,0.1-0.7,0.4-0.9
				c0.3-0.3,0.6-0.4,0.9-0.4h2c0.4,0,0.8,0.1,1.1,0.3c0.3,0.2,0.5,0.5,0.7,0.9l3.1,8.7l0,0l0,0l3.1-8.7c0.1-0.4,0.3-0.7,0.7-0.9
				c0.3-0.2,0.7-0.3,1.1-0.3H393.3z"/>
			<path class="st2" d="M406.9,70.5l4.5,14.3c0.1,0.3,0,0.6-0.1,0.9c-0.2,0.3-0.4,0.4-0.8,0.4h-2.3c-0.4,0-0.7-0.1-1-0.4
				c-0.3-0.2-0.5-0.5-0.6-0.9l-0.4-1.8c0-0.1-0.1-0.2-0.2-0.2h-3.9c-0.2,0-0.2,0.1-0.3,0.2l-0.4,1.8c-0.1,0.4-0.3,0.7-0.6,0.9
				c-0.3,0.2-0.6,0.4-1,0.4h-2.2c-0.3,0-0.6-0.1-0.8-0.4c-0.2-0.3-0.2-0.5-0.1-0.9l4.5-14.3c0.1-0.4,0.3-0.7,0.6-0.9
				c0.3-0.2,0.7-0.3,1.1-0.3h2.2c0.4,0,0.7,0.1,1,0.3C406.6,69.8,406.8,70.1,406.9,70.5z M402.9,79.4h2.4c0,0,0.1,0,0.1-0.1v-0.1
				l-1.3-6l0,0l0,0l-1.3,6v0.1C402.8,79.4,402.9,79.4,402.9,79.4z"/>
			<path class="st2" d="M424.9,75.7c0.4,0,0.7,0.1,0.9,0.4c0.3,0.3,0.4,0.6,0.4,0.9v7c0,0.4-0.1,0.8-0.3,1.1
				c-0.2,0.3-0.5,0.5-0.9,0.6c-1.4,0.4-2.9,0.6-4.5,0.6c-2.7,0-4.8-0.8-6.4-2.3s-2.4-3.6-2.4-6.4c0-2.7,0.8-4.9,2.3-6.4
				s3.7-2.3,6.5-2.3c1.1,0,2.3,0.1,3.5,0.3c0.4,0.1,0.7,0.2,0.9,0.6c0.2,0.3,0.4,0.7,0.4,1v1.1c0,0.3-0.1,0.6-0.4,0.8
				s-0.5,0.3-0.9,0.2c-1.1-0.2-2.1-0.4-3-0.4c-1.6,0-2.8,0.4-3.5,1.2c-0.8,0.8-1.1,2.1-1.1,3.8s0.4,3,1.1,3.8s1.8,1.2,3.2,1.2
				c0.3,0,0.6,0,0.9-0.1c0.1,0,0.2-0.1,0.2-0.3v-2.9c0-0.1-0.1-0.2-0.2-0.2h-1.5c-0.4,0-0.7-0.1-0.9-0.4c-0.3-0.3-0.4-0.6-0.4-0.9
				v-0.8c0-0.4,0.1-0.7,0.4-0.9s0.6-0.4,0.9-0.4L424.9,75.7L424.9,75.7z"/>
			<path class="st2" d="M439.2,69.3c0.4,0,0.7,0.1,0.9,0.4s0.4,0.6,0.4,0.9v1.1c0,0.4-0.1,0.7-0.4,0.9s-0.6,0.4-0.9,0.4h-4.9
				c-0.1,0-0.2,0.1-0.2,0.2v2.4c0,0.1,0.1,0.2,0.2,0.2h4.5c0.4,0,0.7,0.1,0.9,0.4s0.4,0.6,0.4,0.9v0.8c0,0.4-0.1,0.7-0.4,0.9
				c-0.3,0.3-0.6,0.4-0.9,0.4h-4.5c-0.1,0-0.2,0.1-0.2,0.2v2.8c0,0.1,0.1,0.2,0.2,0.2h4.9c0.4,0,0.7,0.1,0.9,0.4s0.4,0.6,0.4,0.9
				v1.1c0,0.4-0.1,0.7-0.4,0.9s-0.6,0.4-0.9,0.4h-8.4c-0.4,0-0.7-0.1-0.9-0.4c-0.3-0.3-0.4-0.6-0.4-0.9V70.6c0-0.4,0.1-0.7,0.4-0.9
				c0.3-0.3,0.6-0.4,0.9-0.4L439.2,69.3L439.2,69.3z"/>
			<path class="st2" d="M455.7,69.3c0.4,0,0.7,0.1,0.9,0.4c0.3,0.3,0.4,0.6,0.4,0.9v14.2c0,0.4-0.1,0.7-0.4,0.9
				c-0.3,0.3-0.6,0.4-0.9,0.4H454c-0.9,0-1.5-0.4-1.9-1.2l-4-8l0,0l0,0v7.9c0,0.4-0.1,0.7-0.4,0.9c-0.3,0.3-0.6,0.4-0.9,0.4H445
				c-0.4,0-0.7-0.1-0.9-0.4c-0.3-0.3-0.4-0.6-0.4-0.9V70.6c0-0.4,0.1-0.7,0.4-0.9c0.3-0.3,0.6-0.4,0.9-0.4h1.7
				c0.9,0,1.5,0.4,1.9,1.2l4,8l0,0l0,0v-7.9c0-0.4,0.1-0.7,0.4-0.9c0.3-0.3,0.6-0.4,0.9-0.4H455.7z"/>
		</g>
		<g>
			<path class="st3" d="M406.9,207.6l-70.5-0.6c-1.2,0-2.2-1-2.2-2.2v-57.1c0-1.2,1-2.2,2.2-2.2h80.9c1.2,0,2.2,1,2.2,2.2v49.5
				L406.9,207.6z"/>
			<circle class="st4" cx="347.3" cy="158" r="6.7"/>
			<g>
				<path class="st5" d="M334.1,191.3l29.5-21.9c0.3-0.2,0.8-0.2,1,0.1l11.4,10.9"/>
				<path class="st5" d="M365.3,190.4l27.1-25.8c0.3-0.3,0.8-0.3,1.1,0l26.1,25.5"/>
			</g>
			<path class="st3" d="M419.1,196.4h-12c-0.3,0-0.5,0.2-0.5,0.5v10.4"/>
			<rect x="360.8" y="141.7" class="st0" width="28.1" height="22.7"/>
			<polygon class="st3" points="374.8,110 356.9,130.5 366,130.5 366,160.8 383.8,160.8 383.8,130.5 392.8,130.5 			"/>
			<rect x="364.2" y="159.6" class="st0" width="21.4" height="6"/>
		</g>
	</g>
	<g>
		<rect x="314.7" y="217.1" class="st1" width="120.6" height="14.1"/>
		<path d="M354.7,217.4c0.2,0,0.3,0.1,0.5,0.2c0.1,0.1,0.2,0.3,0.2,0.5v7.4c0,0.2-0.1,0.3-0.2,0.5c-0.1,0.1-0.3,0.2-0.5,0.2h-0.9
			c-0.2,0-0.3-0.1-0.5-0.2c-0.1-0.1-0.2-0.3-0.2-0.5v-4.1l0,0l0,0l-0.9,2.4c-0.1,0.2-0.2,0.3-0.4,0.5c-0.2,0.1-0.4,0.2-0.6,0.2h-0.6
			c-0.2,0-0.4-0.1-0.6-0.2s-0.3-0.3-0.4-0.5l-0.9-2.4l0,0l0,0v4.1c0,0.2-0.1,0.3-0.2,0.5c-0.1,0.1-0.3,0.2-0.5,0.2h-0.8
			c-0.2,0-0.3-0.1-0.5-0.2c-0.1-0.1-0.2-0.3-0.2-0.5v-7.4c0-0.2,0.1-0.3,0.2-0.5c0.1-0.1,0.3-0.2,0.5-0.2h1.1c0.2,0,0.4,0.1,0.6,0.2
			s0.3,0.3,0.3,0.5l1.6,4.5l0,0l0,0l1.6-4.5c0.1-0.2,0.2-0.3,0.3-0.5s0.4-0.2,0.6-0.2H354.7z"/>
		<path d="M359.8,219.8c1.1,0,1.8,0.2,2.3,0.6s0.7,1,0.7,1.8v3.3c0,0.2-0.1,0.3-0.2,0.5c-0.1,0.1-0.3,0.2-0.5,0.2h-0.8
			c-0.2,0-0.4-0.1-0.5-0.2s-0.2-0.3-0.2-0.5v-0.1l0,0l0,0c-0.5,0.6-1.1,0.9-1.9,0.9c-0.6,0-1-0.2-1.4-0.5c-0.4-0.4-0.5-0.8-0.5-1.4
			c0-1.4,1.1-2.2,3.2-2.2h0.4c0.1,0,0.1,0,0.1-0.1l0,0c0-0.5-0.3-0.7-0.8-0.7s-1.1,0.1-1.9,0.2c-0.2,0-0.3,0-0.5-0.1
			c-0.1-0.1-0.2-0.2-0.2-0.4v-0.2c0-0.2,0.1-0.4,0.2-0.5c0.1-0.2,0.3-0.3,0.5-0.3C358.6,219.8,359.2,219.8,359.8,219.8z
			 M360.5,223.6L360.5,223.6c0-0.1,0-0.2-0.1-0.2H360c-0.8,0-1.2,0.2-1.2,0.7c0,0.4,0.2,0.5,0.6,0.5c0.3,0,0.6-0.1,0.8-0.3
			C360.4,224.2,360.5,223.9,360.5,223.6z"/>
		<path d="M368.4,223l1.4,2.5c0.1,0.1,0.1,0.3,0,0.4s-0.2,0.2-0.3,0.2h-1.1c-0.2,0-0.4-0.1-0.6-0.2s-0.3-0.3-0.4-0.5l-0.6-1.4l0,0
			l0,0l-0.6,1.4c-0.1,0.2-0.2,0.3-0.4,0.5s-0.4,0.2-0.6,0.2h-1c-0.2,0-0.3-0.1-0.3-0.2s-0.1-0.3,0-0.4l1.4-2.5c0-0.1,0-0.1,0-0.2
			l-1.3-2.4c-0.1-0.1-0.1-0.3,0-0.4s0.2-0.2,0.3-0.2h1.1c0.2,0,0.4,0.1,0.6,0.2s0.3,0.3,0.4,0.5l0.5,1.3l0,0l0,0l0.5-1.3
			c0.1-0.2,0.2-0.3,0.4-0.5c0.2-0.1,0.4-0.2,0.6-0.2h1c0.2,0,0.3,0.1,0.3,0.2c0.1,0.1,0.1,0.3,0,0.4l-1.3,2.4
			C368.4,222.9,368.4,223,368.4,223z"/>
		<path d="M372.9,223.6c0.2,0,0.3,0.1,0.5,0.2c0.1,0.1,0.2,0.3,0.2,0.5v1.2c0,0.2-0.1,0.3-0.2,0.5c-0.1,0.1-0.3,0.2-0.5,0.2h-1.3
			c-0.2,0-0.3-0.1-0.5-0.2c-0.1-0.1-0.2-0.3-0.2-0.5v-1.2c0-0.2,0.1-0.3,0.2-0.5c0.1-0.1,0.3-0.2,0.5-0.2H372.9z"/>
		<path d="M382.5,220.4c0.9,0,1.6,0.2,2.1,0.7s0.8,1.2,0.8,2c0,1-0.3,1.8-0.9,2.3s-1.6,0.8-2.9,0.8c-0.5,0-1.1-0.1-1.7-0.2
			c-0.2,0-0.4-0.1-0.5-0.3s-0.2-0.3-0.2-0.5v-0.6c0-0.2,0.1-0.3,0.2-0.4s0.3-0.1,0.5-0.1c0.6,0.1,1.1,0.2,1.6,0.2
			c1.1,0,1.6-0.4,1.6-1.2c0-0.6-0.3-1-1-1c-0.1,0-0.2,0-0.3,0c-0.1,0-0.2,0.1-0.4,0.1c-0.2,0.1-0.3,0.1-0.5,0.2s-0.3,0.1-0.4,0.1
			h-0.7c-0.2,0-0.3-0.1-0.5-0.2c-0.1-0.1-0.2-0.3-0.2-0.5l0.2-3.9c0-0.2,0.1-0.4,0.2-0.5s0.3-0.2,0.5-0.2h4.2c0.2,0,0.3,0.1,0.5,0.2
			c0.1,0.1,0.2,0.3,0.2,0.5v0.6c0,0.2-0.1,0.3-0.2,0.5c-0.1,0.1-0.3,0.2-0.5,0.2h-2.6c-0.1,0-0.1,0-0.1,0.1l-0.1,1.2l0,0l0,0
			C381.8,220.4,382.2,220.4,382.5,220.4z"/>
		<path d="M394.9,217.4c0.2,0,0.3,0.1,0.5,0.2c0.1,0.1,0.2,0.3,0.2,0.5v7.4c0,0.2-0.1,0.3-0.2,0.5s-0.3,0.2-0.5,0.2H394
			c-0.2,0-0.3-0.1-0.5-0.2s-0.2-0.3-0.2-0.5v-4.1l0,0l0,0l-0.9,2.4c-0.1,0.2-0.2,0.3-0.4,0.5c-0.2,0.1-0.4,0.2-0.6,0.2H391
			c-0.2,0-0.4-0.1-0.6-0.2s-0.3-0.3-0.4-0.5l-0.9-2.4l0,0l0,0v4.1c0,0.2-0.1,0.3-0.2,0.5c-0.1,0.1-0.3,0.2-0.5,0.2h-0.8
			c-0.2,0-0.3-0.1-0.5-0.2c-0.1-0.1-0.2-0.3-0.2-0.5v-7.4c0-0.2,0.1-0.3,0.2-0.5c0.1-0.1,0.3-0.2,0.5-0.2h1.1c0.2,0,0.4,0.1,0.6,0.2
			s0.3,0.3,0.3,0.5l1.6,4.5l0,0l0,0l1.6-4.5c0.1-0.2,0.2-0.3,0.3-0.5s0.4-0.2,0.6-0.2H394.9z"/>
		<path d="M401.8,221.5c0.6,0.1,1.1,0.3,1.5,0.7c0.4,0.4,0.6,0.9,0.6,1.4c0,0.9-0.3,1.6-0.9,2s-1.5,0.6-2.8,0.6
			c-0.7,0-1.4,0-2.1-0.1c-0.2,0-0.4-0.1-0.5-0.2s-0.2-0.3-0.2-0.5v-7.3c0-0.2,0.1-0.4,0.2-0.5c0.1-0.2,0.3-0.2,0.5-0.3
			c0.7-0.1,1.3-0.1,2-0.1c2.4,0,3.6,0.8,3.6,2.3c0,0.5-0.2,0.9-0.5,1.3C402.8,221.2,402.3,221.4,401.8,221.5L401.8,221.5
			L401.8,221.5z M399.7,219.2v1.5c0,0.1,0,0.1,0.1,0.1h0.3c0.9,0,1.4-0.3,1.4-0.9s-0.4-0.8-1.2-0.8c-0.2,0-0.3,0-0.4,0
			C399.7,219.1,399.7,219.1,399.7,219.2z M400.2,224.4c0.5,0,0.8-0.1,1-0.3c0.2-0.2,0.3-0.4,0.3-0.8c0-0.6-0.4-0.9-1.3-0.9h-0.5
			c-0.1,0-0.1,0-0.1,0.1v1.7c0,0.1,0,0.1,0.1,0.1C399.9,224.4,400.1,224.4,400.2,224.4z"/>
	</g>
</g>
</svg>
