<?xml version="1.0" encoding="utf-8"?>
<!-- Generator: Adobe Illustrator 26.0.2, SVG Export Plug-In . SVG Version: 6.00 Build 0)  -->
<svg version="1.1" id="Layer_1" xmlns="http://www.w3.org/2000/svg" xmlns:xlink="http://www.w3.org/1999/xlink" x="0px" y="0px"
	 viewBox="0 0 538.6 53.8" style="enable-background:new 0 0 538.6 53.8;" xml:space="preserve">
<style type="text/css">
	.st0{fill:#504F4F;}
	.st1{fill:#FFCC00;}
</style>
<g>
	<g>
		<g>
			<path class="st0" d="M250.8,49.2c0-2.6-2.1-4.6-4.6-4.6c-2.6,0-4.6,2.1-4.6,4.6c0,2.6,2.1,4.6,4.6,4.6
				C248.7,53.8,250.8,51.7,250.8,49.2"/>
		</g>
		<g>
			<path class="st0" d="M250.8,4.6c0-2.6-2.1-4.6-4.6-4.6c-2.6,0-4.6,2.1-4.6,4.6c0,2.6,2.1,4.6,4.6,4.6
				C248.7,9.3,250.8,7.2,250.8,4.6"/>
		</g>
		<g>
			<path class="st1" d="M246.1,48.7c-0.8,0-1.5-0.7-1.5-1.5V5.6c0-0.8,0.7-1.5,1.5-1.5c0.8,0,1.5,0.7,1.5,1.5v41.6
				C247.6,48,247,48.7,246.1,48.7L246.1,48.7z"/>
		</g>
	</g>
	<g>
		<g>
			<path class="st0" d="M9.3,49.2c0-2.6-2.1-4.6-4.6-4.6c-2.6,0-4.6,2.1-4.6,4.6c0,2.6,2.1,4.6,4.6,4.6C7.2,53.8,9.3,51.7,9.3,49.2"
				/>
		</g>
		<g>
			<path class="st0" d="M9.3,4.6C9.3,2.1,7.2,0,4.6,0C2.1,0,0,2.1,0,4.6c0,2.6,2.1,4.6,4.6,4.6C7.2,9.3,9.3,7.2,9.3,4.6"/>
		</g>
		<g>
			<path class="st1" d="M4.6,48.7c-0.8,0-1.5-0.7-1.5-1.5V5.6c0-0.8,0.7-1.5,1.5-1.5c0.8,0,1.5,0.7,1.5,1.5v41.6
				C6.1,48,5.5,48.7,4.6,48.7L4.6,48.7z"/>
		</g>
	</g>
</g>
<g>
	<g>
		<g>
			<path class="st0" d="M538.6,49.2c0-2.6-2.1-4.6-4.6-4.6c-2.6,0-4.6,2.1-4.6,4.6c0,2.6,2.1,4.6,4.6,4.6
				C536.5,53.8,538.6,51.7,538.6,49.2"/>
		</g>
		<g>
			<path class="st0" d="M538.6,4.6c0-2.6-2.1-4.6-4.6-4.6c-2.6,0-4.6,2.1-4.6,4.6c0,2.6,2.1,4.6,4.6,4.6
				C536.5,9.3,538.6,7.2,538.6,4.6"/>
		</g>
		<g>
			<path class="st1" d="M533.9,48.7c-0.8,0-1.5-0.7-1.5-1.5V5.6c0-0.8,0.7-1.5,1.5-1.5c0.8,0,1.5,0.7,1.5,1.5v41.6
				C535.4,48,534.8,48.7,533.9,48.7L533.9,48.7z"/>
		</g>
	</g>
	<g>
		<g>
			<path class="st0" d="M297.1,49.2c0-2.6-2.1-4.6-4.6-4.6c-2.6,0-4.6,2.1-4.6,4.6c0,2.6,2.1,4.6,4.6,4.6
				C295,53.8,297.1,51.7,297.1,49.2"/>
		</g>
		<g>
			<path class="st0" d="M297.1,4.6c0-2.6-2.1-4.6-4.6-4.6c-2.6,0-4.6,2.1-4.6,4.6c0,2.6,2.1,4.6,4.6,4.6
				C295,9.3,297.1,7.2,297.1,4.6"/>
		</g>
		<g>
			<path class="st1" d="M292.5,48.7c-0.8,0-1.5-0.7-1.5-1.5V5.6c0-0.8,0.7-1.5,1.5-1.5c0.8,0,1.5,0.7,1.5,1.5v41.6
				C294,48,293.3,48.7,292.5,48.7L292.5,48.7z"/>
		</g>
	</g>
</g>
</svg>
