<?xml version="1.0" encoding="utf-8"?>
<!-- Generator: Adobe Illustrator 21.1.0, SVG Export Plug-In . SVG Version: 6.00 Build 0)  -->
<svg version="1.1" id="Capa_1" xmlns="http://www.w3.org/2000/svg" xmlns:xlink="http://www.w3.org/1999/xlink" x="0px" y="0px"
	 viewBox="0 0 25.6 256.3" style="enable-background:new 0 0 25.6 256.3;" xml:space="preserve">
<style type="text/css">
	.st0{clip-path:url(#SVGID_2_);fill:#E3E0F1;}
	.st1{clip-path:url(#SVGID_2_);fill:none;stroke:#7C6EAF;stroke-width:1.272;}
	.st2{fill:#7C6EAF;}
	.st3{font-family:'MyriadPro-Regular';}
	.st4{font-size:15.2612px;}
	.st5{clip-path:url(#SVGID_4_);fill:#E3E0F1;}
	.st6{clip-path:url(#SVGID_4_);fill:none;stroke:#7C6EAF;stroke-width:1.272;}
	.st7{clip-path:url(#SVGID_6_);fill:#E3E0F1;}
	.st8{clip-path:url(#SVGID_6_);fill:none;stroke:#7C6EAF;stroke-width:1.272;}
	.st9{clip-path:url(#SVGID_8_);fill:#E3E0F1;}
	.st10{clip-path:url(#SVGID_8_);fill:none;stroke:#7C6EAF;stroke-width:1.272;}
</style>
<g>
	<defs>
		<rect id="SVGID_1_" width="25.6" height="256.3"/>
	</defs>
	<clipPath id="SVGID_2_">
		<use xlink:href="#SVGID_1_"  style="overflow:visible;"/>
	</clipPath>
	<path class="st0" d="M0.9,1.2c0,0-0.3,6.5-0.3,14.3c0,7.7,0.3,9.3,0.3,9.3s8.7,1.3,9.7,1.1c1-0.2,14.2-1.1,14.2-1.1
		s0.1-1.8,0.2-9.2c0-8.4-0.2-14.4-0.2-14.4s-13-0.5-14.4-0.6C9,0.6,0.9,1.2,0.9,1.2"/>
	<path class="st1" d="M0.9,1.2c0,0-0.3,6.5-0.3,14.3c0,7.7,0.3,9.3,0.3,9.3s8.7,1.3,9.7,1.1c1-0.2,14.2-1.1,14.2-1.1
		s0.1-1.8,0.2-9.2c0-8.4-0.2-14.4-0.2-14.4s-13-0.5-14.4-0.6C9,0.6,0.9,1.2,0.9,1.2z"/>
</g>
<text transform="matrix(1 0 0 1 8.5635 18.9764)" class="st2 st3 st4">1</text>
<g>
	<defs>
		<rect id="SVGID_3_" width="25.6" height="256.3"/>
	</defs>
	<clipPath id="SVGID_4_">
		<use xlink:href="#SVGID_3_"  style="overflow:visible;"/>
	</clipPath>
	<path class="st5" d="M0.9,81.8c0,0-0.3,6.5-0.3,14.3c0,7.7,0.3,9.3,0.3,9.3s8.7,1.3,9.7,1.1c1-0.2,14.2-1.1,14.2-1.1
		s0.1-1.8,0.2-9.2c0-8.4-0.2-14.4-0.2-14.4s-13-0.5-14.4-0.6C9,81.2,0.9,81.8,0.9,81.8"/>
	<path class="st6" d="M0.9,81.8c0,0-0.3,6.5-0.3,14.3c0,7.7,0.3,9.3,0.3,9.3s8.7,1.3,9.7,1.1c1-0.2,14.2-1.1,14.2-1.1
		s0.1-1.8,0.2-9.2c0-8.4-0.2-14.4-0.2-14.4s-13-0.5-14.4-0.6C9,81.2,0.9,81.8,0.9,81.8z"/>
</g>
<text transform="matrix(1 0 0 1 8.5635 99.6024)" class="st2 st3 st4">2</text>
<g>
	<defs>
		<rect id="SVGID_5_" width="25.6" height="256.3"/>
	</defs>
	<clipPath id="SVGID_6_">
		<use xlink:href="#SVGID_5_"  style="overflow:visible;"/>
	</clipPath>
	<path class="st7" d="M0.9,156.6c0,0-0.3,6.5-0.3,14.3c0,7.7,0.3,9.3,0.3,9.3s8.7,1.3,9.7,1.1c1-0.2,14.2-1.1,14.2-1.1
		s0.1-1.8,0.2-9.2c0-8.4-0.2-14.4-0.2-14.4s-13-0.5-14.4-0.6C9,156,0.9,156.6,0.9,156.6"/>
	<path class="st8" d="M0.9,156.6c0,0-0.3,6.5-0.3,14.3c0,7.7,0.3,9.3,0.3,9.3s8.7,1.3,9.7,1.1c1-0.2,14.2-1.1,14.2-1.1
		s0.1-1.8,0.2-9.2c0-8.4-0.2-14.4-0.2-14.4s-13-0.5-14.4-0.6C9,156,0.9,156.6,0.9,156.6z"/>
</g>
<text transform="matrix(1 0 0 1 8.5635 174.4061)" class="st2 st3 st4">3</text>
<g>
	<defs>
		<rect id="SVGID_7_" width="25.6" height="256.3"/>
	</defs>
	<clipPath id="SVGID_8_">
		<use xlink:href="#SVGID_7_"  style="overflow:visible;"/>
	</clipPath>
	<path class="st9" d="M0.9,231c0,0-0.3,6.5-0.3,14.3c0,7.7,0.3,9.3,0.3,9.3s8.7,1.3,9.7,1.1c1-0.2,14.2-1.1,14.2-1.1
		s0.1-1.8,0.2-9.2c0-8.4-0.2-14.4-0.2-14.4s-13-0.5-14.4-0.6C9,230.4,0.9,231,0.9,231"/>
	<path class="st10" d="M0.9,231c0,0-0.3,6.5-0.3,14.3c0,7.7,0.3,9.3,0.3,9.3s8.7,1.3,9.7,1.1c1-0.2,14.2-1.1,14.2-1.1
		s0.1-1.8,0.2-9.2c0-8.4-0.2-14.4-0.2-14.4s-13-0.5-14.4-0.6C9,230.4,0.9,231,0.9,231z"/>
</g>
<text transform="matrix(1 0 0 1 8.5635 248.7957)" class="st2 st3 st4">4</text>
</svg>
