<?xml version="1.0" encoding="utf-8"?>
<!-- Generator: Adobe Illustrator 21.1.0, SVG Export Plug-In . SVG Version: 6.00 Build 0)  -->
<svg version="1.1" id="Capa_1" xmlns="http://www.w3.org/2000/svg" xmlns:xlink="http://www.w3.org/1999/xlink" x="0px" y="0px"
	 viewBox="0 0 52.861 35.703" style="enable-background:new 0 0 52.861 35.703;" xml:space="preserve">
<style type="text/css">
	.st0{clip-path:url(#SVGID_2_);}
	.st1{clip-path:url(#SVGID_4_);fill:#005CA8;}
	.st2{filter:url(#Adobe_OpacityMaskFilter);}
	.st3{clip-path:url(#SVGID_4_);}
	.st4{clip-path:url(#SVGID_4_);mask:url(#SVGID_5_);}
	.st5{opacity:0.2;clip-path:url(#SVGID_9_);fill:#1D1D1B;}
	.st6{clip-path:url(#SVGID_2_);fill:#FFFFFF;}
	.st7{clip-path:url(#SVGID_11_);fill:none;stroke:#005CA8;stroke-width:1.777;stroke-linecap:round;}
	.st8{clip-path:url(#SVGID_2_);fill:none;stroke:#005CA8;stroke-width:1.185;stroke-linecap:round;}
	.st9{clip-path:url(#SVGID_13_);fill:#005CA8;}
	.st10{clip-path:url(#SVGID_15_);fill:#FFFFFF;}
</style>
<g>
	<defs>
		<rect id="SVGID_1_" x="-1.375" y="-1.297" width="55" height="37"/>
	</defs>
	<clipPath id="SVGID_2_">
		<use xlink:href="#SVGID_1_"  style="overflow:visible;"/>
	</clipPath>
	<g class="st0">
		<defs>
			<rect id="SVGID_3_" x="-1.375" y="-1.297" width="55" height="37"/>
		</defs>
		<clipPath id="SVGID_4_">
			<use xlink:href="#SVGID_3_"  style="overflow:visible;"/>
		</clipPath>
		<path class="st1" d="M25.149,12.449c0,0-1.805,0-1.805,1.805v14.401c0,0,0,1.805,1.805,1.805h25.907c0,0,1.805,0,1.805-1.805
			V14.254c0,0,0-1.805-1.805-1.805H25.149z"/>
		<defs>
			<filter id="Adobe_OpacityMaskFilter" filterUnits="userSpaceOnUse" x="2.911" y="0" width="25.92" height="33.36">
				<feColorMatrix  type="matrix" values="1 0 0 0 0  0 1 0 0 0  0 0 1 0 0  0 0 0 1 0"/>
			</filter>
		</defs>
		<mask maskUnits="userSpaceOnUse" x="2.911" y="0" width="25.92" height="33.36" id="SVGID_5_">
			<g class="st2">
				<g>
					<defs>
						<rect id="SVGID_6_" x="-5.969" y="-6.96" width="44.16" height="41.28"/>
					</defs>
					<clipPath id="SVGID_7_" class="st3">
						<use xlink:href="#SVGID_6_"  style="overflow:visible;"/>
					</clipPath>
					<g transform="matrix(1 0 0 1 0 0)" style="clip-path:url(#SVGID_7_);">
						
							<image style="overflow:visible;" width="184" height="172" xlink:href="E67713710D660CCB.jpg"  transform="matrix(0.24 0 0 0.24 -5.9689 -6.96)">
						</image>
					</g>
				</g>
			</g>
		</mask>
		<g class="st4">
			<g>
				<defs>
					<rect id="SVGID_8_" x="2.911" width="25.92" height="33.36"/>
				</defs>
				<clipPath id="SVGID_9_">
					<use xlink:href="#SVGID_8_"  style="overflow:visible;"/>
				</clipPath>
				<rect x="2.911" y="0" class="st5" width="25.92" height="33.36"/>
			</g>
		</g>
	</g>
	<rect x="1.396" y="1.674" class="st6" width="25.605" height="33.132"/>
	<g class="st0">
		<defs>
			<rect id="SVGID_10_" x="-1.375" y="-1.297" width="55" height="37"/>
		</defs>
		<clipPath id="SVGID_11_">
			<use xlink:href="#SVGID_10_"  style="overflow:visible;"/>
		</clipPath>
		<path class="st7" d="M0.852,1.882V31.66c0,0,0.45,3.058,1.609,3.058h25.42c-1.223,0-1.609-3.058-1.609-3.058V1.882H0.852z"/>
	</g>
	<rect x="4.555" y="11.624" class="st8" width="7.776" height="7.696"/>
	<g class="st0">
		<defs>
			<rect id="SVGID_12_" x="-1.375" y="-1.297" width="55" height="37"/>
		</defs>
		<clipPath id="SVGID_13_">
			<use xlink:href="#SVGID_12_"  style="overflow:visible;"/>
		</clipPath>
		<path class="st9" d="M21.486,6.979l0.462-1.552l0.47,1.552H21.486z M22.886,8.565h0.836l-1.313-3.957h-0.882l-1.296,3.957h0.794
			l0.275-0.93h1.307L22.886,8.565z M20.412,4.608h-2.884v0.689h1.054v3.268h0.775V5.297h1.055V4.608z M14.856,7.529l-0.341,0.548
			c0.376,0.324,0.845,0.544,1.393,0.544c0.744,0,1.344-0.399,1.344-1.215c0-1.436-1.867-0.919-1.867-1.709
			c0-0.29,0.25-0.458,0.588-0.458c0.285,0,0.62,0.118,0.891,0.309l0.335-0.532c-0.343-0.287-0.811-0.465-1.277-0.465
			c-0.716,0-1.299,0.415-1.299,1.204c0,1.397,1.849,0.917,1.849,1.709c0,0.299-0.26,0.452-0.607,0.452
			C15.522,7.916,15.167,7.766,14.856,7.529 M13.182,8.565h0.777V4.608h-0.777V8.565z M10.349,4.608H9.52l1.265,3.957h0.667
			l1.27-3.957h-0.789l-0.795,2.74L10.349,4.608z M6.851,8.565h2.414V7.879H7.619V6.912h1.395V6.228H7.619V5.294h1.607V4.608H6.851
			V8.565z M4.266,6.443V5.287h0.495c0.386,0,0.635,0.196,0.635,0.581c0,0.368-0.227,0.575-0.635,0.575H4.266z M3.503,8.565h0.763
			V7.124h0.425l0.751,1.441h0.9L5.461,7.003c0.446-0.195,0.71-0.613,0.71-1.146c0-0.729-0.496-1.249-1.333-1.249H3.503V8.565z"/>
	</g>
	<line class="st8" x1="14.637" y1="12.915" x2="22.655" y2="12.915"/>
	<line class="st8" x1="14.637" y1="16.046" x2="22.655" y2="16.046"/>
	<line class="st8" x1="14.637" y1="19.32" x2="22.655" y2="19.32"/>
	<line class="st8" x1="4.224" y1="23.731" x2="23.534" y2="23.731"/>
	<line class="st8" x1="4.224" y1="26.862" x2="23.534" y2="26.862"/>
	<line class="st8" x1="4.224" y1="30.136" x2="23.534" y2="30.136"/>
	<g class="st0">
		<defs>
			<rect id="SVGID_14_" x="-1.375" y="-1.297" width="55" height="37"/>
		</defs>
		<clipPath id="SVGID_15_">
			<use xlink:href="#SVGID_14_"  style="overflow:visible;"/>
		</clipPath>
		<path class="st10" d="M46.143,27.532c0.624-0.196,1.138-0.47,1.542-0.821s0.701-0.768,0.891-1.25s0.286-1.008,0.286-1.58
			c0-0.726-0.176-1.348-0.526-1.865c-0.351-0.518-0.847-0.908-1.489-1.17c0.464-0.237,0.832-0.584,1.105-1.041
			c0.274-0.457,0.411-0.929,0.411-1.416c0-0.498-0.084-0.958-0.25-1.379c-0.167-0.421-0.422-0.789-0.767-1.104
			c-0.345-0.314-0.781-0.558-1.31-0.73c-0.529-0.172-1.156-0.258-1.881-0.258c-0.392,0-0.764,0.036-1.115,0.107
			c-0.35,0.071-0.68,0.16-0.989,0.267c-0.309,0.107-0.591,0.226-0.847,0.357c-0.256,0.131-0.479,0.256-0.669,0.374l0.945,1.944
			c0.357-0.226,0.752-0.416,1.186-0.571c0.434-0.154,0.906-0.232,1.417-0.232c0.202,0,0.402,0.027,0.598,0.081
			c0.196,0.053,0.368,0.133,0.517,0.24c0.148,0.107,0.27,0.244,0.365,0.411c0.095,0.166,0.143,0.362,0.143,0.588
			c0,0.297-0.057,0.544-0.169,0.74c-0.114,0.196-0.265,0.351-0.455,0.463c-0.19,0.113-0.407,0.194-0.651,0.241
			c-0.244,0.048-0.496,0.071-0.758,0.071h-1.176v2.14h1.034c0.368,0,0.716,0.027,1.043,0.08c0.327,0.054,0.609,0.149,0.847,0.285
			c0.237,0.137,0.425,0.315,0.561,0.535c0.137,0.22,0.205,0.491,0.205,0.812c0,0.523-0.19,0.939-0.57,1.248
			c-0.381,0.309-0.981,0.463-1.801,0.463c-0.713,0-1.31-0.074-1.792-0.223c-0.481-0.148-0.876-0.288-1.185-0.419l-0.517,2.211
			c0.154,0.071,0.368,0.149,0.641,0.232c0.274,0.083,0.577,0.16,0.91,0.232c0.332,0.071,0.677,0.127,1.034,0.169
			c0.356,0.042,0.695,0.062,1.016,0.062C44.779,27.826,45.519,27.728,46.143,27.532 M34.955,27.559
			c0.071-1.07,0.259-2.14,0.562-3.209c0.303-1.07,0.659-2.071,1.069-3.005c0.41-0.932,0.844-1.767,1.302-2.505
			c0.457-0.736,0.876-1.313,1.257-1.729v-1.926h-8.647v2.265h5.366c-0.416,0.582-0.826,1.275-1.23,2.077s-0.77,1.655-1.096,2.558
			c-0.327,0.904-0.604,1.825-0.829,2.764c-0.226,0.939-0.375,1.842-0.446,2.71H34.955z"/>
	</g>
</g>
</svg>
