<?xml version="1.0" encoding="utf-8"?>
<!-- Generator: Adobe Illustrator 26.0.1, SVG Export Plug-In . SVG Version: 6.00 Build 0)  -->
<svg version="1.1" id="Capa_1" xmlns="http://www.w3.org/2000/svg" xmlns:xlink="http://www.w3.org/1999/xlink" x="0px" y="0px"
	 viewBox="0 0 42.2 11.8" style="enable-background:new 0 0 42.2 11.8;" xml:space="preserve">
<style type="text/css">
	.st0{clip-path:url(#SVGID_00000017509208231276519100000007679706958085790884_);fill:#D5D1E9;}
	.st1{clip-path:url(#SVGID_00000112621381688870161100000013532464110756054150_);fill:#D5D1E9;}
</style>
<g>
	<g>
		<defs>
			<rect id="SVGID_1_" width="42.2" height="11.8"/>
		</defs>
		<clipPath id="SVGID_00000047778394248908421650000009124690218823480238_">
			<use xlink:href="#SVGID_1_"  style="overflow:visible;"/>
		</clipPath>
		<path style="clip-path:url(#SVGID_00000047778394248908421650000009124690218823480238_);fill:#D5D1E9;" d="M0.2,7.3
			C0.1,7.4,0,7.3,0,7.2C1.9,0.8,12.9,0,18.3-0.1c7.1-0.1,16.3,1.9,20.2,8.6c0.1,0.2,0,0.5-0.3,0.4c-5.8-3.2-10.8-6.5-17.6-7.1
			C14,1.3,4.9,2.1,0.2,7.3"/>
	</g>
	<g>
		<defs>
			<rect id="SVGID_00000096778065433728368550000007248539993003426730_" width="42.2" height="11.8"/>
		</defs>
		<clipPath id="SVGID_00000176016915152076096990000016092689917064116384_">
			<use xlink:href="#SVGID_00000096778065433728368550000007248539993003426730_"  style="overflow:visible;"/>
		</clipPath>
		<path style="clip-path:url(#SVGID_00000176016915152076096990000016092689917064116384_);fill:#D5D1E9;" d="M30.4,9.9
			c-0.1,0-0.1-0.1-0.2-0.2c2.1-3.2,8.3-0.7,11.1,0.1c-0.4,0.4-0.7,0.9-1.1,1.3c-1-1.8-2-4.7-3.7-5.9c-2-1.4,2-4.1,2.3-1.2
			C39,5.4,40,6.6,40.7,7.8c0.5,0.9,1,1.7,1.4,2.6c0.3,0.7-0.4,1.5-1.1,1.3c-1.7-0.4-3.4-1-5.2-1.5C34,9.7,32.3,9.8,30.4,9.9"/>
	</g>
</g>
</svg>
