<?xml version="1.0" encoding="utf-8"?>
<!-- Generator: Adobe Illustrator 14.0.0, SVG Export Plug-In . SVG Version: 6.00 Build 43363)  -->
<!DOCTYPE svg PUBLIC "-//W3C//DTD SVG 1.1//EN" "http://www.w3.org/Graphics/SVG/1.1/DTD/svg11.dtd">
<svg version="1.1" id="Layer_1" xmlns="http://www.w3.org/2000/svg" xmlns:xlink="http://www.w3.org/1999/xlink" x="0px" y="0px"
	 width="33.143px" height="9.3px" viewBox="0 0 33.143 9.3" enable-background="new 0 0 33.143 9.3" xml:space="preserve">
<g>
	<path fill="#E0B9D7" d="M30.268,6.736c-3.025-5.232-10.289-6.792-15.876-6.734C10.161,0.044,1.471,0.682,0.003,5.695
		c-0.025,0.088,0.099,0.127,0.152,0.07c3.721-4.097,10.803-4.738,16.027-4.282c5.339,0.465,9.291,3.025,13.829,5.559
		C30.209,7.153,30.361,6.896,30.268,6.736z"/>
	<path fill="#E0B9D7" d="M33.081,8.271c-0.349-0.679-0.692-1.363-1.066-2.027c-0.537-0.957-1.346-1.874-1.459-3.007
		c-0.231-2.239-3.403-0.178-1.785,0.927c0.955,0.652,1.616,1.946,2.182,3.158c-2.426-0.734-5.828-1.634-7.158,0.354
		c-0.041,0.062-0.006,0.146,0.072,0.142c1.479-0.055,2.809-0.14,4.265,0.248c1.377,0.37,2.724,0.842,4.099,1.215
		C32.749,9.423,33.338,8.773,33.081,8.271z"/>
</g>
</svg>
