<?xml version="1.0" encoding="utf-8"?>
<!-- Generator: Adobe Illustrator 21.1.0, SVG Export Plug-In . SVG Version: 6.00 Build 0)  -->
<svg version="1.1" id="Capa_1" xmlns="http://www.w3.org/2000/svg" xmlns:xlink="http://www.w3.org/1999/xlink" x="0px" y="0px"
	 viewBox="0 0 80.836 35.583" style="enable-background:new 0 0 80.836 35.583;" xml:space="preserve">
<style type="text/css">
	.st0{clip-path:url(#SVGID_2_);}
	.st1{clip-path:url(#SVGID_4_);fill:#005CA8;}
	.st2{filter:url(#Adobe_OpacityMaskFilter);}
	.st3{clip-path:url(#SVGID_4_);}
	.st4{clip-path:url(#SVGID_4_);mask:url(#SVGID_5_);}
	.st5{opacity:0.2;clip-path:url(#SVGID_9_);fill:#1D1D1B;}
	.st6{clip-path:url(#SVGID_2_);fill:#FFFFFF;}
	.st7{clip-path:url(#SVGID_11_);fill:none;stroke:#005CA8;stroke-width:1.777;stroke-linecap:round;}
	.st8{clip-path:url(#SVGID_2_);fill:none;stroke:#005CA8;stroke-width:1.185;stroke-linecap:round;}
	.st9{clip-path:url(#SVGID_13_);fill:#005CA8;}
	.st10{clip-path:url(#SVGID_15_);fill:#FFFFFF;}
</style>
<g>
	<defs>
		<rect id="SVGID_1_" x="-1.5" y="-1.987" width="84" height="38.85"/>
	</defs>
	<clipPath id="SVGID_2_">
		<use xlink:href="#SVGID_1_"  style="overflow:visible;"/>
	</clipPath>
	<g class="st0">
		<defs>
			<rect id="SVGID_3_" x="-1.5" y="-1.987" width="84" height="38.85"/>
		</defs>
		<clipPath id="SVGID_4_">
			<use xlink:href="#SVGID_3_"  style="overflow:visible;"/>
		</clipPath>
		<path class="st1" d="M25.149,12.495c0,0-1.805,0-1.805,1.805v14.4c0,0,0,1.805,1.805,1.805h53.882c0,0,1.805,0,1.805-1.805V14.3
			c0,0,0-1.805-1.805-1.805H25.149z"/>
		<defs>
			<filter id="Adobe_OpacityMaskFilter" filterUnits="userSpaceOnUse" x="2.913" y="0.047" width="25.92" height="33.36">
				<feColorMatrix  type="matrix" values="1 0 0 0 0  0 1 0 0 0  0 0 1 0 0  0 0 0 1 0"/>
			</filter>
		</defs>
		<mask maskUnits="userSpaceOnUse" x="2.913" y="0.047" width="25.92" height="33.36" id="SVGID_5_">
			<g class="st2">
				<g>
					<defs>
						<rect id="SVGID_6_" x="-5.967" y="-6.913" width="44.16" height="41.28"/>
					</defs>
					<clipPath id="SVGID_7_" class="st3">
						<use xlink:href="#SVGID_6_"  style="overflow:visible;"/>
					</clipPath>
					<g transform="matrix(1 0 0 1 0 0)" style="clip-path:url(#SVGID_7_);">
						
							<image style="overflow:visible;" width="184" height="172" xlink:href="AA3A7470A7EA619C.jpg"  transform="matrix(0.24 0 0 0.24 -5.967 -6.9129)">
						</image>
					</g>
				</g>
			</g>
		</mask>
		<g class="st4">
			<g>
				<defs>
					<rect id="SVGID_8_" x="2.913" y="0.047" width="25.92" height="33.36"/>
				</defs>
				<clipPath id="SVGID_9_">
					<use xlink:href="#SVGID_8_"  style="overflow:visible;"/>
				</clipPath>
				<rect x="2.913" y="0.047" class="st5" width="25.92" height="33.36"/>
			</g>
		</g>
	</g>
	<rect x="1.398" y="1.722" class="st6" width="25.604" height="33.13"/>
	<g class="st0">
		<defs>
			<rect id="SVGID_10_" x="-1.5" y="-1.987" width="84" height="38.85"/>
		</defs>
		<clipPath id="SVGID_11_">
			<use xlink:href="#SVGID_10_"  style="overflow:visible;"/>
		</clipPath>
		<path class="st7" d="M0.854,1.928v29.776c0,0,0.45,3.058,1.609,3.058h25.419c-1.223,0-1.609-3.057-1.609-3.057V1.928H0.854z"/>
	</g>
	<rect x="4.557" y="11.671" class="st8" width="7.776" height="7.695"/>
	<g class="st0">
		<defs>
			<rect id="SVGID_12_" x="-1.5" y="-1.987" width="84" height="38.85"/>
		</defs>
		<clipPath id="SVGID_13_">
			<use xlink:href="#SVGID_12_"  style="overflow:visible;"/>
		</clipPath>
		<path class="st9" d="M21.487,7.025l0.463-1.552l0.469,1.552H21.487z M22.887,8.611h0.836l-1.312-3.957h-0.883l-1.296,3.957h0.794
			l0.275-0.93h1.308L22.887,8.611z M20.413,4.654H17.53v0.689h1.053v3.268h0.775V5.343h1.055V4.654z M14.858,7.575l-0.342,0.548
			c0.376,0.324,0.845,0.544,1.393,0.544c0.745,0,1.344-0.399,1.344-1.215c0-1.436-1.866-0.919-1.866-1.709
			c0-0.29,0.249-0.458,0.587-0.458c0.285,0,0.62,0.118,0.891,0.309L17.2,5.062c-0.343-0.287-0.811-0.464-1.277-0.464
			c-0.715,0-1.299,0.414-1.299,1.203c0,1.397,1.849,0.917,1.849,1.709c0,0.299-0.26,0.452-0.606,0.452
			C15.524,7.962,15.168,7.812,14.858,7.575 M13.183,8.611h0.777V4.654h-0.777V8.611z M10.351,4.654h-0.83l1.265,3.957h0.668
			l1.27-3.957h-0.789l-0.795,2.74L10.351,4.654z M6.853,8.611h2.414V7.925H7.621V6.958h1.395V6.274H7.621V5.34h1.606V4.654H6.853
			V8.611z M4.268,6.489V5.333h0.495c0.386,0,0.635,0.197,0.635,0.581c0,0.369-0.227,0.575-0.635,0.575H4.268z M3.505,8.611h0.763
			V7.17h0.425l0.751,1.441h0.9L5.463,7.049c0.446-0.195,0.71-0.613,0.71-1.146c0-0.729-0.496-1.249-1.333-1.249H3.505V8.611z"/>
	</g>
	<line class="st8" x1="14.638" y1="12.961" x2="22.656" y2="12.961"/>
	<line class="st8" x1="14.638" y1="16.092" x2="22.656" y2="16.092"/>
	<line class="st8" x1="14.638" y1="19.366" x2="22.656" y2="19.366"/>
	<line class="st8" x1="4.226" y1="23.777" x2="23.535" y2="23.777"/>
	<line class="st8" x1="4.226" y1="26.908" x2="23.535" y2="26.908"/>
	<line class="st8" x1="4.226" y1="30.182" x2="23.535" y2="30.182"/>
	<g class="st0">
		<defs>
			<rect id="SVGID_14_" x="-1.5" y="-1.987" width="84" height="38.85"/>
		</defs>
		<clipPath id="SVGID_15_">
			<use xlink:href="#SVGID_14_"  style="overflow:visible;"/>
		</clipPath>
		<path class="st10" d="M71.461,19.797c-0.274,0.047-0.541,0.131-0.803,0.249c0.179-0.487,0.428-0.9,0.749-1.239
			c0.321-0.338,0.698-0.615,1.132-0.829c0.434-0.214,0.915-0.371,1.444-0.472s1.097-0.158,1.703-0.17
			c-0.024-0.38-0.048-0.745-0.071-1.096c-0.024-0.35-0.048-0.71-0.072-1.079c-1.212,0.012-2.302,0.182-3.271,0.509
			c-0.969,0.327-1.795,0.802-2.478,1.426c-0.684,0.624-1.21,1.393-1.578,2.309c-0.369,0.915-0.553,1.967-0.553,3.155
			c0,1.652,0.386,2.948,1.159,3.887s1.902,1.408,3.388,1.408c0.736,0,1.375-0.131,1.916-0.392c0.541-0.261,0.987-0.594,1.337-0.998
			c0.351-0.404,0.612-0.856,0.785-1.355c0.172-0.5,0.258-0.987,0.258-1.462c0-0.535-0.077-1.04-0.232-1.516
			c-0.154-0.475-0.404-0.891-0.748-1.248c-0.345-0.356-0.788-0.638-1.329-0.847c-0.541-0.207-1.197-0.312-1.97-0.312
			C71.989,19.725,71.734,19.749,71.461,19.797 M73.413,22.284c0.303,0.327,0.455,0.793,0.455,1.399c0,0.214-0.033,0.437-0.098,0.669
			c-0.066,0.232-0.167,0.443-0.304,0.633c-0.136,0.19-0.309,0.348-0.517,0.472c-0.208,0.125-0.46,0.188-0.757,0.188
			c-0.357,0-0.654-0.081-0.892-0.241c-0.238-0.161-0.428-0.383-0.57-0.669c-0.143-0.285-0.244-0.618-0.303-0.998
			c-0.06-0.38-0.089-0.785-0.089-1.212c0-0.072,0.002-0.155,0.008-0.25c0.006-0.095,0.009-0.166,0.009-0.214
			c0.167-0.083,0.398-0.148,0.696-0.196c0.297-0.047,0.576-0.071,0.838-0.071C72.602,21.794,73.11,21.957,73.413,22.284
			 M63.153,19.541c-0.202,0.308-0.494,0.58-0.874,0.817c-0.677-0.237-1.156-0.521-1.435-0.853c-0.279-0.332-0.419-0.687-0.419-1.067
			c0-0.142,0.03-0.29,0.089-0.444c0.06-0.154,0.152-0.299,0.277-0.436c0.124-0.136,0.282-0.246,0.472-0.329
			c0.19-0.083,0.416-0.124,0.677-0.124c0.274,0,0.506,0.044,0.696,0.133c0.19,0.089,0.347,0.199,0.472,0.329
			c0.125,0.13,0.214,0.27,0.268,0.418c0.053,0.148,0.08,0.287,0.08,0.418C63.456,18.853,63.355,19.232,63.153,19.541 M60.496,23.071
			c0.226-0.334,0.505-0.626,0.838-0.876c0.333,0.107,0.645,0.223,0.936,0.348c0.291,0.126,0.544,0.268,0.758,0.429
			c0.214,0.161,0.383,0.349,0.508,0.563c0.125,0.215,0.187,0.459,0.187,0.733c0,0.369-0.142,0.703-0.428,1.001
			c-0.285,0.298-0.737,0.447-1.355,0.447c-0.32,0-0.594-0.048-0.82-0.143c-0.226-0.095-0.41-0.215-0.552-0.357
			c-0.143-0.143-0.247-0.301-0.312-0.474c-0.066-0.173-0.098-0.331-0.098-0.474C60.158,23.803,60.27,23.404,60.496,23.071
			 M65.889,22.473c-0.291-0.482-0.775-0.943-1.453-1.384c0.452-0.284,0.83-0.673,1.133-1.166c0.303-0.492,0.454-1.023,0.454-1.593
			c0-0.392-0.074-0.786-0.223-1.184c-0.148-0.397-0.389-0.756-0.722-1.077c-0.333-0.32-0.757-0.584-1.274-0.792
			c-0.517-0.208-1.139-0.312-1.864-0.312c-0.618,0-1.179,0.098-1.684,0.294c-0.506,0.196-0.936,0.457-1.293,0.784
			c-0.356,0.326-0.633,0.709-0.829,1.148c-0.196,0.439-0.294,0.896-0.294,1.371c0,0.629,0.122,1.145,0.365,1.548
			c0.244,0.404,0.621,0.814,1.133,1.229c-0.238,0.179-0.461,0.369-0.669,0.571c-0.208,0.203-0.395,0.426-0.562,0.67
			c-0.166,0.244-0.297,0.514-0.392,0.812s-0.142,0.625-0.142,0.982c0,0.345,0.071,0.723,0.213,1.133
			c0.143,0.411,0.384,0.789,0.723,1.134c0.338,0.346,0.784,0.634,1.337,0.866c0.552,0.232,1.245,0.348,2.077,0.348
			c0.724,0,1.364-0.092,1.916-0.276c0.553-0.185,1.013-0.444,1.382-0.777c0.368-0.333,0.645-0.723,0.829-1.169
			c0.184-0.446,0.276-0.938,0.276-1.473C66.326,23.517,66.181,22.955,65.889,22.473 M51.261,23.487h5.17V21.08h-5.17V23.487z
			 M46.555,25.119c-0.369,0.327-0.963,0.49-1.783,0.49c-0.678,0-1.26-0.063-1.747-0.187c-0.488-0.125-0.88-0.253-1.177-0.384
			l-0.481,2.193c0.142,0.072,0.344,0.143,0.606,0.214c0.261,0.072,0.555,0.14,0.882,0.205c0.327,0.065,0.666,0.119,1.017,0.161
			c0.35,0.041,0.686,0.062,1.007,0.062c0.82,0,1.536-0.101,2.148-0.303s1.12-0.481,1.525-0.838c0.403-0.357,0.707-0.778,0.909-1.266
			c0.202-0.487,0.303-1.016,0.303-1.586c0-1.237-0.413-2.202-1.239-2.898c-0.826-0.695-2.107-1.102-3.842-1.221
			c0.035-0.297,0.068-0.644,0.098-1.043c0.029-0.398,0.056-0.811,0.08-1.239h4.457v-2.228h-6.686
			c-0.047,0.998-0.113,2.068-0.196,3.209c-0.083,1.141-0.19,2.264-0.321,3.369c0.975,0,1.783,0.048,2.425,0.143
			c0.642,0.095,1.153,0.232,1.533,0.41c0.381,0.178,0.648,0.401,0.803,0.668c0.154,0.268,0.231,0.574,0.231,0.919
			C47.107,24.409,46.923,24.792,46.555,25.119 M36.838,19.541c-0.202,0.308-0.493,0.58-0.873,0.817
			c-0.678-0.237-1.156-0.521-1.435-0.853c-0.28-0.332-0.419-0.687-0.419-1.067c0-0.142,0.029-0.29,0.089-0.444
			c0.059-0.154,0.151-0.299,0.276-0.436c0.125-0.136,0.282-0.246,0.473-0.329c0.19-0.083,0.415-0.124,0.677-0.124
			c0.273,0,0.505,0.044,0.695,0.133c0.19,0.089,0.348,0.199,0.473,0.329c0.125,0.13,0.214,0.27,0.267,0.418
			c0.054,0.148,0.08,0.287,0.08,0.418C37.141,18.853,37.04,19.232,36.838,19.541 M34.182,23.071
			c0.226-0.334,0.505-0.626,0.838-0.876c0.332,0.107,0.644,0.223,0.936,0.348c0.291,0.126,0.544,0.268,0.758,0.429
			c0.213,0.161,0.383,0.349,0.508,0.563c0.124,0.215,0.187,0.459,0.187,0.733c0,0.369-0.143,0.703-0.428,1.001
			s-0.737,0.447-1.355,0.447c-0.321,0-0.594-0.048-0.82-0.143c-0.226-0.095-0.41-0.215-0.553-0.357
			c-0.142-0.143-0.247-0.301-0.312-0.474c-0.065-0.173-0.098-0.331-0.098-0.474C33.843,23.803,33.956,23.404,34.182,23.071
			 M39.575,22.473c-0.291-0.482-0.776-0.943-1.453-1.384c0.452-0.284,0.829-0.673,1.132-1.166c0.303-0.492,0.455-1.023,0.455-1.593
			c0-0.392-0.075-0.786-0.223-1.184c-0.149-0.397-0.39-0.756-0.722-1.077c-0.333-0.32-0.758-0.584-1.275-0.792
			c-0.517-0.208-1.138-0.312-1.863-0.312c-0.618,0-1.18,0.098-1.685,0.294c-0.505,0.196-0.936,0.457-1.292,0.784
			c-0.357,0.326-0.633,0.709-0.829,1.148c-0.196,0.439-0.295,0.896-0.295,1.371c0,0.629,0.122,1.145,0.366,1.548
			c0.243,0.404,0.621,0.814,1.132,1.229c-0.238,0.179-0.461,0.369-0.669,0.571c-0.208,0.203-0.395,0.426-0.561,0.67
			c-0.167,0.244-0.297,0.514-0.392,0.812c-0.096,0.298-0.143,0.625-0.143,0.982c0,0.345,0.071,0.723,0.214,1.133
			c0.143,0.411,0.383,0.789,0.722,1.134c0.339,0.346,0.784,0.634,1.337,0.866c0.553,0.232,1.245,0.348,2.077,0.348
			c0.725,0,1.364-0.092,1.917-0.276c0.552-0.185,1.013-0.444,1.381-0.777c0.369-0.333,0.645-0.723,0.829-1.169
			c0.185-0.446,0.277-0.938,0.277-1.473C40.012,23.517,39.866,22.955,39.575,22.473"/>
	</g>
</g>
</svg>
