<?xml version="1.0" encoding="utf-8"?>
<!-- Generator: Adobe Illustrator 24.2.3, SVG Export Plug-In . SVG Version: 6.00 Build 0)  -->
<svg version="1.1" id="Layer_1" xmlns="http://www.w3.org/2000/svg" xmlns:xlink="http://www.w3.org/1999/xlink" x="0px" y="0px"
	 viewBox="0 0 316.1 126.2" style="enable-background:new 0 0 316.1 126.2;" xml:space="preserve">
<style type="text/css">
	.st0{fill:#E4E1F2;}
	.st1{fill:none;stroke:#E4E1F2;}
</style>
<g>
	<path class="st0" d="M30.3,10.8c0,0-7,23.9-7.1,52.5c-0.1,28.4,7.1,52.6,7.1,52.6s104,4.9,130.2,4c26.2-0.9,127.5-4,127.5-4
		s3.5-25.4,3.9-52.5c0.5-31.1-3.9-52.6-3.9-52.6s-96.7-3.9-132.6-4C119.5,6.4,30.3,10.8,30.3,10.8"/>
	<path class="st1" d="M29,9.8c0,0-5.5,28.2-5.6,56.6c-0.2,28.5,5.6,48.5,5.6,48.5s47.1,4.7,99.5,4.9c92.7,0.4,161.4-2.4,161.4-2.4
		s2.8-36.1,3.3-62.9c0.5-31.1-5.4-44.7-5.4-44.7s-84-2.6-120-2.8C131.6,6.8,29,9.8,29,9.8z"/>
</g>
</svg>
