<?xml version="1.0" encoding="utf-8"?>
<!-- Generator: Adobe Illustrator 24.2.3, SVG Export Plug-In . SVG Version: 6.00 Build 0)  -->
<svg version="1.1" id="Layer_1" xmlns="http://www.w3.org/2000/svg" xmlns:xlink="http://www.w3.org/1999/xlink" x="0px" y="0px"
	 viewBox="0 0 316.1 77" style="enable-background:new 0 0 316.1 77;" xml:space="preserve">
<style type="text/css">
	.st0{fill:#E4E1F2;}
	.st1{fill:none;stroke:#E4E1F2;}
</style>
<g>
	<path class="st0" d="M30.3,9.1c0,0-7,13.7-7.1,30.1c-0.1,16.3,7.1,30.2,7.1,30.2s104,2.8,130.2,2.3S288,69.4,288,69.4
		s3.5-14.6,3.9-30.1c0.5-17.8-3.9-30.2-3.9-30.2s-96.7-2.2-132.6-2.3C119.5,6.6,30.3,9.1,30.3,9.1"/>
	<path class="st1" d="M29,8.5c0,0-5.5,16.2-5.6,32.5C23.2,57.3,29,68.8,29,68.8s47.1,2.7,99.5,2.8c92.7,0.2,161.4-1.4,161.4-1.4
		s2.8-20.7,3.3-36.1c0.5-17.8-5.4-25.6-5.4-25.6s-84-1.5-120-1.6C131.6,6.8,29,8.5,29,8.5z"/>
</g>
</svg>
