<?xml version="1.0" encoding="utf-8"?>
<!-- Generator: Adobe Illustrator 21.1.0, SVG Export Plug-In . SVG Version: 6.00 Build 0)  -->
<svg version="1.1" id="Capa_1" xmlns="http://www.w3.org/2000/svg" xmlns:xlink="http://www.w3.org/1999/xlink" x="0px" y="0px"
	 viewBox="0 0 42.4 11.9" style="enable-background:new 0 0 42.4 11.9;" xml:space="preserve">
<style type="text/css">
	.st0{clip-path:url(#SVGID_2_);fill:#D5D1E9;}
</style>
<g>
	<defs>
		<rect id="SVGID_1_" width="42.4" height="11.9"/>
	</defs>
	<clipPath id="SVGID_2_">
		<use xlink:href="#SVGID_1_"  style="overflow:visible;"/>
	</clipPath>
	<path class="st0" d="M0.2,4.5C5,9.8,14,10.6,20.7,10c6.8-0.6,11.9-3.9,17.7-7.1c0.3-0.1,0.4,0.2,0.3,0.4C34.9,10,25.6,12,18.4,11.9
		C13,11.8,1.9,11,0,4.6C0,4.5,0.1,4.5,0.2,4.5"/>
	<path class="st0" d="M30.6,1.9C32.4,2,34.1,2.1,36,1.6c1.8-0.5,3.5-1.1,5.2-1.6c0.7-0.2,1.4,0.7,1.1,1.3c-0.4,0.9-0.9,1.7-1.4,2.6
		c-0.7,1.2-1.7,2.4-1.9,3.8c-0.3,2.9-4.4,0.2-2.3-1.2c1.8-1.2,2.7-4.1,3.7-5.9c0.4,0.4,0.7,0.9,1.1,1.3c-2.8,0.8-9,3.3-11.1,0.1
		C30.4,2,30.5,1.9,30.6,1.9"/>
</g>
</svg>
