<?xml version="1.0" encoding="utf-8"?>
<!-- Generator: Adobe Illustrator 26.0.2, SVG Export Plug-In . SVG Version: 6.00 Build 0)  -->
<svg version="1.1" id="Layer_1" xmlns="http://www.w3.org/2000/svg" xmlns:xlink="http://www.w3.org/1999/xlink" x="0px" y="0px"
	 viewBox="0 0 29.9 329" style="enable-background:new 0 0 29.9 329;" xml:space="preserve">
<style type="text/css">
	.st0{fill:#828978;}
	.st1{fill:#8BC53F;}
</style>
<g>
	<path class="st0" d="M22.7,240.4c0-1.9,1.6-3.4,3.6-3.4c2,0,3.6,1.5,3.6,3.4s-1.6,3.4-3.6,3.4C24.3,243.7,22.7,242.2,22.7,240.4"/>
</g>
<g>
	<path class="st0" d="M22.7,266.6c0-1.9,1.6-3.4,3.6-3.4c2,0,3.6,1.5,3.6,3.4c0,1.9-1.6,3.4-3.6,3.4C24.3,270,22.7,268.5,22.7,266.6
		"/>
</g>
<g>
	<path class="st0" d="M22.7,294c0-1.9,1.6-3.4,3.6-3.4c2,0,3.6,1.5,3.6,3.4c0,1.9-1.6,3.4-3.6,3.4C24.3,297.4,22.7,295.9,22.7,294"
		/>
</g>
<g>
	<path class="st0" d="M22.7,226.8c0-1.9,1.6-3.4,3.6-3.4c2,0,3.6,1.5,3.6,3.4s-1.6,3.4-3.6,3.4C24.3,230.2,22.7,228.7,22.7,226.8"/>
</g>
<g>
	<path class="st0" d="M22.7,253.1c0-1.9,1.6-3.4,3.6-3.4c2,0,3.6,1.5,3.6,3.4c0,1.9-1.6,3.4-3.6,3.4C24.3,256.5,22.7,255,22.7,253.1
		"/>
</g>
<g>
	<path class="st0" d="M22.7,280.5c0-1.9,1.6-3.4,3.6-3.4c2,0,3.6,1.5,3.6,3.4c0,1.9-1.6,3.4-3.6,3.4
		C24.3,283.9,22.7,282.4,22.7,280.5"/>
</g>
<g>
	<path class="st1" d="M26,44.7c0,0-0.1,0-0.1,0l-25-3.1C0.3,41.5-0.1,41,0,40.5s0.6-0.9,1.1-0.9l25,3.1c0.5,0.1,0.9,0.6,0.9,1.1
		C27,44.3,26.5,44.7,26,44.7L26,44.7z"/>
</g>
<g>
	<path class="st1" d="M26,58.3c0,0-0.1,0-0.1,0l-25-3.1C0.3,55.1-0.1,54.6,0,54c0.1-0.5,0.6-0.9,1.1-0.9l25,3.1
		c0.5,0.1,0.9,0.6,0.9,1.1C27,57.9,26.5,58.3,26,58.3L26,58.3z"/>
</g>
<g>
	<path class="st1" d="M26,71.8c0,0-0.1,0-0.1,0l-25-3.1c-0.5-0.1-0.9-0.6-0.9-1.1s0.6-0.9,1.1-0.9l25,3.1c0.5,0.1,0.9,0.6,0.9,1.1
		C27,71.4,26.5,71.8,26,71.8L26,71.8z"/>
</g>
<g>
	<path class="st1" d="M26,85.4c0,0-0.1,0-0.1,0l-25-3.1c-0.5-0.1-0.9-0.6-0.9-1.1s0.6-0.9,1.1-0.9l25,3.1c0.5,0.1,0.9,0.6,0.9,1.1
		C27,85,26.5,85.4,26,85.4L26,85.4z"/>
</g>
<g>
	<path class="st1" d="M26,98.9c0,0-0.1,0-0.1,0l-25-3.1c-0.5-0.1-0.9-0.6-0.9-1.1c0.1-0.5,0.6-0.9,1.1-0.9l25,3.1
		c0.5,0.1,0.9,0.6,0.9,1.1C27,98.5,26.5,98.9,26,98.9L26,98.9z"/>
</g>
<g>
	<path class="st1" d="M26,112.4c0,0-0.1,0-0.1,0l-25-3.1c-0.5-0.1-0.9-0.6-0.9-1.1s0.6-0.9,1.1-0.9l25,3.1c0.5,0.1,0.9,0.6,0.9,1.1
		C27,112.1,26.5,112.4,26,112.4L26,112.4z"/>
</g>
<g>
	<path class="st1" d="M26,126c0,0-0.1,0-0.1,0l-25-3.1c-0.5-0.1-0.9-0.6-0.9-1.1s0.6-0.9,1.1-0.9l25,3.1c0.5,0.1,0.9,0.6,0.9,1.1
		C27,125.6,26.5,126,26,126L26,126z"/>
</g>
<g>
	<path class="st1" d="M26,139.5c0,0-0.1,0-0.1,0l-25-3.1c-0.5-0.1-0.9-0.6-0.9-1.1c0.1-0.5,0.6-0.9,1.1-0.9l25,3.1
		c0.5,0.1,0.9,0.6,0.9,1.1C27,139.2,26.5,139.5,26,139.5L26,139.5z"/>
</g>
<g>
	<path class="st1" d="M26,153.1c0,0-0.1,0-0.1,0l-25-3.1c-0.5-0.1-0.9-0.6-0.9-1.1c0.1-0.5,0.6-0.9,1.1-0.9l25,3.1
		c0.5,0.1,0.9,0.6,0.9,1.1C27,152.7,26.5,153.1,26,153.1L26,153.1z"/>
</g>
<g>
	<path class="st1" d="M26,166.6c0,0-0.1,0-0.1,0l-25-3.1c-0.5-0.1-0.9-0.6-0.9-1.1s0.6-0.9,1.1-0.9l25,3.1c0.5,0.1,0.9,0.6,0.9,1.1
		C27,166.3,26.5,166.6,26,166.6L26,166.6z"/>
</g>
<g>
	<path class="st1" d="M26,180.2c0,0-0.1,0-0.1,0l-25-3.1C0.3,177-0.1,176.5,0,176c0.1-0.5,0.6-0.9,1.1-0.9l25,3.1
		c0.5,0.1,0.9,0.6,0.9,1.1C27,179.8,26.5,180.2,26,180.2L26,180.2z"/>
</g>
<g>
	<path class="st1" d="M26,193.7c0,0-0.1,0-0.1,0l-25-3.1c-0.5-0.1-0.9-0.6-0.9-1.1c0.1-0.5,0.6-0.9,1.1-0.9l25,3.1
		c0.5,0.1,0.9,0.6,0.9,1.1C27,193.4,26.5,193.7,26,193.7L26,193.7z"/>
</g>
<g>
	<path class="st1" d="M26,207.3c0,0-0.1,0-0.1,0l-25-3.1c-0.5-0.1-0.9-0.6-0.9-1.1c0.1-0.6,0.6-0.9,1.1-0.9l25,3.1
		c0.5,0.1,0.9,0.6,0.9,1.1C27,206.9,26.5,207.3,26,207.3L26,207.3z"/>
</g>
<g>
	<path class="st1" d="M26,220.8c0,0-0.1,0-0.1,0l-25-3.1c-0.5-0.1-0.9-0.6-0.9-1.1c0.1-0.5,0.6-0.9,1.1-0.9l25,3.1
		c0.5,0.1,0.9,0.6,0.9,1.1C27,220.5,26.5,220.8,26,220.8L26,220.8z"/>
</g>
<g>
	<path class="st1" d="M26,234.4c0,0-0.1,0-0.1,0l-25-3.1c-0.5-0.1-0.9-0.6-0.9-1.1c0.1-0.5,0.6-0.9,1.1-0.9l25,3.1
		c0.5,0.1,0.9,0.6,0.9,1.1C27,234,26.5,234.4,26,234.4L26,234.4z"/>
</g>
<g>
	<path class="st1" d="M26,248c0,0-0.1,0-0.1,0l-25-3.1c-0.5-0.1-0.9-0.6-0.9-1.1c0.1-0.5,0.6-0.9,1.1-0.9l25,3.1
		c0.5,0.1,0.9,0.6,0.9,1.1C27,247.6,26.5,248,26,248L26,248z"/>
</g>
<g>
	<path class="st1" d="M26,260.7c0,0-0.1,0-0.1,0l-25-3.1c-0.5-0.1-0.9-0.6-0.9-1.1c0.1-0.5,0.6-0.9,1.1-0.9l25,3.1
		c0.5,0.1,0.9,0.6,0.9,1.1C27,260.3,26.5,260.7,26,260.7L26,260.7z"/>
</g>
<g>
	<path class="st1" d="M26,274.2c0,0-0.1,0-0.1,0l-25-3.1c-0.5-0.1-0.9-0.6-0.9-1.1c0.1-0.5,0.6-0.9,1.1-0.9l25,3.1
		c0.5,0.1,0.9,0.6,0.9,1.1C27,273.9,26.5,274.2,26,274.2L26,274.2z"/>
</g>
<g>
	<path class="st1" d="M26,288.1c0,0-0.1,0-0.1,0l-25-3.1c-0.5-0.1-0.9-0.6-0.9-1.1c0.1-0.5,0.6-0.9,1.1-0.9l25,3.1
		c0.5,0.1,0.9,0.6,0.9,1.1C27,287.7,26.5,288.1,26,288.1L26,288.1z"/>
</g>
<g>
	<path class="st1" d="M26,301.6c0,0-0.1,0-0.1,0l-25-3.1c-0.5-0.1-0.9-0.6-0.9-1.1c0.1-0.5,0.6-0.9,1.1-0.9l25,3.1
		c0.5,0.1,0.9,0.6,0.9,1.1C27,301.3,26.5,301.6,26,301.6L26,301.6z"/>
</g>
<g>
	<path class="st0" d="M22.7,213c0-1.9,1.6-3.4,3.6-3.4c2,0,3.6,1.5,3.6,3.4c0,1.9-1.6,3.4-3.6,3.4C24.3,216.4,22.7,214.9,22.7,213"
		/>
</g>
<g>
	<path class="st0" d="M22.7,199.4c0-1.9,1.6-3.4,3.6-3.4c2,0,3.6,1.5,3.6,3.4c0,1.9-1.6,3.4-3.6,3.4
		C24.3,202.8,22.7,201.3,22.7,199.4"/>
</g>
<g>
	<path class="st0" d="M22.7,185.9c0-1.9,1.6-3.4,3.6-3.4c2,0,3.6,1.5,3.6,3.4c0,1.9-1.6,3.4-3.6,3.4
		C24.3,189.3,22.7,187.8,22.7,185.9"/>
</g>
<g>
	<path class="st0" d="M22.7,172.3c0-1.9,1.6-3.4,3.6-3.4c2,0,3.6,1.5,3.6,3.4c0,1.9-1.6,3.4-3.6,3.4
		C24.3,175.7,22.7,174.2,22.7,172.3"/>
</g>
<g>
	<path class="st0" d="M22.7,158.8c0-1.9,1.6-3.4,3.6-3.4c2,0,3.6,1.5,3.6,3.4s-1.6,3.4-3.6,3.4C24.3,162.2,22.7,160.7,22.7,158.8"/>
</g>
<g>
	<path class="st0" d="M22.7,145.2c0-1.9,1.6-3.4,3.6-3.4c2,0,3.6,1.5,3.6,3.4s-1.6,3.4-3.6,3.4C24.3,148.6,22.7,147.1,22.7,145.2"/>
</g>
<g>
	<path class="st0" d="M22.7,131.7c0-1.9,1.6-3.4,3.6-3.4c2,0,3.6,1.5,3.6,3.4s-1.6,3.4-3.6,3.4C24.3,135.1,22.7,133.6,22.7,131.7"/>
</g>
<g>
	<path class="st0" d="M22.7,118.1c0-1.9,1.6-3.4,3.6-3.4c2,0,3.6,1.5,3.6,3.4s-1.6,3.4-3.6,3.4C24.3,121.5,22.7,120,22.7,118.1"/>
</g>
<g>
	<path class="st0" d="M22.7,104.6c0-1.9,1.6-3.4,3.6-3.4c2,0,3.6,1.5,3.6,3.4s-1.6,3.4-3.6,3.4C24.3,108,22.7,106.5,22.7,104.6"/>
</g>
<g>
	<path class="st0" d="M22.7,91c0-1.9,1.6-3.4,3.6-3.4c2,0,3.6,1.5,3.6,3.4s-1.6,3.4-3.6,3.4C24.3,94.4,22.7,92.9,22.7,91"/>
</g>
<g>
	<path class="st0" d="M22.7,77.5c0-1.9,1.6-3.4,3.6-3.4c2,0,3.6,1.5,3.6,3.4s-1.6,3.4-3.6,3.4C24.3,80.9,22.7,79.4,22.7,77.5"/>
</g>
<g>
	<path class="st0" d="M22.7,63.9c0-1.9,1.6-3.4,3.6-3.4c2,0,3.6,1.5,3.6,3.4s-1.6,3.4-3.6,3.4C24.3,67.3,22.7,65.8,22.7,63.9"/>
</g>
<g>
	<path class="st0" d="M22.7,50.4c0-1.9,1.6-3.4,3.6-3.4c2,0,3.6,1.5,3.6,3.4s-1.6,3.4-3.6,3.4C24.3,53.8,22.7,52.3,22.7,50.4"/>
</g>
<g>
	<path class="st0" d="M22.7,36.8c0-1.9,1.6-3.4,3.6-3.4c2,0,3.6,1.5,3.6,3.4s-1.6,3.4-3.6,3.4C24.3,40.2,22.7,38.7,22.7,36.8"/>
</g>
<g>
	<path class="st1" d="M1,217.1c-0.5,0-0.9-0.4-1-0.9c-0.1-0.5,0.3-1,0.9-1.1l25-3.1c0.5-0.1,1,0.3,1.1,0.9c0.1,0.5-0.3,1-0.9,1.1
		l-25,3.1C1.1,217.1,1,217.1,1,217.1L1,217.1z"/>
</g>
<g>
	<path class="st1" d="M1,203.6c-0.5,0-0.9-0.4-1-0.9c-0.1-0.5,0.3-1,0.9-1.1l25-3.1c0.5-0.1,1,0.3,1.1,0.9c0.1,0.5-0.3,1-0.9,1.1
		l-25,3.1C1.1,203.6,1,203.6,1,203.6L1,203.6z"/>
</g>
<g>
	<path class="st1" d="M1,190c-0.5,0-0.9-0.4-1-0.9c-0.1-0.5,0.3-1,0.9-1.1l25-3.1c0.5-0.1,1,0.3,1.1,0.9c0.1,0.5-0.3,1-0.9,1.1
		l-25,3.1C1.1,190,1,190,1,190L1,190z"/>
</g>
<g>
	<path class="st1" d="M1,176.5c-0.5,0-0.9-0.4-1-0.9c-0.1-0.5,0.3-1,0.9-1.1l25-3.1c0.5-0.1,1,0.3,1.1,0.9c0.1,0.5-0.3,1-0.9,1.1
		l-25,3.1C1.1,176.5,1,176.5,1,176.5L1,176.5z"/>
</g>
<g>
	<path class="st1" d="M1,162.9c-0.5,0-0.9-0.4-1-0.9c-0.1-0.5,0.3-1,0.9-1.1l25-3.1c0.5-0.1,1,0.3,1.1,0.9c0.1,0.5-0.3,1-0.9,1.1
		l-25,3.1C1.1,162.9,1,162.9,1,162.9L1,162.9z"/>
</g>
<g>
	<path class="st1" d="M1,149.4c-0.5,0-0.9-0.4-1-0.9c-0.1-0.5,0.3-1,0.9-1.1l25-3.1c0.5-0.1,1,0.3,1.1,0.9c0.1,0.5-0.3,1-0.9,1.1
		l-25,3.1C1.1,149.4,1,149.4,1,149.4L1,149.4z"/>
</g>
<g>
	<path class="st1" d="M1,135.8c-0.5,0-0.9-0.4-1-0.9c-0.1-0.5,0.3-1,0.9-1.1l25-3.1c0.5-0.1,1,0.3,1.1,0.9c0.1,0.5-0.3,1-0.9,1.1
		l-25,3.1C1.1,135.8,1,135.8,1,135.8L1,135.8z"/>
</g>
<g>
	<path class="st1" d="M1,122.3c-0.5,0-0.9-0.4-1-0.9c-0.1-0.5,0.3-1,0.9-1.1l25-3.1c0.5-0.1,1,0.3,1.1,0.9c0.1,0.5-0.3,1-0.9,1.1
		l-25,3.1C1.1,122.3,1,122.3,1,122.3L1,122.3z"/>
</g>
<g>
	<path class="st1" d="M1,108.7c-0.5,0-0.9-0.4-1-0.9c-0.1-0.5,0.3-1,0.9-1.1l25-3.1c0.5-0.1,1,0.3,1.1,0.9c0.1,0.5-0.3,1-0.9,1.1
		l-25,3.1C1.1,108.7,1,108.7,1,108.7L1,108.7z"/>
</g>
<g>
	<path class="st1" d="M1,95.2c-0.5,0-0.9-0.4-1-0.9c-0.1-0.5,0.3-1,0.9-1.1l25-3.1c0.5-0.1,1,0.3,1.1,0.9c0.1,0.5-0.3,1-0.9,1.1
		l-25,3.1C1.1,95.2,1,95.2,1,95.2L1,95.2z"/>
</g>
<g>
	<path class="st1" d="M1,81.6c-0.5,0-0.9-0.4-1-0.9c-0.1-0.5,0.3-1,0.9-1.1l25-3.1c0.5-0.1,1,0.3,1.1,0.9c0.1,0.5-0.3,1-0.9,1.1
		l-25,3.1C1.1,81.6,1,81.6,1,81.6L1,81.6z"/>
</g>
<g>
	<path class="st1" d="M1,68.1c-0.5,0-0.9-0.4-1-0.9c-0.1-0.5,0.3-1,0.9-1.1l25-3.1c0.5-0.1,1,0.3,1.1,0.9c0.1,0.5-0.3,1-0.9,1.1
		l-25,3.1C1.1,68.1,1,68.1,1,68.1L1,68.1z"/>
</g>
<g>
	<path class="st1" d="M1,54.5c-0.5,0-0.9-0.4-1-0.9c-0.1-0.5,0.3-1,0.9-1.1l25-3.1c0.5-0.1,1,0.3,1.1,0.9c0.1,0.5-0.3,1-0.9,1.1
		l-25,3.1C1.1,54.5,1,54.5,1,54.5L1,54.5z"/>
</g>
<g>
	<path class="st1" d="M1,41c-0.5,0-0.9-0.4-1-0.9c-0.1-0.5,0.3-1,0.9-1.1l25-3.1c0.5-0.1,1,0.3,1.1,0.9c0.1,0.5-0.3,1-0.9,1.1
		L1.1,41C1.1,41,1,41,1,41L1,41z"/>
</g>
<g>
	<path class="st0" d="M23.1,240.5c0-1.9,1.6-3.4,3.6-3.4c2,0,3.6,1.5,3.6,3.4s-1.6,3.4-3.6,3.4C24.7,243.9,23.1,242.3,23.1,240.5"/>
</g>
<g>
	<path class="st0" d="M23.1,266.7c0-1.9,1.6-3.4,3.6-3.4c2,0,3.6,1.5,3.6,3.4c0,1.9-1.6,3.4-3.6,3.4
		C24.7,270.1,23.1,268.6,23.1,266.7"/>
</g>
<g>
	<path class="st0" d="M23.1,294.1c0-1.9,1.6-3.4,3.6-3.4c2,0,3.6,1.5,3.6,3.4c0,1.9-1.6,3.4-3.6,3.4C24.7,297.5,23.1,296,23.1,294.1
		"/>
</g>
<g>
	<path class="st0" d="M23.1,226.9c0-1.9,1.6-3.4,3.6-3.4c2,0,3.6,1.5,3.6,3.4s-1.6,3.4-3.6,3.4C24.7,230.3,23.1,228.8,23.1,226.9"/>
</g>
<g>
	<path class="st0" d="M23.1,253.2c0-1.9,1.6-3.4,3.6-3.4c2,0,3.6,1.5,3.6,3.4c0,1.9-1.6,3.4-3.6,3.4
		C24.7,256.6,23.1,255.1,23.1,253.2"/>
</g>
<g>
	<path class="st0" d="M23.1,280.6c0-1.9,1.6-3.4,3.6-3.4c2,0,3.6,1.5,3.6,3.4c0,1.9-1.6,3.4-3.6,3.4C24.7,284,23.1,282.5,23.1,280.6
		"/>
</g>
<g>
	<path class="st1" d="M1,244.5c-0.5,0-0.9-0.4-1-0.9c-0.1-0.5,0.3-1,0.9-1.1l25-3.1c0.5-0.1,1,0.3,1.1,0.9c0.1,0.5-0.3,1-0.9,1.1
		l-25,3.1C1.1,244.5,1,244.5,1,244.5L1,244.5z"/>
</g>
<g>
	<path class="st1" d="M1,270.8c-0.5,0-0.9-0.4-1-0.9c-0.1-0.5,0.3-1,0.9-1.1l25-3.1c0.5-0.1,1,0.3,1.1,0.9c0.1,0.5-0.3,1-0.9,1.1
		l-25,3.1C1.1,270.8,1,270.8,1,270.8L1,270.8z"/>
</g>
<g>
	<path class="st1" d="M1,298.2c-0.5,0-0.9-0.4-1-0.9c-0.1-0.5,0.3-1,0.9-1.1l25-3.1c0.5-0.1,1,0.3,1.1,0.9c0.1,0.5-0.3,1-0.9,1.1
		l-25,3.1C1.1,298.2,1,298.2,1,298.2L1,298.2z"/>
</g>
<g>
	<path class="st1" d="M1,230.9c-0.5,0-0.9-0.4-1-0.9c-0.1-0.5,0.3-1,0.9-1.1l25-3.1c0.5-0.1,1,0.3,1.1,0.9c0.1,0.5-0.3,1-0.9,1.1
		l-25,3.1C1.1,230.9,1,230.9,1,230.9L1,230.9z"/>
</g>
<g>
	<path class="st1" d="M1,257.2c-0.5,0-0.9-0.4-1-0.9c-0.1-0.5,0.3-1,0.9-1.1l25-3.1c0.5-0.1,1,0.3,1.1,0.9c0.1,0.5-0.3,1-0.9,1.1
		l-25,3.1C1.1,257.2,1,257.2,1,257.2L1,257.2z"/>
</g>
<g>
	<path class="st1" d="M1,284.6c-0.5,0-0.9-0.4-1-0.9c-0.1-0.5,0.3-1,0.9-1.1l25-3.1c0.5-0.1,1,0.3,1.1,0.9c0.1,0.5-0.3,1-0.9,1.1
		l-25,3.1C1.1,284.6,1,284.6,1,284.6L1,284.6z"/>
</g>
</svg>
