<svg id="Capa_1" data-name="Capa 1" xmlns="http://www.w3.org/2000/svg" viewBox="0 0 169.1 53.8"><defs><style>.cls-1{fill:#b2e0f7;}.cls-2{fill:#b3b3a9;}</style></defs><path class="cls-1" d="M0,49.2c1.8,0,1.9,2.1,3.6,1.7s3.2.8,6,.8a73.3,73.3,0,0,1,7.4.7,13.8,13.8,0,0,0,4.5-.4l1.5-.2c1.6-.2,3.1.4,4.6,0s2.7.3,4,.3,2.3-1.4,3.5-.8a15.8,15.8,0,0,0,3.6.9c.8.1,3.5-1,4.1-1.1a16.1,16.1,0,0,1,3.1,0,27.4,27.4,0,0,1,3.9,1.2s1.3-1.2,2.3-1.1a20.4,20.4,0,0,1,3.6.7,8,8,0,0,1,2.1-1.1l6.3.4,2-.7c1.4-.6,2.8,2,4.3,1.8,3.9-.4,11.7-.5,11.7-.5s1.9-.6,2.7,0,7.8.3,7.8.3l8.7.9a20.2,20.2,0,0,0,3.6-.3c1.3-.5,2.5-1.5,4-1.5s2.1,1.4,3.1,1.4h0c1.7,0,5.1-.1,6.2.3s3-.9,5.6-.6l6.8.6,4.9-.7h5.9l1.1,1.6c.4.3,3.6-1.5,4.6-.4a9.2,9.2,0,0,0,2.4-1.6s1.3,1.4,2.1,1.5l9.4.6c1,0,5.6-1,7.6-.5.3-3.7-.7-12.6-.8-16.4a13,13,0,0,1-.4-6.8,79.4,79.4,0,0,0,1.7-10.7,35.4,35.4,0,0,0-.3-5.1h-1.9c-2-.1-90.1-.7-166.1-1C1.5,29.2,0,49.2,0,49.2"/><path class="cls-2" d="M106.4,4,91.1,5.4l-14.5.9-14.9.2c0,.3-.9.5-1,.7s.5.5.1,1.1.9,2.1-.3,2.7l-.5.4h.6c.3,0,.6-.1.8,0s.3.1.2.3-.8,1-1.8,1.4-.2,1,1.9,1.9-3.2,1.3-2.1,1.5,1.3.2,1.1,1.4.8.4.9.7-1.7,1.4-.9,2.5,3,.9.2.4c-1.3-.2.6,1,1.3,1.1l5.4-.2,17.5-.5,15.4-.7,7.6-.6,2-.7.3-.2c-.1,0-1.2-.2-.8-.6s-.9-1.5-.3-1.7c3.6-1.2-2.2-.6.1-2.4.6-.5-1.3-2.2-1.6-3s-1-3.7-1.6-4.2.5-1.5.4-1.6c-2.1-.3-.4-1.1-.4-2Z"/></svg>