<svg id="Capa_1" data-name="Capa 1" xmlns="http://www.w3.org/2000/svg" viewBox="0 0 186.6 53.8"><defs><style>.cls-1{fill:#fcdbc3;}.cls-2{fill:#b3b3a9;}</style></defs><path class="cls-1" d="M0,49.2c2,.1,2.1,2.2,4,1.8s3.5.8,6.6.8,8.2.7,8.2.7a17,17,0,0,0,5-.4l1.6-.2c1.7-.3,3.4.4,5,0s3,.3,4.5.3,2.5-1.4,3.9-.9a13,13,0,0,0,3.9.9c.9.2,3.8-.9,4.5-1a19.3,19.3,0,0,1,3.4,0,22.5,22.5,0,0,1,4.3,1.1,5.8,5.8,0,0,1,2.6-1.1,22.5,22.5,0,0,1,4,.8,8.2,8.2,0,0,1,2.3-1.1c2.3,0,6.9.4,6.9.4l2.2-.8c1.6-.5,3.1,2.1,4.7,1.9,4.4-.5,13-.5,13-.5s2.1-.7,3,0,8.6.2,8.6.2l9.5.9a16.7,16.7,0,0,0,4-.3c1.5-.5,2.8-1.4,4.4-1.5s2.3,1.4,3.5,1.4h0c1.9,0,5.6-.1,6.8.4s3.3-.9,6.2-.7,7.5.6,7.5.6l5.4-.7H156a13.1,13.1,0,0,0,1.3,1.6c.4.3,3.9-1.5,5-.4a12.8,12.8,0,0,0,2.7-1.6s1.4,1.4,2.3,1.5l10.4.6c1,0,6.1-1,8.3-.5.4-3.7-.7-12.6-.8-16.4a12.5,12.5,0,0,1-.5-6.8,72.7,72.7,0,0,0,1.8-10.7,24.5,24.5,0,0,0-.3-5.1h-2c-2.3-.1-99.4-.6-183.2-.9.6,15.9-1,35.8-1,35.8"/><path class="cls-2" d="M119.2,4.2H103.9L89.3,3.6,74.5,2.5c-.1.3-1,.4-1.1.6s.5.6,0,1.1.8,2.1-.5,2.7-.7.3-.6.3h1.5c.1.1.2.2.1.4S73,8.4,72,8.7s-.3,1.1,1.7,2.2-3.3,1-2.2,1.3,1.2.3.9,1.4.8.5.8.8-1.7,1.3-1,2.4,2.9,1.2.1.5c-1.3-.4.5,1,1.2,1.2l5.4.3L96.4,20l15.4.7h7.6l2-.5c.1,0,.4,0,.3-.1s-1.2-.3-.7-.7-.7-1.6-.1-1.7c3.7-.9-2.1-.8.3-2.4.7-.4-1-2.3-1.3-3.1s-.7-3.8-1.2-4.3.6-1.5.5-1.6c-2-.5-.2-1.1-.2-2Z"/></svg>