<?xml version="1.0" encoding="utf-8"?>
<!-- Generator: Adobe Illustrator 25.4.1, SVG Export Plug-In . SVG Version: 6.00 Build 0)  -->
<svg version="1.1" id="Layer_1" xmlns="http://www.w3.org/2000/svg" xmlns:xlink="http://www.w3.org/1999/xlink" x="0px" y="0px"
	 viewBox="0 0 15.7 18.8" style="enable-background:new 0 0 15.7 18.8;" xml:space="preserve">
<style type="text/css">
	.st0{fill:#EC1C24;}
</style>
<polygon class="st0" points="7.72,14.37 7.67,14.52 7.6,14.73 7.56,14.85 7.51,14.98 7.46,15.13 7.4,15.28 7.34,15.44 7.28,15.61 
	7.21,15.78 7.15,15.95 7.11,16.04 7.08,16.13 7.04,16.22 7.01,16.31 6.97,16.4 6.93,16.49 6.9,16.57 6.86,16.66 6.82,16.75 
	6.78,16.84 6.75,16.93 6.71,17.01 6.67,17.1 6.63,17.18 6.59,17.27 6.55,17.35 6.51,17.43 6.47,17.51 6.43,17.59 6.39,17.66 
	6.35,17.74 6.32,17.78 6.3,17.81 6.28,17.85 6.26,17.89 6.23,17.93 6.21,17.96 6.19,18 6.16,18.03 6.13,18.07 6.11,18.11 
	6.08,18.15 6.05,18.18 6.02,18.22 5.99,18.26 5.95,18.3 5.92,18.33 5.88,18.37 5.83,18.42 5.79,18.46 5.74,18.5 5.68,18.54 
	5.62,18.59 5.54,18.63 5.46,18.67 5.37,18.71 5.28,18.74 5.21,18.76 5.15,18.78 5.08,18.79 5.02,18.8 4.95,18.8 4.88,18.8 4.8,18.8 
	4.71,18.79 4.59,18.78 4.48,18.74 4.37,18.71 4.29,18.67 4.21,18.62 4.15,18.58 4.09,18.54 4.04,18.5 3.97,18.44 3.91,18.38 
	3.86,18.32 3.82,18.27 3.79,18.23 3.76,18.18 3.73,18.14 3.7,18.1 3.68,18.07 3.66,18.03 3.63,17.99 3.61,17.96 3.59,17.92 
	3.57,17.88 3.54,17.82 3.51,17.77 3.5,17.75 3.46,17.67 3.43,17.6 3.4,17.53 3.36,17.46 3.33,17.39 3.3,17.32 3.27,17.24 
	3.24,17.17 3.21,17.11 3.15,16.98 3.11,16.86 3.03,16.68 3.01,16.64 2.94,16.5 2.88,16.36 2.87,16.35 2.8,16.2 2.73,16.06 
	2.65,15.92 2.61,15.85 2.58,15.77 2.54,15.7 2.5,15.63 2.47,15.56 2.43,15.49 2.39,15.43 2.35,15.35 2.31,15.29 2.28,15.22 
	2.24,15.15 2.2,15.08 2.16,15.02 2.12,14.94 2.08,14.88 2.04,14.81 2,14.74 1.99,14.72 1.96,14.68 1.92,14.61 1.88,14.55 
	1.84,14.48 1.8,14.42 1.76,14.35 1.72,14.28 1.68,14.22 1.63,14.16 1.59,14.09 1.55,14.03 1.5,13.96 1.46,13.9 1.42,13.84 
	1.38,13.77 1.33,13.71 1.29,13.65 1.24,13.59 1.2,13.52 1.15,13.46 1.11,13.4 1.06,13.34 1.01,13.28 0.97,13.22 0.92,13.15 
	0.87,13.09 0.82,13.03 0.77,12.97 0.72,12.91 0.68,12.86 0.63,12.79 0.58,12.73 0.53,12.68 0.48,12.62 0.42,12.56 0.4,12.53 
	0.37,12.5 0.32,12.44 0.31,12.44 0,11.52 0.42,10.65 0.42,10.65 1.34,10.33 2.21,10.75 2.21,10.75 2.27,10.82 2.3,10.86 2.33,10.89 
	2.39,10.96 2.45,11.03 2.51,11.1 2.57,11.17 2.63,11.24 2.69,11.32 2.75,11.39 2.8,11.46 2.86,11.53 2.92,11.6 2.97,11.67 
	3.02,11.75 3.08,11.82 3.13,11.89 3.19,11.96 3.24,12.04 3.29,12.11 3.35,12.18 3.4,12.26 3.45,12.33 3.5,12.41 3.55,12.48 
	3.6,12.55 3.65,12.63 3.7,12.7 3.75,12.78 3.8,12.85 3.84,12.93 3.89,13.01 3.94,13.08 3.99,13.15 4.03,13.23 4.08,13.31 
	4.12,13.38 4.15,13.43 4.17,13.46 4.21,13.54 4.26,13.61 4.3,13.69 4.35,13.77 4.39,13.84 4.43,13.92 4.48,14 4.52,14.08 
	4.56,14.15 4.6,14.23 4.64,14.31 4.68,14.39 4.72,14.46 4.76,14.54 4.81,14.62 4.84,14.7 4.88,14.78 4.96,14.94 5,15.02 5.06,14.9 
	5.12,14.75 5.19,14.6 5.25,14.44 5.31,14.3 5.37,14.17 5.42,14.04 5.47,13.92 5.54,13.72 5.6,13.57 5.63,13.51 5.65,13.46 
	5.75,13.23 5.85,13.01 5.95,12.78 5.97,12.74 6.05,12.56 6.15,12.34 6.25,12.12 6.36,11.9 6.46,11.67 6.57,11.45 6.68,11.23 
	6.78,11.01 6.89,10.79 7,10.57 7.11,10.35 7.22,10.13 7.33,9.91 7.39,9.8 7.44,9.69 7.5,9.58 7.56,9.47 7.62,9.37 7.67,9.26 
	7.73,9.15 7.79,9.04 7.84,8.93 7.91,8.82 7.96,8.71 8.02,8.61 8.08,8.5 8.14,8.39 8.2,8.28 8.26,8.17 8.32,8.07 8.38,7.96 
	8.44,7.85 8.5,7.75 8.56,7.64 8.6,7.57 8.63,7.53 8.69,7.43 8.75,7.32 8.81,7.21 8.88,7.11 8.94,7 9,6.9 9.07,6.79 9.13,6.69 
	9.2,6.58 9.26,6.48 9.33,6.37 9.39,6.27 9.46,6.16 9.53,6.06 9.59,5.96 9.66,5.85 9.73,5.75 9.79,5.65 9.86,5.54 9.93,5.44 10,5.34 
	10.06,5.23 10.1,5.18 10.14,5.14 10.2,5.03 10.27,4.93 10.35,4.83 10.42,4.73 10.48,4.63 10.56,4.53 10.63,4.43 10.7,4.33 
	10.77,4.22 10.85,4.12 10.92,4.03 10.99,3.93 11.06,3.83 11.14,3.73 11.21,3.63 11.29,3.53 11.36,3.43 11.44,3.33 11.52,3.24 
	11.59,3.14 11.67,3.04 11.75,2.94 11.82,2.85 11.9,2.75 11.98,2.66 12.06,2.56 12.14,2.46 12.22,2.37 12.3,2.27 12.38,2.18 
	12.46,2.08 12.54,1.99 12.62,1.9 12.7,1.8 12.78,1.71 12.87,1.62 12.95,1.52 13.03,1.43 13.12,1.34 13.2,1.25 13.29,1.16 
	13.37,1.06 13.46,0.97 13.54,0.88 13.63,0.79 13.72,0.7 13.8,0.61 13.89,0.52 13.98,0.44 14.07,0.35 14.16,0.26 14.8,0 15.44,0.27 
	15.44,0.27 15.7,0.91 15.44,1.55 15.43,1.55 15.35,1.63 15.27,1.72 15.19,1.8 15.1,1.88 15.02,1.97 14.94,2.05 14.86,2.14 
	14.78,2.22 14.7,2.31 14.62,2.39 14.54,2.48 14.46,2.56 14.39,2.65 14.31,2.74 14.23,2.82 14.16,2.91 14.08,3 14,3.09 13.93,3.18 
	13.85,3.27 13.78,3.36 13.71,3.45 13.63,3.54 13.56,3.63 13.49,3.72 13.41,3.81 13.34,3.9 13.33,3.91 13.27,3.99 13.2,4.08 
	13.13,4.18 13.06,4.27 12.99,4.36 12.92,4.46 12.85,4.55 12.78,4.64 12.71,4.74 12.64,4.83 12.58,4.93 12.51,5.02 12.44,5.12 
	12.38,5.21 12.31,5.31 12.24,5.4 12.18,5.5 12.11,5.6 12.05,5.7 11.99,5.79 11.92,5.89 11.86,5.99 11.8,6.09 11.73,6.18 11.7,6.23 
	11.67,6.28 11.61,6.38 11.55,6.48 11.48,6.58 11.42,6.68 11.36,6.78 11.3,6.88 11.24,6.98 11.18,7.08 11.12,7.18 11.06,7.28 
	11,7.38 10.95,7.49 10.89,7.59 10.83,7.69 10.77,7.79 10.72,7.89 10.66,8 10.6,8.1 10.54,8.2 10.49,8.31 10.43,8.41 10.38,8.51 
	10.36,8.55 10.32,8.62 10.27,8.72 10.21,8.83 10.16,8.93 10.1,9.03 10.05,9.14 10,9.24 9.94,9.35 9.89,9.45 9.84,9.56 9.78,9.66 
	9.73,9.77 9.68,9.87 9.63,9.98 9.57,10.08 9.52,10.19 9.47,10.3 9.42,10.4 9.37,10.51 9.32,10.62 9.27,10.73 9.22,10.83 9.12,11.05 
	9.02,11.26 8.93,11.48 8.83,11.69 8.73,11.91 8.64,12.13 8.55,12.35 8.45,12.57 8.36,12.78 8.27,13.01 8.18,13.22 8.09,13.44 
	8.02,13.62 8,13.66 7.92,13.88 7.83,14.1 7.74,14.33 7.75,14.31 7.74,14.33 "/>
<g>
</g>
</svg>
