<?xml version="1.0" encoding="utf-8"?>
<!-- Generator: Adobe Illustrator 21.1.0, SVG Export Plug-In . SVG Version: 6.00 Build 0)  -->
<svg version="1.1" id="Capa_1" xmlns="http://www.w3.org/2000/svg" xmlns:xlink="http://www.w3.org/1999/xlink" x="0px" y="0px"
	 viewBox="0 0 30.5 371.8" style="enable-background:new 0 0 30.5 371.8;" xml:space="preserve">
<style type="text/css">
	.st0{clip-path:url(#SVGID_2_);fill:none;stroke:#92C256;stroke-width:2.5358;stroke-linecap:round;}
	.st1{clip-path:url(#SVGID_2_);fill:#909480;}
</style>
<g>
	<defs>
		<rect id="SVGID_1_" width="30.5" height="371.8"/>
	</defs>
	<clipPath id="SVGID_2_">
		<use xlink:href="#SVGID_1_"  style="overflow:visible;"/>
	</clipPath>
	<line class="st0" x1="11.7" y1="206.9" x2="1.3" y2="205.2"/>
	<path class="st1" d="M22.8,201.5c0-1.9,1.6-3.4,3.6-3.4c2,0,3.6,1.5,3.6,3.4c0,1.9-1.6,3.4-3.6,3.4
		C24.4,204.9,22.8,203.4,22.8,201.5"/>
	<line class="st0" x1="26.2" y1="201.5" x2="1.3" y2="204.6"/>
	<line class="st0" x1="11.6" y1="191.4" x2="1.3" y2="190"/>
	<path class="st1" d="M22.8,186.3c0-1.9,1.6-3.4,3.6-3.4c2,0,3.6,1.5,3.6,3.4c0,1.9-1.6,3.4-3.6,3.4
		C24.4,189.7,22.8,188.1,22.8,186.3"/>
	<line class="st0" x1="26.2" y1="186.3" x2="1.3" y2="189.4"/>
	<line class="st0" x1="11.7" y1="176.1" x2="1.3" y2="174.8"/>
	<path class="st1" d="M22.8,171c0-1.9,1.6-3.4,3.6-3.4c2,0,3.6,1.5,3.6,3.4c0,1.9-1.6,3.4-3.6,3.4C24.4,174.4,22.8,172.9,22.8,171"
		/>
	<line class="st0" x1="26.2" y1="171.1" x2="1.3" y2="174.2"/>
	<line class="st0" x1="11.7" y1="160.9" x2="1.3" y2="159.5"/>
	<path class="st1" d="M22.8,155.8c0-1.9,1.6-3.4,3.6-3.4c2,0,3.6,1.5,3.6,3.4c0,1.9-1.6,3.4-3.6,3.4
		C24.4,159.2,22.8,157.7,22.8,155.8"/>
	<line class="st0" x1="26.2" y1="155.8" x2="1.3" y2="158.9"/>
	<line class="st0" x1="11.3" y1="145.5" x2="1.3" y2="144.3"/>
	<path class="st1" d="M22.8,140.6c0-1.9,1.6-3.4,3.6-3.4c2,0,3.6,1.5,3.6,3.4c0,1.9-1.6,3.4-3.6,3.4
		C24.4,143.9,22.8,142.4,22.8,140.6"/>
	<line class="st0" x1="26.2" y1="140.6" x2="1.3" y2="143.7"/>
	<line class="st0" x1="10.8" y1="130.1" x2="1.3" y2="129"/>
	<path class="st1" d="M22.8,125.3c0-1.9,1.6-3.4,3.6-3.4c2,0,3.6,1.5,3.6,3.4c0,1.9-1.6,3.4-3.6,3.4
		C24.4,128.7,22.8,127.2,22.8,125.3"/>
	<line class="st0" x1="26.2" y1="125.3" x2="1.3" y2="128.4"/>
	<line class="st0" x1="10.9" y1="115" x2="1.3" y2="113.8"/>
	<path class="st1" d="M22.8,110.1c0-1.9,1.6-3.4,3.6-3.4c2,0,3.6,1.5,3.6,3.4c0,1.9-1.6,3.4-3.6,3.4
		C24.4,113.4,22.8,111.9,22.8,110.1"/>
	<line class="st0" x1="26.2" y1="110.1" x2="1.3" y2="113.2"/>
	<line class="st0" x1="12.3" y1="99.8" x2="1.3" y2="98.5"/>
	<path class="st1" d="M22.8,94.8c0-1.9,1.6-3.4,3.6-3.4c2,0,3.6,1.5,3.6,3.4c0,1.9-1.6,3.4-3.6,3.4C24.4,98.2,22.8,96.7,22.8,94.8"
		/>
	<line class="st0" x1="26.2" y1="94.8" x2="1.3" y2="97.9"/>
	<line class="st0" x1="11.9" y1="84.8" x2="1.3" y2="83.3"/>
	<path class="st1" d="M22.8,79.6c0-1.9,1.6-3.4,3.6-3.4c2,0,3.6,1.5,3.6,3.4c0,1.9-1.6,3.4-3.6,3.4C24.4,83,22.8,81.4,22.8,79.6"/>
	<line class="st0" x1="26.2" y1="79.6" x2="1.3" y2="82.7"/>
	<line class="st0" x1="11.7" y1="69.4" x2="1.3" y2="68.1"/>
	<path class="st1" d="M22.8,64.3c0-1.9,1.6-3.4,3.6-3.4c2,0,3.6,1.5,3.6,3.4c0,1.9-1.6,3.4-3.6,3.4C24.4,67.7,22.8,66.2,22.8,64.3"
		/>
	<line class="st0" x1="26.2" y1="64.4" x2="1.3" y2="67.5"/>
	<line class="st0" x1="12.1" y1="54.3" x2="1.3" y2="52.8"/>
	<path class="st1" d="M22.8,49.1c0-1.9,1.6-3.4,3.6-3.4c2,0,3.6,1.5,3.6,3.4c0,1.9-1.6,3.4-3.6,3.4C24.4,52.5,22.8,51,22.8,49.1"/>
	<line class="st0" x1="26.2" y1="49.1" x2="1.3" y2="52.2"/>
	<line class="st0" x1="11.6" y1="39.1" x2="1.3" y2="37.6"/>
	<path class="st1" d="M22.8,33.9c0-1.9,1.6-3.4,3.6-3.4c2,0,3.6,1.5,3.6,3.4c0,1.9-1.6,3.4-3.6,3.4C24.4,37.2,22.8,35.7,22.8,33.9"
		/>
	<line class="st0" x1="26.2" y1="33.9" x2="1.3" y2="37"/>
	<line class="st0" x1="11.6" y1="23.8" x2="1.3" y2="22.3"/>
	<path class="st1" d="M22.8,18.6c0-1.9,1.6-3.4,3.6-3.4c2,0,3.6,1.5,3.6,3.4c0,1.9-1.6,3.4-3.6,3.4C24.4,22,22.8,20.5,22.8,18.6"/>
	<line class="st0" x1="26.2" y1="18.6" x2="1.3" y2="21.7"/>
	<path class="st1" d="M22.8,3.4c0-1.9,1.6-3.4,3.6-3.4c2,0,3.6,1.5,3.6,3.4c0,1.9-1.6,3.4-3.6,3.4C24.4,6.7,22.8,5.2,22.8,3.4"/>
	<line class="st0" x1="26.2" y1="3.4" x2="1.3" y2="6.5"/>
	<line class="st0" x1="11.9" y1="8.3" x2="1.3" y2="7.1"/>
	<line class="st0" x1="12.6" y1="236.5" x2="1.3" y2="235.1"/>
	<path class="st1" d="M23.2,231.8c0-1.9,1.6-3.4,3.6-3.4c2,0,3.6,1.5,3.6,3.4c0,1.9-1.6,3.4-3.6,3.4
		C24.9,235.1,23.2,233.6,23.2,231.8"/>
	<line class="st0" x1="26.2" y1="231.7" x2="1.3" y2="234.8"/>
	<line class="st0" x1="26.2" y1="253.1" x2="1.3" y2="250"/>
	<path class="st1" d="M23.2,246.6c0-1.9,1.6-3.4,3.6-3.4c2,0,3.6,1.5,3.6,3.4c0,1.9-1.6,3.4-3.6,3.4C24.9,250,23.2,248.5,23.2,246.6
		"/>
	<line class="st0" x1="26.2" y1="246.6" x2="1.3" y2="249.7"/>
	<line class="st0" x1="11.9" y1="266.5" x2="1.3" y2="264.9"/>
	<path class="st1" d="M23.2,261.5c0-1.9,1.6-3.4,3.6-3.4c2,0,3.6,1.5,3.6,3.4c0,1.9-1.6,3.4-3.6,3.4
		C24.9,264.9,23.2,263.4,23.2,261.5"/>
	<line class="st0" x1="26.2" y1="261.4" x2="1.3" y2="264.5"/>
	<line class="st0" x1="11.9" y1="281.2" x2="1.3" y2="279.8"/>
	<path class="st1" d="M23.2,276.4c0-1.9,1.6-3.4,3.6-3.4c2,0,3.6,1.5,3.6,3.4c0,1.9-1.6,3.4-3.6,3.4
		C24.9,279.8,23.2,278.3,23.2,276.4"/>
	<line class="st0" x1="26.2" y1="276.3" x2="1.3" y2="279.4"/>
	<line class="st0" x1="11.6" y1="295.9" x2="1.3" y2="294.7"/>
	<path class="st1" d="M23.2,291.3c0-1.9,1.6-3.4,3.6-3.4c2,0,3.6,1.5,3.6,3.4s-1.6,3.4-3.6,3.4C24.9,294.7,23.2,293.2,23.2,291.3"/>
	<line class="st0" x1="26.2" y1="291.2" x2="1.3" y2="294.3"/>
	<line class="st0" x1="11.9" y1="311.2" x2="1.3" y2="309.5"/>
	<path class="st1" d="M23.2,306.2c0-1.9,1.6-3.4,3.6-3.4c2,0,3.6,1.5,3.6,3.4s-1.6,3.4-3.6,3.4C24.9,309.6,23.2,308,23.2,306.2"/>
	<line class="st0" x1="26.2" y1="306.1" x2="1.3" y2="309.2"/>
	<line class="st0" x1="11.6" y1="326" x2="1.3" y2="324.4"/>
	<path class="st1" d="M23.2,321.1c0-1.9,1.6-3.4,3.6-3.4c2,0,3.6,1.5,3.6,3.4c0,1.9-1.6,3.4-3.6,3.4
		C24.9,324.4,23.2,322.9,23.2,321.1"/>
	<line class="st0" x1="26.2" y1="321" x2="1.3" y2="324.1"/>
	<line class="st0" x1="11.7" y1="340.8" x2="1.3" y2="339.3"/>
	<path class="st1" d="M23.2,336c0-1.9,1.6-3.4,3.6-3.4c2,0,3.6,1.5,3.6,3.4c0,1.9-1.6,3.4-3.6,3.4C24.9,339.3,23.2,337.8,23.2,336"
		/>
	<line class="st0" x1="26.2" y1="335.9" x2="1.3" y2="339"/>
	<line class="st0" x1="11.9" y1="355.6" x2="1.3" y2="354.2"/>
	<path class="st1" d="M23.2,350.8c0-1.9,1.6-3.4,3.6-3.4c2,0,3.6,1.5,3.6,3.4c0,1.9-1.6,3.4-3.6,3.4
		C24.9,354.2,23.2,352.7,23.2,350.8"/>
	<line class="st0" x1="26.2" y1="350.7" x2="1.3" y2="353.9"/>
	<line class="st0" x1="11.9" y1="370.6" x2="1.3" y2="369.1"/>
	<path class="st1" d="M23.2,365.7c0-1.9,1.6-3.4,3.6-3.4c2,0,3.6,1.5,3.6,3.4c0,1.9-1.6,3.4-3.6,3.4
		C24.9,369.1,23.2,367.6,23.2,365.7"/>
	<line class="st0" x1="26.2" y1="365.6" x2="1.3" y2="368.7"/>
	<path class="st1" d="M22.8,216.8c0-1.9,1.6-3.4,3.6-3.4c2,0,3.6,1.5,3.6,3.4c0,1.9-1.6,3.4-3.6,3.4
		C24.4,220.1,22.8,218.6,22.8,216.8"/>
	<line class="st0" x1="11.7" y1="221.5" x2="1.3" y2="220.2"/>
	<path class="st1" d="M23.2,216.9c0-1.9,1.6-3.4,3.6-3.4c2,0,3.6,1.5,3.6,3.4c0,1.9-1.6,3.4-3.6,3.4
		C24.9,220.2,23.2,218.7,23.2,216.9"/>
	<line class="st0" x1="26.2" y1="216.8" x2="1.3" y2="219.9"/>
</g>
</svg>
