<?xml version="1.0" encoding="utf-8"?>
<!-- Generator: Adobe Illustrator 21.1.0, SVG Export Plug-In . SVG Version: 6.00 Build 0)  -->
<svg version="1.1" id="Capa_1" xmlns="http://www.w3.org/2000/svg" xmlns:xlink="http://www.w3.org/1999/xlink" x="0px" y="0px"
	 viewBox="0 0 62.984 42.429" style="enable-background:new 0 0 62.984 42.429;" xml:space="preserve">
<style type="text/css">
	.st0{clip-path:url(#SVGID_2_);}
	.st1{clip-path:url(#SVGID_4_);fill:#005CA8;}
	.st2{filter:url(#Adobe_OpacityMaskFilter);}
	.st3{clip-path:url(#SVGID_4_);}
	.st4{clip-path:url(#SVGID_4_);mask:url(#SVGID_5_);}
	.st5{opacity:0.2;clip-path:url(#SVGID_9_);fill:#1D1D1B;}
	.st6{clip-path:url(#SVGID_2_);fill:#FFFFFF;}
	.st7{clip-path:url(#SVGID_11_);fill:none;stroke:#005CA8;stroke-width:2.079;stroke-linecap:round;}
	.st8{clip-path:url(#SVGID_2_);fill:none;stroke:#005CA8;stroke-width:1.386;stroke-linecap:round;}
	.st9{clip-path:url(#SVGID_13_);fill:#005CA8;}
	.st10{clip-path:url(#SVGID_15_);fill:#FFFFFF;}
</style>
<g>
	<defs>
		<rect id="SVGID_1_" x="-20.946" y="-4.357" width="98" height="56"/>
	</defs>
	<clipPath id="SVGID_2_">
		<use xlink:href="#SVGID_1_"  style="overflow:visible;"/>
	</clipPath>
	<g class="st0">
		<defs>
			<rect id="SVGID_3_" x="-20.946" y="-4.357" width="98" height="56"/>
		</defs>
		<clipPath id="SVGID_4_">
			<use xlink:href="#SVGID_3_"  style="overflow:visible;"/>
		</clipPath>
		<path class="st1" d="M30.028,15.193c0,0-2.111,0-2.111,2.111V34.48c0,0,0,2.111,2.111,2.111h30.845c0,0,2.111,0,2.111-2.111
			V17.304c0,0,0-2.111-2.111-2.111H30.028z"/>
		<defs>
			<filter id="Adobe_OpacityMaskFilter" filterUnits="userSpaceOnUse" x="4.076" y="0" width="30.72" height="39.6">
				<feColorMatrix  type="matrix" values="1 0 0 0 0  0 1 0 0 0  0 0 1 0 0  0 0 0 1 0"/>
			</filter>
		</defs>
		<mask maskUnits="userSpaceOnUse" x="4.076" y="0" width="30.72" height="39.6" id="SVGID_5_">
			<g class="st2">
				<g>
					<defs>
						<rect id="SVGID_6_" x="-4.804" y="-6.96" width="48.96" height="48"/>
					</defs>
					<clipPath id="SVGID_7_" class="st3">
						<use xlink:href="#SVGID_6_"  style="overflow:visible;"/>
					</clipPath>
					<g transform="matrix(1 0 0 1 0 0)" style="clip-path:url(#SVGID_7_);">
						
							<image style="overflow:visible;" width="204" height="200" xlink:href="234A554D89A88AA2.jpg"  transform="matrix(0.24 0 0 0.24 -4.8036 -6.9599)">
						</image>
					</g>
				</g>
			</g>
		</mask>
		<g class="st4">
			<g>
				<defs>
					<rect id="SVGID_8_" x="4.076" y="0" width="30.72" height="39.6"/>
				</defs>
				<clipPath id="SVGID_9_">
					<use xlink:href="#SVGID_8_"  style="overflow:visible;"/>
				</clipPath>
				<rect x="4.077" class="st5" width="30.72" height="39.6"/>
			</g>
		</g>
	</g>
	<rect x="1.843" y="2.393" class="st6" width="30.42" height="39.362"/>
	<g class="st0">
		<defs>
			<rect id="SVGID_10_" x="-20.946" y="-4.357" width="98" height="56"/>
		</defs>
		<clipPath id="SVGID_11_">
			<use xlink:href="#SVGID_10_"  style="overflow:visible;"/>
		</clipPath>
		<path class="st7" d="M1.18,2.623V38.03c0,0,0.536,3.636,1.913,3.636h30.231c-1.454,0-1.913-3.635-1.913-3.635V2.623H1.18z"/>
	</g>
	<rect x="5.585" y="14.203" class="st8" width="9.261" height="9.165"/>
	<g class="st0">
		<defs>
			<rect id="SVGID_12_" x="-20.946" y="-4.357" width="98" height="56"/>
		</defs>
		<clipPath id="SVGID_13_">
			<use xlink:href="#SVGID_12_"  style="overflow:visible;"/>
		</clipPath>
		<path class="st9" d="M25.71,8.695l0.55-1.844l0.558,1.844H25.71z M27.373,10.579h0.994l-1.56-4.701h-1.048l-1.539,4.701h0.943
			l0.326-1.105h1.554L27.373,10.579z M24.434,5.878h-3.425v0.819h1.251v3.882h0.921V6.697h1.253V5.878z M17.834,9.348l-0.405,0.651
			c0.446,0.385,1.003,0.647,1.655,0.647c0.884,0,1.596-0.475,1.596-1.444c0-1.706-2.217-1.091-2.217-2.031
			c0-0.344,0.296-0.543,0.698-0.543c0.339,0,0.736,0.14,1.058,0.367l0.398-0.633c-0.408-0.34-0.963-0.551-1.517-0.551
			c-0.85,0-1.544,0.492-1.544,1.429c0,1.66,2.197,1.09,2.197,2.031c0,0.355-0.308,0.537-0.72,0.537
			C18.625,9.808,18.203,9.63,17.834,9.348 M15.845,10.579h0.923V5.878h-0.923V10.579z M12.48,5.878h-0.986l1.503,4.701h0.793
			l1.509-4.701h-0.937l-0.945,3.255L12.48,5.878z M8.324,10.579h2.867V9.764H9.236V8.616h1.657V7.802H9.236V6.693h1.909V5.878H8.324
			V10.579z M5.252,8.058V6.685h0.589c0.458,0,0.754,0.233,0.754,0.689c0,0.439-0.269,0.684-0.754,0.684H5.252z M4.346,10.579h0.906
			V8.867h0.506l0.892,1.712h1.069L6.672,8.723c0.53-0.231,0.844-0.728,0.844-1.361c0-0.866-0.59-1.484-1.584-1.484H4.346V10.579z"/>
	</g>
	<line class="st8" x1="17.562" y1="15.736" x2="27.11" y2="15.736"/>
	<line class="st8" x1="17.562" y1="19.467" x2="27.11" y2="19.467"/>
	<line class="st8" x1="17.562" y1="23.368" x2="27.11" y2="23.368"/>
	<line class="st8" x1="5.191" y1="28.586" x2="28.153" y2="28.586"/>
	<line class="st8" x1="5.191" y1="32.317" x2="28.153" y2="32.317"/>
	<line class="st8" x1="5.191" y1="36.218" x2="28.153" y2="36.218"/>
	<g class="st0">
		<defs>
			<rect id="SVGID_14_" x="-20.946" y="-4.357" width="98" height="56"/>
		</defs>
		<clipPath id="SVGID_15_">
			<use xlink:href="#SVGID_14_"  style="overflow:visible;"/>
		</clipPath>
		<path class="st10" d="M55.059,28.527c-0.066,0.564-0.171,1.05-0.315,1.457c-0.145,0.407-0.342,0.722-0.591,0.945
			c-0.249,0.224-0.558,0.335-0.926,0.335c-0.367,0-0.673-0.111-0.915-0.335c-0.243-0.223-0.44-0.538-0.591-0.945
			c-0.151-0.407-0.26-0.893-0.325-1.457c-0.066-0.565-0.099-1.188-0.099-1.871s0.033-1.303,0.099-1.861
			c0.065-0.558,0.174-1.041,0.325-1.448c0.151-0.407,0.348-0.722,0.591-0.945c0.242-0.223,0.548-0.335,0.915-0.335
			c0.368,0,0.677,0.112,0.926,0.335s0.446,0.538,0.591,0.945c0.144,0.407,0.249,0.89,0.315,1.448s0.099,1.178,0.099,1.861
			S55.125,27.962,55.059,28.527 M56.841,21.387c-0.873-1.227-2.077-1.841-3.614-1.841c-0.748,0-1.424,0.158-2.028,0.473
			c-0.604,0.315-1.123,0.775-1.556,1.378c-0.433,0.604-0.765,1.346-0.995,2.226c-0.229,0.88-0.344,1.89-0.344,3.033
			c0,2.298,0.436,4.06,1.31,5.288c0.873,1.228,2.077,1.841,3.613,1.841c1.537,0,2.741-0.613,3.614-1.841s1.31-2.99,1.31-5.288
			C58.151,24.371,57.714,22.615,56.841,21.387 M42.819,29.531c-0.322,0.381-0.712,0.686-1.172,0.916s-0.991,0.394-1.595,0.492
			c-0.604,0.099-1.28,0.155-2.029,0.168c0.027,0.42,0.053,0.827,0.079,1.221c0.026,0.394,0.046,0.801,0.059,1.221
			c1.497-0.013,2.79-0.194,3.88-0.542c1.09-0.348,1.986-0.856,2.688-1.526c0.703-0.67,1.221-1.497,1.556-2.482
			c0.335-0.984,0.502-2.12,0.502-3.407c0-1.956-0.43-3.456-1.29-4.5c-0.86-1.044-2.136-1.566-3.83-1.566
			c-0.827,0-1.533,0.148-2.117,0.443c-0.585,0.296-1.067,0.67-1.448,1.123c-0.381,0.453-0.66,0.955-0.837,1.507
			c-0.177,0.551-0.266,1.09-0.266,1.615c0,0.63,0.092,1.208,0.276,1.733c0.184,0.525,0.469,0.975,0.857,1.349
			c0.387,0.374,0.883,0.663,1.487,0.866c0.603,0.204,1.332,0.306,2.186,0.306c0.236,0,0.522-0.03,0.856-0.089
			c0.335-0.059,0.641-0.154,0.916-0.286C43.393,28.671,43.141,29.15,42.819,29.531 M40.436,25.671
			c-0.348-0.341-0.522-0.867-0.522-1.576c0-0.236,0.036-0.479,0.108-0.728c0.072-0.25,0.181-0.479,0.325-0.69
			c0.145-0.209,0.335-0.38,0.572-0.512c0.236-0.131,0.512-0.197,0.827-0.197c0.394,0,0.725,0.089,0.994,0.266
			c0.269,0.178,0.483,0.421,0.64,0.729c0.158,0.309,0.269,0.67,0.335,1.083c0.066,0.414,0.105,0.857,0.118,1.33
			c0,0.039-0.003,0.085-0.01,0.137c-0.006,0.053-0.009,0.106-0.009,0.158v0.177c-0.158,0.106-0.401,0.187-0.729,0.246
			c-0.328,0.06-0.644,0.089-0.945,0.089C41.352,26.183,40.784,26.013,40.436,25.671"/>
	</g>
</g>
</svg>
