<?xml version="1.0" encoding="utf-8"?>
<!-- Generator: Adobe Illustrator 21.1.0, SVG Export Plug-In . SVG Version: 6.00 Build 0)  -->
<svg version="1.1" id="Capa_1" xmlns="http://www.w3.org/2000/svg" xmlns:xlink="http://www.w3.org/1999/xlink" x="0px" y="0px"
	 viewBox="0 0 32.816 33.542" style="enable-background:new 0 0 32.816 33.542;" xml:space="preserve">
<style type="text/css">
	.st0{clip-path:url(#SVGID_2_);fill:url(#SVGID_3_);}
	.st1{clip-path:url(#SVGID_5_);fill:url(#SVGID_6_);}
	.st2{clip-path:url(#SVGID_8_);fill:#FFD97E;}
</style>
<g>
	<defs>
		<path id="SVGID_1_" d="M1.024,16.885c-0.363,8.318,5.685,15.427,13.749,16.513l1.644,0.072l1.249,0.055
			c7.693-0.361,14.055-6.251,15.022-13.933l0.005-0.112l0.11-2.534C32.492,8.729,25.939,1.994,17.609,1.631
			c-0.235-0.01-0.469-0.016-0.703-0.016C8.441,1.615,1.399,8.313,1.024,16.885"/>
	</defs>
	<clipPath id="SVGID_2_">
		<use xlink:href="#SVGID_1_"  style="overflow:visible;"/>
	</clipPath>
	
		<linearGradient id="SVGID_3_" gradientUnits="userSpaceOnUse" x1="-380.3919" y1="566.7504" x2="-379.3919" y2="566.7504" gradientTransform="matrix(31.7758 1.3874 1.3874 -31.7758 11302.0332 18553.5488)">
		<stop  offset="0" style="stop-color:#BFC7D3"/>
		<stop  offset="1" style="stop-color:#D7DBE2"/>
	</linearGradient>
	<polygon class="st0" points="0.722,0.214 34.194,1.676 32.742,34.926 -0.73,33.464 	"/>
</g>
<g>
	<defs>
		<path id="SVGID_4_" d="M15.893,0C7.468,0.003,0.454,6.638,0.021,15.151l-0.01,0.222C0.005,15.551,0.001,15.728,0,15.906v0.141
			c0.034,8.464,6.691,15.492,15.207,15.864c8.736,0.382,16.135-6.387,16.579-15.139l0.01-0.23c0.319-8.72-6.4-16.081-15.082-16.521
			l-0.218-0.01C16.298,0.004,16.1,0,15.903,0H15.893z"/>
	</defs>
	<clipPath id="SVGID_5_">
		<use xlink:href="#SVGID_4_"  style="overflow:visible;"/>
	</clipPath>
	
		<radialGradient id="SVGID_6_" cx="-369.0298" cy="580.43" r="1" gradientTransform="matrix(16.058 0.7011 0.7037 -16.1185 5533.2886 9630.4248)" gradientUnits="userSpaceOnUse">
		<stop  offset="0" style="stop-color:#FFCF08"/>
		<stop  offset="0.1381" style="stop-color:#FFCF08"/>
		<stop  offset="0.357" style="stop-color:#FECB0A"/>
		<stop  offset="0.5897" style="stop-color:#FCBE0E"/>
		<stop  offset="0.6292" style="stop-color:#FBBB0F"/>
		<stop  offset="0.7203" style="stop-color:#F9B80F"/>
		<stop  offset="0.7891" style="stop-color:#F4AE10"/>
		<stop  offset="0.8506" style="stop-color:#EB9E11"/>
		<stop  offset="0.9078" style="stop-color:#DE8713"/>
		<stop  offset="0.9616" style="stop-color:#CE6A15"/>
		<stop  offset="1" style="stop-color:#C05017"/>
	</radialGradient>
	<polygon class="st1" points="0.061,-1.399 33.522,0.061 32.054,33.693 -1.407,32.232 	"/>
</g>
<g>
	<defs>
		<rect id="SVGID_7_" width="32.816" height="33.542"/>
	</defs>
	<clipPath id="SVGID_8_">
		<use xlink:href="#SVGID_7_"  style="overflow:visible;"/>
	</clipPath>
	<path class="st2" d="M3.844,17.498c0.343-7.864,6.978-13.962,14.82-13.62c3.78,0.165,7.148,1.8,9.587,4.328
		c-2.421-3.7-6.518-6.22-11.263-6.428C9.146,1.436,2.511,7.534,2.168,15.398C1.99,19.47,3.537,23.215,6.156,25.93
		C4.577,23.516,3.708,20.602,3.844,17.498"/>
</g>
</svg>
