<?xml version="1.0" encoding="utf-8"?>
<!-- Generator: Adobe Illustrator 21.1.0, SVG Export Plug-In . SVG Version: 6.00 Build 0)  -->
<svg version="1.1" id="Capa_1" xmlns="http://www.w3.org/2000/svg" xmlns:xlink="http://www.w3.org/1999/xlink" x="0px" y="0px"
	 viewBox="0 0 65.467 71.274" style="enable-background:new 0 0 65.467 71.274;" xml:space="preserve">
<style type="text/css">
	.st0{clip-path:url(#SVGID_2_);}
	.st1{filter:url(#Adobe_OpacityMaskFilter);}
	.st2{clip-path:url(#SVGID_4_);}
	.st3{clip-path:url(#SVGID_4_);mask:url(#SVGID_5_);}
	.st4{opacity:0.2;clip-path:url(#SVGID_9_);fill:#1D1D1B;}
	.st5{clip-path:url(#SVGID_4_);fill:none;stroke:#44B9C0;stroke-width:2.547;}
</style>
<g>
	<defs>
		<rect id="SVGID_1_" width="65.467" height="71.274"/>
	</defs>
	<clipPath id="SVGID_2_">
		<use xlink:href="#SVGID_1_"  style="overflow:visible;"/>
	</clipPath>
	<g class="st0">
		<defs>
			<rect id="SVGID_3_" y="0" width="65.467" height="71.274"/>
		</defs>
		<clipPath id="SVGID_4_">
			<use xlink:href="#SVGID_3_"  style="overflow:visible;"/>
		</clipPath>
		<defs>
			<filter id="Adobe_OpacityMaskFilter" filterUnits="userSpaceOnUse" x="14.88" y="8.64" width="35.52" height="60">
				<feColorMatrix  type="matrix" values="1 0 0 0 0  0 1 0 0 0  0 0 1 0 0  0 0 0 1 0"/>
			</filter>
		</defs>
		<mask maskUnits="userSpaceOnUse" x="14.88" y="8.64" width="35.52" height="60" id="SVGID_5_">
			<g class="st1">
				<g>
					<defs>
						<rect id="SVGID_6_" x="0" y="0" width="65.28" height="71.52"/>
					</defs>
					<clipPath id="SVGID_7_" class="st2">
						<use xlink:href="#SVGID_6_"  style="overflow:visible;"/>
					</clipPath>
					<g style="clip-path:url(#SVGID_7_);">
						
							<image style="overflow:visible;" width="136" height="149" xlink:href="8EE9F5F938E29C1.jpg"  transform="matrix(0.48 0 0 0.48 -4.630000e-05 2.975464e-04)">
						</image>
					</g>
				</g>
			</g>
		</mask>
		<g class="st3">
			<g>
				<defs>
					<rect id="SVGID_8_" x="14.88" y="8.64" width="35.52" height="60"/>
				</defs>
				<clipPath id="SVGID_9_">
					<use xlink:href="#SVGID_8_"  style="overflow:visible;"/>
				</clipPath>
				<rect x="14.88" y="8.64" class="st4" width="35.52" height="60"/>
			</g>
		</g>
		<path class="st5" d="M30.238,14.434c0,0-4.8-7.018-10.694-3.629c-5.894,3.391-2.536,9.758-2.536,9.758l19.183,42.613
			c0,0,3.618,3.889,8.412,1.385c4.794-2.502,1.332-7.879,1.332-7.879l-13.96-30.035"/>
	</g>
</g>
</svg>
