<?xml version="1.0" encoding="utf-8"?>
<!-- Generator: Adobe Illustrator 21.1.0, SVG Export Plug-In . SVG Version: 6.00 Build 0)  -->
<svg version="1.1" id="Capa_1" xmlns="http://www.w3.org/2000/svg" xmlns:xlink="http://www.w3.org/1999/xlink" x="0px" y="0px"
	 viewBox="0 0 58.311 35.578" style="enable-background:new 0 0 58.311 35.578;" xml:space="preserve">
<style type="text/css">
	.st0{clip-path:url(#SVGID_2_);}
	.st1{clip-path:url(#SVGID_4_);fill:#005CA8;}
	.st2{filter:url(#Adobe_OpacityMaskFilter);}
	.st3{clip-path:url(#SVGID_4_);}
	.st4{clip-path:url(#SVGID_4_);mask:url(#SVGID_5_);}
	.st5{opacity:0.2;clip-path:url(#SVGID_9_);fill:#1D1D1B;}
	.st6{clip-path:url(#SVGID_2_);fill:#FFFFFF;}
	.st7{clip-path:url(#SVGID_11_);fill:none;stroke:#005CA8;stroke-width:1.777;stroke-linecap:round;}
	.st8{clip-path:url(#SVGID_2_);fill:none;stroke:#005CA8;stroke-width:1.185;stroke-linecap:round;}
	.st9{clip-path:url(#SVGID_13_);fill:#005CA8;}
	.st10{clip-path:url(#SVGID_15_);fill:#FFFFFF;}
</style>
<g>
	<defs>
		<rect id="SVGID_1_" x="-1.417" y="-0.976" width="61" height="38"/>
	</defs>
	<clipPath id="SVGID_2_">
		<use xlink:href="#SVGID_1_"  style="overflow:visible;"/>
	</clipPath>
	<g class="st0">
		<defs>
			<rect id="SVGID_3_" x="-1.417" y="-0.976" width="61" height="38"/>
		</defs>
		<clipPath id="SVGID_4_">
			<use xlink:href="#SVGID_3_"  style="overflow:visible;"/>
		</clipPath>
		<path class="st1" d="M25.184,12.449c0,0-1.805,0-1.805,1.805v14.401c0,0,0,1.805,1.805,1.805h31.322c0,0,1.805,0,1.805-1.805
			V14.254c0,0,0-1.805-1.805-1.805H25.184z"/>
		<defs>
			<filter id="Adobe_OpacityMaskFilter" filterUnits="userSpaceOnUse" x="2.947" y="0" width="25.92" height="33.36">
				<feColorMatrix  type="matrix" values="1 0 0 0 0  0 1 0 0 0  0 0 1 0 0  0 0 0 1 0"/>
			</filter>
		</defs>
		<mask maskUnits="userSpaceOnUse" x="2.947" y="0" width="25.92" height="33.36" id="SVGID_5_">
			<g class="st2">
				<g>
					<defs>
						<rect id="SVGID_6_" x="-5.933" y="-6.96" width="44.16" height="41.28"/>
					</defs>
					<clipPath id="SVGID_7_" class="st3">
						<use xlink:href="#SVGID_6_"  style="overflow:visible;"/>
					</clipPath>
					<g transform="matrix(1 0 0 1 0 0)" style="clip-path:url(#SVGID_7_);">
						
							<image style="overflow:visible;" width="184" height="172" xlink:href="D2C024B84B5CA827.jpg"  transform="matrix(0.24 0 0 0.24 -5.933 -6.96)">
						</image>
					</g>
				</g>
			</g>
		</mask>
		<g class="st4">
			<g>
				<defs>
					<rect id="SVGID_8_" x="2.947" width="25.92" height="33.36"/>
				</defs>
				<clipPath id="SVGID_9_">
					<use xlink:href="#SVGID_8_"  style="overflow:visible;"/>
				</clipPath>
				<rect x="2.947" y="0" class="st5" width="25.92" height="33.36"/>
			</g>
		</g>
	</g>
	<rect x="1.432" y="1.674" class="st6" width="25.605" height="33.132"/>
	<g class="st0">
		<defs>
			<rect id="SVGID_10_" x="-1.417" y="-0.976" width="61" height="38"/>
		</defs>
		<clipPath id="SVGID_11_">
			<use xlink:href="#SVGID_10_"  style="overflow:visible;"/>
		</clipPath>
		<path class="st7" d="M0.888,1.882V31.66c0,0,0.45,3.058,1.609,3.058h25.42c-1.223,0-1.609-3.058-1.609-3.058V1.882H0.888z"/>
	</g>
	<rect x="4.591" y="11.624" class="st8" width="7.776" height="7.696"/>
	<g class="st0">
		<defs>
			<rect id="SVGID_12_" x="-1.417" y="-0.976" width="61" height="38"/>
		</defs>
		<clipPath id="SVGID_13_">
			<use xlink:href="#SVGID_12_"  style="overflow:visible;"/>
		</clipPath>
		<path class="st9" d="M21.522,6.979l0.462-1.552l0.47,1.552H21.522z M22.922,8.565h0.836l-1.313-3.957h-0.882l-1.296,3.957h0.794
			l0.275-0.93h1.307L22.922,8.565z M20.448,4.608h-2.884v0.689h1.054v3.268h0.775V5.297h1.055V4.608z M14.892,7.529l-0.341,0.548
			c0.376,0.324,0.845,0.544,1.393,0.544c0.744,0,1.344-0.399,1.344-1.215c0-1.436-1.867-0.919-1.867-1.709
			c0-0.29,0.25-0.458,0.588-0.458c0.285,0,0.62,0.118,0.891,0.309l0.335-0.532c-0.343-0.287-0.811-0.465-1.277-0.465
			c-0.716,0-1.299,0.415-1.299,1.204c0,1.397,1.849,0.917,1.849,1.709c0,0.299-0.26,0.452-0.607,0.452
			C15.558,7.916,15.203,7.766,14.892,7.529 M13.218,8.565h0.777V4.608h-0.777V8.565z M10.385,4.608H9.556l1.265,3.957h0.667
			l1.27-3.957h-0.789l-0.795,2.74L10.385,4.608z M6.887,8.565h2.414V7.879H7.655V6.912H9.05V6.228H7.655V5.294h1.607V4.608H6.887
			V8.565z M4.302,6.443V5.287h0.495c0.386,0,0.635,0.196,0.635,0.581c0,0.368-0.227,0.575-0.635,0.575H4.302z M3.539,8.565h0.763
			V7.124h0.425l0.751,1.441h0.9L5.497,7.003c0.446-0.195,0.71-0.613,0.71-1.146c0-0.729-0.496-1.249-1.333-1.249H3.539V8.565z"/>
	</g>
	<line class="st8" x1="14.673" y1="12.915" x2="22.691" y2="12.915"/>
	<line class="st8" x1="14.673" y1="16.046" x2="22.691" y2="16.046"/>
	<line class="st8" x1="14.673" y1="19.32" x2="22.691" y2="19.32"/>
	<line class="st8" x1="4.26" y1="23.731" x2="23.57" y2="23.731"/>
	<line class="st8" x1="4.26" y1="26.862" x2="23.57" y2="26.862"/>
	<line class="st8" x1="4.26" y1="30.136" x2="23.57" y2="30.136"/>
	<g class="st0">
		<defs>
			<rect id="SVGID_14_" x="-1.417" y="-0.976" width="61" height="38"/>
		</defs>
		<clipPath id="SVGID_15_">
			<use xlink:href="#SVGID_14_"  style="overflow:visible;"/>
		</clipPath>
		<path class="st10" d="M47.059,19.75c-0.273,0.047-0.541,0.131-0.802,0.249c0.178-0.487,0.428-0.9,0.749-1.239
			c0.321-0.339,0.698-0.615,1.132-0.829c0.434-0.214,0.915-0.371,1.444-0.472c0.529-0.101,1.097-0.158,1.703-0.17
			c-0.024-0.38-0.048-0.745-0.072-1.096c-0.023-0.351-0.047-0.71-0.071-1.079c-1.212,0.012-2.303,0.181-3.271,0.508
			c-0.969,0.327-1.795,0.803-2.479,1.427c-0.683,0.624-1.209,1.393-1.578,2.309c-0.368,0.915-0.552,1.967-0.552,3.155
			c0,1.653,0.386,2.948,1.159,3.887c0.772,0.939,1.901,1.409,3.387,1.409c0.737,0,1.376-0.131,1.917-0.393
			c0.54-0.261,0.986-0.594,1.337-0.998c0.35-0.404,0.612-0.856,0.784-1.355c0.173-0.499,0.259-0.987,0.259-1.462
			c0-0.535-0.077-1.04-0.232-1.516c-0.154-0.475-0.404-0.891-0.749-1.248c-0.345-0.356-0.787-0.638-1.328-0.847
			c-0.541-0.207-1.198-0.312-1.97-0.312C47.588,19.678,47.333,19.702,47.059,19.75 M49.012,22.237
			c0.303,0.327,0.454,0.793,0.454,1.4c0,0.214-0.033,0.436-0.098,0.668s-0.166,0.443-0.303,0.633
			c-0.137,0.19-0.309,0.348-0.517,0.473c-0.208,0.124-0.461,0.187-0.758,0.187c-0.356,0-0.654-0.08-0.891-0.241
			c-0.238-0.16-0.428-0.383-0.571-0.669c-0.142-0.285-0.243-0.617-0.303-0.998c-0.059-0.38-0.089-0.784-0.089-1.212
			c0-0.072,0.003-0.155,0.009-0.25c0.006-0.095,0.009-0.166,0.009-0.214c0.166-0.083,0.398-0.148,0.695-0.196
			c0.297-0.047,0.577-0.071,0.838-0.071C48.2,21.747,48.708,21.91,49.012,22.237 M37.699,27.559c0.071-1.07,0.259-2.14,0.562-3.209
			c0.303-1.07,0.659-2.071,1.069-3.005c0.41-0.932,0.844-1.767,1.302-2.505c0.457-0.736,0.876-1.313,1.257-1.729v-1.926h-8.647
			v2.265h5.366c-0.416,0.582-0.826,1.275-1.23,2.077s-0.77,1.655-1.096,2.558c-0.327,0.904-0.604,1.825-0.829,2.764
			c-0.226,0.939-0.375,1.842-0.446,2.71H37.699z"/>
	</g>
</g>
</svg>
