<?xml version="1.0" encoding="utf-8"?>
<!-- Generator: Adobe Illustrator 21.1.0, SVG Export Plug-In . SVG Version: 6.00 Build 0)  -->
<svg version="1.1" id="Capa_1" xmlns="http://www.w3.org/2000/svg" xmlns:xlink="http://www.w3.org/1999/xlink" x="0px" y="0px"
	 viewBox="0 0 14.903 14.903" style="enable-background:new 0 0 14.903 14.903;" xml:space="preserve">
<style type="text/css">
	.st0{clip-path:url(#SVGID_2_);fill:none;stroke:#7C6EAF;stroke-width:0.955;stroke-linecap:round;}
	.st1{clip-path:url(#SVGID_2_);fill:#7C6EAF;}
</style>
<g>
	<defs>
		<rect id="SVGID_1_" width="14.903" height="14.903"/>
	</defs>
	<clipPath id="SVGID_2_">
		<use xlink:href="#SVGID_1_"  style="overflow:visible;"/>
	</clipPath>
	<rect x="0.478" y="0.477" class="st0" width="13.948" height="13.948"/>
	<path class="st1" d="M9.533,10.384c-0.102,0.032-0.27,0.065-0.502,0.1c-0.232,0.036-0.513,0.053-0.844,0.053
		c-0.464,0-0.868-0.078-1.21-0.236c-0.342-0.157-0.63-0.379-0.862-0.667C5.883,9.347,5.71,9.003,5.596,8.601
		C5.481,8.2,5.424,7.755,5.424,7.267c0-0.503,0.067-0.958,0.201-1.363c0.134-0.406,0.321-0.75,0.561-1.034
		c0.24-0.283,0.531-0.499,0.874-0.649c0.342-0.149,0.722-0.224,1.139-0.224c0.393,0,0.779,0.049,1.157,0.147
		c0.378,0.099,0.681,0.223,0.909,0.372l0.366-0.956c-0.047-0.031-0.136-0.079-0.266-0.142s-0.297-0.125-0.501-0.189
		C9.659,3.167,9.413,3.111,9.126,3.064C8.838,3.017,8.51,2.993,8.14,2.993c-0.543,0-1.053,0.095-1.529,0.284
		C6.135,3.466,5.72,3.741,5.365,4.103C5.011,4.465,4.73,4.912,4.521,5.443C4.313,5.974,4.208,6.582,4.208,7.267
		s0.093,1.291,0.278,1.818c0.185,0.528,0.446,0.972,0.785,1.334c0.338,0.363,0.744,0.638,1.216,0.827
		c0.472,0.189,0.996,0.283,1.57,0.283c0.284,0,0.563-0.014,0.838-0.041c0.276-0.028,0.53-0.061,0.762-0.1
		c0.232-0.04,0.437-0.079,0.614-0.119c0.177-0.039,0.313-0.074,0.407-0.106V7.338H9.533V10.384z"/>
</g>
</svg>
