<svg id="Capa_1" data-name="Capa 1" xmlns="http://www.w3.org/2000/svg" viewBox="0 0 26.34 27.45"><defs><style>.cls-1{fill:#e3e0f1;}.cls-2{fill:none;stroke:#7c6eaf;stroke-width:1.27px;}.cls-3{isolation:isolate;font-size:15.26px;fill:#7c6eaf;font-family:ArialMT, Arial;}</style></defs><path class="cls-1" d="M1.27,1.66S1,8.16,1,16s.3,9.3.3,9.3,8.7,1.3,9.7,1.1,14.2-1.1,14.2-1.1.1-1.8.2-9.2c0-8.4-.2-14.4-.2-14.4s-13-.5-14.4-.6-9.5.6-9.5.6"/><path class="cls-2" d="M1.27,1.66S1,8.16,1,16s.3,9.3.3,9.3,8.7,1.3,9.7,1.1,14.2-1.1,14.2-1.1.1-1.8.2-9.2c0-8.4-.2-14.4-.2-14.4s-13-.5-14.4-.6S1.27,1.66,1.27,1.66Z"/><text class="cls-3" transform="translate(8.93 19.44)">4</text></svg>