<?xml version="1.0" encoding="utf-8"?>
<!-- Generator: Adobe Illustrator 21.1.0, SVG Export Plug-In . SVG Version: 6.00 Build 0)  -->
<svg version="1.1" id="Capa_1" xmlns="http://www.w3.org/2000/svg" xmlns:xlink="http://www.w3.org/1999/xlink" x="0px" y="0px"
	 viewBox="0 0 504.585 627.046" style="enable-background:new 0 0 504.585 627.046;" xml:space="preserve">
<style type="text/css">
	.st0{clip-path:url(#SVGID_2_);fill:none;stroke:#D5D1E9;stroke-width:2.548;stroke-linecap:round;}
	.st1{clip-path:url(#SVGID_2_);fill:none;stroke:#D5D1E9;stroke-width:2.548;stroke-linecap:round;stroke-dasharray:7.695,5.147;}
	.st2{clip-path:url(#SVGID_2_);fill:none;stroke:#D5D1E9;stroke-width:2.548;stroke-linecap:round;stroke-dasharray:7.708,5.16;}
	.st3{clip-path:url(#SVGID_2_);fill:none;stroke:#D5D1E9;stroke-width:2.548;stroke-linecap:round;stroke-dasharray:7.556,5.008;}
	.st4{clip-path:url(#SVGID_2_);fill:none;stroke:#D5D1E9;stroke-width:2.548;stroke-linecap:round;stroke-dasharray:7.705,5.157;}
	.st5{fill:none;stroke:#D5D1E9;stroke-width:2.548;stroke-linecap:round;}
</style>
<g>
	<defs>
		<rect id="SVGID_1_" width="504.585" height="627.046"/>
	</defs>
	<clipPath id="SVGID_2_">
		<use xlink:href="#SVGID_1_"  style="overflow:visible;"/>
	</clipPath>
	<polyline class="st0" points="316.179,17.396 324.795,11.117 319.172,1.277 	"/>
	<path class="st1" d="M188.433,6.672c113.884-2.278,304.815-2.397,314.503,121.38"/>
	<path class="st2" d="M503.142,143.473c-4.994,90.185-120.732,175.871-287.208,97.311"/>
	<path class="st3" d="M202.172,234.29c-94.956-41.644-196.27,1.866-200.744,92.526"/>
	<path class="st4" d="M1.429,342.103c2.246,64.884,34.382,287.805,429.803,283.611"/>
	<path class="st0" d="M433.81,625.683c1.281-0.017,2.565-0.036,3.852-0.058 M1.329,329.317c-0.036,1.251-0.055,2.51-0.055,3.778
		c0,1.174,0.008,2.46,0.028,3.852 M213.605,239.676c-1.153-0.553-2.308-1.115-3.466-1.684c-1.134-0.557-2.27-1.102-3.406-1.634
		 M503.11,130.619c0.072,1.269,0.126,2.55,0.161,3.844c0.035,1.284,0.047,2.569,0.036,3.853 M179.441,6.857
		c1.271-0.027,2.553-0.054,3.846-0.081"/>
	<polyline class="st0" points="486.842,178.859 490.592,188.839 501.576,186.051 	"/>
</g>
<polyline class="st5" points="114.921,210.798 108.518,219.319 116.772,227.089 "/>
</svg>
