<?xml version="1.0" encoding="utf-8"?>
<!-- Generator: Adobe Illustrator 21.1.0, SVG Export Plug-In . SVG Version: 6.00 Build 0)  -->
<svg version="1.1" id="Capa_1" xmlns="http://www.w3.org/2000/svg" xmlns:xlink="http://www.w3.org/1999/xlink" x="0px" y="0px"
	 viewBox="0 0 48 46" style="enable-background:new 0 0 48 46;" xml:space="preserve">
<style type="text/css">
	.st0{clip-path:url(#SVGID_2_);}
	.st1{filter:url(#Adobe_OpacityMaskFilter);}
	.st2{clip-path:url(#SVGID_4_);}
	.st3{clip-path:url(#SVGID_4_);mask:url(#SVGID_5_);}
	.st4{opacity:0.25;clip-path:url(#SVGID_9_);fill:#1D1D1B;}
	.st5{clip-path:url(#SVGID_4_);fill:#0069B3;}
	.st6{clip-path:url(#SVGID_4_);fill:none;stroke:#FFFFFF;stroke-width:1.274;}
	.st7{clip-path:url(#SVGID_4_);fill:#FFFFFF;}
	.st8{clip-path:url(#SVGID_4_);fill:#E1DEEF;}
</style>
<g>
	<defs>
		<rect id="SVGID_1_" width="48" height="46"/>
	</defs>
	<clipPath id="SVGID_2_">
		<use xlink:href="#SVGID_1_"  style="overflow:visible;"/>
	</clipPath>
	<g class="st0">
		<defs>
			<rect id="SVGID_3_" width="48" height="46"/>
		</defs>
		<clipPath id="SVGID_4_">
			<use xlink:href="#SVGID_3_"  style="overflow:visible;"/>
		</clipPath>
		<defs>
			<filter id="Adobe_OpacityMaskFilter" filterUnits="userSpaceOnUse" x="1.363" y="1.283" width="44.16" height="44.16">
				<feColorMatrix  type="matrix" values="1 0 0 0 0  0 1 0 0 0  0 0 1 0 0  0 0 0 1 0"/>
			</filter>
		</defs>
		<mask maskUnits="userSpaceOnUse" x="1.363" y="1.283" width="44.16" height="44.16" id="SVGID_5_">
			<g class="st1">
				<g>
					<defs>
						<rect id="SVGID_6_" x="-8.237" y="-6.397" width="63.36" height="54.72"/>
					</defs>
					<clipPath id="SVGID_7_" class="st2">
						<use xlink:href="#SVGID_6_"  style="overflow:visible;"/>
					</clipPath>
					<g style="clip-path:url(#SVGID_7_);">
						
							<image style="overflow:visible;" width="132" height="114" xlink:href="FA1620176D4D86D9.jpg"  transform="matrix(0.48 0 0 0.48 -8.237 -6.3973)">
						</image>
					</g>
				</g>
			</g>
		</mask>
		<g class="st3">
			<g>
				<defs>
					<rect id="SVGID_8_" x="1.363" y="1.283" width="44.16" height="44.16"/>
				</defs>
				<clipPath id="SVGID_9_">
					<use xlink:href="#SVGID_8_"  style="overflow:visible;"/>
				</clipPath>
				<rect x="1.363" y="1.283" class="st4" width="44.16" height="44.16"/>
			</g>
		</g>
		<path class="st5" d="M21.749,40.542c10.467,0,18.952-8.485,18.952-18.952c0-10.468-8.485-18.953-18.952-18.953
			S2.797,11.122,2.797,21.59C2.797,32.056,11.282,40.542,21.749,40.542"/>
		<circle class="st6" cx="21.749" cy="21.589" r="18.952"/>
		<path class="st7" d="M17.613,32.324c-0.173,0-0.346-0.04-0.506-0.122c-0.371-0.19-0.604-0.571-0.604-0.988V11.965
			c0-0.417,0.233-0.799,0.604-0.989c0.372-0.19,0.818-0.155,1.156,0.089l13.326,9.624c0.289,0.209,0.46,0.544,0.46,0.9
			c0,0.357-0.171,0.692-0.46,0.9l-13.326,9.625C18.07,32.253,17.842,32.324,17.613,32.324"/>
		<path class="st8" d="M16.503,21.589v9.624c0,0.417,0.234,0.799,0.605,0.989c0.159,0.082,0.333,0.122,0.505,0.122
			c0.23,0,0.458-0.071,0.651-0.21l13.326-9.625c0.289-0.208,0.46-0.543,0.46-0.9H16.503z"/>
	</g>
</g>
</svg>
