<?xml version="1.0" encoding="utf-8"?>
<!-- Generator: Adobe Illustrator 21.1.0, SVG Export Plug-In . SVG Version: 6.00 Build 0)  -->
<svg version="1.1" id="Capa_1" xmlns="http://www.w3.org/2000/svg" xmlns:xlink="http://www.w3.org/1999/xlink" x="0px" y="0px"
	 viewBox="0 0 28.838 14.903" style="enable-background:new 0 0 28.838 14.903;" xml:space="preserve">
<style type="text/css">
	.st0{fill:#FFFFFF;}
	.st1{clip-path:url(#SVGID_2_);fill:none;stroke:#7C6EAF;stroke-width:0.955;stroke-linecap:round;}
	.st2{clip-path:url(#SVGID_4_);fill:none;stroke:#7C6EAF;stroke-width:0.955;stroke-linecap:round;}
	.st3{clip-path:url(#SVGID_4_);fill:#7C6EAF;}
	.st4{fill:#7C6EAF;}
</style>
<rect x="14.412" y="0.477" class="st0" width="13.948" height="13.948"/>
<g>
	<defs>
		<rect id="SVGID_1_" width="28.838" height="14.903"/>
	</defs>
	<clipPath id="SVGID_2_">
		<use xlink:href="#SVGID_1_"  style="overflow:visible;"/>
	</clipPath>
	<rect x="14.412" y="0.477" class="st1" width="13.948" height="13.948"/>
</g>
<polygon class="st0" points="0.478,0.477 0.478,14.425 14.425,14.425 16.231,8.042 14.425,0.477 "/>
<g>
	<defs>
		<rect id="SVGID_3_" width="28.838" height="14.903"/>
	</defs>
	<clipPath id="SVGID_4_">
		<use xlink:href="#SVGID_3_"  style="overflow:visible;"/>
	</clipPath>
	<polygon class="st2" points="0.477,0.477 0.477,14.425 14.425,14.425 16.23,8.042 14.425,0.477 	"/>
	<path class="st3" d="M10.071,10.384c-0.102,0.032-0.27,0.065-0.502,0.1c-0.232,0.036-0.513,0.053-0.844,0.053
		c-0.464,0-0.868-0.078-1.21-0.236c-0.342-0.157-0.63-0.379-0.862-0.667C6.421,9.347,6.248,9.003,6.134,8.601
		C6.019,8.2,5.962,7.755,5.962,7.267c0-0.503,0.067-0.958,0.201-1.363c0.134-0.406,0.321-0.75,0.561-1.034
		c0.24-0.283,0.531-0.499,0.874-0.649C7.94,4.072,8.32,3.997,8.737,3.997c0.393,0,0.779,0.049,1.157,0.147
		c0.378,0.099,0.681,0.223,0.909,0.372l0.366-0.956c-0.047-0.031-0.136-0.079-0.266-0.142s-0.297-0.125-0.501-0.189
		c-0.205-0.062-0.451-0.118-0.738-0.165C9.376,3.017,9.048,2.993,8.678,2.993c-0.543,0-1.053,0.095-1.529,0.284
		C6.673,3.466,6.258,3.741,5.903,4.103c-0.354,0.362-0.635,0.809-0.844,1.34C4.851,5.974,4.746,6.582,4.746,7.267
		s0.093,1.291,0.278,1.818c0.185,0.528,0.446,0.972,0.785,1.334c0.338,0.363,0.744,0.638,1.216,0.827
		c0.472,0.189,0.996,0.283,1.57,0.283c0.284,0,0.563-0.014,0.838-0.041c0.276-0.028,0.53-0.061,0.762-0.1
		c0.232-0.04,0.437-0.079,0.614-0.119c0.177-0.039,0.313-0.074,0.407-0.106V7.338h-1.145V10.384z"/>
</g>
<rect x="21.866" y="3.182" class="st4" width="1.145" height="8.182"/>
</svg>
