<?xml version="1.0" encoding="utf-8"?>
<!-- Generator: Adobe Illustrator 21.1.0, SVG Export Plug-In . SVG Version: 6.00 Build 0)  -->
<svg version="1.1" id="Capa_1" xmlns="http://www.w3.org/2000/svg" xmlns:xlink="http://www.w3.org/1999/xlink" x="0px" y="0px"
	 viewBox="0 0 28.8 14.9" style="enable-background:new 0 0 28.8 14.9;" xml:space="preserve">
<style type="text/css">
	.st0{fill:#FFFFFF;}
	.st1{clip-path:url(#SVGID_2_);fill:none;stroke:#7C6EAF;stroke-width:0.955;stroke-linecap:round;}
	.st2{clip-path:url(#SVGID_4_);fill:none;stroke:#7C6EAF;stroke-width:0.955;stroke-linecap:round;}
	.st3{clip-path:url(#SVGID_4_);fill:#7C6EAF;}
	.st4{fill:#7C6EAF;}
</style>
<rect x="14.4" y="0.5" class="st0" width="13.9" height="13.9"/>
<g>
	<defs>
		<rect id="SVGID_1_" width="28.8" height="14.9"/>
	</defs>
	<clipPath id="SVGID_2_">
		<use xlink:href="#SVGID_1_"  style="overflow:visible;"/>
	</clipPath>
	<rect x="14.4" y="0.5" class="st1" width="13.9" height="13.9"/>
</g>
<polygon class="st0" points="0.5,0.5 0.5,14.4 14.4,14.4 16.2,8 14.4,0.5 "/>
<g>
	<defs>
		<rect id="SVGID_3_" width="28.8" height="14.9"/>
	</defs>
	<clipPath id="SVGID_4_">
		<use xlink:href="#SVGID_3_"  style="overflow:visible;"/>
	</clipPath>
	<polygon class="st2" points="0.5,0.5 0.5,14.4 14.4,14.4 16.2,8 14.4,0.5 	"/>
	<path class="st3" d="M24.3,10.4c-0.1,0-0.3,0.1-0.5,0.1c-0.2,0-0.5,0.1-0.8,0.1c-0.5,0-0.9-0.1-1.2-0.2c-0.3-0.2-0.6-0.4-0.9-0.7
		c-0.2-0.3-0.4-0.6-0.5-1c-0.1-0.4-0.2-0.8-0.2-1.3c0-0.5,0.1-1,0.2-1.4c0.1-0.4,0.3-0.7,0.6-1c0.2-0.3,0.5-0.5,0.9-0.6
		C22.1,4.1,22.5,4,22.9,4c0.4,0,0.8,0,1.2,0.1c0.4,0.1,0.7,0.2,0.9,0.4l0.4-1c0,0-0.1-0.1-0.3-0.1c-0.1-0.1-0.3-0.1-0.5-0.2
		c-0.2-0.1-0.5-0.1-0.7-0.2c-0.3,0-0.6-0.1-1-0.1c-0.5,0-1.1,0.1-1.5,0.3c-0.5,0.2-0.9,0.5-1.2,0.8c-0.4,0.4-0.6,0.8-0.8,1.3
		C19.1,6,19,6.6,19,7.3s0.1,1.3,0.3,1.8c0.2,0.5,0.4,1,0.8,1.3c0.3,0.4,0.7,0.6,1.2,0.8c0.5,0.2,1,0.3,1.6,0.3c0.3,0,0.6,0,0.8,0
		c0.3,0,0.5-0.1,0.8-0.1c0.2,0,0.4-0.1,0.6-0.1c0.2,0,0.3-0.1,0.4-0.1V7.3h-1.1V10.4z"/>
</g>
<rect x="7.4" y="3.2" class="st4" width="1.1" height="8.2"/>
</svg>
