<?xml version="1.0" encoding="utf-8"?>
<!-- Generator: Adobe Illustrator 14.0.0, SVG Export Plug-In . SVG Version: 6.00 Build 43363)  -->
<!DOCTYPE svg PUBLIC "-//W3C//DTD SVG 1.1//EN" "http://www.w3.org/Graphics/SVG/1.1/DTD/svg11.dtd">
<svg version="1.1" id="Layer_1" xmlns="http://www.w3.org/2000/svg" xmlns:xlink="http://www.w3.org/1999/xlink" x="0px" y="0px"
	 width="24.489px" height="25.398px" viewBox="0 0 24.489 25.398" enable-background="new 0 0 24.489 25.398" xml:space="preserve">
<g>
	<path fill="#F05B5B" d="M0.279,0.57c0,0-0.274,6.568-0.279,14.366s0.279,9.326,0.279,9.326s8.73,1.332,9.758,1.111
		c1.029-0.223,14.298-1.111,14.298-1.111s0.139-1.854,0.153-9.24C24.507,6.521,24.335,0.57,24.335,0.57S11.248,0.049,9.839,0.002
		C8.427-0.045,0.279,0.57,0.279,0.57"/>
	<g>
		<path fill="#FFFFFF" d="M15.717,10.494c0,0.454-0.09,0.89-0.27,1.308c-0.179,0.418-0.412,0.822-0.698,1.21
			c-0.287,0.388-0.609,0.761-0.968,1.12s-0.711,0.699-1.058,1.021c-0.179,0.167-0.373,0.355-0.582,0.564s-0.409,0.421-0.601,0.636
			c-0.191,0.216-0.361,0.416-0.511,0.601c-0.149,0.186-0.242,0.338-0.277,0.457h5.34v2.24H7.813
			c-0.023-0.132-0.035-0.299-0.035-0.502s0-0.347,0-0.43c0-0.574,0.092-1.1,0.277-1.577s0.427-0.923,0.726-1.335
			s0.637-0.798,1.013-1.156c0.376-0.358,0.749-0.716,1.12-1.075c0.286-0.275,0.556-0.535,0.807-0.78
			c0.25-0.245,0.472-0.484,0.663-0.717c0.19-0.233,0.34-0.466,0.447-0.699s0.161-0.469,0.161-0.708c0-0.525-0.149-0.896-0.447-1.111
			c-0.299-0.215-0.67-0.323-1.111-0.323c-0.322,0-0.624,0.051-0.905,0.152c-0.28,0.102-0.537,0.221-0.771,0.358
			c-0.232,0.138-0.433,0.275-0.6,0.412C8.99,10.3,8.865,10.411,8.781,10.494L7.455,8.63c0.525-0.49,1.138-0.893,1.837-1.209
			c0.699-0.316,1.448-0.475,2.249-0.475c0.729,0,1.355,0.083,1.882,0.25c0.525,0.167,0.959,0.403,1.299,0.708
			c0.341,0.305,0.592,0.675,0.753,1.111C15.636,9.452,15.717,9.945,15.717,10.494z"/>
	</g>
</g>
</svg>
