<?xml version="1.0" encoding="utf-8"?>
<!-- Generator: Adobe Illustrator 25.4.3, SVG Export Plug-In . SVG Version: 6.00 Build 0)  -->
<svg version="1.1" id="Capa_1" xmlns="http://www.w3.org/2000/svg" xmlns:xlink="http://www.w3.org/1999/xlink" x="0px" y="0px"
	 viewBox="0 0 820 1059.6" style="enable-background:new 0 0 820 1059.6;" xml:space="preserve">
<style type="text/css">
	.st0{clip-path:url(#SVGID_00000062150882165255361860000001084788067580320914_);fill:#7C6EAF;}
	.st1{clip-path:url(#SVGID_00000110443744319978981140000004178204263357658019_);}
	.st2{clip-path:url(#SVGID_00000108271462579755508870000005124167802120710814_);fill:#E3E0F1;}
	.st3{fill:none;}
</style>
<g>
	<defs>
		<rect id="SVGID_1_" x="-8.9" y="-7" width="847.7" height="1067"/>
	</defs>
	<clipPath id="SVGID_00000144315355248148273980000011811926899235324852_">
		<use xlink:href="#SVGID_1_"  style="overflow:visible;"/>
	</clipPath>
	<polygon style="clip-path:url(#SVGID_00000144315355248148273980000011811926899235324852_);fill:#7C6EAF;" points="-0.1,-0.8 
		0.1,1059.2 820.1,1060 819.9,-0.8 	"/>
</g>
<g>
	<defs>
		<rect id="SVGID_00000018234834454914108250000016390224174636758148_" x="-8.9" y="-7" width="847.7" height="1067"/>
	</defs>
	<clipPath id="SVGID_00000000185741472997324920000017629527426514174102_">
		<use xlink:href="#SVGID_00000018234834454914108250000016390224174636758148_"  style="overflow:visible;"/>
	</clipPath>
	<g style="clip-path:url(#SVGID_00000000185741472997324920000017629527426514174102_);">
		<g>
			<defs>
				<rect id="SVGID_00000170991048535803392630000018357762103053798551_" x="-8.9" y="-7" width="847.7" height="1067"/>
			</defs>
			<clipPath id="SVGID_00000150073879492934430190000014119306508749724310_">
				<use xlink:href="#SVGID_00000170991048535803392630000018357762103053798551_"  style="overflow:visible;"/>
			</clipPath>
			<path style="clip-path:url(#SVGID_00000150073879492934430190000014119306508749724310_);fill:#E3E0F1;" d="M55.4,30
				c19.9-1.9,398.6,0,438.4,0s295.9-12.1,298.9,9.2c6.6,46.3,6.6,785.1,6.6,862.5c0,55.8-2.7,125.9-6.6,125.9
				c-4,0-660.3,24.9-742.7,6.3c-6.6-89-4-419.6-4-592C46.1,387.7,44.8,82.4,55.4,30"/>
		</g>
	</g>
</g>
<rect x="-8.9" y="-7" class="st3" width="847.7" height="1067"/>
<rect x="-8.9" y="-7" class="st3" width="847.7" height="1067"/>
<rect x="-8.9" y="-7" class="st3" width="847.7" height="1067"/>
<rect x="-8.9" y="-7" class="st3" width="847.7" height="1067"/>
<rect x="-8.9" y="-7" class="st3" width="847.7" height="1067"/>
</svg>
