<?xml version="1.0" encoding="utf-8"?>
<!-- Generator: Adobe Illustrator 21.1.0, SVG Export Plug-In . SVG Version: 6.00 Build 0)  -->
<svg version="1.1" id="Capa_1" xmlns="http://www.w3.org/2000/svg" xmlns:xlink="http://www.w3.org/1999/xlink" x="0px" y="0px"
	 viewBox="0 0 62.707 69.513" style="enable-background:new 0 0 62.707 69.513;" xml:space="preserve">
<style type="text/css">
	.st0{clip-path:url(#SVGID_2_);}
	.st1{filter:url(#Adobe_OpacityMaskFilter);}
	.st2{clip-path:url(#SVGID_4_);}
	.st3{clip-path:url(#SVGID_4_);mask:url(#SVGID_5_);}
	.st4{opacity:0.2;clip-path:url(#SVGID_9_);fill:#1D1D1B;}
	.st5{clip-path:url(#SVGID_4_);fill:none;stroke:#44B9C0;stroke-width:2.547;}
</style>
<g>
	<defs>
		<rect id="SVGID_1_" width="62.707" height="69.513"/>
	</defs>
	<clipPath id="SVGID_2_">
		<use xlink:href="#SVGID_1_"  style="overflow:visible;"/>
	</clipPath>
	<g class="st0">
		<defs>
			<rect id="SVGID_3_" y="0" width="62.707" height="69.513"/>
		</defs>
		<clipPath id="SVGID_4_">
			<use xlink:href="#SVGID_3_"  style="overflow:visible;"/>
		</clipPath>
		<defs>
			<filter id="Adobe_OpacityMaskFilter" filterUnits="userSpaceOnUse" x="12" y="8.16" width="38.4" height="59.04">
				<feColorMatrix  type="matrix" values="1 0 0 0 0  0 1 0 0 0  0 0 1 0 0  0 0 0 1 0"/>
			</filter>
		</defs>
		<mask maskUnits="userSpaceOnUse" x="12" y="8.16" width="38.4" height="59.04" id="SVGID_5_">
			<g class="st1">
				<g>
					<defs>
						<rect id="SVGID_6_" x="0" y="0" width="63.36" height="70.08"/>
					</defs>
					<clipPath id="SVGID_7_" class="st2">
						<use xlink:href="#SVGID_6_"  style="overflow:visible;"/>
					</clipPath>
					<g transform="matrix(1 0 0 1 0 1.455192e-11)" style="clip-path:url(#SVGID_7_);">
						
							<image style="overflow:visible;" width="132" height="146" xlink:href="C1517AB6DCEE3E93.jpg"  transform="matrix(0.48 0 0 0.48 2.040000e-05 2.365112e-04)">
						</image>
					</g>
				</g>
			</g>
		</mask>
		<g class="st3">
			<g>
				<defs>
					<rect id="SVGID_8_" x="12" y="8.16" width="38.4" height="59.04"/>
				</defs>
				<clipPath id="SVGID_9_">
					<use xlink:href="#SVGID_8_"  style="overflow:visible;"/>
				</clipPath>
				<rect x="12" y="8.16" class="st4" width="38.4" height="59.04"/>
			</g>
		</g>
		<path class="st5" d="M27.647,13.663c0,0-5.161-6.76-10.869-3.066c-5.709,3.695-2.022,9.877-2.022,9.877l21.386,41.552
			c0,0,3.818,3.694,8.474,0.944c4.657-2.752,0.918-7.94,0.918-7.94L30.021,25.767"/>
	</g>
</g>
</svg>
