<?xml version="1.0" encoding="utf-8"?>
<!-- Generator: Adobe Illustrator 14.0.0, SVG Export Plug-In . SVG Version: 6.00 Build 43363)  -->
<!DOCTYPE svg PUBLIC "-//W3C//DTD SVG 1.1//EN" "http://www.w3.org/Graphics/SVG/1.1/DTD/svg11.dtd">
<svg version="1.1" id="Layer_1" xmlns="http://www.w3.org/2000/svg" xmlns:xlink="http://www.w3.org/1999/xlink" x="0px" y="0px"
	 width="820px" height="1060px" viewBox="0 0 820 1060" enable-background="new 0 0 820 1060" xml:space="preserve">
<g>
	<defs>
		<rect id="SVGID_1_" x="0" width="820" height="1060"/>
	</defs>
	<clipPath id="SVGID_2_">
		<use xlink:href="#SVGID_1_"  overflow="visible"/>
	</clipPath>
	<rect x="-15.426" y="-14.283" clip-path="url(#SVGID_2_)" fill="#F6921E" width="852.662" height="1088.505"/>
	<rect x="-15.425" y="-14.284" clip-path="url(#SVGID_2_)" fill="none" width="852.662" height="1088.504"/>
	<path clip-path="url(#SVGID_2_)" fill="#FFE5CA" d="M54.314,61.722c20.023-1.929,400.471,0,440.519,0
		c40.047,0,297.282-12.158,300.353,9.248c6.675,46.53,6.675,753.019,6.675,830.812c0,56.034-2.67,126.536-6.675,126.536
		c-4.006,0-663.447,24.971-746.212,6.343C42.3,945.248,44.97,613.083,44.97,439.806C44.97,385.26,43.635,114.435,54.314,61.722"/>
	<rect x="-15.425" y="-14.284" clip-path="url(#SVGID_2_)" fill="none" width="852.662" height="1088.504"/>
	<rect x="-15.425" y="-14.284" clip-path="url(#SVGID_2_)" fill="none" width="852.662" height="1088.504"/>
	<rect x="-15.425" y="-14.284" clip-path="url(#SVGID_2_)" fill="none" width="852.662" height="1088.504"/>
	<g clip-path="url(#SVGID_2_)">
		<defs>
			<rect id="SVGID_3_" x="55.647" y="65.54" width="94.924" height="105.677"/>
		</defs>
		<clipPath id="SVGID_4_">
			<use xlink:href="#SVGID_3_"  overflow="visible"/>
		</clipPath>
	</g>
	<rect x="-15.425" y="-14.284" clip-path="url(#SVGID_2_)" fill="none" width="852.662" height="1088.504"/>
</g>
</svg>
