<?xml version="1.0" encoding="utf-8"?>
<!-- Generator: Adobe Illustrator 25.4.3, SVG Export Plug-In . SVG Version: 6.00 Build 0)  -->
<svg version="1.1" id="Layer_1" xmlns="http://www.w3.org/2000/svg" xmlns:xlink="http://www.w3.org/1999/xlink" x="0px" y="0px"
	 viewBox="0 0 820 1180.8" style="enable-background:new 0 0 820 1180.8;" xml:space="preserve">
<style type="text/css">
	.st0{fill:none;}
	.st1{fill:#F6921E;}
	.st2{clip-path:url(#SVGID_00000101798739389279125570000008744247937335760808_);fill:#FFE5CA;}
</style>
<rect y="14.3" class="st0" width="803.8" height="1102.3"/>
<g>
	<rect x="0" y="0" class="st1" width="820" height="1130.8"/>
	<polygon class="st1" points="0,0 0,52.9 820,76.4 820,0 	"/>
	<polygon class="st1" points="0,1180.8 820,1180.8 820,1091.3 0,1082.2 	"/>
	<g>
		<g>
			<defs>
				<rect id="SVGID_1_" x="0" width="820" height="1180.8"/>
			</defs>
			<clipPath id="SVGID_00000136370269220709194810000003232248022447528125_">
				<use xlink:href="#SVGID_1_"  style="overflow:visible;"/>
			</clipPath>
			<path style="clip-path:url(#SVGID_00000136370269220709194810000003232248022447528125_);fill:#FFE5CA;" d="M53.3,61.7
				c20-1.9,400.5,0,440.5,0c40,0,297.3-12.2,300.4,9.2c6.7,46.5,6.7,753,6.7,830.8c0,56-2.7,223.1-6.7,223.1s-663.4,25-746.2,6.3
				c-6.7-89.4-4-518.2-4-691.5C43.9,385.2,42.6,114.4,53.3,61.7"/>
		</g>
	</g>
</g>
</svg>
