<?xml version="1.0" encoding="utf-8"?>
<!-- Generator: Adobe Illustrator 14.0.0, SVG Export Plug-In . SVG Version: 6.00 Build 43363)  -->
<!DOCTYPE svg PUBLIC "-//W3C//DTD SVG 1.1//EN" "http://www.w3.org/Graphics/SVG/1.1/DTD/svg11.dtd">
<svg version="1.1" id="Layer_1" xmlns="http://www.w3.org/2000/svg" xmlns:xlink="http://www.w3.org/1999/xlink" x="0px" y="0px"
	 width="39.098px" height="39.098px" viewBox="0 0 39.098 39.098" enable-background="new 0 0 39.098 39.098" xml:space="preserve">
<g>
	<path fill="#0071BB" d="M19.549,38.598c10.52,0,19.049-8.529,19.049-19.049C38.598,9.029,30.068,0.5,19.549,0.5
		C9.028,0.5,0.5,9.029,0.5,19.549C0.5,30.069,9.028,38.598,19.549,38.598"/>
	<circle fill="none" stroke="#FFFFFF" cx="19.549" cy="19.549" r="19.049"/>
	<path fill="#FFFFFF" d="M15.393,30.338c-0.175,0-0.349-0.041-0.509-0.123c-0.374-0.19-0.607-0.574-0.607-0.992V9.877
		c0-0.42,0.233-0.804,0.607-0.995c0.372-0.19,0.821-0.156,1.161,0.09l13.394,9.672c0.29,0.21,0.464,0.547,0.464,0.905
		c0,0.359-0.174,0.695-0.464,0.905l-13.394,9.673C15.852,30.267,15.622,30.338,15.393,30.338"/>
	<path fill="#D8D6EB" d="M14.276,19.549v9.674c0,0.419,0.233,0.803,0.607,0.994c0.16,0.082,0.334,0.121,0.509,0.121
		c0.229,0,0.459-0.07,0.652-0.211l13.394-9.673c0.29-0.21,0.464-0.547,0.464-0.905H14.276z"/>
</g>
</svg>
