<?xml version="1.0" encoding="utf-8"?>
<!-- Generator: Adobe Illustrator 21.1.0, SVG Export Plug-In . SVG Version: 6.00 Build 0)  -->
<svg version="1.1" id="Capa_1" xmlns="http://www.w3.org/2000/svg" xmlns:xlink="http://www.w3.org/1999/xlink" x="0px" y="0px"
	 viewBox="0 0 25.641 26.543" style="enable-background:new 0 0 25.641 26.543;" xml:space="preserve">
<style type="text/css">
	.st0{clip-path:url(#SVGID_2_);fill:#E3E0F1;}
	.st1{clip-path:url(#SVGID_2_);fill:none;stroke:#7C6EAF;stroke-width:1.274;}
</style>
<g>
	<defs>
		<rect id="SVGID_1_" width="25.641" height="26.543"/>
	</defs>
	<clipPath id="SVGID_2_">
		<use xlink:href="#SVGID_1_"  style="overflow:visible;"/>
	</clipPath>
	<path class="st0" d="M0.916,1.204c0,0-0.274,6.536-0.279,14.294c-0.005,7.759,0.279,9.279,0.279,9.279s8.685,1.326,9.708,1.105
		c1.023-0.221,14.225-1.105,14.225-1.105s0.137-1.844,0.154-9.194c0.019-8.459-0.154-14.379-0.154-14.379S11.828,0.686,10.425,0.639
		C9.022,0.593,0.916,1.204,0.916,1.204"/>
	<path class="st1" d="M0.916,1.204c0,0-0.274,6.536-0.279,14.294c-0.005,7.759,0.279,9.279,0.279,9.279s8.685,1.326,9.708,1.105
		c1.023-0.221,14.225-1.105,14.225-1.105s0.137-1.844,0.154-9.194c0.019-8.459-0.154-14.379-0.154-14.379S11.828,0.686,10.425,0.639
		C9.022,0.593,0.916,1.204,0.916,1.204z"/>
</g>
</svg>
