<?xml version="1.0" encoding="utf-8"?>
<!-- Generator: Adobe Illustrator 14.0.0, SVG Export Plug-In . SVG Version: 6.00 Build 43363)  -->
<!DOCTYPE svg PUBLIC "-//W3C//DTD SVG 1.1//EN" "http://www.w3.org/Graphics/SVG/1.1/DTD/svg11.dtd">
<svg version="1.1" id="Layer_1" xmlns="http://www.w3.org/2000/svg" xmlns:xlink="http://www.w3.org/1999/xlink" x="0px" y="0px"
	 width="666.709px" height="727.942px" viewBox="0 0 666.709 727.942" enable-background="new 0 0 666.709 727.942"
	 xml:space="preserve">
<path fill="#E2EDC2" d="M665.77,0h-16.754v11.755c2.068,0.943,3.52,3.089,3.52,5.592c0,3.375-2.627,6.109-5.871,6.109
	c-3.238,0-5.867-2.735-5.867-6.109c0-2.502,1.451-4.648,3.52-5.592V0h-14.084v11.755c2.072,0.943,3.521,3.089,3.521,5.592
	c0,3.375-2.627,6.109-5.869,6.109c-3.24,0-5.867-2.735-5.867-6.109c0-2.502,1.449-4.648,3.52-5.592V0h-14.084v11.755
	c2.072,0.943,3.521,3.089,3.521,5.592c0,3.375-2.627,6.109-5.869,6.109s-5.867-2.735-5.867-6.109c0-2.502,1.449-4.648,3.52-5.592V0
	h-14.086v11.755c2.07,0.943,3.523,3.089,3.523,5.592c0,3.375-2.629,6.109-5.871,6.109s-5.867-2.735-5.867-6.109
	c0-2.502,1.447-4.648,3.52-5.592V0h-14.084v11.755c2.07,0.943,3.52,3.089,3.52,5.592c0,3.375-2.627,6.109-5.867,6.109
	c-3.242,0-5.869-2.735-5.869-6.109c0-2.502,1.449-4.648,3.521-5.592V0h-14.084v11.755c2.068,0.943,3.52,3.089,3.52,5.592
	c0,3.375-2.629,6.109-5.867,6.109c-3.244,0-5.871-2.735-5.871-6.109c0-2.502,1.451-4.648,3.523-5.592V0h-14.086v11.755
	c2.07,0.943,3.52,3.089,3.52,5.592c0,3.375-2.627,6.109-5.867,6.109c-3.242,0-5.869-2.735-5.869-6.109
	c0-2.502,1.449-4.648,3.521-5.592V0h-14.086v11.755c2.068,0.943,3.521,3.089,3.521,5.592c0,3.375-2.627,6.109-5.869,6.109
	c-3.24,0-5.869-2.735-5.869-6.109c0-2.502,1.451-4.648,3.521-5.592V0H498.77v11.755c2.07,0.943,3.52,3.089,3.52,5.592
	c0,3.375-2.627,6.109-5.867,6.109s-5.869-2.735-5.869-6.109c0-2.502,1.451-4.648,3.521-5.592V0H479.99v11.755
	c2.07,0.943,3.52,3.089,3.52,5.592c0,3.375-2.627,6.109-5.867,6.109c-3.242,0-5.871-2.735-5.871-6.109
	c0-2.502,1.451-4.648,3.523-5.592V0h-14.086v11.755c2.07,0.943,3.521,3.089,3.521,5.592c0,3.375-2.629,6.109-5.867,6.109
	c-3.244,0-5.871-2.735-5.871-6.109c0-2.502,1.449-4.648,3.52-5.592V0h-14.084v11.755c2.072,0.943,3.521,3.089,3.521,5.592
	c0,3.375-2.627,6.109-5.869,6.109c-3.24,0-5.867-2.735-5.867-6.109c0-2.502,1.449-4.648,3.52-5.592V0h-14.086v11.755
	c2.074,0.943,3.523,3.089,3.523,5.592c0,3.375-2.627,6.109-5.869,6.109c-3.24,0-5.869-2.735-5.869-6.109
	c0-2.502,1.451-4.648,3.521-5.592V0h-10.094v11.755c2.07,0.943,3.52,3.089,3.52,5.592c0,3.375-2.627,6.109-5.869,6.109
	c-0.703,0-1.369-0.15-1.994-0.386c-0.625,0.236-1.293,0.386-1.996,0.386c-3.242,0-5.869-2.735-5.869-6.109
	c0-2.502,1.451-4.648,3.521-5.592V0h-10.094v11.755c2.068,0.943,3.52,3.089,3.52,5.592c0,3.375-2.627,6.109-5.867,6.109
	s-5.871-2.735-5.871-6.109c0-2.502,1.453-4.648,3.523-5.592V0h-14.086v11.755c2.07,0.943,3.52,3.089,3.52,5.592
	c0,3.375-2.627,6.109-5.867,6.109s-5.869-2.735-5.869-6.109c0-2.502,1.449-4.648,3.521-5.592V0h-14.084v11.755
	c2.07,0.943,3.52,3.089,3.52,5.592c0,3.375-2.627,6.109-5.867,6.109c-3.242,0-5.869-2.735-5.869-6.109
	c0-2.502,1.449-4.648,3.521-5.592V0h-14.088v11.755c2.072,0.943,3.523,3.089,3.523,5.592c0,3.375-2.629,6.109-5.871,6.109
	c-3.24,0-5.867-2.735-5.867-6.109c0-2.502,1.451-4.648,3.52-5.592V0h-14.084v11.755c2.072,0.943,3.521,3.089,3.521,5.592
	c0,3.375-2.629,6.109-5.869,6.109s-5.867-2.735-5.867-6.109c0-2.502,1.449-4.648,3.52-5.592V0h-14.084v11.755
	c2.068,0.943,3.521,3.089,3.521,5.592c0,3.375-2.631,6.109-5.869,6.109c-3.244,0-5.869-2.735-5.869-6.109
	c0-2.502,1.451-4.648,3.521-5.592V0h-14.086v11.755c2.07,0.943,3.52,3.089,3.52,5.592c0,3.375-2.627,6.109-5.867,6.109
	c-3.242,0-5.869-2.735-5.869-6.109c0-2.502,1.451-4.648,3.521-5.592V0h-14.086v11.755c2.072,0.943,3.521,3.089,3.521,5.592
	c0,3.375-2.627,6.109-5.869,6.109c-3.24,0-5.869-2.735-5.869-6.109c0-2.502,1.451-4.648,3.521-5.592V0h-14.086v11.755
	c2.072,0.943,3.523,3.089,3.523,5.592c0,3.375-2.629,6.109-5.871,6.109c-3.24,0-5.867-2.735-5.867-6.109
	c0-2.502,1.449-4.648,3.52-5.592V0h-14.084v11.755c2.072,0.943,3.521,3.089,3.521,5.592c0,3.375-2.627,6.109-5.869,6.109
	s-5.871-2.735-5.871-6.109c0-2.502,1.453-4.648,3.523-5.592V0h-14.086v11.755c2.07,0.943,3.523,3.089,3.523,5.592
	c0,3.375-2.627,6.109-5.869,6.109c-3.244,0-5.871-2.735-5.871-6.109c0-2.502,1.453-4.648,3.523-5.592V0h-14.086v11.755
	c2.07,0.943,3.52,3.089,3.52,5.592c0,3.375-2.627,6.109-5.867,6.109c-3.242,0-5.869-2.735-5.869-6.109
	c0-2.502,1.449-4.648,3.521-5.592V0h-14.084v11.755c2.07,0.943,3.52,3.089,3.52,5.592c0,3.375-2.627,6.109-5.867,6.109
	c-3.242,0-5.871-2.735-5.871-6.109c0-2.502,1.451-4.648,3.523-5.592V0H145.93v11.755c2.07,0.943,3.523,3.089,3.523,5.592
	c0,3.375-2.629,6.109-5.871,6.109c-3.24,0-5.867-2.735-5.867-6.109c0-2.502,1.449-4.648,3.52-5.592V0H127.15v11.755
	c2.07,0.943,3.52,3.089,3.52,5.592c0,3.375-2.627,6.109-5.867,6.109s-5.871-2.735-5.871-6.109c0-2.502,1.451-4.648,3.523-5.592V0
	h-14.086v11.755c2.07,0.943,3.521,3.089,3.521,5.592c0,3.375-2.629,6.109-5.869,6.109c-3.242,0-5.869-2.735-5.869-6.109
	c0-2.502,1.449-4.648,3.523-5.592V0H89.59v11.755c2.07,0.943,3.52,3.089,3.52,5.592c0,3.375-2.627,6.109-5.867,6.109
	c-3.242,0-5.869-2.735-5.869-6.109c0-2.502,1.449-4.648,3.521-5.592V0H70.811v11.755c2.068,0.943,3.52,3.089,3.52,5.592
	c0,3.375-2.627,6.109-5.871,6.109c-3.238,0-5.867-2.735-5.867-6.109c0-2.502,1.451-4.648,3.521-5.592V0H52.027v11.755
	c2.072,0.943,3.523,3.089,3.523,5.592c0,3.375-2.629,6.109-5.871,6.109c-3.24,0-5.867-2.735-5.867-6.109
	c0-2.502,1.449-4.648,3.52-5.592V0H33.248v11.755c2.072,0.943,3.521,3.089,3.521,5.592c0,3.375-2.629,6.109-5.869,6.109
	s-5.867-2.735-5.867-6.109c0-2.502,1.449-4.648,3.52-5.592V0H14.467v11.755c2.07,0.943,3.523,3.089,3.523,5.592
	c0,3.375-2.631,6.109-5.871,6.109c-3.242,0-5.869-2.735-5.869-6.109c0-2.502,1.453-4.648,3.521-5.592V0H0v727.942h666.709L665.77,0z
	"/>
</svg>
