<?xml version="1.0" encoding="utf-8"?>
<!-- Generator: Adobe Illustrator 26.0.1, SVG Export Plug-In . SVG Version: 6.00 Build 0)  -->
<svg version="1.1" id="Capa_1" xmlns="http://www.w3.org/2000/svg" xmlns:xlink="http://www.w3.org/1999/xlink" x="0px" y="0px"
	 viewBox="0 0 53.1 49.6" style="enable-background:new 0 0 53.1 49.6;" xml:space="preserve">
<style type="text/css">
	.st0{clip-path:url(#SVGID_00000101081956548665620630000001046498293236968083_);fill:#4F4F4E;}
	.st1{clip-path:url(#SVGID_00000046333623354975445050000013072920130200164485_);fill:#4F4F4E;}
	
		.st2{clip-path:url(#SVGID_00000108999355076109155610000006571230032413692597_);fill:none;stroke:#FFCB00;stroke-width:3.821;stroke-linecap:round;}
	.st3{clip-path:url(#SVGID_00000107555279320144670880000004117166463059670447_);fill:#4F4F4E;}
	.st4{clip-path:url(#SVGID_00000172412568627749734640000003720149537406718639_);fill:#4F4F4E;}
	
		.st5{clip-path:url(#SVGID_00000061435082057745135420000014187626175339355578_);fill:none;stroke:#FFCB00;stroke-width:3.821;stroke-linecap:round;}
	.st6{clip-path:url(#SVGID_00000013897124774641821410000011258723773013950881_);fill:#4F4F4E;}
	.st7{clip-path:url(#SVGID_00000110429593100361181230000009779549525733373577_);fill:#4F4F4E;}
	
		.st8{clip-path:url(#SVGID_00000160893265964287222570000006733392714452447141_);fill:none;stroke:#FFCB00;stroke-width:3.821;stroke-linecap:round;}
</style>
<g>
	<g>
		<defs>
			<rect id="SVGID_1_" y="0" width="53.1" height="9.2"/>
		</defs>
		<clipPath id="SVGID_00000011737472189220088920000016822545371594995341_">
			<use xlink:href="#SVGID_1_"  style="overflow:visible;"/>
		</clipPath>
		<path style="clip-path:url(#SVGID_00000011737472189220088920000016822545371594995341_);fill:#4F4F4E;" d="M4.6,9.2
			c2.5,0,4.6-2.1,4.6-4.6S7.1,0,4.6,0S0,2.1,0,4.6S2.1,9.2,4.6,9.2"/>
	</g>
	<g>
		<defs>
			<rect id="SVGID_00000057828685579616745250000010672340925976895926_" y="0" width="53.1" height="9.2"/>
		</defs>
		<clipPath id="SVGID_00000026158497758286150710000013453959140956609183_">
			<use xlink:href="#SVGID_00000057828685579616745250000010672340925976895926_"  style="overflow:visible;"/>
		</clipPath>
		<path style="clip-path:url(#SVGID_00000026158497758286150710000013453959140956609183_);fill:#4F4F4E;" d="M48.5,9.2
			c2.5,0,4.6-2.1,4.6-4.6S51.1,0,48.5,0s-4.6,2.1-4.6,4.6S46,9.2,48.5,9.2"/>
	</g>
	<g>
		<defs>
			<rect id="SVGID_00000117640718875303287450000009617777146642167975_" y="0" width="53.1" height="9.2"/>
		</defs>
		<clipPath id="SVGID_00000085929134643192985950000002810348823053720755_">
			<use xlink:href="#SVGID_00000117640718875303287450000009617777146642167975_"  style="overflow:visible;"/>
		</clipPath>
		
			<line style="clip-path:url(#SVGID_00000085929134643192985950000002810348823053720755_);fill:none;stroke:#FFCB00;stroke-width:3.821;stroke-linecap:round;" x1="6.5" y1="4.6" x2="47.6" y2="4.6"/>
	</g>
</g>
<g>
	<g>
		<defs>
			<rect id="SVGID_00000053537451469955428340000015462596033298467968_" y="19.7" width="53.1" height="9.2"/>
		</defs>
		<clipPath id="SVGID_00000047745339812462040680000005543713570620669313_">
			<use xlink:href="#SVGID_00000053537451469955428340000015462596033298467968_"  style="overflow:visible;"/>
		</clipPath>
		<path style="clip-path:url(#SVGID_00000047745339812462040680000005543713570620669313_);fill:#4F4F4E;" d="M4.6,28.8
			c2.5,0,4.6-2.1,4.6-4.6s-2.1-4.6-4.6-4.6S0,21.7,0,24.2S2.1,28.8,4.6,28.8"/>
	</g>
	<g>
		<defs>
			<rect id="SVGID_00000099625851220068354810000017578143874985484211_" y="19.7" width="53.1" height="9.2"/>
		</defs>
		<clipPath id="SVGID_00000110460835975087436640000015516878292494538157_">
			<use xlink:href="#SVGID_00000099625851220068354810000017578143874985484211_"  style="overflow:visible;"/>
		</clipPath>
		<path style="clip-path:url(#SVGID_00000110460835975087436640000015516878292494538157_);fill:#4F4F4E;" d="M48.5,28.8
			c2.5,0,4.6-2.1,4.6-4.6s-2.1-4.6-4.6-4.6s-4.6,2.1-4.6,4.6S46,28.8,48.5,28.8"/>
	</g>
	<g>
		<defs>
			<rect id="SVGID_00000078011881691487089350000009203680491381087412_" y="19.7" width="53.1" height="9.2"/>
		</defs>
		<clipPath id="SVGID_00000057107827034497018390000013597336755400223908_">
			<use xlink:href="#SVGID_00000078011881691487089350000009203680491381087412_"  style="overflow:visible;"/>
		</clipPath>
		
			<line style="clip-path:url(#SVGID_00000057107827034497018390000013597336755400223908_);fill:none;stroke:#FFCB00;stroke-width:3.821;stroke-linecap:round;" x1="6.5" y1="24.2" x2="47.6" y2="24.2"/>
	</g>
</g>
<g>
	<g>
		<defs>
			<rect id="SVGID_00000045584833794400818350000015209092535011985574_" y="39.3" width="53.1" height="9.2"/>
		</defs>
		<clipPath id="SVGID_00000017476445623208703330000013004250198062335161_">
			<use xlink:href="#SVGID_00000045584833794400818350000015209092535011985574_"  style="overflow:visible;"/>
		</clipPath>
		<path style="clip-path:url(#SVGID_00000017476445623208703330000013004250198062335161_);fill:#4F4F4E;" d="M4.6,48.5
			c2.5,0,4.6-2.1,4.6-4.6s-2.1-4.6-4.6-4.6S0,41.4,0,43.9S2.1,48.5,4.6,48.5"/>
	</g>
	<g>
		<defs>
			<rect id="SVGID_00000083082179230978916690000006375422685273141897_" y="39.3" width="53.1" height="9.2"/>
		</defs>
		<clipPath id="SVGID_00000179626532554915216860000015004482728491264406_">
			<use xlink:href="#SVGID_00000083082179230978916690000006375422685273141897_"  style="overflow:visible;"/>
		</clipPath>
		<path style="clip-path:url(#SVGID_00000179626532554915216860000015004482728491264406_);fill:#4F4F4E;" d="M48.5,48.5
			c2.5,0,4.6-2.1,4.6-4.6s-2.1-4.6-4.6-4.6s-4.6,2.1-4.6,4.6S46,48.5,48.5,48.5"/>
	</g>
	<g>
		<defs>
			<rect id="SVGID_00000038406844826096215050000007778684739811430289_" y="39.3" width="53.1" height="9.2"/>
		</defs>
		<clipPath id="SVGID_00000100345912435089564130000010347142652458625692_">
			<use xlink:href="#SVGID_00000038406844826096215050000007778684739811430289_"  style="overflow:visible;"/>
		</clipPath>
		
			<line style="clip-path:url(#SVGID_00000100345912435089564130000010347142652458625692_);fill:none;stroke:#FFCB00;stroke-width:3.821;stroke-linecap:round;" x1="6.5" y1="43.9" x2="47.6" y2="43.9"/>
	</g>
</g>
</svg>
