<svg id="Capa_1" data-name="Capa 1" xmlns="http://www.w3.org/2000/svg" xmlns:xlink="http://www.w3.org/1999/xlink" viewBox="0 0 259.61 201.71"><defs><style>.cls-1{fill:none;}.cls-2{clip-path:url(#clip-path);}.cls-3{fill:#85cee4;}.cls-4{fill:#fff;}.cls-5{fill:#1d1d1b;}</style><clipPath id="clip-path"><rect class="cls-1" width="259.61" height="201.71"/></clipPath></defs><g class="cls-2"><path class="cls-3" d="M6.2,31.81c-5.08,5.48,12.6,166.78,17.61,169.9,97-14.07,209.46-11.28,232.67-18.44C263.1,168.92,259,23.15,246,12.79,232.69,6.13,11.28,26.34,6.2,31.81"/><path class="cls-4" d="M1.66,10c-5.5,5.64,4,181.34,9,185,100.17-9.68,215.31-.22,239.49-6.64,7.54-15.17,11.1-173.26-1.64-185.22C235.19-4.87,7.15,4.34,1.66,10"/></g><path class="cls-5" d="M123.63,37.92l-3.4.06,0,3.16,3.8-.07v1l-4.92.09L119,33.34l4.73-.08,0,1-3.6.06,0,2.77,3.41-.06Z"/><path class="cls-5" d="M130.57,32.67l.14,7.61c0,.56,0,1.19.08,1.62l-1,0-.07-1.09h0a2.32,2.32,0,0,1-2.12,1.27c-1.52,0-2.71-1.24-2.75-3.15-.05-2.09,1.23-3.4,2.76-3.43a2.11,2.11,0,0,1,1.92.93h0l-.07-3.76Zm-1,5.52a2.63,2.63,0,0,0-.06-.48,1.69,1.69,0,0,0-1.68-1.29c-1.18,0-1.87,1.07-1.84,2.46s.66,2.31,1.9,2.29a1.71,1.71,0,0,0,1.65-1.39,2,2,0,0,0,.05-.5Z"/><path class="cls-5" d="M133.64,33.79a.71.71,0,0,1-1.42,0,.69.69,0,0,1,.7-.73A.68.68,0,0,1,133.64,33.79Zm-1.14,8.08-.11-6.29,1.15,0,.11,6.29Z"/><path class="cls-5" d="M136.68,33.7l0,1.81,1.64,0v.87l-1.64,0,.06,3.39c0,.78.24,1.22.88,1.21a2.8,2.8,0,0,0,.66-.09l.07.85a2.72,2.72,0,0,1-1,.18,1.59,1.59,0,0,1-1.24-.46,2.33,2.33,0,0,1-.48-1.63l-.06-3.43h-1l0-.87h1l0-1.51Z"/><path class="cls-5" d="M145.16,38.45a3.08,3.08,0,0,1-3.08,3.4A3,3,0,0,1,139,38.66a3.07,3.07,0,0,1,3.06-3.39A3,3,0,0,1,145.16,38.45Zm-5,.15c0,1.38.83,2.41,2,2.39S144,39.93,144,38.51c0-1.06-.58-2.41-1.93-2.38S140.15,37.41,140.17,38.6Z"/><path class="cls-5" d="M146.5,37.3c0-.74,0-1.38-.08-2l1,0,.06,1.23h.05a1.9,1.9,0,0,1,1.72-1.41,1,1,0,0,1,.32,0l0,1.08a1.51,1.51,0,0,0-.39,0,1.62,1.62,0,0,0-1.51,1.5,4.24,4.24,0,0,0,0,.53l.06,3.36-1.13,0Z"/><path class="cls-5" d="M31.64,63.18a2.77,2.77,0,0,0,1.51-.38,1.29,1.29,0,0,0,.52-1.16,1.55,1.55,0,0,0-.19-.76,1.76,1.76,0,0,0-.47-.51,3.26,3.26,0,0,0-.67-.35l-.78-.3a8.36,8.36,0,0,1-.93-.4,3.5,3.5,0,0,1-.71-.47,2.1,2.1,0,0,1-.45-.62,2.2,2.2,0,0,1-.16-.81A1.91,1.91,0,0,1,30,55.79a3.13,3.13,0,0,1,2-.59,4.87,4.87,0,0,1,.66,0l.61.11a4.35,4.35,0,0,1,.51.17,2.13,2.13,0,0,1,.4.2l-.28.69A2.76,2.76,0,0,0,33,56a3.72,3.72,0,0,0-1.08-.13,3.93,3.93,0,0,0-.72.09,1.66,1.66,0,0,0-.57.26,1.24,1.24,0,0,0-.37.45,1.29,1.29,0,0,0-.12.64,1.26,1.26,0,0,0,.15.64,1.36,1.36,0,0,0,.41.45,3.22,3.22,0,0,0,.61.34l.77.31.93.39a3.23,3.23,0,0,1,.77.47,2,2,0,0,1,.53.66,2.32,2.32,0,0,1,.21,1,1.94,1.94,0,0,1-.76,1.7,3.58,3.58,0,0,1-2.12.61,5.83,5.83,0,0,1-.87,0,4.38,4.38,0,0,1-.72-.14,4.15,4.15,0,0,1-.53-.17l-.33-.17.25-.71a3.15,3.15,0,0,0,.32.16,3.4,3.4,0,0,0,.49.18,4.41,4.41,0,0,0,.62.14A4.67,4.67,0,0,0,31.64,63.18Z"/><path class="cls-5" d="M35.74,60.53A3.92,3.92,0,0,1,36,59.1a3,3,0,0,1,.59-1,2.55,2.55,0,0,1,.85-.62,2.67,2.67,0,0,1,1-.21,2.31,2.31,0,0,1,1.83.71,3.34,3.34,0,0,1,.72,2.28v.19c0,.07,0,.13,0,.18l-4.35.08a2.74,2.74,0,0,0,.59,1.74,2.09,2.09,0,0,0,1.69.58,3.35,3.35,0,0,0,1-.13,4.82,4.82,0,0,0,.53-.22l.16.67a2.76,2.76,0,0,1-.63.24,4.13,4.13,0,0,1-1.08.15,3.72,3.72,0,0,1-1.4-.21,2.61,2.61,0,0,1-.95-.66,2.53,2.53,0,0,1-.56-1A4.37,4.37,0,0,1,35.74,60.53ZM40.13,60a2.54,2.54,0,0,0-.48-1.51,1.5,1.5,0,0,0-1.23-.52,1.8,1.8,0,0,0-.75.18,2,2,0,0,0-.57.47,2.13,2.13,0,0,0-.37.66,2.57,2.57,0,0,0-.15.78Z"/><path class="cls-5" d="M45.05,60.36a3.86,3.86,0,0,1,.21-1.42,3,3,0,0,1,.59-1,2.55,2.55,0,0,1,.85-.62,2.49,2.49,0,0,1,1-.21,2.31,2.31,0,0,1,1.83.71,3.34,3.34,0,0,1,.72,2.28v.19c0,.06,0,.12,0,.18l-4.35.08a2.74,2.74,0,0,0,.59,1.74,2.12,2.12,0,0,0,1.69.58,3.3,3.3,0,0,0,1-.14,3.6,3.6,0,0,0,.53-.21l.16.67a3.35,3.35,0,0,1-.63.24,4.13,4.13,0,0,1-1.08.15,3.52,3.52,0,0,1-1.4-.22,2.48,2.48,0,0,1-1-.65,2.6,2.6,0,0,1-.56-1A4.38,4.38,0,0,1,45.05,60.36Zm4.39-.57a2.5,2.5,0,0,0-.48-1.5,1.5,1.5,0,0,0-1.23-.52A1.8,1.8,0,0,0,47,58a2,2,0,0,0-.57.46,2.13,2.13,0,0,0-.37.66,2.58,2.58,0,0,0-.15.79Z"/><path class="cls-5" d="M51.85,57.36l.93-.23A7.15,7.15,0,0,1,54.22,57a3,3,0,0,1,1.18.18,1.79,1.79,0,0,1,.77.57,2.5,2.5,0,0,1,.42.9,5.85,5.85,0,0,1,.14,1.16l.06,3.47H56L56,60.06A5.61,5.61,0,0,0,55.84,59a1.86,1.86,0,0,0-.31-.74,1.14,1.14,0,0,0-.56-.4,2.43,2.43,0,0,0-.86-.11,6.27,6.27,0,0,0-1,.07,3.8,3.8,0,0,0-.52.12l.09,5.45H52Z"/><path class="cls-5" d="M61.32,63.32a3.17,3.17,0,0,1-1.27-.21,2.25,2.25,0,0,1-.93-.64,2.89,2.89,0,0,1-.58-1,4.49,4.49,0,0,1-.21-1.31,4.35,4.35,0,0,1,.17-1.34,3,3,0,0,1,.56-1,2.46,2.46,0,0,1,.88-.68,2.85,2.85,0,0,1,1.19-.26,5.61,5.61,0,0,1,.94.07,2.53,2.53,0,0,1,.68.2l-.19.68a2.14,2.14,0,0,0-.54-.18,3.1,3.1,0,0,0-.81-.06,1.87,1.87,0,0,0-1.55.69,2.9,2.9,0,0,0-.5,1.9,3.92,3.92,0,0,0,.13,1,2.05,2.05,0,0,0,.41.79,1.9,1.9,0,0,0,.7.5,2.55,2.55,0,0,0,1,.17,2.87,2.87,0,0,0,.85-.13,3.19,3.19,0,0,0,.49-.21l.18.67a3,3,0,0,1-.67.25A4.36,4.36,0,0,1,61.32,63.32Z"/><path class="cls-5" d="M66.14,56.75a2.88,2.88,0,0,1,1,.16,1.77,1.77,0,0,1,.7.47,2,2,0,0,1,.4.72,3.28,3.28,0,0,1,.13.91l.07,3.91-.34.08-.53.1a5.86,5.86,0,0,1-.66.09,6.28,6.28,0,0,1-.75,0,3.31,3.31,0,0,1-.91-.09,2,2,0,0,1-.73-.33,1.67,1.67,0,0,1-.49-.59,2.13,2.13,0,0,1-.19-.89,2,2,0,0,1,.18-.87,1.6,1.6,0,0,1,.53-.6,2.46,2.46,0,0,1,.82-.36,4.86,4.86,0,0,1,1-.12h.36l.36,0,.3.06a.43.43,0,0,1,.17,0v-.39q0-.32-.06-.63a1.55,1.55,0,0,0-.22-.55,1.15,1.15,0,0,0-.46-.38,1.63,1.63,0,0,0-.78-.14,4.53,4.53,0,0,0-1,.11l-.49.17-.12-.68a2.83,2.83,0,0,1,.63-.19A4.82,4.82,0,0,1,66.14,56.75Zm.18,5.79c.3,0,.57,0,.79,0a3.74,3.74,0,0,0,.58-.09l0-2.18a2.18,2.18,0,0,0-.43-.12,3.46,3.46,0,0,0-.79-.05,4.28,4.28,0,0,0-.6.05,1.74,1.74,0,0,0-.57.19,1.24,1.24,0,0,0-.43.39,1,1,0,0,0-.15.64,1.28,1.28,0,0,0,.12.58.94.94,0,0,0,.33.38,1.47,1.47,0,0,0,.51.2A3.4,3.4,0,0,0,66.32,62.54Z"/><path class="cls-5" d="M72.43,56.67a3.44,3.44,0,0,1,.73,0,1.79,1.79,0,0,1,.47.11l-.14.67a1.89,1.89,0,0,0-.39-.09,5.33,5.33,0,0,0-1.59,0,2.64,2.64,0,0,0-.4.13l.1,5.43-.78,0-.1-5.92a5.83,5.83,0,0,1,.82-.28A5.13,5.13,0,0,1,72.43,56.67Z"/><path class="cls-5" d="M78.81,62.16a.83.83,0,0,1-.21.14,2.3,2.3,0,0,1-.35.17,2.72,2.72,0,0,1-.48.15,2.77,2.77,0,0,1-.6.06,3.11,3.11,0,0,1-1-.15,2.21,2.21,0,0,1-.89-.51,2.57,2.57,0,0,1-.62-.92,3.74,3.74,0,0,1-.25-1.38,3.52,3.52,0,0,1,.18-1.23,3,3,0,0,1,.56-1,2.58,2.58,0,0,1,.92-.66,3.12,3.12,0,0,1,1.22-.26,6.75,6.75,0,0,1,1.39.09,8.38,8.38,0,0,1,.86.21l.1,5.66a2.4,2.4,0,0,1-.69,2,3.27,3.27,0,0,1-2.16.63,5.2,5.2,0,0,1-1.08-.07,5.92,5.92,0,0,1-.84-.19L75,64.2a4.18,4.18,0,0,0,.79.21,4.86,4.86,0,0,0,1,.08A2.43,2.43,0,0,0,78.35,64a1.84,1.84,0,0,0,.47-1.47Zm-.09-4.73c-.14,0-.31-.07-.53-.1a5.8,5.8,0,0,0-.92,0,2.29,2.29,0,0,0-.9.19,2,2,0,0,0-.65.5,2.19,2.19,0,0,0-.41.77,3.3,3.3,0,0,0-.13,1,2.88,2.88,0,0,0,.19,1,2.16,2.16,0,0,0,.45.71,1.59,1.59,0,0,0,.63.39,1.92,1.92,0,0,0,.71.11,2.69,2.69,0,0,0,1-.17,2.19,2.19,0,0,0,.67-.37Z"/><path class="cls-5" d="M83.35,56.45a2.92,2.92,0,0,1,1,.16,1.84,1.84,0,0,1,.7.47,1.8,1.8,0,0,1,.39.72,3.27,3.27,0,0,1,.14.91l.07,3.91-.35.08-.53.1a5.56,5.56,0,0,1-.66.09,6.06,6.06,0,0,1-.75,0,3.31,3.31,0,0,1-.91-.09,2.07,2.07,0,0,1-.72-.33,1.57,1.57,0,0,1-.49-.59,2,2,0,0,1-.19-.89,1.83,1.83,0,0,1,.17-.87,1.69,1.69,0,0,1,.53-.6,2.51,2.51,0,0,1,.83-.36,4.72,4.72,0,0,1,1-.12H84l.36,0,.3.06a.44.44,0,0,1,.18.05v-.39a3.36,3.36,0,0,0-.06-.63,1.39,1.39,0,0,0-.22-.55,1.09,1.09,0,0,0-.46-.38,1.63,1.63,0,0,0-.78-.14,4.5,4.5,0,0,0-1,.11l-.49.17-.12-.68a2.56,2.56,0,0,1,.62-.19A5,5,0,0,1,83.35,56.45Zm.17,5.78a6.37,6.37,0,0,0,.8,0,3.74,3.74,0,0,0,.58-.09l0-2.18a2.26,2.26,0,0,0-.42-.12,3.51,3.51,0,0,0-.79,0,4,4,0,0,0-.6,0,1.88,1.88,0,0,0-.58.19,1.31,1.31,0,0,0-.42.39,1.1,1.1,0,0,0-.16.64,1.27,1.27,0,0,0,.13.58.81.81,0,0,0,.33.38,1.5,1.5,0,0,0,.5.2A2.81,2.81,0,0,0,83.52,62.23Z"/><path class="cls-5" d="M95.35,62.4a7.13,7.13,0,0,1-2.25.38,3.53,3.53,0,0,1-1.25-.2,2.67,2.67,0,0,1-1-.63,2.82,2.82,0,0,1-.64-1A3.73,3.73,0,0,1,90,59.59a4.46,4.46,0,0,1,.16-1.3,3.09,3.09,0,0,1,.53-1,2.66,2.66,0,0,1,.87-.69,3,3,0,0,1,1.19-.26,3,3,0,0,1,1.73.48l-.06-3.34.78-.16Zm-.87-4.87-.27-.17a2.69,2.69,0,0,0-.38-.18l-.47-.13a3.08,3.08,0,0,0-.53,0,2,2,0,0,0-1,.22,1.85,1.85,0,0,0-.62.56,2.46,2.46,0,0,0-.33.81,3.89,3.89,0,0,0-.09,1,2.65,2.65,0,0,0,.64,1.86,2.13,2.13,0,0,0,1.64.63A6.78,6.78,0,0,0,94,62a2.66,2.66,0,0,0,.54-.13Z"/><path class="cls-5" d="M97,59.46A3.92,3.92,0,0,1,97.17,58a3.15,3.15,0,0,1,.59-1,2.33,2.33,0,0,1,.86-.62,2.64,2.64,0,0,1,1-.22,2.34,2.34,0,0,1,1.83.71,3.34,3.34,0,0,1,.72,2.28,1.15,1.15,0,0,1,0,.19,1,1,0,0,1,0,.18l-4.36.08a2.74,2.74,0,0,0,.6,1.74,2.09,2.09,0,0,0,1.69.58,3.27,3.27,0,0,0,1-.13,4.38,4.38,0,0,0,.54-.22l.16.67a3,3,0,0,1-.63.24,3.52,3.52,0,0,1-1.08.15,3.69,3.69,0,0,1-1.4-.21,2.46,2.46,0,0,1-1-.66,2.69,2.69,0,0,1-.56-1A4.85,4.85,0,0,1,97,59.46Zm4.4-.57a2.47,2.47,0,0,0-.49-1.51,1.47,1.47,0,0,0-1.23-.51,1.54,1.54,0,0,0-.75.18,1.89,1.89,0,0,0-.56.46,2.15,2.15,0,0,0-.38.66,2.9,2.9,0,0,0-.14.78Z"/><path class="cls-5" d="M110.84,62a2.6,2.6,0,0,1-.64.34,2.82,2.82,0,0,1-1.06.2,3,3,0,0,1-1.2-.22,2.53,2.53,0,0,1-.89-.65,2.86,2.86,0,0,1-.57-1,4.48,4.48,0,0,1-.21-1.3,3.85,3.85,0,0,1,.2-1.36,2.79,2.79,0,0,1,.61-1,2.54,2.54,0,0,1,1-.66,3.25,3.25,0,0,1,1.23-.25,7.5,7.5,0,0,1,1.37.09q.54.11.9.21l.14,8.21h-.78Zm-.08-5.08a3.13,3.13,0,0,0-.54-.11,7.93,7.93,0,0,0-.93,0,2.1,2.1,0,0,0-1.61.69,2.65,2.65,0,0,0-.58,1.88,4.38,4.38,0,0,0,.13,1,2.09,2.09,0,0,0,.36.8,1.75,1.75,0,0,0,.64.53,2.3,2.3,0,0,0,1,.18,2.84,2.84,0,0,0,.52-.07,2.89,2.89,0,0,0,.47-.14,2.12,2.12,0,0,0,.37-.19,2.51,2.51,0,0,0,.27-.18Z"/><path class="cls-5" d="M118.39,62q-.35.11-.93.24a8,8,0,0,1-1.44.14,2.86,2.86,0,0,1-1.16-.18,1.92,1.92,0,0,1-.77-.56,2.35,2.35,0,0,1-.43-.9,5.1,5.1,0,0,1-.15-1.16l-.06-3.48h.78l.06,3.23a6.48,6.48,0,0,0,.11,1.11,1.76,1.76,0,0,0,.33.73,1.24,1.24,0,0,0,.56.4,2.35,2.35,0,0,0,.84.11,5.3,5.3,0,0,0,1-.08,2.58,2.58,0,0,0,.51-.11L117.51,56h.78Z"/><path class="cls-5" d="M120,59.05a3.9,3.9,0,0,1,.21-1.42,3.31,3.31,0,0,1,.59-1,2.59,2.59,0,0,1,.86-.62,2.63,2.63,0,0,1,1-.21,2.31,2.31,0,0,1,1.83.71,3.29,3.29,0,0,1,.71,2.28,1.21,1.21,0,0,1,0,.19c0,.07,0,.13,0,.18l-4.36.08a2.74,2.74,0,0,0,.6,1.74,2.07,2.07,0,0,0,1.69.58,3.23,3.23,0,0,0,1-.14,3.38,3.38,0,0,0,.54-.21l.15.67a2.83,2.83,0,0,1-.62.24,4.28,4.28,0,0,1-1.09.15,3.47,3.47,0,0,1-1.39-.22,2.44,2.44,0,0,1-1-.65,2.66,2.66,0,0,1-.56-1A4.74,4.74,0,0,1,120,59.05Zm4.4-.56a2.47,2.47,0,0,0-.49-1.51,1.48,1.48,0,0,0-1.23-.52,1.8,1.8,0,0,0-.75.18,2,2,0,0,0-.57.46,2.38,2.38,0,0,0-.37.66,2.63,2.63,0,0,0-.15.79Z"/><path class="cls-5" d="M131.32,62.07a2.4,2.4,0,0,1-.69-.09,1.2,1.2,0,0,1-.5-.26,1.18,1.18,0,0,1-.31-.48,2.16,2.16,0,0,1-.11-.73l-.13-7.68.77-.16.14,7.8a1.47,1.47,0,0,0,.06.46.57.57,0,0,0,.17.27.58.58,0,0,0,.28.15l.42.07Z"/><path class="cls-5" d="M134.64,55.56a2.72,2.72,0,0,1,1,.15,1.88,1.88,0,0,1,.7.47,1.8,1.8,0,0,1,.39.72,2.94,2.94,0,0,1,.14.91l.07,3.91-.35.09-.52.1-.67.09-.75,0a4.32,4.32,0,0,1-.91-.09,2.16,2.16,0,0,1-.72-.33,1.57,1.57,0,0,1-.49-.59,2,2,0,0,1-.19-.89,1.7,1.7,0,0,1,.18-.87,1.59,1.59,0,0,1,.52-.6,2.51,2.51,0,0,1,.83-.36,4.77,4.77,0,0,1,1-.13h.35l.36.05.3,0,.18.05V58a3.21,3.21,0,0,0-.06-.63,1.16,1.16,0,0,0-.22-.55,1.18,1.18,0,0,0-.46-.39,1.72,1.72,0,0,0-.77-.13,3.59,3.59,0,0,0-1,.11l-.49.16-.12-.68a2.52,2.52,0,0,1,.63-.19A5.67,5.67,0,0,1,134.64,55.56Zm.17,5.78.8,0,.58-.09,0-2.19-.42-.11a4.08,4.08,0,0,0-.79-.06l-.6.06a1.65,1.65,0,0,0-.58.19,1.18,1.18,0,0,0-.42.38,1.13,1.13,0,0,0-.16.64,1.47,1.47,0,0,0,.13.59.93.93,0,0,0,.33.38,1.5,1.5,0,0,0,.5.2A3.45,3.45,0,0,0,134.81,61.34Z"/><path class="cls-5" d="M143.71,55.42a5.58,5.58,0,0,1,.73,0,3.35,3.35,0,0,1,.47.11l-.14.68a2.56,2.56,0,0,0-.39-.1,5.57,5.57,0,0,0-.78,0,4.14,4.14,0,0,0-.81.09,1.83,1.83,0,0,0-.4.13l.1,5.43h-.78l-.1-5.91a4.77,4.77,0,0,1,.82-.28A5.09,5.09,0,0,1,143.71,55.42Z"/><path class="cls-5" d="M145.65,58.61a3.92,3.92,0,0,1,.21-1.43,3,3,0,0,1,.59-1,2.26,2.26,0,0,1,.86-.62,2.64,2.64,0,0,1,1-.22,2.34,2.34,0,0,1,1.83.71,3.29,3.29,0,0,1,.72,2.28v.19c0,.07,0,.13,0,.18l-4.36.08a2.74,2.74,0,0,0,.6,1.74,2.07,2.07,0,0,0,1.69.58,3.32,3.32,0,0,0,1-.13,4.38,4.38,0,0,0,.54-.22l.15.67a2.83,2.83,0,0,1-.62.24,3.54,3.54,0,0,1-1.09.15,3.63,3.63,0,0,1-1.39-.21,2.46,2.46,0,0,1-1-.66,2.56,2.56,0,0,1-.56-1A4.85,4.85,0,0,1,145.65,58.61ZM150,58a2.41,2.41,0,0,0-.48-1.51,1.47,1.47,0,0,0-1.23-.51,1.54,1.54,0,0,0-.75.18,1.81,1.81,0,0,0-.57.46,2.13,2.13,0,0,0-.37.66,2.57,2.57,0,0,0-.15.78Z"/><path class="cls-5" d="M154.45,60.72c.17-.34.33-.74.5-1.19s.33-.91.49-1.39.3-1,.43-1.45.24-.94.33-1.36l.78,0c-.13.57-.28,1.14-.45,1.69s-.35,1.1-.54,1.63-.38,1-.58,1.53l-.6,1.4h-.73c-.22-.43-.43-.89-.65-1.37s-.43-1-.64-1.51-.4-1.06-.59-1.61-.35-1.11-.51-1.68h.83c.1.42.23.87.38,1.36s.31,1,.48,1.43.35.93.53,1.37S154.28,60.38,154.45,60.72Z"/><path class="cls-5" d="M159.19,53.4a.57.57,0,0,1-.56.61.59.59,0,0,1-.41-.15.56.56,0,0,1-.18-.44.6.6,0,0,1,.16-.44.57.57,0,0,1,.41-.17A.57.57,0,0,1,159,53,.56.56,0,0,1,159.19,53.4Zm0,8.08h-.78l-.1-6.2H159Z"/><path class="cls-5" d="M162.4,60.87a2.52,2.52,0,0,0,1.1-.24.79.79,0,0,0,.43-.76,1.09,1.09,0,0,0-.09-.43.86.86,0,0,0-.26-.32,2.11,2.11,0,0,0-.48-.26l-.73-.3-.67-.29a2.61,2.61,0,0,1-.56-.34,1.45,1.45,0,0,1-.39-.46,1.38,1.38,0,0,1-.15-.67,1.52,1.52,0,0,1,.54-1.24,2.46,2.46,0,0,1,1.56-.49,3.94,3.94,0,0,1,1.05.09,4,4,0,0,1,.59.18l-.17.7a3,3,0,0,0-.49-.18,3.24,3.24,0,0,0-1-.11,2.62,2.62,0,0,0-.5.07,1.15,1.15,0,0,0-.41.17.89.89,0,0,0-.28.3.71.71,0,0,0-.1.42.87.87,0,0,0,.1.44,1.05,1.05,0,0,0,.29.31,2.44,2.44,0,0,0,.46.25l.62.25.7.28a2.56,2.56,0,0,1,.58.35,1.7,1.7,0,0,1,.42.5,1.57,1.57,0,0,1,.17.73,1.42,1.42,0,0,1-.61,1.28,3,3,0,0,1-1.71.47,4.16,4.16,0,0,1-1.25-.12,4.31,4.31,0,0,1-.58-.2l.19-.71a.64.64,0,0,0,.16.07,2.2,2.2,0,0,0,.32.12,2.81,2.81,0,0,0,.49.1A3.34,3.34,0,0,0,162.4,60.87Z"/><path class="cls-5" d="M166.83,55.14l2.47,0v.66l-2.47,0,.06,3.3A3.27,3.27,0,0,0,167,60a1.18,1.18,0,0,0,.26.5.76.76,0,0,0,.42.23,2.12,2.12,0,0,0,.52.06,2.31,2.31,0,0,0,.79-.13,3,3,0,0,0,.47-.22l.2.64a2.54,2.54,0,0,1-.58.26,2.67,2.67,0,0,1-.91.15,2.53,2.53,0,0,1-1-.13,1.36,1.36,0,0,1-.63-.44,1.91,1.91,0,0,1-.35-.76,5.45,5.45,0,0,1-.11-1.08l-.1-5.71.78-.16Z"/><path class="cls-5" d="M172.78,54.89a2.88,2.88,0,0,1,1,.16,1.77,1.77,0,0,1,.7.47,2,2,0,0,1,.4.72,3.22,3.22,0,0,1,.13.91l.07,3.91-.35.08-.52.1a5.74,5.74,0,0,1-.67.09c-.24,0-.49,0-.75,0a3.24,3.24,0,0,1-.9-.09,2.12,2.12,0,0,1-.73-.33,1.57,1.57,0,0,1-.49-.59,2.13,2.13,0,0,1-.19-.89,1.72,1.72,0,0,1,.18-.87,1.6,1.6,0,0,1,.53-.6,2.46,2.46,0,0,1,.82-.36,4.79,4.79,0,0,1,1-.12,2.22,2.22,0,0,1,.36,0l.36,0,.3.06a.43.43,0,0,1,.17,0v-.39q0-.32-.06-.63a1.55,1.55,0,0,0-.22-.55,1.12,1.12,0,0,0-.47-.38,1.56,1.56,0,0,0-.77-.14,4.53,4.53,0,0,0-1,.11l-.49.17-.12-.68a2.52,2.52,0,0,1,.63-.19A4.82,4.82,0,0,1,172.78,54.89Zm.17,5.78c.31,0,.57,0,.8,0a3.74,3.74,0,0,0,.58-.09l0-2.18a2.26,2.26,0,0,0-.42-.12,3.51,3.51,0,0,0-.79-.05,4.28,4.28,0,0,0-.6.05,1.74,1.74,0,0,0-.57.19,1.15,1.15,0,0,0-.43.39,1.1,1.1,0,0,0-.16.64,1.42,1.42,0,0,0,.13.58.94.94,0,0,0,.33.38,1.47,1.47,0,0,0,.51.2A2.68,2.68,0,0,0,173,60.67Z"/><path class="cls-5" d="M181.11,60.54a2.28,2.28,0,0,0,1.11-.24.75.75,0,0,0,.42-.75,1.15,1.15,0,0,0-.08-.44.86.86,0,0,0-.27-.31,1.88,1.88,0,0,0-.47-.27l-.74-.3-.66-.28a2.78,2.78,0,0,1-.56-.34,1.61,1.61,0,0,1-.39-.47,1.47,1.47,0,0,1-.16-.67,1.52,1.52,0,0,1,.55-1.23,2.41,2.41,0,0,1,1.56-.5,4,4,0,0,1,1.05.09,4.44,4.44,0,0,1,.59.18l-.17.7-.49-.18a3.07,3.07,0,0,0-1-.1,1.93,1.93,0,0,0-.49.06,1.28,1.28,0,0,0-.41.18.81.81,0,0,0-.29.29.83.83,0,0,0-.1.43.94.94,0,0,0,.11.43.91.91,0,0,0,.28.31,2.06,2.06,0,0,0,.47.25l.62.25.69.29a2.6,2.6,0,0,1,.59.34,1.83,1.83,0,0,1,.42.5,1.72,1.72,0,0,1,.17.74,1.46,1.46,0,0,1-.61,1.28,3.05,3.05,0,0,1-1.72.46,4.2,4.2,0,0,1-1.25-.12,3.54,3.54,0,0,1-.58-.2l.2-.71.15.08.33.11a4,4,0,0,0,.49.11A3.34,3.34,0,0,0,181.11,60.54Z"/><path class="cls-5" d="M184.59,57.93a4.4,4.4,0,0,1,.21-1.43,3.09,3.09,0,0,1,.6-1,2.3,2.3,0,0,1,.85-.62,2.69,2.69,0,0,1,1-.22,2.34,2.34,0,0,1,1.83.71,3.34,3.34,0,0,1,.72,2.28v.19c0,.07,0,.13,0,.19l-4.35.07a2.69,2.69,0,0,0,.59,1.74,2.09,2.09,0,0,0,1.69.58,3.39,3.39,0,0,0,1-.13,4.82,4.82,0,0,0,.53-.22l.16.67a2.76,2.76,0,0,1-.63.24,3.43,3.43,0,0,1-1.08.15,3.72,3.72,0,0,1-1.4-.21,2.62,2.62,0,0,1-1-.66,2.54,2.54,0,0,1-.55-1A4.85,4.85,0,0,1,184.59,57.93Zm4.4-.57a2.54,2.54,0,0,0-.48-1.51,1.71,1.71,0,0,0-2-.33A1.81,1.81,0,0,0,186,56a1.94,1.94,0,0,0-.37.66,2.57,2.57,0,0,0-.15.78Z"/><path class="cls-5" d="M193.27,54.54a2.69,2.69,0,0,1,1,.15,1.77,1.77,0,0,1,.7.47,2,2,0,0,1,.4.72,3.28,3.28,0,0,1,.13.91l.07,3.91-.34.08-.53.1a5.86,5.86,0,0,1-.66.09,6.28,6.28,0,0,1-.75,0,3.31,3.31,0,0,1-.91-.09,1.81,1.81,0,0,1-.73-.33,1.67,1.67,0,0,1-.49-.59,2.13,2.13,0,0,1-.19-.89,2,2,0,0,1,.18-.87,1.6,1.6,0,0,1,.53-.6,2.46,2.46,0,0,1,.82-.36,5.6,5.6,0,0,1,1-.12h.36l.36,0,.3.06a.71.71,0,0,1,.17,0v-.39a6.2,6.2,0,0,0-.06-.62,1.41,1.41,0,0,0-.22-.55,1.17,1.17,0,0,0-.46-.39,1.76,1.76,0,0,0-.78-.14,3.92,3.92,0,0,0-1,.12,4.71,4.71,0,0,0-.49.16l-.12-.68a2.83,2.83,0,0,1,.63-.19A4.88,4.88,0,0,1,193.27,54.54Zm.18,5.78c.3,0,.57,0,.79,0a3.74,3.74,0,0,0,.58-.09l0-2.18a2.18,2.18,0,0,0-.43-.12,4.16,4.16,0,0,0-.79-.05,4.28,4.28,0,0,0-.6.05,2,2,0,0,0-.57.19,1.24,1.24,0,0,0-.43.39,1,1,0,0,0-.15.64,1.28,1.28,0,0,0,.12.58.94.94,0,0,0,.33.38,1.47,1.47,0,0,0,.51.2A3.4,3.4,0,0,0,193.45,60.32Z"/><path class="cls-5" d="M205.1,60.46c-.23.07-.54.15-.93.23a7.08,7.08,0,0,1-1.44.15,2.86,2.86,0,0,1-1.16-.18,1.88,1.88,0,0,1-.77-.57,2.24,2.24,0,0,1-.43-.89,5.17,5.17,0,0,1-.15-1.16l-.06-3.48h.78l.06,3.22a5.8,5.8,0,0,0,.11,1.12,1.82,1.82,0,0,0,.33.73,1.19,1.19,0,0,0,.56.4,2.35,2.35,0,0,0,.84.11,6.4,6.4,0,0,0,1-.08,2.58,2.58,0,0,0,.51-.11l-.09-5.45.78,0Z"/><path class="cls-5" d="M207,54.66q.34-.1.93-.24a8.06,8.06,0,0,1,1.44-.14,3,3,0,0,1,1.19.18,1.76,1.76,0,0,1,.76.57,2.2,2.2,0,0,1,.42.9,4.67,4.67,0,0,1,.14,1.16l.06,3.47h-.78l-.05-3.21a6.72,6.72,0,0,0-.11-1.12,1.86,1.86,0,0,0-.32-.74,1.16,1.16,0,0,0-.55-.4,2.43,2.43,0,0,0-.86-.11,5.3,5.3,0,0,0-1,.08,3,3,0,0,0-.52.11l.1,5.45h-.78Z"/><path class="cls-5" d="M32.64,78.22a3.41,3.41,0,0,1-1.28-.2,2.46,2.46,0,0,1-.93-.64,2.86,2.86,0,0,1-.57-1,4.18,4.18,0,0,1-.22-1.31,4.06,4.06,0,0,1,.18-1.34,3,3,0,0,1,.55-1,2.49,2.49,0,0,1,.89-.68,3,3,0,0,1,1.18-.26,5.53,5.53,0,0,1,.94.07,2.1,2.1,0,0,1,.68.21l-.19.67a2.14,2.14,0,0,0-.54-.18,3.61,3.61,0,0,0-.81-.06,1.89,1.89,0,0,0-1.55.69,2.92,2.92,0,0,0-.5,1.9,3.91,3.91,0,0,0,.14,1,2,2,0,0,0,.4.79,1.76,1.76,0,0,0,.71.5,2.49,2.49,0,0,0,1,.17,2.56,2.56,0,0,0,.84-.13,4.22,4.22,0,0,0,.49-.2l.18.67a2.87,2.87,0,0,1-.67.24A3.83,3.83,0,0,1,32.64,78.22Z"/><path class="cls-5" d="M40.68,74.85a3.81,3.81,0,0,1-.19,1.34,3,3,0,0,1-.57,1,2.64,2.64,0,0,1-.88.67,2.8,2.8,0,0,1-1.14.25,2.69,2.69,0,0,1-1.14-.21,2.64,2.64,0,0,1-.91-.64,3.15,3.15,0,0,1-.6-1A3.75,3.75,0,0,1,35,75a4,4,0,0,1,.18-1.33,3.25,3.25,0,0,1,.57-1,2.71,2.71,0,0,1,.89-.68,2.76,2.76,0,0,1,1.13-.25,2.79,2.79,0,0,1,1.14.21,2.67,2.67,0,0,1,.91.65,3,3,0,0,1,.61,1A4.14,4.14,0,0,1,40.68,74.85Zm-.83,0A2.92,2.92,0,0,0,39.28,73a1.91,1.91,0,0,0-2.93,0,3,3,0,0,0-.51,1.87,3,3,0,0,0,.58,1.84,1.91,1.91,0,0,0,2.92-.06A2.8,2.8,0,0,0,39.85,74.87Z"/><path class="cls-5" d="M42.3,71.93c.23-.07.54-.14.93-.23a7.08,7.08,0,0,1,1.44-.15,3.14,3.14,0,0,1,1.18.19,1.79,1.79,0,0,1,.77.57,2.5,2.5,0,0,1,.42.9,5.76,5.76,0,0,1,.14,1.16l.06,3.46-.78,0-.06-3.22a5.61,5.61,0,0,0-.11-1.11,1.86,1.86,0,0,0-.31-.74,1.19,1.19,0,0,0-.56-.4,2.66,2.66,0,0,0-.86-.12,7.7,7.7,0,0,0-1,.08,3.8,3.8,0,0,0-.52.12l.09,5.45H42.4Z"/><path class="cls-5" d="M48.05,80.07l-.33,0a1.58,1.58,0,0,1-.29-.08l.1-.64.22,0a1.37,1.37,0,0,0,.28,0A1,1,0,0,0,49,79a2.42,2.42,0,0,0,.21-1.19l-.11-6.18.78,0L50,77.73a2.87,2.87,0,0,1-.41,1.74A1.81,1.81,0,0,1,48.05,80.07Zm2-10.36a.6.6,0,0,1-.16.44.57.57,0,0,1-.41.17.57.57,0,0,1-.41-.16.66.66,0,0,1,0-.87.54.54,0,0,1,.4-.17.59.59,0,0,1,.41.15A.57.57,0,0,1,50,69.71Z"/><path class="cls-5" d="M56.71,77.45q-.35.1-.93.24a8,8,0,0,1-1.44.14,2.94,2.94,0,0,1-1.17-.18,1.82,1.82,0,0,1-.76-.57,2.24,2.24,0,0,1-.43-.89A5.17,5.17,0,0,1,51.83,75l-.06-3.48h.78l.06,3.22a5.72,5.72,0,0,0,.11,1.12,1.76,1.76,0,0,0,.33.73,1.14,1.14,0,0,0,.56.4,2.35,2.35,0,0,0,.84.11,6.4,6.4,0,0,0,1-.08,2.58,2.58,0,0,0,.51-.11l-.09-5.45h.78Z"/><path class="cls-5" d="M58.6,71.65q.34-.11.93-.24A8,8,0,0,1,61,71.27a3,3,0,0,1,1.19.18,1.82,1.82,0,0,1,.76.57,2.5,2.5,0,0,1,.42.9,5.19,5.19,0,0,1,.14,1.16l.06,3.47h-.78l-.06-3.21a5.88,5.88,0,0,0-.1-1.12,1.93,1.93,0,0,0-.32-.74,1.21,1.21,0,0,0-.56-.4,2.4,2.4,0,0,0-.86-.11,6.37,6.37,0,0,0-1,.08,3,3,0,0,0-.52.11l.1,5.45h-.78Z"/><path class="cls-5" d="M66.1,71.3l2.47,0v.66l-2.47,0,.06,3.3a3.33,3.33,0,0,0,.1.86,1.14,1.14,0,0,0,.27.5.73.73,0,0,0,.41.23,2.2,2.2,0,0,0,.53.06,2.36,2.36,0,0,0,.79-.13,2.87,2.87,0,0,0,.46-.22l.21.64a3.12,3.12,0,0,1-1.5.41,2.59,2.59,0,0,1-1-.13,1.36,1.36,0,0,1-.63-.44,2,2,0,0,1-.34-.76,5.38,5.38,0,0,1-.12-1.08l-.1-5.71.78-.16Z"/><path class="cls-5" d="M75.27,74.25a3.76,3.76,0,0,1-.19,1.33,2.78,2.78,0,0,1-.57,1,2.61,2.61,0,0,1-.88.67,2.65,2.65,0,0,1-1.14.26,2.86,2.86,0,0,1-1.14-.22,2.75,2.75,0,0,1-.91-.63,3.26,3.26,0,0,1-.6-1,3.79,3.79,0,0,1-.23-1.33A4.06,4.06,0,0,1,69.79,73a3.2,3.2,0,0,1,.57-1,2.58,2.58,0,0,1,.89-.68,2.92,2.92,0,0,1,2.27,0,2.67,2.67,0,0,1,.91.65,3,3,0,0,1,.61,1A4.25,4.25,0,0,1,75.27,74.25Zm-.83,0a2.89,2.89,0,0,0-.57-1.84,1.91,1.91,0,0,0-2.93,0,3,3,0,0,0-.51,1.86A2.93,2.93,0,0,0,71,76.17a1.9,1.9,0,0,0,2.92,0A2.87,2.87,0,0,0,74.44,74.26Z"/><path class="cls-5" d="M81.52,70.89a2.69,2.69,0,0,1,1,.15,1.88,1.88,0,0,1,.7.47,2,2,0,0,1,.4.72,3.28,3.28,0,0,1,.13.91l.07,3.91-.34.09-.53.1-.66.08c-.25,0-.5,0-.75.05a4.32,4.32,0,0,1-.91-.09,2.12,2.12,0,0,1-.73-.33,1.7,1.7,0,0,1-.49-.6,2.09,2.09,0,0,1-.19-.89,1.91,1.91,0,0,1,.18-.86A1.56,1.56,0,0,1,80,74a2.26,2.26,0,0,1,.82-.35,4.85,4.85,0,0,1,1-.13h.36l.36,0,.3.06a.71.71,0,0,1,.17,0v-.38a6.12,6.12,0,0,0-.06-.63,1.41,1.41,0,0,0-.22-.55,1.26,1.26,0,0,0-.46-.39,1.76,1.76,0,0,0-.78-.14,3.92,3.92,0,0,0-1,.12l-.49.16-.12-.68A2.83,2.83,0,0,1,80.5,71,4.88,4.88,0,0,1,81.52,70.89Zm.18,5.78.79,0,.58-.09,0-2.19-.43-.12a4.16,4.16,0,0,0-.79,0,4.35,4.35,0,0,0-.6.06,1.73,1.73,0,0,0-.57.18,1.24,1.24,0,0,0-.43.39,1.05,1.05,0,0,0-.15.64,1.32,1.32,0,0,0,.12.59,1,1,0,0,0,.33.37,1.48,1.48,0,0,0,.51.21A3.45,3.45,0,0,0,81.7,76.67Z"/><path class="cls-5" d="M87.81,70.8a4.26,4.26,0,0,1,.73,0A2.33,2.33,0,0,1,89,71l-.14.68a1.31,1.31,0,0,0-.39-.1,4.36,4.36,0,0,0-.78,0,3.49,3.49,0,0,0-.81.09,3,3,0,0,0-.4.12l.1,5.44h-.78l-.1-5.91a5.65,5.65,0,0,1,.82-.29A5.13,5.13,0,0,1,87.81,70.8Z"/><path class="cls-5" d="M90.25,71.09l.9-.23a7.71,7.71,0,0,1,1.45-.14,2,2,0,0,1,1.71.65l.23-.16A4.05,4.05,0,0,1,95,71a3.6,3.6,0,0,1,.61-.21,3.79,3.79,0,0,1,.79-.1,2.74,2.74,0,0,1,1.15.19,1.62,1.62,0,0,1,.68.58,2.25,2.25,0,0,1,.34.9,6.7,6.7,0,0,1,.11,1.15l.06,3.47h-.78l-.06-3.22a8.06,8.06,0,0,0-.07-1.06,2.08,2.08,0,0,0-.23-.74,1,1,0,0,0-.47-.43,1.76,1.76,0,0,0-.78-.14,3.12,3.12,0,0,0-.65.08,2.53,2.53,0,0,0-.51.17,2.17,2.17,0,0,0-.35.2,1.45,1.45,0,0,0-.2.15,3.1,3.1,0,0,1,.18.7,6.79,6.79,0,0,1,.07.81L94.93,77l-.78,0-.06-3.22A7.94,7.94,0,0,0,94,72.74a1.84,1.84,0,0,0-.24-.74,1.08,1.08,0,0,0-.48-.44,1.86,1.86,0,0,0-.81-.13,5,5,0,0,0-.95.08,2.61,2.61,0,0,0-.5.11l.1,5.45h-.78Z"/><path class="cls-5" d="M105.94,73.71a4.34,4.34,0,0,1-.19,1.34,3,3,0,0,1-.57,1,2.75,2.75,0,0,1-.88.67,2.8,2.8,0,0,1-1.14.25,2.66,2.66,0,0,1-2-.85,2.83,2.83,0,0,1-.6-1,4.22,4.22,0,0,1-.05-2.66,3,3,0,0,1,.57-1,2.61,2.61,0,0,1,.88-.67,2.75,2.75,0,0,1,3.19.6,3,3,0,0,1,.6,1A3.92,3.92,0,0,1,105.94,73.71Zm-.83,0a3,3,0,0,0-.57-1.85,1.77,1.77,0,0,0-1.48-.66,1.74,1.74,0,0,0-1.45.72,2.93,2.93,0,0,0-.51,1.86,2.89,2.89,0,0,0,.57,1.84,1.92,1.92,0,0,0,2.93-.06A2.92,2.92,0,0,0,105.11,73.73Zm-.45-5.56-2,1.7-.4-.45,1.86-1.86Z"/><path class="cls-5" d="M107.55,70.79l.93-.23a7.23,7.23,0,0,1,1.44-.14,3,3,0,0,1,1.19.18,1.76,1.76,0,0,1,.76.57,2.2,2.2,0,0,1,.42.9,4.61,4.61,0,0,1,.14,1.16l.06,3.47h-.78l0-3.22a6.48,6.48,0,0,0-.11-1.11,1.86,1.86,0,0,0-.32-.74,1.16,1.16,0,0,0-.55-.4,2.43,2.43,0,0,0-.86-.11,6.52,6.52,0,0,0-1,.07,4.24,4.24,0,0,0-.52.12l.1,5.45h-.78Z"/><path class="cls-5" d="M115.23,68.57a.6.6,0,0,1-.16.44.54.54,0,0,1-.4.17.64.64,0,0,1-.42-.15.59.59,0,0,1-.17-.44.6.6,0,0,1,.16-.44.54.54,0,0,1,.4-.17.6.6,0,0,1,.42.16A.56.56,0,0,1,115.23,68.57Zm0,8.08h-.78l-.11-6.2h.78Z"/><path class="cls-5" d="M119.77,76.7a3.41,3.41,0,0,1-1.28-.2,2.46,2.46,0,0,1-.93-.64,2.86,2.86,0,0,1-.57-1,4.18,4.18,0,0,1-.22-1.31,4.35,4.35,0,0,1,.17-1.34,3,3,0,0,1,.56-1,2.49,2.49,0,0,1,.89-.68,2.92,2.92,0,0,1,1.18-.26,5.61,5.61,0,0,1,.94.07,2.53,2.53,0,0,1,.68.2l-.19.68a2.14,2.14,0,0,0-.54-.18,3.1,3.1,0,0,0-.81-.06,1.89,1.89,0,0,0-1.55.69,2.92,2.92,0,0,0-.5,1.9,3.52,3.52,0,0,0,.14,1,2,2,0,0,0,.4.79,1.79,1.79,0,0,0,.7.5,2.57,2.57,0,0,0,1,.17,2.85,2.85,0,0,0,.84-.13,4.22,4.22,0,0,0,.49-.2l.18.66a2.43,2.43,0,0,1-.67.25A3.83,3.83,0,0,1,119.77,76.7Z"/><path class="cls-5" d="M127.81,73.33a4.1,4.1,0,0,1-.19,1.34,3,3,0,0,1-.57,1,2.9,2.9,0,0,1-.88.67,2.8,2.8,0,0,1-1.14.25,2.69,2.69,0,0,1-1.14-.21,2.78,2.78,0,0,1-.91-.64,3,3,0,0,1-.6-1,4,4,0,0,1-.24-1.33,4.27,4.27,0,0,1,.19-1.33,2.91,2.91,0,0,1,.57-1,2.6,2.6,0,0,1,2-.93,2.64,2.64,0,0,1,1.14.21A2.67,2.67,0,0,1,127,71a3.1,3.1,0,0,1,.61,1A4.25,4.25,0,0,1,127.81,73.33Zm-.83,0a2.92,2.92,0,0,0-.57-1.85,1.91,1.91,0,0,0-2.93,0,3.44,3.44,0,0,0,.06,3.7,1.77,1.77,0,0,0,1.48.66,1.73,1.73,0,0,0,1.45-.71A2.92,2.92,0,0,0,127,73.35Z"/><path class="cls-5" d="M130.47,75.87a.67.67,0,0,1-.17.47.66.66,0,0,1-1.15-.45.65.65,0,0,1,.17-.47.6.6,0,0,1,.48-.2.62.62,0,0,1,.49.18A.7.7,0,0,1,130.47,75.87Z"/><path class="cls-5" d="M140.71,76.2c-.16-.4-.32-.79-.46-1.17s-.27-.74-.4-1.09l-4.06.07q-.19.54-.39,1.11c-.12.38-.26.77-.4,1.18l-.85,0c.3-.87.58-1.68.85-2.44s.53-1.46.79-2.13.52-1.32.77-1.94.53-1.24.81-1.87h.72c.3.61.59,1.22.87,1.84s.55,1.24.83,1.91.57,1.36.86,2.1.61,1.55,1,2.41Zm-3-7.33c-.29.7-.57,1.41-.84,2.12s-.56,1.49-.85,2.32l3.55-.06c-.32-.82-.63-1.58-.93-2.29S138,69.56,137.72,68.87Z"/><path class="cls-5" d="M147.62,75.89a6.68,6.68,0,0,1-.88.24,7.05,7.05,0,0,1-1.37.14,3.56,3.56,0,0,1-1.25-.2,2.85,2.85,0,0,1-1-.63,3.06,3.06,0,0,1-.64-1,3.82,3.82,0,0,1-.24-1.35,4.24,4.24,0,0,1,.16-1.31,3,3,0,0,1,.53-1,2.47,2.47,0,0,1,.87-.69,2.93,2.93,0,0,1,1.19-.26,2.88,2.88,0,0,1,1.06.16,2.53,2.53,0,0,1,.66.32l-.06-3.34.78-.16ZM146.75,71l-.27-.17a2.69,2.69,0,0,0-.38-.18l-.47-.13a2.32,2.32,0,0,0-.53,0,2,2,0,0,0-1,.22,1.6,1.6,0,0,0-.62.56,2.28,2.28,0,0,0-.34.81,5,5,0,0,0-.09,1,2.65,2.65,0,0,0,.65,1.86,2.11,2.11,0,0,0,1.63.63,7.09,7.09,0,0,0,.93-.07,2.71,2.71,0,0,0,.53-.13Z"/><path class="cls-5" d="M149.24,73a3.92,3.92,0,0,1,.21-1.43,2.83,2.83,0,0,1,.59-1,2.45,2.45,0,0,1,.85-.63,2.89,2.89,0,0,1,1-.21,2.34,2.34,0,0,1,1.83.71,3.34,3.34,0,0,1,.72,2.28v.19c0,.07,0,.13,0,.18l-4.35.08a2.69,2.69,0,0,0,.59,1.74,2.09,2.09,0,0,0,1.69.58,3.35,3.35,0,0,0,1-.13,4.82,4.82,0,0,0,.53-.22l.16.67a2.76,2.76,0,0,1-.63.24,4.38,4.38,0,0,1-2.48-.06,2.61,2.61,0,0,1-.95-.66,2.53,2.53,0,0,1-.56-1A4.37,4.37,0,0,1,149.24,73Zm4.39-.57a2.54,2.54,0,0,0-.48-1.51,1.53,1.53,0,0,0-1.23-.52,1.67,1.67,0,0,0-.75.19,1.81,1.81,0,0,0-.57.46,2.13,2.13,0,0,0-.37.66,2.57,2.57,0,0,0-.15.78Z"/><path class="cls-5" d="M156,70c.23-.07.53-.15.9-.23a6.76,6.76,0,0,1,1.44-.15,2.06,2.06,0,0,1,1.72.65l.23-.16a2.75,2.75,0,0,1,.43-.24,3,3,0,0,1,.62-.22,3.6,3.6,0,0,1,.78-.1,2.87,2.87,0,0,1,1.15.19,1.59,1.59,0,0,1,.69.58,2.41,2.41,0,0,1,.34.9,6.75,6.75,0,0,1,.1,1.15l.06,3.47h-.78l-.05-3.21a10.07,10.07,0,0,0-.07-1.06,2.23,2.23,0,0,0-.23-.74,1.05,1.05,0,0,0-.47-.44,1.8,1.8,0,0,0-.79-.14,3.21,3.21,0,0,0-.65.08,3,3,0,0,0-.51.17,2.72,2.72,0,0,0-.35.2l-.19.15a4,4,0,0,1,.17.7,5.33,5.33,0,0,1,.07.82l.06,3.52-.78,0-.05-3.22a7.79,7.79,0,0,0-.08-1.06,1.9,1.9,0,0,0-.23-.74,1.11,1.11,0,0,0-.48-.43,1.76,1.76,0,0,0-.81-.14,6.17,6.17,0,0,0-1,.08,2.44,2.44,0,0,0-.49.11l.09,5.45h-.78Z"/><path class="cls-5" d="M168.2,69.37a3,3,0,0,1,1,.16,1.84,1.84,0,0,1,.7.47,1.8,1.8,0,0,1,.39.72,3.27,3.27,0,0,1,.14.91l.07,3.91-.35.08-.53.1a5.86,5.86,0,0,1-.66.09,6.17,6.17,0,0,1-.75,0,3.31,3.31,0,0,1-.91-.09,1.7,1.7,0,0,1-.72-.33,1.57,1.57,0,0,1-.49-.59,2,2,0,0,1-.19-.89,1.83,1.83,0,0,1,.17-.87,1.69,1.69,0,0,1,.53-.6,2.55,2.55,0,0,1,.82-.36,4.88,4.88,0,0,1,1-.12h.35l.36,0,.3.06a.49.49,0,0,1,.18,0v-.39a3.36,3.36,0,0,0-.06-.63,1.29,1.29,0,0,0-.22-.54,1,1,0,0,0-.46-.39,1.76,1.76,0,0,0-.78-.14,3.89,3.89,0,0,0-1,.12,4,4,0,0,0-.49.16l-.12-.68a2.56,2.56,0,0,1,.62-.19A5.7,5.7,0,0,1,168.2,69.37Zm.17,5.79c.3,0,.57,0,.8,0a4,4,0,0,0,.58-.09l0-2.18a2.26,2.26,0,0,0-.42-.12,3.6,3.6,0,0,0-.8,0,4,4,0,0,0-.59,0,1.88,1.88,0,0,0-.58.19,1.31,1.31,0,0,0-.42.39,1.1,1.1,0,0,0-.16.64,1.42,1.42,0,0,0,.12.58.9.9,0,0,0,.34.38,1.5,1.5,0,0,0,.5.2A3.4,3.4,0,0,0,168.37,75.16ZM170,67l-2,1.7-.4-.45,1.86-1.86Z"/><path class="cls-5" d="M173.74,75.08a2.4,2.4,0,0,0,1.11-.25.78.78,0,0,0,.43-.75,1.25,1.25,0,0,0-.09-.43.79.79,0,0,0-.26-.32,2,2,0,0,0-.48-.27l-.73-.3c-.24-.09-.46-.19-.67-.28a3.09,3.09,0,0,1-.56-.34,1.61,1.61,0,0,1-.39-.47A1.36,1.36,0,0,1,172,71a1.51,1.51,0,0,1,.54-1.23,2.41,2.41,0,0,1,1.56-.5,4.4,4.4,0,0,1,1,.09,4,4,0,0,1,.59.18l-.17.7-.49-.18a3,3,0,0,0-1-.1,2,2,0,0,0-.5.06,1.38,1.38,0,0,0-.41.18.78.78,0,0,0-.28.29.74.74,0,0,0-.1.43.83.83,0,0,0,.1.43,1,1,0,0,0,.29.31,2,2,0,0,0,.46.25l.62.25.7.28a3,3,0,0,1,.58.35,1.83,1.83,0,0,1,.42.5,1.62,1.62,0,0,1,.17.74,1.43,1.43,0,0,1-.61,1.28,3,3,0,0,1-1.71.46,4.16,4.16,0,0,1-1.25-.12,3.21,3.21,0,0,1-.58-.2l.19-.71a1.11,1.11,0,0,0,.16.08l.32.11a4,4,0,0,0,.49.11A4.28,4.28,0,0,0,173.74,75.08Z"/><path class="cls-5" d="M178.62,74.4a1.34,1.34,0,0,1,0,.19.66.66,0,0,0,0,.15,5.25,5.25,0,0,1-.19,1.43,5.31,5.31,0,0,1-.56,1.29l-.58-.25a4.09,4.09,0,0,0,.37-1.12,6,6,0,0,0,.09-1.21,1.77,1.77,0,0,0,0-.24,2,2,0,0,0,0-.22Z"/><path class="cls-5" d="M183,72.36a3.92,3.92,0,0,1,.21-1.43,2.91,2.91,0,0,1,.59-1,2.3,2.3,0,0,1,.85-.62,2.69,2.69,0,0,1,1-.22,2.34,2.34,0,0,1,1.83.71,3.34,3.34,0,0,1,.72,2.28v.19c0,.07,0,.13,0,.18l-4.35.08a2.74,2.74,0,0,0,.59,1.74,2.09,2.09,0,0,0,1.69.58,3.35,3.35,0,0,0,1-.13,4.82,4.82,0,0,0,.53-.22l.16.67a2.76,2.76,0,0,1-.63.24,3.43,3.43,0,0,1-1.08.15,3.72,3.72,0,0,1-1.4-.21,2.5,2.5,0,0,1-.95-.66,2.56,2.56,0,0,1-.56-1A4.49,4.49,0,0,1,183,72.36Zm4.39-.57a2.54,2.54,0,0,0-.48-1.51,1.48,1.48,0,0,0-1.23-.51,1.54,1.54,0,0,0-.75.18,1.81,1.81,0,0,0-.57.46,2.13,2.13,0,0,0-.37.66,2.57,2.57,0,0,0-.15.78Z"/><path class="cls-5" d="M191.44,75.43a3.4,3.4,0,0,1-.69-.09,1.34,1.34,0,0,1-.5-.27,1.16,1.16,0,0,1-.3-.48,1.92,1.92,0,0,1-.12-.73l-.13-7.68.77-.16.14,7.8a1.42,1.42,0,0,0,.06.46.6.6,0,0,0,.17.27.63.63,0,0,0,.28.15l.42.08Z"/><path class="cls-5" d="M194.76,68.91a2.71,2.71,0,0,1,1,.16,1.67,1.67,0,0,1,.7.47,2,2,0,0,1,.4.71,3.33,3.33,0,0,1,.13.91l.07,3.92-.35.08-.52.1-.67.09c-.24,0-.49,0-.75,0a3.24,3.24,0,0,1-.9-.09,2.12,2.12,0,0,1-.73-.33,1.57,1.57,0,0,1-.49-.59,2.13,2.13,0,0,1-.19-.89,1.7,1.7,0,0,1,.18-.87,1.6,1.6,0,0,1,.53-.6,2.46,2.46,0,0,1,.82-.36,4.77,4.77,0,0,1,1-.13l.35,0a2,2,0,0,1,.36,0l.31,0,.17,0v-.38a4.23,4.23,0,0,0-.05-.63,1.48,1.48,0,0,0-.22-.55,1.22,1.22,0,0,0-.47-.39,1.69,1.69,0,0,0-.77-.13,4,4,0,0,0-1,.11,3.65,3.65,0,0,0-.49.17l-.12-.69a3,3,0,0,1,.63-.19A5.67,5.67,0,0,1,194.76,68.91Zm.17,5.78c.31,0,.57,0,.8,0a5.53,5.53,0,0,0,.58-.09l0-2.18a2.26,2.26,0,0,0-.42-.12,3.51,3.51,0,0,0-.79-.05,4.28,4.28,0,0,0-.6.05,1.54,1.54,0,0,0-.57.19,1.13,1.13,0,0,0-.43.38,1.15,1.15,0,0,0-.16.64,1.47,1.47,0,0,0,.13.59,1,1,0,0,0,.33.38,1.47,1.47,0,0,0,.51.2A2.68,2.68,0,0,0,194.93,74.69Z"/><path class="cls-5" d="M199.72,69.34a3.4,3.4,0,0,1,.65-.34,2.83,2.83,0,0,1,1.06-.19,2.71,2.71,0,0,1,1.2.22,2.42,2.42,0,0,1,.89.65,3,3,0,0,1,.57,1,4.08,4.08,0,0,1,.2,1.3,3.93,3.93,0,0,1-.19,1.36,3,3,0,0,1-.61,1,2.79,2.79,0,0,1-1,.66,3.46,3.46,0,0,1-1.24.24,7.75,7.75,0,0,1-1.37-.08A7.22,7.22,0,0,1,199,75l-.15-9,.77-.16Zm.09,5.1a3.1,3.1,0,0,0,.54.1,5.11,5.11,0,0,0,.93,0,2.12,2.12,0,0,0,1.61-.68,2.66,2.66,0,0,0,.58-1.89,4.29,4.29,0,0,0-.13-1,2.17,2.17,0,0,0-.36-.8,1.68,1.68,0,0,0-.64-.54,2,2,0,0,0-1-.18,2.33,2.33,0,0,0-.53.06,3.1,3.1,0,0,0-.46.15,2.69,2.69,0,0,0-.38.18l-.26.19Z"/><path class="cls-5" d="M211.28,71.87a4.06,4.06,0,0,1-.19,1.34,2.86,2.86,0,0,1-.57,1,2.61,2.61,0,0,1-.88.67,2.75,2.75,0,0,1-3.19-.6,2.88,2.88,0,0,1-.6-1,3.75,3.75,0,0,1-.23-1.33,4,4,0,0,1,.18-1.33,3,3,0,0,1,.57-1,2.61,2.61,0,0,1,.88-.67,2.83,2.83,0,0,1,2.28,0,2.64,2.64,0,0,1,.91.64,2.87,2.87,0,0,1,.6,1A4,4,0,0,1,211.28,71.87Zm-.83,0a2.87,2.87,0,0,0-.57-1.84,1.89,1.89,0,0,0-2.93,0,2.93,2.93,0,0,0-.51,1.86A3,3,0,0,0,207,73.8a1.91,1.91,0,0,0,2.93,0A3,3,0,0,0,210.45,71.89Z"/><path class="cls-5" d="M215,68.58a4.26,4.26,0,0,1,.73,0,2.16,2.16,0,0,1,.47.11l-.14.68a1.23,1.23,0,0,0-.39-.1,4.36,4.36,0,0,0-.78,0,3.49,3.49,0,0,0-.81.09,3,3,0,0,0-.4.12l.1,5.44H213L212.9,69a5.65,5.65,0,0,1,.82-.29A5.13,5.13,0,0,1,215,68.58Z"/><path class="cls-5" d="M219.24,68.48a3,3,0,0,1,1,.16,1.74,1.74,0,0,1,1.09,1.19,3.27,3.27,0,0,1,.14.91l.07,3.91-.35.08-.53.1a5.86,5.86,0,0,1-.66.09,6.28,6.28,0,0,1-.75,0,3.31,3.31,0,0,1-.91-.09,1.84,1.84,0,0,1-.72-.33,1.6,1.6,0,0,1-.5-.59,2,2,0,0,1-.18-.89,1.83,1.83,0,0,1,.17-.87,1.69,1.69,0,0,1,.53-.6,2.55,2.55,0,0,1,.82-.36,4.88,4.88,0,0,1,1.05-.12,2.08,2.08,0,0,1,.35,0l.36,0,.3,0,.18.06v-.39a3.36,3.36,0,0,0-.06-.63,1.39,1.39,0,0,0-.22-.55,1.09,1.09,0,0,0-.46-.38,1.63,1.63,0,0,0-.78-.14,4.68,4.68,0,0,0-1,.11l-.49.17-.12-.68a2.83,2.83,0,0,1,.63-.19A4.92,4.92,0,0,1,219.24,68.48Zm.17,5.79c.3,0,.57,0,.8,0a4,4,0,0,0,.58-.09l0-2.18a2.26,2.26,0,0,0-.42-.12,3.6,3.6,0,0,0-.8,0,4.28,4.28,0,0,0-.6,0,1.91,1.91,0,0,0-.57.19,1.21,1.21,0,0,0-.42.39,1,1,0,0,0-.16.64,1.42,1.42,0,0,0,.12.58.94.94,0,0,0,.33.38,1.55,1.55,0,0,0,.51.2A3.4,3.4,0,0,0,219.41,74.27Z"/><path class="cls-5" d="M29.89,89.43A4,4,0,0,1,30.1,88a3.38,3.38,0,0,1,.59-1,2.51,2.51,0,0,1,1.86-.83,2.31,2.31,0,0,1,1.83.71,3.3,3.3,0,0,1,.72,2.28,1.28,1.28,0,0,1,0,.19,1.09,1.09,0,0,1,0,.18l-4.36.07a2.8,2.8,0,0,0,.6,1.75,2.12,2.12,0,0,0,1.69.58,3.23,3.23,0,0,0,1-.14,3.38,3.38,0,0,0,.54-.21l.15.67a4,4,0,0,1-.62.24,4.26,4.26,0,0,1-1.08.15,3.49,3.49,0,0,1-1.4-.22,2.44,2.44,0,0,1-1-.65,2.81,2.81,0,0,1-.56-1A4.79,4.79,0,0,1,29.89,89.43Zm4.4-.57a2.42,2.42,0,0,0-.49-1.5,1.45,1.45,0,0,0-1.23-.52,1.66,1.66,0,0,0-.75.18,2.06,2.06,0,0,0-.56.46,2.15,2.15,0,0,0-.38.66,2.9,2.9,0,0,0-.14.78Z"/><path class="cls-5" d="M38.35,92.5a2.31,2.31,0,0,1-.69-.09,1.15,1.15,0,0,1-.5-.27,1.11,1.11,0,0,1-.31-.47,2.22,2.22,0,0,1-.11-.74l-.14-7.68.78-.16.13,7.8a1.8,1.8,0,0,0,.07.47.61.61,0,0,0,.16.27.66.66,0,0,0,.29.14,3,3,0,0,0,.41.08Z"/><path class="cls-5" d="M43.19,86.1l2.47,0v.66l-2.47,0,.06,3.3a3.27,3.27,0,0,0,.11.86,1.12,1.12,0,0,0,.26.5.86.86,0,0,0,.41.24,3,3,0,0,0,.53,0,2.31,2.31,0,0,0,.79-.13,3,3,0,0,0,.47-.22L46,92a2.62,2.62,0,0,1-.58.25,2.94,2.94,0,0,1-.91.16,2.73,2.73,0,0,1-1-.14,1.36,1.36,0,0,1-.63-.44,1.91,1.91,0,0,1-.35-.76A6.32,6.32,0,0,1,42.48,90l-.1-5.71.78-.16Z"/><path class="cls-5" d="M46.72,89.14a4.14,4.14,0,0,1,.21-1.43,3,3,0,0,1,.6-1,2.3,2.3,0,0,1,.85-.62,2.69,2.69,0,0,1,1-.22,2.37,2.37,0,0,1,1.83.71,3.34,3.34,0,0,1,.72,2.28V89c0,.07,0,.13,0,.18l-4.36.08a2.74,2.74,0,0,0,.6,1.74,2.12,2.12,0,0,0,1.69.59,3.71,3.71,0,0,0,1-.14,4.82,4.82,0,0,0,.53-.22l.16.67a2.76,2.76,0,0,1-.63.24,3.48,3.48,0,0,1-1.08.15,3.69,3.69,0,0,1-1.4-.21,2.62,2.62,0,0,1-1-.66,2.54,2.54,0,0,1-.55-1A4.85,4.85,0,0,1,46.72,89.14Zm4.4-.57a2.54,2.54,0,0,0-.48-1.51,1.71,1.71,0,0,0-2-.33,1.81,1.81,0,0,0-.57.46,1.94,1.94,0,0,0-.37.66,2.57,2.57,0,0,0-.15.78Z"/><path class="cls-5" d="M55.55,89.47c-.18.21-.35.43-.52.66l-.5.69c-.16.23-.3.46-.43.69s-.24.44-.33.61l-.81,0a16.64,16.64,0,0,1,1-1.72c.37-.52.74-1,1.13-1.54L53,85.93h.91l1.66,2.32,1.58-2.38.85,0-2,3,.57.7c.21.26.41.52.61.79s.4.56.6.85.36.58.52.87l-.84,0a5.59,5.59,0,0,0-.35-.58c-.14-.21-.3-.42-.47-.65s-.34-.46-.53-.69S55.72,89.68,55.55,89.47Z"/><path class="cls-5" d="M60.18,85.81l2.47,0v.66l-2.47,0,.06,3.3a3.73,3.73,0,0,0,.1.85,1.36,1.36,0,0,0,.27.51.84.84,0,0,0,.41.23,2.22,2.22,0,0,0,.53,0,2.13,2.13,0,0,0,.79-.13,3,3,0,0,0,.47-.22l.2.65a3.42,3.42,0,0,1-.58.26,3.27,3.27,0,0,1-.91.15,2.74,2.74,0,0,1-1-.13,1.46,1.46,0,0,1-.63-.45,1.86,1.86,0,0,1-.35-.75,5.62,5.62,0,0,1-.11-1.08L59.37,84l.78-.16Z"/><path class="cls-5" d="M69.34,88.75a4.06,4.06,0,0,1-.18,1.34,3,3,0,0,1-.58,1,2.52,2.52,0,0,1-.88.67,2.64,2.64,0,0,1-1.13.25,2.71,2.71,0,0,1-1.15-.21,2.6,2.6,0,0,1-.9-.64,3,3,0,0,1-.61-1,4,4,0,0,1-.23-1.33,3.79,3.79,0,0,1,.19-1.33,3,3,0,0,1,.57-1,2.52,2.52,0,0,1,.88-.67,2.8,2.8,0,0,1,1.13-.26,2.88,2.88,0,0,1,1.15.22,2.6,2.6,0,0,1,.9.64,3,3,0,0,1,.61,1A3.93,3.93,0,0,1,69.34,88.75Zm-.83,0a2.92,2.92,0,0,0-.57-1.85A1.9,1.9,0,0,0,65,87a3.47,3.47,0,0,0,.07,3.7,1.77,1.77,0,0,0,1.47.66A1.79,1.79,0,0,0,68,90.63,2.91,2.91,0,0,0,68.51,88.77Z"/><path class="cls-5" d="M75.94,82.42a3.67,3.67,0,0,1,.82.07,1.74,1.74,0,0,1,.42.13l-.14.67a2.2,2.2,0,0,0-.4-.12,2.48,2.48,0,0,0-.65,0,1.46,1.46,0,0,0-1.18.44,2.07,2.07,0,0,0-.33,1.35v.65l2.5,0v.66l-2.49,0,.09,5.54h-.78L73.7,84.9a2.65,2.65,0,0,1,.53-1.84A2.24,2.24,0,0,1,75.94,82.42Zm3.21,1.18a.58.58,0,0,1-1,.46.56.56,0,0,1-.18-.44.6.6,0,0,1,.16-.44.61.61,0,0,1,.41-.17.57.57,0,0,1,.41.16A.56.56,0,0,1,79.15,83.6Zm0,8.08h-.78l-.1-6.2H79Z"/><path class="cls-5" d="M81,85.66c.23-.07.54-.15.93-.23a7.08,7.08,0,0,1,1.44-.15,3,3,0,0,1,1.19.18,1.91,1.91,0,0,1,.76.57,2.5,2.5,0,0,1,.42.9,5.19,5.19,0,0,1,.14,1.16l.06,3.47-.78,0-.06-3.22A5.11,5.11,0,0,0,85,87.24a1.68,1.68,0,0,0-.31-.73,1.16,1.16,0,0,0-.56-.41,2.64,2.64,0,0,0-.86-.11,6.25,6.25,0,0,0-1,.08,3,3,0,0,0-.52.11l.1,5.45-.78,0Z"/><path class="cls-5" d="M89.61,85.15a2.72,2.72,0,0,1,1,.15,1.88,1.88,0,0,1,.7.47,1.8,1.8,0,0,1,.39.72,3.27,3.27,0,0,1,.14.91L92,91.31l-.35.09-.52.1-.67.08c-.24,0-.49,0-.75,0a4.32,4.32,0,0,1-.91-.09,2.16,2.16,0,0,1-.72-.33,1.57,1.57,0,0,1-.49-.59,2,2,0,0,1-.19-.89,1.7,1.7,0,0,1,.18-.87,1.63,1.63,0,0,1,.53-.61,2.19,2.19,0,0,1,.82-.35,4.77,4.77,0,0,1,1-.13h.35l.36,0,.3.06a.69.69,0,0,1,.18.05v-.38a3.21,3.21,0,0,0-.06-.63,1.16,1.16,0,0,0-.22-.55,1.18,1.18,0,0,0-.46-.39,1.86,1.86,0,0,0-.77-.14,3.92,3.92,0,0,0-1,.12l-.49.16L88,85.44a2.56,2.56,0,0,1,.62-.19A5.89,5.89,0,0,1,89.61,85.15Zm.17,5.78.8,0,.58-.09,0-2.19-.42-.12a4.22,4.22,0,0,0-.79,0,4.07,4.07,0,0,0-.6.06,1.65,1.65,0,0,0-.58.19,1.18,1.18,0,0,0-.42.38,1.13,1.13,0,0,0-.16.64,1.47,1.47,0,0,0,.13.59.91.91,0,0,0,.33.37,1.33,1.33,0,0,0,.5.21A3.45,3.45,0,0,0,89.78,90.93Z"/><path class="cls-5" d="M95.46,91.5a2.43,2.43,0,0,1-.7-.09,1.16,1.16,0,0,1-.49-.26,1.08,1.08,0,0,1-.31-.48,2.16,2.16,0,0,1-.11-.73l-.14-7.68.78-.16.13,7.8a1.78,1.78,0,0,0,.07.46.56.56,0,0,0,.16.27.67.67,0,0,0,.29.15,3.14,3.14,0,0,0,.41.07Z"/><path class="cls-5" d="M104.61,91a6.31,6.31,0,0,1-.89.25,7,7,0,0,1-1.36.13,3.32,3.32,0,0,1-1.25-.2,2.63,2.63,0,0,1-1-.63,2.82,2.82,0,0,1-.64-1,3.73,3.73,0,0,1-.25-1.35,4.17,4.17,0,0,1,.17-1.3,2.91,2.91,0,0,1,.52-1,2.51,2.51,0,0,1,.87-.68,2.82,2.82,0,0,1,1.19-.27,3.13,3.13,0,0,1,1.07.16,2.89,2.89,0,0,1,.66.32l-.06-3.34.78-.16Zm-.87-4.87-.27-.17a2.7,2.7,0,0,0-.38-.17,2.52,2.52,0,0,0-.47-.13,2.32,2.32,0,0,0-.53,0,2.06,2.06,0,0,0-1,.22,1.8,1.8,0,0,0-.63.56,2.46,2.46,0,0,0-.33.81,3.89,3.89,0,0,0-.09,1,2.67,2.67,0,0,0,.64,1.87,2.16,2.16,0,0,0,1.64.62,6.78,6.78,0,0,0,.92-.07,3.82,3.82,0,0,0,.54-.12Z"/><path class="cls-5" d="M106.22,88.1a3.92,3.92,0,0,1,.21-1.43,3.09,3.09,0,0,1,.6-1,2.33,2.33,0,0,1,.85-.62,2.64,2.64,0,0,1,1-.22,2.37,2.37,0,0,1,1.83.71,3.34,3.34,0,0,1,.72,2.28,1.34,1.34,0,0,1,0,.2,1.09,1.09,0,0,1,0,.18l-4.36.07a2.74,2.74,0,0,0,.6,1.74,2.09,2.09,0,0,0,1.69.59,3.71,3.71,0,0,0,1-.14,5.26,5.26,0,0,0,.53-.21l.16.67a3.54,3.54,0,0,1-.63.23,3.84,3.84,0,0,1-1.08.16,3.88,3.88,0,0,1-1.4-.22,2.36,2.36,0,0,1-1-.66,2.69,2.69,0,0,1-.56-1A4.85,4.85,0,0,1,106.22,88.1Zm4.4-.57a2.48,2.48,0,0,0-.48-1.5,1.69,1.69,0,0,0-2-.34,1.81,1.81,0,0,0-.57.46,2.15,2.15,0,0,0-.38.66,2.9,2.9,0,0,0-.14.78Z"/><path class="cls-5" d="M117.53,91.12a2.82,2.82,0,0,1-.69-.09,1.34,1.34,0,0,1-.5-.27,1.19,1.19,0,0,1-.3-.47,2.2,2.2,0,0,1-.12-.74l-.13-7.68.77-.16.14,7.8a1.42,1.42,0,0,0,.06.46.7.7,0,0,0,.17.28.74.74,0,0,0,.28.14,3.51,3.51,0,0,0,.42.08Z"/><path class="cls-5" d="M120.85,84.6a2.88,2.88,0,0,1,1,.16,1.77,1.77,0,0,1,.7.47,2,2,0,0,1,.4.72,3.22,3.22,0,0,1,.13.91l.07,3.91-.34.08-.53.1a5.74,5.74,0,0,1-.67.09c-.24,0-.49,0-.75,0A3.24,3.24,0,0,1,120,91a2.12,2.12,0,0,1-.73-.33,1.57,1.57,0,0,1-.49-.59,2.13,2.13,0,0,1-.19-.89,1.8,1.8,0,0,1,.18-.87,1.6,1.6,0,0,1,.53-.6,2.46,2.46,0,0,1,.82-.36,4.86,4.86,0,0,1,1-.12,2.22,2.22,0,0,1,.36,0l.36,0,.3,0,.17,0V87q0-.31-.06-.63a1.55,1.55,0,0,0-.22-.55,1.12,1.12,0,0,0-.47-.38,1.56,1.56,0,0,0-.77-.14,4.53,4.53,0,0,0-1,.11l-.49.17-.12-.68a2.67,2.67,0,0,1,.63-.19A4.82,4.82,0,0,1,120.85,84.6Zm.17,5.78a6.27,6.27,0,0,0,.8,0,3.74,3.74,0,0,0,.58-.09l0-2.18a1.86,1.86,0,0,0-.42-.12,3.46,3.46,0,0,0-.79,0,4.28,4.28,0,0,0-.6,0,1.74,1.74,0,0,0-.57.19,1.15,1.15,0,0,0-.43.39,1,1,0,0,0-.15.64,1.28,1.28,0,0,0,.12.58.94.94,0,0,0,.33.38,1.47,1.47,0,0,0,.51.2A2.73,2.73,0,0,0,121,90.38Z"/><path class="cls-5" d="M126.4,90.3a2.4,2.4,0,0,0,1.11-.24.76.76,0,0,0,.42-.76,1.14,1.14,0,0,0-.08-.43,1,1,0,0,0-.27-.32,2.11,2.11,0,0,0-.48-.26l-.73-.3c-.23-.09-.45-.19-.66-.29a2.36,2.36,0,0,1-.56-.33,1.61,1.61,0,0,1-.39-.47,1.5,1.5,0,0,1-.16-.67,1.49,1.49,0,0,1,.55-1.23,2.37,2.37,0,0,1,1.56-.5,4,4,0,0,1,1.05.09,3.77,3.77,0,0,1,.58.18l-.16.7a3.37,3.37,0,0,0-.49-.18,3.07,3.07,0,0,0-1-.1,1.93,1.93,0,0,0-.49.06,1.6,1.6,0,0,0-.42.17,1,1,0,0,0-.28.3.81.81,0,0,0-.1.43,1,1,0,0,0,.1.43,1.06,1.06,0,0,0,.29.31,2.79,2.79,0,0,0,.46.25l.62.25.7.28a3.06,3.06,0,0,1,.59.35,1.64,1.64,0,0,1,.41.5,1.68,1.68,0,0,1-.43,2,3.05,3.05,0,0,1-1.72.46,4.2,4.2,0,0,1-1.25-.12,3.54,3.54,0,0,1-.58-.2l.19-.71.16.08.33.11a3.85,3.85,0,0,0,.48.11A4.44,4.44,0,0,0,126.4,90.3Z"/><path class="cls-5" d="M132.9,84.75l.94-.23a7.12,7.12,0,0,1,1.43-.14,3,3,0,0,1,1.19.18,1.85,1.85,0,0,1,.77.57,2.26,2.26,0,0,1,.41.9,4.61,4.61,0,0,1,.14,1.16l.06,3.47h-.78L137,87.45a6.48,6.48,0,0,0-.11-1.11,1.86,1.86,0,0,0-.32-.74,1.16,1.16,0,0,0-.55-.4,2.43,2.43,0,0,0-.86-.11,6.52,6.52,0,0,0-1,.07,4.24,4.24,0,0,0-.52.12l.1,5.45H133Z"/><path class="cls-5" d="M145.05,87.43a4.06,4.06,0,0,1-.19,1.34,3,3,0,0,1-.57,1,2.75,2.75,0,0,1-.88.67,2.8,2.8,0,0,1-1.14.25,2.69,2.69,0,0,1-1.14-.21,2.64,2.64,0,0,1-.91-.64,3,3,0,0,1-.6-1,3.75,3.75,0,0,1-.23-1.33,4,4,0,0,1,.18-1.33,2.91,2.91,0,0,1,.57-1,2.61,2.61,0,0,1,.88-.67,2.69,2.69,0,0,1,1.14-.26,2.71,2.71,0,0,1,2.05.86,3,3,0,0,1,.61,1A4.19,4.19,0,0,1,145.05,87.43Zm-.83,0a2.92,2.92,0,0,0-.57-1.85,1.91,1.91,0,0,0-2.93.05,3.46,3.46,0,0,0,.06,3.71,1.92,1.92,0,0,0,2.93-.06A2.92,2.92,0,0,0,144.22,87.45Z"/><path class="cls-5" d="M147.38,84.28l2.47,0v.66l-2.47,0,.06,3.3a3.22,3.22,0,0,0,.11.86,1.22,1.22,0,0,0,.26.51.93.93,0,0,0,.41.23,2.27,2.27,0,0,0,.53,0,2.36,2.36,0,0,0,.79-.13,3,3,0,0,0,.47-.22l.2.65a2.87,2.87,0,0,1-.58.25,2.94,2.94,0,0,1-.91.16,2.73,2.73,0,0,1-1-.14,1.36,1.36,0,0,1-.63-.44,1.85,1.85,0,0,1-.35-.76,5.45,5.45,0,0,1-.11-1.08l-.1-5.71.78-.15Z"/><path class="cls-5" d="M152.29,82.33a.56.56,0,0,1-.16.44.59.59,0,0,1-.4.17.56.56,0,0,1-.41-.16.54.54,0,0,1-.18-.43.58.58,0,0,1,.16-.44.61.61,0,0,1,.82,0A.59.59,0,0,1,152.29,82.33Zm0,8.07-.78,0-.1-6.21h.78Z"/><path class="cls-5" d="M156.83,90.46a3.41,3.41,0,0,1-1.28-.21,2.35,2.35,0,0,1-.93-.64,2.77,2.77,0,0,1-.57-1,4.13,4.13,0,0,1-.22-1.31A4,4,0,0,1,154,86a2.85,2.85,0,0,1,.55-1,2.61,2.61,0,0,1,.89-.68,2.92,2.92,0,0,1,1.18-.25,4,4,0,0,1,.94.07,2.42,2.42,0,0,1,.68.2l-.19.68a2.63,2.63,0,0,0-.54-.19,3.7,3.7,0,0,0-.81,0,1.89,1.89,0,0,0-1.55.69,2.9,2.9,0,0,0-.5,1.9,3.57,3.57,0,0,0,.14,1,1.93,1.93,0,0,0,.4.78,1.82,1.82,0,0,0,.7.51,2.75,2.75,0,0,0,1,.17,2.85,2.85,0,0,0,.84-.13,2.8,2.8,0,0,0,.49-.21l.18.67a3.32,3.32,0,0,1-.67.25A4.36,4.36,0,0,1,156.83,90.46Z"/><path class="cls-5" d="M160.59,82.18a.57.57,0,0,1-.56.61.62.62,0,0,1-.43-1,.57.57,0,0,1,.41-.17.57.57,0,0,1,.41.16A.56.56,0,0,1,160.59,82.18Zm0,8.08h-.78l-.11-6.2h.78Z"/><path class="cls-5" d="M164.26,83.85a2.69,2.69,0,0,1,1,.15,1.77,1.77,0,0,1,.7.47,2,2,0,0,1,.4.72,3.28,3.28,0,0,1,.13.91L166.6,90a2.7,2.7,0,0,1-.35.08l-.52.1a5.74,5.74,0,0,1-.67.09c-.24,0-.49,0-.75,0a3.65,3.65,0,0,1-.9-.1,1.81,1.81,0,0,1-.73-.33,1.57,1.57,0,0,1-.49-.59,2.13,2.13,0,0,1-.19-.89,1.72,1.72,0,0,1,.18-.87,1.6,1.6,0,0,1,.53-.6,2.46,2.46,0,0,1,.82-.36,5.5,5.5,0,0,1,1-.12h.35l.36,0,.31.06a.43.43,0,0,1,.17,0v-.39a4.21,4.21,0,0,0-.05-.62,1.41,1.41,0,0,0-.22-.55,1.12,1.12,0,0,0-.47-.39,1.68,1.68,0,0,0-.77-.14,3.92,3.92,0,0,0-1,.12,4,4,0,0,0-.49.16l-.12-.68a2.52,2.52,0,0,1,.63-.19A4.88,4.88,0,0,1,164.26,83.85Zm.17,5.78c.31,0,.57,0,.8,0a5.83,5.83,0,0,0,.58-.08l0-2.19a2.26,2.26,0,0,0-.42-.12,3.51,3.51,0,0,0-.79,0,4.28,4.28,0,0,0-.6,0,2,2,0,0,0-.57.19,1.24,1.24,0,0,0-.43.39,1.1,1.1,0,0,0-.16.64,1.42,1.42,0,0,0,.13.58.94.94,0,0,0,.33.38,1.3,1.3,0,0,0,.51.2A3.23,3.23,0,0,0,164.43,89.63Z"/><path class="cls-5" d="M169.81,89.55a2.35,2.35,0,0,0,1.1-.25.76.76,0,0,0,.43-.75.94.94,0,0,0-.09-.43.79.79,0,0,0-.26-.32,1.78,1.78,0,0,0-.48-.27l-.73-.3-.66-.28a2.78,2.78,0,0,1-.56-.34,1.5,1.5,0,0,1-.4-.47,1.47,1.47,0,0,1-.15-.67,1.49,1.49,0,0,1,.55-1.23,2.42,2.42,0,0,1,1.56-.5,5.13,5.13,0,0,1,1,.09,3,3,0,0,1,.58.19l-.17.69-.48-.18a3.07,3.07,0,0,0-1-.1,2,2,0,0,0-.5.06,1.38,1.38,0,0,0-.41.18.78.78,0,0,0-.28.29.83.83,0,0,0-.1.43.94.94,0,0,0,.1.43,1.06,1.06,0,0,0,.29.31,2.21,2.21,0,0,0,.46.25l.62.25.7.29a2.6,2.6,0,0,1,.59.34,1.64,1.64,0,0,1,.41.5,1.5,1.5,0,0,1,.17.74,1.43,1.43,0,0,1-.61,1.28,2.92,2.92,0,0,1-1.71.46,4.63,4.63,0,0,1-1.25-.11c-.29-.09-.48-.16-.58-.2l.19-.72.16.08.33.11a2.45,2.45,0,0,0,.48.11A4.33,4.33,0,0,0,169.81,89.55Z"/><path class="cls-5" d="M174.68,88.87a1.54,1.54,0,0,1,0,.19v.15a4.57,4.57,0,0,1-.19,1.43,5,5,0,0,1-.56,1.29l-.58-.25a3.78,3.78,0,0,0,.37-1.12,6.78,6.78,0,0,0,.1-1.2c0-.1,0-.18,0-.24a1.52,1.52,0,0,1,0-.23Z"/><path class="cls-5" d="M179.05,86.83a3.92,3.92,0,0,1,.21-1.43,3.15,3.15,0,0,1,.59-1,2.45,2.45,0,0,1,.86-.62,2.64,2.64,0,0,1,1-.22,2.4,2.4,0,0,1,1.84.71,3.29,3.29,0,0,1,.71,2.28v.19c0,.07,0,.13,0,.19l-4.36.07a2.74,2.74,0,0,0,.6,1.74,2.11,2.11,0,0,0,1.69.59,3.57,3.57,0,0,0,1-.14,4.38,4.38,0,0,0,.54-.22l.15.67a2.83,2.83,0,0,1-.62.24,3.54,3.54,0,0,1-1.09.15,3.67,3.67,0,0,1-1.39-.21,2.36,2.36,0,0,1-1-.66,2.69,2.69,0,0,1-.56-1A4.85,4.85,0,0,1,179.05,86.83Zm4.4-.57a2.47,2.47,0,0,0-.49-1.51,1.47,1.47,0,0,0-1.23-.51,1.54,1.54,0,0,0-.75.18,1.93,1.93,0,0,0-.57.46,2.13,2.13,0,0,0-.37.66,2.57,2.57,0,0,0-.15.78Z"/><path class="cls-5" d="M187.5,89.9a3.4,3.4,0,0,1-.69-.09,1.29,1.29,0,0,1-.49-.27,1.11,1.11,0,0,1-.31-.47,2.54,2.54,0,0,1-.12-.74l-.13-7.68.78-.16.13,7.8a1.71,1.71,0,0,0,.07.46.59.59,0,0,0,.16.28.71.71,0,0,0,.29.14,3,3,0,0,0,.41.08Z"/><path class="cls-5" d="M193.61,81l-2,1.7-.4-.45,1.86-1.86Zm-1.1,8.68-.78,0-.11-6.21h.78Z"/><path class="cls-5" d="M194.41,83.68c.23-.07.54-.15.93-.23a7.08,7.08,0,0,1,1.44-.15,3,3,0,0,1,1.18.19,1.92,1.92,0,0,1,.77.56,2.33,2.33,0,0,1,.41.9,4.69,4.69,0,0,1,.14,1.17l.07,3.46-.78,0-.06-3.22a6.48,6.48,0,0,0-.11-1.11,1.94,1.94,0,0,0-.31-.74,1.21,1.21,0,0,0-.56-.41,2.68,2.68,0,0,0-.86-.11,6.4,6.4,0,0,0-1,.08,3.22,3.22,0,0,0-.52.11l.1,5.45-.78,0Z"/><path class="cls-5" d="M206.24,89.27a6.68,6.68,0,0,1-.88.24,7.05,7.05,0,0,1-1.37.14,3.56,3.56,0,0,1-1.25-.2,2.85,2.85,0,0,1-1-.63,3.06,3.06,0,0,1-.64-1,4.06,4.06,0,0,1-.24-1.35,4.24,4.24,0,0,1,.16-1.31,3,3,0,0,1,.53-1,2.47,2.47,0,0,1,.87-.69,2.93,2.93,0,0,1,1.19-.26,2.69,2.69,0,0,1,1.06.16,3,3,0,0,1,.66.31l-.06-3.33.78-.16Zm-.87-4.87-.27-.18a2.27,2.27,0,0,0-.38-.17,2.91,2.91,0,0,0-.47-.13,2.28,2.28,0,0,0-.53,0,2,2,0,0,0-1,.22,1.66,1.66,0,0,0-.62.55,2.16,2.16,0,0,0-.33.81,4.46,4.46,0,0,0-.1,1,2.66,2.66,0,0,0,.65,1.87,2.11,2.11,0,0,0,1.63.63,7.09,7.09,0,0,0,.93-.07,2.71,2.71,0,0,0,.53-.13Z"/><path class="cls-5" d="M209.07,81.33a.57.57,0,0,1-.57.62.56.56,0,0,1-.41-.16.63.63,0,0,1-.18-.43.61.61,0,0,1,.16-.45.56.56,0,0,1,.41-.16.51.51,0,0,1,.41.15A.63.63,0,0,1,209.07,81.33Zm0,8.08-.78,0-.11-6.21h.78Z"/><path class="cls-5" d="M213.6,89.47a3.35,3.35,0,0,1-1.27-.21,2.31,2.31,0,0,1-.93-.64,2.79,2.79,0,0,1-.58-1,4.14,4.14,0,0,1-.21-1.31,4.29,4.29,0,0,1,.17-1.33,3.18,3.18,0,0,1,.55-1,2.71,2.71,0,0,1,.89-.68A3,3,0,0,1,213.4,83a4.17,4.17,0,0,1,.95.07,2.21,2.21,0,0,1,.68.2l-.19.67a3.55,3.55,0,0,0-.55-.18,3.65,3.65,0,0,0-.8,0,1.89,1.89,0,0,0-1.56.69,3,3,0,0,0-.5,1.9,4.48,4.48,0,0,0,.14,1,2.06,2.06,0,0,0,.4.78,1.85,1.85,0,0,0,.71.51,2.53,2.53,0,0,0,1,.16,2.49,2.49,0,0,0,.84-.12,3,3,0,0,0,.5-.21l.18.67a3,3,0,0,1-.68.24A3.71,3.71,0,0,1,213.6,89.47Z"/><path class="cls-5" d="M216,86.18a3.86,3.86,0,0,1,.21-1.42,3.14,3.14,0,0,1,.6-1,2.45,2.45,0,0,1,.85-.62,2.49,2.49,0,0,1,1-.21,2.31,2.31,0,0,1,1.83.71,3.34,3.34,0,0,1,.72,2.28,1.21,1.21,0,0,1,0,.19,1.09,1.09,0,0,1,0,.18l-4.36.08a2.74,2.74,0,0,0,.6,1.74,2.12,2.12,0,0,0,1.69.58,3.35,3.35,0,0,0,1-.14,3.6,3.6,0,0,0,.53-.21l.16.67a2.76,2.76,0,0,1-.63.24,4.26,4.26,0,0,1-1.08.15,3.49,3.49,0,0,1-1.4-.22,2.51,2.51,0,0,1-1-.65,2.58,2.58,0,0,1-.55-1A4.73,4.73,0,0,1,216,86.18Zm4.4-.57a2.5,2.5,0,0,0-.48-1.5,1.48,1.48,0,0,0-1.24-.52,1.72,1.72,0,0,0-.74.18,2,2,0,0,0-.57.46,2.15,2.15,0,0,0-.38.66,2.91,2.91,0,0,0-.14.79Z"/><path class="cls-5" d="M227.43,89.22c-.27-.48-.53-1-.78-1.51s-.49-1-.71-1.59-.43-1.07-.62-1.61-.34-1.06-.48-1.58h.83q.14.57.36,1.23c.14.45.3.9.48,1.37s.38,1,.59,1.44.46,1,.71,1.45q.25-.73.45-1.41t.36-1.32c.11-.43.21-.88.31-1.34s.21-1,.31-1.48l.78,0c-.24,1.17-.51,2.3-.82,3.4a26.21,26.21,0,0,1-1,3,5.9,5.9,0,0,1-.45.94,2.68,2.68,0,0,1-.53.65,1.82,1.82,0,0,1-.68.38,3,3,0,0,1-.91.14,2.26,2.26,0,0,1-.55-.06,1.34,1.34,0,0,1-.31-.11l.14-.65a.78.78,0,0,0,.27.1,1.84,1.84,0,0,0,.47.06,2.72,2.72,0,0,0,.6-.08,1.54,1.54,0,0,0,.49-.26,1.89,1.89,0,0,0,.38-.45A4,4,0,0,0,227.43,89.22Z"/><path class="cls-5" d="M32.14,107a2.4,2.4,0,0,1-.69-.09,1.11,1.11,0,0,1-.5-.27,1.19,1.19,0,0,1-.3-.47,2.2,2.2,0,0,1-.12-.74l-.13-7.68.77-.15.14,7.8a1.47,1.47,0,0,0,.06.46.73.73,0,0,0,.17.27.62.62,0,0,0,.28.14,3.51,3.51,0,0,0,.42.08Z"/><path class="cls-5" d="M38.75,103.69a4.38,4.38,0,0,1-.19,1.34,3,3,0,0,1-.57,1,2.9,2.9,0,0,1-.88.67A2.8,2.8,0,0,1,36,107a2.64,2.64,0,0,1-1.14-.21,2.78,2.78,0,0,1-.91-.64,3,3,0,0,1-.6-1,4,4,0,0,1-.24-1.33,4.1,4.1,0,0,1,.19-1.34,3,3,0,0,1,.57-1,2.6,2.6,0,0,1,2-.93,2.62,2.62,0,0,1,2,.86,3.08,3.08,0,0,1,.6,1A4,4,0,0,1,38.75,103.69Zm-.83,0a3,3,0,0,0-.57-1.85,1.91,1.91,0,0,0-2.93,0,3,3,0,0,0-.51,1.87,2.91,2.91,0,0,0,.57,1.84,1.79,1.79,0,0,0,1.48.65,1.75,1.75,0,0,0,1.45-.71A2.92,2.92,0,0,0,37.92,103.71Z"/><path class="cls-5" d="M41.74,106.18a2.4,2.4,0,0,0,1.11-.24.76.76,0,0,0,.42-.76,1.14,1.14,0,0,0-.08-.43,1,1,0,0,0-.27-.32,2.11,2.11,0,0,0-.48-.26c-.19-.09-.44-.19-.73-.3l-.66-.28a2.78,2.78,0,0,1-.56-.34,1.61,1.61,0,0,1-.39-.47,1.59,1.59,0,0,1,.39-1.9,2.39,2.39,0,0,1,1.56-.5,4,4,0,0,1,1.05.09,4.44,4.44,0,0,1,.59.18l-.17.7c-.1,0-.26-.11-.49-.18a3.07,3.07,0,0,0-1-.1,1.93,1.93,0,0,0-.49.06,1.41,1.41,0,0,0-.41.17.92.92,0,0,0-.29.3.81.81,0,0,0-.1.43.94.94,0,0,0,.11.43.91.91,0,0,0,.28.31,2.21,2.21,0,0,0,.46.25l.63.25.69.28a3.06,3.06,0,0,1,.59.35,1.83,1.83,0,0,1,.42.5,1.72,1.72,0,0,1,.17.74,1.46,1.46,0,0,1-.61,1.28,3.05,3.05,0,0,1-1.72.46,4.2,4.2,0,0,1-1.25-.12,3.54,3.54,0,0,1-.58-.2l.2-.71.15.08.33.11a4,4,0,0,0,.49.11A4.3,4.3,0,0,0,41.74,106.18Z"/><path class="cls-5" d="M50.92,106.71a3.22,3.22,0,0,1-1.28-.21,2.25,2.25,0,0,1-.92-.64,2.79,2.79,0,0,1-.58-1,4.13,4.13,0,0,1-.22-1.31,4.32,4.32,0,0,1,.18-1.33,3,3,0,0,1,.55-1,2.52,2.52,0,0,1,.89-.69,3,3,0,0,1,1.18-.25,4.83,4.83,0,0,1,1,.07,2.53,2.53,0,0,1,.68.2l-.19.68a3,3,0,0,0-.55-.19,3.65,3.65,0,0,0-.8,0,1.89,1.89,0,0,0-1.56.69,3,3,0,0,0-.5,1.9,4,4,0,0,0,.14,1,2.18,2.18,0,0,0,.4.79,1.94,1.94,0,0,0,.71.5,2.67,2.67,0,0,0,1,.17,2.74,2.74,0,0,0,.84-.13,3,3,0,0,0,.5-.21l.18.67a3.46,3.46,0,0,1-.68.25A4.2,4.2,0,0,1,50.92,106.71Z"/><path class="cls-5" d="M55.87,100.16a5.58,5.58,0,0,1,.73,0,3.35,3.35,0,0,1,.47.11l-.14.68a2.56,2.56,0,0,0-.39-.1,5.57,5.57,0,0,0-.78,0A4.14,4.14,0,0,0,55,101a1.83,1.83,0,0,0-.4.13l.1,5.43h-.78l-.1-5.91a4.77,4.77,0,0,1,.82-.28A5.09,5.09,0,0,1,55.87,100.16Z"/><path class="cls-5" d="M57.81,103.35a3.92,3.92,0,0,1,.21-1.43,3.15,3.15,0,0,1,.59-1,2.48,2.48,0,0,1,.86-.63,2.84,2.84,0,0,1,1-.21,2.35,2.35,0,0,1,1.83.71,3.29,3.29,0,0,1,.71,2.28v.19c0,.07,0,.13,0,.18l-4.36.08a2.74,2.74,0,0,0,.6,1.74,2.07,2.07,0,0,0,1.69.58,3.27,3.27,0,0,0,1-.13,4.38,4.38,0,0,0,.54-.22l.15.67a2.83,2.83,0,0,1-.62.24,3.54,3.54,0,0,1-1.09.15,3.67,3.67,0,0,1-1.39-.21,2.46,2.46,0,0,1-1-.66,2.69,2.69,0,0,1-.56-1A4.85,4.85,0,0,1,57.81,103.35Zm4.39-.57a2.41,2.41,0,0,0-.48-1.51,1.5,1.5,0,0,0-1.23-.52,1.67,1.67,0,0,0-.75.19,1.81,1.81,0,0,0-.57.46,2.13,2.13,0,0,0-.37.66,2.57,2.57,0,0,0-.15.78Zm-.13-5.06-2,1.7L59.64,99l1.87-1.86Z"/><path class="cls-5" d="M69.73,106.05a6.31,6.31,0,0,1-.89.25,7,7,0,0,1-1.36.13,3.35,3.35,0,0,1-1.25-.2,2.73,2.73,0,0,1-1-.62,3,3,0,0,1-.64-1,3.83,3.83,0,0,1-.25-1.36,4.49,4.49,0,0,1,.17-1.3,3,3,0,0,1,.52-1,2.51,2.51,0,0,1,.87-.68,2.7,2.7,0,0,1,1.19-.26,2.92,2.92,0,0,1,1.73.47l-.06-3.34.78-.15Zm-.87-4.86a1.58,1.58,0,0,0-.27-.18,2.7,2.7,0,0,0-.38-.17,2.9,2.9,0,0,0-1-.18,2.09,2.09,0,0,0-1,.22,1.68,1.68,0,0,0-.62.56,2.28,2.28,0,0,0-.34.81,5.18,5.18,0,0,0-.09,1,2.66,2.66,0,0,0,.65,1.87,2.09,2.09,0,0,0,1.63.62,7.09,7.09,0,0,0,.93-.07,4,4,0,0,0,.53-.12Z"/><path class="cls-5" d="M72.55,98.12a.57.57,0,0,1-.56.61.59.59,0,0,1-.41-.15.56.56,0,0,1-.18-.44.6.6,0,0,1,.16-.44.57.57,0,0,1,.41-.17.57.57,0,0,1,.41.16A.56.56,0,0,1,72.55,98.12Zm0,8.08h-.78l-.1-6.2.78,0Z"/><path class="cls-5" d="M75.13,100l2.47,0v.66l-2.47,0,.06,3.3a3.66,3.66,0,0,0,.1.85,1.36,1.36,0,0,0,.27.51.73.73,0,0,0,.41.23,1.8,1.8,0,0,0,.53,0,2.13,2.13,0,0,0,.79-.13,3.72,3.72,0,0,0,.47-.21l.2.64a2.77,2.77,0,0,1-.58.26,3,3,0,0,1-.91.15,2.74,2.74,0,0,1-1-.13,1.4,1.4,0,0,1-.63-.45,1.86,1.86,0,0,1-.35-.75,4.92,4.92,0,0,1-.11-1.08l-.1-5.71L75.1,98Z"/><path class="cls-5" d="M84.3,102.9a4,4,0,0,1-.18,1.33,3.2,3.2,0,0,1-.57,1,2.68,2.68,0,0,1-2,.92,2.71,2.71,0,0,1-1.15-.21,2.6,2.6,0,0,1-.9-.64,2.9,2.9,0,0,1-.61-1,3.93,3.93,0,0,1-.23-1.32,3.81,3.81,0,0,1,.19-1.34,3,3,0,0,1,.57-1,2.52,2.52,0,0,1,.88-.67,2.8,2.8,0,0,1,1.13-.26,2.88,2.88,0,0,1,1.15.22,2.6,2.6,0,0,1,.9.64,3,3,0,0,1,.61,1A4,4,0,0,1,84.3,102.9Zm-.83,0a2.87,2.87,0,0,0-.57-1.84,1.75,1.75,0,0,0-1.47-.67,1.77,1.77,0,0,0-1.46.72,3.47,3.47,0,0,0,.07,3.7,1.77,1.77,0,0,0,1.47.66,1.79,1.79,0,0,0,1.46-.71A2.87,2.87,0,0,0,83.47,102.91Z"/><path class="cls-5" d="M87.3,105.39a2.45,2.45,0,0,0,1.1-.24.8.8,0,0,0,.43-.76.94.94,0,0,0-.09-.43.79.79,0,0,0-.26-.32,2.56,2.56,0,0,0-.48-.27l-.73-.3c-.23-.09-.46-.18-.67-.28a2.7,2.7,0,0,1-.55-.34,1.39,1.39,0,0,1-.4-.47,1.34,1.34,0,0,1-.15-.66,1.5,1.5,0,0,1,.55-1.24,2.36,2.36,0,0,1,1.55-.49,4.06,4.06,0,0,1,1.06.09,2.51,2.51,0,0,1,.58.18l-.17.7a3.91,3.91,0,0,0-.49-.19,3.25,3.25,0,0,0-1-.1,2.07,2.07,0,0,0-.5.06,1.38,1.38,0,0,0-.41.18.86.86,0,0,0-.28.29.83.83,0,0,0-.1.43.94.94,0,0,0,.1.43,1,1,0,0,0,.29.32,2.79,2.79,0,0,0,.46.25l.62.25c.25.09.48.18.7.28a2.3,2.3,0,0,1,.59.35,1.62,1.62,0,0,1,0,2.51,2.92,2.92,0,0,1-1.71.46,4.63,4.63,0,0,1-1.25-.11c-.29-.09-.48-.16-.58-.2l.19-.71.16.07a2,2,0,0,0,.33.12,3.61,3.61,0,0,0,.48.1A4.33,4.33,0,0,0,87.3,105.39Z"/><path class="cls-5" d="M92.43,105.33a.62.62,0,0,1-.65.68.6.6,0,0,1-.48-.19.69.69,0,0,1-.19-.46.7.7,0,0,1,.17-.47.6.6,0,0,1,.48-.2.59.59,0,0,1,.49.18A.65.65,0,0,1,92.43,105.33Z"/><path class="cls-5" d="M37.49,122.71a4.54,4.54,0,0,1-.3,1.87,3.49,3.49,0,0,1-.92,1.33,4,4,0,0,1-1.43.82A6,6,0,0,1,33,127c-.34,0-.69,0-1.06,0a7.5,7.5,0,0,1-1-.14l-.14-8a5.62,5.62,0,0,1,1-.19c.37,0,.72-.06,1.06-.07a6.06,6.06,0,0,1,1.85.23,4,4,0,0,1,1.46.77,3.64,3.64,0,0,1,1,1.3A4.71,4.71,0,0,1,37.49,122.71Zm-5.72,3.55.37,0a8.1,8.1,0,0,0,.94,0,4.4,4.4,0,0,0,1.57-.28,3,3,0,0,0,1.11-.72,2.94,2.94,0,0,0,.67-1.12,4.55,4.55,0,0,0,.2-1.47,4.37,4.37,0,0,0-.25-1.46,2.94,2.94,0,0,0-.71-1.1,3.23,3.23,0,0,0-1.14-.68,4.69,4.69,0,0,0-1.57-.22,8.1,8.1,0,0,0-.94.06l-.37,0Z"/><path class="cls-5" d="M38.92,123.74a3.86,3.86,0,0,1,.21-1.42,3,3,0,0,1,.59-1,2.55,2.55,0,0,1,.85-.62,2.49,2.49,0,0,1,1-.21,2.31,2.31,0,0,1,1.83.71,3.34,3.34,0,0,1,.72,2.28v.19c0,.06,0,.12,0,.18l-4.35.08a2.69,2.69,0,0,0,.59,1.74,2.12,2.12,0,0,0,1.69.58,3.3,3.3,0,0,0,1-.14,3.6,3.6,0,0,0,.53-.21l.16.67a3.35,3.35,0,0,1-.63.24,4.13,4.13,0,0,1-1.08.15,3.52,3.52,0,0,1-1.4-.22,2.59,2.59,0,0,1-1-.65,2.72,2.72,0,0,1-.55-1A4.38,4.38,0,0,1,38.92,123.74Zm4.39-.57a2.53,2.53,0,0,0-.48-1.5,1.5,1.5,0,0,0-1.23-.52,1.8,1.8,0,0,0-.75.18,2,2,0,0,0-.57.46,2.13,2.13,0,0,0-.37.66,2.58,2.58,0,0,0-.15.79Z"/><path class="cls-5" d="M46.5,120.89a2.82,2.82,0,0,1,.65-.35,3,3,0,0,1,1.06-.19,2.84,2.84,0,0,1,1.19.22,2.56,2.56,0,0,1,.9.66,3,3,0,0,1,.56,1,4.48,4.48,0,0,1,.21,1.3,3.85,3.85,0,0,1-.2,1.36,2.92,2.92,0,0,1-.6,1,2.62,2.62,0,0,1-1,.66,3.08,3.08,0,0,1-1.24.24,6.85,6.85,0,0,1-1.37-.08,7,7,0,0,1-.89-.21l-.16-9,.78-.15Zm.09,5.09a3,3,0,0,0,.53.11,7.93,7.93,0,0,0,.93,0,2.11,2.11,0,0,0,1.61-.68,2.65,2.65,0,0,0,.58-1.89,4.38,4.38,0,0,0-.12-1,2.54,2.54,0,0,0-.36-.8,1.84,1.84,0,0,0-.64-.53,2.08,2.08,0,0,0-1-.19,2.26,2.26,0,0,0-.53.06,3.23,3.23,0,0,0-.47.15,2.55,2.55,0,0,0-.37.19,1.58,1.58,0,0,0-.27.18Z"/><path class="cls-5" d="M52.39,123.51a3.92,3.92,0,0,1,.21-1.43,3.26,3.26,0,0,1,.59-1,2.26,2.26,0,0,1,.86-.62,2.64,2.64,0,0,1,1-.22,2.4,2.4,0,0,1,1.83.71,3.29,3.29,0,0,1,.71,2.28,1.34,1.34,0,0,1,0,.2c0,.06,0,.12,0,.17l-4.36.08a2.74,2.74,0,0,0,.6,1.74,2.11,2.11,0,0,0,1.69.59,3.63,3.63,0,0,0,1-.14,4.38,4.38,0,0,0,.54-.22l.15.67a2.83,2.83,0,0,1-.62.24,3.54,3.54,0,0,1-1.09.15,3.67,3.67,0,0,1-1.39-.21,2.36,2.36,0,0,1-1-.66,2.69,2.69,0,0,1-.56-1A4.85,4.85,0,0,1,52.39,123.51Zm4.39-.57a2.41,2.41,0,0,0-.48-1.51,1.47,1.47,0,0,0-1.23-.51,1.54,1.54,0,0,0-.75.18,1.81,1.81,0,0,0-.57.46,2.13,2.13,0,0,0-.37.66,2.57,2.57,0,0,0-.15.78Z"/><path class="cls-5" d="M62.75,120.23l2.47,0v.66l-2.47,0,.06,3.3a3.83,3.83,0,0,0,.1.86,1.39,1.39,0,0,0,.27.5.73.73,0,0,0,.41.23,1.8,1.8,0,0,0,.53,0,2.15,2.15,0,0,0,.79-.12,4.41,4.41,0,0,0,.47-.22l.2.64a2.77,2.77,0,0,1-.58.26,2.71,2.71,0,0,1-.91.15,2.53,2.53,0,0,1-1-.13,1.36,1.36,0,0,1-.63-.44,2,2,0,0,1-.35-.76,5.45,5.45,0,0,1-.11-1.08l-.1-5.71.78-.16Z"/><path class="cls-5" d="M66.28,123.27a3.92,3.92,0,0,1,.21-1.43,3,3,0,0,1,.6-1,2.36,2.36,0,0,1,.85-.63,2.63,2.63,0,0,1,1-.21,2.34,2.34,0,0,1,1.83.71,3.34,3.34,0,0,1,.72,2.28,1.15,1.15,0,0,1,0,.19,1,1,0,0,1,0,.18l-4.36.08a2.74,2.74,0,0,0,.6,1.74,2.09,2.09,0,0,0,1.69.58,3.39,3.39,0,0,0,1-.13,4.82,4.82,0,0,0,.53-.22l.16.67a2.76,2.76,0,0,1-.63.24,4.26,4.26,0,0,1-1.08.15,3.69,3.69,0,0,1-1.4-.21,2.65,2.65,0,0,1-1-.66,2.69,2.69,0,0,1-.56-1A4.85,4.85,0,0,1,66.28,123.27Zm4.4-.57a2.54,2.54,0,0,0-.48-1.51,1.51,1.51,0,0,0-1.24-.52,1.72,1.72,0,0,0-.74.18,1.84,1.84,0,0,0-.57.47,1.94,1.94,0,0,0-.37.66,2.57,2.57,0,0,0-.15.78Z"/><path class="cls-5" d="M73.08,120.27,74,120a7.94,7.94,0,0,1,1.43-.14,3,3,0,0,1,1.19.18,1.85,1.85,0,0,1,.77.57,2.33,2.33,0,0,1,.41.9A4.67,4.67,0,0,1,78,122.7l.06,3.47h-.78l0-3.21a6.72,6.72,0,0,0-.11-1.12,2,2,0,0,0-.31-.74,1.19,1.19,0,0,0-.56-.4,2.43,2.43,0,0,0-.86-.11,5.3,5.3,0,0,0-1,.08,3.22,3.22,0,0,0-.52.11l.1,5.45h-.78Z"/><path class="cls-5" d="M79.57,123a4.1,4.1,0,0,1,.2-1.42,3.14,3.14,0,0,1,.6-1,2.55,2.55,0,0,1,.85-.62,2.49,2.49,0,0,1,1-.21,2.31,2.31,0,0,1,1.83.71,3.34,3.34,0,0,1,.72,2.28v.19c0,.06,0,.12,0,.18l-4.35.08a2.69,2.69,0,0,0,.59,1.74,2.12,2.12,0,0,0,1.69.58,3.35,3.35,0,0,0,1-.14,3.6,3.6,0,0,0,.53-.21l.16.67a2.76,2.76,0,0,1-.63.24,4.13,4.13,0,0,1-1.08.15,3.52,3.52,0,0,1-1.4-.22,2.43,2.43,0,0,1-1.51-1.67A4.38,4.38,0,0,1,79.57,123Zm4.39-.56a2.54,2.54,0,0,0-.48-1.51,1.51,1.51,0,0,0-1.24-.52,1.76,1.76,0,0,0-.74.18,2,2,0,0,0-.94,1.12,2.58,2.58,0,0,0-.15.79Z"/><path class="cls-5" d="M88.47,119.66a4.26,4.26,0,0,1,.73,0,1.69,1.69,0,0,1,.47.11l-.14.67a1.59,1.59,0,0,0-.39-.09,4.36,4.36,0,0,0-.78,0,3.33,3.33,0,0,0-.8.09,2.26,2.26,0,0,0-.4.12l.09,5.44h-.78l-.1-5.91a5,5,0,0,1,.82-.29A5.13,5.13,0,0,1,88.47,119.66Z"/><path class="cls-5" d="M96.26,126a3.36,3.36,0,0,1-1.27-.2,2.46,2.46,0,0,1-.93-.64,3,3,0,0,1-.58-1,4.71,4.71,0,0,1,0-2.65,3.13,3.13,0,0,1,.55-1,2.58,2.58,0,0,1,.89-.68,3,3,0,0,1,1.19-.26,5.61,5.61,0,0,1,.94.07,2.19,2.19,0,0,1,.68.21l-.19.67a2.14,2.14,0,0,0-.54-.18,3.66,3.66,0,0,0-.81-.06,1.84,1.84,0,0,0-1.55.7,2.87,2.87,0,0,0-.5,1.89,4.06,4.06,0,0,0,.13,1,2.08,2.08,0,0,0,.41.78,1.7,1.7,0,0,0,.7.5,2.52,2.52,0,0,0,1,.17,2.58,2.58,0,0,0,.85-.13l.49-.2.18.67a3.06,3.06,0,0,1-.67.24A3.85,3.85,0,0,1,96.26,126Z"/><path class="cls-5" d="M101.08,119.42a2.69,2.69,0,0,1,1,.15,1.77,1.77,0,0,1,.7.47,2,2,0,0,1,.4.72,3.28,3.28,0,0,1,.13.91l.07,3.91a2.35,2.35,0,0,1-.35.08l-.52.11-.67.08c-.24,0-.49,0-.75.05a4.22,4.22,0,0,1-.9-.09,2.12,2.12,0,0,1-.73-.33,1.6,1.6,0,0,1-.49-.6,2.09,2.09,0,0,1-.19-.89,1.68,1.68,0,0,1,.18-.86,1.56,1.56,0,0,1,.53-.61,2.26,2.26,0,0,1,.82-.35,4.77,4.77,0,0,1,1-.13h.36l.36,0,.3.06a.71.71,0,0,1,.17,0v-.38a6.12,6.12,0,0,0-.06-.63,1.41,1.41,0,0,0-.22-.55,1.22,1.22,0,0,0-.47-.39,1.68,1.68,0,0,0-.77-.14,3.92,3.92,0,0,0-1,.12l-.49.16-.12-.68a2.52,2.52,0,0,1,.63-.19A4.88,4.88,0,0,1,101.08,119.42Zm.17,5.78.8,0,.58-.09,0-2.19-.42-.12a4.22,4.22,0,0,0-.79-.05,4.35,4.35,0,0,0-.6.06,1.73,1.73,0,0,0-.57.18,1.24,1.24,0,0,0-.43.39,1.13,1.13,0,0,0-.16.64,1.47,1.47,0,0,0,.13.59,1,1,0,0,0,.33.37,1.3,1.3,0,0,0,.51.2A2.7,2.7,0,0,0,101.25,125.2Z"/><path class="cls-5" d="M106.19,127.9h-.78l-.15-8.21a8.29,8.29,0,0,1,.89-.24,7,7,0,0,1,1.36-.13,3.35,3.35,0,0,1,1.25.2,2.73,2.73,0,0,1,1,.62,3,3,0,0,1,.64,1,3.83,3.83,0,0,1,.25,1.36,4.49,4.49,0,0,1-.17,1.3,2.86,2.86,0,0,1-.52,1,2.51,2.51,0,0,1-.87.68,2.85,2.85,0,0,1-1.19.26,2.92,2.92,0,0,1-1.73-.47Zm-.06-3.34a2.51,2.51,0,0,0,.27.18,2.7,2.7,0,0,0,.38.17,3.22,3.22,0,0,0,.47.13,2.32,2.32,0,0,0,.53,0,2,2,0,0,0,1-.21,1.66,1.66,0,0,0,.62-.55,2.28,2.28,0,0,0,.34-.81,5.18,5.18,0,0,0,.09-1,2.66,2.66,0,0,0-.65-1.87,2.1,2.1,0,0,0-1.63-.62,5.69,5.69,0,0,0-.93.07,4,4,0,0,0-.53.12Z"/><path class="cls-5" d="M114.13,119.19a2.58,2.58,0,0,1,1.05.16,1.78,1.78,0,0,1,.69.46,1.81,1.81,0,0,1,.4.72,3.33,3.33,0,0,1,.14.91l.06,3.91a2,2,0,0,1-.34.09l-.53.1-.66.09-.75,0a4.32,4.32,0,0,1-.91-.09,2.12,2.12,0,0,1-.73-.33,1.67,1.67,0,0,1-.49-.59,2.17,2.17,0,0,1-.19-.89,1.93,1.93,0,0,1,.18-.87,1.61,1.61,0,0,1,.53-.6,2.46,2.46,0,0,1,.82-.36,4.85,4.85,0,0,1,1-.13h.36l.36.05a1.86,1.86,0,0,1,.3,0l.18,0v-.38a3.21,3.21,0,0,0-.06-.63,1.48,1.48,0,0,0-.22-.55,1.18,1.18,0,0,0-.46-.39,1.77,1.77,0,0,0-.78-.13,3.69,3.69,0,0,0-1,.11l-.49.16-.12-.68a3.5,3.5,0,0,1,.63-.19A5.77,5.77,0,0,1,114.13,119.19Zm.18,5.78c.3,0,.57,0,.8,0l.58-.09,0-2.18a2.26,2.26,0,0,0-.42-.12,3.6,3.6,0,0,0-.8-.05,4.28,4.28,0,0,0-.6.05,1.6,1.6,0,0,0-.57.19,1.1,1.1,0,0,0-.42.38,1.07,1.07,0,0,0-.16.64,1.32,1.32,0,0,0,.12.59,1,1,0,0,0,.33.38,1.47,1.47,0,0,0,.51.2A2.81,2.81,0,0,0,114.31,125Z"/><path class="cls-5" d="M121,125.55a3.22,3.22,0,0,1-1.28-.21,2.33,2.33,0,0,1-.93-.63,2.86,2.86,0,0,1-.57-1,4.18,4.18,0,0,1-.22-1.31,4.06,4.06,0,0,1,.18-1.34,3,3,0,0,1,.55-1,2.49,2.49,0,0,1,.89-.68,3,3,0,0,1,1.18-.26,5.53,5.53,0,0,1,.94.07,2.51,2.51,0,0,1,.69.2l-.2.68a2.14,2.14,0,0,0-.54-.18,3.06,3.06,0,0,0-.8-.06,1.89,1.89,0,0,0-1.56.69,3,3,0,0,0-.5,1.9,3.91,3.91,0,0,0,.14,1,2,2,0,0,0,.4.79,1.94,1.94,0,0,0,.71.5,2.49,2.49,0,0,0,1,.17,2.8,2.8,0,0,0,.84-.13,3.41,3.41,0,0,0,.5-.21l.18.67a2.66,2.66,0,0,1-.68.25A4.28,4.28,0,0,1,121,125.55Z"/><path class="cls-5" d="M124.81,117.28a.6.6,0,0,1-.16.44.56.56,0,0,1-.41.16.51.51,0,0,1-.41-.15.63.63,0,0,1-.18-.43.57.57,0,0,1,.17-.44.59.59,0,0,1,.81,0A.59.59,0,0,1,124.81,117.28Zm0,8.07-.78,0-.11-6.21h.78Z"/><path class="cls-5" d="M131.7,125a8.71,8.71,0,0,1-.88.24,6.42,6.42,0,0,1-1.37.13,3.16,3.16,0,0,1-1.25-.2,2.69,2.69,0,0,1-1-.62,3.06,3.06,0,0,1-.64-1,3.82,3.82,0,0,1-.24-1.35,4.24,4.24,0,0,1,.16-1.31,3,3,0,0,1,.53-1,2.47,2.47,0,0,1,.87-.69,2.93,2.93,0,0,1,1.19-.26,2.69,2.69,0,0,1,1.06.16,3,3,0,0,1,.66.31l-.06-3.33.78-.16Zm-.87-4.87-.27-.18a2.27,2.27,0,0,0-.38-.17,3.22,3.22,0,0,0-.47-.13,2.28,2.28,0,0,0-.53,0,2,2,0,0,0-1,.22,1.66,1.66,0,0,0-.62.55,2.44,2.44,0,0,0-.34.81,5.18,5.18,0,0,0-.09,1,2.66,2.66,0,0,0,.65,1.87,2.11,2.11,0,0,0,1.63.63,7.09,7.09,0,0,0,.93-.07,2.71,2.71,0,0,0,.53-.13Z"/><path class="cls-5" d="M135.45,118.82a2.77,2.77,0,0,1,1.05.15,1.8,1.8,0,0,1,1.09,1.19,3.27,3.27,0,0,1,.14.91l.06,3.91a2,2,0,0,1-.34.09l-.53.09a5.86,5.86,0,0,1-.66.09c-.25,0-.5,0-.75,0a4.32,4.32,0,0,1-.91-.09,2.12,2.12,0,0,1-.73-.33,1.7,1.7,0,0,1-.49-.6,2.13,2.13,0,0,1-.19-.89,1.91,1.91,0,0,1,.18-.86,1.63,1.63,0,0,1,.53-.61,2.26,2.26,0,0,1,.82-.35,4.86,4.86,0,0,1,1.05-.13h.35l.36,0,.3.06.18,0v-.38a3.21,3.21,0,0,0-.06-.63,1.41,1.41,0,0,0-.22-.55,1.18,1.18,0,0,0-.46-.39,1.76,1.76,0,0,0-.78-.14,4,4,0,0,0-1,.12l-.49.16-.12-.68a2.83,2.83,0,0,1,.63-.19A5.77,5.77,0,0,1,135.45,118.82Zm.18,5.78.8,0,.58-.09,0-2.19-.42-.12a4.34,4.34,0,0,0-1.4,0,1.6,1.6,0,0,0-.57.19,1.1,1.1,0,0,0-.42.38,1.05,1.05,0,0,0-.16.64,1.32,1.32,0,0,0,.12.59,1,1,0,0,0,.33.37,1.3,1.3,0,0,0,.51.2A2.78,2.78,0,0,0,135.63,124.6Z"/><path class="cls-5" d="M144.69,124.81a6.13,6.13,0,0,1-.88.25,7.15,7.15,0,0,1-1.37.13,3.3,3.3,0,0,1-1.24-.2,2.55,2.55,0,0,1-1-.63,2.84,2.84,0,0,1-.65-1,4,4,0,0,1-.24-1.35,4.5,4.5,0,0,1,.16-1.3,3.09,3.09,0,0,1,.53-1,2.66,2.66,0,0,1,.87-.69,3,3,0,0,1,1.19-.26,3.17,3.17,0,0,1,1.07.16,2.89,2.89,0,0,1,.66.32l-.06-3.34.77-.16Zm-.86-4.87-.28-.17a2,2,0,0,0-.38-.17,2.89,2.89,0,0,0-.47-.14,3,3,0,0,0-.53,0,2.13,2.13,0,0,0-1,.22,1.76,1.76,0,0,0-.62.56,2.26,2.26,0,0,0-.33.81,3.89,3.89,0,0,0-.09,1,2.63,2.63,0,0,0,.64,1.86,2.13,2.13,0,0,0,1.63.63,6.81,6.81,0,0,0,.93-.07,3.62,3.62,0,0,0,.53-.12Z"/><path class="cls-5" d="M154.42,124.64a6.13,6.13,0,0,1-.88.25,7.07,7.07,0,0,1-1.37.13,3.3,3.3,0,0,1-1.24-.2,2.55,2.55,0,0,1-1-.63,2.69,2.69,0,0,1-.64-1,3.73,3.73,0,0,1-.25-1.35,4.5,4.5,0,0,1,.16-1.3,3.09,3.09,0,0,1,.53-1,2.66,2.66,0,0,1,.87-.69,3,3,0,0,1,1.19-.26,3.17,3.17,0,0,1,1.07.16,2.89,2.89,0,0,1,.66.32l-.06-3.34.77-.16Zm-.86-4.87-.28-.17a2,2,0,0,0-.38-.17,2.38,2.38,0,0,0-1-.18,2.14,2.14,0,0,0-1,.22,1.85,1.85,0,0,0-.62.56,2.26,2.26,0,0,0-.33.81,3.89,3.89,0,0,0-.09,1,2.63,2.63,0,0,0,.64,1.86,2.13,2.13,0,0,0,1.63.63,6.81,6.81,0,0,0,.93-.07,3.62,3.62,0,0,0,.53-.12Z"/><path class="cls-5" d="M156,121.7a4,4,0,0,1,.21-1.43,3.38,3.38,0,0,1,.59-1,2.37,2.37,0,0,1,.86-.62,2.64,2.64,0,0,1,1-.22,2.39,2.39,0,0,1,1.83.71,3.29,3.29,0,0,1,.71,2.28v.2c0,.06,0,.12,0,.18l-4.36.07a2.74,2.74,0,0,0,.6,1.74,2.11,2.11,0,0,0,1.69.59,3.63,3.63,0,0,0,1-.14l.54-.21.15.66a2.83,2.83,0,0,1-.62.24,3.54,3.54,0,0,1-1.09.15,3.67,3.67,0,0,1-1.39-.21,2.36,2.36,0,0,1-1-.66,2.69,2.69,0,0,1-.56-1A4.85,4.85,0,0,1,156,121.7Zm4.39-.57a2.36,2.36,0,0,0-.48-1.5,1.45,1.45,0,0,0-1.23-.52,1.54,1.54,0,0,0-.75.18,1.81,1.81,0,0,0-.57.46,2.13,2.13,0,0,0-.37.66,2.57,2.57,0,0,0-.15.78Z"/><path class="cls-5" d="M171,121.45a4.1,4.1,0,0,1-.18,1.34,3.14,3.14,0,0,1-.57,1,2.55,2.55,0,0,1-.89.67,2.64,2.64,0,0,1-1.13.26,2.79,2.79,0,0,1-1.14-.22,2.75,2.75,0,0,1-.91-.63,3.1,3.1,0,0,1-.61-1,4.25,4.25,0,0,1-.23-1.33,3.85,3.85,0,0,1,.19-1.34,2.86,2.86,0,0,1,.57-1,2.54,2.54,0,0,1,.88-.68,2.65,2.65,0,0,1,1.14-.25,2.69,2.69,0,0,1,1.14.21,2.54,2.54,0,0,1,.9.65,3,3,0,0,1,.61,1A3.75,3.75,0,0,1,171,121.45Zm-.82,0a3,3,0,0,0-.58-1.84,1.76,1.76,0,0,0-1.47-.66,1.73,1.73,0,0,0-1.45.71,3.44,3.44,0,0,0,.06,3.7,1.91,1.91,0,0,0,2.93-.05A2.93,2.93,0,0,0,170.19,121.46Z"/><path class="cls-5" d="M174.74,118.16a4.17,4.17,0,0,1,.72,0,2.31,2.31,0,0,1,.48.12l-.14.67a2.46,2.46,0,0,0-.4-.1,5.32,5.32,0,0,0-.77,0,4,4,0,0,0-.81.09,1.65,1.65,0,0,0-.4.13l.1,5.43-.78,0-.11-5.92a5.26,5.26,0,0,1,.83-.28A4.65,4.65,0,0,1,174.74,118.16Z"/><path class="cls-5" d="M181.12,123.65a1.08,1.08,0,0,1-.21.14l-.35.17a2.72,2.72,0,0,1-.48.15,3.6,3.6,0,0,1-.61.06,3.08,3.08,0,0,1-1-.15,2.38,2.38,0,0,1-.89-.51,2.59,2.59,0,0,1-.63-.92,4,4,0,0,1-.25-1.38,3.78,3.78,0,0,1,.19-1.23,2.69,2.69,0,0,1,.56-1,2.63,2.63,0,0,1,.91-.66,3,3,0,0,1,1.23-.26,6.8,6.8,0,0,1,1.39.09c.34.07.63.14.86.21l.1,5.66a2.47,2.47,0,0,1-.69,2,3.33,3.33,0,0,1-2.16.63,5.35,5.35,0,0,1-1.09-.07,6.08,6.08,0,0,1-.83-.19l.14-.71a4,4,0,0,0,.79.21,5.62,5.62,0,0,0,1,.08,2.5,2.5,0,0,0,1.6-.46,1.86,1.86,0,0,0,.47-1.46Zm-.09-4.73a4.22,4.22,0,0,0-.53-.1,5.94,5.94,0,0,0-.93,0,2.28,2.28,0,0,0-.89.19,1.93,1.93,0,0,0-.66.5,2.17,2.17,0,0,0-.4.77,3.26,3.26,0,0,0,.06,2,1.88,1.88,0,0,0,.45.71,1.63,1.63,0,0,0,.62.39,2,2,0,0,0,.71.11,2.74,2.74,0,0,0,1-.17,2.19,2.19,0,0,0,.67-.37Z"/><path class="cls-5" d="M185.66,117.94a2.74,2.74,0,0,1,1,.16,1.78,1.78,0,0,1,.69.46,1.93,1.93,0,0,1,.4.73,3.2,3.2,0,0,1,.14.9l.06,3.92-.34.08-.53.1-.66.09c-.25,0-.5,0-.75,0a3.31,3.31,0,0,1-.91-.09,2,2,0,0,1-.72-.33,1.6,1.6,0,0,1-.5-.59,2.13,2.13,0,0,1-.19-.89,1.93,1.93,0,0,1,.18-.87,1.69,1.69,0,0,1,.53-.6,2.46,2.46,0,0,1,.82-.36,4.3,4.3,0,0,1,1-.12,2.2,2.2,0,0,1,.36,0l.36,0,.3,0,.18,0v-.38a3.21,3.21,0,0,0-.06-.63,1.48,1.48,0,0,0-.22-.55,1.18,1.18,0,0,0-.46-.39,1.77,1.77,0,0,0-.78-.13,4.07,4.07,0,0,0-1,.11,5.1,5.1,0,0,0-.49.17l-.12-.69a3.5,3.5,0,0,1,.63-.19A5.69,5.69,0,0,1,185.66,117.94Zm.17,5.78c.3,0,.57,0,.8,0a4,4,0,0,0,.58-.09l0-2.18a2.26,2.26,0,0,0-.42-.12,3.6,3.6,0,0,0-.8-.05,4.28,4.28,0,0,0-.6.05,1.6,1.6,0,0,0-.57.19,1.05,1.05,0,0,0-.42.39,1,1,0,0,0-.16.63,1.29,1.29,0,0,0,.12.59,1,1,0,0,0,.33.38,1.47,1.47,0,0,0,.51.2A2.81,2.81,0,0,0,185.83,123.72Z"/><path class="cls-5" d="M189.84,118.23c.23-.07.54-.15.93-.23a7.08,7.08,0,0,1,1.44-.15,3,3,0,0,1,1.18.18,1.85,1.85,0,0,1,.77.57,2.5,2.5,0,0,1,.42.9,5.85,5.85,0,0,1,.14,1.16l.06,3.47H194l-.06-3.21a5.61,5.61,0,0,0-.11-1.11,1.8,1.8,0,0,0-.31-.74,1.21,1.21,0,0,0-.56-.41,2.43,2.43,0,0,0-.86-.11,6.14,6.14,0,0,0-.95.08,2.75,2.75,0,0,0-.52.11l.09,5.45-.78,0Z"/><path class="cls-5" d="M197.51,116a.56.56,0,0,1-.16.44.59.59,0,0,1-.4.17.56.56,0,0,1-.41-.16.64.64,0,0,1,0-.87.61.61,0,0,1,.82,0A.59.59,0,0,1,197.51,116Zm0,8.07-.78,0-.11-6.21h.78Z"/><path class="cls-5" d="M203.22,118.41c-.18.21-.42.5-.71.88s-.59.79-.92,1.25-.65.93-1,1.43-.6,1-.84,1.41l3.63-.06,0,.66-4.54.08v-.57c.2-.39.45-.83.75-1.31s.61-1,.93-1.41.64-.9.94-1.31l.77-1-3.3.06v-.66l4.25-.07Z"/><path class="cls-5" d="M206.74,117.57a3,3,0,0,1,1,.16,1.8,1.8,0,0,1,1.09,1.19,3.27,3.27,0,0,1,.14.91l.07,3.91-.35.08-.53.1a5.86,5.86,0,0,1-.66.09,6.28,6.28,0,0,1-.75,0,3.31,3.31,0,0,1-.91-.09,2,2,0,0,1-.72-.33,1.6,1.6,0,0,1-.5-.59,2.13,2.13,0,0,1-.19-.89,2,2,0,0,1,.18-.87,1.69,1.69,0,0,1,.53-.6,2.46,2.46,0,0,1,.82-.36,4.86,4.86,0,0,1,1-.12h.36l.36,0,.3.06a.49.49,0,0,1,.18,0V120a3.36,3.36,0,0,0-.06-.63,1.55,1.55,0,0,0-.22-.55,1.09,1.09,0,0,0-.46-.38,1.63,1.63,0,0,0-.78-.14,4.68,4.68,0,0,0-1,.11l-.49.17-.12-.68a2.83,2.83,0,0,1,.63-.19A4.92,4.92,0,0,1,206.74,117.57Zm.17,5.78c.3,0,.57,0,.8,0a4,4,0,0,0,.58-.09l0-2.18a2.26,2.26,0,0,0-.42-.12,3.6,3.6,0,0,0-.8,0,4.28,4.28,0,0,0-.6,0,1.82,1.82,0,0,0-.57.19,1.13,1.13,0,0,0-.42.39,1,1,0,0,0-.16.64,1.28,1.28,0,0,0,.12.58.94.94,0,0,0,.33.38,1.47,1.47,0,0,0,.51.2A2.81,2.81,0,0,0,206.91,123.35Z"/><path class="cls-5" d="M213.64,123.93a3.41,3.41,0,0,1-1.28-.2,2.46,2.46,0,0,1-.93-.64,3,3,0,0,1-.57-1,4.49,4.49,0,0,1,0-2.65,3,3,0,0,1,.55-1,2.49,2.49,0,0,1,.89-.68,2.8,2.8,0,0,1,1.18-.25,4.85,4.85,0,0,1,.95.06,2.49,2.49,0,0,1,.68.21l-.2.67a3.42,3.42,0,0,0-.54-.18,4.27,4.27,0,0,0-.8-.06,1.93,1.93,0,0,0-1.56.7,3,3,0,0,0-.5,1.9,4,4,0,0,0,.14,1,2,2,0,0,0,.4.78,1.85,1.85,0,0,0,.71.51,2.68,2.68,0,0,0,1,.16,2.51,2.51,0,0,0,.84-.13,2.68,2.68,0,0,0,.5-.2l.18.67a3.19,3.19,0,0,1-.68.24A3.71,3.71,0,0,1,213.64,123.93Z"/><path class="cls-5" d="M217.41,115.66a.6.6,0,0,1-.16.44.57.57,0,0,1-.41.17.56.56,0,0,1-.41-.16.61.61,0,0,1-.18-.43.64.64,0,0,1,.16-.44.58.58,0,0,1,.41-.17.59.59,0,0,1,.41.15A.61.61,0,0,1,217.41,115.66Zm0,8.08h-.78l-.11-6.2.78,0Z"/><path class="cls-5" d="M224.61,120.51a3.81,3.81,0,0,1-.19,1.34,3,3,0,0,1-.57,1,2.75,2.75,0,0,1-.88.67,2.8,2.8,0,0,1-1.14.25,2.69,2.69,0,0,1-1.14-.21,2.64,2.64,0,0,1-.91-.64,3.15,3.15,0,0,1-.6-1,3.75,3.75,0,0,1-.23-1.33,4,4,0,0,1,.18-1.33,3.25,3.25,0,0,1,.57-1,2.61,2.61,0,0,1,.88-.67,2.69,2.69,0,0,1,1.14-.26,2.71,2.71,0,0,1,2.05.86,3,3,0,0,1,.61,1A4.19,4.19,0,0,1,224.61,120.51Zm-.83,0a2.92,2.92,0,0,0-.57-1.85,1.77,1.77,0,0,0-1.48-.66,1.75,1.75,0,0,0-1.45.72,3.41,3.41,0,0,0,.07,3.7,1.72,1.72,0,0,0,1.47.65,1.75,1.75,0,0,0,1.45-.7A3,3,0,0,0,223.78,120.53Zm-.44-5.56-2,1.7-.4-.45,1.86-1.85Z"/><path class="cls-5" d="M226.23,117.59l.93-.23a7.15,7.15,0,0,1,1.44-.14,3,3,0,0,1,1.18.18,1.85,1.85,0,0,1,.77.57,2.5,2.5,0,0,1,.42.9,5.85,5.85,0,0,1,.14,1.16l.06,3.47h-.78l-.06-3.22a5.61,5.61,0,0,0-.11-1.11,1.86,1.86,0,0,0-.31-.74,1.19,1.19,0,0,0-.56-.4,2.43,2.43,0,0,0-.86-.11,6.27,6.27,0,0,0-1,.07,3.44,3.44,0,0,0-.52.12l.09,5.45h-.78Z"/><path class="cls-5" d="M234,122.31a1.28,1.28,0,0,1,0,.19.61.61,0,0,0,0,.14,5.2,5.2,0,0,1-.19,1.43,5.55,5.55,0,0,1-.56,1.3l-.58-.26a3.92,3.92,0,0,0,.37-1.11,6.05,6.05,0,0,0,.09-1.21,1.63,1.63,0,0,0,0-.24c0-.06,0-.14,0-.23Z"/><path class="cls-5" d="M32.74,141.47a2.4,2.4,0,0,1-.69-.09,1.17,1.17,0,0,1-.49-.27,1.11,1.11,0,0,1-.31-.47,2.48,2.48,0,0,1-.12-.74L31,132.22l.78-.16.13,7.8a2.47,2.47,0,0,0,.06.47.73.73,0,0,0,.17.27.71.71,0,0,0,.29.14,3,3,0,0,0,.41.08Z"/><path class="cls-5" d="M33.68,138.24a3.92,3.92,0,0,1,.21-1.43,3.09,3.09,0,0,1,.6-1,2.22,2.22,0,0,1,.85-.62,2.69,2.69,0,0,1,1-.22,2.34,2.34,0,0,1,1.83.71,3.34,3.34,0,0,1,.72,2.28v.19c0,.07,0,.13,0,.18l-4.36.08a2.74,2.74,0,0,0,.6,1.74,2.09,2.09,0,0,0,1.69.58,3.39,3.39,0,0,0,1-.13,4.82,4.82,0,0,0,.53-.22l.16.67a2.76,2.76,0,0,1-.63.24,3.48,3.48,0,0,1-1.08.15,3.69,3.69,0,0,1-1.4-.21,2.62,2.62,0,0,1-1-.66,2.69,2.69,0,0,1-.56-1A5.29,5.29,0,0,1,33.68,138.24Zm4.4-.57a2.54,2.54,0,0,0-.48-1.51,1.5,1.5,0,0,0-1.24-.51,1.47,1.47,0,0,0-.74.18,1.81,1.81,0,0,0-.57.46,1.94,1.94,0,0,0-.37.66,2.57,2.57,0,0,0-.15.78Z"/><path class="cls-5" d="M40.25,138.12a3.86,3.86,0,0,1,.21-1.42,3,3,0,0,1,.59-1,2.47,2.47,0,0,1,1.85-.83,2.31,2.31,0,0,1,1.83.71,3.34,3.34,0,0,1,.72,2.28V138a1.1,1.1,0,0,1,0,.18l-4.35.08a2.74,2.74,0,0,0,.59,1.74,2.13,2.13,0,0,0,1.69.58,3.3,3.3,0,0,0,1-.14,3.18,3.18,0,0,0,.53-.21l.16.67a2.76,2.76,0,0,1-.63.24,4.13,4.13,0,0,1-1.08.15,3.44,3.44,0,0,1-1.39-.22,2.44,2.44,0,0,1-1-.65,2.6,2.6,0,0,1-.56-1A4.79,4.79,0,0,1,40.25,138.12Zm4.39-.57a2.53,2.53,0,0,0-.48-1.5,1.49,1.49,0,0,0-1.23-.52,1.8,1.8,0,0,0-.75.18,2,2,0,0,0-.57.46,2.13,2.13,0,0,0-.37.66,2.58,2.58,0,0,0-.15.79Z"/><path class="cls-5" d="M49.15,134.75a4.26,4.26,0,0,1,.73.05,1.9,1.9,0,0,1,.48.11l-.15.67a1.59,1.59,0,0,0-.39-.09,4.24,4.24,0,0,0-.77,0,2.92,2.92,0,0,0-.81.09,2.26,2.26,0,0,0-.4.12l.09,5.44h-.78l-.1-5.91a5,5,0,0,1,.82-.29A5.13,5.13,0,0,1,49.15,134.75Z"/><path class="cls-5" d="M59.3,140.71a8,8,0,0,1-.88.24,7.15,7.15,0,0,1-1.37.13,3.3,3.3,0,0,1-1.24-.2,2.65,2.65,0,0,1-1-.62,3,3,0,0,1-.65-1A4.06,4.06,0,0,1,54,137.9a4.21,4.21,0,0,1,.16-1.31,3,3,0,0,1,.53-1,2.42,2.42,0,0,1,.87-.69,2.81,2.81,0,0,1,1.19-.26,2.86,2.86,0,0,1,1.06.15,2.52,2.52,0,0,1,.66.32l-.05-3.34.77-.15Zm-.86-4.87a2.27,2.27,0,0,0-.28-.18,2,2,0,0,0-.38-.17,2.15,2.15,0,0,0-.47-.13,3,3,0,0,0-.53-.05,2,2,0,0,0-1,.23,1.74,1.74,0,0,0-.62.55,2.26,2.26,0,0,0-.33.81,3.93,3.93,0,0,0-.09,1,2.65,2.65,0,0,0,.64,1.87,2.12,2.12,0,0,0,1.63.62,5.51,5.51,0,0,0,.93-.07,3.62,3.62,0,0,0,.53-.12Z"/><path class="cls-5" d="M60.92,137.76a3.86,3.86,0,0,1,.21-1.42,3.31,3.31,0,0,1,.59-1,2.49,2.49,0,0,1,.86-.62,2.45,2.45,0,0,1,1-.21,2.34,2.34,0,0,1,1.84.71,3.34,3.34,0,0,1,.71,2.28v.19c0,.06,0,.12,0,.18l-4.36.07a2.77,2.77,0,0,0,.6,1.75,2.1,2.1,0,0,0,1.68.58,3.3,3.3,0,0,0,1-.14,3.38,3.38,0,0,0,.54-.21l.15.67a4.5,4.5,0,0,1-.62.24A4.28,4.28,0,0,1,64,141a3.44,3.44,0,0,1-1.39-.22,2.44,2.44,0,0,1-1-.65,2.67,2.67,0,0,1-.56-1A4.79,4.79,0,0,1,60.92,137.76Zm4.39-.57a2.38,2.38,0,0,0-.48-1.5,1.45,1.45,0,0,0-1.23-.52,1.8,1.8,0,0,0-.75.18,2,2,0,0,0-.57.46,2.13,2.13,0,0,0-.37.66,2.58,2.58,0,0,0-.15.79Z"/><path class="cls-5" d="M68.45,134.53l2.47,0v.66l-2.47,0,.06,3.3a3.27,3.27,0,0,0,.1.86,1.36,1.36,0,0,0,.27.51.88.88,0,0,0,.41.23,2.22,2.22,0,0,0,.53,0,2.36,2.36,0,0,0,.79-.13,2.87,2.87,0,0,0,.46-.22l.21.65a2.76,2.76,0,0,1-.59.25,2.89,2.89,0,0,1-.91.16,2.7,2.7,0,0,1-1-.14,1.34,1.34,0,0,1-.64-.44,1.84,1.84,0,0,1-.34-.76,4.79,4.79,0,0,1-.11-1.08l-.1-5.71.77-.15Z"/><path class="cls-5" d="M74.4,134.29a2.72,2.72,0,0,1,1,.15,1.84,1.84,0,0,1,.7.47,1.8,1.8,0,0,1,.39.72,3.27,3.27,0,0,1,.14.91l.07,3.91a2.7,2.7,0,0,1-.35.08,5.06,5.06,0,0,1-.53.1,5.86,5.86,0,0,1-.66.09c-.24,0-.49,0-.75.05a3.73,3.73,0,0,1-.91-.1,1.7,1.7,0,0,1-.72-.33,1.57,1.57,0,0,1-.49-.59,2,2,0,0,1-.19-.89,1.86,1.86,0,0,1,.17-.87,1.69,1.69,0,0,1,.53-.6,2.31,2.31,0,0,1,.83-.35,4.69,4.69,0,0,1,1-.13h.35l.36,0,.3.06a.69.69,0,0,1,.18,0v-.38a3.21,3.21,0,0,0-.06-.63,1.28,1.28,0,0,0-.22-.55,1.18,1.18,0,0,0-.46-.39,1.76,1.76,0,0,0-.78-.14,4,4,0,0,0-1,.12,4.36,4.36,0,0,0-.48.16l-.12-.68a2.56,2.56,0,0,1,.62-.19A5.06,5.06,0,0,1,74.4,134.29Zm.17,5.78c.3,0,.57,0,.8,0a5.83,5.83,0,0,0,.58-.08l0-2.19a2.26,2.26,0,0,0-.42-.12,4.29,4.29,0,0,0-.79,0,4,4,0,0,0-.6,0,2.19,2.19,0,0,0-.58.19,1.31,1.31,0,0,0-.42.39,1.1,1.1,0,0,0-.16.64,1.39,1.39,0,0,0,.12.58.9.9,0,0,0,.34.38,1.31,1.31,0,0,0,.5.2A3.4,3.4,0,0,0,74.57,140.07Z"/><path class="cls-5" d="M80.24,140.64a2.4,2.4,0,0,1-.69-.09,1.17,1.17,0,0,1-.49-.27,1.11,1.11,0,0,1-.31-.47,2.48,2.48,0,0,1-.12-.74l-.13-7.68.78-.15.13,7.8a2.46,2.46,0,0,0,.06.46.73.73,0,0,0,.17.27.61.61,0,0,0,.29.14,2,2,0,0,0,.41.08Z"/><path class="cls-5" d="M83.24,140.59a2.82,2.82,0,0,1-.69-.09,1.34,1.34,0,0,1-.5-.27,1.19,1.19,0,0,1-.3-.47,2.48,2.48,0,0,1-.12-.74l-.13-7.68.78-.16.13,7.8a1.77,1.77,0,0,0,.06.46.7.7,0,0,0,.17.28.74.74,0,0,0,.28.14,3.51,3.51,0,0,0,.42.08Z"/><path class="cls-5" d="M86.56,134.07a2.88,2.88,0,0,1,1,.16,1.77,1.77,0,0,1,.7.47,2,2,0,0,1,.4.72,3.28,3.28,0,0,1,.13.91l.07,3.91-.34.08-.53.1a5.86,5.86,0,0,1-.66.09,6.28,6.28,0,0,1-.75,0,3.31,3.31,0,0,1-.91-.09,2,2,0,0,1-.73-.33,1.67,1.67,0,0,1-.49-.59,2.13,2.13,0,0,1-.19-.89,2,2,0,0,1,.18-.87,1.6,1.6,0,0,1,.53-.6,2.46,2.46,0,0,1,.82-.36,4.86,4.86,0,0,1,1-.12h.36l.36,0,.3.06a.43.43,0,0,1,.17.05v-.39q0-.32-.06-.63a1.55,1.55,0,0,0-.22-.55,1.15,1.15,0,0,0-.46-.38,1.63,1.63,0,0,0-.78-.14,4.53,4.53,0,0,0-1,.11l-.49.17-.12-.68a2.83,2.83,0,0,1,.63-.19A4.82,4.82,0,0,1,86.56,134.07Zm.18,5.79c.3,0,.57,0,.79-.05a3.74,3.74,0,0,0,.58-.09l0-2.18a2.18,2.18,0,0,0-.43-.12,3.46,3.46,0,0,0-.79,0,4.28,4.28,0,0,0-.6,0,1.74,1.74,0,0,0-.57.19,1.15,1.15,0,0,0-.43.39,1,1,0,0,0-.15.64,1.28,1.28,0,0,0,.12.58.94.94,0,0,0,.33.38,1.47,1.47,0,0,0,.51.2A3.4,3.4,0,0,0,86.74,139.86Z"/><path class="cls-5" d="M95.8,140.07a8,8,0,0,1-.88.24,7.15,7.15,0,0,1-1.37.13,3.19,3.19,0,0,1-1.25-.2,2.69,2.69,0,0,1-1-.62,3.06,3.06,0,0,1-.64-1,4.06,4.06,0,0,1-.24-1.35,4.24,4.24,0,0,1,.16-1.31,3,3,0,0,1,.53-1,2.47,2.47,0,0,1,.87-.69A2.93,2.93,0,0,1,93.2,134a2.66,2.66,0,0,1,1.06.16,3,3,0,0,1,.66.31l-.06-3.33.78-.16Zm-.86-4.87-.28-.17a2.25,2.25,0,0,0-.38-.18,2.91,2.91,0,0,0-.47-.13,2.28,2.28,0,0,0-.53,0,2,2,0,0,0-1,.22,1.74,1.74,0,0,0-.62.55,2.23,2.23,0,0,0-.33.81,4.46,4.46,0,0,0-.1,1,2.66,2.66,0,0,0,.65,1.87,2.11,2.11,0,0,0,1.63.63,7.09,7.09,0,0,0,.93-.07,2.71,2.71,0,0,0,.53-.13Z"/><path class="cls-5" d="M99.56,133.85a2.75,2.75,0,0,1,1,.15,1.84,1.84,0,0,1,.7.47,1.93,1.93,0,0,1,.39.72,3.27,3.27,0,0,1,.14.91l.07,3.91a1.67,1.67,0,0,1-.35.08l-.53.11-.66.08c-.24,0-.49,0-.75.05a4.32,4.32,0,0,1-.91-.09,2,2,0,0,1-.72-.33,1.6,1.6,0,0,1-.49-.6,2,2,0,0,1-.19-.89,1.79,1.79,0,0,1,.17-.86A1.64,1.64,0,0,1,98,137a2.34,2.34,0,0,1,.82-.35,4.86,4.86,0,0,1,1.05-.13h.35l.36,0,.3.06.18,0v-.38a3.21,3.21,0,0,0-.06-.63,1.28,1.28,0,0,0-.22-.55,1.18,1.18,0,0,0-.46-.39,1.76,1.76,0,0,0-.78-.14,4,4,0,0,0-1,.12l-.48.16-.13-.68a2.83,2.83,0,0,1,.63-.19A5,5,0,0,1,99.56,133.85Zm.17,5.78c.3,0,.57,0,.8,0s.42-.05.58-.08l0-2.19-.42-.12a4.34,4.34,0,0,0-.8-.05c-.19,0-.39,0-.6.05a2.25,2.25,0,0,0-.57.19,1.31,1.31,0,0,0-.42.39,1,1,0,0,0-.16.64,1.25,1.25,0,0,0,.12.58.94.94,0,0,0,.33.38,1.66,1.66,0,0,0,.51.21A3.45,3.45,0,0,0,99.73,139.63Z"/><path class="cls-5" d="M103.74,134.13l.9-.23a7.6,7.6,0,0,1,1.44-.14,2,2,0,0,1,1.72.65l.23-.16c.12-.08.26-.16.43-.25a3.73,3.73,0,0,1,.62-.21,3.69,3.69,0,0,1,.78-.1,2.68,2.68,0,0,1,1.15.19,1.59,1.59,0,0,1,.69.58,2.25,2.25,0,0,1,.34.9,6.75,6.75,0,0,1,.1,1.15l.07,3.47h-.78l-.06-3.22a10.26,10.26,0,0,0-.07-1.06,2.08,2.08,0,0,0-.23-.74,1,1,0,0,0-.47-.43,1.63,1.63,0,0,0-.78-.14,2.71,2.71,0,0,0-.66.08,2.65,2.65,0,0,0-.5.17,1.71,1.71,0,0,0-.36.2l-.19.14a3.42,3.42,0,0,1,.17.7,5.44,5.44,0,0,1,.07.82l.06,3.53-.78,0,0-3.22a10.07,10.07,0,0,0-.07-1.06,2,2,0,0,0-.24-.74,1.14,1.14,0,0,0-.48-.44,1.91,1.91,0,0,0-.81-.13,6.31,6.31,0,0,0-1,.07,3,3,0,0,0-.49.12l.09,5.45h-.78Z"/><path class="cls-5" d="M113.75,136.84a4,4,0,0,1,.21-1.43,3,3,0,0,1,.59-1,2.42,2.42,0,0,1,.85-.62,2.69,2.69,0,0,1,1-.22,2.37,2.37,0,0,1,1.83.71,3.35,3.35,0,0,1,.72,2.29v.19c0,.06,0,.12,0,.18l-4.35.07a2.79,2.79,0,0,0,.59,1.75,2.12,2.12,0,0,0,1.69.58,3.65,3.65,0,0,0,1-.14,3.6,3.6,0,0,0,.53-.21l.16.67a4.26,4.26,0,0,1-.63.24,4.13,4.13,0,0,1-1.08.15,3.71,3.71,0,0,1-1.4-.22,2.48,2.48,0,0,1-1-.65,2.67,2.67,0,0,1-.56-1A4.85,4.85,0,0,1,113.75,136.84Zm4.39-.57a2.48,2.48,0,0,0-.48-1.5,1.47,1.47,0,0,0-1.23-.52,1.54,1.54,0,0,0-.75.18,2,2,0,0,0-.57.46,2.13,2.13,0,0,0-.37.66,2.57,2.57,0,0,0-.15.78Z"/><path class="cls-5" d="M120.54,133.84c.23-.07.54-.14.93-.23a7.08,7.08,0,0,1,1.44-.15,3,3,0,0,1,1.18.19,1.85,1.85,0,0,1,.77.57,2.2,2.2,0,0,1,.41.9,4.55,4.55,0,0,1,.14,1.16l.07,3.46-.78,0-.06-3.22a5.61,5.61,0,0,0-.11-1.11,1.94,1.94,0,0,0-.31-.74,1.12,1.12,0,0,0-.56-.4,2.41,2.41,0,0,0-.86-.12,8.06,8.06,0,0,0-1,.08,2.9,2.9,0,0,0-.52.12l.1,5.44-.78,0Z"/><path class="cls-5" d="M128,133.49l2.47,0v.66l-2.47,0,.06,3.3a3.76,3.76,0,0,0,.1.86,1.36,1.36,0,0,0,.27.51.93.93,0,0,0,.41.23,2.22,2.22,0,0,0,.53,0,2.36,2.36,0,0,0,.79-.13,3,3,0,0,0,.47-.22l.2.65a2.87,2.87,0,0,1-.58.25,3,3,0,0,1-.91.16,2.73,2.73,0,0,1-1-.14,1.36,1.36,0,0,1-.63-.44,1.85,1.85,0,0,1-.35-.76,5.45,5.45,0,0,1-.11-1.08l-.1-5.71.78-.15Z"/><path class="cls-5" d="M131.56,136.53a4,4,0,0,1,.21-1.43,3.2,3.2,0,0,1,.6-1,2.33,2.33,0,0,1,.85-.62,2.64,2.64,0,0,1,1-.22,2.37,2.37,0,0,1,1.83.71,3.35,3.35,0,0,1,.72,2.29,1.28,1.28,0,0,1,0,.19,1.09,1.09,0,0,1,0,.18l-4.36.07a2.74,2.74,0,0,0,.6,1.74,2.09,2.09,0,0,0,1.69.59,3.71,3.71,0,0,0,1-.14,5.26,5.26,0,0,0,.53-.21l.16.67a3.54,3.54,0,0,1-.63.23,3.78,3.78,0,0,1-1.08.16,3.88,3.88,0,0,1-1.4-.22,2.5,2.5,0,0,1-1-.66,2.69,2.69,0,0,1-.56-1A5.29,5.29,0,0,1,131.56,136.53ZM136,136a2.48,2.48,0,0,0-.48-1.5,1.69,1.69,0,0,0-2-.34,2,2,0,0,0-.94,1.12,2.57,2.57,0,0,0-.15.78Z"/><path class="cls-5" d="M143,139.57c-.26-.49-.53-1-.78-1.51s-.49-1.06-.71-1.59-.43-1.07-.62-1.61-.34-1.06-.48-1.58l.83,0a12.71,12.71,0,0,0,.36,1.24c.14.44.3.9.48,1.37s.38.95.59,1.44.46,1,.71,1.45q.25-.75.45-1.41t.36-1.32c.11-.44.21-.88.31-1.34s.21-.95.31-1.49h.78c-.24,1.16-.51,2.3-.82,3.4a27.56,27.56,0,0,1-1,3,6.36,6.36,0,0,1-.45.94,2.91,2.91,0,0,1-.52.65,2,2,0,0,1-.68.38,3.49,3.49,0,0,1-.92.14,1.84,1.84,0,0,1-.55-.07,1.55,1.55,0,0,1-.31-.1l.14-.65a1.09,1.09,0,0,0,.27.1,1.84,1.84,0,0,0,.47.06,2.22,2.22,0,0,0,.6-.09,1.34,1.34,0,0,0,.49-.25,1.76,1.76,0,0,0,.38-.46A3.88,3.88,0,0,0,143,139.57Z"/><path class="cls-5" d="M152.29,139.41a3.17,3.17,0,0,1-1.27-.21,2.35,2.35,0,0,1-.93-.64,2.94,2.94,0,0,1-.58-1,4.44,4.44,0,0,1-.21-1.31,4.33,4.33,0,0,1,.17-1.33,3.13,3.13,0,0,1,.55-1,2.61,2.61,0,0,1,.89-.69,3,3,0,0,1,1.19-.25,4.72,4.72,0,0,1,.94.07,2.53,2.53,0,0,1,.68.2l-.19.68a2.63,2.63,0,0,0-.54-.19,3.75,3.75,0,0,0-.81-.05,1.86,1.86,0,0,0-1.55.69,3,3,0,0,0-.51,1.9,4.48,4.48,0,0,0,.14,1,2.05,2.05,0,0,0,.41.79,1.9,1.9,0,0,0,.7.5,2.7,2.7,0,0,0,1,.17,2.87,2.87,0,0,0,.85-.13,3.19,3.19,0,0,0,.49-.21l.18.67a3,3,0,0,1-.67.25A4.36,4.36,0,0,1,152.29,139.41Z"/><path class="cls-5" d="M160.34,136a4.27,4.27,0,0,1-.19,1.33,2.78,2.78,0,0,1-.57,1,2.61,2.61,0,0,1-.88.67,2.65,2.65,0,0,1-1.14.26,2.79,2.79,0,0,1-1.14-.22,2.75,2.75,0,0,1-.91-.63,2.92,2.92,0,0,1-.6-1,4.25,4.25,0,0,1,0-2.67,2.86,2.86,0,0,1,.57-1,2.6,2.6,0,0,1,2-.93,2.62,2.62,0,0,1,2.05.86,3.15,3.15,0,0,1,.6,1A4,4,0,0,1,160.34,136Zm-.83,0a3,3,0,0,0-.57-1.84,1.89,1.89,0,0,0-2.93,0,3,3,0,0,0-.51,1.86,2.87,2.87,0,0,0,.57,1.84,1.91,1.91,0,0,0,2.93-.05A2.93,2.93,0,0,0,159.51,136.05Z"/><path class="cls-5" d="M167.32,135.92a4,4,0,0,1-.19,1.33,2.86,2.86,0,0,1-.57,1,2.61,2.61,0,0,1-.88.67,2.81,2.81,0,0,1-1.14.26,2.86,2.86,0,0,1-1.14-.22,2.64,2.64,0,0,1-.91-.64,2.88,2.88,0,0,1-.6-1,3.69,3.69,0,0,1-.23-1.32,4.06,4.06,0,0,1,.18-1.34,3,3,0,0,1,.57-1,2.75,2.75,0,0,1,.88-.67,2.68,2.68,0,0,1,1.14-.25,2.66,2.66,0,0,1,2,.85,2.87,2.87,0,0,1,.6,1A4,4,0,0,1,167.32,135.92Zm-.83,0a2.89,2.89,0,0,0-.57-1.84,1.89,1.89,0,0,0-2.93,0,3,3,0,0,0-.51,1.86,3,3,0,0,0,.57,1.84,1.91,1.91,0,0,0,2.93-.05A2.93,2.93,0,0,0,166.49,135.93Z"/><path class="cls-5" d="M171,132.62a5.58,5.58,0,0,1,.73,0,2.16,2.16,0,0,1,.47.11l-.14.68a1.59,1.59,0,0,0-.39-.1,5.57,5.57,0,0,0-.78,0,4.14,4.14,0,0,0-.81.09,1.83,1.83,0,0,0-.4.13l.1,5.43H169l-.1-5.91a5,5,0,0,1,2.1-.45Z"/><path class="cls-5" d="M178.33,138.63a8,8,0,0,1-.88.24,7.07,7.07,0,0,1-1.37.13,3.11,3.11,0,0,1-1.24-.2,2.73,2.73,0,0,1-1-.62,2.91,2.91,0,0,1-.64-1,3.82,3.82,0,0,1-.25-1.35,4.57,4.57,0,0,1,.16-1.31,3.14,3.14,0,0,1,.53-1,2.66,2.66,0,0,1,.87-.69,2.81,2.81,0,0,1,1.19-.26,2.74,2.74,0,0,1,1.07.16,3,3,0,0,1,.66.31l-.06-3.33.78-.16Zm-.86-4.87a2.51,2.51,0,0,0-.27-.18,2.7,2.7,0,0,0-.38-.17,3.36,3.36,0,0,0-.48-.13,2.2,2.2,0,0,0-.52,0,2,2,0,0,0-1,.22,1.83,1.83,0,0,0-.62.55,2.55,2.55,0,0,0-.33.81,3.93,3.93,0,0,0-.09,1,2.65,2.65,0,0,0,.64,1.87,2.13,2.13,0,0,0,1.63.63,6.81,6.81,0,0,0,.93-.07,2.66,2.66,0,0,0,.54-.13Z"/><path class="cls-5" d="M181.15,130.69a.61.61,0,0,1-.16.45.66.66,0,0,1-.41.17.57.57,0,0,1-.41-.16.59.59,0,0,1-.17-.44.56.56,0,0,1,.16-.44.54.54,0,0,1,.4-.16.51.51,0,0,1,.41.15A.55.55,0,0,1,181.15,130.69Zm0,8.08-.78,0-.11-6.21H181Z"/><path class="cls-5" d="M183,132.75c.23-.07.54-.14.93-.23a7.08,7.08,0,0,1,1.44-.15,3.1,3.1,0,0,1,1.18.19,1.79,1.79,0,0,1,.77.57,2.37,2.37,0,0,1,.42.89,5.86,5.86,0,0,1,.14,1.17l.06,3.46-.78,0-.06-3.22a5,5,0,0,0-.11-1.11,1.86,1.86,0,0,0-.31-.74,1.16,1.16,0,0,0-.56-.41,2.64,2.64,0,0,0-.86-.11,7.87,7.87,0,0,0-1,.08,2.08,2.08,0,0,0-.52.12l.09,5.44-.78,0Z"/><path class="cls-5" d="M191.62,132.24a2.71,2.71,0,0,1,1,.16,1.82,1.82,0,0,1,.7.46,1.87,1.87,0,0,1,.39.72,3.33,3.33,0,0,1,.14.91l.07,3.92-.35.08-.53.1-.66.09c-.24,0-.49,0-.75,0a3.31,3.31,0,0,1-.91-.09,2.07,2.07,0,0,1-.72-.33,1.57,1.57,0,0,1-.49-.59,2,2,0,0,1-.19-.89,1.81,1.81,0,0,1,.17-.87,1.69,1.69,0,0,1,.53-.6,2.51,2.51,0,0,1,.83-.36,4.69,4.69,0,0,1,1-.13l.35,0a2,2,0,0,1,.36,0l.3.05.18.05v-.38a3.21,3.21,0,0,0-.06-.63,1.33,1.33,0,0,0-.22-.55,1.18,1.18,0,0,0-.46-.39,1.77,1.77,0,0,0-.78-.13,3.56,3.56,0,0,0-1,.11l-.49.16-.12-.68a3.11,3.11,0,0,1,.62-.19A5.89,5.89,0,0,1,191.62,132.24Zm.17,5.78c.3,0,.57,0,.8,0a5.53,5.53,0,0,0,.58-.09l0-2.18a2.26,2.26,0,0,0-.42-.12,3.6,3.6,0,0,0-.8-.05,4,4,0,0,0-.59.05,1.65,1.65,0,0,0-.58.19,1.18,1.18,0,0,0-.42.38,1.15,1.15,0,0,0-.16.64,1.47,1.47,0,0,0,.12.59,1,1,0,0,0,.34.38,1.5,1.5,0,0,0,.5.2A2.81,2.81,0,0,0,191.79,138Z"/><path class="cls-5" d="M197.9,132.15a5.58,5.58,0,0,1,.73,0,3.59,3.59,0,0,1,.48.11L199,133a2,2,0,0,0-.39-.1,5.41,5.41,0,0,0-.77,0,4,4,0,0,0-.81.09,1.5,1.5,0,0,0-.4.13l.09,5.43h-.78l-.1-5.91a5.49,5.49,0,0,1,2.1-.45Z"/><path class="cls-5" d="M204.9,132a2.72,2.72,0,0,1,1,.15,1.88,1.88,0,0,1,.7.47,1.8,1.8,0,0,1,.39.72,3.27,3.27,0,0,1,.14.91l.07,3.91-.35.09-.52.1-.67.09-.75,0a4.32,4.32,0,0,1-.91-.09,2.16,2.16,0,0,1-.72-.33,1.65,1.65,0,0,1-.49-.59,2,2,0,0,1-.19-.9,1.68,1.68,0,0,1,.18-.86,1.47,1.47,0,0,1,.53-.6,2.2,2.2,0,0,1,.82-.36,4.77,4.77,0,0,1,1-.13h.35l.36.05a1.86,1.86,0,0,1,.3.05l.18,0v-.38a3.21,3.21,0,0,0-.06-.63,1.21,1.21,0,0,0-.22-.55,1.18,1.18,0,0,0-.46-.39,1.88,1.88,0,0,0-.78-.14,3.89,3.89,0,0,0-1,.12l-.49.16-.12-.68a3.11,3.11,0,0,1,.62-.19A5.89,5.89,0,0,1,204.9,132Zm.17,5.78c.31,0,.57,0,.8,0l.58-.09,0-2.19-.42-.11a3.42,3.42,0,0,0-.79-.06,4.07,4.07,0,0,0-.6.06,1.65,1.65,0,0,0-.58.19,1.18,1.18,0,0,0-.42.38,1.13,1.13,0,0,0-.16.64,1.47,1.47,0,0,0,.13.59.93.93,0,0,0,.33.38,1.5,1.5,0,0,0,.5.2A3.45,3.45,0,0,0,205.07,137.79Z"/><path class="cls-5" d="M210.75,138.36a2.43,2.43,0,0,1-.7-.09,1.16,1.16,0,0,1-.49-.26,1.14,1.14,0,0,1-.31-.48,2.43,2.43,0,0,1-.12-.74l-.13-7.67.78-.16.13,7.8a1.78,1.78,0,0,0,.07.46.56.56,0,0,0,.16.27.67.67,0,0,0,.29.15,3.14,3.14,0,0,0,.41.07Z"/><path class="cls-5" d="M31,152.68a4.13,4.13,0,0,1,.2-1.42,3,3,0,0,1,.6-1,2.45,2.45,0,0,1,.85-.63,2.89,2.89,0,0,1,1-.21,2.34,2.34,0,0,1,1.83.71,3.34,3.34,0,0,1,.72,2.28v.19c0,.07,0,.13,0,.18l-4.35.08a2.69,2.69,0,0,0,.59,1.74,2.09,2.09,0,0,0,1.69.58,3.35,3.35,0,0,0,1-.13,4.82,4.82,0,0,0,.53-.22l.16.67a2.76,2.76,0,0,1-.63.24,4.13,4.13,0,0,1-1.08.15,3.72,3.72,0,0,1-1.4-.21,2.74,2.74,0,0,1-1-.66,2.64,2.64,0,0,1-.55-1A4.38,4.38,0,0,1,31,152.68Zm4.39-.56a2.54,2.54,0,0,0-.48-1.51,1.51,1.51,0,0,0-1.24-.52,1.66,1.66,0,0,0-.74.19,1.68,1.68,0,0,0-.57.46,2.13,2.13,0,0,0-.37.66,2.57,2.57,0,0,0-.15.78Z"/><path class="cls-5" d="M42.13,155.24a2.51,2.51,0,0,1-.65.34,2.83,2.83,0,0,1-1.06.19,2.69,2.69,0,0,1-1.19-.22,2.45,2.45,0,0,1-.9-.65,2.91,2.91,0,0,1-.56-1,4.37,4.37,0,0,1-.21-1.3,3.93,3.93,0,0,1,.2-1.36,3,3,0,0,1,.6-1,2.73,2.73,0,0,1,1-.65,3.26,3.26,0,0,1,1.24-.25,6.76,6.76,0,0,1,1.37.09,5.6,5.6,0,0,1,.89.21l.14,8.2-.77,0ZM42,150.15a3.14,3.14,0,0,0-.53-.1,6.29,6.29,0,0,0-.94,0,2.1,2.1,0,0,0-1.6.68,2.62,2.62,0,0,0-.58,1.89,3.93,3.93,0,0,0,.12,1,2.39,2.39,0,0,0,.36.79,1.65,1.65,0,0,0,.64.53,2.08,2.08,0,0,0,1,.18A2.26,2.26,0,0,0,41,155c.17,0,.32-.09.47-.14s.26-.13.37-.19a2.43,2.43,0,0,0,.27-.19Z"/><path class="cls-5" d="M49.68,155.25c-.23.07-.54.15-.93.23a7.08,7.08,0,0,1-1.44.15,2.94,2.94,0,0,1-1.17-.18,1.82,1.82,0,0,1-.76-.57A2.24,2.24,0,0,1,45,154a5.17,5.17,0,0,1-.15-1.16l-.06-3.48h.78l.06,3.22a5.11,5.11,0,0,0,.11,1.12,1.82,1.82,0,0,0,.33.73,1.14,1.14,0,0,0,.56.4,2.59,2.59,0,0,0,.84.11,6.64,6.64,0,0,0,1-.08,2.58,2.58,0,0,0,.51-.11l-.09-5.45.78,0Z"/><path class="cls-5" d="M52.51,147.34a.58.58,0,0,1-.16.44.57.57,0,0,1-.41.17.59.59,0,0,1-.41-.15.63.63,0,0,1-.18-.44.6.6,0,0,1,.16-.44.57.57,0,0,1,.41-.17.56.56,0,0,1,.41.16A.61.61,0,0,1,52.51,147.34Zm0,8.08h-.78l-.11-6.2h.78Z"/><path class="cls-5" d="M55.29,157.59h-.78l-.14-8.2a6.13,6.13,0,0,1,.88-.25,8,8,0,0,1,1.37-.13,3.3,3.3,0,0,1,1.24.2,2.55,2.55,0,0,1,1,.63,2.69,2.69,0,0,1,.64,1,3.73,3.73,0,0,1,.25,1.35,4.46,4.46,0,0,1-.16,1.3,3,3,0,0,1-.53,1,2.51,2.51,0,0,1-.87.68,2.67,2.67,0,0,1-1.19.26,3,3,0,0,1-1.07-.15,2.89,2.89,0,0,1-.66-.32Zm-.06-3.34a1.58,1.58,0,0,0,.27.18,2.4,2.4,0,0,0,.39.17,2.15,2.15,0,0,0,.47.13,2.19,2.19,0,0,0,.52.05,2.14,2.14,0,0,0,1-.22,1.73,1.73,0,0,0,.62-.55,2.46,2.46,0,0,0,.33-.81,3.89,3.89,0,0,0,.09-1,2.63,2.63,0,0,0-.64-1.86,2.13,2.13,0,0,0-1.63-.63,6.81,6.81,0,0,0-.93.07,3.33,3.33,0,0,0-.53.12Z"/><path class="cls-5" d="M66.7,152.07a4.06,4.06,0,0,1-.18,1.34,3.2,3.2,0,0,1-.57,1,2.79,2.79,0,0,1-.89.67,2.64,2.64,0,0,1-1.13.25,2.62,2.62,0,0,1-2-.85,2.9,2.9,0,0,1-.61-1,4.25,4.25,0,0,1-.23-1.33,3.76,3.76,0,0,1,.19-1.33,3,3,0,0,1,.57-1,2.52,2.52,0,0,1,.88-.67,2.64,2.64,0,0,1,1.13-.26,2.88,2.88,0,0,1,1.15.22,2.6,2.6,0,0,1,.9.64,3,3,0,0,1,.61,1A3.93,3.93,0,0,1,66.7,152.07Zm-.83,0a2.92,2.92,0,0,0-.57-1.85,1.9,1.9,0,0,0-2.93.06,3.47,3.47,0,0,0,.07,3.7,1.77,1.77,0,0,0,1.47.66,1.82,1.82,0,0,0,1.46-.71A2.91,2.91,0,0,0,65.87,152.09Z"/><path class="cls-5" d="M73.75,155.18a3.17,3.17,0,0,1-1.27-.21,2.33,2.33,0,0,1-.93-.63,3,3,0,0,1-.58-1,4.55,4.55,0,0,1-.21-1.31,4.35,4.35,0,0,1,.17-1.34,3.13,3.13,0,0,1,.55-1,2.58,2.58,0,0,1,.89-.68,3,3,0,0,1,1.19-.26,5.61,5.61,0,0,1,.94.07,2.53,2.53,0,0,1,.68.2l-.19.68a2.14,2.14,0,0,0-.54-.18,3.14,3.14,0,0,0-.81-.06,1.86,1.86,0,0,0-1.55.69,2.9,2.9,0,0,0-.5,1.9,3.92,3.92,0,0,0,.13,1,2.05,2.05,0,0,0,.41.79,1.79,1.79,0,0,0,.7.5,2.55,2.55,0,0,0,1,.17,2.87,2.87,0,0,0,.85-.13,3.19,3.19,0,0,0,.49-.21l.18.67a2.56,2.56,0,0,1-.67.25A4.36,4.36,0,0,1,73.75,155.18Z"/><path class="cls-5" d="M81.8,151.81a4.38,4.38,0,0,1-.19,1.34,3,3,0,0,1-.57,1,2.9,2.9,0,0,1-.88.67,2.8,2.8,0,0,1-1.14.25,2.64,2.64,0,0,1-1.14-.21,2.78,2.78,0,0,1-.91-.64,2.92,2.92,0,0,1-.6-1,4,4,0,0,1-.24-1.33,4.1,4.1,0,0,1,.19-1.34,3,3,0,0,1,.57-1,2.6,2.6,0,0,1,2-.93,2.62,2.62,0,0,1,2,.86,3.08,3.08,0,0,1,.6,1A4,4,0,0,1,81.8,151.81Zm-.83,0A3,3,0,0,0,80.4,150a1.91,1.91,0,0,0-2.93.05A3,3,0,0,0,77,151.9a2.86,2.86,0,0,0,.57,1.83,1.91,1.91,0,0,0,2.93,0A2.92,2.92,0,0,0,81,151.83Z"/><path class="cls-5" d="M83.41,148.89c.23-.07.54-.15.93-.23a7.16,7.16,0,0,1,1.44-.15,3,3,0,0,1,1.19.19,1.76,1.76,0,0,1,.76.57,2.1,2.1,0,0,1,.42.89,5.21,5.21,0,0,1,.14,1.17l.06,3.46-.78,0,0-3.22a6.48,6.48,0,0,0-.11-1.11,1.8,1.8,0,0,0-.32-.74,1.16,1.16,0,0,0-.56-.41,2.6,2.6,0,0,0-.86-.11,8.06,8.06,0,0,0-1,.08,2.08,2.08,0,0,0-.52.12l.1,5.44-.78,0Z"/><path class="cls-5" d="M92.65,151.61a3.92,3.92,0,0,1,.21-1.43,3.2,3.2,0,0,1,.6-1,2.33,2.33,0,0,1,.85-.62,2.64,2.64,0,0,1,1-.22,2.37,2.37,0,0,1,1.83.71,3.34,3.34,0,0,1,.72,2.28,1.34,1.34,0,0,1,0,.2,1.09,1.09,0,0,1,0,.18l-4.36.07a2.74,2.74,0,0,0,.6,1.74,2.09,2.09,0,0,0,1.69.59,3.71,3.71,0,0,0,1-.14,5.26,5.26,0,0,0,.53-.21l.16.67a3.54,3.54,0,0,1-.63.23,3.84,3.84,0,0,1-1.08.16,3.68,3.68,0,0,1-1.4-.22,2.5,2.5,0,0,1-1-.66,2.69,2.69,0,0,1-.56-1A4.85,4.85,0,0,1,92.65,151.61Zm4.4-.57a2.48,2.48,0,0,0-.48-1.5,1.69,1.69,0,0,0-2-.34,2,2,0,0,0-.94,1.12,2.57,2.57,0,0,0-.15.78Z"/><path class="cls-5" d="M101.11,154.68a2.69,2.69,0,0,1-.69-.09,1.26,1.26,0,0,1-.5-.27,1.21,1.21,0,0,1-.31-.47,2.22,2.22,0,0,1-.11-.74l-.14-7.68.78-.16.14,7.8a1.42,1.42,0,0,0,.06.46.69.69,0,0,0,.16.28.78.78,0,0,0,.29.14,3.32,3.32,0,0,0,.41.08Z"/><path class="cls-5" d="M109.47,154.06a2.56,2.56,0,0,1-.64.35,3,3,0,0,1-1.06.19,2.86,2.86,0,0,1-1.2-.22,2.42,2.42,0,0,1-.89-.65,2.86,2.86,0,0,1-.57-1,4.48,4.48,0,0,1-.21-1.3,3.85,3.85,0,0,1,.2-1.36,2.79,2.79,0,0,1,.61-1,2.66,2.66,0,0,1,1-.66,3.25,3.25,0,0,1,1.23-.24,7.63,7.63,0,0,1,1.37.08c.37.07.66.14.9.21l.14,8.21h-.78Zm-.08-5.08a3.13,3.13,0,0,0-.54-.11,7.93,7.93,0,0,0-.93,0,2.13,2.13,0,0,0-1.61.69,2.66,2.66,0,0,0-.58,1.89,4.36,4.36,0,0,0,.13,1,2.09,2.09,0,0,0,.36.8,1.75,1.75,0,0,0,.64.53,2,2,0,0,0,1,.18,2.18,2.18,0,0,0,.52-.06,2.88,2.88,0,0,0,.47-.15,2.12,2.12,0,0,0,.37-.19,1.58,1.58,0,0,0,.27-.18Z"/><path class="cls-5" d="M117,154.08l-.93.23a7.15,7.15,0,0,1-1.44.14,2.86,2.86,0,0,1-1.16-.18,1.92,1.92,0,0,1-.77-.56,2.38,2.38,0,0,1-.43-.89,5.26,5.26,0,0,1-.15-1.17l-.06-3.48h.78l.06,3.23a5.53,5.53,0,0,0,.12,1.11,1.76,1.76,0,0,0,.32.73,1.21,1.21,0,0,0,.57.4,2.29,2.29,0,0,0,.83.11,6.52,6.52,0,0,0,1-.07,3.2,3.2,0,0,0,.51-.12l-.09-5.45h.78Z"/><path class="cls-5" d="M118.64,151.16a3.92,3.92,0,0,1,.21-1.43,3.15,3.15,0,0,1,.59-1,2.48,2.48,0,0,1,.86-.63,2.84,2.84,0,0,1,1-.21,2.34,2.34,0,0,1,1.83.71,3.29,3.29,0,0,1,.71,2.28,1.21,1.21,0,0,1,0,.19c0,.07,0,.13,0,.18l-4.36.08a2.74,2.74,0,0,0,.6,1.74,2.07,2.07,0,0,0,1.69.58,3.27,3.27,0,0,0,1-.13,4.38,4.38,0,0,0,.54-.22l.15.67a2.63,2.63,0,0,1-.62.24,3.88,3.88,0,0,1-1.09.15,3.67,3.67,0,0,1-1.39-.21,2.57,2.57,0,0,1-1-.66,2.66,2.66,0,0,1-.56-1A4.72,4.72,0,0,1,118.64,151.16Zm4.4-.57a2.47,2.47,0,0,0-.49-1.51,1.5,1.5,0,0,0-1.23-.52,1.67,1.67,0,0,0-.75.19,1.77,1.77,0,0,0-.56.46,2,2,0,0,0-.38.66,3.37,3.37,0,0,0-.15.78Z"/><path class="cls-5" d="M129,147.88l2.47,0v.66l-2.47,0,.06,3.3a3.13,3.13,0,0,0,.11.85,1.22,1.22,0,0,0,.26.51.77.77,0,0,0,.41.23,1.8,1.8,0,0,0,.53,0,2.39,2.39,0,0,0,.79-.12,4.41,4.41,0,0,0,.47-.22l.2.64a2.77,2.77,0,0,1-.58.26,2.94,2.94,0,0,1-.91.15,2.74,2.74,0,0,1-1-.13,1.38,1.38,0,0,1-.63-.45,1.86,1.86,0,0,1-.35-.75,5.53,5.53,0,0,1-.11-1.08l-.1-5.71.78-.16Z"/><path class="cls-5" d="M135.09,147.65a4.26,4.26,0,0,1,.73,0,2.48,2.48,0,0,1,.48.11l-.15.68a1.15,1.15,0,0,0-.39-.1,4.24,4.24,0,0,0-.77,0,3.36,3.36,0,0,0-.81.09,2.26,2.26,0,0,0-.4.12l.09,5.44h-.78l-.1-5.91a6.12,6.12,0,0,1,.82-.29A5.13,5.13,0,0,1,135.09,147.65Z"/><path class="cls-5" d="M139.33,147.55a2.92,2.92,0,0,1,1,.16,1.77,1.77,0,0,1,.7.47,1.8,1.8,0,0,1,.39.72,3.27,3.27,0,0,1,.14.91l.07,3.91-.35.08-.52.1a8.89,8.89,0,0,1-1.42.13,3.31,3.31,0,0,1-.91-.09,1.9,1.9,0,0,1-.72-.33,1.57,1.57,0,0,1-.49-.59,2,2,0,0,1-.19-.89,1.83,1.83,0,0,1,.17-.87,1.69,1.69,0,0,1,.53-.6,2.51,2.51,0,0,1,.83-.36,4.72,4.72,0,0,1,1-.12,2.08,2.08,0,0,1,.35,0l.36,0,.3.06a.44.44,0,0,1,.18.05V150a3.36,3.36,0,0,0-.06-.63,1.17,1.17,0,0,0-.22-.54,1,1,0,0,0-.46-.39,1.63,1.63,0,0,0-.78-.14,3.89,3.89,0,0,0-1,.12,4,4,0,0,0-.49.16l-.12-.68a2.56,2.56,0,0,1,.62-.19A5,5,0,0,1,139.33,147.55Zm.17,5.79c.31,0,.57,0,.8-.05a3.74,3.74,0,0,0,.58-.09l0-2.18a2.26,2.26,0,0,0-.42-.12,3.51,3.51,0,0,0-.79-.05,4.16,4.16,0,0,0-.6.05,1.88,1.88,0,0,0-.58.19,1.31,1.31,0,0,0-.42.39,1.1,1.1,0,0,0-.16.64,1.42,1.42,0,0,0,.13.58.94.94,0,0,0,.33.38,1.5,1.5,0,0,0,.5.2A3.4,3.4,0,0,0,139.5,153.34Z"/><path class="cls-5" d="M144.29,148a3.11,3.11,0,0,1,.65-.34,3,3,0,0,1,1.06-.19,2.86,2.86,0,0,1,1.2.22,2.33,2.33,0,0,1,.89.66,3,3,0,0,1,.57,1,4.17,4.17,0,0,1,.2,1.3,3.89,3.89,0,0,1-.19,1.36,3.09,3.09,0,0,1-.61,1,2.54,2.54,0,0,1-.95.66,3.46,3.46,0,0,1-1.24.24,7.69,7.69,0,0,1-1.37-.08c-.36-.07-.66-.14-.89-.21l-.16-9,.78-.16Zm.09,5.1a2.93,2.93,0,0,0,.54.11,6.3,6.3,0,0,0,.93,0,2.09,2.09,0,0,0,1.61-.68,2.65,2.65,0,0,0,.58-1.88,4.38,4.38,0,0,0-.13-1,2.44,2.44,0,0,0-.36-.8,1.75,1.75,0,0,0-.64-.53,2.05,2.05,0,0,0-1-.19,2.33,2.33,0,0,0-.53.06,3.1,3.1,0,0,0-.46.15,2.24,2.24,0,0,0-.38.19,2,2,0,0,0-.26.18Z"/><path class="cls-5" d="M152.39,147.33a2.77,2.77,0,0,1,1.05.15,1.8,1.8,0,0,1,1.09,1.19,3.27,3.27,0,0,1,.14.91l.06,3.91a2.16,2.16,0,0,1-.34.08,5.06,5.06,0,0,1-.53.1,5.86,5.86,0,0,1-.66.09c-.25,0-.5,0-.75.05a3.73,3.73,0,0,1-.91-.1,1.81,1.81,0,0,1-.73-.33,1.59,1.59,0,0,1-.49-.59,2.13,2.13,0,0,1-.19-.89,1.91,1.91,0,0,1,.18-.86,1.56,1.56,0,0,1,.53-.61,2.26,2.26,0,0,1,.82-.35,4.85,4.85,0,0,1,1-.13h.36l.36,0,.3.06.18.05v-.39a4.2,4.2,0,0,0-.06-.62,1.41,1.41,0,0,0-.22-.55,1.26,1.26,0,0,0-.46-.39,1.76,1.76,0,0,0-.78-.14,4,4,0,0,0-1,.12c-.22.06-.38.12-.49.16l-.12-.68a2.83,2.83,0,0,1,.63-.19A4.88,4.88,0,0,1,152.39,147.33Zm.18,5.78c.3,0,.57,0,.8-.05s.42-.05.58-.08l0-2.19a2.26,2.26,0,0,0-.42-.12,4.34,4.34,0,0,0-.8,0,4.28,4.28,0,0,0-.6,0,2.12,2.12,0,0,0-.57.19,1.34,1.34,0,0,0-.43.39,1.11,1.11,0,0,0-.15.64,1.25,1.25,0,0,0,.12.58.94.94,0,0,0,.33.38,1.3,1.3,0,0,0,.51.2A3.4,3.4,0,0,0,152.57,153.11Z"/><path class="cls-5" d="M155.56,155.86a1,1,0,0,1-.33,0,.79.79,0,0,1-.3-.08l.1-.63.23,0a1.23,1.23,0,0,0,.27,0,1,1,0,0,0,.94-.41,2.42,2.42,0,0,0,.21-1.19l-.11-6.18.78,0,.11,6.15a2.8,2.8,0,0,1-.41,1.74A1.8,1.8,0,0,1,155.56,155.86Zm1.94-10.35a.6.6,0,0,1-.16.44.57.57,0,0,1-.41.17.57.57,0,0,1-.41-.16.56.56,0,0,1-.17-.43.57.57,0,0,1,.56-.61.59.59,0,0,1,.41.15A.57.57,0,0,1,157.5,145.51Z"/><path class="cls-5" d="M161.16,147.17a3,3,0,0,1,1.05.16,1.8,1.8,0,0,1,1.09,1.19,3.27,3.27,0,0,1,.14.91l.06,3.91-.34.08-.53.1a5.86,5.86,0,0,1-.66.09c-.25,0-.5,0-.75,0a3.31,3.31,0,0,1-.91-.09,2.12,2.12,0,0,1-.73-.33,1.67,1.67,0,0,1-.49-.59,2.13,2.13,0,0,1-.19-.89,1.93,1.93,0,0,1,.18-.87,1.6,1.6,0,0,1,.53-.6,2.46,2.46,0,0,1,.82-.36,4.32,4.32,0,0,1,1-.12,2.1,2.1,0,0,1,.35,0l.36,0,.3.05.18,0v-.38a3.36,3.36,0,0,0-.06-.63,1.55,1.55,0,0,0-.22-.55,1.09,1.09,0,0,0-.46-.38,1.63,1.63,0,0,0-.78-.14,4.68,4.68,0,0,0-1,.11l-.49.17-.12-.68a2.83,2.83,0,0,1,.63-.19A4.9,4.9,0,0,1,161.16,147.17Zm.18,5.78c.3,0,.57,0,.8,0a4,4,0,0,0,.58-.09l0-2.18a2.26,2.26,0,0,0-.42-.12,3.6,3.6,0,0,0-.8-.05,4.28,4.28,0,0,0-.6.05,1.82,1.82,0,0,0-.57.19,1.13,1.13,0,0,0-.42.39,1,1,0,0,0-.16.64,1.28,1.28,0,0,0,.12.58.94.94,0,0,0,.33.38,1.55,1.55,0,0,0,.51.2A2.81,2.81,0,0,0,161.34,153Z"/><path class="cls-5" d="M166.65,152.91a.66.66,0,0,1-.16.47.63.63,0,0,1-.48.2.64.64,0,0,1-.49-.18.7.7,0,0,1,0-.94.66.66,0,0,1,1.15.45Z"/></svg>