<svg id="Capa_1" data-name="Capa 1" xmlns="http://www.w3.org/2000/svg" xmlns:xlink="http://www.w3.org/1999/xlink" viewBox="0 0 222.5 191.23"><defs><style>.cls-1{fill:none;}.cls-2{clip-path:url(#clip-path);}.cls-3{fill:#bdb5da;}.cls-4{fill:#fff;}.cls-5{fill:#1d1d1b;}</style><clipPath id="clip-path"><rect class="cls-1" width="222.5" height="191.23"/></clipPath></defs><g class="cls-2"><path class="cls-3" d="M5.3,30.51C1,35.7,17,188.29,21.33,191.23c82.81-13.52,179-11.12,198.75-17.95,5.57-13.59,1.24-151.51-9.9-161.28C198.72,5.72,9.61,25.32,5.3,30.51"/><path class="cls-4" d="M1.29,9.86c-4.67,5.35,4.5,171.57,8.77,175,85.55-9.38,184-.67,204.64-6.8,6.36-14.36,8.5-164-2.46-175.25C200.8-4.68,6,4.51,1.29,9.86"/></g><path class="cls-5" d="M86.41,39A16.68,16.68,0,0,1,89,38.74a4.46,4.46,0,0,1,2.85.62,2.24,2.24,0,0,1,.85,1.82,2.33,2.33,0,0,1-1.5,2.19v0A2.19,2.19,0,0,1,92.44,45c.3,1,.6,2.12.77,2.45l-2,.05a11.91,11.91,0,0,1-.65-2c-.26-1.09-.64-1.38-1.45-1.37h-.6l.08,3.45-2,0Zm2,3.72h.78c1,0,1.57-.53,1.55-1.3s-.57-1.2-1.48-1.19a6.27,6.27,0,0,0-.9.08Z"/><path class="cls-5" d="M95.65,44.87c.08.82.9,1.19,1.82,1.17a5.47,5.47,0,0,0,1.75-.3l.29,1.34a6.35,6.35,0,0,1-2.29.44,3.05,3.05,0,0,1-3.46-3.16,3.18,3.18,0,0,1,3.13-3.47c2.06,0,2.87,1.54,2.9,3.11a4.88,4.88,0,0,1,0,.78Zm2.3-1.4a1.15,1.15,0,0,0-1.15-1.26,1.3,1.3,0,0,0-1.19,1.31Z"/><path class="cls-5" d="M107,37.94l.16,7.33c0,.72.06,1.47.09,1.9l-1.75,0-.11-.94h0a2.22,2.22,0,0,1-2,1.13c-1.51,0-2.75-1.23-2.79-3.21-.06-2.14,1.25-3.41,2.77-3.44a1.91,1.91,0,0,1,1.69.68h0L105,38Zm-1.86,5.61a2,2,0,0,0,0-.35,1.19,1.19,0,0,0-1.18-1c-.89,0-1.34.83-1.32,1.83s.57,1.75,1.39,1.73a1.15,1.15,0,0,0,1.12-1,1.3,1.3,0,0,0,0-.45Z"/><path class="cls-5" d="M112.28,47.06l-.13-.64h0a2.29,2.29,0,0,1-1.8.81,2,2,0,0,1-2.1-1.9c0-1.65,1.43-2.48,3.68-2.51v-.09c0-.34-.2-.82-1.18-.8a3.61,3.61,0,0,0-1.74.52l-.4-1.26a5.3,5.3,0,0,1,2.46-.62,2.49,2.49,0,0,1,2.86,2.69l0,2.2a11,11,0,0,0,.13,1.55Zm-.3-3c-1,0-1.84.28-1.82,1a.71.71,0,0,0,.79.74,1.08,1.08,0,0,0,1-.75,1,1,0,0,0,0-.34Z"/><path class="cls-5" d="M120.19,46.73a4.8,4.8,0,0,1-1.76.32A3.08,3.08,0,0,1,115,43.88a3.32,3.32,0,0,1,3.57-3.46,4.8,4.8,0,0,1,1.51.21l-.28,1.48a2.73,2.73,0,0,0-1.11-.17,1.78,1.78,0,0,0,.12,3.56,3.14,3.14,0,0,0,1.13-.22Z"/><path class="cls-5" d="M123.5,38.63l0,1.82,1.41,0,0,1.46-1.42,0,.05,2.3c0,.77.21,1.11.8,1.1a3.71,3.71,0,0,0,.59-.06l0,1.49a3.74,3.74,0,0,1-1.28.2,2.05,2.05,0,0,1-1.49-.52,2.57,2.57,0,0,1-.59-1.87l-.06-2.6-.84,0,0-1.46h.84l0-1.38Z"/><path class="cls-5" d="M132.22,43.37a3.19,3.19,0,0,1-3.28,3.47,3.12,3.12,0,0,1-3.36-3.21,3.18,3.18,0,0,1,3.32-3.44A3.09,3.09,0,0,1,132.22,43.37Zm-4.6.17c0,1.09.5,1.9,1.35,1.88s1.24-.79,1.21-1.94c0-.95-.4-1.9-1.3-1.88S127.6,42.6,127.62,43.54Z"/><path class="cls-5" d="M133.34,42.33c0-.93-.06-1.54-.09-2.09l1.7,0,.09,1.17h.05A1.87,1.87,0,0,1,136.78,40a2.75,2.75,0,0,1,.42,0l0,1.86a2.16,2.16,0,0,0-.54,0,1.26,1.26,0,0,0-1.33,1,2.94,2.94,0,0,0,0,.44l.07,3.22-2,.05Z"/><path class="cls-5" d="M18.12,77.69l-.18-8.31,4.8-.11V70l-4,.09L18.83,73l3.55-.08,0,.7-3.55.08L18.92,77l4.29-.1,0,.71Z"/><path class="cls-5" d="M26.22,77a2.52,2.52,0,0,0,1.1-.24.78.78,0,0,0,.42-.76,1.1,1.1,0,0,0-.08-.43.91.91,0,0,0-.27-.32,2.56,2.56,0,0,0-.48-.27l-.73-.29c-.24-.09-.46-.19-.67-.28A3.09,3.09,0,0,1,25,74a1.57,1.57,0,0,1-.39-.46,1.62,1.62,0,0,1,.38-1.91,2.39,2.39,0,0,1,1.56-.5,4,4,0,0,1,1.05.09,3.5,3.5,0,0,1,.59.17l-.17.71a4.67,4.67,0,0,0-.49-.19,3.65,3.65,0,0,0-1-.1,2.62,2.62,0,0,0-.5.07,1.28,1.28,0,0,0-.41.18.86.86,0,0,0-.28.29.91.91,0,0,0,.29,1.17,2.06,2.06,0,0,0,.47.25l.62.25.7.28a2.53,2.53,0,0,1,.58.34,1.54,1.54,0,0,1,.42.5,1.58,1.58,0,0,1,.18.74,1.44,1.44,0,0,1-.61,1.28,3,3,0,0,1-1.71.47A4.63,4.63,0,0,1,25,77.55a4.92,4.92,0,0,1-.58-.2l.19-.71a.64.64,0,0,0,.16.07,2.2,2.2,0,0,0,.32.12,4.19,4.19,0,0,0,.49.1A3.4,3.4,0,0,0,26.22,77Z"/><path class="cls-5" d="M32.69,77.51a3.41,3.41,0,0,1-1.28-.2,2.46,2.46,0,0,1-.93-.64,2.83,2.83,0,0,1-.58-1,4.18,4.18,0,0,1-.22-1.31A4.07,4.07,0,0,1,29.85,73a2.94,2.94,0,0,1,.54-1,2.41,2.41,0,0,1,.89-.69A3,3,0,0,1,32.46,71a4.7,4.7,0,0,1,.94.06,2.17,2.17,0,0,1,.69.21L33.9,72a2.73,2.73,0,0,0-.55-.18,3.65,3.65,0,0,0-.8-.05,1.84,1.84,0,0,0-1.55.7,3,3,0,0,0-.5,1.9,4,4,0,0,0,.15,1,1.93,1.93,0,0,0,.4.78,1.73,1.73,0,0,0,.71.5,2.7,2.7,0,0,0,1,.17,2.84,2.84,0,0,0,.85-.14l.49-.2.18.66a2.43,2.43,0,0,1-.67.25A4.36,4.36,0,0,1,32.69,77.51Z"/><path class="cls-5" d="M37.61,70.94a4.33,4.33,0,0,1,.73,0,1.91,1.91,0,0,1,.47.11l-.14.67a1.73,1.73,0,0,0-.39-.09,4.36,4.36,0,0,0-.78,0,3.94,3.94,0,0,0-.8.09,2,2,0,0,0-.4.13l.11,5.43-.77,0-.13-5.91a4.66,4.66,0,0,1,.82-.29A5,5,0,0,1,37.61,70.94Z"/><path class="cls-5" d="M41,69.12a.6.6,0,0,1-.16.44.61.61,0,0,1-.82,0,.63.63,0,0,1-.18-.44A.6.6,0,0,1,40,68.7a.57.57,0,0,1,.41-.17.61.61,0,0,1,.41.15A.63.63,0,0,1,41,69.12Zm0,8.07-.78,0L40.06,71l.78,0Z"/><path class="cls-5" d="M43.62,71.3a3,3,0,0,1,.64-.34,3,3,0,0,1,1.06-.2,2.71,2.71,0,0,1,1.2.22,2.54,2.54,0,0,1,.9.65,3,3,0,0,1,.56,1,4.17,4.17,0,0,1,.22,1.3A3.89,3.89,0,0,1,48,75.3a2.92,2.92,0,0,1-.6,1,2.78,2.78,0,0,1-.95.67,3.47,3.47,0,0,1-1.24.25,7.69,7.69,0,0,1-1.37-.08c-.36-.07-.66-.14-.89-.21l-.2-9,.78-.16Zm.11,5.1a3.14,3.14,0,0,0,.53.1,5.18,5.18,0,0,0,.94,0,2.14,2.14,0,0,0,1.6-.69A2.64,2.64,0,0,0,47.37,74a4.38,4.38,0,0,0-.13-1,2.39,2.39,0,0,0-.36-.79,1.72,1.72,0,0,0-.65-.54,2,2,0,0,0-1-.18,2.25,2.25,0,0,0-.52.07c-.17,0-.32.09-.47.14s-.26.13-.37.19a2.43,2.43,0,0,0-.27.19Z"/><path class="cls-5" d="M49.52,73.9a3.93,3.93,0,0,1,.2-1.43,3.43,3.43,0,0,1,.59-1,2.55,2.55,0,0,1,.85-.62,2.69,2.69,0,0,1,1-.22,2.33,2.33,0,0,1,1.83.7,3.29,3.29,0,0,1,.73,2.28v.19a.9.9,0,0,1,0,.18l-4.35.1a2.74,2.74,0,0,0,.6,1.74,2.11,2.11,0,0,0,1.7.57,3.28,3.28,0,0,0,1-.14,3.21,3.21,0,0,0,.54-.22l.15.67a3,3,0,0,1-.62.25,4.26,4.26,0,0,1-1.08.15,3.69,3.69,0,0,1-1.4-.21,2.44,2.44,0,0,1-1-.65,2.56,2.56,0,0,1-.56-1A4.48,4.48,0,0,1,49.52,73.9Zm4.39-.59a2.42,2.42,0,0,0-.49-1.5,1.45,1.45,0,0,0-1.23-.51,1.54,1.54,0,0,0-.75.18,2,2,0,0,0-.57.46,2.18,2.18,0,0,0-.37.67,2.9,2.9,0,0,0-.14.78Z"/><path class="cls-5" d="M58.83,73.69a3.9,3.9,0,0,1,.2-1.42,3.13,3.13,0,0,1,.59-1,2.42,2.42,0,0,1,.85-.62,2.47,2.47,0,0,1,1-.22,2.33,2.33,0,0,1,1.83.7A3.29,3.29,0,0,1,64,73.38v.19a1.1,1.1,0,0,1,0,.18l-4.35.09a2.74,2.74,0,0,0,.6,1.74,2.1,2.1,0,0,0,1.69.58A3.65,3.65,0,0,0,63,76a5.18,5.18,0,0,0,.54-.22l.15.67a2.63,2.63,0,0,1-.62.24,3.84,3.84,0,0,1-1.08.16,3.69,3.69,0,0,1-1.4-.21,2.44,2.44,0,0,1-1-.65A2.75,2.75,0,0,1,59,75,4.74,4.74,0,0,1,58.83,73.69Zm4.39-.58a2.42,2.42,0,0,0-.49-1.5,1.46,1.46,0,0,0-1.23-.52,1.67,1.67,0,0,0-.75.19,1.81,1.81,0,0,0-.57.46,2.13,2.13,0,0,0-.37.66,2.9,2.9,0,0,0-.14.78Z"/><path class="cls-5" d="M67.3,76.73a2.43,2.43,0,0,1-.7-.09,1.16,1.16,0,0,1-.49-.26,1.14,1.14,0,0,1-.31-.48,1.92,1.92,0,0,1-.12-.73l-.17-7.68.78-.16.17,7.8a1.47,1.47,0,0,0,.06.46A.59.59,0,0,0,67,76a3.51,3.51,0,0,0,.42.08Z"/><path class="cls-5" d="M72.11,70.31l2.47-.06,0,.67-2.47,0,.07,3.3a3.13,3.13,0,0,0,.11.85,1.12,1.12,0,0,0,.27.51.8.8,0,0,0,.41.23,2.22,2.22,0,0,0,.53,0,2.36,2.36,0,0,0,.79-.13,4.1,4.1,0,0,0,.46-.22l.21.64a3.42,3.42,0,0,1-.58.26,2.94,2.94,0,0,1-.91.16,2.74,2.74,0,0,1-1-.13,1.44,1.44,0,0,1-.63-.44,1.84,1.84,0,0,1-.35-.76,5.38,5.38,0,0,1-.12-1.08l-.13-5.71.78-.16Z"/><path class="cls-5" d="M75.66,73.33a4.15,4.15,0,0,1,.2-1.43,3.43,3.43,0,0,1,.59-1,2.55,2.55,0,0,1,.85-.62,2.69,2.69,0,0,1,1-.22,2.33,2.33,0,0,1,1.83.7A3.29,3.29,0,0,1,80.86,73v.19c0,.07,0,.13,0,.18l-4.36.1a2.74,2.74,0,0,0,.6,1.74,2.11,2.11,0,0,0,1.7.57,3.28,3.28,0,0,0,1-.14,3.21,3.21,0,0,0,.54-.22l.16.67a3.48,3.48,0,0,1-.63.25,4.26,4.26,0,0,1-1.08.15,3.69,3.69,0,0,1-1.4-.21,2.44,2.44,0,0,1-1-.65,2.56,2.56,0,0,1-.56-1A4.85,4.85,0,0,1,75.66,73.33Zm4.39-.59a2.42,2.42,0,0,0-.49-1.5,1.45,1.45,0,0,0-1.23-.52,1.67,1.67,0,0,0-.75.19,1.8,1.8,0,0,0-.56.46,2,2,0,0,0-.37.67,2.57,2.57,0,0,0-.15.78Z"/><path class="cls-5" d="M84.48,73.62c-.17.21-.34.43-.51.67s-.34.46-.49.69-.31.46-.44.69-.24.44-.33.61l-.8,0a16.6,16.6,0,0,1,1-1.72c.37-.52.74-1,1.12-1.55l-2.16-2.94h.91l1.68,2.31L86,70h.85l-2,3,.58.7c.2.25.41.52.61.79s.41.55.6.84.37.58.53.87l-.84,0q-.15-.26-.36-.57c-.14-.21-.3-.43-.47-.65s-.34-.46-.53-.69S84.66,73.83,84.48,73.62Z"/><path class="cls-5" d="M89.09,69.94l2.47-.06v.66l-2.47.06.08,3.3a3.19,3.19,0,0,0,.1.85,1.36,1.36,0,0,0,.27.51.87.87,0,0,0,.42.23,2.17,2.17,0,0,0,.53.05,2.29,2.29,0,0,0,.78-.13,4.41,4.41,0,0,0,.47-.22l.2.64a3.08,3.08,0,0,1-.58.26,2.94,2.94,0,0,1-.91.16,3.08,3.08,0,0,1-1-.13,1.44,1.44,0,0,1-.63-.44,2,2,0,0,1-.35-.76,5.38,5.38,0,0,1-.12-1.08l-.12-5.71.78-.16Z"/><path class="cls-5" d="M98.26,72.85a4,4,0,0,1-.18,1.33,3.05,3.05,0,0,1-.56,1,2.75,2.75,0,0,1-.88.67,2.81,2.81,0,0,1-1.14.26,2.66,2.66,0,0,1-2-.85,3,3,0,0,1-.61-1A4,4,0,0,1,92.6,73a4.1,4.1,0,0,1,.18-1.34,2.86,2.86,0,0,1,.57-1,2.54,2.54,0,0,1,.88-.68,2.61,2.61,0,0,1,1.13-.26,2.71,2.71,0,0,1,1.15.21,2.56,2.56,0,0,1,.9.64,3,3,0,0,1,.61,1A4,4,0,0,1,98.26,72.85Zm-.83,0A2.92,2.92,0,0,0,96.85,71a1.9,1.9,0,0,0-2.92.07,3.44,3.44,0,0,0,.08,3.7,1.91,1.91,0,0,0,2.93-.07A2.92,2.92,0,0,0,97.43,72.87Z"/><path class="cls-5" d="M107.68,75.55a8,8,0,0,1-.88.24,6.94,6.94,0,0,1-1.36.14,3.32,3.32,0,0,1-1.25-.19,2.65,2.65,0,0,1-1-.62,2.93,2.93,0,0,1-.65-1,3.82,3.82,0,0,1-.25-1.35,4.58,4.58,0,0,1,.15-1.31,2.88,2.88,0,0,1,.53-1,2.39,2.39,0,0,1,.87-.7,3.11,3.11,0,0,1,2.91.2l-.07-3.33.77-.16Zm-.88-4.87-.28-.17a1.67,1.67,0,0,0-.38-.17,2.15,2.15,0,0,0-.47-.13,2.27,2.27,0,0,0-.53,0,2.12,2.12,0,0,0-1,.23,1.76,1.76,0,0,0-.62.56,2.46,2.46,0,0,0-.33.81,5.18,5.18,0,0,0-.09,1,2.62,2.62,0,0,0,.66,1.86,2.08,2.08,0,0,0,1.63.62,6.81,6.81,0,0,0,.93-.07,2.54,2.54,0,0,0,.53-.13Z"/><path class="cls-5" d="M109.29,72.59a3.9,3.9,0,0,1,.2-1.42,3.13,3.13,0,0,1,.59-1,2.42,2.42,0,0,1,.85-.62,2.47,2.47,0,0,1,1-.22,2.3,2.3,0,0,1,1.83.7,3.34,3.34,0,0,1,.73,2.28v.19c0,.06,0,.12,0,.18l-4.35.09a2.74,2.74,0,0,0,.6,1.74,2.1,2.1,0,0,0,1.69.58,3.65,3.65,0,0,0,1-.14,4.82,4.82,0,0,0,.53-.22l.16.67a2.83,2.83,0,0,1-.62.24,3.84,3.84,0,0,1-1.08.16,3.69,3.69,0,0,1-1.4-.21,2.44,2.44,0,0,1-1-.65,2.62,2.62,0,0,1-.57-1A4.74,4.74,0,0,1,109.29,72.59Zm4.39-.58a2.47,2.47,0,0,0-.49-1.51A1.5,1.5,0,0,0,112,70a1.62,1.62,0,0,0-.74.19,1.81,1.81,0,0,0-.57.46,2.13,2.13,0,0,0-.37.66,2.9,2.9,0,0,0-.14.78Z"/><path class="cls-5" d="M118.28,66.19a4.51,4.51,0,0,1,.82.06,1.59,1.59,0,0,1,.42.13l-.14.68a2.32,2.32,0,0,0-.39-.12,2.52,2.52,0,0,0-.66,0,1.47,1.47,0,0,0-1.17.44,2,2,0,0,0-.32,1.35v.65l2.5,0v.66l-2.5,0,.13,5.55h-.78l-.15-6.87a2.64,2.64,0,0,1,.51-1.84A2.28,2.28,0,0,1,118.28,66.19Zm3.22,1.17a.6.6,0,0,1-.16.44.54.54,0,0,1-.4.17.59.59,0,0,1-.41-.15.65.65,0,0,1,0-.88.59.59,0,0,1,.4-.17.59.59,0,0,1,.41.15A.56.56,0,0,1,121.5,67.36Zm0,8.08h-.78l-.14-6.2.78,0Z"/><path class="cls-5" d="M123.36,69.41q.35-.1.93-.24a7.05,7.05,0,0,1,1.43-.15,3,3,0,0,1,1.19.18,1.77,1.77,0,0,1,.77.56,2.5,2.5,0,0,1,.42.9,5.17,5.17,0,0,1,.15,1.16l.07,3.47h-.78l-.07-3.21a5.61,5.61,0,0,0-.11-1.11,1.8,1.8,0,0,0-.32-.74,1.14,1.14,0,0,0-.56-.4,2.43,2.43,0,0,0-.86-.11,6.14,6.14,0,0,0-1,.08,3.8,3.8,0,0,0-.52.12l.12,5.45h-.78Z"/><path class="cls-5" d="M131,67.15a.58.58,0,0,1-.16.44.61.61,0,0,1-.82,0,.63.63,0,0,1-.18-.43.57.57,0,0,1,.16-.44.58.58,0,0,1,.82,0A.61.61,0,0,1,131,67.15Zm0,8.08-.78,0L130.11,69h.78Z"/><path class="cls-5" d="M133.61,69l2.47-.06,0,.66-2.48.06.08,3.3a3.24,3.24,0,0,0,.1.85,1.36,1.36,0,0,0,.27.51,1,1,0,0,0,.42.23,2.81,2.81,0,0,0,.53,0,2.27,2.27,0,0,0,.78-.14,3,3,0,0,0,.47-.22l.2.65a3.08,3.08,0,0,1-.58.26,2.94,2.94,0,0,1-.91.15,2.83,2.83,0,0,1-1-.12,1.46,1.46,0,0,1-.63-.45A1.86,1.86,0,0,1,133,74a5.38,5.38,0,0,1-.12-1.08l-.12-5.71.78-.16Z"/><path class="cls-5" d="M138.51,67a.6.6,0,0,1-.16.44.54.54,0,0,1-.4.17.59.59,0,0,1-.41-.15.56.56,0,0,1-.18-.44.6.6,0,0,1,.16-.44.54.54,0,0,1,.4-.17.59.59,0,0,1,.41.15A.56.56,0,0,1,138.51,67Zm0,8.08h-.78l-.14-6.2.78,0Z"/><path class="cls-5" d="M142.45,74.14c.16-.35.33-.75.5-1.19s.32-.92.48-1.4.29-1,.42-1.44.24-1,.33-1.37l.78,0c-.13.57-.28,1.13-.45,1.69s-.34,1.1-.52,1.63-.38,1-.59,1.54-.4,1-.59,1.39l-.72,0c-.22-.43-.44-.88-.66-1.37s-.44-1-.65-1.51-.4-1.06-.59-1.61-.36-1.1-.52-1.67h.83c.1.42.23.87.38,1.35s.31,1,.49,1.43.35.93.54,1.37S142.28,73.8,142.45,74.14Z"/><path class="cls-5" d="M151.48,71.69A4,4,0,0,1,151.3,73a2.86,2.86,0,0,1-.57,1,2.57,2.57,0,0,1-.88.68,2.76,2.76,0,0,1-1.13.26,2.66,2.66,0,0,1-2.05-.85,3,3,0,0,1-.61-1,4,4,0,0,1-.24-1.33,4.1,4.1,0,0,1,.18-1.34,3.15,3.15,0,0,1,.56-1,2.6,2.6,0,0,1,2-.93,2.66,2.66,0,0,1,1.14.21,2.51,2.51,0,0,1,.91.64,2.9,2.9,0,0,1,.61,1A4,4,0,0,1,151.48,71.69Zm-.83,0a2.89,2.89,0,0,0-.58-1.84,1.88,1.88,0,0,0-2.92.07,3.44,3.44,0,0,0,.08,3.7,1.9,1.9,0,0,0,2.92-.07A2.87,2.87,0,0,0,150.65,71.7Z"/><path class="cls-5" d="M23.31,91.79a6.13,6.13,0,0,1-.88.25,7.83,7.83,0,0,1-1.37.14,3.3,3.3,0,0,1-1.24-.2,2.78,2.78,0,0,1-1-.62,2.82,2.82,0,0,1-.64-1A3.73,3.73,0,0,1,18,89a4.51,4.51,0,0,1,.15-1.3,2.92,2.92,0,0,1,.53-1,2.53,2.53,0,0,1,.86-.69,2.82,2.82,0,0,1,1.19-.27,2.92,2.92,0,0,1,1.73.47l-.07-3.34.77-.16Zm-.88-4.87-.28-.17a2.27,2.27,0,0,0-.38-.17,3.22,3.22,0,0,0-.47-.13,2.32,2.32,0,0,0-.53,0,2.13,2.13,0,0,0-1,.22,1.86,1.86,0,0,0-.62.56,2.55,2.55,0,0,0-.33.81,5.28,5.28,0,0,0-.09,1,2.65,2.65,0,0,0,.66,1.86,2.1,2.1,0,0,0,1.63.62,6.86,6.86,0,0,0,.93-.08,4,4,0,0,0,.53-.12Z"/><path class="cls-5" d="M24.92,88.84a3.75,3.75,0,0,1,.2-1.43,3.13,3.13,0,0,1,.59-1,2.45,2.45,0,0,1,.85-.62,2.64,2.64,0,0,1,1-.22,2.34,2.34,0,0,1,1.83.71,3.29,3.29,0,0,1,.73,2.27v.19c0,.07,0,.13,0,.18l-4.35.1a2.74,2.74,0,0,0,.6,1.74A2.08,2.08,0,0,0,28,91.3a3.3,3.3,0,0,0,1-.14,5.26,5.26,0,0,0,.53-.21l.16.67a4.5,4.5,0,0,1-.62.24A4.28,4.28,0,0,1,28,92a3.63,3.63,0,0,1-1.39-.21,2.55,2.55,0,0,1-1-.65,2.69,2.69,0,0,1-.56-1A4.85,4.85,0,0,1,24.92,88.84Zm4.39-.59a2.42,2.42,0,0,0-.49-1.5,1.71,1.71,0,0,0-2-.33,2,2,0,0,0-.57.46,2.3,2.3,0,0,0-.37.67,2.56,2.56,0,0,0-.14.78Z"/><path class="cls-5" d="M33.38,91.87a2.4,2.4,0,0,1-.69-.09,1.2,1.2,0,0,1-.5-.26,1.33,1.33,0,0,1-.31-.47,2.22,2.22,0,0,1-.11-.74l-.17-7.68.77-.16.17,7.8a1.78,1.78,0,0,0,.07.46.57.57,0,0,0,.17.27.63.63,0,0,0,.28.15,3.66,3.66,0,0,0,.42.07Z"/><path class="cls-5" d="M39.58,85.3a4.14,4.14,0,0,1,.72,0,1.9,1.9,0,0,1,.48.11l-.14.67a1.59,1.59,0,0,0-.39-.09,4.36,4.36,0,0,0-.78,0,4.14,4.14,0,0,0-.81.09,2.09,2.09,0,0,0-.39.13l.11,5.43-.78,0-.12-5.91a5.65,5.65,0,0,1,.82-.29A5,5,0,0,1,39.58,85.3Z"/><path class="cls-5" d="M41.53,88.48a4.15,4.15,0,0,1,.2-1.43,3.31,3.31,0,0,1,.59-1,2.55,2.55,0,0,1,.85-.62,2.73,2.73,0,0,1,1-.22,2.37,2.37,0,0,1,1.84.7,3.34,3.34,0,0,1,.72,2.28,1.21,1.21,0,0,1,0,.19c0,.07,0,.13,0,.18l-4.36.1a2.74,2.74,0,0,0,.6,1.74,2.12,2.12,0,0,0,1.7.57,3.57,3.57,0,0,0,1-.14,4.38,4.38,0,0,0,.54-.22l.16.67a2.76,2.76,0,0,1-.63.24,4.25,4.25,0,0,1-2.48,0,2.51,2.51,0,0,1-1-.65,2.69,2.69,0,0,1-.56-1A4.85,4.85,0,0,1,41.53,88.48Zm4.39-.59a2.42,2.42,0,0,0-.49-1.5,1.45,1.45,0,0,0-1.23-.52,1.67,1.67,0,0,0-.75.19,1.89,1.89,0,0,0-.56.46,1.94,1.94,0,0,0-.37.66,2.58,2.58,0,0,0-.15.79Z"/><path class="cls-5" d="M49.27,93.64h-.78l-.18-8.2a6.13,6.13,0,0,1,.88-.25,7.81,7.81,0,0,1,1.36-.14,3.32,3.32,0,0,1,1.25.2,2.53,2.53,0,0,1,1,.62,2.89,2.89,0,0,1,.65,1,3.83,3.83,0,0,1,.25,1.36,4.18,4.18,0,0,1-.16,1.3,2.86,2.86,0,0,1-.52,1,2.47,2.47,0,0,1-.87.69,3.11,3.11,0,0,1-2.91-.2Zm-.08-3.34.28.18a3.52,3.52,0,0,0,.38.17,4.49,4.49,0,0,0,.47.13,3,3,0,0,0,.53,0,2.13,2.13,0,0,0,1-.22,1.74,1.74,0,0,0,.62-.55,2.61,2.61,0,0,0,.33-.82,4.42,4.42,0,0,0,.08-1,2.6,2.6,0,0,0-.65-1.86,2.12,2.12,0,0,0-1.63-.62,5.44,5.44,0,0,0-.93.08,3.62,3.62,0,0,0-.53.12Z"/><path class="cls-5" d="M60.66,88.07a4.1,4.1,0,0,1-.19,1.34,3.1,3.1,0,0,1-.56,1,2.61,2.61,0,0,1-.88.67,2.65,2.65,0,0,1-1.14.26,2.69,2.69,0,0,1-1.14-.21,2.75,2.75,0,0,1-.91-.63,3,3,0,0,1-.61-1A3.92,3.92,0,0,1,55,88.2a4.06,4.06,0,0,1,.18-1.34,3,3,0,0,1,.57-1,2.54,2.54,0,0,1,.88-.68,2.8,2.8,0,0,1,1.13-.26,2.66,2.66,0,0,1,2.06.85,3.28,3.28,0,0,1,.61,1A4.56,4.56,0,0,1,60.66,88.07Zm-.83,0a2.93,2.93,0,0,0-.58-1.84,1.79,1.79,0,0,0-1.48-.66,1.74,1.74,0,0,0-1.45.72A3.44,3.44,0,0,0,56.4,90a1.74,1.74,0,0,0,1.48.65A1.77,1.77,0,0,0,59.33,90,3,3,0,0,0,59.83,88.09Z"/><path class="cls-5" d="M64.36,84.76a4.26,4.26,0,0,1,.73,0,1.9,1.9,0,0,1,.48.11l-.14.67a1.86,1.86,0,0,0-.4-.09,3.45,3.45,0,0,0-.77,0,4,4,0,0,0-.81.09,1.65,1.65,0,0,0-.4.13l.12,5.43-.78,0-.13-5.91a5,5,0,0,1,.82-.29A5.09,5.09,0,0,1,64.36,84.76Z"/><path class="cls-5" d="M67.57,84.81l2.47,0v.66l-2.47,0,.08,3.3a3.33,3.33,0,0,0,.1.86,1.39,1.39,0,0,0,.27.5.8.8,0,0,0,.42.23,2.14,2.14,0,0,0,.52,0,2.31,2.31,0,0,0,.79-.13,3,3,0,0,0,.47-.22l.2.64a2.54,2.54,0,0,1-.58.26,2.94,2.94,0,0,1-.91.16A2.59,2.59,0,0,1,68,91a1.36,1.36,0,0,1-.63-.44,1.85,1.85,0,0,1-.35-.76,5.36,5.36,0,0,1-.12-1.07L66.75,83l.78-.16Z"/><path class="cls-5" d="M73.52,84.54a2.75,2.75,0,0,1,1,.15,1.82,1.82,0,0,1,.7.46,2,2,0,0,1,.4.72,3.69,3.69,0,0,1,.14.91l.08,3.91-.34.09-.53.1a5.86,5.86,0,0,1-.66.09c-.25,0-.5,0-.75,0a3.75,3.75,0,0,1-.91-.09A2.12,2.12,0,0,1,72,90.6a1.67,1.67,0,0,1-.49-.59,1.94,1.94,0,0,1-.19-.88,1.81,1.81,0,0,1,.17-.87,1.56,1.56,0,0,1,.53-.61,2.37,2.37,0,0,1,.82-.36,4.69,4.69,0,0,1,1-.13h.35l.36,0,.3.05.18,0v-.38A3.21,3.21,0,0,0,75,86.3a1.48,1.48,0,0,0-.22-.55,1.12,1.12,0,0,0-.47-.38,1.71,1.71,0,0,0-.77-.14,3.92,3.92,0,0,0-1,.12l-.49.17-.12-.68a3,3,0,0,1,.62-.2A5.89,5.89,0,0,1,73.52,84.54Zm.19,5.78c.31,0,.57,0,.8,0a3.74,3.74,0,0,0,.58-.09L75,88a2,2,0,0,0-.42-.12,4.22,4.22,0,0,0-.79,0,4.35,4.35,0,0,0-.6.06,1.54,1.54,0,0,0-.57.19,1.08,1.08,0,0,0-.43.39,1.11,1.11,0,0,0-.15.64,1.27,1.27,0,0,0,.13.58.94.94,0,0,0,.33.38,1.47,1.47,0,0,0,.51.2A3.34,3.34,0,0,0,73.71,90.32Z"/><path class="cls-5" d="M76.72,93.06a1.51,1.51,0,0,1-.34,0,1.11,1.11,0,0,1-.29-.07l.09-.64.23,0a1.37,1.37,0,0,0,.28,0,1,1,0,0,0,.93-.42,2.37,2.37,0,0,0,.21-1.19l-.14-6.18.78,0,.14,6.15a2.79,2.79,0,0,1-.41,1.75A1.78,1.78,0,0,1,76.72,93.06ZM78.61,82.7a.59.59,0,0,1-.15.44.57.57,0,0,1-.41.17.62.62,0,0,1-.43-1,.54.54,0,0,1,.4-.17.64.64,0,0,1,.42.15A.59.59,0,0,1,78.61,82.7Z"/><path class="cls-5" d="M80.2,87.63a3.87,3.87,0,0,1,.2-1.42,3.13,3.13,0,0,1,.59-1,2.45,2.45,0,0,1,.85-.63,2.63,2.63,0,0,1,1-.21,2.3,2.3,0,0,1,1.83.7,3.32,3.32,0,0,1,.73,2.28v.19a1.1,1.1,0,0,1,0,.18L81,87.78a2.74,2.74,0,0,0,.6,1.74,2.13,2.13,0,0,0,1.69.58,3.65,3.65,0,0,0,1-.14,4.82,4.82,0,0,0,.53-.22l.16.67a3.47,3.47,0,0,1-.62.24,4.24,4.24,0,0,1-1.08.16,3.69,3.69,0,0,1-1.4-.21,2.46,2.46,0,0,1-1-.66,2.58,2.58,0,0,1-.57-1A4.74,4.74,0,0,1,80.2,87.63Zm4.39-.58a2.47,2.47,0,0,0-.49-1.51A1.5,1.5,0,0,0,82.86,85a1.79,1.79,0,0,0-.74.18,2,2,0,0,0-.57.47,2.13,2.13,0,0,0-.37.66,2.9,2.9,0,0,0-.14.78Z"/><path class="cls-5" d="M88.08,90.05a.74.74,0,0,1-.17.48.63.63,0,0,1-.48.2.68.68,0,0,1-.51-1.12.6.6,0,0,1,.48-.2.59.59,0,0,1,.49.18A.69.69,0,0,1,88.08,90.05Z"/><path class="cls-5" d="M25.38,107.84a4.74,4.74,0,0,1-.3,1.87,3.51,3.51,0,0,1-.91,1.34,4,4,0,0,1-1.43.82,5.91,5.91,0,0,1-1.84.3,9.58,9.58,0,0,1-1.06,0,5.13,5.13,0,0,1-1-.14l-.18-8a5.69,5.69,0,0,1,1-.2,9.92,9.92,0,0,1,1.06-.07,6.1,6.1,0,0,1,1.85.22,4,4,0,0,1,1.46.76,3.61,3.61,0,0,1,1,1.3A4.71,4.71,0,0,1,25.38,107.84Zm-5.71,3.57.37,0a8.72,8.72,0,0,0,.94,0,4.4,4.4,0,0,0,1.57-.28,3,3,0,0,0,1.11-.72,2.84,2.84,0,0,0,.66-1.13,4.3,4.3,0,0,0,.19-1.47,4.17,4.17,0,0,0-.26-1.46,2.88,2.88,0,0,0-.7-1.09,3.06,3.06,0,0,0-1.15-.68,4.7,4.7,0,0,0-1.57-.21,7.93,7.93,0,0,0-.94.06l-.37.06Z"/><path class="cls-5" d="M26.8,108.87a3.92,3.92,0,0,1,.21-1.43,3.13,3.13,0,0,1,.59-1,2.33,2.33,0,0,1,.85-.62,2.64,2.64,0,0,1,1-.22,2.33,2.33,0,0,1,1.83.7,3.39,3.39,0,0,1,.73,2.28v.19c0,.06,0,.12,0,.18l-4.35.09a2.7,2.7,0,0,0,.6,1.74,2.09,2.09,0,0,0,1.69.58,3.65,3.65,0,0,0,1-.14,4.82,4.82,0,0,0,.53-.22l.16.67a2.83,2.83,0,0,1-.62.24,3.86,3.86,0,0,1-1.09.16,3.63,3.63,0,0,1-1.39-.21,2.55,2.55,0,0,1-1-.65,2.73,2.73,0,0,1-.56-1A5.13,5.13,0,0,1,26.8,108.87Zm4.4-.59a2.48,2.48,0,0,0-.49-1.5,1.48,1.48,0,0,0-1.24-.52,1.59,1.59,0,0,0-.74.19,1.81,1.81,0,0,0-.57.46,2.13,2.13,0,0,0-.37.66,2.57,2.57,0,0,0-.14.79Z"/><path class="cls-5" d="M34.38,106a2.39,2.39,0,0,1,.64-.35,3,3,0,0,1,1.06-.2,2.86,2.86,0,0,1,1.2.22,2.54,2.54,0,0,1,.9.65,3,3,0,0,1,.56,1,4.17,4.17,0,0,1,.22,1.3,3.86,3.86,0,0,1-.19,1.36,2.83,2.83,0,0,1-.61,1,2.75,2.75,0,0,1-.94.66,3.26,3.26,0,0,1-1.24.25,7.69,7.69,0,0,1-1.37-.08,5.6,5.6,0,0,1-.89-.21l-.2-9,.78-.16Zm.11,5.09a3,3,0,0,0,.53.11,6.41,6.41,0,0,0,.93,0,2.08,2.08,0,0,0,1.61-.69,2.61,2.61,0,0,0,.57-1.89,4.45,4.45,0,0,0-.13-1,2.39,2.39,0,0,0-.36-.79,1.69,1.69,0,0,0-.65-.53,2.15,2.15,0,0,0-1-.19,2.84,2.84,0,0,0-.52.07,3.23,3.23,0,0,0-.47.15,2.12,2.12,0,0,0-.37.19,1.58,1.58,0,0,0-.27.18Z"/><path class="cls-5" d="M40.28,108.57a4,4,0,0,1,.2-1.43,3.18,3.18,0,0,1,.59-1,2.45,2.45,0,0,1,.85-.63,2.64,2.64,0,0,1,1-.22,2.34,2.34,0,0,1,1.83.71,3.29,3.29,0,0,1,.73,2.27v.2a1.1,1.1,0,0,1,0,.18l-4.35.09a2.74,2.74,0,0,0,.6,1.74,2.13,2.13,0,0,0,1.69.58,3.26,3.26,0,0,0,1-.15,3.18,3.18,0,0,0,.53-.21l.16.67a4.5,4.5,0,0,1-.62.24,4.26,4.26,0,0,1-1.08.15,3.33,3.33,0,0,1-1.4-.21,2.34,2.34,0,0,1-1-.65,2.58,2.58,0,0,1-.57-1A4.79,4.79,0,0,1,40.28,108.57Zm4.39-.59a2.46,2.46,0,0,0-.49-1.5A1.49,1.49,0,0,0,43,106a1.66,1.66,0,0,0-.75.18,1.84,1.84,0,0,0-.57.47,2.13,2.13,0,0,0-.37.66,2.9,2.9,0,0,0-.14.78Z"/><path class="cls-5" d="M52,105.1a4.29,4.29,0,0,1,.73,0,2.16,2.16,0,0,1,.47.11l-.14.68a1.59,1.59,0,0,0-.39-.09,3.49,3.49,0,0,0-.77,0,4,4,0,0,0-.81.09,1.5,1.5,0,0,0-.4.13l.12,5.43-.78,0-.13-5.92a6.32,6.32,0,0,1,.82-.28A5.09,5.09,0,0,1,52,105.1Z"/><path class="cls-5" d="M54,108.27a3.86,3.86,0,0,1,.21-1.42,3,3,0,0,1,.59-1,2.36,2.36,0,0,1,.85-.63,2.62,2.62,0,0,1,1-.21,2.32,2.32,0,0,1,1.84.7,3.37,3.37,0,0,1,.73,2.28,1.28,1.28,0,0,1,0,.19,1.09,1.09,0,0,1,0,.18l-4.36.09a2.81,2.81,0,0,0,.61,1.74,2.12,2.12,0,0,0,1.69.58,3.31,3.31,0,0,0,1-.15,3.6,3.6,0,0,0,.53-.21l.16.67a3.35,3.35,0,0,1-.63.24,4.1,4.1,0,0,1-1.08.16,3.72,3.72,0,0,1-1.4-.21,2.5,2.5,0,0,1-1-.66,2.69,2.69,0,0,1-.56-1A4.73,4.73,0,0,1,54,108.27Zm4.4-.58a2.54,2.54,0,0,0-.49-1.51,1.5,1.5,0,0,0-1.24-.51,1.72,1.72,0,0,0-.74.18,2,2,0,0,0-.57.47,2.13,2.13,0,0,0-.37.66,2.57,2.57,0,0,0-.15.78Z"/><path class="cls-5" d="M65.88,110.93a7.78,7.78,0,0,1-.88.25,7.07,7.07,0,0,1-1.37.13,3.3,3.3,0,0,1-1.24-.19,2.78,2.78,0,0,1-1-.62,2.91,2.91,0,0,1-.64-1,3.73,3.73,0,0,1-.25-1.35,4.46,4.46,0,0,1,.15-1.3,2.92,2.92,0,0,1,.53-1,2.53,2.53,0,0,1,.86-.69,2.82,2.82,0,0,1,1.19-.27,2.92,2.92,0,0,1,1.73.47L64.91,102l.77-.16ZM65,106.06l-.28-.17a2.27,2.27,0,0,0-.38-.17,2.91,2.91,0,0,0-.47-.13,2.32,2.32,0,0,0-.53,0,2.13,2.13,0,0,0-1,.22,1.76,1.76,0,0,0-.62.56,2.46,2.46,0,0,0-.33.81,5.18,5.18,0,0,0-.09,1A2.66,2.66,0,0,0,62,110a2.14,2.14,0,0,0,1.63.62,6.86,6.86,0,0,0,.93-.08,4,4,0,0,0,.53-.12Z"/><path class="cls-5" d="M69.61,104.69a2.69,2.69,0,0,1,1,.15,1.77,1.77,0,0,1,.7.47,1.84,1.84,0,0,1,.4.71,3,3,0,0,1,.14.91l.09,3.91-.35.09-.52.1a5.74,5.74,0,0,1-.67.09c-.24,0-.49,0-.75,0a3.31,3.31,0,0,1-.91-.09,1.76,1.76,0,0,1-.72-.33,1.66,1.66,0,0,1-.5-.58,2.17,2.17,0,0,1-.19-.89,1.81,1.81,0,0,1,.17-.87,1.73,1.73,0,0,1,.53-.61,2.46,2.46,0,0,1,.82-.36,4.85,4.85,0,0,1,1-.13h.36l.36,0,.3.06a.43.43,0,0,1,.17,0v-.39a4.5,4.5,0,0,0-.07-.63,1.29,1.29,0,0,0-.22-.54,1.18,1.18,0,0,0-.46-.39,1.77,1.77,0,0,0-.78-.13,4,4,0,0,0-1,.12c-.22.06-.38.12-.49.16L68,105a2.67,2.67,0,0,1,.63-.19A4.82,4.82,0,0,1,69.61,104.69Zm.2,5.78c.3,0,.57,0,.8,0a4,4,0,0,0,.58-.09l0-2.18a2.26,2.26,0,0,0-.42-.12,4.34,4.34,0,0,0-.8,0l-.6.06a1.91,1.91,0,0,0-.57.19,1.31,1.31,0,0,0-.42.39,1.13,1.13,0,0,0-.16.64,1.38,1.38,0,0,0,.13.58.94.94,0,0,0,.33.38,1.65,1.65,0,0,0,.51.2A2.81,2.81,0,0,0,69.81,110.47Z"/><path class="cls-5" d="M76.54,111a3.36,3.36,0,0,1-1.27-.2,2.3,2.3,0,0,1-.94-.63,3,3,0,0,1-.58-1,4.59,4.59,0,0,1,0-2.65,3.13,3.13,0,0,1,.55-1,2.7,2.7,0,0,1,.88-.69,2.84,2.84,0,0,1,1.19-.25,4.75,4.75,0,0,1,.94.06,2.21,2.21,0,0,1,.68.2l-.19.67a3.42,3.42,0,0,0-.54-.18,3.7,3.7,0,0,0-.81,0,1.92,1.92,0,0,0-1.55.7,3,3,0,0,0-.49,1.9,4.4,4.4,0,0,0,.14,1,2.05,2.05,0,0,0,.41.79,1.94,1.94,0,0,0,.71.5,2.68,2.68,0,0,0,1,.16,2.8,2.8,0,0,0,.84-.13A3.41,3.41,0,0,0,78,110l.18.67a3.06,3.06,0,0,1-.67.24A3.85,3.85,0,0,1,76.54,111Z"/><path class="cls-5" d="M80.08,104.61l2.47-.06v.66l-2.47.06.07,3.3a3.67,3.67,0,0,0,.11.85,1.23,1.23,0,0,0,.27.5.86.86,0,0,0,.41.24,2.24,2.24,0,0,0,.53,0,2.13,2.13,0,0,0,.79-.13,3.57,3.57,0,0,0,.47-.22l.2.65a3.08,3.08,0,0,1-.58.26,2.94,2.94,0,0,1-.91.15,2.8,2.8,0,0,1-1-.12,1.46,1.46,0,0,1-.63-.45,1.86,1.86,0,0,1-.35-.75,5.38,5.38,0,0,1-.12-1.08l-.12-5.71.77-.16Z"/><path class="cls-5" d="M86,104.33a2.69,2.69,0,0,1,1,.15,1.77,1.77,0,0,1,.7.47,1.7,1.7,0,0,1,.4.72,2.9,2.9,0,0,1,.14.91l.09,3.91-.35.08-.52.1c-.2,0-.42.07-.67.1s-.49,0-.75,0a3.24,3.24,0,0,1-.9-.09,1.94,1.94,0,0,1-.73-.32,1.57,1.57,0,0,1-.49-.59,2,2,0,0,1-.2-.89,1.8,1.8,0,0,1,.18-.87,1.58,1.58,0,0,1,.52-.6,2.29,2.29,0,0,1,.82-.37,5.58,5.58,0,0,1,1-.13h.36l.36,0,.3.06.18,0v-.39a6.2,6.2,0,0,0-.06-.62,1.43,1.43,0,0,0-.23-.55,1.18,1.18,0,0,0-.46-.39A1.77,1.77,0,0,0,86,105a4,4,0,0,0-1,.12l-.48.16-.13-.68a3.5,3.5,0,0,1,.63-.19A5.58,5.58,0,0,1,86,104.33Zm.2,5.78c.31,0,.57,0,.8,0l.58-.09,0-2.19a3.46,3.46,0,0,0-.42-.12,4.49,4.49,0,0,0-.8,0,4,4,0,0,0-.59.05,1.88,1.88,0,0,0-.58.19,1.31,1.31,0,0,0-.42.39,1.05,1.05,0,0,0-.15.64,1.32,1.32,0,0,0,.12.59.93.93,0,0,0,.34.37,1.31,1.31,0,0,0,.5.2A2.81,2.81,0,0,0,86.22,110.11Z"/><path class="cls-5" d="M92.31,104.22a4.29,4.29,0,0,1,.73,0,3.35,3.35,0,0,1,.47.11l-.14.68A1.59,1.59,0,0,0,93,105a3.59,3.59,0,0,0-.78,0,3.94,3.94,0,0,0-.8.09,1.5,1.5,0,0,0-.4.13l.12,5.43-.78,0-.13-5.92a6.32,6.32,0,0,1,.82-.28A5.09,5.09,0,0,1,92.31,104.22Z"/><path class="cls-5" d="M102.49,110.13a8.71,8.71,0,0,1-.89.25,7.81,7.81,0,0,1-1.36.14,3.35,3.35,0,0,1-1.25-.2,2.73,2.73,0,0,1-1-.62,2.84,2.84,0,0,1-.65-1,3.73,3.73,0,0,1-.25-1.35,4.18,4.18,0,0,1,.16-1.3,2.91,2.91,0,0,1,.52-1,2.47,2.47,0,0,1,.87-.69,2.78,2.78,0,0,1,1.19-.27,2.91,2.91,0,0,1,1.72.47l-.07-3.34.78-.16Zm-.89-4.87-.28-.17a2,2,0,0,0-.38-.17,2.91,2.91,0,0,0-.47-.13,3,3,0,0,0-.53,0,2.13,2.13,0,0,0-1,.22,1.86,1.86,0,0,0-.62.56,2.55,2.55,0,0,0-.33.81,4.52,4.52,0,0,0-.08,1,2.6,2.6,0,0,0,.65,1.86,2.12,2.12,0,0,0,1.63.62,6.56,6.56,0,0,0,.93-.08,3.62,3.62,0,0,0,.53-.12Z"/><path class="cls-5" d="M104.09,107.18a3.93,3.93,0,0,1,.2-1.43,3.15,3.15,0,0,1,.59-1,2.45,2.45,0,0,1,.85-.63,2.69,2.69,0,0,1,1-.22,2.31,2.31,0,0,1,1.83.71,3.24,3.24,0,0,1,.73,2.27v.19c0,.07,0,.13,0,.18l-4.36.1a2.74,2.74,0,0,0,.6,1.74,2.11,2.11,0,0,0,1.7.57,3.28,3.28,0,0,0,1-.14,4.75,4.75,0,0,0,.54-.21l.15.67a4,4,0,0,1-.62.24,4.26,4.26,0,0,1-1.08.15,3.69,3.69,0,0,1-1.4-.21,2.44,2.44,0,0,1-1-.65,2.56,2.56,0,0,1-.56-1A4.48,4.48,0,0,1,104.09,107.18Zm4.39-.59a2.42,2.42,0,0,0-.49-1.5,1.45,1.45,0,0,0-1.23-.51,1.54,1.54,0,0,0-.75.18,2,2,0,0,0-.57.46,2.13,2.13,0,0,0-.37.66,3,3,0,0,0-.14.79Z"/><path class="cls-5" d="M115.91,100.72a4,4,0,0,1,.83,0,2.19,2.19,0,0,1,.41.13l-.14.68a2.32,2.32,0,0,0-.39-.12,2.48,2.48,0,0,0-.65,0,1.45,1.45,0,0,0-1.18.45,2.07,2.07,0,0,0-.32,1.35v.65l2.5-.06v.66l-2.49.06.12,5.54-.78,0-.15-6.88a2.6,2.6,0,0,1,.52-1.84A2.2,2.2,0,0,1,115.91,100.72Z"/><path class="cls-5" d="M123.44,106.77a4.1,4.1,0,0,1-.18,1.34,3,3,0,0,1-.57,1,2.64,2.64,0,0,1-.88.67,2.76,2.76,0,0,1-1.13.26,2.71,2.71,0,0,1-1.15-.21,2.82,2.82,0,0,1-.9-.63,2.85,2.85,0,0,1-.61-1,4.32,4.32,0,0,1-.06-2.66,3.05,3.05,0,0,1,.56-1,2.64,2.64,0,0,1,.88-.68,2.81,2.81,0,0,1,1.14-.26,2.66,2.66,0,0,1,2,.85,3,3,0,0,1,.61,1A4,4,0,0,1,123.44,106.77Zm-.83,0a2.92,2.92,0,0,0-.58-1.85,1.74,1.74,0,0,0-1.48-.65,1.77,1.77,0,0,0-1.45.72,3,3,0,0,0-.5,1.87,3,3,0,0,0,.58,1.83,1.92,1.92,0,0,0,2.93-.06A2.91,2.91,0,0,0,122.61,106.79Z"/><path class="cls-5" d="M127.15,103.46a4.35,4.35,0,0,1,.73,0,3.75,3.75,0,0,1,.47.11l-.14.68a2.26,2.26,0,0,0-.39-.1,4.51,4.51,0,0,0-.78,0,4.14,4.14,0,0,0-.81.09,1.53,1.53,0,0,0-.39.13l.11,5.43-.77,0-.13-5.92a5.83,5.83,0,0,1,.82-.28A5,5,0,0,1,127.15,103.46Z"/><path class="cls-5" d="M129.59,103.74c.23-.07.53-.15.9-.23a7.38,7.38,0,0,1,1.44-.16,2,2,0,0,1,1.72.65l.23-.16a2.87,2.87,0,0,1,.44-.25,4.7,4.7,0,0,1,.61-.22,3.69,3.69,0,0,1,.78-.1,2.54,2.54,0,0,1,1.15.19,1.5,1.5,0,0,1,.69.57,2.26,2.26,0,0,1,.35.9,7.88,7.88,0,0,1,.11,1.15l.07,3.47h-.78l-.07-3.21a10.07,10.07,0,0,0-.07-1.06,2,2,0,0,0-.24-.74,1,1,0,0,0-.47-.43,1.63,1.63,0,0,0-.78-.14,3.12,3.12,0,0,0-.65.08,3.37,3.37,0,0,0-.51.17,3.34,3.34,0,0,0-.35.2l-.19.15a4.22,4.22,0,0,1,.17.7,6.91,6.91,0,0,1,.08.82l.07,3.53-.78,0-.07-3.22a10.07,10.07,0,0,0-.07-1.06,2.22,2.22,0,0,0-.24-.74,1.08,1.08,0,0,0-.49-.43,1.72,1.72,0,0,0-.81-.13,5,5,0,0,0-1,.08,2.61,2.61,0,0,0-.5.11l.12,5.45-.78,0Z"/><path class="cls-5" d="M141.75,103.12a2.72,2.72,0,0,1,1,.15,1.75,1.75,0,0,1,.7.46,2,2,0,0,1,.4.72,3.27,3.27,0,0,1,.14.91l.09,3.91-.35.09-.53.1-.66.09c-.24,0-.49,0-.75,0a4.32,4.32,0,0,1-.91-.09,2.12,2.12,0,0,1-.73-.33,1.67,1.67,0,0,1-.49-.59,2.13,2.13,0,0,1-.19-.89,1.79,1.79,0,0,1,.17-.86,1.56,1.56,0,0,1,.53-.61,2.46,2.46,0,0,1,.82-.36,4.77,4.77,0,0,1,1-.13h.35l.36,0,.31,0,.17,0v-.38a3.21,3.21,0,0,0-.06-.63,1.48,1.48,0,0,0-.22-.55,1.12,1.12,0,0,0-.47-.38,1.68,1.68,0,0,0-.77-.14,3.92,3.92,0,0,0-1,.12l-.49.17-.12-.68a3,3,0,0,1,.62-.2A5.89,5.89,0,0,1,141.75,103.12Zm.2,5.78c.3,0,.57,0,.79-.05a5.53,5.53,0,0,0,.58-.09l0-2.18a2.18,2.18,0,0,0-.43-.12,3.46,3.46,0,0,0-.79,0,4.35,4.35,0,0,0-.6.06,1.54,1.54,0,0,0-.57.19,1.05,1.05,0,0,0-.42.39,1,1,0,0,0-.16.64,1.42,1.42,0,0,0,.13.58,1,1,0,0,0,.33.38,1.47,1.47,0,0,0,.51.2A3.45,3.45,0,0,0,142,108.9Z"/><path class="cls-5" d="M151.42,109.39a3.38,3.38,0,0,1-1.28-.2,2.46,2.46,0,0,1-.93-.64,2.83,2.83,0,0,1-.58-1,4.18,4.18,0,0,1-.22-1.31,4.36,4.36,0,0,1,.16-1.34,3.13,3.13,0,0,1,.55-1,2.41,2.41,0,0,1,.89-.69,3,3,0,0,1,1.18-.26,4.7,4.7,0,0,1,.94.06,2.26,2.26,0,0,1,.69.21l-.19.67a3.55,3.55,0,0,0-.55-.18,3.65,3.65,0,0,0-.8,0,1.87,1.87,0,0,0-1.55.7,3,3,0,0,0-.5,1.9,4,4,0,0,0,.15,1,1.93,1.93,0,0,0,.4.78,1.73,1.73,0,0,0,.71.5,2.7,2.7,0,0,0,1,.17,2.84,2.84,0,0,0,.85-.14l.49-.2.18.66a2.56,2.56,0,0,1-.67.25A4.36,4.36,0,0,1,151.42,109.39Z"/><path class="cls-5" d="M155.91,109.26a2.84,2.84,0,0,1-.69-.08,1.16,1.16,0,0,1-.81-.74,2.22,2.22,0,0,1-.11-.74l-.17-7.67.77-.17.17,7.8a1.71,1.71,0,0,0,.07.46.6.6,0,0,0,.17.28.67.67,0,0,0,.28.14l.42.07Z"/><path class="cls-5" d="M159.2,102.74a2.77,2.77,0,0,1,1.05.15,1.9,1.9,0,0,1,.7.46,2,2,0,0,1,.4.72,3.28,3.28,0,0,1,.13.91l.09,3.91a2.35,2.35,0,0,1-.35.08l-.52.11-.67.09c-.24,0-.49,0-.75,0a3.68,3.68,0,0,1-.9-.08,2.12,2.12,0,0,1-.73-.33,1.57,1.57,0,0,1-.49-.59,2,2,0,0,1-.2-.89,1.86,1.86,0,0,1,.18-.87,1.58,1.58,0,0,1,.52-.6,2.55,2.55,0,0,1,.82-.36,4.85,4.85,0,0,1,1-.13,2.2,2.2,0,0,1,.36,0l.36,0,.3,0,.18.05v-.38a6.12,6.12,0,0,0-.06-.63,1.34,1.34,0,0,0-.23-.55,1.09,1.09,0,0,0-.46-.38,1.63,1.63,0,0,0-.78-.14,3.89,3.89,0,0,0-1,.12l-.49.17-.13-.68a2.76,2.76,0,0,1,.63-.2A5.67,5.67,0,0,1,159.2,102.74Zm.2,5.78.8,0,.58-.09-.05-2.19-.42-.11a3.56,3.56,0,0,0-.8,0,3,3,0,0,0-.59.06,1.54,1.54,0,0,0-.57.19,1.13,1.13,0,0,0-.43.38,1.07,1.07,0,0,0-.15.64,1.29,1.29,0,0,0,.12.59,1,1,0,0,0,.34.38,1.49,1.49,0,0,0,.5.19A3.4,3.4,0,0,0,159.4,108.52Z"/><path class="cls-5" d="M165.49,102.62a4.26,4.26,0,0,1,.73,0,1.79,1.79,0,0,1,.47.11l-.14.67a1.59,1.59,0,0,0-.39-.09,4.24,4.24,0,0,0-.77,0,4,4,0,0,0-.81.09,2,2,0,0,0-.4.13l.12,5.43-.78,0-.13-5.91a5,5,0,0,1,.82-.29A5.09,5.09,0,0,1,165.49,102.62Z"/><path class="cls-5" d="M169.71,102.51a2.69,2.69,0,0,1,1,.15,1.75,1.75,0,0,1,.7.46,1.7,1.7,0,0,1,.4.72,2.94,2.94,0,0,1,.14.91l.09,3.91-.35.09-.52.1-.67.09-.75,0a4.22,4.22,0,0,1-.9-.09,2.12,2.12,0,0,1-.73-.33,1.57,1.57,0,0,1-.49-.59,2,2,0,0,1-.2-.89,1.86,1.86,0,0,1,.18-.87,1.58,1.58,0,0,1,.52-.6,2.46,2.46,0,0,1,.82-.36,4.85,4.85,0,0,1,1-.13h.36l.36,0,.3,0,.18,0v-.38a6.12,6.12,0,0,0-.06-.63,1.5,1.5,0,0,0-.23-.55,1.09,1.09,0,0,0-.46-.38,1.76,1.76,0,0,0-.78-.14,4,4,0,0,0-1,.12l-.48.17-.13-.68a2.76,2.76,0,0,1,.63-.2A5.67,5.67,0,0,1,169.71,102.51Zm.2,5.78.8-.05.58-.09,0-2.18a2.26,2.26,0,0,0-.42-.12,3.56,3.56,0,0,0-.8,0,3,3,0,0,0-.59.06,1.65,1.65,0,0,0-.58.19,1.12,1.12,0,0,0-.42.39,1,1,0,0,0-.15.64,1.28,1.28,0,0,0,.12.58,1,1,0,0,0,.34.38,1.5,1.5,0,0,0,.5.2A3.45,3.45,0,0,0,169.91,108.29Z"/><path class="cls-5" d="M178.5,108.8c-.27-.49-.53-1-.79-1.51s-.49-1.05-.72-1.59-.43-1.07-.62-1.6-.35-1.07-.49-1.58l.83,0q.15.57.36,1.23c.15.44.31.9.49,1.37l.6,1.44q.33.73.72,1.44c.16-.49.31-1,.44-1.41s.24-.88.35-1.32.21-.88.31-1.34.2-1,.3-1.49l.78,0c-.23,1.17-.5,2.3-.8,3.41a27.61,27.61,0,0,1-1,3,5.9,5.9,0,0,1-.45.94,2.65,2.65,0,0,1-.52.65,1.84,1.84,0,0,1-.68.39,3.07,3.07,0,0,1-.92.14,1.93,1.93,0,0,1-.55-.06,1.62,1.62,0,0,1-.3-.1l.14-.65a1.28,1.28,0,0,0,.27.09,1.76,1.76,0,0,0,.46.06,2.24,2.24,0,0,0,.61-.09,1.23,1.23,0,0,0,.48-.25,1.76,1.76,0,0,0,.38-.46A3.54,3.54,0,0,0,178.5,108.8Z"/><path class="cls-5" d="M20,128.75h-.78l-.18-8.2a6.13,6.13,0,0,1,.88-.25,7.81,7.81,0,0,1,1.36-.14,3.32,3.32,0,0,1,1.25.2,2.53,2.53,0,0,1,1,.62,2.84,2.84,0,0,1,.65,1,3.73,3.73,0,0,1,.25,1.35,4.51,4.51,0,0,1-.15,1.3,2.88,2.88,0,0,1-.53,1,2.47,2.47,0,0,1-.87.69,2.63,2.63,0,0,1-1.18.26,2.92,2.92,0,0,1-1.07-.15,2.56,2.56,0,0,1-.66-.31Zm-.08-3.34a2.49,2.49,0,0,0,.66.35,4.49,4.49,0,0,0,.47.13,3,3,0,0,0,.53,0,2.13,2.13,0,0,0,1-.22,1.74,1.74,0,0,0,.62-.55,2.61,2.61,0,0,0,.33-.82,4.37,4.37,0,0,0,.08-1,2.6,2.6,0,0,0-.65-1.86,2.12,2.12,0,0,0-1.63-.62,6.56,6.56,0,0,0-.93.08,3.62,3.62,0,0,0-.53.12Z"/><path class="cls-5" d="M28.08,120a4.26,4.26,0,0,1,.73,0,1.69,1.69,0,0,1,.47.11l-.14.67a1.59,1.59,0,0,0-.39-.09,5.41,5.41,0,0,0-.77,0,4,4,0,0,0-.81.09,3.07,3.07,0,0,0-.4.13l.12,5.44h-.78L26,120.48a6.12,6.12,0,0,1,.82-.29A5.59,5.59,0,0,1,28.08,120Z"/><path class="cls-5" d="M30,123.2a4,4,0,0,1,.21-1.43,2.91,2.91,0,0,1,.59-1,2.36,2.36,0,0,1,.85-.63,2.64,2.64,0,0,1,1-.22,2.31,2.31,0,0,1,1.83.71,3.34,3.34,0,0,1,.73,2.27v.19c0,.07,0,.13,0,.18l-4.35.1a2.74,2.74,0,0,0,.6,1.74,2.08,2.08,0,0,0,1.69.57,3.3,3.3,0,0,0,1-.14,5.26,5.26,0,0,0,.53-.21l.16.66a3.3,3.3,0,0,1-.62.25,4.28,4.28,0,0,1-1.09.15,3.63,3.63,0,0,1-1.39-.21,2.55,2.55,0,0,1-1-.65,2.69,2.69,0,0,1-.56-1A5.28,5.28,0,0,1,30,123.2Zm4.4-.59a2.48,2.48,0,0,0-.49-1.5,1.71,1.71,0,0,0-2-.33,2,2,0,0,0-.57.46,2.18,2.18,0,0,0-.37.67,2.56,2.56,0,0,0-.14.78Z"/><path class="cls-5" d="M39.61,126.23a3.41,3.41,0,0,1-1.28-.2,2.33,2.33,0,0,1-.93-.63,2.87,2.87,0,0,1-.58-1,4.59,4.59,0,0,1,0-2.65,2.94,2.94,0,0,1,.54-1,2.74,2.74,0,0,1,.89-.69,3,3,0,0,1,1.18-.26,5.73,5.73,0,0,1,.95.07,2.21,2.21,0,0,1,.68.2l-.19.68a2.53,2.53,0,0,0-.55-.19,3.65,3.65,0,0,0-.8-.05,1.89,1.89,0,0,0-1.55.7,2.92,2.92,0,0,0-.49,1.9,3.52,3.52,0,0,0,.14,1,1.81,1.81,0,0,0,1.11,1.29,2.74,2.74,0,0,0,1,.16,2.87,2.87,0,0,0,.85-.13,3.19,3.19,0,0,0,.49-.21l.18.67a3.32,3.32,0,0,1-.67.25A4.36,4.36,0,0,1,39.61,126.23Z"/><path class="cls-5" d="M43.34,117.94a.6.6,0,0,1-.16.44.54.54,0,0,1-.4.17.64.64,0,0,1-.42-.15.59.59,0,0,1-.17-.44.56.56,0,0,1,.16-.44.57.57,0,0,1,.4-.17.56.56,0,0,1,.41.16A.57.57,0,0,1,43.34,117.94Zm0,8.08h-.79l-.13-6.2.78,0Z"/><path class="cls-5" d="M46.57,125.39a2.53,2.53,0,0,0,1.11-.24.78.78,0,0,0,.42-.76A.94.94,0,0,0,48,124a.79.79,0,0,0-.26-.32,2.11,2.11,0,0,0-.48-.26l-.73-.3c-.24-.09-.46-.19-.67-.28a2.78,2.78,0,0,1-.56-.34,1.45,1.45,0,0,1-.39-.46,1.38,1.38,0,0,1-.16-.67,1.53,1.53,0,0,1,.54-1.24,2.42,2.42,0,0,1,1.56-.5,4,4,0,0,1,1,.09,2.35,2.35,0,0,1,.58.18l-.16.7a4.67,4.67,0,0,0-.49-.19,3.43,3.43,0,0,0-1-.09,1.93,1.93,0,0,0-.49.06,1.28,1.28,0,0,0-.41.18.86.86,0,0,0-.28.29.74.74,0,0,0-.1.43.94.94,0,0,0,.1.43,1.1,1.1,0,0,0,.29.32,2.2,2.2,0,0,0,.46.24l.63.25c.24.09.47.18.69.28a2.14,2.14,0,0,1,.59.35,1.66,1.66,0,0,1,.42.49,1.5,1.5,0,0,1,.17.74,1.4,1.4,0,0,1-.6,1.28,3,3,0,0,1-1.71.47,4.25,4.25,0,0,1-1.25-.11,4.92,4.92,0,0,1-.58-.2l.19-.71a.52.52,0,0,0,.15.07,2.38,2.38,0,0,0,.33.12,4.19,4.19,0,0,0,.49.1A3.34,3.34,0,0,0,46.57,125.39Z"/><path class="cls-5" d="M52.33,119.47a2.75,2.75,0,0,1,1,.15,1.84,1.84,0,0,1,.7.47,2,2,0,0,1,.4.72,3.61,3.61,0,0,1,.14.9l.08,3.92-.34.08-.53.1-.66.1c-.25,0-.5,0-.75,0a3.31,3.31,0,0,1-.91-.09,1.94,1.94,0,0,1-.73-.32,1.57,1.57,0,0,1-.49-.59,2,2,0,0,1-.19-.89,1.81,1.81,0,0,1,.17-.87,1.63,1.63,0,0,1,.53-.61,2.37,2.37,0,0,1,.82-.36,5.37,5.37,0,0,1,1-.13H53l.36,0,.3.06a.69.69,0,0,1,.18,0v-.39a3.18,3.18,0,0,0-.06-.62,1.41,1.41,0,0,0-.22-.55,1.22,1.22,0,0,0-.47-.39,1.77,1.77,0,0,0-.78-.13,3.89,3.89,0,0,0-1,.12l-.49.16-.12-.68a3.11,3.11,0,0,1,.62-.19A5.7,5.7,0,0,1,52.33,119.47Zm.19,5.78c.31,0,.57,0,.8,0l.58-.09,0-2.19a2.26,2.26,0,0,0-.42-.12,3.61,3.61,0,0,0-.79,0,4.28,4.28,0,0,0-.6,0,1.74,1.74,0,0,0-.57.19,1.24,1.24,0,0,0-.43.39,1.05,1.05,0,0,0-.15.64,1.32,1.32,0,0,0,.13.59,1,1,0,0,0,.33.37,1.47,1.47,0,0,0,.51.2A2.73,2.73,0,0,0,52.52,125.25Z"/><path class="cls-5" d="M57.56,124.57a1.37,1.37,0,0,1,0,.19v.14a4.91,4.91,0,0,1-.18,1.44,5.63,5.63,0,0,1-.55,1.29l-.58-.25a4.07,4.07,0,0,0,.36-1.12,6,6,0,0,0,.09-1.21,1.77,1.77,0,0,0,0-.24c0-.06,0-.14,0-.22Z"/><path class="cls-5" d="M64.06,125.7c-.27-.49-.54-1-.8-1.51s-.49-1-.72-1.59-.43-1.07-.62-1.6-.35-1.07-.49-1.58l.83,0c.1.38.22.79.37,1.23s.3.9.49,1.37.38.94.6,1.44.45,1,.71,1.44c.17-.49.31-1,.44-1.41s.25-.88.35-1.32.22-.88.32-1.34.2-1,.3-1.49l.78,0c-.24,1.17-.51,2.31-.81,3.41a27.61,27.61,0,0,1-1,3,7,7,0,0,1-.44.94,2.68,2.68,0,0,1-.53.65,1.88,1.88,0,0,1-.67.39,3.12,3.12,0,0,1-.92.14,1.6,1.6,0,0,1-.55-.06,1.55,1.55,0,0,1-.31-.1l.14-.65.27.09a1.48,1.48,0,0,0,.47.06,2.23,2.23,0,0,0,.6-.08,1.4,1.4,0,0,0,.48-.26,1.59,1.59,0,0,0,.38-.46A4.2,4.2,0,0,0,64.06,125.7Z"/><path class="cls-5" d="M72.53,119a2.72,2.72,0,0,1,1,.15,1.77,1.77,0,0,1,.7.47,2,2,0,0,1,.4.71,3.33,3.33,0,0,1,.14.91l.09,3.92-.35.08-.53.1a5.86,5.86,0,0,1-.66.09c-.24,0-.49,0-.75.05a3.31,3.31,0,0,1-.91-.09,1.94,1.94,0,0,1-.73-.32,1.67,1.67,0,0,1-.49-.59,2.13,2.13,0,0,1-.19-.89,1.81,1.81,0,0,1,.17-.87,1.63,1.63,0,0,1,.53-.61,2.46,2.46,0,0,1,.82-.36,5.47,5.47,0,0,1,1-.13h.35l.37,0,.3.06a.43.43,0,0,1,.17,0v-.39a3.36,3.36,0,0,0-.06-.63,1.29,1.29,0,0,0-.22-.54,1.22,1.22,0,0,0-.47-.39,1.57,1.57,0,0,0-.77-.13,3.92,3.92,0,0,0-1,.12A4.71,4.71,0,0,0,71,120l-.12-.68a2.52,2.52,0,0,1,.63-.19A4.82,4.82,0,0,1,72.53,119Zm.2,5.78c.3,0,.57,0,.79,0a3.56,3.56,0,0,0,.58-.09l0-2.18a2.18,2.18,0,0,0-.43-.12,4.16,4.16,0,0,0-.79-.05l-.6.06a1.74,1.74,0,0,0-.57.19,1.21,1.21,0,0,0-.42.39,1.13,1.13,0,0,0-.16.64,1.38,1.38,0,0,0,.13.58.94.94,0,0,0,.33.38,1.47,1.47,0,0,0,.51.2A2.81,2.81,0,0,0,72.73,124.81Z"/><path class="cls-5" d="M77.67,127.49h-.78l-.18-8.2a6.53,6.53,0,0,1,.88-.25,7.94,7.94,0,0,1,1.37-.14,3.35,3.35,0,0,1,1.25.2,2.73,2.73,0,0,1,1,.62,3,3,0,0,1,.65,1,4,4,0,0,1,.25,1.35,4.18,4.18,0,0,1-.16,1.3,2.94,2.94,0,0,1-.52,1,2.66,2.66,0,0,1-.87.69,2.82,2.82,0,0,1-1.19.27,2.85,2.85,0,0,1-1.06-.16,2.5,2.5,0,0,1-.67-.31Zm-.07-3.34a1.58,1.58,0,0,0,.27.18,2.7,2.7,0,0,0,.38.17l.47.13a3.08,3.08,0,0,0,.53,0,2.06,2.06,0,0,0,1-.22,1.66,1.66,0,0,0,.62-.55,2.16,2.16,0,0,0,.33-.81,4,4,0,0,0,.09-1,2.7,2.7,0,0,0-.65-1.86,2.13,2.13,0,0,0-1.64-.62,6.86,6.86,0,0,0-.93.08,4,4,0,0,0-.53.12Z"/><path class="cls-5" d="M85.37,125.21a2.4,2.4,0,0,1-.69-.09,1.26,1.26,0,0,1-.5-.26,1.29,1.29,0,0,1-.31-.48,2.16,2.16,0,0,1-.11-.73L83.59,116l.78-.16.17,7.8a1.47,1.47,0,0,0,.06.46.62.62,0,0,0,.17.27.62.62,0,0,0,.28.14,3.51,3.51,0,0,0,.42.08Z"/><path class="cls-5" d="M87.63,117a.57.57,0,0,1-.56.62.56.56,0,0,1-.41-.16.54.54,0,0,1-.18-.43.58.58,0,0,1,.16-.44.54.54,0,0,1,.4-.17.51.51,0,0,1,.41.15A.54.54,0,0,1,87.63,117Zm0,8.08-.78,0-.14-6.2.78,0Z"/><path class="cls-5" d="M92.2,125.08a3.25,3.25,0,0,1-1.28-.2,2.33,2.33,0,0,1-.93-.63,3,3,0,0,1-.58-1,4.43,4.43,0,0,1-.22-1.31,4.29,4.29,0,0,1,.17-1.33,2.92,2.92,0,0,1,.55-1,2.46,2.46,0,0,1,.88-.68,2.85,2.85,0,0,1,1.19-.26,4.75,4.75,0,0,1,.94.06,2.53,2.53,0,0,1,.68.2l-.19.68a2.14,2.14,0,0,0-.54-.18,3.61,3.61,0,0,0-.81-.06,1.92,1.92,0,0,0-1.55.7,3,3,0,0,0-.49,1.9,3.91,3.91,0,0,0,.14,1,2.05,2.05,0,0,0,.41.79,1.86,1.86,0,0,0,.71.5,2.5,2.5,0,0,0,1,.16,2.56,2.56,0,0,0,.84-.13,2.8,2.8,0,0,0,.49-.21l.19.67a3.1,3.1,0,0,1-.68.25A3.71,3.71,0,0,1,92.2,125.08Z"/><path class="cls-5" d="M97,118.5a2.69,2.69,0,0,1,1,.15,1.75,1.75,0,0,1,.7.46,1.81,1.81,0,0,1,.4.72,3.27,3.27,0,0,1,.14.91l.09,3.91-.35.09-.52.1c-.2,0-.43.07-.67.09s-.49,0-.75,0a4.32,4.32,0,0,1-.91-.09,2.07,2.07,0,0,1-.72-.33,1.6,1.6,0,0,1-.5-.59,2.13,2.13,0,0,1-.19-.89,1.86,1.86,0,0,1,.17-.87,1.69,1.69,0,0,1,.53-.6,2.46,2.46,0,0,1,.82-.36,4.85,4.85,0,0,1,1-.13h.36l.36,0,.3,0,.17,0v-.38a4.19,4.19,0,0,0-.07-.63,1.33,1.33,0,0,0-.22-.55,1.09,1.09,0,0,0-.46-.38,1.76,1.76,0,0,0-.78-.14,3.92,3.92,0,0,0-1,.12l-.49.17-.12-.68a3.13,3.13,0,0,1,.63-.2A5.67,5.67,0,0,1,97,118.5Zm.2,5.78c.3,0,.57,0,.8,0a4,4,0,0,0,.58-.09l0-2.18a2.26,2.26,0,0,0-.42-.12,3.6,3.6,0,0,0-.8,0,4.35,4.35,0,0,0-.6.06,1.67,1.67,0,0,0-.57.19,1.12,1.12,0,0,0-.42.39,1.1,1.1,0,0,0-.16.64,1.42,1.42,0,0,0,.13.58A.94.94,0,0,0,96,124a1.55,1.55,0,0,0,.51.2A3.45,3.45,0,0,0,97.19,124.28Z"/><path class="cls-5" d="M103.28,118.38a4.14,4.14,0,0,1,.72.05,1.9,1.9,0,0,1,.48.11l-.14.67a1.73,1.73,0,0,0-.39-.09,5.57,5.57,0,0,0-.78,0,4.14,4.14,0,0,0-.81.09,2.09,2.09,0,0,0-.39.13l.11,5.44h-.78l-.12-5.91a5.65,5.65,0,0,1,.82-.29A5,5,0,0,1,103.28,118.38Z"/><path class="cls-5" d="M111.1,124.67a3.41,3.41,0,0,1-1.28-.2,2.33,2.33,0,0,1-.93-.63,2.87,2.87,0,0,1-.58-1,4.59,4.59,0,0,1,0-2.65,2.94,2.94,0,0,1,.54-1,2.64,2.64,0,0,1,.89-.69,3,3,0,0,1,1.18-.26,5.53,5.53,0,0,1,.94.07,2.29,2.29,0,0,1,.69.2l-.19.67a3.55,3.55,0,0,0-.55-.18,3.65,3.65,0,0,0-.8,0,1.89,1.89,0,0,0-1.55.7,3,3,0,0,0-.5,1.9,3.9,3.9,0,0,0,.15,1,2,2,0,0,0,.4.79,1.94,1.94,0,0,0,.71.5,2.53,2.53,0,0,0,1,.16,2.87,2.87,0,0,0,.85-.13,3.19,3.19,0,0,0,.49-.21l.18.67a3.32,3.32,0,0,1-.67.25A4.36,4.36,0,0,1,111.1,124.67Z"/><path class="cls-5" d="M119.12,121.27a4,4,0,0,1-.18,1.33,3.05,3.05,0,0,1-.56,1,2.75,2.75,0,0,1-.88.67,2.81,2.81,0,0,1-1.14.26,2.66,2.66,0,0,1-2-.85,3,3,0,0,1-.61-1,4,4,0,0,1-.24-1.33,4.1,4.1,0,0,1,.18-1.34,2.86,2.86,0,0,1,.57-1,2.54,2.54,0,0,1,.88-.68,2.61,2.61,0,0,1,1.13-.26,2.71,2.71,0,0,1,1.15.21,2.48,2.48,0,0,1,.9.64,2.85,2.85,0,0,1,.61,1A4,4,0,0,1,119.12,121.27Zm-.82,0a3,3,0,0,0-.58-1.84,1.91,1.91,0,0,0-2.93.07,3.44,3.44,0,0,0,.08,3.7,1.91,1.91,0,0,0,2.93-.07A2.93,2.93,0,0,0,118.3,121.28Z"/><path class="cls-5" d="M122.83,118a4.29,4.29,0,0,1,.73,0,2.48,2.48,0,0,1,.48.11l-.15.68a1.46,1.46,0,0,0-.39-.1,4.34,4.34,0,0,0-.77,0,2.92,2.92,0,0,0-.81.09,2.59,2.59,0,0,0-.4.12l.12,5.44-.78,0-.13-5.92a6.12,6.12,0,0,1,.82-.29A5.13,5.13,0,0,1,122.83,118Z"/><path class="cls-5" d="M127.38,117.86a4.29,4.29,0,0,1,.73,0,2.53,2.53,0,0,1,.47.11l-.14.68a2,2,0,0,0-.39-.1,4.51,4.51,0,0,0-.78,0,2.89,2.89,0,0,0-.8.09,1.5,1.5,0,0,0-.4.13l.11,5.43-.77,0-.13-5.92a5.65,5.65,0,0,1,.82-.29A5.13,5.13,0,0,1,127.38,117.86Z"/><path class="cls-5" d="M129.33,121a3.86,3.86,0,0,1,.21-1.42,3.11,3.11,0,0,1,.58-1A2.39,2.39,0,0,1,131,118a2.64,2.64,0,0,1,1-.22,2.38,2.38,0,0,1,1.84.71,3.29,3.29,0,0,1,.72,2.27,1.34,1.34,0,0,1,0,.2,1.09,1.09,0,0,1,0,.18l-4.36.09a2.74,2.74,0,0,0,.6,1.74,2.16,2.16,0,0,0,1.7.58,3.19,3.19,0,0,0,1-.15,3.38,3.38,0,0,0,.54-.21l.16.67a3.35,3.35,0,0,1-.63.24,4.1,4.1,0,0,1-1.08.16,3.72,3.72,0,0,1-1.4-.21,2.62,2.62,0,0,1-1-.66,2.69,2.69,0,0,1-.56-1A4.79,4.79,0,0,1,129.33,121Zm4.39-.59a2.53,2.53,0,0,0-.48-1.5,1.5,1.5,0,0,0-1.24-.51,1.66,1.66,0,0,0-.75.18,2.07,2.07,0,0,0-.93,1.13,2.57,2.57,0,0,0-.15.78Z"/><path class="cls-5" d="M138.9,124.06a3.17,3.17,0,0,1-1.27-.2,2.33,2.33,0,0,1-.93-.63,2.79,2.79,0,0,1-.58-1,4.13,4.13,0,0,1-.22-1.31,4.3,4.3,0,0,1,.16-1.33,3.18,3.18,0,0,1,.55-1,2.49,2.49,0,0,1,.89-.68,2.8,2.8,0,0,1,1.18-.26,4.75,4.75,0,0,1,.94.06,2.42,2.42,0,0,1,.68.2l-.18.68a2.37,2.37,0,0,0-.55-.18,3.56,3.56,0,0,0-.8-.06,1.89,1.89,0,0,0-1.55.7,2.94,2.94,0,0,0-.5,1.9,4.57,4.57,0,0,0,.14,1,2.23,2.23,0,0,0,.41.78,1.83,1.83,0,0,0,.71.5,2.53,2.53,0,0,0,1,.16,2.47,2.47,0,0,0,.84-.13,3,3,0,0,0,.5-.21l.18.67a3,3,0,0,1-.67.25A3.85,3.85,0,0,1,138.9,124.06Z"/><path class="cls-5" d="M142.44,117.65l2.47-.06v.66l-2.47.06.07,3.3a3.59,3.59,0,0,0,.11.85,1.36,1.36,0,0,0,.27.51.84.84,0,0,0,.41.23,2.22,2.22,0,0,0,.53,0,2.36,2.36,0,0,0,.79-.13,4.41,4.41,0,0,0,.47-.22l.2.64a2.54,2.54,0,0,1-.58.26,2.94,2.94,0,0,1-.91.16,3,3,0,0,1-1-.13,1.44,1.44,0,0,1-.63-.44,1.91,1.91,0,0,1-.35-.76,5.38,5.38,0,0,1-.12-1.08l-.12-5.71.77-.16Z"/><path class="cls-5" d="M148.39,117.38a2.75,2.75,0,0,1,1,.15,1.82,1.82,0,0,1,.7.46,2,2,0,0,1,.4.72,3.69,3.69,0,0,1,.14.91l.08,3.91-.34.08-.53.11-.66.09c-.25,0-.5,0-.75,0a4.32,4.32,0,0,1-.91-.09,2.12,2.12,0,0,1-.73-.33,1.57,1.57,0,0,1-.49-.59,2.13,2.13,0,0,1-.2-.89,1.86,1.86,0,0,1,.18-.87,1.58,1.58,0,0,1,.52-.6,2.55,2.55,0,0,1,.82-.36,4.86,4.86,0,0,1,1.05-.13h.35l.36,0,.3,0,.18.05v-.38a4.21,4.21,0,0,0-.06-.63,1.34,1.34,0,0,0-.23-.55,1.09,1.09,0,0,0-.46-.38,1.63,1.63,0,0,0-.78-.14,3.89,3.89,0,0,0-1,.12l-.49.17-.13-.68a2.76,2.76,0,0,1,.63-.2A4.91,4.91,0,0,1,148.39,117.38Zm.19,5.78.8,0L150,123l-.05-2.19-.42-.11a3.51,3.51,0,0,0-.79,0,4,4,0,0,0-.6,0,1.75,1.75,0,0,0-.57.2,1.13,1.13,0,0,0-.43.38,1.07,1.07,0,0,0-.15.64,1.44,1.44,0,0,0,.12.59,1,1,0,0,0,.34.38,1.47,1.47,0,0,0,.51.2A4.23,4.23,0,0,0,148.58,123.16Z"/><path class="cls-5" d="M152.57,117.64l.9-.23a6.76,6.76,0,0,1,1.44-.15,2,2,0,0,1,1.72.64l.23-.16a3.81,3.81,0,0,1,.43-.25,3.73,3.73,0,0,1,.62-.21,3.06,3.06,0,0,1,.78-.11,2.71,2.71,0,0,1,1.15.19,1.5,1.5,0,0,1,.69.57,2.42,2.42,0,0,1,.35.9A8.07,8.07,0,0,1,161,120l.08,3.47-.78,0-.07-3.22a7.79,7.79,0,0,0-.08-1.06,2,2,0,0,0-.23-.74,1,1,0,0,0-.47-.43,1.76,1.76,0,0,0-.78-.14,4.26,4.26,0,0,0-.66.08,2.63,2.63,0,0,0-.5.18,1.62,1.62,0,0,0-.35.2,1.45,1.45,0,0,0-.2.15,3.15,3.15,0,0,1,.18.69,5.44,5.44,0,0,1,.07.82l.08,3.53-.78,0-.07-3.22a7.92,7.92,0,0,0-.08-1.06,1.9,1.9,0,0,0-.24-.74,1.06,1.06,0,0,0-.48-.43,1.77,1.77,0,0,0-.81-.13,6.17,6.17,0,0,0-1,.08,1.86,1.86,0,0,0-.49.12l.12,5.44-.78,0Z"/><path class="cls-5" d="M162.59,120.31a3.93,3.93,0,0,1,.2-1.43,3.13,3.13,0,0,1,.59-1,2.55,2.55,0,0,1,.85-.62,2.64,2.64,0,0,1,1-.22,2.33,2.33,0,0,1,1.83.7,3.34,3.34,0,0,1,.73,2.28v.19a1,1,0,0,1,0,.18l-4.35.1a2.74,2.74,0,0,0,.6,1.74,2.1,2.1,0,0,0,1.69.57,3.65,3.65,0,0,0,1-.14,4.09,4.09,0,0,0,.53-.22l.16.67a2.63,2.63,0,0,1-.62.24,3.84,3.84,0,0,1-1.08.16,3.69,3.69,0,0,1-1.4-.21,2.44,2.44,0,0,1-1-.65,2.55,2.55,0,0,1-.57-1A4.72,4.72,0,0,1,162.59,120.31Zm4.39-.59a2.42,2.42,0,0,0-.49-1.5,1.46,1.46,0,0,0-1.23-.52,1.67,1.67,0,0,0-.75.19,1.81,1.81,0,0,0-.57.46,2.13,2.13,0,0,0-.37.66,2.91,2.91,0,0,0-.14.79Z"/><path class="cls-5" d="M169.38,117.28q.35-.11.93-.24a7.05,7.05,0,0,1,1.43-.15,3,3,0,0,1,1.19.18,1.92,1.92,0,0,1,.77.56,2.5,2.5,0,0,1,.42.9,4.67,4.67,0,0,1,.14,1.16l.08,3.47-.78,0-.07-3.22a6.48,6.48,0,0,0-.11-1.11,2,2,0,0,0-.32-.74,1.14,1.14,0,0,0-.56-.4,2.43,2.43,0,0,0-.86-.11,7.7,7.7,0,0,0-.95.08,3.8,3.8,0,0,0-.52.12l.12,5.45h-.78Z"/><path class="cls-5" d="M176.87,116.9l2.47-.06v.66l-2.47.06.08,3.3a3.24,3.24,0,0,0,.1.85,1.36,1.36,0,0,0,.27.51.83.83,0,0,0,.42.23,2.14,2.14,0,0,0,.52,0,2.31,2.31,0,0,0,.79-.13,3,3,0,0,0,.47-.23l.2.65a3.08,3.08,0,0,1-.58.26,2.94,2.94,0,0,1-.91.16,3.08,3.08,0,0,1-1-.13,1.38,1.38,0,0,1-.63-.45,1.86,1.86,0,0,1-.35-.75,5.38,5.38,0,0,1-.12-1.08l-.12-5.71.78-.16Z"/><path class="cls-5" d="M180.42,119.92a3.72,3.72,0,0,1,.2-1.43,3,3,0,0,1,.59-1,2.45,2.45,0,0,1,.85-.62,2.64,2.64,0,0,1,1-.22,2.35,2.35,0,0,1,1.83.7,3.39,3.39,0,0,1,.73,2.28,1.21,1.21,0,0,1,0,.19,1,1,0,0,1,0,.18l-4.35.1a2.74,2.74,0,0,0,.6,1.74,2.08,2.08,0,0,0,1.69.57,3.3,3.3,0,0,0,1-.14,3.41,3.41,0,0,0,.53-.22l.16.67a2.83,2.83,0,0,1-.62.24,3.86,3.86,0,0,1-1.09.16,3.63,3.63,0,0,1-1.39-.21,2.55,2.55,0,0,1-1-.65,2.69,2.69,0,0,1-.56-1A4.85,4.85,0,0,1,180.42,119.92Zm4.39-.59a2.48,2.48,0,0,0-.49-1.5,1.48,1.48,0,0,0-1.24-.52,1.59,1.59,0,0,0-.74.19,2,2,0,0,0-.57.46,2.13,2.13,0,0,0-.37.66,2.57,2.57,0,0,0-.14.79Z"/><path class="cls-5" d="M191.74,122.89a2.69,2.69,0,0,1-.69-.09,1.11,1.11,0,0,1-.81-.74,2.41,2.41,0,0,1-.12-.73l-.17-7.68.78-.16.17,7.8a1.47,1.47,0,0,0,.06.46.73.73,0,0,0,.17.27.71.71,0,0,0,.29.14,3,3,0,0,0,.41.08Z"/><path class="cls-5" d="M195,116.36a2.72,2.72,0,0,1,1,.15,1.75,1.75,0,0,1,.7.46,2,2,0,0,1,.4.72,3.27,3.27,0,0,1,.14.91l.08,3.91a2,2,0,0,1-.34.09l-.53.1c-.2,0-.42.07-.66.09s-.49,0-.75,0a3.75,3.75,0,0,1-.91-.09,2.12,2.12,0,0,1-.73-.33,1.59,1.59,0,0,1-.49-.59,2.09,2.09,0,0,1-.19-.89,1.79,1.79,0,0,1,.17-.86,1.56,1.56,0,0,1,.53-.61,2.46,2.46,0,0,1,.82-.36,4.77,4.77,0,0,1,1-.13h.35l.36,0,.31,0,.17,0v-.38a3.21,3.21,0,0,0-.06-.63,1.48,1.48,0,0,0-.22-.55,1.12,1.12,0,0,0-.47-.38,1.68,1.68,0,0,0-.77-.14,3.92,3.92,0,0,0-1,.12l-.49.17-.12-.68a3,3,0,0,1,.62-.2A5.89,5.89,0,0,1,195,116.36Zm.2,5.78c.3,0,.57,0,.79,0a3.74,3.74,0,0,0,.58-.09l0-2.18a2.18,2.18,0,0,0-.43-.12,3.46,3.46,0,0,0-.79,0,4.35,4.35,0,0,0-.6.06,1.54,1.54,0,0,0-.57.19,1,1,0,0,0-.42.39,1.1,1.1,0,0,0-.16.64,1.42,1.42,0,0,0,.13.58.94.94,0,0,0,.33.38,1.47,1.47,0,0,0,.51.2A3.45,3.45,0,0,0,195.23,122.14Z"/><path class="cls-5" d="M200.6,122a2.53,2.53,0,0,0,1.11-.24.79.79,0,0,0,.42-.76,1.31,1.31,0,0,0-.09-.43.79.79,0,0,0-.26-.32,3.43,3.43,0,0,0-.48-.27l-.74-.29-.66-.28a2.78,2.78,0,0,1-.56-.34,1.46,1.46,0,0,1-.4-.46,1.61,1.61,0,0,1,.39-1.91,2.36,2.36,0,0,1,1.55-.5,4.47,4.47,0,0,1,1.05.08,4,4,0,0,1,.59.18l-.16.7-.49-.18a3.37,3.37,0,0,0-1-.1,2.52,2.52,0,0,0-.49.07,1.33,1.33,0,0,0-.42.18,1,1,0,0,0-.28.29.83.83,0,0,0-.1.43.94.94,0,0,0,.11.43.86.86,0,0,0,.29.31,2.21,2.21,0,0,0,.46.25l.62.25c.25.09.48.18.7.28a2.3,2.3,0,0,1,.59.35,1.66,1.66,0,0,1,.42.49,1.57,1.57,0,0,1,.17.73,1.47,1.47,0,0,1-.6,1.29,3,3,0,0,1-1.71.47,4.58,4.58,0,0,1-1.25-.11,4.31,4.31,0,0,1-.58-.2l.18-.71.16.07a2,2,0,0,0,.33.12,4.19,4.19,0,0,0,.49.1A3.3,3.3,0,0,0,200.6,122Z"/><path class="cls-5" d="M21.42,134.57a4.26,4.26,0,0,1,.73.05,1.9,1.9,0,0,1,.48.11l-.14.67a1.89,1.89,0,0,0-.39-.09,5.57,5.57,0,0,0-.78,0,4,4,0,0,0-.81.09l-.4.13.12,5.43-.78,0L19.32,135a6.12,6.12,0,0,1,.82-.29A5.59,5.59,0,0,1,21.42,134.57Z"/><path class="cls-5" d="M23.38,137.75a3.93,3.93,0,0,1,.2-1.43,3,3,0,0,1,.59-1,2.45,2.45,0,0,1,.85-.63,2.64,2.64,0,0,1,1-.22,2.33,2.33,0,0,1,1.83.7,3.29,3.29,0,0,1,.73,2.28v.19a.9.9,0,0,1,0,.18l-4.35.1a2.74,2.74,0,0,0,.6,1.74,2.1,2.1,0,0,0,1.69.57,3.3,3.3,0,0,0,1-.14,3.62,3.62,0,0,0,.54-.22l.15.67a2.63,2.63,0,0,1-.62.24,3.84,3.84,0,0,1-1.08.16,3.69,3.69,0,0,1-1.4-.21,2.44,2.44,0,0,1-1-.65,2.71,2.71,0,0,1-.57-1A4.85,4.85,0,0,1,23.38,137.75Zm4.39-.59a2.42,2.42,0,0,0-.49-1.5,1.43,1.43,0,0,0-1.23-.51,1.54,1.54,0,0,0-.75.18,2,2,0,0,0-.57.46,2.13,2.13,0,0,0-.37.66,2.91,2.91,0,0,0-.14.79Z"/><path class="cls-5" d="M34.41,139.9l-.22.14-.35.17a2.37,2.37,0,0,1-.47.15,2.8,2.8,0,0,1-.61.06,3.27,3.27,0,0,1-1-.14,2.51,2.51,0,0,1-.9-.51,2.61,2.61,0,0,1-.62-.92,3.65,3.65,0,0,1-.26-1.38,3.77,3.77,0,0,1,.17-1.23,3,3,0,0,1,.57-1,2.46,2.46,0,0,1,.91-.66,3,3,0,0,1,1.22-.26,6.2,6.2,0,0,1,1.39.08c.35.07.64.14.86.2l.12,5.66a2.46,2.46,0,0,1-.67,2,3.39,3.39,0,0,1-2.16.64,6.18,6.18,0,0,1-1.09-.07,6.63,6.63,0,0,1-.84-.19l.14-.71a4.18,4.18,0,0,0,.79.21,4.91,4.91,0,0,0,1,.07,2.41,2.41,0,0,0,1.59-.46,1.84,1.84,0,0,0,.47-1.47Zm-.12-4.73a3.61,3.61,0,0,0-.53-.1,5.73,5.73,0,0,0-.92,0,2.2,2.2,0,0,0-.89.2,1.93,1.93,0,0,0-.66.5,2.17,2.17,0,0,0-.4.77,3,3,0,0,0-.12,1,2.72,2.72,0,0,0,.19,1,2.16,2.16,0,0,0,.45.71,1.59,1.59,0,0,0,.63.39,2.45,2.45,0,0,0,.71.11,2.93,2.93,0,0,0,1-.18,2.19,2.19,0,0,0,.67-.38Z"/><path class="cls-5" d="M38.77,140.63a2.31,2.31,0,0,1-.69-.09,1.14,1.14,0,0,1-.5-.26,1.08,1.08,0,0,1-.31-.48,2.41,2.41,0,0,1-.12-.73L37,131.39l.78-.16.17,7.8a1.47,1.47,0,0,0,.06.46.73.73,0,0,0,.17.27.61.61,0,0,0,.29.14,3,3,0,0,0,.41.08Z"/><path class="cls-5" d="M42.06,134.1a2.72,2.72,0,0,1,1,.15,1.77,1.77,0,0,1,.7.47,1.9,1.9,0,0,1,.4.71,3.27,3.27,0,0,1,.14.91l.09,3.91-.35.09-.53.1a5.86,5.86,0,0,1-.66.09c-.24,0-.49,0-.75.05a3.31,3.31,0,0,1-.91-.09,1.84,1.84,0,0,1-.72-.33,1.56,1.56,0,0,1-.5-.58,2.17,2.17,0,0,1-.19-.89,1.81,1.81,0,0,1,.17-.87,1.63,1.63,0,0,1,.53-.61,2.46,2.46,0,0,1,.82-.36,4.77,4.77,0,0,1,1-.13h.35l.37,0,.3.06a.43.43,0,0,1,.17,0v-.39a3.36,3.36,0,0,0-.06-.63,1.39,1.39,0,0,0-.22-.55,1.15,1.15,0,0,0-.46-.38,1.64,1.64,0,0,0-.78-.13,3.92,3.92,0,0,0-1,.12c-.22.06-.38.12-.49.16l-.12-.68a2.52,2.52,0,0,1,.63-.19A4.82,4.82,0,0,1,42.06,134.1Zm.2,5.78c.3,0,.57,0,.79,0a3.89,3.89,0,0,0,.59-.09l0-2.18a2.18,2.18,0,0,0-.43-.12,4.16,4.16,0,0,0-.79-.05l-.6.06a1.74,1.74,0,0,0-.57.19,1.31,1.31,0,0,0-.42.39,1.1,1.1,0,0,0-.16.64,1.38,1.38,0,0,0,.13.58.94.94,0,0,0,.33.38,1.47,1.47,0,0,0,.51.2A3.45,3.45,0,0,0,42.26,139.88Z"/><path class="cls-5" d="M47.63,139.78a2.53,2.53,0,0,0,1.11-.25.78.78,0,0,0,.42-.76,1.09,1.09,0,0,0-.09-.43.86.86,0,0,0-.26-.32,2.65,2.65,0,0,0-.48-.26l-.74-.3c-.23-.09-.45-.18-.66-.28a2.39,2.39,0,0,1-.56-.34,1.36,1.36,0,0,1-.4-.46,1.38,1.38,0,0,1-.15-.67,1.47,1.47,0,0,1,.54-1.24,2.41,2.41,0,0,1,1.55-.5,4.06,4.06,0,0,1,1.06.09,2.51,2.51,0,0,1,.58.18l-.16.7a4.67,4.67,0,0,0-.49-.19,3.43,3.43,0,0,0-1-.09,1.93,1.93,0,0,0-.49.06,1.19,1.19,0,0,0-.41.18,1,1,0,0,0-.29.29.74.74,0,0,0-.09.43.83.83,0,0,0,.1.43,1,1,0,0,0,.29.32,2.2,2.2,0,0,0,.46.24l.62.25c.25.09.48.19.7.28a2.63,2.63,0,0,1,.59.35,1.66,1.66,0,0,1,.42.49,1.62,1.62,0,0,1,.17.74,1.45,1.45,0,0,1-.6,1.28,2.94,2.94,0,0,1-1.71.47,4.22,4.22,0,0,1-1.25-.11,4.31,4.31,0,0,1-.58-.2l.18-.71.16.07a2,2,0,0,0,.33.12,4.12,4.12,0,0,0,1.14.14Z"/><path class="cls-5" d="M59.17,139.88a6.53,6.53,0,0,1-.88.25,7.05,7.05,0,0,1-1.37.14,3.35,3.35,0,0,1-1.25-.2,2.6,2.6,0,0,1-1-.62,3,3,0,0,1-.65-1,4.05,4.05,0,0,1-.25-1.35,4.53,4.53,0,0,1,.16-1.31,3.17,3.17,0,0,1,.52-1,2.66,2.66,0,0,1,.87-.69,2.81,2.81,0,0,1,1.19-.26,3.1,3.1,0,0,1,1.73.46l-.08-3.33.78-.16ZM58.28,135a2.51,2.51,0,0,0-.27-.18,2.7,2.7,0,0,0-.38-.17l-.47-.13a3.08,3.08,0,0,0-.53,0,2.06,2.06,0,0,0-1,.23,1.6,1.6,0,0,0-.62.56,2.1,2.1,0,0,0-.33.81,3.89,3.89,0,0,0-.09,1,2.68,2.68,0,0,0,.65,1.86,2.14,2.14,0,0,0,1.64.62,7.09,7.09,0,0,0,.93-.07c.23-.05.41-.09.53-.13Z"/><path class="cls-5" d="M60.77,136.93A4,4,0,0,1,61,135.5a3,3,0,0,1,.59-1,2.36,2.36,0,0,1,.85-.63,2.64,2.64,0,0,1,1-.22,2.38,2.38,0,0,1,1.84.71,3.35,3.35,0,0,1,.73,2.28,1.28,1.28,0,0,1,0,.19,1.09,1.09,0,0,1,0,.18l-4.36.09a2.75,2.75,0,0,0,.61,1.74,2.12,2.12,0,0,0,1.69.58,3.19,3.19,0,0,0,1-.15,3.38,3.38,0,0,0,.54-.21l.16.67A4.26,4.26,0,0,1,65,140a4.13,4.13,0,0,1-1.08.15,3.36,3.36,0,0,1-1.4-.21,2.48,2.48,0,0,1-1-.65,2.69,2.69,0,0,1-.56-1A4.79,4.79,0,0,1,60.77,136.93Zm4.39-.59a2.53,2.53,0,0,0-.48-1.5,1.5,1.5,0,0,0-1.24-.51,1.8,1.8,0,0,0-.75.18,1.92,1.92,0,0,0-.56.47,2.13,2.13,0,0,0-.37.66,2.57,2.57,0,0,0-.15.78Z"/><path class="cls-5" d="M75.75,136.62a3.79,3.79,0,0,1-.19,1.33,3.05,3.05,0,0,1-.56,1,2.75,2.75,0,0,1-.88.67,2.81,2.81,0,0,1-1.14.26,2.69,2.69,0,0,1-1.14-.21,2.64,2.64,0,0,1-.91-.64,3,3,0,0,1-.61-1,4,4,0,0,1-.24-1.33,4.1,4.1,0,0,1,.18-1.34,3,3,0,0,1,.57-1,2.54,2.54,0,0,1,.88-.68,2.64,2.64,0,0,1,1.13-.26,2.71,2.71,0,0,1,1.15.21,2.64,2.64,0,0,1,.91.64,3.17,3.17,0,0,1,.61,1A4,4,0,0,1,75.75,136.62Zm-.83,0a3,3,0,0,0-.58-1.85,1.91,1.91,0,0,0-2.93.07,2.89,2.89,0,0,0-.5,1.86,2.93,2.93,0,0,0,.58,1.84,1.77,1.77,0,0,0,1.48.65,1.74,1.74,0,0,0,1.45-.72A2.92,2.92,0,0,0,74.92,136.64Z"/><path class="cls-5" d="M79.45,133.31a4.29,4.29,0,0,1,.73,0,2.48,2.48,0,0,1,.48.11l-.14.68a2.46,2.46,0,0,0-.4-.1,4.34,4.34,0,0,0-.77,0,2.92,2.92,0,0,0-.81.09,2.59,2.59,0,0,0-.4.12l.12,5.44-.78,0-.13-5.92a6.12,6.12,0,0,1,.82-.29A5.13,5.13,0,0,1,79.45,133.31Z"/><path class="cls-5" d="M82.66,133.36l2.47-.06V134l-2.47.06.08,3.3a3.19,3.19,0,0,0,.1.85,1.36,1.36,0,0,0,.27.51,1,1,0,0,0,.42.23,2.81,2.81,0,0,0,.53.05,2.38,2.38,0,0,0,.79-.14,3.36,3.36,0,0,0,.46-.22l.2.65a3.08,3.08,0,0,1-.58.26,2.94,2.94,0,0,1-.91.16,3.08,3.08,0,0,1-1-.13,1.38,1.38,0,0,1-.63-.45,1.86,1.86,0,0,1-.35-.75,5.38,5.38,0,0,1-.12-1.08l-.12-5.71.78-.16Z"/><path class="cls-5" d="M91.85,136.27a3.79,3.79,0,0,1-.19,1.33,3,3,0,0,1-.56,1,2.78,2.78,0,0,1-.88.68,2.81,2.81,0,0,1-1.14.26,2.69,2.69,0,0,1-1.14-.21,2.64,2.64,0,0,1-.91-.64,3,3,0,0,1-.61-1,4,4,0,0,1-.24-1.33,4.1,4.1,0,0,1,.18-1.34,3,3,0,0,1,.57-1,2.69,2.69,0,0,1,2-.93,2.71,2.71,0,0,1,1.15.21,2.61,2.61,0,0,1,.91.63,3.22,3.22,0,0,1,.61,1A4.56,4.56,0,0,1,91.85,136.27Zm-.83,0a3,3,0,0,0-.58-1.84,1.91,1.91,0,0,0-2.93.07,2.89,2.89,0,0,0-.5,1.86,2.93,2.93,0,0,0,.58,1.84,1.91,1.91,0,0,0,2.93-.07A2.93,2.93,0,0,0,91,136.28Z"/><path class="cls-5" d="M97.63,138.52l-.21.14-.35.17a2.72,2.72,0,0,1-.48.15,2.77,2.77,0,0,1-.6.06,3.37,3.37,0,0,1-1-.14,2.26,2.26,0,0,1-.89-.51,2.5,2.5,0,0,1-.63-.92,3.65,3.65,0,0,1-.26-1.38,3.43,3.43,0,0,1,.18-1.22,3,3,0,0,1,.56-1,2.54,2.54,0,0,1,.91-.66A3,3,0,0,1,96,133a6.2,6.2,0,0,1,1.39.08c.35.07.64.14.86.2l.13,5.66a2.47,2.47,0,0,1-.68,2,3.39,3.39,0,0,1-2.16.64,6,6,0,0,1-1.08-.07,4.8,4.8,0,0,1-.84-.19l.14-.71a3.8,3.8,0,0,0,.79.21,4.81,4.81,0,0,0,1,.07,2.39,2.39,0,0,0,1.59-.46,1.8,1.8,0,0,0,.47-1.47Zm-.11-4.73a4.22,4.22,0,0,0-.53-.1,5.94,5.94,0,0,0-.93,0,2.24,2.24,0,0,0-.89.2,1.89,1.89,0,0,0-.65.5,2.19,2.19,0,0,0-.41.77,3,3,0,0,0-.12,1,2.88,2.88,0,0,0,.19,1,2.16,2.16,0,0,0,.45.71,1.74,1.74,0,0,0,.63.39,2.45,2.45,0,0,0,.71.11,2.93,2.93,0,0,0,1-.18,2.28,2.28,0,0,0,.67-.37Z"/><path class="cls-5" d="M102.38,132.81a4.29,4.29,0,0,1,.73,0,2.33,2.33,0,0,1,.47.11l-.14.68a2,2,0,0,0-.39-.1,4.51,4.51,0,0,0-.78,0,2.89,2.89,0,0,0-.8.09,2.26,2.26,0,0,0-.4.12l.12,5.44-.78,0-.13-5.92a6.12,6.12,0,0,1,.82-.29A5.13,5.13,0,0,1,102.38,132.81Z"/><path class="cls-5" d="M106.6,132.69a2.69,2.69,0,0,1,1,.15,1.77,1.77,0,0,1,.7.47,1.84,1.84,0,0,1,.4.71,3,3,0,0,1,.14.91l.09,3.91-.35.09-.52.1a5.74,5.74,0,0,1-.67.09,6,6,0,0,1-.75,0,3.24,3.24,0,0,1-.9-.09,1.94,1.94,0,0,1-.73-.32,1.65,1.65,0,0,1-.49-.59,2,2,0,0,1-.2-.89,1.81,1.81,0,0,1,.17-.87,1.73,1.73,0,0,1,.53-.61,2.46,2.46,0,0,1,.82-.36,4.85,4.85,0,0,1,1-.13h.36l.36,0,.3.06a.56.56,0,0,1,.18.05v-.39a4.5,4.5,0,0,0-.07-.63,1.29,1.29,0,0,0-.22-.54,1.18,1.18,0,0,0-.46-.39,1.77,1.77,0,0,0-.78-.13,4,4,0,0,0-1,.12l-.48.16L105,133a2.83,2.83,0,0,1,.63-.19A5.58,5.58,0,0,1,106.6,132.69Zm.2,5.78c.3,0,.57,0,.8-.05a4,4,0,0,0,.58-.09l-.05-2.18a2.26,2.26,0,0,0-.42-.12,3.71,3.71,0,0,0-.8,0,4,4,0,0,0-.59,0,1.88,1.88,0,0,0-.58.19,1.31,1.31,0,0,0-.42.39,1.05,1.05,0,0,0-.15.64,1.25,1.25,0,0,0,.12.58.94.94,0,0,0,.33.38,1.65,1.65,0,0,0,.51.2A2.81,2.81,0,0,0,106.8,138.47Z"/><path class="cls-5" d="M113,129.59a3.22,3.22,0,0,1,.82.06,1.28,1.28,0,0,1,.42.13l-.14.67a2.32,2.32,0,0,0-.39-.12,3.11,3.11,0,0,0-.66-.05,1.45,1.45,0,0,0-1.17.45,2,2,0,0,0-.32,1.35v.65l2.49-.06,0,.66-2.5.06.13,5.54-.78,0-.15-6.88a2.6,2.6,0,0,1,.51-1.83A2.2,2.2,0,0,1,113,129.59Z"/><path class="cls-5" d="M117.31,130.14l-2,1.71-.41-.44,1.86-1.87Zm-1.07,8.69-.78,0-.13-6.21h.78Z"/><path class="cls-5" d="M119.92,132.4a2.72,2.72,0,0,1,1,.15,1.77,1.77,0,0,1,.7.47,2,2,0,0,1,.4.71,3.33,3.33,0,0,1,.14.91l.08,3.91a2,2,0,0,1-.34.09l-.53.1a5.86,5.86,0,0,1-.66.09c-.24,0-.49,0-.75,0a3.31,3.31,0,0,1-.91-.09,1.81,1.81,0,0,1-.73-.33,1.63,1.63,0,0,1-.49-.58,2.17,2.17,0,0,1-.19-.89,1.81,1.81,0,0,1,.17-.87,1.63,1.63,0,0,1,.53-.61,2.46,2.46,0,0,1,.82-.36,4.77,4.77,0,0,1,1-.13h.35l.37,0,.3.06a.43.43,0,0,1,.17.05v-.39a3.36,3.36,0,0,0-.06-.63,1.43,1.43,0,0,0-.22-.54,1.14,1.14,0,0,0-.47-.39,1.69,1.69,0,0,0-.77-.13,3.92,3.92,0,0,0-1,.12,4.71,4.71,0,0,0-.49.16l-.12-.68a2.56,2.56,0,0,1,.62-.19A5,5,0,0,1,119.92,132.4Zm.2,5.78c.3,0,.57,0,.79-.05a3.74,3.74,0,0,0,.58-.09l0-2.18a2.18,2.18,0,0,0-.43-.12,4.16,4.16,0,0,0-.79-.05l-.6.06a1.74,1.74,0,0,0-.57.19,1.21,1.21,0,0,0-.42.39,1.13,1.13,0,0,0-.16.64,1.38,1.38,0,0,0,.13.58.94.94,0,0,0,.33.38,1.47,1.47,0,0,0,.51.2A2.81,2.81,0,0,0,120.12,138.18Z"/><path class="cls-5" d="M125.43,138.11a.62.62,0,0,1-.64.68.66.66,0,0,1-.49-.18.71.71,0,0,1-.19-.47.67.67,0,0,1,.17-.47.6.6,0,0,1,.48-.2.59.59,0,0,1,.49.18A.65.65,0,0,1,125.43,138.11Z"/></svg>