<svg id="Capa_1" data-name="Capa 1" xmlns="http://www.w3.org/2000/svg" xmlns:xlink="http://www.w3.org/1999/xlink" viewBox="0 0 223.68 184.53"><defs><style>.cls-1{fill:none;}.cls-2{clip-path:url(#clip-path);}.cls-3{fill:#fccb8d;}.cls-4{fill:#fff;}.cls-5{fill:#1d1d1b;}</style><clipPath id="clip-path"><rect class="cls-1" width="223.68" height="184.53"/></clipPath></defs><g class="cls-2"><path class="cls-3" d="M7.64,23.05c-4.72,4.88,1.55,157.62,5.72,160.83,85-8,182.48.77,203-4.7,6.55-13.15,11.21-150.53.53-161-11.22-7-204.58,0-209.29,4.85"/><path class="cls-4" d="M4.92,2.26c-5.09,5-6.69,170.85-2.59,174.58,87.52-3.67,186.94,11.5,208.3,6.76,7.4-13.86,19.39-162.42,9-174.37C208.5,1,10-2.75,4.92,2.26"/></g><path class="cls-5" d="M93.84,40.87l-.38,8.76-1.6-.07.39-8.76Z"/><path class="cls-5" d="M95.5,40.48l1.61.07-.4,9.22L95.1,49.7Z"/><path class="cls-5" d="M104,48.19c0,.75,0,1.38,0,1.9l-1.4-.06,0-1h0a2.3,2.3,0,0,1-2.07,1c-1.16,0-2.18-.79-2.09-2.85l.16-3.72,1.6.07L100,47c0,1.06.26,1.75,1.1,1.78a1.34,1.34,0,0,0,1.26-.8,1.26,1.26,0,0,0,.11-.49l.17-3.82,1.6.07Z"/><path class="cls-5" d="M105.5,48.68a3.56,3.56,0,0,0,1.6.53c.7,0,1-.24,1.05-.66s-.24-.66-1-1c-1.22-.48-1.71-1.18-1.66-1.92A2.12,2.12,0,0,1,108,43.78a3.67,3.67,0,0,1,1.66.45l-.36,1.12a2.73,2.73,0,0,0-1.32-.42c-.57,0-.89.23-.91.62s.27.61,1.06.93c1.13.47,1.64,1.07,1.61,2,0,1.14-1,1.95-2.66,1.87a4,4,0,0,1-1.9-.53Z"/><path class="cls-5" d="M113.11,42.52,113,44.15l1.52.06-.06,1.2L113,45.34l-.12,2.79c0,.77.16,1.18.77,1.21a2.25,2.25,0,0,0,.63-.05l0,1.22a3.52,3.52,0,0,1-1.16.12,1.92,1.92,0,0,1-1.36-.59,2.53,2.53,0,0,1-.41-1.79l.13-3-.91,0,0-1.19.91,0,0-1.17Z"/><path class="cls-5" d="M115.54,46.3c0-.86.06-1.47,0-2l1.39.06v1.21h0a1.76,1.76,0,0,1,2.16-1.22l-.06,1.51a2.39,2.39,0,0,0-.47-.08,1.42,1.42,0,0,0-1.48,1.15,3.2,3.2,0,0,0-.07.49L117,50.65l-1.6-.06Z"/><path class="cls-5" d="M124.89,49.48a10.41,10.41,0,0,0,0,1.52l-1.45-.06-.07-.71h0a2.32,2.32,0,0,1-1.9.76,1.87,1.87,0,0,1-1.91-2c.07-1.59,1.52-2.34,3.86-2.22v-.11c0-.41-.12-1.11-1.23-1.16a3.38,3.38,0,0,0-1.73.4l-.26-1a4.44,4.44,0,0,1,2.31-.46A2.36,2.36,0,0,1,125,47.19Zm-1.49-1.64c-1.13-.08-2.22.12-2.26,1.08a.84.84,0,0,0,.87.95,1.3,1.3,0,0,0,1.29-.81,1.17,1.17,0,0,0,.06-.35Z"/><path class="cls-5" d="M132.67,42.1l-.32,7.44c0,.65,0,1.36,0,1.79l-1.43-.07,0-1h0a2.27,2.27,0,0,1-2.11,1.05c-1.51-.06-2.65-1.4-2.56-3.35.08-2.12,1.46-3.32,3-3.25a2,2,0,0,1,1.74.9h0l.15-3.59Zm-1.84,5.46a1.88,1.88,0,0,0,0-.41A1.4,1.4,0,0,0,129.48,46c-1-.05-1.63.84-1.69,2s.49,2,1.5,2.07A1.42,1.42,0,0,0,130.72,49a2.21,2.21,0,0,0,.07-.47Z"/><path class="cls-5" d="M140.07,48.44a3.13,3.13,0,0,1-3.39,3.22,3.06,3.06,0,0,1-3-3.4,3.13,3.13,0,0,1,3.42-3.21A3,3,0,0,1,140.07,48.44Zm-4.77-.15c-.05,1.22.5,2.17,1.48,2.22s1.58-.83,1.64-2.11c0-1-.35-2.13-1.44-2.18S135.35,47.24,135.3,48.29Z"/><path class="cls-5" d="M141.36,47.43c0-.86,0-1.47,0-2l1.39.07v1.21h.05a1.88,1.88,0,0,1,1.79-1.28,2,2,0,0,1,.37.06L144.94,47a1.82,1.82,0,0,0-.47-.08A1.41,1.41,0,0,0,143,48a2.31,2.31,0,0,0-.07.49l-.15,3.27-1.59-.07Z"/><path class="cls-5" d="M29.93,69.63a2.08,2.08,0,0,1-.56,1.45A2.65,2.65,0,0,1,28,71.8l.47.67c.19.29.39.59.59.92s.4.69.59,1a8.61,8.61,0,0,1,.49,1l-.88,0c-.15-.33-.32-.66-.5-1s-.37-.64-.56-1-.38-.6-.56-.86l-.47-.69c-.26,0-.51,0-.77,0l-1.34-.06L25,75.24l-.81,0,.35-8.15a5.65,5.65,0,0,1,1-.13c.39,0,.75,0,1.08,0a4.34,4.34,0,0,1,2.55.76A2.25,2.25,0,0,1,29.93,69.63Zm-3.28-2a7.3,7.3,0,0,0-.8,0l-.57,0-.15,3.54,1.12,0a9.54,9.54,0,0,0,1.07,0,2.59,2.59,0,0,0,.89-.2,1.52,1.52,0,0,0,.61-.51,1.87,1.87,0,0,0,.26-.94,1.74,1.74,0,0,0-.18-.92,1.54,1.54,0,0,0-.54-.59,2.3,2.3,0,0,0-.78-.33A5.63,5.63,0,0,0,26.65,67.63Z"/><path class="cls-5" d="M31.21,72.4a4,4,0,0,1,.3-1.41,3.1,3.1,0,0,1,.65-1,2.51,2.51,0,0,1,.89-.57,2.91,2.91,0,0,1,1-.15,2.39,2.39,0,0,1,1.79.82,3.3,3.3,0,0,1,.57,2.32,1.15,1.15,0,0,1,0,.19q0,.11,0,.18L32,72.6a2.75,2.75,0,0,0,.49,1.78,2.09,2.09,0,0,0,1.65.68,3.31,3.31,0,0,0,1-.07,4.41,4.41,0,0,0,.55-.18l.12.68a3.2,3.2,0,0,1-.64.19,3.7,3.7,0,0,1-1.09.09,3.43,3.43,0,0,1-1.38-.3,2.55,2.55,0,0,1-.92-.71,2.69,2.69,0,0,1-.5-1.05A5,5,0,0,1,31.21,72.4Zm4.42-.3a2.36,2.36,0,0,0-.39-1.53A1.47,1.47,0,0,0,34,70a1.55,1.55,0,0,0-.75.13,2,2,0,0,0-.6.43,2.08,2.08,0,0,0-.41.63,2.55,2.55,0,0,0-.19.78Z"/><path class="cls-5" d="M40.08,69.55a2.76,2.76,0,0,1,1,.21,1.84,1.84,0,0,1,.67.51,1.88,1.88,0,0,1,.35.74,3.07,3.07,0,0,1,.08.92L42,75.84l-.35.06-.53.07-.67,0a6.26,6.26,0,0,1-.75,0,3.54,3.54,0,0,1-.9-.14,2.28,2.28,0,0,1-.71-.37,1.81,1.81,0,0,1-.45-.63,2,2,0,0,1-.13-.9,1.73,1.73,0,0,1,.23-.85,1.46,1.46,0,0,1,.56-.57,2.4,2.4,0,0,1,.84-.31,5.88,5.88,0,0,1,1-.06l.35,0,.36.07.3.07.17.06,0-.38a4.33,4.33,0,0,0,0-.63,1.49,1.49,0,0,0-.19-.56,1.19,1.19,0,0,0-.44-.42,1.64,1.64,0,0,0-.76-.18,4.27,4.27,0,0,0-1,.05l-.5.13-.07-.68a3,3,0,0,1,.63-.16A5.58,5.58,0,0,1,40.08,69.55Zm-.18,5.78c.31,0,.57,0,.8,0l.58,0,.1-2.18A2.48,2.48,0,0,0,41,73a4.4,4.4,0,0,0-.79-.1,4.06,4.06,0,0,0-.6,0A1.9,1.9,0,0,0,39,73a1.33,1.33,0,0,0-.45.36,1.15,1.15,0,0,0-.19.63,1.33,1.33,0,0,0,.09.59,1,1,0,0,0,.3.4,1.44,1.44,0,0,0,.5.23A3.84,3.84,0,0,0,39.9,75.33Z"/><path class="cls-5" d="M45.53,76.24a2.57,2.57,0,0,1-.68-.13,1.15,1.15,0,0,1-.48-.29,1.17,1.17,0,0,1-.28-.5,2.07,2.07,0,0,1-.07-.74l.33-7.67.79-.11-.34,7.79a1.55,1.55,0,0,0,0,.46.62.62,0,0,0,.15.29.69.69,0,0,0,.28.16,2.74,2.74,0,0,0,.41.1Z"/><path class="cls-5" d="M47.79,76.23l-.78,0,.27-6.2.78,0Zm.53-8.06a.56.56,0,0,1-.19.43.51.51,0,0,1-.41.15.6.6,0,0,1-.4-.18.56.56,0,0,1-.15-.45.6.6,0,0,1,.19-.43.54.54,0,0,1,.41-.14.6.6,0,0,1,.4.18A.55.55,0,0,1,48.32,68.17Z"/><path class="cls-5" d="M53.87,70.93c-.2.2-.45.47-.76.83s-.64.75-1,1.18-.71.9-1.06,1.38-.66.93-.92,1.36l3.63.16,0,.65L49.2,76.3l0-.57c.22-.38.5-.8.82-1.26s.67-.91,1-1.36.69-.85,1-1.24l.83-1-3.3-.14,0-.66,4.25.18Z"/><path class="cls-5" d="M57.43,70.3a2.75,2.75,0,0,1,1,.22,1.84,1.84,0,0,1,.67.51,2,2,0,0,1,.35.74,3.43,3.43,0,0,1,.08.92l-.17,3.91-.35.06-.53.07c-.21,0-.43,0-.67,0s-.5,0-.75,0a3.54,3.54,0,0,1-.9-.14,2,2,0,0,1-.71-.38,1.49,1.49,0,0,1-.45-.62,2.08,2.08,0,0,1-.14-.9,1.81,1.81,0,0,1,.23-.85,1.56,1.56,0,0,1,.57-.57,2.4,2.4,0,0,1,.84-.31,4.44,4.44,0,0,1,1-.06l.35,0,.36.07.29.07a.6.6,0,0,1,.18.06v-.38a3.27,3.27,0,0,0,0-.63,1.36,1.36,0,0,0-.18-.57,1.25,1.25,0,0,0-.44-.41,1.65,1.65,0,0,0-.77-.18,3.76,3.76,0,0,0-1,0l-.5.13-.08-.69a3.2,3.2,0,0,1,.64-.15A6.5,6.5,0,0,1,57.43,70.3Zm-.18,5.78a7.3,7.3,0,0,0,.8,0l.58,0,.1-2.19a2.87,2.87,0,0,0-.42-.14,3.56,3.56,0,0,0-.79-.1c-.19,0-.39,0-.6,0a1.85,1.85,0,0,0-.58.16,1.13,1.13,0,0,0-.45.36,1,1,0,0,0-.19.63,1.51,1.51,0,0,0,.08.59,1.11,1.11,0,0,0,.31.4,1.44,1.44,0,0,0,.5.23A3.1,3.1,0,0,0,57.25,76.08Z"/><path class="cls-5" d="M65.67,77.12A2.57,2.57,0,0,1,65,77a1.15,1.15,0,0,1-.48-.29,1.17,1.17,0,0,1-.28-.5,2.07,2.07,0,0,1-.07-.74l.33-7.67.79-.11-.34,7.79a1.55,1.55,0,0,0,0,.46.62.62,0,0,0,.15.29.69.69,0,0,0,.28.16,2.74,2.74,0,0,0,.41.1Z"/><path class="cls-5" d="M69.38,70.82a3,3,0,0,1,1,.22,1.84,1.84,0,0,1,.67.51,1.88,1.88,0,0,1,.35.74,3.07,3.07,0,0,1,.08.92l-.17,3.91-.35.06-.53.07-.67,0a6.26,6.26,0,0,1-.75,0,3.54,3.54,0,0,1-.9-.14,2.11,2.11,0,0,1-.71-.38,1.58,1.58,0,0,1-.45-.62,1.93,1.93,0,0,1-.13-.9,1.73,1.73,0,0,1,.23-.85,1.46,1.46,0,0,1,.56-.57,2.4,2.4,0,0,1,.84-.31,4.47,4.47,0,0,1,1-.06l.35,0,.36.07.3.07.17.06,0-.38a4.33,4.33,0,0,0,0-.63,1.43,1.43,0,0,0-.19-.56,1.19,1.19,0,0,0-.44-.42,1.65,1.65,0,0,0-.77-.18,3.76,3.76,0,0,0-1,0l-.5.13L67.72,71a3.92,3.92,0,0,1,.63-.15A6.5,6.5,0,0,1,69.38,70.82ZM69.2,76.6a7.3,7.3,0,0,0,.8,0l.58,0,.1-2.18a1.81,1.81,0,0,0-.41-.15,4.4,4.4,0,0,0-.79-.1,4,4,0,0,0-.6,0,1.9,1.9,0,0,0-.59.15,1.22,1.22,0,0,0-.45.36,1.15,1.15,0,0,0-.19.63,1.33,1.33,0,0,0,.09.59,1,1,0,0,0,.3.4,1.44,1.44,0,0,0,.5.23A3.1,3.1,0,0,0,69.2,76.6Z"/><path class="cls-5" d="M74.57,76.85a2.52,2.52,0,0,0,1.12-.17.78.78,0,0,0,.47-.73,1,1,0,0,0-.06-.44.93.93,0,0,0-.24-.33,2.4,2.4,0,0,0-.47-.3l-.71-.34L74,74.21a2.34,2.34,0,0,1-.54-.37,1.48,1.48,0,0,1-.36-.49,1.39,1.39,0,0,1-.12-.67,1.5,1.5,0,0,1,.63-1.2,2.35,2.35,0,0,1,1.58-.4,4.71,4.71,0,0,1,1,.15,4,4,0,0,1,.57.22l-.21.69a5,5,0,0,0-.48-.22,3.23,3.23,0,0,0-1-.16,2,2,0,0,0-.49,0,1.46,1.46,0,0,0-.43.15,1,1,0,0,0-.3.28.87.87,0,0,0-.12.42,1,1,0,0,0,.07.44,1,1,0,0,0,.27.33,2.33,2.33,0,0,0,.45.28l.6.28.68.33a2.51,2.51,0,0,1,.56.38,1.52,1.52,0,0,1,.39.52A1.45,1.45,0,0,1,77,76a1.43,1.43,0,0,1-.68,1.24,3,3,0,0,1-1.74.36,4.3,4.3,0,0,1-1.24-.2,5.7,5.7,0,0,1-.57-.23l.24-.7.15.09.32.13a3.14,3.14,0,0,0,.48.14A5.4,5.4,0,0,0,74.57,76.85Z"/><path class="cls-5" d="M83.05,76.93a11.45,11.45,0,0,0,.57-1.16q.3-.64.57-1.35c.19-.47.36-.94.52-1.42s.3-.93.42-1.35l.78,0c-.17.56-.36,1.11-.56,1.66s-.41,1.07-.63,1.59-.45,1-.68,1.5-.46.93-.68,1.35l-.73,0q-.28-.66-.57-1.41c-.19-.5-.37-1-.54-1.55s-.34-1.08-.49-1.64-.29-1.13-.41-1.7l.83,0c.07.43.17.89.29,1.38s.25,1,.4,1.46.29,1,.45,1.4S82.9,76.58,83.05,76.93Z"/><path class="cls-5" d="M86.58,74.82a3.87,3.87,0,0,1,.29-1.41,3,3,0,0,1,.66-1,2.42,2.42,0,0,1,.89-.57,2.67,2.67,0,0,1,1-.15,2.35,2.35,0,0,1,1.78.82,3.35,3.35,0,0,1,.58,2.32c0,.06,0,.13,0,.19a.9.9,0,0,1,0,.18L87.39,75a2.85,2.85,0,0,0,.49,1.78,2.12,2.12,0,0,0,1.65.68,3.36,3.36,0,0,0,1-.08,2.37,2.37,0,0,0,.54-.18l.12.68a3.05,3.05,0,0,1-.64.2,3.7,3.7,0,0,1-1.09.09,3.91,3.91,0,0,1-1.38-.3,2.55,2.55,0,0,1-.92-.72,2.63,2.63,0,0,1-.49-1A4.3,4.3,0,0,1,86.58,74.82Zm4.42-.3A2.48,2.48,0,0,0,90.61,73a1.53,1.53,0,0,0-1.2-.6,1.69,1.69,0,0,0-.76.14,1.87,1.87,0,0,0-.59.42,2.15,2.15,0,0,0-.42.64,2.8,2.8,0,0,0-.19.77Z"/><path class="cls-5" d="M95.67,72a3.93,3.93,0,0,1,.72.09,1.93,1.93,0,0,1,.47.14l-.18.66a2.74,2.74,0,0,0-.39-.12,4.56,4.56,0,0,0-.77-.08,3.32,3.32,0,0,0-.81,0,2.13,2.13,0,0,0-.41.11l-.24,5.43-.78,0,.26-5.91a5.36,5.36,0,0,1,.84-.23A4.7,4.7,0,0,1,95.67,72Z"/><path class="cls-5" d="M99.23,77.93a2.38,2.38,0,0,0,1.12-.18.76.76,0,0,0,.47-.73,1,1,0,0,0-.06-.43.93.93,0,0,0-.24-.33,1.83,1.83,0,0,0-.46-.3l-.72-.35c-.22-.1-.44-.21-.64-.32a2.7,2.7,0,0,1-.54-.37,1.6,1.6,0,0,1-.36-.49,1.43,1.43,0,0,1-.12-.68,1.53,1.53,0,0,1,.63-1.2,2.41,2.41,0,0,1,1.58-.39,4.19,4.19,0,0,1,1,.15,3.08,3.08,0,0,1,.57.22l-.21.68c-.1,0-.25-.12-.48-.21a3.22,3.22,0,0,0-1-.16,2,2,0,0,0-.5,0,1.46,1.46,0,0,0-.43.15.89.89,0,0,0-.3.28.77.77,0,0,0-.12.42,1,1,0,0,0,.07.43.86.86,0,0,0,.27.33,2.33,2.33,0,0,0,.45.28c.17.09.37.19.6.29l.68.32a2.32,2.32,0,0,1,.56.39,1.52,1.52,0,0,1,.39.52,1.43,1.43,0,0,1,.12.74,1.45,1.45,0,0,1-.68,1.25,3,3,0,0,1-1.74.35A4,4,0,0,1,98,78.43a5.7,5.7,0,0,1-.57-.23l.24-.7.15.08a2.69,2.69,0,0,0,.32.14,3.24,3.24,0,0,0,.48.13A3.84,3.84,0,0,0,99.23,77.93Z"/><path class="cls-5" d="M103.76,78.68l-.78,0,.27-6.19.78,0Zm.53-8.06a.57.57,0,0,1-.18.43.58.58,0,0,1-.42.14.52.52,0,0,1-.4-.18.63.63,0,0,1-.15-.44.56.56,0,0,1,.19-.43.59.59,0,0,1,.42-.15.6.6,0,0,1,.4.18A.61.61,0,0,1,104.29,70.62Z"/><path class="cls-5" d="M111.19,75.9a4,4,0,0,1-.27,1.33,3.11,3.11,0,0,1-.63,1,2.64,2.64,0,0,1-.93.61,2.85,2.85,0,0,1-1.14.19,2.73,2.73,0,0,1-1.13-.29,2.66,2.66,0,0,1-.87-.69,2.94,2.94,0,0,1-.54-1,4.15,4.15,0,0,1-.15-1.34,3.87,3.87,0,0,1,.27-1.32,2.76,2.76,0,0,1,.63-1,2.65,2.65,0,0,1,.92-.63,2.7,2.7,0,0,1,1.15-.18,2.81,2.81,0,0,1,1.13.28,2.91,2.91,0,0,1,.86.7,3.08,3.08,0,0,1,.54,1A3.89,3.89,0,0,1,111.19,75.9Zm-.83,0A3,3,0,0,0,109.9,74a1.78,1.78,0,0,0-1.43-.75,1.74,1.74,0,0,0-1.49.62,3,3,0,0,0-.63,1.83,2.92,2.92,0,0,0,.46,1.87,1.79,1.79,0,0,0,1.44.75,1.76,1.76,0,0,0,1.49-.62A2.88,2.88,0,0,0,110.36,75.87Z"/><path class="cls-5" d="M113,73.09c.23-.06.55-.12.94-.18a7.29,7.29,0,0,1,1.45,0,3,3,0,0,1,1.17.25,1.83,1.83,0,0,1,.73.61,2.32,2.32,0,0,1,.36.93,4.85,4.85,0,0,1,.07,1.17l-.15,3.46-.78,0,.14-3.22a6.28,6.28,0,0,0,0-1.11,1.94,1.94,0,0,0-.27-.76,1.14,1.14,0,0,0-.53-.44,2.52,2.52,0,0,0-.85-.16,5.88,5.88,0,0,0-1,0,2.45,2.45,0,0,0-.53.08l-.23,5.44-.78,0Z"/><path class="cls-5" d="M119.29,76.24a3.66,3.66,0,0,1,.3-1.4,3.1,3.1,0,0,1,.65-1,2.48,2.48,0,0,1,1.9-.72,2.32,2.32,0,0,1,1.79.82,3.29,3.29,0,0,1,.57,2.32,1.21,1.21,0,0,1,0,.19l0,.18-4.35-.19a2.68,2.68,0,0,0,.49,1.77,2.06,2.06,0,0,0,1.65.69,3.29,3.29,0,0,0,1-.08,4.41,4.41,0,0,0,.55-.18l.11.68a2.73,2.73,0,0,1-.63.2,4.62,4.62,0,0,1-1.1.09,3.69,3.69,0,0,1-1.38-.31,2.39,2.39,0,0,1-.91-.71,2.69,2.69,0,0,1-.5-1A5,5,0,0,1,119.29,76.24Zm4.42-.29a2.48,2.48,0,0,0-.39-1.53,1.48,1.48,0,0,0-1.2-.6,1.65,1.65,0,0,0-.75.14,1.81,1.81,0,0,0-.6.42,2.13,2.13,0,0,0-.41.64,2.82,2.82,0,0,0-.2.77Z"/><path class="cls-5" d="M127.39,79.16a2.38,2.38,0,0,0,1.12-.18.76.76,0,0,0,.47-.73,1,1,0,0,0-.06-.43,1.06,1.06,0,0,0-.24-.34,2.15,2.15,0,0,0-.46-.29l-.72-.35-.64-.32a2.7,2.7,0,0,1-.54-.37,1.6,1.6,0,0,1-.36-.49,1.43,1.43,0,0,1-.12-.68,1.53,1.53,0,0,1,.63-1.2,2.41,2.41,0,0,1,1.58-.39,4.19,4.19,0,0,1,1,.15,3.08,3.08,0,0,1,.57.22l-.21.68a4.5,4.5,0,0,0-.48-.21,3.22,3.22,0,0,0-1-.16,2,2,0,0,0-.5,0,1.3,1.3,0,0,0-.42.15.91.91,0,0,0-.31.27,1,1,0,0,0-.05.86.86.86,0,0,0,.27.33,2.33,2.33,0,0,0,.45.28l.6.29.68.32a2.61,2.61,0,0,1,.57.39,1.54,1.54,0,0,1,.51,1.26,1.48,1.48,0,0,1-.69,1.25,3,3,0,0,1-1.74.35,4.36,4.36,0,0,1-1.24-.19,5.7,5.7,0,0,1-.57-.23l.24-.7.15.08a2.69,2.69,0,0,0,.32.14,3.24,3.24,0,0,0,.48.13A3.84,3.84,0,0,0,127.39,79.16Z"/><path class="cls-5" d="M138.9,80a8.09,8.09,0,0,1-.9.19,7.15,7.15,0,0,1-1.37.05A3.18,3.18,0,0,1,135.4,80a2.55,2.55,0,0,1-.93-.68,2.82,2.82,0,0,1-.58-1,3.91,3.91,0,0,1-.17-1.36,4.76,4.76,0,0,1,.25-1.3,2.94,2.94,0,0,1,.59-1,2.56,2.56,0,0,1,.91-.63,2.86,2.86,0,0,1,1.2-.19,2.91,2.91,0,0,1,1.05.22,2.67,2.67,0,0,1,.64.36l.15-3.33.78-.11Zm-.57-4.91a2,2,0,0,0-.26-.19,2.56,2.56,0,0,0-.37-.2,3.11,3.11,0,0,0-.46-.16,2.94,2.94,0,0,0-.53-.08,2.06,2.06,0,0,0-1,.17,1.68,1.68,0,0,0-.66.51,2.42,2.42,0,0,0-.38.79,5,5,0,0,0-.15,1,2.69,2.69,0,0,0,.53,1.91,2.13,2.13,0,0,0,1.59.72,6.84,6.84,0,0,0,.93,0,4.93,4.93,0,0,0,.54-.09Z"/><path class="cls-5" d="M140.69,77.18a3.76,3.76,0,0,1,.3-1.41,3.21,3.21,0,0,1,.65-1,2.51,2.51,0,0,1,.89-.57,2.91,2.91,0,0,1,1-.15,2.34,2.34,0,0,1,1.78.82,3.3,3.3,0,0,1,.58,2.32c0,.07,0,.13,0,.19s0,.13,0,.18l-4.35-.19a2.71,2.71,0,0,0,.49,1.78,2.09,2.09,0,0,0,1.65.68,3.34,3.34,0,0,0,1-.07,5.07,5.07,0,0,0,.55-.18l.11.68a3.47,3.47,0,0,1-.64.19,4.24,4.24,0,0,1-2.47-.21,2.49,2.49,0,0,1-.91-.71,2.69,2.69,0,0,1-.5-1.05A5,5,0,0,1,140.69,77.18Zm4.42-.3a2.48,2.48,0,0,0-.39-1.53,1.47,1.47,0,0,0-1.2-.59,1.53,1.53,0,0,0-.75.13,1.84,1.84,0,0,0-.6.43,2.08,2.08,0,0,0-.41.63,2.89,2.89,0,0,0-.2.78Z"/><path class="cls-5" d="M150.08,71.38a3.38,3.38,0,0,1,.82.11,1.69,1.69,0,0,1,.41.16l-.19.66a2.45,2.45,0,0,0-.38-.14,2.75,2.75,0,0,0-.65-.09,1.49,1.49,0,0,0-1.2.36,2,2,0,0,0-.41,1.33l0,.65,2.49.11,0,.66-2.49-.11-.24,5.54-.78,0,.3-6.87a2.64,2.64,0,0,1,.64-1.79A2.16,2.16,0,0,1,150.08,71.38Zm2.61,9.43-.78,0,.27-6.2.78,0Zm.53-8.06a.56.56,0,0,1-.19.43.51.51,0,0,1-.41.15.58.58,0,0,1-.4-.18.56.56,0,0,1-.15-.45.63.63,0,0,1,.18-.43.58.58,0,0,1,.42-.14.6.6,0,0,1,.4.18A.55.55,0,0,1,153.22,72.75Z"/><path class="cls-5" d="M155,74.92l.94-.18a7.29,7.29,0,0,1,1.45,0,3,3,0,0,1,1.17.25,1.85,1.85,0,0,1,.73.62,2.22,2.22,0,0,1,.36.92,4.88,4.88,0,0,1,.07,1.17l-.15,3.46-.78,0,.14-3.21a5.55,5.55,0,0,0,0-1.12,1.94,1.94,0,0,0-.27-.76,1.2,1.2,0,0,0-.53-.44,2.47,2.47,0,0,0-.85-.16,5.88,5.88,0,0,0-1,0,3,3,0,0,0-.52.08l-.24,5.45-.78,0Z"/><path class="cls-5" d="M162.22,81.23l-.78,0,.27-6.2.78,0Zm.53-8.06a.58.58,0,0,1-.19.43.59.59,0,0,1-.41.15.58.58,0,0,1-.4-.18.59.59,0,0,1-.15-.45.58.58,0,0,1,.19-.43.54.54,0,0,1,.41-.14.52.52,0,0,1,.4.18A.55.55,0,0,1,162.75,73.17Z"/><path class="cls-5" d="M165.21,75.15l2.47.11,0,.66-2.47-.11-.14,3.3a3.17,3.17,0,0,0,.05.86,1.32,1.32,0,0,0,.23.52.9.9,0,0,0,.4.26,2.69,2.69,0,0,0,.53.08,2.28,2.28,0,0,0,.79-.08,3.17,3.17,0,0,0,.48-.19l.16.66a3,3,0,0,1-.6.22,2.69,2.69,0,0,1-.91.09,2.55,2.55,0,0,1-1-.19,1.31,1.31,0,0,1-.6-.48,1.83,1.83,0,0,1-.3-.77,5.28,5.28,0,0,1-.05-1.09l.25-5.71.78-.11Z"/><path class="cls-5" d="M169.7,81.56l-.78,0,.27-6.2.78,0Zm.53-8.06a.6.6,0,0,1-.19.43.54.54,0,0,1-.41.14.58.58,0,0,1-.4-.18.55.55,0,0,1-.15-.44.56.56,0,0,1,.19-.43.55.55,0,0,1,.41-.15.6.6,0,0,1,.4.18A.58.58,0,0,1,170.23,73.5Z"/><path class="cls-5" d="M173.7,80.89c.18-.33.37-.72.57-1.16s.38-.89.57-1.35.36-.94.52-1.42.3-.93.41-1.35l.78,0c-.17.56-.35,1.11-.56,1.65s-.41,1.08-.63,1.6-.44,1-.68,1.49-.46.93-.68,1.35l-.73,0c-.19-.44-.38-.91-.56-1.4s-.37-1-.55-1.55-.33-1.09-.49-1.65-.29-1.12-.41-1.69l.83,0q.12.64.3,1.38c.11.49.25,1,.39,1.46s.29.95.45,1.4S173.54,80.54,173.7,80.89Z"/><path class="cls-5" d="M179.63,75.64a2.8,2.8,0,0,1,1,.22,1.61,1.61,0,0,1,.66.51,1.83,1.83,0,0,1,.36.74,3.81,3.81,0,0,1,.08.91l-.18,3.91-.35.06c-.15,0-.33.05-.53.07l-.67,0q-.36,0-.75,0a4.23,4.23,0,0,1-.9-.15,2,2,0,0,1-.7-.37,1.55,1.55,0,0,1-.45-.62,2.08,2.08,0,0,1-.14-.9,1.88,1.88,0,0,1,.23-.86,1.79,1.79,0,0,1,.56-.57,2.38,2.38,0,0,1,.85-.3,5,5,0,0,1,1.05-.07l.35,0c.12,0,.24,0,.36.06l.29.07.17.07,0-.39a4.42,4.42,0,0,0,0-.63,1.25,1.25,0,0,0-.19-.56,1.16,1.16,0,0,0-.43-.42,1.82,1.82,0,0,0-.77-.18,4.14,4.14,0,0,0-1,0c-.23.06-.4.1-.5.14l-.08-.69a2.62,2.62,0,0,1,.64-.15A4.73,4.73,0,0,1,179.63,75.64Zm-.18,5.78c.3,0,.57,0,.79,0a4.49,4.49,0,0,0,.59,0l.09-2.18a2.17,2.17,0,0,0-.41-.15,4.28,4.28,0,0,0-.79-.1c-.19,0-.39,0-.6,0a1.84,1.84,0,0,0-.58.15,1.33,1.33,0,0,0-.45.36,1.18,1.18,0,0,0-.2.63,1.33,1.33,0,0,0,.09.59.89.89,0,0,0,.31.4,1.39,1.39,0,0,0,.49.23A2.7,2.7,0,0,0,179.45,81.42Z"/><path class="cls-5" d="M184.82,81.67a2.47,2.47,0,0,0,1.11-.18.76.76,0,0,0,.47-.73,1.13,1.13,0,0,0-.05-.43.81.81,0,0,0-.25-.34,1.92,1.92,0,0,0-.46-.29l-.71-.35c-.23-.1-.44-.21-.65-.32a2.62,2.62,0,0,1-.53-.37,1.59,1.59,0,0,1-.37-.49,1.46,1.46,0,0,1-.11-.68,1.52,1.52,0,0,1,.62-1.2,2.42,2.42,0,0,1,1.59-.4,4,4,0,0,1,1,.16,3.25,3.25,0,0,1,.57.21l-.21.69-.47-.21a3.24,3.24,0,0,0-1-.17,2.67,2.67,0,0,0-.5,0,1.11,1.11,0,0,0-.42.15,1,1,0,0,0-.3.27.8.8,0,0,0-.13.42,1,1,0,0,0,.08.44,1,1,0,0,0,.27.33,2.23,2.23,0,0,0,.44.28l.61.29.67.32a2.39,2.39,0,0,1,.57.39,1.54,1.54,0,0,1,.51,1.26,1.44,1.44,0,0,1-.69,1.24,3,3,0,0,1-1.73.36,4.44,4.44,0,0,1-1.25-.19,4,4,0,0,1-.56-.24l.23-.7.16.09a2.65,2.65,0,0,0,.31.13,4,4,0,0,0,.48.14A5.42,5.42,0,0,0,184.82,81.67Z"/><path class="cls-5" d="M196.32,82.53a6.41,6.41,0,0,1-2.27.23,3.46,3.46,0,0,1-1.23-.27,2.73,2.73,0,0,1-.93-.68,2.9,2.9,0,0,1-.58-1,4,4,0,0,1-.16-1.37,4.35,4.35,0,0,1,.24-1.29,3,3,0,0,1,.59-1,2.41,2.41,0,0,1,.91-.63,2.76,2.76,0,0,1,1.2-.19,3,3,0,0,1,1.06.22,2.89,2.89,0,0,1,.64.36l.14-3.33.79-.11Zm-.57-4.92a1.6,1.6,0,0,0-.26-.19,2.12,2.12,0,0,0-.37-.19,2.08,2.08,0,0,0-.46-.16,2.17,2.17,0,0,0-.52-.08,2.11,2.11,0,0,0-1,.16,1.85,1.85,0,0,0-.65.52,2.15,2.15,0,0,0-.38.79,3.78,3.78,0,0,0-.15,1,2.6,2.6,0,0,0,.53,1.9,2.07,2.07,0,0,0,1.59.73,6.63,6.63,0,0,0,.93,0,2.72,2.72,0,0,0,.54-.09Z"/><path class="cls-5" d="M198.11,79.69a4.08,4.08,0,0,1,.3-1.41,3,3,0,0,1,.66-1,2.48,2.48,0,0,1,1.89-.72,2.36,2.36,0,0,1,1.79.82,3.35,3.35,0,0,1,.58,2.32c0,.06,0,.13,0,.19s0,.12,0,.18l-4.36-.19a2.79,2.79,0,0,0,.49,1.78,2.1,2.1,0,0,0,1.65.68,3.26,3.26,0,0,0,1-.08,2.32,2.32,0,0,0,.55-.18l.12.68a3.05,3.05,0,0,1-.64.2,4.07,4.07,0,0,1-1.09.09,3.81,3.81,0,0,1-1.38-.3,2.55,2.55,0,0,1-.92-.72,2.63,2.63,0,0,1-.49-1A4.64,4.64,0,0,1,198.11,79.69Zm4.43-.3a2.48,2.48,0,0,0-.39-1.53,1.53,1.53,0,0,0-1.2-.6,1.69,1.69,0,0,0-.76.14,2,2,0,0,0-.6.42,2.34,2.34,0,0,0-.41.64,2.49,2.49,0,0,0-.19.77Z"/><path class="cls-5" d="M25,89.76a2.57,2.57,0,0,1-.69-.13,1.31,1.31,0,0,1-.48-.3,1.13,1.13,0,0,1-.28-.49,2.35,2.35,0,0,1-.07-.74l.34-7.67.78-.11-.34,7.79a1.54,1.54,0,0,0,0,.46.58.58,0,0,0,.15.28.62.62,0,0,0,.27.17l.41.1Z"/><path class="cls-5" d="M28.74,83.46a2.8,2.8,0,0,1,1,.22,1.8,1.8,0,0,1,.66.51,1.89,1.89,0,0,1,.36.74,3.89,3.89,0,0,1,.08.92l-.17,3.91-.36.06-.53.07-.67,0c-.24,0-.49,0-.75,0a3.68,3.68,0,0,1-.9-.14,2.06,2.06,0,0,1-.7-.38,1.49,1.49,0,0,1-.45-.62,2.08,2.08,0,0,1-.14-.9,1.81,1.81,0,0,1,.23-.85,1.56,1.56,0,0,1,.57-.57,2.26,2.26,0,0,1,.84-.31,4.44,4.44,0,0,1,1.05-.06l.35,0,.36.07.29.07a.52.52,0,0,1,.17.06l0-.38a4.33,4.33,0,0,0,0-.63,1.25,1.25,0,0,0-.19-.57,1.21,1.21,0,0,0-.43-.41,1.65,1.65,0,0,0-.77-.18,3.7,3.7,0,0,0-1,0l-.5.13-.08-.69a3.2,3.2,0,0,1,.64-.15A6.45,6.45,0,0,1,28.74,83.46Zm-.18,5.78a7.14,7.14,0,0,0,.79,0l.59,0L30,87a2.32,2.32,0,0,0-.41-.14,3.56,3.56,0,0,0-.79-.1,4.1,4.1,0,0,0-.6,0,1.6,1.6,0,0,0-.58.15,1.07,1.07,0,0,0-.65,1,1.33,1.33,0,0,0,.09.59,1,1,0,0,0,.31.4,1.48,1.48,0,0,0,.49.23A3.29,3.29,0,0,0,28.56,89.24Z"/><path class="cls-5" d="M36.1,92.36l-.78,0,.35-8.2a5.18,5.18,0,0,1,.9-.19,6.42,6.42,0,0,1,1.37,0,3.37,3.37,0,0,1,1.23.27,2.69,2.69,0,0,1,.93.69,2.86,2.86,0,0,1,.58,1,4,4,0,0,1,.17,1.37,4.35,4.35,0,0,1-.25,1.29,2.85,2.85,0,0,1-.59,1,2.42,2.42,0,0,1-.91.62,2.71,2.71,0,0,1-1.2.19,2.91,2.91,0,0,1-1-.22,2.67,2.67,0,0,1-.64-.36ZM36.24,89l.26.19a2.55,2.55,0,0,0,.37.19,2.27,2.27,0,0,0,.46.16,2.34,2.34,0,0,0,.53.08,2.06,2.06,0,0,0,1-.16,1.68,1.68,0,0,0,.66-.51,2.32,2.32,0,0,0,.38-.79,4.81,4.81,0,0,0,.15-1,2.66,2.66,0,0,0-.53-1.9,2.14,2.14,0,0,0-1.59-.73,6.63,6.63,0,0,0-.93,0,2.48,2.48,0,0,0-.54.09Z"/><path class="cls-5" d="M47.82,87.55a4.13,4.13,0,0,1-.26,1.32,2.92,2.92,0,0,1-.64,1,2.74,2.74,0,0,1-.92.61,2.7,2.7,0,0,1-1.15.18,2.81,2.81,0,0,1-1.13-.28,2.73,2.73,0,0,1-.86-.69,2.9,2.9,0,0,1-.54-1,3.83,3.83,0,0,1-.16-1.34A4.55,4.55,0,0,1,42.43,86a3.28,3.28,0,0,1,.63-1,2.76,2.76,0,0,1,.93-.62,2.74,2.74,0,0,1,3.14.8,2.9,2.9,0,0,1,.54,1A4.12,4.12,0,0,1,47.82,87.55Zm-.82,0a2.93,2.93,0,0,0-.46-1.87,1.73,1.73,0,0,0-1.43-.75,1.77,1.77,0,0,0-1.5.62,3.44,3.44,0,0,0-.16,3.7,1.91,1.91,0,0,0,2.93.13A3,3,0,0,0,47,87.51Z"/><path class="cls-5" d="M51.74,84.49a3.93,3.93,0,0,1,.72.09,2.3,2.3,0,0,1,.47.14l-.18.67a1.38,1.38,0,0,0-.39-.12,3.61,3.61,0,0,0-.77-.09,3.81,3.81,0,0,0-.81,0,2.38,2.38,0,0,0-.41.1l-.24,5.43-.78,0,.26-5.91a6.53,6.53,0,0,1,.84-.24A5.64,5.64,0,0,1,51.74,84.49Z"/><path class="cls-5" d="M54.94,84.75l2.47.11,0,.66-2.47-.11-.15,3.3a3.57,3.57,0,0,0,.06.86,1.19,1.19,0,0,0,.23.52.9.9,0,0,0,.4.26,2.7,2.7,0,0,0,.52.08,2.32,2.32,0,0,0,.8-.08,4.36,4.36,0,0,0,.48-.19l.16.66a3.3,3.3,0,0,1-.6.22,2.75,2.75,0,0,1-.92.09,2.54,2.54,0,0,1-1-.19,1.4,1.4,0,0,1-.61-.48,2,2,0,0,1-.29-.78,5.18,5.18,0,0,1,0-1.08l.25-5.71.78-.11Z"/><path class="cls-5" d="M60.89,84.87a2.57,2.57,0,0,1,1,.22,1.71,1.71,0,0,1,.67.5,2.07,2.07,0,0,1,.35.75,3.36,3.36,0,0,1,.08.91l-.17,3.91-.35.06-.53.07-.67,0h-.75a4,4,0,0,1-.9-.15,2,2,0,0,1-.71-.37,1.55,1.55,0,0,1-.45-.62,2.08,2.08,0,0,1-.14-.9,1.88,1.88,0,0,1,.23-.86,1.73,1.73,0,0,1,.57-.57,2.62,2.62,0,0,1,.84-.31,5.82,5.82,0,0,1,1-.06l.35,0c.12,0,.24,0,.36.06l.29.07.18.06v-.38a3.27,3.27,0,0,0,0-.63,1.32,1.32,0,0,0-.18-.56,1.19,1.19,0,0,0-.44-.42,1.65,1.65,0,0,0-.77-.18,4.22,4.22,0,0,0-1,0l-.5.14-.08-.69a3.07,3.07,0,0,1,.64-.16A5.58,5.58,0,0,1,60.89,84.87Zm-.18,5.78h.8a4.33,4.33,0,0,0,.58-.05l.1-2.18a2.67,2.67,0,0,0-.42-.15,4.28,4.28,0,0,0-.79-.1,4.1,4.1,0,0,0-.6,0,1.84,1.84,0,0,0-.58.15,1.33,1.33,0,0,0-.45.36,1.1,1.1,0,0,0-.19.63,1.51,1.51,0,0,0,.08.59,1,1,0,0,0,.31.4,1.44,1.44,0,0,0,.5.23A3.06,3.06,0,0,0,60.71,90.65Z"/><path class="cls-5" d="M69.74,91.41a5.86,5.86,0,0,1-.89.19,7.19,7.19,0,0,1-1.37.05,3.47,3.47,0,0,1-1.24-.27,2.9,2.9,0,0,1-.93-.69,3,3,0,0,1-.58-1,4,4,0,0,1-.16-1.37A4.35,4.35,0,0,1,64.81,87a2.91,2.91,0,0,1,.59-1,2.64,2.64,0,0,1,.91-.64,3.26,3.26,0,0,1,2.26,0,2.67,2.67,0,0,1,.64.36l.15-3.34.78-.11Zm-.56-4.91-.26-.19a4.13,4.13,0,0,0-.37-.2L68.08,86a2.84,2.84,0,0,0-.52-.07,2.06,2.06,0,0,0-1,.16,1.7,1.7,0,0,0-.66.52,2.18,2.18,0,0,0-.38.78,3.86,3.86,0,0,0-.15,1,2.62,2.62,0,0,0,.53,1.9,2.1,2.1,0,0,0,1.59.72,5.54,5.54,0,0,0,.93,0,2.48,2.48,0,0,0,.54-.09Z"/><path class="cls-5" d="M73.87,85.43a2.75,2.75,0,0,1,1,.22,1.84,1.84,0,0,1,.67.51,1.88,1.88,0,0,1,.35.74,3.07,3.07,0,0,1,.08.92l-.17,3.91-.35.06-.53.07-.67,0c-.24,0-.5,0-.75,0a3.54,3.54,0,0,1-.9-.14,2.11,2.11,0,0,1-.71-.38,1.68,1.68,0,0,1-.45-.62,2.09,2.09,0,0,1-.13-.9,1.73,1.73,0,0,1,.23-.85,1.46,1.46,0,0,1,.56-.57,2.4,2.4,0,0,1,.84-.31,4.47,4.47,0,0,1,1-.06l.35,0,.36.07.3.07.17.06,0-.38a4.33,4.33,0,0,0,0-.63,1.54,1.54,0,0,0-.19-.57,1.25,1.25,0,0,0-.44-.41,1.64,1.64,0,0,0-.76-.18,3.81,3.81,0,0,0-1,.05l-.5.13-.07-.69a3.07,3.07,0,0,1,.63-.15A6.5,6.5,0,0,1,73.87,85.43Zm-.18,5.78a7.32,7.32,0,0,0,.8,0l.59,0L75.17,89a2.66,2.66,0,0,0-.41-.14,3.64,3.64,0,0,0-.79-.1,4.1,4.1,0,0,0-.6,0,1.66,1.66,0,0,0-.59.15,1,1,0,0,0-.64,1,1.33,1.33,0,0,0,.09.59,1,1,0,0,0,.3.4,1.44,1.44,0,0,0,.5.23A3.1,3.1,0,0,0,73.69,91.21Z"/><path class="cls-5" d="M82.23,92.28c-.24-.5-.47-1-.69-1.55s-.43-1.08-.61-1.63-.36-1.1-.52-1.65-.28-1.08-.38-1.61l.82,0c.08.39.17.81.29,1.26s.25.91.4,1.39.32,1,.5,1.48.39,1,.62,1.49c.2-.49.38-1,.53-1.38s.31-.87.44-1.3.27-.87.4-1.32.26-.94.4-1.46l.78,0c-.31,1.15-.66,2.27-1,3.35a28.91,28.91,0,0,1-1.19,3,8.23,8.23,0,0,1-.51.91,2.58,2.58,0,0,1-.57.61,1.7,1.7,0,0,1-.7.34,2.92,2.92,0,0,1-.92.08,1.86,1.86,0,0,1-.55-.09l-.3-.12.18-.64a1.46,1.46,0,0,0,.27.11,1.79,1.79,0,0,0,.46.09,2.36,2.36,0,0,0,.61,0,1.32,1.32,0,0,0,.5-.22,1.94,1.94,0,0,0,.41-.44A3.81,3.81,0,0,0,82.23,92.28Z"/><path class="cls-5" d="M88.73,89.32A4,4,0,0,1,89,87.91a3.37,3.37,0,0,1,.66-1,2.42,2.42,0,0,1,.89-.57,2.51,2.51,0,0,1,1-.15,2.3,2.3,0,0,1,1.78.82,3.29,3.29,0,0,1,.58,2.32c0,.06,0,.13,0,.19l0,.18-4.35-.19A2.68,2.68,0,0,0,90,91.3a2.09,2.09,0,0,0,1.65.69,3.29,3.29,0,0,0,1-.08,5.07,5.07,0,0,0,.55-.18l.11.68a3.52,3.52,0,0,1-.64.2,4.07,4.07,0,0,1-1.09.08,3.51,3.51,0,0,1-1.38-.3,2.5,2.5,0,0,1-.92-.71,2.68,2.68,0,0,1-.49-1.05A4.58,4.58,0,0,1,88.73,89.32ZM93.15,89a2.53,2.53,0,0,0-.39-1.54,1.47,1.47,0,0,0-1.2-.59,1.59,1.59,0,0,0-.76.14,1.87,1.87,0,0,0-.59.42,2,2,0,0,0-.41.64,2.5,2.5,0,0,0-.2.77Z"/><path class="cls-5" d="M97,92.9a2.73,2.73,0,0,1-.69-.13,1.31,1.31,0,0,1-.48-.3,1.16,1.16,0,0,1-.27-.49,2.07,2.07,0,0,1-.07-.74l.33-7.67.79-.11-.34,7.79a1.55,1.55,0,0,0,0,.46.62.62,0,0,0,.15.29.69.69,0,0,0,.28.16,2.74,2.74,0,0,0,.41.1Z"/><path class="cls-5" d="M103.36,86.72a2.75,2.75,0,0,1,1,.22,1.84,1.84,0,0,1,.67.51,1.75,1.75,0,0,1,.35.74,3,3,0,0,1,.08.92L105.32,93l-.35.06-.53.07-.67,0q-.36,0-.75,0a3.14,3.14,0,0,1-.9-.15,1.81,1.81,0,0,1-.7-.37,1.6,1.6,0,0,1-.46-.62,2.09,2.09,0,0,1-.13-.9,1.7,1.7,0,0,1,.23-.85,1.53,1.53,0,0,1,.56-.57,2.38,2.38,0,0,1,.85-.31,4.38,4.38,0,0,1,1-.06l.36,0,.35.06.3.08.17.06,0-.38a4.52,4.52,0,0,0,0-.64,1.55,1.55,0,0,0-.19-.56,1.1,1.1,0,0,0-.44-.41,1.73,1.73,0,0,0-.76-.19,3.72,3.72,0,0,0-1,.06,3.94,3.94,0,0,0-.49.13l-.08-.69a2.64,2.64,0,0,1,.63-.15A5.49,5.49,0,0,1,103.36,86.72Zm-.18,5.78c.31,0,.57,0,.8,0a4.32,4.32,0,0,0,.59-.06l.09-2.18a2.32,2.32,0,0,0-.41-.14,3.64,3.64,0,0,0-.79-.1,4,4,0,0,0-.6,0,1.67,1.67,0,0,0-.59.16,1.1,1.1,0,0,0-.44.36,1,1,0,0,0-.2.62,1.38,1.38,0,0,0,.09.6.92.92,0,0,0,.31.39,1.4,1.4,0,0,0,.49.24A3.19,3.19,0,0,0,103.18,92.5Z"/><path class="cls-5" d="M109.94,84a3.38,3.38,0,0,1,.82.11,2.27,2.27,0,0,1,.41.16L111,85a1.65,1.65,0,0,0-.38-.15,2.75,2.75,0,0,0-.65-.09,1.49,1.49,0,0,0-1.2.36,2.06,2.06,0,0,0-.41,1.33l0,.65,2.49.11,0,.66-2.49-.11L108,93.28l-.78,0,.3-6.86a2.6,2.6,0,0,1,.64-1.8A2.18,2.18,0,0,1,109.94,84Zm2.61,9.43-.78,0,.27-6.2.78,0Zm.53-8.06a.56.56,0,0,1-.19.43.53.53,0,0,1-.41.15.58.58,0,0,1-.4-.18.56.56,0,0,1-.15-.45.63.63,0,0,1,.18-.43.58.58,0,0,1,.42-.14.6.6,0,0,1,.4.18A.55.55,0,0,1,113.08,85.41Z"/><path class="cls-5" d="M117.11,93.81a3.24,3.24,0,0,1-1.26-.29,2.35,2.35,0,0,1-.89-.69,3.17,3.17,0,0,1-.52-1,4.39,4.39,0,0,1-.13-1.33,4.24,4.24,0,0,1,.26-1.32,3,3,0,0,1,.61-1,2.48,2.48,0,0,1,.93-.63,2.91,2.91,0,0,1,1.2-.18,4.54,4.54,0,0,1,.93.12,2.3,2.3,0,0,1,.67.25l-.23.66a2.25,2.25,0,0,0-.53-.21,3.2,3.2,0,0,0-.8-.11,1.9,1.9,0,0,0-1.6.6,2.93,2.93,0,0,0-.61,1.86,4.16,4.16,0,0,0,.07,1,2.14,2.14,0,0,0,.36.81,1.71,1.71,0,0,0,.67.54,2.41,2.41,0,0,0,1,.23,2.73,2.73,0,0,0,.85-.07,4.5,4.5,0,0,0,.51-.18l.13.68a2.84,2.84,0,0,1-.68.2A3.9,3.9,0,0,1,117.11,93.81Z"/><path class="cls-5" d="M120.06,93.8l.4-9.16.79-.11-.15,3.29a4.54,4.54,0,0,1,.79-.19,4.29,4.29,0,0,1,.8,0,3.09,3.09,0,0,1,1.19.25,1.88,1.88,0,0,1,.74.62,2.28,2.28,0,0,1,.36.92,5.52,5.52,0,0,1,.06,1.17L124.89,94l-.78,0,.14-3.21a5.55,5.55,0,0,0,0-1.12,1.8,1.8,0,0,0-.26-.76,1.29,1.29,0,0,0-.54-.44,2.6,2.6,0,0,0-.87-.16,2.2,2.2,0,0,0-.44,0,2.75,2.75,0,0,0-.44.06l-.37.07-.22.06-.23,5.34Z"/><path class="cls-5" d="M126.62,91a4.08,4.08,0,0,1,.3-1.41,3.1,3.1,0,0,1,.65-1,2.51,2.51,0,0,1,.89-.57,2.91,2.91,0,0,1,1-.15,2.36,2.36,0,0,1,1.79.82,3.3,3.3,0,0,1,.57,2.32,1.15,1.15,0,0,1,0,.19.84.84,0,0,1,0,.18l-4.35-.19a2.77,2.77,0,0,0,.49,1.78,2.09,2.09,0,0,0,1.65.68,3.66,3.66,0,0,0,1-.07,4.41,4.41,0,0,0,.55-.18l.12.67a3.05,3.05,0,0,1-.64.2,3.7,3.7,0,0,1-1.09.09,3.81,3.81,0,0,1-1.38-.3,2.55,2.55,0,0,1-.92-.71,2.69,2.69,0,0,1-.5-1A5,5,0,0,1,126.62,91Zm4.42-.3a2.42,2.42,0,0,0-.38-1.53,1.5,1.5,0,0,0-1.2-.59,1.57,1.57,0,0,0-.76.13,1.79,1.79,0,0,0-.6.43,2.08,2.08,0,0,0-.41.63,2.56,2.56,0,0,0-.19.77Z"/><path class="cls-5" d="M134.33,93.91a.7.7,0,0,1-.2.46.62.62,0,0,1-.49.17.64.64,0,0,1-.48-.21.68.68,0,0,1-.15-.48.69.69,0,0,1,.19-.46.64.64,0,0,1,.5-.17.63.63,0,0,1,.47.21A.75.75,0,0,1,134.33,93.91Z"/><path class="cls-5" d="M29.41,105.76A4.62,4.62,0,0,1,29,107.6a3.55,3.55,0,0,1-1,1.28,3.88,3.88,0,0,1-1.48.73,6.09,6.09,0,0,1-1.85.18,10.21,10.21,0,0,1-1.06-.1,6.7,6.7,0,0,1-1-.2l.35-8a5.3,5.3,0,0,1,1-.13c.37,0,.72,0,1.05,0a5.84,5.84,0,0,1,1.84.35,4,4,0,0,1,1.41.85,3.52,3.52,0,0,1,.88,1.36A4.74,4.74,0,0,1,29.41,105.76ZM23.48,109l.36.06c.2,0,.51.06.94.08a4.33,4.33,0,0,0,1.58-.18,3,3,0,0,0,1.16-.65,2.83,2.83,0,0,0,.73-1.08,4.89,4.89,0,0,0,.13-2.93,2.78,2.78,0,0,0-.63-1.13,3,3,0,0,0-1.1-.75,4.5,4.5,0,0,0-1.56-.32,7.1,7.1,0,0,0-.94,0l-.37,0Z"/><path class="cls-5" d="M30.76,106.88a4.08,4.08,0,0,1,.3-1.41,3,3,0,0,1,.66-1,2.42,2.42,0,0,1,.89-.57,2.46,2.46,0,0,1,1-.15,2.35,2.35,0,0,1,1.78.82A3.35,3.35,0,0,1,36,106.9c0,.06,0,.13,0,.19a.9.9,0,0,1,0,.18l-4.36-.19a2.85,2.85,0,0,0,.49,1.78,2.12,2.12,0,0,0,1.65.68,3.36,3.36,0,0,0,1-.08,2.37,2.37,0,0,0,.54-.18l.12.68a3.05,3.05,0,0,1-.64.2,3.7,3.7,0,0,1-1.09.09,3.81,3.81,0,0,1-1.38-.3,2.55,2.55,0,0,1-.92-.72,2.7,2.7,0,0,1-.49-1A4.64,4.64,0,0,1,30.76,106.88Zm4.43-.3a2.48,2.48,0,0,0-.39-1.53,1.5,1.5,0,0,0-1.2-.6,1.69,1.69,0,0,0-.76.14,1.87,1.87,0,0,0-.59.42,2.15,2.15,0,0,0-.42.64,2.49,2.49,0,0,0-.19.77Z"/><path class="cls-5" d="M38.51,104.49a2.53,2.53,0,0,1,.67-.3,2.71,2.71,0,0,1,1.06-.13,2.94,2.94,0,0,1,1.19.29,2.54,2.54,0,0,1,.85.71,3,3,0,0,1,.5,1,4.26,4.26,0,0,1,.13,1.31,3.94,3.94,0,0,1-.28,1.34,3,3,0,0,1-.67,1,2.92,2.92,0,0,1-1,.6,3.36,3.36,0,0,1-1.25.16,7.58,7.58,0,0,1-1.36-.16,7.34,7.34,0,0,1-.88-.27l.39-9,.79-.11Zm-.22,5.09a3,3,0,0,0,.52.14,5.41,5.41,0,0,0,.93.09,2.12,2.12,0,0,0,1.65-.58,2.69,2.69,0,0,0,.69-1.85,4.49,4.49,0,0,0-.06-1,2.38,2.38,0,0,0-.32-.82,1.82,1.82,0,0,0-.6-.57,2.09,2.09,0,0,0-1-.25,4.58,4.58,0,0,0-.53,0,2.93,2.93,0,0,0-.47.12,2.4,2.4,0,0,0-.39.17l-.27.16Z"/><path class="cls-5" d="M44.23,107.46a4,4,0,0,1,.29-1.41,3.18,3.18,0,0,1,.66-1,2.42,2.42,0,0,1,.89-.57,2.51,2.51,0,0,1,1-.15,2.3,2.3,0,0,1,1.78.82,3.29,3.29,0,0,1,.58,2.32,1.23,1.23,0,0,1,0,.19,1.1,1.1,0,0,1,0,.18l-4.35-.19a2.68,2.68,0,0,0,.49,1.77,2.09,2.09,0,0,0,1.65.69,3.29,3.29,0,0,0,1-.08,5.07,5.07,0,0,0,.55-.18l.11.68a2.86,2.86,0,0,1-.64.2,4.07,4.07,0,0,1-1.09.08,3.51,3.51,0,0,1-1.38-.3,2.42,2.42,0,0,1-.92-.71,2.68,2.68,0,0,1-.49-1A4.58,4.58,0,0,1,44.23,107.46Zm4.42-.3a2.52,2.52,0,0,0-.39-1.53,1.47,1.47,0,0,0-1.2-.59,1.59,1.59,0,0,0-.76.14,1.87,1.87,0,0,0-.59.42,2,2,0,0,0-.41.64,2.5,2.5,0,0,0-.2.77Z"/><path class="cls-5" d="M54.77,104.83l2.47.1,0,.66-2.47-.11-.14,3.3a3.17,3.17,0,0,0,0,.86,1.2,1.2,0,0,0,.23.52.82.82,0,0,0,.4.26,1.74,1.74,0,0,0,.53.08,2.31,2.31,0,0,0,.79-.07l.48-.19.16.65a2.49,2.49,0,0,1-.6.22,3,3,0,0,1-.91.1,2.76,2.76,0,0,1-1-.19,1.35,1.35,0,0,1-.61-.49,1.91,1.91,0,0,1-.29-.77,5.22,5.22,0,0,1,0-1.08l.25-5.71.78-.11Z"/><path class="cls-5" d="M58.11,108.07a3.76,3.76,0,0,1,.3-1.41,3.21,3.21,0,0,1,.65-1,2.35,2.35,0,0,1,.89-.56,2.71,2.71,0,0,1,1-.16,2.34,2.34,0,0,1,1.78.82,3.3,3.3,0,0,1,.58,2.32c0,.07,0,.13,0,.2l0,.17-4.35-.19a2.71,2.71,0,0,0,.49,1.78,2.09,2.09,0,0,0,1.65.68,3.34,3.34,0,0,0,1-.07,5.07,5.07,0,0,0,.55-.18l.11.68a4.17,4.17,0,0,1-.64.2,4.07,4.07,0,0,1-1.09.08,3.51,3.51,0,0,1-1.38-.3,2.49,2.49,0,0,1-.91-.71,2.69,2.69,0,0,1-.5-1.05A5,5,0,0,1,58.11,108.07Zm4.42-.3a2.48,2.48,0,0,0-.39-1.53,1.47,1.47,0,0,0-1.2-.59,1.53,1.53,0,0,0-.75.13,2,2,0,0,0-.6.43,2.08,2.08,0,0,0-.41.63,3,3,0,0,0-.2.78Z"/><path class="cls-5" d="M65.08,105.49c.24,0,.55-.11,1-.17a6.41,6.41,0,0,1,1.44-.06,3,3,0,0,1,1.17.26,1.83,1.83,0,0,1,.73.61,2.28,2.28,0,0,1,.36.92,4.91,4.91,0,0,1,.07,1.17l-.15,3.47-.78,0,.14-3.21a5.59,5.59,0,0,0,0-1.12,1.94,1.94,0,0,0-.27-.76,1.27,1.27,0,0,0-.53-.44,2.74,2.74,0,0,0-.85-.16,7.27,7.27,0,0,0-1,0,2.67,2.67,0,0,0-.52.09l-.24,5.44-.78,0Z"/><path class="cls-5" d="M71.38,108.65a4,4,0,0,1,.3-1.41,3.1,3.1,0,0,1,.65-1,2.35,2.35,0,0,1,.89-.56,2.71,2.71,0,0,1,1-.16,2.41,2.41,0,0,1,1.79.82,3.3,3.3,0,0,1,.57,2.32c0,.07,0,.13,0,.19s0,.13,0,.18l-4.35-.19a2.71,2.71,0,0,0,.49,1.78,2.09,2.09,0,0,0,1.65.68,3.34,3.34,0,0,0,1-.07,4.41,4.41,0,0,0,.55-.18l.11.67a3.17,3.17,0,0,1-.63.21,4.14,4.14,0,0,1-1.09.08,3.53,3.53,0,0,1-1.39-.3A2.6,2.6,0,0,1,72,111a2.69,2.69,0,0,1-.5-1.05A5,5,0,0,1,71.38,108.65Zm4.42-.3a2.48,2.48,0,0,0-.39-1.53,1.47,1.47,0,0,0-1.2-.59,1.53,1.53,0,0,0-.75.13,1.84,1.84,0,0,0-.6.43,2.08,2.08,0,0,0-.41.63,2.89,2.89,0,0,0-.2.78Z"/><path class="cls-5" d="M80.48,105.83a4.17,4.17,0,0,1,.72.09,2.53,2.53,0,0,1,.47.14l-.19.67a1.29,1.29,0,0,0-.38-.12,3.7,3.7,0,0,0-.77-.09,4.06,4.06,0,0,0-.82,0,2,2,0,0,0-.4.11l-.24,5.43-.78,0,.26-5.91a7.62,7.62,0,0,1,.84-.23A5.06,5.06,0,0,1,80.48,105.83Z"/><path class="cls-5" d="M85.31,112.37l.4-9.16.78-.11-.14,3.28a5.32,5.32,0,0,1,.79-.18,4.2,4.2,0,0,1,.79,0,3,3,0,0,1,1.19.26,1.89,1.89,0,0,1,.75.61,2.26,2.26,0,0,1,.36.93,5.39,5.39,0,0,1,.06,1.16l-.15,3.47-.78,0,.14-3.22a5.59,5.59,0,0,0,0-1.12,2,2,0,0,0-.27-.75,1.12,1.12,0,0,0-.54-.44,2.6,2.6,0,0,0-.87-.16,2.2,2.2,0,0,0-.44,0l-.44.06-.37.08a.68.68,0,0,0-.21.06l-.23,5.33Z"/><path class="cls-5" d="M94.19,106.4a2.75,2.75,0,0,1,1,.22,1.84,1.84,0,0,1,.67.51,1.88,1.88,0,0,1,.35.74,3.07,3.07,0,0,1,.08.92l-.17,3.91-.35.06-.53.07-.67,0a6.31,6.31,0,0,1-.75,0,3.54,3.54,0,0,1-.9-.14,2,2,0,0,1-.7-.38,1.6,1.6,0,0,1-.46-.62,2.09,2.09,0,0,1-.13-.9,1.73,1.73,0,0,1,.23-.85,1.46,1.46,0,0,1,.56-.57,2.4,2.4,0,0,1,.84-.31,4.5,4.5,0,0,1,1-.06l.35,0,.36.07.3.07.17.06,0-.38a4.33,4.33,0,0,0,0-.63,1.54,1.54,0,0,0-.19-.57,1.25,1.25,0,0,0-.44-.41,1.61,1.61,0,0,0-.76-.18,3.81,3.81,0,0,0-1,.05l-.5.13-.07-.69a3.92,3.92,0,0,1,.63-.15A6.5,6.5,0,0,1,94.19,106.4ZM94,112.18a7.32,7.32,0,0,0,.8,0l.59,0,.09-2.19a2.66,2.66,0,0,0-.41-.14,4.4,4.4,0,0,0-.79-.1,4.1,4.1,0,0,0-.6,0,1.9,1.9,0,0,0-.59.15,1,1,0,0,0-.44.36,1,1,0,0,0-.2.63,1.33,1.33,0,0,0,.09.59.94.94,0,0,0,.31.4,1.39,1.39,0,0,0,.49.23A3.1,3.1,0,0,0,94,112.18Z"/><path class="cls-5" d="M99.12,107.13a3.42,3.42,0,0,1,.67-.3,3,3,0,0,1,1.07-.12A2.74,2.74,0,0,1,102,107a2.43,2.43,0,0,1,.85.71,2.84,2.84,0,0,1,.5,1.05,4.23,4.23,0,0,1,.13,1.31,3.71,3.71,0,0,1-.28,1.34,2.89,2.89,0,0,1-.67,1,2.68,2.68,0,0,1-1,.6,3.41,3.41,0,0,1-1.26.17A6.68,6.68,0,0,1,99,113a7.11,7.11,0,0,1-.87-.27l.39-9,.78-.11Zm-.22,5.1a3.19,3.19,0,0,0,.53.14,8.14,8.14,0,0,0,.92.09,2.1,2.1,0,0,0,1.65-.58,2.62,2.62,0,0,0,.69-1.85,4,4,0,0,0-.06-1,2.3,2.3,0,0,0-.31-.82,1.67,1.67,0,0,0-.61-.57,2.05,2.05,0,0,0-1-.25,2.21,2.21,0,0,0-.52,0,3.06,3.06,0,0,0-.48.12,2.29,2.29,0,0,0-.38.16,2,2,0,0,0-.28.17Z"/><path class="cls-5" d="M105.8,113.26l-.78,0,.27-6.2.78,0Zm.53-8.06a.58.58,0,0,1-.6.58.6.6,0,1,1,0-1.2.6.6,0,0,1,.4.18A.55.55,0,0,1,106.33,105.2Z"/><path class="cls-5" d="M109.35,113.53a3,3,0,0,1-.68-.13,1.16,1.16,0,0,1-.48-.3,1.19,1.19,0,0,1-.28-.49,2.39,2.39,0,0,1-.07-.75l.33-7.67.79-.11-.34,7.79a1.66,1.66,0,0,0,0,.47.58.58,0,0,0,.15.28.69.69,0,0,0,.28.16,2.74,2.74,0,0,0,.41.1Z"/><path class="cls-5" d="M111.61,113.52l-.78,0,.27-6.2.78,0Zm.53-8.06a.63.63,0,0,1-.18.43.58.58,0,0,1-.42.14.6.6,0,0,1-.4-.18.55.55,0,0,1-.15-.44.56.56,0,0,1,.19-.43.53.53,0,0,1,.41-.15.58.58,0,0,1,.4.18A.56.56,0,0,1,112.14,105.46Z"/><path class="cls-5" d="M118.55,113.63a8.09,8.09,0,0,1-.9.19,7.26,7.26,0,0,1-1.37,0,3.17,3.17,0,0,1-1.23-.27,2.55,2.55,0,0,1-.93-.68,2.9,2.9,0,0,1-.58-1,3.72,3.72,0,0,1-.16-1.36,4.36,4.36,0,0,1,.24-1.3,3,3,0,0,1,.59-1,2.33,2.33,0,0,1,.91-.63,2.71,2.71,0,0,1,1.2-.19,3,3,0,0,1,1.06.22,2.78,2.78,0,0,1,.63.36l.15-3.33.79-.11Zm-.57-4.92c-.07,0-.15-.12-.26-.19a2.12,2.12,0,0,0-.37-.19,2.77,2.77,0,0,0-1-.24,2.09,2.09,0,0,0-1,.16,1.76,1.76,0,0,0-.65.52,2.34,2.34,0,0,0-.39.79,4.92,4.92,0,0,0-.15,1,2.65,2.65,0,0,0,.53,1.9,2.1,2.1,0,0,0,1.59.73,6.54,6.54,0,0,0,.93,0,2.48,2.48,0,0,0,.54-.09Z"/><path class="cls-5" d="M122.68,107.65a2.61,2.61,0,0,1,1,.22,1.61,1.61,0,0,1,.66.5,1.94,1.94,0,0,1,.36.75,3.81,3.81,0,0,1,.08.91l-.17,3.91-.35.06-.54.07-.67.05h-.75a4.23,4.23,0,0,1-.9-.15,2,2,0,0,1-.7-.37,1.55,1.55,0,0,1-.45-.62,2.08,2.08,0,0,1-.14-.9,1.88,1.88,0,0,1,.23-.86,1.73,1.73,0,0,1,.57-.57,2.32,2.32,0,0,1,.84-.3,5,5,0,0,1,1-.07l.35,0,.36.06.29.07.18.06v-.38a4.42,4.42,0,0,0,0-.63,1.32,1.32,0,0,0-.18-.56,1.27,1.27,0,0,0-.44-.42,1.78,1.78,0,0,0-.77-.18,4.14,4.14,0,0,0-1,0,3.42,3.42,0,0,0-.5.14l-.08-.69a2.62,2.62,0,0,1,.64-.15A4.73,4.73,0,0,1,122.68,107.65Zm-.18,5.78h.8l.58-.05.1-2.18a2.67,2.67,0,0,0-.42-.15,4.28,4.28,0,0,0-.79-.1c-.19,0-.39,0-.6,0a1.84,1.84,0,0,0-.58.15,1.33,1.33,0,0,0-.45.36,1.18,1.18,0,0,0-.2.63,1.33,1.33,0,0,0,.09.59.89.89,0,0,0,.31.4,1.48,1.48,0,0,0,.49.23A2.7,2.7,0,0,0,122.5,113.43Z"/><path class="cls-5" d="M131.53,114.19a5.76,5.76,0,0,1-.9.19,6.42,6.42,0,0,1-1.37.05,3.46,3.46,0,0,1-1.23-.27,2.9,2.9,0,0,1-.93-.69,3,3,0,0,1-.58-1,4,4,0,0,1-.16-1.37,4.35,4.35,0,0,1,.24-1.29,3,3,0,0,1,.59-1,2.41,2.41,0,0,1,.91-.63,2.78,2.78,0,0,1,1.21-.19,3,3,0,0,1,1.05.22,2.89,2.89,0,0,1,.64.36l.14-3.34.79-.11Zm-.56-4.91a2.43,2.43,0,0,0-.27-.19,2.47,2.47,0,0,0-.37-.2,4.09,4.09,0,0,0-.46-.16,2.84,2.84,0,0,0-.52-.07,2.11,2.11,0,0,0-1,.16,1.74,1.74,0,0,0-.65.52,2.15,2.15,0,0,0-.38.79,3.78,3.78,0,0,0-.15,1,2.62,2.62,0,0,0,.53,1.9,2.1,2.1,0,0,0,1.59.72,5.54,5.54,0,0,0,.93,0,2.72,2.72,0,0,0,.54-.09Z"/><path class="cls-5" d="M133.33,111.35a4,4,0,0,1,.29-1.41,3,3,0,0,1,.66-1,2.42,2.42,0,0,1,.89-.57,2.48,2.48,0,0,1,1-.15,2.3,2.3,0,0,1,1.78.82,3.34,3.34,0,0,1,.58,2.32c0,.06,0,.13,0,.19a1.1,1.1,0,0,1,0,.18l-4.36-.19a2.8,2.8,0,0,0,.49,1.77,2.12,2.12,0,0,0,1.65.69,3.36,3.36,0,0,0,1-.08,4.13,4.13,0,0,0,.54-.18l.12.68a3.05,3.05,0,0,1-.64.2,4.1,4.1,0,0,1-1.09.08,3.51,3.51,0,0,1-1.38-.3,2.42,2.42,0,0,1-.92-.71,2.68,2.68,0,0,1-.49-1A4.25,4.25,0,0,1,133.33,111.35Zm4.42-.29a2.53,2.53,0,0,0-.39-1.54,1.5,1.5,0,0,0-1.2-.59,1.57,1.57,0,0,0-.76.14,1.87,1.87,0,0,0-.59.42,2,2,0,0,0-.42.64,2.8,2.8,0,0,0-.19.77Z"/><path class="cls-5" d="M141.43,114.27a2.34,2.34,0,0,0,1.11-.18.76.76,0,0,0,.47-.73,1.13,1.13,0,0,0,0-.43.88.88,0,0,0-.25-.34,1.92,1.92,0,0,0-.46-.29l-.71-.35c-.23-.1-.45-.21-.65-.32a2.62,2.62,0,0,1-.53-.37,1.48,1.48,0,0,1-.37-.49,1.57,1.57,0,0,1-.11-.68,1.52,1.52,0,0,1,.62-1.2,2.48,2.48,0,0,1,1.59-.4,4,4,0,0,1,1,.16,3.25,3.25,0,0,1,.57.21l-.21.69-.47-.21a3,3,0,0,0-1-.16,2,2,0,0,0-.5,0,1.3,1.3,0,0,0-.42.15,1,1,0,0,0-.3.27.83.83,0,0,0-.13.42.87.87,0,0,0,.08.44.94.94,0,0,0,.27.33,2.57,2.57,0,0,0,.44.28l.61.29.67.32a2.39,2.39,0,0,1,.57.39,1.69,1.69,0,0,1,.39.52,1.67,1.67,0,0,1,.12.74,1.45,1.45,0,0,1-.69,1.25,3.08,3.08,0,0,1-1.73.35,4.44,4.44,0,0,1-1.25-.19,4,4,0,0,1-.56-.24l.23-.69.15.08.32.14.48.13A4,4,0,0,0,141.43,114.27Z"/><path class="cls-5" d="M22.64,126.27l-.78,0,.36-8.2a6,6,0,0,1,.89-.18,6.52,6.52,0,0,1,1.38,0,3.46,3.46,0,0,1,1.23.27,2.76,2.76,0,0,1,.93.69,3,3,0,0,1,.58,1,4,4,0,0,1,.16,1.37,4.35,4.35,0,0,1-.24,1.29,3,3,0,0,1-.59,1,2.59,2.59,0,0,1-.91.62,2.78,2.78,0,0,1-1.21.19,3,3,0,0,1-1.05-.22,2.89,2.89,0,0,1-.64-.36Zm.14-3.33a2.43,2.43,0,0,0,.27.19,1.81,1.81,0,0,0,.37.19,2.08,2.08,0,0,0,.46.16,2.17,2.17,0,0,0,.52.08,2.11,2.11,0,0,0,1-.16,1.72,1.72,0,0,0,.65-.51,2.15,2.15,0,0,0,.38-.79,3.78,3.78,0,0,0,.15-1,2.62,2.62,0,0,0-.53-1.9,2.14,2.14,0,0,0-1.59-.73,6.63,6.63,0,0,0-.93,0,2.59,2.59,0,0,0-.54.09Z"/><path class="cls-5" d="M31.12,118.06a2.8,2.8,0,0,1,1,.22,1.8,1.8,0,0,1,.66.51,1.89,1.89,0,0,1,.36.74,3.89,3.89,0,0,1,.08.92l-.17,3.91-.36.06-.53.07-.67.05a6.31,6.31,0,0,1-.75,0,3.68,3.68,0,0,1-.9-.14,2.06,2.06,0,0,1-.7-.38,1.49,1.49,0,0,1-.45-.62,2.08,2.08,0,0,1-.14-.9,1.84,1.84,0,0,1,.23-.85,1.56,1.56,0,0,1,.57-.57,2.26,2.26,0,0,1,.84-.31,4.44,4.44,0,0,1,1.05-.06l.35,0,.36.07.29.07a.52.52,0,0,1,.17.06l0-.38a4.33,4.33,0,0,0,0-.63,1.21,1.21,0,0,0-.62-1,1.65,1.65,0,0,0-.77-.18,3.7,3.7,0,0,0-1,0l-.5.13-.08-.69a4.1,4.1,0,0,1,.64-.15A6.45,6.45,0,0,1,31.12,118.06Zm-.18,5.78a7.14,7.14,0,0,0,.79,0l.59,0,.09-2.19a2.32,2.32,0,0,0-.41-.14,4.28,4.28,0,0,0-.79-.1,4.1,4.1,0,0,0-.6,0,1.84,1.84,0,0,0-.58.15,1.07,1.07,0,0,0-.65,1,1.33,1.33,0,0,0,.09.59.94.94,0,0,0,.31.4,1.39,1.39,0,0,0,.49.23A3.29,3.29,0,0,0,30.94,123.84Z"/><path class="cls-5" d="M37.4,118.36a4.17,4.17,0,0,1,.72.09,2.53,2.53,0,0,1,.47.14l-.19.67a1.29,1.29,0,0,0-.38-.12,4.53,4.53,0,0,0-.77-.09,3.81,3.81,0,0,0-.81,0,2.14,2.14,0,0,0-.41.1l-.24,5.43-.78,0,.26-5.91a5.7,5.7,0,0,1,.84-.24A5.56,5.56,0,0,1,37.4,118.36Z"/><path class="cls-5" d="M41.62,118.52a2.75,2.75,0,0,1,1,.22,1.84,1.84,0,0,1,.67.51,2,2,0,0,1,.35.74,3.43,3.43,0,0,1,.08.92l-.17,3.91-.35.06-.54.07L42,125c-.25,0-.5,0-.75,0a3.69,3.69,0,0,1-.91-.14,2.06,2.06,0,0,1-.7-.38,1.49,1.49,0,0,1-.45-.62,2.08,2.08,0,0,1-.14-.9,1.81,1.81,0,0,1,.23-.85,1.56,1.56,0,0,1,.57-.57,2.4,2.4,0,0,1,.84-.31,4.44,4.44,0,0,1,1.05-.06l.35,0,.36.06.29.08a.74.74,0,0,1,.18.06V121a3.4,3.4,0,0,0,0-.64,1.37,1.37,0,0,0-.18-.56,1.25,1.25,0,0,0-.44-.41,1.77,1.77,0,0,0-.77-.19,3.64,3.64,0,0,0-1,.06,4.21,4.21,0,0,0-.5.13l-.08-.69a3.2,3.2,0,0,1,.64-.15A5.49,5.49,0,0,1,41.62,118.52Zm-.18,5.78a7.3,7.3,0,0,0,.8,0l.58,0,.1-2.19a2.87,2.87,0,0,0-.42-.14,3.56,3.56,0,0,0-.79-.1,4.1,4.1,0,0,0-.6,0,1.6,1.6,0,0,0-.58.15,1.13,1.13,0,0,0-.45.36,1,1,0,0,0-.19.63,1.34,1.34,0,0,0,.08.59,1,1,0,0,0,.31.4,1.65,1.65,0,0,0,.5.23A3.1,3.1,0,0,0,41.44,124.3Z"/><path class="cls-5" d="M48.06,122.05a4,4,0,0,1,.29-1.42,3.37,3.37,0,0,1,.66-1,2.42,2.42,0,0,1,.89-.57,2.48,2.48,0,0,1,1-.15,2.3,2.3,0,0,1,1.78.82,3.3,3.3,0,0,1,.58,2.32c0,.06,0,.13,0,.19l0,.18-4.35-.19a2.68,2.68,0,0,0,.49,1.77,2.06,2.06,0,0,0,1.65.69,3.29,3.29,0,0,0,1-.08,3.52,3.52,0,0,0,.55-.18l.11.68a2.86,2.86,0,0,1-.64.2,4,4,0,0,1-1.09.09,3.69,3.69,0,0,1-1.38-.31,2.5,2.5,0,0,1-.92-.71,2.7,2.7,0,0,1-.49-1A4.64,4.64,0,0,1,48.06,122.05Zm4.42-.3a2.48,2.48,0,0,0-.39-1.53,1.48,1.48,0,0,0-1.2-.6,1.72,1.72,0,0,0-.76.14,1.87,1.87,0,0,0-.59.42,2,2,0,0,0-.41.64,2.5,2.5,0,0,0-.2.77Z"/><path class="cls-5" d="M56.84,122.91c-.18.2-.37.42-.55.64s-.37.44-.54.66-.33.43-.48.65-.27.42-.37.6l-.8,0a17.64,17.64,0,0,1,1.13-1.65c.4-.5.81-1,1.22-1.47l-2-3.07.91,0,1.52,2.42,1.72-2.28.85,0-2.18,2.86.52.73c.19.27.38.54.56.83s.37.57.54.88a9.83,9.83,0,0,1,.48.9l-.84,0c-.09-.18-.2-.38-.32-.6s-.27-.45-.43-.68-.31-.48-.48-.73Z"/><path class="cls-5" d="M61.44,128l-.77,0,.35-8.2a8.09,8.09,0,0,1,.9-.19,7.15,7.15,0,0,1,1.37-.05,3.18,3.18,0,0,1,1.23.28,2.55,2.55,0,0,1,.93.68,2.82,2.82,0,0,1,.58,1,3.91,3.91,0,0,1,.17,1.36,4.35,4.35,0,0,1-.25,1.29,2.76,2.76,0,0,1-.59,1,2.56,2.56,0,0,1-.91.63,2.86,2.86,0,0,1-1.2.18,2.72,2.72,0,0,1-1-.22,2.39,2.39,0,0,1-.64-.35Zm.15-3.33.26.19a2.56,2.56,0,0,0,.37.2c.14.06.3.11.46.16a3,3,0,0,0,.53.07,2.07,2.07,0,0,0,1-.15,1.68,1.68,0,0,0,.66-.51,2.52,2.52,0,0,0,.38-.79,5,5,0,0,0,.15-1,2.69,2.69,0,0,0-.53-1.91,2.13,2.13,0,0,0-1.59-.72,6.87,6.87,0,0,0-.93,0,4.93,4.93,0,0,0-.54.09Z"/><path class="cls-5" d="M70.11,119.79a4.16,4.16,0,0,1,.73.09,2.36,2.36,0,0,1,.46.14l-.18.67a1.28,1.28,0,0,0-.39-.12,3.61,3.61,0,0,0-.77-.09,3.3,3.3,0,0,0-.81,0,2.38,2.38,0,0,0-.41.1l-.23,5.43-.78,0,.26-5.91a5.89,5.89,0,0,1,.83-.24A5.12,5.12,0,0,1,70.11,119.79Z"/><path class="cls-5" d="M71.86,123.08a4,4,0,0,1,.29-1.41,3,3,0,0,1,.66-1,2.42,2.42,0,0,1,.89-.57,2.48,2.48,0,0,1,1-.15,2.3,2.3,0,0,1,1.78.82,3.34,3.34,0,0,1,.58,2.32c0,.06,0,.13,0,.19a1.1,1.1,0,0,1,0,.18l-4.35-.19a2.74,2.74,0,0,0,.48,1.77,2.12,2.12,0,0,0,1.65.69,3.33,3.33,0,0,0,1-.08,4.13,4.13,0,0,0,.54-.18l.12.68a3.05,3.05,0,0,1-.64.2,4.07,4.07,0,0,1-1.09.08,3.51,3.51,0,0,1-1.38-.3,2.42,2.42,0,0,1-.92-.71,2.68,2.68,0,0,1-.49-1A4.25,4.25,0,0,1,71.86,123.08Zm4.42-.29a2.53,2.53,0,0,0-.39-1.54,1.48,1.48,0,0,0-1.2-.59,1.59,1.59,0,0,0-.76.14,1.87,1.87,0,0,0-.59.42,2,2,0,0,0-.42.64,2.8,2.8,0,0,0-.19.77Z"/><path class="cls-5" d="M80,126a2.34,2.34,0,0,0,1.11-.18.76.76,0,0,0,.47-.73,1.13,1.13,0,0,0-.05-.43,1,1,0,0,0-.25-.34,1.92,1.92,0,0,0-.46-.29l-.71-.35c-.23-.1-.44-.21-.65-.32a2.62,2.62,0,0,1-.53-.37,1.48,1.48,0,0,1-.37-.49,1.57,1.57,0,0,1-.11-.68,1.52,1.52,0,0,1,.62-1.2,2.48,2.48,0,0,1,1.59-.4,4,4,0,0,1,1,.16,2.5,2.5,0,0,1,.57.22l-.21.68-.47-.21a3,3,0,0,0-1-.16,2,2,0,0,0-.5,0,1.3,1.3,0,0,0-.42.15,1,1,0,0,0-.3.27.83.83,0,0,0-.13.42,1,1,0,0,0,.08.44.86.86,0,0,0,.27.33,2.57,2.57,0,0,0,.44.28l.61.29.67.32a2.39,2.39,0,0,1,.57.39,1.69,1.69,0,0,1,.39.52,1.67,1.67,0,0,1,.12.74,1.43,1.43,0,0,1-.69,1.25,3,3,0,0,1-1.73.35,4.29,4.29,0,0,1-1.24-.19,4.15,4.15,0,0,1-.57-.23l.23-.7.16.08.31.14.48.13A4,4,0,0,0,80,126Z"/><path class="cls-5" d="M86.08,120.46a2.75,2.75,0,0,1,1,.22,1.84,1.84,0,0,1,.67.51,1.88,1.88,0,0,1,.35.74,3.07,3.07,0,0,1,.08.92L88,126.76l-.35.06-.53.07-.67,0c-.24,0-.49,0-.75,0a3.54,3.54,0,0,1-.9-.14,2,2,0,0,1-.7-.38,1.6,1.6,0,0,1-.46-.62,2.09,2.09,0,0,1-.13-.9,1.73,1.73,0,0,1,.23-.85,1.53,1.53,0,0,1,.56-.57,2.4,2.4,0,0,1,.84-.31,4.5,4.5,0,0,1,1-.06l.36,0,.35.07.3.07.17.06,0-.38a4.33,4.33,0,0,0,0-.63,1.43,1.43,0,0,0-.19-.56,1.12,1.12,0,0,0-.44-.42,1.61,1.61,0,0,0-.76-.18,3.81,3.81,0,0,0-1,0l-.49.13-.08-.69a4.21,4.21,0,0,1,.63-.15A6.5,6.5,0,0,1,86.08,120.46Zm-.18,5.78a7.32,7.32,0,0,0,.8,0l.59,0,.09-2.19a2.66,2.66,0,0,0-.41-.14,3.56,3.56,0,0,0-.79-.1,4.1,4.1,0,0,0-.6,0,1.9,1.9,0,0,0-.59.15,1,1,0,0,0-.44.36,1,1,0,0,0-.2.63,1.33,1.33,0,0,0,.09.59.94.94,0,0,0,.31.4,1.39,1.39,0,0,0,.49.23A3.1,3.1,0,0,0,85.9,126.24Z"/><path class="cls-5" d="M92.36,120.76a4.16,4.16,0,0,1,.73.09,2.81,2.81,0,0,1,.47.14l-.19.67a1.28,1.28,0,0,0-.39-.12,3.61,3.61,0,0,0-.77-.09,3.89,3.89,0,0,0-.81,0,2.67,2.67,0,0,0-.41.1L90.76,127,90,127l.26-5.91a5.7,5.7,0,0,1,.84-.24A5.51,5.51,0,0,1,92.36,120.76Z"/><path class="cls-5" d="M95.92,126.69a2.5,2.5,0,0,0,1.12-.17.76.76,0,0,0,.47-.73,1,1,0,0,0-.06-.43.71.71,0,0,0-.24-.34,2.29,2.29,0,0,0-.46-.3l-.71-.34c-.23-.1-.45-.21-.65-.32a3.66,3.66,0,0,1-.54-.37,1.72,1.72,0,0,1-.36-.49,1.46,1.46,0,0,1-.11-.68,1.51,1.51,0,0,1,.62-1.2,2.41,2.41,0,0,1,1.58-.4,4.54,4.54,0,0,1,1,.15,4,4,0,0,1,.57.22L98,122l-.47-.21a3.24,3.24,0,0,0-1-.17,2.67,2.67,0,0,0-.5,0,1,1,0,0,0-.42.15.87.87,0,0,0-.3.27.8.8,0,0,0-.13.42.87.87,0,0,0,.08.44,1,1,0,0,0,.27.33,2.23,2.23,0,0,0,.44.28l.61.29.67.32a2.39,2.39,0,0,1,.57.39,1.43,1.43,0,0,1,.38.52,1.51,1.51,0,0,1,.13.74,1.44,1.44,0,0,1-.69,1.24,3,3,0,0,1-1.74.36,4.42,4.42,0,0,1-1.24-.19,5.91,5.91,0,0,1-.56-.24l.23-.7.15.09.32.13a4,4,0,0,0,.48.14A4,4,0,0,0,95.92,126.69Z"/><path class="cls-5" d="M99.55,124.29a4,4,0,0,1,.29-1.41,3.37,3.37,0,0,1,.66-1,2.42,2.42,0,0,1,.89-.57,2.51,2.51,0,0,1,1-.15,2.3,2.3,0,0,1,1.78.82,3.29,3.29,0,0,1,.58,2.32c0,.06,0,.12,0,.19l0,.18-4.35-.19a2.68,2.68,0,0,0,.49,1.77,2.09,2.09,0,0,0,1.65.69,3.29,3.29,0,0,0,1-.08,5.07,5.07,0,0,0,.55-.18l.11.68a3.52,3.52,0,0,1-.64.2,4.07,4.07,0,0,1-1.09.08,3.51,3.51,0,0,1-1.38-.3,2.5,2.5,0,0,1-.92-.71,2.68,2.68,0,0,1-.49-1.05A4.58,4.58,0,0,1,99.55,124.29ZM104,124a2.52,2.52,0,0,0-.39-1.53,1.47,1.47,0,0,0-1.2-.59,1.59,1.59,0,0,0-.76.14,1.87,1.87,0,0,0-.59.42,2,2,0,0,0-.41.64,2.5,2.5,0,0,0-.2.77Z"/><path class="cls-5" d="M111.25,121.56a2.8,2.8,0,0,1,1,.22,1.8,1.8,0,0,1,.66.51,1.89,1.89,0,0,1,.36.74,3.89,3.89,0,0,1,.08.92l-.17,3.91-.36.06-.53.07a6.53,6.53,0,0,1-.67,0h-.75a3.68,3.68,0,0,1-.9-.14,2.06,2.06,0,0,1-.7-.38,1.49,1.49,0,0,1-.45-.62,2.08,2.08,0,0,1-.14-.9,1.81,1.81,0,0,1,.23-.85,1.56,1.56,0,0,1,.57-.57,2.33,2.33,0,0,1,.84-.31,4.44,4.44,0,0,1,1.05-.06l.35,0,.36.06.29.08a.74.74,0,0,1,.18.06v-.38a4.52,4.52,0,0,0,0-.64,1.37,1.37,0,0,0-.18-.56,1.34,1.34,0,0,0-.44-.41,1.77,1.77,0,0,0-.77-.19,3.61,3.61,0,0,0-1,.06,3.73,3.73,0,0,0-.5.13l-.08-.69a3.2,3.2,0,0,1,.64-.15A5.45,5.45,0,0,1,111.25,121.56Zm-.18,5.78a7.14,7.14,0,0,0,.79,0,4.32,4.32,0,0,0,.59-.06l.1-2.18a2.87,2.87,0,0,0-.42-.14,3.56,3.56,0,0,0-.79-.1c-.19,0-.39,0-.6,0a1.85,1.85,0,0,0-.58.16,1.07,1.07,0,0,0-.65,1,1.33,1.33,0,0,0,.09.59,1,1,0,0,0,.31.4,1.71,1.71,0,0,0,.49.23A3.29,3.29,0,0,0,111.07,127.34Z"/><path class="cls-5" d="M118.93,122l2.46.11,0,.66-2.47-.11-.15,3.3a3.64,3.64,0,0,0,0,.86,1.32,1.32,0,0,0,.24.52.9.9,0,0,0,.4.26,2.7,2.7,0,0,0,.52.08,2.32,2.32,0,0,0,.8-.08,4.36,4.36,0,0,0,.48-.19l.16.66a3.63,3.63,0,0,1-.6.22,2.75,2.75,0,0,1-.92.09,2.64,2.64,0,0,1-1-.19,1.43,1.43,0,0,1-.6-.48A1.81,1.81,0,0,1,118,127a4.55,4.55,0,0,1,0-1.08l.25-5.71.78-.11Z"/><path class="cls-5" d="M125,122.19a3.93,3.93,0,0,1,.72.09,2.53,2.53,0,0,1,.47.14l-.18.66-.39-.12a4.56,4.56,0,0,0-.77-.08,3.32,3.32,0,0,0-.81,0,2.13,2.13,0,0,0-.41.11l-.24,5.43-.78,0,.26-5.91a6.75,6.75,0,0,1,.84-.23A4.7,4.7,0,0,1,125,122.19Z"/><path class="cls-5" d="M129.24,122.35a2.57,2.57,0,0,1,1,.22,1.71,1.71,0,0,1,.67.5,1.92,1.92,0,0,1,.35.75,3,3,0,0,1,.08.91l-.17,3.91-.35.06c-.15,0-.33.05-.53.07a6.56,6.56,0,0,1-.67,0c-.24,0-.5,0-.75,0a4,4,0,0,1-.9-.15,2.09,2.09,0,0,1-.71-.37,1.77,1.77,0,0,1-.45-.62,2.09,2.09,0,0,1-.13-.9,1.77,1.77,0,0,1,.23-.86,1.61,1.61,0,0,1,.56-.57,2.39,2.39,0,0,1,.84-.3,5,5,0,0,1,1-.07l.35,0a3.37,3.37,0,0,1,.36.06l.3.07.17.07,0-.39a4.42,4.42,0,0,0,0-.63,1.49,1.49,0,0,0-.19-.56,1.19,1.19,0,0,0-.44-.42,1.78,1.78,0,0,0-.77-.18,4.22,4.22,0,0,0-1,0l-.5.14-.07-.69a2.52,2.52,0,0,1,.63-.15A4.76,4.76,0,0,1,129.24,122.35Zm-.18,5.78h.8a4.33,4.33,0,0,0,.58,0l.1-2.18-.41-.15a4.4,4.4,0,0,0-.79-.1c-.19,0-.39,0-.6,0a1.9,1.9,0,0,0-.59.15,1.33,1.33,0,0,0-.45.36,1.18,1.18,0,0,0-.19.63,1.33,1.33,0,0,0,.09.59.94.94,0,0,0,.3.4,1.53,1.53,0,0,0,.5.23A2.54,2.54,0,0,0,129.06,128.13Z"/><path class="cls-5" d="M135,128.11c.18-.33.37-.72.57-1.16s.38-.88.57-1.35.36-.95.52-1.42.3-.93.41-1.35l.78,0c-.17.56-.35,1.11-.55,1.65s-.42,1.08-.64,1.6-.44,1-.68,1.49-.46.93-.68,1.35l-.73,0c-.19-.44-.38-.91-.56-1.4s-.37-1-.55-1.55-.33-1.09-.49-1.65-.29-1.12-.41-1.69l.83,0q.12.64.3,1.38c.12.49.25,1,.39,1.46s.29.95.45,1.4S134.82,127.76,135,128.11Z"/><path class="cls-5" d="M138.5,126a4,4,0,0,1,.29-1.41,3.37,3.37,0,0,1,.66-1,2.42,2.42,0,0,1,.89-.57,2.51,2.51,0,0,1,1-.15,2.3,2.3,0,0,1,1.78.82,3.29,3.29,0,0,1,.58,2.32c0,.06,0,.13,0,.19l0,.18-4.35-.19a2.68,2.68,0,0,0,.49,1.77,2.09,2.09,0,0,0,1.65.69,3.29,3.29,0,0,0,1-.08,5.07,5.07,0,0,0,.55-.18l.11.68a2.86,2.86,0,0,1-.64.2,4.07,4.07,0,0,1-1.09.08,3.51,3.51,0,0,1-1.38-.3,2.5,2.5,0,0,1-.92-.71,2.68,2.68,0,0,1-.49-1A4.58,4.58,0,0,1,138.5,126Zm4.42-.3a2.52,2.52,0,0,0-.39-1.53,1.47,1.47,0,0,0-1.2-.59,1.59,1.59,0,0,0-.76.14,1.87,1.87,0,0,0-.59.42,2,2,0,0,0-.41.64,2.5,2.5,0,0,0-.2.77Zm.17-5.06L141,122.21l-.38-.47,2-1.74Z"/><path class="cls-5" d="M146.6,128.91a2.38,2.38,0,0,0,1.12-.18.76.76,0,0,0,.47-.73.9.9,0,0,0-.3-.77,2,2,0,0,0-.47-.29l-.71-.35-.64-.32a2.44,2.44,0,0,1-.54-.37,1.43,1.43,0,0,1-.48-1.17,1.51,1.51,0,0,1,.63-1.2,2.47,2.47,0,0,1,1.58-.4,4,4,0,0,1,1,.16,3.12,3.12,0,0,1,.58.21l-.21.69-.48-.21a3,3,0,0,0-1-.16,2.07,2.07,0,0,0-.5,0,1.5,1.5,0,0,0-.42.15,1,1,0,0,0-.3.27.83.83,0,0,0-.12.42,1,1,0,0,0,.07.44.86.86,0,0,0,.27.33,2.33,2.33,0,0,0,.45.28l.6.29.68.32a2.54,2.54,0,0,1,.56.39A1.46,1.46,0,0,1,149,128a1.42,1.42,0,0,1-.68,1.24,2.93,2.93,0,0,1-1.74.36,4.36,4.36,0,0,1-1.24-.19,3.28,3.28,0,0,1-.57-.24l.24-.69.15.08a1.74,1.74,0,0,0,.32.13,3.14,3.14,0,0,0,.48.14A3.72,3.72,0,0,0,146.6,128.91Z"/><path class="cls-5" d="M158.1,129.77a7.4,7.4,0,0,1-.89.19,7.19,7.19,0,0,1-1.37,0,3.27,3.27,0,0,1-1.24-.28,2.73,2.73,0,0,1-.93-.68,3,3,0,0,1-.58-1.05,3.91,3.91,0,0,1-.16-1.36,4.36,4.36,0,0,1,.24-1.3,3,3,0,0,1,.6-1,2.56,2.56,0,0,1,.91-.63,2.86,2.86,0,0,1,1.2-.19,2.91,2.91,0,0,1,1.05.22,2.67,2.67,0,0,1,.64.36l.15-3.33.78-.11Zm-.56-4.91-.26-.2c-.11-.06-.23-.13-.37-.19a2.16,2.16,0,0,0-.47-.16,2.83,2.83,0,0,0-.52-.08,2.2,2.2,0,0,0-1,.16,1.8,1.8,0,0,0-.66.52,2.42,2.42,0,0,0-.38.79,3.78,3.78,0,0,0-.15,1,2.64,2.64,0,0,0,.53,1.91,2.13,2.13,0,0,0,1.59.72,6.87,6.87,0,0,0,.93,0l.54-.09Z"/><path class="cls-5" d="M159.9,126.93a3.87,3.87,0,0,1,.29-1.41,3.29,3.29,0,0,1,.66-1,2.42,2.42,0,0,1,.89-.57,2.91,2.91,0,0,1,1-.15,2.34,2.34,0,0,1,1.78.82,3.3,3.3,0,0,1,.58,2.32c0,.07,0,.13,0,.19s0,.13,0,.18l-4.35-.19a2.73,2.73,0,0,0,.49,1.78,2.09,2.09,0,0,0,1.65.68,3.69,3.69,0,0,0,1-.07,5.07,5.07,0,0,0,.55-.18l.11.67a2.86,2.86,0,0,1-.64.2,4.24,4.24,0,0,1-2.47-.21,2.64,2.64,0,0,1-.92-.71,2.68,2.68,0,0,1-.49-1A4.61,4.61,0,0,1,159.9,126.93Zm4.42-.3a2.48,2.48,0,0,0-.39-1.53,1.47,1.47,0,0,0-1.2-.59,1.59,1.59,0,0,0-.76.13,1.91,1.91,0,0,0-.59.43,2.08,2.08,0,0,0-.41.63,2.57,2.57,0,0,0-.2.77Z"/><path class="cls-5" d="M23.71,132.18a4.16,4.16,0,0,1,.73.09,2.81,2.81,0,0,1,.47.14l-.19.66a1.81,1.81,0,0,0-.39-.11,3.61,3.61,0,0,0-.77-.09,3.37,3.37,0,0,0-.81,0,2.38,2.38,0,0,0-.41.11l-.23,5.43-.78,0,.26-5.91a5.89,5.89,0,0,1,.84-.23A5,5,0,0,1,23.71,132.18Z"/><path class="cls-5" d="M25.46,135.47a4,4,0,0,1,.29-1.41,3,3,0,0,1,.66-1,2.42,2.42,0,0,1,.89-.57,2.48,2.48,0,0,1,1-.15,2.3,2.3,0,0,1,1.78.82,3.34,3.34,0,0,1,.58,2.32c0,.06,0,.12,0,.19a1.1,1.1,0,0,1,0,.18l-4.35-.19a2.74,2.74,0,0,0,.48,1.77,2.16,2.16,0,0,0,1.65.69,3.68,3.68,0,0,0,1-.08,5.07,5.07,0,0,0,.55-.18l.11.68a3.52,3.52,0,0,1-.64.2,4.1,4.1,0,0,1-1.09.08,3.51,3.51,0,0,1-1.38-.3,2.42,2.42,0,0,1-.92-.71,2.68,2.68,0,0,1-.49-1.05A4.61,4.61,0,0,1,25.46,135.47Zm4.42-.3a2.52,2.52,0,0,0-.39-1.53,1.47,1.47,0,0,0-1.2-.59,1.59,1.59,0,0,0-.76.14,1.87,1.87,0,0,0-.59.42,2,2,0,0,0-.42.64,2.8,2.8,0,0,0-.19.77Z"/><path class="cls-5" d="M34.81,139.12a3.24,3.24,0,0,1-1.26-.28,2.45,2.45,0,0,1-.89-.69,3,3,0,0,1-.51-1,4.39,4.39,0,0,1-.14-1.33,4.24,4.24,0,0,1,.26-1.32,3.1,3.1,0,0,1,.61-1,2.58,2.58,0,0,1,.93-.62,2.91,2.91,0,0,1,1.2-.18,4.64,4.64,0,0,1,.94.12,2.22,2.22,0,0,1,.66.25l-.23.66a2.56,2.56,0,0,0-.53-.22,3.84,3.84,0,0,0-.8-.1,1.87,1.87,0,0,0-1.59.6,2.85,2.85,0,0,0-.62,1.86,4.16,4.16,0,0,0,.07,1,2.14,2.14,0,0,0,.36.81,1.8,1.8,0,0,0,.67.54,2.57,2.57,0,0,0,1,.23,2.73,2.73,0,0,0,.85-.07,4.5,4.5,0,0,0,.51-.18l.14.68a3.11,3.11,0,0,1-.69.2A3.9,3.9,0,0,1,34.81,139.12Z"/><path class="cls-5" d="M42.53,139.11c-.23.06-.55.12-.94.18a8,8,0,0,1-1.45.06,2.91,2.91,0,0,1-1.15-.26,1.9,1.9,0,0,1-.73-.61,2.19,2.19,0,0,1-.37-.91,4.89,4.89,0,0,1-.08-1.17l.15-3.48.78,0-.14,3.23a5.51,5.51,0,0,0,0,1.12,1.71,1.71,0,0,0,.28.75,1.16,1.16,0,0,0,.54.43,2.4,2.4,0,0,0,.83.16,5.94,5.94,0,0,0,1,0,2.22,2.22,0,0,0,.52-.08L42,133.1l.77,0Z"/><path class="cls-5" d="M46.9,133.19a3.93,3.93,0,0,1,.72.09,2.53,2.53,0,0,1,.47.14l-.18.67a1.51,1.51,0,0,0-.39-.12,3.61,3.61,0,0,0-.77-.09,3.81,3.81,0,0,0-.81,0,2.38,2.38,0,0,0-.41.1l-.24,5.43-.78,0,.26-5.91a6.09,6.09,0,0,1,.84-.24A5.12,5.12,0,0,1,46.9,133.19Z"/><path class="cls-5" d="M50.46,139.12a2.52,2.52,0,0,0,1.12-.17.77.77,0,0,0,.47-.73,1,1,0,0,0-.06-.44.93.93,0,0,0-.24-.33,2.4,2.4,0,0,0-.47-.3l-.71-.34-.64-.32a2.84,2.84,0,0,1-.54-.37,1.72,1.72,0,0,1-.36-.49,1.45,1.45,0,0,1-.12-.68,1.48,1.48,0,0,1,.63-1.2,2.35,2.35,0,0,1,1.58-.4,4.52,4.52,0,0,1,1,.15,3.82,3.82,0,0,1,.58.22l-.21.69-.48-.21a3.19,3.19,0,0,0-1-.17,2.07,2.07,0,0,0-.5,0,1.23,1.23,0,0,0-.42.14,1.15,1.15,0,0,0-.3.28.77.77,0,0,0-.12.42,1,1,0,0,0,.07.44,1,1,0,0,0,.27.33,2.33,2.33,0,0,0,.45.28l.6.29c.24.1.46.21.68.32a2.89,2.89,0,0,1,.56.38,1.65,1.65,0,0,1,.39.52,1.47,1.47,0,0,1,.12.75,1.43,1.43,0,0,1-.68,1.24,3,3,0,0,1-1.74.36,4.75,4.75,0,0,1-1.24-.19l-.57-.24.24-.7.15.09.32.13a3.14,3.14,0,0,0,.48.14A3.92,3.92,0,0,0,50.46,139.12Z"/><path class="cls-5" d="M59.74,137a3.87,3.87,0,0,1-.27,1.32,2.76,2.76,0,0,1-.63,1,2.6,2.6,0,0,1-.92.61,2.87,2.87,0,0,1-1.15.19,2.82,2.82,0,0,1-1.13-.29,2.73,2.73,0,0,1-.86-.69,2.94,2.94,0,0,1-.54-1,3.92,3.92,0,0,1-.16-1.35,4,4,0,0,1,.27-1.32,3.28,3.28,0,0,1,.63-1,2.91,2.91,0,0,1,.93-.62,2.68,2.68,0,0,1,1.14-.18,2.73,2.73,0,0,1,1.13.28,2.69,2.69,0,0,1,.87.7,3.08,3.08,0,0,1,.54,1A4.12,4.12,0,0,1,59.74,137Zm-.82,0a3,3,0,0,0-.46-1.88,1.74,1.74,0,0,0-1.44-.75,1.76,1.76,0,0,0-1.49.62,3.44,3.44,0,0,0-.16,3.7,1.91,1.91,0,0,0,2.93.13A3,3,0,0,0,58.92,137Z"/><path class="cls-5" d="M62.58,139.65a2.52,2.52,0,0,0,1.12-.17.78.78,0,0,0,.47-.73,1,1,0,0,0-.06-.44.93.93,0,0,0-.24-.33,2.62,2.62,0,0,0-.46-.3l-.72-.34-.64-.32a2.84,2.84,0,0,1-.54-.37,1.64,1.64,0,0,1-.36-.5,1.39,1.39,0,0,1-.12-.67,1.5,1.5,0,0,1,.63-1.2,2.35,2.35,0,0,1,1.58-.4,4.71,4.71,0,0,1,1.05.15,4,4,0,0,1,.57.22l-.21.69-.48-.21a2.92,2.92,0,0,0-1-.17,2.74,2.74,0,0,0-.5,0,1.5,1.5,0,0,0-.42.15,1.15,1.15,0,0,0-.3.28.77.77,0,0,0-.12.42,1,1,0,0,0,.07.44,1,1,0,0,0,.27.33,2.33,2.33,0,0,0,.45.28l.6.29c.24.1.46.21.68.32a2.89,2.89,0,0,1,.56.38,1.65,1.65,0,0,1,.39.52,1.45,1.45,0,0,1,.12.75,1.43,1.43,0,0,1-.68,1.24,3,3,0,0,1-1.74.36,4.3,4.3,0,0,1-1.24-.2,5.7,5.7,0,0,1-.57-.23l.24-.7.15.09.32.13a3.14,3.14,0,0,0,.48.14A5.4,5.4,0,0,0,62.58,139.65Z"/><path class="cls-5" d="M71.06,139.73a12.34,12.34,0,0,0,.57-1.15c.2-.44.39-.89.57-1.36s.36-.94.52-1.42.3-.93.42-1.34l.78,0c-.17.56-.36,1.11-.56,1.66s-.41,1.07-.63,1.59-.45,1-.68,1.5-.46.93-.68,1.35l-.73,0q-.28-.66-.57-1.41c-.19-.5-.37-1-.54-1.55s-.34-1.08-.49-1.64-.29-1.13-.41-1.7l.83,0c.07.42.17.88.29,1.37s.25,1,.4,1.46.29,1,.45,1.4S70.91,139.38,71.06,139.73Z"/><path class="cls-5" d="M75.72,140.78l-.78,0,.27-6.19.78,0Zm.53-8.06a.6.6,0,0,1-.19.43.54.54,0,0,1-.41.14.52.52,0,0,1-.4-.18.55.55,0,0,1-.15-.44.56.56,0,0,1,.19-.43.55.55,0,0,1,.41-.15.57.57,0,0,1,.55.63Z"/><path class="cls-5" d="M79,140.37a2.38,2.38,0,0,0,1.12-.18.75.75,0,0,0,.47-.73,1,1,0,0,0-.06-.43.93.93,0,0,0-.24-.34,2.63,2.63,0,0,0-.46-.29l-.72-.34-.64-.33a3,3,0,0,1-.54-.37,1.6,1.6,0,0,1-.36-.49,1.32,1.32,0,0,1-.11-.68,1.46,1.46,0,0,1,.62-1.19,2.35,2.35,0,0,1,1.58-.4,4.12,4.12,0,0,1,1,.15,3.08,3.08,0,0,1,.57.22l-.21.68a4.5,4.5,0,0,0-.48-.21,3.16,3.16,0,0,0-1-.16,2,2,0,0,0-.5,0,1.3,1.3,0,0,0-.42.15.74.74,0,0,0-.3.28.77.77,0,0,0-.13.42.83.83,0,0,0,.08.43.84.84,0,0,0,.26.34,3,3,0,0,0,.45.27l.6.29.68.33a2.27,2.27,0,0,1,.57.38,1.62,1.62,0,0,1,.38.52,1.53,1.53,0,0,1,.13.74,1.48,1.48,0,0,1-.69,1.25,2.93,2.93,0,0,1-1.74.35,4.08,4.08,0,0,1-1.24-.19,5.7,5.7,0,0,1-.57-.23l.24-.7.15.08.32.14a3.24,3.24,0,0,0,.48.13A4,4,0,0,0,79,140.37Z"/><path class="cls-5" d="M87.51,141.08c-.23,0-.55.11-.94.17a7.14,7.14,0,0,1-1.44.06,2.92,2.92,0,0,1-1.16-.26,1.88,1.88,0,0,1-.73-.6,2.44,2.44,0,0,1-.37-.92,4.89,4.89,0,0,1-.08-1.17l.15-3.48.78,0-.14,3.22a5.47,5.47,0,0,0,0,1.12,1.71,1.71,0,0,0,.28.75,1.1,1.1,0,0,0,.54.43,2.39,2.39,0,0,0,.83.17,7.36,7.36,0,0,0,1,0,2.67,2.67,0,0,0,.52-.09l.24-5.44.77,0Z"/><path class="cls-5" d="M91.64,135.12a2.75,2.75,0,0,1,1,.22,1.84,1.84,0,0,1,.67.51,1.88,1.88,0,0,1,.35.74,3,3,0,0,1,.08.92l-.17,3.91-.35.06-.53.07-.67,0H91.3a3.14,3.14,0,0,1-.9-.15,2.09,2.09,0,0,1-.71-.37,1.68,1.68,0,0,1-.45-.62,2,2,0,0,1-.13-.9,1.88,1.88,0,0,1,.22-.86,1.73,1.73,0,0,1,.57-.57,2.61,2.61,0,0,1,.84-.3,4.47,4.47,0,0,1,1.05-.06l.35,0,.36.06.3.08L93,138l0-.38a4.52,4.52,0,0,0,0-.64,1.55,1.55,0,0,0-.19-.56,1.16,1.16,0,0,0-.44-.41,1.77,1.77,0,0,0-.77-.19,4.22,4.22,0,0,0-1,.05l-.5.14-.07-.69a2.52,2.52,0,0,1,.63-.15A4.76,4.76,0,0,1,91.64,135.12Zm-.18,5.78c.3,0,.57,0,.8,0a4.16,4.16,0,0,0,.58-.06l.1-2.18a2.66,2.66,0,0,0-.41-.14,3.64,3.64,0,0,0-.79-.1,4,4,0,0,0-.6,0,1.67,1.67,0,0,0-.59.16,1,1,0,0,0-.64,1,1.36,1.36,0,0,0,.09.59,1,1,0,0,0,.3.39,1.45,1.45,0,0,0,.5.24A3.1,3.1,0,0,0,91.46,140.9Z"/><path class="cls-5" d="M97.09,141.82a2.57,2.57,0,0,1-.68-.13,1.16,1.16,0,0,1-.48-.3,1.13,1.13,0,0,1-.28-.49,2.09,2.09,0,0,1-.07-.74l.33-7.68.79-.11-.34,7.8a1.58,1.58,0,0,0,0,.46.58.58,0,0,0,.15.28.59.59,0,0,0,.28.16,2.64,2.64,0,0,0,.41.11Z"/><path class="cls-5" d="M98.23,138.65a4,4,0,0,1,.29-1.41,3,3,0,0,1,.66-1,2.27,2.27,0,0,1,.89-.56,2.67,2.67,0,0,1,1-.16,2.39,2.39,0,0,1,1.78.82,3.35,3.35,0,0,1,.58,2.32c0,.07,0,.13,0,.19a.9.9,0,0,1,0,.18L99,138.85a2.83,2.83,0,0,0,.49,1.78,2.12,2.12,0,0,0,1.65.68,3.41,3.41,0,0,0,1-.07,4.13,4.13,0,0,0,.54-.18l.12.68a5.11,5.11,0,0,1-.64.2,4.1,4.1,0,0,1-1.09.08,3.51,3.51,0,0,1-1.38-.3,2.64,2.64,0,0,1-.92-.71,2.68,2.68,0,0,1-.49-1A4.61,4.61,0,0,1,98.23,138.65Zm4.42-.3a2.48,2.48,0,0,0-.39-1.53,1.5,1.5,0,0,0-1.2-.59,1.59,1.59,0,0,0-.76.13,1.91,1.91,0,0,0-.59.43,2.1,2.1,0,0,0-.42.63,3,3,0,0,0-.19.78Z"/><path class="cls-5" d="M106.33,141.56a2.47,2.47,0,0,0,1.11-.17.77.77,0,0,0,.47-.73,1.21,1.21,0,0,0,0-.44.85.85,0,0,0-.25-.33,2.29,2.29,0,0,0-.46-.3l-.71-.34-.65-.32a2.66,2.66,0,0,1-.53-.38,1.38,1.38,0,0,1-.37-.49,1.52,1.52,0,0,1-.11-.67,1.5,1.5,0,0,1,.62-1.2,2.36,2.36,0,0,1,1.59-.4,4.52,4.52,0,0,1,1,.15,4,4,0,0,1,.57.22l-.21.69a4.58,4.58,0,0,0-.47-.22,3.29,3.29,0,0,0-1-.16,2,2,0,0,0-.5,0,1.3,1.3,0,0,0-.42.15,1,1,0,0,0-.3.28.77.77,0,0,0-.13.42,1,1,0,0,0,.08.44,1,1,0,0,0,.27.33,2.57,2.57,0,0,0,.44.28l.61.29.67.32a2.69,2.69,0,0,1,.57.38,1.82,1.82,0,0,1,.39.52,1.69,1.69,0,0,1,.12.75,1.42,1.42,0,0,1-.69,1.24,3,3,0,0,1-1.73.36,4.84,4.84,0,0,1-1.25-.19,5.91,5.91,0,0,1-.56-.24l.23-.7.16.09a2.65,2.65,0,0,0,.31.13l.48.14A4.05,4.05,0,0,0,106.33,141.56Z"/><path class="cls-5" d="M111.46,141.82a.67.67,0,0,1-.2.46.62.62,0,0,1-.49.17.64.64,0,0,1-.48-.21.66.66,0,0,1,.53-1.11.61.61,0,0,1,.48.22A.71.71,0,0,1,111.46,141.82Z"/></svg>