<svg id="Capa_1" data-name="Capa 1" xmlns="http://www.w3.org/2000/svg" viewBox="0 0 227.77 227.77"><defs><style>.cls-1{fill:none;stroke:#aec90b;stroke-miterlimit:10;}</style></defs><title>cuadricula</title><line class="cls-1" y1="0.5" x2="23.18" y2="0.5"/><line class="cls-1" x1="0.5" y1="22.68" x2="0.5" y2="1"/><line class="cls-1" x1="23.18" y1="0.5" x2="45.85" y2="0.5"/><line class="cls-1" x1="23.18" y1="22.68" x2="23.18" y2="1"/><line class="cls-1" x1="45.85" y1="0.5" x2="68.53" y2="0.5"/><line class="cls-1" x1="45.85" y1="22.68" x2="45.85" y2="1"/><line class="cls-1" x1="68.53" y1="0.5" x2="91.21" y2="0.5"/><line class="cls-1" x1="68.53" y1="22.68" x2="68.53" y2="1"/><line class="cls-1" x1="91.21" y1="0.5" x2="113.89" y2="0.5"/><line class="cls-1" x1="91.21" y1="22.68" x2="91.21" y2="1"/><line class="cls-1" x1="113.89" y1="0.5" x2="136.56" y2="0.5"/><line class="cls-1" x1="113.89" y1="22.68" x2="113.89" y2="1"/><line class="cls-1" x1="136.56" y1="0.5" x2="159.24" y2="0.5"/><line class="cls-1" x1="136.56" y1="22.68" x2="136.56" y2="1"/><line class="cls-1" x1="159.24" y1="0.5" x2="181.92" y2="0.5"/><line class="cls-1" x1="159.24" y1="22.68" x2="159.24" y2="1"/><line class="cls-1" x1="181.92" y1="0.5" x2="204.59" y2="0.5"/><line class="cls-1" x1="181.92" y1="22.68" x2="181.92" y2="1"/><line class="cls-1" x1="204.59" y1="0.5" x2="227.77" y2="0.5"/><line class="cls-1" x1="204.59" y1="22.68" x2="204.59" y2="1"/><line class="cls-1" x1="227.27" y1="22.68" x2="227.27" y2="1"/><line class="cls-1" y1="23.18" x2="23.18" y2="23.18"/><line class="cls-1" x1="0.5" y1="45.35" x2="0.5" y2="23.68"/><line class="cls-1" x1="23.18" y1="23.18" x2="45.85" y2="23.18"/><line class="cls-1" x1="23.18" y1="45.35" x2="23.18" y2="23.68"/><line class="cls-1" x1="45.85" y1="23.18" x2="68.53" y2="23.18"/><line class="cls-1" x1="45.85" y1="45.35" x2="45.85" y2="23.68"/><line class="cls-1" x1="68.53" y1="23.18" x2="91.21" y2="23.18"/><line class="cls-1" x1="68.53" y1="45.35" x2="68.53" y2="23.68"/><line class="cls-1" x1="91.21" y1="23.18" x2="113.89" y2="23.18"/><line class="cls-1" x1="91.21" y1="45.35" x2="91.21" y2="23.68"/><line class="cls-1" x1="113.89" y1="23.18" x2="136.56" y2="23.18"/><line class="cls-1" x1="113.89" y1="45.35" x2="113.89" y2="23.68"/><line class="cls-1" x1="136.56" y1="23.18" x2="159.24" y2="23.18"/><line class="cls-1" x1="136.56" y1="45.35" x2="136.56" y2="23.68"/><line class="cls-1" x1="159.24" y1="23.18" x2="181.92" y2="23.18"/><line class="cls-1" x1="159.24" y1="45.35" x2="159.24" y2="23.68"/><line class="cls-1" x1="181.92" y1="23.18" x2="204.59" y2="23.18"/><line class="cls-1" x1="181.92" y1="45.35" x2="181.92" y2="23.68"/><line class="cls-1" x1="204.59" y1="23.18" x2="227.77" y2="23.18"/><line class="cls-1" x1="204.59" y1="45.35" x2="204.59" y2="23.68"/><line class="cls-1" x1="227.27" y1="45.35" x2="227.27" y2="23.68"/><line class="cls-1" y1="45.85" x2="23.18" y2="45.85"/><line class="cls-1" x1="0.5" y1="68.03" x2="0.5" y2="46.35"/><line class="cls-1" x1="23.18" y1="45.85" x2="45.85" y2="45.85"/><line class="cls-1" x1="23.18" y1="68.03" x2="23.18" y2="46.35"/><line class="cls-1" x1="45.85" y1="45.85" x2="68.53" y2="45.85"/><line class="cls-1" x1="45.85" y1="68.03" x2="45.85" y2="46.35"/><line class="cls-1" x1="68.53" y1="45.85" x2="91.21" y2="45.85"/><line class="cls-1" x1="68.53" y1="68.03" x2="68.53" y2="46.35"/><line class="cls-1" x1="91.21" y1="45.85" x2="113.89" y2="45.85"/><line class="cls-1" x1="91.21" y1="68.03" x2="91.21" y2="46.35"/><line class="cls-1" x1="113.89" y1="45.85" x2="136.56" y2="45.85"/><line class="cls-1" x1="113.89" y1="68.03" x2="113.89" y2="46.35"/><line class="cls-1" x1="136.56" y1="45.85" x2="159.24" y2="45.85"/><line class="cls-1" x1="136.56" y1="68.03" x2="136.56" y2="46.35"/><line class="cls-1" x1="159.24" y1="45.85" x2="181.92" y2="45.85"/><line class="cls-1" x1="159.24" y1="68.03" x2="159.24" y2="46.35"/><line class="cls-1" x1="181.92" y1="45.85" x2="204.59" y2="45.85"/><line class="cls-1" x1="181.92" y1="68.03" x2="181.92" y2="46.35"/><line class="cls-1" x1="204.59" y1="45.85" x2="227.77" y2="45.85"/><line class="cls-1" x1="204.59" y1="68.03" x2="204.59" y2="46.35"/><line class="cls-1" x1="227.27" y1="68.03" x2="227.27" y2="46.35"/><line class="cls-1" y1="68.53" x2="23.18" y2="68.53"/><line class="cls-1" x1="0.5" y1="90.71" x2="0.5" y2="69.03"/><line class="cls-1" x1="23.18" y1="68.53" x2="45.85" y2="68.53"/><line class="cls-1" x1="23.18" y1="90.71" x2="23.18" y2="69.03"/><line class="cls-1" x1="45.85" y1="68.53" x2="68.53" y2="68.53"/><line class="cls-1" x1="45.85" y1="90.71" x2="45.85" y2="69.03"/><line class="cls-1" x1="68.53" y1="68.53" x2="91.21" y2="68.53"/><line class="cls-1" x1="68.53" y1="90.71" x2="68.53" y2="69.03"/><line class="cls-1" x1="91.21" y1="68.53" x2="113.89" y2="68.53"/><line class="cls-1" x1="91.21" y1="90.71" x2="91.21" y2="69.03"/><line class="cls-1" x1="113.89" y1="68.53" x2="136.56" y2="68.53"/><line class="cls-1" x1="113.89" y1="90.71" x2="113.89" y2="69.03"/><line class="cls-1" x1="136.56" y1="68.53" x2="159.24" y2="68.53"/><line class="cls-1" x1="136.56" y1="90.71" x2="136.56" y2="69.03"/><line class="cls-1" x1="159.24" y1="68.53" x2="181.92" y2="68.53"/><line class="cls-1" x1="159.24" y1="90.71" x2="159.24" y2="69.03"/><line class="cls-1" x1="181.92" y1="68.53" x2="204.59" y2="68.53"/><line class="cls-1" x1="181.92" y1="90.71" x2="181.92" y2="69.03"/><line class="cls-1" x1="204.59" y1="68.53" x2="227.77" y2="68.53"/><line class="cls-1" x1="204.59" y1="90.71" x2="204.59" y2="69.03"/><line class="cls-1" x1="227.27" y1="90.71" x2="227.27" y2="69.03"/><line class="cls-1" y1="91.21" x2="23.18" y2="91.21"/><line class="cls-1" x1="0.5" y1="113.39" x2="0.5" y2="91.71"/><line class="cls-1" x1="23.18" y1="91.21" x2="45.85" y2="91.21"/><line class="cls-1" x1="23.18" y1="113.39" x2="23.18" y2="91.71"/><line class="cls-1" x1="45.85" y1="91.21" x2="68.53" y2="91.21"/><line class="cls-1" x1="45.85" y1="113.39" x2="45.85" y2="91.71"/><line class="cls-1" x1="68.53" y1="91.21" x2="91.21" y2="91.21"/><line class="cls-1" x1="68.53" y1="113.39" x2="68.53" y2="91.71"/><line class="cls-1" x1="91.21" y1="91.21" x2="113.89" y2="91.21"/><line class="cls-1" x1="91.21" y1="113.39" x2="91.21" y2="91.71"/><line class="cls-1" x1="113.89" y1="91.21" x2="136.56" y2="91.21"/><line class="cls-1" x1="113.89" y1="113.39" x2="113.89" y2="91.71"/><line class="cls-1" x1="136.56" y1="91.21" x2="159.24" y2="91.21"/><line class="cls-1" x1="136.56" y1="113.39" x2="136.56" y2="91.71"/><line class="cls-1" x1="159.24" y1="91.21" x2="181.92" y2="91.21"/><line class="cls-1" x1="159.24" y1="113.39" x2="159.24" y2="91.71"/><line class="cls-1" x1="181.92" y1="91.21" x2="204.59" y2="91.21"/><line class="cls-1" x1="181.92" y1="113.39" x2="181.92" y2="91.71"/><line class="cls-1" x1="204.59" y1="91.21" x2="227.77" y2="91.21"/><line class="cls-1" x1="204.59" y1="113.39" x2="204.59" y2="91.71"/><line class="cls-1" x1="227.27" y1="113.39" x2="227.27" y2="91.71"/><line class="cls-1" y1="113.89" x2="23.18" y2="113.89"/><line class="cls-1" x1="0.5" y1="136.06" x2="0.5" y2="114.39"/><line class="cls-1" x1="23.18" y1="113.89" x2="45.85" y2="113.89"/><line class="cls-1" x1="23.18" y1="136.06" x2="23.18" y2="114.39"/><line class="cls-1" x1="45.85" y1="113.89" x2="68.53" y2="113.89"/><line class="cls-1" x1="45.85" y1="136.06" x2="45.85" y2="114.39"/><line class="cls-1" x1="68.53" y1="113.89" x2="91.21" y2="113.89"/><line class="cls-1" x1="68.53" y1="136.06" x2="68.53" y2="114.39"/><line class="cls-1" x1="91.21" y1="113.89" x2="113.89" y2="113.89"/><line class="cls-1" x1="91.21" y1="136.06" x2="91.21" y2="114.39"/><line class="cls-1" x1="113.89" y1="113.89" x2="136.56" y2="113.89"/><line class="cls-1" x1="113.89" y1="136.06" x2="113.89" y2="114.39"/><line class="cls-1" x1="136.56" y1="113.89" x2="159.24" y2="113.89"/><line class="cls-1" x1="136.56" y1="136.06" x2="136.56" y2="114.39"/><line class="cls-1" x1="159.24" y1="113.89" x2="181.92" y2="113.89"/><line class="cls-1" x1="159.24" y1="136.06" x2="159.24" y2="114.39"/><line class="cls-1" x1="181.92" y1="113.89" x2="204.59" y2="113.89"/><line class="cls-1" x1="181.92" y1="136.06" x2="181.92" y2="114.39"/><line class="cls-1" x1="204.59" y1="113.89" x2="227.77" y2="113.89"/><line class="cls-1" x1="204.59" y1="136.06" x2="204.59" y2="114.39"/><line class="cls-1" x1="227.27" y1="136.06" x2="227.27" y2="114.39"/><line class="cls-1" y1="136.56" x2="23.18" y2="136.56"/><line class="cls-1" x1="0.5" y1="158.74" x2="0.5" y2="137.06"/><line class="cls-1" x1="23.18" y1="136.56" x2="45.85" y2="136.56"/><line class="cls-1" x1="23.18" y1="158.74" x2="23.18" y2="137.06"/><line class="cls-1" x1="45.85" y1="136.56" x2="68.53" y2="136.56"/><line class="cls-1" x1="45.85" y1="158.74" x2="45.85" y2="137.06"/><line class="cls-1" x1="68.53" y1="136.56" x2="91.21" y2="136.56"/><line class="cls-1" x1="68.53" y1="158.74" x2="68.53" y2="137.06"/><line class="cls-1" x1="91.21" y1="136.56" x2="113.89" y2="136.56"/><line class="cls-1" x1="91.21" y1="158.74" x2="91.21" y2="137.06"/><line class="cls-1" x1="113.89" y1="136.56" x2="136.56" y2="136.56"/><line class="cls-1" x1="113.89" y1="158.74" x2="113.89" y2="137.06"/><line class="cls-1" x1="136.56" y1="136.56" x2="159.24" y2="136.56"/><line class="cls-1" x1="136.56" y1="158.74" x2="136.56" y2="137.06"/><line class="cls-1" x1="159.24" y1="136.56" x2="181.92" y2="136.56"/><line class="cls-1" x1="159.24" y1="158.74" x2="159.24" y2="137.06"/><line class="cls-1" x1="181.92" y1="136.56" x2="204.59" y2="136.56"/><line class="cls-1" x1="181.92" y1="158.74" x2="181.92" y2="137.06"/><line class="cls-1" x1="204.59" y1="136.56" x2="227.77" y2="136.56"/><line class="cls-1" x1="204.59" y1="158.74" x2="204.59" y2="137.06"/><line class="cls-1" x1="227.27" y1="158.74" x2="227.27" y2="137.06"/><line class="cls-1" y1="159.24" x2="23.18" y2="159.24"/><line class="cls-1" x1="0.5" y1="181.42" x2="0.5" y2="159.74"/><line class="cls-1" x1="23.18" y1="159.24" x2="45.85" y2="159.24"/><line class="cls-1" x1="23.18" y1="181.42" x2="23.18" y2="159.74"/><line class="cls-1" x1="45.85" y1="159.24" x2="68.53" y2="159.24"/><line class="cls-1" x1="45.85" y1="181.42" x2="45.85" y2="159.74"/><line class="cls-1" x1="68.53" y1="159.24" x2="91.21" y2="159.24"/><line class="cls-1" x1="68.53" y1="181.42" x2="68.53" y2="159.74"/><line class="cls-1" x1="91.21" y1="159.24" x2="113.89" y2="159.24"/><line class="cls-1" x1="91.21" y1="181.42" x2="91.21" y2="159.74"/><line class="cls-1" x1="113.89" y1="159.24" x2="136.56" y2="159.24"/><line class="cls-1" x1="113.89" y1="181.42" x2="113.89" y2="159.74"/><line class="cls-1" x1="136.56" y1="159.24" x2="159.24" y2="159.24"/><line class="cls-1" x1="136.56" y1="181.42" x2="136.56" y2="159.74"/><line class="cls-1" x1="159.24" y1="159.24" x2="181.92" y2="159.24"/><line class="cls-1" x1="159.24" y1="181.42" x2="159.24" y2="159.74"/><line class="cls-1" x1="181.92" y1="159.24" x2="204.59" y2="159.24"/><line class="cls-1" x1="181.92" y1="181.42" x2="181.92" y2="159.74"/><line class="cls-1" x1="204.59" y1="159.24" x2="227.77" y2="159.24"/><line class="cls-1" x1="204.59" y1="181.42" x2="204.59" y2="159.74"/><line class="cls-1" x1="227.27" y1="181.42" x2="227.27" y2="159.74"/><line class="cls-1" y1="181.92" x2="23.18" y2="181.92"/><line class="cls-1" x1="0.5" y1="204.09" x2="0.5" y2="182.42"/><line class="cls-1" x1="23.18" y1="181.92" x2="45.85" y2="181.92"/><line class="cls-1" x1="23.18" y1="204.09" x2="23.18" y2="182.42"/><line class="cls-1" x1="45.85" y1="181.92" x2="68.53" y2="181.92"/><line class="cls-1" x1="45.85" y1="204.09" x2="45.85" y2="182.42"/><line class="cls-1" x1="68.53" y1="181.92" x2="91.21" y2="181.92"/><line class="cls-1" x1="68.53" y1="204.09" x2="68.53" y2="182.42"/><line class="cls-1" x1="91.21" y1="181.92" x2="113.89" y2="181.92"/><line class="cls-1" x1="91.21" y1="204.09" x2="91.21" y2="182.42"/><line class="cls-1" x1="113.89" y1="181.92" x2="136.56" y2="181.92"/><line class="cls-1" x1="113.89" y1="204.09" x2="113.89" y2="182.42"/><line class="cls-1" x1="136.56" y1="181.92" x2="159.24" y2="181.92"/><line class="cls-1" x1="136.56" y1="204.09" x2="136.56" y2="182.42"/><line class="cls-1" x1="159.24" y1="181.92" x2="181.92" y2="181.92"/><line class="cls-1" x1="159.24" y1="204.09" x2="159.24" y2="182.42"/><line class="cls-1" x1="181.92" y1="181.92" x2="204.59" y2="181.92"/><line class="cls-1" x1="181.92" y1="204.09" x2="181.92" y2="182.42"/><line class="cls-1" x1="204.59" y1="181.92" x2="227.77" y2="181.92"/><line class="cls-1" x1="204.59" y1="204.09" x2="204.59" y2="182.42"/><line class="cls-1" x1="227.27" y1="204.09" x2="227.27" y2="182.42"/><line class="cls-1" y1="204.59" x2="23.18" y2="204.59"/><line class="cls-1" x1="0.5" y1="226.77" x2="0.5" y2="205.09"/><line class="cls-1" x1="23.18" y1="204.59" x2="45.85" y2="204.59"/><line class="cls-1" x1="23.18" y1="226.77" x2="23.18" y2="205.09"/><line class="cls-1" x1="45.85" y1="204.59" x2="68.53" y2="204.59"/><line class="cls-1" x1="45.85" y1="226.77" x2="45.85" y2="205.09"/><line class="cls-1" x1="68.53" y1="204.59" x2="91.21" y2="204.59"/><line class="cls-1" x1="68.53" y1="226.77" x2="68.53" y2="205.09"/><line class="cls-1" x1="91.21" y1="204.59" x2="113.89" y2="204.59"/><line class="cls-1" x1="91.21" y1="226.77" x2="91.21" y2="205.09"/><line class="cls-1" x1="113.89" y1="204.59" x2="136.56" y2="204.59"/><line class="cls-1" x1="113.89" y1="226.77" x2="113.89" y2="205.09"/><line class="cls-1" x1="136.56" y1="204.59" x2="159.24" y2="204.59"/><line class="cls-1" x1="136.56" y1="226.77" x2="136.56" y2="205.09"/><line class="cls-1" x1="159.24" y1="204.59" x2="181.92" y2="204.59"/><line class="cls-1" x1="159.24" y1="226.77" x2="159.24" y2="205.09"/><line class="cls-1" x1="181.92" y1="204.59" x2="204.59" y2="204.59"/><line class="cls-1" x1="181.92" y1="226.77" x2="181.92" y2="205.09"/><line class="cls-1" x1="204.59" y1="204.59" x2="227.77" y2="204.59"/><line class="cls-1" x1="204.59" y1="226.77" x2="204.59" y2="205.09"/><line class="cls-1" x1="227.27" y1="226.77" x2="227.27" y2="205.09"/><line class="cls-1" y1="227.27" x2="23.18" y2="227.27"/><line class="cls-1" x1="23.18" y1="227.27" x2="45.85" y2="227.27"/><line class="cls-1" x1="45.85" y1="227.27" x2="68.53" y2="227.27"/><line class="cls-1" x1="68.53" y1="227.27" x2="91.21" y2="227.27"/><line class="cls-1" x1="91.21" y1="227.27" x2="113.89" y2="227.27"/><line class="cls-1" x1="113.89" y1="227.27" x2="136.56" y2="227.27"/><line class="cls-1" x1="136.56" y1="227.27" x2="159.24" y2="227.27"/><line class="cls-1" x1="159.24" y1="227.27" x2="181.92" y2="227.27"/><line class="cls-1" x1="181.92" y1="227.27" x2="204.59" y2="227.27"/><line class="cls-1" x1="204.59" y1="227.27" x2="227.77" y2="227.27"/></svg>