<?xml version="1.0" encoding="utf-8"?>
<!-- Generator: Adobe Illustrator 21.1.0, SVG Export Plug-In . SVG Version: 6.00 Build 0)  -->
<svg version="1.1" id="Capa_1" xmlns="http://www.w3.org/2000/svg" xmlns:xlink="http://www.w3.org/1999/xlink" x="0px" y="0px"
	 viewBox="0 0 58.348 35.604" style="enable-background:new 0 0 58.348 35.604;" xml:space="preserve">
<style type="text/css">
	.st0{clip-path:url(#SVGID_2_);}
	.st1{clip-path:url(#SVGID_4_);fill:#005CA8;}
	.st2{filter:url(#Adobe_OpacityMaskFilter);}
	.st3{clip-path:url(#SVGID_4_);}
	.st4{clip-path:url(#SVGID_4_);mask:url(#SVGID_5_);}
	.st5{opacity:0.2;clip-path:url(#SVGID_9_);fill:#1D1D1B;}
	.st6{clip-path:url(#SVGID_2_);fill:#FFFFFF;}
	.st7{clip-path:url(#SVGID_11_);fill:none;stroke:#005CA8;stroke-width:1.777;stroke-linecap:round;}
	.st8{clip-path:url(#SVGID_2_);fill:none;stroke:#005CA8;stroke-width:1.185;stroke-linecap:round;}
	.st9{clip-path:url(#SVGID_13_);fill:#005CA8;}
	.st10{clip-path:url(#SVGID_15_);fill:#FFFFFF;}
</style>
<g>
	<defs>
		<rect id="SVGID_1_" x="-3" y="-1.179" width="63" height="38"/>
	</defs>
	<clipPath id="SVGID_2_">
		<use xlink:href="#SVGID_1_"  style="overflow:visible;"/>
	</clipPath>
	<g class="st0">
		<defs>
			<rect id="SVGID_3_" x="-3" y="-1.179" width="63" height="38"/>
		</defs>
		<clipPath id="SVGID_4_">
			<use xlink:href="#SVGID_3_"  style="overflow:visible;"/>
		</clipPath>
		<path class="st1" d="M25.222,12.449c0,0-1.805,0-1.805,1.805v14.401c0,0,0,1.805,1.805,1.805h31.322c0,0,1.805,0,1.805-1.805
			V14.254c0,0,0-1.805-1.805-1.805H25.222z"/>
		<defs>
			<filter id="Adobe_OpacityMaskFilter" filterUnits="userSpaceOnUse" x="2.984" y="0" width="25.92" height="33.36">
				<feColorMatrix  type="matrix" values="1 0 0 0 0  0 1 0 0 0  0 0 1 0 0  0 0 0 1 0"/>
			</filter>
		</defs>
		<mask maskUnits="userSpaceOnUse" x="2.984" y="0" width="25.92" height="33.36" id="SVGID_5_">
			<g class="st2">
				<g>
					<defs>
						<rect id="SVGID_6_" x="-5.896" y="-6.96" width="44.16" height="41.28"/>
					</defs>
					<clipPath id="SVGID_7_" class="st3">
						<use xlink:href="#SVGID_6_"  style="overflow:visible;"/>
					</clipPath>
					<g transform="matrix(1 0 0 1 0 0)" style="clip-path:url(#SVGID_7_);">
						
							<image style="overflow:visible;" width="184" height="172" xlink:href="5C9B9C14AC615A79.jpg"  transform="matrix(0.24 0 0 0.24 -5.8961 -6.9595)">
						</image>
					</g>
				</g>
			</g>
		</mask>
		<g class="st4">
			<g>
				<defs>
					<rect id="SVGID_8_" x="2.984" y="0" width="25.92" height="33.36"/>
				</defs>
				<clipPath id="SVGID_9_">
					<use xlink:href="#SVGID_8_"  style="overflow:visible;"/>
				</clipPath>
				<rect x="2.984" class="st5" width="25.92" height="33.36"/>
			</g>
		</g>
	</g>
	<rect x="1.469" y="1.675" class="st6" width="25.605" height="33.132"/>
	<g class="st0">
		<defs>
			<rect id="SVGID_10_" x="-3" y="-1.179" width="63" height="38"/>
		</defs>
		<clipPath id="SVGID_11_">
			<use xlink:href="#SVGID_10_"  style="overflow:visible;"/>
		</clipPath>
		<path class="st7" d="M0.925,1.882V31.66c0,0,0.45,3.058,1.609,3.058h25.42c-1.223,0-1.609-3.058-1.609-3.058V1.882H0.925z"/>
	</g>
	<rect x="4.628" y="11.624" class="st8" width="7.776" height="7.696"/>
	<g class="st0">
		<defs>
			<rect id="SVGID_12_" x="-3" y="-1.179" width="63" height="38"/>
		</defs>
		<clipPath id="SVGID_13_">
			<use xlink:href="#SVGID_12_"  style="overflow:visible;"/>
		</clipPath>
		<path class="st9" d="M21.559,6.979l0.462-1.552l0.47,1.552H21.559z M22.959,8.565h0.836l-1.313-3.957H21.6l-1.296,3.957h0.794
			l0.275-0.93h1.307L22.959,8.565z M20.485,4.608h-2.884v0.689h1.054v3.268h0.775V5.297h1.055V4.608z M14.929,7.529l-0.341,0.548
			c0.376,0.324,0.845,0.544,1.393,0.544c0.744,0,1.344-0.399,1.344-1.215c0-1.436-1.867-0.919-1.867-1.709
			c0-0.29,0.25-0.458,0.588-0.458c0.285,0,0.62,0.118,0.891,0.309l0.335-0.532c-0.343-0.287-0.811-0.465-1.277-0.465
			c-0.716,0-1.299,0.415-1.299,1.204c0,1.397,1.849,0.917,1.849,1.709c0,0.299-0.26,0.452-0.607,0.452
			C15.595,7.916,15.24,7.766,14.929,7.529 M13.255,8.565h0.777V4.608h-0.777V8.565z M10.422,4.608H9.593l1.265,3.957h0.667
			l1.27-3.957h-0.789l-0.795,2.74L10.422,4.608z M6.924,8.565h2.414V7.879H7.692V6.912h1.395V6.228H7.692V5.294h1.607V4.608H6.924
			V8.565z M4.339,6.443V5.287h0.495c0.386,0,0.635,0.196,0.635,0.581c0,0.368-0.227,0.575-0.635,0.575H4.339z M3.576,8.565h0.763
			V7.124h0.425l0.751,1.441h0.9L5.534,7.003c0.446-0.195,0.71-0.613,0.71-1.146c0-0.729-0.496-1.249-1.333-1.249H3.576V8.565z"/>
	</g>
	<line class="st8" x1="14.71" y1="12.915" x2="22.728" y2="12.915"/>
	<line class="st8" x1="14.71" y1="16.046" x2="22.728" y2="16.046"/>
	<line class="st8" x1="14.71" y1="19.32" x2="22.728" y2="19.32"/>
	<line class="st8" x1="4.297" y1="23.731" x2="23.606" y2="23.731"/>
	<line class="st8" x1="4.297" y1="26.863" x2="23.606" y2="26.863"/>
	<line class="st8" x1="4.297" y1="30.137" x2="23.606" y2="30.137"/>
	<g class="st0">
		<defs>
			<rect id="SVGID_14_" x="-3" y="-1.179" width="63" height="38"/>
		</defs>
		<clipPath id="SVGID_15_">
			<use xlink:href="#SVGID_14_"  style="overflow:visible;"/>
		</clipPath>
		<path class="st10" d="M48.505,25.073c-0.369,0.327-0.963,0.49-1.783,0.49c-0.678,0-1.26-0.062-1.747-0.187
			c-0.488-0.125-0.88-0.252-1.177-0.383l-0.482,2.193c0.143,0.071,0.345,0.142,0.607,0.214c0.261,0.071,0.555,0.139,0.882,0.205
			c0.327,0.065,0.666,0.118,1.016,0.16c0.351,0.042,0.687,0.062,1.008,0.062c0.82,0,1.536-0.101,2.148-0.303s1.12-0.481,1.525-0.838
			c0.404-0.356,0.707-0.778,0.909-1.266c0.202-0.487,0.303-1.016,0.303-1.586c0-1.236-0.413-2.202-1.239-2.898
			c-0.826-0.695-2.107-1.102-3.842-1.221c0.035-0.297,0.068-0.645,0.098-1.043c0.029-0.398,0.056-0.811,0.08-1.239h4.457v-2.229
			h-6.686c-0.047,0.999-0.113,2.068-0.196,3.21c-0.083,1.141-0.19,2.264-0.321,3.369c0.975,0,1.783,0.048,2.425,0.143
			c0.642,0.095,1.153,0.232,1.533,0.41c0.381,0.178,0.648,0.401,0.803,0.669c0.154,0.267,0.232,0.573,0.232,0.918
			C49.058,24.363,48.873,24.746,48.505,25.073 M37.736,27.56c0.071-1.07,0.259-2.14,0.562-3.209c0.303-1.07,0.659-2.071,1.069-3.005
			c0.41-0.932,0.844-1.767,1.302-2.505c0.457-0.736,0.876-1.313,1.257-1.729v-1.926h-8.647v2.265h5.366
			c-0.416,0.582-0.826,1.275-1.23,2.077s-0.77,1.655-1.096,2.558c-0.327,0.904-0.604,1.825-0.829,2.764
			c-0.226,0.939-0.375,1.842-0.446,2.71H37.736z"/>
	</g>
</g>
</svg>
