<?xml version="1.0" encoding="utf-8"?>
<!-- Generator: Adobe Illustrator 21.1.0, SVG Export Plug-In . SVG Version: 6.00 Build 0)  -->
<svg version="1.1" id="Capa_1" xmlns="http://www.w3.org/2000/svg" xmlns:xlink="http://www.w3.org/1999/xlink" x="0px" y="0px"
	 viewBox="0 0 17.391 17.144" style="enable-background:new 0 0 17.391 17.144;" xml:space="preserve">
<style type="text/css">
	.st0{clip-path:url(#SVGID_2_);fill:#FFFFFF;}
	.st1{clip-path:url(#SVGID_2_);fill:none;stroke:#AEC90B;stroke-width:0.957;stroke-linecap:round;}
	.st2{clip-path:url(#SVGID_2_);fill:#AEC90B;}
</style>
<g>
	<defs>
		<rect id="SVGID_1_" width="17.391" height="17.144"/>
	</defs>
	<clipPath id="SVGID_2_">
		<use xlink:href="#SVGID_1_"  style="overflow:visible;"/>
	</clipPath>
	<path class="st0" d="M4.094,0.478c0,0-3.616,0-3.616,3.616v8.955c0,0,0,3.616,3.616,3.616l9.464-0.003l3.315-8.09l-3.351-8.091
		L4.094,0.478z"/>
	<path class="st1" d="M4.094,0.478c0,0-3.616,0-3.616,3.616v8.955c0,0,0,3.616,3.616,3.616l9.464-0.003l3.315-8.09l-3.351-8.091
		L4.094,0.478z"/>
	<path class="st2" d="M10.107,5.842c0.353,0.106,0.665,0.232,0.938,0.376l0.574-1.594c-0.069-0.043-0.181-0.102-0.338-0.179
		c-0.158-0.076-0.358-0.151-0.6-0.223c-0.242-0.072-0.532-0.136-0.867-0.191C9.478,3.975,9.101,3.948,8.685,3.948
		c-0.613,0-1.189,0.102-1.729,0.306c-0.54,0.204-1.01,0.504-1.409,0.899c-0.4,0.396-0.715,0.878-0.944,1.448
		c-0.23,0.57-0.345,1.225-0.345,1.964c0,0.732,0.104,1.382,0.313,1.952c0.208,0.57,0.504,1.051,0.886,1.442
		c0.383,0.391,0.844,0.688,1.384,0.893c0.54,0.204,1.142,0.306,1.805,0.306c0.774,0,1.425-0.054,1.952-0.16
		c0.527-0.106,0.91-0.206,1.148-0.3V8.323h-1.99v3.074c-0.119,0.026-0.257,0.043-0.414,0.051c-0.158,0.009-0.347,0.013-0.568,0.013
		c-0.408,0-0.765-0.07-1.072-0.21c-0.306-0.141-0.561-0.338-0.765-0.594c-0.204-0.255-0.357-0.559-0.459-0.912
		c-0.102-0.352-0.153-0.746-0.153-1.18c0-0.892,0.206-1.596,0.618-2.111c0.413-0.514,1.083-0.771,2.01-0.771
		C9.369,5.683,9.754,5.736,10.107,5.842"/>
</g>
</svg>
