<?xml version="1.0" encoding="utf-8"?>
<!-- Generator: Adobe Illustrator 21.1.0, SVG Export Plug-In . SVG Version: 6.00 Build 0)  -->
<svg version="1.1" id="Capa_1" xmlns="http://www.w3.org/2000/svg" xmlns:xlink="http://www.w3.org/1999/xlink" x="0px" y="0px"
	 viewBox="0 0 311.8 463.3" style="enable-background:new 0 0 311.8 463.3;" xml:space="preserve">
<style type="text/css">
	.st0{clip-path:url(#SVGID_2_);fill:none;stroke:#94A5B0;}
	.st1{clip-path:url(#SVGID_2_);fill:none;stroke:#84CDE4;stroke-width:1.5;}
	.st2{clip-path:url(#SVGID_2_);fill:none;stroke:#FAC58A;stroke-width:1.5;}
	.st3{clip-path:url(#SVGID_2_);fill:none;stroke:#D796C2;stroke-width:1.5;}
	.st4{clip-path:url(#SVGID_2_);fill:none;stroke:#BCD394;stroke-width:1.5;}
	.st5{clip-path:url(#SVGID_2_);fill:#009CC4;}
	.st6{clip-path:url(#SVGID_2_);fill:#FFFFFF;}
	.st7{clip-path:url(#SVGID_2_);fill:#F29100;}
	.st8{clip-path:url(#SVGID_2_);fill:none;stroke:#FBCA8C;stroke-width:1.5;}
	.st9{clip-path:url(#SVGID_2_);fill:#B70D80;}
	.st10{clip-path:url(#SVGID_2_);fill:#3DA435;}
	.st11{clip-path:url(#SVGID_2_);fill:#94A5B0;}
</style>
<g>
	<defs>
		<rect id="SVGID_1_" width="311.8" height="463.3"/>
	</defs>
	<clipPath id="SVGID_2_">
		<use xlink:href="#SVGID_1_"  style="overflow:visible;"/>
	</clipPath>
	<path class="st0" d="M190.7,210.8c0,0,28.9-3.1,28-48.5"/>
	<polyline class="st0" points="222.5,166.1 218.7,162.2 215.1,166.3 	"/>
	<path class="st0" d="M186.5,243.3c0,0,28.5,7.7,35.8,52.6"/>
	<polyline class="st0" points="225.3,291.4 222.2,295.9 217.9,292.5 	"/>
	<path class="st1" d="M96.7,369.1c0,0-0.4,33.6-12.7,93.2"/>
	<polyline class="st1" points="80.7,456.9 84,462.2 89,458.7 	"/>
	<path class="st2" d="M84.3,90c0,0-1.6-38.9-11.9-88.9"/>
	<polyline class="st2" points="69.2,6.4 72.4,1.1 77.5,4.7 	"/>
	<path class="st3" d="M226.9,368.2c0,0,0.7,33.7,13.4,93.3"/>
	<polyline class="st3" points="243.5,456.2 240.3,461.5 235.2,458 	"/>
	<path class="st4" d="M221.8,89.2c0,0-3.1-36.8,7.8-87.4"/>
	<polyline class="st4" points="232.8,7.1 229.6,1.8 224.5,5.4 	"/>
	<path class="st3" d="M285,330.6c0,0,9.6-3.2,23.1,10.2"/>
	<polyline class="st3" points="301.9,340.6 308.1,340.8 307.8,334.6 	"/>
	<path class="st1" d="M25.1,327.5c0,0-10.1-3.3-24.3,10.8"/>
	<polyline class="st1" points="7,338.1 0.8,338.3 1,332.1 	"/>
	<path class="st4" d="M287.1,121.5c0,0,9.9-3.3,23.9,10.6"/>
	<polyline class="st4" points="304.8,131.9 311,132.1 310.8,125.9 	"/>
	<path class="st2" d="M26.6,117.8c0,0-9.9-3.3-23.9,10.6"/>
	<polyline class="st2" points="9,128.1 2.8,128.3 3,122.1 	"/>
	<path class="st5" d="M90.8,366.5c34.4,0,62.2-14,62.2-31.4c0-17.3-27.9-31.4-62.2-31.4s-62.2,14-62.2,31.4
		C28.5,352.5,56.4,366.5,90.8,366.5"/>
	<ellipse class="st1" cx="89.3" cy="331" rx="62.2" ry="31.4"/>
	<path class="st6" d="M125.5,336.8V335H121v-2.2h3.7v-1.7H121v-1.8h4.2v-1.8h-6.3v9.3H125.5z M116.8,327.5h-2.1v6.1
		c0,0.6-0.1,1-0.3,1.3c-0.2,0.2-0.6,0.4-1.1,0.4c-0.3,0-0.7-0.1-1-0.2c-0.3-0.1-0.6-0.2-0.8-0.4l-0.7,1.6c0.3,0.2,0.6,0.4,1.1,0.5
		c0.4,0.1,1,0.2,1.6,0.2c0.7,0,1.2-0.1,1.6-0.3c0.4-0.2,0.8-0.4,1-0.7c0.3-0.3,0.4-0.6,0.5-1.1c0.1-0.4,0.2-0.8,0.2-1.3V327.5z
		 M105.5,330.1c0.1,0.2,0.2,0.5,0.3,0.8c0.1,0.3,0.2,0.6,0.4,1c0.1,0.4,0.3,0.8,0.4,1.2H104c0.1-0.4,0.3-0.8,0.4-1.2
		c0.1-0.4,0.3-0.7,0.4-1c0.1-0.3,0.2-0.6,0.3-0.8c0.1-0.2,0.2-0.4,0.2-0.6C105.3,329.7,105.4,329.9,105.5,330.1 M110,336.8
		c-0.3-1-0.7-1.9-1-2.8c-0.3-0.8-0.6-1.6-0.9-2.4c-0.3-0.8-0.6-1.5-0.9-2.1c-0.3-0.7-0.6-1.3-0.9-2h-2c-0.3,0.6-0.6,1.3-0.9,2
		c-0.3,0.7-0.6,1.4-0.9,2.1c-0.3,0.8-0.6,1.6-0.9,2.4c-0.3,0.8-0.6,1.8-1,2.8h2.2c0.1-0.3,0.2-0.7,0.3-1c0.1-0.3,0.2-0.7,0.4-1h3.6
		c0.1,0.3,0.2,0.7,0.4,1c0.1,0.3,0.2,0.7,0.3,1H110z M93.4,327.5v1.8h2.8v7.5h2.1v-7.5h2.8v-1.8H93.4z M89.6,329.4
		c0.3,0.2,0.5,0.5,0.5,1c0,0.5-0.2,0.8-0.5,1c-0.3,0.2-0.9,0.3-1.7,0.3h-0.6v-2.5c0.1,0,0.2,0,0.3,0c0.1,0,0.3,0,0.4,0
		C88.8,329.2,89.3,329.3,89.6,329.4 M86.7,327.4c-0.5,0-1,0.1-1.4,0.2v9.2h2.1v-3.4h1c0.2,0.2,0.4,0.5,0.5,0.7
		c0.2,0.3,0.4,0.5,0.5,0.8c0.2,0.3,0.4,0.6,0.5,0.9c0.2,0.3,0.3,0.6,0.5,0.9h2.3c-0.2-0.3-0.3-0.7-0.5-1c-0.2-0.4-0.4-0.7-0.6-1
		c-0.2-0.3-0.4-0.6-0.6-0.9c-0.2-0.3-0.4-0.6-0.6-0.8c0.6-0.2,1-0.6,1.3-1c0.3-0.4,0.4-0.9,0.4-1.6c0-1-0.4-1.8-1.1-2.3
		c-0.7-0.5-1.8-0.7-3.2-0.7C87.6,327.4,87.2,327.4,86.7,327.4 M83.1,330c-0.2-0.6-0.6-1.1-1-1.5c-0.4-0.4-0.9-0.7-1.5-0.9
		c-0.6-0.2-1.2-0.3-1.8-0.3c-0.6,0-1.2,0.1-1.8,0.3c-0.6,0.2-1.1,0.5-1.5,0.9c-0.4,0.4-0.8,0.9-1,1.5c-0.2,0.6-0.4,1.3-0.4,2.1
		c0,0.8,0.1,1.5,0.4,2.1c0.2,0.6,0.6,1.1,1,1.5c0.4,0.4,0.9,0.7,1.5,0.9c0.6,0.2,1.2,0.3,1.8,0.3c0.7,0,1.3-0.1,1.8-0.3
		c0.6-0.2,1.1-0.5,1.5-0.9c0.4-0.4,0.7-0.9,1-1.5c0.2-0.6,0.4-1.3,0.4-2.1C83.5,331.3,83.4,330.6,83.1,330 M76.6,330.9
		c0.1-0.4,0.3-0.7,0.5-1c0.2-0.3,0.5-0.5,0.8-0.6c0.3-0.1,0.7-0.2,1-0.2c0.4,0,0.7,0.1,1,0.2c0.3,0.1,0.6,0.3,0.8,0.6
		c0.2,0.3,0.4,0.6,0.5,1c0.1,0.4,0.2,0.8,0.2,1.2s-0.1,0.9-0.2,1.2s-0.3,0.7-0.5,0.9c-0.2,0.3-0.5,0.5-0.8,0.6
		c-0.3,0.1-0.7,0.2-1,0.2c-0.4,0-0.7-0.1-1-0.2c-0.3-0.1-0.6-0.3-0.8-0.6c-0.2-0.3-0.4-0.6-0.5-0.9c-0.1-0.4-0.2-0.8-0.2-1.2
		C76.4,331.7,76.4,331.3,76.6,330.9 M69.7,329.2c0.2,0,0.5,0.1,0.6,0.2c0.2,0.1,0.3,0.2,0.4,0.4c0.1,0.2,0.1,0.4,0.1,0.6
		c0,0.5-0.2,0.9-0.5,1.1c-0.4,0.2-0.9,0.3-1.6,0.3H68v-2.7c0.1,0,0.2,0,0.4,0c0.1,0,0.3,0,0.4,0C69.2,329.2,69.5,329.2,69.7,329.2
		 M67.4,327.4c-0.5,0-1,0.1-1.4,0.2v9.2H68v-3.1h0.7c1.4,0,2.5-0.2,3.2-0.7c0.8-0.5,1.1-1.3,1.1-2.4c0-1.1-0.4-1.9-1.1-2.4
		c-0.7-0.5-1.8-0.7-3.2-0.7C68.4,327.4,67.9,327.4,67.4,327.4 M64.2,336.8V335h-4.5v-2.2h3.7v-1.7h-3.7v-1.8h4.2v-1.8h-6.3v9.3H64.2
		z M53.1,329.4c0.3,0.2,0.5,0.5,0.5,1c0,0.5-0.2,0.8-0.5,1c-0.3,0.2-0.9,0.3-1.7,0.3h-0.6v-2.5c0.1,0,0.2,0,0.3,0c0.1,0,0.3,0,0.4,0
		C52.2,329.2,52.7,329.3,53.1,329.4 M50.1,327.4c-0.5,0-1,0.1-1.4,0.2v9.2h2.1v-3.4h1c0.2,0.2,0.4,0.5,0.5,0.7
		c0.2,0.3,0.4,0.5,0.5,0.8c0.2,0.3,0.4,0.6,0.5,0.9c0.2,0.3,0.3,0.6,0.5,0.9h2.3c-0.2-0.3-0.3-0.7-0.5-1c-0.2-0.4-0.4-0.7-0.6-1
		c-0.2-0.3-0.4-0.6-0.6-0.9c-0.2-0.3-0.4-0.6-0.6-0.8c0.6-0.2,1-0.6,1.3-1c0.3-0.4,0.4-0.9,0.4-1.6c0-1-0.4-1.8-1.1-2.3
		c-0.7-0.5-1.8-0.7-3.2-0.7C51,327.4,50.6,327.4,50.1,327.4"/>
	<path class="st7" d="M90.8,160.8c34.4,0,62.2-14.2,62.2-31.8c0-17.6-27.9-31.8-62.2-31.8S28.5,111.4,28.5,129
		C28.5,146.6,56.4,160.8,90.8,160.8"/>
	<ellipse class="st8" cx="89.3" cy="124.8" rx="62.2" ry="31.9"/>
	<path class="st6" d="M110.5,130.5v-1.8H106v-2.2h3.7v-1.7H106V123h4.2v-1.8H104v9.3H110.5z M99.7,124.8h-3.5v-3.6h-2.1v9.3h2.1
		v-3.9h3.5v3.9h2.1v-9.3h-2.1V124.8z M91.5,130.5c0.5-0.1,1-0.3,1.2-0.5l-0.6-1.7c-0.1,0.1-0.2,0.1-0.4,0.2
		c-0.1,0.1-0.3,0.1-0.5,0.2c-0.2,0-0.4,0.1-0.6,0.1c-0.2,0-0.5,0.1-0.8,0.1c-0.5,0-0.9-0.1-1.2-0.2c-0.3-0.2-0.6-0.4-0.8-0.6
		s-0.4-0.6-0.5-1c-0.1-0.4-0.1-0.8-0.1-1.2c0-0.5,0.1-1,0.2-1.4c0.1-0.4,0.3-0.7,0.6-0.9c0.2-0.2,0.5-0.4,0.8-0.5
		c0.3-0.1,0.6-0.2,0.9-0.2c0.5,0,0.9,0.1,1.3,0.2c0.4,0.1,0.7,0.2,1,0.4l0.6-1.7c-0.1,0-0.2-0.1-0.3-0.2c-0.2-0.1-0.4-0.2-0.6-0.2
		c-0.2-0.1-0.5-0.1-0.8-0.2c-0.3-0.1-0.7-0.1-1.1-0.1c-0.7,0-1.3,0.1-1.9,0.3c-0.6,0.2-1.1,0.5-1.5,0.9c-0.4,0.4-0.8,0.9-1,1.5
		c-0.2,0.6-0.4,1.3-0.4,2.1c0,1.5,0.4,2.7,1.2,3.6c0.8,0.8,1.9,1.3,3.5,1.3C90.3,130.7,90.9,130.6,91.5,130.5 M81.1,130.5h2.1v-9.3
		h-2.1V130.5z M75.5,130.5v-3.8h3.7v-1.8h-3.7V123h4.1v-1.8h-6.2v9.3H75.5z M67.6,123.9c0.1,0.2,0.2,0.5,0.3,0.8
		c0.1,0.3,0.2,0.6,0.4,1c0.1,0.4,0.3,0.8,0.4,1.2H66c0.1-0.4,0.3-0.8,0.4-1.1c0.1-0.4,0.3-0.7,0.4-1c0.1-0.3,0.2-0.6,0.3-0.8
		c0.1-0.2,0.2-0.4,0.2-0.5C67.4,123.5,67.5,123.6,67.6,123.9 M72.1,130.5c-0.4-1-0.7-1.9-1-2.8c-0.3-0.8-0.6-1.6-0.9-2.4
		c-0.3-0.8-0.6-1.5-0.9-2.1c-0.3-0.7-0.6-1.3-0.9-2h-2c-0.3,0.6-0.6,1.3-0.9,2c-0.3,0.7-0.6,1.4-0.9,2.1c-0.3,0.8-0.6,1.6-0.9,2.4
		c-0.3,0.8-0.6,1.8-1,2.8h2.2c0.1-0.3,0.2-0.7,0.3-1c0.1-0.3,0.2-0.7,0.4-1h3.6c0.1,0.3,0.2,0.7,0.4,1c0.1,0.3,0.2,0.7,0.3,1H72.1z"
		/>
	<path class="st9" d="M225.2,366.5c34.4,0,62.2-14,62.2-31.4c0-17.3-27.9-31.4-62.2-31.4s-62.2,14-62.2,31.4
		C163,352.5,190.8,366.5,225.2,366.5"/>
	<ellipse class="st3" cx="223.7" cy="331" rx="62.2" ry="31.4"/>
	<path class="st6" d="M253.4,328.8c-0.1-0.3-0.3-0.6-0.6-0.8c-0.3-0.2-0.6-0.4-1-0.5c-0.4-0.1-0.9-0.2-1.4-0.2
		c-0.6,0-1.2,0.1-1.7,0.4c-0.5,0.2-1,0.5-1.4,0.9l1,1.4c0.1-0.1,0.2-0.1,0.3-0.2c0.1-0.1,0.3-0.2,0.4-0.3c0.2-0.1,0.4-0.2,0.6-0.3
		c0.2-0.1,0.4-0.1,0.7-0.1c0.3,0,0.6,0.1,0.8,0.2c0.2,0.2,0.3,0.4,0.3,0.8c0,0.2,0,0.4-0.1,0.5c-0.1,0.2-0.2,0.3-0.3,0.5
		c-0.1,0.2-0.3,0.4-0.5,0.5c-0.2,0.2-0.4,0.4-0.6,0.6c-0.3,0.3-0.6,0.5-0.8,0.8c-0.3,0.3-0.5,0.6-0.8,0.9c-0.2,0.3-0.4,0.6-0.5,1
		c-0.1,0.4-0.2,0.8-0.2,1.2v0.3c0,0.2,0,0.3,0,0.4h6.2v-1.7h-4c0-0.1,0.1-0.2,0.2-0.3c0.1-0.1,0.2-0.3,0.4-0.4
		c0.1-0.2,0.3-0.3,0.4-0.5c0.2-0.2,0.3-0.3,0.4-0.4c0.3-0.2,0.5-0.5,0.8-0.8s0.5-0.5,0.7-0.8c0.2-0.3,0.4-0.6,0.5-0.9
		c0.1-0.3,0.2-0.6,0.2-1C253.6,329.5,253.5,329.1,253.4,328.8 M239.1,330.1c0.1,0.2,0.2,0.5,0.3,0.8c0.1,0.3,0.2,0.6,0.4,1
		c0.1,0.4,0.3,0.8,0.4,1.2h-2.7c0.1-0.4,0.3-0.8,0.4-1.2c0.1-0.4,0.3-0.7,0.4-1c0.1-0.3,0.2-0.6,0.3-0.8c0.1-0.2,0.2-0.4,0.2-0.5
		C238.9,329.7,239,329.9,239.1,330.1 M243.6,336.8c-0.4-1-0.7-1.9-1-2.8c-0.3-0.8-0.6-1.6-0.9-2.4c-0.3-0.8-0.6-1.5-0.9-2.1
		c-0.3-0.7-0.6-1.3-0.9-2h-2c-0.3,0.6-0.6,1.3-0.9,2c-0.3,0.7-0.6,1.4-0.9,2.1c-0.3,0.8-0.6,1.5-0.9,2.4c-0.3,0.8-0.6,1.8-1,2.8h2.2
		c0.1-0.3,0.2-0.7,0.3-1c0.1-0.3,0.2-0.7,0.4-1h3.6c0.1,0.3,0.2,0.7,0.4,1s0.2,0.7,0.3,1H243.6z M230.8,336.8h2.1v-9.3h-2.1V336.8z
		 M228.2,336.7c0.5-0.1,1-0.3,1.2-0.5l-0.6-1.7c-0.1,0.1-0.2,0.1-0.4,0.2c-0.1,0.1-0.3,0.1-0.5,0.2c-0.2,0-0.4,0.1-0.6,0.1
		c-0.2,0-0.5,0.1-0.8,0.1c-0.5,0-0.9-0.1-1.2-0.2c-0.3-0.2-0.6-0.4-0.8-0.6c-0.2-0.3-0.4-0.6-0.5-1c-0.1-0.4-0.1-0.8-0.1-1.2
		c0-0.5,0.1-1,0.2-1.4c0.1-0.4,0.3-0.7,0.6-0.9c0.2-0.2,0.5-0.4,0.8-0.5c0.3-0.1,0.6-0.2,0.9-0.2c0.5,0,0.9,0.1,1.3,0.2
		c0.4,0.1,0.7,0.2,1,0.4l0.6-1.7c-0.1,0-0.2-0.1-0.3-0.2c-0.2-0.1-0.4-0.2-0.6-0.2s-0.5-0.1-0.8-0.2c-0.3-0.1-0.7-0.1-1.1-0.1
		c-0.7,0-1.3,0.1-1.9,0.3c-0.6,0.2-1.1,0.5-1.5,0.9c-0.4,0.4-0.8,0.9-1,1.5s-0.4,1.3-0.4,2.1c0,1.5,0.4,2.7,1.2,3.6
		c0.8,0.8,1.9,1.3,3.4,1.3C227.1,337,227.7,336.9,228.2,336.7 M217.8,336.8h2.1v-9.3h-2.1V336.8z M208.8,327.5v1.8h2.8v7.5h2.1v-7.5
		h2.8v-1.8H208.8z M207.6,330c-0.2-0.6-0.6-1.1-1-1.5c-0.4-0.4-0.9-0.7-1.5-0.9c-0.6-0.2-1.2-0.3-1.8-0.3c-0.6,0-1.2,0.1-1.8,0.3
		c-0.6,0.2-1,0.5-1.5,0.9c-0.4,0.4-0.8,0.9-1,1.5c-0.3,0.6-0.4,1.3-0.4,2.1c0,0.8,0.1,1.5,0.4,2.1s0.6,1.1,1,1.5
		c0.4,0.4,0.9,0.7,1.5,0.9c0.6,0.2,1.2,0.3,1.8,0.3c0.7,0,1.3-0.1,1.8-0.3c0.6-0.2,1.1-0.5,1.5-0.9c0.4-0.4,0.7-0.9,1-1.5
		c0.2-0.6,0.4-1.3,0.4-2.1C208,331.3,207.8,330.6,207.6,330 M201,330.9c0.1-0.4,0.3-0.7,0.5-1c0.2-0.3,0.5-0.5,0.8-0.6
		c0.3-0.1,0.7-0.2,1-0.2c0.4,0,0.7,0.1,1,0.2s0.6,0.3,0.8,0.6c0.2,0.3,0.4,0.6,0.5,1c0.1,0.4,0.2,0.8,0.2,1.2c0,0.5-0.1,0.9-0.2,1.2
		c-0.1,0.4-0.3,0.7-0.5,0.9c-0.2,0.3-0.5,0.5-0.8,0.6c-0.3,0.1-0.7,0.2-1,0.2c-0.4,0-0.7-0.1-1-0.2c-0.3-0.1-0.6-0.3-0.8-0.6
		c-0.2-0.3-0.4-0.6-0.5-0.9c-0.1-0.4-0.2-0.8-0.2-1.2C200.9,331.7,200.9,331.3,201,330.9 M196.9,336.8v-9.3h-2.1v5.5
		c-0.3-0.5-0.7-1-1-1.5c-0.4-0.5-0.7-1-1.1-1.5c-0.4-0.5-0.7-0.9-1.1-1.4c-0.4-0.4-0.7-0.8-1-1.1h-1.7v9.3h2.1v-6.1
		c0.8,0.9,1.5,1.9,2.2,2.9c0.7,1,1.3,2.1,1.9,3.1H196.9z"/>
	<path class="st10" d="M225.2,160.8c34.4,0,62.2-14.2,62.2-31.8c0-17.6-27.9-31.8-62.2-31.8S163,111.4,163,129
		C163,146.6,190.8,160.8,225.2,160.8"/>
	<ellipse class="st4" cx="223.7" cy="124.8" rx="62.2" ry="31.9"/>
	<path class="st6" d="M248.5,124.7c0.3-0.1,0.6-0.2,1-0.4c0.3-0.1,0.6-0.3,0.9-0.5v6.7h2v-9.3H251c-0.2,0.2-0.4,0.4-0.7,0.6
		c-0.2,0.2-0.5,0.4-0.8,0.5c-0.3,0.2-0.5,0.3-0.8,0.5c-0.3,0.1-0.6,0.3-0.8,0.4L248.5,124.7z M239.1,123.9c0.1,0.2,0.2,0.5,0.3,0.8
		c0.1,0.3,0.2,0.6,0.4,1c0.1,0.4,0.3,0.8,0.4,1.2h-2.7c0.1-0.4,0.3-0.8,0.4-1.1c0.1-0.4,0.3-0.7,0.4-1c0.1-0.3,0.2-0.6,0.3-0.8
		s0.2-0.4,0.2-0.5C238.9,123.5,239,123.6,239.1,123.9 M243.6,130.5c-0.4-1-0.7-1.9-1-2.8c-0.3-0.8-0.6-1.6-0.9-2.4
		c-0.3-0.8-0.6-1.5-0.9-2.1c-0.3-0.7-0.6-1.3-0.9-2h-2c-0.3,0.6-0.6,1.3-0.9,2c-0.3,0.7-0.6,1.4-0.9,2.1c-0.3,0.8-0.6,1.6-0.9,2.4
		c-0.3,0.8-0.6,1.8-1,2.8h2.2c0.1-0.3,0.2-0.7,0.3-1c0.1-0.3,0.2-0.7,0.4-1h3.6c0.1,0.3,0.2,0.7,0.4,1s0.2,0.7,0.3,1H243.6z
		 M230.8,130.5h2.1v-9.3h-2.1V130.5z M228.2,130.5c0.5-0.1,1-0.3,1.2-0.5l-0.6-1.7c-0.1,0.1-0.2,0.1-0.4,0.2
		c-0.1,0.1-0.3,0.1-0.5,0.2c-0.2,0-0.4,0.1-0.6,0.1c-0.2,0-0.5,0.1-0.8,0.1c-0.5,0-0.9-0.1-1.2-0.2c-0.3-0.2-0.6-0.4-0.8-0.6
		c-0.2-0.3-0.4-0.6-0.5-1c-0.1-0.4-0.1-0.8-0.1-1.2c0-0.5,0.1-1,0.2-1.4c0.1-0.4,0.3-0.7,0.6-0.9c0.2-0.2,0.5-0.4,0.8-0.5
		c0.3-0.1,0.6-0.2,0.9-0.2c0.5,0,0.9,0.1,1.3,0.2c0.4,0.1,0.7,0.2,1,0.4l0.6-1.7c-0.1,0-0.2-0.1-0.3-0.2c-0.2-0.1-0.4-0.2-0.6-0.2
		c-0.2-0.1-0.5-0.1-0.8-0.2c-0.3-0.1-0.7-0.1-1.1-0.1c-0.7,0-1.3,0.1-1.9,0.3c-0.6,0.2-1.1,0.5-1.5,0.9c-0.4,0.4-0.8,0.9-1,1.5
		c-0.2,0.6-0.4,1.3-0.4,2.1c0,1.5,0.4,2.7,1.2,3.6c0.8,0.8,1.9,1.3,3.4,1.3C227.1,130.7,227.7,130.6,228.2,130.5 M217.8,130.5h2.1
		v-9.3h-2.1V130.5z M208.8,121.2v1.8h2.8v7.5h2.1V123h2.8v-1.8H208.8z M207.6,123.8c-0.2-0.6-0.6-1.1-1-1.5
		c-0.4-0.4-0.9-0.7-1.5-0.9c-0.6-0.2-1.2-0.3-1.8-0.3c-0.6,0-1.2,0.1-1.8,0.3c-0.6,0.2-1,0.5-1.5,0.9c-0.4,0.4-0.8,0.9-1,1.5
		c-0.3,0.6-0.4,1.3-0.4,2.1c0,0.8,0.1,1.5,0.4,2.1s0.6,1.1,1,1.5c0.4,0.4,0.9,0.7,1.5,0.9c0.6,0.2,1.2,0.3,1.8,0.3
		c0.7,0,1.3-0.1,1.8-0.3c0.6-0.2,1.1-0.5,1.5-0.9c0.4-0.4,0.7-0.9,1-1.5c0.2-0.6,0.4-1.3,0.4-2.1C208,125.1,207.8,124.4,207.6,123.8
		 M201,124.6c0.1-0.4,0.3-0.7,0.5-1c0.2-0.3,0.5-0.5,0.8-0.6c0.3-0.1,0.7-0.2,1-0.2c0.4,0,0.7,0.1,1,0.2s0.6,0.3,0.8,0.6
		c0.2,0.3,0.4,0.6,0.5,1c0.1,0.4,0.2,0.8,0.2,1.2c0,0.5-0.1,0.9-0.2,1.2c-0.1,0.4-0.3,0.7-0.5,0.9c-0.2,0.3-0.5,0.5-0.8,0.6
		c-0.3,0.1-0.7,0.2-1,0.2c-0.4,0-0.7-0.1-1-0.2c-0.3-0.1-0.6-0.3-0.8-0.6c-0.2-0.3-0.4-0.6-0.5-0.9c-0.1-0.4-0.2-0.8-0.2-1.2
		C200.9,125.4,200.9,125,201,124.6 M196.9,130.5v-9.3h-2.1v5.5c-0.3-0.5-0.7-1-1-1.5c-0.4-0.5-0.7-1-1.1-1.5
		c-0.4-0.5-0.7-0.9-1.1-1.4c-0.4-0.4-0.7-0.8-1-1.1h-1.7v9.3h2.1v-6.1c0.8,0.9,1.5,1.9,2.2,2.9c0.7,1,1.3,2.1,1.9,3.1H196.9z"/>
	<path class="st0" d="M117.1,211.4c0,0-35.4-15.8-26.4-47.7"/>
	<polyline class="st0" points="86,166.6 90.7,163.7 93.2,168.6 	"/>
	<path class="st0" d="M117.1,239.6c0,0-35.4,25.2-26.4,57.1"/>
	<polyline class="st0" points="86,293.8 90.7,296.7 93.2,291.8 	"/>
	<path class="st11" d="M88.2,200.4c0,0-1.2,14.1-1.3,30.7c-0.1,16.7,1.3,30.9,1.3,30.9s56.4,2.9,70.5,2.4
		c14.2-0.5,69.1-2.4,69.1-2.4s1.9-15,2.1-30.8c0.3-18.2-2.1-30.9-2.1-30.9s-52.4-2.3-71.9-2.4C136.5,197.9,88.2,200.4,88.2,200.4"/>
	<path class="st6" d="M216.6,239.7c0.1,0.2,0.2,0.5,0.3,0.8c0.1,0.3,0.2,0.6,0.4,1c0.1,0.4,0.3,0.8,0.4,1.2h-2.7
		c0.1-0.4,0.3-0.8,0.4-1.1c0.1-0.4,0.3-0.7,0.4-1c0.1-0.3,0.2-0.6,0.3-0.8c0.1-0.2,0.2-0.4,0.2-0.6
		C216.5,239.3,216.6,239.5,216.6,239.7 M221.2,246.4c-0.4-1-0.7-1.9-1-2.8c-0.3-0.8-0.6-1.6-0.9-2.4c-0.3-0.8-0.6-1.5-0.9-2.1
		c-0.3-0.7-0.6-1.3-0.9-2h-2c-0.3,0.6-0.6,1.3-0.9,2c-0.3,0.7-0.6,1.4-0.9,2.1c-0.3,0.8-0.6,1.6-0.9,2.4c-0.3,0.8-0.6,1.8-1,2.8h2.2
		c0.1-0.3,0.2-0.7,0.3-1c0.1-0.3,0.2-0.7,0.4-1h3.6c0.1,0.3,0.2,0.7,0.4,1c0.1,0.3,0.2,0.7,0.3,1H221.2z M204.6,237.1v1.8h2.8v7.5
		h2.1v-7.5h2.8v-1.8H204.6z M198.6,244.6c-0.4-0.1-0.7-0.3-1-0.4l-0.6,1.7c0.1,0.1,0.3,0.1,0.5,0.2c0.2,0.1,0.4,0.2,0.7,0.2
		c0.3,0.1,0.5,0.1,0.9,0.2c0.3,0,0.7,0.1,1.1,0.1c1.2,0,2.1-0.2,2.7-0.7c0.6-0.5,0.9-1.1,0.9-2c0-0.4-0.1-0.8-0.2-1.1
		c-0.1-0.3-0.3-0.6-0.5-0.8c-0.2-0.2-0.5-0.4-0.9-0.6c-0.4-0.2-0.8-0.4-1.3-0.5c-0.2-0.1-0.4-0.2-0.6-0.2c-0.2-0.1-0.4-0.2-0.5-0.3
		c-0.1-0.1-0.3-0.2-0.3-0.3c-0.1-0.1-0.1-0.3-0.1-0.4c0-0.3,0.1-0.5,0.3-0.6c0.2-0.1,0.6-0.2,1.1-0.2c0.4,0,0.8,0.1,1.1,0.2
		s0.6,0.2,0.9,0.4l0.6-1.6c-0.3-0.2-0.7-0.3-1.1-0.4c-0.5-0.1-1-0.2-1.6-0.2c-0.5,0-1,0.1-1.4,0.2c-0.4,0.1-0.8,0.3-1.1,0.6
		c-0.3,0.2-0.5,0.5-0.7,0.9c-0.2,0.3-0.2,0.7-0.2,1.2c0,0.4,0.1,0.8,0.2,1.1c0.2,0.3,0.3,0.6,0.6,0.8c0.2,0.2,0.5,0.4,0.8,0.5
		c0.3,0.1,0.6,0.3,0.9,0.4c0.7,0.2,1.2,0.4,1.5,0.6s0.4,0.5,0.4,0.8c0,0.1,0,0.3-0.1,0.4s-0.1,0.2-0.2,0.3c-0.1,0.1-0.3,0.2-0.5,0.2
		c-0.2,0-0.4,0.1-0.7,0.1C199.5,244.8,199,244.7,198.6,244.6 M193.2,246.4h2.1v-9.3h-2.1V246.4z M188.3,246.4
		c0.4-0.8,0.7-1.6,1.1-2.4c0.4-0.8,0.7-1.7,1-2.5c0.3-0.8,0.6-1.6,0.9-2.4c0.3-0.7,0.5-1.4,0.7-2h-2.2c-0.2,0.5-0.4,1.1-0.6,1.7
		c-0.2,0.6-0.4,1.2-0.6,1.9c-0.2,0.6-0.4,1.2-0.6,1.8c-0.2,0.6-0.4,1.1-0.6,1.5c-0.2-0.4-0.4-0.9-0.6-1.5c-0.2-0.6-0.4-1.2-0.6-1.8
		c-0.2-0.6-0.4-1.2-0.7-1.9c-0.2-0.6-0.4-1.2-0.6-1.7h-2.3c0.2,0.6,0.4,1.3,0.7,2c0.3,0.8,0.6,1.5,0.9,2.4c0.3,0.8,0.7,1.7,1,2.5
		c0.4,0.8,0.7,1.6,1.1,2.4H188.3z M181.7,246.4v-1.8h-4.5v-2.2h3.7v-1.7h-3.7v-1.8h4.2v-1.8h-6.3v9.3H181.7z M170.5,239
		c0.3,0.2,0.5,0.5,0.5,1c0,0.5-0.2,0.8-0.5,1c-0.3,0.2-0.9,0.3-1.7,0.3h-0.6v-2.5c0.1,0,0.2,0,0.3,0c0.1,0,0.3,0,0.4,0
		C169.7,238.7,170.2,238.8,170.5,239 M167.6,237c-0.5,0-1,0.1-1.4,0.2v9.2h2.1V243h1c0.2,0.2,0.4,0.5,0.5,0.7
		c0.2,0.3,0.4,0.5,0.5,0.8c0.2,0.3,0.4,0.6,0.5,0.9c0.2,0.3,0.3,0.6,0.5,0.9h2.3c-0.2-0.3-0.3-0.7-0.5-1c-0.2-0.4-0.4-0.7-0.6-1
		c-0.2-0.3-0.4-0.6-0.6-0.9c-0.2-0.3-0.4-0.6-0.6-0.8c0.6-0.2,1-0.6,1.3-1c0.3-0.4,0.4-0.9,0.4-1.6c0-1-0.4-1.8-1.1-2.3
		c-0.7-0.5-1.8-0.7-3.2-0.7C168.5,237,168.1,237,167.6,237 M157.2,239.7c0.1,0.2,0.2,0.5,0.3,0.8c0.1,0.3,0.2,0.6,0.4,1
		c0.1,0.4,0.3,0.8,0.4,1.2h-2.7c0.1-0.4,0.3-0.8,0.4-1.1c0.1-0.4,0.3-0.7,0.4-1c0.1-0.3,0.2-0.6,0.3-0.8c0.1-0.2,0.2-0.4,0.2-0.6
		C157.1,239.3,157.2,239.5,157.2,239.7 M161.8,246.4c-0.4-1-0.7-1.9-1-2.8c-0.3-0.8-0.6-1.6-0.9-2.4c-0.3-0.8-0.6-1.5-0.9-2.1
		c-0.3-0.7-0.6-1.3-0.9-2h-2c-0.3,0.6-0.6,1.3-0.9,2c-0.3,0.7-0.6,1.4-0.9,2.1c-0.3,0.8-0.6,1.6-0.9,2.4c-0.3,0.8-0.6,1.8-1,2.8h2.2
		c0.1-0.3,0.2-0.7,0.3-1c0.1-0.3,0.2-0.7,0.4-1h3.6c0.1,0.3,0.2,0.7,0.4,1c0.1,0.3,0.2,0.7,0.3,1H161.8z M148.3,239
		c0.3,0.2,0.5,0.5,0.5,1c0,0.5-0.2,0.8-0.5,1c-0.3,0.2-0.9,0.3-1.7,0.3H146v-2.5c0.1,0,0.2,0,0.3,0c0.1,0,0.3,0,0.4,0
		C147.4,238.7,147.9,238.8,148.3,239 M145.3,237c-0.5,0-1,0.1-1.4,0.2v9.2h2.1V243h1c0.2,0.2,0.4,0.5,0.5,0.7
		c0.2,0.3,0.4,0.5,0.5,0.8c0.2,0.3,0.4,0.6,0.5,0.9c0.2,0.3,0.3,0.6,0.5,0.9h2.3c-0.2-0.3-0.3-0.7-0.5-1c-0.2-0.4-0.4-0.7-0.6-1
		s-0.4-0.6-0.6-0.9c-0.2-0.3-0.4-0.6-0.6-0.8c0.6-0.2,1-0.6,1.3-1c0.3-0.4,0.4-0.9,0.4-1.6c0-1-0.4-1.8-1.1-2.3
		c-0.7-0.5-1.8-0.7-3.2-0.7C146.2,237,145.8,237,145.3,237 M134.9,237.1v1.8h2.8v7.5h2.1v-7.5h2.8v-1.8H134.9z M128.9,244.6
		c-0.4-0.1-0.7-0.3-1-0.4l-0.6,1.7c0.1,0.1,0.3,0.1,0.5,0.2c0.2,0.1,0.4,0.2,0.7,0.2s0.5,0.1,0.9,0.2c0.3,0,0.7,0.1,1.1,0.1
		c1.2,0,2.1-0.2,2.7-0.7c0.6-0.5,0.9-1.1,0.9-2c0-0.4-0.1-0.8-0.2-1.1c-0.1-0.3-0.3-0.6-0.5-0.8c-0.2-0.2-0.5-0.4-0.9-0.6
		c-0.4-0.2-0.8-0.4-1.3-0.5c-0.2-0.1-0.4-0.2-0.6-0.2s-0.4-0.2-0.5-0.3c-0.1-0.1-0.3-0.2-0.3-0.3c-0.1-0.1-0.1-0.3-0.1-0.4
		c0-0.3,0.1-0.5,0.3-0.6c0.2-0.1,0.6-0.2,1.1-0.2c0.4,0,0.8,0.1,1.1,0.2c0.3,0.1,0.6,0.2,0.9,0.4l0.6-1.6c-0.3-0.2-0.7-0.3-1.1-0.4
		c-0.5-0.1-1-0.2-1.6-0.2c-0.5,0-1,0.1-1.4,0.2c-0.4,0.1-0.8,0.3-1.1,0.6c-0.3,0.2-0.5,0.5-0.7,0.9c-0.2,0.3-0.2,0.7-0.2,1.2
		c0,0.4,0.1,0.8,0.2,1.1c0.2,0.3,0.3,0.6,0.6,0.8c0.2,0.2,0.5,0.4,0.8,0.5c0.3,0.1,0.6,0.3,0.9,0.4c0.7,0.2,1.2,0.4,1.5,0.6
		s0.4,0.5,0.4,0.8c0,0.1,0,0.3-0.1,0.4c0,0.1-0.1,0.2-0.2,0.3c-0.1,0.1-0.3,0.2-0.5,0.2c-0.2,0-0.4,0.1-0.7,0.1
		C129.8,244.8,129.3,244.7,128.9,244.6 M126.1,246.4v-1.8h-4.5v-2.2h3.7v-1.7h-3.7v-1.8h4.2v-1.8h-6.3v9.3H126.1z M115.3,246.3
		c0.5-0.2,0.9-0.4,1.2-0.8c0.3-0.3,0.5-0.7,0.7-1.2c0.2-0.5,0.2-1,0.2-1.5v-5.8h-2.1v5.6c0,0.8-0.2,1.3-0.5,1.6
		c-0.3,0.3-0.7,0.5-1.2,0.5c-0.2,0-0.5,0-0.7-0.1c-0.2-0.1-0.4-0.2-0.5-0.4c-0.1-0.2-0.3-0.4-0.3-0.6c-0.1-0.3-0.1-0.6-0.1-1v-5.6
		h-2.1v5.8c0,0.5,0.1,1,0.2,1.5c0.1,0.5,0.4,0.8,0.7,1.2c0.3,0.3,0.7,0.6,1.2,0.8c0.5,0.2,1,0.3,1.7,0.3
		C114.3,246.5,114.8,246.5,115.3,246.3 M107.7,246.4v-9.3h-2.1v5.5c-0.3-0.5-0.7-1-1-1.5c-0.4-0.5-0.7-1-1.1-1.5
		c-0.4-0.5-0.7-0.9-1.1-1.4c-0.4-0.4-0.7-0.8-1-1.1h-1.7v9.3h2.1v-6.1c0.8,0.9,1.5,1.9,2.2,2.9c0.7,1,1.3,2.1,1.9,3.1H107.7z"/>
	<path class="st6" d="M201.1,230.3V221H199v5.5c-0.3-0.5-0.7-1-1-1.5c-0.4-0.5-0.7-1-1.1-1.5s-0.7-0.9-1.1-1.4
		c-0.4-0.4-0.7-0.8-1-1.1h-1.7v9.3h2.1v-6.1c0.8,0.9,1.5,1.9,2.2,2.9c0.7,1,1.3,2.1,1.9,3.1H201.1z M191.4,230.3v-1.8h-4.5v-2.2h3.7
		v-1.7h-3.7v-1.8h4.2V221h-6.3v9.3H191.4z M174.8,228.5c-0.4-0.1-0.7-0.3-1-0.4l-0.6,1.7c0.1,0.1,0.3,0.1,0.5,0.2
		c0.2,0.1,0.4,0.2,0.7,0.2c0.3,0.1,0.5,0.1,0.9,0.2c0.3,0,0.7,0.1,1.1,0.1c1.2,0,2.1-0.2,2.7-0.7c0.6-0.5,0.9-1.1,0.9-2
		c0-0.4-0.1-0.8-0.2-1.1c-0.1-0.3-0.3-0.6-0.5-0.8c-0.2-0.2-0.5-0.4-0.9-0.6c-0.4-0.2-0.8-0.4-1.3-0.5c-0.2-0.1-0.4-0.2-0.6-0.2
		s-0.4-0.2-0.5-0.3c-0.1-0.1-0.3-0.2-0.3-0.3c-0.1-0.1-0.1-0.3-0.1-0.4c0-0.3,0.1-0.5,0.3-0.6c0.2-0.1,0.6-0.2,1.1-0.2
		c0.4,0,0.8,0.1,1.1,0.2s0.6,0.2,0.9,0.4l0.6-1.6c-0.3-0.2-0.7-0.3-1.1-0.4c-0.5-0.1-1-0.2-1.6-0.2c-0.5,0-1,0.1-1.4,0.2
		c-0.4,0.1-0.8,0.3-1.1,0.6c-0.3,0.2-0.5,0.5-0.7,0.9s-0.2,0.7-0.2,1.2c0,0.4,0.1,0.8,0.2,1.1c0.2,0.3,0.3,0.6,0.6,0.8
		c0.2,0.2,0.5,0.4,0.8,0.5c0.3,0.1,0.6,0.3,0.9,0.4c0.7,0.2,1.2,0.4,1.5,0.6c0.3,0.2,0.4,0.5,0.4,0.8c0,0.1,0,0.3-0.1,0.4
		c0,0.1-0.1,0.2-0.2,0.3c-0.1,0.1-0.3,0.2-0.5,0.2c-0.2,0-0.4,0.1-0.7,0.1C175.7,228.7,175.2,228.6,174.8,228.5 M172.1,230.3v-1.8
		h-4.5v-2.2h3.7v-1.7h-3.7v-1.8h4.2V221h-6.3v9.3H172.1z M162.9,230.3c0.5-0.1,1-0.3,1.2-0.5l-0.6-1.7c-0.1,0.1-0.2,0.1-0.4,0.2
		c-0.1,0.1-0.3,0.1-0.5,0.2s-0.4,0.1-0.6,0.1c-0.2,0-0.5,0.1-0.8,0.1c-0.5,0-0.9-0.1-1.2-0.2c-0.3-0.2-0.6-0.4-0.8-0.6
		c-0.2-0.3-0.4-0.6-0.5-1c-0.1-0.4-0.1-0.8-0.1-1.2c0-0.5,0.1-1,0.2-1.4c0.1-0.4,0.3-0.7,0.6-0.9c0.2-0.2,0.5-0.4,0.8-0.5
		c0.3-0.1,0.6-0.2,0.9-0.2c0.5,0,0.9,0.1,1.3,0.2c0.4,0.1,0.7,0.2,1,0.4l0.6-1.7c-0.1,0-0.2-0.1-0.3-0.2s-0.4-0.2-0.6-0.2
		s-0.5-0.1-0.8-0.2c-0.3-0.1-0.7-0.1-1.1-0.1c-0.7,0-1.3,0.1-1.9,0.3c-0.6,0.2-1.1,0.5-1.5,0.9c-0.4,0.4-0.8,0.9-1,1.5
		c-0.2,0.6-0.4,1.3-0.4,2.1c0,1.5,0.4,2.7,1.2,3.6c0.8,0.8,1.9,1.3,3.5,1.3C161.7,230.5,162.3,230.4,162.9,230.3 M154.6,230.3V221
		h-2.1v5.5c-0.3-0.5-0.7-1-1-1.5c-0.4-0.5-0.7-1-1.1-1.5c-0.4-0.5-0.7-0.9-1.1-1.4c-0.4-0.4-0.7-0.8-1-1.1h-1.7v9.3h2.1v-6.1
		c0.8,0.9,1.5,1.9,2.2,2.9c0.7,1,1.3,2.1,1.9,3.1H154.6z M140.8,223.6c0.1,0.2,0.2,0.5,0.3,0.8c0.1,0.3,0.2,0.6,0.4,1
		c0.1,0.4,0.3,0.8,0.4,1.2h-2.7c0.1-0.4,0.3-0.8,0.4-1.1c0.1-0.4,0.3-0.7,0.4-1c0.1-0.3,0.2-0.6,0.3-0.8c0.1-0.2,0.2-0.4,0.2-0.6
		C140.7,223.2,140.7,223.4,140.8,223.6 M145.3,230.3c-0.3-1-0.7-1.9-1-2.8c-0.3-0.8-0.6-1.6-0.9-2.4c-0.3-0.8-0.6-1.5-0.9-2.1
		c-0.3-0.7-0.6-1.3-0.9-2h-2c-0.3,0.6-0.6,1.3-0.9,2c-0.3,0.7-0.6,1.4-0.9,2.1c-0.3,0.8-0.6,1.6-0.9,2.4c-0.3,0.8-0.6,1.8-1,2.8h2.2
		c0.1-0.3,0.2-0.7,0.3-1c0.1-0.3,0.2-0.7,0.4-1h3.6c0.1,0.3,0.2,0.7,0.4,1c0.1,0.3,0.2,0.7,0.3,1H145.3z M132.7,230.3
		c0.4-0.8,0.7-1.6,1.1-2.4c0.4-0.8,0.7-1.7,1-2.5c0.3-0.8,0.6-1.6,0.9-2.4c0.3-0.7,0.5-1.4,0.7-2h-2.2c-0.2,0.5-0.4,1.1-0.6,1.7
		c-0.2,0.6-0.4,1.2-0.6,1.9c-0.2,0.6-0.4,1.2-0.6,1.8c-0.2,0.6-0.4,1.1-0.6,1.5c-0.2-0.4-0.4-0.9-0.6-1.5c-0.2-0.6-0.4-1.2-0.6-1.8
		c-0.2-0.6-0.4-1.2-0.7-1.9c-0.2-0.6-0.4-1.2-0.6-1.7h-2.3c0.2,0.6,0.4,1.3,0.7,2c0.3,0.8,0.6,1.5,0.9,2.4c0.3,0.8,0.7,1.7,1,2.5
		c0.4,0.8,0.7,1.6,1.1,2.4H132.7z M122.9,223.6c0.1,0.2,0.2,0.5,0.3,0.8c0.1,0.3,0.2,0.6,0.4,1c0.1,0.4,0.3,0.8,0.4,1.2h-2.7
		c0.1-0.4,0.3-0.8,0.4-1.1c0.1-0.4,0.3-0.7,0.4-1c0.1-0.3,0.2-0.6,0.3-0.8c0.1-0.2,0.2-0.4,0.2-0.6
		C122.7,223.2,122.8,223.4,122.9,223.6 M127.4,230.3c-0.4-1-0.7-1.9-1-2.8c-0.3-0.8-0.6-1.6-0.9-2.4c-0.3-0.8-0.6-1.5-0.9-2.1
		c-0.3-0.7-0.6-1.3-0.9-2h-2c-0.3,0.6-0.6,1.3-0.9,2c-0.3,0.7-0.6,1.4-0.9,2.1c-0.3,0.8-0.6,1.6-0.9,2.4c-0.3,0.8-0.6,1.8-1,2.8h2.2
		c0.1-0.3,0.2-0.7,0.3-1c0.1-0.3,0.2-0.7,0.4-1h3.6c0.1,0.3,0.2,0.7,0.4,1c0.1,0.3,0.2,0.7,0.3,1H127.4z"/>
</g>
</svg>
