<svg id="Capa_1" data-name="Capa 1" xmlns="http://www.w3.org/2000/svg" viewBox="0 0 215.15 160.57"><defs><style>.cls-1{fill:#e4e1f2;}.cls-2{fill:none;stroke:#1d1d1b;}.cls-3,.cls-5{fill:#1d1d1b;}.cls-4{font-size:14px;fill:#968ac1;font-family:Ubuntu-Bold, Ubuntu;font-weight:700;}.cls-5{font-size:12px;font-family:Ubuntu-Light, Ubuntu;font-weight:300;}</style></defs><path class="cls-1" d="M9.27,5.4A530,530,0,0,0,3.79,79a506.74,506.74,0,0,0,5.48,74.07S89,159.87,109,158.74s97.72-5.69,97.72-5.69,2.69-35.8,3-73.63c.37-43.55-3-74-3-74s-74.1-2.67-101.61-2.91S9.27,5.4,9.27,5.4"/><path class="cls-2" d="M8.29,5.36S4.09,44.9,4,84.82,8.29,153,8.29,153a507.07,507.07,0,0,0,76.18,6.8c71,.56,123.63-3.35,123.63-3.35s2.19-50.53,2.51-88.35c.37-43.52-4.16-62.69-4.16-62.69s-64.3-3.61-91.91-3.85S8.29,5.36,8.29,5.36Z"/><path class="cls-3" d="M19.24,25.19a4.7,4.7,0,0,1-1.68-.29,3.16,3.16,0,0,1-1.26-.85,3.72,3.72,0,0,1-.79-1.36,5.49,5.49,0,0,1-.28-1.85A5,5,0,0,1,15.55,19a4,4,0,0,1,.87-1.37,3.64,3.64,0,0,1,1.3-.84,4.36,4.36,0,0,1,1.59-.29,4.51,4.51,0,0,1,.94.08,7.28,7.28,0,0,1,.73.17,2.94,2.94,0,0,1,.52.21l.28.15-.44,1.24a3.26,3.26,0,0,0-.82-.34,3.92,3.92,0,0,0-1.16-.17,2.79,2.79,0,0,0-1,.19,2.15,2.15,0,0,0-.81.56,2.63,2.63,0,0,0-.53.93,4.06,4.06,0,0,0-.19,1.31A4.56,4.56,0,0,0,17,22a2.68,2.68,0,0,0,.46,1,2.1,2.1,0,0,0,.79.62,2.68,2.68,0,0,0,1.15.22,4.33,4.33,0,0,0,1.31-.16,5.89,5.89,0,0,0,.78-.3l.41,1.23a1.77,1.77,0,0,1-.39.19,4.94,4.94,0,0,1-.58.19,5.16,5.16,0,0,1-.76.14A6.37,6.37,0,0,1,19.24,25.19Z"/><path class="cls-3" d="M25.29,18.58a3.55,3.55,0,0,1,1.21.18,1.92,1.92,0,0,1,.79.5,2.07,2.07,0,0,1,.42.79,3.94,3.94,0,0,1,.12,1v3.8c-.22.05-.56.11-1,.18a10.07,10.07,0,0,1-1.53.1,4.65,4.65,0,0,1-1-.11,2.09,2.09,0,0,1-.8-.35,1.66,1.66,0,0,1-.52-.62,2.24,2.24,0,0,1-.18-.95A1.83,1.83,0,0,1,23,22.2a1.75,1.75,0,0,1,.57-.61,2.58,2.58,0,0,1,.83-.33,4.62,4.62,0,0,1,1-.1l.5,0a4.28,4.28,0,0,1,.57.1v-.24a1.86,1.86,0,0,0-.06-.48,1,1,0,0,0-.21-.4.89.89,0,0,0-.4-.27,1.58,1.58,0,0,0-.62-.1,5.29,5.29,0,0,0-.92.07,4.45,4.45,0,0,0-.68.17l-.18-1.18a7.45,7.45,0,0,1,.8-.19A6.72,6.72,0,0,1,25.29,18.58ZM25.41,24a6.19,6.19,0,0,0,1-.07V22.31a2.7,2.7,0,0,0-.35-.08,3.84,3.84,0,0,0-.5,0,4,4,0,0,0-.49,0,1.51,1.51,0,0,0-.44.14.71.71,0,0,0-.32.27.74.74,0,0,0-.12.44.77.77,0,0,0,.32.71A1.71,1.71,0,0,0,25.41,24Z"/><path class="cls-3" d="M33.16,20l-.5-.13a4,4,0,0,0-.74-.06,2.32,2.32,0,0,0-.51,0L31,20v5H29.58V19a8.37,8.37,0,0,1,1.05-.29A6.7,6.7,0,0,1,32,18.6l.34,0,.38.05.37.07a2.24,2.24,0,0,1,.29.08Z"/><path class="cls-3" d="M36.51,18.58a3.55,3.55,0,0,1,1.21.18,1.92,1.92,0,0,1,.79.5,2.07,2.07,0,0,1,.42.79,3.94,3.94,0,0,1,.12,1v3.8c-.22.05-.56.11-1,.18a10.07,10.07,0,0,1-1.53.1,4.65,4.65,0,0,1-1-.11,2.09,2.09,0,0,1-.8-.35,1.66,1.66,0,0,1-.52-.62,2.24,2.24,0,0,1-.18-.95,1.83,1.83,0,0,1,.21-.91,1.75,1.75,0,0,1,.57-.61,2.58,2.58,0,0,1,.83-.33,4.62,4.62,0,0,1,1-.1l.5,0a4.28,4.28,0,0,1,.57.1v-.24a1.86,1.86,0,0,0-.06-.48,1,1,0,0,0-.21-.4.89.89,0,0,0-.4-.27,1.58,1.58,0,0,0-.62-.1,5.29,5.29,0,0,0-.92.07,4.45,4.45,0,0,0-.68.17l-.18-1.18a7.45,7.45,0,0,1,.8-.19A6.72,6.72,0,0,1,36.51,18.58ZM36.63,24a6.19,6.19,0,0,0,1-.07V22.31a2.7,2.7,0,0,0-.35-.08,3.84,3.84,0,0,0-.5,0,4,4,0,0,0-.49,0,1.51,1.51,0,0,0-.44.14.71.71,0,0,0-.32.27.74.74,0,0,0-.12.44.77.77,0,0,0,.32.71A1.71,1.71,0,0,0,36.63,24Z"/><path class="cls-3" d="M40.47,21.88a4,4,0,0,1,.21-1.31,3.24,3.24,0,0,1,.62-1.05,3,3,0,0,1,1-.69,3.17,3.17,0,0,1,1.3-.25,4.33,4.33,0,0,1,1.68.32l-.32,1.19a3.2,3.2,0,0,0-.57-.18,2.87,2.87,0,0,0-.67-.07,1.59,1.59,0,0,0-1.3.53A2.28,2.28,0,0,0,42,21.88a2.39,2.39,0,0,0,.42,1.48,1.68,1.68,0,0,0,1.41.54,3.54,3.54,0,0,0,.73-.07,4,4,0,0,0,.63-.18l.2,1.2a3.29,3.29,0,0,1-.72.22,5.58,5.58,0,0,1-1,.09,3.68,3.68,0,0,1-1.39-.24,2.63,2.63,0,0,1-1-.69,2.86,2.86,0,0,1-.58-1A4.23,4.23,0,0,1,40.47,21.88Z"/><path class="cls-3" d="M46.42,17.08l1.45-.24v1.89H50.1v1.21H47.87V22.5a1.87,1.87,0,0,0,.24,1.08.94.94,0,0,0,.82.32,2.5,2.5,0,0,0,.7-.08c.2-.06.37-.11.49-.16l.24,1.16c-.17.07-.39.14-.66.22a4,4,0,0,1-1,.11A3.08,3.08,0,0,1,47.61,25a1.65,1.65,0,0,1-.71-.52,2,2,0,0,1-.37-.83,5.21,5.21,0,0,1-.11-1.11Z"/><path class="cls-3" d="M51.09,21.9a4,4,0,0,1,.24-1.45,3.2,3.2,0,0,1,.66-1,2.62,2.62,0,0,1,.93-.62A3,3,0,0,1,54,18.58a2.59,2.59,0,0,1,2,.8,3.51,3.51,0,0,1,.72,2.4v.27c0,.1,0,.19,0,.27H52.59a1.69,1.69,0,0,0,.53,1.17,2,2,0,0,0,1.38.41,4.75,4.75,0,0,0,1-.09,3.85,3.85,0,0,0,.69-.21l.19,1.19-.33.13-.48.12-.58.09q-.31,0-.63,0a3.88,3.88,0,0,1-1.44-.24,2.63,2.63,0,0,1-1-.69,2.7,2.7,0,0,1-.59-1A4.13,4.13,0,0,1,51.09,21.9Zm4.21-.65a2.12,2.12,0,0,0-.08-.57,1.51,1.51,0,0,0-.25-.47,1.23,1.23,0,0,0-.4-.31,1.31,1.31,0,0,0-.55-.11,1.35,1.35,0,0,0-.59.12,1.59,1.59,0,0,0-.43.33,2,2,0,0,0-.27.47,2.65,2.65,0,0,0-.13.54Z"/><path class="cls-3" d="M61.82,20l-.5-.13a4,4,0,0,0-.74-.06,2.32,2.32,0,0,0-.51,0l-.38.08v5H58.24V19a8.37,8.37,0,0,1,1-.29,6.7,6.7,0,0,1,1.4-.14l.33,0,.39.05.37.07a2.24,2.24,0,0,1,.29.08Z"/><path class="cls-3" d="M65.61,16.16l-2,1.9-.72-.65,1.77-2.1Zm-1,8.85H63.16V18.73h1.45Z"/><path class="cls-3" d="M68.06,24a2,2,0,0,0,.84-.13.51.51,0,0,0,.26-.48.59.59,0,0,0-.28-.51,4,4,0,0,0-.93-.45,7.34,7.34,0,0,1-.73-.3,2.69,2.69,0,0,1-.57-.38,1.62,1.62,0,0,1-.38-.52,1.9,1.9,0,0,1-.13-.75,1.66,1.66,0,0,1,.63-1.37,2.74,2.74,0,0,1,1.73-.49,5.22,5.22,0,0,1,1.06.1,4.77,4.77,0,0,1,.75.2l-.26,1.17a4,4,0,0,0-.61-.2,3.75,3.75,0,0,0-.87-.09,1.51,1.51,0,0,0-.72.15.5.5,0,0,0-.27.47.59.59,0,0,0,0,.27.56.56,0,0,0,.19.22,1.68,1.68,0,0,0,.34.21,4.88,4.88,0,0,0,.53.21,7,7,0,0,1,.88.38,2.22,2.22,0,0,1,.59.42,1.31,1.31,0,0,1,.34.53,2,2,0,0,1,.11.72A1.55,1.55,0,0,1,70,24.7a3.33,3.33,0,0,1-1.91.46A4.87,4.87,0,0,1,66.71,25,6.44,6.44,0,0,1,66,24.8l.25-1.21a6.57,6.57,0,0,0,.78.25A4,4,0,0,0,68.06,24Z"/><path class="cls-3" d="M71.87,17.08l1.45-.24v1.89h2.24v1.21H73.32V22.5a1.87,1.87,0,0,0,.24,1.08,1,1,0,0,0,.82.32,2.5,2.5,0,0,0,.7-.08,4.73,4.73,0,0,0,.49-.16l.24,1.16c-.17.07-.39.14-.66.22a3.9,3.9,0,0,1-1,.11A3,3,0,0,1,73.07,25a1.68,1.68,0,0,1-.72-.52,2,2,0,0,1-.37-.83,5.21,5.21,0,0,1-.11-1.11Z"/><path class="cls-3" d="M78.58,16.9a.84.84,0,0,1-.26.64.92.92,0,0,1-.63.24.88.88,0,0,1-.63-.24.81.81,0,0,1-.27-.64.87.87,0,0,1,.27-.67.92.92,0,0,1,.63-.23,1,1,0,0,1,.63.23A.9.9,0,0,1,78.58,16.9ZM78.42,25H77V18.73h1.45Z"/><path class="cls-3" d="M79.89,21.88a4,4,0,0,1,.21-1.31,3.24,3.24,0,0,1,.62-1.05,3,3,0,0,1,1-.69,3.17,3.17,0,0,1,1.3-.25,4.25,4.25,0,0,1,1.67.32l-.31,1.19a3.83,3.83,0,0,0-.57-.18,2.87,2.87,0,0,0-.67-.07,1.57,1.57,0,0,0-1.3.53,2.28,2.28,0,0,0-.44,1.51,2.39,2.39,0,0,0,.42,1.48,1.68,1.68,0,0,0,1.41.54,3.54,3.54,0,0,0,.73-.07,4,4,0,0,0,.63-.18l.2,1.2a3.29,3.29,0,0,1-.72.22,5.58,5.58,0,0,1-1,.09,3.68,3.68,0,0,1-1.39-.24,2.63,2.63,0,0,1-1-.69,2.86,2.86,0,0,1-.58-1A4.23,4.23,0,0,1,79.89,21.88Z"/><path class="cls-3" d="M88.12,18.58a3.55,3.55,0,0,1,1.21.18,1.92,1.92,0,0,1,.79.5,2.07,2.07,0,0,1,.42.79,3.94,3.94,0,0,1,.12,1v3.8c-.22.05-.56.11-1,.18a10.07,10.07,0,0,1-1.53.1,4.65,4.65,0,0,1-1-.11,2.09,2.09,0,0,1-.8-.35,1.66,1.66,0,0,1-.52-.62,2.24,2.24,0,0,1-.18-.95,1.83,1.83,0,0,1,.21-.91,1.75,1.75,0,0,1,.57-.61,2.58,2.58,0,0,1,.83-.33,4.62,4.62,0,0,1,1-.1l.5,0a4.28,4.28,0,0,1,.57.1v-.24a1.86,1.86,0,0,0-.06-.48,1,1,0,0,0-.21-.4.89.89,0,0,0-.4-.27,1.58,1.58,0,0,0-.62-.1,5.29,5.29,0,0,0-.92.07,4.45,4.45,0,0,0-.68.17l-.18-1.18a7.45,7.45,0,0,1,.8-.19A6.72,6.72,0,0,1,88.12,18.58ZM88.24,24a6.19,6.19,0,0,0,1-.07V22.31a2.7,2.7,0,0,0-.35-.08,3.84,3.84,0,0,0-.5,0,4,4,0,0,0-.49,0,1.51,1.51,0,0,0-.44.14.71.71,0,0,0-.32.27.74.74,0,0,0-.12.44.77.77,0,0,0,.32.71A1.71,1.71,0,0,0,88.24,24Z"/><path class="cls-3" d="M94,24a1.93,1.93,0,0,0,.84-.13.5.5,0,0,0,.27-.48.61.61,0,0,0-.28-.51,4,4,0,0,0-.93-.45,7.34,7.34,0,0,1-.73-.3,2.69,2.69,0,0,1-.57-.38,1.62,1.62,0,0,1-.38-.52,1.89,1.89,0,0,1-.14-.75,1.67,1.67,0,0,1,.64-1.37,2.74,2.74,0,0,1,1.73-.49,5.06,5.06,0,0,1,1,.1,4.65,4.65,0,0,1,.76.2L96,20.05a3.78,3.78,0,0,0-.62-.2,3.6,3.6,0,0,0-.86-.09,1.48,1.48,0,0,0-.72.15.51.51,0,0,0-.28.47.6.6,0,0,0,.06.27.53.53,0,0,0,.18.22,2.15,2.15,0,0,0,.35.21,4.88,4.88,0,0,0,.53.21,7.69,7.69,0,0,1,.88.38,2.22,2.22,0,0,1,.59.42,1.31,1.31,0,0,1,.34.53,2.18,2.18,0,0,1,.11.72,1.54,1.54,0,0,1-.67,1.36,3.27,3.27,0,0,1-1.9.46A4.87,4.87,0,0,1,92.69,25,5.79,5.79,0,0,1,92,24.8l.25-1.21a6.57,6.57,0,0,0,.78.25A4,4,0,0,0,94,24Z"/><path class="cls-3" d="M106.05,24.82c-.29.08-.65.16-1.09.24a8.66,8.66,0,0,1-1.37.1,3.77,3.77,0,0,1-1.34-.22,2.86,2.86,0,0,1-1-.66,2.83,2.83,0,0,1-.63-1,3.88,3.88,0,0,1-.23-1.36,4.68,4.68,0,0,1,.19-1.35,2.87,2.87,0,0,1,.55-1,2.48,2.48,0,0,1,.87-.67,3,3,0,0,1,1.19-.23,2.76,2.76,0,0,1,.8.11,2.87,2.87,0,0,1,.6.24v-3l1.46-.24Zm-4.17-3a2.27,2.27,0,0,0,.46,1.51,1.55,1.55,0,0,0,1.26.54,4.91,4.91,0,0,0,.59,0l.4-.06v-3.6a2,2,0,0,0-.51-.25,2.09,2.09,0,0,0-.67-.11,1.3,1.3,0,0,0-1.16.54A2.53,2.53,0,0,0,101.88,21.85Z"/><path class="cls-3" d="M107.53,21.9a4,4,0,0,1,.25-1.45,3,3,0,0,1,.65-1,2.75,2.75,0,0,1,.94-.62,2.88,2.88,0,0,1,1.08-.21,2.57,2.57,0,0,1,2,.8,3.46,3.46,0,0,1,.73,2.4,2.62,2.62,0,0,1,0,.27,2.13,2.13,0,0,1,0,.27H109a1.66,1.66,0,0,0,.54,1.17,2,2,0,0,0,1.37.41,4.85,4.85,0,0,0,1-.09,3.85,3.85,0,0,0,.69-.21l.19,1.19-.33.13L112,25l-.58.09c-.21,0-.42,0-.64,0a4,4,0,0,1-1.44-.24,2.71,2.71,0,0,1-1-.69,2.68,2.68,0,0,1-.58-1A4.12,4.12,0,0,1,107.53,21.9Zm4.22-.65a1.79,1.79,0,0,0-.09-.57,1.49,1.49,0,0,0-.24-.47,1.23,1.23,0,0,0-.4-.31,1.36,1.36,0,0,0-.56-.11,1.38,1.38,0,0,0-.59.12,1.54,1.54,0,0,0-.42.33,1.47,1.47,0,0,0-.27.47,2.12,2.12,0,0,0-.13.54Z"/><path class="cls-3" d="M122.68,24.82c-.28.07-.65.14-1.09.22a9.6,9.6,0,0,1-1.48.11,3.37,3.37,0,0,1-1.27-.21,2.1,2.1,0,0,1-.81-.6,2.38,2.38,0,0,1-.44-.92,4.82,4.82,0,0,1-.13-1.17V18.73h1.45V22a2.72,2.72,0,0,0,.29,1.44,1.16,1.16,0,0,0,1,.43l.56,0,.44-.06V18.73h1.45Z"/><path class="cls-3" d="M124.48,18.94a9.11,9.11,0,0,1,1.09-.23,9.63,9.63,0,0,1,1.49-.11,3.39,3.39,0,0,1,1.28.21,2,2,0,0,1,.82.59,2.21,2.21,0,0,1,.44.91,5.39,5.39,0,0,1,.12,1.17V25h-1.45v-3.3a4.26,4.26,0,0,0-.07-.86,1.46,1.46,0,0,0-.21-.58.94.94,0,0,0-.41-.32,1.67,1.67,0,0,0-.63-.1l-.58,0-.44.06V25h-1.45Z"/><path class="cls-3" d="M133.55,18.58a3.55,3.55,0,0,1,1.21.18,1.92,1.92,0,0,1,.79.5,2.07,2.07,0,0,1,.42.79,3.94,3.94,0,0,1,.12,1v3.8c-.22.05-.56.11-1,.18a10.07,10.07,0,0,1-1.53.1,4.65,4.65,0,0,1-1-.11,2.16,2.16,0,0,1-.8-.35,1.66,1.66,0,0,1-.52-.62,2.24,2.24,0,0,1-.18-.95,1.83,1.83,0,0,1,.21-.91,1.75,1.75,0,0,1,.57-.61,2.67,2.67,0,0,1,.83-.33,4.62,4.62,0,0,1,1-.1l.51,0a4.44,4.44,0,0,1,.56.1v-.24a1.86,1.86,0,0,0-.06-.48,1,1,0,0,0-.21-.4.89.89,0,0,0-.4-.27,1.56,1.56,0,0,0-.61-.1,5.33,5.33,0,0,0-.93.07,4.45,4.45,0,0,0-.68.17l-.18-1.18a7.45,7.45,0,0,1,.8-.19A6.72,6.72,0,0,1,133.55,18.58Zm.12,5.41a6.19,6.19,0,0,0,1-.07V22.31a2.7,2.7,0,0,0-.35-.08,3.84,3.84,0,0,0-.5,0l-.49,0a1.51,1.51,0,0,0-.44.14.76.76,0,0,0-.32.27.74.74,0,0,0-.12.44.77.77,0,0,0,.32.71A1.71,1.71,0,0,0,133.67,24Z"/><path class="cls-3" d="M146.32,21.88a4.25,4.25,0,0,1-.19,1.32,3,3,0,0,1-.53,1,2.31,2.31,0,0,1-.87.67,2.83,2.83,0,0,1-1.18.24,3,3,0,0,1-.82-.11,2.77,2.77,0,0,1-.61-.24v2.44h-1.45V18.94a10.61,10.61,0,0,1,1.09-.23,8.54,8.54,0,0,1,1.37-.11,3.71,3.71,0,0,1,1.33.23,2.84,2.84,0,0,1,1,.65,2.94,2.94,0,0,1,.64,1A4.19,4.19,0,0,1,146.32,21.88Zm-1.49,0a2.34,2.34,0,0,0-.44-1.51,1.71,1.71,0,0,0-1.41-.54,3,3,0,0,0-.42,0,2.13,2.13,0,0,0-.44.07v3.59a2.42,2.42,0,0,0,.51.25,2.15,2.15,0,0,0,.68.11,1.29,1.29,0,0,0,1.15-.54A2.49,2.49,0,0,0,144.83,21.9Z"/><path class="cls-3" d="M153.49,21.86a4.17,4.17,0,0,1-.21,1.36,3,3,0,0,1-.61,1,3,3,0,0,1-1,.68,3.07,3.07,0,0,1-1.23.24,3,3,0,0,1-1.22-.24,2.85,2.85,0,0,1-.95-.68,3.06,3.06,0,0,1-.62-1,4.28,4.28,0,0,1,0-2.71,3,3,0,0,1,.63-1,2.69,2.69,0,0,1,1-.67,3,3,0,0,1,1.21-.23,3,3,0,0,1,1.22.23,2.69,2.69,0,0,1,1,.67,3,3,0,0,1,.62,1A3.9,3.9,0,0,1,153.49,21.86Zm-1.48,0a2.45,2.45,0,0,0-.41-1.48,1.43,1.43,0,0,0-2.24,0,2.45,2.45,0,0,0-.4,1.48,2.45,2.45,0,0,0,.4,1.5,1.4,1.4,0,0,0,2.24,0A2.45,2.45,0,0,0,152,21.86Z"/><path class="cls-3" d="M158.56,20l-.5-.13a4,4,0,0,0-.74-.06,2.32,2.32,0,0,0-.51,0l-.38.08v5H155V19a8.37,8.37,0,0,1,1.05-.29,6.7,6.7,0,0,1,1.4-.14l.34,0,.38.05.37.07a2.24,2.24,0,0,1,.29.08Z"/><path class="cls-3" d="M159.85,17.08l1.46-.24v1.89h2.23v1.21h-2.23V22.5a1.87,1.87,0,0,0,.24,1.08.93.93,0,0,0,.81.32,2.45,2.45,0,0,0,.7-.08,4.73,4.73,0,0,0,.49-.16l.24,1.16c-.17.07-.39.14-.66.22a3.84,3.84,0,0,1-1,.11,3,3,0,0,1-1.12-.18,1.68,1.68,0,0,1-.72-.52,2.11,2.11,0,0,1-.37-.83,5.21,5.21,0,0,1-.11-1.11Z"/><path class="cls-3" d="M167.14,18.58a3.55,3.55,0,0,1,1.21.18,1.92,1.92,0,0,1,.79.5,2.07,2.07,0,0,1,.42.79,3.94,3.94,0,0,1,.12,1v3.8c-.22.05-.56.11-1,.18a10.07,10.07,0,0,1-1.53.1,4.65,4.65,0,0,1-1-.11,2.09,2.09,0,0,1-.8-.35,1.66,1.66,0,0,1-.52-.62,2.24,2.24,0,0,1-.18-.95,1.83,1.83,0,0,1,.21-.91,1.75,1.75,0,0,1,.57-.61,2.58,2.58,0,0,1,.83-.33,4.55,4.55,0,0,1,1-.1l.5,0a4.28,4.28,0,0,1,.57.1v-.24a1.86,1.86,0,0,0-.06-.48,1,1,0,0,0-.21-.4,1,1,0,0,0-.4-.27,1.58,1.58,0,0,0-.62-.1,5.29,5.29,0,0,0-.92.07,4.45,4.45,0,0,0-.68.17l-.18-1.18a7.45,7.45,0,0,1,.8-.19A6.72,6.72,0,0,1,167.14,18.58Zm.12,5.41a6.19,6.19,0,0,0,1-.07V22.31a2.7,2.7,0,0,0-.35-.08,3.84,3.84,0,0,0-.5,0,4,4,0,0,0-.49,0,1.42,1.42,0,0,0-.44.14.71.71,0,0,0-.32.27.74.74,0,0,0-.12.44.77.77,0,0,0,.32.71A1.71,1.71,0,0,0,167.26,24Z"/><path class="cls-3" d="M176.76,24.82q-.44.12-1.08.24a8.79,8.79,0,0,1-1.38.1,3.71,3.71,0,0,1-1.33-.22,2.77,2.77,0,0,1-1-.66,2.85,2.85,0,0,1-.64-1,3.88,3.88,0,0,1-.22-1.36,4.36,4.36,0,0,1,.19-1.35,2.86,2.86,0,0,1,.54-1,2.43,2.43,0,0,1,.88-.67,2.92,2.92,0,0,1,1.18-.23,2.78,2.78,0,0,1,.81.11,3.4,3.4,0,0,1,.6.24v-3l1.45-.24Zm-4.16-3a2.32,2.32,0,0,0,.45,1.51,1.58,1.58,0,0,0,1.26.54,5.21,5.21,0,0,0,.6,0l.4-.06v-3.6a2.42,2.42,0,0,0-.51-.25,2.15,2.15,0,0,0-.68-.11,1.31,1.31,0,0,0-1.16.54A2.61,2.61,0,0,0,172.6,21.85Z"/><path class="cls-3" d="M180.67,18.58a3.61,3.61,0,0,1,1.22.18,1.88,1.88,0,0,1,.78.5,1.83,1.83,0,0,1,.42.79,3.53,3.53,0,0,1,.13,1v3.8l-1,.18a10.07,10.07,0,0,1-1.53.1,4.72,4.72,0,0,1-1-.11,2.16,2.16,0,0,1-.8-.35,1.55,1.55,0,0,1-.51-.62,2.09,2.09,0,0,1-.19-.95,1.83,1.83,0,0,1,.21-.91,1.75,1.75,0,0,1,.57-.61,2.63,2.63,0,0,1,.84-.33,4.46,4.46,0,0,1,1-.1l.51,0a4.44,4.44,0,0,1,.56.1v-.24a1.86,1.86,0,0,0-.06-.48,1,1,0,0,0-.21-.4.91.91,0,0,0-.39-.27,1.61,1.61,0,0,0-.62-.1,5.21,5.21,0,0,0-.92.07,4.62,4.62,0,0,0-.69.17l-.18-1.18a8.11,8.11,0,0,1,.8-.19A6.81,6.81,0,0,1,180.67,18.58Zm.12,5.41a6.19,6.19,0,0,0,1-.07V22.31a2.49,2.49,0,0,0-.34-.08,4,4,0,0,0-.51,0,3.87,3.87,0,0,0-.48,0,1.49,1.49,0,0,0-.45.14.76.76,0,0,0-.32.27.74.74,0,0,0-.12.44.76.76,0,0,0,.33.71A1.67,1.67,0,0,0,180.79,24Z"/><path class="cls-3" d="M186.58,19.73a.9.9,0,0,1-.28.68,1,1,0,0,1-1.37,0,.9.9,0,0,1-.27-.68.93.93,0,0,1,.27-.69,1,1,0,0,1,1.37,0A.94.94,0,0,1,186.58,19.73Zm0,4.49a.92.92,0,0,1-.28.68,1,1,0,0,1-1.37,0,.91.91,0,0,1-.27-.68,1,1,0,0,1,.27-.7,1,1,0,0,1,1.37,0A1,1,0,0,1,186.58,24.22Z"/><text class="cls-4" transform="translate(14.55 45.08)">•</text><text class="cls-4" transform="translate(19.64 45.08)"> </text><path class="cls-3" d="M27,45.08V36.76h4.8v.71h-4v2.89h3.56v.7H27.78v3.31h4.3v.71Z"/><path class="cls-3" d="M35.08,44.52a2.41,2.41,0,0,0,1.11-.22.78.78,0,0,0,.44-.75,1.1,1.1,0,0,0-.08-.43.79.79,0,0,0-.26-.32,2.24,2.24,0,0,0-.47-.28l-.73-.31c-.23-.1-.45-.19-.66-.3a2.32,2.32,0,0,1-.55-.34,1.53,1.53,0,0,1-.39-.48,1.48,1.48,0,0,1-.14-.67,1.5,1.5,0,0,1,.57-1.22,2.35,2.35,0,0,1,1.57-.47,4.39,4.39,0,0,1,1,.11,3,3,0,0,1,.58.19l-.18.7a4.22,4.22,0,0,0-.49-.2,3.19,3.19,0,0,0-1-.12,2,2,0,0,0-.5.06,1.15,1.15,0,0,0-.41.17.86.86,0,0,0-.29.28.93.93,0,0,0,0,.86.94.94,0,0,0,.28.32,2.43,2.43,0,0,0,.46.26l.61.26.69.3a3.06,3.06,0,0,1,.59.35,1.68,1.68,0,0,1,.4.51,1.5,1.5,0,0,1,.16.74,1.44,1.44,0,0,1-.63,1.27,3,3,0,0,1-1.72.43,4.38,4.38,0,0,1-1.25-.14,4.43,4.43,0,0,1-.58-.21l.21-.71a.47.47,0,0,0,.15.08,2,2,0,0,0,.33.12,3.72,3.72,0,0,0,.48.12A4.33,4.33,0,0,0,35.08,44.52Z"/><path class="cls-3" d="M43.56,44.24c.17-.35.34-.74.51-1.19s.35-.9.52-1.38.31-1,.45-1.44.26-.93.36-1.36h.78q-.23.85-.48,1.68t-.57,1.62c-.19.53-.4,1-.61,1.53s-.42.95-.62,1.38h-.73q-.31-.64-.63-1.38c-.21-.49-.41-1-.61-1.53s-.38-1.06-.56-1.62-.34-1.11-.48-1.68h.82c.1.43.22.88.36,1.36s.29,1,.46,1.44.33.94.51,1.38S43.39,43.89,43.56,44.24Z"/><path class="cls-3" d="M48.43,37a.58.58,0,0,1-.16.44.57.57,0,0,1-.41.16.56.56,0,0,1-.41-.16.59.59,0,0,1-.17-.44.6.6,0,0,1,.17-.44.56.56,0,0,1,.41-.16.57.57,0,0,1,.41.16A.6.6,0,0,1,48.43,37Zm-.18,8.08h-.78V38.87h.78Z"/><path class="cls-3" d="M51.51,44.52a2.47,2.47,0,0,0,1.11-.22.78.78,0,0,0,.43-.75,1.11,1.11,0,0,0-.07-.43.88.88,0,0,0-.26-.32,2.1,2.1,0,0,0-.48-.28l-.72-.31c-.23-.1-.45-.19-.66-.3a2.32,2.32,0,0,1-.55-.34,1.53,1.53,0,0,1-.39-.48,1.48,1.48,0,0,1-.14-.67,1.5,1.5,0,0,1,.57-1.22,2.34,2.34,0,0,1,1.56-.47,4.27,4.27,0,0,1,1.05.11,3.13,3.13,0,0,1,.59.19l-.18.7a4.22,4.22,0,0,0-.49-.2,3.19,3.19,0,0,0-1-.12,2,2,0,0,0-.5.06,1.08,1.08,0,0,0-.41.17.86.86,0,0,0-.29.28.93.93,0,0,0,0,.86.84.84,0,0,0,.28.32,2.32,2.32,0,0,0,.45.26l.62.26.69.3a2.7,2.7,0,0,1,.58.35,1.57,1.57,0,0,1,.41.51,1.5,1.5,0,0,1,.16.74,1.44,1.44,0,0,1-.63,1.27,3,3,0,0,1-1.72.43,4.38,4.38,0,0,1-1.25-.14,4.43,4.43,0,0,1-.58-.21l.21-.71a.47.47,0,0,0,.15.08,2,2,0,0,0,.33.12,3.35,3.35,0,0,0,.48.12A4.33,4.33,0,0,0,51.51,44.52Z"/><path class="cls-3" d="M60.05,44.86c-.23.06-.54.14-.94.22a7.31,7.31,0,0,1-1.44.12A2.83,2.83,0,0,1,56.51,45a2,2,0,0,1-.76-.57,2.33,2.33,0,0,1-.41-.9,5.3,5.3,0,0,1-.13-1.17V38.87H56V42.1a5.88,5.88,0,0,0,.1,1.12,1.75,1.75,0,0,0,.31.73,1.21,1.21,0,0,0,.56.41,2.3,2.3,0,0,0,.83.13,6.65,6.65,0,0,0,1-.06,2.56,2.56,0,0,0,.52-.11V38.87h.78Z"/><path class="cls-3" d="M63.91,38.73a2.86,2.86,0,0,1,1,.17,1.78,1.78,0,0,1,.69.48,1.91,1.91,0,0,1,.39.73,3.28,3.28,0,0,1,.12.91v3.91a2.7,2.7,0,0,1-.35.08l-.53.09-.67.08q-.36,0-.75,0a3.64,3.64,0,0,1-.9-.11,2,2,0,0,1-.72-.34,1.56,1.56,0,0,1-.48-.6,2,2,0,0,1-.18-.89,1.8,1.8,0,0,1,.2-.87,1.46,1.46,0,0,1,.54-.59,2.45,2.45,0,0,1,.82-.35,4.93,4.93,0,0,1,1.05-.1h.35l.36.05.3.06.18.06v-.39a4.46,4.46,0,0,0-.05-.63,1.31,1.31,0,0,0-.21-.55,1.21,1.21,0,0,0-.46-.4,1.81,1.81,0,0,0-.77-.15,4.11,4.11,0,0,0-1,.1,4,4,0,0,0-.49.16L62.26,39a3.16,3.16,0,0,1,.63-.18A5.86,5.86,0,0,1,63.91,38.73ZM64,44.51c.3,0,.57,0,.79,0a4,4,0,0,0,.59-.08V42.22a3.13,3.13,0,0,0-.42-.13,5,5,0,0,0-1.4,0,1.81,1.81,0,0,0-.57.18,1.13,1.13,0,0,0-.43.38,1,1,0,0,0-.17.64,1.43,1.43,0,0,0,.11.58,1,1,0,0,0,.33.39,1.64,1.64,0,0,0,.5.21A3.4,3.4,0,0,0,64,44.51Z"/><path class="cls-3" d="M69.66,45.19a2.77,2.77,0,0,1-.69-.11,1.12,1.12,0,0,1-.79-.75,2.28,2.28,0,0,1-.1-.74V35.91l.78-.14v7.8a1.89,1.89,0,0,0,0,.46.72.72,0,0,0,.16.27.67.67,0,0,0,.29.15l.41.09Z"/><path class="cls-3" d="M71.14,39.09c.23-.07.53-.14.9-.22a7.21,7.21,0,0,1,1.45-.12,2,2,0,0,1,1.7.69,2,2,0,0,1,.24-.17,3.46,3.46,0,0,1,.44-.23,2.91,2.91,0,0,1,.61-.2,3.24,3.24,0,0,1,.79-.09,2.72,2.72,0,0,1,1.15.21,1.61,1.61,0,0,1,.67.59,2.46,2.46,0,0,1,.33.91,8.09,8.09,0,0,1,.08,1.15v3.47h-.78V41.86c0-.41,0-.76,0-1.06a2.14,2.14,0,0,0-.22-.75,1.09,1.09,0,0,0-.46-.44,1.75,1.75,0,0,0-.78-.15,2.59,2.59,0,0,0-.65.07,2,2,0,0,0-.51.16,2,2,0,0,0-.36.19l-.2.14a3.52,3.52,0,0,1,.17.71,7.08,7.08,0,0,1,0,.82v3.53h-.78V41.86c0-.41,0-.76-.05-1.06a2,2,0,0,0-.23-.75,1.11,1.11,0,0,0-.47-.44,1.83,1.83,0,0,0-.81-.15,6.32,6.32,0,0,0-1,.06,2.61,2.61,0,0,0-.5.11v5.45h-.78Z"/><path class="cls-3" d="M81.1,42a4,4,0,0,1,.23-1.42,3.29,3.29,0,0,1,.61-1,2.43,2.43,0,0,1,.87-.6,2.48,2.48,0,0,1,1-.2,2.36,2.36,0,0,1,1.82.74,3.34,3.34,0,0,1,.68,2.3c0,.06,0,.12,0,.19a1.1,1.1,0,0,1,0,.18H81.93a2.73,2.73,0,0,0,.56,1.75,2.09,2.09,0,0,0,1.68.61,3.44,3.44,0,0,0,1-.12,5.21,5.21,0,0,0,.54-.2l.14.67a3.54,3.54,0,0,1-.63.23,4.32,4.32,0,0,1-1.08.13,3.66,3.66,0,0,1-1.4-.24,2.51,2.51,0,0,1-.94-.67,2.61,2.61,0,0,1-.54-1A4.49,4.49,0,0,1,81.1,42Zm4.4-.49A2.5,2.5,0,0,0,85.05,40a1.52,1.52,0,0,0-1.23-.54,1.66,1.66,0,0,0-.75.17,1.93,1.93,0,0,0-.57.45,2,2,0,0,0-.39.66,2.77,2.77,0,0,0-.16.78Z"/><path class="cls-3" d="M88,39.09c.23-.07.54-.14.94-.22a7.31,7.31,0,0,1,1.44-.12,2.93,2.93,0,0,1,1.18.21,1.75,1.75,0,0,1,.75.58,2.33,2.33,0,0,1,.41.9,5.39,5.39,0,0,1,.12,1.17v3.47H92V41.86a6,6,0,0,0-.09-1.12,1.85,1.85,0,0,0-.3-.74,1.16,1.16,0,0,0-.56-.41,2.3,2.3,0,0,0-.85-.13,6.65,6.65,0,0,0-1,.06,3,3,0,0,0-.52.11v5.45H88Z"/><path class="cls-3" d="M95.46,38.87h2.47v.66H95.46v3.3a3.33,3.33,0,0,0,.09.86,1.22,1.22,0,0,0,.26.51.82.82,0,0,0,.41.24,2.15,2.15,0,0,0,.53.06,2.46,2.46,0,0,0,.79-.11l.47-.21.19.64a2.32,2.32,0,0,1-.59.25,2.94,2.94,0,0,1-.91.14,2.71,2.71,0,0,1-1-.15,1.32,1.32,0,0,1-.62-.46,1.71,1.71,0,0,1-.33-.76,4.84,4.84,0,0,1-.1-1.08V37.05l.78-.15Z"/><path class="cls-3" d="M98.94,42a3.8,3.8,0,0,1,.24-1.42,3.11,3.11,0,0,1,.61-1,2.4,2.4,0,0,1,.86-.6,2.52,2.52,0,0,1,1-.2,2.36,2.36,0,0,1,1.82.74,3.34,3.34,0,0,1,.68,2.3,1.28,1.28,0,0,1,0,.19c0,.06,0,.12,0,.18H99.77a2.73,2.73,0,0,0,.56,1.75,2.12,2.12,0,0,0,1.68.61,3.39,3.39,0,0,0,1-.12,5.21,5.21,0,0,0,.54-.2l.15.67a4.3,4.3,0,0,1-.63.23,4.34,4.34,0,0,1-1.09.13A3.6,3.6,0,0,1,100.6,45a2.55,2.55,0,0,1-.95-.67,2.61,2.61,0,0,1-.54-1A4.87,4.87,0,0,1,98.94,42Zm4.41-.49a2.5,2.5,0,0,0-.46-1.52,1.51,1.51,0,0,0-1.22-.54,1.66,1.66,0,0,0-.75.17,2,2,0,0,0-.58.45,2.15,2.15,0,0,0-.38.66,2.47,2.47,0,0,0-.17.78Z"/><path class="cls-3" d="M110.51,38.73a2.9,2.9,0,0,1,1,.17,1.94,1.94,0,0,1,.69.48,2,2,0,0,1,.38.73,3.28,3.28,0,0,1,.12.91v3.91a2.35,2.35,0,0,1-.35.08l-.52.09-.67.08q-.36,0-.75,0a3.72,3.72,0,0,1-.91-.11,2.17,2.17,0,0,1-.72-.34,1.77,1.77,0,0,1-.48-.6,2.17,2.17,0,0,1-.17-.89,1.8,1.8,0,0,1,.19-.87,1.61,1.61,0,0,1,.54-.59,2.5,2.5,0,0,1,.83-.35,4.9,4.9,0,0,1,1-.1h.36l.36.05.3.06.17.06v-.39a3.35,3.35,0,0,0,0-.63,1.31,1.31,0,0,0-.21-.55,1.17,1.17,0,0,0-.45-.4,1.9,1.9,0,0,0-.78-.15,4.22,4.22,0,0,0-1,.1c-.22.06-.38.12-.49.16l-.11-.69a3.64,3.64,0,0,1,.63-.18A6.07,6.07,0,0,1,110.51,38.73Zm.07,5.78c.31,0,.57,0,.8,0a3.87,3.87,0,0,0,.58-.08V42.22a3.13,3.13,0,0,0-.42-.13,4,4,0,0,0-.79-.06,4.22,4.22,0,0,0-.6,0,1.87,1.87,0,0,0-.58.18,1.21,1.21,0,0,0-.43.38,1.1,1.1,0,0,0-.17.64,1.28,1.28,0,0,0,.12.58.94.94,0,0,0,.32.39,1.7,1.7,0,0,0,.51.21A3.23,3.23,0,0,0,110.58,44.51Z"/><path class="cls-3" d="M115.42,38.87h2.47v.66h-2.47v3.3a3.33,3.33,0,0,0,.09.86,1.12,1.12,0,0,0,.26.51.79.79,0,0,0,.4.24,2.2,2.2,0,0,0,.53.06,2.42,2.42,0,0,0,.79-.11,4.71,4.71,0,0,0,.47-.21l.19.64a2.22,2.22,0,0,1-.58.25,3,3,0,0,1-.92.14,2.69,2.69,0,0,1-1-.15,1.4,1.4,0,0,1-.63-.46,2,2,0,0,1-.33-.76,5.59,5.59,0,0,1-.09-1.08V37.05l.78-.15Z"/><path class="cls-3" d="M121.51,38.75a4.23,4.23,0,0,1,.73.06,2,2,0,0,1,.47.12l-.15.68a1.61,1.61,0,0,0-.39-.11,5.35,5.35,0,0,0-.78,0,3.63,3.63,0,0,0-.81.07,3,3,0,0,0-.4.12v5.44h-.78V39.16a5.4,5.4,0,0,1,.83-.27A5.21,5.21,0,0,1,121.51,38.75Z"/><path class="cls-3" d="M125.75,38.73a2.9,2.9,0,0,1,1,.17,1.94,1.94,0,0,1,.69.48,2,2,0,0,1,.38.73A3.28,3.28,0,0,1,128,41v3.91a2.7,2.7,0,0,1-.35.08l-.52.09-.67.08q-.37,0-.75,0a3.72,3.72,0,0,1-.91-.11,2.17,2.17,0,0,1-.72-.34,1.77,1.77,0,0,1-.48-.6,2.17,2.17,0,0,1-.17-.89,1.8,1.8,0,0,1,.19-.87,1.61,1.61,0,0,1,.54-.59,2.5,2.5,0,0,1,.83-.35,4.9,4.9,0,0,1,1-.1h.36l.36.05.3.06.17.06v-.39a3.35,3.35,0,0,0,0-.63,1.31,1.31,0,0,0-.21-.55,1.25,1.25,0,0,0-.45-.4,1.9,1.9,0,0,0-.78-.15,4.22,4.22,0,0,0-1,.1,4.71,4.71,0,0,0-.49.16l-.11-.69a3.64,3.64,0,0,1,.63-.18A6.07,6.07,0,0,1,125.75,38.73Zm.07,5.78c.3,0,.57,0,.8,0a3.87,3.87,0,0,0,.58-.08V42.22a3.13,3.13,0,0,0-.42-.13A4.08,4.08,0,0,0,126,42a4.22,4.22,0,0,0-.6,0,1.87,1.87,0,0,0-.58.18,1.21,1.21,0,0,0-.43.38,1.1,1.1,0,0,0-.17.64,1.28,1.28,0,0,0,.12.58.94.94,0,0,0,.32.39,1.75,1.75,0,0,0,.5.21A3.4,3.4,0,0,0,125.82,44.51Z"/><path class="cls-3" d="M132.54,45.21a3.34,3.34,0,0,1-1.27-.23,2.37,2.37,0,0,1-.92-.65,3.15,3.15,0,0,1-.56-1,4.6,4.6,0,0,1,0-2.65,3,3,0,0,1,.57-1,2.59,2.59,0,0,1,.9-.67,3,3,0,0,1,1.19-.23,5.58,5.58,0,0,1,.94.08,2.46,2.46,0,0,1,.68.22l-.21.67a2.63,2.63,0,0,0-.54-.19,3.48,3.48,0,0,0-.8-.07,1.91,1.91,0,0,0-1.57.66,3,3,0,0,0-.53,1.89,4.08,4.08,0,0,0,.12,1,2,2,0,0,0,.39.79,1.91,1.91,0,0,0,.69.52,2.73,2.73,0,0,0,1,.18,2.92,2.92,0,0,0,.85-.11c.23-.08.39-.15.5-.2l.17.67a2.77,2.77,0,0,1-.68.23A3.85,3.85,0,0,1,132.54,45.21Z"/><path class="cls-3" d="M136.21,38.87h2.47v.66h-2.47v3.3a3.33,3.33,0,0,0,.09.86,1.22,1.22,0,0,0,.26.51.82.82,0,0,0,.41.24,2.15,2.15,0,0,0,.53.06,2.46,2.46,0,0,0,.79-.11l.47-.21.19.64a2.32,2.32,0,0,1-.59.25,2.94,2.94,0,0,1-.91.14,2.75,2.75,0,0,1-1-.15,1.32,1.32,0,0,1-.62-.46,1.71,1.71,0,0,1-.33-.76,4.84,4.84,0,0,1-.1-1.08V37.05l.78-.15Z"/><path class="cls-3" d="M141.16,37a.59.59,0,0,1-.17.44.61.61,0,0,1-.82,0A.59.59,0,0,1,140,37a.6.6,0,0,1,.17-.44.61.61,0,0,1,.82,0A.6.6,0,0,1,141.16,37ZM141,45.08h-.78V38.87H141Z"/><path class="cls-3" d="M144.94,44.24c.17-.35.34-.74.52-1.19s.35-.9.51-1.38.32-1,.46-1.44.26-.93.35-1.36h.79c-.15.57-.31,1.13-.49,1.68s-.36,1.1-.56,1.62-.4,1-.62,1.53-.42.95-.62,1.38h-.72q-.31-.64-.63-1.38c-.21-.49-.42-1-.61-1.53s-.39-1.06-.56-1.62-.34-1.11-.49-1.68h.83c.1.43.22.88.36,1.36s.29,1,.45,1.44.34.94.51,1.38S144.77,43.89,144.94,44.24Z"/><path class="cls-3" d="M150.64,38.73a2.85,2.85,0,0,1,1,.17,1.78,1.78,0,0,1,.69.48,1.91,1.91,0,0,1,.39.73,3.28,3.28,0,0,1,.12.91v3.91a2.7,2.7,0,0,1-.35.08l-.53.09-.66.08q-.37,0-.75,0a3.72,3.72,0,0,1-.91-.11,2,2,0,0,1-.72-.34,1.77,1.77,0,0,1-.48-.6,2,2,0,0,1-.17-.89,1.8,1.8,0,0,1,.19-.87,1.61,1.61,0,0,1,.54-.59,2.5,2.5,0,0,1,.83-.35,4.83,4.83,0,0,1,1-.1h.35l.36.05.3.06.18.06v-.39a4.46,4.46,0,0,0-.05-.63,1.31,1.31,0,0,0-.21-.55,1.21,1.21,0,0,0-.46-.4,1.81,1.81,0,0,0-.77-.15,4.11,4.11,0,0,0-1,.1,4.71,4.71,0,0,0-.49.16L149,39a3.64,3.64,0,0,1,.63-.18A6,6,0,0,1,150.64,38.73Zm.07,5.78c.3,0,.57,0,.8,0a4.06,4.06,0,0,0,.58-.08V42.22a3.13,3.13,0,0,0-.42-.13,4.08,4.08,0,0,0-.79-.06,4,4,0,0,0-.6,0,1.87,1.87,0,0,0-.58.18,1.13,1.13,0,0,0-.43.38,1.1,1.1,0,0,0-.17.64,1.43,1.43,0,0,0,.11.58,1,1,0,0,0,.33.39,1.75,1.75,0,0,0,.5.21A3.4,3.4,0,0,0,150.71,44.51Z"/><path class="cls-3" d="M156,44.56a.67.67,0,0,1-.17.47.63.63,0,0,1-.49.19.6.6,0,0,1-.48-.19.7.7,0,0,1,0-.94.6.6,0,0,1,.48-.19.63.63,0,0,1,.49.19A.67.67,0,0,1,156,44.56Z"/><text class="cls-4" transform="translate(14.55 62.31)">•</text><text class="cls-4" transform="translate(19.64 62.31)"> </text><path class="cls-3" d="M29.07,53.92a4.21,4.21,0,0,1,2.62.68,2.25,2.25,0,0,1,.87,1.9,2.74,2.74,0,0,1-.25,1.21,2.06,2.06,0,0,1-.72.8,3.41,3.41,0,0,1-1.15.45,7.82,7.82,0,0,1-1.53.14H27.78v3.21H27V54.15A5.16,5.16,0,0,1,28,54,10.67,10.67,0,0,1,29.07,53.92Zm0,.71c-.3,0-.56,0-.77,0l-.55.06v3.67h1A8.68,8.68,0,0,0,30,58.31a2.63,2.63,0,0,0,.91-.29,1.41,1.41,0,0,0,.58-.58,1.91,1.91,0,0,0,.21-.95,1.68,1.68,0,0,0-.23-.91A1.59,1.59,0,0,0,30.9,55a2.53,2.53,0,0,0-.84-.29A5,5,0,0,0,29.1,54.63Z"/><path class="cls-3" d="M36.11,56a4.23,4.23,0,0,1,.73.06,2.17,2.17,0,0,1,.47.12l-.16.67a1.46,1.46,0,0,0-.39-.1,3.93,3.93,0,0,0-.77-.06,3.44,3.44,0,0,0-.81.08,1.37,1.37,0,0,0-.4.12v5.43H34V56.4a5.05,5.05,0,0,1,.83-.27A4.77,4.77,0,0,1,36.11,56Z"/><path class="cls-3" d="M38,59.2a3.88,3.88,0,0,1,.24-1.42,3.06,3.06,0,0,1,.61-1,2.42,2.42,0,0,1,.86-.61,2.71,2.71,0,0,1,1-.2,2.31,2.31,0,0,1,1.81.75A3.27,3.27,0,0,1,43.2,59v.19c0,.07,0,.13,0,.18H38.82a2.71,2.71,0,0,0,.57,1.75,2.09,2.09,0,0,0,1.68.61,3.32,3.32,0,0,0,1-.12,2.74,2.74,0,0,0,.54-.2l.15.67a2.88,2.88,0,0,1-.63.23,3.92,3.92,0,0,1-1.09.13,3.6,3.6,0,0,1-1.39-.24,2.52,2.52,0,0,1-.95-.67,2.64,2.64,0,0,1-.54-1A4.89,4.89,0,0,1,38,59.2Zm4.41-.49a2.47,2.47,0,0,0-.46-1.51,1.47,1.47,0,0,0-1.22-.54,1.66,1.66,0,0,0-.75.17,1.93,1.93,0,0,0-.58.45,2.1,2.1,0,0,0-.38.65,2.58,2.58,0,0,0-.16.78Z"/><path class="cls-3" d="M46.21,61.76a2.41,2.41,0,0,0,1.11-.22.77.77,0,0,0,.44-.75.94.94,0,0,0-.08-.43.79.79,0,0,0-.25-.33,2.1,2.1,0,0,0-.48-.27l-.72-.32a6.86,6.86,0,0,1-.66-.29A2.81,2.81,0,0,1,45,58.8a1.57,1.57,0,0,1-.38-.47,1.42,1.42,0,0,1-.14-.68,1.5,1.5,0,0,1,.57-1.22A2.4,2.4,0,0,1,46.62,56a4.27,4.27,0,0,1,1.05.11,3.51,3.51,0,0,1,.58.19l-.18.7a3.61,3.61,0,0,0-.48-.19,3.19,3.19,0,0,0-1-.12,2.57,2.57,0,0,0-.5.05,1.32,1.32,0,0,0-.42.17.86.86,0,0,0-.28.29.71.71,0,0,0-.11.42,1,1,0,0,0,.09.44,1.08,1.08,0,0,0,.29.32,1.9,1.9,0,0,0,.45.25l.62.27c.24.09.47.19.69.29a2.58,2.58,0,0,1,.58.36,1.5,1.5,0,0,1,.57,1.24A1.44,1.44,0,0,1,47.94,62a3,3,0,0,1-1.73.43A4.37,4.37,0,0,1,45,62.32c-.29-.09-.48-.17-.58-.21l.2-.71.16.08.32.12a4,4,0,0,0,.49.11A4.19,4.19,0,0,0,46.21,61.76Z"/><path class="cls-3" d="M49.73,59.2A4.1,4.1,0,0,1,50,57.78a3.08,3.08,0,0,1,.62-1,2.42,2.42,0,0,1,.86-.61,2.66,2.66,0,0,1,1-.2,2.33,2.33,0,0,1,1.82.75A3.32,3.32,0,0,1,54.94,59a1.21,1.21,0,0,1,0,.19.9.9,0,0,1,0,.18H50.56a2.71,2.71,0,0,0,.56,1.75,2.09,2.09,0,0,0,1.68.61,3.39,3.39,0,0,0,1-.12,2.74,2.74,0,0,0,.54-.2l.14.67a2.88,2.88,0,0,1-.63.23,3.85,3.85,0,0,1-1.08.13,3.57,3.57,0,0,1-1.39-.24,2.44,2.44,0,0,1-1-.67,2.64,2.64,0,0,1-.54-1A4.89,4.89,0,0,1,49.73,59.2Zm4.4-.49a2.4,2.4,0,0,0-.45-1.51,1.49,1.49,0,0,0-1.23-.54,1.66,1.66,0,0,0-.75.17,1.78,1.78,0,0,0-.57.45,2.12,2.12,0,0,0-.39.65,2.92,2.92,0,0,0-.16.78Z"/><path class="cls-3" d="M56.58,56.32l.94-.21A7.31,7.31,0,0,1,59,56a3.13,3.13,0,0,1,1.18.2,1.86,1.86,0,0,1,.76.58,2.52,2.52,0,0,1,.4.91,5.23,5.23,0,0,1,.12,1.16v3.47h-.78V59.1A5.82,5.82,0,0,0,60.55,58a2,2,0,0,0-.3-.75,1.18,1.18,0,0,0-.55-.41,2.64,2.64,0,0,0-.86-.13,6.52,6.52,0,0,0-1,.07,3.62,3.62,0,0,0-.52.1v5.45h-.78Z"/><path class="cls-3" d="M64.08,56.11h2.47v.66H64.08v3.3a3.38,3.38,0,0,0,.09.86,1.22,1.22,0,0,0,.26.51.82.82,0,0,0,.41.24,2.17,2.17,0,0,0,.53,0,2.21,2.21,0,0,0,.79-.11,2.68,2.68,0,0,0,.47-.21l.19.65a3.41,3.41,0,0,1-.59.25,2.94,2.94,0,0,1-.91.13,2.71,2.71,0,0,1-1-.15,1.37,1.37,0,0,1-.62-.45,1.8,1.8,0,0,1-.33-.77A4.84,4.84,0,0,1,63.3,60V54.28l.78-.14Z"/><path class="cls-3" d="M70,56a2.66,2.66,0,0,1,1,.18,1.59,1.59,0,0,1,.69.48,1.8,1.8,0,0,1,.39.72,3.36,3.36,0,0,1,.12.92v3.91l-.35.07-.53.1-.67.07q-.36,0-.75,0a3.65,3.65,0,0,1-.9-.1,2,2,0,0,1-.72-.35,1.43,1.43,0,0,1-.48-.6,2,2,0,0,1-.18-.89,1.76,1.76,0,0,1,.2-.86,1.55,1.55,0,0,1,.54-.6,2.44,2.44,0,0,1,.82-.34,4.9,4.9,0,0,1,1-.11l.35,0,.36,0,.3.06.18.05v-.38a4.23,4.23,0,0,0,0-.63,1.36,1.36,0,0,0-.21-.56,1.18,1.18,0,0,0-.46-.39,1.67,1.67,0,0,0-.77-.15,3.67,3.67,0,0,0-1,.1,4.46,4.46,0,0,0-.49.15l-.11-.68a2.21,2.21,0,0,1,.63-.18A5,5,0,0,1,70,56Zm.08,5.79c.3,0,.57,0,.79,0s.43,0,.59-.08V59.45a3.46,3.46,0,0,0-.42-.12,4.07,4.07,0,0,0-.8-.07,4.28,4.28,0,0,0-.6.05,1.57,1.57,0,0,0-.57.17,1.22,1.22,0,0,0-.43.38,1,1,0,0,0-.17.64,1.48,1.48,0,0,0,.11.59.94.94,0,0,0,.33.38,1.26,1.26,0,0,0,.5.21A2.76,2.76,0,0,0,70.11,61.75Z"/><path class="cls-3" d="M76.62,59.2a3.88,3.88,0,0,1,.24-1.42,3.06,3.06,0,0,1,.61-1,2.42,2.42,0,0,1,.86-.61,2.7,2.7,0,0,1,1-.2,2.33,2.33,0,0,1,1.82.75A3.32,3.32,0,0,1,81.83,59a1.21,1.21,0,0,1,0,.19c0,.07,0,.13,0,.18H77.45A2.71,2.71,0,0,0,78,61.12a2.12,2.12,0,0,0,1.68.61,3.39,3.39,0,0,0,1-.12,2.74,2.74,0,0,0,.54-.2l.15.67a3.37,3.37,0,0,1-.63.23,3.92,3.92,0,0,1-1.09.13,3.6,3.6,0,0,1-1.39-.24,2.44,2.44,0,0,1-1-.67,2.64,2.64,0,0,1-.54-1A4.89,4.89,0,0,1,76.62,59.2ZM81,58.71a2.47,2.47,0,0,0-.46-1.51,1.48,1.48,0,0,0-1.22-.54,1.66,1.66,0,0,0-.75.17,1.82,1.82,0,0,0-.58.45,2.1,2.1,0,0,0-.38.65,2.59,2.59,0,0,0-.17.78Z"/><path class="cls-3" d="M85,62.42a2.79,2.79,0,0,1-.69-.1,1.19,1.19,0,0,1-.49-.28,1.16,1.16,0,0,1-.3-.48,2.24,2.24,0,0,1-.1-.74V53.14l.78-.14v7.8a1.83,1.83,0,0,0,0,.46.69.69,0,0,0,.16.28.8.8,0,0,0,.29.15,3,3,0,0,0,.41.08Z"/><path class="cls-3" d="M89.25,56.32l.93-.21A7.31,7.31,0,0,1,91.62,56a3.09,3.09,0,0,1,1.18.2,1.86,1.86,0,0,1,.76.58,2.36,2.36,0,0,1,.4.91,5.23,5.23,0,0,1,.12,1.16v3.47H93.3V59.1A5.82,5.82,0,0,0,93.21,58a2,2,0,0,0-.3-.75,1.13,1.13,0,0,0-.55-.41,2.6,2.6,0,0,0-.86-.13,6.37,6.37,0,0,0-1,.07,3.34,3.34,0,0,0-.52.1v5.45h-.78Z"/><path class="cls-3" d="M101.35,59.22a4,4,0,0,1-.21,1.33,3,3,0,0,1-.58,1,2.69,2.69,0,0,1-2,.88,2.7,2.7,0,0,1-1.14-.23,2.59,2.59,0,0,1-.89-.65,3,3,0,0,1-.59-1,4.35,4.35,0,0,1,0-2.67,3,3,0,0,1,.59-1,2.5,2.5,0,0,1,.89-.66A2.71,2.71,0,0,1,98.52,56a2.64,2.64,0,0,1,1.14.24,2.53,2.53,0,0,1,.9.66,3,3,0,0,1,.58,1A4.05,4.05,0,0,1,101.35,59.22Zm-.82,0a2.94,2.94,0,0,0-.54-1.86,1.9,1.9,0,0,0-2.93,0,2.94,2.94,0,0,0-.54,1.86,2.88,2.88,0,0,0,.54,1.84,1.9,1.9,0,0,0,2.93,0A2.88,2.88,0,0,0,100.53,59.22Z"/><path class="cls-3" d="M103,56.32l.91-.21a7,7,0,0,1,1.44-.12,2,2,0,0,1,1.71.68l.23-.16a4.17,4.17,0,0,1,.44-.24,3.43,3.43,0,0,1,1.4-.28,2.66,2.66,0,0,1,1.15.21,1.62,1.62,0,0,1,.68.58,2.34,2.34,0,0,1,.32.91,6.88,6.88,0,0,1,.09,1.15v3.47h-.78V59.1a8.27,8.27,0,0,0-.06-1.07,2,2,0,0,0-.21-.74,1,1,0,0,0-.47-.44,1.61,1.61,0,0,0-.78-.16,3.24,3.24,0,0,0-.65.07,2.42,2.42,0,0,0-.86.35l-.2.15a4.25,4.25,0,0,1,.16.7,5.39,5.39,0,0,1,0,.82v3.53h-.78V59.1a8.44,8.44,0,0,0,0-1.07,2,2,0,0,0-.22-.74,1,1,0,0,0-.48-.44,1.69,1.69,0,0,0-.81-.16,6.27,6.27,0,0,0-1,.07,2.92,2.92,0,0,0-.5.1v5.45H103Z"/><path class="cls-3" d="M114.11,56.48a2.93,2.93,0,0,1,.65-.33,3.24,3.24,0,0,1,2.26.07,2.43,2.43,0,0,1,.88.67,3.13,3.13,0,0,1,.55,1,4.51,4.51,0,0,1,.18,1.31,3.82,3.82,0,0,1-.22,1.35,3.06,3.06,0,0,1-.62,1,2.61,2.61,0,0,1-1,.64,3.3,3.3,0,0,1-1.24.22,7.39,7.39,0,0,1-1.37-.1,8.57,8.57,0,0,1-.89-.23v-9l.78-.14Zm0,5.1a3,3,0,0,0,.53.11,5.85,5.85,0,0,0,.93.06,2.1,2.1,0,0,0,1.62-.66,2.62,2.62,0,0,0,.61-1.87,4.4,4.4,0,0,0-.1-1,2.29,2.29,0,0,0-.35-.81,1.65,1.65,0,0,0-.63-.54,2,2,0,0,0-1-.21,2.18,2.18,0,0,0-.52.06,2.15,2.15,0,0,0-.47.14,1.68,1.68,0,0,0-.38.18l-.27.17Z"/><path class="cls-3" d="M122.41,56a4.23,4.23,0,0,1,.73.06,2.17,2.17,0,0,1,.47.12l-.15.67a1.73,1.73,0,0,0-.39-.1,4.11,4.11,0,0,0-.78-.06,3.56,3.56,0,0,0-.81.08,1.49,1.49,0,0,0-.4.12v5.43h-.78V56.4a5.4,5.4,0,0,1,.83-.27A4.77,4.77,0,0,1,122.41,56Z"/><path class="cls-3" d="M124.3,59.2a3.88,3.88,0,0,1,.23-1.42,3.24,3.24,0,0,1,.61-1,2.37,2.37,0,0,1,.87-.61,2.62,2.62,0,0,1,1-.2,2.35,2.35,0,0,1,1.82.75A3.32,3.32,0,0,1,129.5,59v.19c0,.07,0,.13,0,.18h-4.36a2.77,2.77,0,0,0,.57,1.75,2.09,2.09,0,0,0,1.68.61,3.44,3.44,0,0,0,1-.12,3.35,3.35,0,0,0,.54-.2l.14.67a2.88,2.88,0,0,1-.63.23,3.92,3.92,0,0,1-1.09.13A3.64,3.64,0,0,1,126,62.2a2.52,2.52,0,0,1-1-.67,2.93,2.93,0,0,1-.54-1A4.9,4.9,0,0,1,124.3,59.2Zm4.4-.49a2.47,2.47,0,0,0-.46-1.51,1.46,1.46,0,0,0-1.22-.54,1.66,1.66,0,0,0-.75.17,1.93,1.93,0,0,0-.58.45,2.1,2.1,0,0,0-.38.65,2.58,2.58,0,0,0-.16.78Z"/><path class="cls-3" d="M138.91,62.12a8.57,8.57,0,0,1-.89.23,7.34,7.34,0,0,1-1.36.1,3.35,3.35,0,0,1-1.25-.22,2.61,2.61,0,0,1-1-.64,3.06,3.06,0,0,1-.62-1,3.82,3.82,0,0,1-.22-1.35,4.51,4.51,0,0,1,.18-1.31,3.13,3.13,0,0,1,.55-1,2.43,2.43,0,0,1,.88-.67,3.24,3.24,0,0,1,2.26-.07,2.93,2.93,0,0,1,.65.33V53.14l.78-.14Zm-.78-4.89-.27-.17a1.68,1.68,0,0,0-.38-.18,2.24,2.24,0,0,0-.46-.14,2.33,2.33,0,0,0-.53-.06,2,2,0,0,0-1,.21,1.65,1.65,0,0,0-.63.54,2.48,2.48,0,0,0-.35.81,4.4,4.4,0,0,0-.1,1,2.62,2.62,0,0,0,.61,1.87,2.11,2.11,0,0,0,1.62.66,5.85,5.85,0,0,0,.93-.06,3,3,0,0,0,.53-.11Z"/><path class="cls-3" d="M140.58,59.2a4.1,4.1,0,0,1,.23-1.42,3.08,3.08,0,0,1,.62-1,2.42,2.42,0,0,1,.86-.61,2.66,2.66,0,0,1,1-.2,2.33,2.33,0,0,1,1.82.75,3.32,3.32,0,0,1,.68,2.29,1.21,1.21,0,0,1,0,.19.9.9,0,0,1,0,.18h-4.35a2.71,2.71,0,0,0,.56,1.75,2.09,2.09,0,0,0,1.68.61,3.39,3.39,0,0,0,1-.12,2.74,2.74,0,0,0,.54-.2l.14.67a2.88,2.88,0,0,1-.63.23,3.85,3.85,0,0,1-1.08.13,3.57,3.57,0,0,1-1.39-.24,2.44,2.44,0,0,1-1-.67,2.64,2.64,0,0,1-.54-1A4.89,4.89,0,0,1,140.58,59.2Zm4.4-.49a2.4,2.4,0,0,0-.45-1.51,1.49,1.49,0,0,0-1.23-.54,1.66,1.66,0,0,0-.75.17,1.78,1.78,0,0,0-.57.45,2.12,2.12,0,0,0-.39.65,2.92,2.92,0,0,0-.16.78Z"/><path class="cls-3" d="M151.84,62.42a2.65,2.65,0,0,1-.69-.1,1.23,1.23,0,0,1-.5-.28,1.16,1.16,0,0,1-.3-.48,2.54,2.54,0,0,1-.1-.74V53.14L151,53v7.8a1.42,1.42,0,0,0,.06.46.59.59,0,0,0,.16.28.68.68,0,0,0,.28.15,3.32,3.32,0,0,0,.41.08Z"/><path class="cls-3" d="M155.27,56a2.69,2.69,0,0,1,1,.18,1.72,1.72,0,0,1,.69.48,1.91,1.91,0,0,1,.38.72,3.36,3.36,0,0,1,.12.92v3.91l-.35.07-.53.1-.66.07q-.37,0-.75,0a3.73,3.73,0,0,1-.91-.1,2.19,2.19,0,0,1-.72-.35,1.6,1.6,0,0,1-.48-.6,2.14,2.14,0,0,1-.17-.89,1.76,1.76,0,0,1,.19-.86,1.72,1.72,0,0,1,.54-.6,2.5,2.5,0,0,1,.83-.34,4.88,4.88,0,0,1,1-.11l.36,0,.36,0,.3.06.17.05v-.38a4.23,4.23,0,0,0-.05-.63,1.36,1.36,0,0,0-.21-.56,1.23,1.23,0,0,0-.45-.39,1.75,1.75,0,0,0-.78-.15,3.77,3.77,0,0,0-1,.1l-.49.15-.11-.68a2.44,2.44,0,0,1,.63-.18A5.12,5.12,0,0,1,155.27,56Zm.07,5.79c.3,0,.57,0,.8,0a5.83,5.83,0,0,0,.58-.08V59.45a3.46,3.46,0,0,0-.42-.12,4,4,0,0,0-.79-.07,4.28,4.28,0,0,0-.6.05,1.62,1.62,0,0,0-.58.17,1.31,1.31,0,0,0-.43.38,1.1,1.1,0,0,0-.17.64,1.32,1.32,0,0,0,.12.59.85.85,0,0,0,.32.38,1.33,1.33,0,0,0,.5.21A2.76,2.76,0,0,0,155.34,61.75Z"/><path class="cls-3" d="M164.34,56a4.23,4.23,0,0,1,.73.06,2.35,2.35,0,0,1,.47.12l-.16.67a1.46,1.46,0,0,0-.39-.1,3.93,3.93,0,0,0-.77-.06,3.44,3.44,0,0,0-.81.08,1.37,1.37,0,0,0-.4.12v5.43h-.78V56.4a5.05,5.05,0,0,1,.83-.27A4.77,4.77,0,0,1,164.34,56Z"/><path class="cls-3" d="M166.22,59.2a3.88,3.88,0,0,1,.24-1.42,3.06,3.06,0,0,1,.61-1,2.42,2.42,0,0,1,.86-.61,2.71,2.71,0,0,1,1-.2,2.31,2.31,0,0,1,1.81.75,3.27,3.27,0,0,1,.68,2.29v.19c0,.07,0,.13,0,.18h-4.36a2.71,2.71,0,0,0,.57,1.75,2.09,2.09,0,0,0,1.68.61,3.32,3.32,0,0,0,1-.12,2.74,2.74,0,0,0,.54-.2l.15.67a2.88,2.88,0,0,1-.63.23,3.92,3.92,0,0,1-1.09.13,3.6,3.6,0,0,1-1.39-.24,2.52,2.52,0,0,1-.95-.67,2.64,2.64,0,0,1-.54-1A4.89,4.89,0,0,1,166.22,59.2Zm4.41-.49a2.47,2.47,0,0,0-.46-1.51,1.47,1.47,0,0,0-1.22-.54,1.66,1.66,0,0,0-.75.17,1.93,1.93,0,0,0-.58.45,2.1,2.1,0,0,0-.38.65,2.58,2.58,0,0,0-.16.78Z"/><path class="cls-3" d="M175,61.47c.17-.34.34-.74.52-1.18s.34-.9.51-1.38.31-1,.45-1.44.26-.94.36-1.36h.78c-.15.57-.31,1.12-.48,1.68s-.37,1.09-.56,1.62-.41,1-.62,1.52-.42,1-.62,1.38h-.73q-.32-.64-.63-1.38c-.21-.49-.41-1-.61-1.52s-.38-1.07-.56-1.62-.34-1.11-.48-1.68h.83c.09.42.21.87.35,1.36s.29,1,.46,1.44.33.94.51,1.38S174.81,61.13,175,61.47Z"/><path class="cls-3" d="M179.84,54.23a.57.57,0,0,1-.16.44.58.58,0,0,1-.41.17.62.62,0,0,1-.41-1,.56.56,0,0,1,.41-.16.57.57,0,0,1,.41.16A.56.56,0,0,1,179.84,54.23Zm-.18,8.08h-.78v-6.2h.78Z"/><path class="cls-3" d="M182.92,61.76a2.47,2.47,0,0,0,1.11-.22.78.78,0,0,0,.43-.75,1.11,1.11,0,0,0-.07-.43.91.91,0,0,0-.26-.33,2.1,2.1,0,0,0-.48-.27l-.72-.32c-.23-.09-.45-.19-.66-.29a2.72,2.72,0,0,1-.55-.35,1.61,1.61,0,0,1-.39-.47,1.55,1.55,0,0,1-.14-.68,1.5,1.5,0,0,1,.57-1.22,2.4,2.4,0,0,1,1.56-.47,4.27,4.27,0,0,1,1.05.11,4.12,4.12,0,0,1,.59.19l-.18.7a4.67,4.67,0,0,0-.49-.19,3.19,3.19,0,0,0-1-.12,2.65,2.65,0,0,0-.5.05,1.26,1.26,0,0,0-.41.17.89.89,0,0,0-.29.29.79.79,0,0,0-.11.42.87.87,0,0,0,.1.44.92.92,0,0,0,.28.32,1.9,1.9,0,0,0,.45.25l.62.27c.24.09.47.19.69.29a2.38,2.38,0,0,1,.58.36,1.64,1.64,0,0,1,.41.5,1.53,1.53,0,0,1,.16.74,1.44,1.44,0,0,1-.63,1.27,3,3,0,0,1-1.72.43,4.45,4.45,0,0,1-1.25-.13c-.29-.09-.48-.17-.58-.21l.21-.71.15.08.33.12a3.47,3.47,0,0,0,.48.11A4.23,4.23,0,0,0,182.92,61.76Z"/><path class="cls-3" d="M187.44,56.11h2.47v.66h-2.47v3.3a3.38,3.38,0,0,0,.09.86,1.22,1.22,0,0,0,.26.51.82.82,0,0,0,.41.24,2.14,2.14,0,0,0,.52,0,2.26,2.26,0,0,0,1.26-.32l.2.65a3.8,3.8,0,0,1-.59.25,3,3,0,0,1-.91.13,2.71,2.71,0,0,1-1-.15,1.37,1.37,0,0,1-.62-.45,1.8,1.8,0,0,1-.33-.77,4.84,4.84,0,0,1-.1-1.08V54.28l.78-.14Z"/><path class="cls-3" d="M193.39,56a2.66,2.66,0,0,1,1,.18,1.72,1.72,0,0,1,.69.48,1.78,1.78,0,0,1,.38.72,3.36,3.36,0,0,1,.12.92v3.91a2.64,2.64,0,0,1-.35.07l-.52.1-.67.07q-.36,0-.75,0a3.59,3.59,0,0,1-.9-.1,2,2,0,0,1-.72-.35,1.43,1.43,0,0,1-.48-.6,2,2,0,0,1-.18-.89,1.88,1.88,0,0,1,.19-.86,1.72,1.72,0,0,1,.54-.6,2.59,2.59,0,0,1,.83-.34,4.9,4.9,0,0,1,1-.11l.35,0,.36,0,.3.06.17.05v-.38a4.26,4.26,0,0,0,0-.63,1.71,1.71,0,0,0-.21-.56,1.18,1.18,0,0,0-.46-.39,1.7,1.7,0,0,0-.77-.15,3.67,3.67,0,0,0-1,.1l-.5.15-.11-.68a2.41,2.41,0,0,1,.64-.18A5,5,0,0,1,193.39,56Zm.07,5.79c.31,0,.57,0,.8,0a5.83,5.83,0,0,0,.58-.08V59.45a2.62,2.62,0,0,0-.42-.12,3.88,3.88,0,0,0-.79-.07,4.28,4.28,0,0,0-.6.05,1.52,1.52,0,0,0-.57.17,1.35,1.35,0,0,0-.44.38,1.1,1.1,0,0,0-.16.64,1.32,1.32,0,0,0,.11.59.92.92,0,0,0,.32.38,1.31,1.31,0,0,0,.51.21A2.67,2.67,0,0,0,193.46,61.75Z"/><path class="cls-3" d="M198.78,61.8a.67.67,0,0,1-.17.46.73.73,0,0,1-1,0,.67.67,0,0,1-.17-.46.7.7,0,0,1,.17-.47.73.73,0,0,1,1,0A.7.7,0,0,1,198.78,61.8Z"/><text class="cls-4" transform="translate(14.55 79.55)">•</text><text class="cls-4" transform="translate(19.64 79.55)"> </text><path class="cls-3" d="M33.57,75.38a4.82,4.82,0,0,1-.34,1.86,3.53,3.53,0,0,1-.94,1.32,4,4,0,0,1-1.45.79,6,6,0,0,1-1.85.27,9.79,9.79,0,0,1-1-.06,5.94,5.94,0,0,1-1-.16v-8a5.81,5.81,0,0,1,1-.18c.37,0,.72,0,1,0a6.31,6.31,0,0,1,1.85.26,4.15,4.15,0,0,1,1.45.79,3.7,3.7,0,0,1,.94,1.32A4.81,4.81,0,0,1,33.57,75.38Zm-5.79,3.45.37,0a7.09,7.09,0,0,0,.94,0,4.42,4.42,0,0,0,1.57-.25,2.89,2.89,0,0,0,1.13-.7,2.85,2.85,0,0,0,.68-1.11,4.78,4.78,0,0,0,0-2.93,3,3,0,0,0-.68-1.11,3.14,3.14,0,0,0-1.13-.7,4.67,4.67,0,0,0-1.57-.24c-.43,0-.75,0-.94,0l-.37,0Z"/><path class="cls-3" d="M35,76.44A4,4,0,0,1,35.2,75a3,3,0,0,1,.62-1,2.4,2.4,0,0,1,.86-.6,2.48,2.48,0,0,1,1-.2,2.36,2.36,0,0,1,1.82.74,3.33,3.33,0,0,1,.68,2.29,1.34,1.34,0,0,1,0,.2,1.1,1.1,0,0,1,0,.18H35.8a2.73,2.73,0,0,0,.56,1.75A2.09,2.09,0,0,0,38,79a3.39,3.39,0,0,0,1-.12,5.21,5.21,0,0,0,.54-.2l.14.67a3.54,3.54,0,0,1-.63.23,4.26,4.26,0,0,1-1.08.13,3.57,3.57,0,0,1-1.39-.24,2.55,2.55,0,0,1-1-.67,2.61,2.61,0,0,1-.54-1A4.87,4.87,0,0,1,35,76.44Zm4.4-.49a2.43,2.43,0,0,0-.45-1.52,1.49,1.49,0,0,0-1.23-.54,1.66,1.66,0,0,0-.75.17,1.78,1.78,0,0,0-.57.45,2.17,2.17,0,0,0-.39.66,2.77,2.77,0,0,0-.16.78Z"/><path class="cls-3" d="M43.19,79a2.41,2.41,0,0,0,1.11-.22.78.78,0,0,0,.44-.75,1.1,1.1,0,0,0-.08-.43.79.79,0,0,0-.26-.32,2.24,2.24,0,0,0-.47-.28l-.73-.31-.66-.3A2.7,2.7,0,0,1,42,76a1.47,1.47,0,0,1-.38-.48,1.38,1.38,0,0,1-.15-.67A1.5,1.5,0,0,1,42,73.67a2.35,2.35,0,0,1,1.57-.47,3.93,3.93,0,0,1,1,.11,3,3,0,0,1,.58.19l-.18.69L44.57,74a3.26,3.26,0,0,0-1-.12,1.93,1.93,0,0,0-.49.06,1.31,1.31,0,0,0-.42.16,1,1,0,0,0-.29.29.83.83,0,0,0-.11.43.89.89,0,0,0,.38.75,2.79,2.79,0,0,0,.46.26c.18.08.38.17.62.26l.69.29a2.58,2.58,0,0,1,.58.36,1.71,1.71,0,0,1,.41.51,1.6,1.6,0,0,1,.15.74,1.44,1.44,0,0,1-.63,1.27,3,3,0,0,1-1.72.43,4.43,4.43,0,0,1-1.25-.14,3.66,3.66,0,0,1-.57-.21l.2-.71a.56.56,0,0,0,.16.08,1.82,1.82,0,0,0,.32.12,3.91,3.91,0,0,0,.49.12A4.11,4.11,0,0,0,43.19,79Z"/><path class="cls-3" d="M47.73,73.34H50.2V74H47.73v3.3a3.38,3.38,0,0,0,.09.86,1.22,1.22,0,0,0,.25.51.86.86,0,0,0,.41.24A2.2,2.2,0,0,0,49,79a2.42,2.42,0,0,0,.79-.11,4.71,4.71,0,0,0,.47-.21l.19.64a2.32,2.32,0,0,1-.59.25,2.94,2.94,0,0,1-.91.14,2.69,2.69,0,0,1-1-.15,1.4,1.4,0,0,1-.63-.46,2,2,0,0,1-.33-.76A5.59,5.59,0,0,1,47,77.23V71.52l.78-.15Z"/><path class="cls-3" d="M53.68,73.2a2.9,2.9,0,0,1,1,.17,1.94,1.94,0,0,1,.69.48,2,2,0,0,1,.38.73,3.28,3.28,0,0,1,.12.91V79.4a2.7,2.7,0,0,1-.35.08l-.53.09-.66.08q-.37,0-.75,0a3.72,3.72,0,0,1-.91-.11,2.17,2.17,0,0,1-.72-.34,1.77,1.77,0,0,1-.48-.6,2.19,2.19,0,0,1-.17-.9,1.79,1.79,0,0,1,.19-.86,1.61,1.61,0,0,1,.54-.59,2.5,2.5,0,0,1,.83-.35,4.9,4.9,0,0,1,1-.1h.36l.36,0L55,76l.17.06v-.39a4.46,4.46,0,0,0-.05-.63,1.31,1.31,0,0,0-.21-.55,1.25,1.25,0,0,0-.45-.4,1.75,1.75,0,0,0-.78-.15,4.22,4.22,0,0,0-1,.1,4.71,4.71,0,0,0-.49.16L52,73.46a3.64,3.64,0,0,1,.63-.18A6.07,6.07,0,0,1,53.68,73.2ZM53.75,79c.3,0,.57,0,.8,0a3.87,3.87,0,0,0,.58-.08V76.69a3.13,3.13,0,0,0-.42-.13,4.08,4.08,0,0,0-.79-.06,4.22,4.22,0,0,0-.6,0,1.87,1.87,0,0,0-.58.18,1.21,1.21,0,0,0-.43.38,1.09,1.09,0,0,0-.17.63,1.29,1.29,0,0,0,.12.59.94.94,0,0,0,.32.39,1.75,1.75,0,0,0,.5.21A3.4,3.4,0,0,0,53.75,79Z"/><path class="cls-3" d="M60.47,79.68a3.34,3.34,0,0,1-1.27-.23,2.37,2.37,0,0,1-.92-.65,3.15,3.15,0,0,1-.56-1,4.6,4.6,0,0,1,0-2.65,3,3,0,0,1,.57-1,2.59,2.59,0,0,1,.9-.67,3,3,0,0,1,1.19-.23,5.58,5.58,0,0,1,.94.08,2.46,2.46,0,0,1,.68.22l-.21.67a2.63,2.63,0,0,0-.54-.19,3.48,3.48,0,0,0-.8-.07,1.91,1.91,0,0,0-1.57.66,3,3,0,0,0-.53,1.89,4.08,4.08,0,0,0,.12,1,2.09,2.09,0,0,0,.39.79,1.78,1.78,0,0,0,.69.51,2.51,2.51,0,0,0,1,.19,2.92,2.92,0,0,0,.85-.11c.23-.08.39-.15.5-.2l.16.67a2.67,2.67,0,0,1-.67.23A3.85,3.85,0,0,1,60.47,79.68Z"/><path class="cls-3" d="M65.4,73.2a2.86,2.86,0,0,1,1,.17,1.94,1.94,0,0,1,.69.48,1.89,1.89,0,0,1,.38.73,3.28,3.28,0,0,1,.12.91V79.4a2.49,2.49,0,0,1-.34.08l-.53.09-.67.08q-.36,0-.75,0a3.58,3.58,0,0,1-.9-.11,2,2,0,0,1-.72-.34,1.56,1.56,0,0,1-.48-.6,2,2,0,0,1-.18-.9,1.91,1.91,0,0,1,.19-.86,1.61,1.61,0,0,1,.54-.59,2.6,2.6,0,0,1,.83-.35,4.93,4.93,0,0,1,1-.1H66l.36,0,.3.06.17.06v-.39a4.44,4.44,0,0,0,0-.63,1.66,1.66,0,0,0-.21-.55,1.21,1.21,0,0,0-.46-.4,1.7,1.7,0,0,0-.77-.15,4.11,4.11,0,0,0-1,.1,5.09,5.09,0,0,0-.5.16l-.1-.69a3.16,3.16,0,0,1,.63-.18A5.86,5.86,0,0,1,65.4,73.2ZM65.47,79c.31,0,.57,0,.8,0a3.87,3.87,0,0,0,.58-.08V76.69a2.39,2.39,0,0,0-.42-.13,4,4,0,0,0-.79-.06,4.22,4.22,0,0,0-.6,0,1.73,1.73,0,0,0-.57.18,1.24,1.24,0,0,0-.44.38,1.09,1.09,0,0,0-.16.63,1.3,1.3,0,0,0,.11.59,1,1,0,0,0,.32.39,1.7,1.7,0,0,0,.51.21A3.3,3.3,0,0,0,65.47,79Z"/><path class="cls-3" d="M73.93,79.65a2.39,2.39,0,0,1-.69-.1,1.12,1.12,0,0,1-.79-.75,2.28,2.28,0,0,1-.1-.74V70.38l.78-.15V78a1.92,1.92,0,0,0,.05.47.62.62,0,0,0,.17.27.58.58,0,0,0,.28.15L74,79Z"/><path class="cls-3" d="M80.59,76.45a4,4,0,0,1-.21,1.33,3,3,0,0,1-.58,1,2.65,2.65,0,0,1-2,.89,2.87,2.87,0,0,1-1.14-.23,2.76,2.76,0,0,1-.89-.66,3,3,0,0,1-.59-1,4.32,4.32,0,0,1,0-2.66,3.15,3.15,0,0,1,.59-1,2.76,2.76,0,0,1,.89-.66,2.87,2.87,0,0,1,1.14-.23,2.65,2.65,0,0,1,2,.89,3.13,3.13,0,0,1,.58,1A4,4,0,0,1,80.59,76.45Zm-.82,0a2.91,2.91,0,0,0-.54-1.85,1.9,1.9,0,0,0-2.93,0,3.44,3.44,0,0,0,0,3.7,1.92,1.92,0,0,0,2.93,0A2.91,2.91,0,0,0,79.77,76.45Z"/><path class="cls-3" d="M83.55,79a2.47,2.47,0,0,0,1.11-.22.78.78,0,0,0,.43-.75,1.11,1.11,0,0,0-.07-.43.88.88,0,0,0-.26-.32,2.1,2.1,0,0,0-.48-.28l-.72-.31-.66-.3a2.7,2.7,0,0,1-.55-.34,1.65,1.65,0,0,1-.39-.48,1.62,1.62,0,0,1,.43-1.89A2.34,2.34,0,0,1,84,73.2a3.83,3.83,0,0,1,1,.11,3.13,3.13,0,0,1,.59.19l-.18.69L84.92,74a3.19,3.19,0,0,0-1-.12,2,2,0,0,0-.5.06,1.25,1.25,0,0,0-.41.16,1,1,0,0,0-.29.29.93.93,0,0,0,0,.86.84.84,0,0,0,.28.32,2.32,2.32,0,0,0,.45.26l.62.26.69.29a2.38,2.38,0,0,1,.58.36,1.57,1.57,0,0,1,.41.51,1.48,1.48,0,0,1,.16.74,1.44,1.44,0,0,1-.63,1.27,3,3,0,0,1-1.72.43,4.38,4.38,0,0,1-1.25-.14,4.43,4.43,0,0,1-.58-.21l.21-.71a.47.47,0,0,0,.15.08,2,2,0,0,0,.33.12,3.35,3.35,0,0,0,.48.12A4.33,4.33,0,0,0,83.55,79Z"/><path class="cls-3" d="M90.93,81.77h-.78V73.56a6.42,6.42,0,0,1,.88-.23,7.35,7.35,0,0,1,1.37-.11,3.47,3.47,0,0,1,1.24.22,2.59,2.59,0,0,1,1,.65,2.93,2.93,0,0,1,.63,1,3.82,3.82,0,0,1,.22,1.35,4.13,4.13,0,0,1-.19,1.3,2.76,2.76,0,0,1-.54,1,2.52,2.52,0,0,1-.88.67,2.86,2.86,0,0,1-1.2.24,3.06,3.06,0,0,1-1.06-.17,2.93,2.93,0,0,1-.65-.33Zm0-3.34a1.58,1.58,0,0,0,.27.18,2.76,2.76,0,0,0,.84.32,3.07,3.07,0,0,0,.53,0,2,2,0,0,0,1-.2,1.65,1.65,0,0,0,.63-.54,2.15,2.15,0,0,0,.34-.8,3.87,3.87,0,0,0,.11-1A2.66,2.66,0,0,0,94,74.58a2.14,2.14,0,0,0-1.62-.65,7.63,7.63,0,0,0-.93,0,3.62,3.62,0,0,0-.53.12Z"/><path class="cls-3" d="M99.23,73.22a4.23,4.23,0,0,1,.73.06,2.35,2.35,0,0,1,.47.12l-.16.67a2,2,0,0,0-.39-.1,5.1,5.1,0,0,0-.77,0,3.52,3.52,0,0,0-.81.07,2.59,2.59,0,0,0-.4.12v5.44h-.78V73.63a5.05,5.05,0,0,1,.83-.27A5.21,5.21,0,0,1,99.23,73.22Z"/><path class="cls-3" d="M102.64,71.47a.6.6,0,0,1-.17.44.56.56,0,0,1-.41.16.57.57,0,0,1-.41-.16.69.69,0,0,1,0-.88.57.57,0,0,1,.41-.16.56.56,0,0,1,.41.16A.6.6,0,0,1,102.64,71.47Zm-.18,8.08h-.78V73.34h.78Z"/><path class="cls-3" d="M104.46,73.56c.23-.07.55-.14.94-.22a7.31,7.31,0,0,1,1.44-.12,2.93,2.93,0,0,1,1.18.21,1.78,1.78,0,0,1,.76.58,2.47,2.47,0,0,1,.4.9,5.32,5.32,0,0,1,.12,1.17v3.47h-.78V76.33a6,6,0,0,0-.09-1.12,1.85,1.85,0,0,0-.3-.74,1.18,1.18,0,0,0-.55-.41,2.4,2.4,0,0,0-.86-.13,6.65,6.65,0,0,0-1,.06,3.22,3.22,0,0,0-.52.11v5.45h-.78Z"/><path class="cls-3" d="M113.83,79.68a3.34,3.34,0,0,1-1.27-.23,2.44,2.44,0,0,1-.92-.65,3,3,0,0,1-.55-1,4.49,4.49,0,0,1,0-2.65,3,3,0,0,1,.57-1,2.59,2.59,0,0,1,.9-.67,3,3,0,0,1,1.19-.23,5.49,5.49,0,0,1,.94.08,2.46,2.46,0,0,1,.68.22l-.2.67a2.63,2.63,0,0,0-.54-.19,3.52,3.52,0,0,0-.81-.07,1.87,1.87,0,0,0-1.56.66,3,3,0,0,0-.54,1.89,4.08,4.08,0,0,0,.12,1,2.09,2.09,0,0,0,.39.79,1.74,1.74,0,0,0,.7.51,2.48,2.48,0,0,0,1,.19,2.9,2.9,0,0,0,.84-.11,4.58,4.58,0,0,0,.5-.2l.17.67a2.77,2.77,0,0,1-.68.23A3.85,3.85,0,0,1,113.83,79.68Z"/><path class="cls-3" d="M117.75,71.47a.6.6,0,0,1-.17.44.57.57,0,0,1-.41.16.56.56,0,0,1-.41-.16.65.65,0,0,1,0-.88.56.56,0,0,1,.41-.16.57.57,0,0,1,.41.16A.6.6,0,0,1,117.75,71.47Zm-.18,8.08h-.78V73.34h.78Z"/><path class="cls-3" d="M120.35,81.77h-.78V73.56a6.61,6.61,0,0,1,.89-.23,7.27,7.27,0,0,1,1.37-.11,3.51,3.51,0,0,1,1.24.22,2.77,2.77,0,0,1,1,.65,3.06,3.06,0,0,1,.62,1,3.82,3.82,0,0,1,.22,1.35,4.44,4.44,0,0,1-.18,1.3,2.94,2.94,0,0,1-.55,1,2.43,2.43,0,0,1-.88.67,2.84,2.84,0,0,1-1.19.24,3.12,3.12,0,0,1-1.07-.17,2.93,2.93,0,0,1-.65-.33Zm0-3.34a1.58,1.58,0,0,0,.27.18,3.43,3.43,0,0,0,.38.18,2.62,2.62,0,0,0,1,.19,2,2,0,0,0,1-.2,1.65,1.65,0,0,0,.63-.54,2.34,2.34,0,0,0,.35-.8,4.4,4.4,0,0,0,.1-1,2.66,2.66,0,0,0-.61-1.88,2.12,2.12,0,0,0-1.62-.65,7.63,7.63,0,0,0-.93,0,4,4,0,0,0-.53.12Z"/><path class="cls-3" d="M128.45,73.2a2.9,2.9,0,0,1,1,.17,1.94,1.94,0,0,1,.69.48,2,2,0,0,1,.38.73,3.28,3.28,0,0,1,.12.91V79.4a2.7,2.7,0,0,1-.35.08l-.52.09-.67.08q-.36,0-.75,0a3.72,3.72,0,0,1-.91-.11,2.17,2.17,0,0,1-.72-.34,1.77,1.77,0,0,1-.48-.6,2.19,2.19,0,0,1-.17-.9,1.79,1.79,0,0,1,.19-.86,1.61,1.61,0,0,1,.54-.59,2.5,2.5,0,0,1,.83-.35,4.9,4.9,0,0,1,1-.1h.36l.36,0,.3.06.17.06v-.39a3.35,3.35,0,0,0-.05-.63,1.31,1.31,0,0,0-.21-.55,1.25,1.25,0,0,0-.45-.4,1.75,1.75,0,0,0-.78-.15,4.22,4.22,0,0,0-1,.1,4.71,4.71,0,0,0-.49.16l-.11-.69a3.64,3.64,0,0,1,.63-.18A6.07,6.07,0,0,1,128.45,73.2Zm.07,5.78c.3,0,.57,0,.8,0a3.87,3.87,0,0,0,.58-.08V76.69a3.13,3.13,0,0,0-.42-.13,4.08,4.08,0,0,0-.79-.06,4.22,4.22,0,0,0-.6,0,1.87,1.87,0,0,0-.58.18,1.21,1.21,0,0,0-.43.38,1.09,1.09,0,0,0-.17.63,1.29,1.29,0,0,0,.12.59.94.94,0,0,0,.32.39,1.7,1.7,0,0,0,.51.21A3.23,3.23,0,0,0,128.52,79Z"/><path class="cls-3" d="M134.19,79.65a2.41,2.41,0,0,1-.7-.1,1.37,1.37,0,0,1-.49-.27,1.31,1.31,0,0,1-.3-.48,2.28,2.28,0,0,1-.1-.74V70.38l.78-.15V78a1.49,1.49,0,0,0,.06.47.53.53,0,0,0,.16.27.58.58,0,0,0,.28.15l.41.09Z"/><path class="cls-3" d="M135.18,76.44a4,4,0,0,1,.23-1.42,3,3,0,0,1,.62-1,2.4,2.4,0,0,1,.86-.6,2.48,2.48,0,0,1,1-.2,2.36,2.36,0,0,1,1.82.74,3.33,3.33,0,0,1,.68,2.29,1.34,1.34,0,0,1,0,.2,1.1,1.1,0,0,1,0,.18H136a2.73,2.73,0,0,0,.56,1.75,2.09,2.09,0,0,0,1.68.61,3.39,3.39,0,0,0,1-.12,5.21,5.21,0,0,0,.54-.2l.14.67a3.54,3.54,0,0,1-.63.23,4.26,4.26,0,0,1-1.08.13,3.57,3.57,0,0,1-1.39-.24,2.55,2.55,0,0,1-1-.67,2.61,2.61,0,0,1-.54-1A4.87,4.87,0,0,1,135.18,76.44Zm4.4-.49a2.43,2.43,0,0,0-.45-1.52,1.49,1.49,0,0,0-1.23-.54,1.66,1.66,0,0,0-.75.17,1.78,1.78,0,0,0-.57.45,2.17,2.17,0,0,0-.39.66A2.77,2.77,0,0,0,136,76Z"/><path class="cls-3" d="M143.4,79a2.41,2.41,0,0,0,1.11-.22A.78.78,0,0,0,145,78a1.1,1.1,0,0,0-.08-.43.79.79,0,0,0-.26-.32,2.24,2.24,0,0,0-.47-.28l-.73-.31-.66-.3a2.7,2.7,0,0,1-.55-.34,1.47,1.47,0,0,1-.38-.48,1.38,1.38,0,0,1-.15-.67,1.5,1.5,0,0,1,.57-1.22,2.35,2.35,0,0,1,1.57-.47,3.93,3.93,0,0,1,1.05.11,3,3,0,0,1,.58.19l-.18.69-.49-.19a3.14,3.14,0,0,0-1-.12,2.07,2.07,0,0,0-.5.06,1.35,1.35,0,0,0-.41.16,1,1,0,0,0-.29.29.83.83,0,0,0-.11.43.89.89,0,0,0,.38.75,2.79,2.79,0,0,0,.46.26c.18.08.38.17.62.26l.69.29a2.58,2.58,0,0,1,.58.36,1.71,1.71,0,0,1,.41.51,1.6,1.6,0,0,1,.15.74,1.44,1.44,0,0,1-.63,1.27,3,3,0,0,1-1.72.43,4.43,4.43,0,0,1-1.25-.14,3.66,3.66,0,0,1-.57-.21l.2-.71a.56.56,0,0,0,.16.08,1.82,1.82,0,0,0,.32.12,3.91,3.91,0,0,0,.49.12A4.11,4.11,0,0,0,143.4,79Z"/><path class="cls-3" d="M29.49,94.08a3.4,3.4,0,0,1-1.28-.23,2.41,2.41,0,0,1-.91-.65,3,3,0,0,1-.56-1,4.72,4.72,0,0,1,0-2.65,3.13,3.13,0,0,1,.58-1,2.46,2.46,0,0,1,.89-.67,3,3,0,0,1,1.19-.23,5.49,5.49,0,0,1,.94.08,2.35,2.35,0,0,1,.68.22l-.2.67a2.63,2.63,0,0,0-.54-.19,3.52,3.52,0,0,0-.81-.07,1.89,1.89,0,0,0-1.56.66,3,3,0,0,0-.54,1.89,4.08,4.08,0,0,0,.12,1,2.09,2.09,0,0,0,.39.79,1.89,1.89,0,0,0,.7.51,2.48,2.48,0,0,0,1,.19,2.53,2.53,0,0,0,.84-.12,3.36,3.36,0,0,0,.5-.19l.17.67a2.63,2.63,0,0,1-.68.23A3.83,3.83,0,0,1,29.49,94.08Z"/><path class="cls-3" d="M37.59,90.85a4,4,0,0,1-.21,1.33,3,3,0,0,1-.59,1,2.69,2.69,0,0,1-.9.66,2.8,2.8,0,0,1-1.14.23,2.87,2.87,0,0,1-1.14-.23,2.76,2.76,0,0,1-.89-.66,3,3,0,0,1-.59-1,4.32,4.32,0,0,1,0-2.66,3.15,3.15,0,0,1,.59-1,2.76,2.76,0,0,1,.89-.66,2.87,2.87,0,0,1,1.14-.23,2.8,2.8,0,0,1,1.14.23,2.69,2.69,0,0,1,.9.66,3.15,3.15,0,0,1,.59,1A4,4,0,0,1,37.59,90.85Zm-.83,0A2.91,2.91,0,0,0,36.22,89a1.9,1.9,0,0,0-2.93,0,3.44,3.44,0,0,0,0,3.7,1.92,1.92,0,0,0,2.93,0A2.91,2.91,0,0,0,36.76,90.85Z"/><path class="cls-3" d="M39.25,88c.24-.07.55-.14.94-.22a7.31,7.31,0,0,1,1.44-.12,2.9,2.9,0,0,1,1.18.21,1.78,1.78,0,0,1,.76.58,2.31,2.31,0,0,1,.4.9,5.32,5.32,0,0,1,.12,1.17V94h-.78V90.73a6,6,0,0,0-.09-1.12,1.85,1.85,0,0,0-.3-.74,1.13,1.13,0,0,0-.55-.41,2.4,2.4,0,0,0-.86-.13,6.41,6.41,0,0,0-.95.06,3.16,3.16,0,0,0-.53.11V94h-.78Z"/><path class="cls-3" d="M46.77,87.74h2.47v.66H46.77v3.3a3.38,3.38,0,0,0,.09.86,1.22,1.22,0,0,0,.25.51.86.86,0,0,0,.41.24,2.2,2.2,0,0,0,.53.06,2.15,2.15,0,0,0,.79-.12,3.29,3.29,0,0,0,.47-.2l.19.64a2.32,2.32,0,0,1-.59.25,2.94,2.94,0,0,1-.91.14,2.69,2.69,0,0,1-1-.15,1.4,1.4,0,0,1-.63-.46,2,2,0,0,1-.33-.76A5.59,5.59,0,0,1,46,91.63V85.92l.78-.15Z"/><path class="cls-3" d="M50.25,90.84a3.81,3.81,0,0,1,.23-1.42,3.18,3.18,0,0,1,.61-1,2.35,2.35,0,0,1,.87-.6,2.45,2.45,0,0,1,1-.2,2.37,2.37,0,0,1,1.82.74,3.33,3.33,0,0,1,.67,2.29v.2c0,.06,0,.12,0,.17H51.07a2.8,2.8,0,0,0,.57,1.76,2.09,2.09,0,0,0,1.68.61,3.44,3.44,0,0,0,1-.12l.54-.2.14.67a3.54,3.54,0,0,1-.63.23,4.34,4.34,0,0,1-1.09.13,3.64,3.64,0,0,1-1.39-.24,2.63,2.63,0,0,1-.95-.67,2.89,2.89,0,0,1-.54-1A4.87,4.87,0,0,1,50.25,90.84Zm4.4-.49a2.5,2.5,0,0,0-.46-1.52A1.46,1.46,0,0,0,53,88.29a1.66,1.66,0,0,0-.75.17,1.93,1.93,0,0,0-.58.45,2.15,2.15,0,0,0-.38.66,2.46,2.46,0,0,0-.16.78Z"/><path class="cls-3" d="M57.1,88c.23-.07.54-.14.93-.22a7.45,7.45,0,0,1,1.44-.12,3,3,0,0,1,1.19.21,1.81,1.81,0,0,1,.75.58,2.31,2.31,0,0,1,.4.9,5.32,5.32,0,0,1,.12,1.17V94h-.78V90.73a6,6,0,0,0-.09-1.12,1.85,1.85,0,0,0-.3-.74,1.13,1.13,0,0,0-.55-.41,2.36,2.36,0,0,0-.86-.13,6.6,6.6,0,0,0-1,.06,3,3,0,0,0-.52.11V94H57.1Z"/><path class="cls-3" d="M64.81,85.87a.6.6,0,0,1-.16.44.57.57,0,0,1-.41.16.56.56,0,0,1-.41-.16.65.65,0,0,1,0-.88.56.56,0,0,1,.41-.16.57.57,0,0,1,.41.16A.6.6,0,0,1,64.81,85.87ZM64.63,94h-.78V87.74h.78Z"/><path class="cls-3" d="M71.57,93.75a6.61,6.61,0,0,1-.89.23,7.27,7.27,0,0,1-1.37.11,3.3,3.3,0,0,1-1.24-.22,2.74,2.74,0,0,1-1-.64,2.91,2.91,0,0,1-.62-1,3.88,3.88,0,0,1-.22-1.36,4.44,4.44,0,0,1,.18-1.3,3.08,3.08,0,0,1,.55-1,2.43,2.43,0,0,1,.88-.67,2.84,2.84,0,0,1,1.19-.24,3.12,3.12,0,0,1,1.07.17,3.18,3.18,0,0,1,.65.33V84.78l.78-.15Zm-.78-4.88a1.58,1.58,0,0,0-.27-.18,3.43,3.43,0,0,0-.38-.18,2.62,2.62,0,0,0-1-.19,2.15,2.15,0,0,0-1,.2,1.77,1.77,0,0,0-.63.55,2.24,2.24,0,0,0-.35.8,4.46,4.46,0,0,0-.11,1,2.65,2.65,0,0,0,.62,1.88,2.11,2.11,0,0,0,1.62.65,7.63,7.63,0,0,0,.93,0,4,4,0,0,0,.53-.12Z"/><path class="cls-3" d="M78.9,90.85a4,4,0,0,1-.21,1.33,2.85,2.85,0,0,1-.59,1,2.76,2.76,0,0,1-.89.66,2.94,2.94,0,0,1-2.28,0A2.76,2.76,0,0,1,74,93.2a2.85,2.85,0,0,1-.59-1,4.32,4.32,0,0,1,0-2.66,3,3,0,0,1,.59-1,2.76,2.76,0,0,1,.89-.66,2.94,2.94,0,0,1,2.28,0,2.76,2.76,0,0,1,.89.66,3,3,0,0,1,.59,1A4,4,0,0,1,78.9,90.85Zm-.83,0A2.91,2.91,0,0,0,77.53,89a1.89,1.89,0,0,0-2.92,0,3.44,3.44,0,0,0,0,3.7,1.91,1.91,0,0,0,2.92,0A2.91,2.91,0,0,0,78.07,90.85Z"/><path class="cls-3" d="M81.85,93.39A2.41,2.41,0,0,0,83,93.17a.77.77,0,0,0,.44-.75.94.94,0,0,0-.08-.43.76.76,0,0,0-.25-.32,2.1,2.1,0,0,0-.48-.28l-.72-.31-.66-.3a2.78,2.78,0,0,1-.56-.34,1.61,1.61,0,0,1-.38-.48,1.38,1.38,0,0,1-.14-.67,1.5,1.5,0,0,1,.57-1.22,2.34,2.34,0,0,1,1.56-.47,3.83,3.83,0,0,1,1,.11,2.75,2.75,0,0,1,.58.19l-.18.69c-.09,0-.25-.11-.48-.19a3.19,3.19,0,0,0-1-.12,2,2,0,0,0-.5.06,1.31,1.31,0,0,0-.42.16,1,1,0,0,0-.28.29.75.75,0,0,0-.11.43.94.94,0,0,0,.09.43,1,1,0,0,0,.29.32,2.32,2.32,0,0,0,.45.26l.62.26.69.29a2.58,2.58,0,0,1,.58.36,1.57,1.57,0,0,1,.41.51,1.59,1.59,0,0,1,.16.74,1.44,1.44,0,0,1-.63,1.27,3,3,0,0,1-1.73.43A4.3,4.3,0,0,1,80.61,94a4.43,4.43,0,0,1-.58-.21l.2-.71a.76.76,0,0,0,.16.08,2.2,2.2,0,0,0,.32.12,3.91,3.91,0,0,0,.49.12A4.28,4.28,0,0,0,81.85,93.39Z"/><path class="cls-3" d="M87,93.43a.71.71,0,0,1-.17.47.73.73,0,0,1-1,0,.73.73,0,0,1,0-.94.73.73,0,0,1,1,0A.71.71,0,0,1,87,93.43Z"/><text class="cls-4" transform="translate(14.55 111.18)">•</text><text class="cls-4" transform="translate(19.64 111.18)"> </text><path class="cls-3" d="M29.07,102.79a4.28,4.28,0,0,1,2.62.67,2.28,2.28,0,0,1,.87,1.91,2.77,2.77,0,0,1-.25,1.21,2.06,2.06,0,0,1-.72.8,3.41,3.41,0,0,1-1.15.45,7.87,7.87,0,0,1-1.53.13H27.78v3.22H27V103a5.16,5.16,0,0,1,1-.17A10.67,10.67,0,0,1,29.07,102.79Zm0,.71c-.3,0-.56,0-.77,0l-.55.06v3.67h1a8.68,8.68,0,0,0,1.19-.08,2.63,2.63,0,0,0,.91-.29,1.41,1.41,0,0,0,.58-.58,1.91,1.91,0,0,0,.21-1,1.68,1.68,0,0,0-.23-.91,1.59,1.59,0,0,0-.58-.57,2.53,2.53,0,0,0-.84-.29A5,5,0,0,0,29.1,103.5Z"/><path class="cls-3" d="M36.11,104.86a4.23,4.23,0,0,1,.73.06,2.17,2.17,0,0,1,.47.12l-.16.67a1.46,1.46,0,0,0-.39-.1,3.93,3.93,0,0,0-.77-.06,4.19,4.19,0,0,0-.81.07,1.65,1.65,0,0,0-.4.13v5.43H34v-5.92a6.48,6.48,0,0,1,.83-.26A4.77,4.77,0,0,1,36.11,104.86Z"/><path class="cls-3" d="M38,108.07a3.84,3.84,0,0,1,.24-1.42,3.06,3.06,0,0,1,.61-1,2.31,2.31,0,0,1,.86-.61,2.71,2.71,0,0,1,1-.2,2.31,2.31,0,0,1,1.81.75,3.27,3.27,0,0,1,.68,2.29v.19c0,.06,0,.12,0,.18H38.82a2.71,2.71,0,0,0,.57,1.75,2.09,2.09,0,0,0,1.68.61,3.32,3.32,0,0,0,1-.12,2.74,2.74,0,0,0,.54-.2l.15.67a2.88,2.88,0,0,1-.63.23,3.92,3.92,0,0,1-1.09.13,3.6,3.6,0,0,1-1.39-.24,2.52,2.52,0,0,1-.95-.67,2.61,2.61,0,0,1-.54-1A4.81,4.81,0,0,1,38,108.07Zm4.41-.49a2.47,2.47,0,0,0-.46-1.51,1.47,1.47,0,0,0-1.22-.54,1.66,1.66,0,0,0-.75.17,1.93,1.93,0,0,0-.58.45,2.1,2.1,0,0,0-.38.65,2.58,2.58,0,0,0-.16.78Z"/><path class="cls-3" d="M46.21,110.63a2.55,2.55,0,0,0,1.11-.22.77.77,0,0,0,.44-.75,1,1,0,0,0-.08-.44.83.83,0,0,0-.25-.32,2.1,2.1,0,0,0-.48-.28l-.72-.31a6.86,6.86,0,0,1-.66-.29,2.81,2.81,0,0,1-.56-.35,1.57,1.57,0,0,1-.38-.47,1.42,1.42,0,0,1-.14-.68,1.5,1.5,0,0,1,.57-1.22,2.4,2.4,0,0,1,1.56-.47,4.27,4.27,0,0,1,1.05.11,3.51,3.51,0,0,1,.58.19l-.18.7a3.61,3.61,0,0,0-.48-.19,3.19,3.19,0,0,0-1-.12,2,2,0,0,0-.5,0,1.32,1.32,0,0,0-.42.17.86.86,0,0,0-.28.29.71.71,0,0,0-.11.42,1,1,0,0,0,.09.44,1.08,1.08,0,0,0,.29.32,2.33,2.33,0,0,0,.45.25l.62.27c.24.09.47.19.69.29a2.58,2.58,0,0,1,.58.36,1.5,1.5,0,0,1,.57,1.24,1.44,1.44,0,0,1-.63,1.27,3,3,0,0,1-1.73.43,4.37,4.37,0,0,1-1.24-.13l-.58-.21.2-.71.16.08.32.12a4,4,0,0,0,.49.11A4.19,4.19,0,0,0,46.21,110.63Z"/><path class="cls-3" d="M49.73,108.07a4.06,4.06,0,0,1,.23-1.42,3.08,3.08,0,0,1,.62-1,2.31,2.31,0,0,1,.86-.61,2.66,2.66,0,0,1,1-.2,2.33,2.33,0,0,1,1.82.75,3.32,3.32,0,0,1,.68,2.29,1.21,1.21,0,0,1,0,.19,1.1,1.1,0,0,1,0,.18H50.56a2.71,2.71,0,0,0,.56,1.75,2.09,2.09,0,0,0,1.68.61,3.39,3.39,0,0,0,1-.12,2.74,2.74,0,0,0,.54-.2l.14.67a2.88,2.88,0,0,1-.63.23,3.85,3.85,0,0,1-1.08.13,3.57,3.57,0,0,1-1.39-.24,2.44,2.44,0,0,1-1-.67,2.61,2.61,0,0,1-.54-1A4.81,4.81,0,0,1,49.73,108.07Zm4.4-.49a2.4,2.4,0,0,0-.45-1.51,1.49,1.49,0,0,0-1.23-.54,1.66,1.66,0,0,0-.75.17,1.78,1.78,0,0,0-.57.45,2.12,2.12,0,0,0-.39.65,2.92,2.92,0,0,0-.16.78Z"/><path class="cls-3" d="M56.58,105.19l.94-.21a7.31,7.31,0,0,1,1.44-.12,2.94,2.94,0,0,1,1.18.2,1.86,1.86,0,0,1,.76.58,2.52,2.52,0,0,1,.4.91,5.23,5.23,0,0,1,.12,1.16v3.47h-.78V108a5.78,5.78,0,0,0-.09-1.11,1.9,1.9,0,0,0-.3-.75,1.18,1.18,0,0,0-.55-.41,2.64,2.64,0,0,0-.86-.13,8.48,8.48,0,0,0-1,.06,5,5,0,0,0-.52.11v5.45h-.78Z"/><path class="cls-3" d="M64.08,105h2.47v.66H64.08v3.3a3.24,3.24,0,0,0,.09.85,1.22,1.22,0,0,0,.26.51.82.82,0,0,0,.41.24,1.76,1.76,0,0,0,.53.06,2.21,2.21,0,0,0,.79-.11,3.72,3.72,0,0,0,.47-.21l.19.65a2.87,2.87,0,0,1-.59.24,2.67,2.67,0,0,1-.91.14,2.71,2.71,0,0,1-1-.15,1.37,1.37,0,0,1-.62-.45,1.8,1.8,0,0,1-.33-.77,4.84,4.84,0,0,1-.1-1.08v-5.71l.78-.14Z"/><path class="cls-3" d="M70,104.83a2.66,2.66,0,0,1,1,.18,1.59,1.59,0,0,1,.69.48,1.8,1.8,0,0,1,.39.72,3.34,3.34,0,0,1,.12.91V111a3,3,0,0,1-.35.07l-.53.09a5.87,5.87,0,0,1-.67.08q-.36,0-.75,0a3.22,3.22,0,0,1-.9-.11,1.85,1.85,0,0,1-.72-.34,1.43,1.43,0,0,1-.48-.6,2,2,0,0,1-.18-.89,1.83,1.83,0,0,1,.2-.87,1.52,1.52,0,0,1,.54-.59,2.25,2.25,0,0,1,.82-.34,4.9,4.9,0,0,1,1-.11l.35,0,.36,0,.3.06.18,0v-.38a4.23,4.23,0,0,0,0-.63,1.36,1.36,0,0,0-.21-.56,1.18,1.18,0,0,0-.46-.39,1.67,1.67,0,0,0-.77-.15,4.21,4.21,0,0,0-1,.09l-.49.16-.11-.68a2.21,2.21,0,0,1,.63-.18A5,5,0,0,1,70,104.83Zm.08,5.79c.3,0,.57,0,.79,0s.43,0,.59-.08v-2.19a2.26,2.26,0,0,0-.42-.12,4.07,4.07,0,0,0-.8-.07c-.19,0-.39,0-.6,0a1.81,1.81,0,0,0-.57.18,1.22,1.22,0,0,0-.43.38,1,1,0,0,0-.17.64,1.48,1.48,0,0,0,.11.59.94.94,0,0,0,.33.38,1.26,1.26,0,0,0,.5.21A3.36,3.36,0,0,0,70.11,110.62Z"/><path class="cls-3" d="M81.76,111c-.23.07-.55.14-.94.22a7.31,7.31,0,0,1-1.44.12,3,3,0,0,1-1.16-.2,1.93,1.93,0,0,1-.76-.58,2.33,2.33,0,0,1-.41-.9,4.68,4.68,0,0,1-.13-1.16V105h.78v3.22a5.1,5.1,0,0,0,.1,1.12,1.86,1.86,0,0,0,.31.74,1.22,1.22,0,0,0,.56.41,2.51,2.51,0,0,0,.83.12,6.65,6.65,0,0,0,1-.06,2.11,2.11,0,0,0,.52-.11V105h.78Z"/><path class="cls-3" d="M83.75,105.19l.94-.21a7.31,7.31,0,0,1,1.44-.12,2.94,2.94,0,0,1,1.18.2,1.83,1.83,0,0,1,.75.58,2.37,2.37,0,0,1,.41.91,5.23,5.23,0,0,1,.12,1.16v3.47h-.78V108a5.78,5.78,0,0,0-.09-1.11,1.9,1.9,0,0,0-.3-.75,1.16,1.16,0,0,0-.56-.41,2.53,2.53,0,0,0-.85-.13,8.48,8.48,0,0,0-1,.06,4.43,4.43,0,0,0-.52.11v5.45h-.78Z"/><path class="cls-3" d="M92.37,104.83a2.64,2.64,0,0,1,1,.18,1.59,1.59,0,0,1,.69.48,1.8,1.8,0,0,1,.39.72,3.34,3.34,0,0,1,.12.91V111a3,3,0,0,1-.35.07l-.53.09a6,6,0,0,1-.66.08q-.37,0-.75,0a3.29,3.29,0,0,1-.91-.11,1.85,1.85,0,0,1-.72-.34,1.6,1.6,0,0,1-.48-.6,2,2,0,0,1-.17-.89,1.83,1.83,0,0,1,.19-.87,1.6,1.6,0,0,1,.54-.59,2.3,2.3,0,0,1,.83-.34,4.81,4.81,0,0,1,1-.11l.35,0,.36,0,.3.06a.69.69,0,0,1,.18,0v-.38a4.23,4.23,0,0,0,0-.63,1.36,1.36,0,0,0-.21-.56,1.18,1.18,0,0,0-.46-.39,1.67,1.67,0,0,0-.77-.15,4.21,4.21,0,0,0-1,.09l-.49.16-.11-.68a2.44,2.44,0,0,1,.63-.18A5.05,5.05,0,0,1,92.37,104.83Zm.07,5.79c.3,0,.57,0,.8,0s.42,0,.58-.08v-2.19a2.26,2.26,0,0,0-.42-.12,4,4,0,0,0-.79-.07c-.2,0-.4,0-.6,0a1.87,1.87,0,0,0-.58.18,1.22,1.22,0,0,0-.43.38,1.1,1.1,0,0,0-.17.64,1.48,1.48,0,0,0,.11.59.94.94,0,0,0,.33.38,1.33,1.33,0,0,0,.5.21A3.36,3.36,0,0,0,92.44,110.62Z"/><path class="cls-3" d="M100.29,103.1a.59.59,0,0,1-.17.44.61.61,0,0,1-.82,0,.59.59,0,0,1-.17-.44.58.58,0,1,1,1.16,0Zm-.18,8.08h-.78V105h.78Z"/><path class="cls-3" d="M102.1,105.19l.9-.21a7.21,7.21,0,0,1,1.45-.12,2,2,0,0,1,1.7.68,2.37,2.37,0,0,1,.24-.16,2.48,2.48,0,0,1,.44-.24,3.64,3.64,0,0,1,.61-.2,3.25,3.25,0,0,1,.79-.08,2.72,2.72,0,0,1,1.15.21,1.59,1.59,0,0,1,.67.58,2.52,2.52,0,0,1,.33.91,8.2,8.2,0,0,1,.08,1.15v3.47h-.78V108c0-.4,0-.76-.05-1.06a2,2,0,0,0-.22-.74,1.05,1.05,0,0,0-.46-.45,1.75,1.75,0,0,0-.78-.15,3.16,3.16,0,0,0-.65.07,2.56,2.56,0,0,0-.51.16,2.85,2.85,0,0,0-.36.19l-.2.15a3.42,3.42,0,0,1,.17.7,7.08,7.08,0,0,1,0,.82v3.53h-.78V108c0-.4,0-.76,0-1.06a1.84,1.84,0,0,0-.23-.74,1.07,1.07,0,0,0-.47-.45,1.83,1.83,0,0,0-.81-.15,8,8,0,0,0-1,.06,3.79,3.79,0,0,0-.5.11v5.45h-.78Z"/><path class="cls-3" d="M114.27,104.83a2.64,2.64,0,0,1,1,.18,1.59,1.59,0,0,1,.69.48,1.8,1.8,0,0,1,.39.72,3.34,3.34,0,0,1,.12.91V111a3,3,0,0,1-.35.07l-.53.09a6,6,0,0,1-.66.08q-.37,0-.75,0a3.29,3.29,0,0,1-.91-.11,1.85,1.85,0,0,1-.72-.34,1.51,1.51,0,0,1-.48-.6,2,2,0,0,1-.17-.89,1.83,1.83,0,0,1,.19-.87,1.6,1.6,0,0,1,.54-.59,2.3,2.3,0,0,1,.83-.34,4.81,4.81,0,0,1,1-.11l.35,0,.36,0,.3.06a.69.69,0,0,1,.18,0v-.38a4.23,4.23,0,0,0,0-.63,1.36,1.36,0,0,0-.21-.56,1.18,1.18,0,0,0-.46-.39,1.67,1.67,0,0,0-.77-.15,4.21,4.21,0,0,0-1,.09l-.49.16-.11-.68a2.44,2.44,0,0,1,.63-.18A5.05,5.05,0,0,1,114.27,104.83Zm.07,5.79c.3,0,.57,0,.8,0s.42,0,.58-.08v-2.19a2.26,2.26,0,0,0-.42-.12,4,4,0,0,0-.8-.07c-.19,0-.39,0-.59,0a1.79,1.79,0,0,0-.58.18,1.22,1.22,0,0,0-.43.38,1.1,1.1,0,0,0-.17.64,1.48,1.48,0,0,0,.11.59.94.94,0,0,0,.33.38,1.33,1.33,0,0,0,.5.21A3.36,3.36,0,0,0,114.34,110.62Z"/><path class="cls-3" d="M122.49,110.46a1.21,1.21,0,0,1-.22.14l-.35.16a3,3,0,0,1-.48.14,3.76,3.76,0,0,1-.61,0,3,3,0,0,1-1-.17,2.35,2.35,0,0,1-.89-.52,2.58,2.58,0,0,1-.6-.93,3.81,3.81,0,0,1-.23-1.39,3.67,3.67,0,0,1,.2-1.22,2.76,2.76,0,0,1,.59-1,2.65,2.65,0,0,1,.92-.65,3,3,0,0,1,1.23-.23,6.54,6.54,0,0,1,1.39.11c.34.08.63.15.85.22v5.67a2.43,2.43,0,0,1-.72,2,3.32,3.32,0,0,1-2.17.6,5.89,5.89,0,0,1-1.08-.09,5.7,5.7,0,0,1-.84-.21l.16-.71a3.71,3.71,0,0,0,.78.23,5.66,5.66,0,0,0,1,.09,2.47,2.47,0,0,0,1.6-.42,1.85,1.85,0,0,0,.5-1.46Zm0-4.73a3.54,3.54,0,0,0-.52-.11,5.52,5.52,0,0,0-.93-.06,2.11,2.11,0,0,0-.89.18,1.9,1.9,0,0,0-.67.49,2.23,2.23,0,0,0-.42.76,3.22,3.22,0,0,0-.14,1,2.75,2.75,0,0,0,.17,1,2.12,2.12,0,0,0,.43.72,1.79,1.79,0,0,0,.62.4,2.17,2.17,0,0,0,.71.13,3,3,0,0,0,1-.16,2.43,2.43,0,0,0,.67-.36Z"/><path class="cls-3" d="M124.93,108.07a3.84,3.84,0,0,1,.24-1.42,3.06,3.06,0,0,1,.61-1,2.31,2.31,0,0,1,.86-.61,2.71,2.71,0,0,1,1-.2,2.32,2.32,0,0,1,1.81.75,3.32,3.32,0,0,1,.68,2.29,1.21,1.21,0,0,1,0,.19c0,.06,0,.12,0,.18h-4.36a2.71,2.71,0,0,0,.56,1.75,2.12,2.12,0,0,0,1.68.61,3.39,3.39,0,0,0,1-.12,2.74,2.74,0,0,0,.54-.2l.15.67a3.37,3.37,0,0,1-.63.23,3.92,3.92,0,0,1-1.09.13,3.6,3.6,0,0,1-1.39-.24,2.44,2.44,0,0,1-1-.67,2.61,2.61,0,0,1-.54-1A4.81,4.81,0,0,1,124.93,108.07Zm4.41-.49a2.47,2.47,0,0,0-.46-1.51,1.47,1.47,0,0,0-1.22-.54,1.66,1.66,0,0,0-.75.17,1.82,1.82,0,0,0-.58.45,2.1,2.1,0,0,0-.38.65,2.94,2.94,0,0,0-.17.78Z"/><path class="cls-3" d="M131.77,105.19l.94-.21a7.31,7.31,0,0,1,1.44-.12,2.94,2.94,0,0,1,1.18.2,1.86,1.86,0,0,1,.76.58,2.52,2.52,0,0,1,.4.91,5.23,5.23,0,0,1,.12,1.16v3.47h-.78V108a5.78,5.78,0,0,0-.09-1.11,1.9,1.9,0,0,0-.3-.75,1.18,1.18,0,0,0-.55-.41,2.64,2.64,0,0,0-.86-.13,8.48,8.48,0,0,0-1,.06,5,5,0,0,0-.52.11v5.45h-.78Z"/><path class="cls-3" d="M29,119.26a4.23,4.23,0,0,1,.73.06,2.35,2.35,0,0,1,.47.12l-.16.67a1.46,1.46,0,0,0-.39-.1,3.93,3.93,0,0,0-.77-.06,4.19,4.19,0,0,0-.81.07,1.65,1.65,0,0,0-.4.13v5.43h-.78v-5.91a5.05,5.05,0,0,1,.83-.27A4.77,4.77,0,0,1,29,119.26Z"/><path class="cls-3" d="M30.91,122.47a3.84,3.84,0,0,1,.24-1.42,3.06,3.06,0,0,1,.61-1,2.31,2.31,0,0,1,.86-.61,2.71,2.71,0,0,1,1-.2,2.31,2.31,0,0,1,1.81.75,3.27,3.27,0,0,1,.68,2.29v.19c0,.06,0,.13,0,.18H31.74a2.71,2.71,0,0,0,.57,1.75A2.09,2.09,0,0,0,34,125a3.32,3.32,0,0,0,1-.12,2.74,2.74,0,0,0,.54-.2l.15.67a2.88,2.88,0,0,1-.63.23,3.92,3.92,0,0,1-1.09.13,3.6,3.6,0,0,1-1.39-.24,2.52,2.52,0,0,1-.95-.67,2.61,2.61,0,0,1-.54-1A4.81,4.81,0,0,1,30.91,122.47Zm4.41-.49a2.47,2.47,0,0,0-.46-1.51,1.47,1.47,0,0,0-1.22-.54,1.66,1.66,0,0,0-.75.17,1.93,1.93,0,0,0-.58.45,2.1,2.1,0,0,0-.38.65,2.58,2.58,0,0,0-.16.78Z"/><path class="cls-3" d="M38.55,127.8h-.78v-8.21a8.3,8.3,0,0,1,.88-.23,7.46,7.46,0,0,1,1.37-.1,3.26,3.26,0,0,1,1.24.22,2.57,2.57,0,0,1,1,.64,2.93,2.93,0,0,1,.63,1,3.84,3.84,0,0,1,.22,1.36,4.17,4.17,0,0,1-.19,1.3,2.93,2.93,0,0,1-.54,1,2.64,2.64,0,0,1-.88.67,3,3,0,0,1-1.2.23,2.84,2.84,0,0,1-1.06-.17,2.55,2.55,0,0,1-.65-.33Zm0-3.34a2.43,2.43,0,0,0,.27.19,2.46,2.46,0,0,0,.84.31,2.33,2.33,0,0,0,.53.06,2.18,2.18,0,0,0,1-.2,1.65,1.65,0,0,0,.63-.54,2.28,2.28,0,0,0,.34-.81,3.8,3.8,0,0,0,.11-1,2.64,2.64,0,0,0-.61-1.88A2.11,2.11,0,0,0,40,120a5.85,5.85,0,0,0-.93.06,2.79,2.79,0,0,0-.53.11Z"/><path class="cls-3" d="M46.85,119.26a4.23,4.23,0,0,1,.73.06,2.35,2.35,0,0,1,.47.12l-.16.67a1.46,1.46,0,0,0-.39-.1,3.93,3.93,0,0,0-.77-.06,4.19,4.19,0,0,0-.81.07,1.65,1.65,0,0,0-.4.13v5.43h-.78v-5.91a5.05,5.05,0,0,1,.83-.27A4.77,4.77,0,0,1,46.85,119.26Z"/><path class="cls-3" d="M48.73,122.47a3.84,3.84,0,0,1,.24-1.42,3.06,3.06,0,0,1,.61-1,2.31,2.31,0,0,1,.86-.61,2.71,2.71,0,0,1,1-.2,2.31,2.31,0,0,1,1.81.75,3.27,3.27,0,0,1,.68,2.29v.19c0,.06,0,.13,0,.18H49.56a2.71,2.71,0,0,0,.57,1.75,2.09,2.09,0,0,0,1.68.61,3.32,3.32,0,0,0,1-.12,2.74,2.74,0,0,0,.54-.2l.15.67a2.88,2.88,0,0,1-.63.23,3.92,3.92,0,0,1-1.09.13,3.6,3.6,0,0,1-1.39-.24,2.52,2.52,0,0,1-1-.67,2.61,2.61,0,0,1-.54-1A4.81,4.81,0,0,1,48.73,122.47Zm4.41-.49a2.47,2.47,0,0,0-.46-1.51,1.47,1.47,0,0,0-1.22-.54,1.66,1.66,0,0,0-.75.17,1.93,1.93,0,0,0-.58.45,2.1,2.1,0,0,0-.38.65,2.58,2.58,0,0,0-.16.78Z"/><path class="cls-3" d="M57,125a2.55,2.55,0,0,0,1.11-.22.77.77,0,0,0,.44-.75,1,1,0,0,0-.08-.44.83.83,0,0,0-.25-.32,2.1,2.1,0,0,0-.48-.28l-.72-.31a6.86,6.86,0,0,1-.66-.29,2.81,2.81,0,0,1-.56-.35,1.57,1.57,0,0,1-.38-.47,1.42,1.42,0,0,1-.14-.68,1.5,1.5,0,0,1,.57-1.22,2.4,2.4,0,0,1,1.56-.47,4.27,4.27,0,0,1,1,.11,3.51,3.51,0,0,1,.58.19l-.18.7a3.61,3.61,0,0,0-.48-.19,3.19,3.19,0,0,0-1-.12,2,2,0,0,0-.5,0,1.32,1.32,0,0,0-.42.17.86.86,0,0,0-.28.29.71.71,0,0,0-.11.42,1,1,0,0,0,.09.44,1.08,1.08,0,0,0,.29.32,2.33,2.33,0,0,0,.45.25l.62.27c.24.09.47.19.69.29a2.58,2.58,0,0,1,.58.36,1.5,1.5,0,0,1,.57,1.24,1.44,1.44,0,0,1-.63,1.27,3,3,0,0,1-1.73.43,4.37,4.37,0,0,1-1.24-.13c-.29-.09-.48-.17-.58-.21l.2-.71.16.08.32.12a4,4,0,0,0,.49.11A4.19,4.19,0,0,0,57,125Z"/><path class="cls-3" d="M60.48,122.47a3.84,3.84,0,0,1,.24-1.42,3.06,3.06,0,0,1,.61-1,2.31,2.31,0,0,1,.86-.61,2.7,2.7,0,0,1,1-.2A2.33,2.33,0,0,1,65,120a3.32,3.32,0,0,1,.68,2.29,1.21,1.21,0,0,1,0,.19c0,.06,0,.13,0,.18H61.31a2.71,2.71,0,0,0,.56,1.75,2.12,2.12,0,0,0,1.68.61,3.39,3.39,0,0,0,1-.12,2.74,2.74,0,0,0,.54-.2l.15.67a3.37,3.37,0,0,1-.63.23,3.92,3.92,0,0,1-1.09.13,3.6,3.6,0,0,1-1.39-.24,2.44,2.44,0,0,1-1-.67,2.61,2.61,0,0,1-.54-1A4.81,4.81,0,0,1,60.48,122.47Zm4.41-.49a2.47,2.47,0,0,0-.46-1.51,1.48,1.48,0,0,0-1.22-.54,1.66,1.66,0,0,0-.75.17,1.82,1.82,0,0,0-.58.45,2.1,2.1,0,0,0-.38.65,2.59,2.59,0,0,0-.17.78Z"/><path class="cls-3" d="M67.33,119.59l.94-.21a7.31,7.31,0,0,1,1.44-.12,3.09,3.09,0,0,1,1.18.2,1.86,1.86,0,0,1,.76.58,2.36,2.36,0,0,1,.4.91,5.23,5.23,0,0,1,.12,1.16v3.47h-.78v-3.22a5.78,5.78,0,0,0-.09-1.11,1.9,1.9,0,0,0-.3-.75,1.13,1.13,0,0,0-.55-.41,2.64,2.64,0,0,0-.86-.13,8.14,8.14,0,0,0-1,.06,4.78,4.78,0,0,0-.53.11v5.45h-.78Z"/><path class="cls-3" d="M74.85,119.38h2.47V120H74.85v3.3a3.24,3.24,0,0,0,.09.85,1.11,1.11,0,0,0,.25.51.73.73,0,0,0,.41.24,1.8,1.8,0,0,0,.53.06,2.17,2.17,0,0,0,.79-.11,2.38,2.38,0,0,0,.47-.21l.19.65a3.41,3.41,0,0,1-.59.25,2.94,2.94,0,0,1-.91.13,2.69,2.69,0,0,1-1-.15,1.46,1.46,0,0,1-.63-.45,2.09,2.09,0,0,1-.33-.77,5.59,5.59,0,0,1-.09-1.08v-5.71l.78-.14Z"/><path class="cls-3" d="M80.8,119.23a2.69,2.69,0,0,1,1,.18,1.72,1.72,0,0,1,.69.48,1.91,1.91,0,0,1,.38.72,3.34,3.34,0,0,1,.12.91v3.92l-.35.07-.53.09a6,6,0,0,1-.66.08q-.37,0-.75,0a3.29,3.29,0,0,1-.91-.11,2,2,0,0,1-.72-.34,1.6,1.6,0,0,1-.48-.6,2.14,2.14,0,0,1-.17-.89,1.76,1.76,0,0,1,.19-.86,1.72,1.72,0,0,1,.54-.6A2.5,2.5,0,0,1,80,122a4.88,4.88,0,0,1,1-.11l.36,0,.36.05.3.06a.71.71,0,0,1,.17.05v-.38a4.23,4.23,0,0,0,0-.63,1.36,1.36,0,0,0-.21-.56,1.23,1.23,0,0,0-.45-.39,1.75,1.75,0,0,0-.78-.15,4.33,4.33,0,0,0-1,.09l-.49.16-.11-.68a2.44,2.44,0,0,1,.63-.18A5.12,5.12,0,0,1,80.8,119.23Zm.07,5.79c.3,0,.57,0,.8,0a5.83,5.83,0,0,0,.58-.08v-2.19a2.26,2.26,0,0,0-.42-.12,4,4,0,0,0-.79-.07,4.28,4.28,0,0,0-.6,0,1.62,1.62,0,0,0-.58.17,1.31,1.31,0,0,0-.43.38,1.1,1.1,0,0,0-.17.64,1.32,1.32,0,0,0,.12.59.85.85,0,0,0,.32.38,1.33,1.33,0,0,0,.5.21A2.76,2.76,0,0,0,80.87,125Z"/><path class="cls-3" d="M85.71,119.38h2.47V120H85.71v3.3a3.24,3.24,0,0,0,.09.85,1.11,1.11,0,0,0,.25.51.73.73,0,0,0,.41.24A1.8,1.8,0,0,0,87,125a2.17,2.17,0,0,0,.79-.11,2.38,2.38,0,0,0,.47-.21l.19.65a3.41,3.41,0,0,1-.59.25,2.94,2.94,0,0,1-.91.13,2.69,2.69,0,0,1-1-.15,1.46,1.46,0,0,1-.63-.45,2.09,2.09,0,0,1-.33-.77,5.59,5.59,0,0,1-.09-1.08v-5.71l.78-.14Z"/><path class="cls-3" d="M90.65,117.5a.57.57,0,0,1-.17.44.56.56,0,0,1-.41.16.6.6,0,0,1,0-1.19.56.56,0,0,1,.41.16A.56.56,0,0,1,90.65,117.5Zm-.18,8.08h-.78v-6.2h.78Z"/><path class="cls-3" d="M94.44,124.74c.16-.34.34-.74.51-1.18s.35-.9.51-1.38.32-1,.46-1.44.26-.94.36-1.36h.78c-.15.56-.31,1.12-.49,1.68s-.36,1.09-.56,1.62-.4,1-.61,1.52-.42,1-.63,1.38h-.72q-.31-.64-.63-1.38c-.21-.49-.41-1-.61-1.52s-.38-1.07-.56-1.62-.34-1.12-.48-1.68h.82c.1.42.22.87.36,1.36s.29,1,.46,1.44.33.93.51,1.38S94.27,124.4,94.44,124.74Z"/><path class="cls-3" d="M100.13,119.23a2.69,2.69,0,0,1,1,.18,1.72,1.72,0,0,1,.69.48,1.91,1.91,0,0,1,.38.72,3.34,3.34,0,0,1,.12.91v3.92a2.64,2.64,0,0,1-.35.07l-.52.09a6.16,6.16,0,0,1-.67.08q-.36,0-.75,0a3.29,3.29,0,0,1-.91-.11,2,2,0,0,1-.72-.34,1.6,1.6,0,0,1-.48-.6,2.14,2.14,0,0,1-.17-.89,1.76,1.76,0,0,1,.19-.86,1.72,1.72,0,0,1,.54-.6,2.5,2.5,0,0,1,.83-.34,4.88,4.88,0,0,1,1-.11l.36,0,.36.05.3.06a.71.71,0,0,1,.17.05v-.38a3.22,3.22,0,0,0,0-.63,1.36,1.36,0,0,0-.21-.56,1.15,1.15,0,0,0-.45-.39,1.75,1.75,0,0,0-.78-.15,4.33,4.33,0,0,0-1,.09l-.49.16-.11-.68a2.44,2.44,0,0,1,.63-.18A5.12,5.12,0,0,1,100.13,119.23Zm.07,5.79c.31,0,.57,0,.8,0a5.83,5.83,0,0,0,.58-.08v-2.19a2.26,2.26,0,0,0-.42-.12,3.88,3.88,0,0,0-.79-.07,4.28,4.28,0,0,0-.6,0,1.62,1.62,0,0,0-.58.17,1.31,1.31,0,0,0-.43.38,1.1,1.1,0,0,0-.17.64,1.32,1.32,0,0,0,.12.59.85.85,0,0,0,.32.38,1.31,1.31,0,0,0,.51.21A2.62,2.62,0,0,0,100.2,125Z"/><path class="cls-3" d="M112,125.39a8.57,8.57,0,0,1-.89.23,7.34,7.34,0,0,1-1.36.1,3.35,3.35,0,0,1-1.25-.22,2.74,2.74,0,0,1-1-.64,3.06,3.06,0,0,1-.62-1,3.82,3.82,0,0,1-.22-1.35,4.51,4.51,0,0,1,.18-1.31,3,3,0,0,1,.55-1,2.43,2.43,0,0,1,.88-.67,2.84,2.84,0,0,1,1.19-.24,2.9,2.9,0,0,1,1.07.17,2.55,2.55,0,0,1,.65.33v-3.34l.78-.14Zm-.78-4.89-.27-.17a1.68,1.68,0,0,0-.38-.18,2.24,2.24,0,0,0-.46-.14,2.33,2.33,0,0,0-.53-.06,2,2,0,0,0-1,.21,1.65,1.65,0,0,0-.63.54,2.48,2.48,0,0,0-.35.81,4.4,4.4,0,0,0-.1,1,2.62,2.62,0,0,0,.61,1.87,2.11,2.11,0,0,0,1.62.66,5.85,5.85,0,0,0,.93-.06,3,3,0,0,0,.53-.11Z"/><path class="cls-3" d="M113.69,122.47a4.06,4.06,0,0,1,.23-1.42,3.08,3.08,0,0,1,.62-1,2.31,2.31,0,0,1,.86-.61,2.66,2.66,0,0,1,1-.2,2.33,2.33,0,0,1,1.82.75,3.32,3.32,0,0,1,.68,2.29,1.21,1.21,0,0,1,0,.19,1,1,0,0,1,0,.18h-4.35a2.71,2.71,0,0,0,.56,1.75,2.09,2.09,0,0,0,1.68.61,3.39,3.39,0,0,0,1-.12,2.74,2.74,0,0,0,.54-.2l.14.67a2.88,2.88,0,0,1-.63.23,3.85,3.85,0,0,1-1.08.13,3.57,3.57,0,0,1-1.39-.24,2.44,2.44,0,0,1-.95-.67,2.61,2.61,0,0,1-.54-1A4.81,4.81,0,0,1,113.69,122.47Zm4.4-.49a2.4,2.4,0,0,0-.45-1.51,1.49,1.49,0,0,0-1.23-.54,1.66,1.66,0,0,0-.75.17,1.78,1.78,0,0,0-.57.45,2.12,2.12,0,0,0-.39.65,2.92,2.92,0,0,0-.16.78Z"/><path class="cls-3" d="M124.94,125.69a2.79,2.79,0,0,1-.69-.1,1.39,1.39,0,0,1-.49-.28,1.16,1.16,0,0,1-.3-.48,2.24,2.24,0,0,1-.1-.74v-7.68l.78-.14v7.8a1.83,1.83,0,0,0,0,.46.6.6,0,0,0,.17.28.82.82,0,0,0,.28.15,3,3,0,0,0,.41.08Z"/><path class="cls-3" d="M131.61,122.49a4,4,0,0,1-.22,1.33,3,3,0,0,1-.58,1,2.69,2.69,0,0,1-2,.88,2.7,2.7,0,0,1-1.14-.23,2.59,2.59,0,0,1-.89-.65,3,3,0,0,1-.59-1,4.35,4.35,0,0,1,0-2.67,3,3,0,0,1,.59-1,2.5,2.5,0,0,1,.89-.66,2.71,2.71,0,0,1,1.14-.24,2.64,2.64,0,0,1,1.14.24,2.53,2.53,0,0,1,.9.66,3,3,0,0,1,.58,1A4,4,0,0,1,131.61,122.49Zm-.83,0a2.94,2.94,0,0,0-.54-1.86,1.9,1.9,0,0,0-2.93,0,2.94,2.94,0,0,0-.54,1.86,2.88,2.88,0,0,0,.54,1.84,1.9,1.9,0,0,0,2.93,0A2.88,2.88,0,0,0,130.78,122.49Z"/><path class="cls-3" d="M134.56,125a2.61,2.61,0,0,0,1.11-.22.78.78,0,0,0,.44-.75,1.19,1.19,0,0,0-.08-.44,1,1,0,0,0-.26-.32,2.1,2.1,0,0,0-.48-.28l-.72-.31c-.23-.09-.45-.19-.66-.29a2.72,2.72,0,0,1-.55-.35,1.61,1.61,0,0,1-.39-.47,1.55,1.55,0,0,1-.14-.68,1.5,1.5,0,0,1,.57-1.22,2.4,2.4,0,0,1,1.56-.47,4.42,4.42,0,0,1,1.06.11,4.34,4.34,0,0,1,.58.19l-.18.7a4.67,4.67,0,0,0-.49-.19,3.19,3.19,0,0,0-1-.12,2,2,0,0,0-.5,0,1.26,1.26,0,0,0-.41.17.89.89,0,0,0-.29.29.79.79,0,0,0-.11.42.87.87,0,0,0,.1.44.92.92,0,0,0,.28.32,2.33,2.33,0,0,0,.45.25l.62.27c.24.09.47.19.69.29a2.38,2.38,0,0,1,.58.36,1.64,1.64,0,0,1,.41.5,1.53,1.53,0,0,1,.16.74,1.44,1.44,0,0,1-.63,1.27,3,3,0,0,1-1.72.43,4.45,4.45,0,0,1-1.25-.13c-.29-.09-.48-.17-.58-.21l.21-.71.15.08.33.12a3.47,3.47,0,0,0,.48.11A4.23,4.23,0,0,0,134.56,125Z"/><path class="cls-3" d="M143.72,125.71a3.35,3.35,0,0,1-1.27-.22,2.58,2.58,0,0,1-.92-.66,2.78,2.78,0,0,1-.55-1,4.14,4.14,0,0,1-.2-1.31,4.27,4.27,0,0,1,.2-1.33,2.91,2.91,0,0,1,.57-1,2.45,2.45,0,0,1,.9-.66,2.84,2.84,0,0,1,1.19-.24,4.62,4.62,0,0,1,.94.09,2.19,2.19,0,0,1,.68.21l-.2.67a2.63,2.63,0,0,0-.54-.19,3.52,3.52,0,0,0-.81-.07,1.85,1.85,0,0,0-1.56.67,2.92,2.92,0,0,0-.54,1.89,4.05,4.05,0,0,0,.12,1,2,2,0,0,0,.39.79,1.86,1.86,0,0,0,.7.52,2.66,2.66,0,0,0,1,.18,2.59,2.59,0,0,0,.84-.11,2.41,2.41,0,0,0,.5-.2l.17.67a3.19,3.19,0,0,1-.68.24A4.37,4.37,0,0,1,143.72,125.71Z"/><path class="cls-3" d="M151.82,122.49a4,4,0,0,1-.21,1.33,3,3,0,0,1-.58,1,2.69,2.69,0,0,1-2,.88,2.7,2.7,0,0,1-1.14-.23,2.59,2.59,0,0,1-.89-.65,3,3,0,0,1-.59-1,4.35,4.35,0,0,1,0-2.67,3,3,0,0,1,.59-1,2.5,2.5,0,0,1,.89-.66,2.71,2.71,0,0,1,1.14-.24,2.64,2.64,0,0,1,1.14.24,2.53,2.53,0,0,1,.9.66,3,3,0,0,1,.58,1A4.05,4.05,0,0,1,151.82,122.49Zm-.82,0a2.94,2.94,0,0,0-.54-1.86,1.9,1.9,0,0,0-2.93,0,2.94,2.94,0,0,0-.54,1.86,2.88,2.88,0,0,0,.54,1.84,1.9,1.9,0,0,0,2.93,0A2.88,2.88,0,0,0,151,122.49Z"/><path class="cls-3" d="M153.49,119.59l.94-.21a7.31,7.31,0,0,1,1.44-.12,3.13,3.13,0,0,1,1.18.2,1.86,1.86,0,0,1,.76.58,2.52,2.52,0,0,1,.4.91,5.23,5.23,0,0,1,.12,1.16v3.47h-.78v-3.22a5.78,5.78,0,0,0-.09-1.11,1.9,1.9,0,0,0-.3-.75,1.18,1.18,0,0,0-.55-.41,2.64,2.64,0,0,0-.86-.13,8.48,8.48,0,0,0-1,.06,5,5,0,0,0-.52.11v5.45h-.78Z"/><path class="cls-3" d="M161,119.38h2.48V120H161v3.3a3.24,3.24,0,0,0,.09.85,1.11,1.11,0,0,0,.26.51.7.7,0,0,0,.41.24,1.8,1.8,0,0,0,.53.06,2.17,2.17,0,0,0,.79-.11,2.38,2.38,0,0,0,.47-.21l.19.65a3.41,3.41,0,0,1-.59.25,2.94,2.94,0,0,1-.91.13,2.75,2.75,0,0,1-1-.15,1.43,1.43,0,0,1-.62-.45,1.8,1.8,0,0,1-.33-.77,5.52,5.52,0,0,1-.1-1.08v-5.71l.78-.14Z"/><path class="cls-3" d="M164.48,122.47a3.84,3.84,0,0,1,.24-1.42,3.06,3.06,0,0,1,.61-1,2.31,2.31,0,0,1,.86-.61,2.71,2.71,0,0,1,1-.2A2.31,2.31,0,0,1,169,120a3.27,3.27,0,0,1,.68,2.29v.19c0,.06,0,.13,0,.18h-4.36a2.71,2.71,0,0,0,.57,1.75,2.09,2.09,0,0,0,1.68.61,3.32,3.32,0,0,0,1-.12,2.74,2.74,0,0,0,.54-.2l.15.67a2.88,2.88,0,0,1-.63.23,3.92,3.92,0,0,1-1.09.13,3.6,3.6,0,0,1-1.39-.24,2.52,2.52,0,0,1-.95-.67,2.61,2.61,0,0,1-.54-1A4.81,4.81,0,0,1,164.48,122.47Zm4.41-.49a2.47,2.47,0,0,0-.46-1.51,1.47,1.47,0,0,0-1.22-.54,1.66,1.66,0,0,0-.75.17,1.93,1.93,0,0,0-.58.45,2.1,2.1,0,0,0-.38.65,2.58,2.58,0,0,0-.16.78Z"/><path class="cls-3" d="M171.34,119.59l.93-.21a7.31,7.31,0,0,1,1.44-.12,3.09,3.09,0,0,1,1.18.2,1.86,1.86,0,0,1,.76.58,2.36,2.36,0,0,1,.4.91,5.23,5.23,0,0,1,.12,1.16v3.47h-.78v-3.22a5.78,5.78,0,0,0-.09-1.11,1.9,1.9,0,0,0-.3-.75,1.13,1.13,0,0,0-.55-.41,2.6,2.6,0,0,0-.86-.13,8.29,8.29,0,0,0-1,.06,4.43,4.43,0,0,0-.52.11v5.45h-.78Z"/><path class="cls-3" d="M179.05,117.5a.57.57,0,0,1-.57.6.56.56,0,0,1-.41-.16.57.57,0,0,1-.17-.44.56.56,0,0,1,.17-.43.56.56,0,0,1,.41-.16.56.56,0,0,1,.57.59Zm-.18,8.08h-.78v-6.2h.78Z"/><path class="cls-3" d="M185.82,125.39a8.57,8.57,0,0,1-.89.23,7.39,7.39,0,0,1-1.37.1,3.3,3.3,0,0,1-1.24-.22,2.74,2.74,0,0,1-1-.64,2.91,2.91,0,0,1-.62-1,3.82,3.82,0,0,1-.22-1.35,4.51,4.51,0,0,1,.18-1.31,3,3,0,0,1,.55-1,2.43,2.43,0,0,1,.88-.67,2.84,2.84,0,0,1,1.19-.24,2.9,2.9,0,0,1,1.07.17,2.74,2.74,0,0,1,.65.33v-3.34l.78-.14ZM185,120.5l-.27-.17a1.68,1.68,0,0,0-.38-.18,2.15,2.15,0,0,0-.47-.14,2.18,2.18,0,0,0-.52-.06,2,2,0,0,0-1,.21,1.65,1.65,0,0,0-.63.54,2.29,2.29,0,0,0-.35.81,4.39,4.39,0,0,0-.11,1,2.62,2.62,0,0,0,.62,1.87,2.08,2.08,0,0,0,1.62.66,5.85,5.85,0,0,0,.93-.06,3,3,0,0,0,.53-.11Z"/><path class="cls-3" d="M193.15,122.49a4,4,0,0,1-.21,1.33,2.85,2.85,0,0,1-.59,1,2.59,2.59,0,0,1-.89.65,2.67,2.67,0,0,1-1.14.23,2.64,2.64,0,0,1-1.14-.23,2.59,2.59,0,0,1-.89-.65,2.85,2.85,0,0,1-.59-1,4.35,4.35,0,0,1,0-2.67,2.85,2.85,0,0,1,.59-1,2.5,2.5,0,0,1,.89-.66,2.64,2.64,0,0,1,1.14-.24,2.68,2.68,0,0,1,1.14.24,2.5,2.5,0,0,1,.89.66,2.85,2.85,0,0,1,.59,1A4.05,4.05,0,0,1,193.15,122.49Zm-.83,0a2.94,2.94,0,0,0-.54-1.86,1.89,1.89,0,0,0-2.92,0,2.94,2.94,0,0,0-.54,1.86,2.88,2.88,0,0,0,.54,1.84,1.89,1.89,0,0,0,2.92,0A2.88,2.88,0,0,0,192.32,122.49Z"/><path class="cls-3" d="M196.1,125a2.55,2.55,0,0,0,1.11-.22.77.77,0,0,0,.44-.75,1,1,0,0,0-.08-.44.83.83,0,0,0-.25-.32,2.34,2.34,0,0,0-.48-.28l-.73-.31c-.23-.09-.45-.19-.66-.29a3,3,0,0,1-.55-.35,1.37,1.37,0,0,1-.52-1.15,1.52,1.52,0,0,1,.56-1.22,2.43,2.43,0,0,1,1.57-.47,4.33,4.33,0,0,1,1.05.11,3.51,3.51,0,0,1,.58.19l-.18.7a4.29,4.29,0,0,0-.48-.19,3.23,3.23,0,0,0-1-.12,2,2,0,0,0-.5,0,1.32,1.32,0,0,0-.42.17,1,1,0,0,0-.29.29.79.79,0,0,0-.1.42,1,1,0,0,0,.09.44,1.08,1.08,0,0,0,.29.32,2.33,2.33,0,0,0,.45.25l.62.27c.24.09.47.19.69.29a2.58,2.58,0,0,1,.58.36,1.8,1.8,0,0,1,.41.5,1.65,1.65,0,0,1,.15.74,1.44,1.44,0,0,1-.63,1.27,3,3,0,0,1-1.72.43,4.37,4.37,0,0,1-1.24-.13c-.29-.09-.48-.17-.58-.21l.2-.71.16.08.32.12a4,4,0,0,0,.49.11A4.19,4.19,0,0,0,196.1,125Z"/><path class="cls-3" d="M201.24,125.07a.67.67,0,0,1-.17.46.73.73,0,0,1-1,0,.67.67,0,0,1-.17-.46.7.7,0,0,1,.17-.47.73.73,0,0,1,1,0A.7.7,0,0,1,201.24,125.07Z"/><text class="cls-4" transform="translate(14.55 142.82)">•</text><text class="cls-4" transform="translate(19.64 142.82)"> </text><path class="cls-3" d="M32.25,134.5v.71H29.58v7.61h-.81v-7.61H26.1v-.71Z"/><path class="cls-3" d="M34.63,134.74a.6.6,0,0,1-.16.44.62.62,0,0,1-.41.16.62.62,0,0,1-.41-1,.56.56,0,0,1,.41-.16.57.57,0,0,1,.41.16A.6.6,0,0,1,34.63,134.74Zm-.18,8.08h-.78v-6.21h.78Z"/><path class="cls-3" d="M36.12,139.71a3.89,3.89,0,0,1,.24-1.43,3.06,3.06,0,0,1,.61-1,2.4,2.4,0,0,1,.86-.6,2.52,2.52,0,0,1,1-.2,2.36,2.36,0,0,1,1.82.74,3.33,3.33,0,0,1,.68,2.29,1.15,1.15,0,0,1,0,.19c0,.07,0,.13,0,.18H37a2.74,2.74,0,0,0,.56,1.76,2.15,2.15,0,0,0,1.68.61,3.39,3.39,0,0,0,1-.12,5.21,5.21,0,0,0,.54-.2l.15.67a4.3,4.3,0,0,1-.63.23,4.34,4.34,0,0,1-1.09.13,3.6,3.6,0,0,1-1.39-.24,2.46,2.46,0,0,1-1-.68,2.5,2.5,0,0,1-.54-1A4.87,4.87,0,0,1,36.12,139.71Zm4.41-.49a2.5,2.5,0,0,0-.46-1.52,1.48,1.48,0,0,0-1.22-.54,1.66,1.66,0,0,0-.75.17,1.82,1.82,0,0,0-.58.45,2.22,2.22,0,0,0-.38.65,2.59,2.59,0,0,0-.17.79Z"/><path class="cls-3" d="M43,136.83c.24-.07.55-.14.94-.22a7.31,7.31,0,0,1,1.44-.12,3.09,3.09,0,0,1,1.18.2,1.8,1.8,0,0,1,.76.59,2.31,2.31,0,0,1,.4.9,5.26,5.26,0,0,1,.12,1.17v3.47H47V139.6a6,6,0,0,0-.09-1.12,1.85,1.85,0,0,0-.3-.74,1.13,1.13,0,0,0-.55-.41,2.4,2.4,0,0,0-.86-.13,6.41,6.41,0,0,0-.95.06,3.16,3.16,0,0,0-.53.11v5.45H43Z"/><path class="cls-3" d="M49.41,139.71a3.9,3.9,0,0,1,.23-1.43,3.24,3.24,0,0,1,.61-1,2.35,2.35,0,0,1,.87-.6,2.45,2.45,0,0,1,1-.2,2.37,2.37,0,0,1,1.82.74,3.33,3.33,0,0,1,.67,2.29v.19c0,.07,0,.13,0,.18H50.23a2.8,2.8,0,0,0,.57,1.76,2.13,2.13,0,0,0,1.68.61,3.44,3.44,0,0,0,1-.12l.54-.2.14.67a3.54,3.54,0,0,1-.63.23,4.34,4.34,0,0,1-1.09.13,3.64,3.64,0,0,1-1.39-.24,2.54,2.54,0,0,1-1-.68,2.76,2.76,0,0,1-.54-1A4.87,4.87,0,0,1,49.41,139.71Zm4.4-.49a2.5,2.5,0,0,0-.46-1.52,1.46,1.46,0,0,0-1.22-.54,1.66,1.66,0,0,0-.75.17,1.93,1.93,0,0,0-.58.45,2.22,2.22,0,0,0-.38.65,2.58,2.58,0,0,0-.16.79Z"/><path class="cls-3" d="M63.85,142.6c-.23.06-.54.14-.93.22a7.39,7.39,0,0,1-1.44.11,2.89,2.89,0,0,1-1.17-.2,2,2,0,0,1-.75-.57,2.47,2.47,0,0,1-.42-.91,5.23,5.23,0,0,1-.12-1.16v-3.48h.78v3.23a5.78,5.78,0,0,0,.09,1.11,1.8,1.8,0,0,0,.32.74,1.18,1.18,0,0,0,.55.41,2.56,2.56,0,0,0,.84.13,6.65,6.65,0,0,0,1-.06,2.58,2.58,0,0,0,.51-.11v-5.45h.78Z"/><path class="cls-3" d="M65.85,136.83c.23-.07.54-.14.93-.22a7.31,7.31,0,0,1,1.44-.12,3.09,3.09,0,0,1,1.18.2,1.8,1.8,0,0,1,.76.59,2.31,2.31,0,0,1,.4.9,5.26,5.26,0,0,1,.12,1.17v3.47H69.9V139.6a6,6,0,0,0-.09-1.12,1.85,1.85,0,0,0-.3-.74,1.13,1.13,0,0,0-.55-.41,2.36,2.36,0,0,0-.86-.13,6.5,6.5,0,0,0-.95.06,3,3,0,0,0-.52.11v5.45h-.78Z"/><path class="cls-3" d="M74.46,136.47a2.67,2.67,0,0,1,1,.17,1.94,1.94,0,0,1,.69.48,1.89,1.89,0,0,1,.38.73,3.28,3.28,0,0,1,.12.91v3.91l-.34.08-.53.09-.67.08q-.36,0-.75,0a3.58,3.58,0,0,1-.9-.11,2,2,0,0,1-.72-.34,1.56,1.56,0,0,1-.48-.6,2.06,2.06,0,0,1-.18-.9,1.91,1.91,0,0,1,.19-.86,1.61,1.61,0,0,1,.54-.59,2.39,2.39,0,0,1,.83-.35,4.9,4.9,0,0,1,1-.11l.35,0,.36,0,.3.06.17.05v-.38a4.35,4.35,0,0,0,0-.63,1.66,1.66,0,0,0-.21-.55,1.21,1.21,0,0,0-.46-.4,1.7,1.7,0,0,0-.77-.15,3.67,3.67,0,0,0-1,.1,5.09,5.09,0,0,0-.5.16l-.1-.69a3.16,3.16,0,0,1,.63-.18A5.86,5.86,0,0,1,74.46,136.47Zm.07,5.78c.31,0,.57,0,.8,0a5.83,5.83,0,0,0,.58-.08V140a2.39,2.39,0,0,0-.42-.13,4,4,0,0,0-.79-.06,4.22,4.22,0,0,0-.6,0,1.73,1.73,0,0,0-.57.18,1.24,1.24,0,0,0-.44.38,1.09,1.09,0,0,0-.16.63,1.3,1.3,0,0,0,.11.59,1,1,0,0,0,.32.39,1.47,1.47,0,0,0,.51.2A2.67,2.67,0,0,0,74.53,142.25Z"/><path class="cls-3" d="M80.26,145.06a1.47,1.47,0,0,1-.33,0,1.26,1.26,0,0,1-.3-.08l.11-.64a1,1,0,0,0,.23,0,1.37,1.37,0,0,0,.28,0,1,1,0,0,0,.94-.39,2.45,2.45,0,0,0,.23-1.19v-6.18h.78v6.14a2.87,2.87,0,0,1-.44,1.75A1.83,1.83,0,0,1,80.26,145.06Zm2.12-10.32a.57.57,0,0,1-.17.44.58.58,0,0,1-.4.16.62.62,0,0,1-.41-1,.56.56,0,0,1,.41-.16.54.54,0,0,1,.4.16A.57.57,0,0,1,82.38,134.74Z"/><path class="cls-3" d="M83.87,139.71a4.12,4.12,0,0,1,.23-1.43,3.08,3.08,0,0,1,.62-1,2.4,2.4,0,0,1,.86-.6,2.48,2.48,0,0,1,1-.2,2.36,2.36,0,0,1,1.82.74,3.33,3.33,0,0,1,.68,2.29,1.15,1.15,0,0,1,0,.19.9.9,0,0,1,0,.18H84.7a2.74,2.74,0,0,0,.56,1.76,2.13,2.13,0,0,0,1.68.61,3.39,3.39,0,0,0,1-.12,5.21,5.21,0,0,0,.54-.2l.14.67a3.54,3.54,0,0,1-.63.23,4.26,4.26,0,0,1-1.08.13,3.57,3.57,0,0,1-1.39-.24,2.46,2.46,0,0,1-1-.68,2.5,2.5,0,0,1-.54-1A4.87,4.87,0,0,1,83.87,139.71Zm4.4-.49a2.43,2.43,0,0,0-.45-1.52,1.49,1.49,0,0,0-1.23-.54,1.66,1.66,0,0,0-.75.17,1.78,1.78,0,0,0-.57.45,2.25,2.25,0,0,0-.39.65,2.92,2.92,0,0,0-.16.79Z"/><path class="cls-3" d="M92.83,136.49a4.23,4.23,0,0,1,.73.06,2,2,0,0,1,.47.12l-.15.67a2.56,2.56,0,0,0-.39-.1,4.23,4.23,0,0,0-.78-.05,3.63,3.63,0,0,0-.81.07l-.4.12v5.44h-.78V136.9a5.4,5.4,0,0,1,.83-.27A5.21,5.21,0,0,1,92.83,136.49Z"/><path class="cls-3" d="M97.07,136.47a2.7,2.7,0,0,1,1,.17,1.94,1.94,0,0,1,.69.48,2,2,0,0,1,.38.73,3.28,3.28,0,0,1,.12.91v3.91l-.35.08-.52.09-.67.08q-.36,0-.75,0a3.72,3.72,0,0,1-.91-.11,2.17,2.17,0,0,1-.72-.34,1.77,1.77,0,0,1-.48-.6,2.22,2.22,0,0,1-.17-.9,1.79,1.79,0,0,1,.19-.86,1.61,1.61,0,0,1,.54-.59,2.31,2.31,0,0,1,.83-.35,4.88,4.88,0,0,1,1-.11l.36,0,.36,0,.3.06.17.05v-.38a3.28,3.28,0,0,0,0-.63,1.31,1.31,0,0,0-.21-.55,1.17,1.17,0,0,0-.45-.4,1.75,1.75,0,0,0-.78-.15,3.77,3.77,0,0,0-1,.1c-.22.06-.38.12-.49.16l-.11-.69a3.64,3.64,0,0,1,.63-.18A6.07,6.07,0,0,1,97.07,136.47Zm.07,5.78c.31,0,.57,0,.8,0a5.83,5.83,0,0,0,.58-.08V140a3.13,3.13,0,0,0-.42-.13,4,4,0,0,0-.79-.06,4.22,4.22,0,0,0-.6,0,1.87,1.87,0,0,0-.58.18,1.21,1.21,0,0,0-.43.38,1.09,1.09,0,0,0-.17.63,1.29,1.29,0,0,0,.12.59A.94.94,0,0,0,96,142a1.47,1.47,0,0,0,.51.2A2.62,2.62,0,0,0,97.14,142.25Z"/><path class="cls-3" d="M103.36,136.49a4.11,4.11,0,0,1,.72.06,2.31,2.31,0,0,1,.48.12l-.16.67a2,2,0,0,0-.39-.1,4.05,4.05,0,0,0-.77-.05,3.52,3.52,0,0,0-.81.07,2.26,2.26,0,0,0-.4.12v5.44h-.78V136.9a5.22,5.22,0,0,1,.82-.27A5.3,5.3,0,0,1,103.36,136.49Z"/><path class="cls-3" d="M109.73,142.45a2.35,2.35,0,0,1-.66.33,3.13,3.13,0,0,1-2.25-.06,2.43,2.43,0,0,1-.88-.67,2.78,2.78,0,0,1-.55-1,4.44,4.44,0,0,1-.18-1.3,3.88,3.88,0,0,1,.22-1.36,2.94,2.94,0,0,1,.62-1,2.89,2.89,0,0,1,1-.64,3.51,3.51,0,0,1,1.24-.22,7.35,7.35,0,0,1,1.37.11,6.61,6.61,0,0,1,.89.23V145h-.78Zm0-5.08a3.82,3.82,0,0,0-.54-.12,7.33,7.33,0,0,0-.92-.05,2.11,2.11,0,0,0-1.62.65,2.66,2.66,0,0,0-.62,1.88,4.39,4.39,0,0,0,.11,1,2.24,2.24,0,0,0,.35.8,1.65,1.65,0,0,0,.63.54,2.15,2.15,0,0,0,1,.2,3,3,0,0,0,.52-.05,4.41,4.41,0,0,0,.47-.14,3.43,3.43,0,0,0,.38-.18,2.51,2.51,0,0,0,.27-.18Z"/><path class="cls-3" d="M117.28,142.6c-.23.06-.55.14-.94.22a7.39,7.39,0,0,1-1.44.11,2.84,2.84,0,0,1-1.16-.2,1.93,1.93,0,0,1-.76-.57,2.31,2.31,0,0,1-.41-.91,4.68,4.68,0,0,1-.13-1.16v-3.48h.78v3.23a5,5,0,0,0,.1,1.11,1.67,1.67,0,0,0,.31.74,1.16,1.16,0,0,0,.56.41,2.49,2.49,0,0,0,.83.13,6.65,6.65,0,0,0,1-.06,3,3,0,0,0,.52-.11v-5.45h.78Z"/><path class="cls-3" d="M121.32,134.15l-2,1.67-.4-.46,1.9-1.82Zm-1.26,8.67h-.78v-6.21h.78Z"/><path class="cls-3" d="M123.88,136.47a2.65,2.65,0,0,1,1,.17,1.89,1.89,0,0,1,.7.48,2,2,0,0,1,.38.73,3.28,3.28,0,0,1,.12.91v3.91l-.35.08-.53.09-.66.08q-.37,0-.75,0a3.72,3.72,0,0,1-.91-.11,2.08,2.08,0,0,1-.72-.34,1.77,1.77,0,0,1-.48-.6,2.07,2.07,0,0,1-.17-.9,1.79,1.79,0,0,1,.19-.86,1.61,1.61,0,0,1,.54-.59,2.31,2.31,0,0,1,.83-.35,4.81,4.81,0,0,1,1-.11l.35,0,.37,0,.29.06.18.05v-.38a4.34,4.34,0,0,0,0-.63,1.31,1.31,0,0,0-.21-.55,1.21,1.21,0,0,0-.46-.4,1.67,1.67,0,0,0-.77-.15,3.72,3.72,0,0,0-1,.1,4.71,4.71,0,0,0-.49.16l-.11-.69a3.64,3.64,0,0,1,.63-.18A6,6,0,0,1,123.88,136.47Zm.07,5.78c.3,0,.57,0,.8,0a5.83,5.83,0,0,0,.58-.08V140a3.13,3.13,0,0,0-.42-.13,4.9,4.9,0,0,0-1.39,0,1.87,1.87,0,0,0-.58.18,1.13,1.13,0,0,0-.43.38,1.09,1.09,0,0,0-.17.63,1.29,1.29,0,0,0,.12.59.94.94,0,0,0,.32.39,1.5,1.5,0,0,0,.5.2A2.76,2.76,0,0,0,124,142.25Z"/><path class="cls-3" d="M133.4,143a3.34,3.34,0,0,1-1.27-.23,2.44,2.44,0,0,1-.92-.65,3,3,0,0,1-.55-1,4.49,4.49,0,0,1,0-2.65,3,3,0,0,1,.57-1,2.59,2.59,0,0,1,.9-.67,3,3,0,0,1,1.19-.23,5.49,5.49,0,0,1,.94.08,2.46,2.46,0,0,1,.68.22l-.2.67a2.63,2.63,0,0,0-.54-.19,3.44,3.44,0,0,0-.81-.08,1.88,1.88,0,0,0-1.56.67,2.93,2.93,0,0,0-.54,1.89,4.08,4.08,0,0,0,.12,1,2.09,2.09,0,0,0,.39.79,1.74,1.74,0,0,0,.7.51,2.48,2.48,0,0,0,1,.19,2.57,2.57,0,0,0,.84-.12,3.36,3.36,0,0,0,.5-.19l.17.67a2.77,2.77,0,0,1-.68.23A3.85,3.85,0,0,1,133.4,143Z"/><path class="cls-3" d="M137.9,142.92a2.39,2.39,0,0,1-.69-.1,1.12,1.12,0,0,1-.79-.75,2.28,2.28,0,0,1-.1-.74v-7.68l.78-.15v7.8a1.78,1.78,0,0,0,.05.46.6.6,0,0,0,.17.28.58.58,0,0,0,.28.15,3,3,0,0,0,.41.08Z"/><path class="cls-3" d="M141.34,136.47a2.65,2.65,0,0,1,1,.17,1.78,1.78,0,0,1,.69.48,1.91,1.91,0,0,1,.39.73,3.28,3.28,0,0,1,.12.91v3.91l-.35.08-.53.09-.66.08q-.37,0-.75,0a3.72,3.72,0,0,1-.91-.11,2,2,0,0,1-.72-.34,1.77,1.77,0,0,1-.48-.6,2.07,2.07,0,0,1-.17-.9,1.79,1.79,0,0,1,.19-.86,1.61,1.61,0,0,1,.54-.59,2.31,2.31,0,0,1,.83-.35,4.81,4.81,0,0,1,1-.11l.35,0,.36,0,.3.06.18.05v-.38a4.34,4.34,0,0,0,0-.63,1.31,1.31,0,0,0-.21-.55,1.21,1.21,0,0,0-.46-.4,1.67,1.67,0,0,0-.77-.15,3.67,3.67,0,0,0-1,.1,4.71,4.71,0,0,0-.49.16l-.11-.69a3.64,3.64,0,0,1,.63-.18A6,6,0,0,1,141.34,136.47Zm.07,5.78c.3,0,.57,0,.8,0s.42-.05.58-.08V140a3.13,3.13,0,0,0-.42-.13,4.08,4.08,0,0,0-.79-.06,4,4,0,0,0-.6,0,1.87,1.87,0,0,0-.58.18,1.13,1.13,0,0,0-.43.38,1.09,1.09,0,0,0-.17.63,1.44,1.44,0,0,0,.11.59,1,1,0,0,0,.33.39,1.5,1.5,0,0,0,.5.2A2.76,2.76,0,0,0,141.41,142.25Z"/><path class="cls-3" d="M147.62,136.49a4.23,4.23,0,0,1,.73.06,2,2,0,0,1,.47.12l-.15.67a2.56,2.56,0,0,0-.39-.1,4.23,4.23,0,0,0-.78-.05,3.63,3.63,0,0,0-.81.07l-.4.12v5.44h-.78V136.9a5.4,5.4,0,0,1,.83-.27A5.21,5.21,0,0,1,147.62,136.49Z"/><path class="cls-3" d="M151.86,136.47a2.7,2.7,0,0,1,1,.17,1.94,1.94,0,0,1,.69.48,2,2,0,0,1,.38.73,3.28,3.28,0,0,1,.12.91v3.91l-.35.08-.52.09-.67.08q-.36,0-.75,0a3.72,3.72,0,0,1-.91-.11,2.17,2.17,0,0,1-.72-.34,1.77,1.77,0,0,1-.48-.6,2.22,2.22,0,0,1-.17-.9,1.79,1.79,0,0,1,.19-.86,1.61,1.61,0,0,1,.54-.59,2.31,2.31,0,0,1,.83-.35,4.88,4.88,0,0,1,1-.11l.36,0,.36,0,.3.06.17.05v-.38a3.28,3.28,0,0,0-.05-.63,1.31,1.31,0,0,0-.21-.55,1.17,1.17,0,0,0-.45-.4,1.75,1.75,0,0,0-.78-.15,3.77,3.77,0,0,0-1,.1c-.22.06-.38.12-.49.16l-.11-.69a3.64,3.64,0,0,1,.63-.18A6.07,6.07,0,0,1,151.86,136.47Zm.07,5.78c.31,0,.57,0,.8,0a5.83,5.83,0,0,0,.58-.08V140a3.13,3.13,0,0,0-.42-.13,4,4,0,0,0-.79-.06,4.22,4.22,0,0,0-.6,0,1.87,1.87,0,0,0-.58.18,1.21,1.21,0,0,0-.43.38,1.09,1.09,0,0,0-.17.63,1.29,1.29,0,0,0,.12.59.94.94,0,0,0,.32.39,1.47,1.47,0,0,0,.51.2A2.62,2.62,0,0,0,151.93,142.25Z"/><path class="cls-3" d="M157.25,142.3a.67.67,0,0,1-.18.47.59.59,0,0,1-.48.19.63.63,0,0,1-.49-.19.71.71,0,0,1-.17-.47.7.7,0,0,1,.17-.47.63.63,0,0,1,.49-.19.59.59,0,0,1,.48.19A.66.66,0,0,1,157.25,142.3Z"/><text class="cls-5" transform="translate(157.93 142.82)"> </text></svg>