<?xml version="1.0" encoding="utf-8"?>
<!-- Generator: Adobe Illustrator 14.0.0, SVG Export Plug-In . SVG Version: 6.00 Build 43363)  -->
<!DOCTYPE svg PUBLIC "-//W3C//DTD SVG 1.1//EN" "http://www.w3.org/Graphics/SVG/1.1/DTD/svg11.dtd">
<svg version="1.1" id="Layer_1" xmlns="http://www.w3.org/2000/svg" xmlns:xlink="http://www.w3.org/1999/xlink" x="0px" y="0px"
	 width="32.632px" height="18.163px" viewBox="0 0 32.632 18.163" enable-background="new 0 0 32.632 18.163" xml:space="preserve">
<g>
	<path fill="#FFFFFF" d="M4.703,0.898c0,0-3.628,0-3.628,3.629v8.985c0,0,0,3.629,3.628,3.629H27.55c0,0,3.629,0,3.629-3.629V4.527
		c0,0,0-3.629-3.629-3.629H4.703z"/>
</g>
<g>
	<path fill="#F6921E" d="M27.55,17.516H4.703c-3.958,0-4.003-3.964-4.003-4.004V4.527c0-3.958,3.963-4.004,4.003-4.004H27.55
		c3.958,0,4.004,3.964,4.004,4.004v8.985C31.554,17.47,27.59,17.516,27.55,17.516L27.55,17.516z M4.703,1.273
		c-0.132,0-3.253,0.051-3.253,3.254v8.985c0,0.132,0.051,3.254,3.253,3.254h22.847c0.133-0.001,3.255-0.052,3.255-3.254V4.527
		c-0.001-0.132-0.052-3.254-3.254-3.254H4.703L4.703,1.273z"/>
</g>
<g>
	<path fill="#F6921E" d="M14.235,17.509c-0.047,0-0.095-0.009-0.141-0.027c-0.192-0.078-0.284-0.297-0.207-0.488l3.233-7.975
		l-3.233-7.975c-0.078-0.192,0.015-0.411,0.207-0.489c0.192-0.078,0.411,0.015,0.489,0.207l3.347,8.257l-3.347,8.256
		C14.523,17.421,14.383,17.509,14.235,17.509L14.235,17.509z"/>
</g>
<g>
	<g>
		<path fill="#F6921E" d="M9.579,6.302c-0.93,0-1.603,0.258-2.016,0.774C7.148,7.592,6.941,8.298,6.941,9.195
			c0,0.435,0.051,0.83,0.154,1.184c0.103,0.354,0.256,0.659,0.461,0.915c0.205,0.257,0.46,0.455,0.768,0.596
			C8.631,12.03,8.99,12.1,9.399,12.1c0.222,0,0.412-0.004,0.569-0.013s0.296-0.025,0.416-0.051V8.952h1.997v4.391
			c-0.239,0.094-0.623,0.193-1.152,0.301c-0.529,0.106-1.182,0.159-1.958,0.159c-0.666,0-1.269-0.102-1.811-0.307
			s-1.005-0.504-1.389-0.896c-0.384-0.393-0.681-0.874-0.89-1.446c-0.209-0.571-0.313-1.225-0.313-1.958
			c0-0.742,0.115-1.399,0.346-1.972c0.23-0.571,0.546-1.056,0.947-1.452c0.401-0.397,0.873-0.698,1.415-0.902
			c0.542-0.205,1.12-0.308,1.734-0.308c0.418,0,0.796,0.027,1.133,0.083s0.627,0.12,0.871,0.192s0.443,0.147,0.602,0.224
			c0.158,0.077,0.271,0.137,0.339,0.18l-0.576,1.6c-0.273-0.145-0.587-0.271-0.941-0.378C10.383,6.355,9.997,6.302,9.579,6.302z"/>
	</g>
</g>
<g>
	<g>
		<path fill="#F6921E" d="M22.211,4.766h1.997v8.87h-1.997V4.766z"/>
	</g>
</g>
</svg>
