<?xml version="1.0" encoding="utf-8"?>
<!-- Generator: Adobe Illustrator 26.0.2, SVG Export Plug-In . SVG Version: 6.00 Build 0)  -->
<svg version="1.1" id="Layer_1" xmlns="http://www.w3.org/2000/svg" xmlns:xlink="http://www.w3.org/1999/xlink" x="0px" y="0px"
	 viewBox="0 0 68 38" style="enable-background:new 0 0 68 38;" xml:space="preserve">
<style type="text/css">
	
		.st0{opacity:0.2;clip-path:url(#SVGID_00000061435788110821183060000002386720472748333964_);fill:#231F20;enable-background:new    ;}
	.st1{fill:#FFFFFF;}
	.st2{fill:none;stroke:#0066B2;stroke-width:1.396;stroke-linecap:round;}
	.st3{fill:none;stroke:#0066B2;stroke-width:0.93;stroke-linecap:round;}
	.st4{fill:#0066B2;}
</style>
<g>
	<g>
		<g>
			<g>
				<defs>
					<rect id="SVGID_1_" x="3.7" y="1.3" width="25.8" height="33.5"/>
				</defs>
				<clipPath id="SVGID_00000024003535773779702270000001249423375344138417_">
					<use xlink:href="#SVGID_1_"  style="overflow:visible;"/>
				</clipPath>
				
					<rect x="3.7" y="1.3" style="opacity:0.2;clip-path:url(#SVGID_00000024003535773779702270000001249423375344138417_);fill:#231F20;enable-background:new    ;" width="25.8" height="33.5"/>
			</g>
		</g>
	</g>
	<rect x="1.7" y="3.4" class="st1" width="25.7" height="33.3"/>
	<path class="st2" d="M1.2,3.6v29.9c0,0,0.5,3.1,1.6,3.1h25.6c-1.2,0-1.6-3.1-1.6-3.1V3.6H1.2z"/>
	<rect x="4.9" y="13.4" class="st3" width="7.8" height="7.7"/>
	<path class="st4" d="M21.9,8.7l0.5-1.6l0.5,1.6H21.9z M23.3,10.3h0.8l-1.3-4h-0.9l-1.3,4h0.8l0.3-0.9H23L23.3,10.3z M20.8,6.3h-2.9
		V7H19v3.3h0.8V7h1.1V6.3H20.8z M15.2,9.3l-0.3,0.6c0.4,0.3,0.8,0.5,1.4,0.5c0.7,0,1.4-0.4,1.4-1.2c0-1.4-1.9-0.9-1.9-1.7
		C15.8,7.1,16,7,16.4,7c0.3,0,0.6,0.1,0.9,0.3l0.3-0.5c-0.3-0.3-0.8-0.5-1.3-0.5c-0.7,0-1.3,0.4-1.3,1.2c0,1.4,1.9,0.9,1.9,1.7
		c0,0.3-0.3,0.5-0.6,0.5C15.9,9.7,15.6,9.5,15.2,9.3 M13.6,10.3h0.8v-4h-0.8V10.3z M10.7,6.3H9.9l1.3,4h0.7l1.3-4h-0.8l-0.8,2.8
		L10.7,6.3z M7.2,10.3h2.4V9.6H8v-1h1.4V8H8V7h1.6V6.3H7.2V10.3z M4.6,8.2V7h0.5c0.4,0,0.6,0.2,0.6,0.6S5.5,8.2,5.1,8.2H4.6z
		 M3.8,10.3h0.8V8.9H5l0.8,1.4h0.9L5.8,8.7c0.4-0.2,0.7-0.6,0.7-1.2c0-0.7-0.5-1.3-1.3-1.3H3.8V10.3z"/>
	<line class="st3" x1="15" y1="14.7" x2="23.1" y2="14.7"/>
	<line class="st3" x1="15" y1="17.8" x2="23.1" y2="17.8"/>
	<line class="st3" x1="15" y1="21.1" x2="23.1" y2="21.1"/>
	<line class="st3" x1="4.6" y1="25.6" x2="24" y2="25.6"/>
	<line class="st3" x1="4.6" y1="28.7" x2="24" y2="28.7"/>
	<line class="st3" x1="4.6" y1="32" x2="24" y2="32"/>
	<g>
		<rect x="27.5" y="17.9" class="st4" width="19" height="14"/>
		<g>
			<path class="st1" d="M31.1,29.8c0.1-0.7,0.2-1.4,0.4-2.2c0.2-0.7,0.4-1.5,0.7-2.2c0.3-0.7,0.6-1.4,0.9-2c0.3-0.6,0.7-1.2,1-1.7
				h-4.3v-1.8h6.9v1.5c-0.3,0.3-0.6,0.8-1,1.4c-0.4,0.6-0.7,1.3-1,2s-0.6,1.5-0.9,2.4c-0.2,0.9-0.4,1.7-0.4,2.6L31.1,29.8L31.1,29.8
				z"/>
			<path class="st1" d="M44.2,22.6c0,0.4-0.1,0.7-0.2,1c-0.1,0.3-0.3,0.7-0.6,1c-0.2,0.3-0.5,0.6-0.8,0.9s-0.6,0.6-0.8,0.8
				c-0.1,0.1-0.3,0.3-0.5,0.4c-0.2,0.2-0.3,0.3-0.5,0.5c-0.2,0.2-0.3,0.3-0.4,0.5c-0.1,0.1-0.2,0.3-0.2,0.4h4.2v1.8H38
				c0-0.1,0-0.2,0-0.4c0-0.2,0-0.3,0-0.3c0-0.5,0.1-0.9,0.2-1.3c0.1-0.4,0.3-0.7,0.6-1.1c0.2-0.3,0.5-0.6,0.8-0.9
				c0.3-0.3,0.6-0.6,0.9-0.9c0.2-0.2,0.4-0.4,0.6-0.6c0.2-0.2,0.4-0.4,0.5-0.6c0.2-0.2,0.3-0.4,0.4-0.6c0.1-0.2,0.1-0.4,0.1-0.6
				c0-0.4-0.1-0.7-0.4-0.9c-0.2-0.2-0.5-0.3-0.9-0.3c-0.3,0-0.5,0-0.7,0.1c-0.2,0.1-0.4,0.2-0.6,0.3c-0.2,0.1-0.3,0.2-0.5,0.3
				c-0.1,0.1-0.2,0.2-0.3,0.3l-1.1-1.5c0.4-0.4,0.9-0.7,1.5-1c0.6-0.3,1.2-0.4,1.8-0.4c0.6,0,1.1,0.1,1.5,0.2c0.4,0.1,0.8,0.3,1,0.6
				c0.3,0.2,0.5,0.5,0.6,0.9C44.2,21.7,44.2,22.1,44.2,22.6z"/>
		</g>
	</g>
</g>
</svg>
