<svg id="Capa_1" data-name="Capa 1" xmlns="http://www.w3.org/2000/svg" viewBox="0 0 41.8 6.67"><defs><style>.cls-1{fill:#504f4e;}.cls-2{fill:none;stroke:#fc0;stroke-linecap:round;stroke-width:3px;}</style></defs><path class="cls-1" d="M3.7,7.2A3.59,3.59,0,0,0,7.3,3.6,3.62,3.62,0,0,0,3,.6a3.61,3.61,0,0,0-3,3A3.74,3.74,0,0,0,3.7,7.2" transform="translate(0 -0.53)"/><path class="cls-1" d="M38.2,7.2a3.59,3.59,0,0,0,3.6-3.6,3.71,3.71,0,0,0-7.3,0,3.74,3.74,0,0,0,3.7,3.6" transform="translate(0 -0.53)"/><line class="cls-2" x1="5.1" y1="3.07" x2="37.4" y2="3.07"/></svg>