<?xml version="1.0" encoding="utf-8"?>
<!-- Generator: Adobe Illustrator 21.1.0, SVG Export Plug-In . SVG Version: 6.00 Build 0)  -->
<svg version="1.1" id="Capa_1" xmlns="http://www.w3.org/2000/svg" xmlns:xlink="http://www.w3.org/1999/xlink" x="0px" y="0px"
	 viewBox="0 0 158.384 295.109" style="enable-background:new 0 0 158.384 295.109;" xml:space="preserve">
<style type="text/css">
	.st0{fill:#FFFFFF;}
	.st1{clip-path:url(#SVGID_2_);fill:#1D1D1B;}
	.st2{clip-path:url(#SVGID_2_);fill:#FFFFFF;}
</style>
<polygon class="st0" points="135.114,105.5 142.14,104.566 150.275,102.612 151.719,7.132 9.312,0.996 7.146,104.778 "/>
<g>
	<defs>
		<rect id="SVGID_1_" width="158.384" height="295.109"/>
	</defs>
	<clipPath id="SVGID_2_">
		<use xlink:href="#SVGID_1_"  style="overflow:visible;"/>
	</clipPath>
	<path class="st1" d="M6.688,105.547c0-0.027,0.006-0.052,0.008-0.078c-0.206-0.813,0.765-9.449,0.852-11.41
		c0.087-1.961,0.154-1.213,0.163-3.177C7.719,88.918,7.787,86.964,7.723,85c-0.323-5.585,0.76-13.165,1.121,0.075
		c0.142,1.954,0.328,3.847,0.361,5.807c0.034,1.993,0.037,1.284-0.043,3.275c-0.078,1.961-0.286,10.33-0.338,10.753
		c11.78-0.469,59.67-0.612,71.459-0.637c6.037-0.013,8.61,0.14,10.776,0.14c2.166,0.091,3.171,0.217,9.205,0.474
		c4.229,0.18,25.592,0.508,29.819,0.736c1.459,0.079,4.746,0.309,5.196,0.505c1.534,0.18,13.633-0.939,13.393-1.725
		c-0.212-0.69,0.467-1.463,0.595-2.155c0.132-0.719,0.611-2.729,0.841-5.399c0.455-5.274,0.871-76.432,1.211-81.716
		c0.166-2.587,0.359-5.173,0.535-7.76c-14.024-0.828-42.487-2.568-56.513-3.355c-14.022-0.787-11.292-0.414-25.31-1.247
		C62.367,2.317,18.498,2.944,10.83,2.59c-0.064,1.388-2.193,62.706-2.347,63.108c-0.254,0.665-0.888,0.875-1.063,0.034
		c-0.156-0.753-0.066-2.7,0.005-3.464C7.498,61.475,9.342,1.934,9.471,1.512c0.147-0.481,0.611-0.895,1.134-0.856
		c14.084,1.05,64.466,0.995,78.557,1.934c14.016,0.935,28.757,0.773,42.777,1.638c7.474,0.461,19.946,1.458,20.486,1.506
		c0.866,0.076,0.738,0.3,0.725,0.791c-0.287,10.711-1.022,77.749-2.034,88.416c-0.143,1.514-0.293,3.029-0.447,4.543
		c-0.142,1.393-0.421,3.503-0.501,4.903c1.309,3.056-14.777,3.136-15.294,2.924c-0.421-0.174-2.943-0.264-4-0.315
		c-2.115-0.105-26.908-0.956-30.292-0.956c-12.066-0.247-60.253-0.196-72.317,0.1c-6.765,0.166-13.53,0.415-20.29,0.694
		C7.28,106.862,6.688,106.221,6.688,105.547"/>
	<path class="st1" d="M0.46,110.566c0.01-0.15,0.02-0.298,0.027-0.443c0.025-0.559,0.058-1.118,0.088-1.677
		c0.061-1.15,0.122-2.3,0.184-3.451c0.12-2.273,0.284-4.536,0.466-6.804c0.089-1.106,0.832-1.141,0.845,0
		c0.025,2.27,0.033,4.533-0.004,6.804l-0.054,3.353c-0.008,0.559-0.014,1.117-0.026,1.676c-0.001,0.032-0.001,0.066-0.001,0.098
		c1.607-0.095,3.236-0.073,4.831-0.069c2.167,0.006,4.337,0.076,6.501,0.198c1.294,0.073,1.311,1.171,0,1.125
		c-2.168-0.078-4.333-0.075-6.501,0.007c-1.964,0.074-3.018,0.289-4.978,0.396c-0.129,0.029-0.261,0.038-0.39,0.023
		c-0.074,0.003-0.149,0.009-0.223,0.012c-0.661,0.027-1.224,0.321-1.224-0.321C0.001,111.082,0.184,110.774,0.46,110.566"/>
	<path class="st1" d="M155.653,13.251c0.183-1.375,0.368-2.75,0.538-4.128c0.086-0.702,0.172-1.405,0.259-2.107
		c0.054-0.436,0.132-0.888,0.18-1.336c-0.635-0.117-1.27-0.334-1.868-0.498c-0.833-0.23-1.668-0.452-2.505-0.666
		c-1.701-0.436-3.41-0.841-5.127-1.215s-3.44-0.716-5.169-1.029c-1.703-0.307-3.423-0.648-5.148-0.793
		c-0.728-0.062-1.301-0.224-1.197-0.995c0.101-0.749,2.438-0.437,2.866-0.322c1.741,0.374,2.165,0.35,3.915,0.688
		c1.751,0.338,3.496,0.712,5.234,1.116c1.738,0.405,3.468,0.843,5.19,1.312c0.833,0.226,1.665,0.461,2.494,0.703
		c0.867,0.253,1.894,0.474,2.641,0.994c0.303,0.211,0.515,0.588,0.394,0.966c-0.213,0.661-0.262,0.597-0.37,1.282
		c-0.109,0.699-0.219,1.399-0.329,2.098c-0.215,1.37-0.415,2.743-0.617,4.117c-0.408,2.773-0.853,14.402-1.289,17.171
		c-0.1,0.637-1.215,0.494-1.135-0.153C154.951,27.674,155.284,16.029,155.653,13.251"/>
	<path class="st1" d="M114.317,105.342c0,0-4.933,15.025-7.103,14.902c-2.17-0.121-6.276-15.358-6.276-15.358"/>
	<path class="st2" d="M114.171,102.493c0,0-5.507,15.223-6.937,15.021c-1.43-0.2-6-17.325-6-17.325"/>
</g>
<g>
	<defs>
		<rect id="SVGID_3_" x="23.464" y="122.733" width="104.22" height="172.376"/>
	</defs>
	<clipPath id="SVGID_4_">
		<use xlink:href="#SVGID_3_"  style="overflow:visible;"/>
	</clipPath>
	<g transform="matrix(1 0 0 1 0 0)" style="clip-path:url(#SVGID_4_);">
		
			<image style="overflow:visible;" width="341" height="564" xlink:href="4F434246ED4DF0EA.png"  transform="matrix(0.3056 0 0 0.3056 23.4638 122.7332)">
		</image>
	</g>
</g>
</svg>
