<svg id="Capa_1" data-name="Capa 1" xmlns="http://www.w3.org/2000/svg" viewBox="0 0 41.7 29.4"><defs><style>.cls-1{fill:#504f4e;}.cls-2{fill:none;stroke:#fc0;stroke-linecap:round;stroke-width:3px;}</style></defs><path class="cls-1" d="M4.8,8.5A3.6,3.6,0,0,0,8.4,4.9a3.7,3.7,0,0,0-7.3,0A3.7,3.7,0,0,0,4.8,8.5" transform="translate(-1.1 -1.3)"/><path class="cls-1" d="M39.3,8.5a3.6,3.6,0,0,0,3.6-3.6,3.7,3.7,0,0,0-7.3,0,3.7,3.7,0,0,0,3.7,3.6" transform="translate(-1.1 -1.3)"/><line class="cls-2" x1="5.1" y1="3.6" x2="37.4" y2="3.6"/><path class="cls-1" d="M4.8,30.7a3.6,3.6,0,1,0-3.7-3.6,3.6,3.6,0,0,0,3.7,3.6" transform="translate(-1.1 -1.3)"/><path class="cls-1" d="M39.3,30.7a3.6,3.6,0,1,0-3.7-3.6,3.6,3.6,0,0,0,3.7,3.6" transform="translate(-1.1 -1.3)"/><line class="cls-2" x1="5.1" y1="25.8" x2="37.4" y2="25.8"/></svg>