<?xml version="1.0" encoding="utf-8"?>
<!-- Generator: Adobe Illustrator 25.4.1, SVG Export Plug-In . SVG Version: 6.00 Build 0)  -->
<svg version="1.1" id="Layer_1" xmlns="http://www.w3.org/2000/svg" xmlns:xlink="http://www.w3.org/1999/xlink" x="0px" y="0px"
	 viewBox="0 0 17.79 21.46" style="enable-background:new 0 0 17.79 21.46;" xml:space="preserve">
<style type="text/css">
	.st0{fill:#EC1C24;}
</style>
<g>
	<polygon class="st0" points="3.75,1.35 4.16,1.82 4.16,1.82 4.19,1.87 4.48,2.43 4.81,3.04 4.85,3.1 5.16,3.64 5.51,4.23 
		5.69,4.53 5.87,4.81 6.06,5.1 6.25,5.39 6.43,5.68 6.63,5.97 6.65,6.01 6.81,6.25 7.01,6.54 7.2,6.82 7.4,7.11 7.59,7.39 
		7.79,7.67 7.88,7.81 7.99,7.95 8.19,8.23 8.39,8.51 8.58,8.77 8.59,8.79 8.79,9.06 9,9.34 9.21,9.62 9.3,9.74 9.41,9.89 
		9.62,10.16 9.83,10.44 10.04,10.71 10.04,10.71 10.25,10.98 10.46,11.25 10.67,11.52 10.78,11.66 10.88,11.8 11.1,12.07 
		11.31,12.33 11.52,12.6 11.61,12.71 11.74,12.87 11.96,13.14 12.17,13.4 12.39,13.67 12.6,13.93 12.61,13.94 12.83,14.2 
		13.05,14.46 13.27,14.72 13.49,14.99 13.68,15.21 13.72,15.25 13.94,15.51 14.17,15.77 14.39,16.02 14.62,16.28 14.77,16.45 
		14.85,16.54 15.08,16.79 15.31,17.04 15.54,17.29 15.78,17.55 16.01,17.79 16.25,18.04 16.48,18.29 16.64,18.46 16.72,18.54 
		16.96,18.78 17.2,19.02 17.4,19.22 17.44,19.27 17.45,19.27 17.79,20.19 17.29,21.12 17.29,21.12 17.29,21.12 16.29,21.46 
		15.44,20.97 15.43,20.97 15.39,20.92 15.23,20.69 15.03,20.41 14.83,20.13 14.76,20.04 14.63,19.85 14.42,19.57 14.22,19.29 
		14.01,19.01 13.8,18.73 13.6,18.46 13.39,18.18 13.19,17.9 13.12,17.81 12.98,17.62 12.77,17.35 12.56,17.07 12.35,16.8 
		12.14,16.52 12.11,16.48 11.93,16.25 11.72,15.97 11.51,15.7 11.3,15.42 11.09,15.15 11.08,15.14 10.88,14.88 10.67,14.6 
		10.45,14.33 10.24,14.06 10.11,13.89 10.03,13.78 9.82,13.51 9.6,13.24 9.39,12.97 9.28,12.83 9.18,12.69 8.96,12.42 8.75,12.15 
		8.54,11.88 8.54,11.88 8.32,11.6 8.11,11.33 7.9,11.06 7.78,10.92 7.68,10.79 7.47,10.52 7.25,10.25 7.04,9.97 7.02,9.96 
		6.82,9.71 6.6,9.44 6.39,9.17 6.28,9.03 6.17,8.9 5.95,8.63 5.73,8.37 5.51,8.1 5.29,7.83 5.06,7.57 4.88,7.34 4.84,7.3 4.62,7.04 
		4.4,6.78 4.17,6.51 3.94,6.25 3.72,6 3.49,5.73 3.02,5.22 2.6,4.77 2.55,4.71 2.06,4.21 1.61,3.76 1.57,3.72 1.57,3.72 1.24,3.19 
		1.19,2.59 1.91,1.48 1.92,1.47 3.2,1.12 	"/>
	<polygon class="st0" points="14.35,0.36 14.36,0.37 14.83,1.3 14.47,2.22 14.47,2.22 14.42,2.26 14.24,2.43 14.01,2.65 13.79,2.87 
		13.72,2.94 13.57,3.09 13.34,3.31 13.12,3.53 12.9,3.75 12.69,3.98 12.47,4.2 12.26,4.43 12.04,4.66 11.98,4.73 11.83,4.89 
		11.62,5.12 11.42,5.35 11.21,5.59 11,5.82 10.97,5.86 10.8,6.06 10.6,6.3 10.4,6.54 10.2,6.78 10,7.02 9.99,7.03 9.8,7.26 
		9.61,7.51 9.41,7.75 9.22,8 9.1,8.15 9.03,8.24 8.84,8.49 8.65,8.74 8.46,8.99 8.37,9.11 8.28,9.24 8.09,9.49 7.91,9.75 7.72,10 
		7.72,10 7.54,10.25 7.36,10.51 7.18,10.76 7.09,10.9 7.01,11.02 6.83,11.28 6.66,11.54 6.49,11.8 6.47,11.82 6.32,12.06 
		6.15,12.33 5.98,12.59 5.9,12.73 5.82,12.85 5.65,13.12 5.58,13.25 5.5,13.39 5.42,13.52 5.34,13.66 5.26,13.79 5.18,13.93 
		5.11,14.06 5.03,14.2 4.95,14.34 4.9,14.44 4.88,14.47 4.8,14.61 4.73,14.74 4.66,14.88 4.58,15.02 4.51,15.16 4.44,15.3 
		4.36,15.43 4.29,15.57 4.22,15.71 4.15,15.85 4.15,15.85 4.08,15.99 4.02,16.13 3.95,16.27 3.89,16.42 3.82,16.56 3.76,16.7 
		3.7,16.84 3.64,16.99 3.57,17.13 3.54,17.22 3.51,17.27 3.46,17.42 3.4,17.56 3.34,17.71 3.29,17.86 3.23,18 3.18,18.15 3.12,18.3 
		3.09,18.4 3.07,18.45 3.07,18.45 2.73,18.97 2.21,19.26 0.89,19.06 0.88,19.06 0.03,18.03 0,17.43 0.27,16.87 0.3,16.83 
		0.37,16.74 0.47,16.62 0.58,16.49 0.68,16.36 0.78,16.24 0.88,16.11 0.98,15.98 1.12,15.8 1.28,15.6 1.38,15.47 1.47,15.34 
		1.57,15.21 1.67,15.09 1.77,14.96 1.86,14.83 1.96,14.7 2.06,14.57 2.15,14.44 2.25,14.31 2.34,14.18 2.43,14.05 2.53,13.92 
		2.72,13.66 2.91,13.41 3,13.28 3.02,13.24 3.09,13.15 3.28,12.89 3.47,12.63 3.66,12.37 3.85,12.11 3.94,11.98 4.13,11.72 
		4.22,11.6 4.31,11.47 4.5,11.21 4.69,10.95 4.86,10.71 4.88,10.69 5.06,10.43 5.25,10.17 5.43,9.91 5.52,9.8 5.62,9.66 5.81,9.4 
		6,9.14 6.18,8.88 6.37,8.63 6.56,8.37 6.75,8.11 6.85,7.99 6.94,7.86 7.13,7.6 7.32,7.34 7.51,7.09 7.59,6.99 7.7,6.84 7.89,6.58 
		8.08,6.33 8.28,6.07 8.46,5.83 8.47,5.82 8.66,5.56 8.85,5.31 9.05,5.06 9.24,4.8 9.4,4.59 9.43,4.55 9.62,4.29 9.82,4.04 
		10.01,3.79 10.2,3.53 10.33,3.36 10.39,3.28 10.59,3.02 10.78,2.77 10.97,2.52 11.16,2.26 11.35,2.01 11.55,1.75 11.74,1.5 
		11.87,1.32 11.93,1.24 12.12,0.98 12.31,0.73 12.46,0.52 12.5,0.47 13.36,0 	"/>
</g>
<g>
</g>
</svg>
