<?xml version="1.0" encoding="utf-8"?>
<!-- Generator: Adobe Illustrator 21.1.0, SVG Export Plug-In . SVG Version: 6.00 Build 0)  -->
<svg version="1.1" id="Capa_1" xmlns="http://www.w3.org/2000/svg" xmlns:xlink="http://www.w3.org/1999/xlink" x="0px" y="0px"
	 viewBox="0 0 52.897 36.085" style="enable-background:new 0 0 52.897 36.085;" xml:space="preserve">
<style type="text/css">
	.st0{clip-path:url(#SVGID_2_);}
	.st1{clip-path:url(#SVGID_4_);fill:#005CA8;}
	.st2{filter:url(#Adobe_OpacityMaskFilter);}
	.st3{clip-path:url(#SVGID_4_);}
	.st4{clip-path:url(#SVGID_4_);mask:url(#SVGID_5_);}
	.st5{opacity:0.2;clip-path:url(#SVGID_9_);fill:#1D1D1B;}
	.st6{clip-path:url(#SVGID_2_);fill:#FFFFFF;}
	.st7{clip-path:url(#SVGID_11_);fill:none;stroke:#005CA8;stroke-width:1.777;stroke-linecap:round;}
	.st8{clip-path:url(#SVGID_2_);fill:none;stroke:#005CA8;stroke-width:1.185;stroke-linecap:round;}
	.st9{clip-path:url(#SVGID_13_);fill:#005CA8;}
	.st10{clip-path:url(#SVGID_15_);fill:#FFFFFF;}
</style>
<g>
	<defs>
		<rect id="SVGID_1_" width="53.84" height="36.085"/>
	</defs>
	<clipPath id="SVGID_2_">
		<use xlink:href="#SVGID_1_"  style="overflow:visible;"/>
	</clipPath>
	<g class="st0">
		<defs>
			<rect id="SVGID_3_" y="0" width="53.84" height="36.085"/>
		</defs>
		<clipPath id="SVGID_4_">
			<use xlink:href="#SVGID_3_"  style="overflow:visible;"/>
		</clipPath>
		<path class="st1" d="M25.185,12.928c0,0-1.805,0-1.805,1.805v14.401c0,0,0,1.805,1.805,1.805h25.907c0,0,1.805,0,1.805-1.805
			V14.733c0,0,0-1.805-1.805-1.805H25.185z"/>
		<defs>
			<filter id="Adobe_OpacityMaskFilter" filterUnits="userSpaceOnUse" x="3.325" y="0.102" width="25.92" height="33.36">
				<feColorMatrix  type="matrix" values="1 0 0 0 0  0 1 0 0 0  0 0 1 0 0  0 0 0 1 0"/>
			</filter>
		</defs>
		<mask maskUnits="userSpaceOnUse" x="3.325" y="0.102" width="25.92" height="33.36" id="SVGID_5_">
			<g class="st2">
				<g>
					<defs>
						<rect id="SVGID_6_" x="-5.555" y="-6.858" width="44.16" height="41.28"/>
					</defs>
					<clipPath id="SVGID_7_" class="st3">
						<use xlink:href="#SVGID_6_"  style="overflow:visible;"/>
					</clipPath>
					<g transform="matrix(1 0 0 1 0 0)" style="clip-path:url(#SVGID_7_);">
						
							<image style="overflow:visible;" width="184" height="172" xlink:href="C434CBDF9BB4589D.jpg"  transform="matrix(0.24 0 0 0.24 -5.5552 -6.858)">
						</image>
					</g>
				</g>
			</g>
		</mask>
		<g class="st4">
			<g>
				<defs>
					<rect id="SVGID_8_" x="3.325" y="0.102" width="25.92" height="33.36"/>
				</defs>
				<clipPath id="SVGID_9_">
					<use xlink:href="#SVGID_8_"  style="overflow:visible;"/>
				</clipPath>
				<rect x="3.325" y="0.102" class="st5" width="25.92" height="33.36"/>
			</g>
		</g>
	</g>
	<rect x="1.433" y="2.154" class="st6" width="25.605" height="33.132"/>
	<g class="st0">
		<defs>
			<rect id="SVGID_10_" y="0" width="53.84" height="36.085"/>
		</defs>
		<clipPath id="SVGID_11_">
			<use xlink:href="#SVGID_10_"  style="overflow:visible;"/>
		</clipPath>
		<path class="st7" d="M0.889,2.361v29.778c0,0,0.45,3.058,1.609,3.058h25.42c-1.223,0-1.609-3.058-1.609-3.058V2.361H0.889z"/>
	</g>
	<rect x="4.591" y="12.103" class="st8" width="7.776" height="7.696"/>
	<g class="st0">
		<defs>
			<rect id="SVGID_12_" y="0" width="53.84" height="36.085"/>
		</defs>
		<clipPath id="SVGID_13_">
			<use xlink:href="#SVGID_12_"  style="overflow:visible;"/>
		</clipPath>
		<path class="st9" d="M21.522,7.458l0.462-1.552l0.47,1.552H21.522z M22.922,9.044h0.836l-1.313-3.957h-0.882l-1.296,3.957h0.794
			l0.275-0.93h1.307L22.922,9.044z M20.448,5.087h-2.884v0.689h1.054v3.268h0.775V5.776h1.055V5.087z M14.892,8.008l-0.341,0.548
			C14.927,8.88,15.396,9.1,15.944,9.1c0.744,0,1.344-0.399,1.344-1.215c0-1.436-1.866-0.919-1.866-1.709
			c0-0.29,0.249-0.458,0.587-0.458c0.285,0,0.62,0.118,0.891,0.309l0.335-0.532c-0.343-0.287-0.811-0.465-1.277-0.465
			c-0.716,0-1.299,0.415-1.299,1.204c0,1.397,1.849,0.917,1.849,1.709c0,0.299-0.26,0.452-0.607,0.452
			C15.558,8.395,15.203,8.245,14.892,8.008 M13.218,9.044h0.777V5.087h-0.777V9.044z M10.385,5.087H9.556l1.265,3.957h0.667
			l1.27-3.957H11.97l-0.796,2.74L10.385,5.087z M6.887,9.044h2.414V8.358H7.655V7.391H9.05V6.707H7.655V5.773h1.607V5.087H6.887
			V9.044z M4.302,6.922V5.766h0.495c0.386,0,0.635,0.196,0.635,0.581c0,0.368-0.227,0.575-0.635,0.575H4.302z M3.539,9.044h0.763
			V7.603h0.425l0.751,1.441h0.9L5.497,7.482c0.446-0.195,0.71-0.613,0.71-1.146c0-0.729-0.496-1.249-1.333-1.249H3.539V9.044z"/>
	</g>
	<line class="st8" x1="14.673" y1="13.394" x2="22.691" y2="13.394"/>
	<line class="st8" x1="14.673" y1="16.526" x2="22.691" y2="16.526"/>
	<line class="st8" x1="14.673" y1="19.8" x2="22.691" y2="19.8"/>
	<line class="st8" x1="4.26" y1="24.211" x2="23.57" y2="24.211"/>
	<line class="st8" x1="4.26" y1="27.342" x2="23.57" y2="27.342"/>
	<line class="st8" x1="4.26" y1="30.616" x2="23.57" y2="30.616"/>
	<g class="st0">
		<defs>
			<rect id="SVGID_14_" y="0" width="53.84" height="36.085"/>
		</defs>
		<clipPath id="SVGID_15_">
			<use xlink:href="#SVGID_14_"  style="overflow:visible;"/>
		</clipPath>
		<path class="st10" d="M44.352,20.23c-0.274,0.047-0.541,0.131-0.803,0.249c0.179-0.487,0.428-0.9,0.749-1.239
			c0.321-0.339,0.698-0.615,1.132-0.829c0.434-0.214,0.915-0.371,1.444-0.472s1.097-0.158,1.703-0.17
			c-0.024-0.38-0.048-0.746-0.071-1.096c-0.024-0.351-0.048-0.71-0.072-1.079c-1.212,0.012-2.303,0.181-3.271,0.508
			c-0.969,0.327-1.795,0.802-2.479,1.427c-0.683,0.624-1.209,1.393-1.577,2.308c-0.369,0.916-0.553,1.968-0.553,3.156
			c0,1.652,0.386,2.948,1.159,3.887c0.772,0.939,1.901,1.409,3.387,1.409c0.737,0,1.376-0.131,1.917-0.393
			c0.541-0.261,0.986-0.594,1.337-0.998c0.351-0.404,0.612-0.856,0.785-1.355c0.172-0.499,0.258-0.987,0.258-1.462
			c0-0.535-0.077-1.04-0.232-1.516c-0.154-0.475-0.404-0.891-0.748-1.248c-0.345-0.356-0.788-0.639-1.329-0.847
			c-0.541-0.207-1.197-0.312-1.97-0.312C44.88,20.158,44.625,20.182,44.352,20.23 M46.304,22.717
			c0.303,0.327,0.454,0.793,0.454,1.399c0,0.214-0.032,0.437-0.098,0.669c-0.065,0.232-0.166,0.443-0.303,0.633
			c-0.136,0.19-0.309,0.348-0.517,0.472c-0.208,0.125-0.46,0.188-0.757,0.188c-0.357,0-0.654-0.081-0.892-0.241
			c-0.238-0.16-0.428-0.383-0.57-0.669c-0.143-0.285-0.244-0.618-0.304-0.998c-0.059-0.38-0.089-0.785-0.089-1.212
			c0-0.072,0.003-0.155,0.009-0.25c0.006-0.095,0.009-0.166,0.009-0.214c0.166-0.083,0.398-0.149,0.695-0.196
			c0.297-0.048,0.577-0.071,0.838-0.071C45.493,22.227,46.001,22.39,46.304,22.717 M36.043,19.973
			c-0.202,0.308-0.493,0.581-0.873,0.818c-0.678-0.237-1.157-0.521-1.436-0.853c-0.279-0.332-0.419-0.688-0.419-1.067
			c0-0.142,0.03-0.29,0.089-0.444c0.06-0.154,0.152-0.3,0.277-0.436s0.282-0.246,0.472-0.329c0.19-0.083,0.416-0.125,0.678-0.125
			c0.273,0,0.505,0.045,0.695,0.134c0.19,0.089,0.348,0.199,0.473,0.329c0.124,0.13,0.214,0.27,0.267,0.418
			c0.054,0.148,0.08,0.287,0.08,0.417C36.346,19.286,36.245,19.665,36.043,19.973 M33.387,23.504
			c0.225-0.334,0.505-0.626,0.838-0.876c0.332,0.107,0.644,0.223,0.936,0.348c0.291,0.126,0.543,0.268,0.757,0.429
			c0.214,0.161,0.384,0.349,0.509,0.563c0.124,0.215,0.187,0.459,0.187,0.733c0,0.37-0.143,0.703-0.428,1.001
			s-0.737,0.447-1.355,0.447c-0.321,0-0.595-0.048-0.82-0.143c-0.226-0.095-0.41-0.214-0.553-0.357
			c-0.143-0.143-0.247-0.301-0.312-0.474c-0.066-0.173-0.098-0.331-0.098-0.474C33.048,24.237,33.161,23.837,33.387,23.504
			 M38.78,22.906c-0.291-0.482-0.776-0.943-1.453-1.384c0.451-0.284,0.829-0.673,1.132-1.166c0.303-0.492,0.455-1.023,0.455-1.593
			c0-0.392-0.075-0.787-0.223-1.184c-0.149-0.398-0.39-0.757-0.722-1.077c-0.333-0.32-0.758-0.585-1.275-0.792
			c-0.517-0.208-1.138-0.312-1.863-0.312c-0.618,0-1.18,0.098-1.685,0.294c-0.505,0.196-0.936,0.457-1.293,0.783
			c-0.356,0.327-0.633,0.709-0.829,1.149c-0.196,0.439-0.294,0.896-0.294,1.37c0,0.629,0.122,1.146,0.366,1.549
			c0.243,0.404,0.621,0.814,1.132,1.229c-0.238,0.178-0.461,0.369-0.669,0.571c-0.208,0.203-0.395,0.426-0.562,0.67
			c-0.166,0.244-0.297,0.515-0.392,0.812c-0.095,0.298-0.142,0.625-0.142,0.982c0,0.345,0.071,0.723,0.214,1.134
			c0.142,0.41,0.383,0.788,0.722,1.133c0.338,0.346,0.784,0.635,1.337,0.867c0.553,0.231,1.245,0.348,2.077,0.348
			c0.725,0,1.364-0.093,1.917-0.277c0.552-0.185,1.013-0.444,1.381-0.777c0.369-0.333,0.645-0.723,0.829-1.169
			c0.185-0.446,0.277-0.937,0.277-1.473C39.217,23.95,39.071,23.388,38.78,22.906"/>
	</g>
</g>
</svg>
