<?xml version="1.0" encoding="utf-8"?>
<!-- Generator: Adobe Illustrator 26.0.0, SVG Export Plug-In . SVG Version: 6.00 Build 0)  -->
<svg version="1.1" id="Layer_1" xmlns="http://www.w3.org/2000/svg" xmlns:xlink="http://www.w3.org/1999/xlink" x="0px" y="0px"
	 viewBox="0 0 68 38" style="enable-background:new 0 0 68 38;" xml:space="preserve">
<style type="text/css">
	.st0{filter:url(#Adobe_OpacityMaskFilter);}
	.st1{mask:url(#SVGID_1_);}
	.st2{opacity:0.2;clip-path:url(#SVGID_00000173874991463064919410000014316279554667372703_);fill:#231F20;}
	.st3{fill:#FFFFFF;}
	.st4{fill:none;stroke:#0066B2;stroke-width:1.396;stroke-linecap:round;}
	.st5{fill:none;stroke:#0066B2;stroke-width:0.93;stroke-linecap:round;}
	.st6{fill:#0066B2;}
</style>
<g>
	<defs>
		<filter id="Adobe_OpacityMaskFilter" filterUnits="userSpaceOnUse" x="3.7" y="1.3" width="25.8" height="33.5">
			<feColorMatrix  type="matrix" values="1 0 0 0 0  0 1 0 0 0  0 0 1 0 0  0 0 0 1 0"/>
		</filter>
	</defs>
	<mask maskUnits="userSpaceOnUse" x="3.7" y="1.3" width="25.8" height="33.5" id="SVGID_1_">
		<g class="st0">
			<g>
				<defs>
					<rect id="SVGID_00000050647910538733760140000002768049334068778641_" x="-7.8" y="-7.6" width="49.2" height="43.6"/>
				</defs>
				<clipPath id="SVGID_00000083071600721281281030000013074431304719831729_">
					<use xlink:href="#SVGID_00000050647910538733760140000002768049334068778641_"  style="overflow:visible;"/>
				</clipPath>
				<g style="clip-path:url(#SVGID_00000083071600721281281030000013074431304719831729_);">
					
						<image style="overflow:visible;" width="160" height="142" xlink:href="E0B637F2180AEA12.jpg"  transform="matrix(0.3072 0 0 0.3072 -7.7827 -7.5952)">
					</image>
				</g>
			</g>
		</g>
	</mask>
	<g class="st1">
		<g>
			<defs>
				<rect id="SVGID_00000053527969294940805940000004732542006763848580_" x="3.7" y="1.3" width="25.8" height="33.5"/>
			</defs>
			<clipPath id="SVGID_00000013155234987521373330000016314057704430574979_">
				<use xlink:href="#SVGID_00000053527969294940805940000004732542006763848580_"  style="overflow:visible;"/>
			</clipPath>
			
				<rect x="3.7" y="1.3" style="opacity:0.2;clip-path:url(#SVGID_00000013155234987521373330000016314057704430574979_);fill:#231F20;" width="25.8" height="33.5"/>
		</g>
	</g>
	<rect x="1.7" y="3.4" class="st3" width="25.7" height="33.3"/>
	<path class="st4" d="M1.2,3.6v29.9c0,0,0.5,3.1,1.6,3.1h25.6c-1.2,0-1.6-3.1-1.6-3.1V3.6H1.2z"/>
	<rect x="4.9" y="13.4" class="st5" width="7.8" height="7.7"/>
	<path class="st6" d="M21.9,8.7l0.5-1.6l0.5,1.6H21.9z M23.3,10.3h0.8l-1.3-4h-0.9l-1.3,4h0.8l0.3-0.9H23L23.3,10.3z M20.8,6.3h-2.9
		V7H19v3.3h0.8V7h1.1V6.3z M15.2,9.3l-0.3,0.6c0.4,0.3,0.8,0.5,1.4,0.5c0.7,0,1.4-0.4,1.4-1.2c0-1.4-1.9-0.9-1.9-1.7
		C15.8,7.1,16,7,16.4,7c0.3,0,0.6,0.1,0.9,0.3l0.3-0.5c-0.3-0.3-0.8-0.5-1.3-0.5c-0.7,0-1.3,0.4-1.3,1.2c0,1.4,1.9,0.9,1.9,1.7
		c0,0.3-0.3,0.5-0.6,0.5C15.9,9.7,15.6,9.5,15.2,9.3 M13.6,10.3h0.8v-4h-0.8V10.3z M10.7,6.3H9.9l1.3,4h0.7l1.3-4h-0.8l-0.8,2.8
		L10.7,6.3z M7.2,10.3h2.4V9.6H8v-1h1.4V8H8V7h1.6V6.3H7.2V10.3z M4.6,8.2V7h0.5c0.4,0,0.6,0.2,0.6,0.6c0,0.4-0.2,0.6-0.6,0.6H4.6z
		 M3.8,10.3h0.8V8.9H5l0.8,1.4h0.9L5.8,8.7c0.4-0.2,0.7-0.6,0.7-1.2c0-0.7-0.5-1.3-1.3-1.3H3.8V10.3z"/>
	<line class="st5" x1="15" y1="14.7" x2="23.1" y2="14.7"/>
	<line class="st5" x1="15" y1="17.8" x2="23.1" y2="17.8"/>
	<line class="st5" x1="15" y1="21.1" x2="23.1" y2="21.1"/>
	<line class="st5" x1="4.6" y1="25.6" x2="24" y2="25.6"/>
	<line class="st5" x1="4.6" y1="28.7" x2="24" y2="28.7"/>
	<line class="st5" x1="4.6" y1="32" x2="24" y2="32"/>
	<g>
		<rect x="27.5" y="17.9" class="st6" width="39.4" height="14"/>
		<g>
			<path class="st3" d="M34.5,25.8c-0.2,0.1-0.5,0.2-0.7,0.2c-0.3,0.1-0.5,0.1-0.8,0.1c-0.6,0-1.1-0.1-1.5-0.2
				c-0.4-0.2-0.7-0.4-1-0.6c-0.3-0.3-0.4-0.6-0.6-1c-0.1-0.4-0.2-0.8-0.2-1.2c0-0.4,0.1-0.7,0.2-1.1c0.1-0.4,0.3-0.7,0.6-1
				c0.3-0.3,0.6-0.6,1-0.8s0.9-0.3,1.4-0.3c1.1,0,2,0.4,2.6,1.1c0.6,0.7,0.9,1.8,0.9,3.1c0,1.9-0.5,3.3-1.5,4.3
				c-1,1-2.5,1.5-4.5,1.5l-0.1-1.4c0.6,0,1.1,0,1.5-0.1c0.5-0.1,0.8-0.2,1.2-0.4c0.3-0.2,0.6-0.5,0.9-0.8
				C34.2,26.6,34.4,26.2,34.5,25.8z M33.2,24.7c0.3,0,0.5,0,0.8-0.1c0.3-0.1,0.5-0.1,0.7-0.2c0-0.1,0-0.2,0-0.3s0-0.1,0-0.2
				c0-0.4,0-0.7-0.1-1.1c-0.1-0.3-0.1-0.6-0.3-0.9c-0.1-0.2-0.3-0.4-0.5-0.6c-0.2-0.1-0.5-0.2-0.8-0.2c-0.3,0-0.5,0.1-0.7,0.2
				c-0.2,0.1-0.3,0.3-0.5,0.4s-0.2,0.4-0.3,0.6c-0.1,0.2-0.1,0.4-0.1,0.6c0,0.6,0.1,1,0.4,1.3C32.2,24.6,32.6,24.7,33.2,24.7z"/>
			<path class="st3" d="M43.9,22.6c0,0.3-0.1,0.7-0.2,1c-0.1,0.3-0.3,0.6-0.5,0.9c-0.2,0.3-0.5,0.6-0.7,0.9
				c-0.3,0.3-0.6,0.6-0.8,0.8c-0.1,0.1-0.3,0.3-0.5,0.5c-0.2,0.2-0.4,0.4-0.5,0.6c-0.2,0.2-0.3,0.4-0.4,0.6
				c-0.1,0.2-0.2,0.3-0.2,0.5h4.3v1.4H38c0-0.1,0-0.2,0-0.3s0-0.2,0-0.2c0-0.4,0.1-0.9,0.2-1.2c0.1-0.4,0.3-0.7,0.6-1.1
				s0.5-0.6,0.8-0.9c0.3-0.3,0.6-0.6,0.9-0.9c0.2-0.2,0.4-0.4,0.6-0.6c0.2-0.2,0.4-0.4,0.5-0.6c0.2-0.2,0.3-0.4,0.4-0.6
				c0.1-0.2,0.1-0.4,0.1-0.7c0-0.5-0.1-0.8-0.4-1c-0.3-0.2-0.6-0.3-1-0.3c-0.3,0-0.5,0-0.7,0.1c-0.2,0.1-0.4,0.2-0.6,0.3
				S39,21.9,38.9,22c-0.1,0.1-0.2,0.2-0.3,0.3l-0.8-1.2c0.4-0.4,0.9-0.7,1.4-0.9c0.5-0.2,1.1-0.3,1.7-0.3c1,0,1.8,0.2,2.3,0.7
				C43.6,21.1,43.9,21.7,43.9,22.6z"/>
			<path class="st3" d="M45.4,25h3.8v1.6h-3.8V25z"/>
			<path class="st3" d="M54.8,25.8c-0.2,0.1-0.5,0.2-0.7,0.2c-0.3,0.1-0.5,0.1-0.8,0.1c-0.6,0-1.1-0.1-1.5-0.2
				c-0.4-0.2-0.7-0.4-1-0.6c-0.3-0.3-0.4-0.6-0.6-1c-0.1-0.4-0.2-0.8-0.2-1.2c0-0.4,0.1-0.7,0.2-1.1c0.1-0.4,0.3-0.7,0.6-1
				c0.3-0.3,0.6-0.6,1-0.8s0.9-0.3,1.4-0.3c1.1,0,2,0.4,2.6,1.1c0.6,0.7,0.9,1.8,0.9,3.1c0,1.9-0.5,3.3-1.5,4.3
				c-1,1-2.5,1.5-4.5,1.5l-0.1-1.4c0.6,0,1.1,0,1.5-0.1c0.5-0.1,0.8-0.2,1.2-0.4c0.3-0.2,0.6-0.5,0.9-0.8
				C54.5,26.6,54.7,26.2,54.8,25.8z M53.5,24.7c0.3,0,0.5,0,0.8-0.1c0.3-0.1,0.5-0.1,0.7-0.2c0-0.1,0-0.2,0-0.3s0-0.1,0-0.2
				c0-0.4,0-0.7-0.1-1.1c-0.1-0.3-0.1-0.6-0.3-0.9c-0.1-0.2-0.3-0.4-0.5-0.6c-0.2-0.1-0.5-0.2-0.8-0.2c-0.3,0-0.5,0.1-0.7,0.2
				c-0.2,0.1-0.3,0.3-0.5,0.4s-0.2,0.4-0.3,0.6c-0.1,0.2-0.1,0.4-0.1,0.6c0,0.6,0.1,1,0.4,1.3C52.5,24.6,52.9,24.7,53.5,24.7z"/>
			<path class="st3" d="M60.7,30c-0.3,0-0.5,0-0.8,0c-0.3,0-0.5-0.1-0.8-0.1c-0.2-0.1-0.5-0.1-0.7-0.2s-0.3-0.1-0.4-0.2l0.3-1.4
				c0.2,0.1,0.5,0.2,0.9,0.3c0.4,0.1,0.8,0.2,1.4,0.2c0.7,0,1.3-0.1,1.6-0.4c0.3-0.3,0.5-0.7,0.5-1.1c0-0.3-0.1-0.6-0.2-0.8
				c-0.1-0.2-0.3-0.4-0.5-0.5c-0.2-0.1-0.5-0.2-0.8-0.3c-0.3-0.1-0.6-0.1-0.9-0.1h-0.6V24h0.7c0.2,0,0.4,0,0.7-0.1
				c0.2,0,0.4-0.1,0.6-0.2c0.2-0.1,0.3-0.2,0.4-0.4c0.1-0.2,0.2-0.4,0.2-0.7c0-0.2,0-0.4-0.1-0.6c-0.1-0.2-0.2-0.3-0.3-0.4
				c-0.1-0.1-0.3-0.2-0.5-0.2c-0.2,0-0.4-0.1-0.6-0.1c-0.4,0-0.8,0.1-1.1,0.2c-0.3,0.1-0.6,0.3-0.9,0.4l-0.6-1.3
				c0.1-0.1,0.3-0.2,0.5-0.3s0.4-0.2,0.6-0.3s0.5-0.2,0.7-0.2c0.3-0.1,0.5-0.1,0.8-0.1c0.5,0,1,0.1,1.4,0.2c0.4,0.1,0.7,0.3,1,0.6
				c0.3,0.2,0.4,0.5,0.6,0.8c0.1,0.3,0.2,0.7,0.2,1.1c0,0.4-0.1,0.8-0.4,1.2c-0.2,0.4-0.6,0.6-1,0.8c0.5,0.2,0.9,0.5,1.3,0.9
				c0.3,0.4,0.5,0.9,0.5,1.6c0,0.4-0.1,0.8-0.2,1.2s-0.4,0.7-0.7,1c-0.3,0.3-0.7,0.5-1.2,0.6C62,29.9,61.4,30,60.7,30z"/>
		</g>
	</g>
</g>
</svg>
