<?xml version="1.0" encoding="utf-8"?>
<!-- Generator: Adobe Illustrator 21.1.0, SVG Export Plug-In . SVG Version: 6.00 Build 0)  -->
<svg version="1.1" id="Capa_1" xmlns="http://www.w3.org/2000/svg" xmlns:xlink="http://www.w3.org/1999/xlink" x="0px" y="0px"
	 viewBox="0 0 84.216 37.167" style="enable-background:new 0 0 84.216 37.167;" xml:space="preserve">
<style type="text/css">
	.st0{clip-path:url(#SVGID_2_);}
	.st1{clip-path:url(#SVGID_4_);fill:#005CA8;}
	.st2{filter:url(#Adobe_OpacityMaskFilter);}
	.st3{clip-path:url(#SVGID_4_);}
	.st4{clip-path:url(#SVGID_4_);mask:url(#SVGID_5_);}
	.st5{opacity:0.2;clip-path:url(#SVGID_9_);fill:#1D1D1B;}
	.st6{clip-path:url(#SVGID_2_);fill:#FFFFFF;}
	.st7{clip-path:url(#SVGID_11_);fill:none;stroke:#005CA8;stroke-width:1.777;stroke-linecap:round;}
	.st8{clip-path:url(#SVGID_2_);fill:none;stroke:#005CA8;stroke-width:1.185;stroke-linecap:round;}
	.st9{clip-path:url(#SVGID_13_);fill:#005CA8;}
	.st10{clip-path:url(#SVGID_15_);fill:#FFFFFF;}
</style>
<g>
	<defs>
		<rect id="SVGID_1_" x="-5.833" y="-5" width="94" height="48"/>
	</defs>
	<clipPath id="SVGID_2_">
		<use xlink:href="#SVGID_1_"  style="overflow:visible;"/>
	</clipPath>
	<g class="st0">
		<defs>
			<rect id="SVGID_3_" x="-5.833" y="-5" width="94" height="48"/>
		</defs>
		<clipPath id="SVGID_4_">
			<use xlink:href="#SVGID_3_"  style="overflow:visible;"/>
		</clipPath>
		<path class="st1" d="M26.356,12.964c0,0-1.805,0-1.805,1.805v15.175c0,0,0,1.805,1.805,1.805h56.055c0,0,1.805,0,1.805-1.805
			V14.769c0,0,0-1.805-1.805-1.805H26.356z"/>
		<defs>
			<filter id="Adobe_OpacityMaskFilter" filterUnits="userSpaceOnUse" x="3.175" y="0.052" width="26.88" height="34.8">
				<feColorMatrix  type="matrix" values="1 0 0 0 0  0 1 0 0 0  0 0 1 0 0  0 0 0 1 0"/>
			</filter>
		</defs>
		<mask maskUnits="userSpaceOnUse" x="3.175" y="0.052" width="26.88" height="34.8" id="SVGID_5_">
			<g class="st2">
				<g>
					<defs>
						<rect id="SVGID_6_" x="-5.705" y="-6.908" width="45.12" height="43.2"/>
					</defs>
					<clipPath id="SVGID_7_" class="st3">
						<use xlink:href="#SVGID_6_"  style="overflow:visible;"/>
					</clipPath>
					<g style="clip-path:url(#SVGID_7_);">
						
							<image style="overflow:visible;" width="188" height="180" xlink:href="D0EE32AE6EC764CA.jpg"  transform="matrix(0.24 0 0 0.24 -5.7046 -6.9077)">
						</image>
					</g>
				</g>
			</g>
		</mask>
		<g class="st4">
			<g>
				<defs>
					<rect id="SVGID_8_" x="3.175" y="0.052" width="26.88" height="34.8"/>
				</defs>
				<clipPath id="SVGID_9_">
					<use xlink:href="#SVGID_8_"  style="overflow:visible;"/>
				</clipPath>
				<rect x="3.176" y="0.052" class="st5" width="26.88" height="34.8"/>
			</g>
		</g>
	</g>
	<rect x="1.661" y="1.727" class="st6" width="26.705" height="34.555"/>
	<g class="st0">
		<defs>
			<rect id="SVGID_10_" x="-5.833" y="-5" width="94" height="48"/>
		</defs>
		<clipPath id="SVGID_11_">
			<use xlink:href="#SVGID_10_"  style="overflow:visible;"/>
		</clipPath>
		<path class="st7" d="M1.055,1.905v31.126c0,0,0.471,3.197,1.682,3.197h26.584c-1.279,0-1.682-3.196-1.682-3.196V1.905H1.055z"/>
	</g>
	<rect x="4.93" y="12.079" class="st8" width="8.161" height="8.077"/>
	<g class="st0">
		<defs>
			<rect id="SVGID_12_" x="-5.833" y="-5" width="94" height="48"/>
		</defs>
		<clipPath id="SVGID_13_">
			<use xlink:href="#SVGID_12_"  style="overflow:visible;"/>
		</clipPath>
		<path class="st9" d="M22.613,7.259l0.483-1.619l0.489,1.619H22.613z M24.073,8.913h0.873l-1.369-4.127h-0.921l-1.351,4.127h0.828
			l0.286-0.97h1.364L24.073,8.913z M21.493,4.786h-3.007v0.719h1.098v3.408h0.809V5.505h1.1V4.786z M15.699,7.832l-0.356,0.572
			c0.392,0.338,0.881,0.568,1.453,0.568c0.776,0,1.401-0.417,1.401-1.268c0-1.498-1.946-0.958-1.946-1.782
			c0-0.303,0.26-0.478,0.613-0.478c0.297,0,0.646,0.123,0.929,0.323l0.349-0.556c-0.358-0.299-0.846-0.484-1.332-0.484
			c-0.746,0-1.355,0.433-1.355,1.255c0,1.457,1.929,0.956,1.929,1.783c0,0.311-0.271,0.472-0.633,0.472
			C16.393,8.237,16.023,8.08,15.699,7.832 M13.952,8.913h0.81V4.786h-0.81V8.913z M10.998,4.786h-0.865l1.319,4.127h0.697
			l1.324-4.127h-0.822l-0.83,2.857L10.998,4.786z M7.35,8.913h2.517V8.197H8.151V7.189h1.455V6.476H8.151V5.501h1.675V4.786H7.35
			V8.913z M4.654,6.7V5.494H5.17c0.403,0,0.663,0.205,0.663,0.606c0,0.384-0.237,0.6-0.663,0.6H4.654z M3.858,8.913h0.796V7.41
			h0.443l0.784,1.503h0.938L5.9,7.284c0.465-0.203,0.741-0.639,0.741-1.195c0-0.76-0.518-1.303-1.391-1.303H3.858V8.913z"/>
	</g>
	<line class="st8" x1="15.444" y1="13.424" x2="23.858" y2="13.424"/>
	<line class="st8" x1="15.444" y1="16.715" x2="23.858" y2="16.715"/>
	<line class="st8" x1="15.444" y1="20.156" x2="23.858" y2="20.156"/>
	<line class="st8" x1="4.584" y1="24.705" x2="24.774" y2="24.705"/>
	<line class="st8" x1="4.584" y1="27.996" x2="24.774" y2="27.996"/>
	<line class="st8" x1="4.584" y1="31.437" x2="24.774" y2="31.437"/>
	<g class="st0">
		<defs>
			<rect id="SVGID_14_" x="-5.833" y="-5" width="94" height="48"/>
		</defs>
		<clipPath id="SVGID_15_">
			<use xlink:href="#SVGID_14_"  style="overflow:visible;"/>
		</clipPath>
		<path class="st10" d="M74.597,29.071c0.071-1.07,0.258-2.14,0.562-3.209c0.303-1.07,0.659-2.071,1.069-3.005
			c0.41-0.933,0.844-1.768,1.302-2.505c0.457-0.736,0.876-1.313,1.257-1.729v-1.926H70.14v2.265h5.366
			c-0.416,0.582-0.826,1.274-1.23,2.077c-0.404,0.802-0.77,1.655-1.096,2.558c-0.328,0.904-0.604,1.825-0.83,2.764
			c-0.225,0.939-0.374,1.842-0.445,2.71H74.597z M65.522,21.005c-0.202,0.308-0.493,0.581-0.874,0.818
			c-0.677-0.237-1.156-0.521-1.435-0.853c-0.279-0.332-0.419-0.688-0.419-1.067c0-0.142,0.03-0.29,0.089-0.444
			c0.06-0.154,0.152-0.3,0.277-0.436c0.124-0.136,0.282-0.246,0.472-0.329c0.19-0.083,0.416-0.125,0.678-0.125
			c0.273,0,0.505,0.045,0.695,0.134c0.19,0.089,0.348,0.199,0.472,0.329c0.125,0.13,0.214,0.27,0.268,0.418
			c0.053,0.148,0.08,0.287,0.08,0.417C65.825,20.318,65.724,20.697,65.522,21.005 M62.865,24.536
			c0.226-0.334,0.505-0.626,0.838-0.876c0.333,0.107,0.645,0.223,0.936,0.348c0.292,0.126,0.544,0.268,0.758,0.429
			c0.214,0.161,0.383,0.349,0.508,0.563c0.125,0.215,0.187,0.459,0.187,0.733c0,0.37-0.142,0.703-0.427,1.001
			c-0.286,0.298-0.738,0.447-1.355,0.447c-0.321,0-0.595-0.048-0.821-0.143c-0.226-0.095-0.41-0.214-0.552-0.357
			c-0.143-0.143-0.247-0.301-0.312-0.474c-0.066-0.173-0.098-0.331-0.098-0.474C62.527,25.269,62.639,24.869,62.865,24.536
			 M68.259,23.938c-0.292-0.482-0.776-0.943-1.453-1.384c0.451-0.284,0.829-0.673,1.132-1.166c0.303-0.492,0.454-1.023,0.454-1.593
			c0-0.392-0.074-0.787-0.222-1.184c-0.149-0.398-0.39-0.757-0.722-1.077c-0.333-0.32-0.758-0.585-1.275-0.792
			c-0.517-0.208-1.139-0.312-1.863-0.312c-0.619,0-1.18,0.098-1.685,0.294c-0.506,0.196-0.936,0.457-1.293,0.783
			c-0.357,0.327-0.633,0.709-0.829,1.149c-0.196,0.439-0.294,0.896-0.294,1.37c0,0.629,0.122,1.146,0.365,1.549
			c0.244,0.404,0.621,0.814,1.132,1.229c-0.237,0.178-0.46,0.369-0.668,0.571c-0.208,0.203-0.395,0.426-0.562,0.67
			c-0.166,0.244-0.297,0.515-0.392,0.812c-0.095,0.298-0.143,0.625-0.143,0.982c0,0.345,0.072,0.723,0.214,1.134
			c0.143,0.41,0.384,0.788,0.722,1.133c0.339,0.346,0.785,0.635,1.338,0.867c0.552,0.231,1.245,0.348,2.077,0.348
			c0.725,0,1.364-0.093,1.916-0.277c0.553-0.185,1.014-0.444,1.382-0.777c0.368-0.333,0.645-0.723,0.829-1.169
			c0.184-0.446,0.277-0.937,0.277-1.473C68.696,24.982,68.55,24.42,68.259,23.938 M53.63,24.952h5.171v-2.407H53.63V24.952z
			 M48.834,16.715c-0.535,0.535-1.07,1.135-1.605,1.801s-1.043,1.346-1.524,2.041c-0.482,0.696-0.918,1.373-1.311,2.033
			c-0.392,0.66-0.719,1.251-0.98,1.774v1.943h5.331v2.764h2.603v-2.764h1.319v-2.175h-1.319v-7.417H48.834z M48.745,24.132h-2.799
			c0.356-0.749,0.796-1.48,1.319-2.193c0.523-0.713,1.016-1.373,1.48-1.979V24.132z M39.206,21.005
			c-0.202,0.308-0.493,0.581-0.873,0.818c-0.678-0.237-1.157-0.521-1.436-0.853c-0.279-0.332-0.419-0.688-0.419-1.067
			c0-0.142,0.03-0.29,0.089-0.444c0.06-0.154,0.152-0.3,0.277-0.436s0.282-0.246,0.472-0.329c0.19-0.083,0.416-0.125,0.678-0.125
			c0.273,0,0.505,0.045,0.695,0.134c0.19,0.089,0.348,0.199,0.473,0.329c0.124,0.13,0.214,0.27,0.267,0.418
			c0.054,0.148,0.08,0.287,0.08,0.417C39.509,20.318,39.408,20.697,39.206,21.005 M36.55,24.536
			c0.225-0.334,0.505-0.626,0.838-0.876c0.332,0.107,0.644,0.223,0.936,0.348c0.291,0.126,0.543,0.268,0.757,0.429
			c0.214,0.161,0.384,0.349,0.509,0.563c0.124,0.215,0.187,0.459,0.187,0.733c0,0.37-0.143,0.703-0.428,1.001
			c-0.285,0.298-0.737,0.447-1.355,0.447c-0.321,0-0.595-0.048-0.82-0.143c-0.226-0.095-0.41-0.214-0.553-0.357
			c-0.143-0.143-0.247-0.301-0.312-0.474c-0.066-0.173-0.098-0.331-0.098-0.474C36.211,25.269,36.324,24.869,36.55,24.536
			 M41.943,23.938c-0.291-0.482-0.776-0.943-1.453-1.384c0.451-0.284,0.829-0.673,1.132-1.166c0.303-0.492,0.455-1.023,0.455-1.593
			c0-0.392-0.075-0.787-0.223-1.184c-0.149-0.398-0.39-0.757-0.722-1.077c-0.333-0.32-0.758-0.585-1.275-0.792
			c-0.517-0.208-1.138-0.312-1.863-0.312c-0.618,0-1.18,0.098-1.685,0.294c-0.505,0.196-0.936,0.457-1.293,0.783
			c-0.356,0.327-0.633,0.709-0.829,1.149c-0.196,0.439-0.294,0.896-0.294,1.37c0,0.629,0.122,1.146,0.366,1.549
			c0.243,0.404,0.621,0.814,1.132,1.229c-0.238,0.178-0.461,0.369-0.669,0.571c-0.208,0.203-0.395,0.426-0.561,0.67
			c-0.167,0.244-0.298,0.515-0.393,0.812c-0.095,0.298-0.142,0.625-0.142,0.982c0,0.345,0.071,0.723,0.214,1.134
			c0.142,0.41,0.383,0.788,0.722,1.133c0.338,0.346,0.784,0.635,1.337,0.867c0.553,0.231,1.245,0.348,2.077,0.348
			c0.725,0,1.364-0.093,1.917-0.277c0.552-0.185,1.013-0.444,1.381-0.777c0.369-0.333,0.645-0.723,0.829-1.169
			c0.185-0.446,0.277-0.937,0.277-1.473C42.38,24.982,42.234,24.42,41.943,23.938"/>
	</g>
</g>
</svg>
