<?xml version="1.0" encoding="utf-8"?>
<!-- Generator: Adobe Illustrator 14.0.0, SVG Export Plug-In . SVG Version: 6.00 Build 43363)  -->
<!DOCTYPE svg PUBLIC "-//W3C//DTD SVG 1.1//EN" "http://www.w3.org/Graphics/SVG/1.1/DTD/svg11.dtd">
<svg version="1.1" id="Layer_1" xmlns="http://www.w3.org/2000/svg" xmlns:xlink="http://www.w3.org/1999/xlink" x="0px" y="0px"
	 width="326.504px" height="324.959px" viewBox="0 0 326.504 324.959" enable-background="new 0 0 326.504 324.959"
	 xml:space="preserve">
<g>
	<path fill="#FFFFFF" d="M16.605,10.503c0,0-10.885,0.053-11,10.937c0,0-1.348,90.535-1.481,141.47
		C3.99,213.843,5.54,306.726,5.54,306.726s0.181,10.884,11.063,11.018c0,0,103.492,3.066,131.1,1.615
		c27.611-1.45,164.352-1.727,164.352-1.727s10.885-0.022,10.939-10.908c0,0,0.255-95.007,0.697-143.26
		c0.51-55.531-0.608-142.024-0.608-142.024s-0.144-10.884-11.028-10.924c0,0-131.84-0.306-169.713-0.608
		C104.467,9.603,16.605,10.503,16.605,10.503"/>
	
		<line fill="none" stroke="#929497" stroke-width="1.5" stroke-linecap="round" stroke-linejoin="round" stroke-miterlimit="10" stroke-dasharray="0,4.54" x1="27.124" y1="95.862" x2="303.184" y2="95.862"/>
	<path fill="none" stroke="#929497" stroke-width="1.5" stroke-linecap="round" stroke-linejoin="round" stroke-miterlimit="10" d="
		M306.09,95.862L306.09,95.862 M21.311,95.862L21.311,95.862"/>
	
		<line fill="none" stroke="#929497" stroke-width="1.5" stroke-linecap="round" stroke-linejoin="round" stroke-miterlimit="10" stroke-dasharray="0,4.54" x1="27.124" y1="125.179" x2="303.184" y2="125.179"/>
	<path fill="none" stroke="#929497" stroke-width="1.5" stroke-linecap="round" stroke-linejoin="round" stroke-miterlimit="10" d="
		M306.09,125.179L306.09,125.179 M21.311,125.179L21.311,125.179"/>
	
		<line fill="none" stroke="#929497" stroke-width="1.5" stroke-linecap="round" stroke-linejoin="round" stroke-miterlimit="10" stroke-dasharray="0,4.54" x1="27.124" y1="154.495" x2="303.184" y2="154.495"/>
	<path fill="none" stroke="#929497" stroke-width="1.5" stroke-linecap="round" stroke-linejoin="round" stroke-miterlimit="10" d="
		M306.09,154.495L306.09,154.495 M21.311,154.495L21.311,154.495"/>
	
		<line fill="none" stroke="#929497" stroke-width="1.5" stroke-linecap="round" stroke-linejoin="round" stroke-miterlimit="10" stroke-dasharray="0,4.54" x1="27.124" y1="183.813" x2="303.184" y2="183.813"/>
	<path fill="none" stroke="#929497" stroke-width="1.5" stroke-linecap="round" stroke-linejoin="round" stroke-miterlimit="10" d="
		M306.09,183.813L306.09,183.813 M21.311,183.813L21.311,183.813"/>
	
		<line fill="none" stroke="#929497" stroke-width="1.5" stroke-linecap="round" stroke-linejoin="round" stroke-miterlimit="10" stroke-dasharray="0,4.54" x1="27.124" y1="213.13" x2="303.184" y2="213.13"/>
	<path fill="none" stroke="#929497" stroke-width="1.5" stroke-linecap="round" stroke-linejoin="round" stroke-miterlimit="10" d="
		M306.09,213.13L306.09,213.13 M21.311,213.13L21.311,213.13"/>
	
		<line fill="none" stroke="#929497" stroke-width="1.5" stroke-linecap="round" stroke-linejoin="round" stroke-miterlimit="10" stroke-dasharray="0,4.54" x1="27.124" y1="242.446" x2="303.184" y2="242.446"/>
	<path fill="none" stroke="#929497" stroke-width="1.5" stroke-linecap="round" stroke-linejoin="round" stroke-miterlimit="10" d="
		M306.09,242.446L306.09,242.446 M21.311,242.446L21.311,242.446"/>
	
		<line fill="none" stroke="#929497" stroke-width="1.5" stroke-linecap="round" stroke-linejoin="round" stroke-miterlimit="10" stroke-dasharray="0,4.54" x1="27.124" y1="271.765" x2="303.184" y2="271.765"/>
	<path fill="none" stroke="#929497" stroke-width="1.5" stroke-linecap="round" stroke-linejoin="round" stroke-miterlimit="10" d="
		M306.09,271.765L306.09,271.765 M21.311,271.765L21.311,271.765"/>
	
		<line fill="none" stroke="#929497" stroke-width="1.5" stroke-linecap="round" stroke-linejoin="round" stroke-miterlimit="10" stroke-dasharray="0,4.54" x1="27.124" y1="301.081" x2="303.184" y2="301.081"/>
	<path fill="none" stroke="#929497" stroke-width="1.5" stroke-linecap="round" stroke-linejoin="round" stroke-miterlimit="10" d="
		M306.09,301.081L306.09,301.081 M21.311,301.081L21.311,301.081"/>
	<text transform="matrix(1 0 0 1 20.3506 300.2266)" fill="#231F20" font-family="'Ubuntu-Medium'" font-size="15.36">  </text>
	<path fill="#ADC4E6" d="M14.598,1.272c0,0-10.885,0.122-12.029,10.945c0,0-2.5,5.223-2.566,24.273
		c-0.064,19.052,1.822,20.918,1.822,20.918s1.889,1.866,12.771,2.096c0,0,104.531,3.027,118.123,2.484
		c13.59-0.543,178.145-2.58,178.145-2.58s10.886-0.134,11.863-10.974c0,0,0.844,6.312,1.063-11.735
		c0.25-20.77-0.897-28.038-0.897-28.038s-1.144-7.268-12.029-7.348c0,0-162.141-1.194-180.785-1.308
		C111.436-0.108,14.598,1.272,14.598,1.272"/>
	<path fill="none" stroke="#231F20" d="M16.217,4.813c0,0-10.883-0.207-11.049,10.678c0,0-2.156,99.055-2.289,150.051
		s2.82,141.318,2.82,141.318s0.355,10.879,11.229,11.391c0,0,100.416,7.473,127.967,6.021c27.553-1.453,168.141-2.561,168.141-2.561
		s10.885-0.086,11.029-10.971c0,0,1.443-93.802,1.889-142.113c0.506-55.599-2.939-147.438-2.939-147.438
		s-0.408-10.877-11.291-11.064c0,0-129.033-2.568-166.828-2.873C107.102,6.948,16.217,4.813,16.217,4.813z"/>
</g>
</svg>
