<?xml version="1.0" encoding="utf-8"?>
<!-- Generator: Adobe Illustrator 14.0.0, SVG Export Plug-In . SVG Version: 6.00 Build 43363)  -->
<!DOCTYPE svg PUBLIC "-//W3C//DTD SVG 1.1//EN" "http://www.w3.org/Graphics/SVG/1.1/DTD/svg11.dtd">
<svg version="1.1" id="Layer_1" xmlns="http://www.w3.org/2000/svg" xmlns:xlink="http://www.w3.org/1999/xlink" x="0px" y="0px"
	 width="326.502px" height="324.96px" viewBox="0 0 326.502 324.96" enable-background="new 0 0 326.502 324.96"
	 xml:space="preserve">
<g>
	<path fill="#FFFFFF" d="M16.603,10.504c0,0-10.885,0.053-10.998,10.937c0,0-1.35,90.535-1.482,141.47
		C3.99,213.844,5.537,306.727,5.537,306.727s0.182,10.884,11.066,11.018c0,0,103.49,3.066,131.1,1.615
		c27.611-1.45,164.352-1.727,164.352-1.727s10.885-0.022,10.939-10.908c0,0,0.254-95.007,0.697-143.26
		c0.508-55.531-0.611-142.024-0.611-142.024s-0.141-10.884-11.025-10.924c0,0-131.84-0.306-169.713-0.608
		C104.466,9.604,16.603,10.504,16.603,10.504"/>
	
		<line fill="none" stroke="#929497" stroke-width="1.5" stroke-linecap="round" stroke-linejoin="round" stroke-miterlimit="10" stroke-dasharray="0,4.472" x1="27.033" y1="95.863" x2="304.679" y2="95.863"/>
	<path fill="none" stroke="#929497" stroke-width="1.5" stroke-linecap="round" stroke-linejoin="round" stroke-miterlimit="10" d="
		M307.541,95.863L307.541,95.863 M21.308,95.863L21.308,95.863"/>
	
		<line fill="none" stroke="#929497" stroke-width="1.5" stroke-linecap="round" stroke-linejoin="round" stroke-miterlimit="10" stroke-dasharray="0,4.472" x1="27.033" y1="125.18" x2="304.679" y2="125.18"/>
	<path fill="none" stroke="#929497" stroke-width="1.5" stroke-linecap="round" stroke-linejoin="round" stroke-miterlimit="10" d="
		M307.541,125.18L307.541,125.18 M21.308,125.18L21.308,125.18"/>
	
		<line fill="none" stroke="#929497" stroke-width="1.5" stroke-linecap="round" stroke-linejoin="round" stroke-miterlimit="10" stroke-dasharray="0,4.472" x1="27.033" y1="154.496" x2="304.679" y2="154.496"/>
	<path fill="none" stroke="#929497" stroke-width="1.5" stroke-linecap="round" stroke-linejoin="round" stroke-miterlimit="10" d="
		M307.541,154.496L307.541,154.496 M21.308,154.496L21.308,154.496"/>
	
		<line fill="none" stroke="#929497" stroke-width="1.5" stroke-linecap="round" stroke-linejoin="round" stroke-miterlimit="10" stroke-dasharray="0,4.472" x1="27.033" y1="183.814" x2="304.679" y2="183.814"/>
	<path fill="none" stroke="#929497" stroke-width="1.5" stroke-linecap="round" stroke-linejoin="round" stroke-miterlimit="10" d="
		M307.541,183.814L307.541,183.814 M21.308,183.814L21.308,183.814"/>
	
		<line fill="none" stroke="#929497" stroke-width="1.5" stroke-linecap="round" stroke-linejoin="round" stroke-miterlimit="10" stroke-dasharray="0,4.472" x1="27.033" y1="213.131" x2="304.679" y2="213.131"/>
	<path fill="none" stroke="#929497" stroke-width="1.5" stroke-linecap="round" stroke-linejoin="round" stroke-miterlimit="10" d="
		M307.541,213.131L307.541,213.131 M21.308,213.131L21.308,213.131"/>
	
		<line fill="none" stroke="#929497" stroke-width="1.5" stroke-linecap="round" stroke-linejoin="round" stroke-miterlimit="10" stroke-dasharray="0,4.472" x1="27.033" y1="242.447" x2="304.679" y2="242.447"/>
	<path fill="none" stroke="#929497" stroke-width="1.5" stroke-linecap="round" stroke-linejoin="round" stroke-miterlimit="10" d="
		M307.541,242.447L307.541,242.447 M21.308,242.447L21.308,242.447"/>
	
		<line fill="none" stroke="#929497" stroke-width="1.5" stroke-linecap="round" stroke-linejoin="round" stroke-miterlimit="10" stroke-dasharray="0,4.472" x1="27.033" y1="271.766" x2="304.679" y2="271.766"/>
	<path fill="none" stroke="#929497" stroke-width="1.5" stroke-linecap="round" stroke-linejoin="round" stroke-miterlimit="10" d="
		M307.541,271.766L307.541,271.766 M21.308,271.766L21.308,271.766"/>
	
		<line fill="none" stroke="#929497" stroke-width="1.5" stroke-linecap="round" stroke-linejoin="round" stroke-miterlimit="10" stroke-dasharray="0,4.472" x1="27.033" y1="301.082" x2="304.679" y2="301.082"/>
	<path fill="none" stroke="#929497" stroke-width="1.5" stroke-linecap="round" stroke-linejoin="round" stroke-miterlimit="10" d="
		M307.541,301.082L307.541,301.082 M21.308,301.082L21.308,301.082"/>
	<text transform="matrix(1 0 0 1 20.3496 153.6426)" fill="#231F20" font-family="'Ubuntu-Medium'" font-size="15.36">  </text>
	<path fill="#FDDAB4" d="M13.964,1.25c0,0-10.887,0.145-11.836,10.988c0,0-2.072,5.203-2.127,24.254
		c-0.054,19.051,1.512,20.917,1.512,20.917s1.564,1.867,12.447,2.143c0,0,84.846,2.979,96.117,2.438
		c11.275-0.544,145.906-2.552,145.906-2.552s10.883-0.161,11.697-11.016c0,0,0.697,6.326,0.877-11.722
		c0.209-20.771-0.742-28.037-0.742-28.037s-0.949-7.269-11.836-7.364c0,0-132.627-1.178-148.09-1.292
		C92.425-0.107,13.964,1.25,13.964,1.25"/>
	<path fill="none" stroke="#231F20" d="M16.216,4.814c0,0-10.883-0.207-11.049,10.678c0,0-2.156,99.055-2.289,150.051
		s2.82,141.318,2.82,141.318s0.355,10.879,11.227,11.391c0,0,100.418,7.473,127.969,6.021c27.554-1.453,168.139-2.561,168.139-2.561
		s10.885-0.086,11.031-10.971c0,0,1.445-93.802,1.887-142.113c0.51-55.599-2.939-147.438-2.939-147.438s-0.408-10.877-11.291-11.064
		c0,0-129.031-2.568-166.826-2.873C107.101,6.949,16.216,4.814,16.216,4.814z"/>
</g>
</svg>
