<?xml version="1.0" encoding="utf-8"?>
<!-- Generator: Adobe Illustrator 14.0.0, SVG Export Plug-In . SVG Version: 6.00 Build 43363)  -->
<!DOCTYPE svg PUBLIC "-//W3C//DTD SVG 1.1//EN" "http://www.w3.org/Graphics/SVG/1.1/DTD/svg11.dtd">
<svg version="1.1" id="Layer_1" xmlns="http://www.w3.org/2000/svg" xmlns:xlink="http://www.w3.org/1999/xlink" x="0px" y="0px"
	 width="688.43px" height="179.547px" viewBox="0 0 688.43 179.547" enable-background="new 0 0 688.43 179.547"
	 xml:space="preserve">
<g>
	<path fill="#FFFFFF" d="M20.496,7.649c0,0-10.885,0.013-11.326,10.891c0,0-2.656,44.591-2.938,72.446
		c-0.281,27.857,2.678,73.747,2.678,73.747s0.701,10.86,11.586,10.896c0,0,231.08,1.715,289.493,0.923
		c58.409-0.794,359.839-0.951,359.839-0.951s10.885-0.007,11.09-10.889c0,0,0.446-47.031,1.383-73.42
		c1.078-30.371-1.043-72.757-1.043-72.757s-0.545-10.873-11.43-10.881c0,0-291.063-0.178-371.188-0.346
		C218.516,7.143,20.496,7.649,20.496,7.649"/>
	<path fill="#E1EDC1" d="M14.549,0.87c0,0-10.885,0.083-12.527,10.843c0,0-1.955,0.207-2.02,13.227
		c-0.066,13.019,1.799,14.294,1.799,14.294s1.863,1.275,12.748,1.434c0,0,103.057,2.067,116.475,1.696
		c13.416-0.372,175.73-1.761,175.73-1.761s10.885-0.094,11.893-7.807c0,0,0.791,4.62,1.009-7.714
		c0.245-14.194-0.886-19.162-0.886-19.162s-1.131-4.966-12.016-5.021c0,0-159.931-0.815-178.338-0.893
		C110.012-0.074,14.549,0.87,14.549,0.87"/>
	<path fill="none" stroke="#231F20" d="M18.977,4.814c0,0-10.885-0.053-11.53,10.813c0,0-4.28,49.04-4.562,76.828
		c-0.281,27.789,5.357,72.136,5.357,72.136s1.375,10.799,12.26,10.93c0,0,225.053,4.219,283.463,3.428
		c58.41-0.79,368.652-1.419,368.652-1.419s10.885-0.021,11.447-10.893c0,0,2.811-46.175,3.746-72.5
		c1.078-30.296-5.52-75.497-5.52-75.497s-1.574-10.77-12.459-10.818c0,0-285.742-1.453-365.867-1.619
		C223.84,6.036,18.977,4.814,18.977,4.814z"/>
	
		<line fill="none" stroke="#929497" stroke-width="1.5" stroke-linecap="round" stroke-linejoin="round" stroke-miterlimit="10" stroke-dasharray="0,4.51" x1="42.848" y1="64.061" x2="657.713" y2="64.061"/>
	<path fill="none" stroke="#929497" stroke-width="1.5" stroke-linecap="round" stroke-linejoin="round" stroke-miterlimit="10" d="
		M660.6,64.061L660.6,64.061 M37.074,64.061L37.074,64.061"/>
	
		<line fill="none" stroke="#929497" stroke-width="1.5" stroke-linecap="round" stroke-linejoin="round" stroke-miterlimit="10" stroke-dasharray="0,4.51" x1="42.848" y1="93.378" x2="657.713" y2="93.378"/>
	<path fill="none" stroke="#929497" stroke-width="1.5" stroke-linecap="round" stroke-linejoin="round" stroke-miterlimit="10" d="
		M660.6,93.378L660.6,93.378 M37.074,93.378L37.074,93.378"/>
	
		<line fill="none" stroke="#929497" stroke-width="1.5" stroke-linecap="round" stroke-linejoin="round" stroke-miterlimit="10" stroke-dasharray="0,4.51" x1="42.848" y1="122.695" x2="657.713" y2="122.695"/>
	<path fill="none" stroke="#929497" stroke-width="1.5" stroke-linecap="round" stroke-linejoin="round" stroke-miterlimit="10" d="
		M660.6,122.695L660.6,122.695 M37.074,122.695L37.074,122.695"/>
	
		<line fill="none" stroke="#929497" stroke-width="1.5" stroke-linecap="round" stroke-linejoin="round" stroke-miterlimit="10" stroke-dasharray="0,4.51" x1="42.848" y1="152.012" x2="657.713" y2="152.012"/>
	<path fill="none" stroke="#929497" stroke-width="1.5" stroke-linecap="round" stroke-linejoin="round" stroke-miterlimit="10" d="
		M660.6,152.012L660.6,152.012 M37.074,152.012L37.074,152.012"/>
	<text transform="matrix(1 0 0 1 36.1138 121.8408)" fill="#231F20" font-family="'Ubuntu-Medium'" font-size="15.36"> </text>
	<text transform="matrix(1 0 0 1 36.1138 151.1631)" fill="#231F20" font-family="'Ubuntu-Medium'" font-size="15.36">  </text>
</g>
</svg>
