<?xml version="1.0" encoding="utf-8"?>
<!-- Generator: Adobe Illustrator 26.0.1, SVG Export Plug-In . SVG Version: 6.00 Build 0)  -->
<svg version="1.1" id="Capa_1" xmlns="http://www.w3.org/2000/svg" xmlns:xlink="http://www.w3.org/1999/xlink" x="0px" y="0px"
	 viewBox="0 0 820 1059.2" style="enable-background:new 0 0 820 1059.2;" xml:space="preserve">
<style type="text/css">
	.st0{fill:#AEC90B;}
	.st1{clip-path:url(#SVGID_00000119120129368190292780000018090835253746780082_);fill:#F0F4D9;}
</style>
<rect y="-0.4" class="st0" width="820" height="1059.2"/>
<g>
	<g>
		<g>
			<g>
				<defs>
					<rect id="SVGID_1_" y="-0.4" width="820" height="1060"/>
				</defs>
				<clipPath id="SVGID_00000110468644346836271520000012495324190396480665_">
					<use xlink:href="#SVGID_1_"  style="overflow:visible;"/>
				</clipPath>
				<path style="clip-path:url(#SVGID_00000110468644346836271520000012495324190396480665_);fill:#F0F4D9;" d="M71.1,17.6
					c18.3-2,366.9,0,403.6,0s272.4-12.7,275.1,9.6c6.2,48.5,6.2,784.6,6.2,865.7c0,58.3-2.4,131.9-6.2,131.9
					c-3.6,0-607.8,26-683.7,6.6c-6.2-93.2-3.6-439.3-3.6-619.9C62.6,354.6,61.4,72.5,71.1,17.6"/>
			</g>
		</g>
	</g>
</g>
<polygon class="st0" points="0,1035.6 0,1059.6 820,1059.6 820,1023.4 "/>
<polygon class="st0" points="0,-0.4 0,27.5 820,38.8 820,-0.4 "/>
</svg>
