<?xml version="1.0" encoding="utf-8"?>
<!-- Generator: Adobe Illustrator 21.1.0, SVG Export Plug-In . SVG Version: 6.00 Build 0)  -->
<svg version="1.1" id="Capa_1" xmlns="http://www.w3.org/2000/svg" xmlns:xlink="http://www.w3.org/1999/xlink" x="0px" y="0px"
	 viewBox="0 0 84.174 36.875" style="enable-background:new 0 0 84.174 36.875;" xml:space="preserve">
<style type="text/css">
	.st0{clip-path:url(#SVGID_2_);}
	.st1{clip-path:url(#SVGID_4_);fill:#0069B3;}
	.st2{filter:url(#Adobe_OpacityMaskFilter);}
	.st3{clip-path:url(#SVGID_4_);}
	.st4{clip-path:url(#SVGID_4_);mask:url(#SVGID_5_);}
	.st5{opacity:0.2;clip-path:url(#SVGID_9_);fill:#1D1D1B;}
	.st6{clip-path:url(#SVGID_2_);fill:#FFFFFF;}
	.st7{clip-path:url(#SVGID_11_);fill:none;stroke:#0069B3;stroke-width:1.777;stroke-linecap:round;}
	.st8{clip-path:url(#SVGID_2_);fill:none;stroke:#0069B3;stroke-width:1.185;stroke-linecap:round;}
	.st9{clip-path:url(#SVGID_13_);fill:#0069B3;}
	.st10{clip-path:url(#SVGID_15_);fill:#FFFFFF;}
</style>
<g>
	<defs>
		<rect id="SVGID_1_" x="-4.875" y="-4.125" width="96" height="46"/>
	</defs>
	<clipPath id="SVGID_2_">
		<use xlink:href="#SVGID_1_"  style="overflow:visible;"/>
	</clipPath>
	<g class="st0">
		<defs>
			<rect id="SVGID_3_" x="-4.875" y="-4.125" width="96" height="46"/>
		</defs>
		<clipPath id="SVGID_4_">
			<use xlink:href="#SVGID_3_"  style="overflow:visible;"/>
		</clipPath>
		<path class="st1" d="M26.314,12.823c0,0-1.805,0-1.805,1.805v15.175c0,0,0,1.805,1.805,1.805h56.055c0,0,1.805,0,1.805-1.805
			V14.628c0,0,0-1.805-1.805-1.805H26.314z"/>
		<defs>
			<filter id="Adobe_OpacityMaskFilter" filterUnits="userSpaceOnUse" x="3.134" y="-0.089" width="26.88" height="34.8">
				<feColorMatrix  type="matrix" values="1 0 0 0 0  0 1 0 0 0  0 0 1 0 0  0 0 0 1 0"/>
			</filter>
		</defs>
		<mask maskUnits="userSpaceOnUse" x="3.134" y="-0.089" width="26.88" height="34.8" id="SVGID_5_">
			<g class="st2">
				<g>
					<defs>
						<rect id="SVGID_6_" x="-5.746" y="-7.048" width="45.12" height="43.2"/>
					</defs>
					<clipPath id="SVGID_7_" class="st3">
						<use xlink:href="#SVGID_6_"  style="overflow:visible;"/>
					</clipPath>
					<g style="clip-path:url(#SVGID_7_);">
						
							<image style="overflow:visible;" width="188" height="180" xlink:href="DBF984960C98264A.jpg"  transform="matrix(0.24 0 0 0.24 -5.7462 -7.0485)">
						</image>
					</g>
				</g>
			</g>
		</mask>
		<g class="st4">
			<g>
				<defs>
					<rect id="SVGID_8_" x="3.134" y="-0.089" width="26.88" height="34.8"/>
				</defs>
				<clipPath id="SVGID_9_">
					<use xlink:href="#SVGID_8_"  style="overflow:visible;"/>
				</clipPath>
				<rect x="3.134" y="-0.088" class="st5" width="26.88" height="34.8"/>
			</g>
		</g>
	</g>
	<rect x="1.619" y="1.586" class="st6" width="26.705" height="34.555"/>
	<g class="st0">
		<defs>
			<rect id="SVGID_10_" x="-4.875" y="-4.125" width="96" height="46"/>
		</defs>
		<clipPath id="SVGID_11_">
			<use xlink:href="#SVGID_10_"  style="overflow:visible;"/>
		</clipPath>
		<path class="st7" d="M1.014,1.764V32.89c0,0,0.471,3.197,1.682,3.197H29.28c-1.279,0-1.682-3.196-1.682-3.196V1.764H1.014z"/>
	</g>
	<rect x="4.888" y="11.938" class="st8" width="8.161" height="8.077"/>
	<g class="st0">
		<defs>
			<rect id="SVGID_12_" x="-4.875" y="-4.125" width="96" height="46"/>
		</defs>
		<clipPath id="SVGID_13_">
			<use xlink:href="#SVGID_12_"  style="overflow:visible;"/>
		</clipPath>
		<path class="st9" d="M22.571,7.118l0.483-1.619l0.489,1.619H22.571z M24.031,8.772h0.873l-1.369-4.127h-0.921l-1.351,4.127h0.828
			l0.286-0.97h1.364L24.031,8.772z M21.451,4.645h-3.007v0.719h1.098v3.408h0.809V5.364h1.1V4.645z M15.657,7.691l-0.356,0.572
			c0.392,0.338,0.881,0.568,1.453,0.568c0.776,0,1.401-0.417,1.401-1.268c0-1.498-1.946-0.958-1.946-1.782
			c0-0.303,0.26-0.478,0.613-0.478c0.297,0,0.646,0.123,0.929,0.323L18.1,5.07c-0.358-0.299-0.846-0.484-1.332-0.484
			c-0.746,0-1.355,0.433-1.355,1.255c0,1.457,1.929,0.956,1.929,1.783c0,0.311-0.271,0.472-0.633,0.472
			C16.351,8.096,15.981,7.939,15.657,7.691 M13.91,8.772h0.81V4.645h-0.81V8.772z M10.956,4.645h-0.865l1.319,4.127h0.697
			l1.324-4.127h-0.822l-0.83,2.857L10.956,4.645z M7.308,8.772h2.517V8.056H8.109V7.048h1.455V6.335H8.109V5.36h1.675V4.645H7.308
			V8.772z M4.612,6.559V5.353h0.516c0.403,0,0.663,0.205,0.663,0.606c0,0.384-0.237,0.6-0.663,0.6H4.612z M3.816,8.772h0.796V7.269
			h0.443l0.784,1.503h0.938L5.858,7.143C6.323,6.94,6.599,6.504,6.599,5.948c0-0.76-0.518-1.303-1.391-1.303H3.816V8.772z"/>
	</g>
	<line class="st8" x1="15.403" y1="13.283" x2="23.817" y2="13.283"/>
	<line class="st8" x1="15.403" y1="16.574" x2="23.817" y2="16.574"/>
	<line class="st8" x1="15.403" y1="20.015" x2="23.817" y2="20.015"/>
	<line class="st8" x1="4.542" y1="24.564" x2="24.732" y2="24.564"/>
	<line class="st8" x1="4.542" y1="27.855" x2="24.732" y2="27.855"/>
	<line class="st8" x1="4.542" y1="31.296" x2="24.732" y2="31.296"/>
	<g class="st0">
		<defs>
			<rect id="SVGID_14_" x="-4.875" y="-4.125" width="96" height="46"/>
		</defs>
		<clipPath id="SVGID_15_">
			<use xlink:href="#SVGID_14_"  style="overflow:visible;"/>
		</clipPath>
		<path class="st10" d="M73.789,21.121c-0.274,0.047-0.541,0.131-0.803,0.249c0.179-0.487,0.428-0.9,0.749-1.239
			c0.321-0.338,0.698-0.615,1.132-0.829c0.434-0.214,0.915-0.371,1.444-0.472s1.097-0.158,1.703-0.17
			c-0.024-0.38-0.048-0.745-0.071-1.096c-0.024-0.351-0.048-0.71-0.072-1.079c-1.212,0.012-2.303,0.182-3.271,0.508
			c-0.969,0.327-1.795,0.803-2.478,1.427c-0.684,0.624-1.21,1.393-1.578,2.309c-0.369,0.915-0.553,1.967-0.553,3.155
			c0,1.653,0.386,2.948,1.159,3.887c0.772,0.939,1.901,1.409,3.387,1.409c0.737,0,1.376-0.131,1.917-0.393
			c0.541-0.261,0.987-0.594,1.337-0.998c0.351-0.404,0.612-0.856,0.785-1.355c0.172-0.499,0.258-0.987,0.258-1.462
			c0-0.535-0.077-1.04-0.232-1.516c-0.154-0.475-0.404-0.891-0.748-1.248c-0.345-0.356-0.788-0.638-1.329-0.846
			c-0.541-0.208-1.197-0.312-1.97-0.312C74.317,21.05,74.062,21.073,73.789,21.121 M75.741,23.608
			c0.303,0.327,0.455,0.793,0.455,1.4c0,0.214-0.033,0.436-0.099,0.668c-0.065,0.232-0.166,0.443-0.303,0.633
			c-0.136,0.19-0.309,0.348-0.517,0.473c-0.208,0.124-0.46,0.187-0.757,0.187c-0.357,0-0.654-0.08-0.892-0.241
			c-0.238-0.16-0.428-0.383-0.57-0.668c-0.143-0.286-0.244-0.618-0.304-0.999c-0.059-0.38-0.089-0.784-0.089-1.212
			c0-0.072,0.003-0.155,0.009-0.25c0.006-0.095,0.009-0.166,0.009-0.214c0.166-0.083,0.398-0.148,0.696-0.196
			c0.296-0.047,0.576-0.071,0.837-0.071C74.93,23.118,75.438,23.281,75.741,23.608 M64.972,25.329
			c-0.291,0.344-0.645,0.621-1.061,0.829s-0.897,0.356-1.444,0.445c-0.547,0.089-1.159,0.14-1.836,0.152
			c0.023,0.38,0.047,0.749,0.071,1.105c0.024,0.357,0.041,0.725,0.053,1.106c1.355-0.012,2.526-0.176,3.513-0.491
			c0.986-0.314,1.798-0.775,2.434-1.381c0.635-0.607,1.105-1.355,1.408-2.247c0.303-0.891,0.455-1.919,0.455-3.084
			c0-1.771-0.39-3.129-1.168-4.074c-0.779-0.945-1.935-1.418-3.468-1.418c-0.749,0-1.388,0.134-1.917,0.401
			c-0.529,0.268-0.965,0.607-1.31,1.017s-0.597,0.864-0.758,1.364c-0.16,0.499-0.24,0.986-0.24,1.462
			c0,0.57,0.083,1.093,0.249,1.569c0.166,0.475,0.425,0.882,0.776,1.221c0.35,0.339,0.799,0.6,1.346,0.784
			c0.546,0.185,1.206,0.277,1.979,0.277c0.214,0,0.472-0.027,0.775-0.08c0.304-0.054,0.58-0.14,0.83-0.259
			C65.492,24.55,65.263,24.984,64.972,25.329 M62.815,21.834c-0.315-0.309-0.473-0.784-0.473-1.426c0-0.214,0.033-0.434,0.098-0.66
			c0.066-0.226,0.164-0.434,0.295-0.624c0.13-0.19,0.303-0.345,0.517-0.464c0.214-0.118,0.463-0.178,0.748-0.178
			c0.357,0,0.657,0.08,0.901,0.241c0.243,0.16,0.437,0.38,0.579,0.659c0.143,0.28,0.244,0.607,0.303,0.981
			c0.06,0.374,0.095,0.776,0.107,1.204c0,0.035-0.003,0.077-0.009,0.124c-0.006,0.048-0.009,0.096-0.009,0.143v0.16
			c-0.142,0.096-0.362,0.17-0.659,0.223c-0.297,0.054-0.583,0.081-0.856,0.081C63.644,22.298,63.13,22.143,62.815,21.834
			 M53.588,24.811h5.171v-2.407h-5.171V24.811z M48.881,26.443c-0.368,0.327-0.962,0.49-1.783,0.49c-0.677,0-1.26-0.062-1.747-0.187
			s-0.88-0.252-1.177-0.383l-0.481,2.193c0.143,0.071,0.345,0.142,0.606,0.214c0.262,0.071,0.556,0.139,0.883,0.205
			c0.327,0.065,0.665,0.118,1.016,0.16c0.35,0.042,0.686,0.063,1.007,0.063c0.821,0,1.536-0.102,2.149-0.304
			c0.612-0.202,1.12-0.481,1.524-0.838c0.404-0.356,0.707-0.778,0.91-1.265c0.201-0.488,0.303-1.017,0.303-1.587
			c0-1.236-0.414-2.202-1.24-2.898c-0.826-0.695-2.106-1.102-3.842-1.221c0.036-0.297,0.069-0.644,0.098-1.043
			c0.03-0.398,0.057-0.811,0.081-1.239h4.457v-2.229h-6.686c-0.048,0.999-0.113,2.069-0.196,3.21
			c-0.084,1.141-0.19,2.264-0.321,3.369c0.974,0,1.783,0.048,2.425,0.143c0.641,0.095,1.152,0.232,1.533,0.41
			c0.38,0.178,0.648,0.401,0.802,0.669c0.155,0.267,0.232,0.573,0.232,0.918C49.434,25.733,49.25,26.116,48.881,26.443
			 M38.656,25.329c-0.291,0.344-0.645,0.621-1.06,0.829c-0.417,0.208-0.898,0.356-1.445,0.445c-0.547,0.089-1.159,0.14-1.836,0.152
			c0.024,0.38,0.047,0.749,0.071,1.105c0.024,0.357,0.042,0.725,0.054,1.106c1.355-0.012,2.525-0.176,3.512-0.491
			c0.987-0.314,1.798-0.775,2.434-1.381c0.636-0.607,1.105-1.355,1.408-2.247c0.303-0.891,0.455-1.919,0.455-3.084
			c0-1.771-0.389-3.129-1.168-4.074c-0.779-0.945-1.934-1.418-3.468-1.418c-0.748,0-1.388,0.134-1.916,0.401
			c-0.529,0.268-0.966,0.607-1.311,1.017c-0.345,0.41-0.597,0.864-0.758,1.364c-0.16,0.499-0.24,0.986-0.24,1.462
			c0,0.57,0.083,1.093,0.249,1.569c0.167,0.475,0.425,0.882,0.776,1.221c0.35,0.339,0.799,0.6,1.346,0.784
			c0.547,0.185,1.206,0.277,1.979,0.277c0.214,0,0.473-0.027,0.776-0.08c0.303-0.054,0.579-0.14,0.829-0.259
			C39.176,24.55,38.947,24.984,38.656,25.329 M36.499,21.834c-0.315-0.309-0.472-0.784-0.472-1.426c0-0.214,0.032-0.434,0.098-0.66
			c0.065-0.226,0.163-0.434,0.294-0.624c0.13-0.19,0.303-0.345,0.517-0.464c0.214-0.118,0.463-0.178,0.749-0.178
			c0.356,0,0.656,0.08,0.9,0.241c0.244,0.16,0.437,0.38,0.579,0.659c0.143,0.28,0.244,0.607,0.304,0.981
			c0.059,0.374,0.095,0.776,0.107,1.204c0,0.035-0.004,0.077-0.009,0.124c-0.006,0.048-0.009,0.096-0.009,0.143v0.16
			c-0.143,0.096-0.363,0.17-0.66,0.223c-0.297,0.054-0.582,0.081-0.856,0.081C37.328,22.298,36.814,22.143,36.499,21.834"/>
	</g>
</g>
</svg>
