<?xml version="1.0" encoding="utf-8"?>
<!-- Generator: Adobe Illustrator 14.0.0, SVG Export Plug-In . SVG Version: 6.00 Build 43363)  -->
<!DOCTYPE svg PUBLIC "-//W3C//DTD SVG 1.1//EN" "http://www.w3.org/Graphics/SVG/1.1/DTD/svg11.dtd">
<svg version="1.1" id="Layer_1" xmlns="http://www.w3.org/2000/svg" xmlns:xlink="http://www.w3.org/1999/xlink" x="0px" y="0px"
	 width="156.341px" height="54.222px" viewBox="0 0 156.341 54.222" enable-background="new 0 0 156.341 54.222"
	 xml:space="preserve">
<g>
	<path fill="#D6DE23" d="M4.296,0.47c0,0-3.631,0-3.631,3.629v45.639c0,0,0,3.627,3.631,3.627h147.518c0,0,3.629,0,3.629-3.627
		V4.099c0,0,0-3.629-3.629-3.629H4.296z"/>
	<path fill="none" stroke="#231F20" stroke-width="0.75" d="M17.902,0.47c0,0-15.963-0.458-16.871,0.639
		c-1.07,1.294-0.789,50.144,0.543,51.885c0.807,1.053,51.055,0.948,91.252,0.651"/>
	<g>
		<path fill="none" stroke="#231F20" stroke-width="0.75" d="M109.566,53.497c18.15-0.187,44.965-0.423,45.398-0.613
			c1.406-0.616,1.451-51.658-0.637-52.138C152.242,0.266,30.47,0.47,30.47,0.47"/>
	</g>
</g>
</svg>
