<?xml version="1.0" encoding="utf-8"?>
<!-- Generator: Adobe Illustrator 26.0.3, SVG Export Plug-In . SVG Version: 6.00 Build 0)  -->
<svg version="1.1" id="Capa_1" xmlns="http://www.w3.org/2000/svg" xmlns:xlink="http://www.w3.org/1999/xlink" x="0px" y="0px"
	 viewBox="0 0 820 1060" style="enable-background:new 0 0 820 1060;" xml:space="preserve">
<style type="text/css">
	.st0{fill:#E95153;}
	.st1{clip-path:url(#SVGID_00000003076780334976525400000012617678635814430396_);}
	.st2{fill:#FDEEEB;}
	.st3{fill:none;stroke:#FFFFFF;stroke-width:1.28;stroke-miterlimit:10;}
	.st4{fill:none;}
	.st5{clip-path:url(#SVGID_00000142176821809366115910000013649970948800270989_);}
	.st6{fill:none;stroke:#FFFFFF;stroke-width:1.28;stroke-dasharray:3.83,2.55;}
	.st7{clip-path:url(#SVGID_00000164474538759765904030000014591057578955282091_);}
	.st8{fill:#FFFFFF;}
	.st9{clip-path:url(#SVGID_00000082346566328451496310000015759451237263875247_);}
	.st10{clip-path:url(#SVGID_00000049927175378023782860000007824896446251551914_);}
</style>
<rect class="st0" width="820" height="1060"/>
<g>
	<g>
		<g>
			<defs>
				<rect id="SVGID_1_" width="820" height="1060"/>
			</defs>
			<clipPath id="SVGID_00000183251177804118729540000003699923598083980710_">
				<use xlink:href="#SVGID_1_"  style="overflow:visible;"/>
			</clipPath>
			<g style="clip-path:url(#SVGID_00000183251177804118729540000003699923598083980710_);">
				<path class="st2" d="M73.6,71.4c18.1-1.8,362.8,0,399.1,0S742,60,744.8,80.1c6,43.8,6,709.2,6,782.4c0,52.8-2.4,119.2-6,119.2
					s-601.1,23.5-676.1,6c-6-84.2-3.6-397-3.6-560.2C65.2,376.1,64,121,73.6,71.4"/>
			</g>
		</g>
	</g>
</g>
<path class="st3" d="M752.7,1001.7V111.4 M734.7,69.1H567.8 M73.2,86.5v890.3 M76.3,994.1h667.4"/>
<rect class="st4" width="820" height="1060"/>
<rect class="st4" width="820" height="1060"/>
<line class="st3" x1="247.2" y1="69.1" x2="76.3" y2="69.1"/>
<g>
	<g>
		<g>
			<defs>
				<rect id="SVGID_00000092420599389364963730000001311587449905024446_" width="820" height="1060"/>
			</defs>
			<clipPath id="SVGID_00000127756358563147755700000005020779068389402037_">
				<use xlink:href="#SVGID_00000092420599389364963730000001311587449905024446_"  style="overflow:visible;"/>
			</clipPath>
			<g style="clip-path:url(#SVGID_00000127756358563147755700000005020779068389402037_);">
				<line class="st6" x1="0" y1="43.5" x2="820" y2="43.5"/>
			</g>
		</g>
	</g>
</g>
<g>
	<g>
		<g>
			<defs>
				<rect id="SVGID_00000161597181510351493000000012767949057303849648_" width="820" height="1060"/>
			</defs>
			<clipPath id="SVGID_00000010999079418650964860000004649340930702357400_">
				<use xlink:href="#SVGID_00000161597181510351493000000012767949057303849648_"  style="overflow:visible;"/>
			</clipPath>
			<g style="clip-path:url(#SVGID_00000010999079418650964860000004649340930702357400_);">
				<path class="st8" d="M32.4,37.2l1.4,2.3l7.8-1.4c0.1,0,0.1-0.1,0.2-0.1v-0.2c-0.2-0.3-0.4-0.6-0.6-0.8c-0.7-0.7-1.7-1.1-2.7-0.9
					L32.4,37.2z"/>
			</g>
		</g>
	</g>
</g>
<g>
	<g>
		<g>
			<defs>
				<rect id="SVGID_00000183211365187369920840000009544554202050858931_" width="820" height="1060"/>
			</defs>
			<clipPath id="SVGID_00000126291998577142039730000008553239336769353614_">
				<use xlink:href="#SVGID_00000183211365187369920840000009544554202050858931_"  style="overflow:visible;"/>
			</clipPath>
			<g style="clip-path:url(#SVGID_00000126291998577142039730000008553239336769353614_);">
				<path class="st8" d="M23.9,43.2c-0.8,0-1.5-0.5-1.7-1.2v-0.2c0-0.2,0-0.4,0.1-0.5c0.3-0.6,0.9-0.9,1.5-0.9
					c0.8,0,1.5,0.5,1.7,1.2v0.2c0,0.2,0,0.4-0.1,0.5C25.1,42.9,24.5,43.2,23.9,43.2 M26.9,41.8v-0.4c0-0.1-0.1-0.2-0.1-0.4
					s-0.1-0.3-0.2-0.5s-0.1-0.1-0.1-0.2h2.8l-0.6-1c-0.2-0.3-0.3-0.6-0.4-1c-0.3,0.1-0.6,0.3-0.9,0.4c-0.6,0.2-1.2,0.3-1.8,0.3
					c-0.5,0-0.9,0-1.4-0.1h-0.5c-1.2,0-2.2,0.6-2.7,1.7c-0.2,0.4-0.3,0.8-0.2,1.2v0.4c0.3,1.5,1.6,2.5,3.1,2.5
					c1.2,0,2.2-0.6,2.7-1.7C26.8,42.6,26.9,42.2,26.9,41.8"/>
			</g>
		</g>
	</g>
</g>
<g>
	<g>
		<g>
			<defs>
				<rect id="SVGID_00000010281173177909647080000007429087400255390114_" width="820" height="1060"/>
			</defs>
			<clipPath id="SVGID_00000165956980151626108800000007427496663631721106_">
				<use xlink:href="#SVGID_00000010281173177909647080000007429087400255390114_"  style="overflow:visible;"/>
			</clipPath>
			<g style="clip-path:url(#SVGID_00000165956980151626108800000007427496663631721106_);">
				<path class="st8" d="M27.6,32.3c-0.4-0.5-0.5-1.1-0.3-1.7c0.1-0.2,0.2-0.3,0.3-0.4l0.1-0.1c0.7-0.3,1.5-0.1,2,0.5
					c0.4,0.5,0.5,1.1,0.3,1.7c-0.1,0.2-0.2,0.3-0.3,0.4l-0.1,0.1C28.9,33.1,28.1,32.9,27.6,32.3 M30.3,38.5c0.2-0.3,0.6-0.5,0.9-0.3
					s0.5,0.6,0.3,0.9c-0.2,0.3-0.6,0.5-0.9,0.3S30.1,38.8,30.3,38.5 M28.7,36.1c0.2,0.5,0.3,1.1,0.4,1.6c0.1,0.4,0.2,0.8,0.4,1.2
					l2.4,4.1h2.9l-3.3-5.6l-0.5-1c-0.1-0.1-0.4-0.5-1.1-1.3l-0.6-0.6l0,0c0.1,0,0.1,0,0.2-0.1s0.3-0.1,0.5-0.2s0.2-0.1,0.3-0.2
					s0.2-0.1,0.3-0.2c0.3-0.3,0.6-0.6,0.8-1c0.5-1,0.3-2.3-0.5-3.1c-0.9-1.1-2.5-1.5-3.8-0.8C27,29,26.9,29,26.8,29.1
					c-0.3,0.3-0.6,0.6-0.8,1c-0.5,1-0.3,2.3,0.5,3.1l0.3,0.3l0,0l1,1C28.1,35,28.4,35.5,28.7,36.1"/>
			</g>
		</g>
	</g>
</g>
</svg>
