<?xml version="1.0" encoding="utf-8"?>
<!-- Generator: Adobe Illustrator 21.1.0, SVG Export Plug-In . SVG Version: 6.00 Build 0)  -->
<svg version="1.1" id="Capa_1" xmlns="http://www.w3.org/2000/svg" xmlns:xlink="http://www.w3.org/1999/xlink" x="0px" y="0px"
	 viewBox="0 0 238.259 198.655" style="enable-background:new 0 0 238.259 198.655;" xml:space="preserve">
<style type="text/css">
	.st0{clip-path:url(#SVGID_2_);fill:#FFFFFF;}
	.st1{clip-path:url(#SVGID_2_);fill:none;stroke:#9589C0;stroke-width:2.547;stroke-linecap:round;stroke-miterlimit:10;}
	.st2{fill:none;stroke:#9589C0;stroke-width:2.547;stroke-linecap:round;stroke-miterlimit:10;}
	.st3{clip-path:url(#SVGID_4_);fill:none;stroke:#9589C0;stroke-width:2.547;stroke-linecap:round;stroke-miterlimit:10;}
	.st4{clip-path:url(#SVGID_6_);fill:none;stroke:#9589C0;stroke-width:2.547;stroke-linecap:round;stroke-miterlimit:10;}
</style>
<g>
	<defs>
		<rect id="SVGID_1_" width="238.259" height="198.655"/>
	</defs>
	<clipPath id="SVGID_2_">
		<use xlink:href="#SVGID_1_"  style="overflow:visible;"/>
	</clipPath>
	<path class="st0" d="M1.273,87.508c0,60.535,51.59,77.197,129.866,77.197c78.277,0,106.734-20.721,105.825-89.261
		c-0.574-43.274-57.087-63.597-117.846-63.597C58.361,11.848,1.273,38.249,1.273,87.508"/>
	<path class="st1" d="M1.273,87.508c0,60.535,51.59,77.197,129.866,77.197c78.277,0,106.734-20.721,105.825-89.261
		c-0.574-43.274-57.087-63.597-117.846-63.597C58.361,11.848,1.273,38.249,1.273,87.508z"/>
	<line class="st1" x1="39.044" y1="16.802" x2="40.658" y2="2.635"/>
</g>
<line class="st2" x1="24.796" y1="28.352" x2="10.875" y2="25.266"/>
<g>
	<defs>
		<rect id="SVGID_3_" width="238.259" height="198.655"/>
	</defs>
	<clipPath id="SVGID_4_">
		<use xlink:href="#SVGID_3_"  style="overflow:visible;"/>
	</clipPath>
	<line class="st3" x1="31.49" y1="20.376" x2="15.962" y2="1.274"/>
</g>
<line class="st2" x1="187.96" y1="177.394" x2="183.436" y2="190.916"/>
<line class="st2" x1="204.298" y1="169.058" x2="217.273" y2="174.971"/>
<g>
	<defs>
		<rect id="SVGID_5_" width="238.259" height="198.655"/>
	</defs>
	<clipPath id="SVGID_6_">
		<use xlink:href="#SVGID_5_"  style="overflow:visible;"/>
	</clipPath>
	<line class="st4" x1="196.092" y1="175.469" x2="207.308" y2="197.381"/>
</g>
</svg>
