<?xml version="1.0" encoding="utf-8"?>
<!-- Generator: Adobe Illustrator 21.1.0, SVG Export Plug-In . SVG Version: 6.00 Build 0)  -->
<svg version="1.1" id="Capa_1" xmlns="http://www.w3.org/2000/svg" xmlns:xlink="http://www.w3.org/1999/xlink" x="0px" y="0px"
	 viewBox="0 0 46 47.693" style="enable-background:new 0 0 46 47.693;" xml:space="preserve">
<style type="text/css">
	.st0{clip-path:url(#SVGID_2_);}
	.st1{filter:url(#Adobe_OpacityMaskFilter);}
	.st2{clip-path:url(#SVGID_4_);}
	.st3{clip-path:url(#SVGID_4_);mask:url(#SVGID_5_);}
	.st4{opacity:0.25;clip-path:url(#SVGID_9_);fill:#1D1D1B;}
	.st5{clip-path:url(#SVGID_4_);fill:#005CA8;}
	.st6{clip-path:url(#SVGID_4_);fill:none;stroke:#FFFFFF;stroke-width:1.274;}
	.st7{filter:url(#Adobe_OpacityMaskFilter_1_);}
	.st8{clip-path:url(#SVGID_4_);mask:url(#SVGID_10_);}
	.st9{clip-path:url(#SVGID_14_);fill:#FFFFFF;}
	.st10{clip-path:url(#SVGID_4_);fill:none;stroke:#FFFFFF;stroke-width:0.891;stroke-dasharray:2.377,1.486;}
	.st11{clip-path:url(#SVGID_4_);fill:none;stroke:#FFFFFF;stroke-width:0.891;stroke-dasharray:2.541,1.65;}
	.st12{clip-path:url(#SVGID_4_);fill:none;stroke:#FFFFFF;stroke-width:0.891;stroke-dasharray:2.841,1.95;}
	.st13{clip-path:url(#SVGID_4_);fill:none;stroke:#FFFFFF;stroke-width:0.891;}
	.st14{clip-path:url(#SVGID_4_);fill:#FFFFFF;}
</style>
<g>
	<defs>
		<rect id="SVGID_1_" width="46" height="47.693"/>
	</defs>
	<clipPath id="SVGID_2_">
		<use xlink:href="#SVGID_1_"  style="overflow:visible;"/>
	</clipPath>
	<g class="st0">
		<defs>
			<rect id="SVGID_3_" y="0" width="46" height="47.693"/>
		</defs>
		<clipPath id="SVGID_4_">
			<use xlink:href="#SVGID_3_"  style="overflow:visible;"/>
		</clipPath>
		<defs>
			<filter id="Adobe_OpacityMaskFilter" filterUnits="userSpaceOnUse" x="-0.535" y="-0.455" width="43.2" height="43.2">
				<feColorMatrix  type="matrix" values="1 0 0 0 0  0 1 0 0 0  0 0 1 0 0  0 0 0 1 0"/>
			</filter>
		</defs>
		<mask maskUnits="userSpaceOnUse" x="-0.535" y="-0.455" width="43.2" height="43.2" id="SVGID_5_">
			<g class="st1">
				<g>
					<defs>
						<rect id="SVGID_6_" x="-10.135" y="-8.135" width="63.36" height="53.76"/>
					</defs>
					<clipPath id="SVGID_7_" class="st2">
						<use xlink:href="#SVGID_6_"  style="overflow:visible;"/>
					</clipPath>
					<g style="clip-path:url(#SVGID_7_);">
						
							<image style="overflow:visible;" width="132" height="112" xlink:href="75194204DDF003D2.jpg"  transform="matrix(0.48 0 0 0.48 -10.135 -8.1349)">
						</image>
					</g>
				</g>
			</g>
		</mask>
		<g class="st3">
			<g>
				<defs>
					<rect id="SVGID_8_" x="-0.535" y="-0.455" width="43.2" height="43.2"/>
				</defs>
				<clipPath id="SVGID_9_">
					<use xlink:href="#SVGID_8_"  style="overflow:visible;"/>
				</clipPath>
				<rect x="-0.535" y="-0.455" class="st4" width="43.2" height="43.2"/>
			</g>
		</g>
		<path class="st5" d="M19.589,38.542c10.467,0,18.952-8.485,18.952-18.952c0-10.468-8.485-18.953-18.952-18.953
			S0.637,9.122,0.637,19.59C0.637,30.057,9.122,38.542,19.589,38.542"/>
		<circle class="st6" cx="19.589" cy="19.589" r="18.952"/>
		<defs>
			<filter id="Adobe_OpacityMaskFilter_1_" filterUnits="userSpaceOnUse" x="16.272" y="23.59" width="22.8" height="21.36">
				<feColorMatrix  type="matrix" values="1 0 0 0 0  0 1 0 0 0  0 0 1 0 0  0 0 0 1 0"/>
			</filter>
		</defs>
		<mask maskUnits="userSpaceOnUse" x="16.272" y="23.59" width="22.8" height="21.36" id="SVGID_10_">
			<g class="st7">
				<g>
					<defs>
						<rect id="SVGID_11_" x="-8.928" y="-1.611" width="73.44" height="72"/>
					</defs>
					<clipPath id="SVGID_12_" class="st2">
						<use xlink:href="#SVGID_11_"  style="overflow:visible;"/>
					</clipPath>
					<g style="clip-path:url(#SVGID_12_);">
						
							<image style="overflow:visible;" width="306" height="300" xlink:href="75194204DDF003D6.jpg"  transform="matrix(0.24 0 0 0.24 -8.9276 -1.6105)">
						</image>
					</g>
				</g>
			</g>
		</mask>
		<g class="st8">
			<g>
				<defs>
					<rect id="SVGID_13_" x="16.272" y="23.59" width="22.8" height="21.36"/>
				</defs>
				<clipPath id="SVGID_14_">
					<use xlink:href="#SVGID_13_"  style="overflow:visible;"/>
				</clipPath>
				<rect x="16.272" y="23.59" class="st9" width="22.8" height="21.36"/>
			</g>
		</g>
		<path class="st5" d="M27.016,31.57l2.628,0.276l3.395-6.96c0.031-0.063,0.029-0.138-0.005-0.2
			c-0.036-0.063-0.099-0.104-0.169-0.111c-0.326-0.031-0.643-0.031-0.943,0c-1.087,0.111-1.917,0.866-2.258,1.565L27.016,31.57z"/>
		<path class="st5" d="M26.842,41.744c-0.478,0.655-1.311,0.918-1.938,0.613c-0.051-0.025-0.102-0.055-0.15-0.087
			c-0.15-0.104-0.271-0.237-0.36-0.398c-0.272-0.491-0.202-1.146,0.18-1.668c0.478-0.655,1.311-0.918,1.938-0.613
			c0.051,0.025,0.102,0.054,0.15,0.087c0.15,0.104,0.271,0.237,0.36,0.398C27.294,40.566,27.223,41.221,26.842,41.744
			 M27.447,38.581c-0.11-0.075-0.226-0.143-0.345-0.201c-0.109-0.053-0.226-0.1-0.346-0.14c-0.145-0.057-0.314-0.096-0.463-0.131
			c-0.058-0.013-0.131-0.03-0.188-0.046c0.006-0.013,0.013-0.028,0.023-0.045c0.159-0.213,0.329-0.438,0.495-0.657
			c0.664-0.879,0.939-1.247,0.993-1.357l0.079-0.163l-1.104-0.116c-0.366-0.038-0.684-0.139-0.996-0.262
			c-0.051,0.277-0.12,0.584-0.225,0.941c-0.13,0.442-0.403,0.984-0.81,1.611c-0.036,0.052-0.374,0.531-0.86,1.015l-0.001,0.001
			c-0.001,0.001-0.002,0.002-0.003,0.003c-0.107,0.109-0.207,0.226-0.297,0.349c-0.675,0.925-0.771,2.138-0.244,3.09
			c0.199,0.359,0.473,0.66,0.814,0.894c0.11,0.075,0.226,0.143,0.345,0.201c1.249,0.609,2.841,0.178,3.703-1.003
			c0.675-0.926,0.771-2.139,0.244-3.09C28.062,39.116,27.788,38.815,27.447,38.581"/>
		<path class="st5" d="M20.243,29.841c0.646-0.046,1.239,0.241,1.511,0.732c0.089,0.16,0.138,0.334,0.145,0.516
			c0.003,0.058,0.001,0.116-0.005,0.173c-0.073,0.694-0.737,1.26-1.546,1.319c-0.646,0.046-1.238-0.241-1.511-0.732
			c-0.089-0.16-0.138-0.334-0.145-0.516c-0.003-0.058-0.001-0.116,0.005-0.173C18.77,30.467,19.435,29.9,20.243,29.841
			 M28.002,33.299c0.183,0.331,0.064,0.748-0.267,0.931c-0.331,0.184-0.748,0.064-0.931-0.267c-0.184-0.33-0.064-0.747,0.267-0.931
			C27.402,32.849,27.818,32.968,28.002,33.299 M34.962,34.514l0.135,0.014c0.353,0.037,0.884-0.083,1.276-0.436
			c0.136-0.123,0.346-0.112,0.469,0.024c0.017,0.02,0.032,0.04,0.044,0.062c0.073,0.132,0.049,0.302-0.069,0.408
			c-0.58,0.523-1.327,0.652-1.79,0.603l-0.135-0.014c-0.112-0.012-0.205-0.078-0.256-0.17c-0.032-0.057-0.047-0.125-0.039-0.195
			C34.616,34.627,34.779,34.495,34.962,34.514 M17.357,31.019c-0.014,0.132-0.018,0.266-0.012,0.399
			c0.017,0.413,0.127,0.804,0.326,1.164c0.528,0.951,1.607,1.513,2.751,1.43c0.15-0.011,0.304-0.033,0.455-0.067
			c0.001,0,0.002-0.001,0.003-0.001c0.669-0.156,1.254-0.189,1.318-0.192c0.746-0.013,1.35,0.044,1.794,0.168
			c0.643,0.179,1.092,0.374,1.488,0.546c0.431,0.187,0.772,0.335,1.177,0.377l8.315,0.874c0.773,0.081,1.854-0.222,2.524-1.084
			c0.185-0.238,0.353-0.508,0.5-0.8c0.031-0.064,0.03-0.139-0.004-0.202c-0.035-0.062-0.097-0.104-0.168-0.111L26.58,32.338
			l-1.059-0.111c-0.121-0.013-0.58,0.025-1.677,0.123c-0.273,0.024-0.554,0.049-0.819,0.071c-0.02-0.001-0.036-0.002-0.05-0.004
			c0.016-0.057,0.041-0.127,0.06-0.183c0.05-0.145,0.106-0.309,0.134-0.463c0.03-0.122,0.052-0.246,0.065-0.368
			c0.014-0.132,0.018-0.266,0.012-0.399c-0.017-0.413-0.127-0.804-0.326-1.163c-0.528-0.952-1.607-1.513-2.751-1.431
			C18.711,28.515,17.502,29.637,17.357,31.019"/>
		<path class="st10" d="M35.591,20.125c0.078-2.285-0.332-4.608-1.274-6.81"/>
		<path class="st11" d="M31.773,9.205c-4.467-5.251-11.887-7.071-18.307-4.402"/>
		<path class="st11" d="M9.205,7.41c-5.251,4.467-7.071,11.887-4.402,18.307"/>
		<path class="st12" d="M7.707,30.318c1.968,2.185,4.462,3.736,7.171,4.57"/>
		<path class="st13" d="M15.819,35.147c0.46,0.111,0.925,0.203,1.394,0.273 M5.139,26.471c0.181,0.379,0.378,0.754,0.592,1.124
			c0.239,0.414,0.494,0.813,0.763,1.198 M12.712,5.139c-0.379,0.181-0.754,0.378-1.123,0.592c-0.37,0.213-0.729,0.439-1.075,0.677
			 M34.009,12.639c-0.171-0.354-0.357-0.704-0.556-1.05c-0.214-0.37-0.44-0.728-0.678-1.074 M35.278,22.778
			c0.079-0.388,0.144-0.779,0.194-1.173"/>
		<path class="st14" d="M25.96,22.212c-0.368,0.327-0.962,0.49-1.783,0.49c-0.677,0-1.26-0.062-1.747-0.187s-0.88-0.252-1.177-0.383
			l-0.481,2.193c0.143,0.071,0.345,0.142,0.606,0.214c0.262,0.071,0.556,0.139,0.883,0.205c0.327,0.065,0.665,0.118,1.016,0.16
			c0.35,0.042,0.686,0.063,1.007,0.063c0.821,0,1.536-0.102,2.149-0.304c0.612-0.202,1.12-0.481,1.524-0.838
			c0.404-0.356,0.707-0.778,0.91-1.265c0.201-0.488,0.303-1.017,0.303-1.587c0-1.236-0.414-2.202-1.24-2.898
			c-0.826-0.695-2.106-1.102-3.842-1.221c0.036-0.297,0.069-0.644,0.098-1.043c0.03-0.398,0.057-0.811,0.081-1.239h4.457v-2.229
			h-6.686c-0.048,0.999-0.113,2.069-0.196,3.21c-0.084,1.141-0.19,2.264-0.321,3.369c0.974,0,1.783,0.048,2.425,0.143
			c0.641,0.095,1.152,0.232,1.533,0.41c0.38,0.178,0.648,0.401,0.802,0.669c0.155,0.267,0.232,0.573,0.232,0.918
			C26.513,21.502,26.329,21.885,25.96,22.212 M15.735,21.098c-0.291,0.344-0.645,0.621-1.06,0.829
			c-0.417,0.208-0.898,0.356-1.445,0.445c-0.547,0.089-1.159,0.14-1.836,0.152c0.024,0.38,0.047,0.749,0.071,1.105
			c0.024,0.357,0.042,0.725,0.054,1.106c1.355-0.012,2.525-0.176,3.512-0.491c0.987-0.314,1.798-0.775,2.434-1.381
			c0.636-0.607,1.105-1.355,1.408-2.247c0.303-0.891,0.455-1.919,0.455-3.084c0-1.771-0.389-3.129-1.168-4.074
			c-0.779-0.945-1.934-1.418-3.468-1.418c-0.748,0-1.388,0.134-1.916,0.401c-0.529,0.268-0.966,0.607-1.311,1.017
			c-0.345,0.41-0.597,0.864-0.758,1.364c-0.16,0.499-0.24,0.986-0.24,1.462c0,0.57,0.083,1.093,0.249,1.569
			c0.167,0.475,0.425,0.882,0.776,1.221c0.35,0.339,0.799,0.6,1.346,0.784c0.547,0.185,1.206,0.277,1.979,0.277
			c0.214,0,0.473-0.027,0.776-0.08c0.303-0.054,0.579-0.14,0.829-0.259C16.255,20.319,16.026,20.753,15.735,21.098 M13.578,17.603
			c-0.315-0.309-0.472-0.784-0.472-1.426c0-0.214,0.032-0.434,0.098-0.66c0.065-0.226,0.163-0.434,0.294-0.624
			c0.13-0.19,0.303-0.345,0.517-0.464c0.214-0.118,0.463-0.178,0.749-0.178c0.356,0,0.656,0.08,0.9,0.241
			c0.244,0.16,0.437,0.38,0.579,0.659c0.143,0.28,0.244,0.607,0.304,0.981c0.059,0.375,0.095,0.776,0.107,1.204
			c0,0.035-0.004,0.077-0.009,0.124c-0.006,0.048-0.009,0.096-0.009,0.143v0.16c-0.143,0.096-0.363,0.17-0.66,0.223
			c-0.297,0.054-0.582,0.081-0.856,0.081C14.407,18.067,13.893,17.912,13.578,17.603"/>
	</g>
</g>
</svg>
