<?xml version="1.0" encoding="utf-8"?>
<!-- Generator: Adobe Illustrator 21.1.0, SVG Export Plug-In . SVG Version: 6.00 Build 0)  -->
<svg version="1.1" id="Capa_1" xmlns="http://www.w3.org/2000/svg" xmlns:xlink="http://www.w3.org/1999/xlink" x="0px" y="0px"
	 viewBox="0 0 651.111 548.692" style="enable-background:new 0 0 651.111 548.692;" xml:space="preserve">
<style type="text/css">
	.st0{filter:url(#Adobe_OpacityMaskFilter);}
	.st1{clip-path:url(#SVGID_2_);}
	.st2{clip-path:url(#SVGID_2_);mask:url(#SVGID_3_);}
	.st3{clip-path:url(#SVGID_7_);fill:#D9D9D9;}
	.st4{clip-path:url(#SVGID_2_);fill:#FFFFFF;}
	.st5{clip-path:url(#SVGID_2_);fill:none;stroke:#1D1D1B;stroke-width:1.273;stroke-linecap:round;}
	.st6{clip-path:url(#SVGID_9_);fill:#D4EBF5;}
	.st7{clip-path:url(#SVGID_11_);fill:none;stroke:#1D1D1B;stroke-width:1.273;stroke-linecap:round;}
	.st8{clip-path:url(#SVGID_11_);fill:#FFFFFF;}
</style>
<g>
	<defs>
		<rect id="SVGID_1_" width="651.111" height="548.692"/>
	</defs>
	<clipPath id="SVGID_2_">
		<use xlink:href="#SVGID_1_"  style="overflow:visible;"/>
	</clipPath>
	<defs>
		<filter id="Adobe_OpacityMaskFilter" filterUnits="userSpaceOnUse" x="-11.641" y="-9.054" width="675.507" height="558.783">
			<feColorMatrix  type="matrix" values="1 0 0 0 0  0 1 0 0 0  0 0 1 0 0  0 0 0 1 0"/>
		</filter>
	</defs>
	<mask maskUnits="userSpaceOnUse" x="-11.641" y="-9.054" width="675.507" height="558.783" id="SVGID_3_">
		<g class="st0">
			<g>
				<defs>
					<rect id="SVGID_4_" x="-11.641" y="-9.054" width="675.507" height="558.783"/>
				</defs>
				<clipPath id="SVGID_5_" class="st1">
					<use xlink:href="#SVGID_4_"  style="overflow:visible;"/>
				</clipPath>
				<g style="clip-path:url(#SVGID_5_);">
					
						<image style="overflow:visible;" width="1088" height="900" xlink:href="11781E3398FEFE60.jpg"  transform="matrix(0.6209 0 0 0.6209 -11.6413 -9.0542)">
					</image>
				</g>
			</g>
		</g>
	</mask>
	<g class="st2">
		<g>
			<defs>
				<rect id="SVGID_6_" x="-11.641" y="-9.054" width="675.507" height="558.783"/>
			</defs>
			<clipPath id="SVGID_7_">
				<use xlink:href="#SVGID_6_"  style="overflow:visible;"/>
			</clipPath>
			<path class="st3" d="M325.556,548.692c179.799,0,325.556-122.829,325.556-274.346S505.354,0,325.556,0S0,122.829,0,274.346
				S145.757,548.692,325.556,548.692"/>
		</g>
	</g>
	<path class="st4" d="M325.556,535.421c171.102,0,309.807-116.887,309.807-261.074c0-144.188-138.705-261.075-309.807-261.075
		S15.749,130.159,15.749,274.347C15.749,418.534,154.454,535.421,325.556,535.421"/>
	<ellipse class="st5" cx="325.556" cy="274.347" rx="309.807" ry="261.074"/>
</g>
<g>
	<defs>
		<path id="SVGID_8_" d="M92.758,207.715c0,65.688,68.604,118.938,153.231,118.938c84.628,0,153.232-53.25,153.232-118.938
			S330.617,88.777,245.989,88.777C161.362,88.777,92.758,142.027,92.758,207.715"/>
	</defs>
	<clipPath id="SVGID_9_">
		<use xlink:href="#SVGID_8_"  style="overflow:visible;"/>
	</clipPath>
	<path class="st6" d="M326.533,308.893c43.618-20.965,72.688-58.429,72.688-101.178c0-42.748-29.07-80.213-72.688-101.178
		c-43.618,20.965-72.688,58.43-72.688,101.178C253.845,250.464,282.915,287.928,326.533,308.893"/>
</g>
<g>
	<defs>
		<rect id="SVGID_10_" width="651.111" height="548.692"/>
	</defs>
	<clipPath id="SVGID_11_">
		<use xlink:href="#SVGID_10_"  style="overflow:visible;"/>
	</clipPath>
	<ellipse class="st7" cx="245.989" cy="207.715" rx="153.232" ry="118.938"/>
	<ellipse class="st7" cx="407.077" cy="207.715" rx="153.232" ry="118.938"/>
	<path class="st8" d="M132.037,366.972c-0.001,0.21-0.022,0.417-0.022,0.627c0,75.739,86.333,137.138,192.83,137.138
		s192.83-61.399,192.83-137.138c0-0.21-0.021-0.417-0.023-0.627H132.037z"/>
	<path class="st7" d="M132.037,366.972c-0.001,0.21-0.022,0.417-0.022,0.627c0,75.739,86.333,137.138,192.83,137.138
		s192.83-61.399,192.83-137.138c0-0.21-0.021-0.417-0.023-0.627H132.037z"/>
</g>
</svg>
