<?xml version="1.0" encoding="utf-8"?>
<!-- Generator: Adobe Illustrator 21.1.0, SVG Export Plug-In . SVG Version: 6.00 Build 0)  -->
<svg version="1.1" id="Capa_1" xmlns="http://www.w3.org/2000/svg" xmlns:xlink="http://www.w3.org/1999/xlink" x="0px" y="0px"
	 viewBox="0 0 53 36.044" style="enable-background:new 0 0 53 36.044;" xml:space="preserve">
<style type="text/css">
	.st0{clip-path:url(#SVGID_2_);}
	.st1{clip-path:url(#SVGID_4_);fill:#005CA8;}
	.st2{filter:url(#Adobe_OpacityMaskFilter);}
	.st3{clip-path:url(#SVGID_4_);}
	.st4{clip-path:url(#SVGID_4_);mask:url(#SVGID_5_);}
	.st5{opacity:0.2;clip-path:url(#SVGID_9_);fill:#1D1D1B;}
	.st6{clip-path:url(#SVGID_2_);fill:#FFFFFF;}
	.st7{clip-path:url(#SVGID_11_);fill:none;stroke:#005CA8;stroke-width:1.777;stroke-linecap:round;}
	.st8{clip-path:url(#SVGID_2_);fill:none;stroke:#005CA8;stroke-width:1.185;stroke-linecap:round;}
	.st9{clip-path:url(#SVGID_13_);fill:#005CA8;}
	.st10{clip-path:url(#SVGID_15_);fill:#FFFFFF;}
</style>
<g>
	<defs>
		<rect id="SVGID_1_" width="53" height="36.044"/>
	</defs>
	<clipPath id="SVGID_2_">
		<use xlink:href="#SVGID_1_"  style="overflow:visible;"/>
	</clipPath>
	<g class="st0">
		<defs>
			<rect id="SVGID_3_" y="0" width="53" height="36.044"/>
		</defs>
		<clipPath id="SVGID_4_">
			<use xlink:href="#SVGID_3_"  style="overflow:visible;"/>
		</clipPath>
		<path class="st1" d="M25.187,12.888c0,0-1.805,0-1.805,1.805v14.4c0,0,0,1.805,1.805,1.805h25.906c0,0,1.805,0,1.805-1.805v-14.4
			c0,0,0-1.805-1.805-1.805H25.187z"/>
		<defs>
			<filter id="Adobe_OpacityMaskFilter" filterUnits="userSpaceOnUse" x="3.328" y="0.062" width="25.92" height="33.36">
				<feColorMatrix  type="matrix" values="1 0 0 0 0  0 1 0 0 0  0 0 1 0 0  0 0 0 1 0"/>
			</filter>
		</defs>
		<mask maskUnits="userSpaceOnUse" x="3.328" y="0.062" width="25.92" height="33.36" id="SVGID_5_">
			<g class="st2">
				<g>
					<defs>
						<rect id="SVGID_6_" x="-5.552" y="-6.897" width="44.16" height="41.28"/>
					</defs>
					<clipPath id="SVGID_7_" class="st3">
						<use xlink:href="#SVGID_6_"  style="overflow:visible;"/>
					</clipPath>
					<g transform="matrix(1 0 0 1 0 0)" style="clip-path:url(#SVGID_7_);">
						
							<image style="overflow:visible;" width="184" height="172" xlink:href="F2389809086CA449.jpg"  transform="matrix(0.24 0 0 0.24 -5.5518 -6.8973)">
						</image>
					</g>
				</g>
			</g>
		</mask>
		<g class="st4">
			<g>
				<defs>
					<rect id="SVGID_8_" x="3.328" y="0.063" width="25.92" height="33.36"/>
				</defs>
				<clipPath id="SVGID_9_">
					<use xlink:href="#SVGID_8_"  style="overflow:visible;"/>
				</clipPath>
				<rect x="3.328" y="0.062" class="st5" width="25.92" height="33.36"/>
			</g>
		</g>
	</g>
	<rect x="1.436" y="2.114" class="st6" width="25.603" height="33.131"/>
	<g class="st0">
		<defs>
			<rect id="SVGID_10_" y="0" width="53" height="36.044"/>
		</defs>
		<clipPath id="SVGID_11_">
			<use xlink:href="#SVGID_10_"  style="overflow:visible;"/>
		</clipPath>
		<path class="st7" d="M0.892,2.322v29.776c0,0,0.45,3.058,1.609,3.058H27.92c-1.223,0-1.609-3.057-1.609-3.057V2.322H0.892z"/>
	</g>
	<rect x="4.595" y="12.064" class="st8" width="7.776" height="7.695"/>
	<g class="st0">
		<defs>
			<rect id="SVGID_12_" y="0" width="53" height="36.044"/>
		</defs>
		<clipPath id="SVGID_13_">
			<use xlink:href="#SVGID_12_"  style="overflow:visible;"/>
		</clipPath>
		<path class="st9" d="M21.525,7.419l0.463-1.552l0.469,1.552H21.525z M22.925,9.005h0.836l-1.312-3.957h-0.883L20.27,9.005h0.794
			l0.275-0.93h1.308L22.925,9.005z M20.451,5.048h-2.883v0.689h1.053v3.268h0.775V5.737h1.055V5.048z M14.896,7.969l-0.342,0.548
			c0.376,0.324,0.845,0.544,1.393,0.544c0.745,0,1.344-0.399,1.344-1.215c0-1.436-1.866-0.919-1.866-1.709
			c0-0.29,0.249-0.458,0.587-0.458c0.285,0,0.62,0.118,0.891,0.309l0.335-0.532c-0.343-0.287-0.811-0.464-1.277-0.464
			c-0.715,0-1.299,0.414-1.299,1.203c0,1.397,1.849,0.917,1.849,1.709c0,0.299-0.26,0.452-0.606,0.452
			C15.562,8.356,15.206,8.206,14.896,7.969 M13.221,9.005h0.777V5.048h-0.777V9.005z M10.389,5.048h-0.83l1.265,3.957h0.668
			l1.27-3.957h-0.789l-0.795,2.74L10.389,5.048z M6.891,9.005h2.414V8.319H7.659V7.352h1.395V6.668H7.659V5.734h1.606V5.048H6.891
			V9.005z M4.306,6.883V5.727h0.495c0.386,0,0.635,0.197,0.635,0.581c0,0.369-0.227,0.575-0.635,0.575H4.306z M3.543,9.005h0.763
			V7.564h0.425l0.751,1.441h0.9L5.501,7.443c0.446-0.195,0.71-0.613,0.71-1.146c0-0.729-0.496-1.249-1.333-1.249H3.543V9.005z"/>
	</g>
	<line class="st8" x1="14.676" y1="13.354" x2="22.694" y2="13.354"/>
	<line class="st8" x1="14.676" y1="16.486" x2="22.694" y2="16.486"/>
	<line class="st8" x1="14.676" y1="19.759" x2="22.694" y2="19.759"/>
	<line class="st8" x1="4.263" y1="24.17" x2="23.572" y2="24.17"/>
	<line class="st8" x1="4.263" y1="27.301" x2="23.572" y2="27.301"/>
	<line class="st8" x1="4.263" y1="30.575" x2="23.572" y2="30.575"/>
	<g class="st0">
		<defs>
			<rect id="SVGID_14_" y="0" width="53" height="36.044"/>
		</defs>
		<clipPath id="SVGID_15_">
			<use xlink:href="#SVGID_14_"  style="overflow:visible;"/>
		</clipPath>
		<path class="st10" d="M45.673,15.644c-0.535,0.534-1.07,1.135-1.605,1.8c-0.535,0.666-1.043,1.346-1.524,2.042
			c-0.482,0.695-0.918,1.372-1.311,2.032c-0.392,0.66-0.719,1.251-0.98,1.774v1.943h5.33v2.764h2.603v-2.764h1.32V23.06h-1.32
			v-7.416H45.673z M45.583,23.06h-2.799c0.357-0.749,0.797-1.48,1.32-2.193s1.016-1.373,1.479-1.979V23.06z M36.045,19.934
			c-0.202,0.308-0.493,0.58-0.873,0.817c-0.678-0.237-1.156-0.521-1.435-0.853c-0.28-0.332-0.419-0.687-0.419-1.067
			c0-0.142,0.029-0.29,0.089-0.444c0.059-0.154,0.151-0.299,0.276-0.436c0.125-0.136,0.282-0.246,0.473-0.329
			c0.19-0.083,0.415-0.124,0.677-0.124c0.273,0,0.505,0.044,0.695,0.133c0.19,0.089,0.348,0.199,0.473,0.329s0.214,0.27,0.267,0.418
			c0.054,0.148,0.08,0.287,0.08,0.418C36.348,19.246,36.247,19.625,36.045,19.934 M33.389,23.464
			c0.226-0.334,0.505-0.626,0.838-0.876c0.332,0.107,0.644,0.223,0.936,0.348c0.291,0.126,0.544,0.268,0.758,0.429
			c0.213,0.161,0.383,0.349,0.508,0.563c0.124,0.215,0.187,0.459,0.187,0.733c0,0.369-0.143,0.703-0.428,1.001
			s-0.737,0.447-1.355,0.447c-0.321,0-0.594-0.048-0.82-0.143c-0.226-0.095-0.41-0.215-0.553-0.357
			c-0.142-0.143-0.247-0.301-0.312-0.474c-0.065-0.173-0.098-0.331-0.098-0.474C33.05,24.196,33.163,23.797,33.389,23.464
			 M38.782,22.866c-0.291-0.482-0.776-0.943-1.453-1.384c0.452-0.284,0.829-0.673,1.132-1.166c0.303-0.492,0.455-1.023,0.455-1.593
			c0-0.392-0.075-0.786-0.223-1.184c-0.149-0.397-0.39-0.756-0.722-1.077c-0.333-0.32-0.758-0.584-1.275-0.792
			c-0.517-0.208-1.138-0.312-1.863-0.312c-0.618,0-1.18,0.098-1.685,0.294c-0.505,0.196-0.936,0.457-1.292,0.784
			c-0.357,0.326-0.633,0.709-0.829,1.148c-0.196,0.439-0.295,0.896-0.295,1.371c0,0.629,0.122,1.145,0.366,1.548
			c0.243,0.404,0.621,0.814,1.132,1.229c-0.238,0.179-0.461,0.369-0.669,0.571c-0.208,0.203-0.395,0.426-0.561,0.67
			c-0.167,0.244-0.297,0.514-0.392,0.812c-0.096,0.298-0.143,0.625-0.143,0.982c0,0.345,0.071,0.723,0.214,1.133
			c0.143,0.411,0.383,0.789,0.722,1.134c0.339,0.346,0.784,0.634,1.337,0.866c0.553,0.232,1.245,0.348,2.077,0.348
			c0.725,0,1.364-0.092,1.917-0.276c0.552-0.185,1.013-0.444,1.381-0.777c0.369-0.333,0.645-0.723,0.829-1.169
			c0.185-0.446,0.277-0.938,0.277-1.473C39.219,23.91,39.073,23.348,38.782,22.866"/>
	</g>
</g>
</svg>
