<?xml version="1.0" encoding="utf-8"?>
<!-- Generator: Adobe Illustrator 23.0.3, SVG Export Plug-In . SVG Version: 6.00 Build 0)  -->
<svg version="1.1" id="Layer_1" xmlns="http://www.w3.org/2000/svg" xmlns:xlink="http://www.w3.org/1999/xlink" x="0px" y="0px"
	 viewBox="0 0 45.3 14.6" style="enable-background:new 0 0 45.3 14.6;" xml:space="preserve">
<style type="text/css">
	.st0{fill:#FFFFFF;}
</style>
<path class="st0" d="M1.5,5.9c4.8,5.2,13.8,6.1,20.5,5.5c6.8-0.6,11.9-3.9,17.7-7.1c0.3-0.1,0.4,0.2,0.3,0.4
	c-3.9,6.7-13.2,8.7-20.3,8.6C14.3,13.2,3.2,12.4,1.3,6C1.3,5.9,1.4,5.8,1.5,5.9"/>
<path class="st0" d="M31.8,3.3c1.9,0.1,3.6,0.2,5.5-0.3c1.8-0.5,3.5-1.1,5.2-1.6C43.2,1.2,44,2,43.6,2.7c-0.4,0.9-0.9,1.7-1.4,2.6
	c-0.7,1.2-1.7,2.4-1.9,3.8C40.1,12,36,9.3,38.1,7.9c1.8-1.2,2.7-4.1,3.7-5.9c0.4,0.4,0.7,0.9,1.1,1.3c-2.8,0.8-9,3.3-11.1,0.1
	C31.7,3.4,31.7,3.3,31.8,3.3"/>
</svg>
