<svg id="Capa_1" data-name="Capa 1" xmlns="http://www.w3.org/2000/svg" viewBox="0 0 24.27 13.44"><defs><style>.cls-1{fill:#fff;}.cls-2{fill:none;stroke:#f39200;stroke-linecap:round;stroke-width:0.75px;}.cls-3{font-size:10px;fill:#f39200;font-family:Ubuntu-Bold, Ubuntu;font-weight:700;}</style></defs><path class="cls-1" d="M3.21.38H21.06a2.84,2.84,0,0,1,2.84,2.84v7a2.83,2.83,0,0,1-2.83,2.83H3.21A2.84,2.84,0,0,1,.37,10.23v-7A2.84,2.84,0,0,1,3.21.38Z"/><path class="cls-2" d="M3.21.38H21.06a2.84,2.84,0,0,1,2.84,2.84v7a2.83,2.83,0,0,1-2.83,2.83H3.21A2.84,2.84,0,0,1,.37,10.23v-7A2.84,2.84,0,0,1,3.21.38Z"/><polyline class="cls-2" points="10.66 13.06 13.23 6.72 10.66 0.38"/><text class="cls-3" transform="translate(2.84 10.33)">G</text><text class="cls-3" transform="translate(16.09 10.33)">I</text></svg>