<svg id="Capa_1" data-name="Capa 1" xmlns="http://www.w3.org/2000/svg" xmlns:xlink="http://www.w3.org/1999/xlink" viewBox="0 0 190 35"><defs><style>.cls-1{fill:none;}.cls-2{clip-path:url(#clip-path);}.cls-3{fill:#ffeb92;}.cls-4{fill:#f39200;}</style><clipPath id="clip-path"><rect class="cls-1" x="-0.03" y="0.28" width="211.54" height="411.99"/></clipPath></defs><g class="cls-2"><path class="cls-3" d="M6.09,2.77c-.19,0-.31.26-.26.57C6.55,8.44,8.72,15.11,8.47,16,8.26,16.78.78,27.55,1,28.45a1.11,1.11,0,0,0,.93.83C14.83,32.92,28.43,33,42,33c18.25,0,102.55.57,120.8.61,5.74,0,17.07-.38,19.21-1.5a.75.75,0,0,0,.25-.67c-.45-3.09-3.08-11.36-3.08-11.36S187,9.14,187,8.36c-.07-1.07-.49-1.14-.89-1.2-33.71-5.07-138.68,0-172.62-3.8,0,0-5.1-.64-7.36-.59"/><path class="cls-4" d="M6.54.29c-.19,0-.31.26-.27.57C7,6,9.17,12.63,8.91,13.55,8.71,14.3,1.22,25.07,1.46,26a1.14,1.14,0,0,0,.94.83c12.87,3.64,26.48,3.68,40,3.71,18.26,0,102.55.57,120.81.61,5.74,0,17.07-.38,19.21-1.5a.72.72,0,0,0,.24-.67,116.5,116.5,0,0,0-3.08-11.36s7.85-10.93,7.8-11.71c-.07-1.06-.49-1.14-.9-1.2C152.81-.39,47.83,4.73,13.9.88c0,0-5.11-.64-7.36-.59"/></g></svg>