<svg id="Capa_1" data-name="Capa 1" xmlns="http://www.w3.org/2000/svg" xmlns:xlink="http://www.w3.org/1999/xlink" viewBox="0 0 203 44"><defs><style>.cls-1{fill:none;}.cls-2{clip-path:url(#clip-path);}.cls-3{fill:#ffeb92;}.cls-4{fill:#009dc5;}</style><clipPath id="clip-path"><rect class="cls-1" x="-0.03" y="-124.72" width="211.54" height="411.99"/></clipPath></defs><g class="cls-2"><path class="cls-3" d="M5.53,4.21c-.19,0-.31.28-.27.61.59,5.42,2.55,12.47,2.29,13.47C7.33,19.08-.24,37.52,0,38.47a1.08,1.08,0,0,0,.89.87c12.39,3.59,25.58,3.34,38.71,3.09,17.68-.34,99.33-1.59,117-1.93,5.56-.11,16.55-.78,18.64-2,.17-.1,20.9-.74,20.87-1-.36-3.27-2.65-18.83-2.65-18.83S201.28,6.83,201.24,6c0-1.13-.45-1.2-.84-1.26C167.86.06,45.44,8.05,12.65,4.68a66.16,66.16,0,0,0-7.12-.47"/><path class="cls-4" d="M6,1.56c-.18,0-.3.28-.27.61C6.34,7.59,8.29,14.64,8,15.64,7.82,16.43.24,34.87.46,35.82a1.08,1.08,0,0,0,.89.87c12.39,3.59,25.57,3.34,38.7,3.09,17.68-.35,99.34-1.59,117-1.93,5.56-.11,37.16-1.07,39.25-2.31a.85.85,0,0,0,.26-.72c-.37-3.27-2.65-18.83-2.65-18.83s7.83-11.81,7.8-12.64c0-1.13-.45-1.2-.84-1.26C168.35-2.59,45.92,5.4,13.13,2A66,66,0,0,0,6,1.56"/></g></svg>