<svg id="Capa_1" data-name="Capa 1" xmlns="http://www.w3.org/2000/svg" xmlns:xlink="http://www.w3.org/1999/xlink" viewBox="0 0 124 39"><defs><style>.cls-1{fill:none;}.cls-2{clip-path:url(#clip-path);}.cls-3{fill:#ffeb92;}.cls-4{fill:#afca0b;}</style><clipPath id="clip-path"><rect class="cls-1" x="-0.03" y="-250.72" width="211.54" height="411.99"/></clipPath></defs><g class="cls-2"><path class="cls-3" d="M6.1,4.87c-.19,0-.32.26-.27.57C6.63,10.56,9,17.26,8.7,18.18c-.21.75-7.91,11.48-7.65,12.38a1.19,1.19,0,0,0,1,.84c13.44,3.76,27.62,3.92,41.75,4.07,19,.21,34.49.87,53.51,1.08,6,.06,17.79-.24,20-1.34a.7.7,0,0,0,.25-.67c-.49-3.09-3.31-11.41-3.31-11.41s8.07-10.88,8-11.66c-.08-1.07-.52-1.14-.94-1.21C86.15,4.88,49.17,9.69,13.78,5.53c0,0-5.33-.68-7.68-.66"/><path class="cls-4" d="M6.55,2.39c-.2,0-.32.26-.27.57C7.08,8.08,9.4,14.78,9.14,15.7c-.2.75-7.91,11.48-7.65,12.38a1.2,1.2,0,0,0,1,.84C15.92,32.68,30.1,32.84,44.22,33c19,.21,34.5.87,53.52,1.08,6,.06,17.78-.24,20-1.34a.7.7,0,0,0,.25-.67c-.49-3.09-3.31-11.41-3.31-11.41s8.08-10.88,8-11.66c-.09-1.07-.53-1.14-1-1.21C86.59,2.4,49.61,7.21,14.22,3.05c0,0-5.33-.68-7.67-.66"/></g></svg>