<?xml version="1.0" encoding="utf-8"?>
<!-- Generator: Adobe Illustrator 14.0.0, SVG Export Plug-In . SVG Version: 6.00 Build 43363)  -->
<!DOCTYPE svg PUBLIC "-//W3C//DTD SVG 1.1//EN" "http://www.w3.org/Graphics/SVG/1.1/DTD/svg11.dtd">
<svg version="1.1" id="Layer_1" xmlns="http://www.w3.org/2000/svg" xmlns:xlink="http://www.w3.org/1999/xlink" x="0px" y="0px"
	 width="24.491px" height="25.398px" viewBox="0 0 24.491 25.398" enable-background="new 0 0 24.491 25.398" xml:space="preserve">
<g>
	<path fill="#8BC53F" d="M0.281,0.57c0,0-0.276,6.568-0.281,14.366s0.281,9.326,0.281,9.326s8.729,1.332,9.757,1.111
		c1.028-0.223,14.298-1.111,14.298-1.111s0.137-1.854,0.152-9.24c0.02-8.502-0.152-14.452-0.152-14.452S11.249,0.049,9.838,0.002
		C8.428-0.045,0.281,0.57,0.281,0.57"/>
	<g>
		<path fill="#FFFFFF" d="M8.083,9.813C8.43,9.67,8.792,9.506,9.167,9.32c0.376-0.185,0.744-0.388,1.102-0.609
			s0.702-0.454,1.031-0.699c0.328-0.245,0.624-0.504,0.887-0.779h1.863v12.418h-2.669v-8.942c-0.358,0.239-0.759,0.457-1.201,0.654
			c-0.442,0.197-0.872,0.368-1.29,0.511L8.083,9.813z"/>
	</g>
</g>
</svg>
