<?xml version="1.0" encoding="utf-8"?>
<!-- Generator: Adobe Illustrator 26.0.2, SVG Export Plug-In . SVG Version: 6.00 Build 0)  -->
<svg version="1.1" id="Layer_1" xmlns="http://www.w3.org/2000/svg" xmlns:xlink="http://www.w3.org/1999/xlink" x="0px" y="0px"
	 viewBox="0 0 316.1 102" style="enable-background:new 0 0 316.1 102;" xml:space="preserve">
<style type="text/css">
	.st0{fill:#C7E8F0;}
	.st1{fill:none;stroke:#C7E8F0;}
</style>
<g>
	<path class="st0" d="M30.3,9.9c0,0-7,18.6-7.1,40.9c-0.1,22.1,7.1,41,7.1,41s104,3.8,130.2,3.1c26.2-0.7,127.5-3.1,127.5-3.1
		s3.5-19.8,3.9-40.9c0.5-24.2-3.9-41-3.9-41s-96.7-3-132.6-3.1C119.5,6.5,30.3,9.9,30.3,9.9"/>
	<path class="st1" d="M29,9.1c0,0-5.5,22-5.6,44.1C23.2,75.4,29,91,29,91s47.1,3.7,99.5,3.8c92.7,0.3,161.4-1.9,161.4-1.9
		s2.8-28.1,3.3-49c0.5-24.2-5.4-34.8-5.4-34.8s-84-2-120-2.2C131.6,6.8,29,9.1,29,9.1z"/>
</g>
</svg>
