<svg id="Capa_1" data-name="Capa 1" xmlns="http://www.w3.org/2000/svg" xmlns:xlink="http://www.w3.org/1999/xlink" viewBox="0 0 77.97 50.01"><defs><style>.cls-1,.cls-3,.cls-4,.cls-5,.cls-6,.cls-7,.cls-8{fill:none;}.cls-2{clip-path:url(#clip-path);}.cls-3,.cls-4,.cls-5,.cls-6,.cls-7,.cls-8{stroke:#7c6eb0;stroke-width:1.5px;}.cls-3{stroke-dasharray:4.84 4.84;}.cls-4{stroke-dasharray:4.91 4.91;}.cls-5{stroke-dasharray:4.95 4.95;}.cls-6{stroke-dasharray:5.66 5.66;}.cls-7{stroke-dasharray:5.53 5.53;}</style><clipPath id="clip-path" transform="translate(0 -0.03)"><rect class="cls-1" width="77.96" height="50.04"/></clipPath></defs><g class="cls-2"><path class="cls-3" d="M72.29,24.09C64,16.16,47.23,1.78,33.48.8" transform="translate(0 -0.03)"/><path class="cls-4" d="M21.87,3.8C14.69,8.64,13.36,18.28,19.36,28" transform="translate(0 -0.03)"/><path class="cls-5" d="M27.88,36.66c6.9,3.45,11.54-3,8.07-9.1" transform="translate(0 -0.03)"/><path class="cls-6" d="M25.21,20A19.33,19.33,0,0,0,6.74,24.22" transform="translate(0 -0.03)"/><path class="cls-7" d="M.77,36.43A23,23,0,0,0,2,44.6" transform="translate(0 -0.03)"/><path class="cls-8" d="M3,47.18a22,22,0,0,0,1.25,2.46m.57-23.37a19.85,19.85,0,0,0-1.63,2.3A16.3,16.3,0,0,0,1.92,31M34.5,25.57a14,14,0,0,0-1.81-1.68,24.18,24.18,0,0,0-2.32-1.61M20.73,30c.47.64,1,1.29,1.51,1.93s1.12,1.28,1.68,1.82m7.14-33a15.74,15.74,0,0,0-2.4.29,21.22,21.22,0,0,0-2.38.61M77.41,29.25s-.59-.65-1.67-1.75" transform="translate(0 -0.03)"/></g></svg>