<?xml version="1.0" encoding="utf-8"?>
<!-- Generator: Adobe Illustrator 14.0.0, SVG Export Plug-In . SVG Version: 6.00 Build 43363)  -->
<!DOCTYPE svg PUBLIC "-//W3C//DTD SVG 1.1//EN" "http://www.w3.org/Graphics/SVG/1.1/DTD/svg11.dtd">
<svg version="1.1" id="Layer_1" xmlns="http://www.w3.org/2000/svg" xmlns:xlink="http://www.w3.org/1999/xlink" x="0px" y="0px"
	 width="30.856px" height="16.993px" viewBox="0 0 30.856 16.993" enable-background="new 0 0 30.856 16.993" xml:space="preserve">
<g>
	<path fill="#FFFFFF" d="M4.004,0.375c0,0-3.629,0-3.629,3.629v8.985c0,0,0,3.629,3.629,3.629h22.847c0,0,3.631,0,3.631-3.629V4.004
		c0,0,0-3.629-3.631-3.629H4.004z"/>
	<path fill="none" stroke="#F6921E" stroke-width="0.75" stroke-linecap="round" d="M4.004,0.375c0,0-3.629,0-3.629,3.629v8.985
		c0,0,0,3.629,3.629,3.629h22.847c0,0,3.631,0,3.631-3.629V4.004c0,0,0-3.629-3.631-3.629H4.004z"/>
	<polyline fill="none" stroke="#F6921E" stroke-width="0.75" stroke-linecap="round" points="13.536,16.612 16.826,8.497 
		13.536,0.38 	"/>
	<g>
		<path fill="#F6921E" d="M7.022,4.242h1.996v8.871H7.022V4.242z"/>
	</g>
	<g>
		<path fill="#F6921E" d="M23.368,5.778c-0.931,0-1.603,0.258-2.017,0.774c-0.414,0.517-0.62,1.223-0.62,2.119
			c0,0.435,0.051,0.83,0.153,1.184c0.103,0.354,0.256,0.659,0.461,0.916c0.205,0.256,0.461,0.453,0.768,0.595
			c0.308,0.141,0.666,0.211,1.075,0.211c0.222,0,0.412-0.004,0.57-0.013c0.157-0.008,0.296-0.025,0.416-0.051V8.428h1.996v4.39
			c-0.238,0.095-0.623,0.195-1.151,0.301c-0.529,0.107-1.183,0.16-1.959,0.16c-0.665,0-1.27-0.102-1.811-0.307
			c-0.542-0.205-1.005-0.504-1.39-0.896c-0.384-0.393-0.68-0.875-0.89-1.446c-0.209-0.571-0.313-1.224-0.313-1.958
			c0-0.743,0.115-1.399,0.346-1.971s0.546-1.056,0.947-1.453c0.401-0.396,0.873-0.697,1.415-0.902
			c0.541-0.205,1.119-0.307,1.734-0.307c0.418,0,0.795,0.028,1.133,0.083c0.337,0.056,0.627,0.12,0.87,0.192
			c0.243,0.072,0.443,0.147,0.602,0.224c0.157,0.077,0.271,0.137,0.339,0.179l-0.576,1.6c-0.272-0.145-0.586-0.271-0.94-0.377
			C24.172,5.832,23.786,5.778,23.368,5.778z"/>
	</g>
</g>
</svg>
