<svg id="Capa_1" data-name="Capa 1" xmlns="http://www.w3.org/2000/svg" xmlns:xlink="http://www.w3.org/1999/xlink" viewBox="0 0 214 34"><defs><style>.cls-1{fill:none;}.cls-2{clip-path:url(#clip-path);}.cls-3{fill:#ffeb92;}.cls-4{fill:#b80e80;}</style><clipPath id="clip-path"><rect class="cls-1" x="-0.03" y="-377.72" width="211.54" height="411.99"/></clipPath></defs><g class="cls-2"><path class="cls-3" d="M6.09,3.44c-.19,0-.31.26-.26.57.72,5.11,2.89,11.77,2.64,12.7C8.26,17.45.78,28.23,1,29.12A1.14,1.14,0,0,0,2,30c12.88,3.63,26.48,3.67,40,3.7,18.25.05,91.92.57,110.17.62,5.74,0,51.8-.39,53.93-1.5a.73.73,0,0,0,.25-.68,116.5,116.5,0,0,0-3.08-11.36S211.11,9.82,211.06,9c-.07-1.06-.5-1.13-.9-1.19C176.46,2.76,47.39,7.88,13.45,4c0,0-5.1-.63-7.36-.59"/><path class="cls-4" d="M6.54,1c-.19,0-.31.26-.27.57C7,6.64,9.17,13.3,8.91,14.23c-.2.74-7.69,11.52-7.45,12.41a1.16,1.16,0,0,0,.94.84c12.87,3.63,26.48,3.67,40,3.7,18.26.05,96.18.57,114.43.62,5.74,0,47.54-.39,49.68-1.5a.78.78,0,0,0,.25-.68c-.45-3.08-3.08-11.35-3.08-11.35s7.84-10.93,7.79-11.71c-.07-1.07-.49-1.14-.89-1.2C176.9.28,47.83,5.4,13.9,1.55c0,0-5.11-.63-7.36-.59"/></g></svg>