<?xml version="1.0" encoding="utf-8"?>
<!-- Generator: Adobe Illustrator 14.0.0, SVG Export Plug-In . SVG Version: 6.00 Build 43363)  -->
<!DOCTYPE svg PUBLIC "-//W3C//DTD SVG 1.1//EN" "http://www.w3.org/Graphics/SVG/1.1/DTD/svg11.dtd">
<svg version="1.1" id="Layer_1" xmlns="http://www.w3.org/2000/svg" xmlns:xlink="http://www.w3.org/1999/xlink" x="0px" y="0px"
	 width="820px" height="1060px" viewBox="0 0 820 1060" enable-background="new 0 0 820 1060" xml:space="preserve">
<g>
	<defs>
		<rect id="SVGID_1_" y="0" width="820" height="1060"/>
	</defs>
	<clipPath id="SVGID_2_">
		<use xlink:href="#SVGID_1_"  overflow="visible"/>
	</clipPath>
	<rect x="-16.901" y="-13.783" clip-path="url(#SVGID_2_)" fill="#F6921E" width="852.661" height="1088.505"/>
	<g clip-path="url(#SVGID_2_)">
		<defs>
			<rect id="SVGID_3_" x="-16.9" y="-13.784" width="852.663" height="1088.504"/>
		</defs>
		<clipPath id="SVGID_4_">
			<use xlink:href="#SVGID_3_"  overflow="visible"/>
		</clipPath>
		<path clip-path="url(#SVGID_4_)" fill="#FFE5CA" d="M52.838,62.222c20.022-1.929,400.471,0,440.519,0S790.64,50.064,793.71,71.47
			c6.675,46.531,6.675,753.019,6.675,830.812c0,56.034-2.67,126.536-6.675,126.536s-663.446,24.971-746.211,6.343
			c-6.674-89.413-4.004-421.578-4.004-594.855C43.495,385.76,42.16,114.935,52.838,62.222"/>
	</g>
	<path clip-path="url(#SVGID_2_)" fill="none" d="M493.356,62.222c-40.048,0-420.494-1.929-440.518,0
		c-10.677,52.713-9.345,323.538-9.342,378.083c0,173.278-2.672,505.443,4.002,594.856c82.765,18.629,742.207-6.343,746.211-6.343
		s6.675-70.503,6.675-126.537c0-77.792,0-784.28-6.675-830.813c-1.438-10.021-58.576-12.686-123.069-12.686
		C597.389,58.784,514.653,62.222,493.356,62.222"/>
	<rect x="-16.9" y="-13.784" clip-path="url(#SVGID_2_)" fill="none" width="852.663" height="1088.504"/>
	<rect x="-16.9" y="-13.784" clip-path="url(#SVGID_2_)" fill="none" width="852.663" height="1088.504"/>
	<rect x="-16.9" y="-13.784" clip-path="url(#SVGID_2_)" fill="none" width="852.663" height="1088.504"/>
	<rect x="-16.9" y="-13.784" clip-path="url(#SVGID_2_)" fill="none" width="852.663" height="1088.504"/>
	<rect x="-16.9" y="-13.784" clip-path="url(#SVGID_2_)" fill="none" width="852.663" height="1088.504"/>
	<rect x="-16.9" y="-13.784" clip-path="url(#SVGID_2_)" fill="none" width="852.663" height="1088.504"/>
	<rect x="-16.9" y="-13.784" clip-path="url(#SVGID_2_)" fill="none" width="852.663" height="1088.504"/>
	<rect x="-16.9" y="-13.784" clip-path="url(#SVGID_2_)" fill="none" width="852.663" height="1088.504"/>
	<rect x="-16.9" y="-13.784" clip-path="url(#SVGID_2_)" fill="none" width="852.663" height="1088.504"/>
</g>
</svg>
