<?xml version="1.0" encoding="utf-8"?>
<!-- Generator: Adobe Illustrator 26.0.1, SVG Export Plug-In . SVG Version: 6.00 Build 0)  -->
<svg version="1.1" id="Capa_1" xmlns="http://www.w3.org/2000/svg" xmlns:xlink="http://www.w3.org/1999/xlink" x="0px" y="0px"
	 viewBox="0 0 820 1059.2" style="enable-background:new 0 0 820 1059.2;" xml:space="preserve">
<style type="text/css">
	.st0{fill:#00ABCC;}
	.st1{fill:#C7E8F0;}
</style>
<rect y="-0.4" class="st0" width="820" height="1059.2"/>
<g>
	<g>
		<g>
			<g>
				<path class="st1" d="M75.1,17.6c18.2-2,365.3,0,401.8,0s271.2-12.7,274,9.6c6.2,48.5,6.2,784.6,6.2,865.7
					c0,58.3-2.4,131.9-6.2,131.9c-3.6,0-605.1,26-680.7,6.6c-6.2-93.2-3.6-439.3-3.6-619.9C66.6,354.6,65.4,72.5,75.1,17.6"/>
			</g>
		</g>
	</g>
</g>
<polygon class="st0" points="0,1035.6 0,1059.6 820,1059.6 820,1023.4 "/>
<polygon class="st0" points="0,-0.4 0,27.5 820,38.8 820,-0.4 "/>
</svg>
