<?xml version="1.0" encoding="utf-8"?>
<!-- Generator: Adobe Illustrator 24.2.3, SVG Export Plug-In . SVG Version: 6.00 Build 0)  -->
<svg version="1.1" id="Layer_1" xmlns="http://www.w3.org/2000/svg" xmlns:xlink="http://www.w3.org/1999/xlink" x="0px" y="0px"
	 viewBox="0 0 478.5 514.5" style="enable-background:new 0 0 478.5 514.5;" xml:space="preserve">
<style type="text/css">
	.st0{fill:#FDDAB4;stroke:#E3E1F0;stroke-miterlimit:10;}
	.st1{fill:#FFE5CA;stroke:#E3E1F0;stroke-miterlimit:10;}
</style>
<g>
	<path class="st0" d="M191.2,372.9c-0.6,0-0.9-0.3-0.9-0.7s0.4-0.7,0.9-0.7c1.8,0,3.6,0,5.6,0l0,0c0.5,0,0.9,0.3,0.9,0.7
		s-0.4,0.7-0.9,0.7C194.8,372.9,193,372.9,191.2,372.9L191.2,372.9z M187.4,372.9L187.4,372.9c-2,0-4,0-5.6-0.1
		c-0.6,0-0.9-0.4-0.9-0.7s0.5-0.7,0.9-0.7l0,0c1.7,0,3.5,0,5.6,0.1c0.6,0,0.9,0.4,0.9,0.7C188.4,372.6,188,372.9,187.4,372.9
		L187.4,372.9z M200.5,372.8c-0.5,0-0.9-0.3-0.9-0.7s0.4-0.7,0.9-0.7c1.8,0,3.6-0.1,5.6-0.1l0,0c0.5,0,0.9,0.3,0.9,0.7
		s-0.4,0.7-0.9,0.7C204.2,372.8,202.3,372.8,200.5,372.8L200.5,372.8L200.5,372.8z M209.8,372.7c-0.5,0-0.9-0.3-0.9-0.7
		s0.4-0.7,0.9-0.7c1.9,0,3.7-0.1,5.6-0.1c0.6,0,0.9,0.3,0.9,0.7s-0.4,0.7-0.9,0.7C213.5,372.6,211.7,372.6,209.8,372.7L209.8,372.7
		L209.8,372.7z M219.2,372.5c-0.5,0-0.9-0.3-0.9-0.7s0.4-0.7,0.9-0.7c1.9-0.1,3.7-0.1,5.6-0.1c0.6,0,0.9,0.3,0.9,0.7
		s-0.4,0.7-0.9,0.7C222.9,372.4,221,372.4,219.2,372.5L219.2,372.5L219.2,372.5z M228.4,372.2c-0.5,0-0.9-0.3-0.9-0.7
		s0.4-0.7,0.9-0.7c1.9-0.1,3.7-0.1,5.6-0.2c0.5,0,0.9,0.3,1,0.6c0,0.4-0.4,0.7-0.8,0.7C232.2,372.1,230.3,372.2,228.4,372.2
		L228.4,372.2L228.4,372.2z M237.8,371.9c-0.5,0-0.9-0.3-0.9-0.6c0-0.4,0.4-0.7,0.8-0.8c1.9-0.1,3.7-0.1,5.6-0.3
		c0.5,0,0.9,0.3,1,0.6c0,0.4-0.4,0.7-0.8,0.8C241.5,371.7,239.6,371.8,237.8,371.9L237.8,371.9L237.8,371.9z M247,371.5
		c-0.5,0-0.9-0.3-0.9-0.6c0-0.4,0.4-0.7,0.8-0.8c1.9-0.1,3.7-0.2,5.6-0.3c0.5,0,0.9,0.3,1,0.6c0,0.4-0.4,0.7-0.8,0.8
		C250.8,371.2,249,371.3,247,371.5C247.1,371.5,247,371.5,247,371.5L247,371.5z M256.3,370.9c-0.5,0-0.9-0.3-0.9-0.6
		c0-0.4,0.4-0.7,0.8-0.8c1.9-0.1,3.7-0.2,5.6-0.4c0.5-0.1,0.9,0.3,1,0.6c0.1,0.4-0.4,0.7-0.8,0.8
		C260.1,370.7,258.2,370.8,256.3,370.9C256.4,370.9,256.4,370.9,256.3,370.9L256.3,370.9z M265.6,370.3c-0.5,0-0.8-0.3-0.9-0.6
		c-0.1-0.4,0.4-0.7,0.8-0.8c1.9-0.1,3.7-0.3,5.6-0.4c0.5,0,0.9,0.2,1,0.6s-0.3,0.7-0.8,0.8C269.4,370,267.5,370.2,265.6,370.3
		L265.6,370.3L265.6,370.3z M274.9,369.6c-0.5,0-0.8-0.3-0.9-0.6c-0.1-0.4,0.3-0.7,0.8-0.8c1.9-0.1,3.7-0.3,5.6-0.5
		c0.6-0.1,0.9,0.2,1,0.6c0.1,0.4-0.3,0.7-0.8,0.8C278.7,369.3,276.8,369.5,274.9,369.6C274.9,369.6,274.9,369.6,274.9,369.6
		L274.9,369.6z M284.1,368.8c-0.5,0-0.8-0.3-0.9-0.6s0.3-0.7,0.8-0.8c1.9-0.1,3.7-0.4,5.6-0.5c0.5-0.1,0.9,0.2,1,0.6
		c0.1,0.4-0.3,0.7-0.8,0.8C287.9,368.5,286.1,368.6,284.1,368.8C284.1,368.8,284.1,368.8,284.1,368.8L284.1,368.8z M293.3,367.9
		c-0.5,0-0.8-0.3-0.9-0.6s0.3-0.8,0.8-0.8c1.9-0.2,3.7-0.4,5.5-0.6c0.5-0.1,1,0.2,1,0.6c0.1,0.4-0.3,0.8-0.7,0.8
		C297.1,367.5,295.2,367.7,293.3,367.9C293.4,367.9,293.4,367.9,293.3,367.9L293.3,367.9z M302.5,366.9c-0.5,0-0.8-0.3-0.9-0.6
		c-0.1-0.4,0.3-0.8,0.7-0.8c1.9-0.2,3.7-0.4,5.5-0.6c0.5-0.1,1,0.2,1,0.6c0.1,0.4-0.3,0.8-0.7,0.8
		C306.3,366.5,304.4,366.7,302.5,366.9C302.6,366.9,302.5,366.9,302.5,366.9L302.5,366.9z M311.7,365.8c-0.5,0-0.8-0.2-0.9-0.6
		s0.3-0.8,0.7-0.8c1.9-0.2,3.7-0.5,5.5-0.8c0.6-0.1,1,0.2,1.1,0.6s-0.3,0.8-0.7,0.8C315.5,365.3,313.7,365.5,311.7,365.8
		C311.8,365.8,311.8,365.8,311.7,365.8L311.7,365.8z M320.9,364.5c-0.5,0-0.8-0.2-0.9-0.6s0.3-0.8,0.7-0.8c1.9-0.3,3.6-0.6,5.5-0.8
		c0.5-0.1,1,0.1,1.1,0.6c0.1,0.4-0.2,0.8-0.7,0.8c-1.9,0.3-3.6,0.6-5.5,0.8C321.1,364.5,321,364.5,320.9,364.5L320.9,364.5z
		 M330,363.1c-0.5,0-0.8-0.2-0.9-0.6s0.2-0.8,0.7-0.8c1.9-0.3,3.6-0.6,5.5-0.9c0.5-0.1,1,0.1,1.1,0.6c0.1,0.4-0.2,0.8-0.7,0.8
		c-1.9,0.4-3.6,0.6-5.5,0.9C330.1,363.1,330.1,363.1,330,363.1L330,363.1z M339.1,361.5c-0.5,0-0.8-0.2-0.9-0.6s0.2-0.8,0.6-0.8
		c1.9-0.4,3.6-0.7,5.4-1.1c0.5-0.1,1,0.1,1.1,0.5s-0.2,0.8-0.6,0.8C342.9,360.7,341,361.1,339.1,361.5
		C339.3,361.5,339.2,361.5,339.1,361.5L339.1,361.5z M348.1,359.8c-0.4,0-0.7-0.2-0.9-0.5c-0.1-0.4,0.2-0.8,0.6-0.8
		c1.8-0.4,3.6-0.8,5.4-1.1c0.5-0.1,1,0.1,1.1,0.5c0.2,0.4-0.1,0.8-0.6,0.8c-1.8,0.4-3.6,0.8-5.4,1.1
		C348.3,359.7,348.2,359.8,348.1,359.8L348.1,359.8z M357.1,357.8c-0.4,0-0.7-0.2-0.9-0.5c-0.2-0.4,0.1-0.8,0.6-0.8
		c1.8-0.4,3.5-0.8,5.3-1.3c0.5-0.1,1,0.1,1.2,0.4c0.2,0.4-0.1,0.8-0.6,0.9c-1.8,0.4-3.5,0.8-5.4,1.3
		C357.2,357.8,357.1,357.8,357.1,357.8L357.1,357.8z M365.9,355.7c-0.4,0-0.7-0.2-0.8-0.5c-0.2-0.4,0.1-0.8,0.6-0.9
		c1.8-0.5,3.5-0.9,5.3-1.4c0.5-0.1,1,0.1,1.2,0.4s-0.1,0.8-0.6,0.9c-1.8,0.5-3.5,1-5.3,1.4C366.1,355.7,366,355.7,365.9,355.7
		L365.9,355.7z M374.6,353.2c-0.4,0-0.7-0.1-0.8-0.4c-0.2-0.4,0.1-0.8,0.6-0.9c1.8-0.5,3.4-1.1,5.2-1.6c0.5-0.1,1,0,1.2,0.4
		c0.2,0.4,0,0.8-0.5,0.9c-1.7,0.6-3.4,1.1-5.2,1.6C374.9,353.2,374.7,353.2,374.6,353.2L374.6,353.2z M383.2,350.5
		c-0.4,0-0.6-0.1-0.8-0.4c-0.2-0.4,0-0.8,0.5-0.9c1.8-0.6,3.4-1.2,5-1.8c0.5-0.1,1,0,1.2,0.4c0.2,0.4,0,0.8-0.5,0.9
		c-1.7,0.6-3.3,1.2-5.1,1.8C383.5,350.5,383.3,350.5,383.2,350.5L383.2,350.5z M391.6,347.4c-0.4,0-0.6-0.1-0.8-0.4
		c-0.3-0.4-0.1-0.8,0.4-0.9c1.7-0.6,3.3-1.3,4.9-2c0.5-0.2,1-0.1,1.3,0.3c0.3,0.4,0.1,0.8-0.4,1c-1.6,0.7-3.2,1.4-4.9,2
		C391.8,347.4,391.7,347.4,391.6,347.4L391.6,347.4z M399.7,343.9c-0.3,0-0.6-0.1-0.8-0.4c-0.3-0.4-0.1-0.8,0.3-1
		c1.6-0.8,3.1-1.5,4.6-2.2c0.5-0.2,1-0.1,1.3,0.2s0.2,0.8-0.3,1c-1.5,0.8-3.1,1.5-4.7,2.3C400,343.9,399.9,343.9,399.7,343.9
		L399.7,343.9z M407.4,340c-0.3,0-0.6-0.1-0.7-0.3c-0.3-0.3-0.2-0.8,0.2-1c1.5-0.8,3-1.7,4.3-2.6c0.4-0.3,1-0.2,1.3,0.1
		c0.4,0.3,0.3,0.8-0.1,1c-1.4,0.9-2.9,1.8-4.4,2.6C407.8,340,407.6,340,407.4,340L407.4,340z M414.6,335.6c-0.3,0-0.5-0.1-0.6-0.2
		c-0.4-0.3-0.3-0.7,0.1-1c1.4-1,2.7-2,3.9-2.9c0.4-0.3,0.9-0.3,1.3,0s0.4,0.7,0,1c-1.3,1-2.6,2-4,3
		C415.1,335.5,414.8,335.6,414.6,335.6L414.6,335.6z M421.1,330.5c-0.2,0-0.5-0.1-0.6-0.1c-0.4-0.3-0.5-0.7-0.1-1
		c1.2-1.1,2.3-2.2,3.3-3.3c0.3-0.4,0.8-0.4,1.3-0.1c0.5,0.2,0.6,0.6,0.2,1c-1,1.1-2.2,2.2-3.4,3.4
		C421.5,330.4,421.3,330.5,421.1,330.5L421.1,330.5z M426.4,324.8c-0.2,0-0.4,0-0.5-0.1c-0.5-0.2-0.6-0.6-0.3-1
		c0.9-1.2,1.9-2.4,2.6-3.7c0.2-0.4,0.7-0.5,1.2-0.4s0.6,0.6,0.5,0.9c-0.8,1.3-1.7,2.5-2.7,3.7C427.1,324.7,426.8,324.8,426.4,324.8
		L426.4,324.8z M430.6,318.6c-0.1,0-0.2,0-0.4-0.1c-0.5-0.1-0.7-0.6-0.6-0.9c0.6-1.3,1.3-2.6,1.8-3.9c0.1-0.4,0.6-0.6,1.1-0.5
		c0.5,0.1,0.7,0.5,0.6,0.8c-0.5,1.3-1.1,2.7-1.8,4.1C431.4,318.4,431,318.6,430.6,318.6L430.6,318.6z M433.2,311.8
		c-0.1,0-0.1,0-0.2,0c-0.5-0.1-0.8-0.4-0.7-0.8c0.3-1,0.5-2,0.6-3.1c0.1-0.4,0.6-0.6,1-0.6c0.5,0.1,0.8,0.4,0.8,0.8
		c-0.2,1.1-0.4,2.2-0.6,3.2C434,311.6,433.7,311.8,433.2,311.8L433.2,311.8z"/>
</g>
<g>
	<path class="st0" d="M434,297.9c-0.4,0-0.9-0.3-0.9-0.6c-0.1-1.4-0.3-2.8-0.5-4.1c-0.1-0.4,0.3-0.7,0.8-0.8c0.4-0.1,0.9,0.2,1,0.6
		c0.3,1.3,0.4,2.8,0.5,4.2C435,297.6,434.6,297.9,434,297.9C434.1,297.9,434.1,297.9,434,297.9L434,297.9z M433,291
		c-0.4,0-0.8-0.2-0.9-0.6c-0.3-1.4-0.7-2.7-1.1-4.1c-0.1-0.4,0.2-0.8,0.6-0.8c0.4-0.1,1,0.1,1,0.5c0.4,1.3,0.8,2.7,1.1,4.1
		C433.8,290.5,433.5,290.9,433,291C433.1,291,433.1,291,433,291L433,291z M431,284.2c-0.3,0-0.7-0.2-0.9-0.5
		c-0.5-1.3-1.1-2.6-1.8-3.9c-0.2-0.4,0-0.8,0.4-0.9c0.4-0.1,1,0,1.1,0.4c0.7,1.3,1.3,2.6,1.8,4c0.2,0.4-0.1,0.8-0.5,0.9
		C431.1,284.2,431.1,284.2,431,284.2L431,284.2z M130.1,282.3L130.1,282.3c-1.7,0-3.5,0-5.2-0.1c-0.5,0-0.9-0.4-0.9-0.7
		s0.3-0.7,0.9-0.7c1.7,0.1,3.5,0.1,5.1,0.1c0.5,0,0.9,0.4,0.9,0.7C131,281.9,130.6,282.3,130.1,282.3L130.1,282.3z M133.5,282.3
		c-0.4,0-0.9-0.3-0.9-0.7s0.3-0.7,0.9-0.7c1.7,0,3.5-0.1,5.2-0.1c0.4,0,0.9,0.3,0.9,0.7s-0.3,0.7-0.9,0.7
		C137,282.2,135.3,282.2,133.5,282.3L133.5,282.3L133.5,282.3z M121.5,282.1L121.5,282.1c-1.8-0.1-3.5-0.1-5.2-0.3
		c-0.5,0-0.9-0.4-0.8-0.8c0-0.4,0.4-0.7,1-0.6c1.6,0.1,3.4,0.2,5.1,0.3c0.5,0,0.9,0.4,0.9,0.7C122.4,281.8,122,282.1,121.5,282.1
		L121.5,282.1z M142.2,282.1c-0.4,0-0.9-0.3-0.9-0.7s0.3-0.7,0.9-0.7c1.7-0.1,3.5-0.1,5.1-0.2c0.5,0,0.9,0.3,1,0.6
		c0,0.4-0.3,0.7-0.8,0.8C145.6,281.9,143.9,282,142.2,282.1L142.2,282.1L142.2,282.1z M150.7,281.6c-0.4,0-0.9-0.3-0.9-0.6
		c0-0.4,0.3-0.7,0.8-0.8c1.7-0.1,3.4-0.2,5.1-0.4c0.5-0.1,0.9,0.3,1,0.6c0,0.4-0.3,0.7-0.8,0.8C154.3,281.4,152.6,281.6,150.7,281.6
		C150.8,281.6,150.7,281.6,150.7,281.6L150.7,281.6z M112.9,281.6C112.9,281.6,112.8,281.6,112.9,281.6c-1.8-0.1-3.5-0.3-5.3-0.5
		c-0.4-0.1-0.8-0.4-0.8-0.8c0.1-0.4,0.5-0.6,1-0.6c1.6,0.1,3.4,0.4,5.1,0.5c0.5,0.1,0.9,0.4,0.8,0.8
		C113.8,281.4,113.4,281.6,112.9,281.6L112.9,281.6z M159.3,281.1c-0.4,0-0.8-0.3-0.9-0.6c-0.1-0.4,0.3-0.7,0.8-0.8
		c1.7-0.1,3.4-0.3,5.1-0.4c0.4-0.1,0.9,0.2,1,0.6c0.1,0.4-0.3,0.7-0.8,0.8C162.9,280.8,161.1,280.9,159.3,281.1
		C159.4,281.1,159.4,281.1,159.3,281.1L159.3,281.1z M104.4,280.7c-0.1,0-0.1,0-0.2,0c-1.7-0.2-3.5-0.5-5.1-0.7
		c-0.4-0.1-0.8-0.4-0.7-0.8c0.1-0.4,0.5-0.6,1-0.6c1.6,0.3,3.3,0.5,5,0.7c0.4,0.1,0.8,0.4,0.7,0.8
		C105.1,280.5,104.8,280.7,104.4,280.7L104.4,280.7z M167.9,280.3c-0.4,0-0.8-0.3-0.9-0.6c-0.1-0.4,0.3-0.7,0.8-0.8
		c1.7-0.1,3.4-0.4,5.1-0.5c0.4-0.1,0.9,0.2,1,0.6c0.1,0.4-0.3,0.7-0.8,0.8C171.3,280,169.6,280.2,167.9,280.3
		C168,280.3,168,280.3,167.9,280.3L167.9,280.3z M176.4,279.4c-0.4,0-0.8-0.3-0.9-0.6s0.3-0.8,0.8-0.8c1.7-0.2,3.4-0.4,5.1-0.6
		c0.5-0.1,1,0.2,1,0.6c0.1,0.4-0.3,0.8-0.7,0.8c-1.7,0.2-3.5,0.4-5.1,0.6C176.5,279.4,176.4,279.4,176.4,279.4L176.4,279.4z
		 M96,279.4c-0.1,0-0.2,0-0.2,0c-1.7-0.4-3.4-0.7-5-1.1c-0.4-0.1-0.7-0.5-0.6-0.8c0.1-0.4,0.6-0.6,1-0.5c1.6,0.4,3.3,0.7,4.9,1.1
		c0.4,0.1,0.8,0.5,0.7,0.8C96.7,279.2,96.3,279.4,96,279.4L96,279.4z M184.9,278.4c-0.4,0-0.8-0.3-0.9-0.6s0.3-0.8,0.7-0.8
		c1.7-0.2,3.4-0.4,5.1-0.6c0.4-0.1,1,0.2,1,0.6s-0.3,0.8-0.7,0.8C188.4,277.9,186.7,278.1,184.9,278.4
		C185,278.4,185,278.4,184.9,278.4L184.9,278.4z M427.7,277.8c-0.3,0-0.6-0.1-0.8-0.4c-0.8-1.2-1.6-2.4-2.6-3.5
		c-0.3-0.4-0.2-0.8,0.3-1c0.4-0.2,1-0.1,1.2,0.2c1,1.2,1.9,2.4,2.7,3.7c0.3,0.4,0.1,0.8-0.3,0.9
		C427.9,277.8,427.8,277.8,427.7,277.8L427.7,277.8z M87.7,277.6c-0.1,0-0.2,0-0.3,0c-1.6-0.4-3.4-0.9-4.9-1.4
		c-0.4-0.1-0.7-0.6-0.5-0.9c0.2-0.4,0.7-0.6,1.1-0.4c1.6,0.5,3.2,1,4.8,1.4c0.4,0.1,0.7,0.5,0.5,0.9C88.3,277.4,88,277.6,87.7,277.6
		L87.7,277.6z M193.5,277.4c-0.4,0-0.8-0.2-0.9-0.6s0.3-0.8,0.7-0.8c1.7-0.2,3.4-0.4,5.1-0.7c0.4-0.1,1,0.2,1,0.6
		c0.1,0.4-0.3,0.8-0.7,0.8c-1.7,0.2-3.4,0.5-5.1,0.7C193.6,277.4,193.5,277.4,193.5,277.4L193.5,277.4z M202,276.2
		c-0.4,0-0.8-0.2-0.9-0.6c-0.1-0.4,0.3-0.8,0.7-0.8c1.7-0.2,3.4-0.5,5.1-0.7c0.4-0.1,1,0.2,1,0.6s-0.3,0.8-0.7,0.8
		c-1.7,0.3-3.4,0.5-5.1,0.7C202.1,276.2,202,276.2,202,276.2L202,276.2z M79.6,275.1c-0.1,0-0.3,0-0.3-0.1c-1.6-0.6-3.2-1.2-4.7-1.8
		c-0.4-0.2-0.6-0.6-0.3-0.9c0.3-0.3,0.8-0.5,1.1-0.3c1.5,0.6,3,1.2,4.6,1.8c0.4,0.1,0.6,0.6,0.4,0.9C80.2,275,79.9,275.1,79.6,275.1
		L79.6,275.1z M210.5,275c-0.4,0-0.8-0.2-0.9-0.6c-0.1-0.4,0.3-0.8,0.7-0.8c1.7-0.3,3.4-0.5,5.1-0.8c0.4-0.1,1,0.2,1,0.6
		s-0.3,0.8-0.7,0.8c-1.7,0.3-3.4,0.5-5.1,0.8C210.5,275,210.5,275,210.5,275L210.5,275z M218.9,273.7c-0.4,0-0.8-0.2-0.9-0.6
		s0.3-0.8,0.7-0.8c1.7-0.3,3.4-0.6,5.1-0.8c0.4-0.1,1,0.1,1,0.6c0.1,0.4-0.2,0.8-0.7,0.8c-1.7,0.3-3.4,0.6-5.1,0.8
		C219,273.7,218.9,273.7,218.9,273.7L218.9,273.7z M227.4,272.4c-0.4,0-0.8-0.2-0.9-0.6s0.2-0.8,0.7-0.8c1.7-0.3,3.4-0.6,5.1-0.8
		c0.4-0.1,1,0.1,1,0.6c0.1,0.4-0.2,0.8-0.7,0.8c-1.7,0.3-3.4,0.6-5.1,0.8C227.5,272.4,227.4,272.4,227.4,272.4L227.4,272.4z
		 M71.9,272c-0.2,0-0.3,0-0.4-0.1c-1.5-0.7-3-1.5-4.4-2.2c-0.4-0.2-0.5-0.6-0.3-1c0.3-0.4,0.8-0.4,1.2-0.2c1.4,0.8,2.9,1.5,4.3,2.2
		c0.4,0.2,0.5,0.6,0.3,1C72.5,271.8,72.2,272,71.9,272L71.9,272z M423,272c-0.3,0-0.5-0.1-0.7-0.3c-1-1.1-2.2-2.1-3.4-3.1
		c-0.3-0.3-0.3-0.7,0-1c0.3-0.3,0.9-0.3,1.2,0c1.2,1,2.4,2,3.5,3.2c0.3,0.3,0.3,0.8-0.2,1C423.4,271.9,423.2,272,423,272L423,272z
		 M235.8,271c-0.4,0-0.8-0.2-0.9-0.6c-0.1-0.4,0.2-0.8,0.7-0.8l5.1-0.8c0.4-0.1,1,0.1,1,0.6c0.1,0.4-0.2,0.8-0.7,0.8L236,271
		C236,271,235.9,271,235.8,271L235.8,271z M244.3,269.6c-0.4,0-0.8-0.2-0.9-0.6s0.2-0.8,0.7-0.8l5.1-0.8c0.4-0.1,1,0.1,1,0.6
		c0.1,0.4-0.2,0.8-0.7,0.8l-5.1,0.8C244.4,269.6,244.4,269.6,244.3,269.6L244.3,269.6z M252.7,268.2c-0.4,0-0.8-0.2-0.9-0.6
		c-0.1-0.4,0.2-0.8,0.7-0.8l5-0.8c0.4-0.1,1,0.1,1,0.6s-0.2,0.8-0.7,0.8l-5,0.8C252.9,268.2,252.8,268.2,252.7,268.2L252.7,268.2z
		 M64.8,268.1c-0.2,0-0.3-0.1-0.5-0.1c-1.4-0.8-2.7-1.8-4-2.7c-0.3-0.3-0.3-0.7-0.1-1c0.3-0.3,0.9-0.3,1.2-0.1
		c1.2,0.9,2.5,1.8,3.9,2.7c0.3,0.2,0.4,0.7,0.2,1C65.3,268,65.1,268.1,64.8,268.1L64.8,268.1z M417,267c-0.2,0-0.4-0.1-0.5-0.1
		c-1.3-0.8-2.6-1.7-4.1-2.5c-0.4-0.2-0.5-0.6-0.3-1s0.8-0.4,1.2-0.2c1.5,0.8,2.9,1.7,4.2,2.6c0.3,0.3,0.4,0.7,0.1,1
		C417.5,266.9,417.3,267,417,267L417,267z M261.2,266.8c-0.4,0-0.8-0.2-0.9-0.6s0.2-0.8,0.7-0.8l5-0.8c0.4-0.1,1,0.1,1,0.6
		c0.1,0.4-0.2,0.8-0.7,0.8l-5,0.8C261.3,266.8,261.2,266.8,261.2,266.8L261.2,266.8z M269.6,265.5c-0.4,0-0.8-0.2-0.9-0.6
		s0.2-0.8,0.7-0.8c1.7-0.3,3.4-0.6,5.1-0.8c0.4-0.1,1,0.1,1,0.6c0.1,0.4-0.2,0.8-0.7,0.8c-1.6,0.3-3.4,0.6-5.1,0.8
		C269.7,265.5,269.7,265.5,269.6,265.5L269.6,265.5z M278,264.2c-0.4,0-0.8-0.2-0.9-0.6s0.2-0.8,0.7-0.8c1.7-0.3,3.4-0.6,5.1-0.8
		c0.4-0.1,1,0.2,1,0.6s-0.3,0.8-0.7,0.8c-1.6,0.3-3.4,0.6-5.1,0.8C278.1,264.2,278,264.2,278,264.2L278,264.2z M58.4,263.4
		c-0.3,0-0.4-0.1-0.6-0.2c-1.2-1-2.3-2.1-3.5-3.2c-0.3-0.3-0.3-0.8,0.1-1c0.3-0.3,1-0.2,1.2,0.1c1,1.1,2.2,2.1,3.4,3.1
		c0.3,0.3,0.3,0.7,0,1C58.8,263.4,58.7,263.4,58.4,263.4L58.4,263.4z M409.9,263c-0.2,0-0.3,0-0.4-0.1c-1.5-0.7-2.9-1.3-4.5-1.9
		c-0.4-0.1-0.6-0.6-0.4-0.9s0.7-0.5,1.1-0.4c1.6,0.6,3.2,1.3,4.7,2c0.4,0.2,0.5,0.6,0.3,1C410.5,262.8,410.3,263,409.9,263
		L409.9,263z M286.4,262.8c-0.4,0-0.8-0.2-0.9-0.6c-0.1-0.4,0.3-0.8,0.7-0.8c1.7-0.3,3.4-0.5,5.1-0.8c0.4-0.1,1,0.2,1,0.6
		s-0.3,0.8-0.7,0.8c-1.7,0.3-3.4,0.5-5.1,0.8C286.6,262.8,286.5,262.8,286.4,262.8L286.4,262.8z M294.9,261.6
		c-0.4,0-0.8-0.2-0.9-0.6s0.3-0.8,0.7-0.8c1.7-0.3,3.4-0.5,5.1-0.8c0.4-0.1,1,0.2,1,0.6c0.1,0.4-0.3,0.8-0.7,0.8
		c-1.7,0.2-3.4,0.5-5.1,0.7C295,261.6,295,261.6,294.9,261.6L294.9,261.6z M303.4,260.3c-0.4,0-0.8-0.2-0.9-0.6s0.3-0.8,0.7-0.8
		c1.7-0.2,3.4-0.5,5.1-0.7c0.4-0.1,1,0.2,1,0.6c0.1,0.4-0.3,0.8-0.7,0.8C306.9,259.7,305.2,260,303.4,260.3
		C303.5,260.3,303.5,260.3,303.4,260.3L303.4,260.3z M402.2,260c-0.1,0-0.2,0-0.3-0.1c-1.6-0.5-3.2-0.9-4.8-1.3
		c-0.4-0.1-0.7-0.5-0.6-0.8c0.2-0.4,0.6-0.6,1-0.5c1.7,0.4,3.4,0.9,4.9,1.4c0.4,0.1,0.7,0.6,0.5,0.9
		C402.9,259.8,402.6,260,402.2,260L402.2,260z M311.9,259.2c-0.4,0-0.8-0.3-0.9-0.6c-0.1-0.4,0.3-0.8,0.7-0.8
		c1.7-0.2,3.5-0.4,5.1-0.6c0.4-0.1,1,0.2,1,0.6s-0.3,0.8-0.7,0.8C315.4,258.8,313.7,259,311.9,259.2
		C312,259.2,312,259.2,311.9,259.2L311.9,259.2z M320.5,258.1c-0.4,0-0.8-0.3-0.9-0.6s0.3-0.8,0.7-0.8c1.7-0.2,3.5-0.4,5.1-0.6
		c0.5-0.1,1,0.2,1,0.6c0.1,0.4-0.3,0.8-0.8,0.8C323.8,257.8,322.2,257.9,320.5,258.1C320.5,258.1,320.5,258.1,320.5,258.1
		L320.5,258.1z M52.9,258.1c-0.3,0-0.5-0.1-0.7-0.3c-1-1.1-2-2.3-2.9-3.5c-0.3-0.4-0.1-0.8,0.3-1c0.4-0.2,1-0.1,1.2,0.2
		c0.9,1.2,1.8,2.3,2.9,3.4c0.3,0.3,0.2,0.8-0.2,1C53.3,258.1,53,258.1,52.9,258.1L52.9,258.1z M394,257.8c-0.1,0-0.2,0-0.2,0
		c-1.6-0.4-3.3-0.6-5-0.9c-0.4-0.1-0.8-0.4-0.7-0.8c0.1-0.4,0.5-0.6,1-0.6c1.7,0.3,3.5,0.6,5.1,0.9c0.4,0.1,0.8,0.5,0.6,0.8
		C394.8,257.6,394.5,257.8,394,257.8L394,257.8z M328.9,257.2c-0.4,0-0.8-0.3-0.9-0.6c-0.1-0.4,0.3-0.7,0.8-0.8
		c1.7-0.1,3.5-0.4,5.1-0.5c0.4-0.1,0.9,0.2,1,0.6s-0.3,0.7-0.8,0.8C332.4,256.9,330.8,257.1,328.9,257.2
		C329,257.2,329,257.2,328.9,257.2L328.9,257.2z M385.6,256.4c-0.1,0-0.1,0-0.2,0c-1.6-0.2-3.4-0.4-5.1-0.6
		c-0.4-0.1-0.8-0.4-0.8-0.8c0.1-0.4,0.5-0.6,1-0.6c1.7,0.1,3.5,0.4,5.2,0.6c0.4,0.1,0.8,0.4,0.7,0.8
		C386.4,256.2,386.1,256.4,385.6,256.4L385.6,256.4z M337.5,256.4c-0.4,0-0.8-0.3-0.9-0.6c-0.1-0.4,0.3-0.7,0.8-0.8
		c1.7-0.1,3.5-0.3,5.2-0.4c0.5-0.1,0.9,0.3,1,0.6c0,0.4-0.3,0.7-0.8,0.8c-1.7,0.1-3.4,0.3-5.1,0.4
		C337.6,256.4,337.5,256.4,337.5,256.4L337.5,256.4z M346.1,255.8c-0.4,0-0.9-0.3-0.9-0.6c0-0.4,0.3-0.7,0.8-0.8
		c1.7-0.1,3.5-0.2,5.2-0.3c0.4,0,0.9,0.3,1,0.6c0,0.4-0.3,0.7-0.8,0.8C349.6,255.6,347.9,255.7,346.1,255.8
		C346.2,255.8,346.1,255.8,346.1,255.8L346.1,255.8z M377.1,255.7C377.1,255.7,377,255.7,377.1,255.7c-1.7-0.1-3.5-0.2-5.2-0.3
		c-0.5,0-0.9-0.4-0.9-0.7c0-0.4,0.4-0.7,0.9-0.7c1.7,0.1,3.5,0.1,5.2,0.3c0.5,0,0.9,0.4,0.8,0.8
		C377.8,255.4,377.5,255.7,377.1,255.7L377.1,255.7z M354.6,255.4c-0.4,0-0.9-0.3-0.9-0.7c0-0.4,0.3-0.7,0.9-0.7
		c1.7-0.1,3.5-0.1,5.2-0.1l0,0c0.4,0,0.9,0.3,0.9,0.7s-0.3,0.7-0.9,0.7C358.2,255.2,356.5,255.3,354.6,255.4
		C354.7,255.4,354.7,255.4,354.6,255.4L354.6,255.4z M368.5,255.2C368.5,255.2,368.4,255.2,368.5,255.2c-1.6,0-3.1-0.1-4.8-0.1h-0.4
		l0,0c-0.4,0-0.9-0.3-0.9-0.7s0.3-0.7,0.9-0.7h0.4c1.6,0,3.2,0,4.8,0.1c0.5,0,0.9,0.4,0.9,0.7C369.4,255,368.9,255.2,368.5,255.2
		L368.5,255.2z M48.4,252.2c-0.3,0-0.6-0.1-0.8-0.4c-0.8-1.2-1.6-2.5-2.3-3.8c-0.2-0.4,0-0.8,0.4-0.9c0.4-0.1,1,0,1.1,0.4
		c0.7,1.3,1.5,2.5,2.3,3.7c0.3,0.4,0.1,0.8-0.3,1C48.6,252.2,48.4,252.2,48.4,252.2L48.4,252.2z M44.7,245.8c-0.3,0-0.7-0.1-0.8-0.4
		c-0.6-1.3-1.2-2.6-1.7-4c-0.2-0.4,0.1-0.8,0.5-0.9c0.4-0.1,1,0.1,1.1,0.4c0.5,1.3,1.1,2.7,1.7,3.9c0.2,0.4-0.1,0.8-0.5,0.9
		C44.9,245.8,44.8,245.8,44.7,245.8L44.7,245.8z M42,239.2c-0.3,0-0.7-0.2-0.9-0.5c-0.4-1.3-0.9-2.7-1.3-4.1
		c-0.1-0.4,0.2-0.8,0.7-0.8c0.4-0.1,1,0.1,1,0.6c0.3,1.4,0.8,2.7,1.2,4c0.1,0.4-0.2,0.8-0.6,0.8C42.1,239.2,42.1,239.2,42,239.2
		L42,239.2z M40.1,232.4c-0.4,0-0.8-0.2-0.9-0.6c-0.3-1.3-0.6-2.7-0.9-4.1c-0.1-0.4,0.3-0.8,0.8-0.8c0.4-0.1,1,0.2,1,0.6
		c0.3,1.4,0.5,2.7,0.8,4.1C40.9,232,40.6,232.4,40.1,232.4C40.2,232.4,40.1,232.4,40.1,232.4L40.1,232.4z M38.8,225.5
		c-0.4,0-0.8-0.3-0.9-0.6c-0.2-1.3-0.3-2.8-0.4-4.2c0-0.4,0.3-0.7,0.8-0.8c0.5,0,0.9,0.3,1,0.6c0.1,1.4,0.3,2.8,0.4,4.1
		C39.8,225.1,39.4,225.4,38.8,225.5C38.9,225.5,38.8,225.5,38.8,225.5L38.8,225.5z M38.1,218.6c-0.4,0-0.9-0.3-0.9-0.7
		c-0.1-1.4-0.1-2.8-0.2-4.2c0-0.4,0.3-0.7,0.9-0.7c0.4,0,0.9,0.3,0.9,0.7c0,1.4,0.1,2.8,0.2,4.1C39.1,218.2,38.7,218.6,38.1,218.6
		C38.2,218.6,38.2,218.6,38.1,218.6L38.1,218.6z M38.1,211.6L38.1,211.6c-0.5,0-0.9-0.4-0.9-0.7v-0.6c0-0.4,0.3-0.7,0.9-0.7
		c0.5,0,0.9,0.4,0.9,0.7v0.6C38.9,211.3,38.5,211.6,38.1,211.6L38.1,211.6z"/>
</g>
<g>
	<path class="st0" d="M38.6,200.3c-0.1,0-0.1,0-0.2,0c-0.4-0.1-0.7-0.5-0.7-0.8c0.3-1.4,0.8-2.7,1.4-4.1c0.2-0.4,0.7-0.6,1.1-0.4
		c0.4,0.1,0.7,0.6,0.5,0.9c-0.6,1.3-1,2.6-1.3,3.9C39.4,200.1,39,200.3,38.6,200.3L38.6,200.3z M41.2,193.8c-0.1,0-0.2,0-0.3-0.1
		c-0.4-0.1-0.6-0.6-0.4-0.9c0.7-1.3,1.6-2.5,2.4-3.7c0.2-0.4,0.7-0.4,1.1-0.2s0.5,0.6,0.2,1c-0.9,1.1-1.6,2.3-2.4,3.5
		C41.8,193.7,41.6,193.8,41.2,193.8L41.2,193.8z M45.6,187.9c-0.2,0-0.3-0.1-0.5-0.1c-0.3-0.2-0.4-0.7-0.2-1c1-1.1,2.1-2.2,3.3-3.2
		c0.3-0.3,0.8-0.3,1.1,0s0.3,0.7,0,1c-1.1,1-2.2,2-3.2,3C46.1,187.8,45.8,187.9,45.6,187.9L45.6,187.9z M51.2,182.9
		c-0.2,0-0.5-0.1-0.7-0.3c-0.3-0.3-0.2-0.8,0.1-1c1.2-0.9,2.5-1.8,3.9-2.6c0.4-0.2,0.9-0.1,1.1,0.2s0.2,0.8-0.2,1
		c-1.4,0.8-2.6,1.6-3.8,2.5C51.6,182.9,51.4,182.9,51.2,182.9L51.2,182.9z M57.9,178.9c-0.2,0-0.6-0.1-0.7-0.4
		c-0.2-0.4-0.1-0.8,0.2-1c1.4-0.7,2.9-1.4,4.3-2.1c0.4-0.2,0.9-0.1,1.1,0.3c0.2,0.4,0.1,0.8-0.3,0.9c-1.5,0.6-2.9,1.3-4.2,2
		C58.1,178.9,58,178.9,57.9,178.9L57.9,178.9z M65.1,175.6c-0.3,0-0.6-0.1-0.7-0.4c-0.2-0.4,0-0.8,0.4-0.9c1.5-0.6,3-1.1,4.6-1.7
		c0.4-0.1,0.9,0,1.1,0.4c0.2,0.4,0,0.8-0.5,0.9c-1.6,0.5-3,1.1-4.5,1.6C65.3,175.6,65.2,175.6,65.1,175.6L65.1,175.6z M72.7,173
		c-0.3,0-0.7-0.2-0.7-0.5c-0.2-0.4,0.1-0.8,0.5-0.9c1.5-0.5,3.1-0.9,4.7-1.3c0.4-0.1,0.9,0.1,1.1,0.5c0.2,0.4-0.1,0.8-0.6,0.9
		c-1.6,0.4-3.1,0.8-4.7,1.3C72.8,172.9,72.7,173,72.7,173L72.7,173z M80.4,170.8c-0.3,0-0.7-0.2-0.8-0.5c-0.2-0.4,0.2-0.8,0.6-0.8
		c1.6-0.4,3.1-0.8,4.7-1.1c0.4-0.1,0.9,0.1,1,0.5c0.1,0.4-0.2,0.8-0.6,0.8c-1.6,0.4-3.2,0.7-4.7,1.1
		C80.6,170.8,80.5,170.8,80.4,170.8L80.4,170.8z M88.4,169c-0.4,0-0.7-0.2-0.8-0.6c-0.1-0.4,0.2-0.8,0.7-0.8
		c1.6-0.3,3.2-0.6,4.8-0.9c0.4-0.1,0.9,0.1,1,0.6c0.1,0.4-0.2,0.8-0.7,0.8c-1.6,0.3-3.3,0.6-4.8,0.9C88.5,169,88.4,169,88.4,169
		L88.4,169z M96.4,167.6c-0.4,0-0.7-0.2-0.8-0.6c-0.1-0.4,0.2-0.8,0.7-0.8c1.6-0.3,3.2-0.5,4.8-0.8c0.4-0.1,0.9,0.2,1,0.6
		c0.1,0.4-0.2,0.8-0.7,0.8c-1.6,0.2-3.3,0.5-4.8,0.7C96.5,167.6,96.4,167.6,96.4,167.6L96.4,167.6z M104.5,166.4
		c-0.4,0-0.7-0.3-0.8-0.6c-0.1-0.4,0.2-0.8,0.7-0.8c1.6-0.2,3.3-0.4,4.9-0.6c0.4-0.1,0.9,0.2,0.9,0.6s-0.2,0.8-0.7,0.8
		C107.7,166.1,106.1,166.3,104.5,166.4C104.6,166.4,104.5,166.4,104.5,166.4L104.5,166.4z M112.6,165.4c-0.4,0-0.7-0.3-0.8-0.6
		c-0.1-0.4,0.2-0.7,0.7-0.8c1.6-0.1,3.3-0.4,4.9-0.5c0.4-0.1,0.8,0.2,0.9,0.6c0.1,0.4-0.2,0.7-0.7,0.8
		C115.9,165.1,114.3,165.3,112.6,165.4C112.6,165.4,112.6,165.4,112.6,165.4L112.6,165.4z M120.7,164.6c-0.4,0-0.7-0.3-0.8-0.6
		s0.2-0.7,0.7-0.8c1.6-0.1,3.3-0.3,4.9-0.4c0.5-0.1,0.8,0.3,0.9,0.6c0.1,0.4-0.3,0.7-0.7,0.8C124.1,164.3,122.4,164.5,120.7,164.6
		L120.7,164.6L120.7,164.6z M128.9,164c-0.4,0-0.8-0.3-0.8-0.6c0-0.4,0.3-0.7,0.7-0.8c1.6-0.1,3.3-0.2,4.9-0.4
		c0.5,0,0.8,0.3,0.9,0.6s-0.3,0.7-0.7,0.8C132.1,163.8,130.5,163.8,128.9,164L128.9,164L128.9,164z M137,163.4
		c-0.4,0-0.8-0.3-0.8-0.6c0-0.4,0.3-0.7,0.7-0.8c1.6-0.1,3.3-0.2,4.9-0.3c0.5,0,0.8,0.3,0.9,0.6s-0.3,0.7-0.7,0.8
		C140.3,163.2,138.7,163.3,137,163.4L137,163.4L137,163.4z M145.2,163c-0.4,0-0.8-0.3-0.8-0.6c0-0.4,0.3-0.7,0.7-0.8
		c1.6-0.1,3.3-0.1,4.9-0.2c0.4,0,0.8,0.3,0.9,0.6s-0.3,0.7-0.7,0.8C148.5,162.8,146.8,162.8,145.2,163L145.2,163L145.2,163z
		 M153.3,162.6c-0.4,0-0.8-0.3-0.8-0.7s0.3-0.7,0.8-0.7c1.6-0.1,3.3-0.1,4.9-0.2c0.4,0,0.8,0.3,0.8,0.7s-0.3,0.7-0.8,0.7
		C156.7,162.4,155.1,162.5,153.3,162.6L153.3,162.6L153.3,162.6z M161.5,162.3c-0.4,0-0.8-0.3-0.8-0.7c0-0.4,0.3-0.7,0.8-0.7
		c1.6-0.1,3.3-0.1,4.9-0.1c0.4,0,0.8,0.3,0.8,0.7c0,0.4-0.3,0.7-0.8,0.7C164.8,162.1,163.2,162.2,161.5,162.3
		C161.6,162.3,161.6,162.3,161.5,162.3L161.5,162.3z M169.7,162c-0.4,0-0.8-0.3-0.8-0.7s0.3-0.7,0.8-0.7c1.6-0.1,3.3-0.1,4.9-0.1
		c0.4,0,0.8,0.3,0.8,0.7s-0.3,0.7-0.8,0.7C173,161.9,171.4,162,169.7,162L169.7,162L169.7,162z M177.9,161.8c-0.4,0-0.8-0.3-0.8-0.7
		s0.3-0.7,0.8-0.7c1.6-0.1,3.3-0.1,4.9-0.1c0.5,0,0.8,0.3,0.8,0.7s-0.3,0.7-0.8,0.7C181.2,161.7,179.5,161.7,177.9,161.8
		L177.9,161.8L177.9,161.8z M186.1,161.6c-0.4,0-0.8-0.3-0.8-0.7c0-0.4,0.3-0.7,0.8-0.7l4.9-0.1c0.4,0,0.8,0.3,0.8,0.7
		s-0.3,0.7-0.8,0.7L186.1,161.6C186.1,161.6,186.1,161.6,186.1,161.6L186.1,161.6z M194.3,161.4c-0.4,0-0.8-0.3-0.8-0.7
		s0.3-0.7,0.8-0.7l4.9-0.1l0,0c0.4,0,0.8,0.3,0.8,0.7s-0.3,0.7-0.8,0.7L194.3,161.4L194.3,161.4L194.3,161.4z M202.5,161.3
		c-0.4,0-0.8-0.3-0.8-0.7s0.3-0.7,0.8-0.7l4.9-0.1c0.4,0,0.8,0.3,0.8,0.7s-0.3,0.7-0.8,0.7L202.5,161.3L202.5,161.3L202.5,161.3z
		 M210.6,161.1c-0.4,0-0.8-0.3-0.8-0.7s0.3-0.7,0.8-0.7l4.9-0.1c0.4,0,0.8,0.3,0.8,0.7s-0.3,0.7-0.8,0.7L210.6,161.1L210.6,161.1
		L210.6,161.1z M218.9,160.9c-0.4,0-0.8-0.3-0.8-0.7s0.3-0.7,0.8-0.7c1.6,0,3.3-0.1,4.9-0.1c0.5,0,0.8,0.3,0.8,0.7s-0.3,0.7-0.8,0.7
		C222.1,160.9,220.5,160.9,218.9,160.9L218.9,160.9L218.9,160.9z M227,160.7c-0.4,0-0.8-0.3-0.8-0.7s0.3-0.7,0.8-0.7
		c1.6-0.1,3.3-0.1,4.9-0.1c0.5,0,0.8,0.3,0.8,0.7s-0.3,0.7-0.8,0.7C230.3,160.7,228.6,160.7,227,160.7L227,160.7L227,160.7z
		 M235.2,160.5c-0.4,0-0.8-0.3-0.8-0.7c0-0.4,0.3-0.7,0.8-0.7c1.6-0.1,3.3-0.1,4.9-0.1c0.5,0,0.8,0.3,0.8,0.7c0,0.4-0.3,0.7-0.8,0.7
		C238.5,160.5,236.8,160.5,235.2,160.5L235.2,160.5L235.2,160.5z M243.3,160.3c-0.4,0-0.8-0.3-0.8-0.7c0-0.4,0.3-0.7,0.8-0.7
		c1.6-0.1,3.3-0.1,4.9-0.1c0.4,0,0.8,0.3,0.8,0.7c0,0.4-0.3,0.7-0.8,0.7C246.7,160.2,245,160.2,243.3,160.3
		C243.4,160.3,243.4,160.3,243.3,160.3L243.3,160.3z M251.6,160c-0.4,0-0.8-0.3-0.8-0.7s0.3-0.7,0.8-0.7c1.6-0.1,3.3-0.1,4.9-0.2
		c0.4,0,0.8,0.3,0.8,0.7s-0.3,0.7-0.8,0.7C254.8,159.9,253.2,160,251.6,160L251.6,160L251.6,160z M259.7,159.7
		c-0.4,0-0.8-0.3-0.8-0.6c0-0.4,0.3-0.7,0.7-0.7c1.6-0.1,3.3-0.1,4.9-0.2c0.5,0,0.8,0.3,0.9,0.6c0,0.4-0.3,0.7-0.7,0.8
		C263.1,159.5,261.4,159.6,259.7,159.7L259.7,159.7L259.7,159.7z M267.9,159.3c-0.4,0-0.8-0.3-0.8-0.6c0-0.4,0.3-0.7,0.7-0.8
		c1.6-0.1,3.3-0.1,4.9-0.3c0.4,0,0.8,0.3,0.9,0.6c0,0.4-0.3,0.7-0.7,0.8C271.2,159.1,269.6,159.2,267.9,159.3L267.9,159.3
		L267.9,159.3z M276.1,158.8c-0.4,0-0.8-0.3-0.8-0.6c0-0.4,0.3-0.7,0.7-0.8c1.6-0.1,3.3-0.2,4.9-0.4c0.5,0,0.8,0.3,0.9,0.6
		c0,0.4-0.3,0.7-0.7,0.8C279.4,158.6,277.8,158.8,276.1,158.8C276.1,158.8,276.1,158.8,276.1,158.8L276.1,158.8z M284.2,158.3
		c-0.4,0-0.8-0.3-0.8-0.6c0-0.4,0.3-0.7,0.7-0.8c1.6-0.1,3.3-0.2,4.9-0.4c0.4-0.1,0.8,0.3,0.9,0.6c0.1,0.4-0.3,0.7-0.7,0.8
		C287.6,158.1,285.9,158.2,284.2,158.3C284.3,158.3,284.2,158.3,284.2,158.3L284.2,158.3z M292.4,157.6c-0.4,0-0.7-0.3-0.8-0.6
		c-0.1-0.4,0.2-0.7,0.7-0.8c1.6-0.1,3.3-0.3,4.9-0.4c0.5-0.1,0.8,0.2,0.9,0.6c0.1,0.4-0.2,0.7-0.7,0.8
		C295.7,157.4,294.1,157.5,292.4,157.6L292.4,157.6L292.4,157.6z M300.5,156.9c-0.4,0-0.7-0.3-0.8-0.6s0.2-0.7,0.7-0.8
		c1.6-0.1,3.3-0.4,4.9-0.5c0.4-0.1,0.8,0.2,0.9,0.6c0.1,0.4-0.2,0.7-0.7,0.8C303.9,156.6,302.2,156.7,300.5,156.9L300.5,156.9
		L300.5,156.9z M308.6,156c-0.4,0-0.7-0.3-0.8-0.6s0.2-0.8,0.7-0.8c1.6-0.2,3.3-0.4,4.8-0.6c0.4-0.1,0.9,0.2,0.9,0.6
		c0.1,0.4-0.2,0.8-0.7,0.8C311.9,155.5,310.3,155.8,308.6,156C308.7,156,308.7,156,308.6,156L308.6,156z M316.8,155
		c-0.4,0-0.7-0.2-0.8-0.6c-0.1-0.4,0.2-0.8,0.7-0.8c1.6-0.2,3.3-0.5,4.8-0.7c0.4-0.1,0.9,0.2,1,0.6c0.1,0.4-0.2,0.8-0.7,0.8
		c-1.6,0.3-3.2,0.5-4.8,0.7C316.8,155,316.8,155,316.8,155L316.8,155z M324.8,153.7c-0.4,0-0.7-0.2-0.8-0.6
		c-0.1-0.4,0.2-0.8,0.7-0.8c1.6-0.3,3.2-0.6,4.8-0.8c0.4-0.1,0.9,0.1,1,0.6c0.1,0.4-0.2,0.8-0.7,0.8c-1.6,0.3-3.2,0.6-4.8,0.8
		C324.9,153.7,324.8,153.7,324.8,153.7L324.8,153.7z M332.8,152.3c-0.4,0-0.7-0.2-0.8-0.6c-0.1-0.4,0.2-0.8,0.7-0.8
		c1.6-0.3,3.2-0.6,4.7-1c0.4-0.1,0.9,0.1,1,0.5c0.1,0.4-0.2,0.8-0.6,0.8c-1.6,0.4-3.2,0.6-4.8,1
		C332.9,152.3,332.8,152.3,332.8,152.3L332.8,152.3z M340.7,150.6c-0.3,0-0.7-0.2-0.8-0.5c-0.1-0.4,0.2-0.8,0.6-0.8
		c1.6-0.4,3.2-0.8,4.7-1.1c0.4-0.1,0.9,0.1,1,0.5c0.2,0.4-0.1,0.8-0.6,0.8c-1.6,0.4-3.2,0.8-4.7,1.1
		C340.9,150.6,340.8,150.6,340.7,150.6L340.7,150.6z M348.6,148.7c-0.3,0-0.7-0.2-0.8-0.5c-0.2-0.4,0.1-0.8,0.6-0.9
		c1.6-0.4,3.1-0.8,4.7-1.3c0.4-0.1,0.9,0.1,1.1,0.4c0.2,0.4-0.1,0.8-0.5,0.9c-1.6,0.4-3.1,0.9-4.7,1.3
		C348.7,148.7,348.7,148.7,348.6,148.7L348.6,148.7z M356.3,146.4c-0.3,0-0.7-0.1-0.7-0.5c-0.2-0.4,0.1-0.8,0.5-0.9
		c1.6-0.5,3.1-1,4.6-1.5c0.4-0.1,0.9,0,1.1,0.4c0.2,0.4,0,0.8-0.4,0.9c-1.5,0.6-3,1.1-4.6,1.5C356.6,146.4,356.4,146.4,356.3,146.4
		L356.3,146.4z M363.9,143.8c-0.3,0-0.6-0.1-0.7-0.4c-0.2-0.4,0-0.8,0.4-0.9c1.5-0.6,3-1.2,4.4-1.8c0.4-0.1,0.9,0,1.1,0.3
		c0.2,0.4,0,0.8-0.3,0.9c-1.5,0.6-2.9,1.3-4.5,1.8C364.2,143.7,364,143.8,363.9,143.8L363.9,143.8z M371.3,140.7
		c-0.3,0-0.6-0.1-0.7-0.4c-0.2-0.4-0.1-0.8,0.3-1c1.5-0.7,2.9-1.4,4.2-2.1c0.4-0.2,0.9-0.1,1.1,0.2c0.2,0.4,0.1,0.8-0.2,1
		c-1.4,0.7-2.8,1.4-4.2,2.1C371.5,140.7,371.4,140.7,371.3,140.7L371.3,140.7z M378.3,137.1c-0.2,0-0.5-0.1-0.7-0.3
		c-0.2-0.4-0.2-0.8,0.2-1c1.4-0.8,2.7-1.6,3.9-2.4c0.3-0.2,0.9-0.2,1.1,0.1c0.2,0.3,0.2,0.8-0.2,1c-1.3,0.8-2.6,1.7-4,2.5
		C378.5,137,378.4,137.1,378.3,137.1L378.3,137.1z M384.7,132.9c-0.2,0-0.5-0.1-0.7-0.3c-0.3-0.3-0.2-0.8,0.1-1
		c1.2-0.9,2.4-1.8,3.6-2.8c0.3-0.3,0.8-0.3,1.1,0c0.3,0.3,0.3,0.7,0,1c-1.1,1-2.4,2-3.7,2.9C385.1,132.8,385,132.9,384.7,132.9
		L384.7,132.9z M390.7,128c-0.2,0-0.4-0.1-0.6-0.2c-0.3-0.3-0.3-0.7-0.1-1c1.1-1.1,2.1-2.1,3.1-3.2c0.2-0.3,0.8-0.4,1.1-0.1
		c0.3,0.2,0.4,0.7,0.2,1c-1,1.1-2,2.2-3.2,3.2C391.1,127.9,390.8,128,390.7,128L390.7,128z M395.7,122.5c-0.2,0-0.3-0.1-0.5-0.1
		c-0.4-0.2-0.5-0.6-0.2-1c0.9-1.1,1.7-2.3,2.5-3.5c0.2-0.4,0.7-0.5,1.1-0.3s0.6,0.6,0.3,1c-0.8,1.2-1.6,2.5-2.6,3.6
		C396.2,122.5,396,122.5,395.7,122.5L395.7,122.5z M399.7,116.5c-0.1,0-0.2,0-0.3-0.1c-0.4-0.1-0.6-0.6-0.4-0.9
		c0.7-1.2,1.3-2.5,1.9-3.8c0.2-0.4,0.7-0.6,1.1-0.4s0.7,0.6,0.5,0.9c-0.6,1.3-1.2,2.7-2,3.9C400.4,116.4,400.1,116.5,399.7,116.5
		L399.7,116.5z M402.8,110c-0.1,0-0.2,0-0.2,0c-0.4-0.1-0.7-0.5-0.6-0.9c0.5-1.3,0.9-2.7,1.2-4c0.1-0.4,0.6-0.6,1-0.6
		c0.4,0.1,0.7,0.5,0.7,0.8c-0.3,1.4-0.8,2.8-1.3,4.1C403.4,109.8,403.1,110,402.8,110L402.8,110z M404.6,103.2c-0.1,0-0.1,0-0.2,0
		c-0.4-0.1-0.7-0.4-0.7-0.8c0.2-1.3,0.5-2.7,0.7-4.1c0.1-0.4,0.4-0.7,0.9-0.6c0.4,0.1,0.8,0.4,0.7,0.8c-0.2,1.4-0.4,2.9-0.7,4.2
		C405.4,103,405,103.2,404.6,103.2L404.6,103.2z M405.4,96.2L405.4,96.2c-0.5,0-0.8-0.4-0.8-0.7c0.1-1.1,0.1-2.1,0.1-3.2
		c0-0.4,0-0.7,0-1.1c0-0.4,0.3-0.7,0.8-0.7c0.5,0,0.8,0.3,0.8,0.7c0,0.4,0,0.7,0,1.1c0,1.1,0,2.2-0.1,3.2
		C406.3,95.9,405.9,96.2,405.4,96.2L405.4,96.2z M405.4,89.2c-0.4,0-0.8-0.3-0.8-0.6c0-0.6-0.1-1.3-0.2-1.9c0-0.4,0.3-0.7,0.7-0.8
		c0.5,0,0.8,0.3,0.9,0.6c0.1,0.6,0.1,1.3,0.2,1.9C406.3,88.8,405.9,89.2,405.4,89.2L405.4,89.2L405.4,89.2z"/>
</g>
<g>
	<path class="st0" d="M399.2,56.2c-0.3,0-0.7-0.1-0.8-0.4c-0.6-1.1-1.4-2.3-2.4-3.4c-0.3-0.3-0.1-0.7,0.2-0.9
		c0.4-0.2,0.9-0.1,1.2,0.2c1,1.2,1.8,2.3,2.5,3.6c0.2,0.3,0,0.7-0.4,0.9C399.4,56.2,399.3,56.2,399.2,56.2L399.2,56.2z M394.9,50.6
		c-0.3,0-0.5-0.1-0.7-0.2c-1-1-2.1-1.9-3.3-2.9c-0.3-0.3-0.4-0.7,0-0.9s0.8-0.3,1.2,0c1.2,1,2.4,2,3.4,3c0.3,0.3,0.2,0.7-0.1,0.9
		C395.2,50.5,395,50.6,394.9,50.6L394.9,50.6z M389,45.8c-0.2,0-0.4-0.1-0.6-0.2c-1.2-0.8-2.5-1.7-3.9-2.5c-0.3-0.2-0.4-0.6-0.2-0.9
		c0.3-0.3,0.8-0.4,1.2-0.2c1.4,0.8,2.8,1.7,4,2.5c0.3,0.3,0.4,0.7,0,0.9C389.5,45.7,389.2,45.8,389,45.8L389,45.8z M382.3,41.8
		c-0.2,0-0.3-0.1-0.5-0.1c-1.4-0.7-2.8-1.4-4.2-2.1c-0.4-0.2-0.5-0.6-0.3-0.9c0.2-0.3,0.8-0.4,1.2-0.2c1.6,0.7,2.9,1.4,4.3,2.1
		c0.3,0.2,0.5,0.6,0.2,0.9C382.8,41.7,382.5,41.8,382.3,41.8L382.3,41.8z M375,38.4c-0.2,0-0.3,0-0.4-0.1c-1.5-0.6-2.9-1.2-4.5-1.8
		c-0.4-0.2-0.6-0.6-0.4-0.9c0.2-0.3,0.8-0.5,1.2-0.3c1.6,0.6,3.1,1.2,4.6,1.8c0.4,0.2,0.5,0.6,0.4,0.9
		C375.6,38.2,375.3,38.4,375,38.4L375,38.4z M367.4,35.5c-0.1,0-0.3,0-0.3-0.1c-1.5-0.6-3.1-1-4.7-1.5c-0.4-0.1-0.6-0.5-0.4-0.8
		c0.2-0.3,0.7-0.5,1.1-0.4c1.6,0.5,3.2,1,4.7,1.6c0.4,0.1,0.6,0.5,0.4,0.8C368,35.3,367.7,35.4,367.4,35.5L367.4,35.5z M359.6,32.9
		c-0.1,0-0.3,0-0.3-0.1c-1.6-0.5-3.1-0.9-4.7-1.4c-0.4-0.1-0.7-0.5-0.5-0.8c0.2-0.3,0.7-0.5,1.1-0.4c1.6,0.4,3.3,0.9,4.8,1.4
		c0.4,0.1,0.6,0.5,0.4,0.8C360.2,32.7,359.8,32.9,359.6,32.9L359.6,32.9z M351.6,30.6c-0.1,0-0.2,0-0.3-0.1
		c-1.5-0.4-3.2-0.8-4.8-1.2c-0.4-0.1-0.7-0.5-0.5-0.8c0.2-0.3,0.7-0.5,1.1-0.4c1.6,0.4,3.3,0.8,4.9,1.2c0.4,0.1,0.7,0.5,0.5,0.8
		C352.2,30.4,351.9,30.6,351.6,30.6L351.6,30.6z M343.4,28.6c-0.1,0-0.2,0-0.3-0.1c-1.6-0.4-3.3-0.7-4.9-1.1
		c-0.4-0.1-0.7-0.4-0.6-0.8c0.2-0.3,0.6-0.5,1.1-0.5c1.6,0.4,3.4,0.7,4.9,1.1c0.4,0.1,0.7,0.4,0.5,0.8
		C344.1,28.4,343.8,28.6,343.4,28.6L343.4,28.6z M335.2,26.8c-0.1,0-0.2,0-0.3,0c-1.6-0.4-3.3-0.6-5-1c-0.4-0.1-0.7-0.4-0.6-0.8
		c0.1-0.3,0.6-0.5,1-0.5c1.7,0.3,3.3,0.6,5,1c0.4,0.1,0.7,0.4,0.6,0.8C335.9,26.6,335.6,26.8,335.2,26.8L335.2,26.8z M326.9,25.2
		c-0.1,0-0.2,0-0.3,0c-1.6-0.3-3.3-0.6-5-0.9c-0.4-0.1-0.8-0.4-0.6-0.8c0.1-0.3,0.6-0.6,1-0.5c1.7,0.3,3.3,0.6,5,0.9
		c0.4,0.1,0.8,0.4,0.6,0.8C327.6,25,327.3,25.2,326.9,25.2L326.9,25.2z M318.6,23.7c-0.1,0-0.2,0-0.2,0c-1.6-0.3-3.3-0.5-5-0.8
		c-0.4-0.1-0.8-0.4-0.7-0.8c0.1-0.3,0.6-0.6,1-0.6c1.7,0.3,3.3,0.5,5.1,0.8c0.4,0.1,0.8,0.4,0.6,0.8
		C319.4,23.5,318.9,23.7,318.6,23.7L318.6,23.7z M310.2,22.5c-0.1,0-0.1,0-0.2,0c-1.6-0.2-3.3-0.5-5.1-0.7c-0.4-0.1-0.8-0.4-0.7-0.8
		c0.1-0.3,0.5-0.6,1-0.6c1.7,0.2,3.3,0.4,5.1,0.7c0.4,0.1,0.8,0.4,0.7,0.8S310.6,22.5,310.2,22.5L310.2,22.5z M301.8,21.3
		c-0.1,0-0.1,0-0.2,0c-1.6-0.2-3.3-0.4-5.1-0.7c-0.4-0.1-0.8-0.4-0.7-0.8c0.1-0.3,0.5-0.6,1-0.6c1.7,0.2,3.4,0.4,5.1,0.7
		c0.4,0.1,0.8,0.4,0.7,0.8C302.5,21.1,302.2,21.3,301.8,21.3L301.8,21.3z M293.4,20.2c-0.1,0-0.1,0-0.2,0c-1.7-0.2-3.3-0.4-5.1-0.6
		c-0.4-0.1-0.8-0.4-0.7-0.8c0.1-0.3,0.5-0.6,1-0.6c1.7,0.2,3.4,0.4,5.1,0.6c0.4,0.1,0.8,0.4,0.7,0.8C294.1,20,293.8,20.2,293.4,20.2
		L293.4,20.2z M284.9,19.3c-0.1,0-0.1,0-0.2,0c-1.7-0.2-3.3-0.4-5.1-0.5c-0.4-0.1-0.8-0.4-0.7-0.7c0.1-0.3,0.5-0.6,0.9-0.6
		c1.7,0.2,3.4,0.3,5.1,0.5c0.4,0.1,0.8,0.4,0.7,0.8C285.7,19,285.3,19.2,284.9,19.3L284.9,19.3z M276.4,18.4c-0.1,0-0.1,0-0.2,0
		c-1.7-0.2-3.4-0.3-5.1-0.5c-0.4-0.1-0.8-0.4-0.7-0.7c0.1-0.3,0.5-0.6,0.9-0.6c1.7,0.2,3.4,0.3,5.1,0.5c0.4,0.1,0.8,0.4,0.7,0.7
		C277.2,18.2,276.8,18.4,276.4,18.4L276.4,18.4z M267.9,17.6L267.9,17.6c-1.8-0.2-3.4-0.3-5.1-0.4c-0.4-0.1-0.8-0.4-0.8-0.7
		c0.1-0.3,0.5-0.6,0.9-0.6c1.7,0.2,3.4,0.2,5.1,0.4c0.4,0.1,0.8,0.4,0.7,0.7C268.7,17.4,268.4,17.6,267.9,17.6L267.9,17.6z
		 M259.5,16.9L259.5,16.9c-1.8-0.2-3.5-0.2-5.1-0.4c-0.4-0.1-0.8-0.4-0.8-0.7c0.1-0.3,0.5-0.6,0.9-0.6c1.7,0.1,3.4,0.2,5.1,0.4
		c0.4,0.1,0.8,0.4,0.8,0.7C260.3,16.7,259.9,16.9,259.5,16.9L259.5,16.9z M251,16.3L251,16.3c-1.8-0.1-3.5-0.2-5.2-0.3
		c-0.4-0.1-0.8-0.4-0.8-0.7c0-0.3,0.5-0.7,0.9-0.6c1.7,0.1,3.4,0.2,5.1,0.3c0.4,0.1,0.8,0.4,0.8,0.7C251.7,16.1,251.4,16.3,251,16.3
		L251,16.3z M242.4,15.8L242.4,15.8c-1.8-0.1-3.5-0.2-5.2-0.3c-0.4-0.1-0.8-0.3-0.8-0.7c0.1-0.4,0.5-0.7,0.9-0.6
		c1.7,0.1,3.4,0.2,5.1,0.3c0.4,0.1,0.8,0.4,0.8,0.7C243.3,15.5,242.9,15.8,242.4,15.8L242.4,15.8z M233.9,15.3
		C233.9,15.3,233.9,15.3,233.9,15.3c-1.8-0.1-3.5-0.2-5.2-0.3c-0.4-0.1-0.9-0.3-0.8-0.7c0-0.4,0.4-0.7,0.9-0.6
		c1.7,0.1,3.4,0.2,5.1,0.3c0.4,0.1,0.9,0.3,0.8,0.7C234.7,15,234.4,15.3,233.9,15.3L233.9,15.3z M225.4,14.9
		C225.3,14.9,225.3,14.9,225.4,14.9c-1.8-0.1-3.5-0.1-5.2-0.2c-0.5,0-0.9-0.3-0.8-0.7c0-0.4,0.4-0.7,0.9-0.6
		c1.7,0.1,3.4,0.1,5.1,0.2c0.4,0,0.9,0.3,0.8,0.7C226.1,14.6,225.8,14.9,225.4,14.9L225.4,14.9z M216.8,14.5
		C216.7,14.5,216.7,14.5,216.8,14.5c-1.8-0.1-3.5-0.1-5.2-0.2c-0.5,0-0.9-0.3-0.8-0.7c0-0.4,0.4-0.7,0.9-0.6c1.7,0,3.4,0.1,5.1,0.2
		c0.5,0,0.9,0.3,0.8,0.7C217.6,14.2,217.3,14.5,216.8,14.5L216.8,14.5z M208.3,14.3C208.3,14.3,208.2,14.3,208.3,14.3l-0.6,0
		c-0.5,0-0.9-0.3-0.8-0.7c0-0.4,0.4-0.7,0.9-0.6l0.5,0c0.5,0,0.9,0.3,0.8,0.7C209,14,208.7,14.3,208.3,14.3L208.3,14.3z"/>
</g>
<g>
	<path class="st0" d="M434.1,306.9C434.1,306.9,434,306.9,434.1,306.9c-0.6,0-0.9-0.4-0.9-0.8c0.1-0.9,0.1-1.8,0.1-2.7s0-1.8,0-2.7
		c0-0.4,0.4-0.7,0.9-0.7l0,0c0.5,0,0.9,0.3,0.9,0.7c0,0.9,0,1.8,0,2.7c0,0.9-0.1,1.8-0.1,2.7C435,306.6,434.6,306.9,434.1,306.9
		L434.1,306.9z"/>
</g>
<g>
	<path class="st1" d="M294.3,26.8c-0.3,0-0.6-0.1-0.8-0.2c-0.3-0.3-0.3-0.7,0.2-1l7.1-4.7l-5.2-5.9c-0.3-0.3-0.2-0.8,0.3-1
		c0.4-0.3,1-0.2,1.2,0.1l6.1,6.9l-8.3,5.6C294.7,26.7,294.5,26.7,294.3,26.8L294.3,26.8z"/>
</g>
<g>
	<path class="st1" d="M295.8,164c-0.2,0-0.5-0.1-0.6-0.1l-8.5-5.7l6.1-6.7c0.3-0.4,0.8-0.4,1.3-0.1c0.5,0.2,0.6,0.6,0.2,1L289,158
		l7.3,4.8c0.4,0.3,0.5,0.7,0.1,1C296.3,164,296,164,295.8,164L295.8,164z"/>
</g>
<g>
	<path class="st1" d="M94.9,285.9c-0.3,0-0.5-0.1-0.6-0.2c-0.4-0.3-0.3-0.7,0.1-1l6.8-4.6l-5.6-6c-0.3-0.3-0.2-0.8,0.2-1
		s1-0.1,1.3,0.1l6.7,7l-8,5.5C95.4,285.8,95.2,285.9,94.9,285.9L94.9,285.9z"/>
</g>
</svg>
