<svg id="Capa_1" data-name="Capa 1" xmlns="http://www.w3.org/2000/svg" viewBox="0 0 457.15 133.36"><defs><style>.cls-1{fill:#e72e3c;}</style></defs><path class="cls-1" d="M311.09,5.27c-74.28,14.89-150.7,13.53-225.46,25-23.57,4-76.45,11.83-83.77,37.76C-.71,78.57,7.37,87.93,15.14,94.14,32.08,107.31,54.07,112,74.68,116.7c74.2,14.16,150.48,15.66,225.76,11.79,32.27-2.05,64.6-5.33,96.11-12.68,16.26-4.1,43.65-11.2,52.35-26.24,4.77-7.56,7.54-17.8,1.84-25.52-4.66-6.49-12-10.35-19.2-13.57-4.91-2.14-10-3.94-15.11-5.61-30.82-10.18-62.82-15.78-94.7-21.48-15.85-3.09-32.09-6.26-46.46-14A62.1,62.1,0,0,1,262.13,0a62.36,62.36,0,0,0,13.23,9.27c14.43,7.52,30.63,10.49,46.5,13.4,10.64,1.87,21.32,3.56,32,5.46a482.9,482.9,0,0,1,63.11,15.13c10.33,3.39,20.84,6.94,29.59,13.67,10.25,7.83,11.88,18.74,6.17,30.09A36.25,36.25,0,0,1,447,95.74c-12.13,12.53-33.39,18.19-49.88,22.51-91.73,21.26-265,21.17-354.52-7.15C32.3,107.56,22,103.18,13.48,96.21-1.78,84.13-7.77,68.13,8.48,53.4,27.64,37.29,61,32.21,85.32,28.24c74.88-11.18,151.29-9,225.77-23Z" transform="translate(1.19 0)"/></svg>